<?xml version="1.0" encoding="UTF-8" standalone="no"?>
<svg width="1472px" height="1472px" viewBox="0 0 1472 1472" version="1.1" xmlns="http://www.w3.org/2000/svg" xmlns:xlink="http://www.w3.org/1999/xlink" xmlns:sketch="http://www.bohemiancoding.com/sketch/ns">
    <!-- Generator: Sketch 3.1.1 (8761) - http://www.bohemiancoding.com/sketch -->
    <title>Vector 1</title>
    <desc>Created with Sketch.</desc>
    <defs></defs>
    <g id="Page-1" stroke="none" stroke-width="1" fill="none" fill-rule="evenodd" sketch:type="MSPage">
        <g id="solidity" sketch:type="MSLayerGroup" transform="translate(402.000000, 118.000000)">
            <g id="Group" sketch:type="MSShapeGroup">
                <path d="M470.6,-0.4 L326,256.6 L37,256.6 L181.5,-0.4 L470.6,-0.4" id="Shape" opacity="0.45" fill="#000000"></path>
                <path d="M326,256.6 L615.1,256.6 L470.6,-0.4 L181.5,-0.4 L326,256.6 Z" id="Shape" opacity="0.6" fill="#000000"></path>
                <path d="M181.5,513.5 L326,256.6 L181.5,-0.4 L37,256.6 L181.5,513.5 Z" id="Shape" opacity="0.8" fill="#000000"></path>
                <path d="M182.9,899 L327.5,642 L616.6,642 L472,899 L182.9,899" id="Shape" opacity="0.45" fill="#000000"></path>
                <path d="M327.5,642 L38.4,642 L182.9,899 L472,899 L327.5,642 Z" id="Shape" opacity="0.6" fill="#000000"></path>
                <path d="M472,385.1 L327.5,642 L472,899 L616.6,642 L472,385.1 Z" id="Shape" opacity="0.8" fill="#000000"></path>
                <path d="M9.3,1145 C9.3,1149.1 11,1152.1 14.3,1154.1 C17.6,1156.1 21.7,1157.8 26.6,1159.1 C31.5,1160.4 36.9,1161.6 42.7,1162.6 C48.5,1163.6 53.9,1165.1 58.8,1167 C63.7,1168.9 67.8,1171.6 71.1,1175 C74.4,1178.4 76.1,1183.1 76.1,1189 C76.1,1194 74.9,1198.3 72.6,1201.9 C70.3,1205.5 67.3,1208.5 63.7,1210.8 C60.1,1213.1 56.1,1214.9 51.6,1216.1 C47.2,1217.3 42.8,1217.9 38.6,1217.9 C34,1217.9 29.4,1217.4 24.9,1216.4 C20.4,1215.4 16.3,1213.8 12.7,1211.6 C9.1,1209.4 6.1,1206.5 3.8,1202.9 C1.5,1199.3 0.3,1194.8 0.3,1189.5 C0.3,1187.7 0.5,1186.1 1,1184.9 C1.5,1183.7 2.8,1183.1 5,1183.1 C6.1,1183.1 6.9,1183.6 7.4,1184.6 C7.9,1185.6 8.1,1186.6 8.1,1187.5 C8.1,1192.1 8.9,1195.9 10.6,1198.9 C12.3,1201.9 14.5,1204.2 17.4,1205.8 C20.3,1207.5 23.5,1208.6 27.2,1209.3 C30.9,1209.9 34.7,1210.3 38.6,1210.3 C41.7,1210.3 45.1,1209.9 48.6,1209.1 C52.1,1208.3 55.3,1207 58.2,1205.4 C61.1,1203.7 63.5,1201.6 65.4,1198.9 C67.3,1196.2 68.3,1193 68.3,1189.3 C68.3,1184.7 66.6,1181.1 63.3,1178.6 C60,1176.1 55.9,1174.1 51,1172.6 C46.1,1171.1 40.7,1169.9 34.9,1169 C29.1,1168.1 23.7,1166.7 18.8,1165 C13.9,1163.2 9.8,1160.9 6.5,1157.9 C3.2,1154.9 1.5,1150.8 1.5,1145.4 C1.5,1140.8 2.7,1136.9 5,1133.9 C7.3,1130.9 10.2,1128.5 13.7,1126.7 C17.2,1124.9 21,1123.7 25.2,1123.1 C29.4,1122.5 33.3,1122.1 37,1122.1 C41.4,1122.1 45.8,1122.6 50.2,1123.5 C54.5,1124.4 58.5,1125.9 62,1127.9 C65.5,1129.9 68.4,1132.7 70.6,1136.2 C72.8,1139.7 73.9,1144.1 73.9,1149.2 C73.9,1150.3 73.4,1151.2 72.5,1151.8 C71.6,1152.5 70.7,1152.8 69.7,1152.8 C68.4,1152.8 67.5,1152.3 66.9,1151.4 C66.3,1150.5 66.1,1149.6 66.1,1148.6 C65.4,1144.5 64,1141.3 62.1,1138.8 C60.2,1136.3 57.8,1134.4 55.2,1133.1 C52.5,1131.8 49.6,1130.9 46.5,1130.5 C43.4,1130 40.2,1129.8 37.1,1129.8 C34.5,1129.8 31.6,1130 28.5,1130.4 C25.4,1130.8 22.4,1131.5 19.5,1132.6 C16.6,1133.7 14.2,1135.2 12.3,1137.2 C10.3,1139 9.3,1141.7 9.3,1145 L9.3,1145 Z" id="Shape" fill="#010101"></path>
                <path d="M155.3,1120.9 C161.8,1120.9 167.8,1122.2 173.3,1124.9 C178.8,1127.6 183.6,1131.1 187.6,1135.6 C191.6,1140 194.7,1145.2 196.9,1151 C199.1,1156.8 200.2,1162.9 200.2,1169.2 C200.2,1175.5 199.1,1181.5 196.9,1187.4 C194.7,1193.2 191.6,1198.3 187.6,1202.8 C183.6,1207.2 178.9,1210.8 173.3,1213.5 C167.8,1216.2 161.8,1217.5 155.3,1217.5 C148.8,1217.5 142.9,1216.2 137.4,1213.5 C131.9,1210.8 127.2,1207.3 123.3,1202.8 C119.3,1198.4 116.2,1193.2 114,1187.4 C111.8,1181.6 110.7,1175.5 110.7,1169.2 C110.7,1162.9 111.8,1156.9 114,1151 C116.2,1145.2 119.3,1140.1 123.3,1135.6 C127.3,1131.2 132,1127.6 137.4,1124.9 C142.9,1122.2 148.8,1120.9 155.3,1120.9 L155.3,1120.9 Z M155.3,1209.5 C160.8,1209.5 165.9,1208.3 170.4,1206 C174.9,1203.7 178.8,1200.7 182,1197 C185.2,1193.3 187.7,1189 189.5,1184.1 C191.3,1179.2 192.1,1174.2 192.1,1169 C192.1,1163.8 191.2,1158.8 189.5,1154 C187.7,1149.2 185.2,1145 182,1141.3 C178.8,1137.6 174.9,1134.6 170.4,1132.3 C165.9,1130 160.8,1128.8 155.3,1128.8 C149.9,1128.8 145,1130 140.5,1132.3 C136,1134.6 132.1,1137.6 128.9,1141.3 C125.7,1145 123.1,1149.2 121.3,1154 C119.5,1158.8 118.5,1163.8 118.5,1169 C118.5,1174.2 119.4,1179.2 121.3,1184.1 C123.1,1189 125.7,1193.3 128.9,1197 C132.1,1200.7 136,1203.7 140.5,1206 C145,1208.4 149.9,1209.5 155.3,1209.5 L155.3,1209.5 Z" id="Shape" fill="#010101"></path>
                <path d="M240.8,1045.8 C241.9,1045.8 242.8,1046.2 243.6,1047 C244.3,1047.8 244.7,1048.7 244.7,1049.6 L244.7,1212 C244.7,1212.9 244.3,1213.8 243.6,1214.6 C242.9,1215.4 241.9,1215.8 240.8,1215.8 C239.7,1215.8 238.8,1215.4 238,1214.6 C237.3,1213.8 236.9,1212.9 236.9,1212 L236.9,1049.6 C236.9,1048.7 237.3,1047.8 238,1047 C238.7,1046.2 239.7,1045.8 240.8,1045.8 L240.8,1045.8 Z" id="Shape" fill="#010101"></path>
                <path d="M290.2,1096.5 C290.2,1098.2 289.6,1099.6 288.3,1100.8 C287,1102 285.5,1102.6 283.9,1102.6 C282.1,1102.6 280.5,1102 279.3,1100.8 C278.1,1099.6 277.5,1098.2 277.5,1096.5 C277.5,1094.7 278.1,1093.1 279.3,1091.9 C280.5,1090.7 282,1090.1 283.9,1090.1 C285.6,1090.1 287,1090.7 288.3,1091.9 C289.6,1093.1 290.2,1094.6 290.2,1096.5 L290.2,1096.5 Z M283.9,1123.6 C284.8,1123.6 285.7,1124 286.5,1124.8 C287.3,1125.6 287.7,1126.5 287.7,1127.4 L287.7,1211.6 C287.7,1212.5 287.3,1213.4 286.5,1214.2 C285.7,1215 284.8,1215.4 283.9,1215.4 C282.8,1215.4 281.9,1215 281.1,1214.2 C280.4,1213.4 280,1212.5 280,1211.6 L280,1127.4 C280,1126.5 280.4,1125.6 281.1,1124.8 C281.8,1124.1 282.8,1123.6 283.9,1123.6 L283.9,1123.6 Z" id="Shape" fill="#010101"></path>
                <path d="M410.2,1045.5 C411.3,1045.5 412.2,1045.9 413,1046.7 C413.7,1047.5 414.1,1048.4 414.1,1049.3 L414.1,1211.4 C414.1,1214 412.8,1215.3 410.2,1215.3 C407.6,1215.3 406.3,1214 406.3,1211.4 L406.3,1193.7 C402.4,1200.9 397.1,1206.7 390.2,1211.2 C383.4,1215.6 375.8,1217.9 367.5,1217.9 C361,1217.9 355.1,1216.6 349.6,1213.9 C344.1,1211.2 339.4,1207.7 335.5,1203.2 C331.5,1198.8 328.4,1193.6 326.2,1187.8 C324,1182 322.9,1175.9 322.9,1169.6 C322.9,1163.3 324,1157.3 326.2,1151.4 C328.4,1145.6 331.5,1140.5 335.5,1136 C339.5,1131.6 344.2,1128 349.6,1125.3 C355,1122.6 361,1121.3 367.5,1121.3 C375.8,1121.3 383.4,1123.6 390.2,1128.1 C397,1132.6 402.4,1138.5 406.3,1145.7 L406.3,1049.3 C406.3,1048.4 406.7,1047.5 407.4,1046.7 C408.2,1045.9 409.1,1045.5 410.2,1045.5 L410.2,1045.5 Z M367.5,1210.1 C373,1210.1 378.1,1208.9 382.6,1206.6 C387.1,1204.3 391,1201.3 394.2,1197.6 C397.4,1193.9 399.9,1189.6 401.7,1184.7 C403.5,1179.8 404.3,1174.8 404.3,1169.6 C404.3,1164.4 403.4,1159.4 401.7,1154.5 C399.9,1149.6 397.4,1145.3 394.2,1141.6 C391,1137.9 387.1,1134.9 382.6,1132.6 C378.1,1130.3 373,1129.1 367.5,1129.1 C362.1,1129.1 357.2,1130.3 352.7,1132.6 C348.2,1134.9 344.3,1137.9 341.1,1141.6 C337.9,1145.3 335.3,1149.6 333.5,1154.5 C331.7,1159.4 330.7,1164.4 330.7,1169.6 C330.7,1174.8 331.6,1179.8 333.5,1184.7 C335.3,1189.6 337.9,1193.9 341.1,1197.6 C344.3,1201.3 348.2,1204.3 352.7,1206.6 C357.2,1208.9 362.2,1210.1 367.5,1210.1 L367.5,1210.1 Z" id="Shape" fill="#010101"></path>
                <path d="M461.1,1096.5 C461.1,1098.2 460.5,1099.6 459.2,1100.8 C457.9,1102 456.4,1102.6 454.8,1102.6 C453,1102.6 451.4,1102 450.2,1100.8 C449,1099.6 448.4,1098.2 448.4,1096.5 C448.4,1094.7 449,1093.1 450.2,1091.9 C451.4,1090.7 452.9,1090.1 454.8,1090.1 C456.5,1090.1 457.9,1090.7 459.2,1091.9 C460.4,1093.1 461.1,1094.6 461.1,1096.5 L461.1,1096.5 Z M454.7,1123.6 C455.6,1123.6 456.5,1124 457.3,1124.8 C458.1,1125.6 458.5,1126.5 458.5,1127.4 L458.5,1211.6 C458.5,1212.5 458.1,1213.4 457.3,1214.2 C456.5,1215 455.6,1215.4 454.7,1215.4 C453.6,1215.4 452.7,1215 451.9,1214.2 C451.2,1213.4 450.8,1212.5 450.8,1211.6 L450.8,1127.4 C450.8,1126.5 451.2,1125.6 451.9,1124.8 C452.7,1124.1 453.6,1123.6 454.7,1123.6 L454.7,1123.6 Z" id="Shape" fill="#010101"></path>
                <path d="M542.2,1123.1 C543.3,1123.1 544.2,1123.5 545,1124.3 C545.7,1125.1 546.1,1126 546.1,1126.9 C546.1,1129.5 544.8,1130.8 542.2,1130.8 L521.4,1130.8 L521.4,1212.3 C521.4,1213.2 521,1214.1 520.3,1214.9 C519.6,1215.7 518.6,1216.1 517.5,1216.1 C516.4,1216.1 515.5,1215.7 514.7,1214.9 C514,1214.1 513.6,1213.2 513.6,1212.3 L513.6,1130.8 L493.6,1130.8 C491,1130.8 489.7,1129.5 489.7,1126.9 C489.7,1126 490.1,1125.1 490.8,1124.3 C491.5,1123.5 492.5,1123.1 493.6,1123.1 L513.6,1123.1 L513.6,1093.2 C513.6,1090.6 514.9,1089.3 517.5,1089.3 C520.1,1089.3 521.4,1090.6 521.4,1093.2 L521.4,1123.1 L542.2,1123.1 L542.2,1123.1 Z" id="Shape" fill="#010101"></path>
                <path d="M649.7,1122.8 C652.3,1122.8 653.6,1124.1 653.6,1126.7 C653.6,1126.9 652.9,1128.9 651.4,1132.8 C649.9,1136.7 648,1141.7 645.7,1147.9 C643.4,1154.1 640.7,1161.2 637.7,1169.1 C634.7,1177 631.5,1185.2 628.1,1193.6 C624.8,1202 621.5,1210.3 618.4,1218.4 C615.3,1226.5 612.3,1234 609.7,1240.7 C607,1247.4 604.8,1253.2 602.9,1257.9 C601.1,1262.6 599.9,1265.6 599.3,1266.9 C598.4,1268.6 597.2,1269.4 595.7,1269.4 C594.8,1269.4 593.9,1269 593.1,1268.2 C592.3,1267.4 591.9,1266.5 591.9,1265.6 C591.9,1265.2 592.4,1263.8 593.3,1261.3 C594.2,1258.8 595.3,1255.8 596.6,1252.3 C597.9,1248.8 599.4,1245 601,1240.8 C602.7,1236.6 604.2,1232.7 605.7,1228.9 C607.2,1225.1 608.5,1221.8 609.6,1219.1 C610.7,1216.3 611.4,1214.5 611.8,1213.6 C611.6,1213.4 610.6,1211.2 608.8,1207 C607,1202.8 604.7,1197.4 602,1191.1 C599.3,1184.7 596.5,1177.8 593.5,1170.5 C590.5,1163.1 587.8,1156.2 585.2,1149.9 C582.6,1143.5 580.4,1138.2 578.7,1133.8 C576.9,1129.5 576.1,1127.2 576.1,1127 C576.1,1124.4 577.4,1123.1 580,1123.1 C581.8,1123.1 583,1123.8 583.6,1125.3 L615.7,1203.7 L646.2,1125.6 C646.6,1123.6 647.8,1122.8 649.7,1122.8 L649.7,1122.8 Z" id="Shape" fill="#010101"></path>
            </g>
        </g>
    </g>
</svg>