<?xml version="1.0" encoding="utf-8"?>
<!-- Generator: Adobe Illustrator 18.1.1, SVG Export Plug-In . SVG Version: 6.00 Build 0)  -->
<svg version="1.1" id="Layer_1" xmlns="http://www.w3.org/2000/svg" xmlns:xlink="http://www.w3.org/1999/xlink" x="0px" y="0px"
	 viewBox="0 0 3840 2160" enable-background="new 0 0 3840 2160" xml:space="preserve">
<g>
	<polyline opacity="0.45" points="2063.6,490.6 1919,747.6 1630,747.6 1774.5,490.6 2063.6,490.6 	"/>
	<polygon opacity="0.6" points="1919,747.6 2208.1,747.6 2063.6,490.6 1774.5,490.6 	"/>
	<polygon opacity="0.8" points="1774.5,1004.5 1919,747.6 1774.5,490.6 1630,747.6 	"/>
	<polyline opacity="0.45" points="1775.9,1390 1920.5,1133 2209.6,1133 2065,1390 1775.9,1390 	"/>
	<polygon opacity="0.6" points="1920.5,1133 1631.4,1133 1775.9,1390 2065,1390 	"/>
	<polygon opacity="0.8" points="2065,876.1 1920.5,1133 2065,1390 2209.6,1133 	"/>
	<path fill="#010101" d="M1602.3,1636c0,4.1,1.7,7.1,5,9.1c3.3,2,7.4,3.7,12.3,5c4.9,1.3,10.3,2.5,16.1,3.5c5.8,1,11.2,2.5,16.1,4.4
		c4.9,1.9,9,4.6,12.3,8c3.3,3.4,5,8.1,5,14c0,5-1.2,9.3-3.5,12.9c-2.3,3.6-5.3,6.6-8.9,8.9c-3.6,2.3-7.6,4.1-12.1,5.3
		c-4.4,1.2-8.8,1.8-13,1.8c-4.6,0-9.2-0.5-13.7-1.5c-4.5-1-8.6-2.6-12.2-4.8c-3.6-2.2-6.6-5.1-8.9-8.7c-2.3-3.6-3.5-8.1-3.5-13.4
		c0-1.8,0.2-3.4,0.7-4.6c0.5-1.2,1.8-1.8,4-1.8c1.1,0,1.9,0.5,2.4,1.5c0.5,1,0.7,2,0.7,2.9c0,4.6,0.8,8.4,2.5,11.4
		c1.7,3,3.9,5.3,6.8,6.9c2.9,1.7,6.1,2.8,9.8,3.5c3.7,0.6,7.5,1,11.4,1c3.1,0,6.5-0.4,10-1.2c3.5-0.8,6.7-2.1,9.6-3.7
		c2.9-1.7,5.3-3.8,7.2-6.5c1.9-2.7,2.9-5.9,2.9-9.6c0-4.6-1.7-8.2-5-10.7c-3.3-2.5-7.4-4.5-12.3-6c-4.9-1.5-10.3-2.7-16.1-3.6
		c-5.8-0.9-11.2-2.3-16.1-4c-4.9-1.8-9-4.1-12.3-7.1c-3.3-3-5-7.1-5-12.5c0-4.6,1.2-8.5,3.5-11.5c2.3-3,5.2-5.4,8.7-7.2
		c3.5-1.8,7.3-3,11.5-3.6c4.2-0.6,8.1-1,11.8-1c4.4,0,8.8,0.5,13.2,1.4c4.3,0.9,8.3,2.4,11.8,4.4c3.5,2,6.4,4.8,8.6,8.3
		c2.2,3.5,3.3,7.9,3.3,13c0,1.1-0.5,2-1.4,2.6c-0.9,0.7-1.8,1-2.8,1c-1.3,0-2.2-0.5-2.8-1.4c-0.6-0.9-0.8-1.8-0.8-2.8
		c-0.7-4.1-2.1-7.3-4-9.8c-1.9-2.5-4.3-4.4-6.9-5.7c-2.7-1.3-5.6-2.2-8.7-2.6c-3.1-0.5-6.3-0.7-9.4-0.7c-2.6,0-5.5,0.2-8.6,0.6
		c-3.1,0.4-6.1,1.1-9,2.2c-2.9,1.1-5.3,2.6-7.2,4.6C1603.3,1630,1602.3,1632.7,1602.3,1636z"/>
	<path fill="#010101" d="M1748.3,1611.9c6.5,0,12.5,1.3,18,4c5.5,2.7,10.3,6.2,14.3,10.7c4,4.4,7.1,9.6,9.3,15.4
		c2.2,5.8,3.3,11.9,3.3,18.2c0,6.3-1.1,12.3-3.3,18.2c-2.2,5.8-5.3,10.9-9.3,15.4c-4,4.4-8.7,8-14.3,10.7c-5.5,2.7-11.5,4-18,4
		c-6.5,0-12.4-1.3-17.9-4c-5.5-2.7-10.2-6.2-14.1-10.7c-4-4.4-7.1-9.6-9.3-15.4c-2.2-5.8-3.3-11.9-3.3-18.2c0-6.3,1.1-12.3,3.3-18.2
		c2.2-5.8,5.3-10.9,9.3-15.4c4-4.4,8.7-8,14.1-10.7C1735.9,1613.2,1741.8,1611.9,1748.3,1611.9z M1748.3,1700.5
		c5.5,0,10.6-1.2,15.1-3.5c4.5-2.3,8.4-5.3,11.6-9c3.2-3.7,5.7-8,7.5-12.9c1.8-4.9,2.6-9.9,2.6-15.1c0-5.2-0.9-10.2-2.6-15
		c-1.8-4.8-4.3-9-7.5-12.7c-3.2-3.7-7.1-6.7-11.6-9c-4.5-2.3-9.6-3.5-15.1-3.5c-5.4,0-10.3,1.2-14.8,3.5c-4.5,2.3-8.4,5.3-11.6,9
		c-3.2,3.7-5.8,7.9-7.6,12.7c-1.8,4.8-2.8,9.8-2.8,15c0,5.2,0.9,10.2,2.8,15.1c1.8,4.9,4.4,9.2,7.6,12.9c3.2,3.7,7.1,6.7,11.6,9
		C1738,1699.4,1742.9,1700.5,1748.3,1700.5z"/>
	<path fill="#010101" d="M1833.8,1536.8c1.1,0,2,0.4,2.8,1.2c0.7,0.8,1.1,1.7,1.1,2.6V1703c0,0.9-0.4,1.8-1.1,2.6
		c-0.7,0.8-1.7,1.2-2.8,1.2c-1.1,0-2-0.4-2.8-1.2c-0.7-0.8-1.1-1.7-1.1-2.6v-162.4c0-0.9,0.4-1.8,1.1-2.6
		C1831.7,1537.2,1832.7,1536.8,1833.8,1536.8z"/>
	<path fill="#010101" d="M1883.2,1587.5c0,1.7-0.6,3.1-1.9,4.3c-1.3,1.2-2.8,1.8-4.4,1.8c-1.8,0-3.4-0.6-4.6-1.8
		c-1.2-1.2-1.8-2.6-1.8-4.3c0-1.8,0.6-3.4,1.8-4.6c1.2-1.2,2.7-1.8,4.6-1.8c1.7,0,3.1,0.6,4.4,1.8
		C1882.6,1584.1,1883.2,1585.6,1883.2,1587.5z M1876.9,1614.6c0.9,0,1.8,0.4,2.6,1.2c0.8,0.8,1.2,1.7,1.2,2.6v84.2
		c0,0.9-0.4,1.8-1.2,2.6c-0.8,0.8-1.7,1.2-2.6,1.2c-1.1,0-2-0.4-2.8-1.2c-0.7-0.8-1.1-1.7-1.1-2.6v-84.2c0-0.9,0.4-1.8,1.1-2.6
		C1874.8,1615.1,1875.8,1614.6,1876.9,1614.6z"/>
	<path fill="#010101" d="M2003.2,1536.5c1.1,0,2,0.4,2.8,1.2c0.7,0.8,1.1,1.7,1.1,2.6v162.1c0,2.6-1.3,3.9-3.9,3.9
		c-2.6,0-3.9-1.3-3.9-3.9v-17.7c-3.9,7.2-9.2,13-16.1,17.5c-6.8,4.4-14.4,6.7-22.7,6.7c-6.5,0-12.4-1.3-17.9-4
		c-5.5-2.7-10.2-6.2-14.1-10.7c-4-4.4-7.1-9.6-9.3-15.4c-2.2-5.8-3.3-11.9-3.3-18.2c0-6.3,1.1-12.3,3.3-18.2
		c2.2-5.8,5.3-10.9,9.3-15.4c4-4.4,8.7-8,14.1-10.7c5.4-2.7,11.4-4,17.9-4c8.3,0,15.9,2.3,22.7,6.8c6.8,4.5,12.2,10.4,16.1,17.6
		v-96.4c0-0.9,0.4-1.8,1.1-2.6C2001.2,1536.9,2002.1,1536.5,2003.2,1536.5z M1960.5,1701.1c5.5,0,10.6-1.2,15.1-3.5
		c4.5-2.3,8.4-5.3,11.6-9c3.2-3.7,5.7-8,7.5-12.9c1.8-4.9,2.6-9.9,2.6-15.1c0-5.2-0.9-10.2-2.6-15.1c-1.8-4.9-4.3-9.2-7.5-12.9
		c-3.2-3.7-7.1-6.7-11.6-9c-4.5-2.3-9.6-3.5-15.1-3.5c-5.4,0-10.3,1.2-14.8,3.5c-4.5,2.3-8.4,5.3-11.6,9c-3.2,3.7-5.8,8-7.6,12.9
		c-1.8,4.9-2.8,9.9-2.8,15.1c0,5.2,0.9,10.2,2.8,15.1c1.8,4.9,4.4,9.2,7.6,12.9c3.2,3.7,7.1,6.7,11.6,9
		C1950.2,1699.9,1955.2,1701.1,1960.5,1701.1z"/>
	<path fill="#010101" d="M2054.1,1587.5c0,1.7-0.6,3.1-1.9,4.3c-1.3,1.2-2.8,1.8-4.4,1.8c-1.8,0-3.4-0.6-4.6-1.8
		c-1.2-1.2-1.8-2.6-1.8-4.3c0-1.8,0.6-3.4,1.8-4.6c1.2-1.2,2.7-1.8,4.6-1.8c1.7,0,3.1,0.6,4.4,1.8
		C2053.4,1584.1,2054.1,1585.6,2054.1,1587.5z M2047.7,1614.6c0.9,0,1.8,0.4,2.6,1.2c0.8,0.8,1.2,1.7,1.2,2.6v84.2
		c0,0.9-0.4,1.8-1.2,2.6c-0.8,0.8-1.7,1.2-2.6,1.2c-1.1,0-2-0.4-2.8-1.2c-0.7-0.8-1.1-1.7-1.1-2.6v-84.2c0-0.9,0.4-1.8,1.1-2.6
		C2045.7,1615.1,2046.6,1614.6,2047.7,1614.6z"/>
	<path fill="#010101" d="M2135.2,1614.1c1.1,0,2,0.4,2.8,1.2c0.7,0.8,1.1,1.7,1.1,2.6c0,2.6-1.3,3.9-3.9,3.9h-20.8v81.5
		c0,0.9-0.4,1.8-1.1,2.6c-0.7,0.8-1.7,1.2-2.8,1.2c-1.1,0-2-0.4-2.8-1.2c-0.7-0.8-1.1-1.7-1.1-2.6v-81.5h-20c-2.6,0-3.9-1.3-3.9-3.9
		c0-0.9,0.4-1.8,1.1-2.6c0.7-0.8,1.7-1.2,2.8-1.2h20v-29.9c0-2.6,1.3-3.9,3.9-3.9c2.6,0,3.9,1.3,3.9,3.9v29.9H2135.2z"/>
	<path fill="#010101" d="M2242.7,1613.8c2.6,0,3.9,1.3,3.9,3.9c0,0.2-0.7,2.2-2.2,6.1c-1.5,3.9-3.4,8.9-5.7,15.1
		c-2.3,6.2-5,13.3-8,21.2c-3,7.9-6.2,16.1-9.6,24.5c-3.3,8.4-6.6,16.7-9.7,24.8c-3.1,8.1-6.1,15.6-8.7,22.3
		c-2.7,6.7-4.9,12.5-6.8,17.2c-1.8,4.7-3,7.7-3.6,9c-0.9,1.7-2.1,2.5-3.6,2.5c-0.9,0-1.8-0.4-2.6-1.2c-0.8-0.8-1.2-1.7-1.2-2.6
		c0-0.4,0.5-1.8,1.4-4.3c0.9-2.5,2-5.5,3.3-9c1.3-3.5,2.8-7.3,4.4-11.5c1.7-4.2,3.2-8.1,4.7-11.9c1.5-3.8,2.8-7.1,3.9-9.8
		c1.1-2.8,1.8-4.6,2.2-5.5c-0.2-0.2-1.2-2.4-3-6.6c-1.8-4.2-4.1-9.6-6.8-15.9c-2.7-6.4-5.5-13.3-8.5-20.6c-3-7.4-5.7-14.3-8.3-20.6
		c-2.6-6.4-4.8-11.7-6.5-16.1c-1.8-4.3-2.6-6.6-2.6-6.8c0-2.6,1.3-3.9,3.9-3.9c1.8,0,3,0.7,3.6,2.2l32.1,78.4l30.5-78.1
		C2239.6,1614.6,2240.8,1613.8,2242.7,1613.8z"/>
</g>
</svg>
