<svg width="1080" height="1080" viewBox="0 0 1080 1080" fill="none" xmlns="http://www.w3.org/2000/svg">
<g clip-path="url(#clip0_62_13806)">
<path fill-rule="evenodd" clip-rule="evenodd" d="M243.632 1074.71C243.014 1074.6 242.439 1074.32 241.962 1073.92C234.393 1067.49 170.155 1012.98 156.436 1001.34C155.758 1000.76 155.338 999.934 155.267 999.041C155.191 998.157 155.49 997.272 156.069 996.594C166.824 984.128 213.289 930.238 213.289 930.238C213.289 930.238 136.374 884.225 116.785 872.51C115.815 871.923 115.202 870.875 115.163 869.736C115.124 868.596 115.683 867.513 116.628 866.876C132.253 856.218 184.848 820.367 184.848 820.367C184.848 820.367 143.189 796.562 129.723 788.866C128.778 788.325 128.154 787.351 128.057 786.265C127.955 785.188 128.395 784.118 129.226 783.407C150.037 765.75 253.071 678.318 253.071 678.318C253.071 678.318 120.643 568.156 101.261 552.032C99.9274 550.923 99.6631 548.979 100.649 547.553C112.476 530.493 180.345 432.538 180.345 432.538C180.345 432.538 81.023 322.558 61.4772 300.915C60.7298 300.088 60.4511 298.952 60.7139 297.871C60.9764 296.791 61.7588 295.914 62.8047 295.531C89.0112 285.876 217.225 238.624 217.225 238.624C217.225 238.624 243.762 97.0242 248.974 69.227C249.176 68.154 249.883 67.2436 250.88 66.7932C251.877 66.3438 253.027 66.4057 253.965 66.9628C277.983 81.2078 398.947 152.954 398.947 152.954C398.947 152.954 464.447 41.4414 478.238 17.9661C478.8 17.0021 479.805 16.3832 480.922 16.3181C482.039 16.2539 483.108 16.745 483.783 17.6328C500.981 40.2573 585.732 151.762 585.732 151.762C585.732 151.762 716.782 81.8336 742.178 68.2874C743.147 67.7743 744.298 67.7605 745.274 68.2579C746.249 68.7553 746.922 69.6978 747.066 70.7796C750.766 97.4147 768.733 226.986 768.733 226.986C768.733 226.986 930.559 247.282 963.181 251.372C964.362 251.521 965.375 252.284 965.842 253.38C966.31 254.474 966.161 255.735 965.451 256.689C946.661 281.981 856.82 402.908 856.82 402.908C856.82 402.908 958.366 483.76 977.854 499.277C978.641 499.903 979.105 500.851 979.116 501.857C979.128 502.863 978.686 503.821 977.913 504.465C956.879 522.007 837.76 621.353 837.76 621.353L840.361 769.536C840.361 769.536 950.632 834.064 970.301 845.574C971.084 846.032 971.648 846.787 971.862 847.667C972.077 848.548 971.927 849.479 971.444 850.245C959.731 868.857 896.099 969.963 896.099 969.963C896.099 969.963 970.865 1044 987.455 1060.44C988.211 1061.19 988.568 1062.24 988.41 1063.31C988.255 1064.36 987.611 1065.27 986.669 1065.77C965.466 1077 867.657 1128.83 867.657 1128.83C867.657 1128.83 908.489 1214.19 916.057 1230.01C916.755 1231.46 916.313 1233.21 915.012 1234.16C900.776 1244.56 823.272 1301.2 812.11 1309.36C811.266 1309.97 810.182 1310.16 809.178 1309.86C785.939 1302.94 515.724 1222.5 515.724 1222.5C515.724 1222.5 348.111 1100.64 336.681 1092.33C336.268 1092.04 335.803 1091.84 335.324 1091.75C327.065 1090.22 252.859 1076.43 243.632 1074.71Z" fill="#222496"/>
<path fill-rule="evenodd" clip-rule="evenodd" d="M154.261 999.55L211.042 931.338C211.042 931.338 134.129 885.32 114.546 873.596C113.566 873.016 112.953 871.967 112.919 870.829C112.886 869.68 113.436 868.609 114.38 867.962C130.006 857.308 182.604 821.464 182.604 821.464C182.604 821.464 140.948 797.658 127.482 789.96C126.535 789.414 125.911 788.443 125.811 787.361C125.709 786.279 126.146 785.208 126.978 784.505C147.792 766.834 250.823 679.405 250.823 679.405C250.823 679.405 118.398 569.241 99.0156 553.121C97.6824 552.016 97.4169 550.064 98.4053 548.647C110.227 531.579 178.099 433.63 178.099 433.63C178.099 433.63 78.7798 323.645 59.2336 302.002C58.4884 301.177 58.2017 300.039 58.4672 298.957C58.7338 297.886 59.517 297.004 60.5601 296.625C86.763 286.964 214.983 239.719 214.983 239.719C214.983 239.719 241.518 98.1174 246.727 70.317C246.929 69.246 247.641 68.331 248.637 67.8848C249.632 67.4274 250.784 67.4945 251.724 68.0523C275.739 82.2983 396.704 154.042 396.704 154.042C396.704 154.042 462.203 42.5274 475.991 19.0554C476.557 18.096 477.564 17.4713 478.679 17.4044C479.792 17.3374 480.867 17.8397 481.541 18.721L488.245 27.5452L503.432 226.655L638.418 238.927L536.398 388.415L659.614 382.235L541.976 593.684L530.764 836.96L274.271 1104.43L154.261 999.55Z" fill="#2F63D1"/>
<ellipse cx="562.952" cy="985.462" rx="11.4792" ry="6.78319" transform="rotate(60 562.952 985.462)" fill="#B9F3FF"/>
<ellipse cx="585.067" cy="970.117" rx="11.4792" ry="3.69524" transform="rotate(60 585.067 970.117)" fill="#74E8FF"/>
<path d="M522.73 768.855V375.5H869.678L792.144 705.156L711.264 779.9L522.73 768.855Z" fill="url(#paint0_linear_62_13806)"/>
<path d="M545.599 760.506V375.5H198.651L276.185 705.156L357.065 779.9L545.599 760.506Z" fill="url(#paint1_linear_62_13806)"/>
<path fill-rule="evenodd" clip-rule="evenodd" d="M165.466 403.392C302.125 355.422 474.484 429.608 539.188 476.462L480.619 17.3984L379.659 146.249L254.713 67.5999L241.884 246.094L62.832 297.969L165.466 403.392Z" fill="#2F63D1"/>
<path d="M565.962 132.304L480.619 17.3984L539.188 476.462C597.756 425.145 781.27 378.848 883.904 374.386L973.709 255.576L800.235 231.591L756.169 211.511V61.4641L639.591 138.44L565.962 132.304Z" fill="#222496"/>
<path d="M717.787 315.353C717.787 385.91 560.987 397.932 538.049 397.932C515.111 397.932 351.302 384.865 357.953 315.353C359.358 300.671 465.858 348.803 537.87 348.803C609.882 348.803 717.787 299.982 717.787 315.353Z" fill="#252773"/>
<path d="M856.05 466.132C806.158 516.024 765.042 444.604 748.822 428.384C732.602 412.164 626.012 265.5 679.867 221.05C691.242 211.661 816.509 256.793 867.429 307.713C918.349 358.633 866.919 455.263 856.05 466.132Z" fill="#252773" fill-opacity="0.32"/>
<path fill-rule="evenodd" clip-rule="evenodd" d="M214.781 528.645C240.56 340.364 331.35 317.227 542.858 324.882C672.596 329.578 780.994 300.874 823.392 390.627C854.249 462.633 854.249 538.814 854.249 538.814L901.357 531.269C901.357 531.269 933.524 487.297 873.483 357.234C825.386 253.05 727.906 270.659 542.858 270.659C328.136 270.66 224.635 257.102 186.294 372.886C155.177 466.866 172.657 533.118 172.657 533.118C172.657 533.118 198.422 531.104 214.781 528.645Z" fill="#46D0FF"/>
<path d="M870.313 568.843C870.313 568.843 905.92 514.415 851.046 384.371C807.089 280.202 711.791 308.27 542.671 308.27C346.43 308.271 252.121 283.212 217.08 398.98C188.641 492.946 204.332 570.692 204.332 570.692" stroke="#29C0F4" stroke-width="25" stroke-linecap="round" stroke-linejoin="round"/>
<path d="M910.424 311.537L874.083 408.681C872.608 412.624 874.839 416.982 878.901 418.093L911.092 426.897C915.196 428.02 919.368 425.338 920.049 421.139L936.885 317.416C937.513 313.549 934.914 309.895 931.054 309.218L918.368 306.994C914.972 306.398 911.633 308.307 910.424 311.537Z" fill="#03D5FE"/>
<path d="M958.156 289.86C958.156 305.673 945.333 318.493 929.514 318.493C913.696 318.493 900.873 305.673 900.873 289.86C900.873 274.046 913.696 261.227 929.514 261.227C945.333 261.227 958.156 274.046 958.156 289.86Z" fill="#7FE5FF"/>
<path d="M910.424 311.537L874.083 408.681C872.608 412.624 874.839 416.982 878.901 418.093L911.092 426.897C915.196 428.02 919.368 425.338 920.049 421.139L936.885 317.416C937.513 313.549 934.914 309.895 931.054 309.218L918.368 306.994C914.972 306.398 911.633 308.307 910.424 311.537Z" fill="white" fill-opacity="0.32"/>
<path d="M958.156 289.86C958.156 305.673 945.333 318.493 929.514 318.493C913.696 318.493 900.873 305.673 900.873 289.86C900.873 274.046 913.696 261.227 929.514 261.227C945.333 261.227 958.156 274.046 958.156 289.86Z" fill="white" fill-opacity="0.32"/>
<path d="M164.075 319.884L200.416 417.029C201.891 420.972 199.66 425.33 195.598 426.441L163.407 435.245C159.303 436.368 155.131 433.686 154.45 429.487L137.614 325.763C136.986 321.896 139.585 318.243 143.445 317.566L156.131 315.341C159.527 314.745 162.866 316.655 164.075 319.884Z" fill="#03D5FE"/>
<path d="M116.343 298.207C116.343 314.021 129.166 326.84 144.985 326.84C160.803 326.84 173.626 314.021 173.626 298.207C173.626 282.394 160.803 269.574 144.985 269.574C129.166 269.574 116.343 282.394 116.343 298.207Z" fill="#7FE5FF"/>
<path d="M164.075 319.884L200.416 417.029C201.891 420.972 199.66 425.33 195.598 426.441L163.407 435.245C159.303 436.368 155.131 433.686 154.45 429.487L137.614 325.763C136.986 321.896 139.585 318.243 143.445 317.566L156.131 315.341C159.527 314.745 162.866 316.655 164.075 319.884Z" fill="white" fill-opacity="0.32"/>
<path d="M116.343 298.207C116.343 314.021 129.166 326.84 144.985 326.84C160.803 326.84 173.626 314.021 173.626 298.207C173.626 282.394 160.803 269.574 144.985 269.574C129.166 269.574 116.343 282.394 116.343 298.207Z" fill="white" fill-opacity="0.32"/>
<path fill-rule="evenodd" clip-rule="evenodd" d="M817.838 672.654C817.838 672.654 858.785 537.91 811.604 381.191C811.604 381.191 910.242 373.886 947.161 398.765C971.679 415.292 989.826 472.937 979.882 546.77C972.463 601.858 936.353 638.341 911.889 654.663C885.655 672.164 830.694 672.675 817.838 672.654Z" fill="#7FE5FF"/>
<path fill-rule="evenodd" clip-rule="evenodd" d="M904.192 384.41C921.06 387.19 936.629 391.665 947.162 398.769C971.68 415.296 989.827 472.941 979.883 546.774C972.464 601.862 936.353 638.345 911.89 654.667C909.445 656.297 906.695 657.789 903.719 659.136C946.83 529.006 914.015 413.662 904.192 384.41Z" fill="#46D0FF"/>
<path fill-rule="evenodd" clip-rule="evenodd" d="M969.057 524.311C969.057 524.311 975.676 481.083 956.955 429.507C955.893 426.579 952.654 425.067 949.727 426.129C946.799 427.192 945.285 430.43 946.348 433.357C963.98 481.93 957.9 522.621 957.9 522.621C957.434 525.7 959.556 528.578 962.634 529.043C965.713 529.51 968.591 527.388 969.057 524.311Z" fill="#7FE5FF"/>
<path fill-rule="evenodd" clip-rule="evenodd" d="M964.603 562.474C964.603 562.474 967.01 557.577 967.99 547.819C968.302 544.719 966.039 541.951 962.941 541.64C959.842 541.329 957.075 543.592 956.763 546.69C956.03 553.977 954.394 557.667 954.394 557.667C953.067 560.486 954.278 563.849 957.095 565.176C959.912 566.502 963.276 565.292 964.603 562.474Z" fill="#7FE5FF"/>
<path fill-rule="evenodd" clip-rule="evenodd" d="M257.492 378.07C257.492 378.07 211.004 507.589 279.465 701.67C279.465 701.67 131.521 668.521 110.893 624.987C72.8177 544.634 100.945 434.897 117.928 418.428C138.184 398.786 235.97 380.605 257.492 378.07Z" fill="#7FE5FF"/>
<path fill-rule="evenodd" clip-rule="evenodd" d="M169.372 667.29C142.49 655.654 118.605 641.263 110.892 624.986C72.8168 544.633 100.945 434.896 117.928 418.427C126.05 410.55 146.172 402.784 168.751 396.142C153.398 429.283 129.164 512.994 169.372 667.29Z" fill="#47D0FF"/>
<path fill-rule="evenodd" clip-rule="evenodd" d="M118.306 441.607C118.306 441.607 100.064 484.057 105.62 542.033C105.918 545.133 108.676 547.409 111.776 547.112C114.876 546.814 117.15 544.056 116.854 540.956C111.603 486.175 128.682 446.044 128.682 446.044C129.906 443.181 128.576 439.863 125.712 438.638C122.85 437.413 119.531 438.743 118.306 441.607Z" fill="#7FE5FF"/>
<path fill-rule="evenodd" clip-rule="evenodd" d="M108.52 570.949C108.52 570.949 107.328 578.232 114.124 591.271C115.562 594.033 118.973 595.106 121.734 593.667C124.496 592.228 125.569 588.818 124.131 586.056C119.856 577.855 119.685 573.034 119.74 572.139C119.742 572.092 119.745 572.068 119.745 572.068C120.093 569.193 117.882 566.384 114.791 566.014C111.698 565.646 108.888 567.857 108.52 570.949Z" fill="#7FE5FF"/>
<path d="M649.442 993.36C649.442 1028.81 633.393 1060.5 608.166 1081.58C588.226 1098.24 562.552 1108.27 534.537 1108.27C507.904 1108.27 483.387 1099.21 463.902 1084C436.957 1062.97 419.631 1030.19 419.631 993.36C419.631 929.9 471.076 878.455 534.537 878.455C597.997 878.455 649.442 929.9 649.442 993.36Z" fill="#252773"/>
<path d="M622.668 993.36C622.668 1042.03 583.21 1081.49 534.537 1081.49C485.863 1081.49 446.405 1042.03 446.405 993.36C446.405 944.687 485.863 905.229 534.537 905.229C583.21 905.229 622.668 944.687 622.668 993.36Z" fill="#01026D"/>
<path d="M601.472 993.36C601.472 1030.33 571.504 1060.3 534.537 1060.3C497.57 1060.3 467.602 1030.33 467.602 993.36C467.602 956.393 497.57 926.425 534.537 926.425C571.504 926.425 601.472 956.393 601.472 993.36Z" fill="#03D5FE"/>
<path d="M580.276 993.36C580.276 1018.62 559.798 1039.1 534.537 1039.1C509.276 1039.1 488.798 1018.62 488.798 993.36C488.798 968.099 509.276 947.621 534.537 947.621C559.798 947.621 580.276 968.099 580.276 993.36Z" fill="#74E8FF"/>
<path fill-rule="evenodd" clip-rule="evenodd" d="M313.3 1145.64C303.718 1143.94 292.13 1142.33 279.727 1140.6L279.726 1140.6C245.407 1135.82 204.854 1130.17 183.317 1119.56C170.44 1198.14 171.819 1281.17 299.08 1249.4C302.881 1248.46 305.654 1245.05 305.817 1241.14C306.843 1216.5 309.196 1183.05 313.3 1145.64Z" fill="white"/>
<path fill-rule="evenodd" clip-rule="evenodd" d="M770.277 1249.4C897.538 1281.17 898.918 1198.14 886.041 1119.56C864.504 1130.17 823.95 1135.82 789.632 1140.6L789.631 1140.6C777.228 1142.33 765.64 1143.94 756.058 1145.64C760.161 1183.05 762.515 1216.5 763.54 1241.14C763.703 1245.05 766.477 1248.46 770.277 1249.4Z" fill="white"/>
<path d="M901.007 1104.92C906.625 1078.7 882.6 1020.69 873.676 1012.33C870.553 1009.4 864.704 1008.06 857.025 1007.91C827.957 1007.35 772.675 1023.84 739.902 1035.75C746.997 1073.22 752.272 1111.12 756.058 1145.64C765.64 1143.94 777.228 1142.33 789.631 1140.6L789.632 1140.6C823.95 1135.82 864.504 1130.17 886.041 1119.56C894.307 1115.49 899.772 1110.68 901.007 1104.92Z" fill="#252773"/>
<path fill-rule="evenodd" clip-rule="evenodd" d="M279.727 1140.6L279.726 1140.6C245.407 1135.82 204.854 1130.17 183.317 1119.56C175.051 1115.49 169.586 1110.68 168.35 1104.92" fill="#40B7E2"/>
<path d="M195.682 1012.33C186.757 1020.69 162.732 1078.7 168.35 1104.92C169.586 1110.68 175.051 1115.49 183.317 1119.56C204.854 1130.17 245.407 1135.82 279.726 1140.6L279.727 1140.6C292.13 1142.33 303.718 1143.94 313.3 1145.64C317.086 1111.12 322.361 1073.22 329.455 1035.75C296.683 1023.84 241.401 1007.35 212.333 1007.91C204.654 1008.06 198.804 1009.4 195.682 1012.33Z" fill="#252773"/>
<path d="M756.058 1145.64C752.272 1111.12 746.997 1073.22 739.902 1035.75C772.675 1023.84 827.957 1007.35 857.025 1007.91C825.139 945.778 758.557 875.025 722.514 841.641H346.844C310.8 875.025 244.219 945.778 212.333 1007.91C241.401 1007.35 296.683 1023.84 329.455 1035.75C322.361 1073.22 317.086 1111.12 313.3 1145.64L379.47 1165.16L463.902 1084C436.957 1062.97 419.631 1030.19 419.631 993.36C419.631 929.9 471.076 878.455 534.537 878.455C597.997 878.455 649.442 929.9 649.442 993.36C649.442 1028.81 633.393 1060.5 608.166 1081.58L697.971 1165.16L756.058 1145.64Z" fill="white"/>
<path d="M372.501 888.758C354.265 929.264 340.599 981.375 330.57 1034.34C324.567 1031.88 314.131 1027.18 302.13 1024.05C324.045 961.958 336.458 922.143 372.501 888.758Z" fill="#F8F8F8"/>
<path d="M696.598 888.758C714.835 929.264 728.501 981.375 738.53 1034.34C744.533 1031.88 754.969 1027.18 766.97 1024.05C745.055 961.958 732.642 922.143 696.598 888.758Z" fill="#F8F8F8"/>
<path fill-rule="evenodd" clip-rule="evenodd" d="M733.5 835.04L740.447 821.394C743.987 814.44 738.589 806.264 730.802 806.774C719.229 807.532 719.381 808.575 699.999 809.679C651.355 812.451 584.839 815.607 534.184 815.607C483.53 815.607 417.013 812.451 368.37 809.679C349.157 808.585 349.429 807.55 337.871 806.794C330.02 806.28 324.618 814.583 328.288 821.543L335.468 835.16C337.075 838.208 340.107 840.215 343.542 840.469C369.079 842.358 461.349 850.087 534.498 850.087C607.547 850.087 699.62 842.379 725.349 840.477C728.836 840.219 731.914 838.155 733.5 835.04Z" fill="#252773"/>
<path d="M368.37 809.679C417.013 812.451 483.53 815.607 534.184 815.607C584.839 815.607 651.355 812.451 699.999 809.679L678.577 750.744C677.136 746.78 673.369 744.141 669.15 744.141H399.218C395 744.141 391.232 746.78 389.791 750.744L368.37 809.679Z" fill="url(#paint2_linear_62_13806)"/>
<path d="M380.957 774.33C379.595 779.241 383.106 784.156 388.196 784.42C433.839 786.781 487.656 787.531 533.851 787.531C580.045 787.531 634.682 789.52 680.436 787.532C685.531 787.311 689.043 782.389 687.674 777.476L675.172 732.615C673.761 728.62 670.074 725.961 665.945 725.961H401.756C397.628 725.961 393.94 728.62 392.53 732.615L380.957 774.33Z" fill="#D9D9D9"/>
<path fill-rule="evenodd" clip-rule="evenodd" d="M326.121 305.055C259.847 305.055 206.121 358.78 206.121 425.055V659.878C206.121 726.152 259.847 779.878 326.121 779.878H743.568C809.843 779.878 863.568 726.152 863.568 659.878V425.055C863.568 358.781 809.843 305.055 743.568 305.055H326.121ZM351.866 353.059C307.683 353.059 271.866 388.876 271.866 433.059V652.917C271.866 697.1 307.683 732.917 351.866 732.917H717.824C762.007 732.917 797.824 697.1 797.824 652.917V433.059C797.824 388.876 762.007 353.059 717.824 353.059H351.866Z" fill="white"/>
<rect x="271.866" y="353.062" width="525.958" height="379.858" rx="80" fill="url(#paint3_radial_62_13806)"/>
<rect x="277.866" y="359.062" width="513.958" height="367.858" rx="74" stroke="url(#paint4_linear_62_13806)" stroke-opacity="0.32" stroke-width="12"/>
<path fill-rule="evenodd" clip-rule="evenodd" d="M457.177 582.156C457.177 582.156 425.533 544.994 366.765 538.982C362.781 538.575 359.226 541.48 358.819 545.462C358.411 549.443 361.311 553.004 365.293 553.412C417.752 558.775 446.175 591.603 446.175 591.603C448.78 594.64 453.363 594.99 456.397 592.382C459.431 589.773 459.782 585.193 457.177 582.156Z" fill="#222496"/>
<path fill-rule="evenodd" clip-rule="evenodd" d="M616.002 582.156C616.002 582.156 647.647 544.994 706.415 538.982C710.398 538.575 713.954 541.48 714.361 545.462C714.768 549.443 711.869 553.004 707.886 553.412C655.427 558.775 627.005 591.603 627.005 591.603C624.4 594.64 619.816 594.99 616.783 592.382C613.749 589.773 613.397 585.193 616.002 582.156Z" fill="#222496"/>
</g>
<defs>
<linearGradient id="paint0_linear_62_13806" x1="504.67" y1="375.298" x2="838.931" y2="558.421" gradientUnits="userSpaceOnUse">
<stop stop-color="#D5CDFB"/>
<stop offset="1" stop-color="#DBD4FC"/>
</linearGradient>
<linearGradient id="paint1_linear_62_13806" x1="198.931" y1="375.297" x2="522.238" y2="571.176" gradientUnits="userSpaceOnUse">
<stop stop-color="#F6F5FC"/>
<stop offset="1" stop-color="#DBD6F4"/>
</linearGradient>
<linearGradient id="paint2_linear_62_13806" x1="534.184" y1="744.141" x2="534.406" y2="835.015" gradientUnits="userSpaceOnUse">
<stop offset="0.359682" stop-color="#D9D9D9"/>
<stop offset="1" stop-color="#FDFDFD"/>
</linearGradient>
<radialGradient id="paint3_radial_62_13806" cx="0" cy="0" r="1" gradientUnits="userSpaceOnUse" gradientTransform="translate(422.432 470.962) rotate(66.7746) scale(285.06 382.801)">
<stop offset="0.219155" stop-color="#D6F8FF"/>
<stop offset="1" stop-color="#74E8FF"/>
</radialGradient>
<linearGradient id="paint4_linear_62_13806" x1="534.845" y1="353.062" x2="534.845" y2="732.921" gradientUnits="userSpaceOnUse">
<stop stop-color="#526178" stop-opacity="0.16"/>
<stop offset="1" stop-color="#97B4DE"/>
</linearGradient>
<clipPath id="clip0_62_13806">
<rect width="1080" height="1080" fill="white"/>
</clipPath>
</defs>
</svg>
