<svg width="161" height="161" viewBox="0 0 161 161" fill="none" xmlns="http://www.w3.org/2000/svg">
<path d="M145.683 39.5641C147.628 39.8987 148.732 41.8095 148.053 43.6627C144.635 52.9812 134.307 76.4055 113.416 88.5742L112.983 88.827L113.232 89.2628C125.239 110.247 122.471 135.698 120.772 145.476C120.434 147.421 118.522 148.523 116.67 147.841C107.402 144.424 83.3822 133.892 71.3903 112.935L71.1366 112.493L70.696 112.749C49.8296 124.904 24.5936 122.236 14.8642 120.562C12.9196 120.228 11.8144 118.317 12.4937 116.463C15.9111 107.145 26.2397 83.7197 47.1302 71.5509L47.5639 71.2981L47.3147 70.8623C35.3075 49.8787 38.075 24.4284 39.7746 14.6497C40.1126 12.7049 42.0255 11.6025 43.877 12.2852C53.1456 15.7028 77.1654 26.2334 89.1573 47.1901L89.4109 47.6321L89.8506 47.3758C110.717 35.221 135.954 37.8906 145.683 39.5641ZM86.1255 59.4935C84.9268 59.1724 83.6553 59.6349 82.9326 60.6408L82.9324 60.6418L75.5467 70.9698L62.9104 72.2023L62.9083 72.2027C61.676 72.3258 60.6404 73.1958 60.3192 74.3944C59.9983 75.5928 60.4604 76.8634 61.4658 77.586L61.4674 77.5875L71.7948 84.972L73.0267 97.6101L73.0262 97.612C73.1492 98.8444 74.0193 99.8799 75.2179 100.201C76.4165 100.522 77.6878 100.06 78.4105 99.0547L78.411 99.0528L85.796 88.7236L98.433 87.4924L98.4351 87.4919C99.6672 87.3688 100.703 86.4995 101.024 85.3012C101.345 84.1026 100.883 82.8314 99.8776 82.1086L99.8759 82.1071L89.5479 74.7214L88.3167 62.0845L88.3169 62.0835L88.2852 61.8547C88.0841 60.724 87.2493 59.7947 86.1255 59.4935Z" stroke="url(#paint0_linear_66_18534)" stroke-opacity="0.32" stroke-width="1.01184"/>
<path d="M153.936 57.8723C155.727 58.6988 156.3 60.8304 155.164 62.4446C149.451 70.561 133.412 90.514 110.084 96.8612L109.599 96.9932L109.727 97.4786C115.894 120.855 106.634 144.723 102.461 153.728C101.631 155.519 99.4988 156.089 97.8873 154.951C89.8192 149.251 69.3437 132.862 63.1844 109.515L63.0538 109.022L62.5619 109.156C39.2607 115.496 15.5752 106.387 6.61041 102.252C4.81865 101.426 4.24574 99.2936 5.38157 97.6794C11.0943 89.563 27.1338 69.6091 50.462 63.2618L50.9464 63.1299L50.8184 62.6444C44.6514 39.2682 53.9116 15.4014 58.0842 6.39572C58.9141 4.60464 61.0471 4.03494 62.6587 5.17355C70.727 10.8736 91.2029 27.2621 97.3621 50.6085L97.4927 51.1011L97.9838 50.9674C121.285 44.6274 144.971 53.7377 153.936 57.8723ZM91.2493 61.708C90.1745 61.0875 88.8267 61.2052 87.8683 61.9899L87.8678 61.9907L78.0606 70.0553L65.536 67.9752L65.5338 67.9751C64.3117 67.7751 63.0861 68.3474 62.4657 69.422C61.8455 70.4965 61.963 71.8434 62.7472 72.8016L62.7484 72.8035L70.8126 82.6093L68.7315 95.1356L68.7306 95.1373C68.5304 96.3595 69.1029 97.585 70.1775 98.2054C71.2521 98.8258 72.5996 98.7089 73.558 97.9244L73.559 97.9227L83.3657 89.8568L95.8908 91.9382L95.8929 91.9384C97.1149 92.1383 98.3401 91.5666 98.9605 90.4923C99.581 89.4177 99.4638 88.0702 98.6796 87.1118L98.6784 87.11L90.6138 77.3028L92.6952 64.7778L92.6957 64.777L92.7243 64.5477C92.8227 63.4035 92.2569 62.2898 91.2493 61.708Z" stroke="url(#paint1_linear_66_18534)" stroke-opacity="0.32" stroke-width="1.01184"/>
<path d="M157.168 77.6955C158.685 78.9576 158.686 81.1647 157.171 82.4298C149.552 88.7911 128.895 103.913 104.719 104.006L104.217 104.008L104.215 104.51C104.122 128.686 88.9995 149.344 82.6382 156.963C81.3731 158.477 79.1659 158.476 77.9039 156.96C71.586 149.366 56.0501 128.236 56.1431 104.09L56.1445 103.581L55.6349 103.582C31.4867 103.675 10.9658 88.7466 3.37667 82.4326C1.85985 81.1706 1.85831 78.9628 3.37322 77.6976C10.992 71.3363 31.6494 56.2136 55.8255 56.1205L56.3275 56.1184L56.3296 55.6164C56.4228 31.4405 71.5447 10.7836 77.906 3.16479C79.1712 1.64952 81.3789 1.6513 82.641 3.16824C88.959 10.7623 104.496 31.8919 104.402 56.0369L104.401 56.5465L104.91 56.5444C129.058 56.4514 149.579 71.3816 157.168 77.6955ZM95.6251 65.1761C94.7476 64.2986 93.4152 64.0635 92.2864 64.5733L92.2857 64.574L80.7255 69.8255L69.1659 64.5747L69.1638 64.574C68.0351 64.0645 66.7032 64.3001 65.8258 65.1775C64.9487 66.0549 64.7136 67.3863 65.223 68.5148L65.2237 68.5169L70.4752 80.0758L65.223 91.6367L65.2216 91.6381C64.7119 92.7668 64.9477 94.0987 65.8251 94.9761C66.7025 95.8535 68.0344 96.0893 69.1632 95.5796L69.1645 95.5783L80.7248 90.3254L92.2843 95.5776L92.2864 95.5783C93.4149 96.0876 94.7463 95.8525 95.6237 94.9754C96.5011 94.098 96.7367 92.7661 96.2272 91.6374L96.2266 91.6353L90.975 80.0751L96.2272 68.5155L96.2279 68.5148L96.3149 68.3008C96.7061 67.2211 96.4478 65.9989 95.6251 65.1761Z" stroke="url(#paint2_linear_66_18534)" stroke-opacity="0.32" stroke-width="1.01184"/>
<path d="M155.161 97.6765C156.299 99.2881 155.729 101.42 153.938 102.25C144.933 106.423 121.066 115.683 97.6897 109.516L97.2042 109.388L97.0723 109.872C90.725 133.201 70.7711 149.24 62.6547 154.953C61.0407 156.089 58.909 155.516 58.0825 153.725C53.9452 144.755 44.4076 120.323 50.7468 97.0248L50.88 96.5329L50.3874 96.4024C27.0379 90.2423 11.0801 70.511 5.38374 62.4479C4.24523 60.8364 4.81516 58.7034 6.60591 57.8734C15.6115 53.7008 39.4791 44.4399 62.8555 50.6071L63.3409 50.7351L63.4729 50.2507C69.8201 26.9227 89.7731 10.8835 97.8896 5.17075C99.5038 4.03457 101.636 4.60769 102.462 6.39959C106.6 15.3701 116.138 39.8009 109.799 63.0991L109.666 63.591L110.158 63.7207C133.507 69.8808 149.465 89.6135 155.161 97.6765ZM98.9552 69.6551C98.3347 68.5804 97.1086 68.0084 95.8862 68.2087L95.8854 68.2092L83.3599 70.2898L73.5532 62.226L73.5514 62.2248C72.593 61.4406 71.2455 61.3234 70.1709 61.9438C69.0966 62.5643 68.5249 63.7895 68.7248 65.0115L68.725 65.0136L70.8059 77.5378L62.7405 87.3454L62.7388 87.3464C61.9543 88.3048 61.8374 89.6523 62.4578 90.7269C63.0782 91.8015 64.3037 92.374 65.5259 92.1738L65.5276 92.1728L78.0535 90.091L87.8597 98.156L87.8616 98.1572C88.8198 98.9413 90.1667 99.0588 91.2412 98.4387C92.3158 97.8183 92.8881 96.5927 92.6881 95.3706L92.688 95.3684L90.6074 82.8429L98.6725 73.0366L98.6733 73.0361L98.8128 72.8519C99.4701 71.9102 99.5369 70.6628 98.9552 69.6551Z" stroke="url(#paint3_linear_66_18534)" stroke-opacity="0.32" stroke-width="1.01184"/>
<path d="M148.05 116.46C148.733 118.311 147.63 120.223 145.685 120.561C135.907 122.261 110.456 125.028 89.4728 113.021L89.0371 112.772L88.7842 113.206C76.6155 134.096 53.1902 144.425 43.8718 147.842C42.0187 148.521 40.1078 147.417 39.7731 145.473C38.0986 135.737 35.2092 109.67 47.3624 88.806L47.6184 88.3654L47.1764 88.1117C26.2169 76.1183 15.9097 52.9292 12.4943 43.6665C11.8117 41.8152 12.9142 39.9024 14.8588 39.5641C24.6374 37.8645 50.0886 35.0966 71.0723 47.1039L71.5081 47.3531L71.7609 46.9194C83.9297 26.0291 107.354 15.7007 116.672 12.2832C118.526 11.6036 120.437 12.709 120.771 14.6537C122.446 24.3894 125.336 50.4565 113.183 71.3201L112.927 71.7607L113.369 72.0134C134.328 84.0069 144.635 107.197 148.05 116.46ZM101.012 74.8462C100.691 73.6475 99.6545 72.7776 98.422 72.6547L98.421 72.655L85.7838 71.4228L78.3984 61.0957L78.3969 61.0941C77.6742 60.0885 76.4029 59.6266 75.2043 59.9477C74.006 60.269 73.1367 61.3045 73.0136 62.5365L73.0132 62.5387L71.7817 75.1747L61.4527 82.5606L61.4508 82.5611C60.445 83.2838 59.9833 84.5552 60.3044 85.7537C60.6256 86.9523 61.6611 87.8224 62.8935 87.9454L62.8954 87.9449L75.5333 89.1759L82.918 99.5042L82.9195 99.5058C83.6422 100.511 84.9127 100.973 86.1111 100.652C87.3097 100.331 88.1797 99.2956 88.3028 98.0634L88.3033 98.0612L89.5354 85.424L99.8637 78.0393L99.8647 78.039L100.047 77.8971C100.926 77.1577 101.313 75.97 101.012 74.8462Z" stroke="url(#paint4_linear_66_18534)" stroke-opacity="0.32" stroke-width="1.01184"/>
<path fill-rule="evenodd" clip-rule="evenodd" d="M54.5693 107.311C59.3283 106.875 71.5103 104.96 79.7891 96.6168C88.068 104.96 100.667 106.875 105.426 107.311C106.527 107.412 107.409 106.531 107.31 105.43C106.88 100.645 104.984 88.3513 96.6963 79.9992C104.984 71.6472 106.88 59.3532 107.31 54.5684C107.409 53.4671 106.527 52.5864 105.426 52.6873C100.667 53.1238 88.4853 55.0388 80.2064 63.3817C71.9275 55.0388 59.3283 53.1238 54.5693 52.6873C53.4682 52.5864 52.5865 53.4671 52.6856 54.5684C53.116 59.3532 55.0113 71.6472 63.2992 79.9992C55.0113 88.3513 53.116 100.645 52.6856 105.43C52.5865 106.531 53.4682 107.412 54.5693 107.311ZM70.2252 79.8489C70.2252 79.3523 70.5356 78.9075 71.0011 78.7316L76.8461 76.5382L79.0393 70.6927C79.2152 70.2272 79.66 69.9168 80.1566 69.9168C80.6532 69.9168 81.098 70.2272 81.2739 70.6927L83.4671 76.5382L89.3121 78.7316C89.7776 78.9075 90.088 79.3523 90.088 79.8489C90.088 80.3456 89.7776 80.7904 89.3121 80.9663L83.4671 83.1597L81.2739 89.0051C81.098 89.4707 80.6532 89.7811 80.1566 89.7811C79.66 89.7811 79.2152 89.4707 79.0393 89.0051L76.8461 83.1597L71.0011 80.9663C70.5356 80.7904 70.2252 80.3456 70.2252 79.8489Z" fill="#2DE7F3"/>
<defs>
<linearGradient id="paint0_linear_66_18534" x1="94.9145" y1="25.4218" x2="65.6324" y2="134.704" gradientUnits="userSpaceOnUse">
<stop stop-color="#6AEBF4"/>
<stop offset="1" stop-color="#1A868D" stop-opacity="0"/>
</linearGradient>
<linearGradient id="paint1_linear_66_18534" x1="108.557" y1="31.072" x2="51.9886" y2="129.052" gradientUnits="userSpaceOnUse">
<stop stop-color="#6AEBF4"/>
<stop offset="1" stop-color="#1A868D" stop-opacity="0"/>
</linearGradient>
<linearGradient id="paint2_linear_66_18534" x1="120.272" y1="40.0636" x2="40.2725" y2="120.064" gradientUnits="userSpaceOnUse">
<stop stop-color="#6AEBF4"/>
<stop offset="1" stop-color="#1A868D" stop-opacity="0"/>
</linearGradient>
<linearGradient id="paint3_linear_66_18534" x1="129.262" y1="51.7775" x2="31.2827" y2="108.346" gradientUnits="userSpaceOnUse">
<stop stop-color="#6AEBF4"/>
<stop offset="1" stop-color="#1A868D" stop-opacity="0"/>
</linearGradient>
<linearGradient id="paint4_linear_66_18534" x1="134.913" y1="65.4218" x2="25.6314" y2="94.7038" gradientUnits="userSpaceOnUse">
<stop stop-color="#6AEBF4"/>
<stop offset="1" stop-color="#1A868D" stop-opacity="0"/>
</linearGradient>
</defs>
</svg>
