<svg xmlns="http://www.w3.org/2000/svg" width="165" height="165" fill="none" viewBox="0 0 165 165"><path fill="#000" fill-rule="evenodd" d="M91.993 45C83.181 45 76 37.8204 76 28.9921C76 20.1779 83.181 13 91.993 13C100.821 13 108 20.1779 108 28.9921C108 37.8204 100.821 45 91.993 45M82.5 0C36.9366 0 0 36.937 0 82.4991C0 101.872 6.69319 119.672 17.8711 133.749C26.8781 121.109 36.4975 109.188 48.5698 99.2582C48.9162 98.9725 49.7499 98.3619 50.8086 97.5906C55.8308 93.8271 59.3497 88.3158 60.3048 82.1153V82.0117C63.3559 61.898 71.6113 54.9655 94.5527 54.9655C96.5862 54.9655 98.7608 55.0262 101.039 55.1262C112.774 55.6761 119.546 59.0325 120.338 60.7804C120.786 61.7373 120.767 62.7746 120.563 63.769L119.647 63.6476C112.408 62.7532 101.242 64.9706 99.6963 72.86C98.8233 77.3555 99.8605 82.2974 100.285 86.8321C100.734 91.5098 101.141 96.2284 101.101 100.947C101.08 101.313 100.816 103.143 101.06 103.345C88.5737 91.3883 59.6942 106.396 50.6033 112.986C51.5406 112.68 52.4761 112.334 53.4117 111.989C62.0741 109.04 88.3898 101.149 98.5376 109.874C107.139 120.409 99.3928 139.852 92.987 149.491C89.1486 155.288 84.5549 160.374 79.456 164.923C80.4683 164.961 81.4788 165 82.5 165C128.063 165 165 128.065 165 82.4991C165 36.937 128.063 0 82.5 0" clip-rule="evenodd"/></svg>