<?xml version="1.0" encoding="UTF-8"?>
<svg width="170px" height="27px" viewBox="0 0 170 27" version="1.1" xmlns="http://www.w3.org/2000/svg" xmlns:xlink="http://www.w3.org/1999/xlink">
    <!-- Generator: Sketch 57.1 (83088) - https://sketch.com -->
    <title>Group 9</title>
    <desc>Created with Sketch.</desc>
    <g id="Symbols" stroke="none" stroke-width="1" fill="none" fill-rule="evenodd">
        <g id="Footer" transform="translate(-214.000000, -60.000000)" fill="#FFFFFF" fill-rule="nonzero">
            <g id="Group-8">
                <g id="Group-9" transform="translate(214.000000, 60.000000)">
                    <path d="M23.8596491,26.8421053 L23.8596491,19.8830409 L16.3559666,19.8830409 C14.3153752,19.8830409 12.4251565,20.9649078 11.3800273,22.7311719 L8.94736842,26.8421053 L23.8596491,26.8421053 Z" id="Stroke-1"></path>
                    <polygon id="Stroke-3" points="0 0 0 6.95906433 19.7454285 6.95906433 23.8596491 0"></polygon>
                    <path d="M9.70947393,11.0534499 L0,26.8421053 L8.27224279,26.8421053 L19.8830409,7.95321637 L15.3150716,7.95321637 C13.0174237,7.95321637 10.8887896,9.13048255 9.70947393,11.0534499 Z" id="Stroke-5"></path>
                    <path d="M40.8302014,20.6712614 C36.7808679,20.6712614 33.8011696,17.6837331 33.8011696,13.6746628 C33.8011696,9.7041413 36.7999686,6.67806422 40.8493021,6.67806422 C44.8986356,6.67806422 47.8974346,9.74269005 47.8974346,13.6746628 C47.8974346,17.6451843 44.879535,20.6712614 40.8302014,20.6712614 Z M40.8493021,18.2234156 C43.4087865,18.2234156 45.242447,16.2959781 45.242447,13.6746628 C45.242447,11.0918964 43.4087865,9.12591001 40.8493021,9.12591001 C38.270717,9.12591001 36.4370566,11.0918964 36.4370566,13.6746628 C36.4370566,16.2959781 38.270717,18.2234156 40.8493021,18.2234156 Z M50.6090184,24.8538012 L50.6090184,10.2823726 L53.0538989,10.2823726 L53.0538989,11.5737558 L53.1876033,11.5737558 C53.4550121,11.1497195 54.3718425,10.0318057 56.2055029,10.0318057 C59.0132955,10.0318057 60.9424591,12.1519871 60.9424591,15.3129849 C60.9424591,18.4739826 59.0323961,20.6712614 56.2819054,20.6712614 C54.5055469,20.6712614 53.5505153,19.6689939 53.2258047,19.1100369 L53.0921003,19.1100369 L53.0921003,24.8538012 L50.6090184,24.8538012 Z M55.7279871,18.396885 C57.3324401,18.396885 58.421176,17.1440505 58.421176,15.3515336 C58.421176,13.5011934 57.3324401,12.3061821 55.7088865,12.3061821 C54.0662324,12.3061821 53.0347983,13.6361141 53.0347983,15.3515336 C53.0347983,17.2404224 54.1808361,18.396885 55.7279871,18.396885 Z M68.0471878,20.6712614 C65.0865902,20.6712614 62.9855208,18.4354339 62.9855208,15.4093567 C62.9855208,12.2098102 65.1056907,10.0318057 68.0471878,10.0318057 C71.2751943,10.0318057 73.0324522,12.4411027 73.0324522,15.2937104 L73.0324522,16.0839598 L65.3922002,16.0839598 C65.4686027,17.62591 66.5191373,18.6667263 68.1235903,18.6667263 C69.3460307,18.6667263 70.2819614,18.088495 70.6257729,17.2596968 L72.936949,17.2596968 C72.4403327,19.3220552 70.6448734,20.6712614 68.0471878,20.6712614 Z M65.4304015,14.3107172 L70.6639741,14.3107172 C70.5493703,12.9422365 69.4988357,12.0363408 68.0471878,12.0363408 C66.6528417,12.0363408 65.5832066,13.0386084 65.4304015,14.3107172 Z M75.7058347,20.4206946 L75.7058347,10.2823726 L78.0743129,10.2823726 L78.0743129,11.5159327 L78.2080173,11.5159327 C78.6091305,10.764232 79.6023632,10.0318057 81.0349105,10.0318057 C83.2887849,10.0318057 84.6640302,11.6315789 84.6640302,13.7903091 L84.6640302,20.4206946 L82.1809483,20.4206946 L82.1809483,14.4456379 C82.1809483,13.2120778 81.3978225,12.3832796 80.2517846,12.3832796 C79.048445,12.3832796 78.1889166,13.3469984 78.1889166,14.6191073 L78.1889166,20.4206946 L75.7058347,20.4206946 Z M87.1273059,20.4206946 L87.1273059,18.1270437 L94.079935,9.28010502 L94.079935,9.14518438 L87.375614,9.14518438 L87.375614,6.9286311 L97.2506396,6.9286311 L97.2506396,9.20300751 L90.2980104,18.0499462 L90.2980104,18.2041413 L97.288841,18.2041413 L97.288841,20.4206946 L87.1273059,20.4206946 Z M104.011557,20.6712614 C101.050959,20.6712614 98.9498901,18.4354339 98.9498901,15.4093567 C98.9498901,12.2098102 101.07006,10.0318057 104.011557,10.0318057 C107.239563,10.0318057 108.996821,12.4411027 108.996821,15.2937104 L108.996821,16.0839598 L101.356569,16.0839598 C101.432972,17.62591 102.483507,18.6667263 104.087959,18.6667263 C105.3104,18.6667263 106.246331,18.088495 106.590142,17.2596968 L108.901318,17.2596968 C108.404702,19.3220552 106.609243,20.6712614 104.011557,20.6712614 Z M101.394771,14.3107172 L106.628343,14.3107172 C106.51374,12.9422365 105.463205,12.0363408 104.011557,12.0363408 C102.617211,12.0363408 101.547576,13.0386084 101.394771,14.3107172 Z M111.670204,24.8538012 L111.670204,10.2823726 L114.115085,10.2823726 L114.115085,11.5737558 L114.248789,11.5737558 C114.516198,11.1497195 115.433028,10.0318057 117.266689,10.0318057 C120.074481,10.0318057 122.003645,12.1519871 122.003645,15.3129849 C122.003645,18.4739826 120.093582,20.6712614 117.343091,20.6712614 C115.566732,20.6712614 114.611701,19.6689939 114.28699,19.1100369 L114.153286,19.1100369 L114.153286,24.8538012 L111.670204,24.8538012 Z M116.789173,18.396885 C118.393626,18.396885 119.482362,17.1440505 119.482362,15.3515336 C119.482362,13.5011934 118.393626,12.3061821 116.770072,12.3061821 C115.127418,12.3061821 114.095984,13.6361141 114.095984,15.3515336 C114.095984,17.2404224 115.242022,18.396885 116.789173,18.396885 Z M124.677027,24.8538012 L124.677027,10.2823726 L127.121908,10.2823726 L127.121908,11.5737558 L127.255612,11.5737558 C127.523021,11.1497195 128.439851,10.0318057 130.273512,10.0318057 C133.081304,10.0318057 135.010468,12.1519871 135.010468,15.3129849 C135.010468,18.4739826 133.100405,20.6712614 130.349914,20.6712614 C128.573556,20.6712614 127.618524,19.6689939 127.293814,19.1100369 L127.160109,19.1100369 L127.160109,24.8538012 L124.677027,24.8538012 Z M129.795996,18.396885 C131.400449,18.396885 132.489185,17.1440505 132.489185,15.3515336 C132.489185,13.5011934 131.400449,12.3061821 129.776896,12.3061821 C128.134241,12.3061821 127.102807,13.6361141 127.102807,15.3515336 C127.102807,17.2404224 128.248845,18.396885 129.795996,18.396885 Z M142.115196,20.6712614 C139.154599,20.6712614 137.05353,18.4354339 137.05353,15.4093567 C137.05353,12.2098102 139.173699,10.0318057 142.115196,10.0318057 C145.343204,10.0318057 147.100462,12.4411027 147.100462,15.2937104 L147.100462,16.0839598 L139.460209,16.0839598 C139.536611,17.62591 140.587147,18.6667263 142.191599,18.6667263 C143.41404,18.6667263 144.34997,18.088495 144.693782,17.2596968 L147.004958,17.2596968 C146.508341,19.3220552 144.712883,20.6712614 142.115196,20.6712614 Z M139.498411,14.3107172 L144.731983,14.3107172 C144.617379,12.9422365 143.566845,12.0363408 142.115196,12.0363408 C140.72085,12.0363408 139.651215,13.0386084 139.498411,14.3107172 Z M152.218724,20.4206946 C150.461466,20.4206946 149.468234,19.3606039 149.468234,17.5680869 L149.468234,5.96491228 L151.951316,5.96491228 L151.951316,17.3367943 C151.951316,17.9150256 152.237825,18.2234156 152.753542,18.2234156 L153.154655,18.2234156 L153.154655,20.4206946 L152.218724,20.4206946 Z M156.783069,8.93316625 C155.885339,8.93316625 155.255018,8.37420933 155.255018,7.46831364 C155.255018,6.60096671 155.885339,6.02273541 156.783069,6.02273541 C157.680799,6.02273541 158.311119,6.60096671 158.311119,7.46831364 C158.311119,8.37420933 157.680799,8.93316625 156.783069,8.93316625 Z M155.541529,20.4206946 L155.541529,10.2823726 L158.02461,10.2823726 L158.02461,20.4206946 L155.541529,20.4206946 Z M161.041804,20.4206946 L161.041804,10.2823726 L163.410283,10.2823726 L163.410283,11.5159327 L163.543987,11.5159327 C163.9451,10.764232 164.938332,10.0318057 166.37088,10.0318057 C168.624754,10.0318057 170,11.6315789 170,13.7903091 L170,20.4206946 L167.516917,20.4206946 L167.516917,14.4456379 C167.516917,13.2120778 166.733792,12.3832796 165.587754,12.3832796 C164.384415,12.3832796 163.524886,13.3469984 163.524886,14.6191073 L163.524886,20.4206946 L161.041804,20.4206946 Z" id="OpenZeppelin"></path>
                </g>
            </g>
        </g>
    </g>
</svg>