<svg width="138" height="160" viewBox="0 0 138 160" fill="none" xmlns="http://www.w3.org/2000/svg">
<g style="mix-blend-mode:overlay">
<path d="M65.4396 90.525C65.3667 90.525 65.2938 90.525 65.2938 90.4521L58.302 81.9954C58.2291 81.9225 58.2291 81.8496 58.302 81.7769L62.0164 71.4248C62.0164 71.3519 62.0893 71.279 62.1622 71.279L72.8684 69.3835C72.9413 69.3835 73.014 69.3835 73.0869 69.4565L80.079 77.9131C80.1516 77.986 80.1516 78.0589 80.079 78.1316L76.3643 88.4837C76.3643 88.5566 76.2916 88.6296 76.2187 88.6296L65.4396 90.525ZM58.6661 81.7769L65.5123 90.0146L76.0002 88.1192L79.6419 77.986L72.7955 69.7481L62.3078 71.6435L58.6661 81.7769Z" fill="url(#paint0_linear_66_18452)"/>
<path d="M64.2021 90.7438C64.1291 90.7438 64.0562 90.7438 64.0562 90.6709L57.4285 81.0479C57.3559 80.975 57.3559 80.9021 57.4285 80.8291L62.3084 70.1856C62.3084 70.1127 62.3813 70.0398 62.454 70.0398L73.9615 69.0193C74.0344 69.0193 74.1071 69.0193 74.18 69.0922L80.8077 78.7152C80.8806 78.7881 80.8806 78.861 80.8077 78.9339L75.9281 89.5774C75.9281 89.6504 75.8552 89.7233 75.7823 89.7233L64.2021 90.7438C64.2747 90.7438 64.2747 90.7438 64.2021 90.7438ZM57.8656 80.9021L64.3476 90.3063L75.6367 89.2858L80.4436 78.861L73.9615 69.4567L62.6725 70.4773L57.8656 80.9021Z" fill="url(#paint1_linear_66_18452)"/>
<path d="M75.2727 90.9625H62.964C62.8911 90.9625 62.8184 90.8896 62.8184 90.8896L56.7004 80.1003C56.6275 80.0274 56.6275 79.9544 56.7004 79.8815L62.8184 69.0922C62.8911 69.0193 62.8911 69.0193 62.964 69.0193H75.2727C75.3454 69.0193 75.4183 69.0922 75.4183 69.0922L81.5363 79.8815C81.609 79.9544 81.609 80.0274 81.5363 80.1003L75.4183 90.8896C75.4183 90.8896 75.3454 90.9625 75.2727 90.9625ZM63.1096 90.5251H75.1998L81.2449 79.9544L75.1998 69.3838H63.1096L57.0645 79.9544L63.1096 90.5251Z" fill="url(#paint2_linear_66_18452)"/>
<path d="M74.6946 92.128C74.6217 92.128 74.6217 92.128 74.6946 92.128L61.6575 90.9617C61.5848 90.9617 61.5119 90.8888 61.5119 90.8159L55.9766 78.7871C55.9766 78.7142 55.9766 78.6412 55.9766 78.5683L63.4783 67.7061C63.5512 67.6332 63.6241 67.6332 63.6968 67.6332L76.7339 68.7995C76.8068 68.7995 76.8795 68.8724 76.8795 68.9453L82.4149 80.9741C82.4149 81.0471 82.4149 81.12 82.4149 81.1929L74.9131 92.0551C74.7673 92.128 74.6946 92.128 74.6946 92.128ZM61.7304 90.5971L74.5488 91.7635L81.9049 81.12L76.4425 69.3099L63.6241 68.1435L56.268 78.7871L61.7304 90.5971Z" fill="url(#paint3_linear_66_18452)"/>
<path d="M73.8857 93.3683L60.1204 90.8896C60.0477 90.8896 59.9748 90.8167 59.9748 90.7438L55.2407 77.4758C55.2407 77.4028 55.2407 77.3299 55.2407 77.257L64.1991 66.4677C64.272 66.3948 64.3447 66.3948 64.4176 66.3948L78.11 68.8735C78.1829 68.8735 78.2556 68.9464 78.2556 69.0193L82.9899 82.2874C82.9899 82.3603 82.9899 82.433 82.9899 82.5059L74.0315 93.2954C74.0315 93.3684 73.9586 93.3683 73.8857 93.3683ZM60.3389 90.5251L73.813 92.9309L82.6255 82.2874L77.9644 69.238L64.4903 66.8322L55.6777 77.4758L60.3389 90.5251Z" fill="url(#paint4_linear_66_18452)"/>
<path d="M72.9343 94.6068L58.5864 90.6703C58.5135 90.6703 58.4408 90.5974 58.4408 90.5245L54.5806 76.0169C54.5806 75.9443 54.5806 75.8711 54.6535 75.7982L65.1414 65.1547C65.2141 65.0818 65.287 65.0818 65.3599 65.0818L79.6349 68.9456C79.7078 68.9456 79.7805 69.0185 79.7805 69.0914L83.6407 83.5987C83.6407 83.6716 83.6407 83.7445 83.5678 83.8174L73.0799 94.4609C73.0799 94.6068 73.0072 94.6068 72.9343 94.6068ZM58.8049 90.3787L72.8614 94.2424L83.1308 83.8174L79.3435 69.5289L65.287 65.6651L55.0176 76.0899L58.8049 90.3787Z" fill="url(#paint5_linear_66_18452)"/>
<path d="M71.85 95.8463L56.9921 90.3787C56.9195 90.3787 56.8465 90.3058 56.8465 90.2329L54.0789 74.4863C54.0789 74.4134 54.0789 74.3405 54.1518 74.2676L66.2419 63.9884C66.3148 63.9155 66.3875 63.9155 66.4604 63.9884L81.2454 69.456C81.3183 69.456 81.391 69.5289 81.391 69.6018L84.1587 85.3486C84.1587 85.4215 84.1587 85.4944 84.0858 85.5673L71.9956 95.8463C71.9956 95.8463 71.9229 95.8463 71.85 95.8463ZM57.2107 90.0141L71.7771 95.4088L83.6487 85.2757L80.954 69.7476L66.3875 64.3529L54.5159 74.4863L57.2107 90.0141Z" fill="url(#paint6_linear_66_18452)"/>
<path d="M70.6139 97.0855H70.5412L55.3193 89.8683C55.2463 89.8683 55.1734 89.7953 55.1734 89.7224L53.7168 72.8093C53.7168 72.7364 53.7168 72.6635 53.7897 72.5906L67.4821 62.8218C67.555 62.7489 67.6279 62.7489 67.7006 62.8218L82.9226 70.039C82.9955 70.039 83.0684 70.1119 83.0684 70.1848L84.525 87.0979C84.525 87.1708 84.525 87.2437 84.4521 87.3166L70.7597 97.0855C70.6868 97.0855 70.6139 97.0855 70.6139 97.0855ZM55.6105 89.5037L70.6139 96.5751L84.1607 86.9521L82.7041 70.2577L67.7006 63.1863L54.1538 72.8093L55.6105 89.5037Z" fill="url(#paint7_linear_66_18452)"/>
<path d="M69.1505 98.2528H69.0778L53.6374 89.2131C53.5645 89.1401 53.5645 89.1401 53.5645 89.0672V70.9878C53.5645 70.9149 53.6374 70.842 53.6374 70.842L69.0778 61.8022C69.1505 61.7293 69.2234 61.7293 69.2961 61.8022L84.7366 70.842C84.8095 70.9149 84.8095 70.9149 84.8095 70.9878V89.0672C84.8095 89.1401 84.7366 89.2131 84.7366 89.2131L69.2961 98.2528C69.2234 98.1799 69.1505 98.2528 69.1505 98.2528ZM53.9286 88.8485L69.1505 97.8153L84.3725 88.9214V71.0607L69.1505 62.0937L53.8556 70.9878L53.9286 88.8485Z" fill="url(#paint8_linear_66_18452)"/>
<path d="M67.4768 99.273C67.4038 99.273 67.4038 99.273 67.3312 99.2001L51.8178 88.1192C51.7449 88.0462 51.7449 87.9733 51.7449 87.9004L53.3473 68.7276C53.3473 68.6546 53.42 68.5817 53.4929 68.5817L70.6812 60.4896C70.7541 60.4896 70.8271 60.4896 70.9 60.4896L86.4131 71.5706C86.486 71.6435 86.486 71.7164 86.486 71.7893L84.8836 90.9624C84.8836 91.0353 84.8109 91.1082 84.738 91.1082L67.5497 99.2001C67.5497 99.273 67.5497 99.273 67.4768 99.273ZM52.1819 87.9733L67.5497 98.9085L84.5195 90.8895L86.1217 71.9352L70.7541 61L53.7844 69.019L52.1819 87.9733Z" fill="url(#paint9_linear_66_18452)"/>
<path d="M65.6555 100.294C65.5826 100.294 65.5826 100.294 65.51 100.221L50.0695 87.0261C49.9966 86.9532 49.9966 86.8803 49.9966 86.8074L53.4925 66.6137C53.4925 66.5408 53.5654 66.4679 53.6383 66.4679L72.5747 59.4692C72.6473 59.4692 72.7203 59.4692 72.7932 59.4692L88.2336 72.6644C88.3063 72.7373 88.3063 72.8102 88.3063 72.8831L84.8104 93.0767C84.8104 93.1496 84.7375 93.2225 84.6648 93.2225L65.6555 100.294ZM50.4336 86.8074L65.7285 99.8567L84.4463 92.9309L87.8693 73.0289L72.5747 59.9796L53.8568 66.9052L50.4336 86.8074Z" fill="url(#paint10_linear_66_18452)"/>
<path d="M63.6179 101.169C63.545 101.169 63.545 101.168 63.4723 101.095L48.3231 85.7135C48.2502 85.6406 48.2502 85.5677 48.2502 85.4947L53.7855 64.4262C53.7855 64.3533 53.8584 64.2804 53.9311 64.2804L74.6155 58.667C74.6884 58.667 74.7611 58.667 74.834 58.7399L89.983 74.1221C90.0559 74.195 90.0559 74.2679 90.0559 74.3409L84.5208 95.4094C84.5208 95.4823 84.4479 95.5552 84.375 95.5552L63.6179 101.169ZM48.6144 85.4947L63.6179 100.731L84.0838 95.1907L89.546 74.4138L74.5428 59.1774L54.0769 64.7179L48.6144 85.4947Z" fill="url(#paint11_linear_66_18452)"/>
<path d="M61.3617 101.898C61.2891 101.898 61.2162 101.898 61.2162 101.825L46.5041 84.0368C46.4313 83.9639 46.4313 83.8908 46.5041 83.8181L54.297 62.0204C54.297 61.9475 54.37 61.8746 54.4429 61.8746L76.8751 57.8652C76.948 57.8652 77.0207 57.8652 77.0936 57.9379L91.8057 75.7259C91.8786 75.7989 91.8786 75.8718 91.8057 75.9447L84.0127 97.7421C84.0127 97.815 83.9398 97.8879 83.8669 97.8879L61.3617 101.898ZM46.8683 83.891L61.4347 101.46L83.6486 97.5234L91.3686 75.9447L76.8022 58.3754L54.5885 62.3121L46.8683 83.891Z" fill="url(#paint12_linear_66_18452)"/>
<path d="M58.8833 102.481C58.8104 102.481 58.7375 102.481 58.7375 102.408L44.8266 82.214C44.7538 82.1413 44.7538 82.0682 44.8266 81.9953L55.096 59.6877C55.096 59.6148 55.1687 59.5419 55.2416 59.5419L79.4219 57.4277C79.4948 57.4277 79.5675 57.4277 79.6404 57.5006L93.5513 77.6943C93.6243 77.7672 93.6243 77.8401 93.5513 77.913L83.2819 100.221C83.2819 100.294 83.2092 100.367 83.1363 100.367L58.8833 102.481ZM45.1908 81.9953L59.0289 102.043L82.9907 99.9291L93.1143 77.8401L79.2763 57.7923L55.3145 59.9062L45.1908 81.9953Z" fill="url(#paint13_linear_66_18452)"/>
<path d="M82.0435 102.845H56.2607C56.188 102.845 56.1151 102.772 56.1151 102.772L43.2238 80.0272C43.151 79.9543 43.151 79.8812 43.2238 79.8083L56.1151 57.0633C56.188 56.9904 56.188 56.9904 56.2607 56.9904H82.0435C82.1162 56.9904 82.1891 57.0633 82.1891 57.0633L95.0804 79.8083C95.1533 79.8812 95.1533 79.9543 95.0804 80.0272L82.1891 102.772C82.1891 102.845 82.1162 102.845 82.0435 102.845ZM56.3336 102.408H81.8977L94.6433 79.8814L81.825 57.3549H56.2607L43.5151 79.8814L56.3336 102.408Z" fill="url(#paint14_linear_66_18452)"/>
<path d="M80.7273 105.47L53.3422 102.991C53.2696 102.991 53.1966 102.918 53.1966 102.845L41.5435 77.5487C41.5435 77.4758 41.5435 77.4028 41.5435 77.3299L57.2752 54.4389C57.3481 54.366 57.421 54.366 57.4937 54.366L84.8787 56.8447C84.9514 56.8447 85.0243 56.9176 85.0243 56.9905L96.6774 82.2871C96.6774 82.3601 96.6774 82.433 96.6774 82.5059L80.9458 105.397C80.8729 105.397 80.8 105.47 80.7273 105.47ZM53.4878 102.554L80.5814 104.959L96.1677 82.2871L84.6602 57.2092L57.5666 54.8034L41.9805 77.4758L53.4878 102.554Z" fill="url(#paint15_linear_66_18452)"/>
<path d="M79.1281 108.021L50.2865 102.845C50.2138 102.845 50.1409 102.772 50.1409 102.699L40.1628 74.778C40.1628 74.7051 40.1628 74.6322 40.1628 74.5593L58.9536 51.8142C59.0263 51.7413 59.0992 51.7413 59.1721 51.7413L87.9409 56.9173C88.0136 56.9173 88.0865 56.9902 88.0865 57.0631L98.0645 84.9843C98.0645 85.0572 98.0645 85.1301 98.0645 85.203L79.2737 107.948C79.2737 108.021 79.2008 108.021 79.1281 108.021ZM50.505 102.48L79.0552 107.584L97.7004 85.0572L87.7951 57.3547L59.2448 52.2515L40.5998 74.778L50.505 102.48Z" fill="url(#paint16_linear_66_18452)"/>
<path d="M77.1652 110.646L47.0855 102.481C47.0127 102.481 46.9399 102.408 46.9399 102.335L38.8555 71.7895C38.8555 71.7166 38.8555 71.6437 38.9283 71.5708L60.9236 49.263C60.9965 49.1901 61.0692 49.1901 61.1421 49.1901L91.149 57.3549C91.2219 57.3549 91.2946 57.4278 91.2946 57.5007L99.3792 88.0464C99.3792 88.1193 99.3792 88.1922 99.3063 88.2651L77.3108 110.573C77.3108 110.646 77.2381 110.646 77.1652 110.646ZM47.304 102.116L77.0925 110.281L98.8693 88.1193L90.8576 57.7923L61.0692 49.6275L39.2925 71.7895L47.304 102.116Z" fill="url(#paint17_linear_66_18452)"/>
<path d="M74.9066 113.269C74.8336 113.269 74.8336 113.269 74.9066 113.269L43.8071 101.751C43.7343 101.751 43.6615 101.678 43.6615 101.605L37.9077 68.5079C37.9077 68.4349 37.9077 68.362 37.9806 68.2893L63.3261 46.7104C63.399 46.6375 63.4719 46.6375 63.5446 46.7104L94.644 58.2289C94.7169 58.2289 94.7896 58.3018 94.7896 58.3747L100.544 91.4718C100.544 91.5447 100.544 91.6176 100.471 91.6906L75.1251 113.269C74.9792 113.196 74.9066 113.269 74.9066 113.269ZM44.0256 101.386L74.8336 112.832L99.9609 91.3989L94.2799 58.5205L63.4719 47.075L38.3447 68.5079L44.0256 101.386Z" fill="url(#paint18_linear_66_18452)"/>
<path d="M72.2144 115.749H72.1415L40.241 100.658C40.1681 100.658 40.0953 100.585 40.0953 100.513L37.0364 64.8638C37.0364 64.7909 37.0364 64.7179 37.1092 64.645L65.878 44.1598C65.9509 44.0869 66.0236 44.0869 66.0965 44.1598L97.997 59.2504C98.0697 59.2504 98.1426 59.3233 98.1426 59.3962L101.201 95.0449C101.201 95.1176 101.201 95.1905 101.129 95.2634L72.36 115.749C72.2871 115.749 72.2144 115.749 72.2144 115.749ZM40.5323 100.294L72.2144 115.311L100.837 94.972L97.7785 59.542L66.0965 44.5243L37.4733 64.8638L40.5323 100.294Z" fill="url(#paint19_linear_66_18452)"/>
<path d="M69.1563 118.155H69.0836L36.6732 99.1273C36.6003 99.0544 36.6003 99.0544 36.6003 98.9815V60.9272C36.6003 60.8543 36.6732 60.7814 36.6732 60.7814L69.0836 41.7541C69.1563 41.6812 69.2292 41.6812 69.3021 41.7541L101.712 60.7814C101.785 60.8543 101.785 60.8543 101.785 60.9272V98.9815C101.785 99.0544 101.712 99.1273 101.712 99.1273L69.3021 118.155C69.2292 118.155 69.1563 118.155 69.1563 118.155ZM36.9645 98.8357L69.1563 117.717L101.348 98.8357V61.0001L69.1563 42.1186L36.9645 61.0001V98.8357Z" fill="url(#paint20_linear_66_18452)"/>
<path d="M65.6607 120.487C65.588 120.487 65.588 120.487 65.5151 120.414L32.9591 97.2317C32.8862 97.1588 32.8862 97.0859 32.8862 97.013L36.3822 56.6987C36.3822 56.6258 36.455 56.5529 36.5278 56.5529L72.5798 39.4211C72.6527 39.4211 72.7254 39.4211 72.7983 39.4211L105.427 62.6037C105.5 62.6766 105.5 62.7496 105.5 62.8225L102.004 103.137C102.004 103.21 101.931 103.283 101.858 103.283L65.8065 120.414C65.7336 120.487 65.6607 120.487 65.6607 120.487ZM33.2504 96.9401L65.6607 120.05L101.494 103.064L104.917 62.9683L72.5798 39.8585L36.7463 56.8445L33.2504 96.9401Z" fill="url(#paint21_linear_66_18452)"/>
<path d="M61.719 122.529C61.6461 122.529 61.6461 122.529 61.5734 122.456L29.1629 94.7534C29.0901 94.6805 29.0901 94.6075 29.0901 94.5346L36.4462 52.1062C36.4462 52.0333 36.519 51.9603 36.5918 51.9603L76.3583 37.2344C76.431 37.2344 76.5039 37.2344 76.5768 37.2344L108.987 64.9368C109.06 65.0097 109.06 65.0826 109.06 65.1555L101.704 107.584C101.704 107.657 101.631 107.73 101.558 107.73L61.719 122.529C61.7919 122.529 61.7919 122.529 61.719 122.529ZM29.5271 94.6076L61.7919 122.091L101.34 107.438L108.696 65.2284L76.431 37.7447L36.8831 52.3978L29.5271 94.6076Z" fill="url(#paint22_linear_66_18452)"/>
<path d="M57.4315 124.352C57.3586 124.352 57.3586 124.352 57.2857 124.279L25.4581 91.9106C25.3852 91.8377 25.3853 91.7648 25.3853 91.6919L37.0384 47.4409C37.0384 47.368 37.1112 47.2951 37.1841 47.2951L80.6649 35.4121C80.7378 35.4121 80.8105 35.4121 80.8834 35.485L112.711 67.8532C112.784 67.9261 112.784 67.9991 112.784 68.0717L101.131 112.323C101.131 112.396 101.058 112.469 100.985 112.469L57.4315 124.352C57.5042 124.352 57.5042 124.352 57.4315 124.352ZM25.8222 91.7648L57.5042 123.987L100.767 112.177L112.347 68.1447L80.6649 35.9224L37.4026 47.7323L25.8222 91.7648Z" fill="url(#paint23_linear_66_18452)"/>
<path d="M52.6909 125.955C52.6182 125.955 52.5453 125.955 52.5453 125.882L21.7372 88.5565C21.6644 88.4836 21.6644 88.4107 21.7372 88.3378L38.1245 42.5559C38.1245 42.4831 38.1973 42.4101 38.2702 42.4101L85.4655 33.9536C85.5384 33.9536 85.6111 33.9536 85.684 34.0265L116.492 71.352C116.565 71.4249 116.565 71.4978 116.492 71.5705L100.105 117.353C100.105 117.426 100.032 117.498 99.959 117.498L52.6909 125.955ZM22.1742 88.3378L52.8367 125.445L99.8134 116.988L116.128 71.4249L85.4655 34.3181L38.4887 42.7747L22.1742 88.3378Z" fill="url(#paint24_linear_66_18452)"/>
<path d="M47.5188 127.122C47.446 127.122 47.3732 127.122 47.3732 127.049L18.1674 84.6202C18.0946 84.5473 18.0946 84.4743 18.1674 84.4014L39.7258 37.3802C39.7258 37.3073 39.7986 37.2344 39.8714 37.2344L90.6356 32.7145C90.7083 32.7145 90.7812 32.7145 90.8541 32.7873L120.06 75.2159C120.133 75.2888 120.133 75.3617 120.06 75.4346L98.5014 122.456C98.5014 122.529 98.4285 122.602 98.3559 122.602L47.5188 127.122ZM18.5316 84.4743L47.5917 126.684L98.1373 122.164L119.623 75.3617L90.5627 33.1518L40.0171 37.6717L18.5316 84.4743Z" fill="url(#paint25_linear_66_18452)"/>
<path d="M41.9841 127.923C41.9113 127.923 41.8384 127.85 41.8384 127.85L14.7448 80.0999C14.672 80.027 14.672 79.9543 14.7448 79.8814L41.9112 32.131C41.9841 32.0581 41.9841 32.0581 42.0569 32.0581L96.3169 31.9852C96.3898 31.9852 96.4627 32.0581 96.4627 32.0581L123.556 79.8083C123.629 79.8812 123.629 79.9543 123.556 80.0272L96.3898 127.777C96.3169 127.85 96.3169 127.85 96.2442 127.85L41.9841 127.923ZM15.109 79.9541L42.0569 127.486L96.0984 127.413L123.119 79.8814L96.1713 32.3497L42.1297 32.4226L15.109 79.9541Z" fill="url(#paint26_linear_66_18452)"/>
<path d="M93.4803 133.245L35.9428 128.215C35.87 128.215 35.7972 128.142 35.7972 128.069L11.4712 74.924C11.4712 74.8511 11.4712 74.7782 11.4712 74.7053L44.6099 26.6635C44.6827 26.5906 44.7555 26.5906 44.8284 26.5906L102.293 31.6208C102.366 31.6208 102.439 31.6937 102.439 31.7666L126.765 84.9116C126.765 84.9845 126.765 85.0574 126.765 85.1303L93.6259 133.172C93.6259 133.245 93.5532 133.245 93.4803 133.245ZM36.0885 127.778L93.3347 132.808L126.328 84.9116L102.075 31.9853L44.8284 26.9551L11.8354 74.8511L36.0885 127.778Z" fill="url(#paint27_linear_66_18452)"/>
<path d="M90.0571 138.713L29.6062 127.923C29.5334 127.923 29.4605 127.85 29.4605 127.778L8.48486 69.2379C8.48486 69.165 8.48486 69.0921 8.48486 69.0192L48.0328 21.196C48.1056 21.1231 48.1785 21.123 48.2513 21.123L108.702 31.9125C108.775 31.9125 108.848 31.9853 108.848 32.0582L129.823 90.6708C129.823 90.7437 129.823 90.8166 129.823 90.8895L90.2756 138.713C90.2027 138.713 90.1298 138.713 90.0571 138.713ZM29.7519 127.559L89.9842 138.275L129.314 90.6708L108.411 32.277L48.1784 21.5605L8.84903 69.165L29.7519 127.559Z" fill="url(#paint28_linear_66_18452)"/>
<path d="M85.9771 144.18L22.8315 127.121C22.7587 127.121 22.6858 127.048 22.6858 126.975L5.86157 62.8952C5.86157 62.8223 5.86157 62.7494 5.93442 62.6765L52.1829 15.7282C52.2558 15.6553 52.3285 15.6553 52.4014 15.6553L115.474 32.787C115.547 32.787 115.62 32.86 115.62 32.9329L132.444 97.0131C132.444 97.086 132.444 97.1589 132.371 97.2318L86.1227 144.18C86.05 144.18 86.05 144.18 85.9771 144.18ZM23.05 126.684L85.9042 143.743L132.007 96.9402L115.183 33.0787L52.3285 16.0198L6.22575 62.8223L23.05 126.684Z" fill="url(#paint29_linear_66_18452)"/>
<path d="M81.1685 149.648C81.0956 149.648 81.0956 149.648 81.1685 149.648L15.7651 125.591C15.6923 125.591 15.6194 125.518 15.6194 125.445L3.60205 55.9702C3.60205 55.8973 3.60205 55.8244 3.67496 55.7515L56.9881 10.334C57.0611 10.2611 57.1337 10.2611 57.2067 10.334L122.537 34.3914C122.61 34.3914 122.683 34.4643 122.683 34.5372L134.7 104.012C134.7 104.085 134.7 104.158 134.627 104.231L81.3141 149.648C81.2414 149.575 81.1685 149.648 81.1685 149.648ZM15.9836 125.153L81.0956 149.138L134.19 103.866L122.246 34.6101L57.1337 10.6256L4.03907 55.8973L15.9836 125.153Z" fill="url(#paint30_linear_66_18452)"/>
<path d="M75.4886 154.897H75.4157L8.41005 123.258C8.33721 123.258 8.26439 123.185 8.26439 123.112L1.92798 48.2428C1.92798 48.1699 1.92798 48.097 2.00089 48.0241L62.5973 4.93945C62.67 4.86654 62.7429 4.86654 62.8158 4.93945L129.821 36.5785C129.894 36.5785 129.967 36.6515 129.967 36.7244L136.376 111.521C136.376 111.594 136.376 111.667 136.303 111.74L75.7071 154.824C75.5615 154.897 75.5615 154.897 75.4886 154.897ZM8.70138 122.893L75.4886 154.46L135.939 111.521L129.603 37.016L62.7429 5.37684L2.29208 48.3157L8.70138 122.893Z" fill="url(#paint31_linear_66_18452)"/>
<path d="M69.0794 160H69.0065L0.90836 120.123C0.83545 120.05 0.835449 120.05 0.835449 119.977L0.90836 40.1504C0.90836 40.0774 0.981047 40.0045 0.981047 40.0045L69.1521 0.0546825C69.225 -0.0182275 69.2977 -0.0182275 69.3706 0.0546825L137.469 39.9316C137.542 40.0046 137.542 40.0045 137.542 40.0774L137.469 119.831C137.469 119.904 137.396 119.977 137.396 119.977L69.1521 159.927C69.1521 160 69.0794 160 69.0794 160ZM1.12687 119.759L69.0794 159.49L137.032 119.613L137.105 40.0045L69.1521 0.273413L1.19955 40.1504L1.12687 119.759Z" fill="url(#paint32_linear_66_18452)"/>
<path d="M69.0794 160H69.0065L0.90836 120.123C0.83545 120.05 0.835449 120.05 0.835449 119.977L0.90836 40.1504C0.90836 40.0774 0.981047 40.0045 0.981047 40.0045L69.1521 0.0546825C69.225 -0.0182275 69.2977 -0.0182275 69.3706 0.0546825L137.469 39.9316C137.542 40.0046 137.542 40.0045 137.542 40.0774L137.469 119.831C137.469 119.904 137.396 119.977 137.396 119.977L69.1521 159.927C69.1521 160 69.0794 160 69.0794 160ZM1.12687 119.759L69.0794 159.49L137.032 119.613L137.105 40.0045L69.1521 0.273413L1.19955 40.1504L1.12687 119.759Z" fill="url(#paint33_linear_66_18452)" fill-opacity="0.2"/>
</g>
<defs>
<linearGradient id="paint0_linear_66_18452" x1="58.2135" y1="79.9235" x2="80.0354" y2="79.9235" gradientUnits="userSpaceOnUse">
<stop stop-color="#83A4D4"/>
<stop offset="0.9543" stop-color="#B4F7FD"/>
<stop offset="0.9994" stop-color="#B6FBFF"/>
</linearGradient>
<linearGradient id="paint1_linear_66_18452" x1="57.3992" y1="79.9238" x2="80.8511" y2="79.9238" gradientUnits="userSpaceOnUse">
<stop stop-color="#83A4D4"/>
<stop offset="0.9543" stop-color="#B4F7FD"/>
<stop offset="0.9994" stop-color="#B6FBFF"/>
</linearGradient>
<linearGradient id="paint2_linear_66_18452" x1="56.6171" y1="79.9238" x2="81.6332" y2="79.9238" gradientUnits="userSpaceOnUse">
<stop stop-color="#83A4D4"/>
<stop offset="0.9543" stop-color="#B4F7FD"/>
<stop offset="0.9994" stop-color="#B6FBFF"/>
</linearGradient>
<linearGradient id="paint3_linear_66_18452" x1="55.8861" y1="79.923" x2="82.3735" y2="79.923" gradientUnits="userSpaceOnUse">
<stop stop-color="#83A4D4"/>
<stop offset="0.9543" stop-color="#B4F7FD"/>
<stop offset="0.9994" stop-color="#B6FBFF"/>
</linearGradient>
<linearGradient id="paint4_linear_66_18452" x1="55.2047" y1="79.9236" x2="83.0394" y2="79.9236" gradientUnits="userSpaceOnUse">
<stop stop-color="#83A4D4"/>
<stop offset="0.9543" stop-color="#B4F7FD"/>
<stop offset="0.9994" stop-color="#B6FBFF"/>
</linearGradient>
<linearGradient id="paint5_linear_66_18452" x1="54.6046" y1="79.923" x2="83.6305" y2="79.923" gradientUnits="userSpaceOnUse">
<stop stop-color="#83A4D4"/>
<stop offset="0.9543" stop-color="#B4F7FD"/>
<stop offset="0.9994" stop-color="#B6FBFF"/>
</linearGradient>
<linearGradient id="paint6_linear_66_18452" x1="54.1129" y1="79.9232" x2="84.1387" y2="79.9232" gradientUnits="userSpaceOnUse">
<stop stop-color="#83A4D4"/>
<stop offset="0.9543" stop-color="#B4F7FD"/>
<stop offset="0.9994" stop-color="#B6FBFF"/>
</linearGradient>
<linearGradient id="paint7_linear_66_18452" x1="53.7295" y1="79.9229" x2="84.5261" y2="79.9229" gradientUnits="userSpaceOnUse">
<stop stop-color="#83A4D4"/>
<stop offset="0.9543" stop-color="#B4F7FD"/>
<stop offset="0.9994" stop-color="#B6FBFF"/>
</linearGradient>
<linearGradient id="paint8_linear_66_18452" x1="53.4713" y1="79.9239" x2="84.7708" y2="79.9239" gradientUnits="userSpaceOnUse">
<stop stop-color="#83A4D4"/>
<stop offset="0.9543" stop-color="#B4F7FD"/>
<stop offset="0.9994" stop-color="#B6FBFF"/>
</linearGradient>
<linearGradient id="paint9_linear_66_18452" x1="51.7393" y1="79.9235" x2="86.5056" y2="79.9235" gradientUnits="userSpaceOnUse">
<stop stop-color="#83A4D4"/>
<stop offset="0.9543" stop-color="#B4F7FD"/>
<stop offset="0.9994" stop-color="#B6FBFF"/>
</linearGradient>
<linearGradient id="paint10_linear_66_18452" x1="49.9708" y1="79.9238" x2="88.2734" y2="79.9238" gradientUnits="userSpaceOnUse">
<stop stop-color="#83A4D4"/>
<stop offset="0.9543" stop-color="#B4F7FD"/>
<stop offset="0.9994" stop-color="#B6FBFF"/>
</linearGradient>
<linearGradient id="paint11_linear_66_18452" x1="48.2019" y1="79.9236" x2="90.0453" y2="79.9236" gradientUnits="userSpaceOnUse">
<stop stop-color="#83A4D4"/>
<stop offset="0.9543" stop-color="#B4F7FD"/>
<stop offset="0.9994" stop-color="#B6FBFF"/>
</linearGradient>
<linearGradient id="paint12_linear_66_18452" x1="46.4521" y1="79.9234" x2="91.7988" y2="79.9234" gradientUnits="userSpaceOnUse">
<stop stop-color="#83A4D4"/>
<stop offset="0.9543" stop-color="#B4F7FD"/>
<stop offset="0.9994" stop-color="#B6FBFF"/>
</linearGradient>
<linearGradient id="paint13_linear_66_18452" x1="44.7409" y1="79.9236" x2="93.5051" y2="79.9236" gradientUnits="userSpaceOnUse">
<stop stop-color="#83A4D4"/>
<stop offset="0.9543" stop-color="#B4F7FD"/>
<stop offset="0.9994" stop-color="#B6FBFF"/>
</linearGradient>
<linearGradient id="paint14_linear_66_18452" x1="43.1006" y1="79.9234" x2="95.1444" y2="79.9234" gradientUnits="userSpaceOnUse">
<stop stop-color="#83A4D4"/>
<stop offset="0.9543" stop-color="#B4F7FD"/>
<stop offset="0.9994" stop-color="#B6FBFF"/>
</linearGradient>
<linearGradient id="paint15_linear_66_18452" x1="41.5538" y1="79.9238" x2="96.681" y2="79.9238" gradientUnits="userSpaceOnUse">
<stop stop-color="#83A4D4"/>
<stop offset="0.9543" stop-color="#B4F7FD"/>
<stop offset="0.9994" stop-color="#B6FBFF"/>
</linearGradient>
<linearGradient id="paint16_linear_66_18452" x1="40.1455" y1="79.9233" x2="98.0956" y2="79.9233" gradientUnits="userSpaceOnUse">
<stop stop-color="#83A4D4"/>
<stop offset="0.9543" stop-color="#B4F7FD"/>
<stop offset="0.9994" stop-color="#B6FBFF"/>
</linearGradient>
<linearGradient id="paint17_linear_66_18452" x1="38.9017" y1="79.9236" x2="99.3467" y2="79.9236" gradientUnits="userSpaceOnUse">
<stop stop-color="#83A4D4"/>
<stop offset="0.9543" stop-color="#B4F7FD"/>
<stop offset="0.9994" stop-color="#B6FBFF"/>
</linearGradient>
<linearGradient id="paint18_linear_66_18452" x1="37.8544" y1="79.9227" x2="100.392" y2="79.9227" gradientUnits="userSpaceOnUse">
<stop stop-color="#83A4D4"/>
<stop offset="0.9543" stop-color="#B4F7FD"/>
<stop offset="0.9994" stop-color="#B6FBFF"/>
</linearGradient>
<linearGradient id="paint19_linear_66_18452" x1="37.0508" y1="79.9237" x2="101.201" y2="79.9237" gradientUnits="userSpaceOnUse">
<stop stop-color="#83A4D4"/>
<stop offset="0.9543" stop-color="#B4F7FD"/>
<stop offset="0.9994" stop-color="#B6FBFF"/>
</linearGradient>
<linearGradient id="paint20_linear_66_18452" x1="36.5271" y1="79.9238" x2="101.727" y2="79.9238" gradientUnits="userSpaceOnUse">
<stop stop-color="#83A4D4"/>
<stop offset="0.9543" stop-color="#B4F7FD"/>
<stop offset="0.9994" stop-color="#B6FBFF"/>
</linearGradient>
<linearGradient id="paint21_linear_66_18452" x1="32.8535" y1="79.9236" x2="105.401" y2="79.9236" gradientUnits="userSpaceOnUse">
<stop stop-color="#83A4D4"/>
<stop offset="0.9543" stop-color="#B4F7FD"/>
<stop offset="0.9994" stop-color="#B6FBFF"/>
</linearGradient>
<linearGradient id="paint22_linear_66_18452" x1="29.1259" y1="79.9238" x2="109.111" y2="79.9238" gradientUnits="userSpaceOnUse">
<stop stop-color="#83A4D4"/>
<stop offset="0.9543" stop-color="#B4F7FD"/>
<stop offset="0.9994" stop-color="#B6FBFF"/>
</linearGradient>
<linearGradient id="paint23_linear_66_18452" x1="25.411" y1="79.9241" x2="112.845" y2="79.9241" gradientUnits="userSpaceOnUse">
<stop stop-color="#83A4D4"/>
<stop offset="0.9543" stop-color="#B4F7FD"/>
<stop offset="0.9994" stop-color="#B6FBFF"/>
</linearGradient>
<linearGradient id="paint24_linear_66_18452" x1="21.719" y1="79.9236" x2="116.524" y2="79.9236" gradientUnits="userSpaceOnUse">
<stop stop-color="#83A4D4"/>
<stop offset="0.9543" stop-color="#B4F7FD"/>
<stop offset="0.9994" stop-color="#B6FBFF"/>
</linearGradient>
<linearGradient id="paint25_linear_66_18452" x1="18.1212" y1="79.9237" x2="120.12" y2="79.9237" gradientUnits="userSpaceOnUse">
<stop stop-color="#83A4D4"/>
<stop offset="0.9543" stop-color="#B4F7FD"/>
<stop offset="0.9994" stop-color="#B6FBFF"/>
</linearGradient>
<linearGradient id="paint26_linear_66_18452" x1="14.6695" y1="79.9234" x2="123.573" y2="79.9234" gradientUnits="userSpaceOnUse">
<stop stop-color="#83A4D4"/>
<stop offset="0.9543" stop-color="#B4F7FD"/>
<stop offset="0.9994" stop-color="#B6FBFF"/>
</linearGradient>
<linearGradient id="paint27_linear_66_18452" x1="11.4265" y1="79.9237" x2="126.823" y2="79.9237" gradientUnits="userSpaceOnUse">
<stop stop-color="#83A4D4"/>
<stop offset="0.9543" stop-color="#B4F7FD"/>
<stop offset="0.9994" stop-color="#B6FBFF"/>
</linearGradient>
<linearGradient id="paint28_linear_66_18452" x1="8.45159" y1="79.9237" x2="129.798" y2="79.9237" gradientUnits="userSpaceOnUse">
<stop stop-color="#83A4D4"/>
<stop offset="0.9543" stop-color="#B4F7FD"/>
<stop offset="0.9994" stop-color="#B6FBFF"/>
</linearGradient>
<linearGradient id="paint29_linear_66_18452" x1="5.8194" y1="79.9235" x2="132.427" y2="79.9235" gradientUnits="userSpaceOnUse">
<stop stop-color="#83A4D4"/>
<stop offset="0.9543" stop-color="#B4F7FD"/>
<stop offset="0.9994" stop-color="#B6FBFF"/>
</linearGradient>
<linearGradient id="paint30_linear_66_18452" x1="3.60827" y1="79.924" x2="134.635" y2="79.924" gradientUnits="userSpaceOnUse">
<stop stop-color="#83A4D4"/>
<stop offset="0.9543" stop-color="#B4F7FD"/>
<stop offset="0.9994" stop-color="#B6FBFF"/>
</linearGradient>
<linearGradient id="paint31_linear_66_18452" x1="1.90375" y1="79.924" x2="136.341" y2="79.924" gradientUnits="userSpaceOnUse">
<stop stop-color="#83A4D4"/>
<stop offset="0.9543" stop-color="#B4F7FD"/>
<stop offset="0.9994" stop-color="#B6FBFF"/>
</linearGradient>
<linearGradient id="paint32_linear_66_18452" x1="0.728307" y1="79.9238" x2="137.517" y2="79.9238" gradientUnits="userSpaceOnUse">
<stop stop-color="#83A4D4"/>
<stop offset="0.9543" stop-color="#B4F7FD"/>
<stop offset="0.9994" stop-color="#B6FBFF"/>
</linearGradient>
<linearGradient id="paint33_linear_66_18452" x1="69.1885" y1="0" x2="69.1885" y2="160" gradientUnits="userSpaceOnUse">
<stop stop-color="#2F6DF2"/>
<stop offset="1" stop-color="#90FAFF"/>
</linearGradient>
</defs>
</svg>
