<svg width="48" height="50" viewBox="0 0 48 50" fill="none" xmlns="http://www.w3.org/2000/svg">
<g filter="url(#filter0_d)">
<rect width="48" height="48" rx="6" fill="white"/>
<rect x="0.75" y="0.75" width="46.5" height="46.5" rx="5.25" stroke="#D0D7DE" stroke-width="1.5"/>
</g>
<rect x="3" y="3" width="42" height="4.5" rx="2.25" fill="#CFFED9"/>
<rect x="3" y="3" width="9" height="4.5" rx="2.25" fill="#81EB9C"/>
<rect x="19.5" y="9" width="21" height="4.5" rx="2.25" fill="#AEF1BF"/>
<rect x="3" y="9" width="42" height="4.5" rx="2.25" fill="#CFFED9"/>
<rect x="19.5" y="9" width="21" height="4.5" rx="2.25" fill="#81EB9C"/>
<rect x="3" y="15" width="42" height="4.5" rx="2.25" fill="#FFEEF0"/>
<rect x="3" y="15" width="27" height="4.5" rx="2.25" fill="#FCB3BC"/>
<rect x="3" y="21" width="42" height="4.5" rx="2.25" fill="#FAFBFC"/>
<rect x="3" y="27" width="42" height="4.5" rx="2.25" fill="#FFEEF0"/>
<rect x="3" y="27" width="36" height="4.5" rx="2.25" fill="#FCB3BC"/>
<rect x="3" y="33" width="42" height="4.5" rx="2.25" fill="#CFFED9"/>
<rect x="6" y="33" width="27" height="4.5" rx="2.25" fill="#81EB9C"/>
<rect x="3" y="39" width="42" height="4.5" rx="2.25" fill="#CFFED9"/>
<rect x="30" y="39" width="6" height="4.5" rx="2.25" fill="#81EB9C"/>
<rect x="18" y="39" width="9" height="4.5" rx="2.25" fill="#81EB9C"/>
<defs>
<filter id="filter0_d" x="0" y="0" width="48" height="49.5" filterUnits="userSpaceOnUse" color-interpolation-filters="sRGB">
<feFlood flood-opacity="0" result="BackgroundImageFix"/>
<feColorMatrix in="SourceAlpha" type="matrix" values="0 0 0 0 0 0 0 0 0 0 0 0 0 0 0 0 0 0 127 0" result="hardAlpha"/>
<feOffset dy="1.5"/>
<feColorMatrix type="matrix" values="0 0 0 0 0.584314 0 0 0 0 0.615686 0 0 0 0 0.647059 0 0 0 0.1 0"/>
<feBlend mode="normal" in2="BackgroundImageFix" result="effect1_dropShadow"/>
<feBlend mode="normal" in="SourceGraphic" in2="effect1_dropShadow" result="shape"/>
</filter>
</defs>
</svg>
