<svg xmlns="http://www.w3.org/2000/svg" width="250" height="250"><path d="M0 0h250v250H0z"/><g fill="#fff" fill-rule="evenodd"><path d="M112.688 87.684h-.368c-3.144 0-5.406-2.274-5.406-5.426v-.371c0-2.473-.734-4.66-2.293-6.227-1.555-1.562-3.734-2.3-6.195-2.3H61.812c-2.46 0-4.64.738-6.195 2.3-1.558 1.567-2.293 3.754-2.293 6.227v.37c0 3.153-2.265 5.427-5.406 5.427h-.367c-2.461 0-4.64.742-6.196 2.304-1.558 1.563-2.292 3.75-2.292 6.223v57.59c0 2.472.734 4.664 2.292 6.226 1.555 1.563 3.735 2.301 6.196 2.301h.367c3.14 0 5.406 2.277 5.406 5.43v.37c0 2.474.735 4.661 2.293 6.224 1.555 1.566 3.735 2.304 6.196 2.304h36.64c2.461 0 4.64-.738 6.2-2.304 1.554-1.563 2.288-3.75 2.288-6.223v-.371c0-3.153 2.266-5.43 5.407-5.43h.367c2.46 0 4.64-.738 6.195-2.3 1.559-1.563 2.293-3.755 2.293-6.227V96.21c0-2.473-.734-4.66-2.293-6.223-1.582-1.562-3.762-2.304-6.222-2.304zM58.19 141.125v-44.57c0-2.985 2.403-5.43 5.403-5.43h29.683c3.223 0 5.149 3.64 3.336 6.309L65.52 143.398c-2.207 3.297-7.329 1.707-7.329-2.273zm45.297 12.309c0 2.984-2.402 5.43-5.402 5.43H69.28c-3.226 0-5.148-3.641-3.308-6.313l30.191-44.344c2.234-3.266 7.324-1.676 7.324 2.277zM202.422 87.684h-.367c-3.14 0-5.407-2.274-5.407-5.426v-.371c0-2.473-.734-4.66-2.293-6.227-1.554-1.562-3.734-2.3-6.195-2.3h-36.613c-2.461 0-4.64.738-6.2 2.3-1.554 1.567-2.288 3.754-2.288 6.227v.37c0 3.153-2.266 5.427-5.407 5.427h-.367c-2.46 0-4.64.742-6.195 2.304-1.555 1.563-2.293 3.75-2.293 6.223v57.59c0 2.472.738 4.664 2.293 6.226 1.555 1.563 3.734 2.301 6.195 2.301h.367c3.141 0 5.407 2.277 5.407 5.43v.37c0 2.474.734 4.661 2.289 6.224 1.558 1.566 3.738 2.304 6.199 2.304h36.64c2.461 0 4.641-.738 6.2-2.304 1.554-1.563 2.289-3.75 2.289-6.223v-.371c0-3.153 2.265-5.43 5.406-5.43h.367c2.461 0 4.64-.738 6.196-2.3 1.558-1.563 2.292-3.755 2.292-6.227V96.21c0-2.473-.734-4.66-2.292-6.223-1.583-1.562-3.762-2.304-6.223-2.304zm-54.496 53.441v-44.57c0-2.985 2.402-5.43 5.402-5.43h29.684c3.226 0 5.148 3.64 3.336 6.309l-31.094 45.964c-2.207 3.297-7.328 1.707-7.328-2.273zm39.894 17.738c3 0 5.407-2.445 5.407-5.43l-.028-42.949c0-3.953-5.094-5.543-7.332-2.273l-30.187 44.34c-1.84 2.672.082 6.312 3.308 6.312zm0 0"/></g></svg>