<svg xmlns="http://www.w3.org/2000/svg" width="250" height="250"><path fill="#ff7f00" d="M124.875 6.215C60.328 6.215 8 58.543 8 123.09c0 64.55 52.328 116.875 116.875 116.875S241.75 187.64 241.75 123.09c0-64.547-52.328-116.875-116.875-116.875zm111.75 116.91c0 15.086-2.953 29.719-8.785 43.5-5.625 13.305-13.684 25.258-23.945 35.52s-22.215 18.316-35.52 23.945c-13.781 5.828-28.414 8.785-43.5 8.785s-29.719-2.957-43.5-8.785c-13.305-5.63-25.258-13.684-35.52-23.945s-18.32-22.215-23.949-35.52c-5.828-13.781-8.781-28.414-8.781-43.5s2.953-29.719 8.781-43.5c5.63-13.309 13.688-25.258 23.95-35.52s22.214-18.32 35.519-23.949c13.781-5.828 28.414-8.781 43.5-8.781s29.719 2.953 43.5 8.781c13.305 5.63 25.258 13.688 35.52 23.95s18.32 22.21 23.945 35.519c5.832 13.781 8.785 28.414 8.785 43.5zm0 0"/><path fill="#ff7f00" d="M124.875 17.375c-58.313 0-105.75 47.438-105.75 105.75 0 58.309 47.438 105.75 105.75 105.75s105.75-47.441 105.75-105.75c0-58.313-47.438-105.75-105.75-105.75zm49.563 122.008c-2.168 7.93-65.622 65.52-70.426 63.922-4.805-1.602-28.797-88.32-26.63-96.25 2.169-7.926 65.626-65.52 70.427-63.918 4.804 1.601 28.796 88.32 26.629 96.246zm0 0"/><g fill="#fff"><path d="M147.809 43.137c-4.801-1.602-68.258 55.992-70.426 63.918-2.168 7.93 21.824 94.648 26.629 96.25 4.804 1.597 68.258-55.993 70.425-63.922 2.168-7.926-21.824-94.645-26.628-96.246zm0 0"/><path d="M168.375 20.156c-13.781-5.828-28.414-8.781-43.5-8.781s-29.719 2.953-43.5 8.781c-13.305 5.63-25.258 13.688-35.52 23.95s-18.32 22.21-23.949 35.519c-5.828 13.781-8.781 28.414-8.781 43.5s2.953 29.719 8.781 43.5c5.63 13.305 13.688 25.258 23.95 35.52S68.07 220.46 81.374 226.09c13.781 5.828 28.414 8.785 43.5 8.785s29.719-2.957 43.5-8.785c13.305-5.63 25.258-13.684 35.52-23.945s18.32-22.215 23.945-35.52c5.832-13.781 8.785-28.414 8.785-43.5s-2.953-29.719-8.785-43.5c-5.625-13.309-13.684-25.258-23.945-35.52s-22.211-18.32-35.52-23.949zm62.25 102.969c0 58.309-47.438 105.75-105.75 105.75s-105.75-47.441-105.75-105.75c0-58.313 47.438-105.75 105.75-105.75s105.75 47.438 105.75 105.75zm0 0"/></g></svg>