<svg xmlns="http://www.w3.org/2000/svg" width="250" height="250"><path fill="#ecf3ff" d="M125 248.34c69.035 0 125-53.281 125-119.008S194.035 10.324 125 10.324 0 63.605 0 129.332 55.965 248.34 125 248.34zm0 0"/><path fill="#fff" d="m91.258 56.742-43.75-16.664v5.953l37.5 32.133-2.5 33.32-11.25 45.223-15 20.23 3.75 28.563 18.75 2.383 15-2.383 15 2.383 26.25-15.473 5-24.992 31.25-28.563 13.75 9.524 13.75 19.039V205.5l18.75-4.758 18.75-39.273 5-49.985-67.5-94.015-11.25-2.38zm0 0"/><g fill="#94a6c4"><path d="M24.992 125.523c.5-4.046.75-8.093 2-11.902 3.5-15.707 10.25-30.703 20.25-42.84 1.75-2.144 3.25-4.047 5.25-5.953l-11.25-9.996c-2 2.855-4 5.711-5.75 8.57-9.25 15.23-14.25 32.368-15.5 49.27-.5 4.281-.25 8.566-.25 12.613 0 4.285.5 8.332 1.25 12.613 1.25 8.332 3.5 16.426 6.5 24.043-2-8.093-3-16.187-3.25-24.515 0-3.809 0-7.856.75-11.903zM76.242 48.414c-6.25-2.855-15-6.664-21.25-9.52 5.75-5.238 16.25-10.71 25-14.28-6.25 4.757-6.25 14.757-3.75 23.8zM50.992 88.867c-3.5 8.332-5.75 17.14-6.5 25.707-.25 2.14-.5 4.285-.25 6.426 0 2.145 0 4.285.25 6.426l.25 3.332c0 .953.25 2.144.5 3.097l1 6.426.25-6.426c0-.953 0-2.144.25-3.097l.5-3.094c.25-2.14.75-4.281 1-6.187.25-2.141 1-4.047 1.5-5.95 2.25-8.093 6-15.472 10.5-22.375 3-4.523 6.5-8.566 10.25-12.375l-9.75-8.808c-4.25 5.476-7.25 10.949-9.75 16.898zM195.754 48.164c-13.25-4.523-18.5-3.094-18.5-3.094s-8.25 21.184-39.75 22.61c.25.238 28.5 15.949 58.25-19.516zM204.754 90.293c-1.25 26.18-22.5 35.941-39 34.035-9-1.191-22.25 2.856-22.25 2.856l-16.75 27.609-5.5 1.906 9.5-16.66s-22.5 7.852-24.25 8.566c-1.75.715-8.75 10.473-14.5 20.708-1.25-7.141-6-12.137-6-12.375 0 1.19 2.5 22.609-.25 28.562-2.75 6.188-15 10.234-15 10.234l18 6.426 1.25.477 13.5-12.14 5-18.09 6.25-4.282s15.5-1.668 13.25 11.66c-1 6.43-8.5 5.953-17 10.95-5 2.855-11.5 7.378-14.75 10.472l9 6.188s10.75-1.665 26-13.09c15.5-11.899 7.75-24.754 7.75-24.754l25.25-28.801 16.5 1.191s28.5 6.903 37.75 32.61c18.5-49.27-11.25-81.88-13.75-84.258zm0 0"/></g><path fill="#1c324f" d="M233.75 69.836c4.5 1.902 8 4.75 11.25 7.367-22.5-74.262-95.5-65.93-97-65.453 1.75-2.617 8.25-6.664 14.25-8.809 0 0-31-10.472-59.25 8.094.5-4.285 6-10.71 6-10.71C70 16.28 67.5 35.32 75 46.737c-6.25-2.855-12.5-5.476-18.75-8.332C37 29.602 20.5 22.223 19.5 21.984c-1.75-.476-2.5.239-2.5.239s-.75.715.75 2.14C40.5 46.023 55 59.125 79.25 80.297c-4 8.57-4.5 12.855-2.5 17.375 2.75 6.191 2.5 9.285 1.5 13.332-1.25 4.047-11.25 39.984-13 44.031-1.75 4.285-15 18.567-15.25 23.328-.25 4.758 3.75 25.703 9.25 28.797 4.25 2.145 14.5 6.664 22 7.617 2.5.477 5 .239 6.25-.714 5-3.094 6.25-3.57 9.5-3.333l.75.239c1.25.238 2.75.715 4.75.953 4.25.476 9.75.476 14.25-2.379 6.5-4.762 17.5-10.711 21.25-13.805 4.5-4.285 7.5-10.238 7.5-16.902 0-5.95 4.25-10.711 9-15.469 4.5-4.285 15.75-14.758 20.25-19.281 11.5 3.809 15.75 19.52 15.75 28.086 0 23.805-20.25 58.555-66.75 61.172-1.75 0-3.5.238-5.5.238-60.5 0-110-50.937-110-110.68 0-47.125 29.742-79.039 29.992-79.277C14.242 65.285 0 95.531 0 129.328c0 65.695 56 119.02 125 119.02s125-53.325 125-119.02c0-21.418-5.75-42.117-16.25-59.492zM63 54.594c-3.5-2.856-7-5.715-10.5-8.57 4.75 2.382 9.5 4.761 13.75 6.902C79.25 59.352 90 65.066 92 66.492l.5.477c1.25 1.43 2.5 3.808.25 6.902-1.25 1.668-2.75 1.192-5-.238-2-1.188-12.75-9.281-24.75-19.04zm72.75 123.77c0 4.042-2 7.613-4.5 10.234-1.25 1.187-6.25 4.28-9.75 6.425-3.5 2.38-7.25 4.52-10.25 6.665-1.25.714-3.25 1.19-6.5.714L97 201.45c4.75-4.523 17.75-14.281 22-16.187 5-2.38 8-4.996 5.75-10.473-2-5.71-9.75-5.473-9.75-5.473s4.75-1.191 8.5-.714c-4.75-1.903-11.25-1.426-14.5.714-3.5 2.38-4.5 12.141-6.75 18.09-2.25 6.188-7.25 8.805-14.75 13.805-4.25 2.617-7 3.332-9 3.094-4.25-1.192-9.25-3.332-12.75-4.996-2-3.57-4.5-14.758-4.75-19.282 1-2.379 5-7.14 7-9.996 4-5.238 6.25-8.332 7.25-11.187 1.75-4.047 9-29.516 11.75-40.227 2.75 4.524 6.5 12.14 4.75 16.426 9-9.047 5-19.758 3-24.04C93 106.72 91 98.388 95 90.298c3.75-8.094 16.75-29.992 16.75-29.992s2.25 5.715 7 5.238c4.5-.477 47.75-46.652 47.75-46.652s6.75 21.422-5.75 34.511-23 14.52-23 14.52 14 4.285 28.5-2.856c3.75 12.852 7 26.18 7 27.848-1 1.664-15 24.04-16.25 25.469-.5.472-4.5.949-7 .949-4.5.715-7.25.953-8.5 1.668-2 1.188-13.5 21.898-19 31.895-5 .714-10 2.378-14 6.902 2-.953 7.75-.953 12-.953 3.75.238 14 7.379 15.25 18.566zm-29.25 9.995c2.75-2.859 3.25-8.332 3.75-9.996.5-1.668 1.5-4.761 3.75-5s7 1.192 6.5 4.762c-.5 3.332-4.25 3.57-7.25 5.234-2 1.192-6.25 4.524-6.75 5zm108.75 3.094c-3-30.469-25-44.75-34.75-49.508 11.25-1.191 40.25-9.52 24.25-51.648.5 1.902 5 22.848-7.75 33.797-13 11.187-32 6.426-34.25 6.426-2-.239-11.5 8.57-24.5 25.468-1.25-.715-6.5-2.617-13-2.379 6.5-11.664 16.25-28.324 17.75-29.754.5-.476 4.75-.953 7.25-1.19 5-.478 7.5-.95 8.5-1.903.5-.715 4-5.95 7.5-11.664 2.25.238 8.25.715 9 .476.5-.476 7.25-11.902 7.5-13.328.25-.953-4.5-18.805-7.5-30.226 61.75 27.847 71.5 89.253 40 125.433zm0 0"/><path fill="#1c324f" d="M155.75 49.832c7-5.95 6-16.184 6-16.184l-21 22.133c-.25 0 6.25 1.192 15-5.949zM77.25 175.742l3.5-9.52S70 179.313 69 181.22c-1 2.14-.5 6.187 3 6.426s8.25-4.047 8.75-7.38c.75-4.523-3.5-4.523-3.5-4.523zM110.25 118.145c7.5-.715 21-6.43 26.75-10.95 5.75-4.761 4.75-15.234-4.25-18.328 3-4.762 8-14.758 8-14.758S108.5 110.051 106 110.527c-2.5.477-3.5-8.57-3.5-8.57-7.5 17.375 5.25 21.66 7.75 16.188zm0 0"/><path fill="#ffd925" d="m112.996 113.621 16.75-20.23s7.25 4.761 2.5 10.234c-6 6.426-19.25 9.996-19.25 9.996zm0 0"/><path fill="#d82423" d="m157.516 23.414-11.5 11.902c-9.25 2.618-18.25 7.375-26.75 15.23 0-4.523 13.75-24.276 38.25-27.132zM172.016 33.648c.25-3.093 0-6.664-.5-9.996 15 1.903 32.75 10.235 53 29.04-16.75-8.81-34.5-16.903-52.5-19.044zM176.516 49.121s55.75 23.324 66 88.777c1.5-85.207-62-89.492-66-88.777zM95.266 11.512c-.75 1.906-32.25 34.039 7 46.652-21.5-18.328-7.25-46.414-7-46.652zM112.016 53.164s3.25-36.414 26.25-46.172c-1.75.473-48.5 14.043-26.25 46.172zm0 0"/></svg>