<svg xmlns="http://www.w3.org/2000/svg" width="250" height="250"><path d="M233.363 53.43h-14.48v107.804l-20.774 41.543H36.332v26.973L0 176.79V21.327l225-1.078"/><path fill="#fff" d="M6.566 176.43V29.242H50.09l6.297 18.613H27.336v43.606h29.05v18.613h-29.05v97.469m35.25-178.3h14.57v80.831H62.59V29.242zm0 0"/><path fill="none" stroke="#ffff28" stroke-miterlimit="10" stroke-width=".12625" d="m104.047 66.555 10.34-18.7h-10.34"/><path fill="#fff" d="m104.047 74.828 14.476 35.25h16.637l-14.476-37.316 8.273-24.907V29.242H87.5v80.832h16.547V47.855m74.64 0h-26.89l22.75 35.25v26.97H135.16l4.137-18.614h20.773l-24.91-35.336V29.242h37.32zm16.637 0H180.75V29.242H216l6.297 20.68h-12.5v60.152H193.25V47.855"/><path fill="#f8981d" d="m66.727 139.117-4.137 10.34H33.543v-31.11h33.184zm4.136-20.77h12.41v31.11h-12.41zm43.524 31.11v-16.543h6.297v16.543h14.476v-31.11h-33.183v31.11zm45.683-16.543h-8.273v16.543h-12.5v-31.11h33.183v31.11h-12.41zm37.32 0h-8.273v16.543h-12.5v-31.11h33.184v31.11h-12.41zm-137.14 20.86H33.812v44.328H67V175.89l-10.074-18.07m26.347 24.452H94.25l3.957 15.829H70.863v-44.329h12.41zm30.485 0v-28.5h-11.781v44.329h32.375v-44.329h-12.41v28.5zm37.77 0v-28.5h-11.876v44.329h32.473v-44.329h-12.5v28.5zm38.042-12.675 6.653-11.688v-4.137H209.8v6.477l-20.235 37.852h-12.949v-44.329h12.95v15.825zm0 0"/><path d="M237.828 31.508h-3.566V44.59h-1.555V31.508h-3.566v-1.43h8.687zM248.445 35.05l.188-2.195h-.086l-.66 2.051-2.926 6.305h-.52l-3.066-6.305-.64-2.05h-.087l.293 2.195v9.539h-1.492V30.078h1.301l3.5 7.129.52 1.703h.039l.5-1.722 3.32-7.11H250V44.59h-1.555zM104.047 72.398V48.574h7.555m-64.57 94.77v-13.578h7.554m-8.274 39.382v13.579h7.555"/></svg>