<svg xmlns="http://www.w3.org/2000/svg" width="250" height="250"><linearGradient id="a" x1="151.398" x2="97.431" y1="498.711" y2="-265.295" gradientUnits="userSpaceOnUse"><stop offset=".3" stop-color="#17936f"/><stop offset=".41" stop-color="#14a073"/><stop offset=".63" stop-color="#0bc27e"/><stop offset=".79" stop-color="#04e087"/></linearGradient><path fill="url(#a)" d="M250 125c0 69.035-55.965 125-125 125S0 194.035 0 125 55.965 0 125 0s125 55.965 125 125zm0 0"/><path fill="#fff" d="M212.027 123.383a2.612 2.612 0 0 0-2.613 2.605c0 1.938-.059 3.77-.176 5.496-.394 3.637-1.566 6.864-3.191 8.512a3.912 3.912 0 0 1-5.918-.156c-2.492-2.8-3.258-8.945-2.723-13.57a2.608 2.608 0 0 0-2.304-2.801 2.605 2.605 0 0 0-2.88 2.199 32.22 32.22 0 0 0 0 7.207c-.023.21-.046.422-.074.633-1.128 9.07-5.007 10.988-8.062 10.988a9.268 9.268 0 0 1-2.844-.543l.153-.172c2.921-3.304 4.671-7.586 4.671-11.453 0-2.48-.722-4.648-2.113-6.21-1.082-1.27-3.101-2.747-6.558-2.747a8.118 8.118 0 0 0-6.98 3.918c-2.337 3.625-2.56 9.004-.56 13.395a13.133 13.133 0 0 0 2.079 3.187 10.643 10.643 0 0 1-3.422.625c-3.664 0-8.957-4.5-12-7.75a44.282 44.282 0 0 0 8.742-9.258 2.607 2.607 0 0 0-.637-3.633 2.606 2.606 0 0 0-3.633.633 38.291 38.291 0 0 1-9.03 9.157l.019-7.649a2.609 2.609 0 0 0-2.61-2.504 2.609 2.609 0 0 0-2.61 2.504l-.042 15.293c-.047-.043.266 7.293.637 7.66l.027.024c.383.363.871.601 1.395.683a2.606 2.606 0 0 0 3.18-2.54v-7.694c2.863 3.223 9.913 10.297 16.581 10.297a16.603 16.603 0 0 0 8.133-2.114 16.067 16.067 0 0 0 7.426 2.114c4.988 0 8.832-2.73 11.137-7.696.304.461.644.899 1.007 1.313a9.117 9.117 0 0 0 6.95 3.176c.488 0 1.62-.164 2.113-.68-.422.422-.668 1.762-.945 2.352-.387.8-.743 1.617-1.145 2.41a47.718 47.718 0 0 1-2.684 4.62 43.19 43.19 0 0 1-7.011 8.212c-5.864 5.3-12.926 8.25-20.64 9.652-4.013.703-8.095.93-12.165.676a83.046 83.046 0 0 1-12.41-1.715c-8.285-1.75-16.484-4.527-24.598-7.695-4.699-1.824-9.379-3.805-14.074-5.82a139.72 139.72 0 0 0 7.16-7.114 128.424 128.424 0 0 0 9.172-10.988 101.779 101.779 0 0 0 7.844-12.258 79.445 79.445 0 0 0 5.914-13.742 58.344 58.344 0 0 0 2.781-15.399 48.072 48.072 0 0 0-.379-8.14 43.56 43.56 0 0 0-1.844-8.028 49.794 49.794 0 0 0-7.437-14.37 41.146 41.146 0 0 0-12.633-11.18 40.33 40.33 0 0 0-16.183-4.946 42.748 42.748 0 0 0-4.102-.195c-.684 0-1.356 0-2.027.023l-1 .047c-.34 0-.7.047-1.043.07-2.813.216-5.594.712-8.301 1.485a44.782 44.782 0 0 0-14.734 7.441A58.139 58.139 0 0 0 61.75 72.371a70.707 70.707 0 0 0-4.285 6.34 83.918 83.918 0 0 0-1.875 3.348c-.297.566-.59 1.148-.88 1.75l-.42.918-.224.484-.261.61a8.662 8.662 0 0 0 15.808 7.066l.407-.844.285-.594c.199-.422.425-.816.64-1.234.422-.844.922-1.653 1.418-2.461 1-1.625 2.086-3.195 3.258-4.7a41.081 41.081 0 0 1 7.754-7.757 27.934 27.934 0 0 1 9-4.559 24.255 24.255 0 0 1 4.84-.847c.21 0 .422-.036.625-.047l.668-.028c.422 0 .883-.027 1.32 0 .871 0 1.73.04 2.574.121a23.24 23.24 0 0 1 9.227 2.758 23.531 23.531 0 0 1 7.27 6.34 32.338 32.338 0 0 1 4.831 9.297 27.537 27.537 0 0 1 1.184 4.969c.25 1.722.352 3.46.305 5.199a41.262 41.262 0 0 1-1.86 10.867 62.205 62.205 0 0 1-4.527 10.836 99.83 99.83 0 0 1-14.219 20.031 122.145 122.145 0 0 1-11.445 11.13 376.385 376.385 0 0 0-6.34-2.63 121.68 121.68 0 0 0-13.437-4.613 48.765 48.765 0 0 0-7.676-1.437c-1.461-.145-2.93-.18-4.399-.106a20.97 20.97 0 0 0-4.964.844 16.742 16.742 0 0 0-5.211 2.625 16.377 16.377 0 0 0-4.032 4.394 19.788 19.788 0 0 0-2.175 4.813 27.22 27.22 0 0 0-.942 4.504 39.867 39.867 0 0 0-.297 4.152 27.527 27.527 0 0 0 .29 4.57 19.686 19.686 0 0 0 1.46 5.106 16.225 16.225 0 0 0 3.477 5.074 16.204 16.204 0 0 0 5.226 3.414 19.403 19.403 0 0 0 5.325 1.313c3.02.27 6.062.078 9.02-.575 5.402-1.144 10.038-3.101 14.44-5.292 4.31-2.192 8.462-4.68 12.422-7.446a107.38 107.38 0 0 0 3.153-2.265c6.898 2.726 13.887 5.472 21.043 7.937 8.629 2.957 17.5 5.535 26.754 7.074 4.675.801 9.406 1.227 14.144 1.27a62.24 62.24 0 0 0 14.43-1.555 46.71 46.71 0 0 0 24.875-14.906 60.671 60.671 0 0 0 7.984-11.809c1.922-3.695 3.645-7.445 4.77-11.543 1.094-3.984 1.527-8.316 1.933-12.433.114-1.074.164-2.153.153-3.23.027-.844.039-1.692.039-2.587a2.586 2.586 0 0 0-.75-1.867 2.594 2.594 0 0 0-1.856-.777zm-35.437 17.805a8.565 8.565 0 0 1-1.965-2.66c-1.266-2.75-1.168-6.29.195-8.407a2.957 2.957 0 0 1 2.594-1.523c1.2 0 2.078.316 2.617.941.676.781.82 1.953.82 2.793 0 3.707-1.816 6.742-4.261 8.856zM65.273 167.89c-1.152.21-2.32.32-3.492.32-3.383 0-4.582-3.805-4.226-6.078a8.488 8.488 0 0 1 2.113-4.543c1.555-1.567 3.832-1.235 5.777-.988a46.84 46.84 0 0 1 8.38 2.015c1.327.422 5.913 1.996 6.452 2.223-4.648 2.976-9.539 6.07-15.004 7.05zm0 0"/></svg>