<?xml version="1.0" encoding="utf-8"?>
<!-- Generator: Adobe Illustrator 27.7.0, SVG Export Plug-In . SVG Version: 6.00 Build 0)  -->
<svg version="1.1" id="Layer_1" xmlns="http://www.w3.org/2000/svg" xmlns:xlink="http://www.w3.org/1999/xlink" x="0px" y="0px"
	 viewBox="0 0 50 50" enable-background="new 0 0 50 50" xml:space="preserve">
<g>
	<linearGradient id="SVGID_1_" gradientUnits="userSpaceOnUse" x1="9.5127" y1="6.9656" x2="40.4077" y2="42.3244">
		<stop  offset="0.1136" style="stop-color:#7977E6"/>
		<stop  offset="0.2594" style="stop-color:#2FCBF5"/>
		<stop  offset="0.4239" style="stop-color:#00FFFE"/>
		<stop  offset="0.7474" style="stop-color:#AC38FF"/>
		<stop  offset="1" style="stop-color:#8F5CF0"/>
	</linearGradient>
	<path fill="url(#SVGID_1_)" d="M46.79,9.39c-0.13-0.37-0.43-0.66-0.8-0.77l-4.92-2.03L29.65,1.85L25.82,0.2
		c-0.16-0.07-0.32-0.13-0.49-0.17C25.07-0.02,24.8,0,24.54,0.09l-1.49,0.62l-2.56,1.08l-16,6.63c0,0-1.39,0.59-1.39,1.08v30.23
		c0,0-0.05,0.67,1.06,1.05l9.36,4.2l10.74,4.83c0.38,0.2,0.83,0.24,1.24,0.12l1.73-0.75l3.99-1.82l13.94-6.29l1.09-0.49
		c0,0,0.64-0.34,0.64-0.68V10.39C46.9,10.05,46.87,9.72,46.79,9.39z M5.25,11.7c0-0.02,0-0.04,0.01-0.06
		c0.03-0.08,0.12-0.11,0.19-0.08l3.12,1.4c-0.29,0.04-0.59,0.11-0.9,0.21c-0.9,0.29-1.72,0.74-2.43,1.33V11.7z M23.8,47.19
		c0,0.02,0,0.04-0.01,0.06c-0.03,0.08-0.12,0.11-0.2,0.08L5.33,39.19c-0.05-0.02-0.08-0.08-0.08-0.13V19.88
		c0-2.57,1.84-4.66,4.12-4.66c2.27,0,4.12,2.09,4.12,4.66v16.05c0,0-0.2,4.35,3.55,6.17c0,0,3.96,1.86,6.78-0.84L23.8,47.19z
		 M23.83,37.11c-0.23,1.12-0.96,2.86-3.23,3.43c0,0-2.77,0.88-4.49-2.34c0,0-0.5-0.79-0.5-2.65V19.67c0,0,0.11-2.36-1.24-4.11
		l9.43,4.23c0.05,0.03,0.09,0.08,0.09,0.13L23.83,37.11z M23.94,15.94v1.39L7,9.73C6.95,9.71,6.93,9.65,6.95,9.59
		c0.01-0.03,0.03-0.04,0.05-0.05c2.01-0.83,17.2-7.07,17.93-7.37c0.02-0.01,0.04-0.01,0.06,0l17.97,7.38
		c0.04,0.02,0.06,0.07,0.05,0.11C43,9.67,42.98,9.69,42.96,9.7l-7.19,3.25c-0.51-1.01-1.4-2.19-2.91-2.97
		c-2.01-1-4.41-0.79-6.21,0.55C26.65,10.53,23.94,12.47,23.94,15.94z M26,15.47c0,0,0.59-4.39,4.93-3.94c0,0,1.66,0.14,2.84,2.13
		c0,0,0.05,0.05,0.11,0.14L26,17.35V15.47z M44.65,38.87c0,0.06-0.04,0.11-0.09,0.13l-18.26,8.14c-0.08,0.03-0.16,0-0.19-0.08
		c-0.01-0.02-0.02-0.04-0.02-0.06l-0.08-27.26c0-0.06,0.03-0.11,0.09-0.13l8.28-3.72v8.73c0,0-0.19,3.99,2.71,5.77
		c0,0,4.4,2.72,7.56-0.61V38.87z M44.65,25.43l-0.01,0.42c0,0-0.6,3.46-4.13,3.56c0,0-2.71,0.2-3.85-3.29
		c-0.14-0.49-0.2-1-0.18-1.51l-0.01-9.65l7.98-3.58c0.08-0.03,0.16,0,0.19,0.07c0.01,0.02,0.02,0.04,0.02,0.06V25.43z"/>
</g>
<linearGradient id="SVGID_00000134957063270380135250000016582375309276633273_" gradientUnits="userSpaceOnUse" x1="22.2979" y1="71.0317" x2="50.7846" y2="92.3132">
	<stop  offset="0" style="stop-color:#7978E6"/>
	<stop  offset="0.4234" style="stop-color:#05D1FE"/>
	<stop  offset="0.7474" style="stop-color:#AC38FF"/>
	<stop  offset="1" style="stop-color:#8F5CF0"/>
</linearGradient>
<rect x="15.93" y="61.31" fill="url(#SVGID_00000134957063270380135250000016582375309276633273_)" width="35.56" height="36.5"/>
</svg>
