<svg xmlns="http://www.w3.org/2000/svg" xmlns:xlink="http://www.w3.org/1999/xlink" width="250" height="250"><linearGradient id="a"><stop offset="0" stop-color="#b6509e"/><stop offset="1" stop-color="#2ebac6"/></linearGradient><linearGradient xlink:href="#a" id="b" x1="210.75" x2="51.5" y1="33.75" y2="221.5" gradientUnits="userSpaceOnUse"/><linearGradient xlink:href="#a" id="c" x1="202.902" x2="60.496" y1="72.746" y2="192.566" gradientUnits="userSpaceOnUse"/><path fill="#fff" d="M250 125c0 69.035-55.965 125-125 125S0 194.035 0 125 55.965 0 125 0s125 55.965 125 125zm0 0"/><path fill="url(#b)" d="M125 250c-8.46.004-16.902-.848-25.195-2.54a124.377 124.377 0 0 1-44.7-18.808A125.37 125.37 0 0 1 9.82 173.656a124.484 124.484 0 0 1-7.28-23.46 126.19 126.19 0 0 1 0-50.383 124.279 124.279 0 0 1 18.808-44.7A125.378 125.378 0 0 1 76.344 9.824a124.211 124.211 0 0 1 23.46-7.285 126.19 126.19 0 0 1 50.383 0 124.279 124.279 0 0 1 44.7 18.809 125.378 125.378 0 0 1 45.289 54.996 124.496 124.496 0 0 1 7.285 23.46 126.19 126.19 0 0 1 0 50.383 124.25 124.25 0 0 1-18.809 44.7 125.37 125.37 0 0 1-54.996 45.285 124.223 124.223 0 0 1-23.46 7.289A125.788 125.788 0 0 1 125 250zm0-236.61c-7.555 0-15.09.758-22.492 2.27a110.94 110.94 0 0 0-39.91 16.793 111.936 111.936 0 0 0-40.43 49.106 111.036 111.036 0 0 0-6.504 20.949 112.684 112.684 0 0 0 0 44.984 110.998 110.998 0 0 0 16.797 39.906 111.927 111.927 0 0 0 49.105 40.438 111.036 111.036 0 0 0 20.95 6.504 112.684 112.684 0 0 0 44.984 0 111.016 111.016 0 0 0 39.91-16.797 111.957 111.957 0 0 0 40.422-49.102 111.036 111.036 0 0 0 6.504-20.949 112.684 112.684 0 0 0 0-44.984 110.998 110.998 0 0 0-16.797-39.906 111.946 111.946 0 0 0-49.098-40.434 111.036 111.036 0 0 0-20.949-6.504A112.407 112.407 0 0 0 125 13.391zm0 0"/><path fill="url(#c)" d="M220.703 125c0 52.855-42.848 95.703-95.703 95.703S29.297 177.855 29.297 125 72.145 29.297 125 29.297 220.703 72.145 220.703 125zm0 0"/><path fill="#fff" d="m166.879 163.129-32.367-78.23c-1.832-4.044-4.535-6.024-8.114-6.024h-2.863c-3.578 0-6.285 1.98-8.113 6.023l-14.078 34.082H90.688a5.827 5.827 0 0 0-5.805 5.786v.082a5.824 5.824 0 0 0 5.805 5.785h5.726l-13.441 32.496a6.913 6.913 0 0 0-.399 2.219 6.105 6.105 0 0 0 1.594 4.359 5.588 5.588 0 0 0 4.297 1.66 5.81 5.81 0 0 0 3.34-1.11 7.09 7.09 0 0 0 2.304-2.929l14.793-36.695h10.258a5.827 5.827 0 0 0 5.805-5.785v-.16a5.827 5.827 0 0 0-5.805-5.786h-5.488l11.293-28.136 30.781 76.562a7.09 7.09 0 0 0 2.305 2.93 5.87 5.87 0 0 0 3.344 1.11 5.6 5.6 0 0 0 4.296-1.661 6.125 6.125 0 0 0 1.59-4.36 5.255 5.255 0 0 0-.402-2.218zm0 0"/></svg>