<svg xmlns="http://www.w3.org/2000/svg" width="250" height="250"><linearGradient id="a" x1="223.697" x2="43.278" y1="58.797" y2="210.602" gradientUnits="userSpaceOnUse"><stop offset="0" stop-color="#b6509e"/><stop offset="1" stop-color="#2ebac6"/></linearGradient><path fill="url(#a)" d="M246.25 125c0 66.965-54.285 121.25-121.25 121.25S3.75 191.965 3.75 125 58.035 3.75 125 3.75 246.25 58.035 246.25 125zm0 0"/><path fill="#fff" d="m178.059 173.305-41.012-99.11c-2.317-5.12-5.742-7.632-10.277-7.632h-3.625c-4.536 0-7.961 2.511-10.282 7.632l-17.832 43.18H81.527a7.386 7.386 0 0 0-7.355 7.332v.098a7.386 7.386 0 0 0 7.355 7.332h7.254l-17.027 41.168a8.761 8.761 0 0 0-.504 2.812c0 2.313.707 4.117 2.016 5.524s3.125 2.109 5.441 2.109c1.52-.02 3-.512 4.23-1.406 1.31-.903 2.22-2.211 2.922-3.715l18.743-46.492h13a7.388 7.388 0 0 0 7.355-7.332v-.203a7.387 7.387 0 0 0-7.355-7.329h-6.954l14.309-35.648 38.996 97.004c.703 1.508 1.61 2.812 2.922 3.715a7.352 7.352 0 0 0 4.23 1.406c2.317 0 4.133-.703 5.442-2.11s2.016-3.21 2.016-5.523a6.618 6.618 0 0 0-.504-2.812zm0 0"/></svg>