<svg xmlns="http://www.w3.org/2000/svg" width="250" height="250"><linearGradient id="a" x1="210.75" x2="51.5" y1="33.75" y2="221.5" gradientUnits="userSpaceOnUse"><stop offset="0" stop-color="#b6509e"/><stop offset="1" stop-color="#2ebac6"/></linearGradient><linearGradient id="b" x1="125" x2="125" y1="248.239" y2="8.864" gradientUnits="userSpaceOnUse"><stop offset="0" stop-color="#f9a606"/><stop offset="1" stop-color="#fbcc5f"/></linearGradient><path fill="#fff" d="M250 125c0 69.035-55.965 125-125 125S0 194.035 0 125 55.965 0 125 0s125 55.965 125 125zm0 0"/><path fill="url(#a)" d="M125 250c-8.46.004-16.902-.848-25.195-2.54a124.377 124.377 0 0 1-44.7-18.808A125.37 125.37 0 0 1 9.82 173.656a124.484 124.484 0 0 1-7.28-23.46 126.19 126.19 0 0 1 0-50.383 124.279 124.279 0 0 1 18.808-44.7A125.378 125.378 0 0 1 76.344 9.824a124.211 124.211 0 0 1 23.46-7.285 126.19 126.19 0 0 1 50.383 0 124.279 124.279 0 0 1 44.7 18.809 125.378 125.378 0 0 1 45.289 54.996 124.496 124.496 0 0 1 7.285 23.46 126.19 126.19 0 0 1 0 50.383 124.25 124.25 0 0 1-18.809 44.7 125.37 125.37 0 0 1-54.996 45.285 124.223 124.223 0 0 1-23.46 7.289A125.788 125.788 0 0 1 125 250zm0-236.61c-7.555 0-15.09.758-22.492 2.27a110.94 110.94 0 0 0-39.91 16.793 111.936 111.936 0 0 0-40.43 49.106 111.036 111.036 0 0 0-6.504 20.949 112.684 112.684 0 0 0 0 44.984 110.998 110.998 0 0 0 16.797 39.906 111.927 111.927 0 0 0 49.105 40.438 111.036 111.036 0 0 0 20.95 6.504 112.684 112.684 0 0 0 44.984 0 111.016 111.016 0 0 0 39.91-16.797 111.957 111.957 0 0 0 40.422-49.102 111.036 111.036 0 0 0 6.504-20.949 112.684 112.684 0 0 0 0-44.984 110.998 110.998 0 0 0-16.797-39.906 111.946 111.946 0 0 0-49.098-40.434 111.036 111.036 0 0 0-20.949-6.504A112.407 112.407 0 0 0 125 13.391zm0 0"/><path fill="url(#b)" d="M220.98 125c0 53.008-42.972 95.98-95.98 95.98-53.012 0-95.98-42.972-95.98-95.98 0-53.012 42.968-95.98 95.98-95.98 53.008 0 95.98 42.968 95.98 95.98zm0 0"/><path fill="#fff" d="M181.918 109.164h-11.39c-6.27-17.406-23.133-29.34-45.368-29.34H88.59v29.34h-12.7v10.524h12.7v11.035h-12.7v10.527h12.7v28.984h36.57c21.98 0 38.711-11.836 45.145-28.984h11.613v-10.523h-9.055c.23-1.891.348-3.793.352-5.696v-.258c0-1.726-.098-3.421-.258-5.085h8.992v-10.524zM98.828 89.2h26.332c16.317 0 28.442 8.031 34.043 19.934H98.828zm26.332 71.57H98.828v-19.55h60.309c-5.63 11.71-17.719 19.55-33.977 19.55zm37.465-35.515c.004 1.82-.125 3.64-.383 5.441H98.828V119.66h63.445c.23 1.774.348 3.555.352 5.344zm0 0"/></svg>