<svg xmlns="http://www.w3.org/2000/svg" width="250" height="250"><linearGradient id="b" x1="210.75" x2="51.5" y1="33.75" y2="221.5" gradientUnits="userSpaceOnUse"><stop offset="0" stop-color="#b6509e"/><stop offset="1" stop-color="#2ebac6"/></linearGradient><radialGradient id="c" cx="70.858" cy="64.223" r="99.185" gradientUnits="userSpaceOnUse"><stop offset="0" stop-color="#7ff"/><stop offset=".394" stop-color="#87e4ff"/><stop offset=".861" stop-color="#6273ff"/><stop offset="1" stop-color="#9468ff"/></radialGradient><clipPath id="d"><path d="M54 95h154v120H54zm0 0"/></clipPath><clipPath id="e"><path d="M214.113 118.414c3.637 49.219-33.312 92.063-82.531 95.7s-92.062-33.313-95.7-82.528c-3.636-49.219 33.313-92.066 82.532-95.703 49.215-3.637 92.063 33.316 95.7 82.531zm0 0"/></clipPath><radialGradient id="f" cx=".502" cy=".478" r=".554" gradientTransform="matrix(125.09905 -13.34358 15.42736 144.76523 59.59 91.483)" gradientUnits="userSpaceOnUse"><stop offset=".497" stop-color="#0ff"/><stop offset="1" stop-color="#00f4ff" stop-opacity="0"/></radialGradient><linearGradient id="g" x1=".636" x2=".997" y1=".506" y2=".764" gradientTransform="matrix(134.4336 0 0 123.01953 53.918 65.32)" gradientUnits="userSpaceOnUse"><stop offset="0" stop-color="#5a27ed"/><stop offset="1" stop-color="#ab37f4"/></linearGradient><linearGradient id="h" x1=".039" x2=".877" y1=".245" y2=".957" gradientTransform="matrix(112.95703 0 0 33.57813 66.086 151.227)" gradientUnits="userSpaceOnUse"><stop offset="0" stop-color="#7618f4"/><stop offset=".504" stop-color="#575ff8"/><stop offset="1" stop-color="#09ffff"/></linearGradient><linearGradient id="i" x1=".17" x2=".918" y1=".498" y2=".744" gradientTransform="matrix(105.71094 0 0 32.5 78.336 75.91)" gradientUnits="userSpaceOnUse"><stop offset="0" stop-color="#7f4cff"/><stop offset="1" stop-color="#3095ff"/></linearGradient><linearGradient id="j" x1=".14" x2=".791" y1=".056" y2="1.241" gradientTransform="matrix(105.80078 0 0 32.5 78.895 116.29)" gradientUnits="userSpaceOnUse"><stop offset="0" stop-color="#7f52ff"/><stop offset="1" stop-color="#3096ff"/></linearGradient><linearGradient id="k" x1=".81" x2=".575" y1=".81" y2=".511" gradientTransform="matrix(130.52734 0 0 102.69531 55.523 66.59)" gradientUnits="userSpaceOnUse"><stop offset="0" stop-color="#fff"/><stop offset=".157" stop-color="#fbffff"/><stop offset=".319" stop-color="#efffff"/><stop offset=".483" stop-color="#daffff"/><stop offset=".648" stop-color="#bdfffe"/><stop offset=".814" stop-color="#98fffe"/><stop offset=".979" stop-color="#6bfffd"/><stop offset="1" stop-color="#65fffd"/></linearGradient><linearGradient id="l" x1=".126" x2=".692" y1=".992" y2="-.06" gradientTransform="matrix(119.0586 0 0 110.92578 50.945 45.992)" gradientUnits="userSpaceOnUse"><stop offset="0" stop-color="#fff" stop-opacity="0"/><stop offset=".515" stop-color="#e6ffff"/><stop offset="1" stop-color="#ceffff" stop-opacity=".502"/></linearGradient><filter id="a" width="100%" height="100%" x="0%" y="0%"><feColorMatrix in="SourceGraphic" values="0 0 0 0 1 0 0 0 0 1 0 0 0 0 1 0 0 0 1 0"/></filter><mask id="n"><g filter="url(#a)"><path fill-opacity=".4" d="M0 0h250v250H0z"/></g></mask><linearGradient id="o" x1="0" x2="1" y1=".5" y2=".5" gradientTransform="matrix(139.22656 0 0 114.25781 35.645 35.598)" gradientUnits="userSpaceOnUse"><stop offset="0" stop-color="#fff"/><stop offset=".867" stop-color="#fff" stop-opacity=".306"/><stop offset="1" stop-color="#fff" stop-opacity=".2"/></linearGradient><clipPath id="m"><path d="M0 0h250v250H0z"/></clipPath><path fill="#fff" d="M250 125c0 69.035-55.965 125-125 125S0 194.035 0 125 55.965 0 125 0s125 55.965 125 125zm0 0"/><path fill="url(#b)" d="M125 250c-8.46.004-16.902-.848-25.195-2.54a124.377 124.377 0 0 1-44.7-18.808A125.37 125.37 0 0 1 9.82 173.656a124.484 124.484 0 0 1-7.28-23.46 126.19 126.19 0 0 1 0-50.383 124.279 124.279 0 0 1 18.808-44.7A125.378 125.378 0 0 1 76.344 9.824a124.211 124.211 0 0 1 23.46-7.285 126.19 126.19 0 0 1 50.383 0 124.279 124.279 0 0 1 44.7 18.809 125.378 125.378 0 0 1 45.289 54.996 124.496 124.496 0 0 1 7.285 23.46 126.19 126.19 0 0 1 0 50.383 124.25 124.25 0 0 1-18.809 44.7 125.37 125.37 0 0 1-54.996 45.285 124.223 124.223 0 0 1-23.46 7.289A125.788 125.788 0 0 1 125 250zm0-236.61c-7.555 0-15.09.758-22.492 2.27a110.94 110.94 0 0 0-39.91 16.793 111.936 111.936 0 0 0-40.43 49.106 111.036 111.036 0 0 0-6.504 20.949 112.684 112.684 0 0 0 0 44.984 110.998 110.998 0 0 0 16.797 39.906 111.927 111.927 0 0 0 49.105 40.438 111.036 111.036 0 0 0 20.95 6.504 112.684 112.684 0 0 0 44.984 0 111.016 111.016 0 0 0 39.91-16.797 111.957 111.957 0 0 0 40.422-49.102 111.036 111.036 0 0 0 6.504-20.949 112.684 112.684 0 0 0 0-44.984 110.998 110.998 0 0 0-16.797-39.906 111.946 111.946 0 0 0-49.098-40.434 111.036 111.036 0 0 0-20.949-6.504A112.407 112.407 0 0 0 125 13.391zm0 0"/><path fill="url(#c)" d="M214.363 124.984c0 49.348-40.008 89.356-89.355 89.356-49.352 0-89.356-40.008-89.356-89.356 0-49.351 40.004-89.355 89.356-89.355 49.347 0 89.355 40.004 89.355 89.355zm0 0"/><g clip-path="url(#d)"><g clip-path="url(#e)"><path fill="url(#f)" d="M183.637 96.965c12.308 11.953 21.683 26.887 23.582 44.765 4.18 39.356-26.434 74.872-68.375 79.329-41.946 4.453-79.336-23.84-83.516-63.2-4.18-39.355 19.54-36.687 61.48-41.144 22.883-2.426 59.372-26.985 66.829-19.75zm0 0"/></g></g><path fill="url(#g)" d="m187.91 104.652-.09-1.152h-14.632l14.73-12.594-.023-.605a48.692 48.692 0 0 0-7.512-24.309l-.352-.672H101c-7.465 0-21.969 2.313-32.617 14.22-4.645 5.187-14.59 20.772-14.465 38.253.074 9.84 1.031 17.488 4.742 26.043a79.437 79.437 0 0 0 6.29 11.816c7.5 13.453 15.675 22.82 24.296 27.844a35.83 35.83 0 0 0 19.137 4.824h44.793l.265-.148c.149-.074 14.801-7.734 28.04-15.777l.382-.23.149-.415c.043-.129.097-.25.136-.367.114-.258.211-.52.293-.781 1.63-4.668 2.989-14.704 3.649-20.254.265-2.024.418-3.356.418-3.368l.168-1.39h-.055l.113-1.121h-15.632l16.761-12.696.051-.558c.582-8.844.582-17.719-.004-26.563zm0 0"/><path fill="#fff" d="M122.105 159.57s-14.68 1.414-57.957-9.882c17.66 34.44 34.196 36.316 46.5 36.316h41.997s13.953-7.563 27.187-15.602zm0 0"/><path fill="url(#h)" d="M110.652 184.797c-5.304 0-12.75.047-20.136-4.77-12.848-8.37-17.09-14.976-24.43-28.8 32.992 8.468 48.82 9.41 54.152 9.41.969 0 1.563-.035 1.825-.055l56.98 9.238c-11.676 6.977-25.453 14.153-27.04 14.985h-41.35zm0 0"/><path fill="#fff" d="M94.336 146.117s-7.094-8.222-9.57-14.469l80.273 14.47 20.574-15.579c-.023-12.777-.078-25-.078-25H84.77s3.562-10.207 9.976-14.266l73.5 13.727 17.34-14.836c-.7-13.953-7.379-22.46-7.379-22.46h-77.566c-6.77 0-20.606 1.491-31.032 13.148-10.43 11.656-19.707 37.625-9.718 61.824 10.148 24.574 23.32 27.734 30.761 27.734h89.18c.121-.36.293-.695.418-1.113 2.148-7.258 3.984-23.168 3.984-23.168H94.336zm0 0"/><path fill="url(#i)" d="M115.785 75.91s-28.969 5.649-30.383 6.356c-1.41.71-7.066 26.144-7.066 26.144h84.14l21.57-18.25zm0 0"/><path fill="url(#j)" d="M116.336 116.29s-28.969 5.651-30.375 6.358c-1.41.711-7.066 26.141-7.066 26.141h81.03l24.77-18.703zm0 0"/><path fill="url(#k)" d="M185.61 130.54H84.847c2.472 6.25 9.57 14.472 9.57 14.472h89.906s-1.77 17.738-4.062 24.273H93.387c-11.075 0-22.985-3.71-33.399-27.726-10.418-24.016-.707-50.168 9.715-61.825C80.121 68.078 93.961 66.59 100.727 66.59h77.57a46.488 46.488 0 0 1 7.3 23.57H94.825c-6.418 4.063-9.98 14.266-9.98 14.266h100.761c.594 8.695.594 17.418.004 26.113zm0 0"/><path fill="url(#l)" d="M170.004 60.738s-35.047-13.906-66.68 3.985c-27.722 15.683-59.172 40.75-35.816 92.195-21.098-30.11-21.324-54.57-4.754-80.203 15.664-24.227 61.766-46.317 107.25-15.977zm0 0"/><g clip-path="url(#m)" mask="url(#n)"><path fill="url(#o)" d="M124.926 35.598A89.774 89.774 0 0 0 53.66 71.434a89.787 89.787 0 0 0-14.617 78.421s-.04-.863-.09-2.433c-.285-9.34.922-43.707 18.457-40.715 17.54 2.996 43.215 8.191 73.598-.187 30.383-8.375 54.59-36.782 38.988-58.72.008-.003-18.266-12.202-45.07-12.202zm0 0"/></g><path fill="#fff" d="M110.34 67.07c2.176 5.54-5.254 12.172-14.563 14.203-9.304 2.028-18.687-1.015-20.332-6.734-2.61-9.074 6.446-12.305 15.75-14.328 9.301-2.023 14.774-4.285 19.145 6.86zm0 0"/></svg>