<svg xmlns="http://www.w3.org/2000/svg" width="250" height="250"><linearGradient id="a" x1="403.202" x2="403.202" y1="391.184" y2="292.934" gradientTransform="matrix(1.39365 0 0 1.2859 -452.935 -253.65)" gradientUnits="userSpaceOnUse"><stop offset="0" stop-color="#878787"/><stop offset=".998" stop-color="#3b3b3b"/></linearGradient><linearGradient id="b" x1="414.3" x2="414.3" y1="386.184" y2="226.181" gradientTransform="matrix(1.39365 0 0 1.2859 -452.935 -253.65)" gradientUnits="userSpaceOnUse"><stop offset="0" stop-color="#bebebe"/><stop offset=".998" stop-color="#3b3b3b"/></linearGradient><path fill="#f73aa9" d="M157.621 34.902c18.258 0 32.75 9.133 38.047 14.532 6.828 6.687 17.559 19.289 12.82 43.464-2.09 10.286-9.613 19.16-17.418 25.59l27.035 24.946c13.797-11.446 27.036-28.29 30.383-47.32 2.23-12.731 4.875-33.434-15.191-60.954C220.613 17.672 195.25 6.613 184.52 3.656c-22.72-6.172-48.918-1.672-53.38-.386-18.117 4.886-31.632 12.347-41.667 21.605l28.43 26.23c7.945-9 20.347-15.816 39.718-16.203zm0 0"/><path fill="url(#a)" d="m218.105 143.434-27.035-24.946c-3.765 3.086-7.527 5.657-10.87 7.586-9.895 5.656-24.528 11.059-45.575 18.645l-37.07 13.117-7.387 2.57c-20.348 6.946-54.352 18.645-72.328 40.633C3.066 219.043.418 240.391 0 248.617v.903h39.86l.136-.774c.559-6.172 2.649-18 10.316-27.387 11.149-13.632 39.438-23.277 54.63-28.547l12.542-4.246 37.07-13.242c20.208-7.46 34.426-14.015 45.434-19.547 5.715-3.214 12.125-7.328 18.117-12.343zm0 0"/><path fill="url(#b)" d="M165.984 194.098c-3.066-5.145-7.109-11.575-11.847-18.903l-19.512-30.605c-2.648-4.371-23.828-29.317-27.73-55.164-1.395-9.258.277-25.848 11.148-38.45l-28.43-26.23C69.125 43.648 63.97 69.621 66.617 93.027c3.762 33.559 29.125 61.852 30.938 64.68l19.652 30.602c5.434 8.617 10.313 16.203 13.797 21.992 10.73 17.87 12.262 31.633 12.262 38.187v.903h39.718v-.903c0-11.957-2.925-31.117-17-54.39zm0 0"/></svg>