<svg xmlns="http://www.w3.org/2000/svg" width="250" height="250"><g fill="#de3f6b"><path d="M54 0h10.273c16.051 3.352 30.903 20.531 41.903 45.266C129 96.223 141.55 168.136 170.602 206.063c21 27.449 50.375 5 60.699-41.329 5.25-.214 10.523-.214 15.773-.16-7.222 47.074-28.273 80.906-51.3 85.426H187.3c-14.176-2.5-27.95-14.098-38.676-34.148-15.574-28.086-25.574-66.598-37.676-100.907C100.551 84.63 89.926 50.531 72.7 36.754c-21.273-16.965-47.273 9.574-55.023 54.684-6.824 37.124-1.278 83.19 13.972 106.964C43.074 217.234 59 224.254 72.727 213.297c15.25-11.7 26.574-38.297 35.25-66.488 3.421 10.425 6.75 21.011 10.046 31.648-13.5 36.172-32.222 67.234-54.5 71.543h-9.125C26.324 245.852 1.926 195.105 0 135.16v-19.629C1.824 55.691 25.898 4.363 54 0"/><path d="M186.727 0h8.523c28.324 3.938 52.426 55.691 54.75 115.637v30.746c-23.375.48-46.773.16-70.148.215.023-8.993.023-17.926 0-26.918 18.472-.106 36.921.16 55.375-.106-1.301-15.902-3-32.18-7.426-45.636-10.801-35.11-33.625-49.47-51.875-34.258-14.551 11.492-25.5 36.648-33.95 63.511-3.25-9.945-6.476-20-9.601-30.16C145.699 36.328 164.301 4.574 186.727 0"/></g></svg>