<svg xmlns="http://www.w3.org/2000/svg" width="250" height="250"><linearGradient id="a" x1="210.748" x2="51.499" y1="33.751" y2="221.501" gradientUnits="userSpaceOnUse"><stop offset="0" stop-color="#b6509e"/><stop offset="1" stop-color="#2ebac6"/></linearGradient><path fill="url(#a)" d="M124.996 249.988c-8.46 0-16.902-.851-25.195-2.539a124.337 124.337 0 0 1-44.696-18.812 125.346 125.346 0 0 1-45.289-54.992 124.396 124.396 0 0 1-7.28-23.461 126.334 126.334 0 0 1 0-50.383 124.398 124.398 0 0 1 18.808-44.696A125.387 125.387 0 0 1 76.34 9.813 124.287 124.287 0 0 1 99.8 2.53a126.19 126.19 0 0 1 50.384 0 124.34 124.34 0 0 1 44.699 18.805 125.358 125.358 0 0 1 45.285 55c3.2 7.559 5.64 15.418 7.289 23.457a126.19 126.19 0 0 1 0 50.383 124.388 124.388 0 0 1-18.809 44.699 125.378 125.378 0 0 1-54.996 45.29 124.584 124.584 0 0 1-23.46 7.284 125.788 125.788 0 0 1-25.196 2.54zm0-236.61c-7.555 0-15.09.759-22.492 2.27a110.94 110.94 0 0 0-39.91 16.793 111.936 111.936 0 0 0-40.43 49.106 110.947 110.947 0 0 0-6.504 20.95 112.684 112.684 0 0 0 0 44.983 111.027 111.027 0 0 0 16.797 39.907 111.97 111.97 0 0 0 49.102 40.437 111.112 111.112 0 0 0 20.949 6.5 112.704 112.704 0 0 0 44.988 0 110.89 110.89 0 0 0 39.906-16.797 111.946 111.946 0 0 0 40.422-49.097 111.41 111.41 0 0 0 6.504-20.95 112.846 112.846 0 0 0 0-44.988 111.027 111.027 0 0 0-16.797-39.906 111.937 111.937 0 0 0-49.097-40.43 111.321 111.321 0 0 0-20.95-6.504 112.69 112.69 0 0 0-22.492-2.27zm0 0"/><path fill="#26ddf9" d="M151.254 39.57c-30.168.172-55.445 22.871-58.84 52.848-31.148 3.504-54.164 30.691-52.48 61.992 1.687 31.3 27.484 55.86 58.828 56 30.164-.176 55.43-22.875 58.828-52.844 31.144-3.507 54.16-30.687 52.476-61.984-1.68-31.3-27.468-55.86-58.812-56.012zm45.316 65.86c-3.023 19.949-18.675 35.613-38.625 38.652V105.43zM53.434 144.55c3.023-19.948 18.675-35.613 38.62-38.648v38.621zm90.66 13.384c-3.25 22.527-22.555 39.25-45.317 39.25-22.761 0-42.066-16.723-45.316-39.25zm.5-52.504v39.12H105.44v-39.12zm51.976-13.383h-90.66c3.297-22.492 22.586-39.16 45.317-39.16 22.73 0 42.02 16.668 45.316 39.16zm0 0"/></svg>