<svg id="Capa_1" xmlns="http://www.w3.org/2000/svg" xmlns:xlink="http://www.w3.org/1999/xlink" viewBox="0 0 1323.5 1323.5" width="2500" height="2500"><style>.st0{fill-rule:evenodd;clip-rule:evenodd;fill:#fff}.st1{clip-path:url(#SVGID_2_)}.st2,.st3,.st4,.st5,.st6{fill-rule:evenodd;clip-rule:evenodd}.st2{opacity:.25;fill:#00a5a8}.st3,.st4,.st5,.st6{fill:url(#SVGID_3_)}.st4,.st5,.st6{fill:#00a5a8}.st5,.st6{opacity:.6;fill:url(#SVGID_4_)}.st6{fill:#fff}.st10,.st11,.st12,.st13,.st7,.st8,.st9{opacity:.8;fill-rule:evenodd;clip-rule:evenodd;fill:url(#SVGID_5_)}.st10,.st11,.st12,.st13,.st8,.st9{fill:#fff}.st10,.st11,.st12,.st13,.st9{fill:url(#SVGID_6_)}.st10,.st11,.st12,.st13{opacity:.7;fill:url(#SVGID_7_)}.st11,.st12,.st13{fill:#fff}.st12,.st13{fill:url(#SVGID_8_)}.st13{opacity:.9;fill:url(#SVGID_9_)}.st14{opacity:.9;fill:#fff}.st14,.st15,.st16{fill-rule:evenodd;clip-rule:evenodd}.st15{opacity:.9;fill:url(#SVGID_10_)}.st16{fill:url(#SVGID_11_)}.st17{fill:#00a5a8}</style><circle class="st0" cx="661.8" cy="661.8" r="611.1"/><defs><circle id="SVGID_1_" cx="661.8" cy="661.8" r="537.5"/></defs><clipPath id="SVGID_2_"><use xlink:href="#SVGID_1_" overflow="visible"/></clipPath><g class="st1"><path class="st2" d="M1158.8 1266V704.4L998.3 543.9c-2.7 2.4-6.2 3.8-10.1 3.8-4.2 0-8-1.7-10.8-4.5-2.8-2.8-4.5-6.6-4.5-10.8 0-3.9 1.4-7.4 3.8-10.1l-17-17H881l-7.5-7.5c-2.2 2-5.2 3.2-8.4 3.2-3.5 0-6.6-1.4-8.9-3.7-2.3-2.3-3.7-5.4-3.7-8.9s1.4-6.6 3.7-8.9c2.3-2.3 5.4-3.7 8.9-3.7s6.6 1.4 8.9 3.7c2.3 2.3 3.7 5.4 3.7 8.9 0 3-1 5.7-2.8 7.9l6.9 6.9h78.7l17.6 17.6c2.7-2.3 6.2-3.8 10-3.8 4.2 0 8 1.7 10.8 4.5 2.8 2.8 4.5 6.6 4.5 10.8 0 3.8-1.4 7.4-3.8 10l161.1 161.1V1266h-1.9zM932.6 418.4c0 5.6-2.1 10.7-5.7 14.6l20.4 20.4h35.9c.3-3.8 1.9-7.2 4.4-9.8 2.8-2.8 6.6-4.5 10.8-4.5 4.2 0 8 1.7 10.8 4.5 2.8 2.8 4.5 6.6 4.5 10.8 0 4.2-1.7 8-4.5 10.8-2.8 2.8-6.6 4.5-10.8 4.5-4.2 0-8-1.7-10.8-4.5-2.5-2.5-4.2-6-4.4-9.8h-36.7l-21-21c-3.8 3.5-8.9 5.6-14.5 5.6-6 0-11.4-2.4-15.3-6.3-3.9-3.9-6.3-9.3-6.3-15.3 0-5.6 2.1-10.7 5.6-14.5l-15.1-15.1c-2.7 2.3-6.2 3.8-10.1 3.8-4.2 0-8-1.7-10.8-4.5-2.8-2.8-4.5-6.6-4.5-10.8 0-4.2 1.7-8 4.5-10.8 2.8-2.8 6.6-4.5 10.8-4.5 4.2 0 8 1.7 10.8 4.5 2.8 2.8 4.5 6.6 4.5 10.8 0 3.8-1.4 7.4-3.8 10.1l15.1 15.1c3.8-3.5 9-5.7 14.6-5.7 6 0 11.4 2.4 15.3 6.3 3.8 3.9 6.3 9.3 6.3 15.3zm-7.1 13.1c3.1-3.5 5.1-8.1 5.1-13.1 0-5.4-2.2-10.3-5.7-13.9-3.5-3.5-8.4-5.7-13.9-5.7-5.1 0-9.7 1.9-13.1 5.1l5 5c2.2-1.9 5.1-3 8.2-3 3.5 0 6.6 1.4 8.9 3.7 2.3 2.3 3.7 5.4 3.7 8.9 0 3.1-1.1 6-3 8.2l4.8 4.8zm-29.2-26.2c-3.1 3.5-5 8.1-5 13.1 0 5.4 2.2 10.3 5.7 13.9 3.5 3.5 8.4 5.7 13.9 5.7 5 0 9.6-1.9 13.1-5l-5-5c-2.2 1.9-5 3-8.1 3-3.5 0-6.6-1.4-8.9-3.7-2.3-2.3-3.7-5.4-3.7-8.9 0-3.1 1.1-5.9 3-8.1l-5-5zm-110.7-.7c0-6-2.4-11.5-6.4-15.5s-9.4-6.4-15.5-6.4c-6 0-11.5 2.4-15.5 6.4s-6.4 9.4-6.4 15.5c0 6 2.4 11.5 6.4 15.5 3.7 3.7 8.8 6.1 14.4 6.4V551l17.9 17.9 126.8.1 179.8 179.8V1266h2.1V747.9l-181-181-126.8-.1-16.7-16.8V426.4c5.6-.3 10.7-2.6 14.4-6.4 4-3.9 6.5-9.4 6.5-15.4zm-7.9 14c-3.6 3.6-8.5 5.8-14 5.8s-10.4-2.2-14-5.8c-3.6-3.6-5.8-8.5-5.8-14s2.2-10.4 5.8-14c3.6-3.6 8.5-5.8 14-5.8s10.4 2.2 14 5.8c3.6 3.6 5.8 8.5 5.8 14s-2.2 10.4-5.8 14zm219.1 123.8l-18.6-18.6c-2 2.3-3.2 5.3-3.2 8.6 0 3.6 1.5 7 3.9 9.3 2.4 2.4 5.7 3.9 9.4 3.9 3.2 0 6.2-1.2 8.5-3.2zm-17.1-20.1l18.6 18.6c2-2.3 3.2-5.3 3.2-8.6 0-3.7-1.5-7-3.9-9.4-2.4-2.4-5.7-3.9-9.4-3.9-3.2.2-6.2 1.4-8.5 3.3zm28.1-58.6c2.4-2.4 3.9-5.7 3.9-9.4s-1.5-7-3.9-9.3c-2.4-2.4-5.7-3.9-9.4-3.9s-7 1.5-9.3 3.9c-2.4 2.4-3.9 5.7-3.9 9.4s1.5 7 3.9 9.4c2.4 2.4 5.7 3.9 9.4 3.9 3.6-.1 6.9-1.6 9.3-4zm-128.7-77.1c2.4-2.4 3.9-5.7 3.9-9.4s-1.5-7-3.9-9.4c-2.4-2.4-5.7-3.9-9.4-3.9-3.6 0-7 1.5-9.3 3.9-2.4 2.4-3.9 5.7-3.9 9.4s1.5 7 3.9 9.4c2.4 2.4 5.7 3.9 9.3 3.9 3.7 0 7-1.5 9.4-3.9zM743.9 542.2c0-4.4-1.8-8.3-4.6-11.1-2.9-2.9-6.8-4.6-11.1-4.6-4.4 0-8.3 1.8-11.1 4.6-2.9 2.9-4.6 6.8-4.6 11.1s1.8 8.3 4.6 11.1c2.9 2.9 6.8 4.6 11.1 4.6 3.6 0 7-1.2 9.7-3.3l27.7 27.7 138.2.1 172.4 172.4V1266h2.1V754c-57.9-57.8-115.7-115.7-173.6-173.6l-138.2-.1-27-27c2.6-2.8 4.4-6.7 4.4-11.1zm-6.1 9.7c-2.5 2.5-5.9 4-9.7 4-3.8 0-7.2-1.5-9.7-4-2.5-2.5-4-5.9-4-9.7 0-3.8 1.5-7.2 4-9.7 2.5-2.5 5.9-4 9.7-4 3.8 0 7.2 1.5 9.7 4 2.5 2.5 4 5.9 4 9.7 0 3.8-1.5 7.3-4 9.7zm8-91.3c0-4.4-1.8-8.3-4.6-11.1-2.9-2.9-6.8-4.6-11.1-4.6s-8.3 1.8-11.1 4.6c-2.9 2.9-4.6 6.8-4.6 11.1 0 4 1.5 7.7 4 10.5l-38 38v40.4l43.3 43.3 171.8.1 170.4 170.4V1266h2.1V762.4L896.3 590.8l-171.8-.1-42.1-42.1v-38.7l37.4-37.4c2.8 2.4 6.3 3.8 10.3 3.8 4.3 0 8.3-1.8 11.1-4.6 2.8-2.9 4.6-6.8 4.6-11.1zm-6.1 9.7c-2.5 2.5-5.9 4-9.7 4-3.8 0-7.2-1.5-9.7-4-2.5-2.5-4-5.9-4-9.7 0-3.8 1.5-7.2 4-9.7 2.5-2.5 5.9-4 9.7-4 3.8 0 7.2 1.5 9.7 4 2.5 2.5 4 5.9 4 9.7 0 3.7-1.5 7.2-4 9.7zm60.1-9.3c0-4.2-1.7-8-4.5-10.8-2.8-2.8-6.6-4.5-10.8-4.5-4.2 0-8 1.7-10.8 4.5-2.8 2.8-4.5 6.6-4.5 10.8 0 4.2 1.7 8 4.5 10.8 2.5 2.5 6 4.2 9.8 4.4v71.3l9.6 9.6 122.3.1 186.2 186.2V1266h2.1V742.6L916.3 555.3l-122.3-.1-8.4-8.4v-70.5c3.8-.3 7.2-1.9 9.8-4.4 2.7-2.8 4.4-6.6 4.4-10.9zm-5.9 9.4c-2.4 2.4-5.7 3.9-9.3 3.9-3.7 0-7-1.5-9.3-3.9-2.4-2.4-3.9-5.7-3.9-9.4s1.5-7 3.9-9.3c2.4-2.4 5.7-3.9 9.3-3.9 3.7 0 7 1.5 9.3 3.9 2.4 2.4 3.9 5.7 3.9 9.3 0 3.7-1.5 7-3.9 9.4zM957.5 697c0-4.3-1.8-8.3-4.6-11.1-2.8-2.9-6.8-4.6-11.1-4.6-4.4 0-8.3 1.8-11.1 4.6-2.9 2.8-4.6 6.8-4.6 11.1s1.8 8.3 4.6 11.1c2.9 2.9 6.8 4.6 11.1 4.6 3.9 0 7.4-1.4 10.1-3.7l77.4 77.4v31.1c-3.9.3-7.5 2-10.1 4.6-2.9 2.9-4.6 6.8-4.6 11.1 0 4.4 1.8 8.3 4.6 11.1 2.6 2.6 6.2 4.3 10.1 4.6v417h2.1V849c3.9-.3 7.5-2 10.1-4.6 2.9-2.9 4.6-6.8 4.6-11.1s-1.8-8.3-4.6-11.1c-2.6-2.6-6.2-4.3-10.1-4.6v-32l-77.9-77.9c2.4-2.9 4-6.6 4-10.7zm-6.1 9.7c2.5-2.5 4-5.9 4-9.7 0-3.8-1.5-7.2-4-9.7-2.5-2.5-5.9-4-9.7-4-3.8 0-7.2 1.5-9.7 4-2.5 2.5-4 5.9-4 9.7 0 3.8 1.5 7.2 4 9.7 2.5 2.5 5.9 4 9.7 4 3.8 0 7.2-1.6 9.7-4zm88.5 136.3c2.5-2.5 4-5.9 4-9.7 0-3.8-1.5-7.2-4-9.7-2.3-2.3-5.3-3.7-8.7-4V847c3.4-.3 6.5-1.8 8.7-4zm-10.7-23.4c-3.4.2-6.4 1.7-8.7 4-2.5 2.5-4 5.9-4 9.7 0 3.8 1.5 7.2 4 9.7 2.3 2.3 5.3 3.7 8.7 4v-27.4zm-233.3 13.2c0-5.8-2.3-11-6.1-14.7-3.8-3.8-9-6.1-14.7-6.1-5.8 0-11 2.3-14.7 6.1-3.8 3.8-6.1 9-6.1 14.7 0 5.8 2.3 11 6.1 14.7 3.8 3.8 9 6.1 14.7 6.1h51.3l34.2 34.2V1266h2V886.9l-35.4-35.4H784c2.1-1 4.1-2.4 5.7-4 3.9-3.8 6.2-9 6.2-14.7zm-7.5 13.2c-3.4 3.4-8.1 5.5-13.3 5.5-5.2 0-9.9-2.1-13.3-5.5-3.4-3.4-5.5-8.1-5.5-13.3 0-5.2 2.1-9.9 5.5-13.3 3.4-3.4 8.1-5.5 13.3-5.5 5.2 0 9.9 2.1 13.3 5.5 3.4 3.4 5.5 8.1 5.5 13.3 0 5.3-2.1 10-5.5 13.3zm-172-239.4h18.8l33 33 186.4.1 139.9 139.9V1266h2V778.8L855.4 637.7l-186.4-.1-33-33.1h-19.6c-.3-5.8-2.7-11-6.5-14.8-4.1-4.1-9.7-6.6-15.8-6.6-6.2 0-11.8 2.5-15.8 6.6-4.1 4.1-6.6 9.7-6.6 15.8 0 6.2 2.5 11.8 6.6 15.8 4.1 4.1 9.7 6.6 15.8 6.6 6.2 0 11.8-2.5 15.8-6.6 3.8-3.7 6.2-8.9 6.5-14.7zm-8 13.3c-3.7 3.7-8.8 6-14.4 6s-10.7-2.3-14.4-6c-3.7-3.7-6-8.8-6-14.4s2.3-10.7 6-14.4c3.7-3.7 8.8-6 14.4-6s10.7 2.3 14.4 6c3.7 3.7 6 8.8 6 14.4 0 5.7-2.3 10.8-6 14.4zm52.2 36.1l194 .1 132 132V1266h2.1V787.2L855.5 654H660.6c-.2-3.3-1.7-6.2-3.9-8.4-2.4-2.4-5.8-3.9-9.5-3.9s-7 1.5-9.5 3.9c-2.4 2.4-3.9 5.8-3.9 9.5s1.5 7 3.9 9.5c2.4 2.4 5.8 3.9 9.5 3.9s7-1.5 9.5-3.9c2.2-2.4 3.6-5.3 3.9-8.6zm-5.4 7c-2.1 2.1-4.9 3.3-8 3.3-3.1 0-6-1.3-8-3.3-2-2.1-3.3-4.9-3.3-8 0-3.1 1.3-6 3.3-8 2-2 4.9-3.3 8-3.3 3.1 0 6 1.3 8 3.3 2.1 2.1 3.3 4.9 3.3 8 0 3.1-1.2 5.9-3.3 8zM515 400.8v69.1l34.2 34.2v168.1l41.2 41.2h235.8L935.8 823v443h2V822.1L827 711.2H591.2l-40-40V503.1L517.1 469v-77.5c0-6.1-2.5-11.5-6.4-15.5-4-4-9.5-6.4-15.5-6.4-6.1 0-11.5 2.5-15.5 6.4-4 4-6.4 9.5-6.4 15.5 0 6.1 2.5 11.5 6.4 15.5 4 4 9.5 6.4 15.5 6.4 6.1 0 11.5-2.5 15.5-6.4 1.7-1.8 3.2-3.9 4.3-6.2zm-5.8 4.8c-3.6 3.6-8.6 5.8-14.1 5.8s-10.5-2.2-14.1-5.8c-3.6-3.6-5.8-8.6-5.8-14.1s2.2-10.5 5.8-14.1c3.6-3.6 8.6-5.8 14.1-5.8s10.5 2.2 14.1 5.8c3.6 3.6 5.8 8.6 5.8 14.1s-2.2 10.5-5.8 14.1zm65.7 73.6c0-4-1.6-7.7-4.3-10.3-2.6-2.6-6.3-4.3-10.3-4.3-4 0-7.7 1.6-10.3 4.3-2.6 2.6-4.3 6.3-4.3 10.3 0 4 1.6 7.7 4.3 10.3 2.4 2.4 5.7 4 9.3 4.2v166.8l41.2 41.2h228l117.1 117.1V1266h2.1V818c-39.5-39.4-78.8-78.9-118.3-118.3h-228l-40-40v-166c3.6-.3 6.9-1.8 9.3-4.2 2.6-2.6 4.2-6.3 4.2-10.3zm-5.7 8.9c-2.3 2.3-5.4 3.7-8.9 3.7s-6.6-1.4-8.9-3.7c-2.3-2.3-3.7-5.4-3.7-8.9s1.4-6.6 3.7-8.9c2.3-2.3 5.4-3.7 8.9-3.7s6.6 1.4 8.9 3.7c2.3 2.3 3.7 5.4 3.7 8.9s-1.5 6.6-3.7 8.9zm214.9 612.4c0 6.6-2.7 12.6-7 16.9-4.1 4.1-9.7 6.7-15.9 7V1266h-2v-141.6c-6.2-.3-11.8-2.9-15.9-7-4.3-4.3-7-10.3-7-16.9 0-6.6 2.7-12.6 7-16.9 4.1-4.1 9.7-6.7 15.9-7v-24.2l-28.4-28.4c-3 2.9-7 4.6-11.5 4.6s-8.7-1.8-11.7-4.8-4.8-7.1-4.8-11.6 1.8-8.7 4.8-11.6c3-3 7.1-4.8 11.7-4.8 4.5 0 8.7 1.8 11.6 4.8 3 3 4.8 7.1 4.8 11.7 0 3.9-1.4 7.5-3.6 10.3l29.1 29.1v25c6.2.3 11.8 2.9 15.9 7 4.3 4.2 7 10.2 7 16.8zm-8.4 15.4c-3.7 3.7-8.8 6.1-14.4 6.4v-8.1c3.4-.2 6.5-1.7 8.7-4 2.5-2.5 4-5.9 4-9.8 0-3.8-1.5-7.3-4-9.8-2.3-2.3-5.3-3.8-8.7-4v-8.1c5.6.3 10.7 2.7 14.4 6.4 4 4 6.4 9.4 6.4 15.5s-2.5 11.6-6.4 15.5zm-16.5-37.3v8.1c-3.4.3-6.5 1.7-8.7 4-2.5 2.5-4 5.9-4 9.8 0 3.8 1.5 7.3 4 9.8 2.3 2.3 5.3 3.8 8.7 4v8.1c-5.6-.3-10.7-2.7-14.4-6.4-4-4-6.4-9.4-6.4-15.5 0-6 2.4-11.5 6.4-15.5 3.7-3.7 8.7-6.1 14.4-6.4zM548.5 711.8c0-3.7-1.5-7-3.9-9.5-2.4-2.4-5.8-3.9-9.5-3.9-3.3 0-6.4 1.2-8.7 3.2l-13.2-13.2V514.8l-45.4-45.4V358.1c3.4-.2 6.5-1.7 8.8-4 2.5-2.5 4.1-6 4.1-9.8 0-3.8-1.6-7.3-4.1-9.8-2.5-2.5-6-4.1-9.8-4.1-3.8 0-7.3 1.6-9.8 4.1-2.5 2.5-4.1 6-4.1 9.8 0 3.8 1.6 7.3 4.1 9.8 2.3 2.3 5.4 3.8 8.8 4v112.1l45.4 45.4v173.6L525 703c-2 2.3-3.2 5.4-3.2 8.7 0 3.7 1.5 7 3.9 9.5 2.4 2.4 5.8 3.9 9.5 3.9 3.3 0 6.4-1.2 8.7-3.2l13.8 13.8h254.9l100 100V1266h2.1V834.8L813.4 733.7H558.5l-13.2-13.2c2-2.4 3.2-5.4 3.2-8.7zm-4.6 7.2l-16-16c2-1.6 4.5-2.6 7.3-2.6 3.1 0 6 1.3 8 3.3 2.1 2.1 3.3 4.9 3.3 8 0 2.8-1 5.3-2.6 7.3zm-17.5-14.5l16 16c-2 1.6-4.5 2.6-7.3 2.6-3.1 0-6-1.3-8-3.3-2-2-3.3-4.9-3.3-8 0-2.8 1-5.3 2.6-7.3zm203.1 317.9c-2.6 2.6-6.2 4.2-10.2 4.2-4 0-7.6-1.6-10.2-4.2-2.6-2.6-4.2-6.2-4.2-10.2 0-4 1.6-7.6 4.2-10.2 2.6-2.6 6.2-4.2 10.2-4.2 4 0 7.6 1.6 10.2 4.2 2.6 2.6 4.2 6.2 4.2 10.2 0 3.9-1.6 7.5-4.2 10.2zm39.7-112c0 3.7-1.4 7.1-3.6 9.7l5 5h54.9l15.1 15.1V1266h-2.1V941.1l-13.9-13.9h-54.9l-5.6-5.6c-2.6 2.3-6 3.6-9.7 3.6-4.1 0-7.8-1.7-10.4-4.3-2.7-2.7-4.3-6.4-4.3-10.4 0-3.7 1.4-7.1 3.6-9.7l-6.4-6.4h-37.7l-13.5-13.5v-26.1L672.9 842v-18.5l-25.2-25.2H486.9l-34.6-34.6V520.1l-46.9-46.9V343.9l-6.9-6.9c-2.2 1.5-4.9 2.4-7.8 2.4-3.8 0-7.3-1.6-9.8-4.1-2.5-2.5-4.1-6-4.1-9.8 0-3.8 1.6-7.3 4.1-9.8 2.5-2.5 6-4.1 9.8-4.1 3.8 0 7.3 1.6 9.8 4.1 2.5 2.5 4.1 6 4.1 9.8 0 3.8-1.6 7.3-4.1 9.8l-.4.4 7.3 7.3v129.3l46.9 46.9v243.5l33.4 33.4h160.7l26.4 26.4V841l12.8 12.8V880l12.3 12.3h37.7l7 7c2.6-2.3 6-3.6 9.7-3.6 4.1 0 7.8 1.7 10.4 4.3 2.8 2.7 4.5 6.4 4.5 10.4zm-5.1 8.3l-17.9-17.9c2.2-1.9 5.1-3 8.2-3 3.5 0 6.7 1.4 9 3.7 2.3 2.3 3.7 5.5 3.7 9 0 3.1-1.1 5.9-3 8.2zm-19.3-16.5l17.9 17.9c-2.2 1.9-5.1 3-8.2 3-3.5 0-6.7-1.4-9-3.7-2.3-2.3-3.7-5.5-3.7-9-.1-3.1 1.1-6 3-8.2zM738.5 799c0 3.7-1.4 7.1-3.6 9.7l9.7 9.7v37l13.2 13.2h64.1l27.1 27.1V1266h-2V896.5l-26-25.9h-64.1l-14.4-14.4v-37l-9.1-9.1c-2.6 2.3-6 3.6-9.7 3.6-4.1 0-7.8-1.7-10.4-4.3-2.7-2.7-4.3-6.4-4.3-10.4 0-4.1 1.6-7.8 4.3-10.4 2.7-2.7 6.4-4.3 10.4-4.3 4.1 0 7.8 1.7 10.4 4.3 2.7 2.7 4.4 6.4 4.4 10.4zm-5.8 9c-2.3 2.3-5.5 3.7-9 3.7s-6.7-1.4-9-3.7c-2.3-2.3-3.7-5.5-3.7-9s1.4-6.7 3.7-9c2.3-2.3 5.5-3.7 9-3.7s6.7 1.4 9 3.7c2.3 2.3 3.7 5.5 3.7 9s-1.4 6.7-3.7 9zm-111.4 27.7c0 3.8-1.4 7.2-3.8 9.8l15 15H659l19.4 19.4v73.4l18 18h43l35.8-35.8h39.6l15.1 15.1V1266h-2V951.5l-13.9-14h-37.9l-35.8 35.8h-44.7l-19.2-19.2v-73.4l-18.2-18.2h-26.5L616.1 847c-2.6 2.2-5.9 3.5-9.5 3.5-4.1 0-7.8-1.7-10.4-4.3-2.7-2.7-4.3-6.4-4.3-10.4 0-3.6 1.3-6.9 3.5-9.5l-9.2-9.2H482.4c-15.8-15.9-31.7-31.7-47.5-47.5V538.3l-46.7-46.7c-2.4 1.9-5.4 3-8.6 3-3.8 0-7.3-1.6-9.8-4.1-2.5-2.5-4.1-6-4.1-9.8 0-3.8 1.6-7.3 4.1-9.8 2.5-2.5 6-4.1 9.8-4.1 3.8 0 7.3 1.6 9.8 4.1 2.5 2.5 4.1 6 4.1 9.8 0 3.6-1.4 7-3.7 9.4l47.3 47.3v231.2l46.3 46.3H587l9.8 9.8c2.6-2.3 6.1-3.8 9.8-3.8 4.1 0 7.8 1.7 10.4 4.3 2.7 2.8 4.3 6.5 4.3 10.5zm-5.2 8.4l-17.9-17.9c2.2-2 5.2-3.2 8.4-3.2 3.5 0 6.7 1.4 9 3.7 2.3 2.3 3.7 5.5 3.7 9 0 3.2-1.2 6.2-3.2 8.4zm-19.3-16.4l17.9 17.9c-2.2 1.8-5 2.9-8.1 2.9-3.5 0-6.7-1.4-9-3.7-2.3-2.3-3.7-5.5-3.7-9 0-3.1 1.1-5.9 2.9-8.1zm27.9 120.1c0 4.1-1.7 7.8-4.3 10.4-2.7 2.7-6.4 4.3-10.4 4.3-3.6 0-6.9-1.3-9.5-3.4l-16.1 16.1h-29.6l-33.5 33.5V1266h-2v-258.1l34.7-34.7h29.6l15.5-15.5c-2.4-2.6-3.8-6.1-3.8-9.9 0-4.1 1.7-7.8 4.3-10.4 2.7-2.7 6.4-4.3 10.4-4.3 3.8 0 7.3 1.4 9.9 3.8l11.6-11.6c-2.2-2.5-3.6-5.8-3.6-9.4 0-3.9 1.6-7.4 4.1-9.9 2.5-2.5 6-4.1 9.9-4.1 3.9 0 7.4 1.6 9.9 4.1 2.5 2.5 4.1 6 4.1 9.9s-1.6 7.4-4.1 9.9c-2.5 2.5-6 4.1-9.9 4.1-3.4 0-6.5-1.2-8.9-3.2l-11.7 11.7c2.1 2.5 3.4 5.8 3.4 9.4zm-5.8 9c-2.3 2.3-5.5 3.7-9 3.7-3 0-5.8-1.1-8-2.8l17.9-17.9c1.8 2.2 2.8 5 2.8 8 0 3.5-1.4 6.7-3.7 9zm-.5-18.5l-17.9 17.9c-2-2.2-3.2-5.2-3.2-8.4 0-3.5 1.4-6.7 3.7-9 2.3-2.3 5.5-3.7 9-3.7 3.2 0 6.1 1.3 8.4 3.2zm-28.4 97.6c0 4-1.6 7.6-4.3 10.3-2.6 2.6-6.3 4.3-10.3 4.3-2.9 0-5.7-.9-7.9-2.4l-6.2 6.2V1266h-2v-212.5l6.6-6.6c-.2-.2-.5-.4-.7-.7-2.6-2.6-4.3-6.3-4.3-10.3 0-4 1.6-7.7 4.3-10.3 2.6-2.6 6.3-4.3 10.3-4.3 4 0 7.7 1.6 10.3 4.3 2.6 2.7 4.2 6.3 4.2 10.3zm-5.7 8.9c-2.3 2.3-5.4 3.7-8.8 3.7-3.4 0-6.6-1.4-8.8-3.7-2.3-2.3-3.7-5.4-3.7-8.8 0-3.4 1.4-6.6 3.7-8.8 2.3-2.3 5.4-3.7 8.8-3.7 3.4 0 6.6 1.4 8.8 3.7 2.3 2.3 3.7 5.4 3.7 8.8 0 3.4-1.4 6.5-3.7 8.8zm-73.2 46.3c0 4.4-1.8 8.4-4.7 11.3-2.7 2.7-6.3 4.4-10.2 4.6v159h-2.1v-159c-4-.3-7.6-2-10.2-4.6-2.9-2.9-4.7-6.9-4.7-11.3s1.8-8.4 4.7-11.3c2.7-2.7 6.3-4.4 10.2-4.6v-67.3l35-35V872.4l-5-5c-2.4 2.1-5.6 3.3-9 3.3-3.9 0-7.4-1.6-9.9-4.1-2.5-2.5-4.1-6-4.1-9.9 0-3.9 1.6-7.4 4.1-9.9 2.5-2.5 6-4.1 9.9-4.1 3.9 0 7.4 1.6 9.9 4.1 2.5 2.5 4.1 6 4.1 9.9 0 3.5-1.3 6.8-3.5 9.3l5.6 5.6v102.1l-35.1 35v66.4c4 .3 7.6 2 10.2 4.6 3 3 4.8 7 4.8 11.4zm-6.2 9.8c-2.3 2.3-5.4 3.8-8.8 4v-27.7c3.4.3 6.5 1.7 8.8 4 2.5 2.5 4.1 6 4.1 9.8 0 3.9-1.5 7.4-4.1 9.9zm-10.8-23.7v27.7c-3.4-.2-6.5-1.7-8.8-4-2.5-2.5-4.1-6-4.1-9.8 0-3.8 1.6-7.3 4.1-9.8 2.3-2.3 5.4-3.8 8.8-4.1zm-139.6 98.2c0 4-1.6 7.6-4.2 10.2-2.4 2.4-5.6 3.9-9.2 4.2v76.2H339v-76.2c-3.6-.3-6.8-1.8-9.2-4.2-2.6-2.6-4.2-6.2-4.2-10.2 0-4 1.6-7.6 4.2-10.2 2.4-2.4 5.6-3.9 9.2-4.2V962.2c-3.6-.3-6.8-1.8-9.2-4.2-2.6-2.6-4.2-6.2-4.2-10.2 0-4 1.6-7.6 4.2-10.2 2.6-2.6 6.2-4.2 10.2-4.2 4 0 7.6 1.6 10.2 4.2 2.6 2.6 4.2 6.2 4.2 10.2 0 4-1.6 7.6-4.2 10.2-2.4 2.4-5.6 3.9-9.2 4.2V1161c3.6.3 6.8 1.8 9.2 4.2 2.7 2.6 4.3 6.2 4.3 10.2zm-5.7 8.7c2.2-2.2 3.6-5.3 3.6-8.7 0-3.4-1.4-6.5-3.6-8.7-2-2-4.7-3.3-7.7-3.6v24.6c3-.3 5.7-1.6 7.7-3.6zm-9.8-21c-3 .2-5.7 1.6-7.7 3.6-2.2 2.2-3.6 5.3-3.6 8.7 0 3.4 1.4 6.5 3.6 8.7 2 2 4.7 3.3 7.7 3.6v-24.6zm-51.5 66.7c0 4-1.6 7.6-4.3 10.3-2.6 2.6-6.3 4.3-10.3 4.3-4 0-7.6-1.6-10.3-4.3-2.6-2.6-4.3-6.3-4.3-10.3 0-4 1.6-7.6 4.3-10.3 2.4-2.4 5.5-3.9 9-4.2v-149.9L311 1026v-59.1L297.3 953V788.8l-22.7-22.7V639.2l-23-23V480.1l26.3-26.3v-75.7c-1.8.4-3.7.7-5.7.7-1.9 0-3.8-.2-5.6-.6v77.1L242.8 479v142.9l21.7 21.7V767l20.9 20.9V953l14.3 14.3v60.2l-40.6 40.6v112.3c0 .6.1 1.2.1 1.7 0 .6 0 1.2-.1 1.7v.1c-.5 5.9-3 11.1-6.9 15-4.3 4.3-10.3 7-16.9 7-6.6 0-12.6-2.7-16.9-7-4.3-4.3-7-10.3-7-16.9 0-6.6 2.7-12.6 7-16.9 4.3-4.3 10.3-7 16.9-7 6.6 0 12.6 2.7 16.9 7 2 2 3.7 4.4 4.9 7.1v-105l40.6-40.6v-58.5l-14.3-14.3v-165l-20.9-20.9V644.5l-21.7-21.7V478.2l23.8-23.8v-76.8c-3.6-1.2-6.7-3.2-9.3-5.8-4.3-4.3-7-10.3-7-16.9 0-6.6 2.7-12.6 7-16.9 4.3-4.3 10.3-7 16.9-7 6.6 0 12.6 2.7 16.9 7 4.3 4.3 7 10.3 7 16.9 0 6.6-2.7 12.6-7 16.9-2.6 2.6-5.7 4.5-9.2 5.7v77.2L253.6 481v134.4l23 23v126.9l22.7 22.7v164.2l13.9 13.9v60.8l-39.4 39.4v149.1c3.7.2 7 1.8 9.5 4.2 2.6 2.5 4.2 6.2 4.2 10.2zm-5.7 8.8c2.3-2.3 3.7-5.4 3.7-8.8 0-3.4-1.4-6.6-3.7-8.8-2.3-2.3-5.4-3.7-8.8-3.7-3.4 0-6.6 1.4-8.8 3.7-2.3 2.3-3.7 5.4-3.7 8.8 0 3.4 1.4 6.6 3.7 8.8 2.3 2.3 5.4 3.7 8.8 3.7 3.4 0 6.6-1.4 8.8-3.7zm-31.2-41c3.6-3.6 5.9-8.4 6.3-13.8v-3.4c-.4-5.4-2.8-10.2-6.3-13.8-4-4-9.4-6.4-15.5-6.4-6 0-11.5 2.5-15.5 6.4-4 4-6.4 9.4-6.4 15.5 0 6 2.4 11.5 6.4 15.5s9.4 6.4 15.5 6.4c6.1.1 11.6-2.4 15.5-6.4zm98.2-241.1c2.2-2.2 3.6-5.3 3.6-8.7 0-3.4-1.4-6.5-3.6-8.7-2.2-2.2-5.3-3.6-8.7-3.6-3.4 0-6.5 1.4-8.7 3.6-2.2 2.2-3.6 5.3-3.6 8.7 0 3.4 1.4 6.5 3.6 8.7 2.2 2.2 5.3 3.6 8.7 3.6 3.4 0 6.5-1.3 8.7-3.6zM347 583.1c0-6.5-2.6-12.3-6.9-16.6-4.2-4.2-10.1-6.9-16.6-6.9-6.5 0-12.3 2.6-16.6 6.9-4.2 4.2-6.9 10.1-6.9 16.6 0 6.5 2.6 12.3 6.9 16.6 2.3 2.3 5 4.1 8 5.3l11.8 11.8v72.4l-18.2 18.2v52.1l42.6 42.6v30.6l23.3 23.3v410h2.1V855.2l-23.3-23.3v-30.6l-42.6-42.6v-50.4l18.2-18.2V616l-9.8-9.8c1.5.3 2.9.4 4.5.4.5 0 1.1 0 1.6-.1l10.3 10.3v72.4l-18.2 18.2v52.1l42.6 42.6v30.6l23.3 23.3v410h2.1V855.2l-23.3-23.3v-30.6l-42.6-42.6v-50.4l18.2-18.2V616l-9.8-9.8c2.8-.5 5.4-1.5 7.8-2.9l11.6 11.6v72.4l-18.2 18.2v51.1l42.6 42.6v33.5l18.3 18.3v415h2.1V850.2l-18.3-18.3v-33.5L331 755.8v-49.4l18.2-18.2V614l-11.9-11.9c1-.7 2-1.5 2.8-2.4 4.3-4.2 6.9-10.1 6.9-16.6zm-8.3 15.2c3.9-3.9 6.3-9.2 6.3-15.1s-2.4-11.3-6.3-15.1c-3.9-3.9-9.2-6.3-15.1-6.3s-11.3 2.4-15.1 6.3c-3.9 3.9-6.3 9.2-6.3 15.1s2.4 11.3 6.3 15.1c3.9 3.9 9.2 6.3 15.1 6.3 5.9-.1 11.2-2.5 15.1-6.3zm112.9-203.1c0-4-1.6-7.7-4.3-10.3-2.6-2.6-6.3-4.3-10.3-4.3-4 0-7.7 1.6-10.3 4.3-2.6 2.6-4.3 6.3-4.3 10.3 0 4 1.6 7.7 4.3 10.3 2.4 2.4 5.7 4 9.3 4.2v71.8l41.2 41.2v218.1l33.1 33.1h284.9l81 81v411h2.1V854.2L796 772H511l-31.9-31.9V522L438 480.8v-71c3.6-.3 6.9-1.8 9.3-4.2 2.6-2.7 4.3-6.3 4.3-10.4zm-5.8 8.9c2.3-2.3 3.7-5.4 3.7-8.9s-1.4-6.6-3.7-8.9c-2.3-2.3-5.4-3.7-8.9-3.7s-6.6 1.4-8.9 3.7c-2.3 2.3-3.7 5.4-3.7 8.9s1.4 6.6 3.7 8.9c2.3 2.3 5.4 3.7 8.9 3.7s6.7-1.4 8.9-3.7zm0-47.4c0-4.1-1.7-7.8-4.4-10.5s-6.4-4.4-10.5-4.4-7.8 1.7-10.5 4.4-4.4 6.4-4.4 10.5 1.7 7.8 4.4 10.5 6.4 4.4 10.5 4.4c3.5 0 6.8-1.2 9.3-3.3l13.5 13.5V478l41.2 41.2v210.4l33.1 33.1h274.3l86.6 86.6V1266h2.1V848.4l-87.8-87.8H528.9l-31.9-32V518.3l-41.2-41.2V381l-14.1-14.1c2.5-2.6 4.1-6.2 4.1-10.2zm-5.8 9.1c2.3-2.3 3.8-5.5 3.8-9.1 0-3.5-1.4-6.8-3.8-9.1-2.3-2.3-5.5-3.8-9.1-3.8-3.5 0-6.8 1.4-9.1 3.8-2.3 2.3-3.8 5.5-3.8 9.1 0 3.5 1.4 6.8 3.8 9.1 2.3 2.3 5.5 3.8 9.1 3.8 3.5 0 6.7-1.5 9.1-3.8zM397.1 286c0-6.1-2.5-11.5-6.4-15.5-4-4-9.5-6.4-15.5-6.4-6.1 0-11.5 2.5-15.5 6.4-4 4-6.4 9.5-6.4 15.5 0 5 1.7 9.7 4.5 13.3l-28.9 28.9v207l54.9 54.9V832l23.4 23.4V1266h2V854.6l-23.4-23.4V589.4l-54.9-54.9V329.2l28.2-28.2.6.6c4 4 9.5 6.4 15.5 6.4 6.1 0 11.5-2.5 15.5-6.4 4-4 6.4-9.5 6.4-15.6zm-7.9 14.1c-3.6 3.6-8.6 5.8-14.1 5.8s-10.5-2.2-14.1-5.8c-3.6-3.6-5.8-8.6-5.8-14.1s2.2-10.5 5.8-14.1c3.6-3.6 8.6-5.8 14.1-5.8s10.5 2.2 14.1 5.8c3.6 3.6 5.8 8.6 5.8 14.1.1 5.5-2.2 10.5-5.8 14.1zm-8.7 57.8c0-4-1.6-7.7-4.3-10.3-2.6-2.6-6.3-4.3-10.3-4.3-4 0-7.7 1.6-10.3 4.3-2.6 2.6-4.3 6.3-4.3 10.3 0 4 1.6 7.7 4.3 10.3l.1.1-16 16v146.3l59.6 59.6V832l17.3 17.3V1266h2.1V848.5l-17.3-17.3V589.4l-59.6-59.6V385.2l15.5-15.5c2.4 1.8 5.5 2.9 8.7 2.9 4 0 7.7-1.6 10.3-4.3 2.6-2.7 4.2-6.4 4.2-10.4zm-5.7 8.9c2.3-2.3 3.7-5.4 3.7-8.9s-1.4-6.6-3.7-8.9c-2.3-2.3-5.4-3.7-8.9-3.7s-6.6 1.4-8.9 3.7c-2.3 2.3-3.7 5.4-3.7 8.9s1.4 6.6 3.7 8.9c2.3 2.3 5.4 3.7 8.9 3.7 3.5-.1 6.6-1.5 8.9-3.7zm-87.2 3.5c4-4 6.4-9.4 6.4-15.5 0-6-2.4-11.5-6.4-15.5s-9.4-6.4-15.5-6.4c-6 0-11.5 2.4-15.5 6.4s-6.4 9.4-6.4 15.5c0 6 2.5 11.5 6.4 15.5 4 4 9.4 6.4 15.5 6.4 6.1.1 11.5-2.4 15.5-6.4zm-15.5-28.7c-3.7 0-7 1.5-9.4 3.9-2.4 2.4-3.9 5.7-3.9 9.4s1.5 7 3.9 9.4c2.4 2.4 5.7 3.9 9.4 3.9s7-1.5 9.4-3.9c2.4-2.4 3.9-5.7 3.9-9.4s-1.5-7-3.9-9.4c-2.4-2.4-5.7-3.9-9.4-3.9zm-9.7 3.5c-2.5 2.5-4 5.9-4 9.8 0 3.8 1.5 7.3 4 9.8 2.5 2.5 5.9 4 9.8 4 3.8 0 7.3-1.5 9.8-4 2.5-2.5 4-5.9 4-9.8 0-3.8-1.5-7.3-4-9.8-2.5-2.5-5.9-4-9.8-4-3.9 0-7.3 1.5-9.8 4zm9.7-.9c-3 0-5.6 1.2-7.6 3.1-1.9 1.9-3.1 4.6-3.1 7.6s1.2 5.6 3.1 7.6c1.9 1.9 4.6 3.1 7.6 3.1s5.6-1.2 7.6-3.1c1.9-1.9 3.1-4.6 3.1-7.6s-1.2-5.6-3.1-7.6c-1.9-1.9-4.6-3.1-7.6-3.1zm7.2 3.5c-1.8-1.8-4.4-3-7.2-3s-5.3 1.1-7.2 3c-1.8 1.8-3 4.4-3 7.2s1.1 5.3 3 7.2c1.8 1.8 4.4 3 7.2 3s5.3-1.1 7.2-3c1.8-1.8 3-4.4 3-7.2s-1.2-5.4-3-7.2zm-7.2 19.4c3.4 0 6.4-1.4 8.7-3.6 2.2-2.2 3.6-5.3 3.6-8.7 0-3.4-1.4-6.4-3.6-8.7-2.2-2.2-5.3-3.6-8.7-3.6-3.4 0-6.4 1.4-8.7 3.6-2.2 2.2-3.6 5.3-3.6 8.7 0 3.4 1.4 6.4 3.6 8.7 2.3 2.3 5.3 3.6 8.7 3.6zm-8.2-4c2.1 2.1 5 3.4 8.3 3.4 3.2 0 6.2-1.3 8.3-3.4 2.1-2.1 3.4-5 3.4-8.3 0-3.2-1.3-6.2-3.4-8.3-2.1-2.1-5-3.4-8.3-3.4-3.2 0-6.1 1.3-8.3 3.4-2.1 2.1-3.4 5-3.4 8.3-.1 3.3 1.2 6.2 3.4 8.3zm-28.8 805.8c-3.7 0-7 1.5-9.4 3.9-2.4 2.4-3.9 5.7-3.9 9.4s1.5 7 3.9 9.4c2.4 2.4 5.7 3.9 9.4 3.9s7-1.5 9.4-3.9c2.4-2.4 3.9-5.7 3.9-9.4s-1.5-7-3.9-9.4c-2.4-2.4-5.7-3.9-9.4-3.9zm-9.7 3.5c-2.5 2.5-4 5.9-4 9.8 0 3.8 1.5 7.3 4 9.8 2.5 2.5 5.9 4 9.8 4 3.8 0 7.3-1.5 9.8-4 2.5-2.5 4-5.9 4-9.8 0-3.8-1.5-7.3-4-9.8-2.5-2.5-5.9-4-9.8-4-3.9 0-7.3 1.5-9.8 4zm9.7-.9c-3 0-5.6 1.2-7.6 3.1-1.9 1.9-3.1 4.6-3.1 7.6s1.2 5.6 3.1 7.6c1.9 1.9 4.6 3.1 7.6 3.1s5.6-1.2 7.6-3.1c1.9-1.9 3.1-4.6 3.1-7.6s-1.2-5.6-3.1-7.6c-1.9-1.9-4.6-3.1-7.6-3.1zm7.2 3.5c-1.8-1.8-4.4-3-7.2-3s-5.3 1.1-7.2 3c-1.8 1.8-3 4.4-3 7.2s1.1 5.3 3 7.2c1.8 1.8 4.4 3 7.2 3s5.3-1.1 7.2-3c1.8-1.8 3-4.4 3-7.2s-1.1-5.4-3-7.2zm-7.2 19.4c3.4 0 6.4-1.4 8.7-3.6 2.2-2.2 3.6-5.3 3.6-8.7 0-3.4-1.4-6.4-3.6-8.7-2.2-2.2-5.3-3.6-8.7-3.6-3.4 0-6.4 1.4-8.7 3.6-2.2 2.2-3.6 5.3-3.6 8.7 0 3.4 1.4 6.4 3.6 8.7 2.3 2.3 5.4 3.6 8.7 3.6zm-8.2-4c2.1 2.1 5 3.4 8.3 3.4s6.2-1.3 8.3-3.4c2.1-2.1 3.4-5 3.4-8.3s-1.3-6.1-3.4-8.3c-2.1-2.1-5-3.4-8.3-3.4s-6.2 1.3-8.3 3.4c-2.1 2.1-3.4 5-3.4 8.3-.1 3.3 1.3 6.2 3.4 8.3zm532.3-103.1v1c-3 .2-5.6 1.6-7.6 3.5-2.2 2.2-3.6 5.3-3.6 8.7 0 3.4 1.4 6.4 3.6 8.7 2 2 4.7 3.3 7.6 3.6v1c-3.2-.2-6.2-1.7-8.3-3.8-2.4-2.4-3.9-5.7-3.9-9.4s1.5-7 3.9-9.4c2.1-2.3 5-3.7 8.3-3.9zm2 26.4v-1c3-.2 5.6-1.6 7.6-3.6 2.2-2.2 3.6-5.3 3.6-8.7 0-3.4-1.4-6.4-3.6-8.7-2-2-4.7-3.3-7.6-3.5v-1c3.2.2 6.2 1.7 8.3 3.8 2.4 2.4 3.9 5.7 3.9 9.4s-1.5 7-3.9 9.4c-2.1 2.2-5 3.6-8.3 3.9zm0-23.9v-1c2.8.2 5.4 1.5 7.2 3.4 2.1 2.1 3.4 5 3.4 8.3 0 3.2-1.3 6.2-3.4 8.3-1.9 1.9-4.4 3.1-7.2 3.4v-1c2.5-.2 4.8-1.4 6.5-3.1 1.9-1.9 3.1-4.6 3.1-7.6s-1.2-5.6-3.1-7.6c-1.6-1.7-3.9-2.8-6.5-3.1zm-2 21.3v1c-2.8-.2-5.4-1.5-7.2-3.4-2.1-2.1-3.4-5-3.4-8.3s1.3-6.2 3.4-8.3c1.9-1.9 4.4-3.1 7.2-3.4v1c-2.5.2-4.8 1.4-6.5 3.1-1.9 1.9-3.1 4.6-3.1 7.6s1.2 5.6 3.1 7.6c1.6 1.8 3.9 2.9 6.5 3.1zm8.2-17.8c1.8 1.8 3 4.4 3 7.2s-1.1 5.3-3 7.2c-1.6 1.6-3.8 2.7-6.2 2.9v-20.2c2.4.2 4.6 1.3 6.2 2.9zm-8.2-2.9v20.2c-2.4-.2-4.5-1.3-6.2-2.9-1.8-1.8-3-4.4-3-7.2s1.1-5.3 3-7.2c1.6-1.6 3.8-2.7 6.2-2.9zm151.7-684.1c-3 0-5.7 1.1-7.8 2.9l.7.7c1.9-1.6 4.4-2.6 7.1-2.6 3 0 5.8 1.2 7.8 3.2s3.2 4.8 3.2 7.8c0 2.7-1 5.2-2.6 7.1l.7.7c1.8-2.1 2.8-4.8 2.8-7.8 0-3.3-1.3-6.3-3.5-8.5-2.1-2.1-5.1-3.5-8.4-3.5zm-9.2 4.3c-1.8 2.1-2.8 4.8-2.8 7.7 0 3.3 1.3 6.3 3.5 8.5s5.2 3.5 8.5 3.5c2.9 0 5.6-1.1 7.7-2.8l-.7-.7c-1.9 1.6-4.4 2.5-7 2.5-3 0-5.8-1.2-7.8-3.2s-3.2-4.8-3.2-7.8c0-2.7 1-5.1 2.5-7l-.7-.7zm9.2-1.8c2.6 0 5 1.1 6.7 2.8 1.7 1.7 2.8 4.1 2.8 6.7 0 2.3-.8 4.3-2.1 6l.7.7c1.5-1.8 2.4-4.1 2.4-6.7 0-2.9-1.2-5.5-3.1-7.4-1.9-1.9-4.5-3.1-7.4-3.1-2.5 0-4.9.9-6.7 2.4l.7.7c1.7-1.3 3.7-2.1 6-2.1zm5.9 17c-1.6 1.3-3.7 2.1-5.9 2.1-2.6 0-5-1.1-6.7-2.8-1.7-1.7-2.8-4.1-2.8-6.7 0-2.2.8-4.3 2.1-5.9l-.7-.7c-1.5 1.8-2.4 4.1-2.4 6.6 0 2.9 1.2 5.5 3.1 7.4 1.9 1.9 4.5 3.1 7.4 3.1 2.5 0 4.8-.9 6.6-2.4l-.7-.7zm.4-13.8c-1.6-1.6-3.9-2.6-6.3-2.6-2.1 0-4.1.7-5.6 2l12.6 12.6c1.2-1.5 2-3.5 2-5.6 0-2.5-1-4.8-2.7-6.4zm-13.3.8c-1.2 1.5-1.9 3.5-1.9 5.5 0 2.5 1 4.7 2.6 6.3 1.6 1.6 3.9 2.6 6.3 2.6 2.1 0 4-.7 5.5-1.9l-12.5-12.5zM375.2 274.1c3.3 0 6.3 1.3 8.4 3.5 2.2 2.2 3.5 5.1 3.5 8.4 0 3.3-1.3 6.3-3.5 8.4-2.2 2.2-5.1 3.5-8.4 3.5-3.3 0-6.3-1.3-8.4-3.5-2.2-2.2-3.5-5.1-3.5-8.4 0-3.3 1.3-6.3 3.5-8.4 2.1-2.2 5.1-3.5 8.4-3.5zm-8.8 3.1c2.3-2.3 5.4-3.7 8.8-3.7 3.4 0 6.6 1.4 8.8 3.7 2.3 2.3 3.7 5.4 3.7 8.8 0 3.4-1.4 6.6-3.7 8.8-2.3 2.3-5.4 3.7-8.8 3.7-3.4 0-6.6-1.4-8.8-3.7-2.3-2.3-3.7-5.4-3.7-8.8 0-3.4 1.4-6.5 3.7-8.8zm8.8-.6c2.6 0 4.9 1.1 6.6 2.8 1.7 1.7 2.8 4.1 2.8 6.6 0 2.6-1.1 4.9-2.8 6.6-1.7 1.7-4.1 2.8-6.6 2.8s-4.9-1.1-6.6-2.8c-1.7-1.7-2.8-4.1-2.8-6.6 0-2.6 1.1-4.9 2.8-6.6 1.6-1.7 4-2.8 6.6-2.8zm6.2 3.2c1.6 1.6 2.6 3.8 2.6 6.3 0 2.4-1 4.7-2.6 6.3-1.6 1.6-3.8 2.6-6.3 2.6-2.4 0-4.7-1-6.3-2.6-1.6-1.6-2.6-3.8-2.6-6.3 0-2.4 1-4.7 2.6-6.3 1.6-1.6 3.8-2.6 6.3-2.6s4.7 1 6.3 2.6zm-6.2 17.2c-3 0-5.8-1.2-7.7-3.2-2-2-3.2-4.7-3.2-7.7s1.2-5.8 3.2-7.7c2-2 4.7-3.2 7.7-3.2s5.8 1.2 7.7 3.2c2 2 3.2 4.7 3.2 7.7s-1.2 5.8-3.2 7.7c-2 1.9-4.7 3.2-7.7 3.2zm-7.4-3.6c-1.9-1.9-3-4.5-3-7.3 0-2.9 1.2-5.5 3-7.3 1.9-1.9 4.5-3 7.3-3 2.9 0 5.5 1.2 7.3 3 1.9 1.9 3 4.5 3 7.3 0 2.9-1.2 5.5-3 7.3-1.9 1.9-4.5 3-7.3 3s-5.4-1.2-7.3-3zm233 704c3.7 0 7 1.5 9.4 3.9 2.4 2.4 3.9 5.7 3.9 9.4s-1.5 7-3.9 9.4c-2.4 2.4-5.7 3.9-9.4 3.9s-7-1.5-9.4-3.9c-2.2-2.2-3.6-5.1-3.8-8.3h1c.2 3 1.6 5.6 3.5 7.6 2.2 2.2 5.3 3.6 8.7 3.6 3.4 0 6.4-1.4 8.7-3.6 2.2-2.2 3.6-5.3 3.6-8.7 0-3.4-1.4-6.4-3.6-8.7-2.2-2.2-5.3-3.6-8.7-3.6-3.4 0-6.4 1.4-8.7 3.6-2 2-3.3 4.7-3.5 7.6h-1c.2-3.2 1.7-6.2 3.8-8.3 2.4-2.4 5.7-3.9 9.4-3.9zm-9.8 3.5c2.5-2.5 5.9-4 9.8-4 3.8 0 7.3 1.5 9.8 4 2.5 2.5 4 5.9 4 9.8 0 3.8-1.5 7.3-4 9.8-2.5 2.5-5.9 4-9.8 4-3.8 0-7.3-1.5-9.8-4-2.3-2.3-3.7-5.3-4-8.7h-21.8l-22.1 22.1V1266H541v-233.1l23.3-23.3H587c.3-3.4 1.8-6.5 4-8.7zm9.8-1c-3 0-5.6 1.2-7.6 3.1-1.7 1.7-2.8 4-3.1 6.5h-1c.2-2.8 1.5-5.4 3.4-7.2 2.1-2.1 5-3.4 8.3-3.4 3.2 0 6.2 1.3 8.3 3.4 2.1 2.1 3.4 5 3.4 8.3 0 3.2-1.3 6.2-3.4 8.3-2.1 2.1-5 3.4-8.3 3.4-3.2 0-6.2-1.3-8.3-3.4-1.9-1.9-3.1-4.4-3.4-7.2h1c.2 2.5 1.4 4.8 3.1 6.5 1.9 1.9 4.6 3.1 7.6 3.1s5.6-1.2 7.6-3.1c1.9-1.9 3.1-4.6 3.1-7.6s-1.2-5.6-3.1-7.6c-2-1.9-4.7-3.1-7.6-3.1zm7.2 3.5c1.8 1.8 3 4.4 3 7.2s-1.1 5.3-3 7.2c-1.8 1.8-4.4 3-7.2 3s-5.3-1.1-7.2-3c-1.6-1.6-2.7-3.8-2.9-6.2h3.7v-2.1h-3.7c.2-2.4 1.3-4.5 2.9-6.2 1.8-1.8 4.4-3 7.2-3 2.8.2 5.3 1.3 7.2 3.1zm167.1-182c3.2 0 6 1.3 8.1 3.3 2.1 2.1 3.3 4.9 3.3 8.1 0 3.2-1.3 6-3.3 8.1-2.1 2.1-4.9 3.3-8.1 3.3-3.2 0-6-1.3-8.1-3.3-2.1-2.1-3.3-4.9-3.3-8.1 0-3.2 1.3-6 3.3-8.1 2.1-2.1 5-3.3 8.1-3.3zm-8.4 2.9c2.2-2.2 5.2-3.5 8.5-3.5s6.3 1.3 8.5 3.5 3.5 5.2 3.5 8.5-1.3 6.3-3.5 8.5-5.2 3.5-8.5 3.5-6.3-1.3-8.5-3.5-3.5-5.2-3.5-8.5 1.3-6.3 3.5-8.5zm8.4-.4c2.4 0 4.7 1 6.3 2.6 1.6 1.6 2.6 3.8 2.6 6.3s-1 4.7-2.6 6.3c-1.6 1.6-3.8 2.6-6.3 2.6-2.4 0-4.7-1-6.3-2.6-1.6-1.6-2.6-3.8-2.6-6.3s1-4.7 2.6-6.3c1.6-1.6 3.9-2.6 6.3-2.6zm5.9 3c1.5 1.5 2.4 3.6 2.4 5.9 0 2.3-.9 4.4-2.4 5.9s-3.6 2.4-5.9 2.4c-2.3 0-4.4-.9-5.9-2.4s-2.4-3.6-2.4-5.9c0-2.3.9-4.4 2.4-5.9s3.6-2.4 5.9-2.4c2.3-.1 4.4.9 5.9 2.4zm-5.9 16.3c-2.9 0-5.5-1.2-7.4-3.1-1.9-1.9-3.1-4.5-3.1-7.4 0-2.9 1.2-5.5 3.1-7.4 1.9-1.9 4.5-3.1 7.4-3.1 2.9 0 5.5 1.2 7.4 3.1 1.9 1.9 3.1 4.5 3.1 7.4 0 2.9-1.2 5.5-3.1 7.4-1.9 1.9-4.5 3.1-7.4 3.1zm-7-3.5c-1.8-1.8-2.9-4.3-2.9-7s1.1-5.2 2.9-7c1.8-1.8 4.3-2.9 7-2.9s5.2 1.1 7 2.9c1.8 1.8 2.9 4.3 2.9 7s-1.1 5.2-2.9 7c-1.8 1.8-4.3 2.9-7 2.9s-5.2-1.1-7-2.9zm-304-18.5c3.7 0 7.1 1.5 9.5 3.9 2.4 2.4 3.9 5.8 3.9 9.5s-1.5 7.1-3.9 9.5c-2.4 2.4-5.8 3.9-9.5 3.9-3 0-5.8-1-8.1-2.7l.7-.7c2.1 1.5 4.6 2.4 7.4 2.4 3.4 0 6.5-1.4 8.8-3.7 2.3-2.3 3.7-5.4 3.7-8.8 0-3.4-1.4-6.6-3.7-8.8-2.3-2.3-5.4-3.7-8.8-3.7-3.4 0-6.5 1.4-8.8 3.7-2.3 2.3-3.7 5.4-3.7 8.8 0 3.4 1.3 6.4 3.5 8.7l-.7.7c-2.4-2.4-3.8-5.7-3.8-9.4s1.5-7.1 3.9-9.5c2.5-2.3 5.9-3.8 9.6-3.8zm-9.9 3.5c2.5-2.5 6-4.1 9.9-4.1 3.9 0 7.4 1.6 9.9 4.1 2.5 2.5 4.1 6 4.1 9.9 0 3.9-1.6 7.4-4.1 9.9-2.5 2.5-6 4.1-9.9 4.1-3.2 0-6.1-1.1-8.5-2.9l-7.3 7.3v413h-2.1V852.1l7.8-7.8c-2.5-2.5-4-6-4-9.8.1-3.8 1.7-7.3 4.2-9.8zm9.9-1c-3 0-5.7 1.2-7.7 3.2s-3.2 4.7-3.2 7.7c0 2.9 1.2 5.6 3.1 7.6l-.7.7c-2.1-2.1-3.4-5.1-3.4-8.3 0-3.3 1.3-6.3 3.5-8.4 2.2-2.2 5.1-3.5 8.4-3.5 3.3 0 6.3 1.3 8.4 3.5 2.2 2.2 3.5 5.1 3.5 8.4 0 3.3-1.3 6.3-3.5 8.4-2.2 2.2-5.1 3.5-8.4 3.5-2.6 0-5-.8-7-2.3l.7-.7c1.8 1.3 3.9 2 6.3 2 3 0 5.7-1.2 7.7-3.2s3.2-4.7 3.2-7.7-1.2-5.7-3.2-7.7-4.7-3.2-7.7-3.2zm7.3 3.6c1.9 1.9 3 4.5 3 7.3 0 2.9-1.2 5.5-3 7.3-1.9 1.9-4.5 3-7.3 3-2.2 0-4.2-.7-5.9-1.8l2.4-2.4-1.5-1.5-2.5 2.5c-1.8-1.9-2.9-4.4-2.9-7.2 0-2.9 1.2-5.5 3-7.3 1.9-1.9 4.5-3 7.3-3 3 0 5.6 1.2 7.4 3.1zm43.7 16c3.7 0 7.1 1.5 9.5 3.9 2.4 2.4 3.9 5.8 3.9 9.5 0 3.4-1.3 6.5-3.3 8.9l-.7-.7c1.9-2.2 3.1-5 3.1-8.2 0-3.4-1.4-6.6-3.7-8.8-2.3-2.3-5.4-3.7-8.8-3.7-3.4 0-6.5 1.4-8.8 3.7-2.3 2.3-3.7 5.4-3.7 8.8 0 3.4 1.4 6.5 3.7 8.8 2.3 2.3 5.4 3.7 8.8 3.7 3 0 5.8-1.1 7.9-2.9l.7.7c-2.3 2-5.4 3.1-8.6 3.1-3.7 0-7.1-1.5-9.5-3.9-2.4-2.4-3.9-5.8-3.9-9.5s1.5-7.1 3.9-9.5c2.5-2.4 5.8-3.9 9.5-3.9zm0 2.6c-3 0-5.7 1.2-7.7 3.2s-3.2 4.7-3.2 7.7 1.2 5.7 3.2 7.7 4.7 3.2 7.7 3.2c2.6 0 5-.9 6.8-2.4l.7.7c-2.1 1.7-4.7 2.7-7.5 2.7-3.3 0-6.3-1.3-8.4-3.5-2.2-2.2-3.5-5.1-3.5-8.4 0-3.3 1.3-6.3 3.5-8.4 2.2-2.2 5.1-3.5 8.4-3.5 3.3 0 6.3 1.3 8.4 3.5 2.2 2.2 3.5 5.1 3.5 8.4 0 3-1.1 5.7-2.9 7.8l-.7-.7c1.6-1.9 2.6-4.4 2.6-7.1 0-3-1.2-5.7-3.2-7.7-1.9-2-4.7-3.2-7.7-3.2zm7.4 3.5c1.9 1.9 3 4.5 3 7.3 0 2.5-.9 4.9-2.4 6.7l-3.6-3.6-1.4 1.5 3.6 3.6c-1.8 1.4-4 2.3-6.4 2.3-2.9 0-5.5-1.2-7.3-3-1.9-1.9-3-4.5-3-7.3 0-2.9 1.2-5.5 3-7.3 1.9-1.9 4.5-3 7.3-3 2.7-.2 5.3 1 7.2 2.8zm119.3 53.1c3.7 0 7.1 1.5 9.5 3.9 2.4 2.4 3.9 5.8 3.9 9.5s-1.5 7.1-3.9 9.5c-2.4 2.4-5.8 3.9-9.5 3.9-3.2 0-6.2-1.1-8.5-3.1l.7-.7c2.1 1.7 4.9 2.8 7.8 2.8 3.4 0 6.5-1.4 8.8-3.7 2.3-2.3 3.7-5.4 3.7-8.8 0-3.4-1.4-6.6-3.7-8.8-2.3-2.3-5.4-3.7-8.8-3.7-3.4 0-6.5 1.4-8.8 3.7-2.3 2.3-3.7 5.4-3.7 8.8 0 3.2 1.2 6.1 3.1 8.3l-.7.7c-2.1-2.4-3.4-5.5-3.4-9 0-3.7 1.5-7.1 3.9-9.5 2.6-2.3 5.9-3.8 9.6-3.8zm0 2.5c-3 0-5.7 1.2-7.7 3.2s-3.2 4.7-3.2 7.7c0 2.7 1 5.3 2.7 7.2l-.7.7c-1.9-2.1-3-4.9-3-7.9 0-3.3 1.3-6.3 3.5-8.4 2.2-2.2 5.1-3.5 8.4-3.5 3.3 0 6.3 1.3 8.4 3.5 2.2 2.2 3.5 5.1 3.5 8.4 0 3.3-1.3 6.3-3.5 8.4-2.2 2.2-5.1 3.5-8.4 3.5-2.8 0-5.4-1-7.4-2.6l.7-.7c1.9 1.5 4.2 2.3 6.7 2.3 3 0 5.7-1.2 7.7-3.2s3.2-4.7 3.2-7.7-1.2-5.7-3.2-7.7c-1.9-2-4.6-3.2-7.7-3.2zm7.4 3.6c1.9 1.9 3 4.5 3 7.3s-1.2 5.5-3 7.3c-1.9 1.9-4.5 3-7.3 3-2.4 0-4.6-.8-6.3-2.2l3.4-3.4-1.4-1.5-3.4 3.4c-1.6-1.8-2.5-4.2-2.5-6.8 0-2.9 1.2-5.4 3-7.3 1.9-1.9 4.5-3 7.3-3 2.7.1 5.3 1.3 7.2 3.2zm224-411.1l-.7-.7c-1.9 1.7-4.5 2.8-7.3 2.8-3 0-5.8-1.2-7.8-3.2s-3.2-4.8-3.2-7.8 1.2-5.8 3.2-7.8 4.8-3.2 7.8-3.2 5.8 1.2 7.8 3.2 3.2 4.8 3.2 7.8c0 2.6-.9 4.9-2.3 6.8l.7.7c1.6-2.1 2.6-4.7 2.6-7.5 0-3.3-1.3-6.3-3.5-8.5s-5.2-3.5-8.5-3.5-6.3 1.3-8.5 3.5-3.5 5.2-3.5 8.5 1.3 6.3 3.5 8.5 5.2 3.5 8.5 3.5c3.1-.1 5.9-1.2 8-3.1zm-8-18.5c2.6 0 5 1.1 6.7 2.8 1.7 1.7 2.8 4.1 2.8 6.7 0 2.1-.7 4.1-1.9 5.7l.7.7c1.4-1.8 2.2-4 2.2-6.4 0-2.9-1.2-5.5-3.1-7.4-1.9-1.9-4.5-3.1-7.4-3.1-2.9 0-5.5 1.2-7.4 3.1-1.9 1.9-3.1 4.5-3.1 7.4s1.2 5.5 3.1 7.4c1.9 1.9 4.5 3.1 7.4 3.1 2.6 0 5.1-1 6.9-2.6l-.7-.7c-1.7 1.4-3.8 2.3-6.2 2.3-2.6 0-5-1.1-6.7-2.8-1.7-1.7-2.8-4.1-2.8-6.7 0-2.6 1.1-5 2.8-6.7 1.7-1.7 4.1-2.8 6.7-2.8zm6.3 3.2c-1.6-1.6-3.9-2.6-6.3-2.6-2.5 0-4.7 1-6.3 2.6-1.6 1.6-2.6 3.9-2.6 6.3 0 2.5 1 4.7 2.6 6.3 1.6 1.6 3.9 2.6 6.3 2.6 2.2 0 4.3-.8 5.8-2.2l-2.5-2.5 1.5-1.5 2.5 2.5c1.1-1.5 1.7-3.3 1.7-5.3-.1-2.4-1.1-4.6-2.7-6.2zM805 342.5c3.9 0 7.4 1.6 9.9 4.1 2.5 2.5 4.1 6 4.1 9.9 0 3.9-1.6 7.4-4.1 9.9-2.3 2.3-5.4 3.8-8.9 4.1v-1c3.2-.2 6-1.6 8.2-3.8 2.3-2.4 3.8-5.6 3.8-9.2 0-3.6-1.5-6.8-3.8-9.2-2.4-2.4-5.6-3.8-9.2-3.8-3.6 0-6.8 1.5-9.2 3.8-2.4 2.4-3.8 5.6-3.8 9.2 0 3.6 1.5 6.8 3.8 9.2 2.1 2.1 5 3.5 8.2 3.8v1c-3.5-.3-6.6-1.8-8.9-4.1-2.5-2.5-4.1-6-4.1-9.9 0-3.9 1.6-7.4 4.1-9.9 2.6-2.5 6.1-4.1 9.9-4.1zm-10.2 3.7c-2.6 2.6-4.3 6.3-4.3 10.3 0 4 1.6 7.6 4.3 10.3 2.4 2.4 5.6 4 9.2 4.2v165l9.6 9.6h108.7l189.1 189.1V1266h2.1V734L923.2 543.6H814.5l-8.4-8.4V371c3.6-.3 6.8-1.8 9.2-4.2 2.6-2.6 4.3-6.3 4.3-10.3 0-4-1.6-7.6-4.3-10.3-2.6-2.6-6.3-4.3-10.3-4.3-4 .1-7.6 1.7-10.2 4.3zM805 345c-3.2 0-6 1.3-8.1 3.4-2.1 2.1-3.4 4.9-3.4 8.1 0 3.2 1.3 6 3.4 8.1 1.8 1.8 4.3 3.1 7.1 3.3v1c-3-.2-5.7-1.6-7.8-3.6-2.3-2.3-3.6-5.4-3.6-8.8 0-3.4 1.4-6.5 3.6-8.8 2.3-2.3 5.4-3.6 8.8-3.6 3.4 0 6.5 1.4 8.8 3.6 2.3 2.3 3.6 5.4 3.6 8.8 0 3.4-1.4 6.5-3.6 8.8-2 2-4.7 3.4-7.8 3.6v-1c2.7-.2 5.2-1.5 7.1-3.3 2.1-2.1 3.4-4.9 3.4-8.1 0-3.2-1.3-6-3.4-8.1-2.1-2.1-4.9-3.4-8.1-3.4zm7.7 3.8c2 2 3.2 4.7 3.2 7.7s-1.2 5.7-3.2 7.7c-1.7 1.7-4.1 2.9-6.7 3.1v-7.8h-2v7.8c-2.6-.2-4.9-1.4-6.7-3.1-2-2-3.2-4.7-3.2-7.7s1.2-5.7 3.2-7.7 4.7-3.2 7.7-3.2 5.8 1.2 7.7 3.2zm29.5 41.3c-3.9 0-7.4 1.6-9.9 4.1-2.5 2.5-4.1 6-4.1 9.9 0 3.9 1.6 7.3 4.1 9.9l.7-.7c-2.3-2.4-3.8-5.6-3.8-9.2 0-3.6 1.5-6.8 3.8-9.2 2.4-2.4 5.6-3.8 9.2-3.8 3.6 0 6.8 1.5 9.2 3.8 2.4 2.4 3.8 5.6 3.8 9.2 0 3.6-1.5 6.8-3.8 9.2-2.3 2.4-5.6 3.8-9.2 3.8-2.9 0-5.5-.9-7.6-2.5l-.7.7c2.3 1.7 5.2 2.8 8.3 2.8 3.9 0 7.4-1.6 9.9-4.1 2.5-2.5 4.1-6 4.1-9.9 0-3.9-1.6-7.4-4.1-9.9-2.5-2.5-6-4.1-9.9-4.1zm-10.3 3.7c-2.6 2.6-4.3 6.3-4.3 10.3 0 4 1.6 7.6 4.2 10.3l-10.2 10.2v97.6l9.6 9.6h98.1l196.8 196.8V1266h2.1V727.7l-198-198h-98.1l-8.4-8.4v-95.9l9.7-9.7c2.4 1.8 5.5 2.9 8.7 2.9 4 0 7.6-1.6 10.3-4.3 2.6-2.6 4.3-6.3 4.3-10.3 0-4-1.6-7.6-4.3-10.3-2.6-2.6-6.3-4.3-10.3-4.3-3.9.2-7.5 1.8-10.2 4.4zm10.3-1.1c3.2 0 6 1.3 8.1 3.4 2.1 2.1 3.4 4.9 3.4 8.1 0 3.2-1.3 6-3.4 8.1-2.1 2.1-4.9 3.4-8.1 3.4-2.4 0-4.7-.8-6.5-2.1l-.7.7c2 1.5 4.5 2.3 7.2 2.3 3.4 0 6.5-1.4 8.8-3.6 2.2-2.3 3.6-5.4 3.6-8.8 0-3.4-1.4-6.5-3.6-8.8-2.3-2.2-5.4-3.6-8.8-3.6-3.4 0-6.5 1.4-8.8 3.6-2.3 2.3-3.6 5.4-3.6 8.8 0 3.4 1.4 6.5 3.6 8.8l.7-.7c-2.1-2.1-3.3-4.9-3.3-8.1 0-3.2 1.3-6 3.4-8.1 2-2.2 4.9-3.4 8-3.4zm7.7 3.7c2 2 3.2 4.7 3.2 7.7s-1.2 5.7-3.2 7.7-4.7 3.2-7.7 3.2c-2.3 0-4.4-.7-6.1-1.9l5.8-5.8-1.5-1.5-5.9 5.9c-2-2-3.2-4.7-3.2-7.7s1.2-5.7 3.2-7.7 4.7-3.2 7.7-3.2c3 .1 5.7 1.3 7.7 3.3zM704 391.8c3.5 0 6.7 1.4 9.1 3.8 2.3 2.3 3.8 5.5 3.8 9.1 0 3.5-1.4 6.7-3.8 9.1-2.1 2.1-5 3.5-8.2 3.7v-1c2.9-.2 5.6-1.5 7.5-3.4 2.1-2.1 3.5-5.1 3.5-8.4 0-3.3-1.3-6.2-3.5-8.4-2.1-2.1-5.1-3.5-8.4-3.5-3.3 0-6.2 1.3-8.4 3.5-2.1 2.1-3.5 5.1-3.5 8.4 0 3.3 1.3 6.2 3.5 8.4 1.9 1.9 4.4 3.1 7.2 3.4v1c-3.1-.3-5.8-1.6-7.9-3.7-2.3-2.3-3.8-5.5-3.8-9.1 0-3.5 1.4-6.7 3.8-9.1 2.4-2.4 5.6-3.8 9.1-3.8zm-9.4 3.3c-2.4 2.4-3.9 5.8-3.9 9.5s1.5 7 3.9 9.5c2.2 2.2 5 3.6 8.3 3.9v55.6l-32.7 32.7v54.5l43.3 43.3 174.7.1 162.9 162.9V1266h2.1V766.2C998.4 711.6 943.7 656.8 889 602.1l-174.7-.1-42.1-42.1v-52.8l32.7-32.7V418c3.4-.2 6.4-1.7 8.6-3.9 2.4-2.4 3.9-5.8 3.9-9.5s-1.5-7-3.9-9.5c-2.4-2.4-5.8-3.9-9.5-3.9s-7 1.5-9.4 3.9zm9.4-.8c-2.8 0-5.4 1.2-7.3 3-1.9 1.9-3 4.4-3 7.3 0 2.8 1.2 5.4 3 7.3 1.6 1.6 3.7 2.7 6.1 3v1c-2.6-.3-5-1.5-6.8-3.2-2-2-3.3-4.9-3.3-8 0-3.1 1.3-5.9 3.3-8 2-2 4.9-3.3 8-3.3 3.1 0 5.9 1.3 8 3.3 2 2 3.3 4.9 3.3 8 0 3.1-1.3 5.9-3.3 8-1.9 1.9-4.3 3.1-7.1 3.3v-1c2.5-.2 4.7-1.3 6.4-3 1.9-1.9 3-4.4 3-7.3 0-2.8-1.2-5.4-3-7.3-1.9-2-4.4-3.1-7.3-3.1zm6.9 3.4c1.8 1.8 2.9 4.2 2.9 6.9s-1.1 5.1-2.9 6.9c-1.6 1.6-3.7 2.6-6 2.8v-4.7h-2.1v4.7c-2.2-.3-4.2-1.3-5.7-2.8-1.8-1.8-2.9-4.2-2.9-6.9s1.1-5.1 2.9-6.9c1.8-1.8 4.2-2.9 6.9-2.9s5.1 1.1 6.9 2.9zm52.8-5.9c3.5 0 6.8 1.4 9.1 3.8 2.3 2.3 3.8 5.5 3.8 9.1 0 3.5-1.4 6.7-3.8 9.1-2.3 2.3-5.5 3.8-9.1 3.8-3.5 0-6.7-1.4-9.1-3.8-2.3-2.3-3.8-5.5-3.8-9.1 0-3.5 1.4-6.7 3.8-9.1 2.4-2.4 5.6-3.8 9.1-3.8zm-9.5 3.3c2.4-2.4 5.8-3.9 9.5-3.9s7 1.5 9.5 3.9c2.4 2.4 3.9 5.8 3.9 9.5s-1.5 7-3.9 9.5c-2.4 2.4-5.8 3.9-9.5 3.9s-7-1.5-9.5-3.9c-2.4-2.4-3.9-5.8-3.9-9.5s1.5-7 3.9-9.5zm9.5-.8c2.8 0 5.4 1.2 7.3 3 1.9 1.9 3 4.4 3 7.3 0 2.8-1.2 5.4-3 7.3-1.9 1.9-4.4 3-7.3 3-2.8 0-5.4-1.2-7.3-3-1.9-1.9-3-4.4-3-7.3 0-2.8 1.2-5.4 3-7.3 1.9-1.9 4.5-3 7.3-3zm6.9 3.4c1.8 1.8 2.9 4.2 2.9 6.9s-1.1 5.1-2.9 6.9c-1.8 1.8-4.2 2.9-6.9 2.9s-5.1-1.1-6.9-2.9c-1.8-1.8-2.9-4.2-2.9-6.9s1.1-5.1 2.9-6.9c1.8-1.8 4.2-2.9 6.9-2.9s5.1 1.1 6.9 2.9zm-6.9 18.7c-3.3 0-6.2-1.3-8.4-3.5-2.1-2.1-3.5-5.1-3.5-8.4 0-3.3 1.3-6.2 3.5-8.4 2.1-2.1 5.1-3.5 8.4-3.5 3.3 0 6.2 1.3 8.4 3.5 2.1 2.1 3.5 5.1 3.5 8.4 0 3.3-1.3 6.2-3.5 8.4s-5.1 3.5-8.4 3.5zm-8-3.8c-2-2-3.3-4.9-3.3-8 0-3.1 1.3-5.9 3.3-8 2-2 4.9-3.3 8-3.3 3.1 0 5.9 1.3 8 3.3 2 2 3.3 4.9 3.3 8 0 3.1-1.3 5.9-3.3 8-2 2-4.9 3.3-8 3.3-3.1 0-5.9-1.3-8-3.3zm-260.6-33c3.3 0 6.3 1.3 8.4 3.5 2.2 2.2 3.5 5.1 3.5 8.4 0 3.3-1.3 6.3-3.5 8.4-2.2 2.2-5.1 3.5-8.4 3.5-3.3 0-6.3-1.3-8.4-3.5-2.2-2.2-3.5-5.1-3.5-8.4 0-3.3 1.3-6.3 3.5-8.4 2.1-2.2 5.1-3.5 8.4-3.5zm-8.8 3.1c2.3-2.3 5.4-3.7 8.8-3.7 3.4 0 6.6 1.4 8.8 3.7 2.3 2.3 3.7 5.4 3.7 8.8s-1.4 6.6-3.7 8.8c-2.3 2.3-5.4 3.7-8.8 3.7-3.4 0-6.6-1.4-8.8-3.7-2.3-2.3-3.7-5.4-3.7-8.8 0-3.5 1.4-6.6 3.7-8.8zm8.8-.6c2.6 0 4.9 1.1 6.6 2.8 1.7 1.7 2.8 4.1 2.8 6.6 0 2.6-1.1 4.9-2.8 6.6-1.7 1.7-4.1 2.8-6.6 2.8-2.6 0-4.9-1.1-6.6-2.8-1.7-1.7-2.8-4.1-2.8-6.6 0-2.6 1.1-4.9 2.8-6.6 1.7-1.8 4-2.8 6.6-2.8zm6.3 3.1c1.6 1.6 2.6 3.8 2.6 6.3 0 2.4-1 4.7-2.6 6.3-1.6 1.6-3.8 2.6-6.3 2.6-2.4 0-4.7-1-6.3-2.6-1.6-1.6-2.6-3.8-2.6-6.3 0-2.4 1-4.7 2.6-6.3 1.6-1.6 3.8-2.6 6.3-2.6s4.7 1 6.3 2.6zm-6.3 17.2c-3 0-5.8-1.2-7.7-3.2-2-2-3.2-4.7-3.2-7.7s1.2-5.8 3.2-7.7c2-2 4.7-3.2 7.7-3.2s5.8 1.2 7.7 3.2c2 2 3.2 4.7 3.2 7.7s-1.2 5.8-3.2 7.7c-1.9 2-4.7 3.2-7.7 3.2zm-7.3-3.6c-1.9-1.9-3-4.5-3-7.3 0-2.9 1.2-5.5 3-7.3 1.9-1.9 4.5-3 7.3-3 2.9 0 5.5 1.2 7.3 3 1.9 1.9 3 4.5 3 7.3 0 2.9-1.2 5.5-3 7.3-1.9 1.9-4.5 3-7.3 3-2.8.1-5.4-1.1-7.3-3zm-164.3 171c-3.7 0-7 1.5-9.4 3.9-2.4 2.4-3.9 5.7-3.9 9.4s1.5 7 3.9 9.4c2.4 2.4 5.7 3.9 9.4 3.9s7-1.5 9.4-3.9c2.4-2.4 3.9-5.7 3.9-9.4s-1.5-7-3.9-9.4c-2.4-2.4-5.7-3.9-9.4-3.9zm-9.8 3.5c-2.5 2.5-4.1 6-4.1 9.8 0 3.8 1.6 7.3 4.1 9.8 2.5 2.5 6 4.1 9.8 4.1 3.8 0 7.3-1.6 9.8-4.1 2.5-2.5 4.1-6 4.1-9.8 0-3.8-1.6-7.3-4.1-9.8-2.5-2.5-6-4.1-9.8-4.1-3.8.1-7.3 1.6-9.8 4.1zm9.8-.9c-3 0-5.7 1.2-7.6 3.2-2 2-3.2 4.6-3.2 7.6s1.2 5.7 3.2 7.6c2 2 4.6 3.2 7.6 3.2s5.7-1.2 7.6-3.2c2-2 3.2-4.6 3.2-7.6s-1.2-5.7-3.2-7.6c-1.9-2-4.6-3.2-7.6-3.2zm7.3 3.5c1.9 1.9 3 4.4 3 7.2s-1.1 5.4-3 7.2c-1.8 1.9-4.4 3-7.2 3s-5.4-1.1-7.2-3c-1.9-1.9-3-4.4-3-7.2s1.1-5.4 3-7.2c1.9-1.9 4.4-3 7.2-3s5.3 1.2 7.2 3zm48.7-108.5c-3.7 0-7 1.5-9.4 3.9-2.4 2.4-3.9 5.7-3.9 9.4s1.5 7 3.9 9.4c2.4 2.4 5.7 3.9 9.4 3.9 3.1 0 6-1.1 8.3-2.9l-.7-.7c-2.1 1.6-4.7 2.6-7.5 2.6-3.4 0-6.5-1.4-8.7-3.6-2.2-2.2-3.6-5.3-3.6-8.7 0-3.4 1.4-6.5 3.6-8.7 2.2-2.2 5.3-3.6 8.7-3.6 3.4 0 6.5 1.4 8.7 3.6 2.2 2.2 3.6 5.3 3.6 8.7 0 3.2-1.2 6.2-3.3 8.4l.7.7c2.2-2.4 3.6-5.6 3.6-9.1 0-3.7-1.5-7-3.9-9.4-2.5-2.4-5.8-3.9-9.5-3.9zm0 2.6c3 0 5.7 1.2 7.6 3.2 2 2 3.2 4.7 3.2 7.6 0 2.8-1.1 5.3-2.8 7.3l.7.7c1.9-2.1 3.1-4.9 3.1-8 0-3.2-1.3-6.2-3.4-8.3-2.1-2.1-5.1-3.5-8.3-3.5-3.2 0-6.2 1.3-8.3 3.5-2.1 2.1-3.5 5.1-3.5 8.3 0 3.2 1.3 6.2 3.5 8.3 2.1 2.1 5.1 3.4 8.3 3.4 2.7 0 5.2-.9 7.2-2.4l-.7-.7c-1.8 1.3-4 2.1-6.4 2.1-3 0-5.7-1.2-7.6-3.2-2-2-3.2-4.6-3.2-7.6s1.2-5.7 3.2-7.6c1.7-1.9 4.4-3.1 7.4-3.1zm7.2 3.5c-1.9-1.9-4.4-3-7.2-3s-5.4 1.1-7.2 3c-1.9 1.8-3 4.4-3 7.2s1.1 5.4 3 7.2c1.9 1.9 4.4 3 7.2 3 2.3 0 4.4-.7 6.1-2l-2.1-2.1 1.5-1.4 2.2 2.2c1.6-1.8 2.7-4.2 2.7-6.9-.2-2.8-1.3-5.3-3.2-7.2zM369 374.9c-3.7 0-7 1.5-9.4 3.9-2.4 2.4-3.9 5.7-3.9 9.4 0 2.7.8 5.2 2.2 7.4l.7-.7c-1.2-1.9-1.9-4.2-1.9-6.6 0-3.4 1.4-6.5 3.6-8.7 2.2-2.2 5.3-3.6 8.7-3.6 3.4 0 6.5 1.4 8.7 3.6 2.2 2.2 3.6 5.3 3.6 8.7 0 3.4-1.4 6.5-3.6 8.7-2.2 2.2-5.3 3.6-8.7 3.6-3.4 0-6.5-1.4-8.7-3.6l-.4-.4-.7.7.4.4c2.4 2.4 5.7 3.9 9.4 3.9s7-1.5 9.4-3.9c2.4-2.4 3.9-5.7 3.9-9.4s-1.5-7-3.9-9.4c-2.4-2.6-5.7-4-9.4-4zm-9.8 3.5c-2.5 2.5-4.1 6-4.1 9.8 0 2.9.9 5.5 2.4 7.7l-6.2 6.2V488l59.6 59.6V804l17.3 17.3V1266h2.1V820.5L413 803.1V546.8l-59.6-59.6V403l5.4-5.4.4.4c2.5 2.5 6 4.1 9.8 4.1 3.8 0 7.3-1.6 9.8-4.1 2.5-2.5 4.1-6 4.1-9.8 0-3.8-1.6-7.3-4.1-9.8-2.5-2.5-6-4.1-9.8-4.1-3.8 0-7.3 1.6-9.8 4.1zm9.8-1c3 0 5.7 1.2 7.6 3.2 2 2 3.2 4.7 3.2 7.6 0 3-1.2 5.7-3.2 7.6-2 2-4.6 3.2-7.6 3.2s-5.7-1.2-7.6-3.2l-.4-.4-.7.7.4.4c2.1 2.1 5.1 3.5 8.3 3.5 3.2 0 6.2-1.3 8.3-3.5 2.1-2.1 3.5-5.1 3.5-8.3 0-3.2-1.3-6.2-3.5-8.3-2.1-2.1-5.1-3.5-8.3-3.5-3.2 0-6.2 1.3-8.3 3.5-2.1 2.1-3.5 5.1-3.5 8.3 0 2.3.7 4.4 1.8 6.2l.7-.7c-1-1.6-1.5-3.5-1.5-5.5 0-3 1.2-5.7 3.2-7.6 1.9-2 4.6-3.2 7.6-3.2zm7.2 3.5c-1.9-1.9-4.4-3-7.2-3s-5.4 1.1-7.2 3c-1.9 1.9-3 4.4-3 7.2 0 1.9.5 3.6 1.4 5.1l.3-.3 1.5 1.5-.5.5.4.4c1.9 1.9 4.4 3 7.2 3s5.4-1.1 7.2-3c1.9-1.9 3-4.4 3-7.2-.1-2.8-1.2-5.3-3.1-7.2zm14.6-68.6c-3.7 0-7 1.5-9.4 3.9-2.4 2.4-3.9 5.7-3.9 9.4s1.5 7 3.9 9.4c2.4 2.4 5.7 3.9 9.4 3.9 2.7 0 5.3-.8 7.4-2.2l-.7-.7c-1.9 1.2-4.2 2-6.6 2-3.4 0-6.5-1.4-8.7-3.6-2.2-2.2-3.6-5.3-3.6-8.7 0-3.4 1.4-6.5 3.6-8.7 2.2-2.2 5.3-3.6 8.7-3.6 3.4 0 6.5 1.4 8.7 3.6 2.2 2.2 3.6 5.3 3.6 8.7 0 3.4-1.4 6.5-3.6 8.7l-.4.4.7.7.4-.4c2.4-2.4 3.9-5.7 3.9-9.4s-1.5-7-3.9-9.4c-2.5-2.5-5.8-4-9.5-4zm0 2.5c-3 0-5.7 1.2-7.6 3.2-2 2-3.2 4.7-3.2 7.6 0 3 1.2 5.7 3.2 7.6 2 2 4.7 3.2 7.6 3.2 3 0 5.7-1.2 7.6-3.2 2-2 3.2-4.7 3.2-7.6 0-3-1.2-5.7-3.2-7.6-1.9-2-4.6-3.2-7.6-3.2zm7.2 3.6c-1.9-1.9-4.4-3-7.2-3s-5.4 1.1-7.2 3c-1.9 1.9-3 4.4-3 7.2s1.1 5.4 3 7.2c1.9 1.9 4.4 3 7.2 3s5.4-1.1 7.2-3c1.9-1.9 3-4.4 3-7.2s-1.1-5.4-3-7.2zm-15.5 15.5c2.1 2.1 5.1 3.5 8.3 3.5 3.2 0 6.2-1.3 8.3-3.5 2.1-2.1 3.5-5.1 3.5-8.3 0-3.2-1.3-6.2-3.5-8.3-2.1-2.1-5.1-3.5-8.3-3.5-3.2 0-6.2 1.3-8.3 3.5-2.1 2.1-3.5 5.1-3.5 8.3 0 3.2 1.4 6.2 3.5 8.3zm84.3-2.9c3.7 0 7 1.5 9.4 3.9 2.4 2.4 3.9 5.7 3.9 9.4s-1.5 7-3.9 9.4c-2.2 2.2-5.1 3.6-8.4 3.9v-1c3-.2 5.7-1.6 7.7-3.6 2.2-2.2 3.6-5.3 3.6-8.7 0-3.4-1.4-6.5-3.6-8.7-2.2-2.2-5.3-3.6-8.7-3.6-3.4 0-6.5 1.4-8.7 3.6-2.2 2.2-3.6 5.3-3.6 8.7 0 3.4 1.4 6.5 3.6 8.7 2 2 4.7 3.3 7.7 3.6v1c-3.3-.2-6.2-1.7-8.4-3.9-2.4-2.4-3.9-5.7-3.9-9.4s1.5-7 3.9-9.4c2.4-2.4 5.7-3.9 9.4-3.9zm0 2.5c3 0 5.7 1.2 7.6 3.2 2 2 3.2 4.6 3.2 7.6s-1.2 5.7-3.2 7.6c-2 2-4.7 3.2-7.6 3.2-3 0-5.7-1.2-7.6-3.2-2-2-3.2-4.7-3.2-7.6 0-3 1.2-5.7 3.2-7.6 1.9-2 4.6-3.2 7.6-3.2zm7.2 3.6c1.9 1.9 3 4.4 3 7.2s-1.1 5.4-3 7.2c-1.9 1.9-4.4 3-7.2 3s-5.4-1.1-7.2-3c-1.9-1.9-3-4.4-3-7.2s1.1-5.4 3-7.2c1.9-1.9 4.4-3 7.2-3s5.4 1.1 7.2 3zm-15.5 15.5c-2.1-2.1-3.5-5.1-3.5-8.3 0-3.2 1.3-6.2 3.5-8.3 2.1-2.1 5.1-3.5 8.3-3.5 3.2 0 6.2 1.3 8.3 3.5 2.1 2.1 3.5 5.1 3.5 8.3 0 3.2-1.3 6.2-3.5 8.3-1.9 1.9-4.5 3.2-7.3 3.4v-.7h-2.1v.7c-2.8-.2-5.3-1.5-7.2-3.4zm36.6 67.3c3.7 0 7 1.5 9.4 3.9 2.4 2.4 3.9 5.7 3.9 9.4s-1.5 7-3.9 9.4c-2.2 2.2-5.1 3.6-8.4 3.9v-1c3-.2 5.7-1.6 7.7-3.6 2.2-2.2 3.6-5.3 3.6-8.7 0-3.4-1.4-6.5-3.6-8.7-2.2-2.2-5.3-3.6-8.7-3.6-3.4 0-6.5 1.4-8.7 3.6-2.2 2.2-3.6 5.3-3.6 8.7 0 3.4 1.4 6.5 3.6 8.7 2 2 4.7 3.3 7.7 3.6v1c-3.3-.2-6.2-1.7-8.4-3.9-2.4-2.4-3.9-5.7-3.9-9.4s1.5-7 3.9-9.4c2.4-2.4 5.7-3.9 9.4-3.9zm-9.8 3.5c-2.5 2.5-4.1 6-4.1 9.8 0 3.8 1.6 7.3 4.1 9.8 2.3 2.3 5.4 3.8 8.8 4v30.4l35.4 35.4v165.8l46.5 46.5h241.4L925 832.8V1266h2.1V831.9L818.2 723.1H576.8l-45.3-45.3V511.9l-35.4-35.4V447c3.4-.3 6.5-1.7 8.8-4 2.5-2.5 4.1-6 4.1-9.8 0-3.8-1.6-7.3-4.1-9.8-2.5-2.5-6-4.1-9.8-4.1-3.8 0-7.3 1.6-9.8 4.1zm9.8-1c-3 0-5.7 1.2-7.6 3.2-2 2-3.2 4.7-3.2 7.6 0 3 1.2 5.7 3.2 7.6 1.7 1.7 4 2.9 6.6 3.1v1c-2.8-.2-5.4-1.5-7.3-3.4-2.1-2.1-3.5-5.1-3.5-8.3 0-3.2 1.3-6.2 3.5-8.3 2.1-2.1 5.1-3.5 8.3-3.5 3.2 0 6.2 1.3 8.3 3.5 2.1 2.1 3.4 5.1 3.4 8.3 0 3.2-1.3 6.2-3.5 8.3-1.9 1.9-4.5 3.2-7.3 3.4v-1c2.6-.2 4.9-1.4 6.6-3.1 2-2 3.2-4.6 3.2-7.6s-1.2-5.7-3.2-7.6c-1.8-2-4.5-3.2-7.5-3.2zm7.3 3.6c1.9 1.9 3 4.4 3 7.2s-1.1 5.4-3 7.2c-1.6 1.6-3.8 2.7-6.2 2.9v-1.2h-2.1v1.2c-2.4-.2-4.6-1.3-6.2-2.9-1.9-1.9-3-4.4-3-7.2s1.1-5.4 3-7.2c1.9-1.9 4.4-3 7.2-3s5.4 1.1 7.3 3zm111 213.1c4 0 7.6 1.6 10.2 4.2 2.6 2.6 4.2 6.2 4.2 10.2 0 3.1-1 6-2.7 8.4l-.7-.7c1.5-2.2 2.4-4.8 2.4-7.6 0-3.7-1.5-7.1-4-9.5-2.4-2.4-5.8-3.9-9.5-3.9s-7.1 1.5-9.5 4c-2.4 2.4-3.9 5.8-3.9 9.5s1.5 7.1 4 9.5c2.4 2.4 5.8 4 9.5 4s7.1-1.5 9.5-4l.3-.3.7.7-.3.3c-2.6 2.6-6.2 4.2-10.2 4.2-4 0-7.6-1.6-10.2-4.2-2.6-2.6-4.2-6.2-4.2-10.2 0-4 1.6-7.6 4.2-10.2 2.6-2.8 6.2-4.4 10.2-4.4zm-10.7 3.9c-2.7 2.7-4.4 6.5-4.4 10.6s1.7 7.9 4.4 10.6c2.7 2.7 6.5 4.4 10.6 4.4s7.9-1.7 10.6-4.4l.3-.3 11.9 11.9 211.1.1L973 801.6V1266h2.1V800.8l-127-126.9-211.1-.1-11.5-11.5c1.8-2.5 2.8-5.5 2.8-8.8 0-4.1-1.7-7.9-4.4-10.6-2.7-2.7-6.5-4.4-10.6-4.4-4.1.1-7.8 1.7-10.6 4.5zm10.7-1.4c-3.3 0-6.3 1.3-8.4 3.5-2.2 2.2-3.5 5.1-3.5 8.4 0 3.3 1.3 6.3 3.5 8.4 2.2 2.2 5.1 3.5 8.4 3.5 3.3 0 6.3-1.3 8.4-3.5l.3-.3.7.7-.3.3c-2.3 2.3-5.6 3.8-9.1 3.8-3.6 0-6.8-1.5-9.1-3.8s-3.8-5.6-3.8-9.1c0-3.6 1.4-6.8 3.8-9.1 2.3-2.3 5.6-3.8 9.1-3.8 3.6 0 6.8 1.5 9.1 3.8s3.8 5.6 3.8 9.1c0 2.7-.8 5.2-2.2 7.3l-.7-.7c1.2-1.9 2-4.1 2-6.5 0-3.3-1.3-6.3-3.5-8.4-2.3-2.2-5.2-3.6-8.5-3.6zm8 3.9c2.1 2.1 3.3 4.9 3.3 8 0 2.3-.7 4.4-1.8 6.1l-.2-.2-1.5 1.4.4.4-.3.3c-2.1 2.1-4.9 3.3-8 3.3-3.1 0-6-1.3-8-3.3-2.1-2.1-3.3-4.9-3.3-8 0-3.1 1.3-6 3.3-8 2.1-2.1 4.9-3.3 8-3.3 3.2 0 6 1.3 8.1 3.3zM594 591.1c4 0 7.6 1.6 10.2 4.2 2.6 2.6 4.2 6.2 4.2 10.2 0 4-1.6 7.6-4.2 10.2-2.6 2.6-6.2 4.2-10.2 4.2-4 0-7.6-1.6-10.2-4.2-2.6-2.6-4.2-6.2-4.2-10.2 0-4 1.6-7.6 4.2-10.2 2.6-2.6 6.2-4.2 10.2-4.2zm-10.6 3.8c2.7-2.7 6.5-4.4 10.6-4.4s7.9 1.7 10.6 4.4c2.7 2.7 4.4 6.5 4.4 10.6s-1.7 7.9-4.4 10.6c-2.7 2.7-6.5 4.4-10.6 4.4s-7.9-1.7-10.6-4.4c-2.7-2.7-4.4-6.5-4.4-10.6s1.7-7.8 4.4-10.6zm10.6-1.3c3.3 0 6.3 1.3 8.4 3.5 2.2 2.2 3.5 5.1 3.5 8.4 0 3.3-1.3 6.3-3.5 8.4-2.2 2.2-5.1 3.5-8.4 3.5-3.3 0-6.3-1.3-8.4-3.5-2.2-2.2-3.5-5.1-3.5-8.4 0-3.3 1.3-6.3 3.5-8.4 2.1-2.1 5.1-3.5 8.4-3.5zm8.1 3.9c2.1 2.1 3.3 4.9 3.3 8 0 3.1-1.3 6-3.3 8-2.1 2.1-4.9 3.3-8 3.3-3.1 0-6-1.3-8-3.3-2.1-2.1-3.3-4.9-3.3-8 0-3.1 1.3-6 3.3-8 2.1-2.1 4.9-3.3 8-3.3 3 0 5.9 1.2 8 3.3zM594 619c-3.7 0-7.1-1.5-9.5-4-2.4-2.4-4-5.8-4-9.5s1.5-7.1 4-9.5c2.4-2.4 5.8-4 9.5-4s7.1 1.5 9.5 4c2.4 2.4 3.9 5.8 3.9 9.5s-1.5 7.1-4 9.5c-2.3 2.5-5.7 4-9.4 4zm-9.1-4.3c-2.3-2.3-3.8-5.6-3.8-9.1 0-3.6 1.4-6.8 3.8-9.1 2.3-2.3 5.6-3.8 9.1-3.8 3.6 0 6.8 1.5 9.1 3.8s3.8 5.6 3.8 9.1c0 3.6-1.5 6.8-3.8 9.1s-5.6 3.8-9.1 3.8c-3.6 0-6.8-1.5-9.1-3.8z"/></g><linearGradient id="SVGID_3_" gradientUnits="userSpaceOnUse" x1="108.927" y1="661.756" x2="1214.585" y2="661.756"><stop offset="0" stop-color="#785221"/><stop offset=".12" stop-color="#8f6b2a"/><stop offset=".28" stop-color="#cdb157"/><stop offset=".4" stop-color="#c4a55c"/><stop offset=".5" stop-color="#fff4b2"/><stop offset=".69" stop-color="#cdb157"/><stop offset=".79" stop-color="#9b7e2f"/><stop offset=".87" stop-color="#a0782b"/><stop offset=".91" stop-color="#bf952d"/><stop offset="1" stop-color="#7f6027"/></linearGradient><path class="st3" d="M661.8 108.9c305.3 0 552.8 247.5 552.8 552.8s-247.5 552.8-552.8 552.8-552.9-247.4-552.9-552.7 247.5-552.9 552.9-552.9zm0 16.3c-296.3 0-536.5 240.2-536.5 536.5s240.2 536.5 536.5 536.5 536.5-240.2 536.5-536.5-240.2-536.5-536.5-536.5z"/><path class="st4" d="M661.8 0c365.5 0 661.8 296.3 661.8 661.8s-296.3 661.8-661.8 661.8S0 1027.2 0 661.8 296.3 0 661.8 0zm0 54.4c-335.4 0-607.4 271.9-607.4 607.4s271.9 607.4 607.4 607.4 607.4-271.9 607.4-607.4-272-607.4-607.4-607.4z"/><path class="st4" d="M627 1176.1l-2.4-6.7h-10.9l-2.4 6.7h-6.4l11.5-29.9h5.8l11.4 29.9H627zm-6.4-17.8c-.3-.9-.6-1.7-.9-2.6-.3-.8-.5-1.5-.6-2.1-.1.6-.3 1.3-.6 2.1s-.6 1.7-.9 2.6l-1.9 5.4h6.8l-1.9-5.4zm41 6.2c0 1.9-.3 3.7-.9 5.2-.6 1.5-1.4 2.8-2.5 3.8s-2.3 1.8-3.8 2.3c-1.5.5-3.1.8-4.8.8-2 0-3.7-.4-5.3-1.1-1.6-.7-3-1.8-4.1-3.1-1.2-1.3-2-3-2.7-4.9-.6-1.9-.9-4-.9-6.4 0-2.3.3-4.4 1-6.3.7-1.9 1.6-3.5 2.7-4.9 1.2-1.4 2.6-2.4 4.2-3.2 1.6-.8 3.4-1.1 5.4-1.1 1.5 0 2.9.2 4.1.5 1.2.3 2.2.8 3.1 1.5.9.7 1.7 1.4 2.4 2.4s1.2 2 1.7 3.1l-5.7 2.4c-.3-.5-.6-1.1-.9-1.5-.3-.5-.7-.9-1.2-1.2-.4-.3-1-.6-1.6-.8-.6-.2-1.3-.3-2.1-.3-1.1 0-2.1.2-3 .7-.9.5-1.6 1.1-2.2 2-.6.8-1.1 1.8-1.4 3-.3 1.2-.5 2.4-.5 3.8s.2 2.6.5 3.8c.3 1.2.8 2.2 1.4 3 .6.9 1.4 1.5 2.2 2 .9.5 1.9.7 3 .7 1 0 1.9-.1 2.6-.3.7-.2 1.3-.5 1.7-.9.4-.4.8-.9 1-1.4.2-.6.4-1.2.5-1.8h-4.7v-5.6h10.7v3.8h.1zm19.5 11.6h-5.8l-10.7-29.9h6.6l5.6 17.3c.1.4.3.9.4 1.3.1.5.3.9.4 1.3.1.4.2.9.3 1.3.1.4.2.7.2 1 .1-.6.3-1.3.6-2.2.2-.9.5-1.8.8-2.7l5.5-17.3h6.5l-10.4 29.9zm31.8-21.3c-.5-1-1.2-1.8-2.1-2.4-.9-.6-2-.9-3.4-.9-1.1 0-2.1.2-3 .7-.9.5-1.6 1.1-2.2 2-.6.8-1.1 1.8-1.4 3-.3 1.2-.5 2.4-.5 3.8 0 1.3.2 2.6.5 3.7.3 1.2.8 2.2 1.4 3s1.4 1.5 2.2 2c.9.5 1.9.7 3 .7 1.4 0 2.5-.3 3.4-.9.9-.6 1.7-1.6 2.5-2.9l5 3c-1 2.1-2.4 3.8-4.3 5-1.8 1.2-4.1 1.8-6.8 1.8-2 0-3.7-.4-5.3-1.1-1.6-.7-3-1.8-4.1-3.1-1.2-1.3-2-3-2.7-4.9-.6-1.9-.9-4-.9-6.4 0-2.3.3-4.4 1-6.3.7-1.9 1.6-3.5 2.7-4.9 1.2-1.4 2.6-2.4 4.2-3.2 1.6-.8 3.4-1.1 5.4-1.1 1.4 0 2.7.2 3.8.5 1.1.3 2.2.8 3.1 1.4s1.7 1.3 2.4 2.1 1.2 1.7 1.7 2.7l-5.6 2.7z"/><g><linearGradient id="SVGID_4_" gradientUnits="userSpaceOnUse" x1="605.367" y1="449.627" x2="712.406" y2="449.627"><stop offset="0" stop-color="#00a5a8"/><stop offset="1" stop-color="#007181"/></linearGradient><path class="st5" d="M635.6 736.4c-40.1-79.8-47.7-292.9 23.3-573.5 71.5 277.7 63.1 492.8 22.8 573.5-7.7-.2-15.5-.3-23.3-.3-7.7 0-15.2.1-22.8.3z"/><path class="st6" d="M634.1 737.1c-21.7-43.2-34-125.2-29.5-235.6 3.8-94.4 19.9-209.5 52.7-339l1.6-6.1 1.6 6.1c32.9 127.8 48.9 242.4 52.7 336.8 4.4 111-8.1 194-30 237.8l-.5.9h-1c-3.9-.1-7.8-.2-11.6-.2-3.5 0-7.4-.1-11.7-.1-4.2 0-8 0-11.4.1-3.8 0-7.6.1-11.4.2h-1l-.5-.9zm-26.2-235.4c-4.4 109 7.5 190 28.7 233.1 3.4-.1 6.9-.1 10.4-.2 4.2 0 8-.1 11.4-.1 3.6 0 7.5 0 11.7.1 3.6 0 7.1.1 10.6.2 21.4-43.6 33.5-125.7 29.2-235.4-3.7-92.6-19.2-204.8-51-329.9-31.7 126.7-47.2 239.5-51 332.2z"/><linearGradient id="SVGID_5_" gradientUnits="userSpaceOnUse" x1="642.252" y1="511.781" x2="897.01" y2="511.781"><stop offset="0" stop-color="#00a5a8"/><stop offset="1" stop-color="#007181"/></linearGradient><path class="st7" d="M715.9 737.8c97.3-43.8 203.9-155.7 176.9-452-40.4 279.3-251.2 333-250.5 450.5 5.3-.1 10.7-.1 16.1-.1 19.3-.1 38.5.5 57.5 1.6z"/><path class="st8" d="M715.5 736.1c48.2-21.8 98.8-60.5 133.9-130.4 34.3-68.1 53.9-165.9 42.8-306.5-26.1 155.6-105.8 239.2-168.1 304.5-44.3 46.5-79.8 83.7-80.3 130.9 2.1 0 4.3-.1 6.4-.1h8.1c9.5 0 19.2.1 28.8.4 9.7.3 19.1.7 28.4 1.2zm136.9-128.9c-35.6 70.9-86.9 110-135.8 132.1l-.4.2h-.4c-9.5-.6-19.1-1-28.6-1.3-9.4-.3-19-.4-28.8-.4h-8c-2.7 0-5.3.1-8 .1h-1.6v-1.6c-.3-49.3 35.8-87.2 81.2-134.7 63.7-66.8 145.7-152.8 169.3-316l2-13.6 1.2 13.7c13.4 148.4-6.6 250.8-42.1 321.5z"/><linearGradient id="SVGID_6_" gradientUnits="userSpaceOnUse" x1="675.87" y1="511.746" x2="421.113" y2="511.746"><stop offset="0" stop-color="#00a5a8"/><stop offset="1" stop-color="#007181"/></linearGradient><path class="st9" d="M602.1 737.7c-97.2-43.9-203.8-155.8-176.7-451.9 40.4 279.3 251.3 333 250.5 450.5-5.8-.1-11.6-.2-17.5-.2-19 0-37.7.5-56.3 1.6z"/><path class="st8" d="M601.5 739.2c-48.9-22.1-100.1-61.2-135.7-132.1-35.5-70.7-55.5-173-41.9-321.4L425 272l2 13.6c23.6 163.2 105.6 249.2 169.3 316 45.4 47.6 81.5 85.5 81.2 134.8v1.6h-1.6c-2.9-.1-5.8-.1-8.7-.1h-8.7c-9.6 0-18.9.1-28.1.4-9.4.3-18.7.7-28 1.2h-.4l-.5-.3zM468.6 605.6c35.1 69.9 85.6 108.6 133.8 130.5 9.2-.5 18.4-.9 27.7-1.2 9.5-.3 18.9-.4 28.2-.4h8.8c2.4 0 4.7.1 7.1.1-.5-47.2-35.9-84.4-80.3-130.9-62.2-65.3-141.9-148.8-168.1-304.5-11.1 140.6 8.6 238.3 42.8 306.4z"/><linearGradient id="SVGID_7_" gradientUnits="userSpaceOnUse" x1="583.206" y1="526.702" x2="787.736" y2="467.574"><stop offset="0" stop-color="#00a5a8"/><stop offset="1" stop-color="#007181"/></linearGradient><path class="st10" d="M685.3 736.5C775 674.9 871.9 540.3 757.6 237c35.3 278.7-151.9 386.9-122 499.4 7.5-.2 15.1-.3 22.7-.3 9.1 0 18 .1 27 .4z"/><path class="st11" d="M684.8 734.8c44.5-30.6 90.6-79.3 111.6-157.9 20.5-76.8 16.9-182-35.6-326.8 16.2 157-38.3 258.7-81 338.2-30.1 56.2-54.2 101.1-42.9 146.4 3.3-.1 6.7-.1 10.1-.2 4.1 0 8-.1 11.4-.1 4.2 0 8.7 0 13.5.1l12.9.3zm114.7-157c-21.3 79.7-68.2 129-113.3 160l-.4.3h-.5l-13.4-.3c-4.2-.1-8.7-.1-13.5-.1-4.2 0-7.9 0-11.4.1-3.8 0-7.5.1-11.3.2h-1.3l-.3-1.2c-12.5-46.9 12.1-92.6 42.8-149.9 43.6-81.3 99.8-186.1 79.1-349.6l-1.7-13.6 4.8 12.8c57.3 152 61.6 261.8 40.4 341.3z"/><linearGradient id="SVGID_8_" gradientUnits="userSpaceOnUse" x1="734.146" y1="526.699" x2="529.614" y2="467.568"><stop offset="0" stop-color="#00a5a8"/><stop offset="1" stop-color="#007181"/></linearGradient><path class="st12" d="M632.1 736.4c-89.7-61.6-186.6-196.2-72.3-499.4-35.3 278.7 151.9 386.9 122 499.4-7.7-.2-15.5-.3-23.3-.3-8.9 0-17.7.1-26.4.3z"/><path class="st11" d="M631.1 737.8c-45.1-31-92-80.3-113.3-160-21.2-79.5-16.9-189.3 40.4-341.3l4.8-12.8-1.7 13.6c-20.7 163.5 35.5 268.3 79.1 349.6 30.7 57.3 55.3 103.1 42.8 150l-.3 1.2h-1.3c-3.9-.1-7.8-.2-11.6-.2-3.5 0-7.4-.1-11.7-.1-4.7 0-9.1 0-13.2.1-4.4.1-8.7.1-13.1.3h-.5l-.4-.4zM521 576.9c21 78.5 67.1 127.2 111.6 157.9l12.6-.3c4.7-.1 9.1-.1 13.2-.1 3.6 0 7.5 0 11.7.1 3.5 0 6.9.1 10.4.2 11.4-45.2-12.7-90.2-42.9-146.4-42.6-79.5-97.2-181.3-81-338.2C504 394.9 500.5 500.2 521 576.9z"/><linearGradient id="SVGID_9_" gradientUnits="userSpaceOnUse" x1="783.382" y1="543.37" x2="906.297" y2="587.52"><stop offset="0" stop-color="#00a5a8"/><stop offset="1" stop-color="#007181"/></linearGradient><path class="st13" d="M792.4 745.4c90-34.3 186.1-126.8 241.9-352.5-129.4 250.3-345.8 232.5-384 343.2h8.1c45.9 0 90.7 3.2 134 9.3z"/><path class="st14" d="M792.2 743.7c44.6-17.1 90.8-48.6 132.7-103.8 40.5-53.3 77-128.7 104.5-234.4C953.8 544 851.1 596.9 770.9 638.2c-56.7 29.2-102.1 52.6-118.3 96.3h5.8c22.8 0 45.3.8 67.6 2.3 22.4 1.6 44.5 3.9 66.2 6.9zm135.3-101.8c-42.5 55.9-89.2 87.8-134.5 105l-.4.1-.4-.1c-21.8-3.1-43.9-5.4-66.4-7-22.1-1.5-44.6-2.3-67.4-2.3h-10.3l.7-2.2c16-46.4 62.4-70.3 120.7-100.3 82.1-42.3 187.7-96.7 263.4-243.1l6.3-12.2-3.3 13.3c-28 113.2-66.1 193-108.4 248.8z"/><linearGradient id="SVGID_10_" gradientUnits="userSpaceOnUse" x1="534.656" y1="543.373" x2="411.757" y2="587.528"><stop offset="0" stop-color="#00a5a8"/><stop offset="1" stop-color="#007181"/></linearGradient><path class="st15" d="M525.4 745.3c-90-34.3-185.9-126.9-241.7-352.4 129.4 250.4 345.8 232.5 384 343.2h-8.9c-45.6 0-90.3 3.2-133.4 9.2z"/><path class="st14" d="M524.9 746.8c-45.2-17.3-92-49.2-134.4-105.1-42.3-55.8-80.4-135.5-108.3-248.4l-3.3-13.3 6.3 12.2c75.7 146.4 181.3 200.9 263.4 243.1 58.2 30 104.7 53.9 120.7 100.3l.7 2.2-6.7-.1h-4.4c-22.7 0-45.1.8-67.1 2.3-22.4 1.5-44.5 3.9-66.1 6.9l-.4.1-.4-.2zm-131.8-107c41.9 55.2 88 86.7 132.6 103.8 21.6-3 43.6-5.3 65.9-6.9 22.2-1.5 44.6-2.3 67.3-2.3h6.6c-16.2-43.7-61.6-67.1-118.3-96.3-80.2-41.3-182.9-94.2-258.5-232.7 27.4 105.8 63.9 181.1 104.4 234.4z"/><linearGradient id="SVGID_11_" gradientUnits="userSpaceOnUse" x1="286.507" y1="773.558" x2="1030.249" y2="773.558"><stop offset="0" stop-color="#785221"/><stop offset=".12" stop-color="#8f6b2a"/><stop offset=".28" stop-color="#cdb157"/><stop offset=".4" stop-color="#c4a55c"/><stop offset=".5" stop-color="#fff4b2"/><stop offset=".69" stop-color="#cdb157"/><stop offset=".79" stop-color="#9b7e2f"/><stop offset=".87" stop-color="#a0782b"/><stop offset=".91" stop-color="#bf952d"/><stop offset="1" stop-color="#7f6027"/></linearGradient><path class="st16" d="M658.4 734.4c138 0 266 28.9 371.9 78.2-109.2-38-236.3-59.8-371.9-59.8-135.6 0-262.7 21.8-371.9 59.8 105.9-49.3 233.9-78.2 371.9-78.2z"/></g><g><path class="st4" d="M451.4 930.4c0 7.4-.5 14-1.6 19.7-1.1 5.7-3.1 10.5-6 14.4-2.9 4-6.8 7.1-11.9 9.5-5.1 2.4-11.5 4-19.5 4.8L404 961c4.6-.7 8.4-1.5 11.4-2.4 3-.9 5.5-2.2 7.3-3.8 1.8-1.6 3.1-3.6 3.8-6 .7-2.4 1-5.3 1-8.8-2.3 1.9-5 3.7-8 5.3-3 1.6-6.7 2.3-11.1 2.3-4.8 0-9.3-.9-13.6-2.7-4.2-1.8-8-4.7-11.2-8.7-3.2-4-5.7-8.9-7.6-15-1.8-6-2.7-13.3-2.7-21.7 0-6.8.8-12.9 2.3-18.6 1.5-5.6 3.8-10.5 6.8-14.5 3-4.1 6.6-7.2 11-9.5 4.4-2.2 9.3-3.4 15-3.4 4 0 7.6.7 10.9 2.1 3.3 1.4 6 3 8.2 5v-5.2h23.9v75zm-23.9-46.6c-3.8-5.1-9.2-7.7-16.1-7.7-9.5 0-14.2 7.6-14.2 22.9 0 9.2 1.4 15.9 4.2 20 2.8 4.1 6.6 6.2 11.3 6.2 3.7 0 6.6-.7 8.8-2 2.2-1.4 4.2-3.2 5.9-5.5v-33.9h.1zm93.2 62v-6c-2.2 2.3-5 4.2-8.6 5.6-3.6 1.5-7.4 2.2-11.7 2.2s-8.4-.7-12.4-2-7.6-3.3-10.7-5.9c-3.2-2.6-5.7-6-7.6-10-1.9-4-2.9-8.8-2.9-14.3 0-4.9.9-9.3 2.8-13.1 1.9-3.8 4.5-6.9 7.8-9.4s7.2-4.3 11.6-5.6c4.4-1.3 9.2-1.9 14.4-1.9 4.1 0 7.6.4 10.3 1.1 2.7.7 5.1 1.6 7 2.5v-4.5c0-3.2-1.1-5.9-3.2-8.2-2.1-2.2-5.4-3.4-9.7-3.4-2.7 0-5.2.1-7.3.3-2.1.2-4.1.6-6 1-1.9.5-3.8 1.1-5.6 1.8-1.8.7-3.8 1.7-5.8 2.8l-9.1-16.5c2.6-1.5 5.2-2.8 7.6-4 2.5-1.1 5-2.1 7.7-2.8 2.7-.7 5.5-1.3 8.5-1.7 3-.4 6.3-.6 10-.6 5.5 0 10.5.7 15 2.1 4.5 1.4 8.4 3.4 11.6 6.1 3.2 2.7 5.8 6 7.5 10 1.8 4 2.7 8.4 2.7 13.5v60.5h-23.9v.4zm0-37.7c-2.1-1.3-4.2-2.2-6.6-2.8-2.3-.6-5.6-.9-9.8-.9-4.4 0-7.8 1-10.2 2.9-2.3 1.9-3.5 4.8-3.5 8.4 0 3.2 1 6 3.1 8.4 2.1 2.4 5.6 3.6 10.6 3.6 3.9 0 7.3-.8 10.2-2.5 2.9-1.7 5-3.6 6.2-5.8v-11.3zm88.3 37.6h-24.4l-32.5-90.2h26.1l13.2 41.8c1.1 3.4 2.2 7 3.3 10.8 1 3.8 1.8 6.8 2.4 8.9.6-2.3 1.4-5.3 2.4-8.9 1-3.7 2.1-7.3 3.3-10.8l13.2-41.8h25.4L609 945.7zm115.5-45c0 2.5 0 5.1-.3 7.6h-54c.2 3.1.9 5.7 2.1 7.8 1.1 2.1 2.6 3.9 4.3 5.2 1.7 1.3 3.6 2.3 5.8 2.9 2.1.6 4.3.9 6.4.9 3.3 0 6.3-.6 8.9-1.7 2.6-1.1 4.8-2.7 6.5-4.6L721 933c-3.7 4.7-8.4 8.4-14.4 10.9-5.9 2.5-11.9 3.8-18 3.8-6.5 0-12.4-1.1-17.6-3.4-5.2-2.2-9.7-5.4-13.3-9.5-3.7-4.1-6.5-9-8.5-14.8-2-5.8-3-12.2-3-19.3 0-6.9 1-13.2 3.1-19 2.1-5.8 4.9-10.8 8.5-15 3.6-4.2 7.8-7.4 12.7-9.7 4.9-2.3 10.2-3.4 15.9-3.4 6 0 11.3 1.2 16.1 3.7 4.8 2.5 8.7 5.8 11.9 10.1 3.2 4.3 5.7 9.3 7.4 15 1.8 5.8 2.7 11.9 2.7 18.3zm-23.1-10.3c-.2-2.1-.7-4-1.4-5.9-.7-1.9-1.7-3.6-3-5.2-1.3-1.5-3-2.8-4.9-3.7-1.9-.9-4.2-1.4-6.9-1.4-4.4 0-7.8 1.5-10.3 4.6-2.5 3.1-4 6.9-4.5 11.5h31v.1zm206.4 10.3c0 6.9-1 13.2-3.1 19-2.1 5.8-4.9 10.7-8.5 14.9-3.6 4.1-7.9 7.3-12.9 9.6s-10.5 3.4-16.3 3.4c-5.8 0-11.2-1.1-16.2-3.4s-9.3-5.5-12.9-9.6c-3.6-4.1-6.4-9.1-8.5-14.9-2.1-5.8-3.1-12.1-3.1-19s1-13.2 3.1-19c2.1-5.8 4.9-10.8 8.5-15 3.6-4.2 7.9-7.4 12.9-9.7 5-2.3 10.4-3.4 16.2-3.4 5.8 0 11.3 1.1 16.3 3.4s9.3 5.5 12.9 9.7c3.6 4.2 6.4 9.2 8.5 15 2 5.8 3.1 12.1 3.1 19zm-23.9 0c0-6.9-1.4-12.6-4.2-17.3-2.7-4.6-7-7-12.8-7-5.8 0-10 2.3-12.7 6.9-2.7 4.6-4.1 10.4-4.1 17.4 0 7 1.3 12.7 4.1 17.3 2.7 4.5 6.9 6.8 12.7 6.8 2.9 0 5.4-.7 7.5-2 2.1-1.3 3.9-3.1 5.3-5.3 1.4-2.2 2.4-4.8 3.1-7.7.7-3 1.1-6 1.1-9.1zm65.2-66.2c0 3.7-1.3 6.8-4 9.5s-5.9 4-9.5 4c-3.7 0-6.8-1.3-9.5-4s-4-5.9-4-9.5c0-3.7 1.3-6.8 4-9.5s5.9-4 9.5-4c3.7 0 6.8 1.3 9.5 4s4 5.9 4 9.5zm-25.4 111.2v-90.2h23.9v90.2h-23.9zm98.6 0V897c0-8-1.3-13.5-3.9-16.4-2.6-3-6.4-4.5-11.3-4.5s-8.7 1.5-11.4 4.4c-2.7 2.9-4 8.3-4 16v49.2h-23.9v-90.2h23.9l-.1 6c2.1-2.2 4.9-4.1 8.5-5.6 3.6-1.6 7.8-2.3 12.7-2.3 11.5 0 19.9 3.7 25.3 11.1 5.4 7.4 8.1 17.4 8.1 30.2v50.9h-23.9z"/><path class="st17" d="M368.1 942h-22.6l-9-23.4h-41.1l-8.5 23.4h-22L305 839.2h22L368.1 942zm-38.2-40.7l-14.2-38.2-13.9 38.2h28.1zM801.5 906.4l20.1 6.4c-3.1 11.2-8.2 19.6-15.4 25-7.2 5.5-16.3 8.2-27.3 8.2-13.7 0-24.9-4.7-33.7-14-8.8-9.3-13.2-22.1-13.2-38.3 0-17.1 4.4-30.4 13.3-39.9 8.8-9.5 20.5-14.2 34.9-14.2 12.6 0 22.8 3.7 30.7 11.2 4.7 4.4 8.2 10.7 10.5 18.9l-20.6 4.9c-1.2-5.3-3.8-9.5-7.6-12.6-3.9-3.1-8.5-4.6-14.1-4.6-7.6 0-13.8 2.7-18.6 8.2-4.7 5.5-7.1 14.3-7.1 26.6 0 13 2.3 22.3 7 27.8s10.8 8.3 18.2 8.3c5.5 0 10.3-1.8 14.2-5.3 4.2-3.6 7-9.1 8.7-16.6z"/></g></svg>