<svg xmlns="http://www.w3.org/2000/svg" width="250" height="250"><g fill="#2b71ff"><path d="m182.066 181.129-56.996 56.844-28.328-28.258c30.543-1.766 59.98-11.59 85.324-28.586zM236.066 122.742l-6.972-6.953L125.066 12.035 21.036 115.79l-8.962 8.941c1.106.883 2.102 1.875 3.207 2.758 3.653 3.09 7.414 5.961 11.29 8.61 41.167 28.918 92.187 37.636 139.331 26.16 19.254-4.637 37.516-12.696 54.004-23.621 4.098-2.758 8.082-5.63 11.953-8.719a130.848 130.848 0 0 0 6.309-5.3zm-83.554 26.051c-30.989-19.098-66.735-29.031-103.254-28.922 47.476-20.527 105.687-23.398 159.14 7.285-17.043 10.817-36.078 18.215-55.886 21.637zm0 0"/></g></svg>