<svg xmlns="http://www.w3.org/2000/svg" width="250" height="250"><linearGradient id="a" x1="210.75" x2="51.5" y1="33.75" y2="221.5" gradientUnits="userSpaceOnUse"><stop offset="0" stop-color="#b6509e"/><stop offset="1" stop-color="#2ebac6"/></linearGradient><path fill="#fff" d="M250 125c0 69.035-55.965 125-125 125S0 194.035 0 125 55.965 0 125 0s125 55.965 125 125zm0 0"/><path fill="url(#a)" d="M125 250c-8.46.004-16.902-.848-25.195-2.54a124.377 124.377 0 0 1-44.7-18.808A125.37 125.37 0 0 1 9.82 173.656a124.484 124.484 0 0 1-7.28-23.46 126.19 126.19 0 0 1 0-50.383 124.279 124.279 0 0 1 18.808-44.7A125.378 125.378 0 0 1 76.344 9.824a124.211 124.211 0 0 1 23.46-7.285 126.19 126.19 0 0 1 50.383 0 124.279 124.279 0 0 1 44.7 18.809 125.378 125.378 0 0 1 45.289 54.996 124.496 124.496 0 0 1 7.285 23.46 126.19 126.19 0 0 1 0 50.383 124.25 124.25 0 0 1-18.809 44.7 125.37 125.37 0 0 1-54.996 45.285 124.223 124.223 0 0 1-23.46 7.289A125.788 125.788 0 0 1 125 250zm0-236.61c-7.555 0-15.09.758-22.492 2.27a110.94 110.94 0 0 0-39.91 16.793 111.936 111.936 0 0 0-40.43 49.106 111.036 111.036 0 0 0-6.504 20.949 112.684 112.684 0 0 0 0 44.984 110.998 110.998 0 0 0 16.797 39.906 111.927 111.927 0 0 0 49.105 40.438 111.036 111.036 0 0 0 20.95 6.504 112.684 112.684 0 0 0 44.984 0 111.016 111.016 0 0 0 39.91-16.797 111.957 111.957 0 0 0 40.422-49.102 111.036 111.036 0 0 0 6.504-20.949 112.684 112.684 0 0 0 0-44.984 110.998 110.998 0 0 0-16.797-39.906 111.946 111.946 0 0 0-49.098-40.434 111.036 111.036 0 0 0-20.949-6.504A112.407 112.407 0 0 0 125 13.391zm0 0"/><g fill="#31cb9e"><path d="m114.86 125.004 71.581 41.004a3.778 3.778 0 0 0 5.727-3.262V87.207a3.752 3.752 0 0 0-5.727-3.234zM184.93 65.816l-48.938-35.992a3.894 3.894 0 0 0-3.613-.601 3.896 3.896 0 0 0-2.512 2.664l-17.87 80.175 72.503-40.09a3.621 3.621 0 0 0 1.945-2.956 3.615 3.615 0 0 0-1.515-3.196M135.934 220.156l48.996-35.992a3.672 3.672 0 0 0 1.55-3.234 3.669 3.669 0 0 0-1.953-3.008l-72.53-40.09 17.87 80.176a3.86 3.86 0 0 0 2.442 2.738 3.86 3.86 0 0 0 3.629-.531"/><path d="m96.246 123.516 18.613-87.051a3.692 3.692 0 0 0-5.727-3.75L61.458 69.28a9.874 9.874 0 0 0-3.867 7.875v92.774a9.886 9.886 0 0 0 3.863 7.988l47.45 36.453a3.695 3.695 0 0 0 5.727-3.75zm0 0"/></g></svg>