<svg xmlns="http://www.w3.org/2000/svg" width="250" height="250"><g fill-rule="evenodd"><path fill="#0054ff" d="M125 0c69.035 0 125 55.965 125 125 0 31.988-12.016 61.168-31.777 83.277l-10.66-10.66c-3.965-3.965-10.391-3.965-14.356 0s-3.965 10.395 0 14.36l10.3 10.3C182.052 239.617 154.739 250 125 250 55.965 250 0 194.035 0 125c0-29.738 10.383-57.05 27.723-78.508l8.832 8.832c3.965 3.965 10.39 3.965 14.355 0s3.965-10.394 0-14.36l-9.187-9.187C63.832 12.016 93.012 0 125 0zm16.492 197.793c-3.937-3.938-10.324-3.938-14.262 0l-25.222 25.223c-3.938 3.937-3.938 10.324 0 14.261s10.324 3.938 14.262 0l25.222-25.222c3.938-3.938 3.938-10.325 0-14.262zm38.5-35.977c-6.89-6.894-18.105-6.855-25.043.082-6.937 6.942-6.976 18.153-.082 25.043 6.89 6.891 18.102 6.856 25.04-.086 6.937-6.937 6.976-18.148.085-25.039zm-63.183-54.953c-3.965-3.965-10.395-3.965-14.36 0s-3.965 10.39 0 14.356l24.86 24.86c3.964 3.964 10.394 3.964 14.359 0 3.965-3.966 3.965-10.392 0-14.356zM89.234 71.06c-6.89-6.891-18.101-6.852-25.039.086-6.941 6.937-6.976 18.148-.086 25.039 6.891 6.894 18.102 6.855 25.043-.082 6.938-6.942 6.973-18.153.082-25.043zm52.875-55.395c-3.937-3.937-10.324-3.937-14.261 0l-25.223 25.223c-3.938 3.937-3.938 10.324 0 14.261s10.324 3.938 14.262 0l25.222-25.222c3.938-3.938 3.938-10.324 0-14.262zm0 0"/><path fill="#fff" d="M141.492 197.793c3.938 3.937 3.938 10.324 0 14.262l-25.222 25.222c-3.938 3.938-10.325 3.938-14.262 0s-3.938-10.324 0-14.261l25.222-25.223c3.938-3.938 10.325-3.938 14.262 0zm66.07-.176 10.66 10.66a125.913 125.913 0 0 1-14.714 14l-10.301-10.3c-3.965-3.965-3.965-10.395 0-14.36s10.39-3.965 14.356 0zm-27.57-35.8c6.89 6.89 6.852 18.101-.086 25.038-6.937 6.942-18.148 6.977-25.039.086-6.894-6.89-6.855-18.101.082-25.043 6.938-6.937 18.153-6.976 25.043-.082zm-63.183-54.954 24.859 24.86c3.965 3.964 3.965 10.39 0 14.355s-10.395 3.965-14.36 0l-24.859-24.86c-3.965-3.964-3.965-10.39 0-14.355s10.395-3.965 14.36 0zM89.234 71.06c6.891 6.89 6.856 18.101-.082 25.043-6.941 6.937-18.152 6.976-25.043.082-6.89-6.891-6.855-18.102.086-25.04 6.938-6.937 18.149-6.976 25.04-.085zM41.723 31.777l9.187 9.188c3.965 3.965 3.965 10.394 0 14.36-3.965 3.964-10.39 3.964-14.355 0l-8.832-8.833c4.265-5.277 8.949-10.199 14-14.715zm100.386-16.113c3.938 3.938 3.938 10.324 0 14.262l-25.222 25.222c-3.938 3.938-10.325 3.938-14.262 0s-3.938-10.324 0-14.261l25.223-25.223c3.937-3.937 10.324-3.937 14.261 0zm0 0"/></g></svg>