<svg xmlns="http://www.w3.org/2000/svg" xmlns:xlink="http://www.w3.org/1999/xlink" width="250" height="250"><linearGradient id="b" x1="210.75" x2="51.5" y1="33.75" y2="221.5" gradientUnits="userSpaceOnUse"><stop offset="0" stop-color="#b6509e"/><stop offset="1" stop-color="#2ebac6"/></linearGradient><linearGradient id="c" x1="192.954" x2="57.046" y1="57.046" y2="192.954" gradientUnits="userSpaceOnUse"><stop offset="0" stop-color="#ff2d55"/><stop offset="1" stop-color="#ffbc5b"/></linearGradient><linearGradient id="a"><stop offset="0" stop-color="#a524b3"/><stop offset="1" stop-color="#ff2d55"/></linearGradient><linearGradient xlink:href="#a" id="d" x1=".5" x2=".5" y1="0" y2="1" gradientTransform="matrix(59.9336 0 0 71.92188 96.96 91.348)" gradientUnits="userSpaceOnUse"/><linearGradient xlink:href="#a" id="e" x1=".5" x2=".5" y1="0" y2="1" gradientTransform="matrix(43.96875 0 0 52.74219 157.66 129.707)" gradientUnits="userSpaceOnUse"/><path fill="#fff" d="M250 125c0 69.035-55.965 125-125 125S0 194.035 0 125 55.965 0 125 0s125 55.965 125 125zm0 0"/><path fill="url(#b)" d="M125 250c-8.46.004-16.902-.848-25.195-2.54a124.377 124.377 0 0 1-44.7-18.808A125.37 125.37 0 0 1 9.82 173.656a124.484 124.484 0 0 1-7.28-23.46 126.19 126.19 0 0 1 0-50.383 124.279 124.279 0 0 1 18.808-44.7A125.378 125.378 0 0 1 76.344 9.824a124.211 124.211 0 0 1 23.46-7.285 126.19 126.19 0 0 1 50.383 0 124.279 124.279 0 0 1 44.7 18.809 125.378 125.378 0 0 1 45.289 54.996 124.496 124.496 0 0 1 7.285 23.46 126.19 126.19 0 0 1 0 50.383 124.25 124.25 0 0 1-18.809 44.7 125.37 125.37 0 0 1-54.996 45.285 124.223 124.223 0 0 1-23.46 7.289A125.788 125.788 0 0 1 125 250zm0-236.61c-7.555 0-15.09.758-22.492 2.27a110.94 110.94 0 0 0-39.91 16.793 111.936 111.936 0 0 0-40.43 49.106 111.036 111.036 0 0 0-6.504 20.949 112.684 112.684 0 0 0 0 44.984 110.998 110.998 0 0 0 16.797 39.906 111.927 111.927 0 0 0 49.105 40.438 111.036 111.036 0 0 0 20.95 6.504 112.684 112.684 0 0 0 44.984 0 111.016 111.016 0 0 0 39.91-16.797 111.957 111.957 0 0 0 40.422-49.102 111.036 111.036 0 0 0 6.504-20.949 112.684 112.684 0 0 0 0-44.984 110.998 110.998 0 0 0-16.797-39.906 111.946 111.946 0 0 0-49.098-40.434 111.036 111.036 0 0 0-20.949-6.504A112.407 112.407 0 0 0 125 13.391zm0 0"/><path fill="url(#c)" d="M220.98 125c0 53.008-42.972 95.98-95.98 95.98-53.012 0-95.98-42.972-95.98-95.98 0-53.012 42.968-95.98 95.98-95.98 53.008 0 95.98 42.968 95.98 95.98zm0 0"/><g fill-rule="evenodd"><path fill="url(#d)" d="M96.96 91.348v71.922h59.935zm0 0"/><path fill="#fff" d="M37.023 163.27h59.938V91.352zm0 0"/><path fill="#fc9965" d="M48.195 182.45a98.253 98.253 0 0 0 19.18 19.179h115.074a98.253 98.253 0 0 0 19.18-19.18zm0 0"/><path fill="#ff2d55" d="M67.375 201.629c34.098 25.57 80.977 25.57 115.074 0zm0 0"/><path fill="url(#e)" d="M157.66 129.707v52.742h43.969zm0 0"/><path fill="#ffbc5b" d="M157.66 163.27H37.023a95.478 95.478 0 0 0 11.172 19.18h109.512v-19.18zm0 0"/><path fill="#fff" d="M113.742 182.45h43.918v-52.743zm0 0"/></g><path fill="#ffc95b" d="M181.633 91.348c0 13.242-10.73 23.976-23.973 23.976-13.242 0-23.972-10.734-23.972-23.976 0-13.239 10.73-23.973 23.972-23.973s23.973 10.734 23.973 23.973zM108.95 64.98c0 6.618-5.368 11.985-11.99 11.985-6.62 0-11.987-5.367-11.987-11.985 0-6.62 5.367-11.988 11.988-11.988 6.621 0 11.988 5.367 11.988 11.988zm0 0"/></svg>