<svg xmlns="http://www.w3.org/2000/svg" width="250" height="250"><path d="M.16 249.977a92.76 92.76 0 0 1-.031-10.422 20.316 20.316 0 0 1 3.613-.743 89.846 89.846 0 0 0 10.54-2.453c.948-.3 1.886-.617 2.816-.976a27.85 27.85 0 0 0 11.632-8.356 52.564 52.564 0 0 0 5.563-8.375 124.09 124.09 0 0 0 5.965-12.55 5655.25 5655.25 0 0 0 10.59-26.012A357268.67 357268.67 0 0 0 87 90.504 6135.57 6135.57 0 0 0 120.637 5.09c.218-.578.468-1.156.715-1.735 4.054-1.125 8.066-2.265 12.203-3.34.25.579.48 1.094.668 1.614 4.66 12.734 9.312 25.484 13.964 38.246 15.872 43.46 31.805 86.898 48.141 130.191a5705.117 5705.117 0 0 0 13.508 35.461 116.75 116.75 0 0 0 6.3 14.086 73.9 73.9 0 0 0 3.442 5.692c3.785 5.765 9.652 9.922 16.43 11.632a91.283 91.283 0 0 0 11.09 2.157l2.66.379c.379 1.16.148 2.277.183 3.386.036 1.114 0 2.364 0 3.543.036 1.141.016 2.286-.066 3.422-.379.059-.672.13-.973.145H155.344c-.098-.2-.172-.41-.211-.63v-9.39c.027-.14.066-.277.125-.41a13.46 13.46 0 0 1 2.363-.434 96.608 96.608 0 0 0 11.406-2.183c1.504-.41 2.989-.945 4.457-1.484.73-.282 1.438-.622 2.114-1.012 3.695-2.043 5.18-5.211 4.867-9.262a30.7 30.7 0 0 0-.992-5.445c-.739-2.785-1.774-5.485-2.743-8.188A21096.72 21096.72 0 0 1 119.223 52.43c-.2-.578-.266-1.215-.864-1.735-.187.114-.449.2-.59.375-.152.27-.269.555-.347.852-9.266 26.113-19.145 52.012-28.969 77.933-7.254 19.188-14.52 38.38-21.281 57.735-2.715 7.762-5.32 15.57-7.875 23.375a54.792 54.792 0 0 0-2.188 9.156 21.626 21.626 0 0 0-.191 6.29c.312 2.737 1.789 5.226 4.062 6.85a18.866 18.866 0 0 0 4.88 2.45 50.943 50.943 0 0 0 8.511 2.14c3.2.583 6.41 1.016 9.617 1.52.207.035.41.074.688.125.082.23.136.465.164.707v9.082c-.024.18-.067.36-.125.535a9.106 9.106 0 0 1-.867.137H.16zm0 0"/></svg>