<svg xmlns="http://www.w3.org/2000/svg" width="250" height="250"><path fill="#f2f2f2" d="M0 0h250v250H0z"/><g fill-rule="evenodd"><path d="M158.074 168.984c11.606 0 21.016-9.379 21.016-20.949 0-11.566-9.41-20.95-21.016-20.95s-21.015 9.384-21.015 20.95c0 11.57 9.41 20.95 21.015 20.95zm27.996-20.949c0 15.414-12.535 27.906-27.996 27.906-15.46 0-27.996-12.492-27.996-27.906 0-15.41 12.535-27.902 27.996-27.902 15.461 0 27.996 12.492 27.996 27.902zm0 0"/><path d="M140.84 162.469a3.977 3.977 0 0 1-.578 5.61c-14.535 11.8-29.676 20.038-43.059 23.636-13.195 3.55-25.797 2.824-33.77-5.125-8.855-8.824-8.8-23.3-3.757-38.2a4.004 4.004 0 0 1 5.066-2.503 3.981 3.981 0 0 1 2.512 5.05c-4.785 14.141-3.645 24.555 1.836 30.016 4.922 4.906 13.824 6.344 26.031 3.063 12.012-3.227 26.164-10.813 40.09-22.121a4.011 4.011 0 0 1 5.629.574zM112.93 84.41a3.974 3.974 0 0 1 .746-5.586c13.949-10.636 28.277-17.96 40.926-21 12.496-3.004 24.347-2.008 31.964 5.586 8.856 8.824 8.801 23.3 3.758 38.2a4.004 4.004 0 0 1-5.066 2.503 3.981 3.981 0 0 1-2.512-5.05c4.785-14.141 3.645-24.551-1.832-30.016-4.703-4.684-13.02-6.215-24.437-3.469-11.27 2.707-24.598 9.402-37.942 19.578a4.007 4.007 0 0 1-5.605-.746zm0 0"/><path d="M126.086 100.2c0 15.41-12.535 27.905-27.996 27.905-15.461 0-27.996-12.496-27.996-27.906 0-15.414 12.535-27.906 27.996-27.906 15.46 0 27.996 12.492 27.996 27.906zM95.289 86.241h5.598v11.164h11.195v5.578h-11.195v11.164h-5.598v-11.164H84.086v-5.578h11.203zm0 0"/></g><path d="M168.074 150.434v-5.582h-19.996v5.582zm0 0"/></svg>