<svg xmlns="http://www.w3.org/2000/svg" xmlns:xlink="http://www.w3.org/1999/xlink" width="250" height="250"><linearGradient id="b" x1="141.5" x2="141.5" y1="99.375" y2="287.733" gradientTransform="scale(.8834 .88028)" gradientUnits="userSpaceOnUse"><stop offset="0" stop-color="#01e8f8" stop-opacity=".05"/><stop offset="1" stop-color="#01e8f8" stop-opacity="0"/></linearGradient><linearGradient id="a"><stop offset="0" stop-color="#01e8f7"/><stop offset="1" stop-color="#00c2ff"/></linearGradient><linearGradient xlink:href="#a" id="c" x1="232.389" x2="237.798" y1="111.72" y2="181.287" gradientTransform="scale(.8834 .88028)" gradientUnits="userSpaceOnUse"/><linearGradient id="d" x1="111.561" x2="184.824" y1="63.19" y2="179.059" gradientTransform="scale(.8834 .88028)" gradientUnits="userSpaceOnUse"><stop offset="0" stop-color="#01e8f7"/><stop offset="1" stop-color="#00b3ec"/></linearGradient><linearGradient xlink:href="#a" id="e" x1="138.644" x2="145.198" y1="120.788" y2="308.103" gradientTransform="scale(.8834 .88028)" gradientUnits="userSpaceOnUse"/><path fill="#fff" d="M0 0h250v250H0z"/><path fill="url(#b)" d="M250 125c0 69.035-55.965 125-125 125S0 194.035 0 125 55.965 0 125 0s125 55.965 125 125zm0 0"/><path fill="url(#c)" d="M222.688 116.734c.867-18.011-11.715-29.957-25.91-38.16l-9.227 54.211c6.39-.36 9.512 2.067 10.648 3.207 1.418 1.426 4.969 5.707.707 12.485 8.875-1.43 22.735-9.989 23.781-31.743zm0 0"/><g fill-rule="evenodd"><path fill="url(#d)" d="M101.645 53.621 90.64 42.566c16.562-2.023 60.265.57 102.566 27.102.711 2.855 0 7.133 0 7.133l3.55 1.785c3.075 4.398 8.305 16.906 4.614 31.742s-10.055 21.16-12.777 22.465c-5.676 0-15.332 3.281-18.453 17.832-3.125 14.555-9.11 17.715-11.711 17.477l-62.465.714-41.168-24.254-6.031-50.285 11.71-15.691 20.938-17.121 14.906-6.063zm73.77 20.774c-2.755 2.867-5.33 4.246-6.063 4.617-16.086-3.422-21.88-11.742-21.88-11.742 15.173-.094 28.864 3.515 38.88 9.62 0 0-5.422-1.757-10.938-2.495zm0 0"/><path fill="url(#e)" d="M169.59 150.633c-11.024 5.41-24.098 8.543-38.113 8.543-39.395 0-71.336-24.75-71.336-55.281 0-22.551 17.43-41.95 42.418-50.547-47.524 2.738-85.715 40.914-85.715 88.023 0 54.367 48.465 99.29 108.246 99.29 44.64 0 81.8-25.884 101.226-60.509-26.734 6.012-58.379-5.422-56.726-29.52zm0 0"/></g></svg>