<svg xmlns="http://www.w3.org/2000/svg" width="250" height="250"><linearGradient id="a" x1="126.3" x2="338.3" y1="41.8" y2="318.9" gradientTransform="scale(.64103 .63939)" gradientUnits="userSpaceOnUse"><stop offset="0" stop-color="#00efff"/><stop offset="1" stop-color="#00b3ec"/></linearGradient><path fill="url(#a)" d="M249.938 124.746c0 68.89-55.938 124.742-124.938 124.742S.062 193.637.062 124.746C.063 55.852 56 0 125 0s124.938 55.852 124.938 124.746zm0 0"/><path fill="#9bf9ff" d="M222.691 116.496c.836-17.965-11.73-29.922-25.898-38.105l-9.23 54.09c6.41-.32 9.488 2.046 10.644 3.199 1.41 1.468 4.934 5.754.64 12.465 8.973-1.407 22.755-9.973 23.844-31.649zm0 0"/><g fill-rule="evenodd"><path fill="#fdffff" d="M101.668 53.516 90.707 42.457c16.535-1.984 60.254.637 102.5 27.043.703 2.879 0 7.164 0 7.164l3.523 1.727c3.079 4.41 8.333 16.879 4.618 31.71-3.657 14.77-10.067 21.102-12.758 22.38-5.707 0-15.32 3.324-18.461 17.84-3.078 14.511-9.102 17.644-11.668 17.39l-62.434.703-41.156-24.168-6.023-50.191L60.512 78.39l20.96-17.008 14.876-6.012 5.32-1.789zm73.715 20.718a23.237 23.237 0 0 1-6.024 4.602c-16.027-3.387-21.859-11.7-21.859-11.7 15.129-.128 28.848 3.516 38.848 9.59 0 0-5.387-1.788-10.899-2.558zm0 0"/><path fill="#a0f9ff" d="M170.063 150.254a87.273 87.273 0 0 1-38.204 8.57c-39.488 0-71.539-24.68-71.539-55.18 0-22.507 17.5-41.816 42.563-50.449-47.754 2.75-85.961 40.86-85.961 87.852 0 54.285 48.59 99.105 108.527 99.105 44.742 0 82.051-25.832 101.54-60.422-26.86 6.012-58.59-5.37-56.927-29.41zm0 0"/></g></svg>