<svg xmlns="http://www.w3.org/2000/svg" width="250" height="250"><linearGradient id="a" x1="52.063" x2="221.646" y1="46.007" y2="229.678" gradientUnits="userSpaceOnUse"><stop offset="0" stop-color="#fc8f55"/><stop offset=".44" stop-color="#fe7a6a"/><stop offset="1" stop-color="#fe687c"/></linearGradient><path fill="url(#a)" d="M249.973 124.988c0 69.028-55.957 124.985-124.985 124.985C55.957 249.973 0 194.016 0 124.988 0 55.957 55.957 0 124.988 0c69.028 0 124.985 55.957 124.985 124.988zm0 0"/><path fill="none" stroke="#fff" stroke-miterlimit="10" stroke-width="7.69785" d="M237.426 124.988c0 62.098-50.34 112.438-112.438 112.438-62.101 0-112.441-50.34-112.441-112.438 0-62.101 50.34-112.441 112.441-112.441 62.098 0 112.438 50.34 112.438 112.441zm0 0"/><path fill="#fefefe" d="m108.746 138.355 16.625-50.601 16.938 50.601zm70.484 31.997-13.753-37.77h8.21a5.98 5.98 0 0 0 5.93-5.953 5.645 5.645 0 0 0-5.644-5.645H161.14l-2.051-5.875h14.597c3.204 0 5.82-2.55 5.903-5.75a5.896 5.896 0 0 0-5.926-5.925H154.7l-10.262-28.227a25.432 25.432 0 0 0-7.363-10.39 17.204 17.204 0 0 0-11.597-3.903 17.686 17.686 0 0 0-11.653 3.902 25.667 25.667 0 0 0-7.39 10.391l-10.75 28.484h-18.86a5.69 5.69 0 0 0-5.695 5.668 5.9 5.9 0 0 0 5.902 5.903h14.317l-2.207 5.722H76.312c-3.148 0-5.699 2.551-5.699 5.696a5.853 5.853 0 0 0 5.828 5.851h8.235l-13.985 37.82a19.627 19.627 0 0 0-1.41 6.7 12.364 12.364 0 0 0 3.899 8.469 14.112 14.112 0 0 0 9.34 3.437 12.575 12.575 0 0 0 12.832-9.289l5.414-16.14h49.804l5.414 16.523a12.647 12.647 0 0 0 12.828 8.828 11.944 11.944 0 0 0 6.16-1.566 21.179 21.179 0 0 0 4.286-4.258 11.525 11.525 0 0 0 1.562-6.004 39.361 39.361 0 0 0-1.59-6.594zm0 0"/></svg>