<?xml version="1.0" encoding="utf-8"?>
<!-- Generator: Adobe Illustrator 27.7.0, SVG Export Plug-In . SVG Version: 6.00 Build 0)  -->
<svg version="1.1" id="Layer_1" xmlns="http://www.w3.org/2000/svg" xmlns:xlink="http://www.w3.org/1999/xlink" x="0px" y="0px"
	 viewBox="0 0 373.9 422" style="enable-background:new 0 0 373.9 422;" xml:space="preserve">
<style type="text/css">
	.st0{fill:#213147;}
	.st1{fill:#12AAFF;}
	.st2{fill:#9DCCED;}
	.st3{fill:#FFFFFF;}
</style>
<path class="st0" d="M14.2,128.3v165.5c0,10.5,5.6,20.3,14.8,25.5L172.2,402c9.1,5.3,20.4,5.3,29.5,0L345,319.3
	c9.1-5.3,14.8-15,14.8-25.5V128.3c0-10.5-5.6-20.3-14.8-25.6L201.7,20c-9.1-5.3-20.4-5.3-29.5,0L28.9,102.7
	C19.9,108,14.2,117.7,14.2,128.3z"/>
<g>
	<path class="st1" d="M218.3,243.1l-20.5,56c-0.6,1.5-0.6,3.3,0,4.8l35.1,96.4l40.7-23.5l-48.8-133.8
		C223.7,240,219.4,240,218.3,243.1L218.3,243.1z"/>
	<path class="st1" d="M259.2,148.8c-1.1-3.1-5.4-3.1-6.6,0l-20.5,56c-0.6,1.6-0.6,3.3,0,4.8l57.6,157.9l40.7-23.5L259.2,148.8
		L259.2,148.8z"/>
</g>
<path class="st2" d="M187,26.1c1,0,2,0.3,2.9,0.8l155,89.5c1.8,1,2.9,2.9,2.9,5v179c0,2.1-1.1,4-2.9,5l-155,89.6
	c-0.9,0.5-1.9,0.8-2.9,0.8s-2-0.3-2.9-0.8l-155-89.5c-1.8-1-2.9-2.9-2.9-5V121.4c0-2.1,1.1-4,2.9-5l155-89.5
	C185,26.4,186,26.1,187,26.1 M187,0c-5.5,0-11.1,1.5-16,4.3L16,93.8c-9.8,5.7-16,16.2-16,27.6v179c0,11.4,6.1,22,16,27.7l155,89.5
	c4.9,2.9,10.4,4.3,16,4.3s11.1-1.5,16-4.3l155-89.5c9.9-5.7,16-16.2,16-27.7v-179c0-11.4-6.1-22-16-27.7L203,4.3
	C198,1.5,192.5,0,187,0L187,0L187,0z"/>
<polygon class="st0" points="84.5,367.7 98.8,328.7 127.4,352.5 100.7,377 "/>
<g>
	<path class="st3" d="M173.9,108.7h-39.3c-2.9,0-5.6,1.8-6.6,4.6l-84.2,231l40.7,23.5l92.8-254.4
		C178.1,111.1,176.4,108.7,173.9,108.7L173.9,108.7z"/>
	<path class="st3" d="M242.7,108.7h-39.3c-2.9,0-5.6,1.8-6.6,4.6L100.7,377l40.7,23.5L246,113.4
		C246.9,111.1,245.1,108.7,242.7,108.7z"/>
</g>
</svg>
