<svg xmlns="http://www.w3.org/2000/svg" width="250" height="250"><clipPath id="a"><path d="M42 50h166v150H42zm0 0"/></clipPath><clipPath id="b"><path d="M207.707 162.059v12.293c0 .601-.484 1.113-1.11 1.113H43.403c-.601 0-1.109-.512-1.109-1.113v-12.293c0-.602.484-1.11 1.11-1.11h163.195c.601 0 1.109.485 1.109 1.11zm-1.11 23.082H43.403c-.601 0-1.109.484-1.109 1.109v12.293c0 .602.484 1.11 1.11 1.11h163.195c.601 0 1.109-.485 1.109-1.11V186.25c0-.625-.508-1.11-1.11-1.11zM43.056 151.273H73.98a1.928 1.928 0 0 0 1.504-1.113s1.137-2.984 3.243-7.543c3.613-7.8 6.597-12.918 6.597-12.918 7.824-14.027 19.235-31.18 33.102-36.32 2.105-.762 4.304-1.227 6.527-1.32h.094c2.223.093 4.445.558 6.527 1.32 13.867 5.14 25.278 22.27 33.102 36.32 0 0 3.008 5.117 6.62 12.918 2.106 4.559 3.24 7.543 3.24 7.543.28.606.859 1.043 1.507 1.113h30.902a.706.706 0 0 0 .371-.117c.301-.23.391-.648.207-.996 0 0-2.039-5.23-5.671-13.215a281.63 281.63 0 0 0-3.38-7.152c-8.265-16.828-16.85-32.871-28.054-49.121-11.273-16.367-28.242-29.723-44.887-30.324h-1.133c-16.644.601-33.613 13.957-44.882 30.324-11.184 16.25-19.77 32.293-28.059 49.121-1.25 2.59-2.383 4.953-3.379 7.152-3.656 7.985-5.672 13.102-5.672 13.102a.89.89 0 0 0 .211 1.11c.137.07.278.116.438.116zm0 0"/></clipPath><linearGradient id="c" x1="313.434" x2="853.781" y1="735.713" y2="201.504" gradientTransform="matrix(.23148 0 0 -.23148 0 250)" gradientUnits="userSpaceOnUse"><stop offset="0" stop-color="#fcb23a"/><stop offset="1" stop-color="#f5833d"/></linearGradient><g clip-path="url(#a)"><g clip-path="url(#b)"><path fill="url(#c)" d="M40.117 46.668H209.77V216.32H40.117zm0 0"/></g></g></svg>