<svg xmlns="http://www.w3.org/2000/svg" width="250" height="250"><linearGradient id="a" x1="210.75" x2="51.5" y1="33.75" y2="221.5" gradientUnits="userSpaceOnUse"><stop offset="0" stop-color="#b6509e"/><stop offset="1" stop-color="#2ebac6"/></linearGradient><path fill="#fff" d="M250 125c0 69.035-55.965 125-125 125S0 194.035 0 125 55.965 0 125 0s125 55.965 125 125zm0 0"/><path fill="url(#a)" d="M125 250c-8.46.004-16.902-.848-25.195-2.54a124.377 124.377 0 0 1-44.7-18.808A125.37 125.37 0 0 1 9.82 173.656a124.484 124.484 0 0 1-7.28-23.46 126.19 126.19 0 0 1 0-50.383 124.279 124.279 0 0 1 18.808-44.7A125.378 125.378 0 0 1 76.344 9.824a124.211 124.211 0 0 1 23.46-7.285 126.19 126.19 0 0 1 50.383 0 124.279 124.279 0 0 1 44.7 18.809 125.378 125.378 0 0 1 45.289 54.996 124.496 124.496 0 0 1 7.285 23.46 126.19 126.19 0 0 1 0 50.383 124.25 124.25 0 0 1-18.809 44.7 125.37 125.37 0 0 1-54.996 45.285 124.223 124.223 0 0 1-23.46 7.289A125.788 125.788 0 0 1 125 250zm0-236.61c-7.555 0-15.09.758-22.492 2.27a110.94 110.94 0 0 0-39.91 16.793 111.936 111.936 0 0 0-40.43 49.106 111.036 111.036 0 0 0-6.504 20.949 112.684 112.684 0 0 0 0 44.984 110.998 110.998 0 0 0 16.797 39.906 111.927 111.927 0 0 0 49.105 40.438 111.036 111.036 0 0 0 20.95 6.504 112.684 112.684 0 0 0 44.984 0 111.016 111.016 0 0 0 39.91-16.797 111.957 111.957 0 0 0 40.422-49.102 111.036 111.036 0 0 0 6.504-20.949 112.684 112.684 0 0 0 0-44.984 110.998 110.998 0 0 0-16.797-39.906 111.946 111.946 0 0 0-49.098-40.434 111.036 111.036 0 0 0-20.949-6.504A112.407 112.407 0 0 0 125 13.391zm0 0"/><path fill="#0e3158" d="M220.703 125c0 52.855-42.848 95.703-95.703 95.703S29.297 177.855 29.297 125 72.145 29.297 125 29.297 220.703 72.145 220.703 125zm0 0"/><g fill="#fff"><path d="m86.281 88.148 9.344-5.37 1.254 2.167L131.3 65.082l-2.516-1.445-2.527-1.465-1.254-.727-56.082 32.399v1.445l16.11-9.312zM86.281 108.543l26.977-15.586 1.265 2.188 34.422-19.864-2.515-1.465-2.528-1.445-1.265-.726-73.715 42.562v1.445l16.11-9.312zM86.281 118.742l35.801-20.683 1.262 2.171 34.422-19.89-2.524-1.414-2.52-1.477-1.261-.722-82.54 47.656v1.48l16.11-9.312zM86.281 128.918l44.875-25.906 1.266 2.172 34.168-19.727-2.528-1.465-2.515-1.449-1.262-.723-91.363 52.762v1.445l16.11-9.312zM86.281 139.086l53.7-30.992 1.261 2.203L175.41 90.55l-2.523-1.457-2.52-1.465-1.262-.723-100.183 57.852v1.449l16.11-9.293zM179.191 92.742l-1.265-.746-109.004 62.961v1.445l16.11-9.293 1.25 2.172 53.698-30.988 1.262 2.168 39.832-22.984V93.84zM75.832 162.586l9.035-5.207 1.254 2.172 53.606-30.938 1.261 2.188 40.09-23.145v-7.285l-106.48 61.492zM139.727 138.813l1.261 2.187 40.086-23.145v-7.285l-97.656 56.38 1.254.734 9.168-5.301 1.265 2.191M93.496 172.79l9.168-5.317 1.262 2.191 35.8-20.676 1.262 2.192 40.086-23.145v-7.285l-88.867 51.293zM102.316 177.879l9.172-5.297 1.262 2.168 26.977-15.566 1.265 2.171 40.086-23.156v-7.254l-80.023 46.211zM109.875 182.238l1.266.723 9.199-5.297 1.23 2.191 18.157-10.503 1.261 2.199 40.09-23.156v-7.274zM119.96 188.074l9.173-5.328 1.262 2.203 9.332-5.422 1.265 2.2 40.086-23.133v-7.274L118.7 187.355zM140.121 70.18l-2.516-1.45-2.527-1.445-1.25-.754-64.906 37.48v1.446l16.11-9.277 1.25 2.172 18.163-10.485 1.285 2.2zm0 0"/></g></svg>