<svg xmlns="http://www.w3.org/2000/svg" width="250" height="250"><path fill="#fcf9f9" stroke="#bc923e" stroke-miterlimit="10" stroke-width=".70425" d="M249.65 125c0 68.844-55.806 124.65-124.65 124.65C56.16 249.65.352 193.843.352 125 .352 56.16 56.16.352 125 .352 193.844.352 249.65 56.16 249.65 125zm0 0"/><path d="M80.54 172.48c0 6.657-5.395 12.051-12.052 12.051s-12.054-5.394-12.054-12.05c0-6.66 5.398-12.055 12.054-12.055S80.54 165.82 80.54 172.48zm0 0"/><path d="M176.7 171.848c-1.962-.34-3.536-1.106-4.727-2.301s-2.082-2.938-2.676-5.234c-.602-2.301-.899-5.493-.895-9.579 0-9.199.125-18.441.383-27.722.254-9.285.383-19.38.383-30.285 0-7.493-1.152-13.88-3.45-19.157-2.3-5.277-5.534-9.574-9.71-12.898-4.172-3.324-9.113-5.754-14.817-7.285-5.707-1.532-11.968-2.297-18.785-2.305-8.176 0-16.394 1.535-24.66 4.598-8.262 3.066-15.969 7.496-23.121 13.289l3.32 15.328h1.79c1.19-1.871 2.937-3.617 5.238-5.238a55.212 55.212 0 0 1 7.668-4.47 45.246 45.246 0 0 1 8.808-3.198 36.73 36.73 0 0 1 8.942-1.149c7.664 0 13.668 2.172 18.011 6.516s6.516 9.582 6.516 15.71c0 2.216-.297 4.09-.895 5.622-.597 1.535-1.914 2.941-3.953 4.222-2.047 1.278-5.152 2.555-9.324 3.833-4.176 1.277-9.84 2.765-16.992 4.468-5.793 1.364-10.988 3.024-15.586 4.985-4.598 1.957-8.559 4.382-11.883 7.28a29.281 29.281 0 0 0-7.664 10.477c-1.789 4.086-2.683 8.942-2.683 14.563 0 .598.015 1.191.046 1.789a19.014 19.014 0 0 1 21.594 18.832 18.94 18.94 0 0 1-2.406 9.262c.23.09.46.18.695.265 4.602 1.704 10.137 2.555 16.606 2.555 7.836 0 14.347-1.617 19.547-4.851 5.199-3.239 9.753-7.583 13.671-13.032 2.043 5.793 5.024 10.219 8.942 13.285 3.918 3.063 9.027 4.598 15.328 4.598 3.918 0 7.578-.508 10.988-1.531 3.41-1.024 7.582-2.555 12.52-4.602v-6.129c-2.555 0-4.813-.172-6.77-.511zm-41.391-46.118c-.09 3.832-.133 9.41-.13 16.735 0 8.347-1.745 14.648-5.238 18.906-3.492 4.258-8.046 6.387-13.664 6.387-4.43 0-7.965-1.66-10.601-4.98-2.637-3.321-3.957-8.133-3.961-14.438 0-6.469 1.066-11.41 3.195-14.817 2.125-3.41 4.852-6.093 8.176-8.05a53.757 53.757 0 0 1 10.984-4.856 59.006 59.006 0 0 0 11.371-4.98c-.004 2.898-.05 6.261-.132 10.093zm0 0"/></svg>