<svg viewBox="0 0 397 397" xmlns="http://www.w3.org/2000/svg"><circle cx="199.5" cy="199.4" fill="#4d4c4f" r="198"/><path d="m90.3 283.5h61.1c0-.8-.1-1.9-.8-2.8-1.4-1.8-4.5-1.4-5.9-1.4-5.7.2-10.4-4-13.8-7.1-7.2-6.9-6.7-17.8-6.5-20.5.3-39.3.7-78.6 1-117.9l65.2 117c2.8-.3 7.5-.4 13 1.4 7.6 2.5 12.1 7.4 14 9.6 1.5-.8 3.1-1.7 4.6-2.5l-16.9-30.2 48.6-99.6c.8 41.6 1.6 83.3 2.4 124.9.1 1.1 1.3 12.8-7.4 20.1-4.5 3.8-9.6 4.7-11.9 4.9-.3 0-3.3-.4-5.1 1.8-.7.9-1 1.8-1.1 2.4h77.6c.1-.5.2-1.4-.3-2.3-.7-1.4-2.6-2.2-4.6-1.9-2.3.2-7.3.2-12.4-2.8-9.6-5.5-10.9-16.6-11-17.9-.8-41-1.6-81.9-2.4-122.9.8-2.1 3.2-7.4 8.9-11.3 4.1-2.8 8.1-3.7 10.4-4 .7.1 2.7.2 4.8-1 2.4-1.4 3.3-3.6 3.5-4.3-16.5 0-33 0-49.5 0l-53.8 109-59.9-109h-47c-.2 1.1.1 1.9.3 2.3.8 1.8 3 2.9 5.5 2.8 1.8 0 7.5.3 12.8 4.6 3.9 3.2 5.5 7.1 6.1 8.9-.6 39.4-1.3 78.8-1.9 118.1 0 1.8 0 15-10.1 22.4-3.1 2.3-6.3 3.3-8.8 3.9-.8-.1-3.6-.2-6.3 1.8-1.3 1.2-2 2.7-2.4 3.5z" fill="#c39b4e"/></svg>