<svg xmlns="http://www.w3.org/2000/svg" width="250" height="250"><linearGradient id="a" x1="210.75" x2="51.5" y1="33.75" y2="221.5" gradientUnits="userSpaceOnUse"><stop offset="0" stop-color="#b6509e"/><stop offset="1" stop-color="#2ebac6"/></linearGradient><linearGradient id="b" x1="125" x2="125" y1="29.297" y2="220.703" gradientUnits="userSpaceOnUse"><stop offset="0" stop-color="#090220"/><stop offset="1" stop-color="#170659"/></linearGradient><path fill="#fff" d="M250 125c0 69.035-55.965 125-125 125S0 194.035 0 125 55.965 0 125 0s125 55.965 125 125zm0 0"/><path fill="url(#a)" d="M125 250c-8.46.004-16.902-.848-25.195-2.54a124.377 124.377 0 0 1-44.7-18.808A125.37 125.37 0 0 1 9.82 173.656a124.484 124.484 0 0 1-7.28-23.46 126.19 126.19 0 0 1 0-50.383 124.279 124.279 0 0 1 18.808-44.7A125.378 125.378 0 0 1 76.344 9.824a124.211 124.211 0 0 1 23.46-7.285 126.19 126.19 0 0 1 50.383 0 124.279 124.279 0 0 1 44.7 18.809 125.378 125.378 0 0 1 45.289 54.996 124.496 124.496 0 0 1 7.285 23.46 126.19 126.19 0 0 1 0 50.383 124.25 124.25 0 0 1-18.809 44.7 125.37 125.37 0 0 1-54.996 45.285 124.223 124.223 0 0 1-23.46 7.289A125.788 125.788 0 0 1 125 250zm0-236.61c-7.555 0-15.09.758-22.492 2.27a110.94 110.94 0 0 0-39.91 16.793 111.936 111.936 0 0 0-40.43 49.106 111.036 111.036 0 0 0-6.504 20.949 112.684 112.684 0 0 0 0 44.984 110.998 110.998 0 0 0 16.797 39.906 111.927 111.927 0 0 0 49.105 40.438 111.036 111.036 0 0 0 20.95 6.504 112.684 112.684 0 0 0 44.984 0 111.016 111.016 0 0 0 39.91-16.797 111.957 111.957 0 0 0 40.422-49.102 111.036 111.036 0 0 0 6.504-20.949 112.684 112.684 0 0 0 0-44.984 110.998 110.998 0 0 0-16.797-39.906 111.946 111.946 0 0 0-49.098-40.434 111.036 111.036 0 0 0-20.949-6.504A112.407 112.407 0 0 0 125 13.391zm0 0"/><path fill="url(#b)" d="M220.703 125c0 52.855-42.848 95.703-95.703 95.703S29.297 177.855 29.297 125 72.145 29.297 125 29.297 220.703 72.145 220.703 125zm0 0"/><path fill="#00d1ff" d="M93.473 101.207a4.027 4.027 0 0 0-3.157-1.465H64.754a.727.727 0 0 1-.55-.219.661.661 0 0 1-.216-.472V81.824a.661.661 0 0 1 .215-.472.738.738 0 0 1 .55-.215h27.013c6.816 0 12.695 2.785 17.64 8.355l6.563 8.008-12.781 15.59zm47.207-11.8c4.941-5.516 10.851-8.27 17.722-8.27h26.93a.68.68 0 0 1 .508.172c.125.14.183.328.172.515v17.227c0 .172-.063.34-.172.472a.62.62 0 0 1-.508.22h-25.566a4.014 4.014 0 0 0-3.153 1.464l-18.832 22.91L156.7 147.2a4.045 4.045 0 0 0 3.067 1.38h25.562a.62.62 0 0 1 .512.214c.117.164.18.36.172.559v17.226a.77.77 0 0 1-.172.473.623.623 0 0 1-.512.219h-26.926c-6.87 0-12.754-2.786-17.636-8.356l-15.68-19.121-15.68 19.121c-4.941 5.57-10.851 8.356-17.722 8.356h-26.93a.617.617 0 0 1-.512-.22.867.867 0 0 1-.168-.558v-17.226c0-.176.059-.34.168-.473a.617.617 0 0 1 .512-.219h25.562a4.198 4.198 0 0 0 3.157-1.465l18.488-22.566zm0 0"/></svg>