<svg xmlns="http://www.w3.org/2000/svg" width="250" height="250"><linearGradient id="a" x1="210.75" x2="51.5" y1="33.75" y2="221.5" gradientUnits="userSpaceOnUse"><stop offset="0" stop-color="#b6509e"/><stop offset="1" stop-color="#2ebac6"/></linearGradient><path fill="#fff" d="M250 125c0 69.035-55.965 125-125 125S0 194.035 0 125 55.965 0 125 0s125 55.965 125 125zm0 0"/><path fill="url(#a)" d="M125 250c-8.46.004-16.902-.848-25.195-2.54a124.377 124.377 0 0 1-44.7-18.808A125.37 125.37 0 0 1 9.82 173.656a124.484 124.484 0 0 1-7.28-23.46 126.19 126.19 0 0 1 0-50.383 124.279 124.279 0 0 1 18.808-44.7A125.378 125.378 0 0 1 76.344 9.824a124.211 124.211 0 0 1 23.46-7.285 126.19 126.19 0 0 1 50.383 0 124.279 124.279 0 0 1 44.7 18.809 125.378 125.378 0 0 1 45.289 54.996 124.496 124.496 0 0 1 7.285 23.46 126.19 126.19 0 0 1 0 50.383 124.25 124.25 0 0 1-18.809 44.7 125.37 125.37 0 0 1-54.996 45.285 124.223 124.223 0 0 1-23.46 7.289A125.788 125.788 0 0 1 125 250zm0-236.61c-7.555 0-15.09.758-22.492 2.27a110.94 110.94 0 0 0-39.91 16.793 111.936 111.936 0 0 0-40.43 49.106 111.036 111.036 0 0 0-6.504 20.949 112.684 112.684 0 0 0 0 44.984 110.998 110.998 0 0 0 16.797 39.906 111.927 111.927 0 0 0 49.105 40.438 111.036 111.036 0 0 0 20.95 6.504 112.684 112.684 0 0 0 44.984 0 111.016 111.016 0 0 0 39.91-16.797 111.957 111.957 0 0 0 40.422-49.102 111.036 111.036 0 0 0 6.504-20.949 112.684 112.684 0 0 0 0-44.984 110.998 110.998 0 0 0-16.797-39.906 111.946 111.946 0 0 0-49.098-40.434 111.036 111.036 0 0 0-20.949-6.504A112.407 112.407 0 0 0 125 13.391zm0 0"/><path fill="#0e052f" d="M220.668 124.98c0 52.848-42.84 95.688-95.688 95.688-52.843 0-95.683-42.84-95.683-95.688 0-52.843 42.84-95.683 95.683-95.683 52.848 0 95.688 42.84 95.688 95.683zm0 0"/><g fill="#31d8a4"><path d="M188.648 65.184c-1.12-2.2-2.234-4.395-3.343-6.594-.555-1.117-1.114-2.23-1.664-3.34-1.61-3.246-3.188-6.422-4.957-9.465l-1.532-1.023c2.098 3.425 3.907 7.066 5.778 10.824.554 1.121 1.11 2.238 1.668 3.352 1.105 2.195 2.218 4.394 3.34 6.59 9.613 18.929 19.363 38.124 24.722 58.226 2.149 8.074 4.68 17.621 4.633 26.476.254-.94.5-1.89.746-2.84-.418-8.156-2.676-16.64-4.598-23.827-5.402-20.196-15.203-39.473-24.793-58.38zM51.805 71.906c.422-3.09.64-6.203.664-9.32-.278.312-.54.629-.809.95a72.86 72.86 0 0 1-.625 8.3 132.28 132.28 0 0 1-7.09 27.039c-4.39 12.113-9.066 24.29-14.101 36.348.058.53.117 1.07.183 1.609 5.235-12.5 10.118-25.125 14.668-37.695a130.717 130.717 0 0 0 7.11-27.23zM220.668 122.281c-5.637-18.449-14.203-36.285-22.719-53.82l-2.91-6.027a277.219 277.219 0 0 1-2.36-5.098 74.787 74.787 0 0 0-1.593-1.555l.809 1.774c.8 1.742 1.597 3.488 2.43 5.23.964 2.012 1.937 4.016 2.898 6.028 8.898 18.417 17.898 37.07 23.48 56.406v-.239c-.035-.902-.035-1.8-.035-2.699zm0 0"/><path d="M48.836 67.04c-.305.397-.606.792-.898 1.198-.942 10.278-4.036 20.809-7.473 30.38-3.516 9.862-7.207 19.792-11.133 29.675 0 .652.05 1.3.082 1.945 4.191-10.437 8.106-20.953 11.84-31.347 3.531-9.954 6.777-21 7.582-31.852zM191.66 66.09a3476.83 3476.83 0 0 1-3.308-6.653c-.586-1.171-1.145-2.343-1.715-3.496-1.137-2.343-2.246-4.652-3.461-6.91-.5-.39-1.008-.746-1.492-1.148 1.492 2.703 2.863 5.515 4.257 8.398.57 1.172 1.145 2.34 1.723 3.504l3.309 6.653c9.644 19.308 19.433 38.867 24.828 59.347 1.277 4.844 2.62 10.094 3.52 15.406.132-.793.261-1.59.378-2.39-.879-4.59-2.039-9.078-3.129-13.227-5.457-20.535-15.273-40.21-24.91-59.484zm0 0"/><path d="M194.906 67.504c-.976-1.98-1.945-3.961-2.914-5.938-.808-1.66-1.586-3.332-2.37-5.015a237.684 237.684 0 0 0-1.704-3.64c-.504-.442-1.012-.868-1.496-1.294a239.68 239.68 0 0 1 2.473 5.235 332.055 332.055 0 0 0 2.402 5.082c.976 1.98 1.941 3.953 2.906 5.937 9.57 19.5 19.281 39.29 24.668 59.922.48 1.848.977 3.738 1.445 5.68.075-.844.141-1.688.196-2.54l-.867-3.34c-5.438-20.738-15.176-40.593-24.739-60.09zM44.246 73.61c-.39.62-.746 1.242-1.156 1.87a177.42 177.42 0 0 1-6.535 22.72 982.681 982.681 0 0 1-6.989 19.581c-.066.899-.12 1.805-.164 2.715a899.496 899.496 0 0 0 7.91-22.043 165.965 165.965 0 0 0 6.934-24.844zM175.117 206.285l-.62.586a269.38 269.38 0 0 0 3.476-2.246c3.027-2.871 6.086-5.691 9.246-8.352 1.777-1.48 3.68-2.8 5.691-3.937.617-.621 1.223-1.258 1.824-1.895a41.415 41.415 0 0 0-8.03 5.235c-3.985 3.37-7.802 6.976-11.587 10.61zM182.371 62.867a866.097 866.097 0 0 1-3.809-7.258l-.351.188.351-.188-1.195-2.3a101.197 101.197 0 0 0-7.422-12.793 81.834 81.834 0 0 0-1.632-.856c3.289 4.254 5.71 8.926 8.351 14.031.39.75.781 1.496 1.188 2.297l3.808 7.266a705.944 705.944 0 0 1 1.781 3.387c.672.671 1.329 1.359 1.98 2.054zM128.145 220.605h.878c2.024-4.601 4.165-9.148 6.356-13.64l-.938.105a353.83 353.83 0 0 0-6.296 13.535zM208.652 157.41a12.73 12.73 0 0 0 2.743-6.504c1.496-9.8-1.426-21.125-3.93-30.37.058 1.155.09 2.323.105 3.487 2.246 8.547 4.305 18.262 3.04 26.758a12.127 12.127 0 0 1-2.563 6.117 12.623 12.623 0 0 1-4.844 3.446 25.117 25.117 0 0 1-4.21 1.332c-.15.304-.298.613-.454.91 1.703-.34 3.371-.84 4.98-1.492 1.981-.801 3.743-2.067 5.133-3.684zM135.813 220.055l1.011-.121c2.988-4.926 6.106-9.786 9.2-14.579l.367-.585-1.137.3c-3.168 4.922-6.352 9.907-9.441 14.985zM197.352 169.594l.902-.172c4.293-.8 8.629-1.606 12.11-3.387.491-.215.968-.465 1.429-.746.23-.492.465-.996.684-1.496-.77.61-1.598 1.133-2.477 1.57-3.379 1.727-7.602 2.512-11.96 3.32l-.88.165-2.472.449c-.196.305-.399.613-.598.918zM121.73 220.605h.829a312.618 312.618 0 0 1 4.214-13.074h-.851a341.366 341.366 0 0 0-4.192 13.074zM172.426 53.914c-.363-.668-.746-1.332-1.067-1.984-2.992-5.637-5.793-10.785-9.847-15.407l-1.696-.683c4.598 4.851 7.543 10.332 10.848 16.492.352.64.703 1.3 1.059 1.965.75 1.398 1.496 2.812 2.289 4.215.523.383 1.031.75 1.539 1.168-1.047-1.926-2.094-3.852-3.125-5.766zm0 0"/><path d="M203.512 150.637a12.846 12.846 0 0 0 1.492-5.14 77.402 77.402 0 0 1-1.492 5.14zM196.379 173.371c1.957-.39 3.914-.75 5.844-1.203 2.453-.54 4.816-1.074 6.988-1.766.187-.336.36-.672.539-1.007a73.505 73.505 0 0 1-7.7 1.996c-1.898.418-3.835.797-5.792 1.187l-4.41.899-.703.96c1.742-.37 3.492-.722 5.234-1.066zM149.066 207.375l-.82 1.129a1065.483 1065.483 0 0 0-7.828 10.914l1.098-.18c2.453-3.468 4.933-6.898 7.394-10.3l.809-1.098c1.219-1.676 2.441-3.461 3.676-5.274-.418.157-.852.305-1.278.454a213.296 213.296 0 0 1-3.05 4.355zM190.227 178.715c3.199-.914 6.453-1.645 9.68-2.371 1.995-.457 3.991-.906 5.98-1.39l.855-.22c.196-.32.39-.64.574-.976l-1.62.422c-1.938.476-3.919.925-5.915 1.375-3.254.746-6.55 1.492-9.765 2.39-.746.211-1.496.434-2.207.664-.336.399-.684.782-1.032 1.172 1.137-.37 2.29-.726 3.45-1.066zM157.875 203.234l-.219.282c-1.652 2.175-3.265 4.308-4.875 6.304l-2.832 3.489c-1.36 1.683-2.734 3.37-4.101 5.078l1.257-.293 3.477-4.29 2.824-3.492c1.621-1.996 3.242-4.14 4.887-6.308l.219-.285a307.118 307.118 0 0 1 3.937-5.09c-.558.277-1.113.559-1.68.828a137.542 137.542 0 0 0-2.894 3.777zM182.219 192.516a193.975 193.975 0 0 0-14.95 14.664 441.946 441.946 0 0 1-6.128 6.406c.632-.262 1.261-.524 1.89-.797a465.15 465.15 0 0 0 4.86-5.086 181.043 181.043 0 0 1 14.824-14.558c4.433-3.739 9.574-6.086 14.95-7.954.75-.261 1.495-.511 2.245-.75l.88-1.12c-1.138.359-2.247.75-3.388 1.109a46.482 46.482 0 0 0-15.183 8.086zM124.832 220.664h.844c1.629-4.484 3.379-8.902 5.195-13.289l-.879.059a345.428 345.428 0 0 0-5.16 13.23zm0 0"/><path d="M205.387 155.012a12.53 12.53 0 0 0 2.832-6.528c.828-5.523.254-11.558-.86-17.418a79.324 79.324 0 0 1-.285 3.043c.832 4.707.953 9.512.36 14.258a11.678 11.678 0 0 1-2.649 6.121 12.464 12.464 0 0 1-3.781 2.832c-.149.36-.313.746-.469 1.075a13.353 13.353 0 0 0 4.852-3.383zM179.297 61.89c-1.27-2.374-2.54-4.745-3.809-7.124-.375-.746-.746-1.426-1.12-2.121-2.716-5.168-5.231-9.946-8.692-14.282l-1.668-.746c3.957 4.606 6.668 9.719 9.668 15.438l1.117 2.11a573.37 573.37 0 0 0 3.734 6.92c.57.49 1.137.977 1.7 1.493zM201.895 178.91c-2.856.746-5.727 1.496-8.543 2.375-5.622 1.797-11.043 4.164-15.657 8.04-5.62 4.722-10.605 10.562-15.465 16.265-1.945 2.246-3.867 4.484-5.792 6.668l-3.993 4.402 1.496-.45 3.102-3.429c1.965-2.183 3.906-4.484 5.852-6.726 4.851-5.684 9.765-11.446 15.332-16.125 4.488-3.782 9.808-6.11 15.386-7.88 2.785-.89 5.64-1.644 8.496-2.37l1.375-.36.336-.082.684-.984-1.203.312zM218.707 105.645a96.65 96.65 0 0 0-1.156-4.965c-4.004-9.645-8.426-19.176-12.852-28.625a74.17 74.17 0 0 0-2.633-3.735c.344.746.696 1.493 1.04 2.246 5.43 11.551 10.894 23.223 15.601 35.079zM200.188 69.738c7.257 15.274 14.578 30.696 20.07 46.496a92.373 92.373 0 0 0-.352-3.347c-5.37-14.778-12.222-29.219-18.992-43.477-1-2.047-1.969-4.09-2.91-6.129a6.958 6.958 0 0 1-.117-.261c-.614-.747-1.235-1.43-1.864-2.125.418.914.832 1.816 1.266 2.722.969 2.04 1.934 4.078 2.899 6.121zm0 0"/><path d="M205.617 107.04a80.16 80.16 0 0 1 .965 5.089 189.556 189.556 0 0 1 2.992 9.613c2.594 9.602 5.727 21.367 4.238 31.465a12.462 12.462 0 0 1-2.484 6.11 12.735 12.735 0 0 1-4.68 3.542 37.57 37.57 0 0 1-9.59 2.57l-.5.891a41.276 41.276 0 0 0 10.465-2.746 13.457 13.457 0 0 0 4.973-3.734 13.284 13.284 0 0 0 2.645-6.485c1.496-10.292-1.68-22.222-4.262-31.777a178.613 178.613 0 0 0-4.762-14.539zM131.777 220.426l.918-.074c2.512-4.809 5.13-9.547 7.774-14.204l-1.016.184c-2.617 4.613-5.203 9.316-7.676 14.094zM185.598 64.191c-1.121-2.164-2.235-4.32-3.34-6.472-.54-1.055-1.063-2.102-1.586-3.14a126.566 126.566 0 0 0-6.348-11.61l-1.613-.965a109.199 109.199 0 0 1 7.242 12.91c.524 1.043 1.055 2.09 1.602 3.14l3.332 6.481a643.858 643.858 0 0 1 4.441 8.637 81.355 81.355 0 0 1 2.668 3.488 990.122 990.122 0 0 0-6.398-12.469zM90.887 44.418c-2.051-2.133-4.223-4.164-6.399-6.145l-.746.36c2.246 2.05 4.485 4.133 6.61 6.336a63.669 63.669 0 0 1 3.226 3.613l.75-.312a68.224 68.224 0 0 0-3.441-3.852zM41.7 172.113l.542.957a157.803 157.803 0 0 1 6.117-17.195l-.375-1.047a154.3 154.3 0 0 0-6.289 17.285zM94.332 215.656l.832.27a261.697 261.697 0 0 1-1.258-14.399l-.812-.297c.281 4.774.703 9.606 1.238 14.426zM128.375 29.363l-1.3-.066c5.058 4.031 8.355 8.805 11.913 14.242l1.075.195c-3.524-5.382-6.786-10.238-11.688-14.37zM127.926 41.43c-2.946-4.246-5.867-8.399-9.625-11.895l-1.102.078c3.961 3.551 6.946 7.805 10.059 12.262l.398.559 1 .039zM81.625 210.29c.293.151.586.3.879.44-.879-5.402-1.633-10.832-2.192-16.226l-.851-.563a226.744 226.744 0 0 0 2.164 16.348zM78.238 208.48l.89.5c-.921-5.566-1.66-11.16-2.148-16.773l-.84-.613a214.986 214.986 0 0 0 2.098 16.886zM124.719 40.66a75.35 75.35 0 0 0-8.856-10.93l-1.047.106a73.68 73.68 0 0 1 9.262 11.277c.297.426.606.848.91 1.266h.989zM111.016 42.754a371.483 371.483 0 0 1-5.274-6.14c-1.312-1.567-2.594-3.071-3.906-4.485l-.867.219c1.39 1.492 2.754 3.125 4.156 4.804 1.715 2.051 3.508 4.102 5.316 6.184l.254.293c.301-.063.614-.106.922-.16-.203-.23-.406-.461-.601-.715zM57.621 192.934l.746.746c.16-6.2.57-12.297 1.2-18.246-.243-.309-.481-.614-.704-.922a244.853 244.853 0 0 0-1.242 18.422zM91.395 214.594l.843.324a261.64 261.64 0 0 1-1.597-14.797l-.793-.387c.351 4.95.87 9.903 1.547 14.86zM125.73 29.297h-1.242c4.813 3.93 8.028 8.55 11.543 13.812l1.051.153c-3.469-5.227-6.66-9.926-11.352-13.965zM74.395 206.207l.878.547a214.246 214.246 0 0 1-1.703-17.125l-.832-.676c.305 5.766.871 11.527 1.657 17.254zM122.621 41.398l-.523-.703a93.66 93.66 0 0 0-8.79-10.652l-1.035.09a88.414 88.414 0 0 1 9.188 11.078l.492.668c.137.184.277.363.414.543h.977c-.223-.348-.477-.688-.723-1.024zM119.395 40.605l-.508-.667a103.074 103.074 0 0 0-7.93-9.614l-.977.153a97.47 97.47 0 0 1 8.301 9.976l.477.637 1.12 1.457.95-.059zM70.637 203.734l.867.606a203.76 203.76 0 0 1-1.219-17.469l-.816-.75c.129 5.875.52 11.746 1.168 17.613zM112.203 38.102c-1.973-2.473-3.863-4.805-5.89-6.98l-.918.187c2.125 2.246 4.101 4.68 6.19 7.293 1.157 1.496 2.345 2.91 3.528 4.367l.934-.106c-1.293-1.605-2.578-3.175-3.844-4.761zM63.684 198.434l.816.683c-.27-6.039-.293-12.05-.063-17.941l-.753-.88c-.278 5.981-.27 12.044 0 18.138zM113.656 43c-1.578-1.89-3.148-3.738-4.68-5.645-1.652-2.02-3.253-3.937-4.91-5.753l-.898.195c1.758 1.898 3.437 3.914 5.23 6.062 1.5 1.809 2.997 3.614 4.489 5.41l.925-.124zM60.523 195.7l.805.745c-.066-6.136.121-12.207.54-18.156l-.747-.879a232.637 232.637 0 0 0-.598 18.29zM116.176 39.813l-.457-.586c-2.399-3.086-4.621-5.926-7.086-8.536l-.942.164a111.625 111.625 0 0 1 7.438 8.903l.426.547c.625.808 1.27 1.613 1.906 2.414l.95-.082c-.747-.938-1.497-1.875-2.235-2.825zM66.48 183.29c-.07 5.92.122 11.87.575 17.85l.843.641c-.46-5.93-.675-11.836-.636-17.715zM84.938 211.898l.867.403a250.51 250.51 0 0 1-2.118-15.774 29.96 29.96 0 0 1-.843-.5 243.729 243.729 0 0 0 2.094 15.871zM120.61 29.402l-1.122.059c4.348 3.781 7.473 8.223 10.883 13.098l1.008.066c-3.371-4.863-6.496-9.344-10.77-13.223zM115.504 220.195l.789.075a287.58 287.58 0 0 1 2.926-12.891l-.809-.055a282.605 282.605 0 0 0-2.906 12.871zM166.895 53.375a694.4 694.4 0 0 1-1.727-3.133c-3.297-6.023-6.426-11.719-11.367-16.527l-1.735-.524c5.532 4.926 8.836 10.922 12.403 17.426.469.867.945 1.735 1.433 2.602.457.254.907.523 1.356.789zM110.254 219.535l.8.121c.41-4.375.942-8.715 1.563-13l-.793-.129a280.26 280.26 0 0 0-1.57 13.008zM146.324 31.691l-1.625-.351c6.14 5.133 9.856 11.265 13.824 18.14l1.247.57c-3.938-6.84-7.57-13.081-13.446-18.359zM162.113 49.52c-3.468-6.2-6.73-12.036-12.035-16.887l-1.726-.457c5.91 4.949 9.328 11.054 13.058 17.722l.746 1.293c.434.227.867.442 1.293.672zM112.848 219.918l.793.09a230.21 230.21 0 0 1 2.246-12.918l-.793-.09c-.86 4.23-1.61 8.54-2.246 12.918zM118.254 220.426l.812.054a268.012 268.012 0 0 1 3.739-12.925l-.82-.035a237.163 237.163 0 0 0-3.731 12.906zM169.992 54.266c-.605-1.114-1.199-2.207-1.781-3.297-3.094-5.75-6.04-11.215-10.524-15.93a70.364 70.364 0 0 0-1.734-.613c5.059 4.86 8.184 10.66 11.547 16.91a136.842 136.842 0 0 0 1.79 3.309c.179.316.355.636.53.957.489.316.961.628 1.434.949zM105.148 218.602l.801.164c0-4.485.188-8.887.442-13.29l-.746-.187c-.301 4.402-.457 8.856-.497 13.313zM139.781 30.441l-1.496-.222c5.871 4.707 9.563 10.277 13.367 16.554l1.18.422c-3.789-6.265-7.406-11.918-13.05-16.754zM102.555 218.02l.8.195c-.132-4.485-.14-9.031-.043-13.508l-.757-.219a244.172 244.172 0 0 0 0 13.532zM136.695 30.043l-1.449-.2c5.73 4.583 9.313 9.833 13.082 15.887l1.152.336c-3.738-6.043-7.27-11.379-12.785-16.023zM30.563 140.516c.074.488.156.964.238 1.449a726.921 726.921 0 0 0 12.707-30.828c.254-1.535.554-3.051.898-4.551-4.32 11.363-8.926 22.71-13.843 33.93zM55.215 72.371c.617-4.441.789-8.937.515-13.41-.261.262-.511.535-.75.805.211 4.175.028 8.359-.55 12.5a106.533 106.533 0 0 1-3.606 16.332 91.467 91.467 0 0 1 1.797-3.47c1.133-4.194 2-8.456 2.594-12.757zm0 0"/><path d="M142.996 31.004a56.43 56.43 0 0 0-1.586-.293c5.996 4.902 9.73 10.734 13.621 17.312l1.211.489c-3.847-6.508-7.472-12.485-13.246-17.508zM107.715 219.113l.789.137c.219-4.402.547-8.773.976-13.121l-.789-.156c-.425 4.34-.761 8.714-.976 13.14zM97.188 216.563l.824.246c-.43-4.696-.73-9.38-.907-14.055l-.808-.293c.187 4.687.484 9.387.89 14.101zM130.96 29.492l-1.343-.082c5.293 4.266 8.762 9.125 12.395 14.735l1.105.238c-3.61-5.602-7.02-10.547-12.156-14.89zM133.781 29.7l-1.39-.118c5.515 4.418 9.039 9.434 12.773 15.277l1.129.293c-3.7-5.816-7.176-10.945-12.512-15.453zM99.922 217.348l.816.214c-.289-4.574-.453-9.16-.492-13.753l-.793-.254c.04 4.593.195 9.191.469 13.793zM36.242 160.863l.403.977a563.492 563.492 0 0 1 8.37-16.063c-.1-.382-.195-.75-.28-1.152a593.997 593.997 0 0 0-8.493 16.238zM76.758 50.82c-.832-2.285-2-4.433-3.461-6.379l-.684.45a24.06 24.06 0 0 1 3.395 6.199c.715 2 1.297 4.043 1.742 6.12l.746-.487a48.517 48.517 0 0 0-1.742-5.907zM35.484 158.898l.383 1a1051.03 1051.03 0 0 1 8.567-16.554c-.09-.406-.18-.809-.262-1.211a1152.44 1152.44 0 0 0-8.688 16.765zM73.324 49.867l-.37.137.37-.137a22.754 22.754 0 0 0-1.98-4.125l-.656.457a22.453 22.453 0 0 1 1.89 3.946 47.475 47.475 0 0 1 2.317 9.187l.75-.55a47.982 47.982 0 0 0-2.32-8.91zM107.79 41.898c-1.81-2.015-3.599-4.011-5.274-5.98a292.217 292.217 0 0 0-2.829-3.227l-.87.23c1.023 1.13 2.05 2.302 3.085 3.517a392.76 392.76 0 0 0 5.317 6.023l1.383 1.55.906-.171zM56.715 172.45c-.746 5.741-1.367 11.683-1.746 17.745l.746.809c.367-6.277.965-12.438 1.777-18.383-.23-.32-.453-.64-.672-.976zM78.27 41.465l-.75.406a36.114 36.114 0 0 1 8 10.531l.703-.375a36.934 36.934 0 0 0-7.953-10.562zM38.27 165.5c.148.32.292.64.445.96a262.102 262.102 0 0 1 7.597-16.21c-.12-.355-.234-.746-.335-1.059A271.33 271.33 0 0 0 38.27 165.5zM83.613 52.867a30.81 30.81 0 0 0-6.89-10.52l-.711.423a30.172 30.172 0 0 1 6.855 10.375l.223.64.703-.418zM80.184 51.813a27.702 27.702 0 0 0-5.137-8.461l-.684.425a27.104 27.104 0 0 1 5.07 8.301c.403 1.09.747 2.192 1.067 3.29l.703-.442c-.324-1.035-.64-2.074-1.02-3.114zM36.98 162.613c.137.305.27.617.41.926a344.567 344.567 0 0 1 3.532-6.996 400.927 400.927 0 0 0-3.402 7.309l.44.976a328.445 328.445 0 0 1 7.84-16.25c-.183-.613-.355-1.242-.527-1.863a447.152 447.152 0 0 0-8.293 15.898zM58.773 55.902l-.75.703a67.374 67.374 0 0 1-1.144 21.57c.36-.523.75-1.038 1.101-1.554a66.1 66.1 0 0 0 .793-20.719zM31.375 144.89c.09.434.188.868.285 1.301a755.469 755.469 0 0 0 10.8-24.671c0-.797.075-1.59.126-2.383a819.326 819.326 0 0 1-11.211 25.754zM39.016 167.098l.476.964c2.184-5.566 4.598-11.042 7.274-16.37-.118-.36-.239-.75-.352-1.075-2.7 5.363-5.152 10.875-7.398 16.48zM80.781 41.527c-.324-.308-.652-.605-.976-.906l-.75.399c.398.359.793.746 1.172 1.082a42.838 42.838 0 0 1 7.476 9.144l.746-.351a43.56 43.56 0 0 0-7.668-9.368zM32.219 148.523c.097.395.203.79.308 1.188a923.968 923.968 0 0 0 9.926-21.508c0-.605-.043-1.219-.05-1.832a978.915 978.915 0 0 1-10.184 22.152zM61.621 53.285l-.684.613a56.77 56.77 0 0 1 .418 18.41l.934-1.097a56.246 56.246 0 0 0-.668-17.926zM64.176 51.094l-.672.574A55.117 55.117 0 0 1 65 68.172c.273-.297.559-.586.836-.879a55.034 55.034 0 0 0-1.66-16.211zM33.035 151.645l.336 1.12c3.18-6.476 6.309-13 9.387-19.562a99.733 99.733 0 0 1-.14-1.586c-3.118 6.7-6.313 13.375-9.583 20.028zM66.762 49.047l-.664.508a51.076 51.076 0 0 1 2.43 15.136l.78-.746a51.369 51.369 0 0 0-2.546-14.898zM33.902 154.367c.11.36.23.746.352 1.074a4154.43 4154.43 0 0 0 9.027-18.23c-.066-.465-.133-.938-.195-1.399a2724.424 2724.424 0 0 1-9.184 18.555zM69.902 48.988a13.432 13.432 0 0 0-.746-1.742l-.664.477c.23.5.442 1.007.63 1.53a49.112 49.112 0 0 1 2.636 12.532l.746-.62a49.6 49.6 0 0 0-2.602-12.18zM34.703 156.75c.125.344.246.695.363 1.04a4774.116 4774.116 0 0 1 8.786-17.267c-.082-.425-.164-.851-.239-1.277a8159.87 8159.87 0 0 0-8.91 17.504zM49.773 175.371a227.37 227.37 0 0 0-1.171 7.246l.671.88c.391-2.665.809-5.325 1.278-7.977.644-3.47 1.347-6.993 2.168-10.47l-.567-1.046c-.93 3.781-1.691 7.617-2.379 11.367zM98.25 39.695a348.443 348.443 0 0 1-4.785-5.03l-.824.292.27.285.292-.27-.293.27c1.57 1.688 3.192 3.371 4.82 5.078 1.63 1.707 3.29 3.422 4.922 5.164l.86-.23c-1.758-1.91-3.52-3.75-5.262-5.559zM47.559 176.45c-.246 1.26-.47 2.527-.696 3.796.211.3.426.586.645.89.262-1.495.535-3.027.836-4.538.898-4.559 1.906-9.215 3.168-13.828-.18-.344-.352-.696-.524-1.047-1.383 4.91-2.472 9.882-3.43 14.726zM95.012 38.91c-1.196-1.203-2.36-2.398-3.516-3.582-.273.098-.535.203-.805.309a571.78 571.78 0 0 0 3.782 3.855c2.109 2.133 4.23 4.285 6.293 6.496l.851-.246c-2.156-2.34-4.398-4.605-6.605-6.832zM101.523 40.512a352.384 352.384 0 0 1-4.785-5.168l-.566-.625-.703-.75-.832.277.968 1.031.547.606c1.563 1.734 3.184 3.46 4.813 5.234 1.195 1.27 2.387 2.551 3.574 3.84l.879-.215a293.943 293.943 0 0 0-3.895-4.23zM52.012 174.32a276.35 276.35 0 0 0-1.555 10.668l.684.852c.48-3.88 1.039-7.684 1.652-11.383.39-2.332.816-4.71 1.289-7.086l-.613-1.027c-.543 2.691-.996 5.367-1.457 7.976zM54.355 173.348c-.703 4.605-1.3 9.351-1.765 14.203l.746.82a252.082 252.082 0 0 1 1.832-14.898c.18-1.164.36-2.332.559-3.504l-.641-.996c-.277 1.464-.504 2.933-.73 4.375zM104.59 41.11c-1.832-1.997-3.633-3.958-5.348-5.891a141.402 141.402 0 0 0-1.703-1.922l-.852.254c.649.746 1.301 1.441 1.958 2.191 1.726 1.965 3.543 3.938 5.382 5.934l2.54 2.765.898-.195a457.301 457.301 0 0 0-2.875-3.137zM91.762 38.14c-.746-.703-1.43-1.398-2.133-2.1l-.805.327c.79.793 1.598 1.578 2.406 2.371 2.594 2.551 5.23 5.137 7.715 7.836l.828-.27c-2.582-2.804-5.32-5.519-8.011-8.163zM45.43 177.54a2.232 2.232 0 0 1-.098.48l.625.925.25-1.234c1.211-5.637 2.586-11.316 4.34-16.848l-.492-1.062a181.73 181.73 0 0 0-4.625 17.738zM87.5 43.395a124.523 124.523 0 0 0-4.605-4.364l-.747.39c1.637 1.493 3.258 2.99 4.817 4.544a57.893 57.893 0 0 1 4.746 5.414l.746-.332a57.688 57.688 0 0 0-4.957-5.649zM40.75 170.41c.172.32.352.64.531.957a160.164 160.164 0 0 1 6.516-16.91c-.125-.352-.262-.695-.395-1.047a160.751 160.751 0 0 0-6.652 16.996zM94.25 45.465c-2.578-2.77-5.371-5.387-8.14-7.945l-.747.359c2.825 2.617 5.688 5.293 8.332 8.125a62.152 62.152 0 0 1 1.676 1.863l.793-.3c-.644-.712-1.27-1.415-1.914-2.102zM42.754 173.914l.574.957c1.54-5.934 3.43-11.77 5.66-17.48-.152-.352-.293-.703-.433-1.051a150 150 0 0 0-5.801 17.578zM39.867 168.742c.172.32.344.64.508.961a172.484 172.484 0 0 1 6.918-16.621c-.129-.355-.254-.75-.375-1.07a171.967 171.967 0 0 0-7.05 16.726zM83.77 42.043c-.782-.75-1.594-1.496-2.407-2.246l-.75.394c.88.793 1.75 1.594 2.594 2.422a51.683 51.683 0 0 1 6.574 7.61l.746-.336a52.152 52.152 0 0 0-6.757-7.848zM97.254 46.133c-2.79-3.035-5.824-5.938-8.781-8.762l-.63-.598-.8.344.906.867c2.946 2.809 5.98 5.664 8.723 8.7.156.164.305.343.465.515l.812-.293zM43.98 175.918c.196.32.395.637.598.95a169.289 169.289 0 0 1 5.133-17.821 62.39 62.39 0 0 1-.461-1.063 161.765 161.765 0 0 0-5.273 17.934zm0 0"/></g><path fill="#fff" d="M198.54 162.59c.155-.3.304-.606.456-.914a78.605 78.605 0 0 0 1.54-3.281c.155-.36.32-.747.468-1.075a75.377 75.377 0 0 0 2.504-6.683 75.149 75.149 0 0 0 1.496-5.14 81.014 81.014 0 0 0 2.062-11.388 78.39 78.39 0 0 0 .286-3.039c.14-2.011.226-4.039.226-6.086v-.957c0-1.168-.047-2.332-.105-3.492a84.712 84.712 0 0 0-.88-8.426 82.175 82.175 0 0 0-17.266-38.91 71.83 71.83 0 0 0-3.905-4.484 89.386 89.386 0 0 0-1.98-2.059 78.4 78.4 0 0 0-3.255-3.086c-.558-.5-1.128-.992-1.695-1.496a77.448 77.448 0 0 0-2.937-2.383c-.508-.398-1.016-.746-1.54-1.168a80.103 80.103 0 0 0-6.761-4.5c-.445-.27-.895-.535-1.352-.789a63.62 63.62 0 0 0-2.476-1.355c-.426-.23-.86-.45-1.293-.672-.746-.39-1.567-.746-2.36-1.145l-1.25-.585a69.026 69.026 0 0 0-2.28-.977l-1.212-.488c-.746-.293-1.492-.559-2.246-.828l-1.18-.422c-.746-.239-1.433-.477-2.148-.703l-1.129-.329c-.676-.199-1.363-.394-2.062-.585l-1.098-.297-2.02-.48-1.105-.24a77.816 77.816 0 0 0-1.945-.382l-1.075-.195-1.89-.297-1.055-.149a86.414 86.414 0 0 0-4.664-.496l-1.008-.066-1.715-.09-1-.035c-.562 0-1.12 0-1.683-.04h-3.574l-1.555.06-.95.062-1.495.098-.95.082-1.414.14-.937.118-1.34.171-.926.13-1.234.195c-.305.05-.617.097-.918.156l-1.203.219-.907.171-1.12.239-.895.195-1.153.277-.878.215-1.055.278-.86.23-1.023.328-.851.254-.997.316-.828.27-.996.336-.812.32-1.004.367-.793.297-1.008.368-.746.312-1.098.465-.75.328-1.18.531-.746.336-1.347.649-.746.351c-.5.254-1.008.516-1.496.781l-.703.375c-.602.317-1.176.637-1.727.965l-.703.418c-.633.375-1.258.754-1.883 1.145l-.703.441a87.67 87.67 0 0 0-2.04 1.352l-.75.488a68.562 68.562 0 0 0-2.175 1.57l-.746.555a86.487 86.487 0 0 0-2.316 1.828l-.747.621c-.84.711-1.675 1.438-2.484 2.176l-.781.746a98.944 98.944 0 0 0-2.668 2.61c-.277.292-.559.578-.836.878-.934 1-1.844 2.012-2.734 3.036l-.934 1.101c-1.16 1.395-2.246 2.84-3.336 4.313a51.05 51.05 0 0 0-1.098 1.554 84.774 84.774 0 0 0-4.297 6.953 258.892 258.892 0 0 0-1.742 3.454 82.055 82.055 0 0 0-6.37 17.984 74.945 74.945 0 0 0-.895 4.55 80.26 80.26 0 0 0-1.086 10.407 77.532 77.532 0 0 0-.082 3.441v1.391c0 .613 0 1.223.054 1.828 0 1.152.102 2.29.196 3.418a80.69 80.69 0 0 0 .633 5.594 81.579 81.579 0 0 0 .57 3.312c.097.536.203 1.075.32 1.606.082.402.172.808.262 1.21s.195.837.3 1.25c.102.41.18.747.282 1.15.105.405.172.652.262.976.172.62.343 1.25.53 1.863l.18.606c.106.351.22.703.337 1.062.019.125.062.25.12.363.11.36.231.75.352 1.075.035.105.074.218.117.324.121.355.246.746.375 1.066l.114.332c.132.352.27.695.394 1.047.055.125.098.254.149.371l.414 1.055.183.449c.145.352.285.703.434 1.055l.27.597c.152.352.308.707.464 1.059.156.352.23.488.344.75l.492 1.059c.145.3.293.585.442.878.148.293.343.704.523 1.047s.422.801.637 1.2l.57 1.046c.246.446.5.887.746 1.336l.613 1.024c.313.539.641 1.07.977 1.601l.64.993c.368.57.739 1.128 1.122 1.683.218.328.441.649.675.977.45.64.91 1.277 1.391 1.906.223.305.461.613.703.918.5.652 1.008 1.3 1.54 1.937l.745.88c.586.695 1.188 1.39 1.793 2.062l.75.824a59.421 59.421 0 0 0 2.055 2.149l.746.746c.746.703 1.496 1.406 2.246 2.078l.817.746c.8.715 1.617 1.41 2.449 2.086l.832.676a83.067 83.067 0 0 0 2.578 1.964l.836.614a71.589 71.589 0 0 0 2.484 1.703l.852.562c.828.535 1.676 1.051 2.527 1.555.274.172.559.336.844.5a92.372 92.372 0 0 0 6.187 3.2l.832.39c.81.367 1.63.746 2.454 1.074l.812.328c.793.32 1.594.637 2.395.934l.804.293c.75.277 1.555.547 2.344.8l.793.254c.746.239 1.496.465 2.246.684l.793.219c.758.199 1.52.394 2.285.586l.75.183c.746.18 1.532.344 2.301.496l.793.157c.746.14 1.555.285 2.344.402l.793.129c.804.125 1.62.23 2.441.328l.79.09c.855.097 1.706.18 2.566.246l.808.055c.903.066 1.817.109 2.727.14l.824.035h4.035c1.074 0 2.149-.074 3.215-.132l.879-.059a77.854 77.854 0 0 0 3.574-.332l.934-.102a76.906 76.906 0 0 0 4.074-.62l1.016-.188c1.617-.309 3.21-.66 4.785-1.055l1.136-.297a80.282 80.282 0 0 0 7.008-2.215 83.87 83.87 0 0 0 7.348-3.101c.566-.27 1.121-.555 1.68-.832a82.888 82.888 0 0 0 24.34-18.836c.351-.39.695-.746 1.03-1.172a83.89 83.89 0 0 0 3.352-4.18l.703-.965a88.554 88.554 0 0 0 2.278-3.3c.203-.309.406-.614.597-.922.614-.977 1.211-1.953 1.797-2.953l.5-.89c.512-.935 1.02-1.868 1.508-2.825zm0 0"/><path fill="#0e052f" d="M197.77 125.395c0 40.425-32.774 73.195-73.2 73.195-40.425 0-73.199-32.77-73.199-73.195 0-40.43 32.774-73.2 73.2-73.2 40.425 0 73.199 32.77 73.199 73.2zm0 0"/><path fill="#fff" d="M122.41 158.164a30.025 30.025 0 0 1-8.969-2.098 25.116 25.116 0 0 1-7.261-4.687 22.213 22.213 0 0 1-4.871-6.594 19.182 19.182 0 0 1-1.914-8.117h11.757a11.495 11.495 0 0 0 3.243 7.832 12.937 12.937 0 0 0 8.03 3.535v-18.918l-4.487-.676c-5.157-.703-9.266-2.644-12.325-5.828a16.447 16.447 0 0 1-4.488-12.14 15.429 15.429 0 0 1 1.691-7.168 19.599 19.599 0 0 1 4.68-5.98 23.921 23.921 0 0 1 6.79-4.298 27.64 27.64 0 0 1 8.124-2.011v-8.918h6.973v9.074a26.624 26.624 0 0 1 7.933 2.293 21.779 21.779 0 0 1 6.309 4.21 19.24 19.24 0 0 1 4.2 5.923 18.272 18.272 0 0 1 1.827 7.18h-11.761a9.007 9.007 0 0 0-2.578-5.926 11.709 11.709 0 0 0-5.926-3.532v17.48l3.25.481a27.865 27.865 0 0 1 6.879 2.012 19.108 19.108 0 0 1 5.636 3.734 15.418 15.418 0 0 1 3.825 5.54 17.183 17.183 0 0 1 1.421 7.124 18.68 18.68 0 0 1-5.98 13.977 23.666 23.666 0 0 1-6.727 4.305 28.995 28.995 0 0 1-8.312 2.101v9.84h-6.973v-9.719zm6.977-10.226c2.61-.32 5.05-1.458 6.972-3.25a8.979 8.979 0 0 0 2.489-6.497 6.147 6.147 0 0 0-2.391-5.351 12.84 12.84 0 0 0-5.45-2.395l-1.62-.285zm-6.977-46.926a13.475 13.475 0 0 0-6.875 2.992 7.64 7.64 0 0 0-2.773 6.21 6.61 6.61 0 0 0 1.816 5.067 9.796 9.796 0 0 0 4.969 2.102l2.871.48v-16.851zm0 0"/></svg>