<?xml version="1.0" encoding="utf-8"?>
<!-- Generator: Adobe Illustrator 23.0.2, SVG Export Plug-In . SVG Version: 6.00 Build 0)  -->
<svg version="1.1" id="图层_1" xmlns="http://www.w3.org/2000/svg" xmlns:xlink="http://www.w3.org/1999/xlink" x="0px" y="0px"
	 viewBox="0 0 100 100" style="enable-background:new 0 0 100 100;" xml:space="preserve">
<style type="text/css">
	.st0{fill:#FFAD03;}
</style>
<g>
	<path class="st0" d="M50.3,0.3C22.8,0.3,0.5,22.5,0.5,50s22.3,49.7,49.7,49.7S100,77.5,100,50C100,22.5,77.7,0.3,50.3,0.3z
		 M84.1,56.1c-0.2,2.4-1.4,4.5-3.1,5.9c0.7,2.5,1.3,5.2,1.7,7.9c-1.3,2.2-2.8,4.2-4.5,6c-0.2-4.1-0.9-8.2-2-12c-0.4,0-0.8,0-1.1,0
		c-1.6-0.1-3.1-0.7-4.3-1.6c-8.9,5.7-19.3,9.2-30.4,9.5c-0.6,1.9-1.9,3.5-3.6,4.5c1.3,3.8,3.1,7.5,5.2,10.9
		c-2.5-0.6-4.9-1.4-7.2-2.4c-1.2-2.4-2.2-4.8-3-7.3h0c-4.1-0.3-7.2-3.5-7.7-7.5c-2.6-0.6-5.1-1.4-7.5-2.4c-1.1-2.2-2.1-4.5-2.8-6.9
		c3.5,1.8,7.3,3.3,11.3,4.3c0.8-1.5,2.1-2.7,3.6-3.5c-0.1-2.6-0.1-5.2,0.1-7.8c0.7-8.4,3.1-16.3,6.9-23.3c-1.2-1.4-1.9-3.2-2-5.1
		c-1.7-0.3-3.5-0.6-5.3-0.7c-2.1-0.2-4.2-0.2-6.2-0.2c1.7-1.9,3.6-3.5,5.6-5c0.3,0,0.7,0,1,0.1c2.1,0.2,4.2,0.5,6.3,0.8
		c1.6-2.5,4.5-4,7.7-3.7c0.9,0.1,1.8,0.3,2.6,0.6c1.8-1.8,3.7-3.6,5.7-5.1c0.8,0,1.6,0.1,2.3,0.1c1.8,0.1,3.5,0.4,5.2,0.8
		c-3.4,2.2-6.5,4.7-9.3,7.6c0.9,1.4,1.4,3.2,1.3,5c9.9,4.9,18.1,12.5,23.8,21.7C75,47,75.7,47,76.4,47c1.1,0.1,2.1,0.4,3,0.8
		c2.6-3,5-6.4,6.9-10c0.8,2.3,1.3,4.7,1.7,7.2c-1.5,2.2-3.1,4.3-4.8,6.3C83.9,52.8,84.3,54.4,84.1,56.1z"/>
	<path class="st0" d="M40.4,66.5c10-0.4,19.3-3.4,27.3-8.6c-0.3-1-0.5-2.1-0.4-3.3c0.2-2.1,1.1-3.9,2.4-5.3
		c-5.2-8.1-12.5-14.8-21.2-19.3c-1.7,2.1-4.3,3.3-7.2,3.1c-0.5,0-0.9-0.1-1.4-0.2c-3.4,6.3-5.5,13.4-6.2,21
		c-0.2,2.3-0.2,4.5-0.1,6.7C37,61.2,39.5,63.5,40.4,66.5z"/>
</g>
</svg>
