<svg xmlns="http://www.w3.org/2000/svg" width="250" height="250"><g fill="#e41c24" fill-rule="evenodd"><path d="M139.012 26.18c-.016.492-.035.984-.035 1.476V215.23H111.39V27.656c0-.492-.02-.984-.032-1.476zM159.273 26.18c-.062 1.507-.164 3.02-.18 4.527-.124 12.527.274 25.04 1.25 37.531 1.2 15.328 3.11 30.555 6.946 45.485 2.102 8.183 4.531 16.304 8.926 23.57 9.75 16.129 22.105 29.785 38.683 39.207 8.575 4.871 17.766 8.035 27.48 9.703.345.059.685.149 1.079.234v28.954c-2.352-.356-4.644-.618-6.906-1.055-19.055-3.684-35.723-12.406-50.875-24.258-7.317-5.726-13.895-12.21-19.45-19.683-5.992-8.067-10.101-17.094-13.28-26.567-2.72-8.094-4.258-16.45-5.286-24.902-2.035-16.719-2.52-33.52-2.754-50.332-.191-13.68-.23-27.367-.34-41.047-.004-.457-.043-.91-.066-1.367zM105.871 26.18c-.023.351-.062.699-.066 1.047-.121 14.703-.059 29.41-.414 44.109a929.61 929.61 0 0 1-1.715 38.043c-.719 10.984-2.324 21.883-5.621 32.441-3.176 10.184-7.477 19.852-13.856 28.485-6.09 8.238-13.437 15.23-21.582 21.398-12.293 9.317-25.71 16.465-40.586 20.746a84.752 84.752 0 0 1-14.254 2.79c-.27.027-.543.003-.867.003v-28.758c2.285-.488 4.586-.925 6.86-1.472 15.23-3.649 28.39-11.102 39.703-21.848 8.437-8.016 15.761-16.953 21.398-27.156 4.277-7.742 6.746-16.184 8.82-24.738 2.422-9.989 3.989-20.122 5.125-30.329 1.899-17.007 2.61-34.074 2.446-51.183-.012-1.192-.11-2.387-.168-3.578zm0 0"/></g></svg>