<svg xmlns="http://www.w3.org/2000/svg" width="250" height="250"><linearGradient id="a" x1="11.332" x2="209.562" y1="224.163" y2="93.536" gradientUnits="userSpaceOnUse"><stop offset="0" stop-color="#7754ab"/><stop offset="1" stop-color="#fe6c77"/></linearGradient><path fill="url(#a)" d="M249.98 189.816a50.54 50.54 0 0 0-5.843-22.109c-.02-.039-.04-.055-.059-.094l-.828-1.488c0-.02-.02-.02-.02-.035 0-.02-.02-.04-.02-.04 0-.019-.019-.019-.019-.038l-2.046-3.703-.637-1.16-3.106-5.614-1.62-2.91-4.723-8.527-3.106-5.614-2.703-4.863-1.582-2.871v-.02l-.02-.02a55.825 55.825 0 0 0-1.445-2.276 53.134 53.134 0 0 0-4.36-5.614c-2.835-3.164-6.058-6-9.605-8.37a51.024 51.024 0 0 0-5.191-3.067 50.178 50.178 0 0 0-11.977-4.344 49.072 49.072 0 0 0-7.004-1.078 52.41 52.41 0 0 0-4.3-.176H95.469l-1.313 2.356-1.797 3.261-6.324 11.438-3.105 5.613h35.86l-3.493 6.309-2.063 3.722H77.352l-3.106 5.614-.926 1.68-2.718 4.917-2.68 4.84-2.856 5.153c.329.152.637.289.946.44h34.683l-4.129 7.466-3.394 6.136-8.102 14.641-8.644 15.586c-.23.445-.48.887-.73 1.332-4.958 8.41-14.122 14.043-24.614 14.024-4.035 0-7.852-.829-11.324-2.352a28.232 28.232 0 0 1-4.903-2.723c-7.464-5.148-12.343-13.734-12.324-23.476.02-4.88 1.254-9.489 3.453-13.52.059-.097.098-.176.153-.273l9.047-16.356.254-.465 3.105-5.613 4.762-8.62 1.562-2.817 1.797-3.223 1.309-2.39 5.558-10.051 3.106-5.614 6.328-11.437 3.105-5.598 13.407-24.148.039-.059 3.16-5.73.176-.309 6.367-11.496 1.886-3.395 1.313-2.37 7.504-13.544s0-.02.02-.02c.078-.155.175-.327.269-.484.039-.054.078-.132.117-.19a28.46 28.46 0 0 1 24.77-14.294c3.992.02 7.773.828 11.226 2.313a26.966 26.966 0 0 1 4.899 2.722 28.868 28.868 0 0 1 8.933 9.914l7.52 13.582 1.41 2.543 1.793 3.223 6.21 11.227.329.578 3.05 5.5.153.27 7.563 13.655 3.007 5.442a59.25 59.25 0 0 1 6.715.558 55.17 55.17 0 0 1 15.278 4.512h.289l.097.176a56.933 56.933 0 0 1 9.2 5.422h.21l-3.105-5.598-2.121-3.836-24.227-43.672-3.203-5.789-6.539-11.785-3.203-5.789-.02.04c-.21-.442-.44-.868-.675-1.294-.094-.172-.192-.367-.29-.539-3.894-6.945-9.394-12.867-15.992-17.305-.46-.308-.925-.617-1.406-.906a52.38 52.38 0 0 0-4.898-2.7 50.506 50.506 0 0 0-10.863-3.78c-2.274-.52-4.61-.867-7-1.082-1.485-.114-2.973-.192-4.477-.172-1.465 0-2.914.058-4.34.191-2.39.215-4.726.582-7.023 1.102a50.828 50.828 0 0 0-17.188 7.465 51.253 51.253 0 0 0-16.914 19.039l-.02-.059-3.203 5.79-6.539 11.804-3.183 5.77-26.313 47.507-3.105 5.598-6.328 11.437-3.106 5.614-5.554 10.05-3.125 5.614-6.329 11.437-3.105 5.613-3.106 5.633c-.113.196-.21.387-.328.578A50.213 50.213 0 0 0 .02 189.95c-.02.598-.02 1.215-.02 1.813a50.979 50.979 0 0 0 2.855 16.707 49.615 49.615 0 0 0 2.797 6.52 51.371 51.371 0 0 0 18.286 19.984 46.058 46.058 0 0 0 4.902 2.718c6.73 3.282 14.273 5.114 22.258 5.153a55.85 55.85 0 0 0 4.457-.176 51.609 51.609 0 0 0 6.984-1.059 50.312 50.312 0 0 0 17.149-7.37 51.119 51.119 0 0 0 15.644-16.665l.059-.117c.02-.02.02-.039.039-.059l.906-1.617c0-.02.02-.02.02-.039l23.84-43.094 4.03-7.293.813-1.449 20.988 37.867 5.438 9.84c.137.078.27.153.406.211a49.3 49.3 0 0 0 2.063 4.266c.117.21.234.422.367.633a50.996 50.996 0 0 0 33.12 24.656c2.278.52 4.61.887 7.005 1.078 1.484.137 2.969.195 4.492.195 19.832-.02 36.98-11.304 45.45-27.8a49.615 49.615 0 0 0 2.796-6.52c1.832-5.246 2.816-10.879 2.836-16.742 0-.598 0-1.195-.02-1.774zm-51.062 30.325a28.45 28.45 0 0 1-25.094-14.895l-1.969-3.566-6.906-12.446-1.273-2.312-6.848-12.387-3.355-6.055-4.07-7.351-9.895-17.86a5.65 5.65 0 0 1 0-5.48l3.238-5.863a6.766 6.766 0 0 1 5.902-3.473h32.563a25.966 25.966 0 0 1 22.703 13.387l1.254 2.258.773 1.386.715 1.274 4.86 8.777 2.218 4.012.887 1.582.156.273 7.078 12.77 2.122 3.836a28.524 28.524 0 0 1 3.492 13.562c.097 15.778-12.79 28.532-28.551 28.57zm0 0"/></svg>