<svg xmlns="http://www.w3.org/2000/svg" width="250" height="250"><linearGradient id="a" x1="210.75" x2="51.5" y1="33.75" y2="221.5" gradientUnits="userSpaceOnUse"><stop offset="0" stop-color="#b6509e"/><stop offset="1" stop-color="#2ebac6"/></linearGradient><path fill="#fff" d="M250 125c0 69.035-55.965 125-125 125S0 194.035 0 125 55.965 0 125 0s125 55.965 125 125zm0 0"/><path fill="url(#a)" d="M125 250c-8.46.004-16.902-.848-25.195-2.54a124.377 124.377 0 0 1-44.7-18.808A125.37 125.37 0 0 1 9.82 173.656a124.484 124.484 0 0 1-7.28-23.46 126.19 126.19 0 0 1 0-50.383 124.279 124.279 0 0 1 18.808-44.7A125.378 125.378 0 0 1 76.344 9.824a124.211 124.211 0 0 1 23.46-7.285 126.19 126.19 0 0 1 50.383 0 124.279 124.279 0 0 1 44.7 18.809 125.378 125.378 0 0 1 45.289 54.996 124.496 124.496 0 0 1 7.285 23.46 126.19 126.19 0 0 1 0 50.383 124.25 124.25 0 0 1-18.809 44.7 125.37 125.37 0 0 1-54.996 45.285 124.223 124.223 0 0 1-23.46 7.289A125.788 125.788 0 0 1 125 250zm0-236.61c-7.555 0-15.09.758-22.492 2.27a110.94 110.94 0 0 0-39.91 16.793 111.936 111.936 0 0 0-40.43 49.106 111.036 111.036 0 0 0-6.504 20.949 112.684 112.684 0 0 0 0 44.984 110.998 110.998 0 0 0 16.797 39.906 111.927 111.927 0 0 0 49.105 40.438 111.036 111.036 0 0 0 20.95 6.504 112.684 112.684 0 0 0 44.984 0 111.016 111.016 0 0 0 39.91-16.797 111.957 111.957 0 0 0 40.422-49.102 111.036 111.036 0 0 0 6.504-20.949 112.684 112.684 0 0 0 0-44.984 110.998 110.998 0 0 0-16.797-39.906 111.946 111.946 0 0 0-49.098-40.434 111.036 111.036 0 0 0-20.949-6.504A112.407 112.407 0 0 0 125 13.391zm0 0"/><path fill="#002868" d="M125 220.98c-52.79 0-95.98-43.19-95.98-95.98S72.21 29.02 125 29.02s95.98 43.19 95.98 95.98-43.19 95.98-95.98 95.98zm0 0"/><path fill="#fff" d="M173.375 182.586h-96.75c-5.082-.012-9.2-4.129-9.215-9.211v-96.75a9.244 9.244 0 0 1 9.215-9.215h96.75c5.082.016 9.2 4.133 9.21 9.215v96.75a9.232 9.232 0 0 1-9.21 9.21zm0 0"/><g fill="#002868"><path d="M89.883 170.992a.57.57 0 0 1-.547-.578v-15.476a.574.574 0 0 0-.55-.579h-5.462a.577.577 0 0 1-.582-.55v-2.993a.604.604 0 0 1 .582-.578h16.817c.316.012.57.266.578.578v2.996a.577.577 0 0 1-.578.551h-5.434a.599.599 0 0 0-.582.578v15.473a.577.577 0 0 1-.547.582zM117.5 150.82c0-.308.242-.566.55-.582h3.665a.604.604 0 0 1 .578.582v10.559c0 6.258-3.54 9.89-9.156 9.89-5.586 0-9.094-3.632-9.094-9.89V150.82a.577.577 0 0 1 .547-.582h3.664c.316.012.57.266.578.582v10.707c0 3.082 1.586 5.282 4.336 5.282s4.336-2.2 4.336-5.282V150.82zM139.117 157.02a.782.782 0 0 1-.824-.551 4.19 4.19 0 0 0-4.184-2.442c-1.922 0-3.539.672-3.539 1.953 0 1.407 1.496 1.989 4.793 2.383 5.004.578 7.871 2.106 7.871 6.075 0 4.457-3.906 6.804-8.91 6.804-4.336 0-8.058-2.105-8.637-6.531-.062-.426.153-.578.579-.578h3.359a.76.76 0 0 1 .797.52c.457 1.464 2.016 2.593 4.273 2.593 1.985 0 3.723-.734 3.723-2.289 0-1.86-1.832-2.195-5.496-2.656-4.211-.547-7.14-1.77-7.14-5.649 0-3.875 3.331-6.652 8.546-6.652 4.7 0 7.969 2.535 8.64 6.32.09.426-.03.703-.488.703h-3.363zM147.387 170.992a.577.577 0 0 1-.551-.578V150.82c0-.308.242-.566.55-.582h8.302c6.164 0 10.957 4.242 10.957 10.442 0 6.101-4.73 10.316-10.958 10.316zm8.3-4.12a6.268 6.268 0 0 0-.03-12.517h-3.446a.571.571 0 0 0-.55.579v11.379c0 .304.245.55.55.55h3.476zM179.52 138.82H70.484a1.541 1.541 0 0 1-1.539-1.535v-60.66a7.704 7.704 0 0 1 7.68-7.68h96.75a7.704 7.704 0 0 1 7.68 7.68v60.66a1.54 1.54 0 0 1-1.535 1.535zm0 0"/></g><path fill="#fff" d="M130.656 126.367h-9.984a1.157 1.157 0 0 1-1.152-1.152v-42.23a1.154 1.154 0 0 1 1.152-1.153h9.984c.633 0 1.149.516 1.149 1.152v42.23c0 .638-.516 1.15-1.149 1.153zm0 0"/><path fill="#fff" d="M147.652 94.117h-45.304a1.157 1.157 0 0 1-1.153-1.152v-9.98a1.154 1.154 0 0 1 1.153-1.153h45.304c.633 0 1.149.516 1.153 1.152v9.98a1.16 1.16 0 0 1-1.153 1.153zm0 0"/></svg>