<svg xmlns="http://www.w3.org/2000/svg" width="250" height="250"><linearGradient id="a" x1="210.75" x2="51.5" y1="33.75" y2="221.5" gradientUnits="userSpaceOnUse"><stop offset="0" stop-color="#b6509e"/><stop offset="1" stop-color="#2ebac6"/></linearGradient><path fill="#fff" d="M250 125c0 69.035-55.965 125-125 125S0 194.035 0 125 55.965 0 125 0s125 55.965 125 125zm0 0"/><path fill="url(#a)" d="M125 250c-8.46.004-16.902-.848-25.195-2.54a124.377 124.377 0 0 1-44.7-18.808A125.37 125.37 0 0 1 9.82 173.656a124.484 124.484 0 0 1-7.28-23.46 126.19 126.19 0 0 1 0-50.383 124.279 124.279 0 0 1 18.808-44.7A125.378 125.378 0 0 1 76.344 9.824a124.211 124.211 0 0 1 23.46-7.285 126.19 126.19 0 0 1 50.383 0 124.279 124.279 0 0 1 44.7 18.809 125.378 125.378 0 0 1 45.289 54.996 124.496 124.496 0 0 1 7.285 23.46 126.19 126.19 0 0 1 0 50.383 124.25 124.25 0 0 1-18.809 44.7 125.37 125.37 0 0 1-54.996 45.285 124.223 124.223 0 0 1-23.46 7.289A125.788 125.788 0 0 1 125 250zm0-236.61c-7.555 0-15.09.758-22.492 2.27a110.94 110.94 0 0 0-39.91 16.793 111.936 111.936 0 0 0-40.43 49.106 111.036 111.036 0 0 0-6.504 20.949 112.684 112.684 0 0 0 0 44.984 110.998 110.998 0 0 0 16.797 39.906 111.927 111.927 0 0 0 49.105 40.438 111.036 111.036 0 0 0 20.95 6.504 112.684 112.684 0 0 0 44.984 0 111.016 111.016 0 0 0 39.91-16.797 111.957 111.957 0 0 0 40.422-49.102 111.036 111.036 0 0 0 6.504-20.949 112.684 112.684 0 0 0 0-44.984 110.998 110.998 0 0 0-16.797-39.906 111.946 111.946 0 0 0-49.098-40.434 111.036 111.036 0 0 0-20.949-6.504A112.407 112.407 0 0 0 125 13.391zm0 0"/><path fill="#fff" d="M220.703 125c0 52.855-42.848 95.703-95.703 95.703S29.297 177.855 29.297 125c0-52.852 42.848-95.703 95.703-95.703S220.703 72.148 220.703 125zm0 0"/><g fill="#ff007a"><path d="M125 220.703a96.023 96.023 0 0 1-19.285-1.945 95.095 95.095 0 0 1-34.223-14.399 95.978 95.978 0 0 1-34.676-42.105 95.35 95.35 0 0 1-5.574-17.969 96.585 96.585 0 0 1 0-38.574 95.175 95.175 0 0 1 14.399-34.219A95.966 95.966 0 0 1 87.75 36.816a95.076 95.076 0 0 1 17.969-5.578 96.585 96.585 0 0 1 38.574 0 95.212 95.212 0 0 1 34.219 14.403 95.987 95.987 0 0 1 34.668 42.105 95.4 95.4 0 0 1 5.574 17.965 96.585 96.585 0 0 1 0 38.574 95.146 95.146 0 0 1-14.399 34.219 95.997 95.997 0 0 1-42.101 34.68 94.957 94.957 0 0 1-17.969 5.574A96.052 96.052 0 0 1 125 220.703zm0-189.16a93.889 93.889 0 0 0-18.836 1.898 92.906 92.906 0 0 0-33.418 14.063 93.712 93.712 0 0 0-33.863 41.121 92.742 92.742 0 0 0-5.446 17.543 94.393 94.393 0 0 0 0 37.672A92.975 92.975 0 0 0 47.5 177.258a93.773 93.773 0 0 0 41.121 33.86 92.83 92.83 0 0 0 17.543 5.445 94.393 94.393 0 0 0 37.672 0 92.975 92.975 0 0 0 33.418-14.063 93.733 93.733 0 0 0 33.863-41.121 92.792 92.792 0 0 0 5.446-17.54 94.393 94.393 0 0 0 0-37.671A92.965 92.965 0 0 0 202.5 72.746a93.751 93.751 0 0 0-41.121-33.86 92.742 92.742 0 0 0-17.543-5.445A93.86 93.86 0 0 0 125 31.543zm0 0"/><path d="M103.438 73.16c-1.508-.234-1.57-.262-.86-.37 2.277-.134 4.563.07 6.777.6 5.165 1.227 9.864 4.372 14.875 9.954l1.332 1.484 1.907-.308a40.216 40.216 0 0 1 23.031 2.894 29.564 29.564 0 0 1 5.21 3.04c.25.651.411 1.331.481 2.026.508 3.364.254 5.942-.773 7.868a2.064 2.064 0 0 0-.215 2.277 2.2 2.2 0 0 0 1.969 1.242c1.695 0 3.523-2.746 4.371-6.566l.336-1.516.668.754c3.652 4.14 6.523 9.79 7.016 13.809l.128 1.047-.613-.954a11.825 11.825 0 0 0-3.48-3.656c-2.453-1.62-5.043-2.172-11.914-2.539-6.2-.324-9.711-.855-13.192-1.988-5.922-1.934-8.906-4.504-15.937-13.73a67.412 67.412 0 0 0-6.977-8.196 24.946 24.946 0 0 0-14.14-7.172zm0 0"/><path d="M157.113 82.309a16.626 16.626 0 0 1 1.278-6.211c.164-.418.37-.817.617-1.192-.047.371-.145.73-.29 1.074a14.147 14.147 0 0 0-.257 6.356c.476 3.242.746 3.71 4.172 7.21 1.61 1.645 3.476 3.712 4.156 4.606l1.23 1.618-1.23-1.157a52.408 52.408 0 0 0-5.738-4.562c-.516-.266-.586-.262-.906.054-.293.293-.356.727-.391 2.79a15.58 15.58 0 0 1-1.563 7.34c-.574 1.117-.664.878-.144-.38.39-.94.426-1.355.422-4.468-.008-6.25-.75-7.754-5.102-10.332a49.022 49.022 0 0 0-4.039-2.09 14.86 14.86 0 0 1-1.973-.965 42.777 42.777 0 0 1 6.079 1.773c2.539.977 2.96 1.106 3.27.989.206-.078.308-.68.41-2.453zM106.367 93.008a25.465 25.465 0 0 1-4.543-15.5l.125-1.492.7.125a17.73 17.73 0 0 1 4.617 1.718c2.898 1.758 4.152 4.079 5.43 10.028.37 1.742.863 3.71 1.09 4.383a29.355 29.355 0 0 0 2.85 5.214c.805 1.172.27 1.73-1.507 1.57-2.715-.245-6.39-2.78-8.762-6.046zM153.402 124.355c-14.3-5.753-19.336-10.753-19.336-19.183-.03-.754 0-1.508.098-2.258.43.277.84.582 1.227.91 2.902 2.328 6.148 3.32 15.136 4.633a62.282 62.282 0 0 1 11.012 2.305c8.727 2.894 14.129 8.765 15.414 16.765.344 3 .192 6.035-.45 8.985-.48 1.816-1.94 5.086-2.327 5.21-.11.036-.215-.374-.242-.937a11.588 11.588 0 0 0-4.211-8.117c-2.907-2.496-6.801-4.477-16.32-8.313zM143.363 126.75a24.976 24.976 0 0 0-.691-3.027l-.363-1.09.675.762a12.179 12.179 0 0 1 2.309 4.19 9.14 9.14 0 0 1 .527 4.005 8.894 8.894 0 0 1-.507 3.875 12.18 12.18 0 0 1-3.016 4.8c-2.613 2.66-5.969 4.13-10.817 4.743-.843.105-3.296.285-5.457.394-5.437.286-9.02.868-12.234 2a2.55 2.55 0 0 1-.918.22c-.129-.13 2.063-1.438 3.871-2.31 2.551-1.226 5.09-1.898 10.778-2.843 2.812-.469 5.714-1.04 6.445-1.266 6.965-2.133 10.543-7.637 9.398-14.453zm0 0"/><path d="M149.918 138.39a16.562 16.562 0 0 1-1.297-11.702c.113-.391.293-.715.399-.715.359.129.695.308.996.539.879.586 2.632 1.582 7.308 4.129 5.84 3.183 9.164 5.648 11.426 8.464a18.374 18.374 0 0 1 3.8 8.696c.298 2.86.177 5.742-.359 8.562a21.254 21.254 0 0 1-10.418 13.817c-.492.285-1 .535-1.523.757.129-.55.336-1.082.617-1.57a14.117 14.117 0 0 0 .63-11.18c-.813-2.421-2.466-5.382-5.798-10.382-3.879-5.817-4.828-7.364-5.781-9.414zM96.21 160.422a38.736 38.736 0 0 1 17.923-8.64 28.011 28.011 0 0 1 9.308.363c3.848.984 7.29 3.187 9.082 5.816 1.75 2.566 2.5 4.805 3.282 9.781.308 1.965.644 3.938.746 4.383a9.7 9.7 0 0 0 3.144 5.68c2.246 1.644 6.118 1.746 9.922.261a4.97 4.97 0 0 1 1.246-.39c.137.137-1.777 1.422-3.133 2.097a10.623 10.623 0 0 1-5.187 1.258c-3.488 0-6.383-1.773-8.797-5.39a43.562 43.562 0 0 1-2.375-4.735c-2.547-5.816-3.809-7.59-6.77-9.527a8.73 8.73 0 0 0-8.398-.762 5.449 5.449 0 0 0-3.023 3.774 5.459 5.459 0 0 0 1.175 4.691 7.278 7.278 0 0 0 4.102 2.148 4.38 4.38 0 0 0 4.961-4.39 3.42 3.42 0 0 0-2.363-3.508c-2.313-1.043-4.793.176-4.785 2.344a1.94 1.94 0 0 0 1.335 1.926c.594.27.61.293.122.191-2.118-.441-2.618-2.996-.91-4.688 2.046-2.035 6.277-1.136 7.73 1.641.621 1.566.676 3.3.148 4.899a6.76 6.76 0 0 1-8.187 3.894c-2.399-.61-3.375-1.273-6.266-4.254-5.027-5.176-6.976-6.18-14.222-7.308l-1.387-.22zm0 0"/><path fill-rule="evenodd" d="M75.906 69.145c16.781 20.37 25.067 27.402 26.352 29.18 1.058 1.464.66 2.784-1.156 3.816a11.025 11.025 0 0 1-4.13 1.156 5.27 5.27 0 0 1-3.464-1.484c-.684-.645-3.434-4.758-9.79-14.618-4.863-7.543-8.933-13.804-9.042-13.91-.258-.242-.254-.234 8.547 15.512 5.523 9.887 7.394 13.383 7.394 13.851 0 .95-.262 1.45-1.433 2.758-1.954 2.18-2.832 4.633-3.461 9.703-.707 5.688-2.696 9.704-8.207 16.579-3.223 4.023-3.754 4.761-4.567 6.382a11.781 11.781 0 0 0-1.422 5.762 17.95 17.95 0 0 0 .946 7.098 25.463 25.463 0 0 0 3.437 6.804c1.68 2.602 2.645 4.532 2.645 5.29 0 .601.117.601 2.718.015 6.23-1.406 11.286-3.879 14.133-6.91a6.547 6.547 0 0 0 2.188-5.484 5.359 5.359 0 0 0-.508-3.004c-.738-1.575-2.086-2.883-5.055-4.914-3.89-2.66-5.554-4.801-6.011-7.743-.38-2.418.058-4.12 2.21-8.632 2.23-4.672 2.782-6.66 3.157-11.368.238-3.039.574-4.242 1.449-5.203.91-1.004 1.73-1.344 3.984-1.652 3.676-.5 6.02-1.453 7.942-3.223a6.887 6.887 0 0 0 2.476-5.25l.078-1.695-.933-1.086c-3.38-3.938-32.738-30.828-32.945-30.828-.047 0 1.066 1.394 2.468 3.098zm4.543 77.777a2.992 2.992 0 0 0-.922-3.942c-1.207-.804-3.082-.425-3.082.622 0 .32.18.55.575.753.671.348.718.735.195 1.528-.524.789-.488 1.508.12 1.984.985.774 2.384.348 3.114-.945zM109.637 109.02a6.482 6.482 0 0 0-3.926 4.277 6.083 6.083 0 0 0 .34 3.855c.765 1.024 1.508 1.293 3.515 1.282 3.93-.028 7.348-1.715 7.746-3.825.325-1.726-1.171-4.12-3.242-5.175a7.721 7.721 0 0 0-4.433-.414zm4.593 3.59a1.59 1.59 0 0 0-.69-2.419c-1.962-1.199-4.93-.207-4.93 1.645 0 .926 1.546 1.934 2.964 1.934a3.831 3.831 0 0 0 2.656-1.16zm0 0"/></g></svg>