<svg xmlns="http://www.w3.org/2000/svg" width="250" height="250"><linearGradient id="a" x1="210.75" x2="51.5" y1="33.75" y2="221.5" gradientUnits="userSpaceOnUse"><stop offset="0" stop-color="#b6509e"/><stop offset="1" stop-color="#2ebac6"/></linearGradient><path fill="#fff" d="M250 125c0 69.035-55.965 125-125 125S0 194.035 0 125 55.965 0 125 0s125 55.965 125 125zm0 0"/><path fill="url(#a)" d="M125 250c-8.46.004-16.902-.848-25.195-2.54a124.377 124.377 0 0 1-44.7-18.808A125.37 125.37 0 0 1 9.82 173.656a124.484 124.484 0 0 1-7.28-23.46 126.19 126.19 0 0 1 0-50.383 124.279 124.279 0 0 1 18.808-44.7A125.378 125.378 0 0 1 76.344 9.824a124.211 124.211 0 0 1 23.46-7.285 126.19 126.19 0 0 1 50.383 0 124.279 124.279 0 0 1 44.7 18.809 125.378 125.378 0 0 1 45.289 54.996 124.496 124.496 0 0 1 7.285 23.46 126.19 126.19 0 0 1 0 50.383 124.25 124.25 0 0 1-18.809 44.7 125.37 125.37 0 0 1-54.996 45.285 124.223 124.223 0 0 1-23.46 7.289A125.788 125.788 0 0 1 125 250zm0-236.61c-7.555 0-15.09.758-22.492 2.27a110.94 110.94 0 0 0-39.91 16.793 111.936 111.936 0 0 0-40.43 49.106 111.036 111.036 0 0 0-6.504 20.949 112.684 112.684 0 0 0 0 44.984 110.998 110.998 0 0 0 16.797 39.906 111.927 111.927 0 0 0 49.105 40.438 111.036 111.036 0 0 0 20.95 6.504 112.684 112.684 0 0 0 44.984 0 111.016 111.016 0 0 0 39.91-16.797 111.957 111.957 0 0 0 40.422-49.102 111.036 111.036 0 0 0 6.504-20.949 112.684 112.684 0 0 0 0-44.984 110.998 110.998 0 0 0-16.797-39.906 111.946 111.946 0 0 0-49.098-40.434 111.036 111.036 0 0 0-20.949-6.504A112.407 112.407 0 0 0 125 13.391zm0 0"/><path fill="#2775ca" d="M125 220.98c53.008 0 95.98-42.972 95.98-95.98S178.008 29.02 125 29.02 29.02 71.988 29.02 125A95.744 95.744 0 0 0 125 220.98zm0 0"/><g fill="#fff"><path d="M151.395 140.195c0-13.996-8.399-18.797-25.196-20.793-11.996-1.601-14.398-4.8-14.398-10.398 0-5.602 4.004-9.2 11.996-9.2 7.2 0 11.2 2.4 13.2 8.4a3.008 3.008 0 0 0 2.796 2h6.398a2.746 2.746 0 0 0 2-.802c.532-.53.82-1.254.801-2v-.398a19.978 19.978 0 0 0-17.996-16.399v-9.597c0-1.598-1.2-2.801-3.2-3.2h-6c-1.597 0-2.8 1.2-3.198 3.2v9.199C106.598 91.805 99 99.805 99 109.805c0 13.195 8 18.394 24.797 20.394 11.2 2 14.797 4.395 14.797 10.797 0 6.406-5.598 10.8-13.196 10.8-10.398 0-14-4.401-15.199-10.398a2.92 2.92 0 0 0-2.797-2.402h-6.8a2.746 2.746 0 0 0-2 .8 2.759 2.759 0 0 0-.801 2v.403c1.601 9.996 8 17.196 21.191 19.196v9.597c0 1.598 1.203 2.801 3.2 3.2h6c1.601 0 2.8-1.2 3.199-3.2v-9.597c12-2 19.996-10.399 19.996-21.196zm0 0"/><path d="M104.605 182.188c-23.578-8.641-39.25-31.079-39.25-56.188s15.672-47.547 39.25-56.188a4.025 4.025 0 0 0 2.399-4.003v-5.602a3.042 3.042 0 0 0-2.399-3.2 2.396 2.396 0 0 0-1.601.403c-29.879 9.492-50.172 37.235-50.172 68.586 0 31.348 20.293 59.09 50.172 68.586.676.39 1.496.438 2.207.117a2.432 2.432 0 0 0 1.394-1.715c.399-.402.399-.8.399-1.601v-5.598c0-1.195-1.2-2.797-2.399-3.597zm42.387-124.774a2.421 2.421 0 0 0-2.207-.121 2.424 2.424 0 0 0-1.39 1.719c-.403.402-.403.8-.403 1.601v5.598a5.307 5.307 0 0 0 2.399 4.004c23.574 8.64 39.25 31.078 39.25 56.187s-15.676 47.547-39.25 56.192a4.018 4.018 0 0 0-2.399 4.004v5.597a3.039 3.039 0 0 0 2.399 3.2 2.416 2.416 0 0 0 1.601-.399c29.856-9.629 50.094-37.418 50.094-68.789 0-31.371-20.238-59.16-50.094-68.785zm0 0"/></g></svg>