<svg xmlns="http://www.w3.org/2000/svg" width="250" height="250"><linearGradient id="a" x1="210.75" x2="51.5" y1="33.75" y2="221.5" gradientUnits="userSpaceOnUse"><stop offset="0" stop-color="#b6509e"/><stop offset="1" stop-color="#2ebac6"/></linearGradient><path fill="#fff" d="M250 125c0 69.035-55.965 125-125 125S0 194.035 0 125 55.965 0 125 0s125 55.965 125 125zm0 0"/><path fill="url(#a)" d="M125 250c-8.46.004-16.902-.848-25.195-2.54a124.377 124.377 0 0 1-44.7-18.808A125.37 125.37 0 0 1 9.82 173.656a124.484 124.484 0 0 1-7.28-23.46 126.19 126.19 0 0 1 0-50.383 124.279 124.279 0 0 1 18.808-44.7A125.378 125.378 0 0 1 76.344 9.824a124.211 124.211 0 0 1 23.46-7.285 126.19 126.19 0 0 1 50.383 0 124.279 124.279 0 0 1 44.7 18.809 125.378 125.378 0 0 1 45.289 54.996 124.496 124.496 0 0 1 7.285 23.46 126.19 126.19 0 0 1 0 50.383 124.25 124.25 0 0 1-18.809 44.7 125.37 125.37 0 0 1-54.996 45.285 124.223 124.223 0 0 1-23.46 7.289A125.788 125.788 0 0 1 125 250zm0-236.61c-7.555 0-15.09.758-22.492 2.27a110.94 110.94 0 0 0-39.91 16.793 111.936 111.936 0 0 0-40.43 49.106 111.036 111.036 0 0 0-6.504 20.949 112.684 112.684 0 0 0 0 44.984 110.998 110.998 0 0 0 16.797 39.906 111.927 111.927 0 0 0 49.105 40.438 111.036 111.036 0 0 0 20.95 6.504 112.684 112.684 0 0 0 44.984 0 111.016 111.016 0 0 0 39.91-16.797 111.957 111.957 0 0 0 40.422-49.102 111.036 111.036 0 0 0 6.504-20.949 112.684 112.684 0 0 0 0-44.984 110.998 110.998 0 0 0-16.797-39.906 111.946 111.946 0 0 0-49.098-40.434 111.036 111.036 0 0 0-20.949-6.504A112.407 112.407 0 0 0 125 13.391zm0 0"/><path fill="#53ae94" d="M125 29.02c53.008 0 95.98 42.968 95.98 95.98 0 53.008-42.972 95.98-95.98 95.98-53.012 0-95.98-42.972-95.98-95.98S71.992 29.02 125 29.02"/><path fill="#fff" d="M136.848 112.21V97.935h32.648V76.176h-88.91v21.758h32.656v14.265c-26.539 1.219-46.492 6.473-46.492 12.77s19.965 11.554 46.492 12.781v45.734h23.613v-45.738c26.489-1.223 46.403-6.476 46.403-12.766 0-6.293-19.914-11.543-46.403-12.765m0 21.656v-.012c-.667.043-4.09.25-11.71.25-6.094 0-10.38-.175-11.891-.254v.02c-23.445-1.04-40.95-5.121-40.95-10.008 0-4.883 17.505-8.96 40.95-10v15.942c1.535.105 5.926.363 11.988.363 7.281 0 10.938-.305 11.617-.363v-15.942c23.399 1.04 40.86 5.13 40.86 9.996 0 4.867-17.469 8.957-40.86 10"/></svg>