<svg xmlns="http://www.w3.org/2000/svg" width="250" height="250"><path fill="#6b68f2" d="M195.57 133.781c-.785-2.402-2.023-4.66-2.902-7.015-2.629-7.063-6.203-13.66-10.016-20.09-3.132-5.285-6.605-10.39-10.312-15.344-3.738-4.992-8.043-9.437-12.172-14.062-.48-.54-.738-.618-1.059.312.5 2.188.305 2.328.317 3.512.062 6.215-.488 12.379-1.48 18.5-1.071 6.613-2.747 13.09-4.852 19.453a.229.229 0 0 0-.028.238c-.097.203-.218.403-.293.613-3.066 8.993-6.945 17.633-11.289 26.067-.172.336-.207.918-.77.832-.421-.063-.69-.422-.89-.809-.36-.691-.695-1.402-1.11-2.07-2.155-3.496-4.222-7.05-6.097-10.707-1.273-2.484-2.207-4.961-.347-7.688.55-.812.82-1.914 1.23-2.878 4.441-10.532 7.273-21.48 8.418-32.848.559-5.586.289-11.16-.766-16.692-.797-4.187-2.636-7.902-5.394-11.058-3.457-3.961-8.13-4.692-13.121-4.234-3.985.363-7.098 2.433-9.371 5.453-3.258 4.316-4.723 9.418-5.176 14.8-.805 9.563.41 18.942 2.87 28.141 3.228 12.066 8.009 23.543 14.255 34.356 6.015 10.414 12.894 20.226 21.273 28.921 1.235 1.282 2.352 2.766 3.672 3.868 2.965 2.472 5.711 5.199 8.856 7.472 6.558 4.742 13.363 8.895 21.422 10.664 7.859 1.73 16.05-1.156 19.058-10.457 1.969-6.086 2.492-12.293 2.078-18.625-.64-9.828-2.953-19.308-6.004-28.625zm0 0"/><path fill="#6b68f2" d="M249.996 1.305C250 .309 249.848 0 248.75 0 166.266.031 83.785.031 1.305.008.309.008 0 .156 0 1.254c.031 82.484.031 164.965.008 247.45 0 .991.148 1.304 1.246 1.3 41.242-.035 82.484-.027 123.726-.027 41.239 0 82.48-.004 123.72.023 1 0 1.304-.152 1.304-1.25-.031-82.484-.031-164.965-.008-247.445zm-31.367 168.57c-.332 5.36-.918 10.715-2.723 15.809-2.238 6.324-5.379 12.183-10.683 16.492-4.078 3.312-8.743 5.656-14.012 6.504-3.988.636-8.047.902-12.027.242-2.477-.41-4.961-1-7.403-1.797-6.687-2.191-12.785-5.496-18.574-9.39-5.473-3.684-10.445-8-15.277-12.489-3.625-3.363-7.102-6.91-10.239-10.687-5.035-6.063-9.859-12.313-13.66-19.301-2.199-4.047-4.66-7.961-6.855-12.024-1.45-2.691-2.672-5.48-3.961-8.246-3.387-7.254-6.04-14.777-8.258-22.453-.8-2.77-1.547-5.566-2.242-8.36-.695-2.788-.82-5.718-1.25-8.573-.942-6.286-1.016-12.579-.465-18.895.008-.074-.074-.156-.254-.5-3.473 3.852-7.047 7.469-10.191 11.48-.004-.003-.02.02-.02.02-2.094 2.035-3.617 4.531-5.437 6.79-2.356 2.921-4.125 6.245-6.149 9.386-3.258 5.066-6.066 10.394-8.597 15.855-2.696 5.813-5.262 11.688-7.125 17.828-3.211 10.582-5.364 21.364-4.762 32.477.293 5.45 1.191 10.875 4.414 15.559 3.55 5.16 8.621 6.964 14.601 6.199 8.36-1.07 15.41-5.18 22.125-9.996 4.56-3.274 8.59-7.121 12.63-10.98 1.538-1.47 2.878-3.09 4.21-4.735 1.012-1.246 1.422-1.23 2.176.14 2.379 4.36 5.66 8.106 8.36 12.247.535.82.421 1.296-.165 1.91-5.746 6.02-11.906 11.578-18.707 16.37-4.394 3.095-9.039 5.798-13.953 8.036-3.832 1.742-7.851 3.055-11.906 3.793-5.117.93-10.418 1.09-15.504-.637-.934-.312-1.906-.23-2.781-.543-3.785-1.36-7.055-3.527-10.09-6.187-6.465-5.668-9.543-13.078-11.246-21.192-1.965-9.347-1.656-18.746-.238-28.144.793-5.266 2.136-10.399 3.398-15.563 1.48-6.078 3.926-11.82 6.16-17.625 2.778-7.226 6.48-14.011 10.45-20.648a166.244 166.244 0 0 1 18.136-24.824c5.817-6.586 11.957-12.895 18.957-18.258 6.73-5.156 14-9.426 22.121-12.031 3.164-1.016 6.418-1.625 9.766-2.02 7.586-.89 14.566 1.016 21.433 3.79 3.293 1.327 6.524 2.816 9.52 4.75 4.531 2.921 8.922 6.023 13.07 9.503 4.43 3.715 8.555 7.75 12.336 12.078 2.867 3.278 5.793 6.528 8.387 10.067a352.43 352.43 0 0 1 7.512 10.632c3.863 5.715 7.093 11.782 10.218 17.922 3.93 7.73 7.055 15.785 9.641 24.043 1.672 5.332 2.844 10.79 3.805 16.309 1.144 6.594 1.738 13.195 1.328 19.867zm0 0"/><path fill="#fff" d="M213.496 133.7c-2.586-8.259-5.71-16.31-9.64-24.044-3.126-6.14-6.356-12.203-10.223-17.918a334.583 334.583 0 0 0-7.512-10.636c-2.59-3.54-5.516-6.79-8.383-10.067a111.908 111.908 0 0 0-12.336-12.078c-4.148-3.477-8.539-6.582-13.074-9.504-2.992-1.933-6.223-3.418-9.516-4.75-6.867-2.77-13.851-4.68-21.433-3.789-3.348.395-6.606 1.004-9.77 2.02-8.12 2.605-15.386 6.875-22.117 12.035-7 5.363-13.14 11.668-18.96 18.258A166.52 166.52 0 0 0 52.394 98.05c-3.965 6.636-7.668 13.418-10.45 20.644-2.23 5.809-4.675 11.547-6.16 17.63-1.258 5.16-2.601 10.292-3.394 15.558-1.418 9.398-1.727 18.797.238 28.144 1.703 8.114 4.781 15.528 11.246 21.192 3.035 2.66 6.305 4.828 10.09 6.187.875.313 1.847.23 2.777.547 5.09 1.727 10.39 1.563 15.504.633 4.059-.734 8.078-2.047 11.91-3.793 4.914-2.238 9.559-4.941 13.953-8.035 6.801-4.793 12.961-10.352 18.707-16.371.586-.614.7-1.09.164-1.91-2.699-4.141-5.98-7.883-8.363-12.247-.75-1.37-1.164-1.386-2.172-.14-1.336 1.644-2.675 3.265-4.21 4.734-4.04 3.86-8.07 7.707-12.63 10.98-6.714 4.821-13.765 8.926-22.125 9.997-5.98.765-11.05-1.04-14.601-6.196-3.223-4.687-4.121-10.109-4.414-15.562-.602-11.113 1.55-21.895 4.762-32.477 1.863-6.136 4.43-12.015 7.125-17.824 2.53-5.46 5.34-10.793 8.597-15.855 2.024-3.145 3.793-6.465 6.149-9.39 1.82-2.259 3.343-4.755 5.437-6.79l.016-.02c3.148-4.011 6.722-7.628 10.195-11.476.18.34.258.422.254.496-.55 6.316-.477 12.613.465 18.895.43 2.859.555 5.785 1.25 8.578a231.141 231.141 0 0 0 2.242 8.355c2.219 7.68 4.871 15.2 8.254 22.453 1.293 2.766 2.516 5.559 3.965 8.246 2.195 4.063 4.656 7.977 6.855 12.024 3.801 6.992 8.625 13.242 13.66 19.3 3.133 3.778 6.614 7.325 10.239 10.692 4.828 4.484 9.804 8.805 15.277 12.484 5.79 3.895 11.883 7.2 18.574 9.391 2.442.8 4.926 1.387 7.403 1.8 3.976.66 8.035.395 12.027-.245 5.27-.844 9.934-3.192 14.012-6.504 5.3-4.305 8.445-10.168 10.683-16.492 1.801-5.09 2.387-10.446 2.719-15.809.414-6.672-.18-13.273-1.328-19.867-.957-5.52-2.133-10.977-3.8-16.309zm-14 47.331c-3.008 9.305-11.2 12.188-19.059 10.457-8.058-1.77-14.867-5.922-21.425-10.664-3.14-2.273-5.887-5-8.852-7.472-1.32-1.102-2.437-2.586-3.672-3.868-8.379-8.695-15.258-18.504-21.273-28.918-6.25-10.816-11.028-22.293-14.254-34.359-2.461-9.2-3.676-18.578-2.871-28.14.453-5.383 1.918-10.481 5.176-14.801 2.273-3.016 5.386-5.086 9.37-5.453 4.993-.458 9.665.277 13.122 4.234a23.238 23.238 0 0 1 5.394 11.058c1.055 5.532 1.325 11.106.762 16.692-1.14 11.367-3.973 22.316-8.414 32.848-.41.968-.68 2.066-1.234 2.878-1.856 2.727-.922 5.204.351 7.688 1.875 3.66 3.938 7.21 6.098 10.707.41.668.75 1.379 1.11 2.07.198.387.468.746.89.809.562.086.597-.496.77-.828 4.343-8.438 8.218-17.078 11.288-26.07.075-.212.196-.407.293-.614a.23.23 0 0 1 .028-.238c2.105-6.363 3.777-12.84 4.851-19.453.989-6.121 1.543-12.285 1.48-18.5-.01-1.184.184-1.324-.32-3.512.325-.93.583-.852 1.063-.312 4.125 4.625 8.434 9.07 12.172 14.062 3.707 4.953 7.18 10.059 10.312 15.344 3.813 6.43 7.387 13.027 10.016 20.09.879 2.355 2.117 4.617 2.902 7.015 3.051 9.317 5.36 18.797 6.004 28.625.414 6.332-.11 12.54-2.078 18.625zm0 0"/></svg>