<svg xmlns="http://www.w3.org/2000/svg" width="250" height="250"><linearGradient id="a" x1="210.75" x2="51.5" y1="33.75" y2="221.5" gradientUnits="userSpaceOnUse"><stop offset="0" stop-color="#b6509e"/><stop offset="1" stop-color="#2ebac6"/></linearGradient><path fill="#fff" d="M250 125c0 69.035-55.965 125-125 125S0 194.035 0 125 55.965 0 125 0s125 55.965 125 125zm0 0"/><path fill="url(#a)" d="M125 250c-8.46.004-16.902-.848-25.195-2.54a124.377 124.377 0 0 1-44.7-18.808A125.37 125.37 0 0 1 9.82 173.656a124.484 124.484 0 0 1-7.28-23.46 126.19 126.19 0 0 1 0-50.383 124.279 124.279 0 0 1 18.808-44.7A125.378 125.378 0 0 1 76.344 9.824a124.211 124.211 0 0 1 23.46-7.285 126.19 126.19 0 0 1 50.383 0 124.279 124.279 0 0 1 44.7 18.809 125.378 125.378 0 0 1 45.289 54.996 124.496 124.496 0 0 1 7.285 23.46 126.19 126.19 0 0 1 0 50.383 124.25 124.25 0 0 1-18.809 44.7 125.37 125.37 0 0 1-54.996 45.285 124.223 124.223 0 0 1-23.46 7.289A125.788 125.788 0 0 1 125 250zm0-236.61c-7.555 0-15.09.758-22.492 2.27a110.94 110.94 0 0 0-39.91 16.793 111.936 111.936 0 0 0-40.43 49.106 111.036 111.036 0 0 0-6.504 20.949 112.684 112.684 0 0 0 0 44.984 110.998 110.998 0 0 0 16.797 39.906 111.927 111.927 0 0 0 49.105 40.438 111.036 111.036 0 0 0 20.95 6.504 112.684 112.684 0 0 0 44.984 0 111.016 111.016 0 0 0 39.91-16.797 111.957 111.957 0 0 0 40.422-49.102 111.036 111.036 0 0 0 6.504-20.949 112.684 112.684 0 0 0 0-44.984 110.998 110.998 0 0 0-16.797-39.906 111.946 111.946 0 0 0-49.098-40.434 111.036 111.036 0 0 0-20.949-6.504A112.407 112.407 0 0 0 125 13.391zm0 0"/><path fill="#282138" d="M125.383 29.02c-53.219-.215-96.52 43.113-96.363 96.02.152 52.905 43.23 95.952 96.02 95.94 52.312-.007 95.573-43.054 95.987-94.73.422-52.633-41.57-97.016-95.644-97.23zm-.797 184.23c-48.34-.195-87.832-39.79-87.832-88.355 0-48.891 39.64-88.211 88.957-88.149 47.879.063 88.281 39.82 87.582 89.527-.676 48.243-40.465 87.172-88.707 86.977zm0 0"/><path fill="#82808a" d="M124.773 207.281a82.085 82.085 0 0 1-53.746-20.23c-1.379-1.176-1.597-1.844-.175-3.211 3.82-3.668 3.75-3.742 7.863-.438 27.734 22.286 67.851 21.457 95.027-2.015 1.293-1.117 1.93-1.13 3.117.082 4.07 4.16 4.125 4.117-.574 7.824-15.039 11.871-32.156 17.797-51.512 17.988zm0 0"/><g fill="#83808a"><path d="M199.605 122.387c-.078-16.004-6.285-32.13-18.128-46.114-1.11-1.312-1.145-1.925.074-3.117 4.094-4.015 4.101-4.113 7.676.39a80.4 80.4 0 0 1 17.718 44.329c1.864 23.117-4.906 43.422-19.847 61.09-1.18 1.398-1.832 1.605-3.2.187-3.656-3.797-3.683-3.691-.441-7.851 10.656-13.664 16.172-29.13 16.148-48.914zM124.637 42.668a82.394 82.394 0 0 1 54.261 20.066c1.551 1.305 1.766 2.07.165 3.563-3.684 3.445-3.57 3.496-7.5.402a73.142 73.142 0 0 0-42.512-16.176c-19.973-.996-37.508 5.125-52.707 18.012-1.297 1.098-1.942 1.137-3.133-.078-4.063-4.137-4.117-4.094.398-7.684a81.41 81.41 0 0 1 51.028-18.105zM42.738 124.531c.188-19.93 6.88-37.824 19.996-53.367 1.434-1.7 2.23-1.719 3.739-.098 3.3 3.547 3.39 3.457.433 7.176a73.18 73.18 0 0 0-16.472 48.371 72.515 72.515 0 0 0 17.832 46.625c1.347 1.582 1.543 2.426-.086 3.95-3.848 3.585-3.758 3.687-7.024-.391-12.14-15.149-18.273-32.434-18.418-52.266zm0 0"/></g><path fill="#ef9142" d="M163.496 135.727c-.754-6.008-4.383-9.758-9.96-11.817-.817-.305-1.821-.273-2.497-1.18 6.649-3.777 8.227-9.816 7.113-16.773-1.074-6.7-5.613-10.36-11.789-12.34a34.996 34.996 0 0 0-8.691-1.789c-1.32-.074-1.922-.543-1.856-1.953.098-2.059.024-4.125.024-6.188 0-7.722 0-7.687-7.735-7.296-1.312.066-1.699.488-1.667 1.742.066 2.637.019 5.281.019 7.922 0 5.273 0 5.207-5.215 5.273-1.629.024-2.148-.469-2.101-2.094.105-3.71-.012-7.425.058-11.14.024-1.297-.402-1.75-1.699-1.696-1.977.09-3.965.098-5.941 0-1.391-.07-1.868.375-1.832 1.805.085 3.793-.047 7.594.062 11.387.047 1.617-.422 2.148-2.07 2.113-4.29-.105-8.582-.062-12.875-.027-4.422.035-3.832-.614-3.856 3.738-.031 6.211-.008 6.211 6.29 6.262 4.218.035 5.863 1.652 5.87 5.816a6298.1 6298.1 0 0 1 0 21.043c0 5.695.012 11.39 0 17.086-.007 3.75-.976 4.734-4.628 4.77a36.741 36.741 0 0 1-3.711-.024 1.827 1.827 0 0 0-1.625.332c-.461.363-.715.926-.692 1.512-.344 2.531-.703 5.062-1.199 7.566-.281 1.426.07 1.871 1.547 1.836 3.71-.09 7.43-.054 11.14-.023 5.72.05 5.72.066 5.72 5.664 0 .906-.048 1.82.01 2.723.145 2.28-1.003 5.246.466 6.66 1.453 1.394 4.406.234 6.687.449 1.684.156 2.328-.383 2.266-2.168-.133-3.547.066-7.102-.082-10.645-.078-1.894.558-2.367 2.379-2.343 5.031.05 5.031-.032 5.031 5.117 0 .906-.05 1.816.012 2.723.168 2.355-1.059 5.433.515 6.875 1.54 1.41 4.579.234 6.946.44 1.57.142 1.972-.523 1.941-1.987-.082-3.547.082-7.102-.07-10.645-.086-2.039.351-2.898 2.637-2.96a43.787 43.787 0 0 0 10.695-1.805c11.84-3.356 15.793-12.579 14.363-23.961zm-44.187-24.332v-7.407c0-.84-.043-1.695 1.195-1.718 4.851-.098 9.715-.31 14.39 1.402 3.961 1.445 6.02 4.11 6.036 7.812.015 3.637-2.07 6.278-6.11 7.73-4.582 1.653-9.355 1.61-14.129 1.641-1.32.008-1.398-.824-1.39-1.808.011-2.547.004-5.098.004-7.649zm22.308 35.656c-2.93 2.074-6.37 2.722-9.804 3.086-3.516.37-7.079.304-10.614.515-1.48.09-2.058-.355-1.996-1.922.117-2.8.035-5.609.035-8.414h.07c0-2.804.032-5.609-.011-8.414-.02-1.191.293-1.816 1.648-1.832 5.364-.062 10.715-.074 15.961 1.282a13.953 13.953 0 0 1 4.715 2.082 8.18 8.18 0 0 1 3.652 6.812 8.185 8.185 0 0 1-3.66 6.809zm0 0"/></svg>