<svg xmlns="http://www.w3.org/2000/svg" width="250" height="250"><linearGradient id="a" x1="210.75" x2="51.5" y1="33.75" y2="221.5" gradientUnits="userSpaceOnUse"><stop offset="0" stop-color="#b6509e"/><stop offset="1" stop-color="#2ebac6"/></linearGradient><path fill="#fff" d="M250 125c0 69.035-55.965 125-125 125S0 194.035 0 125 55.965 0 125 0s125 55.965 125 125zm0 0"/><path fill="url(#a)" d="M125 250c-8.46.004-16.902-.848-25.195-2.54a124.377 124.377 0 0 1-44.7-18.808A125.37 125.37 0 0 1 9.82 173.656a124.484 124.484 0 0 1-7.28-23.46 126.19 126.19 0 0 1 0-50.383 124.279 124.279 0 0 1 18.808-44.7A125.378 125.378 0 0 1 76.344 9.824a124.211 124.211 0 0 1 23.46-7.285 126.19 126.19 0 0 1 50.383 0 124.279 124.279 0 0 1 44.7 18.809 125.378 125.378 0 0 1 45.289 54.996 124.496 124.496 0 0 1 7.285 23.46 126.19 126.19 0 0 1 0 50.383 124.25 124.25 0 0 1-18.809 44.7 125.37 125.37 0 0 1-54.996 45.285 124.223 124.223 0 0 1-23.46 7.289A125.788 125.788 0 0 1 125 250zm0-236.61c-7.555 0-15.09.758-22.492 2.27a110.94 110.94 0 0 0-39.91 16.793 111.936 111.936 0 0 0-40.43 49.106 111.036 111.036 0 0 0-6.504 20.949 112.684 112.684 0 0 0 0 44.984 110.998 110.998 0 0 0 16.797 39.906 111.927 111.927 0 0 0 49.105 40.438 111.036 111.036 0 0 0 20.95 6.504 112.684 112.684 0 0 0 44.984 0 111.016 111.016 0 0 0 39.91-16.797 111.957 111.957 0 0 0 40.422-49.102 111.036 111.036 0 0 0 6.504-20.949 112.684 112.684 0 0 0 0-44.984 110.998 110.998 0 0 0-16.797-39.906 111.946 111.946 0 0 0-49.098-40.434 111.036 111.036 0 0 0-20.949-6.504A112.407 112.407 0 0 0 125 13.391zm0 0"/><path d="M97.363 194.906c35.782 0 35.782-.531 41.848-2.332 7.93-2.355-22.383-23.34-41.848-23.34s-35.242 5.75-35.242 12.836c0 7.09 15.777 12.836 35.242 12.836zm0 0"/><path d="m178.613 85.754 1.645 1.773-1.438 1.946c-46.668 63.093-73.55 91.664-84.957 87.832-6.945-2.336-13.914-9.352-20.879-19.547a141.981 141.981 0 0 1-6.836-11.106c-1.394-2.5-2.574-4.78-3.183-6.066a15.051 15.051 0 0 1-1.367-3.973l-.032-.16c-.109-.562-.148-.738-.23-1.047-6.55-24.68 2.285-50.886 22.445-66.558 20.16-15.668 47.735-17.77 70.035-5.328l.243.152c7.683 5.36 15.87 12.719 24.554 22.082zm-27.785-17.207c-20.258-11.219-45.258-9.258-63.523 4.98-18.266 14.239-26.27 38-20.34 60.387.125.477.183.746.316 1.434l.028.14c.18.903.484 1.778.914 2.594.558 1.172 1.683 3.34 3.015 5.734 2.012 3.606 4.219 7.23 6.559 10.657 6.297 9.207 12.539 15.496 17.926 17.304 7.183 2.414 34.222-26.21 76.957-83.816a146.372 146.372 0 0 0-21.852-19.414zm0 0"/><path fill="#ec1c79" d="M150.832 68.547c-20.262-11.219-45.262-9.258-63.527 4.98-18.266 14.239-26.27 38-20.34 60.387.129.477.183.746.316 1.434l.028.14c.18.903.484 1.778.918 2.594.558 1.172 1.68 3.34 3.011 5.734 2.012 3.606 4.219 7.23 6.563 10.657 6.293 9.207 12.535 15.496 17.922 17.304 7.183 2.414 34.226-26.207 76.96-83.816a146.76 146.76 0 0 0-21.851-19.414zm0 0"/><path d="M134.469 194.324c-35.125 0-63.598-28.472-63.598-63.594 0-35.125 28.473-63.597 63.598-63.597 35.12 0 63.594 28.472 63.594 63.597 0 35.122-28.473 63.594-63.594 63.594zm0-5.836c31.898 0 57.758-25.86 57.758-57.758 0-31.902-25.86-57.761-57.762-57.761-31.899 0-57.758 25.86-57.758 57.761 0 31.899 25.86 57.758 57.762 57.758zm0 0"/><path fill="#fff" d="M134.465 188.488c31.898.004 57.762-25.855 57.762-57.758 0-31.898-25.86-57.757-57.758-57.761-31.899 0-57.762 25.86-57.762 57.758 0 31.898 25.86 57.761 57.758 57.761zm0 0"/><path fill-rule="evenodd" d="m91.262 142.559-7.645-23.032h6.695l3.985 13.23 4.414-13.296h5.453l4.414 13.297 3.98-13.23h6.57l-7.644 23.03h-5.52l-4.609-13.163-4.574 13.164zm30.379-.16v-22.872h18.402v5.391h-12.125v3.46h10.98v5h-10.98v3.63h12.285v5.39zm27.382 0v-17.317h-6.859v-5.555h20.063v5.555h-6.864v17.316zm15.977 0v-22.872h6.336v8.559h8.137v-8.559h6.34v22.871h-6.34v-8.691h-8.137v8.691zm0 0"/><path d="M62.992 112.648a3.269 3.269 0 0 1-1.414-4.363 3.263 3.263 0 0 1 4.336-1.48l9.336 4.668a3.257 3.257 0 0 1 1.844 2.73 3.264 3.264 0 0 1-1.473 2.95 3.27 3.27 0 0 1-3.293.163zM61.922 128.125a3.268 3.268 0 0 1-1.957-2.672 3.27 3.27 0 0 1 4.691-3.262l9.336 4.309a3.27 3.27 0 0 1 .566 5.684 3.263 3.263 0 0 1-3.3.25zm0 0"/></svg>