<svg xmlns="http://www.w3.org/2000/svg" width="250" height="250"><linearGradient id="a" x1="722.15" x2="76.11" y1="544.65" y2="147.08" gradientTransform="matrix(0 -.25 -.25 0 242.262 242.725)" gradientUnits="userSpaceOnUse"><stop offset="0" stop-color="#00aeef"/><stop offset="1" stop-color="#fff"/></linearGradient><linearGradient id="b" x1="646.97" x2="309.02" y1="835.67" y2="284.65" gradientTransform="matrix(0 -.25 -.25 0 242.262 242.725)" gradientUnits="userSpaceOnUse"><stop offset="0" stop-color="#3499cc"/><stop offset="1" stop-color="#2e3192"/></linearGradient><path fill="url(#a)" d="M234.984 56.86v79.027c0 5.527-2.132 10.75-5.75 14.047l-27.695 25.343-71.086 65.047c-5.09 4.66-12.078 4.66-17.168 0l-71.082-65.047L97.148 125l20.036 18.336c2.777 2.543 6.593 2.543 9.37 0L146.595 125l54.945-50.281 25.102-22.969c3.441-3.152 8.343-.148 8.343 5.11zm0 0"/><path fill="url(#b)" d="M201.54 74.719 146.593 125l-20.04-18.336c-2.777-2.543-6.593-2.543-9.37 0L97.144 125l-54.94 50.277-24.727 22.625-.383.348c-3.438 3.148-8.344.145-8.344-5.11v-79.023c0-5.531 2.133-10.75 5.75-14.058l27.703-25.34 71.074-65.04c5.094-4.663 12.09-4.663 17.184 0zm0 0"/><path fill="#2e3192" d="m201.54 74.719-54.946 50.277 48.355-56.305zm0 0"/><path fill="#00aeef" d="m42.203 175.277 54.942-50.28-48.352 56.312zm0 0"/></svg>