<svg xmlns="http://www.w3.org/2000/svg" width="250" height="250"><linearGradient id="a" x1="210.75" x2="51.5" y1="33.75" y2="221.5" gradientUnits="userSpaceOnUse"><stop offset="0" stop-color="#b6509e"/><stop offset="1" stop-color="#2ebac6"/></linearGradient><linearGradient id="b" x1="220.703" x2="29.297" y1="130.168" y2="130.742" gradientUnits="userSpaceOnUse"><stop offset="0" stop-color="#075eb6"/><stop offset="1" stop-color="#0377fc"/></linearGradient><path fill="#fff" d="M250 125c0 69.035-55.965 125-125 125S0 194.035 0 125 55.965 0 125 0s125 55.965 125 125zm0 0"/><path fill="url(#a)" d="M125 250c-8.46.004-16.902-.848-25.195-2.54a124.377 124.377 0 0 1-44.7-18.808A125.37 125.37 0 0 1 9.82 173.656a124.484 124.484 0 0 1-7.28-23.46 126.19 126.19 0 0 1 0-50.383 124.279 124.279 0 0 1 18.808-44.7A125.378 125.378 0 0 1 76.344 9.824a124.211 124.211 0 0 1 23.46-7.285 126.19 126.19 0 0 1 50.383 0 124.279 124.279 0 0 1 44.7 18.809 125.378 125.378 0 0 1 45.289 54.996 124.496 124.496 0 0 1 7.285 23.46 126.19 126.19 0 0 1 0 50.383 124.25 124.25 0 0 1-18.809 44.7 125.37 125.37 0 0 1-54.996 45.285 124.223 124.223 0 0 1-23.46 7.289A125.788 125.788 0 0 1 125 250zm0-236.61c-7.555 0-15.09.758-22.492 2.27a110.94 110.94 0 0 0-39.91 16.793 111.936 111.936 0 0 0-40.43 49.106 111.036 111.036 0 0 0-6.504 20.949 112.684 112.684 0 0 0 0 44.984 110.998 110.998 0 0 0 16.797 39.906 111.927 111.927 0 0 0 49.105 40.438 111.036 111.036 0 0 0 20.95 6.504 112.684 112.684 0 0 0 44.984 0 111.016 111.016 0 0 0 39.91-16.797 111.957 111.957 0 0 0 40.422-49.102 111.036 111.036 0 0 0 6.504-20.949 112.684 112.684 0 0 0 0-44.984 110.998 110.998 0 0 0-16.797-39.906 111.946 111.946 0 0 0-49.098-40.434 111.036 111.036 0 0 0-20.949-6.504A112.407 112.407 0 0 0 125 13.391zm0 0"/><path fill="url(#b)" d="M220.703 125c0 52.855-42.848 95.703-95.703 95.703S29.297 177.855 29.297 125 72.145 29.297 125 29.297 220.703 72.145 220.703 125zm0 0"/><g fill="#fff"><path d="M133.29 126.414a79.087 79.087 0 0 1 6.773 4.629 105.369 105.369 0 0 1 7.707 7.352c3.734 3.882 5.347 8.738 6.125 13.964 1.308 8.79-1.125 16.352-6.465 23.438-7.52 9.988-24.13 13.855-34.04 9.308-5.48-2.515-10.437-5.648-13.636-10.414-4.883-7.273-7.969-15.359-4.36-24.386.934-2.332 1.81-4.688 2.797-7.25-3.734.746-7.421 1.476-11.132 2.218-.641-2.558-1.27-4.77-1.684-7.023.07-.668.48-1.25 1.086-1.54 8.195-1.733 16.422-3.323 24.617-5.062 1.457-.308 1.867.122 2.027 1.418.575 4.668 1.157 9.336 1.805 13.993.48 3.472 1 6.949 1.637 10.39.266 1.45-.059 2.113-1.563 2.246-2.199.192-4.394.48-6.664.735-.691-4.59-1.328-8.817-2.062-13.72-3.067 5.513-5.121 10.403-3.028 16.153 1.672 4.59 4.004 8.797 8.051 11.535 6.52 4.418 13.598 5.641 21.13 2.457a20.868 20.868 0 0 0 10.081-8.449 21.143 21.143 0 0 0 2.578-17.02 19.807 19.807 0 0 0-9.343-12.636 4.383 4.383 0 0 1-2.504-4.504c.156-2.61.18-5.223.066-7.832zM152.367 104.902l10.758-3.648c.77 2.21 1.617 4.266 2.137 6.398a2.402 2.402 0 0 1-1.211 1.973c-7.211 2.77-14.457 5.465-21.73 8.078-3.079 1.113-3.067.856-3.883-2.293-1.606-6.168-3.493-12.262-5.25-18.39-.481-1.676-.93-3.364-1.458-5.282a59.734 59.734 0 0 1 7.192-2.07c.488-.086 1.562 1.5 1.883 2.477.699 2.113 1.035 4.34 1.613 6.496.285 1.066.77 2.07 1.309 3.492 2.375-4.348 2.554-8.621 1.835-12.961a20.703 20.703 0 0 0-11.3-15.496 22.985 22.985 0 0 0-10.617-2.406c-7.856.136-14.047 3.933-18.22 10.656a20.787 20.787 0 0 0 1.981 24.36 50.764 50.764 0 0 0 7.707 6.64 4.1 4.1 0 0 1 1.996 3.742c-.09 2.555-.023 5.11-.023 8.246-2.27-1.574-4.211-2.758-5.965-4.172-3.262-2.637-6.531-5.281-9.586-8.144-4.308-4.047-6.281-9.391-7.152-15.04a28.744 28.744 0 0 1 8.851-26.136c7.836-7.582 17.383-9.945 28.086-7.625a28.562 28.562 0 0 1 18.317 12.879 29.439 29.439 0 0 1 3.968 22.754c-.359 1.707-.77 3.398-1.238 5.472zm0 0"/><path d="M129.25 85.688V164c-2.5 0-4.875.04-7.246-.016-1.723-.035-1.195-1.425-1.195-2.343a9865.052 9865.052 0 0 1-.012-37.246c0-12.012.05-24.024-.043-36.043-.016-2.086.496-2.922 2.672-2.707 1.82.187 3.676.043 5.824.043zm0 0"/></g></svg>