<svg xmlns="http://www.w3.org/2000/svg" width="250" height="250"><linearGradient id="a" x1="210.75" x2="51.5" y1="33.75" y2="221.5" gradientUnits="userSpaceOnUse"><stop offset="0" stop-color="#b6509e"/><stop offset="1" stop-color="#2ebac6"/></linearGradient><path fill="#fff" d="M250 125c0 69.035-55.965 125-125 125S0 194.035 0 125 55.965 0 125 0s125 55.965 125 125zm0 0"/><path fill="url(#a)" d="M125 250c-8.46.004-16.902-.848-25.195-2.54a124.377 124.377 0 0 1-44.7-18.808A125.37 125.37 0 0 1 9.82 173.656a124.484 124.484 0 0 1-7.28-23.46 126.19 126.19 0 0 1 0-50.383 124.279 124.279 0 0 1 18.808-44.7A125.378 125.378 0 0 1 76.344 9.824a124.211 124.211 0 0 1 23.46-7.285 126.19 126.19 0 0 1 50.383 0 124.279 124.279 0 0 1 44.7 18.809 125.378 125.378 0 0 1 45.289 54.996 124.496 124.496 0 0 1 7.285 23.46 126.19 126.19 0 0 1 0 50.383 124.25 124.25 0 0 1-18.809 44.7 125.37 125.37 0 0 1-54.996 45.285 124.223 124.223 0 0 1-23.46 7.289A125.788 125.788 0 0 1 125 250zm0-236.61c-7.555 0-15.09.758-22.492 2.27a110.94 110.94 0 0 0-39.91 16.793 111.936 111.936 0 0 0-40.43 49.106 111.036 111.036 0 0 0-6.504 20.949 112.684 112.684 0 0 0 0 44.984 110.998 110.998 0 0 0 16.797 39.906 111.927 111.927 0 0 0 49.105 40.438 111.036 111.036 0 0 0 20.95 6.504 112.684 112.684 0 0 0 44.984 0 111.016 111.016 0 0 0 39.91-16.797 111.957 111.957 0 0 0 40.422-49.102 111.036 111.036 0 0 0 6.504-20.949 112.684 112.684 0 0 0 0-44.984 110.998 110.998 0 0 0-16.797-39.906 111.946 111.946 0 0 0-49.098-40.434 111.036 111.036 0 0 0-20.949-6.504A112.407 112.407 0 0 0 125 13.391zm0 0"/><path fill="#231815" d="M177.367 158.395c6.934 9.324 14.094 18.863 21.246 28.406-14.308 16.91-32.09 27.754-53.554 32.304-23.852 4.989-46.399 1.301-68.301-10.84 19.515-14.53 38.597-28.835 57.894-43.144 4.336 4.121 8.453 8.238 12.575 12.145 4.554 4.336 2.82 4.55 8.671 1.3a60.155 60.155 0 0 0 19.95-18.43c.218-.433.652-.866.867-1.3-.215 0 0 0 .652-.434zm-85.215 19.082c-5.418 4.12-10.406 7.804-15.394 11.71-3.684 2.817-7.371 5.418-11.055 8.239-1.52 1.3-2.601 1.3-4.34-.219-16.476-14.746-26.883-32.957-30.789-54.637-3.906-21.902-.433-42.715 9.977-62.445.215-.434.648-1.086.867-1.52 0-.214.215-.214.648-.433 14.313 18.863 28.84 37.73 43.149 56.59a9.245 9.245 0 0 1-1.082 1.52c-4.34 4.55-8.676 9.105-13.227 13.44-1.3 1.301-1.52 2.387-.652 3.907a64.137 64.137 0 0 0 18.648 21.68c1.082.652 1.95 1.3 3.25 2.168zm80.875-134.649c-6.933 4.988-13.875 9.977-20.812 14.746-11.926 8.457-23.852 17.13-35.563 25.586-1.515 1.086-2.601 1.3-3.906-.215-3.906-4.12-8.02-7.804-11.926-11.925a2.948 2.948 0 0 0-3.683-.653 63.068 63.068 0 0 0-22.762 19.95c-.484.538-.922 1.117-1.3 1.734-3.47-4.555-6.723-8.672-9.977-13.008-3.47-4.555-6.72-9.11-9.973-13.445-1.082-1.516-1.3-2.602.219-4.121 16.699-18.43 37.293-29.27 62.011-31.872 19.512-2.167 38.16 1.735 55.504 11.06.653.433 1.301.648 1.953 1.081 0 .649 0 .867.215 1.082zm35.344 130.094c-4.555-5.852-8.672-11.274-12.793-16.7-9.539-12.574-19.078-25.367-28.836-37.94-1.3-1.735-1.3-2.821.215-4.34 4.121-4.118 8.023-8.239 12.145-12.36 1.082-1.082 1.515-2.168.648-3.684a64.217 64.217 0 0 0-19.727-22.765 18.14 18.14 0 0 0-2.168-1.52c.653-.648 1.301-1.082 1.735-1.515 8.238-6.29 16.48-12.36 24.719-18.649 1.3-1.082 2.382-1.515 3.906 0 20.597 18.649 31.656 41.848 32.738 69.817a95.102 95.102 0 0 1-10.621 46.183 16.538 16.538 0 0 0-1.96 3.473zm0 0"/></svg>