<svg xmlns="http://www.w3.org/2000/svg" xmlns:xlink="http://www.w3.org/1999/xlink" width="250" height="250"><linearGradient id="a"><stop offset="0" stop-color="#fac565"/><stop offset="1" stop-color="#5f3400"/></linearGradient><linearGradient xlink:href="#a" id="b" x1="78.125" x2="78.125" y1="64.355" y2="126.66" gradientUnits="userSpaceOnUse"/><linearGradient id="c" x1="91.324" x2="77.164" y1="122.504" y2="196.918" gradientUnits="userSpaceOnUse"><stop offset="0" stop-color="#ffdda1"/><stop offset="1" stop-color="#5f3400"/></linearGradient><linearGradient xlink:href="#a" id="d" x1="104.102" x2="104.102" y1="76.66" y2="128.418" gradientUnits="userSpaceOnUse"/><path fill="#c48417" d="M241.992 125.195c0-32.422-11.328-59.765-34.375-82.422-23.047-23.046-50.781-34.765-82.812-34.765-32.422 0-59.766 11.719-82.032 34.765-23.046 22.657-34.765 50-34.765 82.422 0 32.032 11.719 59.766 34.765 82.422 22.657 23.047 50 34.375 82.032 34.375s59.375-11.328 82.812-34.375c23.047-22.656 34.375-50.39 34.375-82.422m-41.797-75c20.313 20.313 30.47 45.313 30.47 74.61 0 28.906-10.157 53.906-30.47 74.61-21.093 20.702-46.093 30.858-75 30.858-29.297 0-53.906-10.156-74.218-30.859h-.391c-20.313-20.312-30.86-45.312-30.86-74.219 0-29.297 10.547-54.297 30.86-74.61l.39-.39c20.313-20.703 44.922-30.86 74.22-30.86 29.296 0 53.906 10.548 75 30.86zm0 0"/><path fill="#fff" d="M230.273 125.195c0-29.297-10.156-54.297-30.468-74.61-20.703-20.702-45.703-30.858-75-30.858-29.297 0-53.907 10.546-74.22 30.859l-.39.39c-19.922 19.922-30.468 44.922-30.468 74.22 0 28.906 10.546 53.906 30.859 74.609h.39c20.313 20.703 44.922 30.86 74.22 30.86 28.906 0 53.906-10.157 75-30.86 19.921-20.703 30.077-45.703 30.077-74.61M184.57 90.04v2.344c0 6.25-1.953 11.719-5.86 16.406-1.17 1.953-3.124 3.516-5.468 4.688-1.172 1.171-3.125 1.953-5.078 2.734 3.125.781 5.86 2.344 8.594 4.297 4.297 2.734 7.812 6.25 10.156 10.547 2.344 3.515 3.516 7.812 3.906 12.11v2.343c0 6.25-1.172 11.719-3.515 15.625-1.953 5.078-4.688 8.594-8.594 11.719-3.906 2.343-8.594 4.296-13.672 5.859-5.078 1.562-10.547 2.344-16.406 2.344H71.289V63.867h39.844v.39h34.765c8.594 0 15.625 1.173 21.485 3.126 5.86 2.344 10.156 5.469 12.89 9.765 2.344 3.125 3.516 7.813 4.297 12.891m-15.625 46.094c-2.343-2.344-5.468-3.906-8.984-5.469-3.906-1.172-8.203-1.562-12.5-1.562h-36.719v33.593h37.5c4.688 0 8.985-.78 12.5-1.953 3.516-1.172 6.25-3.125 8.203-5.86 2.344-2.734 3.516-5.859 3.516-9.374 0-.781 0-1.563-.39-2.344-.391-2.734-1.173-5.078-3.126-7.031m-2.734-42.578c-.781-3.907-2.734-7.032-5.86-8.985-3.906-2.343-8.984-3.906-15.624-3.906h-33.594v30.86h35.937c3.516 0 6.64-.782 9.766-1.954 3.125-1.172 5.469-3.125 7.031-5.468 1.563-2.735 2.735-5.47 2.735-7.813-.391-1.172-.391-1.953-.391-2.734zm0 0"/><path d="M183.79 92.773V90.43c-.392-5.078-1.954-9.766-4.298-13.672-3.125-4.297-7.422-7.422-12.89-9.766-5.47-1.953-12.5-3.125-21.485-3.125h-34.765v17.188h33.593c6.25 0 11.72 1.172 15.625 3.906 3.125 1.953 5.078 5.078 5.86 8.984v2.735c0 2.734-.782 5.468-2.735 7.812-1.562 2.344-3.906 4.297-7.03 5.469-2.735 1.562-5.86 1.953-9.767 1.953h-35.937v17.578h36.719c4.297 0 8.593.39 12.5 1.563 3.515 1.172 6.64 3.125 8.984 5.468 1.953 1.954 2.734 4.297 3.125 7.422.39.782.39 1.563.39 2.344 0 3.516-1.171 6.64-3.515 9.375-1.953 2.734-4.687 4.688-8.203 5.86-3.906 1.562-8.203 1.953-12.5 1.953h-37.5v17.578h37.5c5.86 0 11.328-.782 16.406-2.344 5.078-1.172 9.766-3.125 13.672-5.86 3.906-2.734 6.64-6.25 8.594-10.937 2.344-4.297 3.515-9.766 3.515-15.625v-2.344c-.39-4.687-1.562-8.593-3.906-12.11-2.344-4.296-5.86-7.812-10.156-10.546-2.734-1.953-5.469-3.125-8.594-4.297 1.953-.781 3.906-1.562 5.078-2.734 2.344-1.172 3.907-2.735 5.47-4.688 4.296-5.078 6.25-10.547 6.25-16.797zm0 0"/><path fill="url(#b)" d="M71.29 63.477v117.187h13.67V63.477zm0 0"/><path fill="url(#c)" d="M97.46 63.477h-12.5v117.187h12.892zm0 0"/><path fill="url(#d)" d="m110.742 63.867-13.281-.39v117.187h13.281zm0 0"/></svg>