<svg xmlns="http://www.w3.org/2000/svg" xmlns:xlink="http://www.w3.org/1999/xlink" width="250" height="250"><linearGradient id="a"><stop offset="0" stop-color="#070f29"/><stop offset=".679" stop-color="#1c2951"/></linearGradient><linearGradient xlink:href="#a" id="c" x1="183.721" x2="107.003" y1="93.909" y2="9.004" gradientUnits="userSpaceOnUse"/><linearGradient id="b"><stop offset="0" stop-color="#3f7fc1"/><stop offset=".67" stop-color="#1c2a77"/><stop offset="1" stop-color="#1e2c5a"/></linearGradient><linearGradient xlink:href="#b" id="d" x1="26.738" x2="114.975" y1="218.325" y2="25.598" gradientUnits="userSpaceOnUse"/><linearGradient xlink:href="#a" id="e" x1="74.498" x2="37.324" y1="95.76" y2="190.131" gradientUnits="userSpaceOnUse"/><linearGradient xlink:href="#b" id="f" x1="222.999" x2="66.922" y1="214.183" y2="135" gradientUnits="userSpaceOnUse"/><linearGradient xlink:href="#a" id="g" x1="128.063" x2="245.394" y1="199.466" y2="171.081" gradientUnits="userSpaceOnUse"/><linearGradient xlink:href="#b" id="h" x1="74.659" x2="237.749" y1="2.104" y2="161.256" gradientUnits="userSpaceOnUse"/><path fill="url(#c)" d="M181.5 95c0-1-.5-2-.5-3v-.5c-.5-2.5-1-5-2-8-7-24.5-24-44.5-46-56-11-5.5-23-9-36-10C136 42 150 66 155 79c1 .5 1.5 1 2.5 1 .5.5 1.5 1 2 1 4 2 7.5 4.5 10.5 6.5.5.5 1 1 2 1 2.5 1.5 4.5 3 6 4 .5 0 .5.5 1 .5l.5.5.5.5c1 1 1.5 1.5 1.5 1v1-1zm0 0"/><path fill="url(#d)" d="M73.5 95.5c1.5-3 34.5-24.5 54-24.5 8 0 18.5 4 27.5 8.5-5-13-19-37-57.5-61.5h-4c-18 0-34 5.5-48 14.5C19 55 2 89 2 126.5 2 183.5 40.5 232 92.5 247c-16-7.5-29.5-18-39.5-35.5-7-12-10.5-25.5-11-38.5-1.5-28 8.5-58.5 31.5-77.5zm0 0"/><path fill="url(#e)" d="M74 128.5c-2.5-15-1.5-27.5-.5-33-23 19-33 49.5-31.5 77.5.5 7 1.5 13.5 3.5 20.5 6.5-36.5 20.5-56 28.5-65zm0 0"/><path fill="url(#f)" d="M242.5 156c-7 12-18 26-29 33-24 15-57 19-85.5 8-36.5-15.5-49.5-45-53.5-68.5-8 9-22 28.5-28.5 65 2 6 4.5 12.5 8 18 10 17.5 24 28 39.5 35.5 11 3 22.5 5 34.5 5 68 0 123-54.5 125-122-3 9-6 18-10.5 26zm0 0"/><path fill="url(#g)" d="M236.5 159.5c-44.5 23.5-73 22-83.5 20-7 6-15 12-25.5 17h-.5c28.5 11 62 7 85.5-8 11-7 22-20 29-32-1 1-3 2-5 3zm0 0"/><path fill="url(#h)" d="M127 1.5C96 1.5 67 13 45.5 32c14-9.5 30-14.5 48-14.5 14.5 0 28 3.5 40 10C159 41 177.5 65.5 182 96c.5 4 7.5 50.5-28.5 84 10.5 2 39.5 3.5 83.5-20 2-1 3.5-2 5.5-3l.5-.5c4.5-8 8-17 9.5-26V127C252 57.5 196 1.5 127 1.5zm0 0"/></svg>