<svg xmlns="http://www.w3.org/2000/svg" width="250" height="250"><linearGradient id="a" x1="43.162" x2="199.651" y1="88.194" y2="182.702" gradientUnits="userSpaceOnUse"><stop offset="0" stop-color="#01a4de"/><stop offset=".5" stop-color="#824592"/><stop offset="1" stop-color="#b91e73"/></linearGradient><path fill="url(#a)" d="M33.273 174.477a10.852 10.852 0 0 1-7.476-2.493 11.755 11.755 0 0 1-3.738-8.308c0-.832-7.477-99.7 20.77-133.352C71.491-4.152 121.343-9.969 154.163 17.031c32.816 27.004 36.555 77.684 7.89 112.164-28.245 33.649-125.87 44.868-127.117 44.868-.417.414-.832.414-1.664.414zM106.391 9.555a72.22 72.22 0 0 0-56.168 26.918c-23.676 28.25-19.938 118.394-19.11 125.875.196.82.336 1.652.418 2.492 0 0 .414.414 2.492.414 14.54-1.66 98.454-14.125 120.887-41.125 25.34-30.742 23.262-75.61-5.816-99.703A68.824 68.824 0 0 0 106.39 9.473zM77.309 225.156c-22.016 0-38.22-1.66-38.633-1.66a13.988 13.988 0 0 1-8.309-4.57 9.971 9.971 0 0 1-2.078-8.723c0-.832 13.293-98.871 47.36-125.871 34.894-28.25 85.16-23.266 112.163 10.383a75.535 75.535 0 0 1 15.372 57.746 82.314 82.314 0 0 1-31.157 53.172c-20.773 16.117-62.73 19.441-94.718 19.441zm-39.88-11.629c.415.414 1.66.414 2.493.828 14.539 2.079 98.871 6.235 126.703-16.199a76.807 76.807 0 0 0 27.832-47.36A66.14 66.14 0 0 0 180.75 99.7c-23.266-29.492-67.715-33.648-98.871-8.722-28.664 22.847-43.617 112.164-44.035 119.64-.828 2.41-.828 2.824-.414 2.824zm0 0"/></svg>