<svg xmlns="http://www.w3.org/2000/svg" width="250" height="250"><filter id="a" width="100%" height="100%" x="0%" y="0%"><feColorMatrix in="SourceGraphic" values="0 0 0 0 1 0 0 0 0 1 0 0 0 0 1 0 0 0 1 0"/></filter><mask id="c"><g filter="url(#a)"><path fill-opacity=".9" d="M0 0h250v250H0z"/></g></mask><clipPath id="b"><path d="M0 0h250v250H0z"/></clipPath><mask id="e"><g filter="url(#a)"><path fill-opacity=".8" d="M0 0h250v250H0z"/></g></mask><clipPath id="d"><path d="M0 0h250v250H0z"/></clipPath><mask id="g"><g filter="url(#a)"><path fill-opacity=".7" d="M0 0h250v250H0z"/></g></mask><clipPath id="f"><path d="M0 0h250v250H0z"/></clipPath><mask id="i"><g filter="url(#a)"><path fill-opacity=".6" d="M0 0h250v250H0z"/></g></mask><clipPath id="h"><path d="M0 0h250v250H0z"/></clipPath><mask id="k"><g filter="url(#a)"><path fill-opacity=".5" d="M0 0h250v250H0z"/></g></mask><clipPath id="j"><path d="M0 0h250v250H0z"/></clipPath><mask id="m"><g filter="url(#a)"><path fill-opacity=".4" d="M0 0h250v250H0z"/></g></mask><clipPath id="l"><path d="M0 0h250v250H0z"/></clipPath><mask id="o"><g filter="url(#a)"><path fill-opacity=".9" d="M0 0h250v250H0z"/></g></mask><clipPath id="n"><path d="M0 0h250v250H0z"/></clipPath><mask id="q"><g filter="url(#a)"><path fill-opacity=".8" d="M0 0h250v250H0z"/></g></mask><clipPath id="p"><path d="M0 0h250v250H0z"/></clipPath><mask id="s"><g filter="url(#a)"><path fill-opacity=".7" d="M0 0h250v250H0z"/></g></mask><clipPath id="r"><path d="M0 0h250v250H0z"/></clipPath><mask id="u"><g filter="url(#a)"><path fill-opacity=".6" d="M0 0h250v250H0z"/></g></mask><clipPath id="t"><path d="M0 0h250v250H0z"/></clipPath><mask id="w"><g filter="url(#a)"><path fill-opacity=".5" d="M0 0h250v250H0z"/></g></mask><clipPath id="v"><path d="M0 0h250v250H0z"/></clipPath><mask id="y"><g filter="url(#a)"><path fill-opacity=".9" d="M0 0h250v250H0z"/></g></mask><clipPath id="x"><path d="M0 0h250v250H0z"/></clipPath><mask id="A"><g filter="url(#a)"><path fill-opacity=".8" d="M0 0h250v250H0z"/></g></mask><clipPath id="z"><path d="M0 0h250v250H0z"/></clipPath><mask id="C"><g filter="url(#a)"><path fill-opacity=".7" d="M0 0h250v250H0z"/></g></mask><clipPath id="B"><path d="M0 0h250v250H0z"/></clipPath><mask id="E"><g filter="url(#a)"><path fill-opacity=".6" d="M0 0h250v250H0z"/></g></mask><clipPath id="D"><path d="M0 0h250v250H0z"/></clipPath><mask id="G"><g filter="url(#a)"><path fill-opacity=".5" d="M0 0h250v250H0z"/></g></mask><clipPath id="F"><path d="M0 0h250v250H0z"/></clipPath><mask id="I"><g filter="url(#a)"><path fill-opacity=".4" d="M0 0h250v250H0z"/></g></mask><clipPath id="H"><path d="M0 0h250v250H0z"/></clipPath><mask id="K"><g filter="url(#a)"><path fill-opacity=".9" d="M0 0h250v250H0z"/></g></mask><clipPath id="J"><path d="M0 0h250v250H0z"/></clipPath><mask id="M"><g filter="url(#a)"><path fill-opacity=".8" d="M0 0h250v250H0z"/></g></mask><clipPath id="L"><path d="M0 0h250v250H0z"/></clipPath><mask id="O"><g filter="url(#a)"><path fill-opacity=".7" d="M0 0h250v250H0z"/></g></mask><clipPath id="N"><path d="M0 0h250v250H0z"/></clipPath><mask id="Q"><g filter="url(#a)"><path fill-opacity=".6" d="M0 0h250v250H0z"/></g></mask><clipPath id="P"><path d="M0 0h250v250H0z"/></clipPath><mask id="S"><g filter="url(#a)"><path fill-opacity=".5" d="M0 0h250v250H0z"/></g></mask><clipPath id="R"><path d="M0 0h250v250H0z"/></clipPath><mask id="U"><g filter="url(#a)"><path fill-opacity=".4" d="M0 0h250v250H0z"/></g></mask><clipPath id="T"><path d="M0 0h250v250H0z"/></clipPath><mask id="W"><g filter="url(#a)"><path fill-opacity=".9" d="M0 0h250v250H0z"/></g></mask><clipPath id="V"><path d="M0 0h250v250H0z"/></clipPath><mask id="Y"><g filter="url(#a)"><path fill-opacity=".8" d="M0 0h250v250H0z"/></g></mask><clipPath id="X"><path d="M0 0h250v250H0z"/></clipPath><mask id="aa"><g filter="url(#a)"><path fill-opacity=".7" d="M0 0h250v250H0z"/></g></mask><clipPath id="Z"><path d="M0 0h250v250H0z"/></clipPath><mask id="ac"><g filter="url(#a)"><path fill-opacity=".6" d="M0 0h250v250H0z"/></g></mask><clipPath id="ab"><path d="M0 0h250v250H0z"/></clipPath><mask id="ae"><g filter="url(#a)"><path fill-opacity=".5" d="M0 0h250v250H0z"/></g></mask><clipPath id="ad"><path d="M0 0h250v250H0z"/></clipPath><mask id="ag"><g filter="url(#a)"><path fill-opacity=".4" d="M0 0h250v250H0z"/></g></mask><clipPath id="af"><path d="M0 0h250v250H0z"/></clipPath><path fill="#4178b7" d="M155.074 152.176a8.697 8.697 0 1 1-17.395-.004 8.697 8.697 0 0 1 17.395.004zm0 0"/><g clip-path="url(#b)" mask="url(#c)"><path fill="#4178b7" d="M168.84 169.566c0 4.403-3.567 7.97-7.969 7.97a7.97 7.97 0 1 1 0-15.942 7.97 7.97 0 0 1 7.969 7.972zm0 0"/></g><g clip-path="url(#d)" mask="url(#e)"><path fill="#4178b7" d="M180.434 186.23a7.244 7.244 0 0 1-7.246 7.247 7.246 7.246 0 1 1 7.246-7.247zm0 0"/></g><g clip-path="url(#f)" mask="url(#g)"><path fill="#4178b7" d="M188.406 202.535a5.797 5.797 0 1 1-11.594 0 5.797 5.797 0 0 1 11.594 0zm0 0"/></g><g clip-path="url(#h)" mask="url(#i)"><path fill="#4178b7" d="M194.926 218.117c0 2.602-2.106 4.707-4.707 4.707a4.708 4.708 0 1 1 0-9.418 4.708 4.708 0 0 1 4.707 4.711zm0 0"/></g><g clip-path="url(#j)" mask="url(#k)"><path fill="#4178b7" d="M199.637 233.695a4.346 4.346 0 0 1-4.348 4.348 4.346 4.346 0 0 1-4.348-4.348 4.346 4.346 0 0 1 4.348-4.347 4.346 4.346 0 0 1 4.348 4.347zm0 0"/></g><g clip-path="url(#l)" mask="url(#m)"><path fill="#4178b7" d="M201.45 248.188a3.263 3.263 0 1 1-6.526-.002 3.263 3.263 0 0 1 6.525.001zm0 0"/></g><path fill="#4178b7" d="M157.246 122.824c0 4.805-3.894 8.7-8.695 8.7s-8.696-3.895-8.696-8.7c0-4.8 3.895-8.695 8.696-8.695s8.695 3.894 8.695 8.695zm0 0"/><g clip-path="url(#n)" mask="url(#o)"><path fill="#4178b7" d="M177.535 114.492a7.97 7.97 0 1 1-15.941 0c0-4.402 3.57-7.969 7.972-7.969s7.97 3.567 7.97 7.97zm0 0"/></g><g clip-path="url(#p)" mask="url(#q)"><path fill="#4178b7" d="M196.375 107.61a7.246 7.246 0 1 1-7.246-7.247 7.244 7.244 0 0 1 7.246 7.246zm0 0"/></g><g clip-path="url(#r)" mask="url(#s)"><path fill="#4178b7" d="M213.043 103.625a5.797 5.797 0 0 1-11.594 0c0-3.203 2.594-5.8 5.797-5.8s5.797 2.597 5.797 5.8zm0 0"/></g><g clip-path="url(#t)" mask="url(#u)"><path fill="#4178b7" d="M229.348 101.45a4.711 4.711 0 1 1-9.423-.001 4.711 4.711 0 0 1 9.423 0zm0 0"/></g><g clip-path="url(#v)" mask="url(#w)"><path fill="#4178b7" d="M245.29 101.45c0 2.402-1.946 4.347-4.349 4.347s-4.347-1.945-4.347-4.348c0-2.402 1.945-4.347 4.347-4.347s4.348 1.945 4.348 4.347zm0 0"/></g><path fill="#4178b7" d="M129.71 111.594a8.695 8.695 0 0 1-8.694 8.695 8.692 8.692 0 0 1-8.696-8.695c0-4.801 3.89-8.696 8.696-8.696 4.8 0 8.695 3.895 8.695 8.696zm0 0"/><g clip-path="url(#x)" mask="url(#y)"><path fill="#4178b7" d="M127.535 88.77c0 4.402-3.566 7.968-7.969 7.968a7.97 7.97 0 1 1 0-15.941 7.97 7.97 0 0 1 7.97 7.973zm0 0"/></g><g clip-path="url(#z)" mask="url(#A)"><path fill="#4178b7" d="M126.45 68.117a7.246 7.246 0 1 1-14.492 0 7.244 7.244 0 0 1 7.245-7.246c4 0 7.246 3.242 7.246 7.246zm0 0"/></g><g clip-path="url(#B)" mask="url(#C)"><path fill="#4178b7" d="M126.813 49.637a5.797 5.797 0 1 1-11.595-.001 5.797 5.797 0 0 1 11.594 0zm0 0"/></g><g clip-path="url(#D)" mask="url(#E)"><path fill="#4178b7" d="M128.984 32.61c0 2.6-2.109 4.71-4.71 4.71a4.711 4.711 0 0 1 0-9.422c2.601 0 4.71 2.11 4.71 4.711zm0 0"/></g><g clip-path="url(#F)" mask="url(#G)"><path fill="#4178b7" d="M133.332 17.027a4.349 4.349 0 1 1-4.348-4.348 4.349 4.349 0 0 1 4.348 4.348zm0 0"/></g><g clip-path="url(#H)" mask="url(#I)"><path fill="#4178b7" d="M138.406 3.262a3.263 3.263 0 1 1-6.525-.002 3.263 3.263 0 0 1 6.525.002zm0 0"/></g><path fill="#4178b7" d="M110.508 134.422a8.695 8.695 0 1 1-17.39 0 8.692 8.692 0 0 1 8.695-8.695c4.8 0 8.695 3.89 8.695 8.695zm0 0"/><g clip-path="url(#J)" mask="url(#K)"><path fill="#4178b7" d="M87.68 128.625a7.967 7.967 0 0 1-7.97 7.969 7.97 7.97 0 1 1 0-15.942 7.97 7.97 0 0 1 7.97 7.973zm0 0"/></g><g clip-path="url(#L)" mask="url(#M)"><path fill="#4178b7" d="M67.39 122.465a7.246 7.246 0 1 1-7.245-7.246 7.244 7.244 0 0 1 7.246 7.246zm0 0"/></g><g clip-path="url(#N)" mask="url(#O)"><path fill="#4178b7" d="M48.914 114.855a5.797 5.797 0 1 1-11.595 0 5.797 5.797 0 0 1 11.595 0zm0 0"/></g><g clip-path="url(#P)" mask="url(#Q)"><path fill="#4178b7" d="M32.246 106.523a4.708 4.708 0 0 1-4.71 4.707 4.708 4.708 0 1 1 0-9.418c2.6 0 4.71 2.11 4.71 4.711zm0 0"/></g><g clip-path="url(#R)" mask="url(#S)"><path fill="#4178b7" d="M18.84 97.102a4.346 4.346 0 0 1-4.348 4.347 4.346 4.346 0 0 1-4.347-4.347 4.346 4.346 0 0 1 4.347-4.348 4.346 4.346 0 0 1 4.348 4.348zm0 0"/></g><g clip-path="url(#T)" mask="url(#U)"><path fill="#4178b7" d="M6.523 87.32c0 1.801-1.46 3.258-3.261 3.258a3.259 3.259 0 1 1 0-6.52c1.8 0 3.261 1.462 3.261 3.262zm0 0"/></g><path fill="#4178b7" d="M126.086 159.422c0 4.8-3.89 8.695-8.695 8.695a8.697 8.697 0 0 1-8.696-8.695 8.695 8.695 0 0 1 8.696-8.695 8.692 8.692 0 0 1 8.695 8.695zm0 0"/><g clip-path="url(#V)" mask="url(#W)"><path fill="#4178b7" d="M113.406 178.625c0 4.402-3.57 7.969-7.972 7.969s-7.97-3.567-7.97-7.969a7.97 7.97 0 1 1 15.942 0zm0 0"/></g><g clip-path="url(#X)" mask="url(#Y)"><path fill="#4178b7" d="M100.727 195.652a7.249 7.249 0 0 1-14.496 0 7.246 7.246 0 0 1 7.246-7.246 7.247 7.247 0 0 1 7.25 7.246zm0 0"/></g><g clip-path="url(#Z)" mask="url(#aa)"><path fill="#4178b7" d="M86.594 209.422a5.797 5.797 0 1 1-11.595-.001 5.797 5.797 0 0 1 11.595 0zm0 0"/></g><g clip-path="url(#ab)" mask="url(#ac)"><path fill="#4178b7" d="M73.188 221.375c0 2.602-2.11 4.71-4.711 4.71a4.708 4.708 0 0 1-4.707-4.71 4.707 4.707 0 0 1 4.707-4.707 4.71 4.71 0 0 1 4.71 4.707zm0 0"/></g><g clip-path="url(#ad)" mask="url(#ae)"><path fill="#4178b7" d="M59.781 231.16a4.349 4.349 0 1 1-8.693-.002 4.349 4.349 0 0 1 8.693.002zm0 0"/></g><g clip-path="url(#af)" mask="url(#ag)"><path fill="#4178b7" d="M45.652 238.406a3.263 3.263 0 1 1-6.525-.001 3.263 3.263 0 0 1 6.525.001zm0 0"/></g></svg>