<svg xmlns="http://www.w3.org/2000/svg" xmlns:xlink="http://www.w3.org/1999/xlink" width="250" height="250"><filter id="a" width="100%" height="100%" x="0%" y="0%"><feColorMatrix in="SourceGraphic" values="0 0 0 0 1 0 0 0 0 1 0 0 0 0 1 0 0 0 1 0"/></filter><mask id="e"><g filter="url(#a)"><path fill-opacity=".742" d="M0 0h250v250H0z"/></g></mask><linearGradient id="b"><stop offset="0" stop-color="#fbda61"/><stop offset="1" stop-color="#f76b1c"/></linearGradient><linearGradient xlink:href="#b" id="f" x1=".5" x2=".5" y1="0" y2="1" gradientTransform="matrix(-22.2554 254.3803 -217.03575 -18.98817 218.538 2.515)" gradientUnits="userSpaceOnUse"/><clipPath id="d"><path d="M0 0h250v250H0z"/></clipPath><mask id="h"><g filter="url(#a)"><path fill-opacity=".39" d="M0 0h250v250H0z"/></g></mask><clipPath id="g"><path d="M0 0h250v250H0z"/></clipPath><mask id="j"><g filter="url(#a)"><path fill-opacity=".826" d="M0 0h250v250H0z"/></g></mask><linearGradient id="c"><stop offset="0" stop-color="#f5515f"/><stop offset="1" stop-color="#9f031b"/></linearGradient><linearGradient xlink:href="#c" id="k" x1=".5" x2=".5" y1="0" y2="1" gradientTransform="matrix(37.6533 49.9676 -39.36418 29.66304 123.643 172.661)" gradientUnits="userSpaceOnUse"/><clipPath id="i"><path d="M0 0h250v250H0z"/></clipPath><mask id="m"><g filter="url(#a)"><path fill-opacity=".718" d="M0 0h250v250H0z"/></g></mask><clipPath id="l"><path d="M0 0h250v250H0z"/></clipPath><mask id="o"><g filter="url(#a)"><path fill-opacity=".826" d="M0 0h250v250H0z"/></g></mask><linearGradient xlink:href="#c" id="p" x1=".5" x2=".5" y1="0" y2="1" gradientTransform="matrix(49.73064 27.56614 -33.49772 60.43149 152.364 165.421)" gradientUnits="userSpaceOnUse"/><clipPath id="n"><path d="M0 0h250v250H0z"/></clipPath><mask id="r"><g filter="url(#a)"><path fill-opacity=".82" d="M0 0h250v250H0z"/></g></mask><clipPath id="q"><path d="M0 0h250v250H0z"/></clipPath><mask id="t"><g filter="url(#a)"><path fill-opacity=".826" d="M0 0h250v250H0z"/></g></mask><linearGradient xlink:href="#c" id="u" x1=".5" x2=".5" y1="0" y2="1" gradientTransform="matrix(45.39305 8.00402 -8.39633 47.61794 170.023 171.025)" gradientUnits="userSpaceOnUse"/><clipPath id="s"><path d="M0 0h250v250H0z"/></clipPath><mask id="w"><g filter="url(#a)"><path fill-opacity=".826" d="M0 0h250v250H0z"/></g></mask><linearGradient xlink:href="#c" id="x" x1=".5" x2=".5" y1="0" y2="1" gradientTransform="matrix(40.9084 -1.42855 1.10326 31.59317 184.375 170.474)" gradientUnits="userSpaceOnUse"/><clipPath id="v"><path d="M0 0h250v250H0z"/></clipPath><mask id="z"><g filter="url(#a)"><path fill-opacity=".826" d="M0 0h250v250H0z"/></g></mask><linearGradient xlink:href="#b" id="A" x1=".5" x2=".5" y1="0" y2="1" gradientTransform="matrix(5.9056 -67.50132 62.78594 5.49306 145.947 93.17)" gradientUnits="userSpaceOnUse"/><clipPath id="y"><path d="M0 0h250v250H0z"/></clipPath><mask id="C"><g filter="url(#a)"><path fill-opacity=".826" d="M0 0h250v250H0z"/></g></mask><linearGradient xlink:href="#b" id="D" x1=".5" x2=".5" y1="0" y2="1" gradientTransform="matrix(27.45955 -67.96478 82.83467 33.46738 137.382 97.192)" gradientUnits="userSpaceOnUse"/><clipPath id="B"><path d="M0 0h250v250H0z"/></clipPath><g clip-path="url(#d)" mask="url(#e)"><path fill="url(#f)" fill-rule="evenodd" d="M197.785 24.848C180.04 11.762 158.59 3.242 135.023 1.18 66.7-4.797 6.465 45.78.48 114.156c-4.835 55.305 27.305 105.309 75.926 125.567l29.582-71.282c-18.36-7.644-30.492-26.52-28.668-47.398 2.258-25.809 24.996-44.902 50.785-42.645a46.63 46.63 0 0 1 23.665 8.915zm0 0"/></g><g clip-path="url(#g)" mask="url(#h)"><path fill="#fbbd72" fill-rule="evenodd" d="M120.313 249.117a123.918 123.918 0 0 1-44.645-9.707l29.805-71.125a46.827 46.827 0 0 0 16.91 3.684zm0 0"/></g><g clip-path="url(#i)" mask="url(#j)"><path fill="url(#k)" fill-rule="evenodd" d="M125.89 249.29c-2.07.034-4.14.019-6.206-.052l2.23-73.593c.84.05 1.684.078 2.527.082zm0 0"/></g><g clip-path="url(#l)" mask="url(#m)"><path fill="#f6a623" fill-rule="evenodd" d="M170.633 240.063a123.777 123.777 0 0 1-44.73 9.285l-1.571-71.07a52.346 52.346 0 0 0 19.102-4.008zm0 0"/></g><g clip-path="url(#n)" mask="url(#o)"><path fill="url(#p)" fill-rule="evenodd" d="M175.797 237.95a122.093 122.093 0 0 1-5.688 2.48l-24.945-60.93c.91-.34 1.813-.703 2.707-1.09zm0 0"/></g><g clip-path="url(#q)" mask="url(#r)"><path fill="#ff7511" fill-rule="evenodd" d="M204.012 219.395a123.603 123.603 0 0 1-28.367 18.75L152.109 189.3a59.136 59.136 0 0 0 15.235-11.406zm0 0"/></g><g clip-path="url(#s)" mask="url(#t)"><path fill="url(#u)" fill-rule="evenodd" d="M208.207 215.719a125.346 125.346 0 0 1-4.574 4.195l-34.797-39.66a56.835 56.835 0 0 0 2.547-2.496zm0 0"/></g><path fill="#ff7511" fill-rule="evenodd" d="M221.992 200.082a123.051 123.051 0 0 1-14.304 16.094l-31.899-33.598a63.504 63.504 0 0 0 8.563-10.387zm0 0"/><g clip-path="url(#v)" mask="url(#w)"><path fill="url(#x)" fill-rule="evenodd" d="M225.332 195.617a124.722 124.722 0 0 1-3.602 5.059l-36.3-27.094a62.157 62.157 0 0 0 2.386-3.144zm0 0"/></g><g clip-path="url(#y)" mask="url(#z)"><path fill="url(#A)" fill-rule="evenodd" d="M204.594 30.684c1.562 1.359 3.09 2.757 4.578 4.191l-56.234 58.773a46.327 46.327 0 0 0-1.524-1.511zm0 0"/></g><g clip-path="url(#B)" mask="url(#C)"><path fill="url(#D)" fill-rule="evenodd" d="M227.867 55.965a122.728 122.728 0 0 1 3.153 5.344l-76.043 42.613c-.301-.54-.614-1.07-.938-1.594zm0 0"/></g></svg>