<svg xmlns="http://www.w3.org/2000/svg" width="250" height="250"><g fill="#ffc107"><path d="M24.82 123.82 0 112.45V45.57L99.375.02l24.645 11.37-99.2 45.551zm0 0"/><path d="m249.02 68.238-99.2-45.55-99.285 45.55v66.88l24.82-11.368V79.61l74.465-34.18v44.136l99.2 45.551zM65.355 229.64c2.235-3.39 3.305-7.202 3.305-11.44 0-4.165-1.16-7.907-3.39-11.298-2.235-3.39-5.36-6.004-9.29-7.91-3.925-1.906-8.39-2.824-13.39-2.824s-9.465.918-13.485 2.824c-3.925 1.906-7.05 4.52-9.375 7.91-2.23 3.391-3.39 7.133-3.39 11.297 0 4.309 1.16 8.196 3.39 11.512 2.235 3.32 5.36 5.934 9.375 7.84 3.93 1.906 8.485 2.824 13.485 2.824s9.465-.918 13.48-2.824c3.93-1.906 7.055-4.52 9.285-7.91zm9.825-27.613c3.125 4.805 4.73 10.313 4.73 16.528 0 6.144-1.515 11.582-4.64 16.312s-7.415 8.477-13.125 11.086c-5.625 2.613-12.055 3.957-19.375 3.957-6.61 0-12.325-1.129-17.325-3.32-5-2.188-8.925-5.367-11.785-9.461v12.355H0V162.06h13.66v37.5c2.86-4.098 6.785-7.207 11.695-9.465 4.915-2.192 10.625-3.32 17.145-3.32 7.23 0 13.75 1.343 19.375 4.027 5.715 2.683 10.18 6.426 13.305 11.226zM152.945 213.965c-.355-5.653-2.765-10.172-7.14-13.418-4.375-3.25-10.09-4.945-17.145-4.945-6.875 0-12.68 1.695-17.23 4.945-4.555 3.316-7.325 7.766-8.215 13.418zm2.68-18.645c6.16 5.72 9.285 13.63 9.285 23.797 0 1.555-.09 2.754-.18 3.531h-61.515c1.07 5.582 4.015 10.032 8.75 13.348 4.73 3.32 10.625 4.945 17.59 4.945 4.64 0 8.925-.636 12.855-1.976 3.93-1.344 7.41-3.25 10.36-5.653l7.5 6.286c-3.84 3.32-8.485 5.863-13.84 7.699-5.36 1.836-11.43 2.683-17.95 2.683-7.675 0-14.46-1.343-20.355-3.953-5.98-2.613-10.535-6.359-13.84-11.16-3.305-4.8-4.91-10.238-4.91-16.383s1.605-11.582 4.91-16.386c3.305-4.73 7.86-8.473 13.75-11.227 5.895-2.684 12.59-4.098 20.18-4.098 12.14 0 21.25 2.825 27.41 8.547zM238.035 213.965c-.355-5.653-2.765-10.172-7.14-13.418-4.375-3.25-10.09-4.945-17.145-4.945-6.875 0-12.68 1.695-17.23 4.945-4.555 3.316-7.325 7.766-8.215 13.418zm2.68-18.645c6.16 5.72 9.285 13.63 9.285 23.797 0 1.555-.09 2.754-.18 3.531h-61.515c1.07 5.582 4.015 10.032 8.75 13.348 4.73 3.32 10.625 4.945 17.59 4.945 4.64 0 8.925-.636 12.855-1.976 3.93-1.344 7.41-3.25 10.355-5.653l7.5 6.286c-3.835 3.32-8.48 5.863-13.835 7.699-5.36 1.836-11.43 2.683-17.95 2.683-7.675 0-14.465-1.343-20.355-3.953-5.985-2.613-10.535-6.359-13.84-11.16-3.305-4.8-4.91-10.238-4.91-16.383s1.605-11.582 4.91-16.386c3.305-4.73 7.855-8.473 13.75-11.227 5.895-2.684 12.59-4.098 20.18-4.098 12.14 0 21.25 2.825 27.41 8.547zm0 0"/></g></svg>