<svg width="256" height="256" xmlns="http://www.w3.org/2000/svg"><defs><linearGradient x1="100%" y1="50%" x2="0%" y2="50%" id="a"><stop stop-color="#DC6644" offset="0%"/><stop stop-color="#687EE8" offset="100%"/></linearGradient></defs><g fill="none" fill-rule="evenodd"><path fill="#000" d="M0 0h256v256H0z"/><path d="m135.426 61.981.454.075.456.153 17.113 7.326 14.208 6.109 16.011 6.827 12.127 5.202a3.042 3.042 0 0 1 1.198 4.756l-.369.376-22.132 18.949-24.033 20.396c-1.53 1.298-3.831.646-4.518-1.134l-.136-.469-2.919-14.27-.568.355a49.118 49.118 0 0 0-8.31 6.75l-1.485 1.568-1.426 1.64c-1.549 1.858-2.897 4.14-4.065 6.922a71.04 71.04 0 0 0-5.242 17.121 143.376 143.376 0 0 0-2.07 21.656c-.06 3.183-.107 6.37-.14 9.569a4.062 4.062 0 0 1-1.773 3.309l-.492.286-15.645 7.676c-.79.388-1.715.391-2.508.008a222.596 222.596 0 0 1-3.622-1.791l-3.876-2-4.131-2.206-4.388-2.416c-1.758-.982-2.718-2.679-2.539-4.67l.031-.364.346-19.09c.075-6.33.692-12.61 1.866-18.913 3.74-17.572 12.338-32.256 25.746-43.966 2.912-2.545 6.251-5.118 10.107-7.78a193.784 193.784 0 0 1 14.739-8.516l2.046-1.04-3.08-14.983c-.397-1.934 1.215-3.566 3.02-3.42Zm3.68 7.621 2.376 11.536c.297 1.404-.4 2.812-1.689 3.465a188.136 188.136 0 0 0-17.922 10.082c-3.597 2.486-6.766 4.928-9.508 7.324-12.477 10.898-20.436 24.49-23.906 40.79a104.105 104.105 0 0 0-1.756 17.866l-.046 4.08-.293 14.95-.02.278 1.787.99c3.453 1.901 6.658 3.602 9.615 5.104l2.664 1.324 13.466-6.608.049-3.8.08-4.803a149.07 149.07 0 0 1 2.152-22.516 76.543 76.543 0 0 1 5.631-18.42c1.35-3.216 2.985-5.985 4.913-8.297a55.111 55.111 0 0 1 16.631-13.52c1.38-.485 1.38-.485 2.76-.079l.748.54c.27.222.414.406.563.721l.34.852 2.699 13.216 20.337-17.258 18.888-16.172-8.25-3.536-16.014-6.828-14.212-6.11-12.082-5.17Zm-79.244-7.591c2.176-.922 4.38.673 4.24 2.92l-.066.493-3.86 18.45 2.212.51a56.48 56.48 0 0 1 13.19 5.142l2.064 1.176 2.025 1.268a82.633 82.633 0 0 1 12.336 9.892 3.023 3.023 0 0 1-.149 4.415l-.46.33-17.347 10.186-8.484 4.816a3.935 3.935 0 0 1-3.78.061 68.671 68.671 0 0 0-4.398-2.128l-2.271-.954-1.936-.737-3.806 17.395c-.45 2.059-2.86 2.885-4.473 1.703l-.385-.338-19.097-19.881-20.88-21.817L.74 90.73c-1.204-1.326-.882-3.37.555-4.3l.464-.244 38.154-15.877 14.615-6.051 5.334-2.247Zm-5.786 23.123 3.321-15.896-15.286 6.335L7.69 89.895l1.034 1.137L29.55 112.79l15.377 16.009 2.078-9.502 1.224-5.509a3.04 3.04 0 0 1 1.578-2.11 3.09 3.09 0 0 1 2.383-.202 76.822 76.822 0 0 1 9.912 3.963l1.465.736 7.615-4.316 14.205-8.342-1.777-1.538a76.665 76.665 0 0 0-3.07-2.428l-1.58-1.155-2.432-1.66c-6.02-3.942-12.608-6.51-19.78-7.711a3.276 3.276 0 0 1-2.172-1.383 3.263 3.263 0 0 1-.567-1.988l.067-.52ZM98.67 0c.844 0 1.653.345 2.234.954l.32.397 35.283 52.074c.55.782.701 1.79.38 2.711a2.966 2.966 0 0 1-2.078 1.898l-.521.092-1.567.096c-4.944-.13-9.927-.16-14.938-.093l-2.365.041.165 18.172.045 1.74.017 1.945.019.389c.071 1.507-.446 2.868-1.473 3.888l-.884.729-5.688 4.905-5.652 4.972c-1.158 1.006-2.876 1.028-4.031.074a200.987 200.987 0 0 0-13.582-10.003c-1.036-.704-1.69-1.746-1.86-2.941l-.045-.61-.235-23.066-19.823-.02c-2.198 0-3.543-1.987-2.95-3.878l.188-.47.252-.425 20.072-28.955L92.11 7.143l4.006-5.793A3.09 3.09 0 0 1 98.135.047L98.669 0Zm-.028 7.732-1.828 2.655-12.16 17.475-17.186 24.783 17.362.025c1.326 0 2.435.83 2.878 1.989l.147.516.058.548.242 24.947 3.033 2.092a208.351 208.351 0 0 1 4.697 3.41l2.295 1.74 1.628 1.282 4.06-3.56 6.073-5.215-.028-.657-.012-2.16-.033-1.128-.186-20.983c.002-1.615 1.288-2.898 2.896-2.96 4.102-.109 8.178-.153 12.168-.132l4.195.047-30.3-44.714Z" transform="translate(28.867 35.556)" fill="url(#a)" fill-rule="nonzero"/></g></svg>