<svg xmlns="http://www.w3.org/2000/svg" width="250" height="250"><clipPath id="a"><path d="M3 32h192v185H3zm0 0"/></clipPath><clipPath id="b"><path d="M125 246.281C57.812 246.281 3.719 192.187 3.719 125S57.812 3.719 125 3.719 246.281 57.812 246.281 125 192.187 246.281 125 246.281zm0 0"/></clipPath><path d="M246.25 125c0 66.965-54.285 121.25-121.25 121.25S3.75 191.965 3.75 125 58.035 3.75 125 3.75 246.25 58.035 246.25 125zm0 0"/><path d="M125 246.281C57.812 246.281 3.719 192.187 3.719 125S57.812 3.719 125 3.719 246.281 57.812 246.281 125 192.187 246.281 125 246.281zm0 0"/><g clip-path="url(#a)"><g clip-path="url(#b)"><path fill="#fff" d="m194.844 125.375-1.75-.156 1.719-.344-2.344-11.656-1.719.344 1.563-.782-5.594-11.187-1.563.781 1.375-1.063-8.406-10.718-1.375 1.062 1.188-1.281-11.188-10.25-1.188 1.281.97-1.437-14.47-9.813-.968 1.438.812-1.531-16.781-8.876-.813 1.532.657-1.625-18.656-7.469-.657 1.625.5-1.688L96.094 47.5l-.5 1.688.5-1.688-21-6.063-.5 1.688.281-1.719-22.375-3.75-.281 1.719.218-1.75L30.5 34.812l-.219 1.75.094-1.75-22.344-1.374-.094 1.75.032-1.75-21.938-.47-.031 1.75-.094-1.75-19.593.938.093 1.75-.156-1.75-19.594 1.875.157 1.75-.282-1.718-17.25 2.812.281 1.719-.468-1.688-15.406 4.188.468 1.687-.594-1.656-13.062 4.656.594 1.657-.75-1.594-10.719 5.125.75 1.593-1.031-1.406-8.406 6.063 1.03 1.406-1.28-1.188-5.594 6.063 1.281 1.188-1.656-.563L-129 77.063l1.656.562-1.75-.219-2.562 21.219-.188.063.094.28-7.063 30.157-5.218 13.625h-.031v.063l-6.407 16.718 1.625.625-1.75-.094-.469 7.938 1.75.094-1.656.562 2.344 7 1.656-.562-1.406 1.031 5.125 7 1.406-1.031-1.156 1.312 7.469 6.531 1.156-1.312-.875 1.531 10.719 6.063.875-1.531-.625 1.625 13.062 5.125.625-1.625-.562 1.656 14.937 5.125.563-1.656-.406 1.718 17.718 4.188.406-1.719-.28 1.719 19.593 3.281.281-1.719-.156 1.75 21 1.875.156-1.75-.062 1.75 22.468.906v.032H7.907v-1.75l.094 1.75 23.781-1.406-.093-1.75.218 1.75 23.313-2.813L55 211l.313 1.719 22.843-4.188-.312-1.719.437 1.688 21.469-5.594-.438-1.687.532 1.687 21-6.531-.531-1.688.624 1.625 18.188-7-.625-1.625.813 1.563 16.78-8.875-.812-1.563 1 1.438 13.531-9.344-1-1.437 1.22 1.25L181.218 160 180 158.75l1.438 1 7.468-10.719-1.437-1 1.625.688 4.656-11.188-1.625-.687 1.75.156zm-312.25-24.063 4.531 3.376-5.906 9.718-3.375-3.656zm162.844 32-5.032.47.157 1.75-.22-1.75-6.906.905H8.907l-9.688-.937-.156 1.75.062-1.75-11.125-.469-10.656-1.406-11.532-1.844-11.624-2.312-12.063-3.25-.438 1.687.407-1.687L-69 121.688l-.531-.188.781-.156 12.5-2.313 12.969-.937-.125-1.75.125 1.75 12.593-.938 12.47-.469h11.187l11.125.47 9.718.468 8.813.938L31 119.5l6.438.906 6.437 1.375 5.031 1.375 4.157 1.375.562-1.656-.438 1.688 3.407.843 1.468 1.094 1.22 1.219.656 1-.22.406-1 .656.594.875-.593-.875-1.125.75-3.438.875-3.687.938zm3.812-13.687-.688-.188 13.563-8.656 2.906 1.094zm-5.281-1.375-2.25-.5 11.5-9.375 4.406 1.156zm-6.719-1.375-2.438-.344L44.5 106.22l4.469 1.125zm-6.688-.938-4.593-.5 7.843-11.156 6.626 1.156zM22 115l-5.344-.563 5.782-11.562 7.437.906zm-9.094-.906-6.344-.313 4.094-12.312 8.125.937zm-9.969-.469-7.843-.313 2.312-12.406 9.656.344zm-11.406-.406h-7.906l.656-12.375h9.563zm-11.406.062-9.25.344-.438-12.344 10.313-.344zm-12.75.531-9.25.688-1.5-11.969 10.313-1.031zm-12.75.938-9.656.688-2.094-11.532 10.281-1.031zm-13.125 1.156-9.219 1.719-2.562-11.5 9.687-1.719zm-12.656 2.344-4.875.906-4.563-1.656-1.031-.406-1.906-8.313 9.781-2.031zm-14.406-2.656-5.626-2.219-2.624-1.375 6.906-2.313zm-5.75 1.5 7.312 2.875-8.469 11.062-6.875-3.125zm10.718 4.156 8.219 2.969-8.5 11.219-8.219-3.094zm11.75 4.094 7.594 1.906-8.313 11.719-7.78-2.406zm11.219 2.844L-49 130.5l-8.063 12.313-8.968-2.75zm12.219 3.187L-37.25 133l-6.875 12.25-9.281-1.656zm11.781 2.313 8.188 1.312-5.625 12.531-9.407-1.625zm11.813 1.843 7.375.969-3.97 12.469-9-.969zm10.937 1.313 7.875.312-2.25 12.813-9.563-.688zm11.375.531 6.594.625-.157 12.063H-1.75zm10.063.813h6.124l2.063 11.906h-8.313zm9.687 0h4.656l4.469 11.53-7.063.282zm8.406 0h3.938l6.75 10.718-6.313.563zm7.844-.375 3.375-.438 8.969 10.031-5.657 1.031zm7.688-.875.968-.094 11.188 8.969-3.5.812zm5.593-.875.688-.125 13.312 8.156-3.125.687zm9.594 1.187 10.688 4.844-1.532.75zm29.688-11.563-.063-.156 22.531-2.25.531 1.938zm-10.657-5.718 1.625-.438.125.125zm-7.625-1.563 5.063-1.875.531.375zm-14.219 1.531 12.907-6.343 1.937.844zm12.782-10.156-3.531-1.312 14.53-9.25 5.626 2.406zM61.625 107l-5.063-1.344 12.594-10.25 7 2.344zm-9.281-2.438-5.125-1.28L57.594 92.25l7.437 2zm-9.063-2.187L36 101.125l8.219-11.688 9.406 1.938zM32.188 100.5l-8.063-.969 6.25-12.469 10.094 1.688zm-11.782-1.406-8.656-1 4.125-12.5 10.75 1zM8.188 97.78l-10.126-.375L.376 85.031l11.938.375zM-5.5 97.375h-10.031l.656-12.781 11.688.344zm-13.563.031-10.625.344-.437-12.406 11.719-.719zM-33.188 98l-10.624 1.063-1.594-12.782 11.781-.719zm-14.093 1.406-10.469 1.063-2.188-12.031 11.094-1.72zm-13.938 1.531-9.843 1.75-2.657-11.937 10.344-1.781zm-13.281 2.438-9.813 2.031-2.624-11.562 9.78-2.375zm-13.188 2.906-8.5 2.844-2.406-11.25 8.281-3zm-12.124 2.594-1.032-.531-8.156-5.156-.125-.688 7.219-3.281zM-110 106.656l5.813 3.688-7.25 10.469-4.782-3.876zm-8.031 13.281 4.594 3.75-6.657 9.626-3.75-3.75zm16.875-7.843 6.625 3.469-7.969 10.718-6.063-3.5zm-.313 18.656 6.844 3.094-8.438 11.031-6.156-3.688zm10.156 4.531 8.22 3.094-8.688 11.438-8.094-3.375zm11.72 4.25 7.906 2.438-8.438 11.906-8.188-2.844zm11.437 3.531 9.125 2.813-7.782 11.906-9.78-2.781zm12.687 3.72 9.563 1.718-6.782 12.094-10.468-2.031zm13.188 2.343 9.75 1.688L-38 162.938l-11.063-1.72zm13.343 2.219 9.438 1-3.938 12.469-10.937-1.375zm13 1.375 10.063.719-2.188 12.406-11.812-.719zm13.594.844h9.219l-.156 12.78L-4.563 166zm12.719 0h9l2.094 12-11.25.718zm12.563-.094 7.78-.313 4.47 11.531-10.188.657zm11.406-.594 7.093-.656L48.22 163l-9.438 1.344zm10.843-1.25 6.407-1.156 9.343 10.437L52 162.437zm10.313-2.031 4.313-1 11.843 9.469-6.75 2.062zm8.688-2 3.906-.875L81.625 155l-5.938 1.813zm7.874-2.563 2.094-1.062 16.344 7.406-4.531 2.156zm-3.937-7.625 6.969 2.344-.938.375zm21.313-8.219 23.093-.5v1.907l-23.094-1.313zm26.25-4.062-.594-2.219 22.875-2.281.5 4.031zm-28.344-2.938-.188-.25L108.812 118l1.126 1.906zm-2.719-3.343-.5-.406 20.094-5.407 1.937 1.938zm-3.844-3.125-.937-.656 18.406-6.844 2.625 2.062zm-4.594-3.063-2.562-1.094 16.469-8.093 4.344 2.406zm13.938-13.062-6.188-2.656 14.626-9.313 7.906 3.969zm-10.188-4.281-7.593-2.532L84.719 82.72l9.719 3.344zM68.376 91.53l-8.063-2.156 10.376-11.031L80.75 81.5zm-11.938-3.156-10-2.063 8.032-11.437 12.281 2.531zm-13.75-2.813L32 83.782l6.031-12.063 12.688 2.406zM28.345 83.25 17.03 82.187l4.125-12.406 13.219 1.438zm-14.907-1.313L1 81.564 3.406 68.75l14.156.75zm-15.968-.5-12.156-.374.656-12.813 13.906.375zm-15.656-.28-12.032.718-.437-12.844 13.156-.719zm-15.532.937-12.093.719-1.563-12.438 13.188-1.094zm-15.562 1.125-11.282 1.75-2.25-12.406 11.97-1.813zm-14.75 2.312L-74.5 87.344l-2.625-11.688 10.844-2.437zm-13.875 2.531-9.813 2.376-2.437-10.72 9.687-3.124zm-13.188 3.344-8.25 2.969-2.25-10.5 8.063-3.031zm-11.531 4.281-7.094 3.22-1.781-10.438 6.656-3.156zm-10.406 4.532-3.75-2.813-2.375-3.344 4.5-3.437zm-9.219-4.438 2.156 3.031-4.437 8.876-1.344-2.47zm-1.594 18.344 3.156 3.406-5.562 9.156-2.344-3.062zm-6.469 13 2.157 2.781-5.469 9-1.156-2.875zm4.594 5.5 3.594 3.594-6.844 9.875-2.875-3.406zm15.156-6.969 5.938 3.438-7.563 10.156-5.25-3.719zm-.75 18.344 6.126 3.656-8.157 10.656-5.844-3.687zm9.25 5.313 8.094 3.375-8.656 11.406-7.688-4zm11.5 4.687 8.313 2.875-8.156 11.5-8.813-2.938zm11.813 4 9.906 2.844-7.75 11.844-10.312-3.188zm13.5 3.719 10.75 2.094-7.063 12.593-11.468-2.781zm14.375 2.75 11.406 1.781-5.687 12.625-12.75-1.813zm15 2.312 11.344 1.406-3.969 12.5-13-1.406zm14.906 1.781 12.313.75-2.188 12.407-14.062-.75zm15.813.907 11.843.375-.125 11.937H-7.28zm15.343.312 11.907-.75 2.156 12.344-14.188.375zm15.407-.969 10.906-.718 4.5 11.594-13.25 1.437zm14.5-1.093 10.156-1.438 6.813 10.813-12.532 2.156zM54 165.656 63.656 164l9 10.063-11.875 2.375zm13.469-2.687 7.5-2.281 11.875 9.5-10.25 2.968zm11.562-3.531 6.594-2 13.813 8.437-8.563 3.063zm10.5-3.72 5.156-2.437 16.22 7.344-7.313 3.656zM78.5 142.095l1.594-.656L98 147.468l-3.406 1.907zm5.156-3.156.375-.282 19.844 4.531-2.063 1.875zm3.531-3.157 20.97 2.938-1.25 1.562zm4.657-2.875 19.469 1.125-.813 1.5zm24.187-4.281 22.5-.469-.25 3.906-22.25-1.28zm25.938-4.063-.531-4.28 22.25-2.22 1.218 6.032zm-28.219-5.03-1.281-2.188 21.406-3.875 2.531 3.812zm-3.406-5.344-2.219-2.22 20.25-5.468 3.063 3.844zm-5.219-5.032-3-2.375 18.594-6.906 4.594 3.813zm-6.375-4.844-4.844-2.687 16.406-8.063 6.72 3.97zm11.656-14.687L102 85.406l14.406-9.187 10.719 5.187zM98.22 83.656l-10.281-3.562 12.624-10.281 11.907 4.75zM84 78.812 73.344 75.5l10.031-10.688 13.156 3.813zm-14.438-4.437-12.906-2.656L64.906 60l14.625 3.75zm-16.656-3.406-13.281-2.5 6.094-12.188 15.437 2.938zm-16.875-3.094-13.75-1.5 4.125-12.469 15.688 1.875zm-17.343-1.813-14.625-.78L6.438 52.5l16.25 1.469zM.53 65.126l-14.375-.375.656-12.406H2.907zm-17.875-.344-13.468.75-.438-12.344 14.563-.75zm-16.968 1-13.5 1.125-1.532-12.375 14.594-1.125zm-16.97 1.5-12.187 1.844-2.25-12.406 12.906-1.844zm-15.593 2.5-10.969 2.469-2.687-11.969 11.406-2.843zm-14.375 3.375-9.688 3.125-2.624-11.5 9.687-3.469zm-13.031 4.25-8.031 3-2.376-11.125 7.813-3.25zm-11.313 4.406-6.531 3.094-1.719-10.125 5.938-3.75zm-9.75 4.938-4.562 3.5-.781-9.313 3.75-3.5zm-8.281.969-1.25-1.813 1-1.219zm-2.469 2.562 1.438 2.063-3 7.812-.438-1.312zM-127.5 109.5l1.063 2-3.813 7.656-.438-1.375zm-5.031 14.188-1.813 3.656 1.625-4.281zm-3.375 18.968-4.813 7.938-.25-2.188 4.094-8.187zm2.156 3.188 2.719 3.219-7 10.093-1.844-3.219zm14.344-7.375 5.156 3.656-7.781 10.469-4.469-3.875zm-1.906 19 5.812 3.687-8.563 11.188-5.562-3.688zm8.874 5.437 7.72 4.031-8.72 11.5-7.593-4.28zm10.97 5.469 8.937 2.969-8.688 12.281-9.031-3.688zm12.437 4.125 10.437 3.25-8.031 12.313-11.125-3.22zm13.969 4.219 11.718 2.844-6.875 12.28-12.812-2.937zm15.312 3.594 13.094 1.875-5.625 12.5-14.313-2.188zm16.75 2.343 13.438 1.438L-33.657 197l-14.969-1.813zm17 1.75 14.563.781-2.188 12.438-16.438-.375zm18.094.875H6.53l-.156 12.375h-16.438zM10 185.25l14.844-.375 2.093 11.938-17.062.78zm18.375-.656 13.938-1.5 4.468 11.562-16.343 1.906zm17.469-2.031 13.25-2.282 7.093 11.281-15.843 2.594zm16.937-2.97 12.594-2.53 9.063 10.156-14.563 3.625zm16.375-3.53 11.031-3.188L101.594 182l-13.375 4.219zm14.938-4.563 9.187-3.281 13.75 8.406-11.469 4.031zm13-5.031L115 162.5l16.063 7.281-9.907 5.281zm-8.563-15.281 3.938-2.22 18.031 6.095-5.656 3.5zm7.063-4.844 2.406-2.219 20.188 4.625-4.094 3.844zm5.094-5.188 1.5-1.875 21.75 3.063-2.75 3.5zm3.5-5.125.968-1.812 22.188 1.281-1.344 3.594zm27.843-7.969 23.125-.5-.312 6-23.063-1.312zM168.437 124l-1.25-6.313 22.188-2.218L191 123.53zm-28.093-7.125-2.719-4.094 21.781-3.937 2.906 5.844zm-4.969-7.25-3.313-4.125 20.563-5.531 4.5 5.719zm-5.969-7.031L124.47 98.5l18.969-7.031 6.25 5.656zm-8.156-6.656-7.188-4.25 16.907-8.313L139.906 89zm9.844-16.47-11.25-5.437 14.562-9.281 12.844 6.781zm-15.031-7.187-12.438-4.969 12.344-10.062 14.531 5.813zm-16.25-6.375-13.75-3.969 10.093-10.75 15.875 4.782zM82.28 60.844l-15.219-3.907 8.282-11.78 17.062 4.937zm-18.906-4.75L47.344 53.03l5.843-11.718 18.376 3.062zM43.75 52.437 27.531 50.5l3.969-12 18.063 2.313zm-19.938-1.843L7.095 49.062l2.25-12.03 18.593 1.156zm-20.25-1.75H-13l.656-12.313 18.157.375zm-20.062.062-14.844.75-.437-12.343 15.937-.75zm-18.375 1-14.906 1.157-1.469-11.938 15.938-1.531zm-18.375 1.532-13.094 1.874-2.094-11.53 13.72-2.22zm-16.5 2.53-11.563 2.876-2.468-11.094 11.937-3.25zm-14.906 3.907-9.688 3.469-2.5-11.032 9.75-3.468zm-13 4.719-7.75 3.218-2.25-10.53 7.5-3.594zm-11 4.781-5.813 3.656-1.687-9.875 5.344-3.843zm-8.969 5.938-3.438 3.187-.78-9.406 2.656-2.875zm-6.656 6.406-1.125 1.375-.188-3.188.938-2.812zm-19.531 74.406.156 1.375-3.469 5.75.031-.531zm1.875 5.25 1.718 2.969-6.187 8.906-.969-2.906zm13.437-7.813 4.375 3.813-8.125 10.938-3.719-4zm-3.188 19.875 5.5 3.688-8.437 11.031-4.844-4.25zm8.5 5.5 7.594 4.282-8.5 11.219-7.656-4.313zm10.75 5.907 9.126 3.719-7.938 11.187-9.625-3.781zm12.532 4.969 11.25 3.28-7.719 11.813-11.438-3.937zm14.812 4.25 13.094 3-6.813 12.156-14-3.313zm16.719 3.687 14.656 2.25-5.625 12.5-15.812-2.625zm18.219 2.75 15.406 1.875-3.844 12.094-17.156-1.531zm18.968 2.219 16.938.406-2.156 12.313-18.563-.75zm20.5.437H6.345l-.157 12.375h-19.062zm20.5-.062 17.72-.813 2.093 11.938-19.938 1.187zm21.25-1.125L48.094 198l4.5 11.594-19.438 2.344zm20.563-2.5 16.563-2.688L75 205.625l-18.906 3.469zm20.219-3.5 15.25-3.813 9.062 10.125-17.437 4.563zm18.937-4.906 14.094-4.438 11.781 9.438-16.781 5.218zm18-5.782 12.094-4.25 13.719 8.375-13.938 5.375zm15.875-6.094 10.438-5.562 16.25 7.375-12.75 6.719zm-6-16.875 6.125-3.812 17.844 6.031-7.719 5.156zm9.219-6.437 4.438-4.156 19.843 4.531-6.094 5.781zm7.063-7.156 3-3.813 21.343 3-4.219 5.406zm4.625-7.125 1.468-3.875 22.75 1.312-2.406 5.625zm29.093-12.094 22.563-.469-.625 8.031-22.219-1.28zm19.406-15.406-22.03 2.219-3.063-6.126 21.219-3.843zm-6.03-10.938-20.97 3.813-4.75-6 19.813-5.344zm-8.782-10.375-19.531 5.281-6.594-5.968 18.063-6.688zm-11.469-9.844L144.062 87.5l-9.375-5.906 16.282-8zm-306.594 94.188 6.844-9.875 3.625 3.906-7.469 10.063zm299.97 1.75-16.5-7.469 8.155-5.437L165 170.094zm13.25-9.313-18.563-6.28 6.437-6.095 20.219 4.625zm10.874-10.718-20.469-4.688 4.438-5.719 21.188 2.97zm7.125-10.656-21.469-3 2.532-5.938 22.125 1.25zm0 0"/></g></g></svg>