<svg xmlns="http://www.w3.org/2000/svg" xmlns:xlink="http://www.w3.org/1999/xlink" width="250" height="250"><linearGradient id="c" x1="67.099" x2="191.787" y1="45.06" y2="217.282" gradientUnits="userSpaceOnUse"><stop offset="0" stop-color="#fffeff"/><stop offset=".344" stop-color="#969993"/><stop offset=".681" stop-color="#dbe3d3"/><stop offset="1" stop-color="#8c8978"/></linearGradient><linearGradient id="d" x1="97.525" x2="152.458" y1="32.688" y2="216.952" gradientUnits="userSpaceOnUse"><stop offset="0" stop-color="#cad1ca"/><stop offset=".344" stop-color="#7d7d7d"/><stop offset=".681" stop-color="#a1a1a1"/><stop offset="1" stop-color="#8c8978"/></linearGradient><linearGradient id="e" x1="125.351" x2="125.351" y1="27.993" y2="220.571" gradientUnits="userSpaceOnUse"><stop offset="0" stop-color="#f6fff6"/><stop offset=".344" stop-color="#c9c9c9"/><stop offset=".681" stop-color="#a1a1a1"/><stop offset="1" stop-color="#fff"/></linearGradient><linearGradient id="a"><stop offset="0" stop-color="#fffe4e"/><stop offset=".418" stop-color="#ffd73c"/><stop offset=".443" stop-color="#de9f2f"/><stop offset=".715" stop-color="#ffc737"/><stop offset="1" stop-color="#e5a42e"/></linearGradient><linearGradient xlink:href="#a" id="f" x1="91.395" x2="238.928" y1=".355" y2="192.862" gradientUnits="userSpaceOnUse"/><linearGradient xlink:href="#a" id="g" x1="24.83" x2="172.364" y1="51.369" y2="243.876" gradientUnits="userSpaceOnUse"/><linearGradient xlink:href="#a" id="h" x1="52.37" x2="199.904" y1="30.263" y2="222.77" gradientUnits="userSpaceOnUse"/><linearGradient id="b"><stop offset="0" stop-color="#fffe4e"/><stop offset=".443" stop-color="#de9f2f"/><stop offset=".715" stop-color="#ffc737"/><stop offset="1" stop-color="#8a621c"/></linearGradient><linearGradient xlink:href="#b" id="i" x1="130.85" x2="146.573" y1="38.035" y2="87.398" gradientUnits="userSpaceOnUse"/><linearGradient xlink:href="#b" id="j" x1="80.453" x2="131.278" y1="58.226" y2="215.092" gradientUnits="userSpaceOnUse"/><linearGradient xlink:href="#b" id="k" x1="98.909" x2="150.832" y1="-.412" y2="249.329" gradientUnits="userSpaceOnUse"/><linearGradient xlink:href="#b" id="l" x1="139.9" x2="112.476" y1="225.854" y2="40.468" gradientUnits="userSpaceOnUse"/><linearGradient xlink:href="#b" id="m" x1="133.434" x2="115.882" y1="165.255" y2="81.887" gradientUnits="userSpaceOnUse"/><linearGradient id="n" x1="30.177" x2="196.844" y1="-56.415" y2="262.595" gradientUnits="userSpaceOnUse"><stop offset="0" stop-color="#fffe4e"/><stop offset=".423" stop-color="#ffc737"/><stop offset="1" stop-color="#b5661c"/></linearGradient><linearGradient xlink:href="#a" id="o" x1="6.475" x2="244.228" y1="111.485" y2="111.485" gradientUnits="userSpaceOnUse"/><linearGradient id="p" x1="94.187" x2="153.757" y1="-6.459" y2="243.541" gradientUnits="userSpaceOnUse"><stop offset="0" stop-color="#824314"/><stop offset=".235" stop-color="#e19f2c"/><stop offset="1" stop-color="#915216"/></linearGradient><path fill="url(#c)" d="M229.785 125c0 57.871-46.914 104.785-104.785 104.785S20.215 182.871 20.215 125 67.129 20.215 125 20.215 229.785 67.129 229.785 125zm0 0"/><path fill="url(#d)" d="M219.922 124.121v-7.52c.39-.097.781-.292 1.125-.538.633-.485 1.023-1.172 1.121-2 .195-1.614-.977-3.126-2.59-3.32h-.437l-4.395-18.02c1.172-.828 1.613-2.489.926-3.809-.39-.684-.977-1.219-1.758-1.465-.39-.097-.781-.144-1.219-.097l-7.18-12.84c.637-.586 1.028-1.418.977-2.344-.094-1.66-1.46-2.883-3.125-2.832-.437 0-.828.144-1.172.293l-8.64-10.5c0-.047-.047-.047-.047-.047l-12.453-11.477c.148-.39.242-.78.195-1.218-.098-1.66-1.465-2.883-3.125-2.832a3.25 3.25 0 0 0-1.758.683l-12.793-7.031c0-.195.051-.34 0-.535-.097-1.664-1.465-2.93-3.125-2.832-.976.047-1.804.535-2.293 1.27l-20.215-4.395c-.343-1.367-1.562-2.344-3.027-2.246a3.014 3.014 0 0 0-2.05.976 2.058 2.058 0 0 0-.442.68H112.743c-.048 0-.095 0-.145.05l-23.684 7.177a1.887 1.887 0 0 0-.437-.485c-.586-.539-1.368-.781-2.149-.781-.781.047-1.516.39-2.05.977s-.782 1.367-.782 2.148c0 .195.05.39.098.586L65.28 51.367a2.909 2.909 0 0 0-2.047-.683c-.78.05-1.515.39-2.054.976-.535.586-.782 1.367-.782 2.149 0 .39.149.78.297 1.171l-9.62 9.278c-.536-.34-1.122-.535-1.759-.488-1.66.097-2.879 1.464-2.832 3.125.047.78.391 1.515.977 2.05L36.477 87.156a2.954 2.954 0 0 0-.93-.144 2.956 2.956 0 0 0-2.977 2.976c0 1.223.73 2.297 1.805 2.735L31.25 111.96a2.979 2.979 0 0 0-2.688 2.98c0 1.418 1.028 2.637 2.344 2.93l.637 24.121a3.006 3.006 0 0 0-1.855 2.781 2.96 2.96 0 0 0 2.976 2.98h.102l8.007 20.169a2.918 2.918 0 0 0-1.273 2.441 2.96 2.96 0 0 0 2.98 2.977c.391 0 .782-.098 1.122-.242l16.164 20.507c-.293.438-.438.977-.438 1.563a2.956 2.956 0 0 0 2.977 2.977c.632 0 1.218-.196 1.66-.536l10.742 7.516c-.05.195-.05.441-.05.637 0 1.66 1.32 2.98 2.98 2.98.832 0 1.562-.344 2.097-.879l19.192 7.469c.05 0 .097.05.195.05l20.8 2.54c.391 1.27 1.563 2.148 2.833 2.148.246 0 .488-.05.781-.097a2.858 2.858 0 0 0 1.809-1.368c.097-.195.195-.44.293-.636l25.633-3.125c.246.488.636.93 1.125 1.222.437.293.976.391 1.511.391.246 0 .489-.05.781-.098 1.465-.39 2.442-1.855 2.2-3.32l21.726-11.77c.54.489 1.223.782 2.004.782.242 0 .488-.047.781-.098 1.61-.437 2.54-2.05 2.098-3.613a1.438 1.438 0 0 0-.195-.488l5.129-4.883 12.793-13.23c.34.144.73.195 1.074.195.242 0 .488-.051.73-.098 1.614-.441 2.54-2.05 2.102-3.613-.098-.391-.293-.735-.54-1.075l3.958-6.543c.144.047.34.098.488.098h.39c1.466 0 2.782-1.125 2.93-2.59.145-1.12-.39-2.195-1.27-2.832l4.345-11.277h.148c1.465 0 2.781-1.125 2.93-2.59.144-1.316-.54-2.539-1.711-3.074l2.637-16.36a3.239 3.239 0 0 0 1.613-.585 2.887 2.887 0 0 0 1.121-2 2.97 2.97 0 0 0-.586-2.2 2.833 2.833 0 0 0-1.66-1.074zm-40.188 52.395 21.094-8.45.54 5.91a2.88 2.88 0 0 0-1.759 1.368c-.195.39-.343.781-.39 1.172zm-1.851 20.992a3.006 3.006 0 0 0-.297 2.25c0 .094.05.195.101.242l-21.484 11.672c-.05-.05-.101-.149-.148-.195l11.62-19.141 7.083-1.66c.484 1.074 1.558 1.758 2.683 1.758h.293l1.172 4.05a2.58 2.58 0 0 0-1.023 1.024zM66.406 53.516c0-.344-.097-.684-.195-.977l18.117-11.476c.047.05.145.148.195.195.243.195.485.344.73.492l-1.171 5.613-13.332 9.13a2.759 2.759 0 0 0-1.855-.536c-.489.05-.926.145-1.368.39l-1.465-1.316c.247-.441.344-.976.344-1.515zm93.211-13.868-1.512 18.75c-.148.047-.246.047-.39.098l-7.617-14.941 8.152-4.883a3.11 3.11 0 0 0 1.367.976zm16.797 9.18c.54.438 1.172.684 1.809.684l1.27 10.402-17.872.926c-.05-.195-.05-.34-.144-.488zm24.27 24.367c.195.535.535 1.024.976 1.414l-4.738 10.45h-.34c-.781.05-1.512.39-2.05.976-.391.442-.634.93-.731 1.512l-8.008.687-2.395-13.77zm9.324 17.086c0 .492.101.93.344 1.418.05.098.097.149.148.246l-5.031 5.47-6.492-7.376c.242-.242.39-.539.535-.879zm7.472 34.281-2.44-2.054c.148-.29.241-.582.292-.926a2.908 2.908 0 0 0-.441-1.953l3.078-3.223c.148.098.344.149.539.196v7.52c-.39.05-.735.245-1.028.44zm-48.777 66.11 3.125-5.172 3.024 2.488c-.243.39-.391.832-.391 1.317zm-13.867 20.023a3.234 3.234 0 0 0-1.809-.101c-.39.101-.73.297-1.027.492l-11.57-11.133c0-.05.05-.05.05-.101.243-.391.391-.829.391-1.317l24.852-5.762zM49.07 159.523l-8.25-7.765-1.023-7.91 23.726 14.257c0 .098-.046.196-.046.34zm-5.418 8.055c-.246-.098-.488-.195-.73-.242l-1.758-13.332 6.785 6.348zm-8.105-23.195 2.734-.926.88 6.785-4.102-3.855c.293-.489.488-1.028.488-1.66a.438.438 0 0 0 0-.344zm-1.074-29.442c0-.144 0-.293-.051-.39l.492-.149 2.098 18.457-4.051-15.332a2.993 2.993 0 0 0 1.512-2.586zm1.808-22.07c.094-.05.196-.05.29-.098l5.421 7.766-5.71 10.156zm12.254-5.566c.145.242.344.441.535.636l-6.297 11.18-4.98-7.176c.488-.539.781-1.222.781-1.953zm48.828-39.063c.196-.242.39-.488.489-.734l21.68 4.008 7.96 1.12-27.883 6.106-2.976-9.914c.242-.195.484-.39.73-.586zm23.387-9.031 26.176 4.39-13.137 6.887a3.025 3.025 0 0 0-2.441-1.074c-.489.047-.926.145-1.368.39l-9.421-9.96c.097-.242.144-.438.191-.633zm73.148 49.703c.094.297.243.586.438.832l-10.305 15.965 1.809-16.11zm6.786 35.156c-.391.098-.73.246-1.075.493l-8.691-9.376 2.734-2.98 6.985 1.809v10.054zm-85.989 64.453c.102-.437.051-.875-.047-1.316a2.854 2.854 0 0 0-.148-.39l30.617-20.02c.196.148.344.293.586.437l-7.664 28.176c-.297 0-.586 0-.883.098a3.135 3.135 0 0 0-1.758 1.27zm-14.742 12.551c-.05-.097-.101-.195-.148-.293l10.254-10.398c.293.242.683.39 1.023.484l1.074 7.91zm-30.617-43.066a2.822 2.822 0 0 0-1.074-1.61l7.129-15.332-2.293 16.746zm-.344-96.047h.149a2.997 2.997 0 0 0 2.05-.977c.149-.144.246-.289.34-.437l5.715 2.441-12.5 14.16c-.05-.046-.098-.046-.195-.097l4.152-15.184c.145.047.195.094.29.094zm26.274 5.57-8.985 3.367.485-3.367c.734-.05 1.468-.39 1.953-.976.246-.246.441-.54.539-.883zm4.39-7.031 12.16 3.414-13.379 2.64zm49.27 2.34 6.3 11.086c-.585.586-.976 1.367-.93 2.293l-19.382 5.664a3.01 3.01 0 0 0-2.687-1.414c-.489.047-.926.144-1.32.39l-13.524-15.136c.246-.344.39-.735.488-1.172zm30.957 47.023c.242.684.734 1.27 1.367 1.614l-5.078 14.207a2.733 2.733 0 0 0-2 .636c-.102.098-.195.145-.297.243l-27.195-12.938v-.148l16.164-1.512c.39.926 1.265 1.61 2.344 1.758h.39c.633 0 1.27-.196 1.805-.637.586-.438.976-1.074 1.074-1.758zm-105.32 47.801 2.535-18.258c.394-.05.734-.148 1.074-.344l14.453 16.211a3.504 3.504 0 0 0-.535 1.22zm-8.11-1.953c-.242 0-.437.05-.633.05l-12.89-31.738c.195-.148.39-.343.539-.539l20.457 12.063c-.098.293-.145.539-.145.828 0 .93.438 1.762 1.121 2.297l-7.957 17.09c-.148 0-.343-.051-.492-.051zm-.094-75.484c0-.149.047-.293.047-.442v-.05l14.16-5.274 1.758 7.277c-.535.293-.926.782-1.222 1.317zm13.868-7.133-14.211 5.273c-.047-.094-.149-.195-.196-.289L78.027 64.16zm74.46 4.492c.243.394.54.734.93.977l-4.054 10.988h-.391c-.879.05-1.613.441-2.102 1.074l-13.816-6.543c.05-.246.098-.535.05-.781v-.051zm7.961 32.812v.196l-16.066 1.469a2.974 2.974 0 0 0-2.441-2.004 1.77 1.77 0 0 0-.73 0l-5.52-14.012 10.695-2.297c.484 1.027 1.512 1.758 2.734 1.758h.145c.39 0 .734-.098 1.027-.242l10.692 13.765c-.293.39-.489.883-.536 1.367zm19.97 1.47h.097c.637 0 1.27-.196 1.808-.638.047 0 .047-.05.047-.05l4.297 4.004-11.281 10.597zm-5.813 32.175c-.243.195-.438.39-.582.637l-12.649-3.371v-.051c.051-.485 0-.977-.144-1.414l10.644-8.985c.438.391.977.637 1.563.684h.191l1.906 12.012a5.818 5.818 0 0 0-.93.488zm-67.188-56.785-22.8-3.176a2.814 2.814 0 0 0-.684-1.613l11.281-13.817zm38.723 5.078-10.938 2.39-3.418-8.742c.246-.144.438-.289.637-.535 0-.05.047-.05.047-.097l13.77 6.543c-.047.144-.098.293-.098.44zm24.855 37.305c0 .047 0 .047.047.093l-10.695 8.938c-.438-.39-.977-.633-1.61-.734a2.764 2.764 0 0 0-.878 0l-2.051-5.32zm-26.32 32.03-7.664-21.874c.535-.246.976-.684 1.27-1.172a.4.4 0 0 0 .097-.195l17.09 3.074c.144.684.488 1.27.977 1.71l-10.696 18.556c-.34-.098-.683-.149-1.074-.098zm-33.742-16.21 8.351-5.766-3.027 4.836c-.488-.148-1.027-.148-1.613 0-.828.196-1.465.781-1.856 1.465zm-32.078-36.133c.047 0 .148 0 .195-.05a2.85 2.85 0 0 0 1.805-1.368c.246-.39.343-.781.39-1.222l10.403-2.438 2.636 4.734-18.601 24.707c-.051 0-.051 0-.098-.05zm28.86-20.61-5.813 9.72a2.768 2.768 0 0 0-.88-.149c-.636 0-1.222.195-1.71.54l-15.086-13.04c.05-.094.097-.195.144-.34zm22.46-2.292h.242l3.367 8.594-5.32 1.171zm24.168 46.191 2.246 5.91a3.09 3.09 0 0 0-1.023 1.465l-16.899-3.027c0-.195-.047-.442-.094-.637a2.85 2.85 0 0 0-1.367-1.805c-.246-.148-.539-.246-.832-.343l1.223-10.157c.586-.144 1.07-.488 1.46-.878zm-30.078 3.758a2.4 2.4 0 0 0-.246-.633l11.523-11.867c.196.098.395.148.586.195l-1.219 10.157a2.943 2.943 0 0 0-2.101 2.148zm-27.54-.34 2.54-17.137c.047 0 .144 0 .195-.05 1.172-.293 1.953-1.22 2.149-2.344l7.03-.488 10.84 18.75c-.538.39-.878.976-1.023 1.562zm-19.284-.293c-.102-.437-.297-.879-.586-1.219l18.21-24.171 1.805 3.273c-.879.73-1.367 1.902-1.023 3.074.293 1.028 1.074 1.809 2 2.098l-2.54 17.187zm17.671 1.66-.535 3.614-14.257-3.86zm31.985-39.504 6.008 15.04-8.45.585-20.8-11.472c.047-.145.097-.34.097-.489zm-4.004 36.77a2.982 2.982 0 0 0-2.246-.488L112.5 115.918l14.063-.977 9.62 5.325c-.195.535-.195 1.12-.05 1.707.097.39.293.73.539 1.074zm-19.922-31.395 18.848 10.399-12.547.828-6.445-11.133c.093 0 .093-.047.144-.094zm31.59 15.77-7.762-4.297 6.692-.441 1.707 4.297c-.246.101-.442.296-.637.441zm-34.91-15.04c.34.145.73.247 1.172.247.293 0 .586-.05.832-.102l6.054 10.5-6.351.442c-.438-1.418-1.903-2.297-3.367-2.05l-2.196-3.958zm38.035 14.454c-.34-.148-.73-.195-1.121-.195l-1.613-4.004 3.566-.242c.098.34.242.632.488.925.098.149.242.293.39.391zm.734-5.91-4.004.297-4.832-12.16 9.375 10.644a3.44 3.44 0 0 0-.539 1.219zm-34.863-12.45c-.144-.34-.39-.683-.637-.976l6.055-10.058 16.016 7.664zm-5.418-.195c-.195.391-.344.828-.344 1.317l-5.613 1.32L86.23 87.5zm0 2.735c.094.195.195.34.34.535l-3.418 4.594-2.148-3.86zM79.2 138.086c.047-.098.098-.149.145-.242l17.187 4.636-1.707 11.575c-.195 0-.39.047-.586.093-.195.051-.39.102-.535.196l-11.43-12.84zm17.824 16.75c-.246-.195-.492-.39-.78-.54l1.706-11.476 11.817 3.176zm1.122-13.43.585-3.953 21.926.34v.098c.047.148.094.34.196.488l-9.524 6.59zm21.68 3.953a2.522 2.522 0 0 1-.145-.144l3.27-5.223c.195.047.39.094.636.094.242 0 .484-.047.73-.094a3.086 3.086 0 0 0 2.149-2.148h8.058zm22.07-23.437a3.68 3.68 0 0 0 0-1.461c-.098-.441-.34-.832-.637-1.176l1.808-3.32c.098.05.246.05.34.05h.39c.392 0 .735-.097 1.079-.195l9.664 13.914zm-10.793-24.363 5.421-1.172 5.176 13.183zm-1.461-12.84c.144.34.39.68.68.926.195.148.39.293.636.44l-1.758 9.962-15.969-7.617zm-45.657 2.586c.149 0 .293-.047.489-.047l8.691 15.625-9.863 2.344c-.242-.586-.684-1.125-1.219-1.418a.4.4 0 0 0-.195-.098zm-5.957 20.656c.391.582.977 1.07 1.614 1.266l-3.223 24.218c-.488.051-.93.246-1.32.493L53.32 113.82zm33.543 38.523 3.078.828c0 .149 0 .297.047.493l-13.23 5.71zm8.938.149 15.039-7.719a3.086 3.086 0 0 0 2.246 1.172l7.715 22.07c-.196.098-.34.246-.488.442l-24.56-14.309c.145-.535.196-1.121.048-1.656zm29.344 16.695c-.145-.34-.391-.633-.633-.875l10.742-18.656h.098l1.12 17.187zm23.195-35.105-15.625 3.175-11.379-16.359.05-.047 27.102 12.84c-.101.098-.101.246-.148.39zM129.395 83.3l-17.434 3.957 3.176-20.266c.39-.047.781-.148 1.172-.344l13.574 15.188c-.293.437-.488.93-.488 1.465zm-17.188-18.02c.148.344.39.688.684.977.246.195.539.39.78.492l-3.077 19.48L98.633 67.97zm-27.2 16.313c-.046-.051-.144-.051-.195-.102l1.27-9.078 9.184-3.422zm-1.51-1.028-1.563-6.543 2.636-.976zm-1.419 6.2c.149.097.344.195.492.293l-2.148 16.359c-.2 0-.442.047-.637.098a2.858 2.858 0 0 0-1.808 1.367c-.29.535-.438 1.125-.391 1.707l-23.191 5.469zM52.441 114.89l18.899 17.484-17.336-10.254c0-.098.05-.246.05-.394 0-1.317-.831-2.391-2.003-2.829zm45.508 41.652 17.285-7.473c.293.39.684.735 1.172.93l-5.273 35.059h-.098a.393.393 0 0 0-.246.097L97.07 159.133c.633-.637 1.024-1.613.88-2.59zm15.676 29.102a2.805 2.805 0 0 0-1.078-.54l5.226-34.761c.196 0 .391-.051.586-.102.536-.144.977-.39 1.317-.781l24.61 14.309c-.145.488-.145 1.027-.048 1.613 0 .094.047.144.098.191zm36.473-20.899 11.18-2.246.785 11.863a2.613 2.613 0 0 0-.977.489l-11.281-8.985c.195-.34.293-.73.293-1.12zm13.425 9.621-.78-12.11 7.96-1.612-7.031 13.77c-.047-.048-.098-.048-.149-.048zm-.925-13.578-1.121-16.992c.34-.094.632-.242.925-.484.243-.196.438-.391.586-.637l12.645 3.367c-.145 1.074.293 2.05 1.074 2.687l-5.223 10.254zm15.43-11.473c.05 0 .148.051.245.051h.391c.781 0 1.512-.344 2.047-.832l7.375 6.008a4.34 4.34 0 0 0-.293 1.121l-14.5 2.93zm10.937 4.102-7.52-6.106c.051-.195.098-.34.098-.535a2.975 2.975 0 0 0-.586-2.199 2.67 2.67 0 0 0-1.805-1.07l-1.953-12.113c.34-.145.684-.391.926-.684l11.133 7.719.637 14.547a4.181 4.181 0 0 0-.93.441zm.293-16.746-10.399-7.23c.047-.145.094-.294.094-.438.102-.73-.094-1.418-.484-2.05l10.789-10.157zm.683-22.512-4.394-4.05 6.594 1.656zm-36.277-19.777c.438-.535.68-1.266.633-2-.047-1.024-.586-1.856-1.367-2.39l4.054-10.938h.29l6.984 28.906zM83.547 64.648c.047.782.39 1.516.976 2.051.243.246.536.39.829.535l-.586 4.153-3.223 1.172-2.2-9.036 4.153.688c.05.195.05.289.05.437zM63.43 82.813c.976 0 1.855-.489 2.39-1.22l15.04 2.93c.05.391.148.782.292 1.122L52.54 111.816l-.684-23.242a2.982 2.982 0 0 0 2.196-2.879c0-.148 0-.246-.047-.39l7.277-3.422c.535.586 1.317.93 2.149.93zm-13.04 5.812.684 22.41-7.422-10.594 6.692-11.867c0 .051.047.051.047.051zm.196 30.172c-1.418.246-2.492 1.469-2.492 2.93 0 .734.297 1.418.734 1.953l-9.422 16.507-2.98-26.074h14.699zm-.633 5.715c.34.144.68.195 1.07.195.196 0 .442 0 .637-.05l12.84 31.788c-.145.098-.242.243-.34.34l-24.316-14.597zm24.414 34.57 17.82-1.172c.047.149.098.293.149.39l-19.094 15.286c-.242-.246-.488-.488-.781-.637zm-.492 15.82 19.387-15.48c.488.344 1.12.586 1.758.586.246 0 .488-.047.78-.094h.048l13.77 26.121c-.145.195-.294.39-.391.586l-35.254-10.45c.05-.194.05-.343.05-.538-.097-.29-.097-.535-.148-.73zm39.7 23.684-1.075-7.766c.637-.148 1.172-.539 1.563-1.023l20.359 8.101zm26.171-2.54c-.098-.1-.246-.148-.34-.245l7.711-28.176h.051c.246 0 .488-.047.781-.094.39-.097.735-.297 1.074-.539l11.23 8.938c-.292.632-.39 1.367-.194 2.047.05.246.148.441.246.636zm26.027-18.07h8.985l-3.274 5.376-5.91-4.883c.098-.149.149-.344.2-.492zm0-1.46a2.849 2.849 0 0 0-.882-1.47l7.57-14.843 15.625-3.172c.098.242.293.489.488.684l-12.941 18.75h-9.86zm29.051-65.532 4.442-4.78 1.273 6.25zm-1.613-.39-7.566-1.903a2.914 2.914 0 0 0-.637-1.613l-.094-.094 10.496-16.261c.246.097.488.195.73.246l2.688 13.523zm-10.64-4.688c-.637 0-1.223.246-1.712.637a3.205 3.205 0 0 0-1.125 1.906l-11.328 1.512c-.34-1.074-1.27-1.953-2.488-2.102h-.344l-6.98-29.101c.39-.195.683-.438.926-.778l24.855 11.426zm-25.782-32.761a.952.952 0 0 0-.344.097l-5.957-10.449 5.469-.293c.34.734.926 1.27 1.66 1.563zm-1.078-12.06-6.2.34-15.136-8.253c.098-.29.148-.633.098-.977 0-.144-.051-.289-.051-.437l14.406-7.52 7.664 15.04c-.437.44-.73 1.074-.781 1.808zm-26.07-6.444a2.94 2.94 0 0 0 1.902.683h.144a3.079 3.079 0 0 0 2.004-.93l13.137 7.13-29.008 1.613c0-.051-.047-.149-.047-.2zm-12.797 7.125c-.582-.485-1.317-.782-2.098-.73a2.912 2.912 0 0 0-2.441 1.51L102 59.669l26.125-5.762zm-19.922 4.738-7.469-2.344c0-.148-.047-.293-.047-.441l8.739-3.074zM88.719 62.5c-.047-.047-.145-.148-.196-.195-.585-.54-1.367-.782-2.148-.782a3.005 3.005 0 0 0-2.047.977 2.37 2.37 0 0 0-.297.39l-4.586-.78 5.563-13.133 12.648 10.351zm-10.692-.734-6.054-2.586v-.344c0-.438-.145-.828-.34-1.219l11.426-7.812zM66.992 62.84l-3.86 14.066a2.972 2.972 0 0 0-2.683 2.977c0 .293.047.539.098.828l-7.082 3.32c-.047-.047-.098-.144-.145-.195zm-24.07 38.965 7.617 10.89H36.766zm26.414 57.617 3.562-.242-1.851 13.379h-.05l-3.27-11.184a3.065 3.065 0 0 0 1.609-1.953zm1.855 19.094c.442-.047.832-.149 1.172-.34l6.395 6.492-9.469-.73zm2.54-.977 30.957 9.18-23.731-1.903zm35.105 10.938c0 .097.05.148.05.242.052.195.145.39.196.586l-10.352 10.5a2.992 2.992 0 0 0-2.246-.293c-.293.05-.535.195-.73.34L82.52 186.375zm-8.64 14.015 12.35-2.394 7.915 14.941c-.102.098-.148.195-.246.293l-20.117-12.11c.05-.245.097-.488.097-.73zm23.976 12.059c-.688-.39-1.516-.54-2.297-.34-.047 0-.098.047-.195.047l-7.567-14.305 20.946-.687c.097.343.293.636.488.93zm16.453-17.383 20.605-17.48a2.91 2.91 0 0 0 1.66.539c.243 0 .489-.051.782-.098.39-.098.781-.293 1.074-.54l6.004 4.981-4 6.543zm35.203-10.207-3.27-2.684 2.981-4.882.977 7.273c-.246.05-.442.148-.688.293zm13.918-28.367c.34.148.684.195 1.027.195.243 0 .489-.05.782-.098.242-.05.488-.195.683-.293l7.957 8.399-22.215 8.887zm2.879-5.125a.84.84 0 0 0-.34-.246c-.293-.145-.586-.293-.926-.34l-.586-13.672 12.059 6.344zm-1.953-15.871v-20.606l8.008 8.64a3.411 3.411 0 0 0-.293.977 2.97 2.97 0 0 0 .586 2.2 2.859 2.859 0 0 0 2.004 1.12h.097l2.149 14.258zm12.992-12.45c-.39-.539-.93-.882-1.562-1.027v-9.324l7.468 5.32c-.097.246-.144.488-.195.735-.047.39 0 .828.098 1.218l-5.711 3.32c-.004-.097-.051-.148-.098-.242zm13.18-9.671-2.977 3.125c-.344-.196-.683-.34-1.125-.391-.875-.094-1.707.148-2.293.687l-8.347-5.96-1.614-8.102 5.028-5.422 11.183 12.746c-.195.34-.344.73-.39 1.121-.145.828.05 1.61.535 2.196zm-16.746-12.305-2.442-12.3c.051 0 .149-.052.196-.052l6.687 7.618zm-15.82-15.43L160.202 76.66c.05-.195.05-.39.05-.637l21.731-1.511zM159.862 74.61c-.34-.632-.925-1.074-1.613-1.316l.781-9.082a3.042 3.042 0 0 0 2.492-2.004l18.211-.926 2.055 11.817zm-39.207-36.867c0-.047 0-.047-.05-.094l11.718-4.882c.145.34.39.68.684.925.539.489 1.27.782 2 .782h.148c.735-.051 1.414-.344 1.906-.832l9.715 8.496zm-.883-1.316c-.582-.489-1.316-.781-2.097-.73-.145 0-.34.046-.489.046l-2.976-4.199h17.281zm-3.906 0c-.094.097-.195.144-.289.246-.539.586-.781 1.363-.781 2.148a3.005 3.005 0 0 0 2.976 2.828h.149a3.22 3.22 0 0 0 1.758-.683l9.273 9.816c-.094.196-.191.344-.242.54l-8.984-1.274-21.63-4c0-.442-.148-.832-.343-1.223l14.894-12.941zm-23.68 9.96c.047.782.391 1.512.977 2.051.54.489 1.27.782 2 .782h.102l2.488 8.351L85.5 47.56l1.172-5.516a2.877 2.877 0 0 0 1.758-.734l4.05 3.566c-.246.484-.34.977-.293 1.512zM66.407 60.45c.046.098.148.246.241.34l-14.5 22.172c-.195-.05-.39-.148-.586-.148l-.878-13.282a3.008 3.008 0 0 0 1.808-2.883c0-.144 0-.242-.05-.39zm-17.141 9.278.882 13.136c-1.171.39-2.054 1.512-2.054 2.832v.243l-9.86 2.636c-.148-.242-.297-.488-.492-.683l11.04-18.262c.144.05.288.098.484.098zM34.863 112.89l-.925.293a3.685 3.685 0 0 0-1.274-1.028l2.2-13.379zm3.176 29.101-2.98 1.028c-.489-.684-1.22-1.172-2.098-1.27l-.54-21zm1.461 10.5 1.664 12.645-7.031-17.676zm5.273 16.016 3.907-6.594 11.183 29.54-15.136-19.188c.437-.54.683-1.172.683-1.903 0-.734-.246-1.37-.637-1.855zm18.364 23.828a2.746 2.746 0 0 0-.93-.149c-.195 0-.39 0-.535.047l-10.598-28.023 16.406 20.406zM50.242 160.89l13.477-1.028c.441 1.075 1.468 1.805 2.687 1.856l3.274 11.23a2.951 2.951 0 0 0-1.614 2.637c0 1.219.73 2.246 1.758 2.734l-1.66 4.832zm30.078 25.34 14.407 14.55-.047.047c-.246.442-.39.883-.39 1.367l-13.868 2.785a2.994 2.994 0 0 0-2.883-2.199c-.246 0-.441.051-.684.102l-7.421-17.531zm.149 20.214 14.113-2.832c.438.977 1.367 1.563 2.39 1.66l1.223 8.301-17.824-6.933c.05-.047.05-.098.098-.196zm17.922-1.367c.39-.148.68-.39.976-.633l20.067 12.008-19.676-2.39zm27.148 11.281a3.555 3.555 0 0 0-.344-.78l11.57-14.454a3 3 0 0 0 1.173.242c.246 0 .492-.05.78-.097.247-.051.493-.196.735-.293l11.719 11.23c-.195.39-.293.828-.293 1.219l-25.246 3.078c-.094-.05-.094-.098-.094-.145zm75.34-50.882-7.617-8.055c0-.05.05-.05.097-.098.391-.683.489-1.465.293-2.246-.05-.148-.097-.293-.148-.437l9.719-7.524zm1.562-35.743c.246-.093.489-.242.684-.39.633-.485 1.023-1.172 1.125-2a1.454 1.454 0 0 0 0-.637l5.906-3.418a3.03 3.03 0 0 0 1.758.879l2.441 22.07a2.915 2.915 0 0 0-.73.442c-.441.34-.734.73-.93 1.218l-8.054-2.878zm10.938-5.757c.246-.098.488-.247.73-.391l2.446 2.047a3.298 3.298 0 0 0-.297.976 2.987 2.987 0 0 0 .586 2.2c.297.39.734.73 1.172.925l-2.344 14.602zm4.246-12.797-11.18-12.743 5.125-5.566c.196.098.344.195.586.246a2.9 2.9 0 0 0 .883.145c.145 0 .242 0 .39-.051l4.344 17.875c-.046.047-.097.047-.148.094zm-6.297-23.387c-.39.293-.734.637-.926 1.074l-10.695-1.219c-.098-.93-.633-1.757-1.414-2.199l4.637-10.254c.195.047.39.047.586.047h.148c.195 0 .39-.047.586-.094zm-10.203-17.238a3.429 3.429 0 0 0-.54 1.222L183.153 73l-2.05-11.82 11.574-.875zm-20.219-10.79-1.316-10.644c.195-.098.39-.242.586-.39l11.082 10.253zm-5.418-14.355c-.148.39-.246.832-.195 1.27 0 .343.098.683.246 1.023l-14.844 11.379a3.598 3.598 0 0 0-1.172-.684l1.512-18.652a3.177 3.177 0 0 0 2.004-1.223zm-17.87-8.45c0 .102 0 .247.05.345l-8.398 5.03-11.38-9.96c0-.05.051-.098.051-.195l19.727 4.297c-.05.195-.05.34-.05.484zm-47.805-4.44L96.828 43.797a2.77 2.77 0 0 0-1.86-.535 3.345 3.345 0 0 0-1.562.535l-4.148-3.613c.148-.391.242-.829.195-1.27 0-.098 0-.195-.047-.242zM61.672 56.055c.484.39 1.121.586 1.758.586h.144c.535-.047 1.074-.196 1.512-.489l1.418 1.27a3.249 3.249 0 0 0-.442 1.66l-13.085 5.371zm3.172 140.476a3.13 3.13 0 0 0 .344-1.367c0-.828-.344-1.562-.883-2.098l3.906-6.886 7.375 17.382c-.098.098-.195.196-.293.297zm122.414-4.734-5.031 4.836c-.098-.051-.196-.149-.293-.196-.54-.296-1.125-.44-1.711-.39l-1.168-4.102c.39-.246.68-.586.925-.976.391-.684.489-1.469.293-2.25a2.85 2.85 0 0 0-1.367-1.805c-.293-.195-.636-.293-.976-.344l-1.125-8.593h22.61c.097.296.292.585.487.78zm16.16-17.676c-.195-.098-.39-.144-.637-.195l-.633-6.836 2.247-17.82 3.566 13.77c-.149.093-.297.144-.39.241a2.877 2.877 0 0 0-1.126 2.004 2.96 2.96 0 0 0 .586 2.195c.098.098.149.196.242.293zm6.3-11.426h-.39l-4.152-16.062 7.422 2.683c.05.54.246 1.075.586 1.516.242.293.535.535.828.73zm0 0"/><path fill="url(#e)" d="M135.059 28.469c1.367 0 2.59.926 2.879 2.242l20.218 4.398c.485-.734 1.317-1.222 2.293-1.27h.145a2.995 2.995 0 0 1 2.98 2.833v.535l12.793 7.031a2.643 2.643 0 0 1 1.758-.683h.148a2.991 2.991 0 0 1 2.977 2.832c0 .441-.047.832-.195 1.222l12.453 11.473.047.05 8.644 10.497a2.31 2.31 0 0 1 1.172-.293h.145a2.995 2.995 0 0 1 2.98 2.832c.047.93-.344 1.758-.976 2.344l7.175 12.843h.344c.293 0 .586.047.879.145a2.922 2.922 0 0 1 1.758 1.465c.683 1.32.293 2.98-.93 3.808l4.395 18.02H219.582c1.61.195 2.781 1.707 2.586 3.32a2.987 2.987 0 0 1-1.121 2 3.394 3.394 0 0 1-1.125.54v7.519c.637.144 1.223.535 1.66 1.074a2.96 2.96 0 0 1 .586 2.195 2.995 2.995 0 0 1-1.121 2.004c-.488.34-1.027.586-1.613.586l-2.637 16.356a3.055 3.055 0 0 1 1.71 3.078 2.95 2.95 0 0 1-2.929 2.586h-.148l-4.344 11.281c.879.633 1.367 1.66 1.27 2.832a2.95 2.95 0 0 1-2.93 2.586h-.39a1.39 1.39 0 0 1-.49-.098l-3.956 6.543c.246.293.39.684.539 1.075a2.924 2.924 0 0 1-2.102 3.613c-.242.05-.488.097-.73.097-.39 0-.734-.097-1.074-.195L188.43 193.02l-5.13 4.882c.098.145.15.34.196.489a2.92 2.92 0 0 1-2.098 3.613c-.246.047-.488.098-.78.098a3.03 3.03 0 0 1-2.005-.782l-21.875 11.668c.246 1.512-.683 2.93-2.199 3.32-.242.051-.484.098-.781.098-.535 0-1.024-.148-1.512-.39a3.037 3.037 0 0 1-1.125-1.22l-25.633 3.122c-.05.246-.148.441-.293.637a2.858 2.858 0 0 1-1.808 1.367c-.242.047-.489.098-.782.098-1.27 0-2.44-.833-2.832-2.149l-20.8-2.539c-.047 0-.098 0-.196-.05l-19.187-7.47c-.54.54-1.27.88-2.102.88a2.957 2.957 0 0 1-2.976-2.981c0-.242.047-.438.047-.633l-10.743-7.52a2.936 2.936 0 0 1-1.66.536 2.956 2.956 0 0 1-2.976-2.977c0-.586.144-1.125.437-1.562l-16.16-20.508a2.877 2.877 0 0 1-1.125.242 2.956 2.956 0 0 1-2.977-2.976c0-1.028.489-1.907 1.27-2.442l-7.91-20.168h-.098a2.96 2.96 0 0 1-2.98-2.976c0-1.27.785-2.344 1.855-2.782l-.633-24.125a2.988 2.988 0 0 1-2.343-2.93 2.972 2.972 0 0 1 2.687-2.976l3.172-19.238a2.945 2.945 0 0 1-1.805-2.735 2.96 2.96 0 0 1 2.977-2.98c.344 0 .633.05.93.148L47.46 68.9a3.022 3.022 0 0 1-.977-2.051c-.097-1.66 1.172-3.028 2.832-3.125h.145c.586 0 1.125.144 1.613.488l9.621-9.277a2.293 2.293 0 0 1-.297-1.172 2.953 2.953 0 0 1 .782-2.149c.539-.586 1.27-.93 2.054-.976h.145c.684 0 1.367.242 1.906.683l18.309-11.574c-.047-.195-.098-.39-.098-.586a2.953 2.953 0 0 1 .781-2.148 3.038 3.038 0 0 1 2.051-.977h.149c.73 0 1.414.293 2 .781.148.145.293.293.441.489l23.68-7.18c.05 0 .097 0 .148-.047h19.629c.094-.242.293-.437.438-.683a3.038 3.038 0 0 1 2.05-.977c.051.05.145.05.196.05m-17.871 7.274c.148-.047.343-.047.488-.047h.144c.735 0 1.418.243 1.953.73l11.672-4.882H114.16zM128.71 51.32c.05-.199.148-.39.242-.539l-9.273-9.812a3.13 3.13 0 0 1-1.758.683h-.149c-.73 0-1.414-.293-2-.78a3.022 3.022 0 0 1-.976-2.052 2.921 2.921 0 0 1 .781-2.148c.094-.102.195-.195.29-.246l-3.22-4.492-14.894 12.941c.195.39.293.781.34 1.219l21.633 4.004zm20.555-8.984 8.398-5.031c0-.098-.047-.243-.047-.344v-.484l-19.726-4.297c0 .047-.051.097-.051.195zm-55.86 1.46a2.65 2.65 0 0 1 1.563-.534h.148c.637 0 1.219.195 1.711.535l12.984-11.277-20.359 6.152c0 .098 0 .195.047.242 0 .441-.047.879-.195 1.27zm53.422-1.706-9.719-8.496c-.539.488-1.172.781-1.902.832h-.148c-.73 0-1.414-.293-2.004-.781a2.569 2.569 0 0 1-.68-.93l-11.719 4.883c0 .05 0 .05.047.097zm13.867 16.992 14.844-11.426c-.148-.293-.195-.633-.246-1.023 0-.442.05-.883.195-1.274l-12.5-6.836c-.441.637-1.172 1.079-2.004 1.223l-1.511 18.652c.488.149.879.391 1.222.684m-2.98-.637a.958.958 0 0 1 .39-.093l1.516-18.75a3.13 3.13 0 0 1-1.371-.977l-8.152 4.883zm-27.684-8.687c.39-.246.875-.39 1.367-.39h.145c.926 0 1.758.437 2.293 1.073l13.137-6.84-26.172-4.39c-.051.195-.098.39-.196.586zm-62.55 6.64c.39-.246.878-.39 1.367-.39h.144c.637 0 1.223.195 1.711.535l13.332-9.129 1.172-5.617c-.246-.149-.539-.293-.734-.488-.047-.051-.145-.145-.196-.196L66.164 52.586c.145.293.195.637.195.977.047.539-.097 1.074-.343 1.562zm30.273 1.172-2.488-8.351h-.102c-.73 0-1.414-.293-2-.782a3.014 3.014 0 0 1-.977-2.05c-.046-.535.098-1.024.293-1.465l-4.05-3.563a2.99 2.99 0 0 1-1.758.73L85.5 47.61zm51.758 3.856 6.199-.34c.05-.688.344-1.367.781-1.86l-7.664-15.038-14.406 7.57c.05.148.05.293.05.437 0 .344-.05.688-.097.977zm-49.903-2.684 27.93-6.156-7.96-1.121-21.68-4.004c-.145.242-.294.539-.489.734-.195.243-.488.438-.73.586zm81.297 1.024 10.403-.782-11.082-10.254c-.196.149-.391.293-.586.391zm-19.285 1.023 17.871-.926-1.27-10.402a2.683 2.683 0 0 1-1.808-.684l-14.89 11.477c0 .195.046.34.097.535m-77.59 2.102c.098-.149.196-.243.297-.391a3.005 3.005 0 0 1 2.047-.977h.148c.735 0 1.465.243 2 .782.051.047.149.144.196.195l8.937-3.172-12.648-10.351-5.563 13.132zm-6.004-1.125 5.032-11.961-11.426 7.812c.195.39.289.781.34 1.219v.344zm34.278.78a2.912 2.912 0 0 1 2.441-1.51h.145c.734 0 1.418.245 1.953.73l11.328-7.86-26.121 5.762zm19.238-7.226a3.013 3.013 0 0 1-1.902-.683l-11.965 8.3c.05.051.05.149.05.196l29-1.61-13.132-7.128c-.489.535-1.219.878-2 .925h-.051m-78.566 9.133 13.039-5.422c0-.586.148-1.172.437-1.656l-1.414-1.273c-.441.296-.977.492-1.516.492h-.144a2.917 2.917 0 0 1-1.758-.586zM183.157 73l17.429-1.223c.098-.441.242-.879.539-1.222l-8.45-10.203-11.57.878zM52.147 82.96l14.5-22.17c-.093-.095-.144-.243-.242-.34l-14.015 5.808c0 .148.05.246.05.39a3.002 3.002 0 0 1-1.808 2.883l.879 13.281c.246 0 .441.047.636.149m46.243-16.406 13.375-2.64L99.609 60.5zM68.992 61.96h-.242l-4.148 15.187c.046.047.093.047.195.098l12.5-14.207-5.715-2.445a2.788 2.788 0 0 1-.34.441c-.539.586-1.27.926-2.05.977-.098-.051-.149-.051-.2-.051m27.93 4.543 1.172-5.86-8.739 3.075c.051.148.051.297.051.441zm62.941 8.105 21.875-1.511-2.05-11.817-18.211.926c-.344 1.074-1.32 1.855-2.493 2.004l-.78 9.082c.733.242 1.269.73 1.66 1.316m-3.419-1.367c.098-.047.243-.047.34-.097l.785-9.13a3.072 3.072 0 0 1-1.664-1.562l-5.469.293zM53.47 83.984l7.078-3.32a4.457 4.457 0 0 1-.098-.828 2.976 2.976 0 0 1 2.688-2.98l3.855-14.063-13.719 20.95a.903.903 0 0 1 .196.241m77.39-3.125a2.47 2.47 0 0 1 1.32-.39h.145c1.074 0 2.004.535 2.54 1.414l19.386-5.664c-.05-.88.34-1.707.926-2.293l-6.25-11.086-31.106 1.71c-.093.442-.242.829-.484 1.173zm-49.316-8.25 3.223-1.175.586-4.149c-.293-.148-.586-.293-.829-.535a3.03 3.03 0 0 1-.976-2.055v-.39l-4.152-.684zm-15.527 5.809 14.207-5.273-2.149-8.938-12.207 13.918c.051.047.102.148.149.293m44.629 7.812 3.074-19.48a4.554 4.554 0 0 1-.781-.492c-.29-.29-.536-.586-.68-.977l-13.528 2.64zM86.28 70.852l8.985-3.372-6.008-1.855c-.149.293-.293.586-.54.879-.484.586-1.218.879-1.952.976zm25.633 16.406 17.43-3.957c.05-.535.195-1.028.441-1.465l-13.574-15.188c-.344.196-.734.297-1.172.344zm-2.297 0L97.461 68.652 86.18 82.47c.343.441.586.976.687 1.613zm-24.61-5.664 10.259-12.602-9.184 3.418-1.27 9.082c.051.051.102.102.196.102m-46.824 7.031 9.863-2.64v-.243c0-1.32.879-2.441 2.05-2.832l-.878-13.137c-.196 0-.34-.046-.535-.093L37.648 87.937c.243.196.391.442.536.688m45.312-8.059 1.074-7.52-2.636.977zm102.293 7.618 8.008-.684c.098-.54.344-1.074.734-1.516a3.038 3.038 0 0 1 2.051-.976H196.922l4.738-10.445a2.968 2.968 0 0 1-.976-1.418l-17.286 1.218zm-1.512-.442-2.293-13.23-21.73 1.511c0 .196 0 .442-.05.637zM81.102 83.105a2.908 2.908 0 0 1 1.222-1.316l-1.758-7.277-14.16 5.273v.05c0 .145 0 .29-.047.438zm122.414-7.863c-.196 0-.391 0-.586-.047l-4.64 10.254c.784.442 1.32 1.27 1.417 2.2l10.691 1.218c.247-.39.54-.781.93-1.074l-7.082-12.645c-.191.047-.39.094-.586.094h-.144m-54.493 15.383c.54-.586 1.27-1.023 2.102-1.074H151.465l4.05-10.989c-.39-.242-.68-.582-.925-.976l-19.383 5.617v.047c0 .246 0 .54-.05.781zm19.434 19.336 11.328-1.516a2.891 2.891 0 0 1 1.121-1.902c.492-.39 1.078-.586 1.711-.637l1.856-16.504-24.852-11.425c-.246.343-.586.585-.93.78l6.985 29.102h.34c1.172.149 2.101.977 2.441 2.102m-4.246-2-6.984-28.906h-.293l-4.055 10.937c.785.485 1.32 1.367 1.371 2.39a2.891 2.891 0 0 1-.637 2zM63.43 82.813a2.909 2.909 0 0 1-2.149-.93l-7.277 3.422c0 .144.047.242.047.39 0 1.368-.926 2.54-2.196 2.88l.684 23.241 28.613-26.171a2.256 2.256 0 0 1-.293-1.122l-15.039-2.93a2.984 2.984 0 0 1-2.39 1.22m65.77 13.234 1.757-9.965a2.464 2.464 0 0 1-.633-.437c-.293-.293-.539-.586-.683-.93l-16.457 3.71zm8.202-1.32 10.938-2.391c0-.148.05-.297.05-.441l-13.773-6.543c0 .046-.047.046-.047.097-.195.196-.39.39-.636.535zm-35.937 4.101a2.974 2.974 0 0 1 1.707-.539c.297 0 .586.05.883.148l5.808-9.714L86.57 85.5a2.769 2.769 0 0 0-.144.34zm29.2-2.637 5.32-1.171-3.368-8.594h-.242zm-76.27 15.918 23.19-5.468c-.046-.586.103-1.172.395-1.711a2.864 2.864 0 0 1 1.805-1.368c.195-.046.442-.093.637-.093l2.148-16.36a4.128 4.128 0 0 1-.488-.293zm28.855-6.836 9.867-2.343-8.695-15.625c-.145.047-.293.047-.488.047l-2.196 16.406c.047.05.145.05.196.097.683.293 1.074.786 1.316 1.418m-40.477-6.152 6.297-11.183c-.195-.196-.39-.391-.535-.633l-10.012 2.683c0 .782-.289 1.465-.777 1.953zm51.805 3.465 5.617-1.316c0-.489.149-.926.34-1.317L86.23 87.547zm-43.504 8.45-.683-22.411h-.047l-6.692 11.863zm132.957-5.274 10.305-15.969a2.597 2.597 0 0 1-.438-.828l-8.058.683zm21.438-8.399 5.031-5.468c-.05-.098-.098-.145-.148-.243a2.926 2.926 0 0 1-.344-1.418l-10.547-1.171c-.094.292-.29.585-.535.878zm-99.512 2.735 21.434-3.371-16.063-7.618-6.055 10.063c.293.242.54.586.684.926m87.254 10.496 5.664-6.102-2.684-13.523c-.246-.051-.488-.149-.73-.246l-10.5 16.21.098.098c.34.489.586 1.024.636 1.61zm6.887-7.422 4.394-4.781-6.687-7.618c-.051 0-.149.047-.196.047zM36.28 110.695l5.711-10.156-5.422-7.766c-.093.047-.195.047-.289.098zm181.344.485c.05-.047.102-.047.148-.047l-4.343-17.871c-.149 0-.246.05-.39.05-.298 0-.587-.05-.884-.148-.195-.047-.39-.148-.586-.246l-5.125 5.566zm-74.219-1.07h.735c1.172.144 2.101.925 2.441 2l16.063-1.465v-.196c.05-.535.246-.976.585-1.418l-10.69-13.765c-.345.144-.685.242-1.028.242h-.145c-1.172 0-2.246-.735-2.734-1.758l-10.696 2.297zm-1.758-.587-5.171-13.187-5.422 1.176zm-14.746 3.954 8.45-.586-6.008-15.04-23.145 3.614c0 .195-.047.34-.097.488zm-92.965-.293.926-.293V98.828l-2.199 13.379c.492.195.93.535 1.273.977m176.512 5.761c.535-.437 1.223-.734 1.953-.734h.391c.39.05.781.195 1.121.39l2.98-3.124a3.018 3.018 0 0 1-.585-2.149c.05-.39.195-.781.39-1.121l-11.18-12.746-5.03 5.422 1.613 8.105zm-73.633-6.152 4.004-.293c.098-.438.243-.879.489-1.219l-9.375-10.648zm-100.05-.098h13.722l-7.617-10.89zm60.695-4.98 3.418-4.59c-.149-.148-.246-.344-.34-.54l-5.227 1.224zm14.21 6.836 12.548-.832-18.848-10.399c-.05.047-.098.098-.098.149zm-11.28-1.512c.195-.05.34-.05.539-.05 1.265 0 2.437.831 2.828 2.1l6.351-.44-6.105-10.547c-.246.097-.535.097-.832.097-.39 0-.828-.097-1.172-.246l-3.805 5.078zM77.93 133.641l18.601-24.703-2.636-4.739-10.399 2.442c-.05.437-.148.828-.39 1.218a2.864 2.864 0 0 1-1.81 1.371c-.046 0-.144.047-.194.047l-3.223 24.317c.004.047.004.047.05.047m122.56-21.188-1.27-6.25-4.446 4.781zm-125.34 21.484c.39-.246.828-.44 1.316-.492l3.222-24.215c-.683-.199-1.269-.636-1.613-1.27l-24.656 5.86zm90.476-20.167h-.39c-1.075-.145-1.954-.832-2.344-1.758l-16.164 1.511v.149l27.199 12.937c.097-.093.195-.144.293-.242.539-.39 1.172-.633 1.804-.633h.196l5.078-14.21a2.984 2.984 0 0 1-1.367-1.61l-11.375 1.512a3.186 3.186 0 0 1-1.075 1.758 3.334 3.334 0 0 1-1.855.586m24.316.39 2.2-2.394-6.594-1.657zm-92.433 21.824 2.539-17.187a2.885 2.885 0 0 1-2-2.098c-.293-1.172.148-2.394 1.023-3.074l-1.804-3.273-18.215 24.171c.293.34.488.782.586 1.22zm85.207-24.117h-.098l-4.98 13.914 11.281-10.594-4.3-4.003-.048.046c-.539.442-1.172.637-1.855.637m16.894 12.695a3.041 3.041 0 0 1 1.075-.492v-10.105l-6.98-1.805-2.74 2.977zm-60.644-6.351c.05 0 .05 0 0 0 .39 0 .781.05 1.125.195l1.707-3.172c-.149-.097-.242-.242-.39-.39-.196-.293-.391-.586-.489-.93l-3.566.246zm-99.61 22.023 9.422-16.504c-.437-.539-.73-1.222-.73-1.953 0-1.465 1.074-2.734 2.488-2.93l.488-4.687H36.375zm97.606-21.191c.195-.195.39-.34.637-.441l-1.707-4.297-6.692.441zm-99.899 13.77-2.101-18.458-.488.145c0 .148.05.297.05.39 0 1.126-.586 2.055-1.515 2.59zm166.747-7.47 5.71-3.323c-.097-.391-.144-.782-.097-1.22.05-.245.098-.487.195-.734l-7.469-5.27v9.325c.633.145 1.172.535 1.563 1.027 0 .094.047.145.098.196m-132.473 7.031L52.44 114.891 52 118.945c1.172.39 2.004 1.516 2.004 2.832 0 .149 0 .246-.05.391zm86.086-1.027 15.625-3.176c0-.145.047-.293.098-.438l-27.102-12.843-.047.05zm-34.375 2.832c.195-.047.344-.047.488-.047.637 0 1.223.191 1.707.535L136.622 123c-.247-.297-.392-.688-.536-1.074-.149-.586-.149-1.176.047-1.711l-9.617-5.324-14.063.976zm20.75-18.164h-.39c-.095 0-.243-.047-.34-.047l-1.81 3.32c.298.34.493.73.638 1.172.148.488.148.977 0 1.465l12.644 7.812-9.664-13.918c-.344.149-.734.196-1.078.196m-23.094 20.312c.149-.633.535-1.172 1.024-1.562l-10.836-18.75-7.032.488a2.95 2.95 0 0 1-2.152 2.344c-.047 0-.144.05-.195.05l-2.535 17.137zm96.777-11.766c.293-.195.637-.343.977-.44v-7.52a2.368 2.368 0 0 1-.539-.196l-3.074 3.223c.34.586.535 1.27.437 1.953-.047.34-.144.633-.293.926zm-28.222 12.11v-19.828L178.468 127c.391.586.587 1.32.485 2.05 0 .15-.047.294-.094.442zm13.914 7.516-2.145-14.258h-.097a2.965 2.965 0 0 1-2.004-1.121 2.97 2.97 0 0 1-.586-2.2c.05-.34.148-.68.293-.976l-8.008-8.64v20.605zm-168.113-1.172 2.976-1.024-5.66-21.242.535 20.996c.88.149 1.66.59 2.149 1.27m122.707-2.977a3.09 3.09 0 0 1 1.023-1.465l-2.246-5.91-15.285-9.473c-.39.442-.875.735-1.461.88l-1.223 10.156c.293.05.586.195.832.343a2.864 2.864 0 0 1 1.367 1.805c.047.195.094.441.094.637zm55.027 7.813c.195-.489.488-.926.926-1.22.246-.195.492-.296.734-.44l-2.441-22.07a3.03 3.03 0 0 1-1.758-.88l-5.91 3.418v.637a2.987 2.987 0 0 1-1.121 2 3.08 3.08 0 0 1-.684.39l2.293 15.235zm-146.973 7.96c.196-.05.442-.05.637-.05s.34 0 .488.05l7.957-17.042a2.91 2.91 0 0 1-1.12-2.293c0-.293.046-.586.144-.832l-20.457-12.06c-.149.196-.344.392-.54.536zm149.852-11.476 2.344-14.598c-.438-.195-.875-.488-1.172-.93a2.975 2.975 0 0 1-.582-2.195c.047-.343.144-.683.293-.976l-2.442-2.051c-.246.144-.488.293-.734.39zm-89.207-7.961 8.543.05a2.93 2.93 0 0 1 2.101-2.148l1.22-10.156a2.716 2.716 0 0 1-.587-.195l-11.523 11.863c.101.149.148.344.246.586M64.16 156.789c.098-.148.246-.246.34-.344L51.66 124.66c-.195.047-.39.047-.637.047-.39 0-.73-.098-1.07-.195l-10.11 17.675zm95.95-18.8c.144-.052.34-.052.484-.052h.39c.586.102 1.172.344 1.614.735l10.644-8.938c0-.047 0-.047-.047-.093l-15.14 3.023zm28.855 15.429c.293-.195.586-.39.926-.488l-.633-14.551-11.133-7.715c-.246.293-.586.488-.93.684l1.953 12.109a3.108 3.108 0 0 1 1.809 1.074 2.96 2.96 0 0 1 .586 2.196c0 .195-.05.343-.098.539zm-12.746-8.738c.148-.246.39-.442.586-.637.297-.246.586-.39.93-.488l-1.907-11.961h-.195a3.522 3.522 0 0 1-1.563-.688l-10.64 8.985c.144.441.242.93.144 1.418v.05zm-79.442-3.664.535-3.614-14.792-.242zm14.551 3.953 9.57-6.59c-.046-.149-.148-.293-.195-.488v-.098l-21.926-.34-.582 3.953zm12.258-4.883c-.195 0-.441-.047-.637-.094l-3.27 5.223c.048.05.094.097.145.144l14.7-7.515h-8.06c-.245 1.023-1.026 1.851-2.148 2.148-.246.047-.488.094-.73.094m-29.883 14.258c.195-.094.34-.145.535-.192.196-.05.39-.097.586-.097l1.707-11.575-17.187-4.636c-.047.097-.094.144-.145.242l3.028 3.418zm53.172 7.328h.293c.293 0 .539.047.832.094l10.691-18.555c-.488-.438-.879-1.024-.976-1.707l-17.09-3.074c-.047.093-.047.144-.098.195-.293.535-.73.926-1.27 1.168zm-1.855.875c.144-.145.34-.293.488-.438l-7.715-22.07a3.1 3.1 0 0 1-2.246-1.172l-15.04 7.715c.145.54.098 1.125-.05 1.613zm-70.458-4.883 17.528-1.172c.097-.437.246-.875.535-1.219l-14.5-16.257c-.344.191-.684.289-1.074.34zm118.063-4.195 10.207-7.864-12.059-6.347.586 13.672c.34.047.633.195.926.343.098.047.195.145.34.196m-77.633-7.524c.39-.68 1.024-1.27 1.852-1.46.246-.051.492-.102.734-.102.293 0 .586.05.828.101l3.031-4.836-8.351 5.762zm-45.656 12.063 3.758-.242 2.297-16.75-7.13 15.332c.536.39.88.976 1.075 1.66m93.262 2.781 8.886-1.805 5.227-10.254c-.785-.636-1.223-1.613-1.078-2.683l-12.645-3.371c-.144.246-.34.441-.586.637-.293.242-.586.39-.925.488zm-65.575-5.953 12.743-8.79-11.817-3.175-1.707 11.473c.29.101.535.246.781.492m-57.812-4.594-.883-6.785-2.734.926c0 .101.05.246.05.39 0 .586-.195 1.172-.488 1.665zm110.64 13.086 11.38-2.293-1.122-17.187h-.101L149.266 162.5c.195.242.39.54.586.828M49.07 159.523l14.407-1.125c0-.097.046-.195.046-.343l-23.726-14.258 1.023 7.914zm52.395-6.054 13.23-5.715c0-.145-.047-.293-.047-.488l-3.078-.828zm107.863 9.226h.39l4.298-11.132c-.344-.196-.586-.438-.832-.735a2.932 2.932 0 0 1-.586-1.512l-7.422-2.687zm-8.45 2.782 2.294-18.407-9.715 7.52c.05.144.145.293.145.437.195.782.101 1.563-.29 2.246 0 .051-.05.051-.101.098zm-159.714-.34L39.5 152.492l-5.367-5.031zm137.45-15.77h-.391c-.098 0-.145 0-.246-.05l-4.735 9.277 14.5-2.93c0-.39.102-.781.297-1.125l-7.375-6.004c-.488.535-1.219.832-2.05.832m-67.872 35.79c.098-.052.195-.052.242-.098h.102l5.223-35.012c-.442-.192-.832-.535-1.172-.926l-17.285 7.473c.148.976-.196 1.953-.88 2.586zm92.676-11.036 3.855-6.394c-.093-.102-.195-.196-.242-.297a2.96 2.96 0 0 1-.586-2.196 2.985 2.985 0 0 1 1.125-2.004c.145-.097.243-.19.39-.242l-3.565-13.77-2.247 17.821.633 6.836c.196.102.442.195.637.246m-89.793 11.524 30.71-20.07c-.05-.048-.05-.145-.097-.192-.148-.54-.148-1.078.051-1.613l-24.61-14.31a3.247 3.247 0 0 1-1.32.782c-.195.051-.39.102-.586.102l-5.222 34.761c.386.098.777.293 1.074.54m-69.973-18.067 4.25-7.226-6.789-6.348 1.758 13.332c.293.094.535.144.781.242m122.121 8.938h9.86l12.941-18.75c-.195-.196-.34-.442-.488-.684l-15.625 3.172-7.57 14.844c.39.34.687.832.882 1.418m-92.578-2.93 19.09-15.285c-.05-.145-.097-.246-.144-.39l-17.825 1.171-1.906 13.867c.293.196.59.39.785.637m117.578-14.797c-.343 0-.734-.05-1.027-.195l-11.77 17.14 22.22-8.886-7.962-8.399a1.756 1.756 0 0 1-.683.293c-.293 0-.535.047-.778.047M71.047 172.56l1.851-13.38-3.562.243c-.195.883-.781 1.562-1.563 1.953zm38.133 14.011c.097-.191.242-.39.39-.582L95.8 159.863h-.046c-.246.051-.488.098-.781.098a2.917 2.917 0 0 1-1.758-.586l-19.387 15.477c.05.195.05.441.05.636 0 .196 0 .39-.05.54zm-41.063-3.465 1.656-4.832c-1.023-.441-1.757-1.515-1.757-2.734 0-1.172.687-2.148 1.613-2.64l-3.27-11.227c-1.222-.05-2.246-.781-2.687-1.86l-13.477 1.028zm95.508-8.738 7.031-13.77-7.96 1.61.78 12.11c.098.05.149.05.149.05m-103.762 17.04-11.183-29.54-3.907 6.59a2.9 2.9 0 0 1 .637 1.809c0 .73-.246 1.414-.683 1.902zm101.27-16.555c.293-.192.586-.391.976-.485l-.78-11.867-11.18 2.246c0 .39-.102.781-.297 1.125zm-99.461 17.382c.195-.047.39-.047.535-.047.293 0 .633.047.926.149l4.347-7.719-16.406-20.41zm73.726 4.543c.391-.586.977-1.074 1.762-1.27.242-.05.488-.097.73-.097h.098l7.668-28.176a2.197 2.197 0 0 1-.586-.437l-30.617 20.02c.05.148.098.245.149.39.097.441.144.879.046 1.316zm11.77-29.152h-.05l-7.712 28.176c.145.05.242.144.34.246l20.508-17.383a2.571 2.571 0 0 1-.246-.637 2.94 2.94 0 0 1 .195-2.05l-11.23-8.938c-.293.246-.684.39-1.075.54-.242 0-.484.046-.73.046m32.566 8.89h19.485c.047-.39.195-.831.39-1.171.391-.684 1.028-1.125 1.758-1.367l-.539-5.91zm-75.047 10.204-30.957-9.18 7.227 7.324zm75.586 9.328h.196c.539 0 1.023.144 1.515.39.094.047.192.145.29.196l5.03-4.836 12.65-13.04a4.142 4.142 0 0 1-.493-.78h-22.606l1.122 8.593c.343.051.687.196.976.344a2.848 2.848 0 0 1 1.367 1.805c.196.781.102 1.562-.289 2.25-.246.39-.539.73-.93.976zm-8.789-12.695 3.274-5.375h-8.985c-.05.195-.101.343-.195.492zm-92.726 1.316-6.395-6.496c-.34.195-.73.297-1.172.344l-1.855 5.422zm97.07 2.293c.195-.145.442-.242.688-.293l-.977-7.273-2.98 4.882zm-12.937-6.734a2.91 2.91 0 0 1-1.66-.54l-20.606 17.481 26.125-6.055 4-6.543-6.004-4.98a2.761 2.761 0 0 1-1.074.539c-.293.047-.54.098-.781.098m-85.985 22.656a2.76 2.76 0 0 1 .68-.102c1.371 0 2.539.93 2.883 2.2l13.867-2.786c0-.484.148-.925.39-1.367l.051-.047-14.406-14.55-10.84-.88zm91.797-12.211 5.758-1.317c.05-.488.148-.925.39-1.316l-3.023-2.492zm-93.41 13.187c.098-.101.195-.195.293-.297L68.21 186.18l-3.906 6.886c.539.536.882 1.27.882 2.098 0 .492-.148.977-.343 1.367zm20.457-4.054c.246-.149.492-.243.734-.344.243-.047.489-.094.782-.094.535 0 1.023.145 1.511.39l10.352-10.5a2.109 2.109 0 0 1-.195-.585c0-.098-.047-.149-.047-.242l-26.367-2.102zm17.824-1.22 20.848-.687-20.36-8.101c-.39.484-.925.875-1.562 1.023zm-13.62 2.49 12.202-2.345-1.07-7.91c-.39-.097-.734-.242-1.027-.488l-10.254 10.402c.047.145.097.243.148.34m56.2 10.598L177.636 200c-.051-.098-.051-.148-.098-.242a3.004 3.004 0 0 1 .293-2.25 2.59 2.59 0 0 1 1.027-1.024l-1.172-4.054h-.292c-1.172 0-2.247-.68-2.688-1.758l-7.078 1.66-11.621 19.14c.047.051.094.15.144.2m-4.152-.586c.297-.246.637-.39 1.027-.492.246-.047.489-.094.735-.094.34 0 .73.047 1.074.195l10.887-17.875-24.852 5.766c-.05.437-.148.875-.39 1.316 0 .051-.051.051-.051.098zm-30.273 3.219c.05 0 .101-.047.199-.047.242-.051.488-.098.777-.098.54 0 1.027.145 1.516.39l11.426-14.308a2.412 2.412 0 0 1-.489-.926l-20.945.684zm-1.461 1.027c.046-.098.144-.195.242-.293l-7.91-14.941-12.356 2.39c0 .246-.047.489-.144.735zm17.625-13.965c-.391 0-.782-.097-1.172-.242l-11.57 14.453c.144.242.292.484.34.781 0 .047 0 .094.05.145l25.242-3.074c0-.442.098-.832.293-1.223l-11.719-11.23a1.905 1.905 0 0 1-.73.293 3.68 3.68 0 0 1-.734.097m-39.696 12.258-1.222-8.305a2.968 2.968 0 0 1-2.395-1.656l-14.11 2.832c0 .047-.046.145-.046.191zm21.188 2.828-20.067-12.008a2.67 2.67 0 0 1-.976.633l1.316 8.984zm15.676-188.476h-.196a3.468 3.468 0 0 0-2.39 1.125c-.149.144-.246.343-.391.488h-19.387c-.047 0-.148 0-.195.047h-.047l-23.39 7.082c-.098-.098-.196-.196-.243-.246a3.39 3.39 0 0 0-2.297-.88h-.195a3.46 3.46 0 0 0-2.39 1.126c-.637.683-.93 1.562-.883 2.488 0 .098 0 .246.05.344L65.38 50.78a3.512 3.512 0 0 0-1.953-.586h-.196a3.447 3.447 0 0 0-2.39 1.121c-.637.684-.93 1.563-.88 2.493 0 .34.099.683.196 1.023l-9.133 8.79a3.543 3.543 0 0 0-1.562-.392h-.195c-1.903.098-3.368 1.711-3.27 3.665.047.78.34 1.511.828 2.097L36.23 86.57c-.246-.047-.44-.047-.683-.047a3.48 3.48 0 0 0-3.469 3.465c0 1.27.684 2.395 1.758 3.028l-3.027 18.507c-1.61.34-2.782 1.707-2.782 3.418 0 1.465.977 2.832 2.344 3.27l.633 23.437a3.466 3.466 0 0 0-1.856 3.079c0 1.804 1.418 3.32 3.223 3.464l7.766 19.532a3.48 3.48 0 0 0-1.172 2.59c0 1.902 1.562 3.468 3.465 3.468.343 0 .636-.05.93-.148l15.769 19.969a3.445 3.445 0 0 0-.34 1.515c0 1.903 1.563 3.469 3.465 3.469.586 0 1.172-.149 1.66-.441l10.207 7.175c0 .149-.05.297-.05.442a3.48 3.48 0 0 0 3.468 3.465c.828 0 1.61-.29 2.195-.782l18.899 7.375c.097.047.195.047.293.098l20.508 2.488a3.518 3.518 0 0 0 3.222 2.149c.293 0 .586-.047.88-.094.878-.246 1.66-.781 2.097-1.613.101-.145.148-.293.195-.442l25.05-3.074c.294.441.685.832 1.173 1.121.535.297 1.12.492 1.758.492.293 0 .586-.05.879-.101 1.609-.438 2.687-1.903 2.585-3.563l21.196-11.476a3.433 3.433 0 0 0 2.047.687c.297 0 .586-.05.882-.101a3.486 3.486 0 0 0 2.489-4.246.393.393 0 0 0-.098-.247l4.883-4.687 12.598-12.988c.343.097.636.148.976.148.293 0 .586-.05.879-.098 1.855-.488 2.98-2.39 2.492-4.25-.097-.34-.246-.632-.39-.925l3.613-5.957c.047 0 .144.05.191.05.149 0 .297.047.442.047a3.434 3.434 0 0 0 3.418-3.027 3.497 3.497 0 0 0-1.125-3.027l4.101-10.594a3.452 3.452 0 0 0 3.227-3.028c.191-1.367-.492-2.687-1.664-3.37l2.539-15.626c.539-.097 1.027-.34 1.469-.632.73-.586 1.218-1.368 1.316-2.297a3.592 3.592 0 0 0-.684-2.54c-.39-.534-.925-.878-1.515-1.12v-6.79c.343-.144.636-.292.93-.488.73-.586 1.218-1.367 1.316-2.293a3.582 3.582 0 0 0-.684-2.539c-.586-.734-1.367-1.222-2.293-1.32h-.097l-4.25-17.383a3.486 3.486 0 0 0 .785-4.246c-.442-.832-1.172-1.418-2.051-1.711a3.728 3.728 0 0 0-1.027-.144h-.051l-6.836-12.258a3.456 3.456 0 0 0 .832-2.442c-.098-1.855-1.613-3.27-3.469-3.27h-.191c-.344 0-.688.098-.977.196l-8.398-10.207c-.051-.047-.102-.098-.102-.098L181.79 47.707a4.35 4.35 0 0 0 .145-1.125 3.442 3.442 0 0 0-3.465-3.27h-.196c-.636.047-1.273.243-1.757.586l-12.453-6.984v-.293c-.098-1.855-1.61-3.27-3.47-3.27h-.195a3.48 3.48 0 0 0-2.488 1.22l-19.629-4.25a3.416 3.416 0 0 0-3.222-2.344zm-19.922 4.054h13.867l-9.18 3.809a3.4 3.4 0 0 0-2.004-.684h-.437zM98.39 44.97l14.207-12.352 2.636 3.711c-.632.684-.93 1.563-.879 2.488.047.93.442 1.758 1.122 2.395a3.39 3.39 0 0 0 2.296.879h.196c.586-.05 1.172-.195 1.66-.535l8.644 9.175-8.5-1.171-21.289-3.907c.051-.242-.046-.437-.093-.683zm50.925-3.219-9.96-8.742 17.824 3.86V37.01zM122.22 37.5l9.91-4.148c.148.242.34.484.586.68a3.384 3.384 0 0 0 2.293.882h.195a3.62 3.62 0 0 0 1.86-.687l8.101 7.082zm-32.227 1.516 17.82-5.422-10.984 9.57a3.26 3.26 0 0 0-1.664-.437h-.195a4.152 4.152 0 0 0-1.512.437l-3.613-3.125c.097-.344.148-.684.148-1.023zm71.531 1.172c.633-.149 1.22-.54 1.66-.977l11.77 6.445c-.101.34-.148.68-.101 1.07 0 .297.05.54.148.833l-14.258 10.988a2.994 2.994 0 0 0-.683-.39zm-10.789 3.515 7.422-4.445c.29.293.582.488.977.683l-1.418 17.383zm-20.609 5.469-8.883-9.426 24.219 4.05-11.524 6.009a3.418 3.418 0 0 0-2.394-.977h-.195c-.442.047-.832.195-1.223.344zm-63.375 3.61L84.227 41.75c.148.094.296.242.441.34l-1.074 5.078-12.938 8.84a3.436 3.436 0 0 0-1.71-.442h-.196c-.438 0-.879.149-1.27.293l-.925-.828c.195-.492.289-.976.242-1.468.098-.34.047-.586-.047-.782zM87.063 42.48c.484-.097.925-.246 1.367-.535l3.465 3.075c-.145.44-.243.93-.196 1.367.051.925.442 1.758 1.125 2.394.582.535 1.27.828 2.051.875l1.953 6.496-10.793-8.789zM134.96 52l13.672-7.125 7.273 14.305a3.32 3.32 0 0 0-.633 1.465l-5.664.292-14.648-8.007c.047-.243.047-.489.047-.735-.047-.093-.047-.144-.047-.195zm-37.793-2.977c.195-.144.39-.293.535-.488.149-.144.297-.34.39-.535l21.34 3.953 5.325.734-24.856 5.47zm82.957.391c.05 0 .05 0 0 0l10.012 9.18-8.79.683zm-17.82 10.84 14.062-10.84c.438.293.88.441 1.367.54l1.172 9.468zm-82.18 1.512 5.078-11.961L96.68 59.18l-7.86 2.78c-.636-.585-1.468-.874-2.343-.874h-.196a3.456 3.456 0 0 0-2.394 1.121c-.051.05-.098.098-.149.145zm-7.86-3.953 9.72-6.641-4.204 9.96-5.32-2.245v-.047c0-.395-.098-.735-.195-1.028zm31.79 1.906 21.824-4.79-8.984 6.25c-.586-.39-1.27-.585-1.954-.632h-.195c-1.074.047-2.004.586-2.637 1.414zm27.488-3.907h.195a3.966 3.966 0 0 0 2.051-.78l11.277 6.148-25.976 1.418 10.597-7.371c.489.39 1.172.586 1.856.586zM55.176 63.04l6.543-6.352c.539.293 1.074.442 1.66.442h.195c.489-.05.977-.145 1.418-.39l.828.78a2.65 2.65 0 0 0-.293 1.223zm126.511-1.418 10.743-.832 8.058 9.766a2.348 2.348 0 0 0-.293.734l-16.601 1.172zm-82.664 4.297.977-4.832 9.668 2.73zm-29.93-3.465h.094a3.477 3.477 0 0 0 2.395-1.125c.05-.047.098-.098.145-.144l4.738 2-10.938 12.449zM52.93 66.555l12.793-5.325-13.77 20.997-.832-12.454c1.176-.632 1.906-1.851 1.809-3.218zm37.402-2.59 7.129-2.54-.93 4.493zm71.484-1.27 17.43-.879 1.856 10.84-21.043 1.465A3.402 3.402 0 0 0 158.69 73l.73-8.352a3.458 3.458 0 0 0 2.395-1.953zm-10.496.54 4.344-.247c.34.586.828 1.028 1.414 1.367l-.683 7.813zm-33.11 1.804 30.423-1.66 5.957 10.496c-.488.54-.735 1.27-.832 2.004l-18.75 5.469c-.633-.832-1.656-1.32-2.735-1.32h-.195a2.33 2.33 0 0 0-1.172.292l-13.035-14.597c.195-.246.293-.442.34-.684zm-36.276 6.934L80.03 64.16l3.024.488a3.46 3.46 0 0 0 1.125 2.391c.195.2.39.344.636.441l-.488 3.516zm-14.942 5.52 10.79-12.305 1.859 7.566zm-12.597 5.515 11.328-17.336-2.93 10.742c-1.613.297-2.785 1.758-2.785 3.422 0 .195 0 .34.05.535zM99.46 68.262l12.5-2.442c.195.293.39.54.637.782.195.148.39.293.586.437l-2.832 17.875zm-12.254-.34c.73-.149 1.367-.54 1.902-1.078l.442-.582 4.246 1.316-6.883 2.54zm28.32-.492c.196-.047.391-.094.586-.145L129.2 81.934a3.149 3.149 0 0 0-.293.976L112.5 86.621zM86.766 82.469l10.648-13.035 11.227 17.136-21.383-2.976c-.149-.344-.297-.735-.492-1.125zm-.243-9.664 7.227-2.688-8.3 10.156zM38.281 87.89l10.547-17.383.781 12.062a3.43 3.43 0 0 0-2.05 3.024l-9.133 2.441-.145-.144zm145.703-13.04 16.36-1.12c.144.39.39.73.68 1.027l-4.442 9.812h-.05a3.435 3.435 0 0 0-2.391 1.125c-.344.39-.637.875-.782 1.368l-7.18.632zM82.47 74.317l1.469-.535-.586 4.149zm78.469 2.149L181.594 75l2.047 11.867zM67.382 79.93l12.844-4.785 1.562 6.398c-.344.293-.687.633-.93.977zm136.133-4.196h.195c.098 0 .195 0 .344-.05l6.687 11.964c-.195.196-.39.438-.586.68l-10.008-1.121c-.195-.781-.585-1.418-1.222-1.902l4.344-9.57zm-67.676 7.86 18.652-5.422c.149.195.34.39.54.586l-3.813 10.351h-.047c-.828.051-1.613.391-2.2.977l-13.132-6.25c-.05-.094 0-.195 0-.242zm23.34-4.64c.195-.145.343-.243.539-.438l24.219 11.132-1.81 15.82a3.517 3.517 0 0 0-1.562.684c-.586.489-1.027 1.125-1.222 1.809l-10.594 1.414a3.414 3.414 0 0 0-2.734-2.05zm-5.711 10.89 3.562-9.617 6.203 25.68-8.984-11.524c.39-.582.586-1.317.535-2-.05-1.024-.535-1.953-1.316-2.54zM63.429 83.3a3.48 3.48 0 0 0 2.587-1.172l14.406 2.832c.047.195.094.39.144.586L52.98 110.742l-.683-21.828a3.452 3.452 0 0 0 2.148-3.223v-.097l6.688-3.125c.683.539 1.465.832 2.297.832zm51.266 5.273 14.7-3.32c.195.293.39.535.636.73.094.098.242.196.39.297l-1.612 9.031zm19.828-2.441c.047-.047.145-.098.196-.195l12.789 6.054-9.86 2.149zm-33.007 12.11L87.5 86.132l21.582 2.976-5.273 8.743c-.196-.051-.438-.051-.637-.051a3.555 3.555 0 0 0-1.656.441zM56.102 111.18l25.93-23.68-2.052 15.477c-.097 0-.246.05-.34.05-.882.243-1.66.828-2.1 1.61a3.69 3.69 0 0 0-.49 1.562zm75.148-15.625 1.367-7.715 2.688 6.836zm-92.234-5.172 9.324-2.492c.05.046.097.097.144.148l-5.757 10.203-4.348-6.199c.34-.54.535-1.074.637-1.66zm43.359 13.035 2.047-15.332 8.008 14.453-8.883 2.102c-.297-.493-.688-.883-1.172-1.223zm103.906-13.332 7.274-.633c.047.098.097.242.195.34l-8.984 13.965zm13.328-.145c.051-.097.149-.195.196-.293l9.765 1.075c.047.39.149.78.344 1.12l-4.445 4.79zM94.824 102l-6.836-12.3 11.914 10.347c-.097.246-.148.539-.195.781zm11.082-2.879 5.617-9.375 14.211 6.79-19.53 3.073c-.052-.195-.196-.343-.298-.488zm-61.668 1.27 5.715-10.157.586 19.141zm141.356 6.543 10.062-15.625c.047 0 .098.05.145.05l2.59 12.985-5.274 5.715-6.933-1.758c-.149-.489-.344-.977-.59-1.367zm14.797-4.786-2.004-9.96 5.468 6.199zm6.687-3.71 4.594-4.981c.094.05.195.098.289.098.344.097.687.148 1.027.148l3.856 15.82zM36.766 108.835V93.898l4.64 6.641zm101.808-12.399 9.766-2.101c.637 1.023 1.758 1.71 2.98 1.71h.196c.293 0 .586-.05.828-.148l10.254 13.184c-.196.34-.34.73-.391 1.121l-15.285 1.418a3.393 3.393 0 0 0-2.684-1.953c-.148 0-.293-.05-.39-.05h-.051zm-6.543 1.415 4.2-.93 4.003 10.207zm-25.148 4.054 22.12-3.469 5.614 14.063-7.617.54zm94.094 3.125 4.492-4.836 10.594 12.059a3.252 3.252 0 0 0-.29.976 3.434 3.434 0 0 0 .438 2.2l-2.441 2.586c-.293-.145-.637-.196-.926-.243-.149 0-.297-.046-.442-.046-.683 0-1.367.195-1.953.582l-7.91-5.614zm-163.38 7.176 5.325-9.473 6.64 9.473zm99.56.098-3.66-9.18 7.273 8.25c-.098.195-.192.441-.293.688zm-41.11-8.106 4.195-.976-2.734 3.613zm15.914 9.817-5.563-9.621 16.16 8.886zm-13.18-4.883 3.414-4.543a3.4 3.4 0 0 0 .977.144c.2 0 .394 0 .586-.046l5.52 9.523-5.176.34c-.536-1.27-1.758-2.051-3.172-2.051h-.246zm-14.844-2.055 9.715-2.293 2.293 4.153-17.382 23.093 2.98-22.312a3.576 3.576 0 0 0 2.004-1.563c.195-.344.289-.734.39-1.078zm-50.734 4.836 1.172-7.078v7.71l-.242.102c-.297-.343-.586-.585-.93-.734zm162.5-1.172 3.223-3.465.926 4.54zm-141.36 3.32 23.438-5.566c.344.442.781.781 1.32 1.024l-3.124 23.488c-.293.047-.54.148-.782.293zm114.555-2.246 10.692-1.418c.242.54.633.977 1.074 1.32l-4.836 13.524c-.73.051-1.414.297-1.953.735l-.047.05-25.539-12.113 14.309-1.316a3.47 3.47 0 0 0 2.586 1.71c.148 0 .293.047.441.047.781 0 1.512-.242 2.098-.73.59-.54.98-1.125 1.175-1.809zm20.993 1.66-2.586-2.39 3.906.977zM79.688 134.524l17.53-23.293 1.266 2.293c-.879.883-1.218 2.149-.879 3.32.293 1.028.977 1.86 1.954 2.298l-2.442 16.406-17.039-.242c-.148-.297-.242-.54-.39-.782zm103.273-22.171a3.677 3.677 0 0 0 1.61-.536l3.663 3.371-9.425 8.836zm8.64 2.835 2.247-2.445 6.347 1.613v9.375c-.195.051-.343.149-.488.196zm-53.515-.539 2.539-.195c.098.242.242.488.438.684.05.05.097.148.148.195l-1.32 2.488c-.196-.047-.34-.093-.536-.093zm-101.172-.046H50.54l-.39 3.804c-1.516.39-2.54 1.758-2.54 3.32 0 .735.243 1.419.633 2.004l-8.594 14.942zm93.992.535 4.692-.34 1.414 3.562c-.051 0-.051.051-.098.051zm-17.625 1.222 13.133-.882 9.18 5.03a3.69 3.69 0 0 0 .05 1.614c.098.293.196.582.34.879l-10.789 11.082a3.246 3.246 0 0 0-1.66-.437h-.246zm89.356 7.422v-8.058l6.394 4.543c-.047.144-.094.289-.094.484-.05.344-.05.688 0 1.027l-5.03 2.93c-.345-.441-.782-.73-1.27-.926zm-150.098-5.18.293-2.683 14.844 13.723-13.137-7.766v-.098c-.047-1.367-.828-2.59-2-3.175zm105.125 12.212-10.25-14.75 24.852 11.769zM33.547 117.727a3.293 3.293 0 0 0 1.121-1.418l1.121 9.91zm110.25-1.223c.297 0 .586-.05.883-.149l8.152 11.672-10.352-6.394c.051-.442.051-.93-.097-1.371l-.047-.196a2.583 2.583 0 0 0-.441-.879l1.464-2.734c.149.05.293.05.438.05zm-39.547.441 6.395-.441 10.496 18.164c-.34.34-.586.73-.782 1.172l-20.796-.293L102 119.285c1.027-.34 1.906-1.219 2.25-2.34zm111.227 2.735 2.492-2.64v6.69c-.149.047-.293.145-.438.196l-1.906-1.614c.098-.242.148-.488.195-.73a3.737 3.737 0 0 0-.343-1.902zm-36.375 7.422 9.668-9.133v17.773l-9.375-6.492c0-.05 0-.102.05-.148a3.526 3.526 0 0 0-.343-2zm12.062 10.203v-19.043l6.93 7.52c-.094.241-.196.538-.196.827-.093.93.149 1.809.688 2.54.484.636 1.219 1.124 2 1.269l1.953 12.941zm-50.93-12.844c.391-.145.782-.39 1.075-.633l14.843 9.18 2.098 5.469c-.34.293-.586.683-.781 1.074l-16.114-2.93c0-.098-.046-.246-.046-.344-.246-.879-.832-1.66-1.614-2.097-.195-.098-.34-.196-.535-.246zm64.551 2.543 5.371-3.125c.39.34.88.582 1.367.683l2.391 21.336c-.195.098-.34.196-.488.344-.34.29-.633.633-.88 1.024l-7.323-2.637-2.196-14.598c.145-.097.34-.195.438-.293.734-.586 1.222-1.367 1.32-2.297v-.437zm-151.27-2.832.047-.05 19.778 11.667c-.05.195-.05.395-.05.637 0 .926.343 1.808 1.026 2.441l-7.668 16.406h-.535zm160.4.144c.05-.05.1-.05.148-.097l1.855 1.562c-.098.246-.145.54-.195.781-.098.93.148 1.81.683 2.54.293.343.637.683 1.028.878l-1.711 10.692zm-87.11 11.575 10.988-11.282-1.121 9.278c-.93.343-1.664 1.125-2.055 2.05zm-93.407 5.468-.437-16.457 4.441 16.797-2.199.781c-.437-.585-1.07-.925-1.805-1.12zm7.13.68 9.667-16.941c.293.05.535.097.828.097h.344l12.45 30.813zm118.214-8.984 12.89-2.586-9.085 7.617c-.438-.293-.977-.488-1.512-.586-.148 0-.293-.047-.441-.047h-.196zm18.992-1.414c.149-.098.293-.196.438-.293l10.598 7.37.636 13.97c-.148.046-.297.144-.394.195l-6.98-5.715c0-.098.046-.195.046-.293a3.609 3.609 0 0 0-.68-2.54c-.441-.585-1.078-.976-1.757-1.218zm-13.77 8.398 10.106-8.496c.39.246.832.441 1.32.539l1.805 11.18a3.212 3.212 0 0 0-.68.39 4.654 4.654 0 0 0-.492.442l-11.96-3.176c0-.293-.047-.586-.098-.879zm-67.628.39-9.961-2.687 10.305.149zm2.344.633.441-3.125 20.996.344-8.937 6.153zm28.125-2.734h5.715l-11.672 5.961 2.343-3.762c.149 0 .246.051.395.051.289 0 .582-.05.875-.098 1.078-.292 1.953-1.125 2.344-2.152zm-33.008 15.43-11.18-12.547-2.297-2.586 15.676 4.195-1.613 10.793c-.094 0-.195.051-.29.051-.1 0-.195.047-.296.094zm46-13.719a3.69 3.69 0 0 0 1.07-1.074l16.457 2.98c.145.489.438.977.781 1.368l-10.351 17.917c-.195-.05-.34-.05-.535-.05zm-18.75 6.836 14.351-7.375c.54.54 1.223.93 2.004 1.027l7.52 21.387L120.996 148c.098-.344.098-.734.05-1.125zm-43.555-7.078c.195-.05.34-.102.535-.149l13.965 15.672a2.257 2.257 0 0 0-.293.735l-16.554 1.074zm114.352 12.695-.535-12.453 10.644 5.617-9.277 7.176c-.051 0-.051-.05-.098-.05-.293-.095-.488-.196-.734-.29zm-77.586-7.226 5.515-3.813-1.558 2.54c-.195-.048-.395-.048-.637-.048-.293 0-.586.047-.879.098-.781.195-1.511.684-1.953 1.367zm47.754-1.172c.246-.098.488-.246.73-.442.196-.144.344-.293.492-.437l11.961 3.172c0 .93.344 1.758.977 2.441l-4.98 9.719-8.106 1.656zm-65.235 9.96 1.563-10.597 10.3 2.785-11.57 8.008c-.148-.102-.195-.148-.293-.195zm-60.691-9.327 1.805-.637.632 4.836-2.828-2.637c.243-.488.39-1.023.39-1.562zm32.762 11.523 5.613-12.063-1.805 13.137-2.976.196c-.196-.489-.442-.926-.832-1.27zm-27.54-4.688-.878-6.738 22.023 13.23-13.187 1.028zm108.497 10.84 9.863-17.09 1.027 15.333-10.597 2.148c-.098-.145-.196-.246-.293-.39zm-43.993-11.328 5.86-4.054 2.195.585zM209.57 161.72l-3.71-14.356 6.296 2.293c.098.54.344 1.028.637 1.418.195.246.39.438.633.637zm-15.476-6.934 8.492-6.543-2 16.211-6.64-7.031c.39-.73.437-1.61.242-2.442-.094-.097-.094-.144-.094-.195zm-15.48-4.933c.73 0 1.464-.243 2.05-.68l6.79 5.516c-.052.195-.102.39-.15.585l-13.183 2.637 4.102-8.058zm-138.477 11.43-4.739-11.966 3.618 3.418zm58.3-4.4 16.649-7.175c.246.246.492.441.781.637l-5.078 33.836-13.133-24.953c.54-.633.828-1.512.781-2.344zm19.774-6.1c.098 0 .195-.048.297-.048.437-.101.875-.343 1.265-.636l23.977 13.964c-.098.438-.05.93.047 1.368l-30.125 19.629c-.195-.098-.34-.196-.535-.293zm84.426 16.308 1.902-15.235 2.836 10.938c-.05.05-.102.05-.148.098-.735.586-1.22 1.367-1.32 2.293a3.62 3.62 0 0 0 .683 2.539l.05.05-3.417 5.665zm-159.278-.145-1.515-11.672 5.468 5.176-3.855 6.543c-.05 0-.098 0-.098-.047zm129.446-6.25 15.039-3.027c.047.047.047.098.094.144l-12.547 18.262h-9.278c-.144-.39-.34-.73-.636-1.074zm-98.047-1.125 16.601-1.074-18.117 14.453c-.097-.097-.195-.144-.293-.246zm116.015-.293c.29 0 .586-.05.875-.097.149-.047.297-.098.493-.149l7.175 7.617-20.07 8.008 10.695-15.476c.246.047.536.097.832.097zm-121.093.637 2.632-.195-1.46 10.594-2.54-8.692c.633-.441 1.122-1.027 1.368-1.707zm4.734 15.184 18.848-15.086a3.547 3.547 0 0 0 1.707.437c.195 0 .39 0 .539-.05l13.43 25.492-.051.047-34.52-10.254v-.196c.047-.097.047-.246.047-.39zM51.172 161.28l12.207-.93c.535.977 1.465 1.66 2.59 1.805l3.074 10.551a3.416 3.416 0 0 0-1.563 2.879c0 1.219.637 2.344 1.66 2.98l-1.269 3.614zm112.062 1.317 6.54-1.317-5.907 11.524zM45.36 168.457l3.227-5.418 9.664 25.633-12.938-16.406c.391-.586.586-1.223.586-1.907 0-.73-.195-1.316-.539-1.902zm105.227-3.32 10.254-2.051.73 10.937c-.144.047-.293.149-.437.196l-10.696-8.547c.051-.145.102-.34.149-.535zm-88.574 26.562-9.375-24.804 14.258 17.773-4.004 7.082c-.196-.05-.438-.05-.684-.05h-.195zm53.074-4.687 29.98-19.582s.051 0 .051.05l-7.52 27.489c-.195 0-.437.05-.636.101a3.654 3.654 0 0 0-1.805 1.172l-19.922-8.058c.047-.391 0-.73-.097-1.125 0 .004-.051-.047-.051-.047zm32.375-18.946c.195 0 .39-.05.586-.097.344-.098.633-.196.926-.39l10.644 8.495c-.242.637-.242 1.367-.094 2.051.047.145.094.242.145.39l-19.582 16.602zm34.812 7.957 18.118-7.226.437 4.883a3.465 3.465 0 0 0-1.656 1.468c-.195.29-.297.586-.39.926h-16.509zm-4.882 2.446h21.73c.05.094.098.195.145.289l-12.352 12.746-4.734 4.543a3.047 3.047 0 0 0-1.563-.442l-.976-3.417c.34-.243.586-.586.78-.926.49-.782.587-1.758.34-2.637-.241-.879-.827-1.66-1.609-2.102-.246-.144-.539-.242-.785-.34zm-11.082 0h7.52l-2.54 4.148zm-85.106 5.906-5.766-5.809 24.66 7.325zm-9.672-5.422c.246-.047.492-.094.688-.195l5.273 5.324-7.523-.586zm91.36 1.758c.293 0 .586-.047.879-.094.34-.097.636-.195.925-.39l5.422 4.441-3.66 6.008-23.977 5.566 18.801-15.922c.485.246 1.024.39 1.61.39zm10.351 3.422 2.051-3.371.73 5.52c-.046 0-.046 0-.093.046zm-96.047 18.21-6.98-16.452 9.863.78 14.012 14.157a3.079 3.079 0 0 0-.293.93l-13.086 2.637a3.464 3.464 0 0 0-3.172-2.102c-.098.05-.242.05-.344.05zm92.532-12.452 2.246-3.711 2.297 1.906a4.882 4.882 0 0 0-.247.781zM95.8 199.17l-12.059-12.21 24.656 1.953c0 .098.047.149.098.246l-9.863 10.012a3.504 3.504 0 0 0-1.414-.297c-.297 0-.586.05-.883.098-.145.05-.34.148-.535.199zm-30.86-6.155 3.223-5.711 6.64 15.625-9.327-6.543c.148-.39.246-.782.246-1.219-.051-.785-.293-1.566-.782-2.152zm48.145-1.852a3.87 3.87 0 0 0 1.172-.781l17.87 7.125-18.065.586zm-12.258 9.274 9.281-9.422c.145.097.34.148.536.242l.976 7.133zm67.14-7.665 6.493-1.515c.637 1.027 1.71 1.66 2.93 1.66l.976 3.324c-.34.29-.633.582-.875.977a3.526 3.526 0 0 0-.39 2.535l-19.973 10.793zm-26.66 6.204 23.387-5.422-10.058 16.55c-.293-.046-.535-.097-.828-.097-.293 0-.586.05-.88.097-.292.098-.585.196-.831.344l-11.036-10.597c.102-.29.196-.586.247-.875zm-26.367 1.46 19.825-.632c.047.148.148.293.242.39l-10.938 13.672a3.432 3.432 0 0 0-1.367-.293c-.242 0-.488 0-.683.051zm-14.257 2.493 11.62-2.246 7.227 13.671-18.894-11.328c-.004-.097-.004-.097.047-.097zm37.207-1.075c.293 0 .586-.05.879-.097.144-.051.34-.098.535-.196l11.234 10.793a1.648 1.648 0 0 0-.148.684l-24.414 2.977c-.051-.098-.098-.243-.149-.34l11.133-13.918c.246.047.586.097.93.097zm-56.102 4.833 12.5-2.54a3.505 3.505 0 0 0 2.242 1.563l1.074 7.133zm17.137-1.317a1.82 1.82 0 0 0 .488-.34l17.773 10.645-17.039-2.051zm0 0"/><path fill="url(#f)" d="M91.016 45.703v14.063c27.687-14.407 62.742-9.961 85.937 13.234 2.442 2.438 6.492 2.438 8.984 0 2.442-2.492 2.442-6.547 0-8.984-25.539-25.637-63.43-31.743-94.921-18.313zm0 0"/><path fill="url(#g)" d="M177 176.953c-28.66 28.66-75.34 28.66-104 0C59.082 163.086 51.465 144.63 51.465 125c0-11.867 2.785-23.29 8.058-33.496V68.848c-29.101 33.84-27.59 85.058 4.442 117.136C80.762 202.781 102.883 211.23 125 211.23c22.07 0 44.188-8.398 60.984-25.246 2.446-2.437 2.446-6.492 0-8.984-2.488-2.488-6.539-2.488-8.984-.047zm0 0"/><path fill="url(#h)" d="M125 1.805C56.934 1.805 1.805 56.985 1.805 125S56.985 248.195 125 248.195 248.195 193.015 248.195 125c0-68.02-55.18-123.195-123.195-123.195zm-.047 226.078c-56.789 0-102.832-46.047-102.832-102.832 0-35.938 18.406-67.531 46.29-85.938v85.938c0 31.152 25.339 56.543 56.542 56.543 31.152 0 56.543-25.344 56.543-56.543 0-31.153-25.344-56.594-56.543-56.594-17.629 0-33.45 8.152-43.8 20.852V31.934c13.28-6.297 28.175-9.766 43.8-9.766 56.785 0 102.879 46.043 102.879 102.883 0 56.785-46.094 102.832-102.879 102.832zM81.203 125.05c0-24.172 19.625-43.848 43.797-43.848s43.797 19.676 43.797 43.848c0 24.12-19.625 43.797-43.797 43.797-24.219-.051-43.797-19.676-43.797-43.797zm0 0"/><path fill="url(#i)" d="M187.305 74.316c3.172-3.222 3.172-8.398 0-11.574a87.695 87.695 0 0 0-29.149-19.336c-10.547-4.293-21.73-6.445-33.156-6.445a87.89 87.89 0 0 0-34.668 7.082l-1.121.488V62.84l2.684-1.367c10.156-5.27 21.582-8.055 33.105-8.055 19.188 0 37.207 7.469 50.734 20.996a8.123 8.123 0 0 0 5.758 2.39c2.149-.144 4.25-.976 5.813-2.488zm-5.813.536c-1.61 0-3.27-.633-4.492-1.852-14.352-14.36-33.203-21.535-52-21.535-11.672 0-23.34 2.734-33.938 8.254V45.703A86.833 86.833 0 0 1 125 38.77c22.117 0 44.188 8.398 60.984 25.246 2.446 2.437 2.446 6.492 0 8.984a6.4 6.4 0 0 1-4.492 1.852zm0 0"/><path fill="url(#j)" d="M187.305 175.684c-1.563-1.563-3.614-2.391-5.809-2.391-2.2 0-4.25.828-5.762 2.39-13.527 13.528-31.543 20.95-50.734 20.95s-37.207-7.422-50.734-20.95C60.742 162.157 53.273 144.142 53.273 125c0-11.375 2.73-22.656 7.86-32.664l.195-.395V63.914l-3.223 3.762c-14.402 16.797-21.925 38.281-21.144 60.496.781 22.367 9.914 43.36 25.687 59.133a87.695 87.695 0 0 0 29.149 19.336c10.547 4.297 21.726 6.445 33.203 6.445 11.426 0 22.61-2.149 33.156-6.445 10.934-4.446 20.75-10.938 29.102-19.336a8.243 8.243 0 0 0 .047-11.621zm-1.32 10.3C169.186 202.781 147.07 211.23 125 211.23c-22.117 0-44.191-8.398-61.035-25.246-32.082-32.078-33.547-83.3-4.445-117.136v22.656c-5.274 10.254-8.055 21.68-8.055 33.496 0 19.629 7.664 38.086 21.531 52 14.356 14.36 33.156 21.484 52.004 21.484s37.695-7.175 52-21.484a6.332 6.332 0 0 1 4.492-1.852c1.66 0 3.274.633 4.543 1.852a6.379 6.379 0 0 1-.05 8.984zm0 0"/><path fill="url(#k)" d="M240.188 76.367c-6.301-14.89-15.336-28.273-26.81-39.746s-24.855-20.508-39.745-26.809C158.25 3.32 141.843 0 125 0c-16.895 0-33.25 3.32-48.68 9.813-14.894 6.3-28.273 15.335-39.75 26.808C25.098 48.094 16.066 61.477 9.766 76.367 3.273 91.75-.047 108.157-.047 125s3.32 33.25 9.813 48.68c6.296 14.894 15.332 28.273 26.804 39.75 11.477 11.472 24.856 20.507 39.75 26.804 15.43 6.543 31.785 9.813 48.68 9.813s33.25-3.32 48.68-9.813c14.894-6.297 28.273-15.332 39.75-26.804 11.472-11.477 20.507-24.856 26.804-39.746 6.543-15.434 9.813-31.79 9.813-48.684s-3.367-33.25-9.86-48.633zM125 248.195C56.934 248.195 1.805 193.066 1.805 125S56.934 1.805 125 1.805 248.195 56.985 248.195 125 193.015 248.195 125 248.195zm0 0"/><path fill="url(#l)" d="M124.953 22.168c-15.625 0-30.52 3.465-43.8 9.766v57.37c10.35-12.695 26.171-20.847 43.796-20.847 31.153 0 56.543 25.39 56.543 56.594 0 31.152-25.34 56.543-56.543 56.543-31.152 0-56.543-25.344-56.543-56.543V39.062C40.527 57.47 22.117 89.11 22.117 125c0 56.79 46.047 102.832 102.832 102.832 56.79 0 102.883-46.043 102.883-102.832S181.738 22.168 124.953 22.168zm0 203.855c-55.664 0-100.98-45.312-100.98-100.976 0-32.91 15.87-63.477 42.629-82.469v82.469c0 32.18 26.171 58.351 58.347 58.351 32.18 0 58.352-26.171 58.352-58.347 0-32.18-26.172-58.399-58.352-58.399-15.918 0-30.957 6.446-41.941 17.871V33.105c13.183-6.054 27.293-9.082 41.941-9.082 55.715 0 101.028 45.313 101.028 101.028 0 55.66-45.313 100.972-101.024 100.972zm0 0"/><path fill="url(#m)" d="M124.953 168.797c24.168 0 43.797-19.676 43.797-43.797 0-24.172-19.629-43.848-43.797-43.848-24.172 0-43.8 19.676-43.8 43.848.05 24.172 19.628 43.797 43.8 43.797zm0-85.742c23.14 0 41.942 18.851 41.942 41.996s-18.801 41.941-41.942 41.941c-23.148 0-41.945-18.797-41.945-41.941 0-23.196 18.797-41.996 41.945-41.996zm0 0"/><path fill="url(#n)" d="M124.953 3.664C57.961 3.664 3.613 58.008 3.613 125s54.348 121.336 121.34 121.336S246.29 192.039 246.29 125c0-67.043-54.297-121.336-121.336-121.336zm0 226.656C66.797 230.32 19.63 183.156 19.63 125S66.797 19.727 124.953 19.727c58.152 0 105.32 47.168 105.32 105.32 0 58.156-47.168 105.273-105.32 105.273zm0 0"/><path fill="url(#o)" d="M47.754 204.25c-.93 1.07-.977 2.438-.246 3.367-.926-.539-2.149-.39-3.074.633-.832.977-1.121 2.734.586 4.25l4.933 4.395 7.274-8.153-5.125-4.543c-1.614-1.512-3.32-1.12-4.348.051zm1.613 8.348-1.906-1.707c-.246-.246-.344-.637-.098-.883a.633.633 0 0 1 .926-.047l1.906 1.707zm2.684-2.98-2.004-1.759c-.34-.293-.39-.73-.094-1.023.29-.293.68-.293 1.024 0l2 1.758zm-8.985-14.891-8.203 7.18 2.2 2.488 8.203-7.176zm-5.714-7.375-1.852-2.735-6.64 4.543-1.665-2.394-2.39 1.613 5.175 7.52 2.395-1.61-1.66-2.394zm-8.836-15.329c-1.27-2.59-3.47-3.125-5.078-3.03l.097 3.124c.88-.144 1.903.297 2.344 1.172.683 1.418.098 2.93-1.27 3.566s-2.93.247-3.613-1.171c-.441-.88-.144-1.954.488-2.59l-2.441-1.953c-1.074 1.273-1.902 3.273-.637 5.859 1.516 3.078 4.692 4.398 7.719 2.883 2.977-1.465 3.906-4.785 2.39-7.86zm-6.934-17.289-2.734.883 1.27 3.953-7.618 2.493 1.027 3.125 10.352-3.372zm-2.098-8.882-1.32-.149-.684-3.86 1.172-.585-.636-3.711-10.059 5.812.734 4.102 11.426 2.098zm-7.96-1.028 3.273-1.66.39 2.149zm5.956-19.48-10.988-3.762.102 3.762 7.37 2.195-7.273 2.54.098 3.757 10.836-4.246zm1.368-18.07-2.88-.34-.636 4.933-1.172-.148.586-4.836-2.879-.34-.586 4.832-1.074-.145.633-4.933-2.88-.34-1.026 8.203 10.84 1.317zM31.25 72.07l-.879-.976 2.004-3.367 1.316.289 1.903-3.22-11.422-2.1-2.102 3.562 7.325 9.035zm-5.371-5.906 3.566.875-1.125 1.86zm8.254-8.695c2.586 2.101 6.004 1.562 8.152-1.07 1.809-2.2 1.367-4.446.684-5.86l-2.832 1.367c.488.73.539 1.852-.098 2.633-1.023 1.223-2.637 1.273-3.809.344-1.171-.977-1.464-2.54-.437-3.758.633-.781 1.707-.977 2.539-.637l.781-3.027c-1.566-.438-3.761-.39-5.617 1.855-2.098 2.59-2.004 6.055.637 8.153zm11.812-16.992 5.422 5.91 2.442-2.246-5.418-5.907 2.148-1.953-1.953-2.152-6.742 6.203 1.953 2.148zm8.743-11.032 6.398 8.836 2.684-1.953-6.395-8.836zM70.75 19.383l1.469 7.57-5.57-5.32-3.27 1.805 8.742 7.664 3.66-2-1.758-11.524zm16.016 1.71-.391-1.12 4.543-1.66-.977-2.688-4.543 1.66-.39-1.023 4.687-1.711-.976-2.684-7.813 2.781 3.762 10.254 7.762-2.832-.977-2.687zm44.191-12.206c1.027.05 2.246.488 3.125 1.222l1.902-2.246c-1.172-1.074-2.78-1.66-4.539-1.758-2.98-.148-4.64 1.512-4.687 3.368-.195 4.297 5.906 3.566 5.86 4.59 0 .44-.638.539-1.223.539-1.465-.098-2.684-.782-3.418-1.563l-1.856 2.344c1.125 1.12 2.637 1.855 4.98 2 2.93.148 4.786-1.172 4.883-3.563.196-4.054-5.906-3.468-5.859-4.492 0-.297.195-.492.832-.441zm11.082 9.375 8.11 1.562.535-2.832-4.883-.926.246-1.171 4.785.925.535-2.832-4.785-.926.195-1.074 4.883.926.54-2.832-8.106-1.562zm20.95-6.106-7.423 8.938 3.516 1.27.781-1.075 3.711 1.32-.047 1.317 3.512 1.27-.144-11.622zm.73 7.422-2.047-.73 2.195-2.98zm18.945 1.223-5.125-2.735-5.176 9.57 2.93 1.563 1.613-3.027 1.07.586-.288 3.762 3.32 1.804.094-4.344c.976.047 2.394-.343 3.273-2.003.93-1.805.54-3.954-1.71-5.176zm-1.266 3.566c-.296.535-.882.535-1.367.242l-1.761-.976.832-1.516 1.757.977c.489.297.828.734.54 1.273zm15.133 15.328-1.46-2.78c-.735.487-1.86.585-2.641 0-1.266-.977-1.368-2.54-.485-3.763.88-1.218 2.489-1.562 3.758-.586.781.586 1.027 1.711.734 2.54l3.075.636c.39-1.613.246-3.808-2.051-5.52-2.734-2.05-6.152-1.804-8.203.88-2 2.687-1.317 6.054 1.367 8.105 2.344 1.809 4.54 1.27 5.906.488zm5.18 8.985 3.023-2.88 2.739 2.833-3.028 2.883 2.293 2.39 7.864-7.57-2.297-2.39-2.782 2.687-2.734-2.836 2.781-2.684-2.293-2.394-7.863 7.57zm29.05 41.797-1.706-4.684 1.12-.395 1.712 4.543 2.683-.976-1.707-4.543 1.024-.39 1.71 4.687 2.684-.977-2.879-7.762-10.254 3.81 2.88 7.765zm4.395 5.714c-3.27.684-4.98 3.711-4.297 7.032.586 2.785 2.586 3.855 4.149 4.199l.687-3.078c-.882-.094-1.808-.781-2.004-1.758-.34-1.563.637-2.832 2.149-3.172 1.465-.293 2.879.488 3.222 2.05.196.977-.343 1.954-1.125 2.395l1.907 2.489c1.316-.93 2.683-2.688 2.097-5.52-.73-3.219-3.464-5.32-6.785-4.637zm-2.195 23.489c.144 3.367 2.586 5.86 5.906 5.71 3.32-.148 5.52-2.882 5.371-6.25-.144-3.367-2.586-5.859-5.91-5.71-3.32.144-5.562 2.879-5.367 6.25zm8.348-.39c.097 1.562-1.075 2.683-2.59 2.733-1.512.047-2.781-.882-2.832-2.492-.098-1.562 1.074-2.687 2.59-2.734 1.515-.098 2.734.879 2.832 2.492zm-.73 13.034c-4.298-.441-3.86 5.715-4.884 5.613-.441-.046-.539-.632-.441-1.265a5.023 5.023 0 0 1 1.758-3.371l-2.246-1.953c-1.172 1.027-2 2.539-2.246 4.882-.293 2.93.878 4.833 3.27 5.079 4.054.437 3.76-5.715 4.788-5.614.29.047.484.243.39.875a5.405 5.405 0 0 1-1.417 3.078l2.148 2c1.121-1.12 1.809-2.683 2.004-4.441.34-2.98-1.273-4.687-3.125-4.883zm-10.208 17.528-.832 3.226 4.203 1.07 5.371 5.567.926-3.613-3.078-2.829 4.055-1.078.93-3.61-7.376 2.345zm3.465 14.699c-3.953-1.66-5.32 4.394-6.297 4.004-.39-.149-.344-.782-.098-1.368.54-1.367 1.614-2.246 2.637-2.734l-1.61-2.539c-1.417.684-2.64 1.902-3.515 4.055-1.125 2.683-.492 4.883 1.707 5.808 3.762 1.563 5.223-4.394 6.2-4.004.245.098.39.34.148.977-.39.977-1.172 1.953-2.196 2.54l1.512 2.538c1.418-.781 2.492-2.05 3.176-3.71 1.07-2.735.047-4.837-1.664-5.567zm-7.469 17.332-6.933-4.051-1.66 2.832 6.933 4.055-1.465 2.539 2.492 1.46 4.586-7.905-2.488-1.47zm-18.797 13.086 2.246 1.761 3.075-3.906.93.73-3.028 3.81 2.246 1.757 3.027-3.809.829.684-3.075 3.906 2.246 1.758 5.125-6.492-8.496-6.691zm-6.886 7.277 4.441 4.832-6.25-3.172-1.07.977 2.632 6.492-4.44-4.832-2.442 2.246 7.375 8.055 3.367-3.074-2.149-5.13 4.93 2.54 3.371-3.075-7.324-8.105zm0 0"/><path fill="url(#p)" d="M131.055 6.102h.39c1.758.101 3.368.687 4.54 1.761l-1.903 2.246a5.36 5.36 0 0 0-3.125-1.222h-.144c-.54 0-.735.195-.735.441-.047 1.024 6.055.438 5.86 4.492-.098 2.293-1.805 3.563-4.446 3.563h-.437c-2.344-.098-3.856-.88-4.98-2l1.855-2.344a4.92 4.92 0 0 0 3.418 1.563h.148c.535 0 1.024-.149 1.074-.54.047-1.027-6.054-.292-5.86-4.59.095-1.757 1.61-3.37 4.345-3.37m13.039 1.418 8.105 1.562-.539 2.832-4.883-.926-.195 1.075 4.785.925-.535 2.832-4.785-.93-.246 1.173 4.883.93-.536 2.831-8.109-1.562zm-55.422 4.296.976 2.684-4.687 1.71.39 1.028 4.544-1.66.976 2.684-4.543 1.66.39 1.125 4.688-1.711.977 2.687-7.766 2.88-3.758-10.255zm74.316.34 3.907 1.367.144 11.625-3.512-1.273.047-1.316-3.71-1.32-.782 1.073-3.516-1.269zm.73 7.422.15-3.66-2.196 2.98zm-89.695-2 1.66 11.524-3.66 2-8.695-7.664 3.274-1.805 5.566 5.32-1.465-7.57zm103.516.488 5.125 2.786c2.25 1.218 2.64 3.367 1.664 5.175-.832 1.563-2.2 2-3.176 2h-.144l-.102 4.348-3.32-1.809.297-3.757-1.078-.59-1.61 3.031-2.93-1.563zm3.125 6.739c.293 0 .54-.149.734-.438.29-.539-.05-.976-.539-1.273l-1.757-.977-.832 1.516 1.761.976c.196.098.438.196.633.196M57.375 27.492l6.395 8.836-2.684 1.953-6.398-8.836zm136.277 1.414c1.27 0 2.637.438 3.809 1.367 2.297 1.711 2.441 3.907 2.05 5.516l-3.073-.633c.292-.828.046-1.953-.735-2.539-.488-.39-1.074-.539-1.61-.539-.831 0-1.613.39-2.148 1.125-.93 1.219-.78 2.832.485 3.758a2.1 2.1 0 0 0 1.273.441c.488 0 .977-.144 1.367-.39l1.465 2.785c-.683.39-1.613.73-2.637.73-.976 0-2.101-.293-3.222-1.172-2.735-2.05-3.418-5.468-1.367-8.105 1.12-1.61 2.683-2.344 4.343-2.344m-145.02 5.227 1.954 2.148-2.148 1.953 5.417 5.907-2.44 2.246-5.47-5.91-2.148 1.953-1.953-2.149zm158.641 4.586 2.297 2.394-2.78 2.684 2.733 2.836 2.782-2.688 2.297 2.39-7.864 7.571-2.293-2.39 3.024-2.883-2.735-2.832-3.027 2.879-2.293-2.39zm-169.675 8.5c.535 0 1.074.093 1.562.195l-.781 3.027a2.27 2.27 0 0 0-.832-.148c-.633 0-1.317.246-1.754.781-1.027 1.223-.734 2.832.437 3.762.54.437 1.172.684 1.81.684.73 0 1.464-.344 2-.977.636-.781.585-1.906.097-2.637l2.832-1.367c.734 1.414 1.125 3.66-.684 5.86-1.27 1.562-2.976 2.39-4.637 2.39-1.222 0-2.441-.437-3.515-1.316-2.59-2.149-2.735-5.567-.586-8.203 1.266-1.567 2.734-2.051 4.05-2.051M24.122 62.695l11.426 2.102-1.906 3.219-1.317-.29-2.004 3.368.88.976-1.903 3.223-7.324-9.031zm4.2 6.203 1.124-1.859-3.566-.879zM235.448 79.93l2.88 7.765-2.684.977-1.711-4.688-1.024.391 1.707 4.543-2.683.977-1.711-4.543-1.121.39 1.707 4.688-2.684.976-2.883-7.765zm.977 16.164c2.734 0 4.883 1.953 5.52 4.836.585 2.78-.735 4.539-2.102 5.515l-1.906-2.488c.785-.441 1.32-1.418 1.125-2.394-.293-1.317-1.368-2.098-2.586-2.098-.196 0-.442 0-.637.047-1.465.293-2.442 1.613-2.149 3.175.196.977 1.075 1.66 2.004 1.758l-.683 3.075c-1.563-.34-3.567-1.418-4.153-4.2-.683-3.367 1.028-6.347 4.297-7.03a3.96 3.96 0 0 1 1.27-.196M8.008 105.957l2.879.34-.633 4.933 1.074.149.586-4.836 2.879.34-.586 4.836 1.172.148.637-4.933 2.879.343-1.024 8.203-10.84-1.32zm230.617 7.473c3.172 0 5.469 2.437 5.613 5.71.145 3.368-2.004 6.055-5.37 6.25h-.294c-3.176 0-5.469-2.44-5.617-5.71-.144-3.371 2.004-6.055 5.371-6.25zm-.102 8.593h.149c1.516-.05 2.687-1.171 2.586-2.734-.094-1.516-1.266-2.492-2.684-2.492h-.144c-1.516.047-2.688 1.172-2.59 2.734.097 1.516 1.27 2.492 2.683 2.492m-232.03-.441 10.987 3.762.098 4.148-10.84 4.297-.097-3.758 7.273-2.539-7.371-2.199zm228.226 9.816 2.242 1.954a5.055 5.055 0 0 0-1.758 3.367c-.047.633.05 1.219.442 1.27h.05c.977 0 .633-5.614 4.442-5.614h.441c1.852.195 3.414 1.902 3.121 4.883-.191 1.758-.828 3.32-2 4.441l-2.148-2.004c.828-.875 1.316-2.047 1.414-3.074.05-.637-.145-.832-.39-.879h-.048c-.976 0-.78 5.617-4.394 5.617h-.39c-2.395-.246-3.614-2.148-3.274-5.078.246-2.344 1.078-3.86 2.25-4.883M18.066 137.5l.637 3.71-1.172.587.68 3.86 1.32.144.633 3.71-11.473-2.05-.73-4.102zm-2.878 7.813-.391-2.149-3.274 1.66zm226.804 3.222-.926 3.613-4.054 1.075 3.078 2.832-.93 3.613-5.37-5.566-4.2-1.075.832-3.222 4.2 1.074zm-220.41 6.2 2.297 7.081-10.352 3.368-1.027-3.121 7.617-2.493-1.27-3.957zm206.887 7.226 1.61 2.539a4.993 4.993 0 0 0-2.638 2.734c-.246.586-.293 1.172.098 1.368h.098c.832 0 2.004-4.297 4.883-4.297.39 0 .832.101 1.316.297 1.71.68 2.734 2.78 1.613 5.562-.683 1.664-1.758 2.93-3.176 3.711l-1.511-2.535c1.027-.586 1.804-1.613 2.195-2.54.246-.585.098-.831-.144-.976h-.098c-.832 0-2.102 4.297-4.883 4.297-.39 0-.781-.098-1.223-.246-2.246-.926-2.832-3.074-1.707-5.809.926-2.199 2.2-3.418 3.567-4.105M23.73 168.992c1.563 0 3.567.637 4.786 3.031 1.515 3.075.586 6.395-2.391 7.86a5.469 5.469 0 0 1-2.54.637c-2.148 0-4.1-1.32-5.179-3.516-1.265-2.59-.386-4.59.637-5.86l2.441 1.954c-.632.632-.93 1.707-.488 2.586.488.976 1.367 1.464 2.293 1.464.441 0 .883-.097 1.32-.293 1.368-.683 2.004-2.148 1.27-3.562-.39-.785-1.219-1.223-2.05-1.223h-.294l-.097-3.125a.642.642 0 0 0 .292.047m195.704 8.84 6.933 4.05 1.465-2.538 2.488 1.469-4.586 7.906-2.492-1.461 1.465-2.54-6.934-4.054zM35.5 184.617l1.852 2.738-6.641 4.54 1.664 2.394-2.395 1.61-5.175-7.52 2.39-1.613 1.66 2.394zm177.195 3.86 8.594 6.738-5.125 6.496-2.25-1.758 3.078-3.906-.828-.688-3.027 3.813-2.246-1.758 3.023-3.812-.926-.73-3.074 3.905-2.25-1.757zm-169.629 6.25 2.2 2.492-8.203 7.176-2.2-2.489zM203.125 200l7.375 8.055-3.371 3.078-4.934-2.54 2.149 5.13-3.367 3.074-7.375-8.055 2.445-2.246 4.441 4.832-2.636-6.492 1.074-.977 6.25 3.172-4.442-4.836zm-153.223 3.223c.73 0 1.465.293 2.246.925l5.125 4.543L50 216.844l-4.93-4.395c-1.71-1.512-1.418-3.27-.586-4.246.586-.637 1.266-.93 1.903-.93.39 0 .781.102 1.12.297-.78-.93-.73-2.343.247-3.37.535-.587 1.316-.977 2.148-.977m2.149 6.394.926-1.023-2-1.758c-.196-.149-.344-.246-.536-.246-.199 0-.343.097-.488.246a.71.71 0 0 0 .098 1.023zm-2.684 2.98.828-.976-1.906-1.707a.747.747 0 0 0-.437-.148.537.537 0 0 0-.489.242c-.246.297-.195.683.098.883zM131.055 5.126c-3.516 0-5.227 2.25-5.32 4.297-.102 1.515.437 2.492 1.218 3.226l-1.66 2.145a.97.97 0 0 0 .098 1.27c1.414 1.417 3.273 2.148 5.617 2.296h.484c3.227 0 5.274-1.71 5.422-4.492.098-1.758-.684-2.832-1.758-3.515l1.563-1.856c.344-.39.293-.976-.098-1.367-1.316-1.219-3.125-1.902-5.176-2-.097-.004-.242-.004-.39-.004zm13.039 1.418c-.442 0-.883.34-.977.781l-2.054 10.742c-.047.247 0 .536.148.73.148.196.39.345.633.392l8.11 1.562h.194c.196 0 .391-.047.536-.145.195-.144.34-.39.39-.632l.54-2.832c.046-.246 0-.489-.15-.735.15-.144.196-.293.247-.488l.535-2.832c.05-.145 0-.293 0-.488.195-.145.293-.34.344-.586l.535-2.832a.95.95 0 0 0-.781-1.121l-8.106-1.563c0 .047-.05.047-.144.047zM88.672 10.84c-.098 0-.242 0-.344.05l-7.762 2.88a1.031 1.031 0 0 0-.535.488 1.277 1.277 0 0 0-.05.734l3.761 10.25c.145.39.535.637.926.637.098 0 .246 0 .34-.05L92.773 23c.243-.102.438-.297.54-.492.093-.242.093-.485.046-.73l-.976-2.684c-.098-.246-.242-.442-.488-.54.046-.195.046-.39-.051-.538l-.977-2.684a1.02 1.02 0 0 0-.242-.39c.098-.196.098-.442 0-.684l-.977-2.688a1.062 1.062 0 0 0-.488-.535c-.195-.144-.34-.195-.488-.195zm74.316.34c-.293 0-.586.148-.73.343l-7.473 8.985c-.195.242-.293.586-.195.879s.293.535.637.683l3.515 1.27c.094.05.196.05.34.05.293 0 .586-.148.781-.39l.34-.492 2.348.832-.051.637c0 .437.242.828.633.976l3.515 1.266c.102.05.196.05.344.05a.95.95 0 0 0 .586-.195 1.05 1.05 0 0 0 .39-.832l-.148-11.617c0-.39-.242-.781-.632-.93l-3.907-1.367c-.097-.098-.195-.148-.293-.148zm-88.965 5.422c-.148 0-.343.046-.488.097l-3.27 1.809a.922.922 0 0 0-.492 1.023l.883 4.59-3.37-3.223a.967.967 0 0 0-.684-.293c-.149 0-.34.051-.489.098l-3.27 1.809c-.292.144-.488.437-.488.73a.884.884 0 0 0 .34.832l8.743 7.664c.195.149.39.246.632.246.149 0 .344-.05.489-.097l3.664-2.004a.998.998 0 0 0 .488-.977l-1.66-11.523a1.023 1.023 0 0 0-.54-.73c-.195-.005-.34-.051-.488-.051zm103.516.488c-.098 0-.195 0-.293.05a1.127 1.127 0 0 0-.586.485l-5.176 9.621c-.148.246-.148.488-.097.73.097.247.246.442.488.586l2.93 1.563c.148.102.293.102.437.102.344 0 .684-.196.883-.54l.73-1.32-.144 2.055c-.05.39.144.73.484.926l3.32 1.808c.15.098.298.098.442.098s.34-.05.488-.149c.293-.195.489-.488.489-.828l.05-3.468c.977-.196 2.293-.73 3.172-2.391.633-1.125.781-2.395.438-3.516-.34-1.222-1.219-2.246-2.54-2.93l-5.124-2.785c-.098-.097-.243-.097-.39-.097zM57.375 26.516a.945.945 0 0 0-.586.191l-2.687 1.953c-.442.293-.54.93-.243 1.367l6.395 8.84c.195.242.488.39.781.39.195 0 .39-.046.586-.194l2.684-1.954a1.08 1.08 0 0 0 .39-.636c.051-.243 0-.535-.195-.73l-6.395-8.84a1.088 1.088 0 0 0-.636-.391c0 .004-.047.004-.094.004zm136.277 1.414c-2.05 0-3.855.93-5.129 2.636-2.293 3.075-1.656 7.032 1.563 9.473 1.172.879 2.492 1.367 3.812 1.367a6.525 6.525 0 0 0 3.125-.828c.485-.246.633-.832.391-1.32l-1.469-2.785c-.144-.243-.34-.438-.632-.489-.098 0-.149-.047-.243-.047-.195 0-.39.047-.539.196a1.336 1.336 0 0 1-.781.242c-.195 0-.488-.047-.684-.195-.78-.586-.879-1.563-.293-2.39.34-.49.88-.735 1.368-.735.34 0 .683.097 1.023.343.441.344.54.977.39 1.465-.093.242-.046.535.102.782.145.242.39.437.633.488l3.078.633h.196a.94.94 0 0 0 .925-.73c.34-1.466.535-4.298-2.394-6.544-1.367-1.023-2.93-1.562-4.442-1.562zm-145.02 5.226a.931.931 0 0 0-.632.242l-6.79 6.204a.959.959 0 0 0-.292.68c0 .245.098.491.246.687l1.953 2.148c.196.196.438.34.73.34a.941.941 0 0 0 .637-.242l1.414-1.32 4.739 5.226a.96.96 0 0 0 .683.293h.047a.944.944 0 0 0 .637-.246l2.441-2.246a.944.944 0 0 0 .047-1.367l-4.687-5.274 1.414-1.32a.944.944 0 0 0 .05-1.367l-1.953-2.149a.963.963 0 0 0-.683-.289zm158.641 4.586a.975.975 0 0 0-.68.293l-7.863 7.52a.991.991 0 0 0-.05 1.367l2.297 2.394a.96.96 0 0 0 .683.293.967.967 0 0 0 .684-.293l2.293-2.199 1.367 1.418-2.293 2.2a.96.96 0 0 0-.293.683c0 .242.098.488.293.684l2.293 2.39a.967.967 0 0 0 .684.293.96.96 0 0 0 .683-.293l7.863-7.566a.967.967 0 0 0 .293-.684.96.96 0 0 0-.293-.683l-2.297-2.395a.96.96 0 0 0-.683-.293.967.967 0 0 0-.684.293l-2.097 2-1.368-1.414 2.098-2a.97.97 0 0 0 .293-.688.974.974 0 0 0-.293-.683l-2.293-2.39c-.097-.145-.39-.247-.637-.247zm-169.675 8.5c-1.317 0-3.176.438-4.785 2.39-2.54 3.126-2.247 7.18.734 9.571 1.219.977 2.637 1.516 4.101 1.516 2 0 4.004-.977 5.418-2.735 2.395-2.93 1.317-5.812.782-6.933a1.024 1.024 0 0 0-.88-.54c-.148 0-.292.051-.437.098l-2.836 1.368c-.242.148-.437.343-.484.636-.102.242-.05.535.094.782.246.39.297 1.074-.047 1.511-.344.39-.781.633-1.27.633-.39 0-.828-.144-1.172-.437-.78-.633-.925-1.66-.293-2.395.196-.242.586-.437.977-.437.148 0 .344.046.488.097.098.047.246.047.344.047.145 0 .293-.047.438-.098.246-.144.44-.34.488-.632l.781-3.028c.148-.539-.195-1.027-.684-1.172a6.844 6.844 0 0 0-1.757-.242zM24.12 61.72c-.344 0-.683.195-.832.488l-2.098 3.566a.958.958 0 0 0 .098 1.122l7.324 9.035c.196.242.489.34.782.34h.05c.34 0 .586-.196.782-.489l1.902-3.222c.195-.391.148-.829-.098-1.172l-.39-.442 1.27-2.148.585.148c.098 0 .145.047.246.047.34 0 .684-.195.828-.484l1.907-3.223c.144-.293.195-.637.046-.879-.148-.246-.39-.492-.73-.539L24.367 61.77c-.101-.004-.195-.051-.246-.051zM235.45 78.953c-.097 0-.246 0-.34.05l-10.257 3.81c-.485.195-.782.734-.586 1.269l2.882 7.762c.098.246.293.441.489.539.144.047.246.097.39.097.098 0 .246 0 .34-.05l2.688-.977c.242-.094.437-.242.539-.488h.195c.094 0 .242 0 .34-.047l2.684-.977c.148-.05.296-.148.39-.246.102.051.195.051.344.051.098 0 .242 0 .34-.05l2.687-.977c.488-.196.781-.73.586-1.266l-2.832-7.863a1.031 1.031 0 0 0-.488-.535c-.145-.102-.293-.102-.39-.102zm.977 16.164a7.17 7.17 0 0 0-1.465.149c-3.758.78-5.86 4.246-5.031 8.203.78 3.71 3.664 4.687 4.882 4.93h.196a.937.937 0 0 0 .93-.782l.683-3.074c.047-.293 0-.54-.148-.781a.773.773 0 0 0-.684-.39c-.488-.052-1.023-.442-1.121-.977-.098-.489 0-.93.242-1.27a1.839 1.839 0 0 1 1.125-.734c.145-.047.293-.047.438-.047.832 0 1.464.488 1.613 1.316.098.535-.246 1.125-.637 1.367-.242.149-.39.391-.488.637-.047.293 0 .535.195.781l1.906 2.489c.196.246.489.39.782.39.195 0 .39-.047.586-.195 1.27-.879 3.222-2.93 2.488-6.492-.73-3.274-3.316-5.52-6.492-5.52zM8.008 104.98c-.488 0-.93.34-.977.88l-1.027 8.203c-.047.246.05.539.2.734.144.195.39.34.632.39l10.84 1.317h.097c.489 0 .93-.34.977-.879l1.027-8.203c.047-.242-.05-.54-.195-.734a1.1 1.1 0 0 0-.637-.391l-2.832-.34h-.097a.95.95 0 0 0-.586.195c-.149-.097-.293-.195-.489-.195l-2.882-.34h-.098c-.098 0-.242 0-.34.047-.148-.148-.344-.293-.586-.293l-2.883-.34c-.047-.05-.097-.05-.144-.05zm230.617 7.473h-.344c-1.855.094-3.562.879-4.687 2.242-1.125 1.32-1.66 3.078-1.563 4.985.196 3.855 2.977 6.64 6.594 6.64h.34c1.855-.101 3.566-.882 4.687-2.25 1.121-1.316 1.66-3.074 1.563-4.976-.195-3.86-2.98-6.64-6.59-6.64zm-.102 8.594c-.78 0-1.656-.39-1.707-1.563 0-.488.145-.882.442-1.222.289-.293.73-.489 1.265-.535h.102c.781 0 1.656.39 1.707 1.562.05 1.121-.781 1.66-1.66 1.707-.047.05-.098.05-.149.05zm-232.03-.442c-.196 0-.391.051-.583.196a1.042 1.042 0 0 0-.394.832l.101 3.758c0 .437.29.78.68.93l4.492 1.316-4.39 1.511c-.391.149-.684.54-.637.93l.097 3.758c0 .344.149.637.438.781a.964.964 0 0 0 .539.149c.098 0 .242 0 .344-.047l10.836-4.25c.39-.149.636-.54.636-.93l-.097-4.148a.938.938 0 0 0-.684-.88L6.883 120.75c-.196-.145-.29-.145-.39-.145zm228.226 9.817c-.246 0-.492.094-.637.242-1.465 1.32-2.344 3.125-2.59 5.469-.34 3.469 1.223 5.86 4.153 6.152.144 0 .34.05.488.05 1.465 0 2.441-.683 3.125-1.612l1.804 1.66c.196.195.442.242.684.242a.956.956 0 0 0 .684-.29c1.27-1.273 2.05-3.03 2.297-5.03.144-1.61-.149-3.078-.93-4.149a4.294 4.294 0 0 0-3.074-1.808c-.196 0-.344-.051-.54-.051-1.218 0-2.097.441-2.734 1.074l-2.05-1.758c-.196-.144-.438-.191-.68-.191zm-216.653 6.101c-.144 0-.34.051-.488.149L7.52 142.48c-.34.196-.54.586-.489 1.028l.73 4.101c.052.391.395.73.786.782l11.422 2.097h.195a.954.954 0 0 0 .684-.293.974.974 0 0 0 .293-.879l-.633-3.71c-.098-.442-.39-.731-.828-.782l-.59-.097-.438-2.442.536-.293c.39-.195.585-.637.539-1.027l-.633-3.711a1.023 1.023 0 0 0-.54-.73c-.241.046-.39 0-.488 0zm223.926 11.036c-.097 0-.195 0-.293.05l-7.129 2.246-3.957-.976c-.097 0-.144-.05-.242-.05a.934.934 0 0 0-.926.733l-.832 3.223c-.05.242-.05.535.098.73.148.247.34.391.586.438l3.953.977 5.18 5.324a.959.959 0 0 0 .68.293c.1 0 .148 0 .245-.047a.979.979 0 0 0 .684-.688l.926-3.609a.935.935 0 0 0-.293-.976l-1.758-1.614 2.344-.636c.344-.094.637-.34.683-.68l.93-3.613a.863.863 0 0 0-.293-.93 1.058 1.058 0 0 0-.586-.195zm-220.41 6.199c-.098 0-.195 0-.293.05l-2.734.88a1.146 1.146 0 0 0-.586.488c-.098.246-.149.488-.051.73l.977 3.031-6.688 2.196c-.488.148-.781.734-.637 1.219l1.028 3.125c.097.246.246.441.488.585.148.051.293.098.437.098.102 0 .196 0 .297-.047l10.352-3.37c.242-.098.437-.243.586-.49.097-.241.144-.487.047-.73l-2.297-7.082a.978.978 0 0 0-.926-.683zm206.887 7.226c-.149 0-.297.051-.442.102-1.808.875-3.125 2.344-4.004 4.539-.632 1.563-.78 2.977-.437 4.2.39 1.316 1.316 2.292 2.684 2.878.539.195 1.074.344 1.562.344.926 0 1.66-.344 2.344-.781l1.222 2.097c.196.293.489.489.829.489.148 0 .293-.047.488-.094 1.562-.883 2.832-2.297 3.613-4.203 1.367-3.32-.047-5.957-2.148-6.836a4.313 4.313 0 0 0-1.711-.34 3.62 3.62 0 0 0-1.758.437l-1.461-2.293c-.102-.343-.441-.539-.781-.539zM23.73 168.016h-.34c-.538.05-.93.492-.93 1.027l.099 3.125c0 .293.144.539.343.73.196.149.387.247.633.247h.293c.39 0 .926.195 1.172.683.195.438.242.879.098 1.32-.145.391-.489.73-.926.977a1.95 1.95 0 0 1-.883.191c-.633 0-1.168-.34-1.46-.925-.247-.489-.052-1.125.292-1.465.192-.196.293-.488.293-.73 0-.298-.148-.54-.344-.735l-2.441-1.953c-.195-.149-.39-.196-.633-.196a.879.879 0 0 0-.734.344c-.977 1.172-2.39 3.61-.782 6.93 1.27 2.539 3.516 4.055 6.055 4.055 1.028 0 2.004-.243 2.98-.735 3.419-1.707 4.637-5.562 2.829-9.18-1.512-3.269-4.149-3.71-5.614-3.71zm195.704 8.84c-.098 0-.149 0-.246.05a.915.915 0 0 0-.586.438l-1.657 2.832a.939.939 0 0 0 .34 1.316l6.106 3.567-.977 1.66c-.148.242-.148.488-.101.734.05.242.246.484.44.582l2.49 1.465a.958.958 0 0 0 .491.148c.094 0 .145 0 .243-.05a.906.906 0 0 0 .585-.438l4.59-7.91a.95.95 0 0 0-.34-1.32l-2.492-1.461a.92.92 0 0 0-.488-.149c-.098 0-.148 0-.246.047a.924.924 0 0 0-.586.442l-.977 1.707-6.101-3.563c-.149-.047-.293-.098-.488-.098zM35.5 183.64a.75.75 0 0 0-.54.195l-5.808 4.008-1.074-1.614a1.1 1.1 0 0 0-.637-.39h-.195c-.195 0-.39.05-.535.195l-2.395 1.61c-.437.292-.535.93-.242 1.367l5.176 7.52c.145.195.39.343.633.39h.195c.195 0 .39-.047.54-.195l2.39-1.61c.441-.293.539-.93.246-1.367l-1.125-1.613 5.812-4.004c.438-.293.536-.926.243-1.367l-1.856-2.735c-.242-.242-.539-.39-.828-.39zm177.195 3.859h-.097c-.243.047-.489.148-.637.344l-5.125 6.492a.934.934 0 0 0-.195.734c.05.243.148.485.343.633l2.246 1.758c.196.148.391.195.586.195h.098a.681.681 0 0 0 .293.438l2.246 1.758c.145.101.293.148.438.195.05.246.195.441.343.586l2.246 1.758c.196.148.391.195.586.195.293 0 .586-.145.782-.39l5.125-6.493a.92.92 0 0 0 .195-.734c-.047-.242-.145-.489-.34-.633l-8.594-6.738a1.722 1.722 0 0 0-.539-.098zm-169.629 6.25c-.246 0-.441.098-.636.242l-8.203 7.18c-.196.148-.29.39-.34.683 0 .247.047.536.242.684l2.2 2.492c.194.242.437.34.73.34.246 0 .441-.098.636-.246l8.203-7.176c.196-.148.293-.39.344-.683a.816.816 0 0 0-.246-.735l-2.2-2.488a.99.99 0 0 0-.73-.293zm160.059 5.273c-.242 0-.488.098-.684.243l-2.441 2.25a.944.944 0 0 0-.047 1.367l.781.828-1.418-.73a1.36 1.36 0 0 0-.437-.098c-.246 0-.488.097-.684.242l-1.074.977c-.293.293-.39.734-.246 1.074l.586 1.465-.781-.828a.96.96 0 0 0-.684-.293h-.047c-.246 0-.488.097-.683.242l-2.442 2.246a.944.944 0 0 0-.05 1.367l7.374 8.059a.96.96 0 0 0 .684.293h.047c.246 0 .488-.098.684-.247l3.37-3.074c.294-.293.391-.734.243-1.074l-1.121-2.687 2.586 1.32c.148.097.293.097.437.097.246 0 .492-.097.688-.246l3.367-3.074a.944.944 0 0 0 .047-1.367l-7.371-8.059c-.145-.144-.391-.246-.684-.293zm-153.223 3.223c-1.074 0-2.097.488-2.879 1.316-.734.782-1.078 1.81-.976 2.786-.832.097-1.664.535-2.297 1.218s-.977 1.66-.93 2.59c.051.781.344 1.903 1.563 2.977l4.933 4.398c.196.145.438.242.633.242.293 0 .54-.097.735-.343l7.273-8.153c.2-.195.246-.437.246-.683 0-.242-.148-.489-.344-.684l-5.125-4.539c-.828-.734-1.804-1.125-2.832-1.125zm0 0"/></svg>