<svg xmlns="http://www.w3.org/2000/svg" width="250" height="250"><path fill="#adff00" d="M213.234 125c0 48.73-39.504 88.234-88.234 88.234S36.766 173.73 36.766 125 76.27 36.766 125 36.766 213.234 76.27 213.234 125zm0 0"/><path fill-rule="evenodd" d="M115.195 123.61v-1.622a11.719 11.719 0 0 0 3.918-8.754V99.016c0-8.391-6.804-15.196-15.195-15.196h-31.86v82.356h37.254c8.665 0 15.688-7.024 15.688-15.688v-13.726c0-6.219-4.137-11.461-9.805-13.153zm-31.37-28.02h17.644a5.88 5.88 0 0 1 5.883 5.879v11.765a5.882 5.882 0 0 1-5.883 5.883H83.824zm29.41 52.941a5.88 5.88 0 0 1-5.883 5.88H83.824v-23.528h23.528a5.882 5.882 0 0 1 5.882 5.883zm29.413-64.707h-11.765V95.59h11.765zm35.293 23.528v11.765h-11.765v35.293h11.765v11.766h-23.53v-47.059h-11.763v47.059h-11.765v-58.824h23.527V83.824h11.766v23.528zm0 0"/></svg>