<svg xmlns="http://www.w3.org/2000/svg" width="250" height="250"><g fill="#f9ae0c"><path d="M196.895 192.664c-18.778 18.781-43.747 29.121-70.301 29.121s-51.524-10.34-70.301-29.12c-18.777-18.778-29.117-43.747-29.117-70.302 0-26.554 10.34-51.52 29.117-70.297 18.777-18.78 43.746-29.125 70.3-29.125s51.524 10.344 70.302 29.125c18.777 18.778 29.12 43.743 29.12 70.297 0 26.555-10.343 51.524-29.12 70.301M234.852 76.63c-5.918-13.992-14.387-26.559-25.176-37.348-10.79-10.785-23.352-19.258-37.344-25.176-14.492-6.128-29.879-9.234-45.738-9.234-15.856 0-31.246 3.106-45.735 9.234-13.992 5.918-26.558 14.391-37.347 25.176-10.785 10.79-19.258 23.356-25.176 37.348-6.129 14.488-9.238 29.879-9.238 45.734 0 15.86 3.109 31.246 9.238 45.739 5.918 13.996 14.39 26.558 25.176 37.343 10.789 10.79 23.355 19.262 37.347 25.176 14.489 6.133 29.88 9.238 45.735 9.238 15.86 0 31.246-3.105 45.738-9.238 13.992-5.914 26.555-14.387 37.344-25.176 10.789-10.785 19.258-23.347 25.176-37.343 6.128-14.493 9.238-29.88 9.238-45.739 0-15.855-3.11-31.246-9.238-45.734"/><path d="M162.8 94.723h-25.573V77.406h24.98c4.79 0 8.688 3.899 8.688 8.688 0 4.586-3.586 8.316-8.094 8.629m22.808 4.324a26.609 26.609 0 0 0 3.36-12.953c0-14.758-12.004-26.762-26.762-26.762h-24.98V42.266h-18.075V94.78h-18.484c-24.984 0-45.309 20.324-45.309 45.309 0 24.98 20.325 45.308 45.309 45.308h18.484v17.067h18.075v-17.067h24.753v-18.074h-61.312c-15.02 0-27.234-12.219-27.234-27.234s12.214-27.293 27.234-27.293h18.484v10.777h18.075v-10.777h33.84c4.792 0 8.69 3.894 8.69 8.687 0 4.79-3.898 8.688-8.69 8.688H93.835v18.07h25.316v12.531h18.075v-12.53h33.84c14.757 0 26.761-12.005 26.761-26.759 0-9.398-4.875-17.66-12.219-22.437"/><path d="M112.61 59.332H93.835v18.074h18.773zm0 0"/></g></svg>