<svg xmlns="http://www.w3.org/2000/svg" width="250" height="250"><path fill="#18578c" d="M250 125c0 69.035-55.965 125-125 125S0 194.035 0 125 55.965 0 125 0s125 55.965 125 125zm0 0"/><g fill="#fff"><path d="M112.672 95.387 96.914 79.629 79.63 96.914l15.758 15.758a32.284 32.284 0 0 1 17.285-17.285zM154.613 137.328a32.284 32.284 0 0 1-17.285 17.285l15.758 15.758 17.285-17.285zM81.79 81.79c5.96-5.97 5.96-15.638-.005-21.603s-15.637-5.964-21.601 0-5.965 15.633 0 21.602c5.964 5.965 15.636 5.965 21.605 0zM168.21 168.21c-5.96 5.97-5.96 15.638.005 21.602s15.637 5.965 21.601 0 5.965-15.632 0-21.601c-5.964-5.965-15.636-5.965-21.605 0zM95.387 137.328l-15.758 15.758 17.285 17.285 15.758-15.758a32.284 32.284 0 0 1-17.285-17.285zM154.613 112.672l15.758-15.758-17.285-17.285-15.758 15.758a32.284 32.284 0 0 1 17.285 17.285zM189.816 81.79c5.965-5.97 5.965-15.638 0-21.603s-15.636-5.964-21.601 0-5.965 15.633-.004 21.602c5.969 5.965 15.64 5.965 21.605 0zM60.184 168.21c-5.965 5.97-5.965 15.638 0 21.602s15.636 5.965 21.601 0 5.965-15.632.004-21.601c-5.969-5.965-15.64-5.965-21.605 0zM93.285 120.418h-20.23v9.164h20.23a28.622 28.622 0 0 1 0-9.164zM156.715 129.582h20.23v-9.164h-20.23a28.622 28.622 0 0 1 0 9.164zM216.668 125c0 8.438-6.844 15.277-15.281 15.277s-15.278-6.84-15.278-15.277 6.84-15.277 15.278-15.277 15.281 6.84 15.281 15.277zM63.89 125c0 8.438-6.84 15.277-15.277 15.277S33.332 133.437 33.332 125s6.844-15.277 15.281-15.277 15.278 6.84 15.278 15.277zM120.418 156.715v20.23h9.164v-20.23a28.622 28.622 0 0 1-9.164 0zM129.582 93.285v-20.23h-9.164v20.23a28.622 28.622 0 0 1 9.164 0zM140.277 48.613c0 8.438-6.84 15.278-15.277 15.278s-15.277-6.84-15.277-15.278 6.84-15.281 15.277-15.281 15.277 6.844 15.277 15.281zM140.277 201.387c0 8.437-6.84 15.281-15.277 15.281s-15.277-6.844-15.277-15.281 6.84-15.278 15.277-15.278 15.277 6.84 15.277 15.278zM147.918 125c0 12.656-10.262 22.918-22.918 22.918S102.082 137.656 102.082 125s10.262-22.918 22.918-22.918 22.918 10.262 22.918 22.918zm0 0"/></g></svg>