<svg xmlns="http://www.w3.org/2000/svg" xmlns:xlink="http://www.w3.org/1999/xlink" width="250" height="250"><linearGradient id="a"><stop offset="0" stop-color="#5bf3bf"/><stop offset="0" stop-color="#63f2c1"/><stop offset="1" stop-color="#00faa6"/></linearGradient><linearGradient xlink:href="#a" id="b" x1="125.55" x2="486.42" y1="486.177" y2="486.177" gradientTransform="matrix(.4085 0 0 -.4085 0 323.53)" gradientUnits="userSpaceOnUse"/><linearGradient xlink:href="#a" id="c" x1="90.892" x2="521.108" y1="486.105" y2="486.105" gradientTransform="matrix(.4085 0 0 -.4085 0 323.53)" gradientUnits="userSpaceOnUse"/><path fill="url(#b)" d="M51.309 84.969c13.93-1.024 29.289 7.105 37.5 19.687 1.304-1.55 2.492-3.062 3.84-4.492 8.25-8.824 23.609-7.312 30.554 2.328 4.617 6.414 6.984 13.563 9.887 20.547 2 4.82 3.879 9.762 6.617 14.297 2.695 4.453 7.313 4.453 10.008 0 2.285-3.715 3.512-8.332 4.328-12.418 1.266-6.207 2.535-12.09 5.883-17.77 4.168-7.066 9.804-13.113 17.851-17.32 6.414-3.308 13.153-5.308 20.914-5.066v13.687c-17.726.817-28.714 14.621-28.265 26.961.406 12.05 11.312 25.04 28.308 25.61v13.32c-10.293 2.164-28.554-5.8-36.804-18.914-1.188 1.265-4.332 8.699-16.301 9.722-12.133.899-18.465-5.187-22.387-13.89-3.472-7.801-6.25-15.89-9.394-23.817-.696-1.714-1.551-3.472-2.657-5.023-2.859-4.043-7.8-3.227-11.109 1.473-3.555 5.023-4.535 10.62-5.516 16.257-1.468 8.579-5.351 16.094-12.296 22.465-5.922 5.477-12.743 9.559-21.239 11.278-3.066.609-6.25.773-9.683 1.14v-14.133c8.293.122 15.195-2.941 20.465-8.25 5.882-5.882 8.867-12.867 7.804-20.753-1.39-10.457-11.152-22.59-28.39-23.489.082-4.37.082-8.824.082-13.437zm0 0"/><path fill="url(#c)" d="M212.867 70.672V179.25H37.133V70.672zm14.094-14.094H23.039V193.34h203.922zm0 0"/></svg>