<svg xmlns="http://www.w3.org/2000/svg" width="250" height="250"><path d="M164.648 78.027V76.66c0-.488-.097-.976-.097-1.465-.684-9.18-6.348-15.527-14.063-19.53-8.398-4.298-19.629-5.177-29.101-5.274-11.524 0-23.73.683-34.766 3.222l-28.516 119.14c8.692 2.052 20.899 3.028 30.47 3.321h1.464c1.367 0 2.734.098 4.102.098 6.445 0 12.695-.293 18.261-1.074 20.313-2.832 37.305-10.45 43.848-28.907-3.516-2.343-8.79-3.418-15.82-3.418h-6.25c-2.93 7.13-9.864 11.329-17.188 13.184-.488.098-.976.293-1.465.39-10.254 2.051-21.484 1.856-31.445.684l9.18-37.793h10.547c1.171-4.98 2.93-12.207 4.101-17.187H97.266l7.812-32.422c10.156-.977 27.442-2.734 34.57 4.687 2.051 2.344 2.735 5.47 2.735 8.594.195 7.91-4.883 13.38-11.719 16.309l-5.273 21.68c2.93.976 5.078 2.44 6.836 4.687 7.714 0 16.894.39 24.12-2.344-2.734-6.445-7.617-10.937-14.55-13.77 9.18-3.906 15.039-8.495 18.75-15.331 2.734-4.98 4.2-10.45 4.101-16.114zm0 0"/><g fill="#ffa214"><path d="M125 .39C56.25.39.39 56.25.39 125S56.25 249.61 125 249.61 249.61 193.75 249.61 125 193.75.39 125 .39zm0 232.032C65.723 232.422 17.578 184.18 17.578 125 17.578 65.723 65.723 17.578 125 17.578S232.422 65.82 232.422 125c0 59.277-48.145 107.422-107.422 107.422zm0 0"/><path d="M177.54 79.297c-3.907-1.953-8.204-3.32-12.99-4.004.098.586.098 1.172.098 1.758v1.758c-.097 3.515-.683 6.933-1.855 10.156v.097c-.586 1.66-1.367 3.32-2.246 4.981 5.566 1.66 8.887 5.566 8.789 12.305 0 3.418-.781 6.347-2.344 8.691-2.441 3.809-6.347 6.64-10.742 8.203-7.227 2.735-16.406 2.344-24.121 2.344h-8.008l1.172-4.688c1.074-4.492 5.762-23.73 6.738-27.832 1.758-.293 4.59-.488 7.324-.683 3.614-4.688 4.2-13.184.196-18.164-8.594.293-17.871 1.172-25.977 3.027-2.636 10.84-7.52 31.348-10.058 41.895l-9.278 38.574c7.325.195 15.137 0 22.559-1.856l3.223-13.183h20.214c12.11-.098 21.778 3.613 22.168 15.43-.195 25.39-33.691 24.316-51.464 22.363l1.269-5.469c-6.738.879-14.844 1.172-22.266.977L85.06 196.19c10.644 2.442 25.683 3.32 36.914 3.418 20.41 0 36.035-3.808 46.875-11.328 10.84-7.617 16.21-18.261 16.21-32.129.098-10.84-6.25-19.14-16.308-23.242 8.3-3.418 14.16-7.91 17.676-13.476 5.957-9.082 7.52-23.047 1.27-31.641-2.637-3.613-6.055-6.445-10.157-8.496zm0 0"/></g></svg>