<svg xmlns="http://www.w3.org/2000/svg" width="250" height="250"><filter id="a" width="100%" height="100%" x="0%" y="0%"><feColorMatrix in="SourceGraphic" values="0 0 0 0 1 0 0 0 0 1 0 0 0 0 1 0 0 0 1 0"/></filter><mask id="c"><g filter="url(#a)"><path fill-opacity=".19" d="M0 0h250v250H0z"/></g></mask><clipPath id="b"><path d="M0 0h250v250H0z"/></clipPath><mask id="e"><g filter="url(#a)"><path fill-opacity=".2" d="M0 0h250v250H0z"/></g></mask><clipPath id="d"><path d="M0 0h250v250H0z"/></clipPath><mask id="g"><g filter="url(#a)"><path fill-opacity=".16" d="M0 0h250v250H0z"/></g></mask><clipPath id="f"><path d="M0 0h250v250H0z"/></clipPath><mask id="i"><g filter="url(#a)"><path fill-opacity=".16" d="M0 0h250v250H0z"/></g></mask><clipPath id="h"><path d="M0 0h250v250H0z"/></clipPath><mask id="k"><g filter="url(#a)"><path fill-opacity=".07" d="M0 0h250v250H0z"/></g></mask><clipPath id="j"><path d="M0 0h250v250H0z"/></clipPath><mask id="m"><g filter="url(#a)"><path fill-opacity=".14" d="M0 0h250v250H0z"/></g></mask><clipPath id="l"><path d="M0 0h250v250H0z"/></clipPath><mask id="o"><g filter="url(#a)"><path fill-opacity=".1" d="M0 0h250v250H0z"/></g></mask><clipPath id="n"><path d="M0 0h250v250H0z"/></clipPath><mask id="q"><g filter="url(#a)"><path fill-opacity=".04" d="M0 0h250v250H0z"/></g></mask><clipPath id="p"><path d="M0 0h250v250H0z"/></clipPath><mask id="s"><g filter="url(#a)"><path fill-opacity=".05" d="M0 0h250v250H0z"/></g></mask><clipPath id="r"><path d="M0 0h250v250H0z"/></clipPath><mask id="u"><g filter="url(#a)"><path fill-opacity=".06" d="M0 0h250v250H0z"/></g></mask><clipPath id="t"><path d="M0 0h250v250H0z"/></clipPath><mask id="w"><g filter="url(#a)"><path fill-opacity=".11" d="M0 0h250v250H0z"/></g></mask><clipPath id="v"><path d="M0 0h250v250H0z"/></clipPath><mask id="y"><g filter="url(#a)"><path fill-opacity=".08" d="M0 0h250v250H0z"/></g></mask><clipPath id="x"><path d="M0 0h250v250H0z"/></clipPath><path fill="#ae7fd9" d="M95.738 4.152c18.746-4.691 38.496-4.574 57.278-.164.113.172.336.504.457.672 4.457 6.348 8.777 12.805 12.609 19.59 3.43 5.898 6.426 12.04 9.332 18.234 7.73-.476 15.496-.851 23.246-.379 5.938.165 11.828.899 17.738 1.461l.7.047c7.23 8.39 13.402 17.75 18.375 27.762-2.055 6.508-4.313 12.93-6.914 19.21-4.348-12.01-10.579-23.206-18.258-33.23-9.684-1.128-19.45-1.28-29.184-.859 4.399 12.129 7.696 24.668 9.957 37.426 1.153 7.36 2.13 14.766 2.543 22.223-.832 3.8 2.938 5.398 3.985 8.562 2.62 5.738.886 12.961-3.727 17.023-.063.754-.172 2.243-.23 2.985-.208 3.262-.442 6.52-.836 9.762-.438 4.437-1.141 8.847-1.829 13.261-2.261 12.934-5.695 25.63-10.18 37.918 9.552.457 19.114.235 28.634-.691 8.468-10.606 15.214-22.735 19.593-35.778 2.328-6.585 3.817-13.453 5.012-20.347 3.274 6.508 6.363 13.105 9.149 19.855l.308.72c-5.723 18.733-15.36 36.366-28.531 50.433-13.266.09-26.563.96-39.8-.262-3.188 6.207-6.18 12.523-9.685 18.55-6.132 2.493-12.449 4.473-18.89 5.852l-1.477.34c5.719-8.414 10.926-17.219 15.41-26.418-12.093-2.008-24.046-5.027-35.601-9.277-6.656-2.457-13.223-5.227-19.578-8.418-1.34-.68-2.68-1.336-4.02-1.988-3.832 1.78-8.422 1.925-12.176-.153-4.199-2.187-7.07-6.742-7.464-11.601-.508-.387-1.52-1.164-2.028-1.559-6.226-4.223-12.078-9.02-17.808-13.95a217.25 217.25 0 0 1-26.016-27.753c-5.687 8.965-10.559 18.457-14.871 28.21 4.375 12.642 11.281 24.212 19.52 34.497 10.206.914 20.48 1.164 30.706.437.083.223.254.665.333.887a275.078 275.078 0 0 0 5.472 13.063c-6.87.511-13.746.984-20.637.824-7.035-.098-14.042-.625-21.054-1.324-.395-.055-1.188-.157-1.582-.207-16.133-18.055-27.364-40.899-31.59-65.22-3.047-17.194-2.824-35.058.851-52.136 4.493-21.21 14.262-41.148 28.024-57.43 16.867-20.09 39.805-34.574 64.734-40.66zm11.075 12.36c-6.797 1.218-13.555 2.886-20.008 5.468-11.582 4.293-22.32 10.848-31.961 18.774-5.43 4.77-10.653 9.851-15.11 15.633-8.093 10.058-14.683 21.586-18.882 33.957a202.43 202.43 0 0 0 14.992 28.605c7.68-9.879 16.32-18.93 25.437-27.32 5.79-4.727 11.39-9.781 17.68-13.77l-.008-.156c.961-.66 1.906-1.351 2.844-2.07.016-2.957.719-5.942 2.344-8.399 3.875-6.382 12.773-8.32 18.804-4.16 1.024-.484 2.047-.976 3.078-1.46 6.235-3.22 12.79-5.676 19.243-8.344a230.396 230.396 0 0 1 35.644-9.165c-4.629-9.43-9.836-18.554-15.832-27.117-12.613-2.437-25.594-2.52-38.266-.476zm39.671 45.3a170.091 170.091 0 0 0-20.308 6.508l.277.118c-5.902 1.675-11.426 4.777-17.07 7.285-.473 4.015-2.082 8.035-5.227 10.562-4.129 3.621-10.281 4.168-15.031 1.559-5.645 3.953-11.246 8.023-16.367 12.71-5.86 4.833-11.281 10.239-16.445 15.86-4.301 4.652-8.29 9.61-12.137 14.668 4.226 5.555 8.617 10.988 13.418 16.02l-.024.113c5.145 5.289 10.344 10.555 16.04 15.207 4.5 3.933 9.285 7.492 14.12 10.945 4.282-2.96 10.114-3.156 14.528-.414 4.496 2.637 7.047 8.008 6.89 13.313 5.493 2.707 11.024 5.324 16.739 7.468a172.487 172.487 0 0 0 20.625 6.641c6.582 1.703 13.265 2.926 19.972 3.93 2.621-6.762 4.977-13.637 6.832-20.676l.094-.043c1.875-7.367 3.54-14.8 4.656-22.34.895-5.726 1.446-11.5 1.907-17.293-3.555-1.621-6.52-4.707-7.782-8.57-2.543-6.965 1.176-15.328 7.766-18.047-.43-5.879-.988-11.75-1.941-17.559-1.067-7.53-2.766-14.945-4.672-22.277a233.55 233.55 0 0 0-6.496-19.668c-6.848.977-13.66 2.211-20.364 3.98zm-131.14 49.395c-2.028 13.133-2.043 26.578.07 39.703 3.54-6.832 7.531-13.383 11.672-19.84a272.722 272.722 0 0 1-11.742-19.863zm0 0"/><g clip-path="url(#b)" mask="url(#c)"><path fill="#303030" d="M153.473 4.66c1.27-.508 2.543.215 3.777.485 10.344 3.05 20.535 7.164 29.656 13.144-3.289 3.844-7.902 6.04-11.449 9.602-3.043-1.41-5.945-3.606-9.375-3.641-3.832-6.785-8.152-13.242-12.61-19.59zm0 0"/></g><g clip-path="url(#d)" mask="url(#e)"><path fill="#333" d="M86.805 21.98c6.453-2.582 13.21-4.25 20.007-5.468-5.66 8.75-11.347 17.57-15.624 27.172a188.626 188.626 0 0 1 30.445 7.738c1.297.41 2.492 1.074 3.633 1.848-6.454 2.667-13.008 5.125-19.243 8.343-6.847-1.91-13.824-3.386-20.859-4.293-2.465 6.23-4.742 12.586-6.352 19.114l.141 1.27.008.155c-6.29 3.989-11.89 9.043-17.68 13.77C62.93 79.3 67.02 67.53 70.652 55.742c-10.308-.644-20.644-.375-30.918.645 4.457-5.782 9.68-10.864 15.11-15.633 7.226.45 14.484.34 21.71.95 3.31-6.634 6.633-13.259 10.25-19.724zm0 0"/></g><g clip-path="url(#f)" mask="url(#g)"><path fill="#2a2a2a" d="m186.906 18.29.149-.18c10.058 6.167 19.293 13.796 27.37 22.581.747.88 1.7 1.676 1.973 2.875-5.91-.562-11.8-1.296-17.738-1.46-3.23-.036-5.68-2.313-8.058-4.286-4.743-3.789-9.95-6.882-15.145-9.93 3.547-3.562 8.16-5.757 11.45-9.6zm0 0"/></g><g fill="#282828" clip-path="url(#h)" mask="url(#i)"><path d="M126.176 68.32a170.091 170.091 0 0 1 20.308-6.507c6.102 3.378 12.254 6.687 18.051 10.628-3.504 3.614-8.015 5.864-11.62 9.36-8.423-5.254-17.384-9.492-26.462-13.364zM56.313 116.414c5.164-5.621 10.585-11.027 16.445-15.86.765 2.505.187 5.102-.113 7.63-2.114 18.02-1.512 36.296.964 54.238-5.695-4.652-10.894-9.918-16.039-15.207l.024-.113c.629-1.73.351-3.586.3-5.38-.507-8.527-.378-17.077.07-25.613-.413.082-1.237.235-1.651.305zm0 0"/></g><g fill="#131313" clip-path="url(#j)" mask="url(#k)"><path d="M228.559 90.586c2.601-6.281 4.859-12.703 6.914-19.211 6.218 12.344 10.214 25.89 12.199 39.668-.36 1.64.05 3.973-1.684 4.86-3.574 2.421-6.82 5.44-10.758 7.226-.375-3.453-.496-6.984-1.511-10.328-2.73 3.648-4.52 7.941-7.051 11.726-1.223 2.25-3.402 4.285-3.121 7.09-2.121 3.406-5.645 5.211-8.934 7.117-5.636 4.637-11.785 8.555-17.27 13.395-1.382 1.023-2.988 1.64-4.534 2.348.394-3.243.629-6.5.836-9.762 4.988-3.774 8.89-9.043 12.187-14.414-2.55-3.793-5.805-6.992-8.402-10.758 3.199-3.39 8.086-4.895 10.172-9.36 2.425 2.45 4.476 5.247 6.597 7.97 5.75-8.598 10.078-18.11 14.36-27.567zM82.973 198.164c.925 2.149 1.425 4.578 2.937 6.39 6.574-.878 13.13-2.16 19.434-4.34 6.355 3.192 12.922 5.962 19.578 8.419a10.42 10.42 0 0 1-2.61 1.445c-9.828 3.567-19.968 6.14-30.199 8.11-.156 3.218 2.742 5.71 3.602 8.761-3.653 2.66-7.715 4.75-10.809 8.176-3.152-4.629-5.293-9.871-7.914-14.82a275.078 275.078 0 0 1-5.472-13.063c3.566-3.394 8.335-5.164 11.453-9.078zm0 0"/></g><g clip-path="url(#l)" mask="url(#m)"><path fill="#232323" d="M164.535 72.441c3.067 1.418 5.406 4.59 8.809 5.059 1.906 7.332 3.605 14.746 4.672 22.277-8.145-6.332-16.305-12.652-25.102-17.976 3.606-3.496 8.117-5.746 11.621-9.36zm0 0"/></g><g clip-path="url(#n)" mask="url(#o)"><path fill="#191919" d="M191.074 93.922c1.477.672 2.91 1.496 4.055 2.715 4.277 4.394 8.633 8.722 12.473 13.547-2.086 4.464-6.973 5.968-10.172 9.359-1.125-1.3-2.446-2.402-3.813-3.398-.414-7.457-1.39-14.864-2.543-22.223zm0 0"/></g><g clip-path="url(#p)" mask="url(#q)"><path fill="#0b0b0b" d="M247.672 111.043c1.883 9.117 1.625 18.656 1.262 27.973-1.133 10.004-2.223 20.242-5.746 29.68-2.786-6.75-5.875-13.348-9.149-19.856-1.195 6.894-2.684 13.762-5.012 20.347-3.453-4.902-5.418-10.703-8.312-15.945 3.539-2.789 7.316-5.3 11.191-7.515.5.359 1.496 1.078 1.985 1.437 1.703-7.82 1.316-16.031 1.34-24.035 3.937-1.785 7.183-4.805 10.757-7.227 1.735-.886 1.325-3.218 1.684-4.859zm0 0"/></g><g fill="#0e0e0e" clip-path="url(#r)" mask="url(#s)"><path d="M223.547 131.617c3.445 4.23 6.016 9.153 8.36 14.11-3.876 2.214-7.653 4.726-11.192 7.515-1.961-3.308-3.695-6.797-6.11-9.773-4.039 2.87-6.332 7.601-9.921 10.992-4.59 4.402-8.36 9.832-13.704 13.277.688-4.414 1.391-8.824 1.829-13.261 1.546-.707 3.152-1.325 4.535-2.348 5.484-4.84 11.633-8.758 17.27-13.395 3.288-1.906 6.812-3.71 8.933-7.117zM95.715 226.95c2.008 2.605 3.281 5.734 5.117 8.468 1.797 3.086 4.066 5.871 5.543 9.144-7.672.208-15.352-.027-23.023.188-3.832-.07-7.692.316-11.497-.313 1.297-.628 2.442-1.542 3.418-2.625 1.653-1.945 4.684-2.164 5.688-4.753a25.21 25.21 0 0 0 4.941 1.472c-.293-1.148-.601-2.297-.996-3.406 3.094-3.426 7.156-5.516 10.809-8.176zm0 0"/></g><g clip-path="url(#t)" mask="url(#u)"><path fill="#0f0f0f" d="M140.867 186.5c13.438-6.617 25.66-15.555 37.2-25.254-1.118 7.54-2.782 14.973-4.657 22.34l-.094.043c-4.785 2.117-8.66 5.836-13.203 8.394-4.425 2.985-9.476 4.918-13.601 8.352a172.487 172.487 0 0 1-20.625-6.64c4.945-2.52 10.172-4.43 14.98-7.235zm0 0"/></g><g clip-path="url(#v)" mask="url(#w)"><path fill="#1b1b1b" d="M61.848 170.965c5.73 4.93 11.582 9.726 17.808 13.95a4.22 4.22 0 0 0-.113 2.804c1.023 3.523 2.176 7 3.43 10.445-3.118 3.914-7.887 5.684-11.453 9.078-.079-.222-.25-.664-.332-.887-3.653-10.101-6.833-20.41-9.06-30.964-.257-1.461-.257-2.957-.28-4.426zm0 0"/></g><g clip-path="url(#x)" mask="url(#y)"><path fill="#141414" d="M35.3 219.805c7.013.699 14.02 1.226 21.055 1.324 3.36 3.738 7.708 6.23 11.817 8.957 4.062 2.7 8.398 4.922 12.789 6.973-1.004 2.59-4.035 2.808-5.688 4.754-.976 1.082-2.12 1.996-3.418 2.625-3.16.187-6.683.789-9.457-1.211-9.777-5.891-18.996-12.989-26.726-21.594-.098-.457-.277-1.371-.371-1.828zm0 0"/></g></svg>