<svg xmlns="http://www.w3.org/2000/svg" width="250" height="250"><path d="M250 125c0 69.035-55.965 125-125 125S0 194.035 0 125 55.965 0 125 0s125 55.965 125 125zm0 0"/><g fill="#fff"><path d="m177.734 51.758-14.648 5.078 5.469 16.602L125 50.977 66.21 83.203v43.555l23.634-8.203-.196-21.875L125 77.93l33.79 16.406-16.798 6.25 5.274 15.234 46.68-16.601zM72.266 198.242l14.648-5.078-5.469-16.601 43.36 22.46 58.984-32.226v-43.555l-23.633 8.203.196 21.875-35.547 18.75-33.594-16.406 16.797-6.25-5.274-15.234-46.68 16.601zM129.492 238.672l-.39-9.961c12.109-.39 23.632-2.93 34.765-7.422l3.711 9.18c-12.11 4.883-25 7.617-38.086 8.203zm-38.672-5.078c-12.5-3.906-24.218-9.961-34.57-17.969l6.055-8.008c9.57 7.227 20.117 12.696 31.64 16.406zm109.961-23.633-6.64-7.422c8.984-8.008 16.406-17.383 22.07-27.93l8.789 4.688c-6.25 11.523-14.453 21.875-24.219 30.664zM29.687 186.914c-7.226-10.937-12.304-23.047-15.43-35.937l9.766-2.344c2.735 11.719 7.422 22.656 14.063 32.812zM237.5 142.383l-9.96-1.563a107.812 107.812 0 0 0 1.17-15.82c0-6.64-.585-13.281-1.952-19.727l9.765-1.953c1.368 7.032 2.149 14.453 2.149 21.68 0 5.86-.39 11.523-1.172 17.383zM21.875 113.28l-9.96-1.172c1.562-13.086 5.077-25.586 10.937-37.5l8.984 4.493c-5.273 10.742-8.594 22.265-9.961 34.18zm192.383-41.406c-6.055-10.352-13.867-19.336-23.242-26.953l6.445-7.617c10.156 8.398 18.75 18.36 25.39 29.687zM52.93 50.391l-7.032-7.227A109.437 109.437 0 0 1 78.125 21.29l4.102 9.18C71.484 35.352 61.523 41.992 52.93 50.39zm107.226-23.047c-11.133-4.102-23.047-6.055-35.156-6.055-2.734 0-5.469.195-8.203.39l-.781-9.96c2.93-.196 6.054-.39 8.984-.39 13.281 0 26.172 2.148 38.477 6.64zm0 0"/></g></svg>