<?xml version="1.0" encoding="utf-8"?>
<!-- Generator: Adobe Illustrator 27.3.1, SVG Export Plug-In . SVG Version: 6.00 Build 0)  -->
<svg version="1.1" id="Layer_1" xmlns="http://www.w3.org/2000/svg" xmlns:xlink="http://www.w3.org/1999/xlink" x="0px" y="0px"
	 viewBox="0 0 200 208" style="enable-background:new 0 0 200 208;" xml:space="preserve">
<style type="text/css">
	.st0{fill:#080A03;}
	.st1{fill:#3AB26E;}
</style>
<g>
	<g>
		<g>
			<path class="st0" d="M114.3,177.5c2.5,2.5,4.2,5.5,5.2,9l42.3-24.5c-2.5-2.4-4.2-5.5-5.2-9L114.3,177.5z"/>
			<path class="st0" d="M161.8,45.9l-42.3-24.5c-1,3.4-2.7,6.6-5.1,9l42.3,24.5C157.5,51.3,159.3,48.3,161.8,45.9z"/>
			<path class="st0" d="M44.2,60.1c0,2.5-0.4,4.9-1.3,7c9.2,1.7,18.7,4.2,28.4,7.8c0.4-3.5,0.9-7,1.4-10.4
				c-9.9-3.5-19.6-6.1-28.8-7.8C44.1,57.8,44.2,58.9,44.2,60.1z"/>
			<path class="st0" d="M143,103.9c9.9-8,18.6-16.5,25.8-25.1c-3.3-1.3-6.2-3.4-8.4-6.1c-7.1,8.5-15.9,16.8-25.9,24.6
				c-7-5.1-14.5-10.1-22.4-14.6c-6-3.4-12-6.6-18.2-9.5c-0.5,3.5-0.9,7.2-1.2,10.9c4.7,2.3,9.4,4.9,14.1,7.5
				c6.6,3.8,12.9,7.9,18.9,12.2c-6,4.2-12.3,8.3-18.9,12.2c-4.7,2.7-9.4,5.2-14.1,7.5c0.3,3.7,0.7,7.4,1.2,10.9
				c6.1-2.9,12.1-6,18.2-9.5c7.8-4.6,15.4-9.4,22.4-14.6c10,7.8,18.7,16.2,25.8,24.6c2.2-2.7,5-4.8,8.4-6.1
				C161.6,120.4,152.8,111.9,143,103.9z"/>
			<path class="st0" d="M42.9,140.7c0.8,2.2,1.3,4.6,1.3,7c0,1.1-0.1,2.2-0.2,3.3c9.2-1.7,19-4.2,28.8-7.8c-0.6-3.4-1-6.9-1.4-10.4
				C61.6,136.5,52,139,42.9,140.7z"/>
			<path class="st0" d="M86.1,103.9c0-25,3.8-48.7,10.7-68c-3.5-0.6-6.7-2.1-9.4-4.2c-7.4,20.6-11.6,45.8-11.6,72.2
				s4.1,51.7,11.6,72.2c2.6-2.2,5.9-3.7,9.4-4.2C89.9,152.6,86.1,128.9,86.1,103.9z"/>
		</g>
		<g>
			<path class="st1" d="M107,181.7c-2-1.4-4.4-2.2-6.9-2.2c-0.1,0-0.2,0-0.2,0c-2.5,0-4.9,0.9-6.7,2.2c-1,0.6-1.8,1.4-2.5,2.4
				c-1.5,1.8-2.5,4.1-2.6,6.6c0,0.3,0,0.7,0,1c0,6.7,5.4,12.2,12.2,12.2c6.8,0,12.2-5.4,12.2-12.2c0-0.3,0-0.7,0-1
				C111.8,186.9,109.9,183.7,107,181.7z"/>
			<path class="st1" d="M170.8,71.1c0.6,0.2,1.1,0.5,1.7,0.6c0.2,0.1,0.4,0.1,0.6,0.2c0.3,0.1,0.6,0.2,1,0.2
				c0.6,0.1,1.3,0.2,1.8,0.2c1.8,0,3.6-0.4,5.1-1.2c4.1-1.9,7-6.2,7-11c0-6.7-5.4-12.2-12.1-12.2c-2.6,0-5,0.8-6.9,2.2
				c-2.9,2-4.9,5.2-5.2,9c0,0.3,0,0.7,0,1.1c0,2.3,0.6,4.5,1.8,6.3C166.7,68.4,168.5,70.1,170.8,71.1z"/>
			<path class="st1" d="M181,136.7c-1.6-0.7-3.3-1.2-5.1-1.2c-0.4,0-0.8,0-1.2,0.1c-0.2,0-0.5,0-0.7,0.1l0,0
				c-0.6,0.1-1.3,0.2-1.8,0.5c-0.2,0-0.3,0.1-0.6,0.2c-0.3,0.1-0.6,0.2-0.9,0.3c-2.2,1-4.1,2.7-5.3,4.8c-1.1,1.8-1.8,4-1.8,6.3
				c0,0.3,0,0.7,0,1.1c0.3,3.7,2.3,7,5.2,9c1.9,1.4,4.4,2.2,6.9,2.2c6.7,0,12.1-5.4,12.1-12.2C188.1,142.9,185.3,138.6,181,136.7z"
				/>
			<path class="st1" d="M24.2,47.8c-6.7,0-12.1,5.4-12.1,12.2s5.4,12.2,12.1,12.2c4.6,0,8.6-2.6,10.7-6.4c1-1.7,1.5-3.7,1.5-5.8
				c0-1.6-0.3-3.1-0.9-4.5C33.6,51.1,29.3,47.8,24.2,47.8z"/>
			<path class="st1" d="M24.2,135.6c-6.7,0-12.1,5.4-12.1,12.2c0,6.7,5.4,12.2,12.1,12.2c5.1,0,9.6-3.2,11.3-7.7
				c0.6-1.4,0.9-3,0.9-4.5c0-2.1-0.6-4.1-1.5-5.8C32.8,138.1,28.8,135.6,24.2,135.6z"/>
			<path class="st1" d="M99.8,28.4h0.2c2.6,0,4.9-0.8,6.9-2.2c0.2-0.1,0.3-0.2,0.5-0.4c0.2-0.1,0.3-0.2,0.5-0.4c0.3-0.3,0.7-0.6,1-1
				c0.2-0.2,0.3-0.4,0.5-0.6c0.1-0.1,0.2-0.2,0.2-0.3c0.1-0.1,0.1-0.2,0.2-0.2c0.1-0.1,0.1-0.2,0.2-0.2c0.1-0.2,0.2-0.3,0.3-0.6
				c0.1-0.2,0.2-0.4,0.3-0.6c0.1-0.2,0.2-0.4,0.2-0.6c0.1-0.2,0.2-0.4,0.2-0.6c0.1-0.2,0.2-0.4,0.2-0.6s0.1-0.5,0.2-0.6
				c0-0.2,0.1-0.4,0.2-0.6c0-0.1,0-0.1,0-0.2c0-0.2,0.1-0.5,0.1-0.6c0-0.1,0-0.1,0-0.2c0-0.1,0-0.2,0-0.3c0-0.3,0-0.7,0-1
				c0.5-7.1-5-12.6-11.7-12.6c-6.7,0-12.2,5.4-12.2,12.2c0,2.9,1,5.5,2.7,7.7C92.7,26.5,96,28.3,99.8,28.4z"/>
		</g>
	</g>
	<path class="st1" d="M107,181.7c-2-1.4-4.4-2.2-6.9-2.2c-0.1,0-0.2,0-0.2,0c-2.5,0-4.9,0.9-6.7,2.2c-1,0.6-1.8,1.4-2.5,2.4
		c-1.5,1.8-2.5,4.1-2.6,6.6c0,0.3,0,0.7,0,1c0,6.7,5.4,12.2,12.2,12.2c6.8,0,12.2-5.4,12.2-12.2c0-0.3,0-0.7,0-1
		C111.8,186.9,109.9,183.7,107,181.7z"/>
</g>
</svg>
