<svg xmlns="http://www.w3.org/2000/svg" width="250" height="250"><path fill="#0e6cac" d="M125 249.832 0 187.352V62.648L125 .168l125 62.48v124.704zm0 0"/><g fill="#fff"><path d="M103.39 142.25c-.359 2.73-1.288 5.387-2.745 7.844-1.36 2.351-3.157 4.508-5.325 6.375-2.02 1.738-4.382 3.152-6.984 4.187a20.177 20.177 0 0 1-7.48 1.508c-2.989.004-5.938-.586-8.61-1.719-3.008-1.375-5.504-3.437-7.2-5.957-2.386-3.539-4.05-7.394-4.929-11.402a73.468 73.468 0 0 1-1.84-18.004 73.437 73.437 0 0 1 1.84-18c.887-3.988 2.508-7.828 4.797-11.387 1.574-2.48 3.918-4.547 6.773-5.976 6.504-3.13 14.711-1.887 19.54 2.96 4.101 3.876 7.066 8.516 8.644 13.551h2.121V85.8s-9.172-1.144-9.172 5.485a20.245 20.245 0 0 0-3.941-2.695 27.796 27.796 0 0 0-4.734-1.899 20.577 20.577 0 0 0-6.149-.863c-4.16.027-8.262.852-11.996 2.414-4.137 1.746-7.773 4.242-10.648 7.313-3.418 3.636-6.024 7.777-7.692 12.21-2.043 5.583-3.02 11.407-2.894 17.25-.125 5.844.851 11.665 2.894 17.247 1.645 4.468 4.278 8.625 7.758 12.254 3.004 3.105 6.789 5.605 11.074 7.312 4.02 1.594 8.403 2.418 12.836 2.414 3.297.02 6.563-.531 9.598-1.617 3.008-1.055 5.742-2.605 8.039-4.566 2.355-2.032 4.289-4.391 5.719-6.977 1.535-2.793 2.488-5.793 2.824-8.86h-2.117zM136.29 153.29h-.099c-2.078 0-3.761-1.435-3.761-3.196V89.707c0-1.766-1.688-3.195-3.766-3.195h-12.918c-2.078 0-3.762 1.43-3.762 3.195v3.668c0 1.766 1.684 3.2 3.762 3.2h.938c2.078 0 3.765 1.429 3.765 3.195v50.324c0 1.761-1.687 3.195-3.765 3.195h-.938c-2.07 0-3.754 1.422-3.762 3.18v3.672c0 1.765 1.684 3.195 3.762 3.195h21.367c2.078 0 3.762-1.43 3.762-3.195v-3.672c0-1.766-1.684-3.196-3.762-3.196zM201.387 86.496h-51.832c-2.082 0-3.766 1.43-3.766 3.195v70.461c0 1.766 1.684 3.2 3.766 3.2h51.78c2.083 0 3.767-1.434 3.767-3.2v-70.46c-.008-1.747-1.66-3.165-3.715-3.196zm-39.79 10.078h27.743l-31.57 50.867V99.77c-.004-.86.398-1.684 1.12-2.286s1.7-.93 2.708-.91zm27.794 56.715h-27.758l31.52-50.898v47.687c.003.852-.391 1.668-1.094 2.27-.707.601-1.668.941-2.668.941zm0 0"/></g></svg>