<svg xmlns="http://www.w3.org/2000/svg" width="250" height="250"><g fill="#023048"><path d="m126.254 248.168-106.8-61.656V62.82C54.94 42.332 90.573 21.762 126.25 1.168c35.652 20.574 71.129 41.05 106.695 61.582v123.84c-35.441 20.453-70.922 40.933-106.691 61.578zm0-198.117c-21.55 12.441-43.05 24.851-64.5 37.23v74.762c21.469 12.394 42.969 24.805 64.512 37.238l64.41-37.195V87.238c-21.45-12.379-42.863-24.742-64.422-37.187zm0 0"/><path d="M180.86 124.758c-.118 6.187-.82 12.234-3.426 17.883-1.004 2.172-2.239 4.34-3.809 6.125-5.945 6.761-15.32 6.632-21.27-.141-3.449-3.926-5.12-8.68-5.992-13.71-1.617-9.372-1.574-18.708 2.149-27.622 1.183-2.84 2.992-5.637 5.16-7.805 5.445-5.441 13.828-5.164 19.262.297 4.191 4.207 6.027 9.574 6.976 15.25.54 3.203.649 6.48.95 9.723zm-8.43 6.347c.293-3.964.199-7.375.195-11.464 0-4.086-.84-7.875-1.54-11.637-.523-2.813-1.757-5.668-3.335-8.07-2.453-3.73-6.934-3.637-9.445.078-1.325 1.96-2.336 4.273-2.918 6.574-2.668 10.566-2.68 21.285-.88 31.96.583 3.458 1.716 6.993 3.391 10.06 2.633 4.812 7.61 4.664 10.493-.043.972-1.59 1.851-3.395 2.168-5.204.714-4.132 1.578-8.257 1.87-12.254zM107.535 152.363a.501.501 0 0 1-.363-.843c4.293-4.657 8.23-8.86 12.078-13.141 4.586-5.11 8.809-10.484 11.582-16.856 2.402-5.523 2.82-11.21 1.137-16.964-1.614-5.516-5.328-7.926-10.621-7.196-4.97.684-9.637 5.785-9.707 10.61-.036 2.382 1.152 4.007 3.492 4.597.93.235 1.906.301 3.215.477a.505.505 0 0 1 .425.379c.438 1.812.899 3.699 1.352 5.582a.497.497 0 0 1-.355.605c-5.125 1.293-9.215-1.883-9.954-7.336-1.453-10.75 6.149-16.437 12.79-17.101 8.832-.887 17.347 5.844 18.148 14.375.367 3.898-.457 7.527-2.164 11.004-3.059 6.238-7.469 11.465-12.414 16.242-3.164 3.055-6.504 5.933-10.031 9.094a.503.503 0 0 0 .332.879h21.582c.23 0 .43-.16.488-.383.496-1.961.976-3.852 1.492-5.883.121-.477.957-.059.957-.059l.375 11.489s-.254.43-.5.43zm0 0"/></g><path fill="#343434" d="M106.328 137.512c.547 5.363-3.277 12.324-8.402 14.777-5.856 2.8-11.293 1.527-16.23-2.328-3.06-2.39-5.196-5.566-6.489-9.184-3.988-11.136-4.02-22.293.512-33.289.906-2.195 2.297-4.289 3.836-6.113 5.668-6.715 12.703-7.469 19.605-2.406 1.594-1.09 3.149-2.149 4.7-3.211.226.164.449.324.671.488v14.316c-.172.114-.344.223-.52.336-.394-.535-.878-1.023-1.175-1.609-1.234-2.43-2.113-5.102-3.668-7.297-4.547-6.402-11.621-5.941-15.027 1.106-1.57 3.254-2.563 6.933-3.07 10.527-1.255 8.906-1.317 17.871.867 26.676.62 2.508 1.66 5.039 3.054 7.207 2.996 4.66 8.367 5.601 12.969 2.504 3.562-2.403 5.629-5.89 6.789-9.969.262-.922.555-1.832.832-2.746.246.07.496.144.746.215zm0 0"/></svg>