<svg xmlns="http://www.w3.org/2000/svg" width="250" height="250"><g fill="#fff"><path stroke="#000" stroke-miterlimit="10" stroke-width=".60916" d="M236.356 125c0 61.5-49.856 111.356-111.356 111.356C63.5 236.356 13.645 186.5 13.645 125 13.645 63.5 63.5 13.645 125 13.645c61.5 0 111.356 49.855 111.356 111.355zm0 0"/><path d="m99.05 12.305-.245.12c.183.184.43.305.61.49zM102.828 29.059l-.183.12c.183.122.363.243.546.426zm0 0"/></g><path fill="#3cf" d="M125 0C55.98 0 0 55.98 0 125s55.98 125 125 125 125-55.98 125-125S194.02 0 125 0zM65.973 190.91c-7.434-8.222-13.098-17.91-17.059-29.055-3.957-11.148-5.906-23.148-5.906-36.003 0-13.22 1.949-25.461 5.906-36.73 3.414-9.747 8.102-18.4 14.074-26.013.242-.304.489-.609.73-.914.731-.914 1.462-1.765 2.192-2.62.914-1.036 1.89-2.071 2.863-3.106.063-.059.122-.121.184-.184.793-.789 1.645-1.582 2.438-2.375.242-.242.488-.426.73-.668.61-.55 1.219-1.097 1.828-1.586.305-.242.547-.488.852-.73.61-.489 1.218-.973 1.828-1.461.305-.246.61-.426.914-.672.242-.184.488-.363.73-.547h.063c4.508-3.289 9.441-6.094 14.863-8.469 10.781-4.75 22.965-7.187 36.488-7.187 9.746 0 18.946 1.402 27.594 4.203 8.653 2.8 16.387 6.883 23.27 12.246a63.927 63.927 0 0 1 9.261 8.89 68.4 68.4 0 0 1 7.676 11.028c4.446 7.918 7.246 16.996 8.406 27.23h-20.714c-8.711 0-16.688-4.69-21.258-12.124 0-.06-.063-.06-.063-.122-2.312-3.714-5.175-6.941-8.648-9.746-3.473-2.8-7.371-4.996-11.758-6.578-4.02-1.46-8.164-2.191-12.488-2.316h-1.219c-8.77 0-16.14 1.707-22.234 5.058-6.09 3.348-11.024 7.918-14.864 13.582-.425.672-.851 1.34-1.277 2.012-.305.488-.55.914-.793 1.402-.121.18-.242.364-.305.547-.363.61-.668 1.22-.972 1.887 0 .063-.063.063-.063.125-.367.668-.672 1.34-.976 2.07a66.217 66.217 0 0 0-3.899 11.391 97.979 97.979 0 0 0-2.617 22.477c0 7.433.852 14.62 2.617 21.625 1.707 7.007 4.508 13.343 8.285 18.945 3.778 5.605 8.711 10.113 14.864 13.465 6.093 3.41 13.523 5.054 22.234 5.054h1.523c-14.863 10.66-33.015 16.996-52.628 17.239a76.829 76.829 0 0 1-12.672-11.27zm133.773-15.594c-4.144 8.895-9.566 16.508-16.328 22.782-6.762 6.277-14.68 11.027-23.758 14.316-8.285 2.984-17.3 4.629-27.105 4.875-.914 0-1.89.059-2.864.059h-.55c-9.196-.059-17.727-1.157-25.645-3.41a92.817 92.817 0 0 0 44.227-28.57 90.59 90.59 0 0 0 4.261-5.36c1.22-1.403 2.5-2.801 3.778-4.145a23.53 23.53 0 0 0 1.765-1.765c0-.059.063-.059.063-.121a110.685 110.685 0 0 1 8.59-7.434c11.695-8.89 25.586-15.106 40.754-17.602-1.098 9.684-3.473 18.457-7.188 26.375zm0 0"/></svg>