<svg xmlns="http://www.w3.org/2000/svg" width="250" height="250"><g fill-rule="evenodd"><path fill="#fff" d="M250 125c0 69.035-55.965 125-125 125S0 194.035 0 125 55.965 0 125 0s125 55.965 125 125zm0 0"/><path d="M189.246 174.25c-19.574 19.168-36.465 28.43-64.27 28.43-46.304 0-78.277-32.344-78.277-77.887 0-46.773 36.254-77.473 78.715-77.473a85.118 85.118 0 0 1 64.48 29.668l-19.808 18.957c-13.39-14.222-28.012-21.632-45.32-21.632-27.782 0-50.461 21.425-50.461 50.48 0 30.5 21.836 50.894 51.086 50.894 18.324 0 30.687-7.41 44.695-21.425zm0 0"/></g></svg>