<svg xmlns="http://www.w3.org/2000/svg" width="250" height="250"><path fill="#4156a6" d="M250 125c0 69.035-55.965 125-125 125S0 194.035 0 125 55.965 0 125 0s125 55.965 125 125zm0 0"/><path fill="#fff" fill-rule="evenodd" d="M125 200c-41.355 0-75-33.645-75-75s33.645-75 75-75 75 33.645 75 75-33.645 75-75 75m0-143.129c-37.566 0-68.129 30.563-68.129 68.129S87.434 193.129 125 193.129s68.129-30.563 68.129-68.129S162.566 56.871 125 56.871m29.594 100.8a3.431 3.431 0 0 0 .097-4.706 3.438 3.438 0 0 0-4.691-.387c-14.879 13.48-37.77 12.73-51.73-1.7-13.961-14.429-13.961-37.327 0-51.757 13.96-14.43 36.851-15.18 51.73-1.7a3.44 3.44 0 0 0 5.742-1.788 3.447 3.447 0 0 0-1.133-3.305c-17.625-15.969-44.742-15.078-61.28 2.016-16.54 17.09-16.54 44.222 0 61.312 16.538 17.094 43.655 17.985 61.28 2.016m8.5-56.766a6.432 6.432 0 0 0-6.433 6.434c0 3.555 2.879 6.433 6.433 6.433s6.438-2.878 6.438-6.433a6.453 6.453 0 0 0-6.438-6.434M166 107.34a2.868 2.868 0 0 1-4.898 2.035 2.864 2.864 0 0 1-.622-3.129 2.864 2.864 0 0 1 2.657-1.77A2.867 2.867 0 0 1 166 107.34"/></svg>