<svg xmlns="http://www.w3.org/2000/svg" width="250" height="250"><path fill="#a52639" d="M43.383 216.176v-4.41H25.734v-8.825h52.942v-8.824H61.03v-8.824h-8.824v-12.5H22.793v-2.574c0-2.352-.145-2.57-2.203-2.57h-2.207v-52.942h8.086v-5.148h25.738v-6.25c0-3.676-.297-6.25-.738-6.25-.438 0-.735-1.985-.735-4.41v-4.415H195.59v4.414c0 3.454-.223 4.41-1.106 4.41-.953 0-1.101 4.926-1.101 39.708v39.703h-8.824v8.824h-8.825v8.824h-8.824v8.824h50.738v8.825H200v8.824H43.383zm8.824-75v-22.059H26.469v44.117h25.738zm0 0"/><path fill="#dd3745" d="M96.324 207.352v-4.41h121.324v8.824H96.324zM113.969 189.707v-4.414h-8.82v-8.824h-8.825v-79.41h-45.59v-8.825H195.59v4.414c0 3.454-.223 4.41-1.106 4.41-.953 0-1.101 4.926-1.101 39.708v39.703h-8.824v8.824h-8.825v8.824H113.97zm0 0"/><path fill="#854cbf" d="M185.293 207.352v-4.41h8.824v8.824h-8.824zM138.969 172.059v-13.235h8.824V97.06H50.734v-8.825H195.59v8.825h-38.973v61.765h8.824v26.469H138.97zm0 0"/><path fill="#854cbf" d="M174.266 134.926V116.91h8.824v36.031h-8.824zm0 0"/><path fill="#ffaa6e" d="M185.293 207.352v-4.41h8.824v8.824h-8.824zM174.266 134.926V116.91h8.824v36.031h-8.824zm0 0"/><path fill="#ffaa6e" d="M147.793 123.531V97.06H50.734v-8.825H195.59v8.825h-38.973V150h-8.824zm0 0"/><g fill="#ffe091"><path d="M185.293 207.352v-4.41h8.824v8.824h-8.824zM174.266 134.926V116.91h8.824v36.031h-8.824zM50.734 92.648v-4.414h97.059v8.825H50.734zM156.617 92.648v-4.414h38.973v8.825h-38.973zm0 0"/></g><path fill="#cce2e1" d="M50.734 92.648v-4.414h97.059v8.825H50.734zM156.617 92.648v-4.414h38.973v8.825h-38.973zm0 0"/></svg>