<svg xmlns="http://www.w3.org/2000/svg" width="250" height="250"><path d="M161.188 43.43a5.276 5.276 0 0 0-6.118-4.285 5.28 5.28 0 0 0-4.285 6.117l2.418 13.707c-4.273-3.27-8.898-5.633-13.887-7.008-7.058-2.012-14.168-1.91-21.203.285-7.039 2.027-13.386 5.977-19.039 11.629L84.336 78.609C75.555 87.395 70.215 97.043 69 107.56c-1.234 10.53 2.11 19.808 9.73 27.43l7.172 7.171c6.43 6.43 14.211 9.738 23.098 9.633l.063-.004c8.843-.203 17.64-3.746 26.308-9.992a5.277 5.277 0 0 0 1.195-7.371 5.278 5.278 0 0 0-7.37-1.2c-7.493 5.395-14.25 7.852-20.348 8.004-5.883.06-10.957-2.023-15.477-6.542l-7.172-7.172c-5.422-5.422-7.55-11.528-6.707-18.73l.004-.013c.871-7.57 4.75-15.132 12.313-22.691l14.734-14.738c4.59-4.59 9.437-7.5 14.539-8.957l.133-.04c5.11-1.605 10.14-1.675 15.222-.222l.051.012c3.582.988 7.04 2.718 10.364 5.273l-13.204 2.328a5.283 5.283 0 0 0 1.832 10.406l31.215-5.503zm0 0"/><path d="M170.504 142.086c-.871 7.57-4.75 15.133-12.309 22.691l-14.738 14.739c-4.59 4.586-9.437 7.5-14.539 8.957l-.133.039c-5.11 1.605-10.14 1.675-15.222.222l-.051-.015c-3.914-1.074-7.676-3.04-11.285-6.004l14.191-2.504a5.279 5.279 0 0 0 4.285-6.117 5.287 5.287 0 0 0-6.121-4.285l-31.21 5.504 5.503 31.21a5.282 5.282 0 1 0 10.402-1.835l-2.218-12.602c4.199 3.168 8.738 5.465 13.625 6.812 7.058 2.016 14.168 1.91 21.203-.285 7.039-2.027 13.386-5.972 19.039-11.629l14.738-14.734c8.781-8.785 14.121-18.434 15.336-28.95 1.234-10.53-2.11-19.808-9.73-27.429l-7.172-7.172c-6.43-6.43-14.211-9.734-23.098-9.633l-.063.004c-8.843.203-17.64 3.746-26.308 9.993a5.281 5.281 0 0 0-1.195 7.374 5.28 5.28 0 0 0 7.37 1.196c7.493-5.395 14.25-7.852 20.348-8 5.883-.063 10.957 2.02 15.477 6.539l7.172 7.172c5.422 5.422 7.55 11.527 6.707 18.73zm0 0"/><g fill="none" stroke="#000" stroke-linecap="round" stroke-width=".3"><path stroke-width=".46875" d="M161.188 43.43a5.276 5.276 0 0 0-6.118-4.285 5.28 5.28 0 0 0-4.285 6.117l2.418 13.707c-4.273-3.27-8.898-5.633-13.887-7.008-7.058-2.012-14.168-1.91-21.203.285-7.039 2.027-13.386 5.977-19.039 11.629L84.336 78.609C75.555 87.395 70.215 97.043 69 107.56c-1.234 10.53 2.11 19.808 9.73 27.43l7.172 7.171c6.43 6.43 14.211 9.738 23.098 9.633l.063-.004c8.843-.203 17.64-3.746 26.308-9.992a5.277 5.277 0 0 0 1.195-7.371 5.278 5.278 0 0 0-7.37-1.2c-7.493 5.395-14.25 7.852-20.348 8.004-5.883.06-10.957-2.023-15.477-6.542l-7.172-7.172c-5.422-5.422-7.55-11.528-6.707-18.73l.004-.013c.871-7.57 4.75-15.132 12.313-22.691l14.734-14.738c4.59-4.59 9.437-7.5 14.539-8.957l.133-.04c5.11-1.605 10.14-1.675 15.222-.222l.051.012c3.582.988 7.04 2.718 10.364 5.273l-13.204 2.328a5.283 5.283 0 0 0 1.832 10.406l31.215-5.503zm0 0"/><path stroke-width=".46875" d="M170.504 142.086c-.871 7.57-4.75 15.133-12.309 22.691l-14.738 14.739c-4.59 4.586-9.437 7.5-14.539 8.957l-.133.039c-5.11 1.605-10.14 1.675-15.222.222l-.051-.015c-3.914-1.074-7.676-3.04-11.285-6.004l14.191-2.504a5.279 5.279 0 0 0 4.285-6.117 5.287 5.287 0 0 0-6.121-4.285l-31.21 5.504 5.503 31.21a5.282 5.282 0 1 0 10.402-1.835l-2.218-12.602c4.199 3.168 8.738 5.465 13.625 6.812 7.058 2.016 14.168 1.91 21.203-.285 7.039-2.027 13.386-5.972 19.039-11.629l14.738-14.734c8.781-8.785 14.121-18.434 15.336-28.95 1.234-10.53-2.11-19.808-9.73-27.429l-7.172-7.172c-6.43-6.43-14.211-9.734-23.098-9.633l-.063.004c-8.843.203-17.64 3.746-26.308 9.993a5.281 5.281 0 0 0-1.195 7.374 5.28 5.28 0 0 0 7.37 1.196c7.493-5.395 14.25-7.852 20.348-8 5.883-.063 10.957 2.02 15.477 6.539l7.172 7.172c5.422 5.422 7.55 11.527 6.707 18.73zm0 0"/></g></svg>