<svg xmlns="http://www.w3.org/2000/svg" width="250" height="250"><path fill="#01c38d" fill-rule="evenodd" d="m154.805 0-20.508 11.637V110.5l11.2 6.363V41.574l38.44 21.82.04-.015 7.464 4.23 6.23-3.515v-5.942l-52.175-29.578V18.281L154.805 13l54.035 30.68v27.3l-25.942 14.645-.875-.434c-1.578-.777-3.214-1.175-4.859-1.175-6.172 0-11.195 5.09-11.195 11.34s5.023 11.343 11.195 11.343c5.727 0 10.488-4.379 11.078-10.183l.098-.98 26.18-14.778 24.28 13.785v60.992l-24.308 13.785-98.789-56.101V11.645L95.195 0 29.961 37.035v33.793L0 87.816v74.286l29.96 17.007v33.856L95.196 250l20.508-11.64V139.28l-11.2-6.355v75.504L58.56 182.39l-6.235 3.516v5.946l52.18 29.578v10.285L95.195 237 41.16 206.32v-27.308l25.942-14.633.87.43c1.587.777 3.216 1.175 4.86 1.175 6.172 0 11.2-5.086 11.2-11.34 0-6.257-5.028-11.34-11.2-11.34-5.723 0-10.48 4.376-11.074 10.184l-.094.977-26.187 14.777-24.282-13.785V94.465l24.313-13.781 98.789 56.093V238.36L154.805 250l65.234-37.035v-33.793L250 162.184V87.898l-29.96-17.003v-33.86zM41.16 43.68 95.195 13l9.309 5.285V28.57L41.16 64.477zM46.97 74.19l57.535-32.625v65.293zm98.527 68.946 57.54 32.675-57.54 32.622zm0 88.578v-10.281l63.344-35.914v20.8L154.805 237zm0 0"/></svg>