<svg xmlns="http://www.w3.org/2000/svg" width="250" height="250"><g fill="#cd0124"><path d="M148.332 130.832c0-1.664 0-2.5-1.664-3.332-5.836-4.168-12.5-8.332-18.336-12.5a3.741 3.741 0 0 0-4.164 0l-18.336 13.332a4.591 4.591 0 0 0-2.5 4.168 8.912 8.912 0 0 1-1.664 5 3.748 3.748 0 0 0 0 4.168c6.664 13.332 12.5 26.664 19.164 40 2.5 4.164 4.168 9.164 6.668 14.164.832-.832.832-1.664 1.668-2.5 7.5-16.664 14.164-33.332 21.664-50 .836-1.664.836-2.5-.832-3.332a10.92 10.92 0 0 1-1.668-9.168zM120 109.168C103.332 97.5 86.668 85.832 70.832 75l-.832.832c.832 1.668.832 2.5 1.668 4.168l17.5 37.5c1.664 3.332 2.5 6.668 7.5 7.5a7.513 7.513 0 0 0 4.164-.832c5-4.168 10.836-7.5 15.836-11.668zm0 0"/><path d="M125 0C55.965 0 0 55.965 0 125s55.965 125 125 125 125-55.965 125-125S194.035 0 125 0zm67.5 72.5c-1.668 0-2.5.832-3.332 2.5-6.668 16.668-14.168 33.332-20.836 50v3.332a10.836 10.836 0 0 1 .106 9.031 10.84 10.84 0 0 1-6.77 5.969c-.836 0-1.668.836-2.5 2.5-7.5 16.668-15 34.168-21.668 50.836a3.741 3.741 0 0 0 0 4.164A10.5 10.5 0 0 1 135.832 215a10.16 10.16 0 0 1-13.332.832 9.574 9.574 0 0 1-4.016-6.148A9.587 9.587 0 0 1 120 202.5a5.342 5.342 0 0 0 0-5c-8.332-16.668-15.832-33.332-24.168-50a5.824 5.824 0 0 0-4.164-3.332c-3.45-.574-6.395-2.8-7.89-5.957s-1.352-6.848.39-9.879a3.756 3.756 0 0 0 0-4.164c-7.5-16.668-15-32.5-23.336-49.168 0-.832-.832-1.668-3.332-1.668a10.668 10.668 0 0 1-9.168-10 12.837 12.837 0 0 1 7.5-10.832 10.33 10.33 0 0 1 12.5 4.168c.836 1.664 1.668 1.664 4.168 1.664h105.832c1.668 0 3.336 0 4.168-2.5a9.583 9.583 0 0 1 11.668-4.164 11.674 11.674 0 0 1 7.5 10A10.836 10.836 0 0 1 192.5 72.5zm0 0"/><path d="M125 103.332a3.748 3.748 0 0 0 4.168 0c15.832-11.664 31.664-22.5 46.664-34.164.836-.836 1.668-.836 1.668-1.668v-.832h-105a6.396 6.396 0 0 1 2.5 1.664zM133.332 109.168c6.668 5 13.336 9.164 20 13.332 1.668.832 4.168 0 6.668 0 .832 0 1.668-1.668 1.668-2.5 5.832-13.332 11.664-27.5 17.5-40.832 0-.836.832-1.668.832-2.5h-.832c-14.168 10-30 20.832-45.836 32.5zm0 0"/></g></svg>