<svg xmlns="http://www.w3.org/2000/svg" width="250" height="250"><path fill="#fffeff" d="M0 0h250v250H0z"/><path fill="#20a5a7" d="m17.75 74.25.25.25zm0 0"/><path fill="#e9d227" d="m18 74.25-.25.5zm0 0"/><path fill="#2e2c2b" d="M18 74.5v.25l2.75 1.5c-.465-1.27-1.516-1.469-2.75-1.75zm0 0"/><path fill="#20a5a7" d="m18.5 74.5.25.25zm-.25.25.25.25zm1 0 .25.25zm0 0"/><path fill="#e9d227" d="m19.5 74.75.25.25zm.75.25.25.25zm-1.25.25.25.25zm1.5 0c.586 1.777 2.473 2.578 4 3.5l-1.25-3zm0 0"/><path fill="#20a5a7" d="m19.5 75.5.25.25zm0 0"/><path fill="#cd3a5f" d="m20.5 75.5.25.25zm0 0"/><path fill="#20a5a7" d="m20.25 76 .25.25zm0 0"/><path fill="#2e2c2b" d="M23 76c1.227 2.328 2.738 3.797 5.25 4.75-1.184-2.055-2.871-4.148-5.25-4.75zm0 0"/><path fill="#cd3a5f" d="m23.5 76 .25.25zm0 0"/><path fill="#e9d227" d="m23.75 76 .25.25zm0 0"/><path fill="#cd3a5f" d="M24.25 76.25v.25c1.395 1.063 3.398 2.7 3.75 4.5l4.5 2.25V83l-.75-.25-.5-.5c.02-.73-.027-.922-.75-1-.629-1.824-1.691-2.84-3.5-3.5l.25-.75zm0 0"/><path fill="#e9d227" d="m24.5 76.25.25.25zm0 0"/><path fill="#cd3a5f" d="m23.25 76.5.25.25zm0 0"/><path fill="#e9d227" d="m25.168 76.582.164.086zm1 .25.164.086zm0 0"/><path fill="#cd3a5f" d="m23.5 77 .25.25zm0 0"/><path fill="#e9d227" d="m27.25 77 .25.25zm0 0"/><path fill="#2e2c2b" d="M27.25 77.25c3.152 3.91 7.016 8.66 12 10.25-1.645-4.828-6.918-9.504-12-10.25zm0 0"/><path fill="#cd3a5f" d="m28 77.25.25.25zm0 0"/><path fill="#e9d227" d="m28.25 77.25.25.25zm0 0"/><path fill="#cd3a5f" d="m23.75 77.5.25.25zm0 0"/><path fill="#e9d227" d="m26 77.5.5.5zm1 0 .75.5zm0 0"/><path fill="#cd3a5f" d="m28.75 77.5.25.25zm0 0"/><path fill="#e9d227" d="m29 77.5.25.25zm0 0"/><path fill="#cd3a5f" d="M29.75 77.75 30 78zm0 0"/><path fill="#e9d227" d="m30 77.75.25.25zm0 0"/><path fill="#cd3a5f" d="m24 78 .25.25zm0 0"/><path fill="#e9d227" d="m27.75 78 .25.25zm2.75 0 .25.25zm-2.5.25 2 2zm3 0v.25c3.738 2.148 6.91 5.504 8.5 9.5l1.5 1h.25l-.25-.5h.25l.25.75.75-.25v.75h.25l-.25-.5h.25l.25.75.75-.25v.75l.75-.25V91h.25v-.75l.75 1.25 1.25.75c-.91-1.82-2.469-2.89-3.64-4.5-.56-.766-.59-1.742-1.188-2.477-2.227-2.746-7.2-6.27-10.672-7.023zm0 0"/><path fill="#20a5a7" d="m31.25 78.5.25.25zm0 0"/><path fill="#e9d227" d="M24.75 78.75 25 79zm2.25 0 .75.75zm0 0"/><path fill="#20a5a7" d="m32.25 78.75.25.25zm.5 0 .5.5zm0 0"/><path fill="#cd3a5f" d="m33 78.75.5.5v-.5zm-7.75.25.25.25zm0 0"/><path fill="#20a5a7" d="m32 79 .25.25zm0 0"/><path fill="#2e2c2b" d="M33.5 79v.25c2.836 1.742 5.96 3.605 8.172 6.145.598.69.621 1.59 1.082 2.355.914 1.531 2.703 3.387 4.062 4.555 2.852 2.445 6.72 4.293 9.934 6.246 2.777 1.687 5.52 3.886 8.5 5.191.89.387 1.875.25 2.75.656 1.992.93 3.27 2.934 5.25 3.852l.25-2.25 3.055 4.652 8.195 5.184L106 128.953 127.25 142v-.25c-8.285-5.934-16.52-12.371-22.777-20.5-5.575-7.234-9.09-16.219-16.223-22.14C75.434 88.464 58.18 85.69 42.5 81.5l.25 2c-2.852-2.191-5.746-3.695-9.25-4.5zm0 0"/><path fill="#cd3a5f" d="m34 79 .25.25zm0 0"/><path fill="#e9d227" d="m34.25 79 .25.25zm-8.75.25.25.25zm0 0"/><path fill="#20a5a7" d="m32.25 79.25.25.25zm1.25 0 .25.25zm0 0"/><path fill="#cd3a5f" d="m34.75 79.25.25.25zm0 0"/><path fill="#e9d227" d="m35 79.25.25.25zm0 0"/><path fill="#cd3a5f" d="m26 79.5.25.25zm0 0"/><path fill="#20a5a7" d="m33.25 79.5.5.5zm.75 0 .25.25zm0 0"/><path fill="#cd3a5f" d="m35.75 79.5.25.25zm0 0"/><path fill="#e9d227" d="m36 79.5.25.25zm-9.75.25.25.25zm0 0"/><path fill="#cd3a5f" d="m26.5 79.75.25.25zm8 0 .25.25zm2 0 .25.25zm0 0"/><path fill="#e9d227" d="M36.75 79.75 37 80zm-10 .25.25.25zM28 80l.25.25zm0 0"/><path fill="#20a5a7" d="m33.25 80 .25.25zm.75 0 1.25 1.25zm.75 0 .25.25zm0 0"/><path fill="#e9d227" d="m37.5 80 .25.25zm0 0"/><path fill="#cd3a5f" d="m27.25 80.25.25.25zm0 0"/><path fill="#e9d227" d="m30 80.25.25.25zm0 0"/><path fill="#cd3a5f" d="m33.5 80.25.25.25zm1.75 0 .25.25zm0 0"/><path fill="#e9d227" d="M38 80.25v.25l4.75 2.75-.5-2-.75.25zm-10.5.25.25.25zm2.75 0 .5.75zm0 0"/><path fill="#20a5a7" d="m35.5 80.5.25.25zm0 0"/><path fill="#cd3a5f" d="m38.25 80.5.25.25zm0 0"/><path fill="#20a5a7" d="m36 80.75.25.25zm0 0"/><path fill="#cd3a5f" d="M38.75 80.75 39 81zm0 0"/><path fill="#e9d227" d="m28.5 81 .25.25zm0 0"/><path fill="#20a5a7" d="m35.5 81 .25.25zm.75 0 .25.25zm0 0"/><path fill="#cd3a5f" d="m39 81 .25.25zm0 0"/><path fill="#e9d227" d="m28.75 81.25.25.25zm2 0 .5.5zm0 0"/><path fill="#20a5a7" d="m34.75 81.25.25.25zm0 0"/><path fill="#cd3a5f" d="m36.75 81.25.25.25zm2.75 0 .25.25zm2.168.082.164.086zm0 0"/><path fill="#e9d227" d="m29.25 81.5.25.25zm0 0"/><path fill="#20a5a7" d="m35 81.5.25.25zm1.25 0 .25.25zm.75 0 .25.25zm0 0"/><path fill="#cd3a5f" d="m39.75 81.5.25.25zm2.418.082.164.086zm0 0"/><path fill="#20a5a7" d="m43 81.5.25.25zm0 0"/><path fill="#e9d227" d="M29.75 81.75 30 82zm1.582.168.086.164zm0 0"/><path fill="#20a5a7" d="m35.25 81.75.25.25zm0 0"/><path fill="#cd3a5f" d="m37.5 81.75.25.25zm2.75 0 .25.25zm3.25 0 .25.25zm0 0"/><path fill="#e9d227" d="m43.918 81.832.164.086zM30 82l.25.25zm0 0"/><path fill="#20a5a7" d="m35.5 82 .25.25zm1.5 0 .5.5zm.75 0 .25.25zm0 0"/><path fill="#cd3a5f" d="m40.75 82 .25.25zm3.75 0 .25.25zm0 0"/><path fill="#e9d227" d="m44.918 82.082.164.086zM30.5 82.25l.25.25zm1 0 .25.25zm0 0"/><path fill="#20a5a7" d="m35.75 82.25.25.25zm2.25 0 .25.25zm0 0"/><path fill="#cd3a5f" d="m41 82.25.25.25zm0 0"/><path fill="#20a5a7" d="m45.5 82.25.25.25zm0 0"/><path fill="#e9d227" d="m45.75 82.25.25.25zm-14 .25.25.25zm0 0"/><path fill="#20a5a7" d="m36 82.5.25.25zm0 0"/><path fill="#cd3a5f" d="m38.5 82.5.25.25zm3 0 .25.25zm4.75 0 .25.25zm0 0"/><path fill="#e9d227" d="m46.668 82.582.164.086zm-15.418.168.25.25zm0 0"/><path fill="#20a5a7" d="m36.25 82.75.25.25zm1.75 0 .25.25zm.75 0L39 83zm0 0"/><path fill="#cd3a5f" d="M41.75 82.75 42 83zm0 0"/><path fill="#20a5a7" d="m47.25 82.75.25.25zm0 0"/><path fill="#e9d227" d="m47.5 82.75.25.25zM31.75 83l.75.5zm0 0"/><path fill="#20a5a7" d="m36.5 83 .25.25zm.5 0 1 1zm2 0 .25.25zm0 0"/><path fill="#cd3a5f" d="m42.25 83 .25.25zM48 83l.25.25zm0 0"/><path fill="#20a5a7" d="m48.25 83 .25.25zm0 0"/><path fill="#e9d227" d="m48.5 83 .25.25zm79.25 0 .25.25zm0 0"/><path fill="#2e2c2b" d="M128 83c.848 1.82 3.96 6.273 5.824 7.102 2.871 1.273 7.29.812 10.426 1.503 5.984 1.325 12.281 3.54 16.75 7.899 5.063 4.937 7.414 11.406 10.215 17.746 3.215 7.273 6.683 14.492 10.89 21.25 6.352 10.195 16.657 15.816 27.145 21.063 5.172 2.585 10.84 5.378 16.5 6.687l-4.578-7.75-11.672-19h-.25c.59 2.043 1.555 3.86 1.89 6 .868 5.543-3.226 10.594-8.14 5.746-3.156-3.113-5.309-8.27-4.563-12.746.368-2.195 1.891-5.055 4.563-4.57 1.973.36 3.2 1.98 4.75 3.07-1.797-3.84-4.5-7.375-6.7-11-4.71-7.758-9.28-16.11-17.05-21.25 2.398 3.258 5.578 5.758 7.828 9.25 2.324 3.613 4.223 7.89 4.172 12.25-.031 2.457-1.473 5.14-4.25 5.164-2.402.024-4.867-1.422-6.75-2.77-4.629-3.328-8.543-8.214-10.922-13.394-1.687-3.676-4.992-13.645 2.172-13.746 1.258-.016 2.313.422 3.5.746V102c-5.254-3.066-11.3-4.645-17-6.672zm0 0"/><path fill="#20a5a7" d="m36.75 83.25.25.25zm2 0 .75.75zm0 0"/><path fill="#cd3a5f" d="m42.5 83.25.25.25zm6.5 0 .25.25zm0 0"/><path fill="#e9d227" d="m49.418 83.332.164.086zm0 0"/><path fill="#20a5a7" d="m128.75 83.25.25.25zm0 0"/><path fill="#e9d227" d="m32.5 83.5.25.25zm0 0"/><path fill="#cd3a5f" d="m39.75 83.5.25.25zm10.168.082.164.086zm0 0"/><path fill="#e9d227" d="m50.25 83.5.25.25zm79.25 0 .25.25zm-96.75.25L33 84zm0 0"/><path fill="#20a5a7" d="m40 83.75.25.25zm0 0"/><path fill="#cd3a5f" d="m43.5 83.75.25.25zm7.25 0L51 84zm0 0"/><path fill="#e9d227" d="m51.168 83.832.164.086zm79.082-.082.25.25zm0 0"/><path fill="#cd3a5f" d="m33.25 84 .25.25zm0 0"/><path fill="#20a5a7" d="m40.25 84 .25.25zm11.5 0 .25.25zm0 0"/><path fill="#e9d227" d="m52 84 .25.25zm0 0"/><path fill="#20a5a7" d="m130.75 84 .25.25zm0 0"/><path fill="#e9d227" d="m131 84 .25.25zm0 0"/><path fill="#cd3a5f" d="m33.75 84.25.25.25zm3.75 0 .25.25zm0 0"/><path fill="#20a5a7" d="m38 84.25.5.5zm2.5 0 .25.25zm12.25 0 .25.25zm0 0"/><path fill="#e9d227" d="m53 84.25.25.25zm78.75 0 .25.25zM34 84.5l.25.25zm0 0"/><path fill="#20a5a7" d="m37.75 84.5.25.25zm2.5 0 1.5 1.5zm0 0"/><path fill="#cd3a5f" d="m53.5 84.5.25.25zm0 0"/><path fill="#e9d227" d="m53.918 84.582.164.086zM129 84.5l.25.25zm0 0"/><path fill="#20a5a7" d="m132.25 84.5.25.25zm0 0"/><path fill="#cd3a5f" d="m34.5 84.75.25.25zm8.75 0 .25.25zm11.168.082.164.086zm0 0"/><path fill="#e9d227" d="M54.75 84.75 55 85zm0 0"/><path fill="#20a5a7" d="m129.25 84.75.25.25zm3.75 0 .25.25zm0 0"/><path fill="#cd3a5f" d="m55.25 85 .25.25zm0 0"/><path fill="#20a5a7" d="m55.5 85 .25.25zm0 0"/><path fill="#e9d227" d="m55.75 85 .25.25zm0 0"/><path fill="#20a5a7" d="m129.5 85 .25.25zm4.25 0 .25.25zm0 0"/><path fill="#cd3a5f" d="m35.25 85.25.25.25zm0 0"/><path fill="#20a5a7" d="m38.25 85.25.25.25zm0 0"/><path fill="#cd3a5f" d="m56.25 85.25.25.25zm0 0"/><path fill="#e9d227" d="m56.5 85.25.25.25zm78 0 .25.25zm0 0"/><path fill="#cd3a5f" d="m35.75 85.5.25.25zm6.25 0 .25.25zm0 0"/><path fill="#20a5a7" d="m57.25 85.5.25.25zm0 0"/><path fill="#e9d227" d="m57.5 85.5.25.25zm77.75 0 .25.25zM36 85.75l.25.25zm0 0"/><path fill="#20a5a7" d="m38.5 85.75.25.25zm.5 0 .25.25zm0 0"/><path fill="#cd3a5f" d="m43 85.75.25.25zm15 0 .25.25zm0 0"/><path fill="#e9d227" d="m58.418 85.832.164.086zm0 0"/><path fill="#20a5a7" d="m135.75 85.75.25.25zm0 0"/><path fill="#e9d227" d="m136 85.75.25.25zm0 0"/><path fill="#cd3a5f" d="m36.5 86 .25.25zM59 86l.25.25zm0 0"/><path fill="#e9d227" d="m59.25 86 .25.25zm71 0 .25.25zm0 0"/><path fill="#20a5a7" d="m136.5 86 .25.25zm0 0"/><path fill="#cd3a5f" d="m37 86.25.25.25zm0 0"/><path fill="#20a5a7" d="m38.75 86.25.25.25zm0 0"/><path fill="#cd3a5f" d="m43 86.25.25.25zm16.75 0 .25.25zm0 0"/><path fill="#20a5a7" d="m60 86.25.25.25zm0 0"/><path fill="#e9d227" d="m60.25 86.25.25.25zm70.25 0 .25.25zm0 0"/><path fill="#20a5a7" d="m137.25 86.25.25.25zm0 0"/><path fill="#e9d227" d="m37.25 86.5.25.25zm0 0"/><path fill="#20a5a7" d="m61 86.5.25.25zm0 0"/><path fill="#e9d227" d="m61.25 86.5.25.25zm0 0"/><path fill="#20a5a7" d="m130.75 86.5.25.25zm0 0"/><path fill="#e9d227" d="m138 86.5.25.25zm0 0"/><path fill="#cd3a5f" d="M37.75 86.75 38 87zm0 0"/><path fill="#20a5a7" d="m39 86.75.25.25zm23 0 .25.25zm0 0"/><path fill="#e9d227" d="m62.25 86.75.25.25zm76.5 0 .25.25zm0 0"/><path fill="#cd3a5f" d="m39 87 .25.25zm0 0"/><path fill="#20a5a7" d="m42.25 87 .25.25zm0 0"/><path fill="#cd3a5f" d="m43.25 87 .25.25zm0 0"/><path fill="#e9d227" d="m63 87 .25.25zm76.5 0 .25.25zm0 0"/><path fill="#cd3a5f" d="m38.5 87.25.25.25zm23.25 0 .25.25zm0 0"/><path fill="#20a5a7" d="m63.75 87.25.25.25zm0 0"/><path fill="#e9d227" d="m64 87.25.25.25zm76.25 0 .25.25zm0 0"/><path fill="#cd3a5f" d="m39 87.5.25.25zm0 0"/><path fill="#20a5a7" d="m39.5 87.5.25.25zm2.5 0 2.5 2.75zm.5 0 .25.25zm0 0"/><path fill="#cd3a5f" d="m62.25 87.5.25.25zm0 0"/><path fill="#20a5a7" d="m64.75 87.5.25.25zm0 0"/><path fill="#e9d227" d="m65 87.5.25.25zm66.5 0 .25.25zm0 0"/><path fill="#20a5a7" d="m140.75 87.5.25.25zm0 0"/><path fill="#e9d227" d="m141 87.5.25.25zm0 0"/><path fill="#20a5a7" d="M39.75 87.75V88l1.25.5v-.25zm0 0"/><path fill="#cd3a5f" d="m43.75 87.75 2.75 2.75zm19 0L63 88zm0 0"/><path fill="#20a5a7" d="M65.75 87.75 66 88zm0 0"/><path fill="#e9d227" d="m66 87.75.25.25zm0 0"/><path fill="#20a5a7" d="m141.5 87.75.25.25zm0 0"/><path fill="#cd3a5f" d="m63.25 88 .25.25zm0 0"/><path fill="#20a5a7" d="m66.5 88 .25.25zm0 0"/><path fill="#e9d227" d="m66.75 88 .25.25zm75.5 0 .25.25zm-102 .25.25.25zm0 0"/><path fill="#20a5a7" d="m67.5 88.25.25.25zm0 0"/><path fill="#e9d227" d="m67.75 88.25.25.25zm75.25 0 .25.25zm0 0"/><path fill="#20a5a7" d="m41 88.5.75.5zm27.5 0 .25.25zm0 0"/><path fill="#e9d227" d="m68.75 88.5.25.25zm63.5 0 .25.25zm11.5 0 .25.25zm0 0"/><path fill="#cd3a5f" d="m65 88.75.25.25zm0 0"/><path fill="#20a5a7" d="m69.5 88.75.25.25zm0 0"/><path fill="#e9d227" d="M69.75 88.75 70 89zm0 0"/><path fill="#20a5a7" d="m132.5 88.75.25.25zm11.75 0 .25.25zm0 0"/><path fill="#e9d227" d="m144.5 88.75.25.25zm0 0"/><path fill="#20a5a7" d="m41.918 89.082.164.086zm0 0"/><path fill="#cd3a5f" d="m65.5 89 .25.25zm0 0"/><path fill="#e9d227" d="m70.5 89 .25.25zm74.75 0 .25.25zm0 0"/><path fill="#20a5a7" d="m42.25 89.25.75.5zm0 0"/><path fill="#cd3a5f" d="m53.5 89.25.25.25zm12.5 0 .25.25zm0 0"/><path fill="#e9d227" d="m71.5 89.25.25.25zm0 0"/><path fill="#20a5a7" d="m145.75 89.25.25.25zm0 0"/><path fill="#cd3a5f" d="m55.25 89.5.25.25zm0 0"/><path fill="#20a5a7" d="m72.25 89.5.25.25zm0 0"/><path fill="#e9d227" d="m72.5 89.5.25.25zm60.5 0 .25.25zm0 0"/><path fill="#20a5a7" d="m146.5 89.5.25.25zM43 89.75l.75.5zm0 0"/><path fill="#cd3a5f" d="m56.25 89.75.25.25zm0 0"/><path fill="#e9d227" d="m73.25 89.75.25.25zm0 0"/><path fill="#20a5a7" d="m133.25 89.75.25.25zm0 0"/><path fill="#e9d227" d="m147.25 89.75.25.25zm0 0"/><path fill="#cd3a5f" d="m57 90 .25.25zm0 0"/><path fill="#e9d227" d="M73.75 90v.25c5.8 3.086 12.426 6.422 16.977 11.25 7.058 7.492 11.101 17.305 18.066 25 3.844 4.246 8.45 7.887 12.957 11.395 1.996 1.55 4.703 2.851 6.25 4.855l3.25 1.852 8.75 5.148c-2.547-4.09-6.844-5.727-10.75-8.332-5.578-3.719-10.781-7.965-15.75-12.461-4.813-4.355-8.836-9.168-12.2-14.707-2.921-4.813-5.21-10.336-9.073-14.5C87.164 94.297 80.89 91.473 73.75 90M148 90l.25.25zm0 0"/><path fill="#20a5a7" d="m43.918 90.332.164.086zm.582-.082-.25.25 1.25.75zm0 0"/><path fill="#cd3a5f" d="m68.25 90.25.25.25zm0 0"/><path fill="#20a5a7" d="m74 90.25.25.25zm0 0"/><path fill="#cd3a5f" d="M133.75 90.25c.871 1.563 1.465 2.055 3.25 2v.25h-1.25v.25l4.25-.25v.25h-.75V93l2.25-.25V93h-.5v.25l1.75-.25-.25.5 1.25.25c.809-.133 1.18-.473 1 .25.809-.133 1.18-.473 1 .25l1-.25-.25.5h.25l.5-.25h.25l-.25.5h.25l.5-.25h.25l-.25.5h.25l.5-.25h.25l-.25.5h.25l.5-.25h.25l-.25.5.75-.25v.5l.75-.25c.102.73.578.617 1.25.5l-.25.5.75-.25-.25.5.75-.25-.25.5.75-.25-.25.5.75-.25-.25.5.75-.25-.25.5.75-.25-.25.5.75.5.75-.25-.25.5c.664-.133.902-.105.75.5h1v.75h1v.75l1.25.25c.223 1.3 1.45 2.527 2.75 2.75l.25 1.25.25.25.5-.25 2 3 .25 1.25.5-.25v.25l.75 1.25v1l.5-.25-.25.75.5-.25-.25.75.5-.25-.25.75.5-.25-.25.75h.5c-.16.645-.203 1 .5 1l-.25.75.5-.25v.25l-.25.5v.25l.5-.25-.25.75.5-.25v.25l-.25.5v.25l.5-.25-.25.75.5-.25-.25.75h.5l-.25.75.5-.25-.25.75.5-.25v.25l-.25.5v.25l.5-.25-.25.75.5-.25-.25.75.5-.25v.25c-.16.645-.203 1 .5 1l-.25.75.5-.25-.25.75.5-.25-.25.75.75.5c-.16.645-.203 1 .5 1l-.25.75.5-.25-.25.75.5-.25-.25.75.5-.25-.25.75.5-.25-.25.75.5-.25-.25.75.5-.25-.25.75.5-.25v.25l.75 1.25v1l.5-.25-.25.75.5-.25-.25.75.5-.25-.25.75.5.75.5-.25-.25.75.5-.25-.25.75.5.75.5-.25-.25.75 1 1.5.5-.25-.25.75h.75l-.25.75h.75l-.25.75h.75l-.25.75h.75v1l.75.25.75 1.75.25.25.5-.25c.555 1.922 2.512 3.598 4.25 4.5.16.902.621 1.105 1.5 1.25l1.25 1 .75.75 2 1.5.25.75h1l.5.5.25.75h1v.75l.75-.25v.75l.75-.25.5.5 1.5 1 .25.75.75-.25v.75l.75-.25-.25.5c.664-.133.902-.105.75.5l.75.5.75-.25v.75l.75-.25-.25.5.75.5.75-.25-.25.5c.664-.133.902-.105.75.5l.75-.25-.25.5c.664-.133.902-.105.75.5l.75-.25-.25.5.75.5.75-.25-.25.5.75.5.75-.25-.25.5.75-.25-.25.5.75.5.75-.25-.25.5.75-.25-.25.5h1l1.5.75-.25.5.75-.25-.25.5.75-.25-.25.5.5.25.5-.25v.5l.5-.25v.5l.5-.25v.5l.5-.25v.5l.5-.25v.5l.5-.25v.5l.5-.25v.5l.75-.25-.25.5.75-.25-.25.5.75-.25-.25.5.75-.25-.25.5.75-.25-.25.5.75-.25v.5l.75-.25-.25.5.75-.25-.25.5.75-.25v.5l.75-.25-.25.5h.25l.5-.25h.25l-.25.5.75-.25-.25.5 1.25.25-3.25-5.75-1 .25.25-.5H225l-.5.25h-.25l.25-.5h-.25l-.5.25h-.25l.25-.5h-.25l-.5.25h-.25l.25-.5h-.25l-.5.25H222l.25-.5-.75.25.25-.5h-.25l-.5.25h-.25l.25-.5h-.25l-.5.25H220l.25-.5-.75.25.25-.5h-.25l-.5.25h-.25l.25-.5-.75.25.25-.5h-.25l-.5.25h-.25l.25-.5-.75.25c-.102-.73-.578-.617-1.25-.5l.25-.5-.75.25.25-.5-.75.25v-.5l-.75.25.25-.5-.75.25.25-.5-.75.25c0-.703-.355-.66-1-.5l-.5-.75-.75.25.25-.5-.75.25.25-.5-.75.25.25-.5-.75.25.25-.5-.75.25.25-.5-.75.25.25-.5-.75.25.25-.5-.75.25.25-.5-.75.25.25-.5-.75.25.25-.5-.75.25.25-.5-.75.25.25-.5-.5-.25-.5.25-2-1 .25-.5-.75.25.25-.5-.75-.5-.75.25.25-.5-.75.25.25-.5-.75-.5-.75.25.25-.5-.75-.5-.75.25V153l-.75.25.25-.5-1.25-.25-2.25-1.5-.25-.75h-1l-.5-.5-.25-.75h-1l-1.25-1v-.75l-1.25-.25-3-4.25-.25-.25-.5.25v-1l-.75-.25-.5-.5.25-.75h-.75l.25-.75h-.75l.25-.75-.5-.75-.5.25.25-.75H181l.25-.75-.5.25.25-.75-.5-.75-.5.25.25-.75-.5-.75-.5.25.25-.75-.5.25v-.25l-.5-1.75-.5.25.25-.75-.5.25.25-.75-.5.25.25-.75-.5.25.25-.75-.5.25V130c.008-1.152-.484-2.176-1.5-2.75.148-.852-.047-1.875-1-2 .098-.652.18-1-.5-1l.25-.75-.5.25.25-.75-.5.25.25-.75-.5.25.25-.75-.5.25.25-.75h-.5c.16-.645.203-1-.5-1l.25-.75-.5.25.25-.75h-.5c.16-.645.203-1-.5-1l.25-.75-.5.25.25-.75h-.5l.25-.75-.5.25.25-.75-.5.25.25-.75h-.5l.25-.75-.5.25.25-.75-.5.25.25-.75h-.5l.25-.75-.5.25.25-.75-.5.25.25-.75h-.5c.16-.645.203-1-.5-1l.25-.75-.5.25.25-.75-.5.25.25-.75-.5.25.25-.75-.25-.5h-.5l.25-.5h-.5v-.25l.25-.25-.5.25.25-.75-.5.25.25-.75-.5.25.25-.75-.5-.75-.5.25.25-.75h-.75l.25-.75H164l.25-.75h-.75c-.137-.895-.328-1.348-1.25-1.5l-2.75-2.75-.5-1c-.664.133-.902.105-.75-.5-.664.133-.902.105-.75-.5l-2-.5.25-.5-.75.25.25-.5-.75.25.25-.5-.75.25.25-.5-.75.25c-.102-.73-.578-.617-1.25-.5l.25-.5-.75.25.25-.5h-.25l-.5.25H151l.25-.5H151l-.5.25h-.25l.25-.5-.75-.25-1 .25V93h.5v-.25L148 93l.25-.5H148l-.5.25h-.25l-1-.25.25-.5h-.25l-1 .25.25-.5-1.5.25v-.25h.5v-.25l-1.5.25.25-.5-1.75.25v-.25h.5V91l-2.25.25V91h.75v-.25L138 91v-.25h.5v-.25l-4.25.25v-.25h1.25zm0 0"/><path fill="#e9d227" d="m148.75 90.25.25.25zm0 0"/><path fill="#cd3a5f" d="m54.75 90.5.25.25zm0 0"/><path fill="#e9d227" d="M134.25 90.5v.25h2.25zm0 0"/><path fill="#20a5a7" d="m149.25 90.5.25.25zm0 0"/><path fill="#e9d227" d="m149.5 90.5.25.25zm0 0"/><path fill="#cd3a5f" d="m56 90.75.25.25zm13 0 .25.25zm0 0"/><path fill="#e9d227" d="m134 90.75.25.25zm4 0V91h1zm0 0"/><path fill="#20a5a7" d="m150 90.75.25.25zm0 0"/><path fill="#e9d227" d="m44.75 91 .25.25zm0 0"/><path fill="#cd3a5f" d="m47.25 91 .75.75zm9.5 0 .25.25zM59 91l.25.25zm4 0 .25.25zm6.5 0 .25.25zm0 0"/><path fill="#20a5a7" d="m75.25 91 .25.25zm0 0"/><path fill="#e9d227" d="M139.75 91v.25H141zm0 0"/><path fill="#20a5a7" d="m150.75 91 .25.25zm-105.25.25.25.25zm0 0"/><path fill="#cd3a5f" d="m46 91.25.25.25zm17.75 0 .25.25zm6.25 0 .25.25zm0 0"/><path fill="#e9d227" d="M141.5 91.25v.25h1zm10 0 .25.25zm0 0"/><path fill="#20a5a7" d="m46 91.5.25.25zm0 0"/><path fill="#cd3a5f" d="m59.75 91.5.75.75zm2.25 0 .25.25zm0 0"/><path fill="#e9d227" d="m134.5 91.5.25.25zm8.5 0v.25h.75zm9.25 0 .25.25zm0 0"/><path fill="#cd3a5f" d="m58.25 91.75.25.25zm6.75 0 .25.25zm5.75 0L71 92zm5.75 0 .25.25zm0 0"/><path fill="#e9d227" d="M144 91.75V92h.75zm9 0 .25.25zm0 0"/><path fill="#cd3a5f" d="m48.5 92 .5.5zm10.25 0 .25.25zm6.75 0 .25.25zm0 0"/><path fill="#20a5a7" d="m82 92 .25.25zm0 0"/><path fill="#e9d227" d="M145.25 92v.25h.75zm0 0"/><path fill="#20a5a7" d="m153.5 92 .25.25zm0 0"/><path fill="#e9d227" d="m153.75 92 .25.25zm0 0"/><path fill="#cd3a5f" d="m46.75 92.25.25.25zm16.75 0 .25.25zm2.5 0 .25.25zm5.5 0 .5.5zm0 0"/><path fill="#2e2c2b" d="M82.25 92.25v.25c10.71 5.066 14.54 15.266 20.668 24.5 5.98 9.02 14.57 16.25 23.332 22.5 3.352 2.39 7.254 5.574 11.25 6.75l-3-2.5h1l-4-1.5c3.031-3.098.34-3.246-2.75-3.25l1.25-8.25-9.5 3.75 5.5-6.5-10.75 1.25c1.938-1.855 4.527-5.098 6.992-6.148 2.676-1.137 7.98.476 10.758.96 6.61 1.149 13.547 3.09 19.25 6.7 5.242 3.324 9.773 8.27 15.5 10.738-1.566-1.922-4.043-3.332-6-4.855-5.043-3.93-11.184-9.41-17.75-10.395l9.25-4.813 3.145-1.269 3.421 3.332 4.106 5.5-.422 4.75c.91-.25 2.477-1.32 3.39-1.082 1.81.465 3.965 4.125 3.61 5.832 2.66-.027 4.332 2.633 6.25 4.23.996.829 2.125 1.489 2.5 2.77 2.273.031 5.473 2.152 5.5 4.5 2.734-.215 5.254-.113 5 3.25l4.5-.25-.25 2-2-.5v.25c1.773.738 3.773 1.172 5.484 1.965.688.316.934 1.086 1.59 1.383 1.617.742 3.422-.457 3.176 2.152 1.52 0 3.566-.293 3.5 1.75l3.25.5-.5 1.25c2.934.004 4.969 1.629 7.5 2.934 4.34 2.242 8.957 4.957 13.75 6.066-.75-1.23-2.71-1.566-4-2.105-2.984-1.254-5.86-2.75-8.75-4.208-9.375-4.718-18.652-10.664-26.75-17.34-8.348-6.882-13.707-17.378-18.035-27.097-3.336-7.492-5.899-15.066-12.215-20.707-7.18-6.41-15.836-7.137-24.75-8.793l.5 1.25c1.582-.879 3.922-.512 5.5.25l-4 2.5.25.75 2.75-1.5c-1.89 2.645-4.336 6.387-5.25 9.5l-11.75-3.145-10.25-1.203-9.5-3.402v.25l15 6.75v.25l-13 .727L97 106c-1.73-4.727-5.98-8.48-10-11.258-1.477-1.02-2.938-2.21-4.75-2.492zm0 0"/><path fill="#e9d227" d="m83 92.25.25.25zm52 0 .25.25zm.5 0v.25h1.5zm10.918.082.164.086zm0 0"/><path fill="#20a5a7" d="m154.25 92.25.25.25zm0 0"/><path fill="#e9d227" d="m154.5 92.25.25.25zM47 92.5l.25.25zm0 0"/><path fill="#cd3a5f" d="m59.5 92.5 1 1zm4.75 0 .25.25zm2.25 0 .25.25zm0 0"/><path fill="#e9d227" d="m83.75 92.5.25.25zm54.75 0v.25h1.5zm8.918.082.164.086zm0 0"/><path fill="#20a5a7" d="m155 92.5.25.25zm0 0"/><path fill="#cd3a5f" d="m47.5 92.75.25.25zm2 0 .5.5zm11.5 0 .75.75zm3.75 0L65 93zm13.5 0 .25.25zm4.75 0 .25.25zm1 0V93c5.508 2.945 10.07 7.496 13 13 6.75-1.254 14.629-1.25 21.5-1.25v-.25c-5.234-2.18-10.184-5.207-15.5-7.168-5.684-2.098-12.992-3.773-19-4.582zm0 0"/><path fill="#e9d227" d="M84.75 92.75 85 93zm0 0"/><path fill="#20a5a7" d="m135.25 92.75.25.25zm0 0"/><path fill="#e9d227" d="M140.5 92.75V93h1zm7.668.082.164.086zm0 0"/><path fill="#20a5a7" d="m155.75 92.75.25.25zm0 0"/><path fill="#cd3a5f" d="m48 93 .25.25zm17.25 0 .25.25zm2 0 .25.25zm5.25 0 2.5 2.5zm0 0"/><path fill="#e9d227" d="m85.75 93 .25.25zM142 93v.25h.75zm6.75 0v.25h.75zm7.75 0 .25.25zm-108.25.25.25.25zm0 0"/><path fill="#cd3a5f" d="m48.5 93.25.25.25zm1.75 0 .25.25zm15.5 0 .25.25zm0 0"/><path fill="#e9d227" d="m86.75 93.25.25.25zm0 0"/><path fill="#cd3a5f" d="m136 93.25 1.25 3.25 4-2.5zm0 0"/><path fill="#e9d227" d="M143.25 93.25v.25h.75zm6.668.082.164.086zm7.332-.082.25.25zm0 0"/><path fill="#cd3a5f" d="m48.75 93.5.25.25zm17.5 0 .25.25zm1.75 0 .5.5zm0 0"/><path fill="#e9d227" d="m87.75 93.5.25.25zm56.5 0v.25h.75zm6.168.082.164.086zm0 0"/><path fill="#20a5a7" d="m157.75 93.5.25.25zm0 0"/><path fill="#e9d227" d="m158 93.5.25.25zm-109 .25.25.25zm0 0"/><path fill="#cd3a5f" d="m49.25 93.75.25.25zm1.75 0 .25.25zm0 0"/><path fill="#e9d227" d="M88.75 93.75 89 94zm56.5 0V94h.75zm5.918.082.164.086zm0 0"/><path fill="#20a5a7" d="m158.5 93.75.25.25zm0 0"/><path fill="#e9d227" d="m158.75 93.75.25.25zM49.5 94l.25.25zm0 0"/><path fill="#cd3a5f" d="m62 94 .25.25zm5 0 .25.25zm0 0"/><path fill="#20a5a7" d="m80.5 94 .25.25zm0 0"/><path fill="#e9d227" d="m89.75 94 .25.25zm0 0"/><path fill="#20a5a7" d="M133.75 109c3.684-.633 7.445-2.398 11-3.582 1.215-.406 3.375-.695 4.285-1.629 1.293-1.32 1.723-5.488 1.965-7.289-2.07-.7-6.262-3.066-8.453-2.328-1.234.418-2.016 2.773-2.617 3.828-2.063 3.629-4.414 7.219-6.18 11zm0 0"/><path fill="#e9d227" d="m146.418 94.082.164.086zm5.5 0 .164.086zm0 0"/><path fill="#20a5a7" d="m159.25 94 .25.25zm0 0"/><path fill="#cd3a5f" d="m50 94.25.25.25zm1.75 0 .5.5zm9.25 0 .25.25zm8 0 1.5 1.5zm0 0"/><path fill="#e9d227" d="m90.75 94.25.25.25zm56.418.082.164.086zm5.25 0 .164.086zm0 0"/><path fill="#20a5a7" d="m160 94.25.25.25zm0 0"/><path fill="#e9d227" d="m50.25 94.5.25.25zm0 0"/><path fill="#cd3a5f" d="m67.75 94.5.75.75zm0 0"/><path fill="#e9d227" d="m91.75 94.5.25.25zm44.5 0 .25.25zm11.668.082.164.086zM153 94.5l.25.25zm0 0"/><path fill="#20a5a7" d="m160.75 94.5.25.25zm0 0"/><path fill="#cd3a5f" d="M50.75 94.75 51 95zm10.5 0 .25.25zm20.5 0L82 95zm0 0"/><path fill="#e9d227" d="M92.75 94.75 93 95zm55.918.082.164.086zm5 0 .164.086zm7.832-.082.25.25zm0 0"/><path fill="#cd3a5f" d="m51.25 95 .25.25zm1.5 0 1 1zm9.75 0 .25.25zm0 0"/><path fill="#e9d227" d="m93.75 95 .25.25zm42.75 0 .25.25zm12.918.082.164.086zm4.75 0 .164.086zm0 0"/><path fill="#20a5a7" d="m162 95 .25.25zm0 0"/><path fill="#e9d227" d="m162.25 95 .25.25zm-110.75.25.25.25zm0 0"/><path fill="#cd3a5f" d="m61.5 95.25.25.25zm0 0"/><path fill="#e9d227" d="m94.75 95.25.25.25zm55.25 0 .25.25zm4.668.082.164.086zm0 0"/><path fill="#20a5a7" d="m162.75 95.25.25.25zm0 0"/><path fill="#cd3a5f" d="m52 95.5.25.25zm10.75 0 .25.25zm20.25 0 .25.25zm0 0"/><path fill="#e9d227" d="m95.918 95.582.164.086zm40.832-.082.25.25zm13.918.082.164.086zm4.5 0 .164.086zm0 0"/><path fill="#20a5a7" d="m163.5 95.5.25.25zm0 0"/><path fill="#e9d227" d="m52.25 95.75.25.25zm0 0"/><path fill="#cd3a5f" d="M61.75 95.75 62 96zm13.25 0 .25.25zm12.5 0 .25.25zm0 0"/><path fill="#e9d227" d="m96.918 95.832.164.086zm0 0"/><path fill="#cd3a5f" d="m137.5 97.25.25 2.75h.25l2.25-4.25zm0 0"/><path fill="#e9d227" d="m151.25 95.75.25.25zm4.418.082.164.086zm0 0"/><path fill="#20a5a7" d="m164.25 95.75.25.25zM52.75 96l.25.25zm0 0"/><path fill="#e9d227" d="m98 96 .25.25zm53.918.082.164.086zM156 96l.25.25zm9 0 .25.25zm-112 .25.25.25zm0 0"/><path fill="#cd3a5f" d="m69.5 96.25.75.75zm1.25 0 .5.5zm4.5 0 .25.25zm0 0"/><path fill="#20a5a7" d="m84.25 96.25.25.25zm0 0"/><path fill="#e9d227" d="m99 96.25.25.25zm53.418.082.164.086zm4.082-.082.25.25zm9.25 0 .25.25zm0 0"/><path fill="#20a5a7" d="m53.5 96.5.25.25zm0 0"/><path fill="#cd3a5f" d="m54.5 96.5.75.5v-.25zm1.25 0 .25.25zm32.75 0 .25.25zm0 0"/><path fill="#e9d227" d="m100 96.5.25.25zm52.918.082.164.086zM157 96.5l.25.25zm9.5 0 .25.25zm0 0"/><path fill="#cd3a5f" d="m60 96.75.25.25zm2 0 .25.25zm0 0"/><path fill="#20a5a7" d="m85 96.75.25.25zm0 0"/><path fill="#e9d227" d="m101 96.75.25.25zm0 0"/><path fill="#20a5a7" d="m137.25 96.75.25.25zm0 0"/><path fill="#e9d227" d="m153.418 96.832.164.086zm4 0 .164.086zm0 0"/><path fill="#20a5a7" d="m167 96.75.25.25zm0 0"/><path fill="#e9d227" d="m167.25 96.75.25.25zm-113 .25.25.25zm0 0"/><path fill="#cd3a5f" d="m60.75 97 .25.25zm0 0"/><path fill="#e9d227" d="m102.25 97 .25.25zm0 0"/><path fill="#20a5a7" d="M151.75 97 145 124.5c4.938-2.055 9.715-4.672 14.5-7.063 1.625-.812 4.688-1.648 5.848-3.042 1.656-1.98.328-5.395-.848-7.145-2.934-4.375-7.559-8.754-12.75-10.25zm0 0"/><path fill="#e9d227" d="m153.918 97.082.164.086zM157.75 97l.25.25zm0 0"/><path fill="#20a5a7" d="m167.75 97 .25.25zm-113 .25.25.25zm0 0"/><path fill="#cd3a5f" d="M56.25 97.25c1.367 2.098 5.586 3.914 7.75 5.25.355-4.129-4.61-5.25-7.75-5.25m5 0 .25.25zm10.25 0 .25.25zm4 0 .25.25zm0 0"/><path fill="#20a5a7" d="m85.75 97.25.25.25zm17.5 0 .25.25zm0 0"/><path fill="#e9d227" d="m103.5 97.25.25.25zm50.918.082.164.086zm3.75 0 .164.086zm0 0"/><path fill="#20a5a7" d="m168.5 97.25.25.25zm0 0"/><path fill="#cd3a5f" d="m61.75 97.5.5.5zm8.75 0 .25.25zm19.25 0 .25.25zm0 0"/><path fill="#20a5a7" d="m104.25 97.5.25.25zm0 0"/><path fill="#e9d227" d="m104.5 97.5.25.25zm33.082.168.086.164zm17.336-.086.164.086zm3.582-.082.25.25zm0 0"/><path fill="#20a5a7" d="m169.25 97.5.25.25zm0 0"/><path fill="#e9d227" d="m55.5 97.75.25.25zm0 0"/><path fill="#cd3a5f" d="M71.75 97.75 72 98zm0 0"/><path fill="#20a5a7" d="m105.5 97.75.25.25zm0 0"/><path fill="#e9d227" d="m155.25 97.75.25.25zm3.5 0 .25.25zm11.25 0 .25.25zm0 0"/><path fill="#20a5a7" d="m56 98 .25.25zm0 0"/><path fill="#cd3a5f" d="m70.75 98 .25.25zm0 0"/><path fill="#20a5a7" d="m106.5 98 .25.25zm0 0"/><path fill="#e9d227" d="m106.75 98 .25.25zm49 0 .25.25zm3.5 0 .25.25zm11.5 0 .25.25zm-114.5.25.25.25zm0 0"/><path fill="#cd3a5f" d="M107.25 98.25v.25l5.5 2.402 11.25 1.403 11 2.945 1.75-3.5c-3.629 1.398-7.02.617-10.75.066-6.313-.93-12.496-2.351-18.75-3.566zm0 0"/><path fill="#e9d227" d="m107.918 98.332.164.086zm48.25 0 .164.086zm3.332-.082.25.25zm0 0"/><path fill="#20a5a7" d="m171.25 98.25.25.25zm0 0"/><path fill="#e9d227" d="m171.5 98.25.25.25zm-114.75.25.25.25zm0 0"/><path fill="#cd3a5f" d="m71 98.5.25.25zm0 0"/><path fill="#e9d227" d="m109 98.5.25.25zm47.5 0 .25.25zm3.25 0 .5.5zm0 0"/><path fill="#20a5a7" d="m172 98.5.25.25zm0 0"/><path fill="#e9d227" d="m172.25 98.5.25.25zm0 0"/><path fill="#20a5a7" d="m57.25 98.75.25.25zm0 0"/><path fill="#cd3a5f" d="m63.25 98.75.75.75zm12.5 0L76 99zm12 0L88 99zm0 0"/><path fill="#e9d227" d="m110.168 98.832.164.086zm46.75 0 .164.086zm0 0"/><path fill="#20a5a7" d="m172.75 98.75.25.25zm0 0"/><path fill="#e9d227" d="m57.5 99 .25.25zm53.75 0 .25.25zm26.582.168.086.164zM157.25 99l.25.25zm3.168.082.164.086zM173.5 99l.25.25zm0 0"/><path fill="#20a5a7" d="m58 99.25.25.25zm0 0"/><path fill="#cd3a5f" d="m71.25 99.25.25.25zm1 0 .25.25zm0 0"/><path fill="#e9d227" d="m112.5 99.25.25.25zm45.168.082.164.086zm3.082-.082.25.25zm13.5 0 .25.25zm-60.582.332.164.086zM158 99.5l.25.25zm3 0 .25.25zm0 0"/><path fill="#20a5a7" d="m174.75 99.5.25.25zm0 0"/><path fill="#e9d227" d="m58.75 99.75.25.25zm56.168.082.164.086zm43.332-.082.25.25zm3 0 .25.25zm0 0"/><path fill="#20a5a7" d="m175.25 99.75.25.25zm-116 .25.25.25zm0 0"/><path fill="#cd3a5f" d="m64.25 100 .25.25zm25 0 .25.25zm0 0"/><path fill="#e9d227" d="m116.168 100.082.164.086zm42.5 0 .164.086zM161.5 100l.25.25zm14.5 0 .25.25zm-116.5.25.25.25zm0 0"/><path fill="#cd3a5f" d="m89.5 100.25.25.25zm0 0"/><path fill="#e9d227" d="m117.418 100.332.164.086zm20.082-.082.25.25zm21.5 0 .25.25zm2.75 0 .25.25zm14.75 0 .25.25zM60 100.5l.25.25zm0 0"/><path fill="#cd3a5f" d="m64.5 100.5.25.25zm0 0"/><path fill="#e9d227" d="m118.75 100.5.25.25zm0 0"/><path fill="#20a5a7" d="m137.5 100.5.25.25zm0 0"/><path fill="#e9d227" d="m159.25 100.5.25.25zm2.75 0 .25.25zm15 0 .25.25zm0 0"/><path fill="#cd3a5f" d="m60.5 100.75.25.25zm0 0"/><path fill="#e9d227" d="m120.168 100.832.164.086zm39.332-.082.25.25zm2.832.168.086.164zm0 0"/><path fill="#20a5a7" d="m177.5 100.75.25.25zm0 0"/><path fill="#e9d227" d="m60.75 101 .25.25zm60.75 0 .25.25zm38.418.082.164.086zm0 0"/><path fill="#20a5a7" d="m178 101 .25.25zm-116.75.25.25.25zm0 0"/><path fill="#cd3a5f" d="m71.25 101.25.25.25zm4.5 0 .25.25zm0 0"/><path fill="#e9d227" d="m123 101.25.25.25zm37.25 0 2.5 2.5zm2.25 0 .75.75zm16 0 .25.25zm-53.832.332.164.086zm0 0"/><path fill="#cd3a5f" d="m136.75 101.5.25.25zm38 .14c-4.379 1.15-2.96 7.57-1.992 10.61 2.047 6.441 6.726 12.707 12.242 16.57 2.121 1.485 5.316 3.246 8 2.446 4.473-1.336 3.086-7.801 2-11.016-2.086-6.16-6.234-11.438-11.18-15.563-2.347-1.957-5.902-3.878-9.07-3.046zm0 0"/><path fill="#20a5a7" d="m179 101.5.25.25zm0 0"/><path fill="#e9d227" d="m62 101.75.25.25zm0 0"/><path fill="#cd3a5f" d="m70.918 101.832.164.086zM91 101.75l.25.25zm2.75 0 .25.25zm21 0v.25l7 3v.25l-16.5 1v.25l9.25 3.5v.25c-2.707.465-7.05 1.855-9.25 3.5l2.75 1-.5.25v.25l16-1.457 9.25-.793-9.75 9.25c7.18 0 13.84 2.164 20.75 3.75l3.5-13.75c-2.227-1.234-5.14-3.734-7.75-3.922-2.41-.176-5.496 1.66-7.75 2.422l2.5-4.75c-5.848-2.59-13.11-4.117-19.5-4.25zm0 0"/><path fill="#e9d227" d="m126.418 101.832.164.086zm9.832-.082.25.25zm43.25 0 .25.25zm0 0"/><path fill="#cd3a5f" d="m91.25 102 .25.25zm0 0"/><path fill="#e9d227" d="m127.918 102.082.164.086zm7.832-.082.25.25zm27.5 0 .25.25zm0 0"/><path fill="#20a5a7" d="m179.75 102 .25.25zm0 0"/><path fill="#e9d227" d="m62.75 102.25.25.25zm0 0"/><path fill="#20a5a7" d="m67.75 103.5 5 3.5c.434-2.629-3.145-6.941-5-3.5zm0 0"/><path fill="#cd3a5f" d="m72 102.25.25.25zm0 0"/><path fill="#e9d227" d="m129.668 102.332.164.086zm5.332-.082.25.25zm28.582.168.086.164zm0 0"/><path fill="#2e2c2b" d="m180 102.25.25.25zm0 0"/><path fill="#20a5a7" d="m180.25 102.25.25.25zm-117 .25.25.25zm0 0"/><path fill="#e9d227" d="M131.75 102.5v.25h1.75zm0 0"/><path fill="#2e2c2b" d="m180.5 102.5.25.25zm0 0"/><path fill="#e9d227" d="m180.75 102.5.25.25zm0 0"/><path fill="#cd3a5f" d="m67 102.75.25.25zm0 0"/><path fill="#e9d227" d="m163.75 102.75.25.25zm0 0"/><path fill="#2e2c2b" d="m181 102.75.25.25zm0 0"/><path fill="#e9d227" d="m64 103 .25.25zm0 0"/><path fill="#cd3a5f" d="m65 103 .25.25zm10 0 .25.25zm.5 0 .25.25zm0 0"/><path fill="#e9d227" d="m164.082 103.168.086.164zm0 0"/><path fill="#20a5a7" d="M175.5 103v.5l-.75-.25-1.25 1.25.25.75-.5-.25.25.75h-.5l.25 1.5-.5-.25v2h.25c.996-4.738 6.105-4.402 9.5-2.348 5.535 3.356 10.422 9.785 12.027 16.098.899 3.531.551 7.957-4.027 8v.25c1.813-.004 2.766-.5 4.25-1.5l.25-.5-.25-.5h.5v-5.75h-.5l.25-1h-.5l.25-.75-.25-.75-.5.25v-.25l.25-.5v-.25l-.5.25.25-.75-.5.25.25-.75-1.25-2.5h-.5l.25-.5h-.5v-.25l.25-.25-2-3-.25-.25-.5.25-.25-1.25-.25-.25-.5.25-4.75-5.25-1.5-1-2-1-.75.25.25-.5h-.25l-.75.25v-.5zm0 0"/><path fill="#fffeff" d="M176 103v.25h2zm0 0"/><path fill="#e9d227" d="m181.5 103 .25.25zm0 0"/><path fill="#20a5a7" d="m64.5 103.25.25.25zm0 0"/><path fill="#cd3a5f" d="m66.5 103.25.25.25zm0 0"/><path fill="#fffeff" d="m175.168 103.332.164.086zm3.5 0 .164.086zm0 0"/><path fill="#e9d227" d="m182 103.25.25.25zm-117.25.25.25.25zm0 0"/><path fill="#cd3a5f" d="m73 103.5.25.25zm1 0 .25.25zm0 0"/><path fill="#e9d227" d="m164.25 103.5.25.25zm0 0"/><path fill="#fffeff" d="m174.75 103.5.25.25zm4.668.082.164.086zm0 0"/><path fill="#20a5a7" d="m182.25 103.5.25.25zm-117 .25.25.25zm0 0"/><path fill="#e9d227" d="m162.832 103.918.086.164zm1.75 0 .086.164zm0 0"/><path fill="#fffeff" d="m174.25 103.75.25.25zm5.918.082.164.086zm0 0"/><path fill="#e9d227" d="m182.75 103.75.25.25zm-117 .25.25.25zm0 0"/><path fill="#cd3a5f" d="m66.168 104.082.164.086zm.75 0 .164.086zm0 0"/><path fill="#e9d227" d="M66.25 104.25v.25l5 3c-.984-1.957-2.734-3.418-5-3.25zm0 0"/><path fill="#cd3a5f" d="m67.5 104 .25.25zm5.75 0 .5.5zm1.5 0c-.05 2.504 1.492 3.336 3.5 4.75l.25-1.5h-.25v.5H78V106l-.5.25.25-.75-1-.75.5.25-.75-.75.25.5h-.25zm0 0"/><path fill="#e9d227" d="M75 104v.25l1.75.5zm0 0"/><path fill="#cd3a5f" d="m76 104 .25.25zm0 0"/><path fill="#fffeff" d="m174 104 .25.25zm6.668.082.164.086zm0 0"/><path fill="#20a5a7" d="m183 104 .25.25zm0 0"/><path fill="#cd3a5f" d="m68 104.25.25.25zm0 0"/><path fill="#e9d227" d="M74.5 104.25c-.172.824-.23 1.273.5 1.75v-1.75zm88.5 0 .25.25zm1.75 0 .25.25zm0 0"/><path fill="#fffeff" d="m173.832 104.418.086.164zm7.336-.086.164.086zm0 0"/><path fill="#cd3a5f" d="m74.25 104.5.25.25zm0 0"/><path fill="#e9d227" d="m163.25 104.5.25.25zm1.832.168.086.164zm0 0"/><path fill="#fffeff" d="m181.5 104.5.25.25zm0 0"/><path fill="#2e2c2b" d="m183.5 104.5.25.25zm0 0"/><path fill="#20a5a7" d="m183.75 104.5.25.25zm0 0"/><path fill="#cd3a5f" d="m68.75 104.75.25.25zm0 0"/><path fill="#e9d227" d="m76.75 104.75.75 1zm0 0"/><path fill="#cd3a5f" d="m93.5 104.75.25.25zm0 0"/><path fill="#e9d227" d="m163.5 104.75.25.25zm0 0"/><path fill="#fffeff" d="m173.582 104.918.086.164zm8.418-.168.5.5zm0 0"/><path fill="#e9d227" d="m182.25 104.75.25.25zm0 0"/><path fill="#cd3a5f" d="M74 105v.75h.25zm66.75 2.75 6.75 3.75 1.5-6.5zm0 0"/><path fill="#e9d227" d="m163.832 105.168.086.164zm1.418-.168.25.25zm0 0"/><path fill="#fffeff" d="M176.5 105.25v.25c5.5 2.11 9.707 6.64 11.664 12.25.727 2.082 1.57 6.078-1.414 6.89-4.773 1.301-6.64-5.495-10.25-6.14l-.25-.75H176l1 .75-.25.75.75.5-.5-.25v.25h.75l-.25.75h.75c1.484 3.855 6.184 8.129 10 9.633 2.223.879 4.996 1.05 6.25-1.387 1.328-2.586.188-6.262-.855-8.746-2.7-6.414-9.192-15.75-17.145-14.75zm0 0"/><path fill="#cd3a5f" d="m69.5 105.25.25.25zm0 0"/><path fill="#fffeff" d="m173.332 105.418.086.164zm0 0"/><path fill="#e9d227" d="M176 105.453c-3.715-.062-2.797 4.871-2.082 7.047 1.57 4.777 6.48 12.531 12.332 12.238 3.645-.183 2.7-4.984 1.914-7.238-1.648-4.715-6.496-11.95-12.164-12.047zm0 0"/><path fill="#fffeff" d="m182.75 105.25.5.5zm0 0"/><path fill="#e9d227" d="m183 105.25.25.25zm0 0"/><path fill="#20a5a7" d="m184.75 105.25.25.25zm0 0"/><path fill="#cd3a5f" d="m69.75 105.5.25.25zm0 0"/><path fill="#e9d227" d="m164 105.5.25.25zm1.5 0 .25.25zm0 0"/><path fill="#20a5a7" d="m185 105.5.25.25zm0 0"/><path fill="#e9d227" d="m77.582 105.918.086.164zm86.668-.168.5.5zm1.582.168.086.164zm0 0"/><path fill="#fffeff" d="m183.418 105.832.164.086zm0 0"/><path fill="#cd3a5f" d="m73.5 106-.75 2.5 3.5 2zm0 0"/><path fill="#e9d227" d="m75 106 .5.5zm0 0"/><path fill="#fffeff" d="m183.75 106 .25.25zm0 0"/><path fill="#e9d227" d="m185.75 106 .25.25zm-108 .25.25 1.5h.25zm88.332.168.086.164zm0 0"/><path fill="#fffeff" d="M173 106.25v1h.25zm11 0 .5.5zm0 0"/><path fill="#20a5a7" d="m186 106.25.25.25zm0 0"/><path fill="#cd3a5f" d="m70.75 106.5 2 1.75zm0 0"/><path fill="#e9d227" d="m75.5 106.5 3 3v-1.75h-.25v1zm0 0"/><path fill="#cd3a5f" d="m78 106.5.25.25zm18.75 0 .25.25zm0 0"/><path fill="#20a5a7" d="M98.5 106.5v.25h1.75zm0 0"/><path fill="#e9d227" d="M100.25 106.5v.25h.75zm0 0"/><path fill="#fffeff" d="m97.75 106.75 4 7.25 10.25-3.75c-4.074-3.05-9.457-3.5-14.25-3.5zm0 0"/><path fill="#e9d227" d="m103 106.5.25.25zm0 0"/><path fill="#20a5a7" d="m103.25 106.5.25.25zm0 0"/><path fill="#e9d227" d="m164.75 106.5.25.25zm0 0"/><path fill="#cd3a5f" d="m175.5 106.5.25.25zm0 0"/><path fill="#2e2c2b" d="M175 106.75v.25c1.227.383 2.574.336 3.75.84 3.492 1.488 6.156 5.043 7.672 8.41.652 1.45 1.863 4.242.61 5.617-1.743 1.91-4.11.617-5.782-.687-3.723-2.914-5.73-6.98-7-11.43-.438 1.219.227 2.852.719 4 1.433 3.355 3.726 6.602 6.781 8.66 1.375.926 3.848 2.113 5.402.867 1.887-1.515.73-5.254-.097-7.027-2.11-4.516-6.371-10.555-12.055-9.5zm0 0"/><path fill="#cd3a5f" d="m177.5 106.5.25.25zm0 0"/><path fill="#20a5a7" d="m186.25 106.5.25.25zm-88.75.25.25.25zm6.25 0 .25.25zm0 0"/><path fill="#e9d227" d="m165 106.75.25.25zm1.332.168.086.164zm0 0"/><path fill="#fffeff" d="m184.75 106.75.25.25zm0 0"/><path fill="#e9d227" d="m104.25 107 .25.25zm0 0"/><path fill="#20a5a7" d="m104.5 107 .25.25zm70.668.082.164.086zm0 0"/><path fill="#fffeff" d="m185 107 .25.25zm0 0"/><path fill="#cd3a5f" d="m95.25 107.25.25.25zm0 0"/><path fill="#20a5a7" d="m97.75 107.25.25.25zm0 0"/><path fill="#e9d227" d="m105 107.25.25.25zm0 0"/><path fill="#20a5a7" d="m105.25 107.25.25.25zm0 0"/><path fill="#e9d227" d="m165.25 107.25.25.25zm1.25 0 .25.25zm0 0"/><path fill="#fffeff" d="M186.75 122.25c-1.11-.723-2.504-.113-3.75-.707-3.527-1.672-5.883-5.266-7.25-8.793 2.426 2.566 4.371 8.988 9 8l-3-1.45-4.25-5.05 2 .5c.887-1.676.21-2.809-.25-4.5l6.25 7c-1.281-4.68-4.824-5.996-8-9 5.266 1.25 7.73 6.41 9.5 11 .344-1.137-.348-2.46-.828-3.5-1.41-3.059-3.8-6.223-6.922-7.668-.953-.441-4.188-1.45-4.992-.43-.969 1.22.594 3.641.957 4.848 1.226 4.094 6.273 12.281 11.535 9.75zm0 0"/><path fill="#20a5a7" d="m176 107.25.25.25zm0 0"/><path fill="#cd3a5f" d="m176.918 107.332.164.086zm0 0"/><path fill="#fffeff" d="m185.25 107.25.25.25zm0 0"/><path fill="#e9d227" d="m98 107.5.25.25zm0 0"/><path fill="#20a5a7" d="m105.75 107.5.25.25zm0 0"/><path fill="#e9d227" d="m165.5 107.5.25.25zm12.5 0 .25.25zm0 0"/><path fill="#20a5a7" d="m178.25 107.5.25.25zm0 0"/><path fill="#cd3a5f" d="m179.75 107.5.25.25zm0 0"/><path fill="#fffeff" d="m185.5 107.5.25.25zm0 0"/><path fill="#e9d227" d="m187.5 107.5.25.25zm-115.75.25.25.25zm34.5 0 .25.25zm0 0"/><path fill="#20a5a7" d="m106.5 107.75.25.25zm0 0"/><path fill="#e9d227" d="m166.75 107.75.25.25zm12 0 .25.25zm0 0"/><path fill="#fffeff" d="m185.75 107.75 1.5 1.5zm0 0"/><path fill="#20a5a7" d="m187.75 107.75.25.25zm0 0"/><path fill="#e9d227" d="m72.25 108 .25.25zm26 0 .25.25zm0 0"/><path fill="#20a5a7" d="m107 108 .25.25zm0 0"/><path fill="#e9d227" d="m165.75 108 .25.25zm13.5 0 .25.25zm0 0"/><path fill="#20a5a7" d="m180.5 108 .25.25zm0 0"/><path fill="#e9d227" d="m188 108 .25.25zm0 0"/><path fill="#cd3a5f" d="m78.5 108.25-.25 1.5zm19.25 0 .25.25zm0 0"/><path fill="#e9d227" d="m107.5 108.25.25.25zm0 0"/><path fill="#20a5a7" d="m107.75 108.25.25.25zm0 0"/><path fill="#e9d227" d="m166 108.25.25.25zm1 0 .25.25zm0 0"/><path fill="#fffeff" d="M173 108.25V110h.25zm0 0"/><path fill="#e9d227" d="m177.5 108.25.25.25zm0 0"/><path fill="#cd3a5f" d="M177.75 108.25c.727 1.457 2.523 1.871 3.742 2.906 1.895 1.61 3.211 3.758 4.008 6.094-2.3-1.633-2.7-5.023-5.75-5.75.863 1.707 2.82 2.59 3.46 4.5.614 1.816-.972 2.227-2.206 1.191-1.016-.847-1.59-2.03-2.754-2.691.918 2.195 2.816 4.902 5.5 4.5l1 2c-4.965-.258-5.691-5.379-8.75-8 .813 3.418 3.691 7.23 7 8.559.852.343 3.887.785 4.484-.149.676-1.055-.703-2.703-1.058-3.66-1.594-4.29-4.16-8.027-8.676-9.5zm0 0"/><path fill="#e9d227" d="m178 108.25.25.25zm0 0"/><path fill="#20a5a7" d="m179.75 108.25.25.25zm0 0"/><path fill="#e9d227" d="m188.25 108.25.25.25zM73 108.5l.25.25zm0 0"/><path fill="#20a5a7" d="m98.5 108.5.25.25zm9.75 0 .25.25zm0 0"/><path fill="#e9d227" d="m178.75 108.5.25.25zm0 0"/><path fill="#cd3a5f" d="m188.5 108.5.25.25zm0 0"/><path fill="#e9d227" d="m108.75 108.75.25.25zm0 0"/><path fill="#20a5a7" d="m109 108.75.25.25zm0 0"/><path fill="#e9d227" d="m166.25 108.75.25.25zm1.082.168.086.164zm13.168-.168.25.25zm0 0"/><path fill="#20a5a7" d="m181.5 108.75.25.25zm0 0"/><path fill="#e9d227" d="m73.75 109 .25.25zm0 0"/><path fill="#20a5a7" d="m98.75 109 .25.25zm10.75 0 .25.25zm0 0"/><path fill="#e9d227" d="m166.582 109.168.086.164zm0 0"/><path fill="#20a5a7" d="m181.75 109 .25.25zm0 0"/><path fill="#e9d227" d="m74.25 109.25.25.25zm0 0"/><path fill="#cd3a5f" d="m96.5 109.25.25.25zm0 0"/><path fill="#e9d227" d="m110 109.25.25.25zm0 0"/><path fill="#20a5a7" d="m110.25 109.25.25.25zm0 0"/><path fill="#e9d227" d="m167.582 109.418.086.164zm12.668-.168.25.25zm0 0"/><path fill="#cd3a5f" d="m182 109.25.25.25zm0 0"/><path fill="#fffeff" d="m187.25 109.25.25.25zm0 0"/><path fill="#e9d227" d="m110.75 109.5.25.25zm56 0 .25.25zm12.25 0 .25.25zm0 0"/><path fill="#20a5a7" d="m181.5 109.5.25.25zm0 0"/><path fill="#fffeff" d="m187.5 109.5.25.25zm0 0"/><path fill="#e9d227" d="m75 109.75.25.25zm24.25 0 .25.25zm0 0"/><path fill="#20a5a7" d="m111.5 109.75.25.25zm0 0"/><path fill="#e9d227" d="m167.832 109.918.086.164zm0 0"/><path fill="#20a5a7" d="m181.75 109.75.25.25zm0 0"/><path fill="#fffeff" d="m187.75 109.75.25.25zm0 0"/><path fill="#20a5a7" d="m189.75 109.75.25.25zm0 0"/><path fill="#e9d227" d="m75.5 110 .25.25zm91.5 0 .25.25zm0 0"/><path fill="#20a5a7" d="M173 110v.75h.25zm0 0"/><path fill="#e9d227" d="m181.25 110 .25.25zm.75 0 .25.25zm0 0"/><path fill="#fffeff" d="m188 110 .25.25zm0 0"/><path fill="#e9d227" d="m190 110 .25.25zm-114.25.25.25.25zm0 0"/><path fill="#20a5a7" d="m99.5 110.25.25.25zm11.75 0 .25.25zm0 0"/><path fill="#e9d227" d="m168.082 110.418.086.164zm0 0"/><path fill="#20a5a7" d="m174.25 110.25.25.25zm0 0"/><path fill="#e9d227" d="m179.25 110.25.25.25zm1.25 0 .25.25zm1 0 .25.25zm.75 0 .25.25zm0 0"/><path fill="#cd3a5f" d="m183 110.25.25.25zm0 0"/><path fill="#fffeff" d="m188.332 110.418.086.164zm0 0"/><path fill="#e9d227" d="m190.25 110.25.25.25zm0 0"/><path fill="#20a5a7" d="m76.25 110.5.25.25zm0 0"/><path fill="#cd3a5f" d="m97.25 110.5.25.25zm1.75 0 .25.25zm0 0"/><path fill="#e9d227" d="m110.5 110.5.25.25zm0 0"/><path fill="#20a5a7" d="m110.75 110.5.25.25zm0 0"/><path fill="#e9d227" d="m167.25 110.5.25.25zm0 0"/><path fill="#fffeff" d="M173.25 110.5v.75h.25zm0 0"/><path fill="#2e2c2b" d="m179.25 110.5 3.168 3 2.332 3.25c-1.105-2.656-2.68-5.215-5.5-6.25zm0 0"/><path fill="#e9d227" d="m179.75 110.5.25.25zm2.75 0 .25.25zm0 0"/><path fill="#20a5a7" d="m183.25 110.5.25.25zm0 0"/><path fill="#e9d227" d="m190.5 110.5.25.25zm0 0"/><path fill="#20a5a7" d="m99.75 110.75.25.25zm0 0"/><path fill="#e9d227" d="m109.75 110.75.25.25zm0 0"/><path fill="#20a5a7" d="m110 110.75.25.25zm64.082.168.086.164zm.418-.168.25.25zm0 0"/><path fill="#e9d227" d="m179.25 110.75.25.25zm0 0"/><path fill="#cd3a5f" d="m180 110.75.25.25zm0 0"/><path fill="#e9d227" d="m180.25 110.75.25.25zm2.5 0 .25.25zm0 0"/><path fill="#20a5a7" d="m183.5 110.75.25.25zm0 0"/><path fill="#fffeff" d="m188.5 110.75.25.25zm0 0"/><path fill="#e9d227" d="m190.75 110.75.25.25zM77 111l.25.25zm0 0"/><path fill="#20a5a7" d="m109.25 111 .25.25zm0 0"/><path fill="#e9d227" d="m167.5 111 .25.25zm.75 0 .25.25zm0 0"/><path fill="#cd3a5f" d="m179.5 111 .25.25zm0 0"/><path fill="#20a5a7" d="m180.5 111 .25.25zm0 0"/><path fill="#e9d227" d="m183 111 .25.25zm0 0"/><path fill="#fffeff" d="m188.75 111 .25.25zm0 0"/><path fill="#20a5a7" d="m77.5 111.25.25.25zm22.5 0 .25.25zm0 0"/><path fill="#e9d227" d="m108.5 111.25.25.25zm0 0"/><path fill="#cd3a5f" d="m166.75 111.25-2.25 21.25h.25l9.5-4.75-3.996-9zm0 0"/><path fill="#e9d227" d="m167.832 111.418.086.164zm0 0"/><path fill="#20a5a7" d="m173.332 111.418.086.164zm1.418-.168.25.25zm0 0"/><path fill="#e9d227" d="m179.5 111.25.25.25zm2.25 0 .25.25zm0 0"/><path fill="#20a5a7" d="m183.25 111.25.25.25zm0 0"/><path fill="#fffeff" d="m189 111.25.25.25zm0 0"/><path fill="#cd3a5f" d="m78 111.5.25.25zm0 0"/><path fill="#e9d227" d="m100.25 111.5.25.25zm7.5 0 .25.25zm0 0"/><path fill="#20a5a7" d="m108 111.5.25.25zm0 0"/><path fill="#e9d227" d="m168.5 111.5.25.25zm0 0"/><path fill="#fffeff" d="m173.5 111.5.5 2h.25zm0 0"/><path fill="#e9d227" d="m181.25 111.5.25.25zm.75 0 .25.25zm.75 0 .25.25zm0 0"/><path fill="#fffeff" d="m189.332 111.668.086.164zm0 0"/><path fill="#20a5a7" d="m78.25 111.75.25.25zm29 0 .25.25zm0 0"/><path fill="#e9d227" d="m168.082 111.918.086.164zm0 0"/><path fill="#20a5a7" d="m181.5 111.75.25.25zm0 0"/><path fill="#e9d227" d="m182.25 111.75.25.25zm.75 0 .25.25zm0 0"/><path fill="#20a5a7" d="m78.75 112 .25.25zm21.75 0 .25.25zm6 0 .25.25zm0 0"/><path fill="#e9d227" d="m168.832 112.168.086.164zm0 0"/><path fill="#20a5a7" d="m174.25 112 .25.25zm0 0"/><path fill="#e9d227" d="m175.082 112.168.086.164zm4.668-.168.25.25zm0 0"/><path fill="#20a5a7" d="m181.75 112 .25.25zm0 0"/><path fill="#e9d227" d="m183.25 112 .25.25zm0 0"/><path fill="#20a5a7" d="m184.5 112 .25.25zm0 0"/><path fill="#fffeff" d="m189.5 112 .25.25zm0 0"/><path fill="#20a5a7" d="m191.75 112 .25.25zm0 0"/><path fill="#e9d227" d="m79 112.25.25.25zm0 0"/><path fill="#cd3a5f" d="m100 112.25.25.25zm0 0"/><path fill="#e9d227" d="m105.75 112.25.25.25zm0 0"/><path fill="#20a5a7" d="m106 112.25.25.25zm0 0"/><path fill="#e9d227" d="m168.332 112.418.086.164zm0 0"/><path fill="#20a5a7" d="m173.5 112.25.25.25zm0 0"/><path fill="#e9d227" d="M180 112.25v1c.742.29 3.934 3.66 1.879 3.625-1.164-.02-1.8-1.762-2.879-2.125.453.957 2.852 4.586 4.203 2.848 1.39-1.782-1.902-4.672-3.203-5.348zm0 0"/><path fill="#20a5a7" d="m182 112.25.25.25zm0 0"/><path fill="#e9d227" d="m184 112.25.25.25zm0 0"/><path fill="#fffeff" d="m189.75 112.25.25.25zm0 0"/><path fill="#e9d227" d="m192 112.25.25.25zm0 0"/><path fill="#20a5a7" d="m79.5 112.5.25.25zm21.25 0 .25.25zm4.5 0 .25.25zm0 0"/><path fill="#e9d227" d="m169.082 112.668.086.164zm0 0"/><path fill="#cd3a5f" d="m175 112.5.25.25zm0 0"/><path fill="#e9d227" d="m182.25 112.5.25.25zm0 0"/><path fill="#20a5a7" d="m184.25 112.5.25.25zm0 0"/><path fill="#fffeff" d="m190.082 112.668.086.164zm0 0"/><path fill="#e9d227" d="m101 112.75.25.25zm0 0"/><path fill="#20a5a7" d="m104.5 112.75.25.25zm0 0"/><path fill="#e9d227" d="m168.582 112.918.086.164zm0 0"/><path fill="#20a5a7" d="m174.5 112.75.25.25zm0 0"/><path fill="#e9d227" d="m175.832 112.918.086.164zm6.668-.168.25.25zM80.25 113l.25.25zm23.5 0 .25.25zm0 0"/><path fill="#20a5a7" d="m104 113 .25.25zm69.75 0 .25.25zm0 0"/><path fill="#e9d227" d="m175.25 113 .25.25zm8.75 0 .25.25zm0 0"/><path fill="#fffeff" d="m190.25 113 .25.25zm0 0"/><path fill="#20a5a7" d="m80.75 113.25.25.25zm20.5 0 .25.25zm0 0"/><path fill="#e9d227" d="m103 113.25.25.25zm0 0"/><path fill="#20a5a7" d="m103.25 113.25.25.25zm0 0"/><path fill="#e9d227" d="m169.25 113.25.25.25zm0 0"/><path fill="#20a5a7" d="m180 113.25.25.25zm0 0"/><path fill="#2e2c2b" d="m180.25 113.25 1 .75v.25l-1-.25v1.25H180l-.5-.75c1.969 4.477 4.766.629.75-1.25zm0 0"/><path fill="#e9d227" d="m183.5 113.25.25.25zm1.25 0 .25.25zm0 0"/><path fill="#fffeff" d="m190.582 113.418.086.164zm0 0"/><path fill="#e9d227" d="m81 113.5.25.25zm0 0"/><path fill="#cd3a5f" d="m99 113.5.25.25zm1.75 0 .25.25zm0 0"/><path fill="#20a5a7" d="m102.5 113.5.25.25zm0 0"/><path fill="#e9d227" d="m168.75 113.5.25.25zm0 0"/><path fill="#20a5a7" d="m174.082 113.668.086.164zm.668-.168.25.25zm0 0"/><path fill="#e9d227" d="m176 113.5.25.25zm0 0"/><path fill="#cd3a5f" d="M180 113.5v1.75h.25zm3 0 .25.25zm0 0"/><path fill="#e9d227" d="m193 113.5.25.25zm0 0"/><path fill="#20a5a7" d="m81.5 113.75.25.25zm20 0 .25.25zm.5 0 .25.25zm0 0"/><path fill="#e9d227" d="m169.582 113.918.086.164zm0 0"/><path fill="#fffeff" d="m174.25 113.75.25 1h.25zm0 0"/><path fill="#20a5a7" d="m175.5 113.75.25.25zm0 0"/><path fill="#e9d227" d="m176.75 113.75.25.25zm3.25 0 .25.25zm.5 0 .25.25zm0 0"/><path fill="#cd3a5f" d="M180.75 113.75v.5h.5zm0 0"/><path fill="#20a5a7" d="m181.25 113.75.25.25zm0 0"/><path fill="#e9d227" d="m183.25 113.75.25.25zm1.25 0 .25.25zm.5 0 .25.25zm0 0"/><path fill="#fffeff" d="m190.75 113.75.25.25zm0 0"/><path fill="#20a5a7" d="m82 114 .25.25zm21.75 0 .25.25zm26.25 0-7.75.773-19 1.727c2.703 4.855 6.867 8.617 10.75 12.5h.25c3.871-3.793 8.059-7.27 12-10.992.965-.91 3.785-2.613 3.75-4.008zm0 0"/><path fill="#e9d227" d="m169 114 .25.25zm0 0"/><path fill="#20a5a7" d="m175 114 .25.25zm6.5 0 .25.25zm0 0"/><path fill="#e9d227" d="m184 114 .25.25zm0 0"/><path fill="#20a5a7" d="m185.25 114 .25.25zm0 0"/><path fill="#fffeff" d="m191.082 114.168.086.164zm0 0"/><path fill="#e9d227" d="m82.25 114.25.25.25zm0 0"/><path fill="#20a5a7" d="m103 114.25.25.25zm0 0"/><path fill="#e9d227" d="m103.25 114.25.25.25zm0 0"/><path fill="#fffeff" d="M102.25 114.75c.984 1.004 2.02.64 3.25.25-1.117-.734-2.016-.637-3.25-.25zm0 0"/><path fill="#e9d227" d="m104.25 114.25.25.25zm65.582.168.086.164zm0 0"/><path fill="#20a5a7" d="m174.25 114.25.25.25zm0 0"/><path fill="#e9d227" d="m175.75 114.25.25.25zm.5 0 .25.25zm.75 0 .25.25zm.5 0 .25.25zm0 0"/><path fill="#cd3a5f" d="m177.75 114.25.25.25zm0 0"/><path fill="#e9d227" d="m179.5 114.25.25.25zm0 0"/><path fill="#cd3a5f" d="m181.25 114.25.75 1.5h.25zm2.25 0 .25.25zm0 0"/><path fill="#20a5a7" d="m186 114.25.25.25zm-103.25.25.25.25zm19.5 0 .25.25zm0 0"/><path fill="#e9d227" d="m102.5 114.5.25.25zm2.25 0 .25.25zm0 0"/><path fill="#20a5a7" d="m105 114.5.25.25zm0 0"/><path fill="#e9d227" d="m169.332 114.668.086.164zm0 0"/><path fill="#cd3a5f" d="m175.25 114.5.25.25zm0 0"/><path fill="#2e2c2b" d="M177.75 114.5c1.246 2.664 3.203 5.043 6.25 5.5l-.25-1c-3.29.117-3.676-3.184-6-4.5zm0 0"/><path fill="#e9d227" d="m178.668 114.582.164.086zm0 0"/><path fill="#cd3a5f" d="m180.5 114.5.25.25zm0 0"/><path fill="#e9d227" d="m180.5 114.75.75.75-.5-.25v.25l.75.25-.5-1.25zm3.25-.25.25.25zm.5 0 .25.25zm1.25 0 .25.25zm0 0"/><path fill="#fffeff" d="m191.25 114.5.25.25zm0 0"/><path fill="#e9d227" d="m193.75 114.5.25.25zm0 0"/><path fill="#cd3a5f" d="m101.5 114.75.25.25zm0 0"/><path fill="#e9d227" d="m105.5 114.75.25.25zm0 0"/><path fill="#20a5a7" d="m174.5 114.75 1 2.5h.5l.5.75zm0 0"/><path fill="#e9d227" d="m176 114.75.25.25zm.5 0 .25.25zm1.25 0 .25.25zm0 0"/><path fill="#cd3a5f" d="m183.75 114.75.25.25zm0 0"/><path fill="#20a5a7" d="m186.25 114.75.25.25zm0 0"/><path fill="#fffeff" d="m191.582 114.918.086.164zm0 0"/><path fill="#e9d227" d="m83.5 115 .25.25zm0 0"/><path fill="#20a5a7" d="m102.25 115 .25.25zm0 0"/><path fill="#e9d227" d="m105 115 .25.25zm64.582.168.086.164zM170 115l.25.25zm0 0"/><path fill="#fffeff" d="m174.75 115 .25.25zm0 0"/><path fill="#cd3a5f" d="m175.5 115 .25.25zm5.25 0 .25.25zm0 0"/><path fill="#2e2c2b" d="m181 115 .25.25zm.5 0-.75.5 1.25.75zm0 0"/><path fill="#e9d227" d="m184 115 .25.25zm1.25 0 .25.25zm.5 0 .25.25zm0 0"/><path fill="#20a5a7" d="m84 115.25.25.25zm0 0"/><path fill="#e9d227" d="m102.5 115.25.25.25zm1.75 0 .25.25zm0 0"/><path fill="#20a5a7" d="m104.5 115.25.25.25zm0 0"/><path fill="#e9d227" d="m176.25 115.25.25.25zm.5 0 .25.25zm1.25 0 .25.25zm0 0"/><path fill="#cd3a5f" d="m180.25 115.25 1 1.25zm0 0"/><path fill="#20a5a7" d="m181 115.25.25.25zm0 0"/><path fill="#cd3a5f" d="m184 115.25.25.25zm0 0"/><path fill="#20a5a7" d="m186.5 115.25.25.25zm0 0"/><path fill="#fffeff" d="m191.75 115.25.25.25zm0 0"/><path fill="#20a5a7" d="m194.25 115.25.25.25zm0 0"/><path fill="#cd3a5f" d="m100.25 115.5.25.25zm0 0"/><path fill="#20a5a7" d="m102.75 115.5.25.25zm0 0"/><path fill="#cd3a5f" d="m157.25 119.5 6.75 8h.25l1.25-12zm0 0"/><path fill="#e9d227" d="m170.332 115.668.086.164zm0 0"/><path fill="#20a5a7" d="m175.75 115.5.25.25zm0 0"/><path fill="#cd3a5f" d="m178.25 115.5.25.25zm0 0"/><path fill="#e9d227" d="m184.25 115.5.25.25zm1.25 0 .25.25zm.5 0 .25.25zm0 0"/><path fill="#20a5a7" d="m84.75 115.75.25.25zm0 0"/><path fill="#e9d227" d="m169.832 115.918.086.164zm6.668-.168.25.25zm1.25 0 .25.25zm.5 0 .25.25zm3.75 0-.75.5v.25c.586-.074.988-.125.75-.75zm0 0"/><path fill="#20a5a7" d="m182.5 115.75.25.25zm0 0"/><path fill="#cd3a5f" d="m184.25 115.75.25.25zm0 0"/><path fill="#20a5a7" d="m186.75 115.75.25.25zm0 0"/><path fill="#fffeff" d="m192 115.75.25.25zm0 0"/><path fill="#e9d227" d="m170.582 116.168.086.164zm0 0"/><path fill="#20a5a7" d="m176 116 .25.25zm0 0"/><path fill="#e9d227" d="m177.25 116 .25.25zm0 0"/><path fill="#20a5a7" d="m178.5 116 .25.25zm0 0"/><path fill="#e9d227" d="m184.5 116 .25.25zm.5 0 .25.25zm1.25 0 .25.25zm0 0"/><path fill="#20a5a7" d="m194.75 116 .25.25zm0 0"/><path fill="#e9d227" d="m85.5 116.25.25.25zm0 0"/><path fill="#cd3a5f" d="m100.75 116.25.25.25zm0 0"/><path fill="#e9d227" d="m170.082 116.418.086.164zm0 0"/><path fill="#cd3a5f" d="m176.75 116.25.25.25zm0 0"/><path fill="#20a5a7" d="m184.5 116.25.25.25zm2.5 0 .25.25zm0 0"/><path fill="#fffeff" d="m192.25 116.25.25.25zm0 0"/><path fill="#e9d227" d="m177 116.5.25.25zm.5 0 .25.25zm.75 0 .25.25zm.5 0 .25.25zm0 0"/><path fill="#cd3a5f" d="M181.5 116.5v.25h.75zm0 0"/><path fill="#20a5a7" d="m186.5 116.5.25.25zm0 0"/><path fill="#fffeff" d="m192.582 116.668.086.164zm0 0"/><path fill="#e9d227" d="m86.25 116.75.25.25zm0 0"/><path fill="#cd3a5f" d="m102.75 116.75.25.25zm0 0"/><path fill="#e9d227" d="m170.75 116.75.25.25zm0 0"/><path fill="#fffeff" d="m175.5 116.75.25.25zm0 0"/><path fill="#20a5a7" d="m176.5 116.75.25.25zm2.5 0 .25.25zm0 0"/><path fill="#e9d227" d="m186 116.75.25.25zm.5 0 .25.25zm8.75 0 .25.25zm-108.5.25.25.25zm0 0"/><path fill="#cd3a5f" d="m101.25 117 .25.25zm0 0"/><path fill="#e9d227" d="m170.332 117.168.086.164zm0 0"/><path fill="#20a5a7" d="m177.25 117 .25.25zm0 0"/><path fill="#cd3a5f" d="m179.25 117 .25.25zm2.75 0 .25.25zm0 0"/><path fill="#fffeff" d="m192.832 117.168.086.164zm0 0"/><path fill="#e9d227" d="m171.082 117.418.086.164zm0 0"/><path fill="#fffeff" d="m175.75 117.25.25.25zm0 0"/><path fill="#e9d227" d="m177.5 117.25.25.25zm1.25 0 .25.25zm0 0"/><path fill="#20a5a7" d="m186.75 117.25.25.25zm0 0"/><path fill="#e9d227" d="m87.5 117.5.25.25zm0 0"/><path fill="#cd3a5f" d="m103.25 117.5.25.25zm0 0"/><path fill="#e9d227" d="m170.582 117.668.086.164zm0 0"/><path fill="#20a5a7" d="m177 117.5.25.25zm0 0"/><path fill="#e9d227" d="m178.25 117.5.25.25zm8 0 .25.25zm0 0"/><path fill="#20a5a7" d="m187.5 117.5.25.25zm0 0"/><path fill="#fffeff" d="m193.082 117.668.086.164zm0 0"/><path fill="#e9d227" d="m195.75 117.5.25.25zm-24.418.418.086.164zM88.25 118l.25.25zm0 0"/><path fill="#20a5a7" d="m176 118 .25.25zm.582.168.086.164zM178 118l.25.25zm9 0 .25.25zm0 0"/><path fill="#fffeff" d="m193.332 118.168.086.164zm0 0"/><path fill="#20a5a7" d="m196 118 .25.25zm-107.25.25.25.25zm0 0"/><path fill="#cd3a5f" d="m103.75 118.25.25.25zm0 0"/><path fill="#e9d227" d="m170.75 118.25.25.25zm7.5 0 .25.25zm8.25 0 .25.25zm.5 0 .25.25zm-15.5.25.25.25zm0 0"/><path fill="#20a5a7" d="m176.75 118.5-.25.5h.5zm1 0 .25.25zm10 0 .25.25zm0 0"/><path fill="#e9d227" d="m89.5 118.75.25.25zm81.582.168.086.164zm8.168-.168.25.25zm0 0"/><path fill="#cd3a5f" d="m181 118.75.25.25zm0 0"/><path fill="#e9d227" d="m186.75 118.75.25.25zm0 0"/><path fill="#fffeff" d="m193.582 118.918.086.164zm0 0"/><path fill="#e9d227" d="m196.5 118.75.25.25zm0 0"/><path fill="#20a5a7" d="m90 119 .25.25zm0 0"/><path fill="#e9d227" d="m171.75 119 .25.25zm0 0"/><path fill="#20a5a7" d="m176.75 119.25.75.5-.25-.75zm0 0"/><path fill="#e9d227" d="m179.5 119 .25.25zm0 0"/><path fill="#20a5a7" d="m181.25 119 .25.25zm6.082.168.086.164zm0 0"/><path fill="#e9d227" d="m171.332 119.418.086.164zm8.418-.168.25.25zm0 0"/><path fill="#cd3a5f" d="m181.75 119.25.25.25zm0 0"/><path fill="#e9d227" d="m187 119.25.25.25zm0 0"/><path fill="#fffeff" d="m193.832 119.418.086.164zm0 0"/><path fill="#20a5a7" d="m90.75 119.5.25.25zm0 0"/><path fill="#e9d227" d="m172.082 119.668.086.164zm0 0"/><path fill="#cd3a5f" d="m179.25 119.5.25.25zm0 0"/><path fill="#e9d227" d="m180 119.5.25.25zm1 0 .25.25zm1 0 .25.25zm0 0"/><path fill="#cd3a5f" d="m182.25 119.5.25.25zm0 0"/><path fill="#20a5a7" d="M188 119.5v.75h.25zm0 0"/><path fill="#cd3a5f" d="M152.75 122c-1.95-.016-7.672 2.621-8.75 4.25l7.5 2.75c.426.754 1.027 1.11 1.75 1.586 4.223 2.785 6.883-.719 9-4.336-1.887-2.762-6.316-9.113-9.5-4.25zm0 0"/><path fill="#20a5a7" d="m177.5 119.75-.25.5h.5zm2 0 .25.25zm0 0"/><path fill="#e9d227" d="m180.25 119.75.25.25zm2.25 0 .25.25zm0 0"/><path fill="#20a5a7" d="m182.75 119.75.25.25zm0 0"/><path fill="#cd3a5f" d="m183 119.75.25.25zm0 0"/><path fill="#e9d227" d="m91.5 120 .25.25zm0 0"/><path fill="#cd3a5f" d="m105 120 .25.25zm0 0"/><path fill="#e9d227" d="m171.582 120.168.086.164zm.75 0 .086.164zm0 0"/><path fill="#20a5a7" d="m179 120 .25.25zm0 0"/><path fill="#cd3a5f" d="m179.75 120 .25.25zm0 0"/><path fill="#e9d227" d="m184.25 120 .25.25zm0 0"/><path fill="#fffeff" d="m194.082 120.168.086.164zm0 0"/><path fill="#20a5a7" d="m197.25 120 .25.25zM92 120.25l.25.25zm85.75 0 .25.25zm1.5 0 .25.25zm0 0"/><path fill="#cd3a5f" d="m188 120.25.25.25zm0 0"/><path fill="#e9d227" d="m171.832 120.668.086.164zm0 0"/><path fill="#20a5a7" d="M178 120.5c.18 1.418 1.371 2.668 2.5 3.5zm1.5 0 .25.25zm0 0"/><path fill="#e9d227" d="m181.25 120.5.25.25zm0 0"/><path fill="#fffeff" d="m194.332 120.668.086.164zm0 0"/><path fill="#e9d227" d="m92.75 120.75.25.25zm79.75 0 .25.25zm0 0"/><path fill="#20a5a7" d="m179.75 120.75.25.25zm0 0"/><path fill="#e9d227" d="m183.418 120.832.164.086zm1.082-.082.25.25zm13.25 0 .25.25zm0 0"/><path fill="#20a5a7" d="m93.25 121 .25.25zm0 0"/><path fill="#cd3a5f" d="m105.75 121 .25.25zm0 0"/><path fill="#e9d227" d="m172.082 121.168.086.164zM181 121l.25.25zm1 0 .25.25zm0 0"/><path fill="#20a5a7" d="M188 121v.75h.25zm0 0"/><path fill="#e9d227" d="m172.75 121.25.25.25zm0 0"/><path fill="#20a5a7" d="m181.25 121.25.25.25zm0 0"/><path fill="#fffeff" d="m194.582 121.418.086.164zm0 0"/><path fill="#20a5a7" d="m198 121.25.25.25zm-104 .25.25.25zm0 0"/><path fill="#e9d227" d="m181.75 121.5.25.25zm1.25 0 .25.25zm2.75 0 .25.25zm0 0"/><path fill="#cd3a5f" d="m104.75 121.75.25.25zm0 0"/><path fill="#e9d227" d="m152.5 121.75.25.25zm19.75 0 .25.25zm.832.168.086.164zm0 0"/><path fill="#20a5a7" d="m182 121.75.25.25zm0 0"/><path fill="#e9d227" d="m183.668 121.832.164.086zm1.582-.082.25.25zm1.168.082.164.086zM94.75 122l.25.25zm0 0"/><path fill="#20a5a7" d="m181.25 122 .25.25zm0 0"/><path fill="#e9d227" d="m182.5 122 .25.25zm16 0 .25.25zm0 0"/><path fill="#20a5a7" d="m95.25 122.25.25.25zm0 0"/><path fill="#cd3a5f" d="m106.75 122.25.25.25zm0 0"/><path fill="#e9d227" d="m172.582 122.418.086.164zm.75 0 .086.164zm9.668-.168.25.25zm0 0"/><path fill="#cd3a5f" d="m186.5 122.25.25.25zm0 0"/><path fill="#20a5a7" d="m187.75 122.25.25.25zm0 0"/><path fill="#fffeff" d="m194.832 122.418.086.164zm0 0"/><path fill="#20a5a7" d="m182 122.5.25.25zm1.5 0 .25.25zm0 0"/><path fill="#e9d227" d="m183.75 122.5.25.25zm2.25 0 .25.25zm-90 .25.25.25zm0 0"/><path fill="#cd3a5f" d="M115.25 129.25 126 128l-5.5 6.5 9.5-3.75-1.25 8.25 4.25.25c-.805-2.785-3.324-5.934-2.617-9 .976-4.223 6.414-2.984 9.367-2.145 8.71 2.489 15.984 7.954 24.25 11.395-1.66-1.902-3.984-3.332-6-4.844-7.637-5.726-15.816-9.113-25.25-10.676-2.762-.457-7.867-2-10.543-1.02-2.234.817-5.555 4.388-6.957 6.29zm0 0"/><path fill="#e9d227" d="m172.832 122.918.086.164zm.75 0 .086.164zm0 0"/><path fill="#20a5a7" d="m184.418 122.832.164.086zm0 0"/><path fill="#e9d227" d="M184.75 122.75v.25h.75zm0 0"/><path fill="#20a5a7" d="m185.5 122.75.25.25zm2 0 .25.25zm0 0"/><path fill="#e9d227" d="m199 122.75.25.25zm0 0"/><path fill="#20a5a7" d="m96.5 123 .25.25zm0 0"/><path fill="#cd3a5f" d="m106 123.25.25.25zm0 0"/><path fill="#e9d227" d="m173.082 123.418.086.164zm.75 0 .086.164zm0 0"/><path fill="#20a5a7" d="m187 123.25.25.25zm0 0"/><path fill="#fffeff" d="M195 123.25v.75h.25zm0 0"/><path fill="#20a5a7" d="m199.25 123.25.25.25zm-102 .25.25.25zm86.75 0 .25.25zm0 0"/><path fill="#e9d227" d="m174.082 123.918.086.164zm0 0"/><path fill="#20a5a7" d="M185 123.75v.25h1zm0 0"/><path fill="#e9d227" d="m98 124 .25.25zm75.25 0 .25.25zm0 0"/><path fill="#20a5a7" d="m180.5 124 .25.25zm0 0"/><path fill="#e9d227" d="m199.75 124 .25.25zm0 0"/><path fill="#20a5a7" d="m98.5 124.25.25.25zm82.25 0 .25.25zm0 0"/><path fill="#e9d227" d="m173.5 124.5.25.25zm.75 0 .25.25zm0 0"/><path fill="#20a5a7" d="m181 124.5 1.75 1.75zm0 0"/><path fill="#e9d227" d="m99.25 124.75.25.25zm75.332.168.086.164zm0 0"/><path fill="#20a5a7" d="m99.75 125 .25.25zm0 0"/><path fill="#e9d227" d="m173.75 125 .25.25zm0 0"/><path fill="#cd3a5f" d="m107.75 125.25.25.25zm0 0"/><path fill="#20a5a7" d="m200.5 125.25.25.25zm-100 .25.25.25zm0 0"/><path fill="#cd3a5f" d="m108 125.5.25.25zm0 0"/><path fill="#e9d227" d="m174.082 125.668.086.164zm.668-.168.25.25zm0 0"/><path fill="#fffeff" d="M195.25 125.5v1h.25zm0 0"/><path fill="#e9d227" d="m101.25 126 .25.25zm73.082.168.086.164zM175 126l.25.25zm26 0 .25.25zm0 0"/><path fill="#20a5a7" d="m101.75 126.25.25.25zm0 0"/><path fill="#e9d227" d="M162 126.25c-1.324 3.328-3.633 4.02-6.25 6l5 3.75h.25c2.238-2.914 4.54-6.887 1-9.75zm0 0"/><path fill="#20a5a7" d="m182.75 126.25.25.25zm0 0"/><path fill="#e9d227" d="m174.582 126.668.086.164zm.668-.168.25.25zm0 0"/><path fill="#20a5a7" d="m183 126.5.25.25zm18.25 0 .25.25zm0 0"/><path fill="#e9d227" d="m102.5 126.75.25.25zm0 0"/><path fill="#20a5a7" d="m183.25 126.75.25.25zM103 127l.25.25zm0 0"/><path fill="#cd3a5f" d="m162.75 127 .25.25zm0 0"/><path fill="#e9d227" d="m174.832 127.168.086.164zm.668-.168.25.25zm0 0"/><path fill="#20a5a7" d="m183.5 127 .25.25zm0 0"/><path fill="#e9d227" d="m103.25 127.25.25.25zm30 0 .25.25zm2.918.082.164.086zm0 0"/><path fill="#cd3a5f" d="m163 127.25.25.25zm0 0"/><path fill="#20a5a7" d="m183.75 127.25.25.25zm18 0 .25.25zm-98 .25.25.25zm0 0"/><path fill="#e9d227" d="m132.25 127.5.25.25zm5.5 0 .25.25zm37.332.168.086.164zm.668-.168.25.25zm0 0"/><path fill="#20a5a7" d="m184 127.5.25.25zm0 0"/><path fill="#e9d227" d="m131.75 127.75.25.25zm7 0 .25.25zm0 0"/><path fill="#20a5a7" d="m184.5 127.75.25.25zm0 0"/><path fill="#fffeff" d="m195.082 127.918.086.164zm0 0"/><path fill="#e9d227" d="m104.5 128 .25.25zm35.25 0 .25.25zm12.25 0 .25.25zm23.332.168.086.164zM176 128l.25.25zm0 0"/><path fill="#20a5a7" d="m184.75 128 .25.25zm0 0"/><path fill="#e9d227" d="m202.25 128 .25.25zm0 0"/><path fill="#20a5a7" d="m105 128.25.25.25zm0 0"/><path fill="#e9d227" d="m140.5 128.25.25.25zm0 0"/><path fill="#cd3a5f" d="m163.75 128.25.25.25zm0 0"/><path fill="#20a5a7" d="m185 128.25.25.25zm0 0"/><path fill="#e9d227" d="m141.25 128.5.25.25zm34.332.168.086.164zm.668-.168.25.25zm0 0"/><path fill="#20a5a7" d="m185.5 128.5.25.25zm0 0"/><path fill="#fffeff" d="m194.75 128.5.25.25zm0 0"/><path fill="#20a5a7" d="m202.5 128.5.25.25zm0 0"/><path fill="#e9d227" d="m105.75 128.75.25.25zm36.25 0 .25.25zm0 0"/><path fill="#cd3a5f" d="m167.75 131.75 3.25 4.5 3.25-7.5zm0 0"/><path fill="#20a5a7" d="m185.75 128.75.25.25zm-79.5.25.25.25zm17.25 0 .25.25zm0 0"/><path fill="#e9d227" d="m142.75 129 .25.25zm8.5 0 .25.25zm24.582.168.086.164zm.668-.168.25.25zm0 0"/><path fill="#20a5a7" d="m186.25 129 .25.25zm0 0"/><path fill="#fffeff" d="m194.5 129 .25.25zm0 0"/><path fill="#e9d227" d="m106.5 129.25.25.25zm0 0"/><path fill="#cd3a5f" d="m113.75 129.25.25.25zm7.75 0 .25.25zm0 0"/><path fill="#e9d227" d="M115.5 130c.758.992 2.898 3.465 4.246 3.45 1.395-.016 3.3-3.141 4.004-4.2zm28-.75.25.25zm0 0"/><path fill="#cd3a5f" d="M163.75 129.25v1.5h.25zm0 0"/><path fill="#e9d227" d="m174.75 129.25-3 8.25 7.25-1.25c-1.035-1.945-2.426-5.805-4.25-7zm0 0"/><path fill="#20a5a7" d="m186.5 129.25.25.25zm0 0"/><path fill="#e9d227" d="m203 129.25.25.25zm0 0"/><path fill="#20a5a7" d="m107 129.5.25.25zm0 0"/><path fill="#cd3a5f" d="m119.418 129.582.164.086zm0 0"/><path fill="#e9d227" d="m144 129.5.25.25zm32 0 .25.25zm.75 0 .25.25zm0 0"/><path fill="#20a5a7" d="m187 129.5.25.25zm0 0"/><path fill="#fffeff" d="m194.25 129.5.25.25zm0 0"/><path fill="#cd3a5f" d="m117.25 129.75.25.25zm0 0"/><path fill="#e9d227" d="m144.75 129.75.25.25zm32.332.168.086.164zm0 0"/><path fill="#20a5a7" d="m187.5 129.75.25.25zm0 0"/><path fill="#fffeff" d="m194 129.75.25.25zm0 0"/><path fill="#e9d227" d="m107.75 130 .25.25zm0 0"/><path fill="#cd3a5f" d="m112.5 130 .25.25zm0 0"/><path fill="#e9d227" d="M130.25 130v.75h.25zm46 0 .25.25zm0 0"/><path fill="#20a5a7" d="m188 130 .25.25zm0 0"/><path fill="#fffeff" d="m193.75 130 .25.25zm0 0"/><path fill="#20a5a7" d="m108.25 130.25.25.25zm0 0"/><path fill="#cd3a5f" d="m112.75 130.25.25.25zm10 0 .25.25zm0 0"/><path fill="#e9d227" d="m177.332 130.418.086.164zm0 0"/><path fill="#20a5a7" d="m188.75 130.25.25.25zm0 0"/><path fill="#e9d227" d="m193.5 130.25.25.25zm-47 .25.25.25zm0 0"/><path fill="#cd3a5f" d="m174.25 130.5.25.25zm0 0"/><path fill="#e9d227" d="m176.5 130.5.25.25zm0 0"/><path fill="#20a5a7" d="m189.668 130.582.164.086zm0 0"/><path fill="#e9d227" d="m203.75 130.5.25.25zm0 0"/><path fill="#20a5a7" d="m109 130.75.25.25zm0 0"/><path fill="#e9d227" d="m147 130.75.25.25zm30.582.168.086.164zm0 0"/><path fill="#cd3a5f" d="m116.5 131 .25.25zm0 0"/><path fill="#e9d227" d="m176.75 131 .25.25zm-67 .25.25.25zm0 0"/><path fill="#cd3a5f" d="m116 131.25.25.25zm0 0"/><path fill="#e9d227" d="M130.25 131.25v.75h.25zm46.832.168.086.164zm.75 0 .086.164zm26.418-.168.25.25zm0 0"/><path fill="#20a5a7" d="m110.25 131.5.25.25zm0 0"/><path fill="#cd3a5f" d="M163.5 131.75c-.438 1.152-2.582 3.234-2.172 4.457.426 1.281 2.875 2.54 3.922 3.324 3.832 2.875 8.86 6.356 13.5 7.719 1.754-3.176-5.293-8.95-8.25-8.75.496-1.73-1.762-5.766-3.754-5.941-.988-.086-2.332.836-3.246 1.191zm10.25 0 .25.25zm0 0"/><path fill="#e9d227" d="m177.332 131.918.086.164zm.75 0 .086.164zm0 0"/><path fill="#20a5a7" d="m204.5 131.75.25.25zm0 0"/><path fill="#e9d227" d="m111 132 .25.25zm0 0"/><path fill="#20a5a7" d="M121.5 135c1.516 1.871 4.074 3.719 6.25 4.75L129 132zm0 0"/><path fill="#e9d227" d="m164.75 132 .25.25zm0 0"/><path fill="#20a5a7" d="m111.5 132.25.25.25zm0 0"/><path fill="#cd3a5f" d="m121 132.25.25.25zm0 0"/><path fill="#e9d227" d="m177.582 132.418.086.164zm.668-.168.25.25zm-66.5.25.25.25zm0 0"/><path fill="#cd3a5f" d="m115.25 132.5.25.25zm3 0 .25.25zm38 0 .25.25zm20.5 0 .25.25zm0 0"/><path fill="#e9d227" d="m205 132.5.25.25zm0 0"/><path fill="#20a5a7" d="m112.25 132.75.25.25zm0 0"/><path fill="#cd3a5f" d="m117.75 132.75.25.25zm0 0"/><path fill="#e9d227" d="m177.75 132.75.25.25zm.75 0 .25.25zm-48 .25.25.25zm0 0"/><path fill="#cd3a5f" d="m157 133 .25.25zm16.25 0 .25.25zm0 0"/><path fill="#e9d227" d="m113 133.25.25.25zm0 0"/><path fill="#cd3a5f" d="m157.25 133.25.25.25zm0 0"/><path fill="#e9d227" d="m178 133.25.25.25zm.75 0 .25.25zm26.75 0 .25.25zm0 0"/><path fill="#20a5a7" d="m113.5 133.5.25.25zm0 0"/><path fill="#e9d227" d="m152.5 133.5.25.25zm25.832.168.086.164zm.75 0 .086.164zM153 133.75l.25.25zm0 0"/><path fill="#cd3a5f" d="m158 133.75.25.25zm0 0"/><path fill="#20a5a7" d="M187.25 133.75v.25h1zm0 0"/><path fill="#cd3a5f" d="M201.75 133.887c-2.637.574-3.398 3.531-3.488 5.863-.184 4.688 3.511 15.074 9.738 13.652 2.566-.586 3.223-3.656 3.25-5.902.047-4.113-1.574-8.57-4.508-11.488-1.25-1.242-3.125-2.532-4.992-2.125zm0 0"/><path fill="#20a5a7" d="m205.75 133.75.25.25zm0 0"/><path fill="#e9d227" d="m114.25 134 .25.25zm0 0"/><path fill="#cd3a5f" d="m119.25 134 .25.25zm0 0"/><path fill="#e9d227" d="m153.5 134 .25.25zm0 0"/><path fill="#cd3a5f" d="m158.25 134 .25.25zm0 0"/><path fill="#e9d227" d="m178.582 134.168.086.164zm.75 0 .086.164zm0 0"/><path fill="#20a5a7" d="m186.75 134 .25.25zm0 0"/><path fill="#fffeff" d="M187.027 134.258c-2.754 1.504-.28 8.683 2.696 7.187 2.93-1.472.37-8.863-2.696-7.187zm0 0"/><path fill="#e9d227" d="m188.5 134 .25.25zm0 0"/><path fill="#20a5a7" d="m114.75 134.25.25.25zm0 0"/><path fill="#e9d227" d="m154 134.25.25.25zm0 0"/><path fill="#cd3a5f" d="m177.75 134.25.25.25zm0 0"/><path fill="#e9d227" d="m186.5 134.25.25.25zm0 0"/><path fill="#cd3a5f" d="M189 141.25V141c-1.602-1.574.762-2.629.75 0 1.41-1.504.695-7.387-2.234-6.57-3.059.847-.551 6.246 1.484 6.82zm0 0"/><path fill="#e9d227" d="m188.25 134.25.25.25zm-73.25.25.25.25zm39.5 0 .25.25zm0 0"/><path fill="#cd3a5f" d="m159 134.5.25.25zm0 0"/><path fill="#e9d227" d="m178.75 134.5.25.25zm.75 0 .25.25zm0 0"/><path fill="#20a5a7" d="m186.25 134.5.25.25zm0 0"/><path fill="#e9d227" d="m186.75 134.5.25.25zm0 0"/><path fill="#20a5a7" d="m189.25 134.5.25.25zm0 0"/><path fill="#e9d227" d="m206.25 134.5.25.25zm0 0"/><path fill="#20a5a7" d="m115.5 134.75.25.25zm0 0"/><path fill="#e9d227" d="m131 134.75.25.25zm24 0 .25.25zm0 0"/><path fill="#cd3a5f" d="m159.25 134.75.25.25zm0 0"/><path fill="#20a5a7" d="m189.5 134.75.25.25zm12.5 0v.25h.5v.25l-1.25-.25-2 2.5.25 1-.5-.25c.523 4.152-.191 8.941 3.5 12-1.7-3.063-3.547-6.344-2.883-10 .817-4.508 5.043-4.879 7.633-1.5l-1.25-.5-.25-.75-.5.25c-.328-.543-1.352-1.145-1.5-.25l-.75-.25-.5.25-.25.25.25.5-.75.25.25 1h.25l1.25-1.25c.262 1.129 1.871.988 2.746 1.64 1.344 1 2.125 2.516 2.504 4.11h.25l.25-1.5-.5.25v-.25l.25-.5v-.25l-.5.25.25-.75-.25-.5h-.5v-.25l.25-.25-.5.25.25-.75-1-.75.25-.25c1.754 1.953 3.129 4.852 3.25 7.5h.25c-.027-1.32-.137-3.406-1.25-4.25v-1.25h-.5l.25-.5h-.5V140l.25-.25-.5-.75h-.5l.25-.5-.25-.25-.5.25c-.172-1.105-.617-1.809-1.75-2l-.25-.75-1.5-.75c-.738.246-.906.371-.75-.25zm0 0"/><path fill="#e9d227" d="m202.5 134.75.25.25zm-47 .25.25.25zm23.5 0 .25.25zm.75 0 .25.25zm6.25 0 .25.25zm0 0"/><path fill="#fffeff" d="M201.5 135v.25h1zm1.5 0v.25h.75zm0 0"/><path fill="#e9d227" d="m204 135 .25.25zm-87.75.25.25.25zm15 0 .25.25zm24.75 0 .25.25zm23.332.168.086.164zm.75 0 .086.164zm20.668-.168.25.25zm0 0"/><path fill="#fffeff" d="m201.168 135.332.164.086zm2.832-.082v.25l1.25.5v-.25zm0 0"/><path fill="#e9d227" d="m204.5 135.25.25.25zm0 0"/><path fill="#20a5a7" d="m116.75 135.5.25.25zm0 0"/><path fill="#cd3a5f" d="m160.25 135.5.25.25zm0 0"/><path fill="#e9d227" d="m186.25 135.5.25.25zm3.75 0 .25.25zm0 0"/><path fill="#fffeff" d="m200.75 135.5.25.25zm0 0"/><path fill="#e9d227" d="m205 135.5.25.25zm-25.5.25.25.25zm.75 0 .25.25zm0 0"/><path fill="#20a5a7" d="m185.75 135.75.25.25zm0 0"/><path fill="#fffeff" d="m200.5 135.75-.25.5zm0 0"/><path fill="#20a5a7" d="m207 135.75.25.25zm0 0"/><path fill="#e9d227" d="m117.5 136 .25.25zm68.25 0 .25.25zm4.5 0 .25.25zm0 0"/><path fill="#fffeff" d="m205.5 136 .25.25zm0 0"/><path fill="#20a5a7" d="m118 136.25.25.25zm0 0"/><path fill="#cd3a5f" d="m178.25 136.25.25.25zm0 0"/><path fill="#e9d227" d="m179.75 136.25.25.25zm.75 0 .25.25zm0 0"/><path fill="#fffeff" d="m200 136.25.25.25zm7.25 2.5c1.09 2.305 2.719 4.54 2.457 7.25-.437 4.508-4.394 3.809-6.43.75-1.355-2.035-2.238-4.8-1.644-7.25.312-1.285 1.406-2.64 2.867-2.348 1.04.207 1.89 1.032 2.75 1.598-1.469-2.89-5.77-3.469-7.195-.25-1.848 4.168.5 10.684 3.945 13.367 2.852 2.219 6.008.863 6.633-2.617.586-3.246-.727-8.418-3.383-10.5m-1.5-2.5.25.25zm0 0"/><path fill="#e9d227" d="m118.25 136.5.25.25zm13.5 0 .25.25zm26.5 0 .25.25zm21.832.168.086.164zm.75 0 .086.164zm0 0"/><path fill="#20a5a7" d="m190.5 136.5.25.25zm0 0"/><path fill="#fffeff" d="m199.75 136.5-.25 1h.25zm6.25 0 1.25 1.25zm0 0"/><path fill="#e9d227" d="m207.5 136.5.25.25zm0 0"/><path fill="#20a5a7" d="m118.75 136.75.25.25zm0 0"/><path fill="#e9d227" d="m158.75 136.75.25.25zm0 0"/><path fill="#cd3a5f" d="m175.5 136.75.25.25zm0 0"/><path fill="#e9d227" d="m199.5 136.75.25.25zm0 0"/><path fill="#20a5a7" d="m120.75 137 .25.25zm2.25 0 .25.25zm0 0"/><path fill="#e9d227" d="m132 137 .25.25zm27.25 0 .25.25zm0 0"/><path fill="#cd3a5f" d="m174 137 .25.25zm0 0"/><path fill="#e9d227" d="m180.25 137 .25.25zm.832.168.086.164zm9.168-.168.25.25zm13 0 .25.25zm0 0"/><path fill="#20a5a7" d="m207.75 137 .25.25zm0 0"/><path fill="#e9d227" d="m119.5 137.25.25.25zm40.25 0 .25.25zm0 0"/><path fill="#cd3a5f" d="m172.5 137.25.25.25zm.5 1 6.25 5.5v-6.5zm0 0"/><path fill="#e9d227" d="m180.582 137.418.086.164zm5.25 0 .086.164zm0 0"/><path fill="#20a5a7" d="m190.75 137.25.25.25zm0 0"/><path fill="#e9d227" d="m202.75 137.25.25.25zm0 0"/><path fill="#2e2c2b" d="m203.418 137.332.164.086zm1 0 .164.086zm0 0"/><path fill="#e9d227" d="m205.25 137.25.25.25zm0 0"/><path fill="#2e2c2b" d="m207.75 137.25.25.25zm0 0"/><path fill="#20a5a7" d="m120 137.5.25.25zm0 0"/><path fill="#e9d227" d="m160.25 137.5.25.25zm21 0 .25.25zm9.5 0 .25.25zm0 0"/><path fill="#2e2c2b" d="m202.75 137.5.25.25zm2.5 0 .25.25zm2.75 0 .25.25zm0 0"/><path fill="#20a5a7" d="m124 137.75.25.25zm0 0"/><path fill="#e9d227" d="m180.75 137.75.25.25zm.832.168.086.164zm0 0"/><path fill="#20a5a7" d="m185.75 137.75.25.25zm0 0"/><path fill="#fffeff" d="M199.25 137.75v.75h.25zm0 0"/><path fill="#2e2c2b" d="m202.5 137.75.25.25zm3 0 .25.25zm0 0"/><path fill="#e9d227" d="m206 137.75.25.25zm0 0"/><path fill="#fffeff" d="m207.25 137.75.25.25zm0 0"/><path fill="#e9d227" d="m208.25 137.75.25.25zm0 0"/><path fill="#20a5a7" d="m120.75 138 .25.25zm0 0"/><path fill="#e9d227" d="m161.25 138 .25.25zm19.832.168.086.164zm5.168-.168.25.25zm15.75 0 .25.25zm0 0"/><path fill="#2e2c2b" d="m202.25 138 .25.25zm3.75 0 .25.25zm0 0"/><path fill="#fffeff" d="m207.582 138.168.086.164zm0 0"/><path fill="#20a5a7" d="m121.25 138.25.25.25zm58.75 0v6l4-.5zm0 0"/><path fill="#e9d227" d="m181.75 138.25.25.25zm8.75 0v1h.25zm0 0"/><path fill="#2e2c2b" d="M202.75 138.25v.25h.75zm3.5 0 .75.75zm0 0"/><path fill="#e9d227" d="m121.5 138.5.25.25zm0 0"/><path fill="#20a5a7" d="m125 138.5.25.25zm0 0"/><path fill="#e9d227" d="m132.75 138.5.25.25zm48.5 0 .25.25zm4.75 0 .25.25zm0 0"/><path fill="#2e2c2b" d="m202.082 138.668.086.164zm0 0"/><path fill="#e9d227" d="m202.918 138.582.164.086zm0 0"/><path fill="#2e2c2b" d="m203.75 138.5.5.5zm0 0"/><path fill="#fffeff" d="m207.75 138.5.25.25zm0 0"/><path fill="#20a5a7" d="m122 138.75.25.25zm0 0"/><path fill="#e9d227" d="m181.582 138.918.086.164zm.418-.168.25.25zm7.75 2.5c.547-4.078-3.309-.691 0 0zm0 0"/><path fill="#fffeff" d="M202.629 139.012c-1.32.879.258 4.77 1.793 3.785 1.496-.961-.149-4.879-1.793-3.785m5.371-.262.25.25zm0 0"/><path fill="#e9d227" d="m133 139 .25.25zm30 0 .25.25zm19.332.168.086.164zm0 0"/><path fill="#fffeff" d="M199 139v3.25h.25zm0 0"/><path fill="#2e2c2b" d="M201.75 139v2h.25zm0 0"/><path fill="#e9d227" d="M204.25 139.25c.46 1.129 1.93 3.148 2.008 4.238.113 1.567-1.352.02-1.508-.738-.953.266-1.348-.04-2-.75h-.25c.023 2.656 2.98 10.125 6.25 6-2.434-1.168-1.137-4.11.25-1.5.93-2.594-1.742-7.672-4.75-7.25zm0 0"/><path fill="#2e2c2b" d="m207 139 .5.5zm0 0"/><path fill="#e9d227" d="m207.25 139 .25.25zm0 0"/><path fill="#20a5a7" d="m209 139 .25.25zm0 0"/><path fill="#e9d227" d="m122.75 139.25.25.25zm40.75 0 .25.25zm18.25 0 .25.25zm4.5 0 .25.25zm0 0"/><path fill="#20a5a7" d="m193.25 139.25.25.25zm0 0"/><path fill="#e9d227" d="m193.5 139.25.25.25zm0 0"/><path fill="#20a5a7" d="m201.5 139.25.75 6 .25-.5h.25l-.25 1 .5-.25v.25c-.02.715.04.922.75 1v-.25l-.5.25v-.25l-1.25-4.75.25-1.25H202v.5h-.25zm0 0"/><path fill="#fffeff" d="m208.25 139.25.25.25zm0 0"/><path fill="#20a5a7" d="m123.25 139.5.25.25zm10 0 .25.25zm0 0"/><path fill="#e9d227" d="m164 139.5.25.25zm0 0"/><path fill="#cd3a5f" d="m164.25 139.5.25.25zm0 0"/><path fill="#e9d227" d="m182.082 139.668.086.164zm.418-.168.25.25zm0 0"/><path fill="#fffeff" d="M192.777 139.758c-2.156 1.164-1.136 6.336 1.457 4.984 2.23-1.16 1.125-6.375-1.457-4.984zm0 0"/><path fill="#20a5a7" d="m194.25 139.5.25.25zm0 0"/><path fill="#e9d227" d="m202 139.5.25.25zm0 0"/><path fill="#fffeff" d="m208.582 139.668.086.164zm0 0"/><path fill="#cd3a5f" d="m126.75 139.75.25.25zm1.75 0c.363 1.188 1.328 1.727 2.5 2l1-1.75zm0 0"/><path fill="#e9d227" d="m164.5 139.75.25.25zm18.332.168.086.164zm3.668-.168.25.25zm4.25 0 .25.25zm0 0"/><path fill="#20a5a7" d="m192.25 139.75.25.25zm.75 0-.75.75c.059 1.64-.996 4.18 1.75 4.25l1-1v-3l-1-1zm0 0"/><path fill="#e9d227" d="m194.5 139.75.25.25zm0 0"/><path fill="#2e2c2b" d="m207.5 139.75.25.25zm0 0"/><path fill="#e9d227" d="m209.5 139.75.25.25zm0 0"/><path fill="#20a5a7" d="m124 140 .25.25zm.75 0 .25.25zm0 0"/><path fill="#cd3a5f" d="m133.25 140-1.75 2.25 4 1-1.75-3.25zm0 0"/><path fill="#20a5a7" d="m165 140 .25.25zm0 0"/><path fill="#e9d227" d="m182.25 140 .25.25zm0 0"/><path fill="#20a5a7" d="m190.75 140 .25.25zm0 0"/><path fill="#2e2c2b" d="m192.918 140.082.164.086zm.832-.082v.25l.75.25zm0 0"/><path fill="#e9d227" d="m194.25 140 .25.25zm.5 0 .25.25zm4 0 .25.25zm0 0"/><path fill="#2e2c2b" d="m207.832 140.168.086.164zm0 0"/><path fill="#fffeff" d="m208.75 140 .25.25zm0 0"/><path fill="#20a5a7" d="m165.5 140.25.25.25zm0 0"/><path fill="#e9d227" d="m182.582 140.418.086.164zm.418-.168.25.25zm0 0"/><path fill="#2e2c2b" d="m192.582 140.418.086.164zm0 0"/><path fill="#e9d227" d="m202 140.25.25.25zm0 0"/><path fill="#20a5a7" d="m209.75 140.25.25.25zm0 0"/><path fill="#e9d227" d="m124.75 140.5.25.25zm0 0"/><path fill="#20a5a7" d="m166 140.5.25.25zm0 0"/><path fill="#e9d227" d="m183.332 140.668.086.164zm0 0"/><path fill="#20a5a7" d="m187 140.5.25.25zm0 0"/><path fill="#e9d227" d="m187.5 140.5.25.25zm3 0 .25.25zm1.25 0 .25.25zm0 0"/><path fill="#2e2c2b" d="m208 140.5.25.25zm0 0"/><path fill="#e9d227" d="m208.25 140.5.25.25zm0 0"/><path fill="#fffeff" d="m209 140.5.25.25zm0 0"/><path fill="#20a5a7" d="m125.25 140.75.25.25zm0 0"/><path fill="#e9d227" d="m134 140.75.25.25zm48.75 0 .25.25zm4.5 0 .25.25zm.5 0 .25.25zm0 0"/><path fill="#2e2c2b" d="m192.25 140.75.25.25zm2.25 0 .25.25zm0 0"/><path fill="#e9d227" d="m183 141 .25.25zm.5 0 .25.25zm0 0"/><path fill="#20a5a7" d="m187.5 141 .25.25zm0 0"/><path fill="#e9d227" d="m195.25 141 .25.25zm3.5 0 .25.25zm0 0"/><path fill="#2e2c2b" d="m208.25 141 .25.25zm0 0"/><path fill="#e9d227" d="m208.5 141 .25.25zm0 0"/><path fill="#fffeff" d="m209.25 141 .25.25zm0 0"/><path fill="#20a5a7" d="m210.25 141 .25.25zm-84.25.25.25.25zm0 0"/><path fill="#cd3a5f" d="m126.5 141.25.25.25zm0 0"/><path fill="#e9d227" d="m134.25 141.25.25.25zm33 0 .25.25zm16.5 0 .25.25zm7.75 0 .25.25zm0 0"/><path fill="#2e2c2b" d="M194.75 141.25v2h.25zm7.332.168.086.164zm0 0"/><path fill="#e9d227" d="m202.25 141.25.25.25zm-34.5.25.25.25zm15.5 0 .25.25zm0 0"/><path fill="#20a5a7" d="m188.25 141.5.25.25zm0 0"/><path fill="#e9d227" d="m188.5 141.5.25.25zm0 0"/><path fill="#20a5a7" d="m189.5 141.5.25.25zm0 0"/><path fill="#2e2c2b" d="m208.582 141.668.086.164zm0 0"/><path fill="#e9d227" d="m126.75 141.75.25.25zm0 0"/><path fill="#cd3a5f" d="m127.25 141.75.25.25zm0 0"/><path fill="#e9d227" d="m168.25 141.75.25.25zm15.25 0v.25h.75v-.25zm0 0"/><path fill="#20a5a7" d="M195 141.75v1h.25zm0 0"/><path fill="#fffeff" d="m209.5 141.75.25.25zm0 0"/><path fill="#e9d227" d="m210.75 141.75.25.25zm0 0"/><path fill="#20a5a7" d="m127.25 142 .25.25zm0 0"/><path fill="#2e2c2b" d="m127.5 142 .25.25zm0 0"/><path fill="#e9d227" d="m134.75 142 .25.25zm34 0 .25.25zm15.5 0 .25.25zm0 0"/><path fill="#2e2c2b" d="M205 142v.5l1 .75h.25zm-77.25.25.25.25zm0 0"/><path fill="#e9d227" d="m169.25 142.25.25.25zm15.332.168.086.164zm0 0"/><path fill="#cd3a5f" d="M204.75 142.5v.25l1.25.25zm0 0"/><path fill="#20a5a7" d="m205.75 142.25.25.25zm0 0"/><path fill="#2e2c2b" d="m208.832 142.418.086.164zm0 0"/><path fill="#e9d227" d="m209 142.25.25.25zm0 0"/><path fill="#20a5a7" d="m211 142.25.25.25zm-82.75.25.25.25zm0 0"/><path fill="#e9d227" d="m135 142.5.25.25zm34.75 0 .25.25zm14.25 0 .25.25zm0 0"/><path fill="#2e2c2b" d="m201.832 142.668.086.164zm0 0"/><path fill="#e9d227" d="m205.25 142.5-.25.75h.25zm0 0"/><path fill="#20a5a7" d="m128.5 142.75.25.25zm0 0"/><path fill="#e9d227" d="m170.25 142.75.25.25zm14 0 .25.25zm.5 0-.25.5zm7.75 0 .25 1h.25zm0 0"/><path fill="#2e2c2b" d="M204.75 142.75c.117.762.656 2.082 1.5 1.25zm0 0"/><path fill="#fffeff" d="m205.418 142.832.164.086zm0 0"/><path fill="#20a5a7" d="m129 143 .25.25zm0 0"/><path fill="#e9d227" d="m185 143 .25.25zm6.5 0 .25.25zm0 0"/><path fill="#20a5a7" d="m205.25 143 .25.75h.25V143zm0 0"/><path fill="#e9d227" d="m205.832 143.168.086.164zm0 0"/><path fill="#2e2c2b" d="m209 143 .25 4h.25zm0 0"/><path fill="#e9d227" d="m211.5 143 .25.25zm0 0"/><path fill="#20a5a7" d="m132 143.25.25.25zm0 0"/><path fill="#e9d227" d="m135.5 143.25.25.25zm49.332.168.086.164zm.418-.168.25.25zm10 0 .25.25zm0 0"/><path fill="#cd3a5f" d="m205 143.25 1 1 .25-1H206v.75zm0 0"/><path fill="#fffeff" d="m205.25 143.25.25.25zm0 0"/><path fill="#20a5a7" d="m206.25 143.25.25.25zm3 0v1h.25zm0 0"/><path fill="#cd3a5f" d="m134.5 143.75 2.25 1.5-1-1.75zm0 0"/><path fill="#e9d227" d="m171.5 143.5.25.25zm0 0"/><path fill="#2e2c2b" d="m194.5 143.5.25.25zm7.582.168.086.164zm0 0"/><path fill="#e9d227" d="m205.25 143.5.25.25zm0 0"/><path fill="#fffeff" d="m205.75 143.5-.25.5zm0 0"/><path fill="#2e2c2b" d="m206.25 143.5.25.25zm0 0"/><path fill="#e9d227" d="m210.25 143.5.25.25zm-25.25.25.25.25zm.5 0 .75 1.25zm6.25 0 .25.25zm14 0 .25.25zm0 0"/><path fill="#20a5a7" d="m206.332 143.918.086.164zm0 0"/><path fill="#e9d227" d="m212 143.75.25.25zm0 0"/><path fill="#20a5a7" d="m133.25 144 .25.25zm0 0"/><path fill="#e9d227" d="m136 144 .25.25zm36.5 0 .25.25zm12.75 0 .25.25zm0 0"/><path fill="#2e2c2b" d="m194.25 144-.5.25v.25zm0 0"/><path fill="#20a5a7" d="m205 144 .25.25zm0 0"/><path fill="#e9d227" d="m173 144.25.25.25zm13 0 .25.25zm8.25 0 .25.25zm0 0"/><path fill="#20a5a7" d="m194.75 144.25.25.25zm0 0"/><path fill="#2e2c2b" d="m202.332 144.418.086.164zm0 0"/><path fill="#20a5a7" d="m205.25 144.25.25.25zm3.75 0v1.25h.25zm0 0"/><path fill="#e9d227" d="m209.582 144.418.086.164zm0 0"/><path fill="#20a5a7" d="m212.25 144.25.25.25zm0 0"/><path fill="#e9d227" d="m173.5 144.5.25.25zm0 0"/><path fill="#cd3a5f" d="M181.25 145v.25l3.5 2v-2.75zm0 0"/><path fill="#e9d227" d="m186.25 144.5.25.25zm0 0"/><path fill="#20a5a7" d="m192.25 144.5.25.25zm0 0"/><path fill="#e9d227" d="m194.5 144.5.25.25zm-58 .25.25.25zm50 0 .25.25zm0 0"/><path fill="#20a5a7" d="m194.25 144.75.25.25zm0 0"/><path fill="#2e2c2b" d="M202.5 144.75v.75h.25zm0 0"/><path fill="#fffeff" d="M207.574 145.086c-1.117.39-.25 2.867.852 2.684 1.164-.192.37-3.11-.852-2.684zm0 0"/><path fill="#20a5a7" d="M209.5 144.75v1.75h.25zm-16.082.332.164.086zm0 0"/><path fill="#e9d227" d="m212.75 145 .25.25zm0 0"/><path fill="#cd3a5f" d="m135.5 145.25.25.25zm1.25 0 .25.25zm0 0"/><path fill="#20a5a7" d="m179.75 145.25-1 2.25 4 1.5 3 2-1-3-.75.25v-.75l-1 .5c-.25-1.477-1.922-2.309-3.25-2.75zm0 0"/><path fill="#e9d227" d="m186.25 145.25.25.25zm.5 0 1.5 1.5zm-49.75.25.25.25zm38.25 0 .25.25zm11.25 0 .25.25zm0 0"/><path fill="#2e2c2b" d="m202.832 145.668.086.164zm0 0"/><path fill="#e9d227" d="m175.75 145.75.25.25zm10 0V149l2.75-.25zm1 0 .25.25zm-10.5.25.25.25zm10.75 0 .25.25zm0 0"/><path fill="#2e2c2b" d="m203 146 .25.25zm0 0"/><path fill="#e9d227" d="m176.75 146.25.25.25zm0 0"/><path fill="#cd3a5f" d="m186.25 146.25.25.25zm0 0"/><path fill="#e9d227" d="m187.25 146.25.25.25zm0 0"/><path fill="#2e2c2b" d="m203.332 146.418.086.164zm0 0"/><path fill="#20a5a7" d="m213.5 146.25.25.25zm0 0"/><path fill="#cd3a5f" d="m186.5 146.5.25.25zm0 0"/><path fill="#e9d227" d="m187.5 146.5.25.25zm0 0"/><path fill="#20a5a7" d="m209 146.5.5 1zm0 0"/><path fill="#e9d227" d="m209.5 146.5.25.25zm1.25 0 .25.25zm0 0"/><path fill="#cd3a5f" d="m186.75 146.75.25.25zm0 0"/><path fill="#e9d227" d="m187.75 146.75.25.25zm.668.082.164.086zm0 0"/><path fill="#2e2c2b" d="m203.5 146.75 2.5 2.5V149zm0 0"/><path fill="#20a5a7" d="M210.75 146.75v1.5h.25zm0 0"/><path fill="#2e2c2b" d="m178.75 147 .25.25zm0 0"/><path fill="#cd3a5f" d="m187 147 .25.25zm0 0"/><path fill="#e9d227" d="m188 147 .25.25zm.75 0 .25.25zm0 0"/><path fill="#20a5a7" d="m203.75 147 .25.25zm0 0"/><path fill="#e9d227" d="m214 147 .25.25zm-35.5.25.25.25zm0 0"/><path fill="#fffeff" d="m183 147.25.75.5v-.25zm0 0"/><path fill="#20a5a7" d="m183.25 147.25.25.25zm0 0"/><path fill="#cd3a5f" d="m187.25 147.25.25.25zm0 0"/><path fill="#e9d227" d="m188.25 147.25.25.25zm.75 0 .25.25zm14.5 0 .25.25zm0 0"/><path fill="#20a5a7" d="m204 147.25.25.25zm0 0"/><path fill="#e9d227" d="m183.082 147.668.086.164zm0 0"/><path fill="#cd3a5f" d="m187.5 147.5.25.25zm0 0"/><path fill="#e9d227" d="m188.5 147.5.75.5zm.75 0 .25.25zm11.25 0 .25.25zm0 0"/><path fill="#20a5a7" d="m203.75 147.5.25.25zm.5 0 .25.25zm0 0"/><path fill="#2e2c2b" d="m209 147.5-1 1.75zm0 0"/><path fill="#e9d227" d="m209.25 147.5.25.25zm0 0"/><path fill="#20a5a7" d="m214.25 147.5.25.25zm0 0"/><path fill="#fffeff" d="m183.75 147.75.25.25zm0 0"/><path fill="#cd3a5f" d="M185.5 147.75V149h.25zm0 0"/><path fill="#e9d227" d="m189.668 147.832.164.086zm0 0"/><path fill="#20a5a7" d="m204 147.75.25.25zm4.75 0 .25.25zm0 0"/><path fill="#fffeff" d="m184.168 148.082.164.086zm0 0"/><path fill="#e9d227" d="m189.25 148 .75.75zm.75 0 .25.25zm0 0"/><path fill="#20a5a7" d="m204.25 148 .25.25zm4.75 0 .25.25zm0 0"/><path fill="#e9d227" d="m182.832 148.418.086.164zm0 0"/><path fill="#fffeff" d="M184.5 148.25v1h.25zm0 0"/><path fill="#e9d227" d="m190.25 148.25.5.5zm0 0"/><path fill="#20a5a7" d="m204.5 148.25.25.25zm4 0 .25.25zm0 0"/><path fill="#e9d227" d="m214.75 148.25.25.25zm0 0"/><path fill="#cd3a5f" d="m188.5 148.5.25.25zm0 0"/><path fill="#20a5a7" d="m204.75 148.5.25.25zm.5 0 .25.25zm3 0 .25.25zm0 0"/><path fill="#e9d227" d="m208.75 148.5.25.25zm-27.5.25.25.25zm0 0"/><path fill="#cd3a5f" d="m186.918 148.832.164.086zm0 0"/><path fill="#e9d227" d="m190 148.75.25.25zm.918.082.164.086zM205 148.75l.25.25zm0 0"/><path fill="#20a5a7" d="m208 148.75.25.25zm.5 0 .25.25zm0 0"/><path fill="#e9d227" d="m182.582 149.168.086.164zm7.836-.086.164.086zm.832-.082.25.25zm0 0"/><path fill="#20a5a7" d="m205.5 149 .25.25zm.5 0c.559.637 1.441.637 2 0zm0 0"/><path fill="#e9d227" d="m208.25 149 .25.25zm7 0 .25.25zm-24.5.25.5.5zm.75 0 .25.25zm0 0"/><path fill="#20a5a7" d="m210.582 149.418.086.164zm0 0"/><path fill="#cd3a5f" d="M189 149.5v.25l1 .25v-.25zm0 0"/><path fill="#e9d227" d="m192 149.5.25.25zm0 0"/><path fill="#20a5a7" d="m215.5 149.5.25.25zm-29.75.25.25.25zm0 0"/><path fill="#cd3a5f" d="M186 149.75v.25h.75zm0 0"/><path fill="#e9d227" d="M188.25 152.5c1.543-4.121-4.195-2.18-1.25-.57.402.222.824.394 1.25.57zm0 0"/><path fill="#cd3a5f" d="m187.75 149.75.25.25zm0 0"/><path fill="#e9d227" d="m191.25 149.75.25.25zm1 0 .25.25zm0 0"/><path fill="#fffeff" d="M185.25 150v.25h.75zm0 0"/><path fill="#e9d227" d="m191.668 150.082.164.086zm1 0 .164.086zm-8.418.168.25.25zm0 0"/><path fill="#20a5a7" d="m188.75 150.25.25.25zm0 0"/><path fill="#e9d227" d="m192 150.25.5.5zm1 0 .25.25zm0 0"/><path fill="#20a5a7" d="m210.25 150.25.25.25zm0 0"/><path fill="#e9d227" d="m216 150.25.25.25zm0 0"/><path fill="#cd3a5f" d="M190.75 150.5v2l2.25-.25zm0 0"/><path fill="#e9d227" d="m193.25 150.5.25.25zm0 0"/><path fill="#20a5a7" d="m202.5 150.5.25.25zm0 0"/><path fill="#e9d227" d="m189.5 150.75.25.25zm3 0 .25.25zm1.25 0 .25.25zm0 0"/><path fill="#20a5a7" d="m202.75 150.75.25.25zm0 0"/><path fill="#cd3a5f" d="m188.25 151 .25.25zm0 0"/><path fill="#e9d227" d="m189.75 151 .25.25zm3.25 0 .5.5zm1 0 .25.25zm0 0"/><path fill="#20a5a7" d="m203 151 .25.25zm7 0 .25.25zm-20.25.25v1h.25zm0 0"/><path fill="#e9d227" d="m194.5 151.25.25.25zm0 0"/><path fill="#20a5a7" d="m203.25 151.25.25.25zm0 0"/><path fill="#e9d227" d="m193.5 151.5.25.25zm1.25 0 .25.25zm0 0"/><path fill="#20a5a7" d="m203.5 151.5.25.25zm13.25 0 .25.25zm0 0"/><path fill="#e9d227" d="m194 151.75.5.5zm1.25 0 .25.25zm0 0"/><path fill="#20a5a7" d="m209.5 151.75.25.25zm0 0"/><path fill="#cd3a5f" d="m188 152 .25.25zm0 0"/><path fill="#e9d227" d="m195.5 152 .25.25zm0 0"/><path fill="#20a5a7" d="m204.25 152 .25.25zm5 0 .25.25zm0 0"/><path fill="#e9d227" d="m194.5 152.25.25.25zm1.5 0 .25.25zm0 0"/><path fill="#20a5a7" d="m204.5 152.25.25.25zm4.5 0 .25.25zm0 0"/><path fill="#e9d227" d="m217.25 152.25.25.25zm-22.25.25.25.25zm1.25 0 .25.25zm0 0"/><path fill="#20a5a7" d="m205 152.5.25.25zm3.75 0 .25.25zm0 0"/><path fill="#e9d227" d="m195.25 152.75.25.25zm1.5 0 .25.25zm0 0"/><path fill="#20a5a7" d="m205.5 152.75.25.25zm2.75 0 .25.25zm9.25 0 .25.25zm0 0"/><path fill="#cd3a5f" d="m191.5 153.25.25 1.25 2.25.5.25-2zm0 0"/><path fill="#e9d227" d="m195.668 153.082.164.086zm1.5 0 .164.086zM206.5 153v.25h1.25zm0 0"/><path fill="#20a5a7" d="m189.918 153.332.164.086zm0 0"/><path fill="#e9d227" d="M190.25 153.25v.25h.75zm1 0v1h.25zm4.75 0 .25.25zm1.5 0 .25.25zm0 0"/><path fill="#2e2c2b" d="M191.5 153.5v.75h.25zm0 0"/><path fill="#e9d227" d="m196.25 153.5.25.25zm1.668.082.164.086zm0 0"/><path fill="#20a5a7" d="m218 153.5.25.25zm0 0"/><path fill="#e9d227" d="m195.082 153.918.086.164zm0 0"/><path fill="#fffeff" d="m195.25 153.75-.25.75h1.25v-.25zm0 0"/><path fill="#e9d227" d="m196.75 153.75.25.25zm1.5 0 .25.25zm0 0"/><path fill="#20a5a7" d="m195.75 154 .25.25zm0 0"/><path fill="#e9d227" d="m197 154 .25.25zm1.75 0 .25.25zm0 0"/><path fill="#20a5a7" d="m191.5 154.25.25.25zm0 0"/><path fill="#e9d227" d="m197.418 154.332.164.086zm1.75 0 .164.086zm19.332-.082.25.25zm-23.332.332.164.086zm0 0"/><path fill="#20a5a7" d="M195.5 154.5v.25h.75zm0 0"/><path fill="#e9d227" d="m197.75 154.5.25.25zm1.75 0 .25.25zm-7.25.25.25.25zm5.918.082.164.086zm1.832-.082.25.25zm0 0"/><path fill="#20a5a7" d="m218.75 154.75.25.25zm0 0"/><path fill="#e9d227" d="m192.75 155 .25.25zm5.75 0 .25.25zm1.918.082.164.086zm-7.168.168.25.25zm5.668.082.164.086zm2 0 .164.086zm0 0"/><path fill="#20a5a7" d="m193.75 155.5.25.25zm0 0"/><path fill="#cd3a5f" d="M196.5 155.5v.25l1.75.25zm0 0"/><path fill="#e9d227" d="m199.25 155.5.25.25zm2 0 .25.25zm18 0 .25.25zm0 0"/><path fill="#cd3a5f" d="m194.25 155.75.25.25zm0 0"/><path fill="#e9d227" d="m199.5 155.75.25.25zm2.25 0 .25.25zm0 0"/><path fill="#cd3a5f" d="M194.75 156v.25l4 2c-.605-1.879-2.258-1.914-4-2.25zm0 0"/><path fill="#e9d227" d="m200 156 .25.25zm2.168.082.164.086zm-7.168.168.25.25zm5.25 0 .25.25zm2.418.082.164.086zm-7.168.168.25.25zm0 0"/><path fill="#20a5a7" d="m199 156.5.25.25zm0 0"/><path fill="#fffeff" d="m199.25 156.5 1 .75V157zm0 0"/><path fill="#e9d227" d="m200.75 156.5.25.25zm2.25 0 .25.25zm-7 .25.25.25zm0 0"/><path fill="#20a5a7" d="m199.75 156.75.25.25zm0 0"/><path fill="#e9d227" d="m201 156.75.25.25zm2.5 0 .25.25zm16.5 0 .25.25zm-18.5.25.25.25zm2.5 0 .25.25zm0 0"/><path fill="#20a5a7" d="m200.168 157.332.164.086zm0 0"/><path fill="#e9d227" d="m201.918 157.332.164.086zm2.582-.082.25.25zm-2.25.25.25.25zm2.75 0 .25.25zm15.5 0 .25.25zm-17.832.332.164.086zm2.75 0 .164.086zm-7.168.168.25.25zm4.75 0 .25.25zm2.918.082.164.086zm0 0"/><path fill="#20a5a7" d="m220.75 158 .25.25zm0 0"/><path fill="#e9d227" d="m198.75 158.25.25.25zm0 0"/><path fill="#cd3a5f" d="M199 158.25v.25l3.25 1.75c.414-2.355-1.43-2-3.25-2zm0 0"/><path fill="#e9d227" d="m203.418 158.332.164.086zm3 0 .164.086zm-7.168.168.25.25zm4.5 0 .25.25zm3.168.082.164.086zm-2.668.168.25.25zm3.168.082.164.086zm13.832-.082.25.25zm-16.582.332.164.086zm3.25 0 .164.086zm-7.418.168.25.25zm4.5 0 .25.25zm3.418.082.164.086zM201 159.5l.25.25zm4.418.082.164.086zm3.5 0 .164.086zm12.832-.082.25.25zm-20.25.25.25.25zm4.25 0 .25.25zm3.668.082.164.086zm-3.168.168.25.25zm3.668.082.164.086zm0 0"/><path fill="#20a5a7" d="m222 160 .25.25zm0 0"/><path fill="#cd3a5f" d="M202.5 160.25v.25c1.508.633 5.406 3.93 6.5 2l-3.25-.5c.344-2.063-1.773-1.75-3.25-1.75zm0 0"/><path fill="#e9d227" d="m206.668 160.332.164.086zm3.75 0 .164.086zM207 160.5l.25.25zm3.918.082.164.086zm-7.668.168.25.25zm4.168.082.164.086zm4.082-.082.25.25zm11 0 .25.25zm-18.75.25.25.25zm4.168.082.164.086zM212 161l.25.25zm-7.75.25.25.25zm4 0 .25.25zm4.25 0 .25.25zm-3.832.332.164.086zm4.5 0 .164.086zm-4 .25.164.086zm4.5 0 .164.086zM205.5 162l.25.25zm4 0 .25.25zm4.668.082.164.086zm0 0"/><path fill="#20a5a7" d="m223.25 162 .25.25zm0 0"/><path fill="#e9d227" d="m206 162.25.25.25zm4 0 .25.25zm4.75 0 .25.25zm-8.25.25.25.25zm3.918.082.164.086zm5 0 .164.086zm-4.668.168.25.25zm5.168.082.164.086zm7.832-.082.25.25zm-12.5.25.25.25zm5.25 0 .25.25zm-4.832.332.164.086zm5.5 0 .164.086zm0 0"/><path fill="#20a5a7" d="m224 163.25.25.25zm0 0"/><path fill="#e9d227" d="m212.168 163.582.164.086zm5.5 0 .164.086zm0 0"/><path fill="#cd3a5f" d="M209 163.75v.25l23.25 12.75c-1.527-4.172-4.773-4.734-8.5-6.355-2.629-1.145-5.215-2.504-7.75-3.84-2.32-1.223-4.297-2.797-7-2.805zm0 0"/><path fill="#e9d227" d="m212.5 163.75.25.25zm5.918.082.164.086zm-9.168.168.25.25zm3.75 0 .25.25zm5.918.082.164.086zM224.5 164l.25.25zm-11.082.332.164.086zm6.25 0 .164.086zm-5.75.25.164.086zm6.25 0 .164.086zm-5.918.168.25.25zm6.668.082.164.086zm4.082-.082.25.25zm-10.25.25.25.25zm6.918.082.164.086zm-10.168.168.25.25zm3.75 0 .25.25zm6.918.082.164.086zm0 0"/><path fill="#20a5a7" d="m225.25 165.25.25.25zm0 0"/><path fill="#e9d227" d="m215.75 165.5.25.25zm7.168.082.164.086zm-10.418.168.25.25zm3.668.082.164.086zm7.5 0 .164.086zm-7 .25.164.086zm7.75 0 .164.086zm1.332-.082.25.25zm-8.582.332.164.086zm8 0 .164.086zm-11.418.168.25.25zm3.75 0 .25.25zm8.5 0 .25.25zm-11.75.25.25.25zm3.75 0 .25.25zm.5.25.25.25zm7.75 0 .25.25zm-7.25.25.25.25zm.5.25.25.25zm.5.25.25.25zm6.75 0 .25.25zm-10.25.25.25.25zm4 0 .25.25zm.5.25.25.25zm.668.332.164.086zm5.582-.082.25.25zm-5.082.332.164.086zm.5.25.164.086zM227.5 169l.25.25zm-8.75.25.25.25zm4.418.082.164.086zm-3.918.168.25.25zm4.418.082.164.086zm.582.168.25.25zm3.75 0 .25.25zm-3.082.332.164.086zm.5.25.164.086zM221 170.5l.25.25zm5 0 .25.25zm-4.5.25.25.25zm5.168.082.164.086zM222 171l.25.25zm5.418.082.164.086zm1.332-.082.25.25zm-.832.332.164.086zm.582.168.25.25zm-5.25.25.25.25zm.5.25.25.25zm.5.25.25.25zm.5.25.25.25zm0 0"/><path fill="#20a5a7" d="m229.75 172.5.25.25zm0 0"/><path fill="#e9d227" d="m226 173.25.25.25zm4.25 0 .25.25zm-3.75.25.25.25zm.5.25.25.25zm4 .75.25.25zm-2.25.25.25.25zm2.75.5.25.25zm-1 .5.25.25zm1.25 0 .25.25zm-.75.25.25.25zm.5.25.25.25zm.75.25.25.25zm0 0"/></svg>