<svg xmlns="http://www.w3.org/2000/svg" width="250" height="250"><path fill="#070a0e" d="M125 250c69.035 0 125-55.965 125-125S194.035 0 125 0 0 55.965 0 125s55.965 125 125 125zm0 0"/><path fill="#070a0e" d="M125 240.684c63.89 0 115.684-51.793 115.684-115.684S188.89 9.316 125 9.316 9.316 61.11 9.316 125 61.11 240.684 125 240.684zm0 0"/><path fill="#00d395" fill-rule="evenodd" d="M72.262 166.945a12.605 12.605 0 0 1-6.024-10.734v-24.422a5.244 5.244 0 0 1 7.895-4.523l55.113 32.132a10.494 10.494 0 0 1 5.207 9.063v25.305a6.337 6.337 0 0 1-.914 3.289 6.299 6.299 0 0 1-8.664 2.086zm82.156-46.37a10.494 10.494 0 0 1 5.207 9.062v51.343c0 1.52-.816 2.922-2.133 3.657l-12.07 6.793a2.523 2.523 0 0 1-.484.199V163.12c0-3.691-1.938-7.113-5.11-9.012l-48.402-28.96V92.964c0-.934.25-1.836.715-2.637a5.24 5.24 0 0 1 7.18-1.887zm24.121-37.923c3.238 1.868 5.223 5.34 5.223 9.078v74.997a4.21 4.21 0 0 1-2.203 3.687l-11.434 6.176v-52.211a10.51 10.51 0 0 0-5.09-8.996l-49.472-29.676V55.176c0-.934.25-1.836.699-2.637a5.255 5.255 0 0 1 7.175-1.902zm0 0"/></svg>