<svg xmlns="http://www.w3.org/2000/svg" width="250" height="250"><linearGradient id="a" x1="190.723" x2="59.233" y1="76.262" y2="76.262" gradientUnits="userSpaceOnUse"><stop offset="0" stop-color="#f9f9f9"/><stop offset=".735" stop-color="#f9f9f9" stop-opacity=".7"/><stop offset="1" stop-color="#e8ebf8" stop-opacity="0"/></linearGradient><linearGradient id="b" x1="184.688" x2="75.99" y1="157.682" y2="148.172" gradientUnits="userSpaceOnUse"><stop offset="0" stop-color="#f9f9f9"/><stop offset=".75" stop-color="#f9f9f9" stop-opacity=".8"/><stop offset="1" stop-color="#e8ebf8" stop-opacity="0"/></linearGradient><linearGradient id="c" x1="58.084" x2="188.897" y1="146.965" y2="128.585" gradientUnits="userSpaceOnUse"><stop offset="0" stop-color="#f9f9f9"/><stop offset=".75" stop-color="#f9f9f9" stop-opacity=".8"/><stop offset="1" stop-color="#e8ebf8"/></linearGradient><path fill="#325ce8" d="M234.895 78.125v89.063c0 11.98-6.25 22.394-16.145 28.644L125 249.48l-93.75-54.167c-10.418-5.731-16.145-16.668-16.145-28.645V78.125c0-11.98 6.25-22.395 16.145-28.645l77.082-44.792C113.543 2.082 118.75.52 124.48.52c5.727 0 11.457 1.562 16.145 4.168L218.23 49.48c10.415 5.727 16.665 16.665 16.665 28.645zm0 0"/><path fill="url(#a)" d="M190.625 94.27c0 1.562 0 2.605-.52 4.168l-11.98-6.77-15.625-8.856c-2.082-1.042-28.125-15.624-29.688-16.144-6.25-2.086-13.542-1.563-19.269 1.562-6.25 3.645-44.273 23.957-49.48 27.602-1.563 1.043-3.126 2.606-4.688 4.688 0-3.645 0-7.813 1.563-11.457s4.167-6.77 7.812-8.333l47.918-26.562c5.207-3.125 11.977-3.125 17.187 0l48.958 27.082c4.167 2.605 7.812 7.813 7.812 13.02zm0 0"/><path fill="url(#b)" d="M185.938 141.668c-6.77 3.644-19.793 10.937-26.563 14.582l-26.043 14.582c-5.207 3.125-11.977 3.125-17.187 0L79.168 150.52c-1.563-1.04-2.606-2.602-2.606-4.165v-10.417l36.458 20.312c6.773 4.168 16.148 4.168 22.918 0l32.812-18.23c5.73-3.125 13.543-1.563 17.188 3.648zm0 0"/><path fill="url(#c)" d="M190.625 155.73c0 4.688-2.082 8.333-5.73 11.458-1.563 1.562-8.852 5.207-10.938 6.25l-16.664 9.375-24.48 13.542c-5.208 3.125-11.981 3.125-17.188 0L75 173.957l-7.293-4.164c-5.727-3.125-9.375-8.856-9.375-15.625v-32.293c.523-6.25 3.648-12.5 9.375-15.625 3.648-2.082 43.23-23.957 47.918-26.563 4.168-2.605 9.375-3.124 14.063-1.562.519-.52 27.605 15.105 29.167 15.625 6.25 3.645 20.313 10.938 26.563 14.582-3.648 5.73-12.5 6.25-18.23 2.606l-31.77-17.708c-7.293-4.168-16.148-4.168-22.918 0l-36.98 20.313c-3.645 2.082-5.727 5.727-5.727 9.375v28.125c0 4.164 2.082 7.812 5.727 9.375l36.98 20.312c6.77 4.165 16.145 4.165 22.918 0l26.039-14.585c4.688-2.602 18.23-10.415 22.918-12.5 1.043-.52 3.645-2.083 4.688-2.602 1.562 2.082 1.562 3.125 1.562 4.687zm0 0"/></svg>