<svg xmlns="http://www.w3.org/2000/svg" width="250" height="250"><path fill="#fff" d="M0 0h250v250H0z"/><path fill="#44aaf4" d="m125.188 48.594 47.312 27.37v55.313l-47.313 27.844-47.687-27.09V75.207zm0 0"/><path fill="#fff" d="m100 89.008 24.137-14.02 24.406 14.02-13.629 9.597-10.64-7.707L100 104zm0 0"/><path fill="#fff" d="m100 108.36 12.5-6.727v8.426l11.07 6.254 11.051-6.254 13.785 9.093-24.203 14.301-24.203-14.3zm0 0"/><g fill="#44aaf4"><path d="M31.035 201.742c-2.226 0-4.285-.418-6.176-1.254-1.89-.832-3.53-1.976-4.922-3.425s-2.476-3.176-3.253-5.165c-.778-1.992-1.164-4.144-1.164-6.457 0-2.347.386-4.484 1.164-6.418.777-1.933 1.863-3.582 3.253-4.945 1.391-1.36 3.032-2.418 4.922-3.164 1.891-.746 3.95-1.121 6.176-1.121h17.317v5.578H31.035c-1.437 0-2.762.262-3.976.77a9.457 9.457 0 0 0-3.145 2.132c-.879.91-1.566 1.997-2.062 3.258-.5 1.258-.75 2.653-.75 4.172 0 1.496.25 2.887.75 4.176.496 1.293 1.187 2.394 2.062 3.316.883.926 1.93 1.649 3.145 2.176s2.539.79 3.976.79h17.317v5.581zM62.5 192.863v-5.402h12.832c1.965 0 3.492-.559 4.594-1.672 1.097-1.113 1.648-2.578 1.648-4.394 0-1.844-.55-3.31-1.648-4.399-1.098-1.082-2.63-1.625-4.594-1.625H58.414v26.371h-5.539v-31.949h22.453c1.848 0 3.496.27 4.945.812 1.454.543 2.676 1.305 3.668 2.286.996.984 1.762 2.175 2.286 3.586.527 1.402.789 2.984.789 4.742 0 1.73-.262 3.3-.79 4.722-.523 1.422-1.288 2.649-2.285 3.672-.992 1.028-2.214 1.825-3.668 2.395-1.449.57-3.097.86-4.945.86H62.5zM105.566 201.742c-2.226 0-4.285-.418-6.175-1.254-1.887-.832-3.532-1.976-4.922-3.425s-2.473-3.176-3.25-5.165c-.778-1.992-1.168-4.144-1.168-6.457 0-2.347.39-4.484 1.168-6.418.777-1.933 1.86-3.582 3.25-4.945 1.39-1.36 3.035-2.418 4.922-3.164 1.89-.746 3.949-1.121 6.175-1.121h7.778c2.316 0 4.43.379 6.351 1.14 1.918.766 3.567 1.833 4.946 3.208 1.375 1.382 2.445 3.03 3.207 4.949.761 1.918 1.14 4.035 1.14 6.351 0 2.313-.386 4.465-1.16 6.457-.781 1.993-1.863 3.715-3.254 5.165s-3.039 2.593-4.945 3.425c-1.902.836-3.996 1.254-6.285 1.254zm7.778-5.582c1.465 0 2.812-.262 4.043-.789s2.293-1.25 3.187-2.176c.895-.922 1.59-2.027 2.086-3.316.496-1.285.746-2.68.746-4.176 0-1.492-.25-2.875-.746-4.152-.496-1.274-1.191-2.367-2.086-3.278a9.741 9.741 0 0 0-3.187-2.132c-1.23-.508-2.578-.77-4.043-.77h-7.778c-1.433 0-2.757.262-3.976.77a9.48 9.48 0 0 0-3.14 2.132c-.884.91-1.571 1.997-2.067 3.258-.496 1.258-.746 2.653-.746 4.172 0 1.496.25 2.887.746 4.176.496 1.293 1.187 2.394 2.066 3.316.88.926 1.926 1.649 3.14 2.176s2.544.79 3.977.79zM133.516 201.742v-31.949h5.578v26.367h21.492v5.582zM164.586 201.742v-31.949h5.578v26.367h21.492v5.582zM210.246 201.742c-2.23 0-4.285-.418-6.172-1.254a15.296 15.296 0 0 1-4.926-3.425c-1.394-1.45-2.476-3.176-3.25-5.165-.785-1.992-1.168-4.144-1.168-6.457 0-2.347.383-4.484 1.168-6.418.774-1.933 1.856-3.582 3.25-4.945a14.677 14.677 0 0 1 4.926-3.164c1.887-.746 3.942-1.121 6.172-1.121h7.777c2.317 0 4.43.379 6.348 1.14 1.926.766 3.57 1.833 4.95 3.208 1.378 1.382 2.445 3.03 3.206 4.949.762 1.918 1.145 4.035 1.145 6.351 0 2.313-.39 4.465-1.168 6.457-.777 1.993-1.86 3.715-3.254 5.165a15.21 15.21 0 0 1-4.945 3.425c-1.903.836-3.996 1.254-6.282 1.254zm7.777-5.582c1.465 0 2.813-.262 4.043-.789a9.615 9.615 0 0 0 3.184-2.176c.89-.922 1.59-2.027 2.09-3.316.496-1.29.746-2.68.746-4.176 0-1.492-.25-2.875-.746-4.152-.5-1.274-1.2-2.367-2.09-3.278a9.683 9.683 0 0 0-3.184-2.132c-1.23-.508-2.578-.77-4.043-.77h-7.777c-1.434 0-2.758.262-3.98.77a9.48 9.48 0 0 0-3.141 2.132c-.879.91-1.566 1.997-2.066 3.258-.496 1.258-.746 2.653-.746 4.172 0 1.496.25 2.887.746 4.176.5 1.293 1.187 2.394 2.066 3.316a9.475 9.475 0 0 0 3.14 2.176c1.22.527 2.548.79 3.981.79zm0 0"/></g></svg>