<svg xmlns="http://www.w3.org/2000/svg" width="250" height="250"><linearGradient id="a" x1="240.32" x2="1117.61" y1="1108.41" y2="231.12" gradientTransform="matrix(.2467 0 0 .18876 -31.766 -1.818)" gradientUnits="userSpaceOnUse"><stop offset=".05" stop-color="#00c1b4"/><stop offset=".35" stop-color="#1870eb"/><stop offset=".49" stop-color="#4e4fd5"/><stop offset=".69" stop-color="#9821b6"/><stop offset=".74" stop-color="#a420aa"/><stop offset=".83" stop-color="#c61f8b"/><stop offset=".95" stop-color="#fb1c58"/><stop offset=".96" stop-color="#ff1c54"/></linearGradient><path fill="url(#a)" d="M142.98 250c-1.988 0-3.937-.398-5.652-1.164L5.61 190.238c-3.449-1.547-5.574-4.375-5.582-7.433V66.758c.004-3.067 2.141-5.899 5.61-7.434L137.168 1.152c3.465-1.527 7.727-1.535 11.203-.023l98.176 42.922c3.262 1.422 4.39 4.601 2.531 7.094-1.863 2.492-6.016 3.359-9.273 1.933l-97.008-42.41L13.629 67.801v113.972l129.363 57.551 93.403-41.476v-17.832l-87.825 38.203c-3.496 1.515-7.785 1.492-11.25-.059l-96.957-43.566c-3.437-1.547-5.55-4.371-5.554-7.422V81.8c.004-3.074 2.156-5.918 5.64-7.45l97.328-42.703c3.465-1.515 7.723-1.515 11.192 0l83.488 36.696c3.473 1.527 5.625 4.355 5.64 7.422.016 3.07-2.1 5.91-5.558 7.46l-25.363 11.372c-3.465 1.55-7.746 1.57-11.238.058L143.41 71.848 83.56 98.46v52.664l59.488 26.879 45.918-19.879-21.711-9.508-18.816 7.778c-3.485 1.43-7.688 1.363-11.09-.172l-27.051-12.301c-3.434-1.55-5.543-4.367-5.55-7.418v-23.86c0-3.12 2.21-5.996 5.776-7.507l27.77-11.79c3.414-1.437 7.559-1.429 10.969.024l19.836 8.54c3.203 1.429 4.312 4.562 2.496 7.034-1.82 2.477-5.895 3.375-9.156 2.024l-18.7-8.047-25.41 10.785v21.773l24.82 11.282 18.782-7.766c3.418-1.426 7.562-1.387 10.933.102l26.418 11.566c3.512 1.535 5.672 4.399 5.66 7.492-.007 3.094-2.187 5.946-5.707 7.469l-50.675 21.938c-3.5 1.507-7.79 1.48-11.25-.083L75.492 159.56c-3.414-1.555-5.512-4.368-5.52-7.407V97.414c.008-3.055 2.13-5.879 5.579-7.422l62.195-27.652c3.461-1.531 7.719-1.547 11.2-.043l52.523 22.808 20.703-9.285-78.805-34.64-94.984 41.664v83.3l94.64 42.524 90.13-39.211c3.484-1.516 7.757-1.504 11.218.04 3.465 1.538 5.598 4.37 5.602 7.437v21.941c-.008 3.066-2.141 5.902-5.606 7.445l-95.746 42.532c-1.715.757-3.66 1.152-5.64 1.148zm0 0"/></svg>