<svg xmlns="http://www.w3.org/2000/svg" width="250" height="250"><path fill="#69e2dc" d="M122.55 0C54.88 0 0 55.973 0 125c0 69.047 54.879 125 122.55 125 67.7 0 122.56-55.973 122.56-125 .023-69.023-54.86-125-122.56-125zm9.868 130.895 42.98 43.832c3.508 3.582 3.075 9.43-.832 12.543-13.191 10.57-29.851 16.886-47.921 16.886-45.825 0-82.36-40.488-77.13-88.304 4.012-36.61 33.258-66.02 69.192-69.645 21.273-2.137 41.027 4.473 56.168 16.738 3.762 3.051 3.926 8.836.52 12.29l-42.997 43.855c-3.18 3.285-3.18 8.558.02 11.8zm0 0"/></svg>