<svg xmlns="http://www.w3.org/2000/svg" xmlns:xlink="http://www.w3.org/1999/xlink" width="250" height="250"><linearGradient id="a"><stop offset="0" stop-color="#25376c"/><stop offset="1" stop-color="#1f1f49"/></linearGradient><linearGradient xlink:href="#a" id="b" x1="795.892" x2="795.892" y1="1699.948" y2="1608.748" gradientTransform="matrix(3.16462 0 0 -2.74107 -2393.694 4659.684)" gradientUnits="userSpaceOnUse"/><linearGradient xlink:href="#a" id="c" x1="776.142" x2="776.142" y1="1608.748" y2="1699.948" gradientTransform="matrix(3.16462 0 0 -2.74107 -2393.694 4659.684)" gradientUnits="userSpaceOnUse"/><path fill="url(#b)" d="M125.004.008 0 62.5v125l125.004 62.492L250.012 187.5v-125zm0 0"/><path fill="url(#c)" d="M125.004.008 0 62.5v125l125.004 62.492zm0 0"/><g fill="#fff"><path d="M173.734 54.012H75.633l-11.395 43.3h121.524zM93.035 156.8v-28.778l-29.11-15.906-32.913 21.11 44.933 67.707h18.047l21.2-17.27v-8.504zm0 0"/><path d="M156.652 103.898H93.36l10.45 24.125-3.16 27.141h48.738l-3.16-27.14zm0 0"/><path d="m185.762 111.84-28.797 16.172v28.781l-21.832 18.36v8.5l21.195 16.992h17.727l44.62-67.43zm0 0"/></g></svg>