<svg xmlns="http://www.w3.org/2000/svg" width="250" height="250"><path fill="#191919" d="M195.57 54.43c38.977 38.972 38.977 102.168 0 141.14-38.976 38.977-102.168 38.977-141.144 0-38.977-38.972-38.977-102.168 0-141.14 38.976-38.977 102.168-38.977 141.144 0zm0 0"/><path fill="#f08727" d="m85.547 96.29 42.969-24.806a5.38 5.38 0 0 1 4.882 0l27.149 15.625c2.734 1.563 3.125 5.274.976 7.618l-9.18 9.18c-1.562 1.562-3.905 1.757-5.859.78l-13.086-7.617a5.38 5.38 0 0 0-4.882 0l-45.313 26.563v-23.047c0-1.758.781-3.32 2.344-4.297zm0 0"/><path fill="#fff" d="m160.547 162.89-27.149 15.626a5.38 5.38 0 0 1-4.882 0l-42.97-24.805c-1.562-.781-2.343-2.344-2.343-4.102v-21.093l22.07-12.891v21.094c0 1.758.977 3.32 2.344 4.101l20.899 12.11a5.38 5.38 0 0 0 4.882 0l13.282-7.618c1.953-1.171 4.297-.78 5.86.782l9.179 9.18c1.953 2.148 1.562 6.054-1.172 7.617zm0 0"/></svg>