<svg xmlns="http://www.w3.org/2000/svg" width="250" height="250"><g fill="#030303"><path d="M234.578 52.387v142.152c0 1.39-.648 2.723-1.805 3.707-1.16.98-2.73 1.531-4.367 1.531h-33.054c-1.637 0-3.207-.55-4.364-1.53-1.156-.985-1.808-2.317-1.808-3.708V55.88c0-2.285 1.07-4.477 2.976-6.094 1.903-1.617 4.489-2.527 7.184-2.527h29.094c1.609.008 3.152.547 4.3 1.504s1.813 2.258 1.844 3.625zM104.488 103.707l-29.57-26.254C67.859 71.187 64.02 62.797 64.25 54.13c.23-8.668 4.508-16.906 11.895-22.899L95.44 15.578c7.387-5.992 17.274-9.25 27.489-9.055 10.215.196 19.922 3.829 26.98 10.094l26.727 23.727c7.797 6.922 12.035 16.183 11.781 25.758-.254 9.57-4.98 18.664-13.133 25.277l-16.398 13.305c-7.375 5.98-17.242 9.238-27.438 9.054-10.195-.183-19.89-3.793-26.96-10.031zM155.398 233l-59.77.824c-1.663.024-3.312-.23-4.858-.75s-2.957-1.289-4.153-2.273c-1.195-.98-2.148-2.153-2.808-3.446a9.347 9.347 0 0 1-1.043-4.097l-.059-3.07a9.333 9.333 0 0 1 .883-4.125c.613-1.313 1.523-2.508 2.68-3.524a12.91 12.91 0 0 1 4.058-2.383 14.598 14.598 0 0 1 4.828-.886l56.153-.774c4.316-.059 8.484 1.34 11.586 3.887 3.101 2.55 4.886 6.039 4.957 9.703.054 2.848-1.23 5.598-3.563 7.644-2.336 2.051-5.535 3.227-8.89 3.27zM58.89 52.96v146.356c0 .516-.238 1.008-.667 1.375-.43.364-1.016.57-1.621.57H18.078c-.61 0-1.191-.206-1.621-.57-.43-.367-.672-.859-.672-1.375V56.367c0-1.422.664-2.781 1.844-3.785 1.183-1 2.789-1.566 4.46-1.566h34.485c.61 0 1.192.207 1.621.57.43.367.672.86.672 1.375zm0 0"/><path d="m197.055 36.941 7.039 172.778c.02.515-.2 1.015-.614 1.394a2.499 2.499 0 0 1-1.597.614l-149.89 4.398a2.54 2.54 0 0 1-1.645-.52c-.442-.351-.703-.84-.727-1.355L42.723 44.875c-.059-1.418.55-2.797 1.691-3.832 1.14-1.04 2.719-1.648 4.39-1.7l145.778-4.273c.606-.02 1.2.168 1.64.52.446.351.708.84.727 1.355zm0 0"/><path d="m163.656 223.969-71.36.984c-3.355.043-6.597-1.043-9.01-3.023-2.411-1.985-3.798-4.696-3.852-7.547l-.829-43.23c-.05-2.848 1.23-5.598 3.563-7.645 2.336-2.047 5.535-3.223 8.89-3.27l67.715-.933c4.317-.059 8.485 1.34 11.586 3.886 3.102 2.551 4.887 6.04 4.953 9.704l.77 40.16c.055 2.847-1.227 5.597-3.562 7.644-2.336 2.047-5.532 3.223-8.891 3.27zm0 0"/></g><path fill="#fff" d="m101.348 125.465-62.172-28.36a9.168 9.168 0 0 0-3.953-.808 9.088 9.088 0 0 0-3.907.953c-1.183.602-2.164 1.45-2.847 2.465a6.026 6.026 0 0 0-1.043 3.336v68.922c-.012 1.222.37 2.425 1.11 3.472.741 1.051 1.808 1.907 3.085 2.473l62.176 28.36a9.292 9.292 0 0 0 3.777.816 8.826 8.826 0 0 0 4.086-.973c1.184-.598 2.16-1.445 2.84-2.46s1.04-2.161 1.043-3.329V131.41c-.004-1.219-.395-2.418-1.133-3.465-.738-1.047-1.797-1.902-3.062-2.48zm-15.313 8.375-15.004 9.816-13.676-6.258v15.165l-13.988 9.128v-47.3zm-39.07 35.746 15.027-9.793 13.676 6.23v-15.16l13.984-9.129v47.368zM171.234 52.055 125 73.145l-28.496-13 46.234-21.086-12.66-5.77a12.298 12.298 0 0 0-5.066-1.078c-1.766 0-3.508.371-5.067 1.078L68.141 56.875c-.692.32-1.27.79-1.668 1.363a3.3 3.3 0 0 0-.614 1.899c0 .664.211 1.32.614 1.894.398.574.976 1.043 1.668 1.364l51.726 23.585a12.113 12.113 0 0 0 5.067 1.094c1.77 0 3.511-.375 5.066-1.094l51.703-23.585a4.078 4.078 0 0 0 1.688-1.36c.41-.574.625-1.23.625-1.898a3.26 3.26 0 0 0-.625-1.903 4.109 4.109 0 0 0-1.688-1.359zM218.691 97.258a8.873 8.873 0 0 0-3.882-.965 8.944 8.944 0 0 0-3.93.812l-62.176 28.36c-1.266.578-2.324 1.433-3.062 2.48-.739 1.047-1.13 2.246-1.133 3.465v68.922c.015 1.785.855 3.496 2.344 4.762 1.484 1.265 3.496 1.984 5.601 2a9.166 9.166 0 0 0 3.777-.817l62.176-28.359c1.278-.566 2.344-1.422 3.082-2.473.742-1.047 1.125-2.25 1.11-3.472V103.05c.011-1.172-.344-2.324-1.032-3.344-.687-1.016-1.68-1.863-2.875-2.45zm-12.035 64.414-13.984-9.129v-15.164l-13.676 6.254-15.031-9.793 42.691-19.45zm-46.258-19.895 13.989 9.13v15.163l13.672-6.234 15.03 9.793-42.69 19.473zm0 0"/><path fill="#f79723" d="M249.715 58.355a4.424 4.424 0 0 0-.262-.55 5.821 5.821 0 0 0-.547-1.063c0-.199-.336-.375-.492-.574a5.744 5.744 0 0 0-.758-.816 6.96 6.96 0 0 0-.726-.465c-.25-.196-.512-.383-.782-.555h-.183l-.156-.11L128.777.864c-1.152-.539-2.445-.82-3.761-.82s-2.61.281-3.766.82L4.195 54.266v.113h-.183c-.285.152-.52.375-.805.55-.246.141-.48.298-.703.466a6.198 6.198 0 0 0-.758.816c-.18.2-.363.375-.52.574-.21.34-.386.695-.519 1.063 0 .199-.21.375-.289.55a5.872 5.872 0 0 0-.285 1.793v129.73c0 1.22.39 2.415 1.129 3.462.738 1.047 1.797 1.906 3.062 2.484l117.059 53.383c.36.145.734.262 1.117.352l.625.222c.656.14 1.332.215 2.008.219a10.705 10.705 0 0 0 2.031-.219l.625-.222c.383-.094.758-.211 1.121-.352l116.899-53.516c1.265-.578 2.324-1.437 3.062-2.484s1.129-2.242 1.129-3.46V60.144c0-.602-.098-1.204-.285-1.79zM125 14.633l99.79 45.512-4.247 1.925L125 105.66 29.46 62.07l-4.245-1.925zM16.047 71.44l101.113 46.11v114.39L16.047 185.832zm117.031 160.5v-114.39l101.113-46.11v114.391zm0 0"/></svg>