<svg xmlns="http://www.w3.org/2000/svg" width="250" height="250"><linearGradient id="a" x1="96.456" x2="136.022" y1="15.572" y2="234.931" gradientTransform="scale(.97656 .97276)" gradientUnits="userSpaceOnUse"><stop offset="0" stop-color="#27d3a2"/><stop offset="1" stop-color="#9388fd"/></linearGradient><path fill="#f9fafb" d="M247.617 113c6.711 67.457-42.75 127.559-110.469 134.242C69.43 253.926 9.094 204.66 2.383 137.203-4.328 69.746 45.133 9.645 112.852 2.961 180.57-3.723 240.906 45.543 247.617 113zm0 0"/><path fill="url(#a)" d="M203.223 219.934a123.487 123.487 0 0 1-66.075 27.308c-32.52 3.207-64.988-6.582-90.261-27.219-25.274-20.636-41.282-50.425-44.504-82.82a122.37 122.37 0 0 1 13.914-69.898A122.982 122.982 0 0 1 66.852 16.89a123.605 123.605 0 0 1 70.156-13.942 123.443 123.443 0 0 1 66.105 27.23l-24.855 30.204a84.135 84.135 0 0 0-45.07-18.567 84.296 84.296 0 0 0-47.833 9.504 83.842 83.842 0 0 0-34.468 34.375 83.392 83.392 0 0 0-9.489 47.657c2.196 22.085 13.11 42.398 30.344 56.468 17.23 14.07 39.367 20.746 61.54 18.559a84.197 84.197 0 0 0 45.054-18.621zm0 0"/><path fill="#fff" d="M125 226.27c56.094 0 101.563-45.293 101.563-101.168S181.093 23.934 125 23.934c-56.09 0-101.563 45.293-101.563 101.168S68.91 226.27 125 226.27zm0 0"/><path fill="#657786" d="M125.398 176.328 73.422 123.36 125 142.08l51.578-18.72zm0 0"/><path fill="#283947" fill-rule="evenodd" d="M73.422 123.36 125 71.983l51.578 51.375L125 142.08zm14.793.398h22.39l14.793-14.735 14.793 14.735h21.993L125.398 87.12zm0 0"/></svg>