<svg xmlns="http://www.w3.org/2000/svg" width="250" height="250"><linearGradient id="a" x1="93.747" x2="132.942" y1="12.993" y2="230.304" gradientUnits="userSpaceOnUse"><stop offset="0" stop-color="#27d3a2"/><stop offset="1" stop-color="#9388fd"/></linearGradient><path fill="#f9fafb" d="M249.39 112.64c6.81 68.704-43.367 129.915-112.07 136.72C68.621 256.167 7.41 205.991.605 137.29-6.203 68.59 43.973 7.378 112.672.573c68.703-6.808 129.914 43.367 136.719 112.067zm0 0"/><path fill="url(#a)" d="M204.352 221.547a124.997 124.997 0 0 1-67.032 27.808 125 125 0 0 1-91.566-27.714A125.004 125.004 0 0 1 66.008 14.766a124.979 124.979 0 0 1 71.168-14.2 124.983 124.983 0 0 1 67.062 27.73l-25.215 30.759a85.226 85.226 0 0 0-94.246-9.227 85.206 85.206 0 0 0-44.59 83.543 85.224 85.224 0 0 0 138.915 57.445zm0 0"/><path fill="#fff" d="M124.996 227.996c56.902 0 103.031-46.129 103.031-103.031S181.898 21.937 124.997 21.937 21.968 68.064 21.968 124.966s46.125 103.031 103.027 103.031zm0 0"/><path fill="#283947" fill-rule="evenodd" d="M77.477 162.762a11.356 11.356 0 0 1-5.434-9.672v-22.004a4.736 4.736 0 0 1 2.379-4.094 4.742 4.742 0 0 1 4.738.02l49.66 28.957a9.455 9.455 0 0 1 4.696 8.164v22.8a5.675 5.675 0 0 1-2.895 4.958 5.672 5.672 0 0 1-5.738-.114zm74.027-41.782a9.452 9.452 0 0 1 4.691 8.165v46.265a3.767 3.767 0 0 1-1.925 3.293l-10.872 6.121c-.14.074-.285.137-.437.18v-25.688c0-3.328-1.75-6.41-4.602-8.12l-43.613-26.09V96.101a4.733 4.733 0 0 1 2.379-4.094 4.734 4.734 0 0 1 4.734.02zm21.738-34.171a9.449 9.449 0 0 1 4.707 8.18v67.581a3.804 3.804 0 0 1-1.992 3.32l-10.305 5.563V124.41a9.473 9.473 0 0 0-4.586-8.113l-44.582-26.734V62.05c0-.832.22-1.653.633-2.375a4.733 4.733 0 0 1 6.465-1.715zm0 0"/></svg>