<svg xmlns="http://www.w3.org/2000/svg" width="250" height="250"><linearGradient id="a" x1="96.456" x2="136.022" y1="15.572" y2="234.931" gradientTransform="scale(.97656 .97276)" gradientUnits="userSpaceOnUse"><stop offset="0" stop-color="#27d3a2"/><stop offset="1" stop-color="#9388fd"/></linearGradient><linearGradient id="b" x1="130" x2="130" y1="68.399" y2="184.599" gradientTransform="scale(.97656 .97276)" gradientUnits="userSpaceOnUse"><stop offset="0" stop-color="#283947"/><stop offset="1" stop-color="#657786"/></linearGradient><path fill="#f9fafb" d="M247.617 113c6.711 67.457-42.75 127.559-110.469 134.242C69.43 253.926 9.094 204.66 2.383 137.203-4.328 69.746 45.133 9.645 112.852 2.961 180.57-3.723 240.906 45.543 247.617 113zm0 0"/><path fill="url(#a)" d="M203.223 219.934a123.487 123.487 0 0 1-66.075 27.308c-32.52 3.207-64.988-6.582-90.261-27.219-25.274-20.636-41.282-50.425-44.504-82.82a122.37 122.37 0 0 1 13.914-69.898A122.982 122.982 0 0 1 66.852 16.89a123.605 123.605 0 0 1 70.156-13.942 123.443 123.443 0 0 1 66.105 27.23l-24.855 30.204a84.135 84.135 0 0 0-45.07-18.567 84.296 84.296 0 0 0-47.833 9.504 83.842 83.842 0 0 0-34.468 34.375 83.392 83.392 0 0 0-9.489 47.657c2.196 22.085 13.11 42.398 30.344 56.468 17.23 14.07 39.367 20.746 61.54 18.559a84.197 84.197 0 0 0 45.054-18.621zm0 0"/><path fill="#fff" d="M125 226.27c56.094 0 101.563-45.293 101.563-101.168S181.093 23.934 125 23.934c-56.09 0-101.563 45.293-101.563 101.168S68.91 226.27 125 226.27zm0 0"/><path fill="url(#b)" d="M180.309 108.8h-11.47c-6.312-17.452-23.284-29.417-45.671-29.417H86.352V108.8H73.566v10.558h12.786v11.067H73.566v10.558h12.786v29.067h36.816c22.129 0 38.973-11.871 45.45-29.067h11.69v-10.558h-9.117a47.44 47.44 0 0 0 .356-5.711v-.254c0-1.734-.098-3.434-.258-5.102h9.05v-10.558zM96.66 88.782h26.508c16.426 0 28.637 8.055 34.27 19.989H96.66zm26.508 71.774H96.66v-19.606h60.715c-5.668 11.746-17.844 19.606-34.207 19.606zm37.719-35.614c0 1.86-.13 3.688-.387 5.454H96.66v-11.07h63.871a41.44 41.44 0 0 1 .356 5.359zm0 0"/></svg>