<svg xmlns="http://www.w3.org/2000/svg" width="250" height="250"><linearGradient id="a" x1="96.456" x2="136.022" y1="15.572" y2="234.931" gradientTransform="scale(.97656 .97276)" gradientUnits="userSpaceOnUse"><stop offset="0" stop-color="#27d3a2"/><stop offset="1" stop-color="#9388fd"/></linearGradient><path fill="#f9fafb" d="M247.617 113c6.711 67.457-42.75 127.559-110.469 134.242C69.43 253.926 9.094 204.66 2.383 137.203-4.328 69.746 45.133 9.645 112.852 2.961 180.57-3.723 240.906 45.543 247.617 113zm0 0"/><path fill="url(#a)" d="M203.223 219.934a123.487 123.487 0 0 1-66.075 27.308c-32.52 3.207-64.988-6.582-90.261-27.219-25.274-20.636-41.282-50.425-44.504-82.82a122.37 122.37 0 0 1 13.914-69.898A122.982 122.982 0 0 1 66.852 16.89a123.605 123.605 0 0 1 70.156-13.942 123.443 123.443 0 0 1 66.105 27.23l-24.855 30.204a84.135 84.135 0 0 0-45.07-18.567 84.296 84.296 0 0 0-47.833 9.504 83.842 83.842 0 0 0-34.468 34.375 83.392 83.392 0 0 0-9.489 47.657c2.196 22.085 13.11 42.398 30.344 56.468 17.23 14.07 39.367 20.746 61.54 18.559a84.197 84.197 0 0 0 45.054-18.621zm0 0"/><path fill="#fff" d="M125 226.27c56.094 0 101.563-45.293 101.563-101.168S181.093 23.934 125 23.934c-56.09 0-101.563 45.293-101.563 101.168S68.91 226.27 125 226.27zm0 0"/><path fill="#283947" d="M145.164 135.785c0-10.742-6.68-14.363-19.601-16.094-9.551-1.351-11.383-3.546-11.383-7.902 0-4.36 3.226-7.074 9.406-7.074 5.633 0 8.875 1.918 10.21 6.351.142.485.438.914.849 1.22.41.308.91.476 1.425.484h4.938c.324.007.644-.055.937-.184.297-.129.559-.32.77-.559a2.11 2.11 0 0 0 .504-1.757c-1.567-7.012-6.399-11.235-13.969-12.551V90.32c0-.61-.25-1.195-.691-1.625a2.372 2.372 0 0 0-1.664-.675h-4.704c-.625 0-1.222.242-1.664.675a2.267 2.267 0 0 0-.687 1.625v7.137c-9.41 1.29-15.356 7.363-15.356 15.16 0 10.078 6.274 13.992 19.383 15.727 8.926 1.426 11.465 3.312 11.465 8.27s-4.312 8.284-10.394 8.284c-8.204 0-10.981-3.511-11.907-8.07a2.317 2.317 0 0 0-.812-1.336 2.428 2.428 0 0 0-1.492-.535h-5.36c-.32-.004-.64.063-.93.195a2.157 2.157 0 0 0-1.203 1.379 2.06 2.06 0 0 0-.047.926c1.364 7.672 6.395 13.29 16.653 14.637v7.273c0 .61.246 1.196.687 1.63.442.429 1.04.671 1.664.671h4.704c.625 0 1.222-.242 1.664-.672.441-.434.691-1.02.691-1.629v-7.273c9.719-1.504 15.914-8.07 15.914-16.309zm0 0"/><g fill="#657786"><path d="M109.547 168.84c-8.969-3.23-16.711-9.102-22.18-16.824a45.544 45.544 0 0 1-8.402-26.332 45.556 45.556 0 0 1 8.402-26.336c5.469-7.72 13.211-13.594 22.18-16.825a3.364 3.364 0 0 0 1.422-1.164c.351-.511.554-1.109.578-1.73v-4.29a2.13 2.13 0 0 0-.188-1.109 2.192 2.192 0 0 0-1.789-1.261 2.18 2.18 0 0 0-1.125.183C97.152 76.703 87.301 83.707 80.31 93.148c-6.993 9.446-10.762 20.84-10.762 32.536 0 11.695 3.77 23.09 10.762 32.53 6.992 9.446 16.843 16.45 28.136 20a2.21 2.21 0 0 0 2.914-1.082c.16-.347.227-.73.188-1.109v-4.289a3.284 3.284 0 0 0-.578-1.73 3.364 3.364 0 0 0-1.422-1.164zM141.555 73.152a2.18 2.18 0 0 0-1.125-.183 2.204 2.204 0 0 0-1.79 1.261 2.13 2.13 0 0 0-.187 1.11v4.289c.024.621.227 1.219.578 1.73.356.512.848.914 1.422 1.164 8.969 3.23 16.711 9.106 22.18 16.825a45.556 45.556 0 0 1 8.402 26.336 45.544 45.544 0 0 1-8.402 26.332c-5.469 7.722-13.211 13.593-22.18 16.824a3.115 3.115 0 0 0-1.46 1.137 3.022 3.022 0 0 0-.54 1.757v4.29a2.166 2.166 0 0 0 .91 1.977 2.21 2.21 0 0 0 2.192.214c11.293-3.55 21.144-10.555 28.136-20 6.993-9.442 10.762-20.836 10.762-32.531 0-11.696-3.77-23.09-10.762-32.536-6.992-9.441-16.843-16.445-28.136-19.996zm0 0"/></g></svg>