<svg xmlns="http://www.w3.org/2000/svg" width="250" height="250"><linearGradient id="a" x1="96.456" x2="136.022" y1="15.572" y2="234.931" gradientTransform="scale(.97656 .97276)" gradientUnits="userSpaceOnUse"><stop offset="0" stop-color="#27d3a2"/><stop offset="1" stop-color="#9388fd"/></linearGradient><path fill="#f9fafb" d="M247.617 113c6.711 67.457-42.75 127.559-110.469 134.242C69.43 253.926 9.094 204.66 2.383 137.203-4.328 69.746 45.133 9.645 112.852 2.961 180.57-3.723 240.906 45.543 247.617 113zm0 0"/><path fill="url(#a)" d="M203.223 219.934a123.487 123.487 0 0 1-66.075 27.308c-32.52 3.207-64.988-6.582-90.261-27.219-25.274-20.636-41.282-50.425-44.504-82.82a122.37 122.37 0 0 1 13.914-69.898A122.982 122.982 0 0 1 66.852 16.89a123.605 123.605 0 0 1 70.156-13.942 123.443 123.443 0 0 1 66.105 27.23l-24.855 30.204a84.135 84.135 0 0 0-45.07-18.567 84.296 84.296 0 0 0-47.833 9.504 83.842 83.842 0 0 0-34.468 34.375 83.392 83.392 0 0 0-9.489 47.657c2.196 22.085 13.11 42.398 30.344 56.468 17.23 14.07 39.367 20.746 61.54 18.559a84.197 84.197 0 0 0 45.054-18.621zm0 0"/><path fill="#fff" d="M125 226.27c56.094 0 101.563-45.293 101.563-101.168S181.093 23.934 125 23.934c-56.09 0-101.563 45.293-101.563 101.168S68.91 226.27 125 226.27zm0 0"/><path fill="#657786" d="M137.332 123c2.898-1.54 4.711-4.25 4.29-8.77-.571-6.175-5.685-8.246-12.134-8.84v-8.566h-5v8.344c-1.316 0-2.656.027-3.992.055v-8.395l-4.996-.004v8.567c-1.082.023-2.145.046-3.184.046v-.027l-6.894-.004v5.57s3.695-.074 3.633-.003c2.023.004 2.683 1.23 2.875 2.289v23.468c-.09.665-.465 1.727-1.88 1.727.067.059-3.636 0-3.636 0l-.992 6.227h6.508c1.21 0 2.398.02 3.57.03v8.665h4.996l-.004-8.574c1.375.03 2.703.043 3.996.043v8.53h4.996l.004-8.648c8.403-.503 14.285-2.714 15.016-10.945.59-6.629-2.402-9.59-7.172-10.785zm-16.715-11.648c2.817 0 11.684-.938 11.688 5.207-.004 5.894-8.868 5.203-11.688 5.203zm-.004 27.148.004-11.48c3.387 0 14.008-1.016 14.012 5.738 0 6.476-10.625 5.738-14.016 5.742zm0 0"/><g fill="none"><path stroke="#657786" stroke-width="8.019" d="M178.12 128.604c0 27.68-22.44 50.12-50.12 50.12s-50.12-22.44-50.12-50.12S100.32 78.485 128 78.485s50.12 22.44 50.12 50.12zm0 0" transform="scale(.97656 .97276)"/><path stroke="#283947" stroke-width="8.019" d="M194.156 128.604c0 36.539-29.62 66.158-66.156 66.158s-66.156-29.62-66.156-66.158S91.464 62.447 128 62.447s66.156 29.62 66.156 66.157zm0 0" transform="scale(.97656 .97276)"/><path stroke="#fff" stroke-width="6.014" d="m165.328 169.7-17.196-16.942m-46.488-45.81L86.904 92.52m3.916 77.18 17.192-16.942m46.492-45.81 14.592-14.428" transform="scale(.97656 .97276)"/></g></svg>