<svg xmlns="http://www.w3.org/2000/svg" width="250" height="250"><linearGradient id="a" x1="29.297" x2="220.703" y1="69.746" y2="180.254" gradientUnits="userSpaceOnUse"><stop offset="0" stop-color="#1d1d3c"/><stop offset=".11" stop-color="#221e43"/><stop offset=".27" stop-color="#302256"/><stop offset=".46" stop-color="#482876"/><stop offset=".68" stop-color="#6931a2"/><stop offset=".91" stop-color="#923bda"/><stop offset="1" stop-color="#a440f2"/><stop offset="1" stop-color="#38d6b2"/></linearGradient><path fill="#1d1d3c" d="M250 125c0 69.035-55.965 125-125 125S0 194.035 0 125 55.965 0 125 0s125 55.965 125 125zm0 0"/><path fill="url(#a)" d="M235.492 125c0 61.023-49.469 110.492-110.492 110.492S14.508 186.023 14.508 125 63.977 14.508 125 14.508 235.492 63.977 235.492 125zm0 0"/><path fill="#1d1d3c" d="M227.656 125c0 56.695-45.96 102.656-102.656 102.656S22.344 181.696 22.344 125 68.304 22.344 125 22.344 227.656 68.304 227.656 125zm0 0"/><path fill="#1d1d3c" d="M64.078 53.867v142.266H185.93V53.867zm0 0"/><path fill="#fff" d="M125.094 94.426v40.683h40.515v20.38H84.395V74.19h81.214v20.235zm0 0"/><path fill="#a440f2" d="M84.395 176.215h81.214v4.394H84.395zm0 0"/></svg>