<svg xmlns="http://www.w3.org/2000/svg" width="250" height="250"><linearGradient id="a" x1="0" x2="250" y1="250" y2="0" gradientUnits="userSpaceOnUse"><stop offset="0" stop-color="#83868a"/><stop offset="1" stop-color="#cccdce"/></linearGradient><path fill="url(#a)" d="M0 0h250v250H0z"/><g fill="#f9f9fa"><path d="M37.977 144.363c-9.7 0-17.563-7.832-17.563-17.492 0-9.656 7.86-17.488 17.555-17.492h-4.781c-9.7 0-17.563 7.832-17.563 17.492s7.863 17.492 17.563 17.492zM212.02 144.363c9.703 0 17.566-7.832 17.566-17.492 0-9.656-7.86-17.488-17.555-17.492h4.781c9.7 0 17.563 7.832 17.563 17.492s-7.863 17.492-17.563 17.492zM69.914 130.844c0 6.148-5.004 11.133-11.18 11.133-6.172 0-11.18-4.985-11.18-11.133v-21.465h-4.788v21.465c0 4.129 1.863 7.824 4.789 10.304a13.56 13.56 0 0 0 8.785 3.215c7.496-.004 13.574-6.054 13.574-13.52zM154.54 130.844c0 6.148-5.005 11.133-11.18 11.133-6.173 0-11.176-4.985-11.176-11.133v-21.465h-4.79v21.465c0 4.129 1.86 7.824 4.79 10.304a13.549 13.549 0 0 0 8.78 3.215c7.497-.004 13.575-6.054 13.575-13.52zM81.09 109.379H76.3v34.984h4.79zM92.266 144.36h6.386v-6.352c-.004 3.512-2.859 6.351-6.386 6.351zM101.848 109.383h-6.391v6.355c.008-3.511 2.867-6.355 6.39-6.355zM116.219 109.383h6.386v6.355c-.003-3.511-2.863-6.355-6.386-6.355zM111.426 109.375h-4.79v34.984h4.79zM202.441 109.383h6.387v6.355c-.008-3.511-2.863-6.355-6.387-6.355zM202.441 144.352h6.387V138c-.008 3.508-2.863 6.352-6.387 6.352zM199.25 126.86h6.387v-6.352c-.008 3.508-2.864 6.351-6.387 6.351zM199.25 126.879h6.387v6.351c-.008-3.507-2.864-6.351-6.387-6.351zM196.055 109.375h-4.793v34.984h4.793zM164.918 109.375h-4.793v34.984h4.793zM172.902 109.375h-4.789c5.29 0 9.578 4.273 9.578 9.543 0 5.266-4.289 9.539-9.578 9.539h4.79c5.288 0 9.581-4.273 9.581-9.539 0-5.27-4.293-9.543-9.582-9.543zM180.633 138c-.797-5.566-4.29-9.543-9.582-9.543h-4.79c5.29 0 8.786 4.77 9.583 9.543.797 4.77 3.492 6.227 6.281 6.352.117.003.234.007.355.007h4.79c-2.836 0-5.836-.793-6.637-6.359zm0 0"/><path fill-rule="evenodd" d="M106.633 109.379c.008-.004.015-.004.027-.004h4.781c.012 0 .02 0 .028.004h11.14c.07 0 .13.055.13.125v6.312a.128.128 0 0 1-.13.13c-.074 0-.132-.055-.132-.126-.004-3.414-2.797-6.18-6.25-6.18a.139.139 0 0 1-.04-.007h-4.613v34.601c0 .07-.058.125-.133.125h-4.78c-.075 0-.134-.054-.134-.125v-34.601h-4.613a.139.139 0 0 1-.039.008c-3.45 0-6.246 2.765-6.25 6.18 0 .07-.059.124-.133.124a.128.128 0 0 1-.129-.129v-6.304a.14.14 0 0 1 .008-.043.127.127 0 0 1 .125-.09zm-11.008.262v4.382a6.487 6.487 0 0 1 4.426-4.382zm11.164-.008v34.472h4.523v-34.472zm15.688.008h-4.426a6.48 6.48 0 0 1 4.426 4.382zm37.585-.262c.008-.004.016-.004.024-.004h4.785a.05.05 0 0 1 .024.004h3.14c.008-.004.016-.004.028-.004h4.78c5.356 0 9.7 4.297 9.7 9.602 0 5.171-4.137 9.39-9.316 9.59 4.109.956 6.78 4.578 7.468 9.331.395 2.743 1.336 4.286 2.5 5.149 1.172.86 2.594 1.058 4 1.058.075 0 .133.06.133.13s-.058.124-.133.124h-4.78c-.122 0-.24-.004-.356-.007h-.008c-1.414-.063-2.813-.461-3.961-1.454-1.153-.996-2.035-2.57-2.434-4.96-.793-4.704-4.25-9.364-9.441-9.364a.13.13 0 0 1-.133-.129.13.13 0 0 1 .133-.129h1.847c5.211 0 9.438-4.183 9.438-9.34 0-5.093-4.113-9.234-9.23-9.343H165v34.601c0 .07-.059.125-.129.125h-4.785a.127.127 0 0 1-.129-.125v-34.601h-1.465a.127.127 0 1 1 0-.254zm.153.254v34.472h4.527v-34.472zm10.09 0c4.273 1.004 7.453 4.805 7.453 9.344s-3.184 8.343-7.461 9.34h2.547c5.215 0 9.441-4.184 9.441-9.34 0-5.153-4.215-9.332-9.414-9.344h-.027zm-2 18.941h2.691c5.203 0 8.652 3.88 9.441 9.363.403 2.782 1.364 4.399 2.606 5.313a5.313 5.313 0 0 0 1.828.855h-2.457c-.117 0-.23-.003-.348-.007h-.004c-1.37-.063-2.71-.45-3.804-1.395s-1.953-2.46-2.348-4.805c-.691-4.117-3.414-8.27-7.605-9.324zm22.855-19.195c.008-.004.016-.004.024-.004h4.785a.05.05 0 0 1 .023.004h12.735c.058 0 .109.035.125.09a.14.14 0 0 1 .007.043v6.304a.128.128 0 0 1-.129.13.127.127 0 0 1-.128-.126c-.008-3.414-2.805-6.18-6.254-6.18a.139.139 0 0 1-.04-.007h-6.21v17.11h3.015a.104.104 0 0 1 .047-.013c3.45 0 6.246-2.761 6.25-6.175a.13.13 0 0 1 .262 0v6.304c0 .004 0 .008-.004.008.004.004.004.008.004.012v6.305a.13.13 0 0 1-.262 0c-.004-3.414-2.8-6.176-6.25-6.176a.104.104 0 0 1-.047-.012h-3.015v17.11h6.203c.015-.008.031-.008.047-.008 3.449 0 6.246-2.766 6.254-6.18a.13.13 0 0 1 .128-.129.13.13 0 0 1 .13.129v6.305c0 .015-.005.027-.005.035a.134.134 0 0 1-.128.101H189.59c-.07 0-.13-.054-.13-.125s.06-.129.13-.129h1.465v-34.472h-1.465a.127.127 0 1 1 0-.254zm.153.254v34.472h4.527v-17.109h-1.465a.125.125 0 0 1-.129-.129c0-.07.055-.125.129-.125h1.465v-17.11zm17.289 34.465v-4.387a6.505 6.505 0 0 1-4.43 4.387zm-3.192-17.09h-4.426a6.487 6.487 0 0 1 4.426 4.383zm0-.278v-4.382a6.487 6.487 0 0 1-4.426 4.382zm3.192-17.09h-4.43a6.5 6.5 0 0 1 4.43 4.383zm-167.461-.136c0-.07.058-.125.129-.125h7.972c.074 0 .133.055.133.125a.128.128 0 0 1-.133.129h-1.465v21.18c0 6.035 4.942 10.925 11.035 10.925s11.036-4.89 11.036-10.925v-21.18h-1.465a.127.127 0 1 1 0-.254h3.191a.127.127 0 1 1 0 .254h-1.469v21.972h-.02c-.413 7.114-6.374 12.754-13.663 12.758a13.729 13.729 0 0 1-8.86-3.222c-2.953-2.485-4.828-6.188-4.828-10.325v-21.183H41.27a.128.128 0 0 1-.13-.13zm1.851.129v21.183c0 4.059 1.844 7.692 4.738 10.13a13.466 13.466 0 0 0 8.692 3.16 13.435 13.435 0 0 0 12.226-7.793 11.309 11.309 0 0 1-9.835 5.68c-6.239 0-11.293-5.005-11.293-11.18v-21.18zm31.64-.13c0-.07.06-.124.13-.124h7.972c.075 0 .13.055.13.125a.125.125 0 0 1-.13.129h-1.46v34.472h11.03c3.45 0 6.247-2.765 6.25-6.18a.13.13 0 0 1 .13-.128c.074 0 .129.058.129.129v6.308c0 .07-.055.125-.13.125H81.169c-.008.004-.016.004-.027.004h-4.782c-.007 0-.02 0-.027-.004h-1.57c-.07 0-.13-.054-.13-.125s.06-.129.13-.129h1.465v-34.472h-1.465a.128.128 0 0 1-.13-.13zm1.856.13v34.472h4.524v-34.472zm17.64 34.472h4.427v-4.382a6.48 6.48 0 0 1-4.426 4.382zm31.54-34.601c0-.07.059-.125.129-.125h7.973c.074 0 .128.055.128.125a.125.125 0 0 1-.128.129h-1.465v21.18c0 6.035 4.941 10.925 11.035 10.925s11.035-4.89 11.035-10.925v-21.18h-1.469a.127.127 0 1 1 0-.254h3.196a.127.127 0 1 1 0 .254h-1.47v21.972h-.023c-.414 7.114-6.37 12.754-13.664 12.758a13.718 13.718 0 0 1-8.855-3.222c-2.953-2.485-4.828-6.188-4.828-10.325v-21.183h-1.465a.128.128 0 0 1-.129-.13zm1.852.129v21.183c0 4.059 1.84 7.692 4.738 10.13a13.464 13.464 0 0 0 8.687 3.16 13.437 13.437 0 0 0 12.23-7.793 11.313 11.313 0 0 1-9.835 5.68c-6.238 0-11.293-5.005-11.293-11.18v-21.18zM15.625 126.87c0-9.66 7.914-17.492 17.672-17.492h4.777a.13.13 0 0 1 .13.129.13.13 0 0 1-.13.129c-9.613.004-17.406 7.718-17.406 17.234 0 9.52 7.797 17.234 17.414 17.234.07 0 .129.06.129.13s-.059.128-.129.128h-4.785c-9.758 0-17.672-7.832-17.672-17.492zm19.426 17.234c-8.317-1.421-14.64-8.597-14.64-17.234 0-8.637 6.323-15.812 14.64-17.234h-1.754c-9.617 0-17.414 7.715-17.414 17.234 0 9.52 7.797 17.234 17.414 17.234zm176.746-34.597a.13.13 0 0 1 .129-.13h4.777c9.758 0 17.672 7.833 17.672 17.493s-7.914 17.492-17.672 17.492h-4.785c-.07 0-.129-.058-.129-.129s.059-.129.129-.129c9.617 0 17.414-7.714 17.414-17.234 0-9.516-7.793-17.23-17.406-17.234a.13.13 0 0 1-.13-.13zm3.152.129c8.317 1.422 14.64 8.597 14.64 17.234 0 8.637-6.323 15.813-14.64 17.234h1.754c9.617 0 17.414-7.714 17.414-17.234 0-9.52-7.797-17.234-17.414-17.234zm0 0"/></g></svg>