<svg xmlns="http://www.w3.org/2000/svg" width="250" height="250"><path fill="#231f20" stroke="#fff" stroke-miterlimit="10" stroke-width="2.74725" d="M248.625 125c0 68.277-55.348 123.625-123.625 123.625S1.375 193.277 1.375 125 56.723 1.375 125 1.375 248.625 56.723 248.625 125zm0 0"/><path fill="#fff" d="M80.219 123.625a48.272 48.272 0 0 1 49.039-49.285c17.8 0 30.219 6.98 38.46 18.57l-11.62 8.242c-6.453-8.515-14.45-13.156-27.473-13.156-19.23 0-32.965 15.219-32.965 35.711 0 20.91 14.176 35.715 33.543 35.715a34.34 34.34 0 0 0 28.902-13.926l11.676 7.8c-9.808 13.161-22.445 19.614-41.047 19.614a48 48 0 0 1-34.742-14.32 47.997 47.997 0 0 1-13.773-34.965zm0 0"/></svg>