<svg xmlns="http://www.w3.org/2000/svg" width="250" height="250"><linearGradient id="a" x1="300" x2="300" y1="685" y2="-63" gradientTransform="matrix(.41667 0 0 -.41667 0 250)" gradientUnits="userSpaceOnUse"><stop offset="0" stop-color="#f9a606"/><stop offset="1" stop-color="#fbcc5f"/></linearGradient><path fill="url(#a)" d="M250 125c0 69.035-55.965 125-125 125S0 194.035 0 125 55.965 0 125 0s125 55.965 125 125zm0 0"/><path fill="#fff" d="M199.125 104.375h-14.832c-8.168-22.668-30.125-38.207-59.086-38.207H77.582v38.207H61.043v13.707h16.539v14.375H61.043v13.711h16.539v37.75h47.625c28.625 0 50.418-15.418 58.793-37.75h15.125v-13.711h-11.793a61.83 61.83 0 0 0 .461-7.414v-.336c0-2.25-.125-4.457-.336-6.625h11.711v-13.707zm-108.207-26h34.289c21.25 0 37.043 10.457 44.336 25.957H90.918zm34.289 93.207H90.918v-25.457h78.539c-7.332 15.25-23.082 25.457-44.25 25.457zM174 125.332c0 2.418-.168 4.793-.5 7.086H90.918v-14.375h82.625c.289 2.25.457 4.582.457 6.957zm0 0"/></svg>