<svg xmlns="http://www.w3.org/2000/svg" width="250" height="250"><path fill="#ff7f66" d="m90.25 55.582 31.64 66.059 48.915-59.614c-24.75-15.222-54.61-18.054-80.555-6.445zm0 0"/><path fill="#ffc54a" d="M90.25 55.582a81.64 81.64 0 0 0-11.61 6.363c-16.667 10.914-31.945 28.5-36.917 48.61l80.168 11.086zm0 0"/><path fill="#ff905b" d="M41.695 110.555c-3.668 14.777-1.777 30.945 9.223 46.836 3.473 5.027 7.387 9.75 11.637 14.136l59.336-49.886zm0 0"/><path fill="#ff5d6c" d="M62.555 171.527c24.418 25.168 60.168 38.332 89.945 24.305l-30.61-74.191zm0 0"/><path fill="#ffc54a" d="M152.5 195.832a61.875 61.875 0 0 0 10.973-6.637C187 171.418 203 152.5 208.168 133.305l-86.309-11.664zm0 0"/><path fill="#ff9024" d="M208.195 133.305c4.387-16.305 1-32.832-12.222-49.082-7.364-9.055-15.918-16.473-25.168-22.168L121.89 121.64zm0 0"/><path fill="#360053" d="M139.418 73.332c28.582 2.945 37.027 27.195 32.277 61.223-3.972 28.472-36.027 41.14-64.304 35.972-28.282-5.168-34.614-33.554-30.168-54.859C83 88.028 109.5 70.25 139.418 73.332zm0 0"/><g fill="#c74dff"><path d="m174.195 162.918-7.304-15.418c-4.891.25-10.391.11-10.836-3.668-.473-3.832 2.945-5.914 8.722-6.027l-.859-4.582L162 123.195c-8.36 1.387-17.36 5.223-18.668 15.696l-2.941-14.223-14.532-2L129 139.055l4.64 24.64h.11c7.832.5 14.36-.418 14.61-.472l-2.333-11.305c3.5 8.441 22.055 10.164 28.168 11zM85.723 149.527c1.195-12.136 5.886-27.222 21.886-26.859 13.114.305 17.168 10.832 18.309 20.223.5 4.164.191 10.441-.363 15.582l-14.778 2.027.805-15.418c.25-6.277-2.414-9.805-6.441-9.441-4.25.359-7 4.664-6.946 12.636l-.25 14-12.89 1.778c-.028-.25-.11-6.61.668-14.528zM163.89 104.195C162.696 92.055 158 76.973 142 77.332c-13.11.309-17.168 10.836-18.305 20.223-.5 4.168-.195 10.445.36 15.586l14.777 2.027-.305-5.918c3.973.75 9.778 1.75 13.055 2.332l.086 5.363 12.887 1.778c.027-.223.113-6.582-.664-14.528zm-25.808-3.304-.055-1.141c-.25-6.277 2.418-9.805 6.446-9.445 4.25.363 7 4.668 6.945 12.64v.36c-2.945-.555-9.668-1.832-13.336-2.414zM87.695 120.027c4.637.278 9.582.196 14.5-.5 9.278-1.332 19.414-6.168 19.055-19.136-.445-15.836-15.61-19.696-27.668-20.25-7.887-.364-14.441.664-14.691.718L77 80.918zM99 104.832l-4.027-12.887c7.609-.5 12.75 2.473 13.332 6.637.554 3.973-3.11 6.168-9.305 6.25zm0 0"/></g></svg>