<svg xmlns="http://www.w3.org/2000/svg" width="250" height="250"><clipPath id="a"><path d="M250 125c0 69.035-55.965 125-125 125S0 194.035 0 125 55.965 0 125 0s125 55.965 125 125zm0 0"/></clipPath><clipPath id="b"><path d="M36 4h176v241H36zm0 0"/></clipPath><clipPath id="c"><path d="M250 125c0 69.035-55.965 125-125 125S0 194.035 0 125 55.965 0 125 0s125 55.965 125 125zm0 0"/></clipPath><g clip-path="url(#a)"><path d="M251 126c-.5 70-57.5 126-127 125.5-34.5 0-65.5-14-88-37-23-23-37.5-55-37-90.5C-.5 54 56.5-2 126-1.5S251.5 56 251 126"/></g><g clip-path="url(#b)"><g clip-path="url(#c)"><path fill="#fff" d="m64.5 168-28 47.5s11.5 15.5 44 28l16-43.5 11-29 11-32.5 4-10.5.5-1s0-.5.5-.5l.5-.5h1.5l.5 1 3 9 7.5 23 6.5 20.5 10.5 31.5 8 22 3.5 12s25.5-7 47-28.5L196.5 193l-10-17.5-10.5-20-8.5-17.5-7-16-5.5-16.5-5-15.5-5.5-17.5L139 54l-5-18.5-5.5-20.5L125 4l-6 19.5-8.5 27.5-6.5 20.5L96 95l-6.5 19-7.5 18-8 17.5zm0 0"/></g></g></svg>