<svg xmlns="http://www.w3.org/2000/svg" width="250" height="250"><path fill="#eaa422" d="M246.309 125c0 66.566-53.961 120.531-120.532 120.531-66.566 0-120.53-53.965-120.53-120.531S59.21 4.469 125.776 4.469c66.57 0 120.532 53.965 120.532 120.531zm0 0"/><path fill="#fff" d="M66.648 112.234c7.391 9.024 19.985 14.965 34.278 14.965 2.687 0 5.312-.21 7.855-.61 2.188-.343 3.864-1.866 4.434-4.019.57-2.156-.13-4.32-1.852-5.718A31.35 31.35 0 0 1 99.77 92.445c0-17.293 13.894-31.316 31.035-31.316 13.691 0 25.304 11.945 29.425 23.172l11.004-4.723c1.313-.562 2.7-.43 3.883.371 1.184.805 1.832 2.051 1.817 3.489a15.58 15.58 0 0 1-4.59 10.867c.84.132 1.625.5 2.265 1.152 1.036 1.05 1.422 2.457 1.07 3.898-.964 3.961-6.792 7.008-13.84 7.008-1.241 0-2.433-.101-3.577-.277-1 1.453-2.14 2.707-3.332 3.953a2.698 2.698 0 0 0-.692 2.547 2.668 2.668 0 0 0 1.758 1.965c29.48 10.41 40.418 67.191-32.312 67.191-28.02 0-65.7-12.781-65.7-46.887.004-8.71 3.282-16.644 8.664-22.62zm79.657-30.109c2.28 3.2 5.34 4.922 6.832 3.836 1.492-1.082.851-4.555-1.434-7.754-2.281-3.203-5.34-4.922-6.832-3.84-1.488 1.082-.848 4.559 1.434 7.758zm0 0"/></svg>