<svg xmlns="http://www.w3.org/2000/svg" width="250" height="250"><path fill="#fff" d="M0 0h250v250H0z"/><path fill="#2d1680" d="M27.336 119.09V87.488h30.402c1.625 0 3.219.223 4.809.551.707.145 1.445.152 2.137.336 9.746 2.55 16.918 8.293 21.273 17.402 1.184 2.477 2.086 5.082 2.426 7.848.226 1.797.617 3.57.55 5.383-.71.219-59.976.297-61.597.082zm129.394.031H95.207V87.563c.254-.024.508-.07.766-.07 9.988-.005 19.98-.048 29.968.019 3.25.023 6.426.636 9.52 1.73 8.637 3.051 14.828 8.75 18.617 17.035 1.043 2.282 1.871 4.68 2.227 7.188.246 1.762.347 3.535.511 5.305.008.093-.046.19-.086.351zm-129.14 6.742c.367-.011.73-.039 1.097-.039h60.247c0 .516.043.977-.008 1.426-.278 2.59-.512 5.191-1.317 7.691-3.02 9.414-9.035 16.133-18.093 20.102a27.138 27.138 0 0 1-6.54 1.937c-1.628.262-3.288.454-4.933.458-9.926.042-19.852.019-29.777.019h-.98v-1.07c0-9.89 0-19.782.003-29.676 0-.227.043-.457.07-.688.075-.05.153-.105.23-.16zm129.18.18c.046 1.562-.02 3.11-.375 4.644-.258 1.13-.344 2.305-.668 3.415-3.094 10.468-9.688 17.714-19.965 21.543-2.715 1.015-5.528 1.566-8.41 1.785-.137.004-.27.011-.403.015-10.394.004-20.797.012-31.191.016-.133 0-.262-.024-.395-.04l-.168-.19c-.011-.27-.03-.536-.03-.797V125.91c.272-.035.495-.082.714-.082 20.055-.004 40.11-.004 60.164 0 .164 0 .328.027.496.04.078.054.152.112.23.175zm0 0"/><path fill="#2e1780" d="M154.309 87.516h22.238c15.71 23.214 31.457 46.48 47.223 69.77-.875.234-19.942.327-23.395.128a584688.533 584688.533 0 0 1-46.066-69.898zm0 0"/><path fill="#ef88aa" d="M153.016 157.379c6.722-9.656 13.324-19.14 19.933-28.637.7.563 18.649 27.504 19.102 28.637zm70.71-69.5c-1.316 1.922-2.62 3.848-3.953 5.758-2.293 3.304-4.605 6.597-6.91 9.902-2.738 3.926-5.476 7.86-8.215 11.785-.128.188-.296.348-.53.614-.22-.247-.43-.438-.59-.668-1.88-2.743-3.75-5.497-5.626-8.243-4.277-6.261-8.554-12.52-12.836-18.78-.074-.11-.113-.24-.168-.36l.04-.39c.3-.009.601-.02.898-.02h36.96c.302 0 .599.015.9.023.007.125.019.254.03.379zm0 0"/><path fill="#a298c4" d="M125.898 160.3c.137-.003.27-.01.403-.015-.133.008-.266.012-.403.016zm0 0"/><path fill="#f1a3bd" d="m184.938 87.496-.04.39c-.144-.144-.273-.288.04-.39zm38.789.383c-.016-.129-.024-.254-.036-.383.313.106.188.242.036.383zm0 0"/><path fill="#392487" d="M27.59 125.863c-.078.055-.153.114-.23.164.074-.054.152-.109.23-.164zm129.18.18zm0 0"/><path fill="#46328f" d="m94.145 160.082.168.191zm0 0"/></svg>