<svg xmlns="http://www.w3.org/2000/svg" width="250" height="250"><path fill="#3c80f1" d="M250 125c0 69.035-55.965 125-125 125S0 194.035 0 125 55.965 0 125 0s125 55.965 125 125zm0 0"/><g fill="#fff" fill-rule="evenodd"><path d="M126.504 34.684c-41.434 0-75.145 33.71-75.145 75.148 0 3.969.442 7.988 1.266 12.035a1.163 1.163 0 0 0 1.836.7c.504-.368 1.031-.712 1.586-1.02a16.943 16.943 0 0 1 8.308-2.184h.016c.723.004 1.293-.629 1.164-1.34-.504-2.777-.777-5.515-.777-8.191 0-34.05 27.699-61.746 61.746-61.746s61.746 27.695 61.746 61.746c0 34.055-43.578 77.559-59.172 92.922a3.67 3.67 0 0 1-5.152 0c-4.586-4.52-11.598-11.477-19.203-19.91-.106-.008-.215-.012-.317-.024a65.43 65.43 0 0 1-17.41-4.168c-.344-.136-.691-.273-1.035-.414-1.106-.457-2.082.88-1.32 1.801 10.007 12.16 20.921 23.438 30.695 33.059 3.078 3.03 7.121 4.543 11.168 4.543 4.043 0 8.09-1.512 11.168-4.547 27.465-27.04 63.976-67.16 63.976-103.262 0-41.437-33.71-75.148-75.144-75.148"/><path d="M157.758 117.422a58.721 58.721 0 0 1-.172 3.133c-.344 4.129-1.156 7.98-2.664 11.484-1.5 3.512-3.727 6.77-6.48 9.988l.078.07c-5.208 5.798-11.727 10.575-18.985 13.594-7.238 3.032-15.156 4.375-22.805 3.602-7.386-.715-14.46-3.426-20.53-7.79 1.859-.07 3.777-.331 5.741-.882 1.614-.457 3.262-1.121 4.836-2.074a17.265 17.265 0 0 0 4.313-3.645c1.254-1.457 2.219-3.129 2.91-4.816a21.052 21.052 0 0 0 1.293-5.027c.223-1.594.207-3.368.203-4.36V81.49l.004-.067c0-.047 0-.09.008-.133a2.608 2.608 0 0 1 .152-.75 2.853 2.853 0 0 1 1.332-1.527c.301-.168.625-.266.969-.305.086-.008.172-.02.262-.02l.066-.003h14.18l.347.015c.461.024.918.004 1.387.055 3.715.234 7.508 1.324 11.086 2.98 7.18 3.325 13.445 9.047 17.488 15.871a38.948 38.948 0 0 1 2.61 5.317 36.244 36.244 0 0 1 1.675 5.621c.422 1.906.622 3.848.696 5.793.004.5.043.945.027 1.492zm13.39-3.535c-.097-2.715-.394-5.43-.972-8.086a49.36 49.36 0 0 0-2.32-7.778 52.452 52.452 0 0 0-3.547-7.242c-5.496-9.21-13.621-16.64-23.375-21.195-4.88-2.254-10.2-3.824-15.813-4.2-.695-.066-1.406-.058-2.11-.085l-.53-.016h-14.004l-.622.008c-.492.012-.988.05-1.48.11-1.977.234-3.922.84-5.676 1.777a16.282 16.282 0 0 0-7.64 8.808c-.34.942-.59 1.91-.75 2.89a17.43 17.43 0 0 0-.168 1.485 9.338 9.338 0 0 0-.036.739l-.007.597v49c.004 1.34 0 1.906-.09 2.63a7.686 7.686 0 0 1-.43 1.737c-.203.47-.418.84-.691 1.153-.52.613-1.325 1.144-2.598 1.511-1.254.364-2.879.48-4.582.348a22.826 22.826 0 0 1-5.281-1.101c-3.524-1.153-6.91-3.106-9.442-5.512l-.011-.016a6.702 6.702 0 0 0-7.899-.976 6.697 6.697 0 0 0-2.55 9.125c4.706 8.359 10.972 16.207 19.035 22.191 4.011 2.984 8.449 5.48 13.16 7.316a55.324 55.324 0 0 0 14.691 3.52c10.05 1.008 20.176-.754 29.305-4.578 9.12-3.832 17.41-9.703 23.805-17.36l.082.07c3.316-3.859 6.468-8.355 8.636-13.445 2.192-5.082 3.282-10.496 3.7-15.656.113-1.293.171-2.578.214-3.855l.032-1.903c.02-.62-.024-1.343-.036-2.011zm0 0"/></g></svg>