<svg xmlns="http://www.w3.org/2000/svg" width="250" height="250"><g fill-rule="evenodd"><path fill="#fa9b00" d="M39.063 187.5V68.36h78.203c29.574 0 53.632 24.745 53.632 55.163 0 30.422-24.058 55.168-53.632 55.168h-9.395v-23.43h9.395c16.941 0 30.73-14.234 30.73-31.738 0-17.496-13.789-31.734-30.73-31.734H61.965V187.5zm0 0"/><path fill="#242a47" d="M74.191 218.75V106.035h22.711v89.05h26.563c36.785 0 66.715-31.44 66.715-70.085s-29.93-70.086-66.715-70.086h-54.13V31.25h54.13c49.308 0 89.426 42.055 89.426 93.75s-40.118 93.75-89.426 93.75zm0 0"/></g></svg>