<svg xmlns="http://www.w3.org/2000/svg" width="250" height="250"><path fill="#2196f3" d="M235.008 122.559c0 60.75-49.25 109.996-110 109.996S15.012 183.309 15.012 122.559s49.246-110 109.996-110 110 49.25 110 110zm0 0"/><g fill="#fff"><path d="M132.91 64.895H86.785a11.474 11.474 0 0 0-8.82 4.199c-.238.281-.461.574-.672.879a11.522 11.522 0 0 0 8.82 17.941l.125.14H132.7c19.031.06 34.446 15.473 34.504 34.505-.098 19-15.5 34.37-34.504 34.43h-29.582a4.83 4.83 0 0 1-4.777-4.747v4.746-22.93h35.152a11.546 11.546 0 0 0 10.367-5.628 11.547 11.547 0 0 0 0-11.797 11.546 11.546 0 0 0-10.367-5.63H86.434c-6.188.009-11.2 5.017-11.22 11.2V169c.02 6.188 5.032 11.2 11.22 11.219h46.476c31.781-.137 57.496-25.883 57.594-57.66-.098-31.782-25.813-57.528-57.594-57.664zm0 0"/><path d="M98.32 138.84a4.834 4.834 0 0 1 4.817-4.781H98.32zm0 0"/></g></svg>