<?xml version="1.0" encoding="UTF-8"?>
<svg width="56px" height="53px" viewBox="0 0 56 53" version="1.1" xmlns="http://www.w3.org/2000/svg" xmlns:xlink="http://www.w3.org/1999/xlink">
    <title>Combined Shape</title>
    <g id="Page-1" stroke="none" stroke-width="1" fill="none" fill-rule="evenodd">
        <path d="M24.3764706,31.1375 L24.3764706,39.883784 C17.1833249,39.883784 11.3309134,45.766714 11.3309134,53 L11.3309134,53 L2.63529412,53 C2.63529412,40.9452366 12.3886038,31.1375 24.3764706,31.1375 L24.3764706,31.1375 Z M24.3764706,21.8625 C12.3886038,21.8625 2.63529412,12.0559435 2.63529412,0 L2.63529412,0 L11.3309134,0 C11.3309134,7.23399413 17.1833249,13.1175 24.3764706,13.1175 L24.3764706,13.1175 L24.3764706,4.6375 L34.24538,4.6375 C46.2418337,4.6375 56,14.5921535 56,26.8301637 C56,39.068174 46.2418337,49.025 34.24538,49.025 L34.24538,49.025 L24.3764706,49.025 L24.3764706,40.1479345 L34.24538,40.1479345 C41.4543265,40.1479345 47.298152,34.1864397 47.298152,26.8301637 C47.298152,19.4760603 41.4543265,13.5145655 34.24538,13.5145655 L34.24538,13.5145655 L24.3764706,13.5145655 Z M24.3764706,21.8625 L24.3764706,30.475 L0,30.475 L0,21.8625 L24.3764706,21.8625 Z" id="Combined-Shape" fill="#001950"></path>
    </g>
</svg>
