<?xml version="1.0" encoding="utf-8"?>
<!-- Generator: Adobe Illustrator 27.7.0, SVG Export Plug-In . SVG Version: 6.00 Build 0)  -->
<svg version="1.1" id="Layer_1" xmlns="http://www.w3.org/2000/svg" xmlns:xlink="http://www.w3.org/1999/xlink" x="0px" y="0px"
	 viewBox="0 0 1920 1920" style="enable-background:new 0 0 1920 1920;" xml:space="preserve">
<style type="text/css">
	.st0{display:none;fill:#282828;}
	.st1{fill:#B8DF85;}
	.st2{fill:#242D49;}
	.st3{clip-path:url(#SVGID_00000113351967766487013990000014073044541782224275_);}
	.st4{fill:#88CA34;}
	.st5{fill:#050E2D;}
	.st6{fill:#D9E021;}
	.st7{fill:#FFFFFF;}
	.st8{fill:#C1272D;}
	.st9{fill:#E7666A;}
</style>
<rect class="st0" width="1920" height="1920"/>
<g>
	<circle class="st1" cx="960" cy="960" r="960"/>
	<g>
		<path class="st2" d="M960,1746.19c-106.13,0-209.09-20.79-306.02-61.79c-93.62-39.6-177.7-96.28-249.9-168.48
			s-128.89-156.28-168.48-249.9c-41-96.93-61.79-199.89-61.79-306.02s20.79-209.09,61.79-306.02
			c39.6-93.62,96.28-177.7,168.48-249.9s156.28-128.89,249.9-168.48c96.93-41,199.89-61.79,306.02-61.79s209.09,20.79,306.02,61.79
			c93.62,39.6,177.7,96.28,249.9,168.48s128.89,156.28,168.48,249.9c41,96.93,61.79,199.89,61.79,306.02s-20.79,209.09-61.79,306.02
			c-39.6,93.62-96.28,177.7-168.48,249.9s-156.28,128.89-249.9,168.48C1169.09,1725.4,1066.13,1746.19,960,1746.19z"/>
		<path class="st2" d="M960,180.19c430.68,0,779.81,349.13,779.81,779.81S1390.68,1739.81,960,1739.81S180.19,1390.68,180.19,960
			S529.32,180.19,960,180.19 M960,167.44c-53.77,0-107.5,5.42-159.72,16.1c-50.89,10.41-100.95,25.95-148.79,46.19
			c-46.97,19.86-92.26,44.45-134.63,73.08c-41.97,28.35-81.43,60.91-117.29,96.77c-35.86,35.86-68.42,75.32-96.77,117.29
			c-28.63,42.37-53.21,87.67-73.08,134.63c-20.23,47.84-35.77,97.9-46.19,148.79c-10.68,52.21-16.1,105.95-16.1,159.72
			s5.42,107.5,16.1,159.72c10.41,50.89,25.95,100.95,46.19,148.79c19.86,46.97,44.45,92.26,73.08,134.63
			c28.35,41.96,60.91,81.43,96.77,117.29s75.32,68.42,117.29,96.77c42.37,28.63,87.67,53.21,134.63,73.08
			c47.84,20.23,97.9,35.77,148.79,46.19c52.21,10.68,105.95,16.1,159.72,16.1s107.5-5.42,159.72-16.1
			c50.89-10.41,100.95-25.95,148.79-46.19c46.97-19.86,92.26-44.45,134.63-73.08c41.96-28.35,81.43-60.91,117.29-96.77
			c35.86-35.86,68.42-75.32,96.77-117.29c28.62-42.37,53.21-87.67,73.08-134.63c20.23-47.84,35.77-97.9,46.19-148.79
			c10.68-52.21,16.1-105.95,16.1-159.72s-5.42-107.5-16.1-159.72c-10.41-50.89-25.95-100.95-46.19-148.79
			c-19.86-46.97-44.45-92.26-73.08-134.63c-28.35-41.96-60.91-81.43-96.77-117.29c-35.86-35.86-75.32-68.42-117.29-96.77
			c-42.37-28.63-87.67-53.21-134.63-73.08c-47.84-20.23-97.9-35.77-148.79-46.19C1067.5,172.85,1013.77,167.44,960,167.44
			L960,167.44z"/>
	</g>
	<g>
		<defs>
			<path id="SVGID_1_" d="M1739.81,960c0,430.68-349.13,779.81-779.81,779.81S180.19,1390.68,180.19,960S433.68,0,960,0
				C1485.9,0,1739.81,529.32,1739.81,960z"/>
		</defs>
		<clipPath id="SVGID_00000137830595852162239200000005617685127078855605_">
			<use xlink:href="#SVGID_1_"  style="overflow:visible;"/>
		</clipPath>
		<g style="clip-path:url(#SVGID_00000137830595852162239200000005617685127078855605_);">
			<g>
				<path class="st4" d="M479.88,493.69c10.27-15.62,25.76-37.84,37.2-52.28c38.04-47.99,73.24-82.97,107.63-106.94
					c30.14-21,54.7-30.21,76.76-37.03c57.48-17.77,132.89-17.62,220.21-17.44c8.6,0.02,17.29,0.03,26.07,0.03
					c4.15,0,8.22,0.02,12.26,0.04c4.04-0.02,8.12-0.04,12.26-0.04c8.77,0,17.47-0.02,26.07-0.03
					c87.32-0.18,162.74-0.33,220.21,17.44c22.06,6.82,46.62,16.03,76.76,37.03c34.39,23.96,69.59,58.94,107.63,106.94
					c11.44,14.44,26.93,36.66,37.2,52.28c2.72,4.14,5.45,8.52,8.33,13.16c0.62,1,1.25,2.01,1.88,3.01
					c-8.84-48.66-21-92.88-36.2-131.61c-11.22-28.6-27.08-57.89-48.49-89.53l-1.15-1.7l1.38-1.52c6.6-7.28,11.01-17.14,12.75-28.51
					c1.44-9.41,1.14-19.65-0.95-32.24c-2.49-15.04-6.44-26.19-12.45-35.1c-11.94-17.71-24.64-29.05-42.48-37.91
					c-10.15-5.04-22.24-7.55-36.58-7.55c-8.23,0-17.2,0.83-26.96,2.47c-21.29,3.59-41.44,12.43-58.26,25.55l-1.83,1.42l-1.64-1.64
					c-35.4-35.4-64.22-50.83-110.13-58.97c-38.43-6.81-85.37-9.55-127.34-7.92c-41.97-1.63-88.92,1.12-127.34,7.92
					c-45.91,8.13-74.73,23.56-110.13,58.97l-1.64,1.64l-1.83-1.42c-16.82-13.12-36.96-21.95-58.26-25.55
					c-9.77-1.65-18.74-2.47-26.96-2.47c-14.34,0-26.43,2.51-36.58,7.55c-17.84,8.86-30.54,20.2-42.48,37.91
					c-6,8.91-9.96,20.07-12.45,35.1c-2.08,12.59-2.38,22.83-0.95,32.24c1.74,11.37,6.14,21.23,12.75,28.51l1.38,1.52l-1.15,1.7
					c-21.41,31.65-37.27,60.93-48.49,89.53c-15.2,38.73-27.36,82.95-36.2,131.61c0.63-1.01,1.26-2.02,1.88-3.01
					C474.43,502.21,477.16,497.83,479.88,493.69z"/>
				<path class="st4" d="M1328.58,1242.74c-104.01,42.27-218.76,63.95-341.05,64.36c-1.41,0.03-2.79,0.03-4.2,0.03
					c-7.83,0-15.6-0.1-23.33-0.26c-7.73,0.16-15.49,0.26-23.33,0.26c-1.41,0-2.79,0-4.2-0.03
					c-122.29-0.41-237.04-22.08-341.05-64.36c-17.77-7.22-39.1-16.77-60.14-29.81c-28.75,0.68-57.37,2.4-81.48,17.75
					c-21.45,13.65-36.26,36.62-41.93,61.41c-5.67,24.78-2.56,51.16,6.7,74.84c2.1,5.36,4.8,10.94,9.79,13.81
					c2.35,1.35,4.92,1.93,7.55,1.93c5.45,0,11.14-2.5,15.6-5.89c6.01-4.57,10.81-10.6,16.8-15.16c2.81-3.06,4.8-5.87,6.13-9.46
					l0.07-0.2c0.92-2.48,2.31-6.22-0.36-12.51l-6.4-15.09l14.88,6.88c0.83,0.38,1.56,0.74,2.23,1.07c2.96,1.46,3.49,1.72,7.98,1.15
					c6.65-0.84,13.23-3.87,19.59-6.8c4.28-1.97,8.71-4.01,11.42-7.17c2.03-2.37,2.74-5.71,1.58-7.46l-8.37-12.63l14.86,2.94
					c12.02,2.38,24.94-0.16,35.45-6.97c10.38-6.72,18.13-17.43,21.28-29.39c0.89-3.38,4.34-5.4,7.72-4.5
					c3.38,0.89,5.39,4.35,4.5,7.72c-3.94,14.96-13.65,28.37-26.64,36.78c-10.63,6.88-23.24,10.29-35.68,9.82
					c-0.36,4.15-2.09,8.37-5.11,11.9c-4.51,5.27-10.73,8.13-15.74,10.44c-6.9,3.17-14.72,6.77-23.3,7.85
					c-2.43,0.31-4.39,0.4-6.07,0.32c0,4.7-1.27,8.11-1.98,10.03l-0.07,0.19c-1.69,4.58-4.08,8.26-7.06,11.77
					c17.29,13.93,38.55,24.08,60.64,30.82c26.15,7.98,53.49,11.39,80.78,12.96c-4.21,38.06-6.41,77.25-5.24,116.35
					c-32.65,34.1-54.68,77.6-60.9,123.37c-3.56,26.2-1.85,53.3,6.66,78.37c8.51,25.07,23.95,48.01,45.1,63.94
					c7.43,5.6,16.37,10.45,25.44,10.45c1.84,0,3.68-0.2,5.52-0.63c9.79-2.31,16.82-10.63,23.13-18.48
					c1.17,12.53,8.42,24.97,19.4,31.75c3.76,2.32,8.07,4.02,12.45,4.02c0.56,0,1.13-0.03,1.7-0.09c5.52-0.57,10.41-4.02,13.93-8.31
					c3.52-4.29,5.85-9.4,8.15-14.45c0.07,5.6,1.21,11.28,4.06,16.1c2.85,4.82,7.54,8.69,13.03,9.81c1.01,0.21,2.05,0.31,3.09,0.31
					c4.58,0,9.19-1.99,11.86-5.69c2.74-3.8,3.21-8.73,3.45-13.41c4.31,8.65,11.99,15.57,21.04,18.96c3.12,1.17,6.49,1.92,9.81,1.92
					c2.46,0,4.9-0.41,7.18-1.36c4.83-2.02,8.43-6.22,11.14-10.71c9.32-15.48,8.86-34.32,8.9-52.39
					c17.39,5.98,35.64,9.96,53.29,13.19c27.83,5.09,56.38,7.59,85,7.59c5.38,0,10.77-0.09,16.16-0.27
					c5.38,0.18,10.77,0.27,16.16,0.27c28.62,0,57.17-2.5,85-7.59c17.65-3.23,35.9-7.21,53.29-13.19c0.04,18.07-0.43,36.91,8.9,52.39
					c2.7,4.49,6.3,8.69,11.14,10.71c2.28,0.95,4.71,1.36,7.18,1.36c3.32,0,6.69-0.75,9.81-1.92c9.05-3.39,16.73-10.31,21.04-18.96
					c0.25,4.68,0.71,9.61,3.45,13.41c2.67,3.7,7.28,5.69,11.86,5.69c1.04,0,2.08-0.1,3.09-0.31c5.48-1.12,10.18-4.99,13.03-9.81
					c2.85-4.82,3.99-10.5,4.06-16.1c2.3,5.05,4.63,10.16,8.15,14.45c3.52,4.29,8.41,7.73,13.93,8.31c0.57,0.06,1.13,0.09,1.7,0.09
					c4.38,0,8.69-1.7,12.45-4.02c10.98-6.77,18.23-19.22,19.4-31.75c6.3,7.84,13.34,16.16,23.13,18.48
					c1.84,0.43,3.68,0.63,5.52,0.63c9.06,0,18-4.85,25.44-10.45c21.15-15.93,36.59-38.87,45.1-63.94
					c8.51-25.07,10.22-52.17,6.66-78.37c-6.22-45.77-28.25-89.27-60.9-123.37c1.17-39.09-1.03-78.29-5.24-116.35
					c27.29-1.57,54.63-4.98,80.78-12.96c22.09-6.74,43.35-16.89,60.64-30.82c-2.97-3.51-5.36-7.19-7.06-11.77l-0.07-0.19
					c-0.71-1.92-1.98-5.33-1.98-10.03c-1.68,0.08-3.65-0.01-6.07-0.32c-8.58-1.08-16.4-4.68-23.3-7.85
					c-5-2.31-11.23-5.17-15.74-10.44c-3.02-3.53-4.75-7.75-5.11-11.9c-12.44,0.47-25.05-2.94-35.68-9.82
					c-12.99-8.41-22.7-21.82-26.64-36.78c-0.89-3.38,1.13-6.83,4.5-7.72c3.38-0.89,6.83,1.13,7.72,4.5
					c3.15,11.96,10.9,22.67,21.28,29.39c10.51,6.8,23.43,9.34,35.45,6.97l14.86-2.94l-8.37,12.63c-1.16,1.74-0.45,5.09,1.58,7.46
					c2.7,3.16,7.13,5.2,11.42,7.17c6.36,2.93,12.94,5.96,19.59,6.8c4.49,0.57,5.02,0.3,7.98-1.15c0.67-0.33,1.4-0.69,2.23-1.07
					l14.88-6.88l-6.4,15.09c-2.67,6.29-1.28,10.04-0.36,12.51l0.07,0.2c1.33,3.59,3.32,6.4,6.13,9.46
					c5.99,4.56,10.79,10.59,16.8,15.16c4.45,3.39,10.15,5.89,15.6,5.89c2.63,0,5.21-0.58,7.55-1.93c4.99-2.87,7.69-8.45,9.79-13.81
					c9.26-23.68,12.36-50.06,6.7-74.84c-5.67-24.78-20.48-47.75-41.93-61.41c-24.1-15.34-52.73-17.07-81.48-17.75
					C1367.68,1225.97,1346.35,1235.53,1328.58,1242.74z"/>
				<path class="st4" d="M1526.92,700.09c-13.28-59.28-34.97-113.73-64.47-161.85c-30.21-49.3-64.23-96.82-93.32-130.38
					c-11.89-13.72-74.91-83.19-147.56-104.12c-60.67-17.49-124.43-18.36-186.48-18.36c-3.48,0-6.96,0-10.43,0
					c-11.16,0-22.21,0.03-33.18-0.06c-10.47-0.08-20.97,0-31.48,0.14c-10.51-0.14-21.01-0.22-31.48-0.14
					c-10.96,0.09-22.02,0.06-33.18,0.06c-3.47,0-6.95,0-10.43,0c-62.05,0-125.81,0.87-186.48,18.36
					c-72.65,20.93-135.67,90.41-147.56,104.12c-29.09,33.56-63.12,81.08-93.32,130.38c-29.5,48.12-51.19,102.57-64.47,161.85
					c-36.04,160.85-7.78,324.89,77.54,450c32.04,47.01,85.42,72.62,122.78,87.8c103.39,42.04,217.48,63.56,339.11,64
					c1.38,0,2.79,0,4.17,0c7.83,0,15.6-0.1,23.33-0.26c7.72,0.16,15.49,0.26,23.33,0.26c1.38,0,2.79,0,4.17,0
					c121.63-0.43,235.71-21.96,339.11-64c37.36-15.17,90.74-40.79,122.78-87.8C1534.7,1024.98,1562.96,860.94,1526.92,700.09z"/>
				<path class="st4" d="M1448.09,1632.83c22.58-31.28,37.08-65.13,40.84-95.32c4.06-32.62,6.28-65.48-10.41-108.22
					c-30.59,25.97-46.94,38.08-74,54.96c-35.48,22.14-51.93,32.07-90.33,47.65c15.69,24.55,31.84,52.02,44.76,86.11
					c15.04,39.68,16.51,64.47,15.9,76.31C1403.57,1680.36,1429.45,1658.65,1448.09,1632.83z"/>
			</g>
			<path class="st5" d="M1483.02,1210.53c-10.32-6.57-21.2-11.07-32.22-14.19c8.64-8.73,16.74-18.34,23.97-28.94
				c90.08-132.13,120.02-304.91,82.13-474.02c-14.02-62.59-36.98-120.19-68.25-171.2c-2.29-3.73-4.59-7.45-6.92-11.15
				c-9.28-53.23-22.38-101.65-39-143.99c-10.17-25.93-23.79-52.23-41.43-79.96c3.7-7.78,6.29-16.35,7.68-25.46
				c1.91-12.53,1.58-26.23-1.01-41.89c-3.23-19.54-8.72-34.56-17.28-47.26c-14.91-22.13-31.66-37.02-54.29-48.26
				c-21.99-10.92-48.92-13.49-82.32-7.86c-18.18,3.07-35.71,9.24-51.67,18.13c-33.28-29.19-64.88-43.77-109.71-51.72h0
				c-39.99-7.08-88.8-9.99-132.7-8.39c-43.91-1.6-92.71,1.31-132.7,8.39h0c-44.83,7.94-76.43,22.53-109.71,51.72
				c-15.96-8.89-33.48-15.06-51.67-18.13c-33.4-5.64-60.33-3.07-82.32,7.86c-22.63,11.24-39.37,26.13-54.29,48.26
				c-8.55,12.7-14.04,27.71-17.28,47.26c-2.59,15.66-2.92,29.36-1.01,41.89c1.39,9.11,3.99,17.67,7.68,25.46
				c-17.64,27.73-31.25,54.03-41.43,79.96c-16.61,42.34-29.72,90.76-39,143.99c-2.33,3.7-4.63,7.42-6.92,11.15
				c-31.27,51.01-54.23,108.61-68.25,171.2c-37.88,169.12-7.95,341.89,82.13,474.02c7.23,10.6,15.32,20.21,23.97,28.94
				c-11.02,3.12-21.91,7.63-32.22,14.19c-26,16.55-45.09,44.34-52.38,76.23c-6.43,28.11-3.68,59.67,7.74,88.86
				c3.35,8.56,8.66,19.22,20.13,25.81c5.81,3.34,12.54,5.11,19.46,5.11c10.26,0,20.94-3.82,30.06-10.77
				c1.7-1.29,3.27-2.61,4.74-3.93c17.43,12.64,38.56,22.9,62.2,30.12c18.47,5.64,38.45,9.54,61.61,11.97
				c-2.55,29.76-3.62,58.37-3.19,85.41c-32.76,37.02-54.12,82.54-60.47,129.23c-4.22,31.09-1.56,61.96,7.71,89.27
				c10.34,30.46,29.29,57.22,53.35,75.34c13.44,10.12,26.83,15.26,39.8,15.26c3.73,0,7.43-0.43,11.01-1.27
				c3.24-0.77,6.26-1.84,9.08-3.14c4.4,5.3,9.6,9.9,15.42,13.49c8.15,5.03,16.56,7.58,24.99,7.58c1.39,0,2.79-0.07,4.17-0.22
				c5.3-0.55,10.46-2.16,15.26-4.72c4.97,3.69,10.64,6.28,16.66,7.51c2.57,0.53,5.22,0.79,7.88,0.79c7.15,0,14.02-1.9,19.92-5.36
				c2.59,1.43,5.28,2.67,8.05,3.71c6.08,2.28,12.2,3.43,18.19,3.43c5.77,0,11.28-1.08,16.38-3.2c8.95-3.73,16.48-10.61,22.4-20.43
				c6.55-10.89,9.62-22.26,11.05-33.46c9.6,2.26,18.6,4.01,26.38,5.44c28.96,5.3,59,7.98,89.3,7.98c5.35,0,10.78-0.09,16.16-0.26
				c5.37,0.17,10.8,0.26,16.16,0.26c30.3,0,60.34-2.69,89.3-7.98c7.78-1.42,16.78-3.17,26.38-5.44
				c1.43,11.21,4.49,22.58,11.05,33.46c5.91,9.82,13.45,16.7,22.4,20.43c5.1,2.13,10.6,3.2,16.38,3.2c5.99,0,12.11-1.16,18.19-3.43
				c2.77-1.04,5.46-2.28,8.05-3.71c5.89,3.45,12.77,5.36,19.92,5.36c2.65,0,5.3-0.27,7.88-0.79c6.01-1.23,11.68-3.82,16.66-7.51
				c4.8,2.56,9.95,4.17,15.26,4.72c1.37,0.14,2.78,0.22,4.17,0.22c8.43,0,16.84-2.55,24.99-7.58c5.82-3.59,11.02-8.18,15.42-13.49
				c2.82,1.3,5.84,2.37,9.08,3.14c3.58,0.85,7.28,1.27,11.01,1.27c12.97,0,26.36-5.13,39.8-15.26c24.06-18.12,43-44.87,53.35-75.34
				c3.85-11.34,6.54-23.3,8.09-35.63c26.28-14.97,49.78-35.88,67.33-60.19c24.1-33.39,39.62-69.82,43.69-102.59
				c4.43-35.62,6.78-71.56-12.8-119.47l-5.51-13.47c0.62,0.03,1.24,0.04,1.86,0.04c6.91,0,13.64-1.77,19.46-5.11
				c11.47-6.59,16.78-17.26,20.13-25.81c11.42-29.19,14.16-60.75,7.74-88.86C1528.11,1254.86,1509.02,1227.08,1483.02,1210.53z
				 M505.87,378.25c11.22-28.6,27.08-57.89,48.49-89.53l1.15-1.7l-1.38-1.52c-6.6-7.28-11.01-17.14-12.75-28.51
				c-1.44-9.41-1.14-19.65,0.95-32.24c2.49-15.04,6.44-26.19,12.45-35.1c11.94-17.71,24.64-29.05,42.48-37.91
				c10.15-5.04,22.24-7.55,36.58-7.55c8.23,0,17.2,0.83,26.96,2.47c21.29,3.59,41.44,12.43,58.26,25.55l1.83,1.42l1.64-1.64
				c35.4-35.4,64.22-50.83,110.13-58.97c38.43-6.81,85.37-9.55,127.34-7.92c41.97-1.63,88.92,1.12,127.34,7.92
				c45.91,8.13,74.73,23.56,110.13,58.97l1.64,1.64l1.83-1.42c16.82-13.12,36.96-21.95,58.26-25.55c9.77-1.65,18.74-2.47,26.96-2.47
				c14.34,0,26.43,2.51,36.58,7.55c17.84,8.86,30.54,20.2,42.48,37.91c6,8.91,9.96,20.07,12.45,35.1
				c2.08,12.59,2.38,22.83,0.95,32.24c-1.74,11.37-6.14,21.23-12.75,28.51l-1.38,1.52l1.15,1.7c21.41,31.65,37.27,60.93,48.49,89.53
				c15.2,38.73,27.36,82.95,36.2,131.61c-0.63-1.01-1.26-2.02-1.88-3.01c-2.89-4.64-5.61-9.02-8.33-13.16
				c-10.27-15.62-25.76-37.84-37.2-52.28c-38.04-47.99-73.24-82.97-107.63-106.94c-30.14-21-54.7-30.21-76.76-37.03
				c-57.48-17.77-132.89-17.62-220.21-17.44c-8.6,0.02-17.29,0.03-26.07,0.03c-4.15,0-8.22,0.02-12.26,0.04
				c-4.04-0.02-8.12-0.04-12.26-0.04c-8.77,0-17.47-0.02-26.07-0.03c-87.32-0.18-162.74-0.33-220.21,17.44
				c-22.06,6.82-46.62,16.03-76.76,37.03c-34.39,23.96-69.59,58.94-107.63,106.94c-11.44,14.44-26.93,36.66-37.2,52.28
				c-2.72,4.14-5.45,8.52-8.33,13.16c-0.62,1-1.25,2.01-1.88,3.01C478.51,461.2,490.67,416.98,505.87,378.25z M393.08,700.09
				c13.28-59.28,34.97-113.73,64.47-161.85c30.21-49.3,64.23-96.82,93.32-130.38c11.89-13.72,74.91-83.19,147.56-104.12
				c60.67-17.49,124.43-18.36,186.48-18.36c3.48,0,6.96,0,10.43,0c11.16,0,22.21,0.03,33.18-0.06c10.47-0.08,20.97,0,31.48,0.14
				c10.51-0.14,21.01-0.22,31.48-0.14c10.96,0.09,22.02,0.06,33.18,0.06c3.47,0,6.95,0,10.43,0c62.05,0,125.81,0.87,186.48,18.36
				c72.65,20.93,135.67,90.41,147.56,104.12c29.09,33.56,63.12,81.08,93.32,130.38c29.5,48.12,51.19,102.57,64.47,161.85
				c36.04,160.85,7.78,324.89-77.54,450c-32.04,47.01-85.42,72.62-122.78,87.8c-103.39,42.04-217.48,63.56-339.11,64
				c-1.38,0-2.79,0-4.17,0c-7.83,0-15.6-0.1-23.33-0.26c-7.72,0.16-15.49,0.26-23.33,0.26c-1.38,0-2.79,0-4.17,0
				c-121.63-0.43-235.71-21.96-339.11-64c-37.36-15.17-90.74-40.79-122.78-87.8C385.3,1024.98,357.04,860.94,393.08,700.09z
				 M796.66,1814.3c-2.7,4.49-6.3,8.69-11.14,10.71c-2.28,0.95-4.71,1.36-7.18,1.36c-3.32,0-6.69-0.75-9.81-1.92
				c-9.05-3.39-16.73-10.31-21.04-18.96c-0.25,4.68-0.71,9.61-3.45,13.41c-2.67,3.7-7.28,5.69-11.86,5.69
				c-1.04,0-2.08-0.1-3.09-0.31c-5.48-1.12-10.18-4.99-13.03-9.81c-2.85-4.82-3.99-10.5-4.06-16.1c-2.3,5.05-4.63,10.16-8.15,14.45
				c-3.52,4.29-8.41,7.73-13.93,8.31c-0.57,0.06-1.13,0.09-1.7,0.09c-4.38,0-8.69-1.7-12.45-4.02
				c-10.98-6.77-18.23-19.22-19.4-31.75c-6.3,7.84-13.34,16.16-23.13,18.48c-1.84,0.43-3.68,0.63-5.52,0.63
				c-9.06,0-18-4.85-25.44-10.45c-21.15-15.93-36.59-38.87-45.1-63.94c-8.51-25.07-10.22-52.17-6.66-78.37
				c6.22-45.77,28.25-89.27,60.9-123.37c-1.17-39.09,1.03-78.29,5.24-116.35c-27.29-1.57-54.63-4.98-80.78-12.96
				c-22.09-6.74-43.35-16.89-60.64-30.82c2.97-3.51,5.36-7.19,7.06-11.77l0.07-0.19c0.71-1.92,1.98-5.33,1.98-10.03
				c1.68,0.08,3.65-0.01,6.07-0.32c8.58-1.08,16.4-4.68,23.3-7.85c5-2.31,11.23-5.17,15.74-10.44c3.02-3.53,4.75-7.75,5.11-11.9
				c12.44,0.47,25.05-2.94,35.68-9.82c12.99-8.41,22.7-21.82,26.64-36.78c0.89-3.38-1.13-6.83-4.5-7.72
				c-3.38-0.89-6.83,1.13-7.72,4.5c-3.15,11.96-10.9,22.67-21.28,29.39c-10.51,6.8-23.43,9.34-35.45,6.97l-14.86-2.94l8.37,12.63
				c1.16,1.74,0.45,5.09-1.58,7.46c-2.7,3.16-7.13,5.2-11.42,7.17c-6.36,2.93-12.94,5.96-19.59,6.8c-4.49,0.57-5.02,0.3-7.98-1.15
				c-0.67-0.33-1.4-0.69-2.23-1.07l-14.88-6.88l6.4,15.09c2.67,6.29,1.28,10.04,0.36,12.51l-0.07,0.2c-1.33,3.59-3.32,6.4-6.13,9.46
				c-5.99,4.56-10.79,10.59-16.8,15.16c-4.45,3.39-10.15,5.89-15.6,5.89c-2.63,0-5.21-0.58-7.55-1.93
				c-4.99-2.87-7.69-8.45-9.79-13.81c-9.26-23.68-12.36-50.06-6.7-74.84c5.67-24.78,20.48-47.75,41.93-61.41
				c24.1-15.34,52.73-17.07,81.48-17.75c21.04,13.05,42.37,22.6,60.14,29.81c95.99,39.02,201.15,60.47,312.93,63.87
				c-7.43,1.12-14.99,2.42-22.7,3.96c-37.59,7.47-64.63,18.86-82.68,34.82c-58.81,52.02-62.71,117.18-65.3,160.29l-0.02,0.26
				c-3.1,51.81,8.78,116.99,12.49,135.73c7.59,38.31,30.28,93.24,58.93,124.11l0.47,0.5
				C805.53,1782.99,805.23,1800.06,796.66,1814.3z M1108.61,1758.11c-50.09,14.89-99.75,21.52-148.61,19.95
				c-48.86,1.57-98.52-5.06-148.61-19.95c-26.71-29.42-48.53-82.7-55.59-118.35c-3.66-18.45-15.36-82.59-12.32-133.23l0.02-0.26
				c2.49-41.49,6.24-104.19,62-153.51c16.71-14.78,42.25-25.43,78.08-32.55c27.23-5.41,52.52-8.18,76.43-8.33
				c23.91,0.16,49.21,2.92,76.43,8.33c35.83,7.12,61.37,17.77,78.08,32.55c55.75,49.32,59.51,112.02,62,153.51l0.02,0.26
				c3.03,50.64-8.67,114.78-12.32,133.23C1157.14,1675.41,1135.32,1728.68,1108.61,1758.11z M1488.93,1537.51
				c-3.75,30.19-18.26,64.04-40.84,95.32c-14.16,19.62-32.51,36.84-53.09,50.13c0.32-11.31-0.3-22.82-1.87-34.37
				c-6.15-45.27-26.42-89.44-57.5-125.82c24.6-11.1,40.77-20.97,68.89-38.51c27.06-16.89,43.41-29,74-54.96
				C1495.21,1472.03,1492.98,1504.89,1488.93,1537.51z M1337.82,1515.17c2.26-9.79,6.8-31.08,6.75-44.33
				c15.18,4.5,26.09,10.46,40.21,19.53C1368.73,1500.07,1353.48,1508.11,1337.82,1515.17z M1392.15,1453.22
				c13.14,1.31,22.67,2.64,37.5,7.25c-14.43,10.37-27.73,19.33-40.47,27.2C1394.71,1469.98,1393.53,1460.93,1392.15,1453.22z
				 M1471.1,1414.96c-15.34,13.07-26.98,22.54-37.29,30.34c-17.24-5.31-28.15-6.58-43.59-8.07l-17.09-1.65l2.91,16.92
				c0.13,0.75,0.26,1.5,0.4,2.25c0.73,4.01,1.4,7.72,1.01,12.87c-9.93-5.44-19.67-9.53-32.24-12.93l-14.48-3.92
				c-0.38-5.57-0.79-11.16-1.28-16.81c23.16-2.44,43.13-6.34,61.61-11.97c23.64-7.22,44.77-17.48,62.2-30.12
				c1.47,1.31,3.05,2.64,4.74,3.93c7.21,5.48,15.38,9.01,23.56,10.26L1471.1,1414.96z M1505.42,1366.92
				c-2.1,5.36-4.8,10.94-9.79,13.81c-2.35,1.35-4.92,1.93-7.55,1.93c-5.45,0-11.14-2.5-15.6-5.89c-6.01-4.57-10.81-10.6-16.8-15.16
				c-2.81-3.06-4.8-5.87-6.13-9.46l-0.07-0.2c-0.92-2.48-2.31-6.22,0.36-12.51l6.4-15.09l-14.88,6.88
				c-0.83,0.38-1.56,0.74-2.23,1.07c-2.96,1.46-3.49,1.72-7.98,1.15c-6.65-0.84-13.23-3.87-19.59-6.8
				c-4.28-1.97-8.71-4.01-11.42-7.17c-2.03-2.37-2.74-5.71-1.58-7.46l8.37-12.63l-14.86,2.94c-12.02,2.38-24.94-0.16-35.45-6.97
				c-10.38-6.72-18.13-17.43-21.28-29.39c-0.89-3.38-4.34-5.4-7.72-4.5c-3.38,0.89-5.39,4.35-4.5,7.72
				c3.94,14.96,13.65,28.37,26.64,36.78c10.63,6.88,23.24,10.29,35.68,9.82c0.36,4.15,2.09,8.37,5.11,11.9
				c4.51,5.27,10.73,8.13,15.74,10.44c6.9,3.17,14.72,6.77,23.3,7.85c2.43,0.31,4.39,0.4,6.07,0.32c0,4.7,1.27,8.11,1.98,10.03
				l0.07,0.19c1.69,4.58,4.08,8.26,7.06,11.77c-17.29,13.93-38.55,24.08-60.64,30.82c-26.15,7.98-53.49,11.39-80.78,12.96
				c3.8,34.39,5.94,69.71,5.46,105.04l0,0c0,0.01,0,0.02,0,0.03c-0.05,3.76-0.11,7.52-0.22,11.28c2.06,2.16,4.08,4.35,6.06,6.58
				c0,0,0,0,0.01,0.01c1.98,2.23,3.91,4.49,5.8,6.79c25.71,31.29,43.07,68.88,48.77,108.22c0,0,0,0,0,0
				c0.09,0.59,0.18,1.18,0.26,1.78c0.2,1.5,0.38,3,0.55,4.5c0.05,0.48,0.1,0.97,0.15,1.45c0.11,1.03,0.21,2.06,0.3,3.09
				c0.05,0.56,0.1,1.13,0.14,1.69c0.08,0.98,0.15,1.97,0.21,2.95c0.04,0.55,0.07,1.11,0.1,1.66c0.06,1.17,0.11,2.34,0.16,3.51
				c0.02,0.44,0.04,0.87,0.05,1.31c0.04,1.35,0.06,2.71,0.07,4.07c0,0.65,0,1.29,0,1.94c0,0.85-0.01,1.69-0.02,2.54
				c-0.01,0.72-0.03,1.45-0.05,2.17c-0.02,0.77-0.05,1.53-0.08,2.3c-0.03,0.76-0.06,1.51-0.11,2.27c-0.04,0.74-0.09,1.47-0.14,2.21
				c-0.1,1.44-0.21,2.87-0.35,4.31c-0.06,0.66-0.12,1.31-0.18,1.97c-0.09,0.86-0.2,1.71-0.3,2.57c-0.07,0.61-0.15,1.22-0.23,1.83
				c-0.11,0.87-0.24,1.74-0.37,2.6c-0.09,0.58-0.18,1.16-0.27,1.74c-0.14,0.89-0.28,1.78-0.44,2.67c-0.09,0.51-0.19,1.01-0.28,1.52
				c-0.41,2.21-0.86,4.41-1.36,6.6l0,0c-1.16,5.04-2.55,10.02-4.22,14.92c-8.51,25.07-23.95,48.01-45.1,63.94
				c-7.43,5.6-16.37,10.45-25.44,10.45c-1.84,0-3.68-0.2-5.52-0.63c-9.79-2.31-16.82-10.63-23.13-18.48
				c-1.17,12.53-8.42,24.97-19.4,31.75c-3.76,2.32-8.07,4.02-12.45,4.02c-0.56,0-1.13-0.03-1.7-0.09
				c-5.52-0.57-10.41-4.02-13.93-8.31c-3.52-4.29-5.85-9.4-8.15-14.45c-0.07,5.6-1.21,11.28-4.06,16.1
				c-2.85,4.82-7.54,8.69-13.03,9.81c-1.01,0.21-2.05,0.31-3.09,0.31c-4.58,0-9.19-1.99-11.86-5.69c-2.74-3.8-3.21-8.73-3.45-13.41
				c-4.31,8.65-11.99,15.57-21.04,18.96c-3.12,1.17-6.49,1.92-9.81,1.92c-2.46,0-4.9-0.41-7.18-1.36
				c-4.83-2.02-8.43-6.22-11.14-10.71c-8.57-14.24-8.87-31.31-8.89-48.02l0.47-0.5c28.66-30.87,51.34-85.8,58.93-124.11
				c3.72-18.74,15.6-83.92,12.49-135.73l-0.02-0.26c-2.58-43.11-6.49-108.27-65.3-160.29c-18.05-15.97-45.09-27.36-82.68-34.82
				c-7.72-1.53-15.27-2.84-22.7-3.96c111.78-3.4,216.93-24.85,312.93-63.87c17.77-7.22,39.1-16.77,60.14-29.81
				c28.75,0.68,57.37,2.4,81.48,17.75c21.45,13.65,36.26,36.62,41.93,61.41C1517.78,1316.87,1514.68,1343.25,1505.42,1366.92z"/>
			<g>
				<path class="st6" d="M1392.15,1453.22c1.37,7.71,2.55,16.76-2.97,34.45c12.74-7.88,26.04-16.83,40.47-27.2
					C1414.82,1455.86,1405.3,1454.53,1392.15,1453.22z"/>
				<path class="st6" d="M1344.57,1470.84c0.04,13.26-4.49,34.55-6.75,44.33c15.66-7.07,30.91-15.1,46.97-24.81
					C1370.66,1481.3,1359.75,1475.34,1344.57,1470.84z"/>
			</g>
			<g id="mouth_00000183214197015396064940000004958399080369809561_">
				<path class="st5" d="M1363.24,747.56c-4.21-0.74-8.3,1.78-9.53,5.88c-11.94,39.73-39.3,76.01-77.06,102.18
					c-10.34,7.17-23.71,10.92-38.65,10.77c-10-0.08-19.9-1.39-30.39-2.78c-4.86-0.64-9.88-1.31-14.88-1.84
					c-18.96-2-35.07-0.86-49.26,3.49c-54.92,16.82-109.9,20.83-156.45,22.54c-9.21,0.34-18.21,0.45-27.02,0.33
					c-8.81,0.12-17.82,0.01-27.02-0.33c-46.54-1.71-101.53-5.72-156.45-22.54c-14.19-4.34-30.3-5.48-49.26-3.49
					c-5,0.53-10.03,1.19-14.88,1.84c-10.49,1.39-20.39,2.7-30.39,2.78c-14.94,0.15-28.31-3.61-38.65-10.77
					c-37.75-26.16-65.12-62.45-77.06-102.18c-1.23-4.09-5.32-6.61-9.53-5.88c-4.21,0.74-7.2,4.51-6.95,8.78
					c0.32,5.68,8.06,139.77,24.32,206.69c0.73,3.01,1.43,5.94,2.12,8.8c13.41,55.79,21.5,89.47,93.2,147.61
					c99.69,80.84,207.48,85.9,272.48,85.9c4.92,0,9.6-0.03,14.01-0.06c1.38-0.01,2.73-0.02,4.06-0.02c1.33,0.01,2.68,0.02,4.06,0.02
					c4.41,0.03,9.09,0.06,14.01,0.06c65,0,172.79-5.06,272.48-85.9c71.7-58.14,79.79-91.81,93.2-147.61c0.69-2.87,1.39-5.8,2.12-8.8
					c16.25-66.92,24-201.01,24.32-206.69C1370.44,752.07,1367.45,748.3,1363.24,747.56z"/>
				<g>
					<path class="st7" d="M1320.52,888.16c-3.64,15.34-9.94,31.01-19.69,48.89c-5.88-25.16-15.92-48.42-28.72-66.43
						c16.58-8,28.32-18.49,47.08-37.34C1324.55,849.25,1325.07,868.99,1320.52,888.16z"/>
					<path class="st7" d="M1117.83,883.4c0.81-0.19,1.61-0.38,2.33-0.55c-3.02,27.92-16.25,58.46-35.93,82.86
						c-18.29-16.9-33.19-42.21-41.33-70.26c15.48-1.13,23.92-2.51,30.79-3.64c2.29-0.38,4.4-0.72,6.54-1.02
						C1095.21,888.74,1109.92,885.27,1117.83,883.4z"/>
					<path class="st7" d="M599.48,888.16c3.64,15.34,9.94,31.01,19.69,48.89c5.88-25.16,15.92-48.42,28.72-66.43
						c-16.58-8-28.32-18.49-47.08-37.34C595.45,849.25,594.93,868.99,599.48,888.16z"/>
					<path class="st7" d="M802.17,883.4c-0.81-0.19-1.61-0.38-2.33-0.55c3.02,27.92,16.25,58.46,35.93,82.86
						c18.29-16.9,33.19-42.21,41.33-70.26c-15.48-1.13-23.92-2.51-30.79-3.64c-2.29-0.38-4.4-0.72-6.54-1.02
						C824.79,888.74,810.08,885.27,802.17,883.4z"/>
				</g>
				<path class="st8" d="M1160.19,1045.78c-27.46-16.73-59.79-34.89-96.06-38.48c-31.08-3.08-80.09,6.57-104.13,31.64
					c-24.04-25.07-73.05-34.72-104.13-31.64c-36.27,3.59-68.6,21.75-96.06,38.48c-30.33,18.49-61.24,39.72-81.97,69.56
					c106.38,84.44,221.04,81.82,282.16,81.49c61.13,0.33,175.78,2.95,282.16-81.49C1221.43,1085.5,1190.52,1064.28,1160.19,1045.78z
					"/>
				<path class="st9" d="M1155.07,1054.18c-28.46-17.35-58.74-33.81-91.91-37.1c-33.17-3.29-87.27,8.94-103.16,38.24
					c-15.89-29.3-69.99-41.52-103.16-38.24c-33.17,3.29-63.45,19.75-91.91,37.1c-29.77,18.15-59.77,38.84-79.32,67.18
					c104.15,78.3,214.75,75.79,274.38,75.46c59.64,0.33,170.23,2.84,274.38-75.46C1214.84,1093.03,1184.84,1072.33,1155.07,1054.18z
					"/>
			</g>
			<g id="nose_00000035514417953421269310000015325806636038896519_">
				<path id="nose_00000052083470965921791390000011252158712214480827_" class="st5" d="M760.15,440.05
					c-3.02-16.9-10.51-32.74-21.67-45.8c-2.96-3.47-7.06-7.82-12.45-10.64c-5.63-2.96-11.84-3.63-17.02-1.85
					c-6.83,2.34-12.17,9.07-13.94,17.55c-1.42,6.8-0.71,13.6-0.08,19.6l0.1,0.98c1.89,18.24,8.66,35.67,19.59,50.4
					c3.66,4.94,8.81,10.86,16.17,12.82c1.67,0.44,3.33,0.65,4.96,0.65c9.28,0,17.68-6.67,21.53-14.11
					C761.39,461.81,762.31,452.13,760.15,440.05z"/>
				<path id="nose_00000010309184849611979990000013184513962010832826_" class="st5" d="M1159.85,440.05
					c3.02-16.9,10.51-32.74,21.67-45.8c2.96-3.47,7.06-7.82,12.45-10.64c5.63-2.96,11.84-3.63,17.02-1.85
					c6.83,2.34,12.17,9.07,13.94,17.55c1.42,6.8,0.71,13.6,0.08,19.6l-0.1,0.98c-1.89,18.24-8.66,35.67-19.59,50.4
					c-3.66,4.94-8.81,10.86-16.17,12.82c-1.67,0.44-3.33,0.65-4.96,0.65c-9.28,0-17.68-6.67-21.53-14.11
					C1158.61,461.81,1157.69,452.13,1159.85,440.05z"/>
			</g>
			<g id="eyes_00000181045679049062215050000013177906330441368710_">
				<g id="eye_00000070081793111817478710000003342172553818003625_">
					<path class="st5" d="M784.92,236.49c-20.32,0.93-33.52-5.79-45.75-15.95c-22.26-15.31-52.4-27.66-79.59-28.37
						c-28.81-1.09-58.35,12.28-74.17,36.67c13.66-10.97,28.14-17.84,43.15-21.16c-10.09,6.72-18.49,16-23.86,26.85
						c-7.83,15.8-10.12,34.26-6.81,54.86c2.42,15.06,8.65,31.3,14.15,45.63c1.12,2.92,2.22,5.79,3.27,8.6l1.22,3.27l2.8-2.09
						c46.07-34.36,72.88-45.28,130.41-53.11l2.64-0.36l-0.4-2.63c-3.69-24.18-13.94-46.28-29.79-64.6c3.68,1.69,7.32,3.47,10.9,5.37
						l0.26,0.14c0.01,0.01,0.06,0.03,0.05,0.02c-0.24-0.16-0.47-0.36-0.66-0.59c3.54,2.52,8.31,4.99,12.69,6.91
						C757.88,241.31,772.41,241.44,784.92,236.49z"/>
					<path class="st7" d="M699.04,231.48c-3.53-2.62-7.94-4.63-13.47-6.16c-4.1-1.13-7.8-1.7-11.16-1.7c-2.75,0-5.27,0.38-7.6,1.13
						c-6.02,1.95-10.61,6.99-11.15,12.27c-0.52,4.96,2.16,9.58,4.5,12.58c3.91,5.03,9.37,8.97,15.37,11.11
						c6,2.14,12.72,2.53,18.93,1.11c5.19-1.19,8.79-3.25,11.02-6.31c2.49-3.41,3.2-8.33,1.85-12.84
						C706.08,238.5,703.14,234.52,699.04,231.48z"/>
				</g>
				<g id="eye_00000096746589244887343670000015648482360018414976_">
					<path class="st5" d="M1135.08,236.49c20.32,0.93,33.52-5.79,45.75-15.95c22.26-15.31,52.4-27.66,79.59-28.37
						c28.81-1.09,58.35,12.28,74.17,36.67c-13.66-10.97-28.14-17.84-43.15-21.16c10.09,6.72,18.49,16,23.86,26.85
						c7.83,15.8,10.12,34.26,6.81,54.86c-2.42,15.06-8.65,31.3-14.15,45.63c-1.12,2.92-2.22,5.79-3.27,8.6l-1.22,3.27l-2.8-2.09
						c-46.07-34.36-72.88-45.28-130.41-53.11l-2.64-0.36l0.4-2.63c3.69-24.18,13.94-46.28,29.79-64.6
						c-3.68,1.69-7.32,3.47-10.9,5.37l-0.26,0.14c-0.01,0.01-0.06,0.03-0.05,0.02c0.24-0.16,0.47-0.36,0.66-0.59
						c-3.54,2.52-8.31,4.99-12.69,6.91C1162.12,241.31,1147.59,241.44,1135.08,236.49z"/>
					<path class="st7" d="M1220.96,231.48c3.53-2.62,7.94-4.63,13.47-6.16c4.1-1.13,7.8-1.7,11.16-1.7c2.75,0,5.27,0.38,7.6,1.13
						c6.02,1.95,10.61,6.99,11.15,12.27c0.52,4.96-2.16,9.58-4.5,12.58c-3.91,5.03-9.37,8.97-15.37,11.11
						c-6,2.14-12.72,2.53-18.93,1.11c-5.19-1.19-8.79-3.25-11.02-6.31c-2.49-3.41-3.2-8.33-1.85-12.84
						C1213.92,238.5,1216.86,234.52,1220.96,231.48z"/>
				</g>
			</g>
			<path id="belly_00000038375002836213529910000015902349173709507210_" class="st6" d="M1164.2,1639.76
				c-7.07,35.65-28.88,88.93-55.59,118.35c-50.09,14.89-99.75,21.52-148.61,19.95c-48.86,1.57-98.52-5.06-148.61-19.95
				c-26.71-29.42-48.53-82.7-55.59-118.35c-3.66-18.45-15.36-82.59-12.32-133.23l0.02-0.26c2.49-41.49,6.24-104.19,62-153.51
				c16.71-14.78,42.25-25.43,78.08-32.55c27.23-5.41,52.52-8.18,76.43-8.33c23.91,0.16,49.21,2.92,76.43,8.33
				c35.83,7.12,61.37,17.77,78.08,32.55c55.75,49.32,59.51,112.02,62,153.51l0.02,0.26
				C1179.56,1557.16,1167.86,1621.3,1164.2,1639.76z"/>
		</g>
	</g>
</g>
</svg>
