<svg xmlns="http://www.w3.org/2000/svg" width="250" height="250"><g fill="#00e5ae"><path d="M136.605 236.605H103.57a3.57 3.57 0 0 1-3.57-3.57c0-1.785 1.785-2.68 3.57-2.68h33.035c58.188 0 105.36-47.167 105.36-105.355S194.793 19.645 136.605 19.645H5.355a2.678 2.678 0 0 1-2.675-2.68c0-1.785.89-3.57 2.675-3.57h131.25a110.701 110.701 0 0 1 78.606 32.742A110.706 110.706 0 0 1 247.32 125a110.706 110.706 0 0 1-32.11 78.863 110.701 110.701 0 0 1-78.606 32.742zm0 0"/><path d="M136.605 208.93h-66.96a3.57 3.57 0 0 1-2.68-3.575c0-1.476 1.2-2.675 2.68-2.675h66.96c42.903 0 77.68-34.778 77.68-77.68s-34.777-77.68-77.68-77.68H47.32a2.677 2.677 0 0 1-2.675-2.675 3.571 3.571 0 0 1 2.675-3.575h89.285c46.356 0 83.93 37.578 83.93 83.93s-37.574 83.93-83.93 83.93zm0 0"/><path d="M136.605 181.25h-37.5a3.57 3.57 0 0 1-2.675-3.57c0-1.48 1.199-2.68 2.675-2.68h37.5c27.618 0 50-22.387 50-50s-22.382-50-50-50h-37.5a2.678 2.678 0 0 1-2.675-2.68 3.57 3.57 0 0 1 2.675-3.57h37.5c31.067 0 56.25 25.184 56.25 56.25s-25.183 56.25-56.25 56.25zm0 0"/><path d="M90.18 84.82c-6.907 0-12.5-5.593-12.5-12.5 0-6.902 5.593-12.5 12.5-12.5 6.902 0 12.5 5.598 12.5 12.5 0 6.907-5.598 12.5-12.5 12.5zm0-19.64a7.138 7.138 0 0 0-6.25 7.14 6.25 6.25 0 0 0 12.5 0 7.144 7.144 0 0 0-6.25-7.14zM90.18 190.18c-6.907 0-12.5-5.598-12.5-12.5 0-6.907 5.593-12.5 12.5-12.5 6.902 0 12.5 5.593 12.5 12.5 0 6.902-5.598 12.5-12.5 12.5zm0-18.75a6.248 6.248 0 0 0-6.25 6.25 7.138 7.138 0 0 0 6.25 7.14 7.144 7.144 0 0 0 6.25-7.14 6.25 6.25 0 0 0-6.25-6.25zm0 0"/></g></svg>