<svg xmlns="http://www.w3.org/2000/svg" width="250" height="250"><path fill="#fff" d="M10.117 185.148c-25.41-60.757-.074-121.91 50.906-165.605 65.141-55.816 154.618 21.969 176.98 58.512 24.278 39.664 12.462 123.824-46.6 156.582-59.067 32.761-155.684 11.629-181.286-49.489zm0 0"/><path fill="#2c398f" d="M26.621 176.79C5.023 125.007 26.56 72.878 70.008 35.644c55.52-47.579 131.773 18.714 150.832 49.859 20.695 33.805 10.62 105.598-39.703 133.465-50.325 27.863-132.715 9.898-154.516-42.18zm0 0"/><path fill="#04ffcc" d="M136.086 59.586c.152 3.332-5.352 1.914-11.332 4.008-6.66 2.343-11.512.308-11.652-3.02-.141-3.328 4.421-10.886 10.761-11.16 6.34-.27 12.055 6.844 12.223 10.172zM228.828 106.55c-4.14-2.921-8.394-4.71-11.433-4.933-8.106-.43-14.18 10.184-10.047 25.977 3.718 14.18-.993 26.433 7.113 26.867 3.543.195 9.098-1.887 14.281-5.512a108.022 108.022 0 0 0 .086-42.398zm0 0"/><path fill="#7bf6f8" d="M152.664 27.988c-3.195 2.559-5.059 6.36-5.082 10.38v52.265C124.469 77.566 95 82.664 77.965 102.68c-17.04 20.015-16.633 49.062.957 68.62 17.59 19.56 47.187 23.884 69.93 10.212 2.738 5.797 9.27 8.96 15.691 7.597 6.418-1.359 10.996-6.879 10.988-13.257V40.82a149.35 149.35 0 0 0-22.867-12.832zm-9.894 116.078c-3.051 16.598-19.06 19.543-32.375 12.145-28.942-16.04-4.575-57.418 24.418-41.375 8.566 4.758 9.695 19.762 7.957 29.23zm0 0"/><path fill="#04ffcc" d="M111.02 231.137c-2.887-10.086-12.707-21.442-29.973-30.098-26.07-13.078-38.48-35.566-49.547-24.656a15.635 15.635 0 0 0-3.074 4.375c14.254 28.84 47.578 46.347 82.594 50.379zm0 0"/></svg>