<svg xmlns="http://www.w3.org/2000/svg" width="250" height="250"><path fill="#6720e0" d="M0 125v125h250V0H0zm114.5-67.8v7.152l5.648.296c4.954.301 13 1.352 16.25 2.204l1.102.25V50h26v28.75l4.648 4.8c7.051 7.348 11.551 15.65 13.903 25.9 1.449 6.198 1.847 20.1.75 26.75-1.95 11.75-7.2 22-15.551 30.3l-3.75 3.7v30.3h-26v-17.148l-1.602.398c-5.847 1.25-9.898 1.8-15.25 2.102l-6.148.296V200.5l-12.852-.102-12.898-.148-.148-7.148-.153-7.102H71l.102-60.8.148-60.802 8.648.102 8.602.05v-7.198c0-3.954.102-7.301.2-7.403.1-.097 5.948-.148 13-.05l12.8.152zm0 0"/><path fill="#6720e0" d="M98.25 89.55c-.148.4-.2 16.65-.148 36.2l.148 35.5 10.75-.05c15.05-.15 22.3-1.45 30.2-5.598 6.85-3.602 12.8-11.25 15.05-19.352 1.2-4.5 1.55-15.602.55-20.148-2.75-13-12.75-22.102-28.198-25.653-5.75-1.347-27.903-2.05-28.352-.898zm0 0"/><path fill="#fff" d="M87.5 56.25v7.25h-17V187h17v14.5h28v-14.352l5.898-.347c3.204-.153 7.954-.75 10.5-1.25l4.602-.903V201.5h28v-30.648l4.148-4.301c10.954-11.403 15.852-24.102 15.852-41.2 0-18.8-5.55-33.25-16.898-44L164.5 78.45V49h-28v16.8l-5.102-.902c-2.847-.449-7.546-1-10.5-1.199l-5.398-.347V49h-28zm38.2 34.95c11.75 2.698 19.698 7.902 24.448 15.85 2.852 4.802 3.954 8.802 4.25 15.348.403 9.852-1.5 17.403-6.097 23.852-7.153 10-19.653 14.25-41.903 14.25H99V89.852l11.648.296c7.903.204 12.704.551 15.051 1.051zm0 0"/></svg>