<svg xmlns="http://www.w3.org/2000/svg" width="250" height="250"><radialGradient id="a" cx="103.281" cy="177.622" r="308.587" gradientTransform="matrix(.65104 0 0 -.65104 43.275 235.019)" gradientUnits="userSpaceOnUse"><stop offset="0" stop-color="#383938"/><stop offset=".108" stop-color="#333"/><stop offset=".493" stop-color="#222"/><stop offset=".803" stop-color="#141414"/><stop offset="1" stop-color="#0e0e0e"/></radialGradient><path fill="url(#a)" d="M124.602 0c-66.649 0-167.27 248.152 0 248.152S191.25 0 124.602 0zm0 0"/><path fill="#eaa425" d="M88.223 121.66c4.277 5.219 11.562 8.656 19.832 8.656 1.554 0 3.074-.12 4.543-.355 1.265-.2 2.234-1.078 2.566-2.324.328-1.246-.074-2.5-1.07-3.305a18.148 18.148 0 0 1-6.711-14.121c0-10.008 8.039-18.117 17.957-18.117 7.922 0 14.64 6.91 17.023 13.406l6.367-2.734a2.3 2.3 0 0 1 2.247.214 2.344 2.344 0 0 1 1.05 2.02 9.018 9.018 0 0 1-2.656 6.29c.488.073.941.284 1.313.663.597.61.824 1.422.62 2.254-.558 2.293-3.933 4.055-8.011 4.055a13.59 13.59 0 0 1-2.066-.16c-.582.84-1.239 1.566-1.93 2.285-.383.402-.527.93-.399 1.476.125.543.493.95 1.016 1.137 17.055 6.02 23.387 38.871-18.691 38.871-16.211 0-38.012-7.39-38.012-27.125 0-5.039 1.898-9.633 5.012-13.086zm46.086-17.422c1.32 1.852 3.09 2.844 3.953 2.219.86-.625.492-2.637-.832-4.488-1.32-1.852-3.086-2.844-3.95-2.219s-.496 2.637.829 4.488zm0 0"/></svg>