<svg xmlns="http://www.w3.org/2000/svg" xmlns:xlink="http://www.w3.org/1999/xlink" width="250" height="250"><linearGradient id="b" x1="41.448" x2="95.1" y1="166.464" y2="166.464" gradientUnits="userSpaceOnUse"><stop offset="0" stop-color="#f8c6c7"/><stop offset=".699" stop-color="#ea514e"/></linearGradient><linearGradient id="a"><stop offset="0" stop-color="#f8c6c7"/><stop offset="1" stop-color="#ea514e"/></linearGradient><linearGradient xlink:href="#a" id="c" x1="86.762" x2="102.418" y1="48.73" y2="48.73" gradientUnits="userSpaceOnUse"/><linearGradient xlink:href="#a" id="d" x1="143.619" x2="159.276" y1="44.58" y2="44.58" gradientUnits="userSpaceOnUse"/><linearGradient xlink:href="#a" id="e" x1="48.799" x2="211.084" y1="144.21" y2="144.21" gradientUnits="userSpaceOnUse"/><linearGradient id="f" x1="172.18" x2="212.984" y1="173.479" y2="173.479" gradientUnits="userSpaceOnUse"><stop offset="0" stop-color="#f8c6c7"/><stop offset=".769" stop-color="#ea514e"/></linearGradient><path fill="url(#b)" fill-rule="evenodd" d="M61.738 149.41c0 24.07 51.117 63.012 26.805 63.012-24.316 0-47.094-21.895-47.094-45.965 0-24.066 6.074-45.953 30.387-45.953s-10.098 4.836-10.098 28.906zm0 0"/><path fill="url(#c)" fill-rule="evenodd" d="M102.121 22.09s2.809 29.523-8.875 53.281c0 0-19.383-27.121 8.875-53.281zm0 0"/><path fill="url(#d)" fill-rule="evenodd" d="M158.98 17.938s2.81 29.523-8.875 53.285c0 0-19.386-27.125 8.875-53.285zm0 0"/><path fill="url(#e)" d="M211.086 142.633c0 43.043-38.555 83.074-81.84 83.074-43.281 0-80.45-43.082-80.45-86.125s36.263-76.867 79.548-76.867c43.281 0 82.742 36.875 82.742 79.918zm0 0"/><g fill-rule="evenodd"><path fill="url(#f)" d="M212.98 164.11c.196 14.925-7.03 40.87-19.609 40.128-8.543-.508-21.191-14.355-21.191-31.566 0-17.215 9.12-29.965 17.68-29.965 8.554 0 22.894 4.191 23.12 21.402zm0 0"/><path fill="#5a120f" d="M166.914 112.191c0 15.106-25.594 33.004-51.988 33.004-26.39 0-50.438-18.101-50.438-33.207s24.2-30.816 50.59-30.816c26.395 0 51.836 15.914 51.836 31.02zm0 0"/><path fill="#fffbfb" d="M106.258 109.578c0 7.293-6.473 13.207-14.461 13.207s-14.461-5.914-14.461-13.207c0-7.297 6.473-13.21 14.46-13.21s14.462 5.913 14.462 13.21zM143.406 112.77c0 7.503-7.347 13.585-16.414 13.585-9.066 0-16.414-6.082-16.414-13.585 0-7.5 7.348-13.582 16.414-13.582 9.067 0 16.414 6.082 16.414 13.582zm0 0"/><path fill="#981915" d="M128.895 113.113a2.729 2.729 0 1 1-5.456-.005 2.729 2.729 0 0 1 5.456.005zM93.191 109.953a2.727 2.727 0 1 1-5.457 0 2.73 2.73 0 0 1 2.73-2.726 2.727 2.727 0 0 1 2.727 2.726zm0 0"/></g></svg>