<svg xmlns="http://www.w3.org/2000/svg" width="250" height="250"><linearGradient id="a" x1="11.296" x2="250" y1="-10.932" y2="250" gradientUnits="userSpaceOnUse"><stop offset="0" stop-color="#fffc2c"/><stop offset="1" stop-color="#efe806"/></linearGradient><g fill-rule="evenodd"><path fill="url(#a)" d="M250 125c0 69.035-55.965 125-125 125S0 194.035 0 125 55.965 0 125 0s125 55.965 125 125zm0 0"/><path d="M127.168 40c5.676 0 10.277 8.387 10.277 18.727 0 .25-.004.496-.007.746 3.046-3.73 6.601-5.578 9.316-4.399 2.758 1.2 3.93 5.23 3.371 10.192-.137 2.351-.703 4.933-1.727 7.52-.593 1.5-1.3 2.886-2.078 4.136 40.442 9.258 69.125 43.52 68.676 103.078H190.38c.383-50.48-28.043-75.406-65.238-76.191-40.508-.852-62.93 26.957-65.524 76.191H35c3.152-59.805 28.207-96.246 72.215-103.41-.703-1.05-2-3.18-2.578-4.422-3.45-7.387-2.961-14.992 1.093-16.988 3.243-1.598 7.782.879 11.235 5.715-.047-.711-.07-1.434-.07-2.168 0-10.34 4.597-18.727 10.273-18.727zm-22.477 92.875c2.965 0 5.371 2.754 5.371 6.148v15.11c0 3.398-2.406 6.152-5.37 6.152-2.97 0-5.372-2.754-5.372-6.152v-15.11c0-3.394 2.403-6.148 5.371-6.148zm42.973 0c2.965 0 5.371 2.754 5.371 6.148v15.11c0 3.398-2.406 6.152-5.37 6.152-2.97 0-5.372-2.754-5.372-6.152v-15.11c0-3.394 2.402-6.148 5.371-6.148zm0 0"/></g></svg>