<svg xmlns="http://www.w3.org/2000/svg" width="250" height="250"><path d="M122.395 36.895c-9.602 1.398-20.063 7.937-34.227 21.398l-2.918 2.75-.125-1.398c-.48-4.813-1.313-8.708-2.438-11.438-.769-1.852-2.374-4.164-3.48-5.062-2.27-1.77-5.187-2.333-7.914-1.5-5.836 1.773-6.961 9.398-3.273 21.937l.73 2.543c0 .043-.77-.125-1.707-.395-5.398-1.48-9.063-1.125-10.98 1.063-.981 1.125-1.356 2.375-1.231 4.102.148 1.625.73 2.835 2.086 4.125 1.207 1.21 4.102 2.668 6.52 3.355.917.25 1.707.48 1.75.52.042.023-.668.918-1.563 1.98-5.457 6.5-7.957 13.145-7.188 19.082.75 5.711 3.645 14.293 7.438 21.961l1.188 2.457-1.645 1.605c-2.75 2.688-4.438 5.602-5.461 9.438-.727 2.75-.77 7.332-.082 10.062 1.832 7.333 6.918 12.645 13.395 14 3.835.813 8.23 0 11.398-2.105.625-.418 1.144-.707 1.164-.668.023.043.23.523.438 1.106.937 2.605 4.398 8.625 5.418 9.48.48.394.374.582-.645 1.02-1.606.707-3.773 2.269-4.856 3.5-3.417 3.832-4.062 9.082-1.707 13.769l.625 1.25-1.187.688c-6.523 3.667-14 19.398-21.418 45.187-1.332 4.625-4.457 16.563-4.457 17.043 0 .188 8.102.25 34.27.25h34.269v-2.918c0-3.187-.227-5.164-1.5-12.5-1.937-11.312-1.289-16.039 3.48-26.25 2.145-4.582 3.25-7.477 4.083-10.727.605-2.355.687-3.023.667-5.21-.019-3.165-.355-4.458-2.457-9.375-.875-2.063-1.773-4.438-2-5.29-.937-3.605-.187-8.605 1.915-12.792.355-.708 1.398-2.543 2.312-4.063 2.313-3.832 2.918-5.418 3.043-8.082.168-3.563-.668-6.523-3.418-12.336-3.144-6.602-3.875-8.707-3.875-11.227.023-1.96.5-3.042 2.125-4.75 1.043-1.062 1.606-1.46 3.023-2.062 4.02-1.73 7.52-2.293 13.188-2.148 4.914.125 8.082.71 10.894 2.023l.543.25-.48 1.937c-.73 3.02-1 5.688-.855 8.52.187 3.77.812 5.957 3.648 12.832 2.125 5.211 2.707 8.25 2.039 10.836-.332 1.312-.914 2.457-3.625 7.062-2.144 3.645-3.375 7.188-3.812 11.02-.438 3.563.23 6.543 2.585 11.918 1.75 3.957 2.063 5 2.165 7.52.125 2.457-.125 3.98-1.227 7.48-.773 2.437-1.188 3.437-3.5 8.437-2.875 6.227-3.918 9.665-4.398 14.54-.375 3.855-.063 6.5 2.042 17.542.188.958.333 2.981.356 4.731l.02 3.082h41.207l-.145-2.145c-2.105-31.398-8.105-55-15.77-62.023l-1.042-.957.542-.918c1-1.77 1.602-4.082 1.625-6.25.02-2.289-.355-3.75-1.48-5.937-.957-1.895-3.895-4.833-6.082-6.125l-1.563-.915 1.375-2.75c2.813-5.687 4.708-12.792 5.395-20.312.313-3.5.25-11.086-.105-15.023-1.102-11.727-4.188-23.477-9.102-34.625-.688-1.582-1.23-2.895-1.188-2.938.04-.02.563-.375 1.125-.77 1.477-.98 4.25-3.812 5.313-5.374 4.394-6.563 4.894-14.481 1.352-21.208-3.102-5.875-8.75-9.875-15.727-11.125-3.023-.542-10.625-.23-13.148.563-.27.062-.395-.148-.583-.898-.144-.563-.667-1.875-1.187-2.958-2.688-5.73-7.25-9.292-13.207-10.355-1.73-.312-4.856-.332-6.773-.062zm7.5 3.417c1.875.52 4.105 1.668 5.542 2.833 2.27 1.917 4.356 5.273 5.208 8.46.835 3.145 1.085 3.395 3.062 2.875.648-.167 2.086-.437 3.168-.605 7.832-1.23 13.793-.082 18.543 3.582a17.076 17.076 0 0 1 5 6.188c1.375 2.855 1.75 4.417 1.75 7.5 0 4.21-1.25 7.71-3.918 11.043-1.375 1.73-3.938 3.98-4.27 3.769-.105-.082-.562-.832-1.023-1.687-1.164-2.125-2.957-4.79-4.437-6.54-.665-.812-1.227-1.523-1.227-1.562 0-.043.5-.438 1.102-.856 2.148-1.542 3.667-2.874 3.898-3.417.27-.688 0-1.563-.606-1.875-.832-.457-1.417-.25-2.957 1.062-7.625 6.375-17.667 8.586-28.835 6.313-3.938-.79-8.54-2.332-11.52-3.832-.707-.356-1.543-.645-1.832-.645-.336 0-1.375.52-2.563 1.289-7.687 4.98-14.687 6.711-18.793 4.648-1.23-.648-1.644-.648-2.374-.085-.668.543-.645.96.105 3.625.539 1.96.687 5.918.27 7.312-.645 2.063-2.731 4-4.543 4.211-.957.102-.938.102-2.04-1.625-.523-.793-1.418-1.063-2.23-.625-.855.457-.875 1.102-.125 3.332 2.605 7.52 3.73 15.563 3.02 21.355-.375 3.04-1.54 6.52-2.75 8.102-.27.375-.332.375-1.27-.27-1.438-1-3.355-1.832-5.332-2.332-2.48-.625-6.063-.5-8.398.313-.895.289-1.707.5-1.79.437-.273-.148-3.085-6.398-4.293-9.48-1.98-5.082-3.332-9.832-3.874-13.5-.813-5.688 2.48-12.918 8.73-19.145 1.562-1.585 1.957-2.085 1.957-2.585.043-1.063-.582-1.438-2.938-1.852-4.687-.856-8.105-2.5-9.105-4.418-.414-.813-.375-2.105.125-2.73.563-.707 2.125-1.063 3.898-.875 1.895.21 5.145 1.023 7.145 1.773 1.98.77 2.813.75 3.395-.043l.418-.563-1.168-3.5c-2.063-6.167-2.895-10.23-2.938-14.124-.02-4.708 1.188-6.813 4.125-7.126 1.711-.167 2.875.231 4.211 1.458 2.664 2.437 4.164 7.773 4.789 17.105.106 1.793.188 2.125.625 2.563.688.687 1.563.624 2.523-.188.438-.375 2.477-2.313 4.54-4.332C102.688 48.52 113 41.855 122.188 40.125c2.042-.395 5.894-.293 7.707.188zM118.25 77c3.707 1.688 9.105 3.25 13.668 3.957 3.27.523 9.687.523 12.562 0a37.082 37.082 0 0 0 7.395-2.125c.98-.414 1.957-.75 2.188-.77.812-.082 5.355 6.77 8 12.083 4.667 9.375 8.48 22.062 9.894 33.023.856 6.52.961 15.77.25 20.914-1.5 10.563-4.977 18.875-10.687 25.398-1.813 2.063-4.375 4.415-4.583 4.188-.23-.211.918-3.938 1.77-5.793.438-.957 1.48-2.832 2.313-4.207 2.023-3.336 2.48-4.273 2.96-6.125.958-3.75.333-7.043-2.73-14.418-.813-1.918-1.457-3.582-1.457-3.668.02-.102.5-.414 1.102-.687.605-.29 1.625-1.04 2.273-1.688 1-1 1.25-1.414 1.625-2.687.394-1.313.457-1.852.375-4.04-.086-2.148-.188-2.75-.668-3.898-2.02-4.937-7.23-8.144-14.918-9.187-2.937-.395-9.227-.332-11.77.105-2.417.418-6.332 1.668-8.25 2.625-4.542 2.27-8.417 6.043-9.98 9.707-2.312 5.356-.664 10.875 3.938 13.293 1.605.832 3.437 1.375 4.73 1.375h.875l.668 1.813c1.312 3.625 1.562 6.269.832 8.625-.23.75-1.313 2.875-2.48 4.832-3.458 5.855-4.583 9.062-4.75 13.71-.145 3.708.21 5.375 2.168 10.125.082.188-.063.25-.481.165-.332-.04-1.582-.25-2.77-.415-9.269-1.46-18.73-6.273-25.812-13.125-4.668-4.5-8.063-9.562-9.625-14.335-.395-1.208-.418-1.458-.168-1.79 2-2.75 3.418-5.335 3.625-6.71.168-.977-.52-1.852-1.457-1.852-.875 0-1.063.25-2.395 3-.98 2.02-1.312 2.477-3 4.187-2.168 2.145-3.605 3.02-6.105 3.645-2.043.52-3.957.52-6 0-2.457-.625-3.938-1.5-6.063-3.645-1.582-1.562-2.062-2.21-2.874-3.855-1.395-2.813-1.856-4.73-1.876-7.918-.019-1.477.083-3.144.25-3.852 1.583-7.187 7.27-12.398 13.563-12.398 2.793 0 5.957 1.211 8.188 3.125 1.707 1.461 2.292 1.438 3.582-.125 1.855-2.289 3.293-5.477 3.98-8.894.957-4.77.438-12.52-1.293-19.356l-.5-2.125c0-.062.313-.125.711-.125 1.062 0 3.602-1.375 4.875-2.644 2.039-2.043 2.914-4.895 2.664-8.708-.062-1.148-.187-2.335-.25-2.625l-.125-.543 1.23.188c2.188.355 5.77-.125 9-1.207 2.563-.875 7.981-3.688 10.145-5.273.023-.02.773.312 1.668.73zM169 168.52c2 1.292 3.27 2.46 4.207 3.855 3.586 5.395.918 12.5-5.812 15.563-1.813.812-2.208 1.644-1.333 2.769.313.398.625.543 1.125.543.918 0 3.645-1.395 5.27-2.707 1.5-1.211 1.543-1.211 2.918.289 6.293 6.813 11.543 27.688 13.668 54.188l.437 5.355.125 1.418h-14.312l-.273-4.938c-.813-15.773-2.688-29.542-4.958-36.625-1.312-4.085-2.042-5.042-3.437-4.46-1.125.46-1.25 1.23-.48 2.98 2.023 4.563 3.855 14.938 5 28.043.292 3.562.937 13.289.937 14.414v.586h-17.289v-2.461c0-2.727-.313-5.082-1.23-9.832-1.668-8.438-1.708-12.832-.188-18.332.563-2.086 1.313-3.918 3.438-8.543 3.875-8.375 5.187-13.313 4.644-17.543-.289-2.437-.602-3.414-2.52-7.914-.917-2.125-1.812-4.606-2-5.461l-.355-1.602.48-.312c2.645-1.856 6.708-5.856 8.833-8.688.667-.875 1.273-1.605 1.355-1.605s.875.457 1.75 1.02zm-71.188 7c7.813 6.273 17.481 10.312 26.813 11.21 2.332.227 2.457.25 2.645.77.898 2.207 1.125 5.605.562 8.25-.707 3.332-1.937 6.543-5 13.125-3.164 6.813-4.227 12-3.832 18.668.082 1.687.582 5.27 1.23 9.039.875 5.168 1.082 6.836 1.165 9.711l.125 3.5H94.793V249c0-.418.644-10.043 1.437-21.355l1.227-21.083c-.207-.48-.957-.937-1.52-.937-.167 0-.542.23-.855.48l-.562.5-1.52 21.54-1.543 21.585c0 .04-7.227.063-16.062.063H59.332l.148-.793c.25-1.355 2.79-11.02 4.165-15.77 6.96-24.148 14.187-39.71 20-43.042 1.187-.688 1.812-.75 2.21-.27.415.5 2.415 1.812 3.875 2.562 1.665.833 4.52 1.645 6.332 1.813 1.626.164 2.333-.125 2.563-1.063.168-.687-.375-1.73-.98-1.855l-2.29-.418c-4.605-.852-8.335-3.394-10.062-6.875-2.586-5.25-.375-10.539 5.477-13.02l1.398-.605 1.894 1.773c1.02.977 2.731 2.458 3.75 3.29zm12.083-67.833c-1.688.438-3.352 1.813-4.188 3.395-.52 1.023-.625 3.418-.207 4.711.48 1.394 1.75 2.812 3.188 3.52 4 1.937 8.812-1.043 8.812-5.481 0-2.5-1.25-4.539-3.438-5.602-1.187-.605-3.062-.835-4.167-.543zM71.582 134.02c-.644.648-.687 1.355-.102 2.105.332.418.602.543 1.27.543 1.98 0 3.563 1.039 4.395 2.894.335.75.437 1.458.48 3.145.043 1.961.082 2.211.5 2.543.52.418 1.293.48 1.875.168.52-.293.832-1.313.832-2.836 0-5.02-2.977-8.687-7.27-9-1.332-.082-1.48-.062-1.98.438zm112.48-28.208c-1.875.481-3.707 2.106-4.375 3.833-.542 1.437-.375 3.937.356 5.168 1.25 2.124 3.102 3.187 5.477 3.187 2.5 0 4.375-1.168 5.523-3.457 1.937-3.918-.773-8.543-5.188-8.836-.648-.039-1.437 0-1.792.106zm0 0"/></svg>