<svg xmlns="http://www.w3.org/2000/svg" width="250" height="250"><path fill="#fd5767" d="M111.328 248.438c-8.691-1.66-21.582-4.395-23.047-4.883-20.8-7.032-35.937-16.309-50.683-31.153-14.844-14.746-24.121-29.882-31.153-50.683C1.075 145.8-.195 117.676 3.711 100c2.344-11.035 2.344-10.938 5.762-19.922C21.777 48.34 48.34 21.778 80.078 9.473 89.062 6.055 88.965 6.055 100 3.71c13.965-3.125 36.035-3.125 50 0 11.035 2.344 10.938 2.344 19.922 5.762 16.113 6.25 29.492 15.039 42.48 28.125 14.844 14.746 24.121 29.882 31.153 50.683 5.37 15.918 6.64 44.043 2.734 61.719-2.344 11.035-2.344 10.938-5.762 19.922-12.304 31.738-38.867 58.3-70.605 70.605-8.887 3.418-8.887 3.418-19.336 5.664-9.18 1.954-33.203 3.32-39.258 2.246zm16.113-58.692c1.465-4.785 7.618-18.652 13.672-31.055 16.114-32.52 23.633-56.152 26.856-84.082 1.562-13.28.976-16.504-1.367-7.714-.977 3.808-3.125 9.765-4.786 13.476-2.734 6.152-3.125 6.543-6.152 6.543h-3.32l-.196-15.82-.293-15.918-11.425 11.523c-10.938 10.938-11.524 11.426-15.528 11.426-3.906 0-4.59-.488-14.355-10.254-5.664-5.664-10.938-10.742-11.817-11.133-1.367-.781-1.562.586-1.27 14.16l.294 15.04h-3.418c-3.125 0-3.711-.489-5.566-4.2-1.172-2.246-3.418-8.008-4.883-12.89-2.637-8.594-2.735-8.692-2.735-4.2-.195 11.622 4.493 35.743 10.254 53.223 5.274 15.918 10.742 28.809 20.117 47.168 4.004 7.813 8.497 18.457 10.059 23.633 1.66 5.273 3.027 9.57 3.027 9.57.098 0 1.368-3.808 2.832-8.496zM70.703 156.25c2.93-1.074 7.813-1.953 10.84-1.953 2.93 0 5.371-.195 5.371-.488 0-.196-1.367-3.809-3.027-8.008-3.809-9.57-8.496-24.805-9.278-30.567-.39-2.441-.879-4.98-1.27-5.566-.39-.684-3.612 10.059-7.226 23.926-3.613 13.77-6.836 26.172-7.226 27.441l-.586 2.344 3.418-2.637c1.953-1.465 5.957-3.515 8.984-4.492zm115.723-12.207c-9.961-38.184-9.57-37.207-11.035-28.32-1.075 6.054-6.25 22.265-9.766 30.761l-3.223 7.618 7.422.39c5.762.39 8.692 1.172 13.477 3.516 3.32 1.66 6.347 3.515 6.64 4.101 1.66 2.735.977-.879-3.515-18.066zm-135.84-8.3c2.246-7.813 4.883-17.481 5.957-21.485 2.734-10.352 11.523-44.043 12.11-46.68.292-1.367-5.958 4.004-17.676 15.234-10.059 9.668-22.754 21.583-28.32 26.66l-10.06 9.18 3.614.782c5.664 1.171 14.844 6.543 18.652 10.84 3.907 4.492 8.79 14.062 9.668 19.042.88 4.395 1.367 3.32 6.055-13.574zm155.371 10.741c3.613-12.988 14.648-24.12 26.66-26.855l4.883-1.074-14.453-13.282c-8.008-7.226-20.703-19.14-28.223-26.464-7.52-7.227-13.77-12.989-13.965-12.891-.195.195 2.149 9.668 5.176 21.191 3.028 11.426 6.348 23.926 7.324 27.637.977 3.809 3.32 12.793 5.371 20.02s3.907 14.16 4.102 15.43c.684 2.929 1.563 1.855 3.125-3.712zm0 0"/><g fill="#24232b"><path d="M123.145 210.254c-1.66-12.11-7.91-29.98-15.235-43.945C92.188 136.62 82.813 108.3 79.004 78.613c-1.27-9.472-.684-33.496.879-37.597.781-2.051 1.074-1.465 2.05 4.394 2.442 14.453 10.06 37.598 12.5 37.598.294 0 .294-7.52 0-16.602-.585-15.234-.488-16.601 1.075-16.601 2.05 0 12.988 9.57 21.582 18.75 3.418 3.613 7.031 6.64 8.008 6.64.976 0 3.808-2.441 6.445-5.468 5.957-7.032 20.8-19.922 22.852-19.922 1.367 0 1.464 1.953 1.171 17.285l-.39 17.383 2.832-5.371c3.71-6.934 8.984-25.782 11.035-38.965.39-2.637 1.953 7.324 2.441 16.015 1.758 29.883-7.226 64.551-27.441 105.47-11.914 24.218-15.43 33.69-17.188 47.07-.683 4.687-1.464 8.984-1.855 9.374s-1.172-3.125-1.855-7.812zM51.758 175c0-.39 5.176-20.41 11.523-44.629C72.851 93.36 74.707 87.207 75 91.31c.977 19.433 8.008 45.703 16.7 62.793l1.855 3.613H84.57c-7.812 0-9.57.293-14.648 2.832-3.125 1.562-8.496 5.469-11.914 8.887-3.418 3.418-6.25 5.859-6.25 5.566zM192.383 169.922c-3.125-3.223-8.106-7.031-11.719-8.887-5.86-3.027-7.031-3.32-15.234-3.32h-8.985l2.442-5.371c9.375-20.996 15.918-44.14 15.918-56.64 0-6.837 1.465-4.981 4.004 5.077 2.734 10.547 11.23 43.067 16.406 62.696 1.758 6.347 2.93 11.718 2.832 11.816-.195.098-2.734-2.344-5.664-5.371zM203.32 165.04c-.586-1.856-2.636-9.376-4.59-16.602s-4.394-16.016-5.37-19.532c-1.075-3.515-2.54-8.984-3.223-12.207-.782-3.222-4.59-17.676-8.496-32.226-3.907-14.453-7.325-27.637-7.52-29.297-.488-2.54 1.074-1.465 12.5 9.863 18.164 17.871 31.445 30.371 46.29 43.75 7.03 6.348 12.792 11.816 12.987 12.207.098.488-2.734.977-6.445 1.27-8.398.586-15.234 4.101-21.289 10.84-5.664 6.347-8.789 12.988-11.133 24.12-1.074 5.079-2.148 9.766-2.344 10.254-.097.586-.78-.585-1.367-2.44zM43.066 157.91c-3.906-16.797-9.96-26.172-20.8-31.933-4.395-2.344-7.91-3.418-12.403-3.809l-6.25-.586 19.434-18.066C33.69 93.555 49.805 78.32 58.69 69.629c8.887-8.79 16.407-15.918 16.7-15.918 1.074 0-28.516 111.621-29.98 113.086-.196.195-1.27-3.809-2.345-8.887zm0 0"/></g></svg>