<svg xmlns="http://www.w3.org/2000/svg" width="250" height="250"><linearGradient id="a" x1="91.261" x2="150.787" y1="185.785" y2="151.417" gradientTransform="matrix(1.25 0 0 -1.25 0 252.5)" gradientUnits="userSpaceOnUse"><stop offset=".31" stop-color="#19bed5"/><stop offset=".38" stop-color="#14bbc7"/><stop offset=".654" stop-color="#00b095"/><stop offset=".766" stop-color="#01a2a1"/><stop offset=".973" stop-color="#018eb3"/></linearGradient><linearGradient id="b" x1="69.374" x2="113.113" y1="-1.426" y2="42.313" gradientTransform="matrix(1.25 0 0 -1.25 0 252.5)" gradientUnits="userSpaceOnUse"><stop offset=".405" stop-color="#00b095"/><stop offset=".484" stop-color="#00af98"/><stop offset=".552" stop-color="#00aca3"/><stop offset=".615" stop-color="#00a8b4"/><stop offset=".625" stop-color="#00a7b8"/><stop offset=".672" stop-color="#01a0b2"/><stop offset=".741" stop-color="#038ca0"/><stop offset=".825" stop-color="#076a84"/><stop offset=".919" stop-color="#0c3d5e"/><stop offset="1" stop-color="#111038"/></linearGradient><linearGradient id="c" x1="5.922" x2="105.165" y1="106.691" y2="70.57" gradientTransform="matrix(1.25 0 0 -1.25 0 252.5)" gradientUnits="userSpaceOnUse"><stop offset=".519" stop-color="#4dc4cf"/><stop offset=".585" stop-color="#4cc0cb"/><stop offset=".657" stop-color="#47b2c0"/><stop offset=".732" stop-color="#409cae"/><stop offset=".809" stop-color="#357e94"/><stop offset=".887" stop-color="#285673"/><stop offset=".966" stop-color="#18264b"/><stop offset="1" stop-color="#111038"/></linearGradient><linearGradient id="d" x1="34.285" x2="72.069" y1="100.473" y2="122.288" gradientTransform="matrix(1.25 0 0 -1.25 0 252.5)" gradientUnits="userSpaceOnUse"><stop offset=".162" stop-color="#4dc4cf"/><stop offset=".253" stop-color="#4abbc8"/><stop offset=".401" stop-color="#42a4b4"/><stop offset=".585" stop-color="#357d94"/><stop offset=".798" stop-color="#244867"/><stop offset="1" stop-color="#111038"/></linearGradient><linearGradient id="e" x1="-187.363" x2="103.077" y1="158.3" y2="158.3" gradientTransform="matrix(1.25 0 0 -1.25 0 252.5)" gradientUnits="userSpaceOnUse"><stop offset=".824" stop-color="#4dc4cf"/><stop offset=".859" stop-color="#4cc1cc"/><stop offset=".886" stop-color="#49b7c4"/><stop offset=".91" stop-color="#43a7b7"/><stop offset=".932" stop-color="#3c90a4"/><stop offset=".953" stop-color="#32738b"/><stop offset=".973" stop-color="#264e6c"/><stop offset=".992" stop-color="#172449"/><stop offset="1" stop-color="#111038"/></linearGradient><linearGradient id="f" x1="149.695" x2="94.835" y1="65.456" y2="160.476" gradientTransform="matrix(1.25 0 0 -1.25 0 252.5)" gradientUnits="userSpaceOnUse"><stop offset=".567" stop-color="#0488a4"/><stop offset=".631" stop-color="#1294ac"/><stop offset=".751" stop-color="#36b1c1"/><stop offset=".818" stop-color="#4dc4cf"/></linearGradient><linearGradient id="g" x1="150.299" x2="91.029" y1="52.234" y2="86.454" gradientTransform="matrix(1.25 0 0 -1.25 0 252.5)" gradientUnits="userSpaceOnUse"><stop offset=".274" stop-color="#0488a4"/><stop offset=".304" stop-color="#0c8fa9"/><stop offset=".433" stop-color="#28a6b9"/><stop offset=".562" stop-color="#3db7c5"/><stop offset=".69" stop-color="#49c1cd"/><stop offset=".816" stop-color="#4dc4cf"/></linearGradient><path fill="url(#a)" d="M175.5 75.5c-.125-.375-.375-.75-.5-1.125-18.625-41-44.375-68.875-49.125-73.75l-.25-.25c2 11.125 3.625 25.625 3 40.5v1.75c-.125 2.125-.25 4.125-.5 6.25 4.25 4.5 8.875 8.375 12.875 11.5A159.596 159.596 0 0 0 147.125 65c6.25 4.625 14.25 9.375 22.625 13.25 2.75 1.25 5.5 2.375 8.25 3.5-1-2.25-1.75-4.25-2.5-6.25zm0 0"/><path fill="url(#b)" d="M134 202c-3.875-5.75-7.375-12.5-10.125-19.625-4.75 17.375-13.125 31.375-22 42.25L125.625 250v-.125.125l26-28.875c-9.75-7.625-15.5-16-17.625-19.125zm0 0"/><path fill="url(#c)" d="M100.5 99.875C95.625 104 90.5 107 85.625 109.25c-1.5 8.875-5.5 17.875-11.25 25.375C71 139 67.125 143 62.75 146c-2.25 1.625-4.5 2.875-6.75 4 0 .375-.125.75-.125 1.125 0 0 20.875 2 29.375 22 4.875 11.5 2.875 36.5 2.875 36.5l13.75 14.625c8.875-10.875 17.25-24.875 22-42.25.625-2.25 1.125-4.5 1.625-6.75.5-2.5 1-5.125 1.375-7.875.875-7.125 1.75-21.875-1.625-40.625l-.375-1.875c-2.25-11.5-6-24.5-12.25-38.125-3.75 5.25-7.875 9.5-12.125 13.125zm0 0"/><path fill="url(#d)" d="M74.375 134.625c5.75-7.5 9.875-16.5 11.25-25.375 1.375-8.375.5-16.625-3.625-23.375-2-3.375-4.625-6-7.625-8.125-5 11.625-9.5 24.375-12.75 37.75-2.75 11-4.625 22.5-5.5 34.5 2.25-1.125 4.5-2.375 6.75-4 4.375-3.125 8.125-7 11.5-11.375zm0 0"/><path fill="url(#e)" d="M125.5.375C125.25 0 125.25 0 125.125 0c-.25 0-.5.25-.875.5l-.75.75s-28.625 29-49.125 76.5c3 2.125 5.625 4.75 7.625 8.125 4.125 6.75 5 15 3.625 23.375C90.5 107 95.5 104 100.5 99.875c4.25-3.5 8.375-7.875 12.125-13.125 1.875-2.625 3.625-5.375 5.25-8.5A39.38 39.38 0 0 0 119.5 75c4.25-8.25 7.5-16.25 8.5-26.125v-.125c.5-2.75.5-5.625.625-8.375.625-14.75-1-28.875-3.125-40zm0 0"/><path fill="url(#f)" d="M169.75 78c-8.375-3.875-16.375-8.625-22.625-13.25-1.625-1.25-3.75-2.75-6.125-4.625-4.625-3.375-8.875-7.375-12.875-11.5v.125c-1 10-4.25 18-8.5 26.25-.5 1.25-1.125 2.375-1.75 3.625-1.625 3.125-3.375 5.875-5.25 8.5 6.25 13.75 10 26.625 12.25 38.125.875-1 1.75-1.875 2.75-2.75 11.5-9.75 29.25-6.25 35.5-4.75-1.25-2.5-2.125-5.125-2.625-8.75-1.125-7.25-.5-19 6-27.25 1-1.625 2.125-2.75 3.25-3.75zm0 0"/><path fill="url(#g)" d="M184.5 136c-5.5-2.25-12.625-5.75-16.875-11.25-2-2.625-3.5-4.75-4.625-6.875-6.25-1.5-24-5-35.5 4.75-1 .875-1.875 1.75-2.75 2.75l.375 1.875c3.375 18.875 2.625 33.5 1.625 40.625-.375 2.625-.875 5.25-1.375 7.875-.5 2.25-1 4.5-1.625 6.75 2.75 7.125 6.25 13.875 10.125 19.625C136 205.25 141.75 213.5 151.5 221.25l10-11.125s-2.125-25 2.875-36.5c8.625-20 29.375-22 29.375-22-.125-4.375-.5-8.75-1-13-2.75-.875-6.625-2-8.25-2.625zm0 0"/><path fill="#4dc4cf" d="M192.625 136.75c-2.375-20-7.875-38.5-14.75-55.25-2.75-1-5.625-2.25-8.25-3.5-1 1-2.125 2.125-3.25 3.625-6.5 8.375-7.125 20-6 27.25.625 3.75 1.375 6.375 2.625 8.75 1.125 2.25 2.625 4.25 4.625 6.875 4.25 5.5 11.375 9.125 16.875 11.25 1.625.625 5.5 1.75 8.375 2.5-.125-.375-.125-.875-.25-1.5zm0 0"/></svg>