<svg xmlns="http://www.w3.org/2000/svg" width="250" height="250"><path fill="#f5d834" d="M250 125c0 69.035-55.965 125-125 125S0 194.035 0 125 55.965 0 125 0s125 55.965 125 125zm0 0"/><path fill="#cc8f12" d="M232.559 125c0 59.402-48.157 107.559-107.559 107.559S17.441 184.402 17.441 125 65.598 17.441 125 17.441 232.559 65.598 232.559 125zm0 0"/><path fill="#f5d834" d="M201.746 125c0 42.383-34.363 76.746-76.746 76.746S48.254 167.383 48.254 125 82.617 48.254 125 48.254 201.746 82.617 201.746 125zm0 0"/><path fill="#cc8f12" d="m119.188 112.21 4.648-5.815h-23.254l4.07 5.816zm-29.07-20.35h44.765l4.652-5.813H86.047zM150 86.046h-10.465v26.164h27.906l-27.906 19.766v20.93l-22.094-15.696-38.37 26.742h54.652c16.859 0 33.718-12.789 38.37-29.652l3.489-15.696c4.07-18.023-7.559-32.558-25.582-32.558zm-18.605 9.883h-37.79l4.07 5.816h29.071zm0 0"/></svg>