<svg xmlns="http://www.w3.org/2000/svg" width="250" height="250"><linearGradient id="a" x1="82.869" x2="170.447" y1="231.774" y2="9.824" gradientUnits="userSpaceOnUse"><stop offset="0" stop-color="#eb5e57"/><stop offset=".924" stop-color="#f4cb54"/></linearGradient><linearGradient id="b" x1="187.982" x2="582.442" y1="603.18" y2="241.591" gradientTransform="matrix(.31187 .00524 .00524 .31187 3.027 -3.027)" gradientUnits="userSpaceOnUse"><stop offset="0" stop-color="#c7772b" stop-opacity="0"/><stop offset="1" stop-color="#c7772b"/></linearGradient><clipPath id="c"><path d="M73 34h145v152H73zm0 0"/></clipPath><clipPath id="d"><path d="M213.914 102.55a8.14 8.14 0 0 0-9.988-5.741c-2.094.57-3.867 1.902-4.946 3.804a8.255 8.255 0 0 0-.824 6.184c8.813 32.851-5.55 67.797-34.945 84.953a5.944 5.944 0 0 1-2.95.793 5.882 5.882 0 0 1-5.042-2.887c-1.586-2.695-.762-6.12 1.84-7.832l.093-.062a.636.636 0 0 0 .192-.13l.094-.062c.035-.03.066-.03.097-.062l.285-.16c11.7-6.977 21.055-17.79 26.32-30.442 5.485-13.16 6.434-27.363 2.758-41.129-.953-3.55-4.187-6.054-7.863-6.054-.7 0-1.43.093-2.125.285-4.344 1.172-6.914 5.644-5.773 9.988l.062.285v.098c.574 2.98-1.265 5.93-4.215 6.723a6.353 6.353 0 0 1-1.523.187c-2.379 0-4.566-1.488-5.422-3.71v-.032a19.116 19.116 0 0 1-.191-.602c-.032-.093-.063-.191-.094-.285l-.094-.254a36.492 36.492 0 0 0-12.844-18.836c-6.375-4.882-13.984-7.449-22.039-7.449-4.343 0-8.625.758-12.652 2.281l-.125.032-.098.03a5.215 5.215 0 0 1-.98.099c-2.473 0-4.695-1.586-5.488-3.903a5.802 5.802 0 0 1 3.3-7.293c.032-.031.094-.031.157-.062l.062-.032c.098-.03.192-.066.285-.097l.067-.031c.03 0 .03-.032.062-.032h.063a47.728 47.728 0 0 1 15.379-2.535c12.75 0 24.734 4.945 33.742 13.95 1.55 1.523 3.582 2.378 5.77 2.378a8.227 8.227 0 0 0 5.769-2.379c3.14-3.136 3.172-8.273.066-11.445l-.285-.285c-2.062-2.317-1.969-5.836.219-8.024a5.785 5.785 0 0 1 4.125-1.71c1.426 0 2.82.507 3.867 1.457l.316.285a8.107 8.107 0 0 0 5.707 2.316 8.055 8.055 0 0 0 5.743-2.379c1.55-1.523 2.379-3.582 2.379-5.77a8.07 8.07 0 0 0-2.38-5.742C172.5 43.887 149.419 34.34 124.81 34.34c-24.606 0-47.692 9.547-65.036 26.89a8.04 8.04 0 0 0-2.378 5.743c0 2.187.855 4.215 2.378 5.738a8.03 8.03 0 0 0 5.739 2.379c2.187 0 4.218-.856 5.773-2.38 14.27-14.269 33.262-22.132 53.524-22.132 13.191 0 26.16 3.422 37.515 9.926 1.363.758 2.313 2.027 2.727 3.52a5.761 5.761 0 0 1-.57 4.437c-1.047 1.809-2.985 2.95-5.075 2.95-.922 0-1.84-.224-2.633-.634l-.093-.066a.62.62 0 0 1-.192-.125l-.285-.16a64.317 64.317 0 0 0-31.426-8.211c-17.12 0-33.199 6.66-45.28 18.707-1.556 1.555-2.38 3.586-2.38 5.773s.856 4.215 2.38 5.77c1.523 1.523 3.581 2.379 5.737 2.379s4.22-.856 5.774-2.38c.062-.062.125-.124.191-.187l.125-.129a5.79 5.79 0 0 1 3.805-1.425c1.555 0 3.012.601 4.121 1.71a5.803 5.803 0 0 1 .793 7.231l-.95 1.047c-6.816 6.848-10.558 15.918-10.558 25.59a36.119 36.119 0 0 0 13.317 28.062l.093.063.067.097a5.798 5.798 0 0 1-.13 7.45c-1.109 1.27-2.726 2.03-4.405 2.03-1.301 0-2.57-.444-3.551-1.206l-.13-.125c-.093-.063-.155-.16-.253-.223l-.156-.16a47.691 47.691 0 0 1-14.114-21.656 47.464 47.464 0 0 1-.57-26.606c1.176-4.343-1.426-8.812-5.77-9.988a7.94 7.94 0 0 0-2.124-.285 8.14 8.14 0 0 0-7.832 5.96l-.098.415c-.793 2.41-3.012 3.996-5.547 3.996a6.359 6.359 0 0 1-1.523-.191c-2.98-.793-4.82-3.805-4.215-6.817l.093-.414c1.11-4.312-1.492-8.75-5.773-9.894a8.072 8.072 0 0 0-2.121-.286 8.148 8.148 0 0 0-7.867 6.028c-6.34 23.687-3.074 48.453 9.23 69.761 12.301 21.31 32.121 36.528 55.809 42.872a8.079 8.079 0 0 0 2.125.285 8.147 8.147 0 0 0 7.863-6.028 7.976 7.976 0 0 0-.824-6.183 8.195 8.195 0 0 0-4.95-3.805c-32.85-8.812-55.933-38.715-56.093-72.71 0-1.552.602-3.013 1.68-4.122a5.956 5.956 0 0 1 4.125-1.742h.03c3.106 0 5.677 2.41 5.802 5.516V127.063c.16 13.695 4.851 27.238 13.191 38.175 8.66 11.32 20.484 19.25 34.246 22.961.7.188 1.399.285 2.125.285a8.153 8.153 0 0 0 7.867-6.027c1.141-4.312-1.43-8.781-5.742-9.957h-.031c-.063 0-.125-.031-.156-.031l-.254-.063c-2.856-1.015-4.504-4.09-3.711-7.008.695-2.535 3.012-4.312 5.613-4.312.156 0 .317 0 .473.031l1.047.254a37.05 37.05 0 0 0 9.324 1.203c16.234 0 30.601-10.906 34.914-26.539l.062-.191c.032-.125.063-.285.094-.41l.031-.13c0-.03.032-.093.032-.124l.066-.223c.031-.16.094-.316.125-.477v-.03c.063-.286.129-.571.191-.856l.063-.254c0-.031 0-.063.031-.094l.031-.066c0-.032 0-.063.032-.094l.031-.125c.035-.223.098-.414.16-.606.73-2.44 3.043-4.12 5.582-4.12.348 0 .727.03 1.078.093a5.818 5.818 0 0 1 4.692 6.5v.035c0 .032 0 .094-.032.157l-.03.097c0 .094-.032.156-.032.25v.067c0 .03-.031.093-.031.125v.062a47.99 47.99 0 0 1-11.703 23.024c-6.118 6.69-13.985 11.445-22.766 13.792-2.094.57-3.871 1.903-4.95 3.805a8.253 8.253 0 0 0-.823 6.184 8.153 8.153 0 0 0 7.867 6.027c.664 0 1.363-.098 2.027-.254l.414-.097a5.072 5.072 0 0 1 1.203-.125 5.804 5.804 0 0 1 5.613 4.312 5.827 5.827 0 0 1-3.804 7.04l-.414.124c-4.281 1.176-6.817 5.645-5.676 9.957a8.147 8.147 0 0 0 7.863 6.028c.7 0 1.43-.098 2.125-.286 23.688-6.343 43.508-21.562 55.809-42.875 12.398-21.242 15.668-46.039 9.324-69.726zm-89.516 3.9h.063c.445 0 .887 0 1.426.03l.539.032c10.34.793 18.457 9.547 18.457 19.914 0 6.5-3.203 12.62-8.531 16.363l-.477.316-.156.098c-.13.094-.285.156-.414.254l-.477.285c-.156.094-.285.156-.473.254-.253.125-.445.219-.636.316h-.031a20.184 20.184 0 0 1-4.946 1.68c-2.57.508-5.328.508-7.894-.031l-.891-.223c-8.719-2.218-15.031-10.37-15.031-19.343 0-2.313.383-4.598 1.176-6.754.886-2.442 2.218-4.692 3.996-6.625l.062-.098c3.582-3.93 8.465-6.246 13.762-6.5.16.031.316.031.476.031zm0 0"/></clipPath><clipPath id="e"><path d="M32 43h173v173H32zm0 0"/></clipPath><clipPath id="f"><path d="M213.914 102.55a8.14 8.14 0 0 0-9.988-5.741c-2.094.57-3.867 1.902-4.946 3.804a8.255 8.255 0 0 0-.824 6.184c8.813 32.851-5.55 67.797-34.945 84.953a5.944 5.944 0 0 1-2.95.793 5.882 5.882 0 0 1-5.042-2.887c-1.586-2.695-.762-6.12 1.84-7.832l.093-.062a.636.636 0 0 0 .192-.13l.094-.062c.035-.03.066-.03.097-.062l.285-.16c11.7-6.977 21.055-17.79 26.32-30.442 5.485-13.16 6.434-27.363 2.758-41.129-.953-3.55-4.187-6.054-7.863-6.054-.7 0-1.43.093-2.125.285-4.344 1.172-6.914 5.644-5.773 9.988l.062.285v.098c.574 2.98-1.265 5.93-4.215 6.723a6.353 6.353 0 0 1-1.523.187c-2.379 0-4.566-1.488-5.422-3.71v-.032a19.116 19.116 0 0 1-.191-.602c-.032-.093-.063-.191-.094-.285l-.094-.254a36.492 36.492 0 0 0-12.844-18.836c-6.375-4.882-13.984-7.449-22.039-7.449-4.343 0-8.625.758-12.652 2.281l-.125.032-.098.03a5.215 5.215 0 0 1-.98.099c-2.473 0-4.695-1.586-5.488-3.903a5.802 5.802 0 0 1 3.3-7.293c.032-.031.094-.031.157-.062l.062-.032c.098-.03.192-.066.285-.097l.067-.031c.03 0 .03-.032.062-.032h.063a47.728 47.728 0 0 1 15.379-2.535c12.75 0 24.734 4.945 33.742 13.95 1.55 1.523 3.582 2.378 5.77 2.378a8.227 8.227 0 0 0 5.769-2.379c3.14-3.136 3.172-8.273.066-11.445l-.285-.285c-2.062-2.317-1.969-5.836.219-8.024a5.785 5.785 0 0 1 4.125-1.71c1.426 0 2.82.507 3.867 1.457l.316.285a8.107 8.107 0 0 0 5.707 2.316 8.055 8.055 0 0 0 5.743-2.379c1.55-1.523 2.379-3.582 2.379-5.77a8.07 8.07 0 0 0-2.38-5.742C172.5 43.887 149.419 34.34 124.81 34.34c-24.606 0-47.692 9.547-65.036 26.89a8.04 8.04 0 0 0-2.378 5.743c0 2.187.855 4.215 2.378 5.738a8.03 8.03 0 0 0 5.739 2.379c2.187 0 4.218-.856 5.773-2.38 14.27-14.269 33.262-22.132 53.524-22.132 13.191 0 26.16 3.422 37.515 9.926 1.363.758 2.313 2.027 2.727 3.52a5.761 5.761 0 0 1-.57 4.437c-1.047 1.809-2.985 2.95-5.075 2.95-.922 0-1.84-.224-2.633-.634l-.093-.066a.62.62 0 0 1-.192-.125l-.285-.16a64.317 64.317 0 0 0-31.426-8.211c-17.12 0-33.199 6.66-45.28 18.707-1.556 1.555-2.38 3.586-2.38 5.773s.856 4.215 2.38 5.77c1.523 1.523 3.581 2.379 5.737 2.379s4.22-.856 5.774-2.38c.062-.062.125-.124.191-.187l.125-.129a5.79 5.79 0 0 1 3.805-1.425c1.555 0 3.012.601 4.121 1.71a5.803 5.803 0 0 1 .793 7.231l-.95 1.047c-6.816 6.848-10.558 15.918-10.558 25.59a36.119 36.119 0 0 0 13.317 28.062l.093.063.067.097a5.798 5.798 0 0 1-.13 7.45c-1.109 1.27-2.726 2.03-4.405 2.03-1.301 0-2.57-.444-3.551-1.206l-.13-.125c-.093-.063-.155-.16-.253-.223l-.156-.16a47.691 47.691 0 0 1-14.114-21.656 47.464 47.464 0 0 1-.57-26.606c1.176-4.343-1.426-8.812-5.77-9.988a7.94 7.94 0 0 0-2.124-.285 8.14 8.14 0 0 0-7.832 5.96l-.098.415c-.793 2.41-3.012 3.996-5.547 3.996a6.359 6.359 0 0 1-1.523-.191c-2.98-.793-4.82-3.805-4.215-6.817l.093-.414c1.11-4.312-1.492-8.75-5.773-9.894a8.072 8.072 0 0 0-2.121-.286 8.148 8.148 0 0 0-7.867 6.028c-6.34 23.687-3.074 48.453 9.23 69.761 12.301 21.31 32.121 36.528 55.809 42.872a8.079 8.079 0 0 0 2.125.285 8.147 8.147 0 0 0 7.863-6.028 7.976 7.976 0 0 0-.824-6.183 8.195 8.195 0 0 0-4.95-3.805c-32.85-8.812-55.933-38.715-56.093-72.71 0-1.552.602-3.013 1.68-4.122a5.956 5.956 0 0 1 4.125-1.742h.03c3.106 0 5.677 2.41 5.802 5.516V127.063c.16 13.695 4.851 27.238 13.191 38.175 8.66 11.32 20.484 19.25 34.246 22.961.7.188 1.399.285 2.125.285a8.153 8.153 0 0 0 7.867-6.027c1.141-4.312-1.43-8.781-5.742-9.957h-.031c-.063 0-.125-.031-.156-.031l-.254-.063c-2.856-1.015-4.504-4.09-3.711-7.008.695-2.535 3.012-4.312 5.613-4.312.156 0 .317 0 .473.031l1.047.254a37.05 37.05 0 0 0 9.324 1.203c16.234 0 30.601-10.906 34.914-26.539l.062-.191c.032-.125.063-.285.094-.41l.031-.13c0-.03.032-.093.032-.124l.066-.223c.031-.16.094-.316.125-.477v-.03c.063-.286.129-.571.191-.856l.063-.254c0-.031 0-.063.031-.094l.031-.066c0-.032 0-.063.032-.094l.031-.125c.035-.223.098-.414.16-.606.73-2.44 3.043-4.12 5.582-4.12.348 0 .727.03 1.078.093a5.818 5.818 0 0 1 4.692 6.5v.035c0 .032 0 .094-.032.157l-.03.097c0 .094-.032.156-.032.25v.067c0 .03-.031.093-.031.125v.062a47.99 47.99 0 0 1-11.703 23.024c-6.118 6.69-13.985 11.445-22.766 13.792-2.094.57-3.871 1.903-4.95 3.805a8.253 8.253 0 0 0-.823 6.184 8.153 8.153 0 0 0 7.867 6.027c.664 0 1.363-.098 2.027-.254l.414-.097a5.072 5.072 0 0 1 1.203-.125 5.804 5.804 0 0 1 5.613 4.312 5.827 5.827 0 0 1-3.804 7.04l-.414.124c-4.281 1.176-6.817 5.645-5.676 9.957a8.147 8.147 0 0 0 7.863 6.028c.7 0 1.43-.098 2.125-.286 23.688-6.343 43.508-21.562 55.809-42.875 12.398-21.242 15.668-46.039 9.324-69.726zm-89.516 3.9h.063c.445 0 .887 0 1.426.03l.539.032c10.34.793 18.457 9.547 18.457 19.914 0 6.5-3.203 12.62-8.531 16.363l-.477.316-.156.098c-.13.094-.285.156-.414.254l-.477.285c-.156.094-.285.156-.473.254-.253.125-.445.219-.636.316h-.031a20.184 20.184 0 0 1-4.946 1.68c-2.57.508-5.328.508-7.894-.031l-.891-.223c-8.719-2.218-15.031-10.37-15.031-19.343 0-2.313.383-4.598 1.176-6.754.886-2.442 2.218-4.692 3.996-6.625l.062-.098c3.582-3.93 8.465-6.246 13.762-6.5.16.031.316.031.476.031zm0 0"/></clipPath><clipPath id="g"><path d="M134 34h84v105h-84zm0 0"/></clipPath><clipPath id="h"><path d="M213.914 102.55a8.14 8.14 0 0 0-9.988-5.741c-2.094.57-3.867 1.902-4.946 3.804a8.255 8.255 0 0 0-.824 6.184c8.813 32.851-5.55 67.797-34.945 84.953a5.944 5.944 0 0 1-2.95.793 5.882 5.882 0 0 1-5.042-2.887c-1.586-2.695-.762-6.12 1.84-7.832l.093-.062a.636.636 0 0 0 .192-.13l.094-.062c.035-.03.066-.03.097-.062l.285-.16c11.7-6.977 21.055-17.79 26.32-30.442 5.485-13.16 6.434-27.363 2.758-41.129-.953-3.55-4.187-6.054-7.863-6.054-.7 0-1.43.093-2.125.285-4.344 1.172-6.914 5.644-5.773 9.988l.062.285v.098c.574 2.98-1.265 5.93-4.215 6.723a6.353 6.353 0 0 1-1.523.187c-2.379 0-4.566-1.488-5.422-3.71v-.032a19.116 19.116 0 0 1-.191-.602c-.032-.093-.063-.191-.094-.285l-.094-.254a36.492 36.492 0 0 0-12.844-18.836c-6.375-4.882-13.984-7.449-22.039-7.449-4.343 0-8.625.758-12.652 2.281l-.125.032-.098.03a5.215 5.215 0 0 1-.98.099c-2.473 0-4.695-1.586-5.488-3.903a5.802 5.802 0 0 1 3.3-7.293c.032-.031.094-.031.157-.062l.062-.032c.098-.03.192-.066.285-.097l.067-.031c.03 0 .03-.032.062-.032h.063a47.728 47.728 0 0 1 15.379-2.535c12.75 0 24.734 4.945 33.742 13.95 1.55 1.523 3.582 2.378 5.77 2.378a8.227 8.227 0 0 0 5.769-2.379c3.14-3.136 3.172-8.273.066-11.445l-.285-.285c-2.062-2.317-1.969-5.836.219-8.024a5.785 5.785 0 0 1 4.125-1.71c1.426 0 2.82.507 3.867 1.457l.316.285a8.107 8.107 0 0 0 5.707 2.316 8.055 8.055 0 0 0 5.743-2.379c1.55-1.523 2.379-3.582 2.379-5.77a8.07 8.07 0 0 0-2.38-5.742C172.5 43.887 149.419 34.34 124.81 34.34c-24.606 0-47.692 9.547-65.036 26.89a8.04 8.04 0 0 0-2.378 5.743c0 2.187.855 4.215 2.378 5.738a8.03 8.03 0 0 0 5.739 2.379c2.187 0 4.218-.856 5.773-2.38 14.27-14.269 33.262-22.132 53.524-22.132 13.191 0 26.16 3.422 37.515 9.926 1.363.758 2.313 2.027 2.727 3.52a5.761 5.761 0 0 1-.57 4.437c-1.047 1.809-2.985 2.95-5.075 2.95-.922 0-1.84-.224-2.633-.634l-.093-.066a.62.62 0 0 1-.192-.125l-.285-.16a64.317 64.317 0 0 0-31.426-8.211c-17.12 0-33.199 6.66-45.28 18.707-1.556 1.555-2.38 3.586-2.38 5.773s.856 4.215 2.38 5.77c1.523 1.523 3.581 2.379 5.737 2.379s4.22-.856 5.774-2.38c.062-.062.125-.124.191-.187l.125-.129a5.79 5.79 0 0 1 3.805-1.425c1.555 0 3.012.601 4.121 1.71a5.803 5.803 0 0 1 .793 7.231l-.95 1.047c-6.816 6.848-10.558 15.918-10.558 25.59a36.119 36.119 0 0 0 13.317 28.062l.093.063.067.097a5.798 5.798 0 0 1-.13 7.45c-1.109 1.27-2.726 2.03-4.405 2.03-1.301 0-2.57-.444-3.551-1.206l-.13-.125c-.093-.063-.155-.16-.253-.223l-.156-.16a47.691 47.691 0 0 1-14.114-21.656 47.464 47.464 0 0 1-.57-26.606c1.176-4.343-1.426-8.812-5.77-9.988a7.94 7.94 0 0 0-2.124-.285 8.14 8.14 0 0 0-7.832 5.96l-.098.415c-.793 2.41-3.012 3.996-5.547 3.996a6.359 6.359 0 0 1-1.523-.191c-2.98-.793-4.82-3.805-4.215-6.817l.093-.414c1.11-4.312-1.492-8.75-5.773-9.894a8.072 8.072 0 0 0-2.121-.286 8.148 8.148 0 0 0-7.867 6.028c-6.34 23.687-3.074 48.453 9.23 69.761 12.301 21.31 32.121 36.528 55.809 42.872a8.079 8.079 0 0 0 2.125.285 8.147 8.147 0 0 0 7.863-6.028 7.976 7.976 0 0 0-.824-6.183 8.195 8.195 0 0 0-4.95-3.805c-32.85-8.812-55.933-38.715-56.093-72.71 0-1.552.602-3.013 1.68-4.122a5.956 5.956 0 0 1 4.125-1.742h.03c3.106 0 5.677 2.41 5.802 5.516V127.063c.16 13.695 4.851 27.238 13.191 38.175 8.66 11.32 20.484 19.25 34.246 22.961.7.188 1.399.285 2.125.285a8.153 8.153 0 0 0 7.867-6.027c1.141-4.312-1.43-8.781-5.742-9.957h-.031c-.063 0-.125-.031-.156-.031l-.254-.063c-2.856-1.015-4.504-4.09-3.711-7.008.695-2.535 3.012-4.312 5.613-4.312.156 0 .317 0 .473.031l1.047.254a37.05 37.05 0 0 0 9.324 1.203c16.234 0 30.601-10.906 34.914-26.539l.062-.191c.032-.125.063-.285.094-.41l.031-.13c0-.03.032-.093.032-.124l.066-.223c.031-.16.094-.316.125-.477v-.03c.063-.286.129-.571.191-.856l.063-.254c0-.031 0-.063.031-.094l.031-.066c0-.032 0-.063.032-.094l.031-.125c.035-.223.098-.414.16-.606.73-2.44 3.043-4.12 5.582-4.12.348 0 .727.03 1.078.093a5.818 5.818 0 0 1 4.692 6.5v.035c0 .032 0 .094-.032.157l-.03.097c0 .094-.032.156-.032.25v.067c0 .03-.031.093-.031.125v.062a47.99 47.99 0 0 1-11.703 23.024c-6.118 6.69-13.985 11.445-22.766 13.792-2.094.57-3.871 1.903-4.95 3.805a8.253 8.253 0 0 0-.823 6.184 8.153 8.153 0 0 0 7.867 6.027c.664 0 1.363-.098 2.027-.254l.414-.097a5.072 5.072 0 0 1 1.203-.125 5.804 5.804 0 0 1 5.613 4.312 5.827 5.827 0 0 1-3.804 7.04l-.414.124c-4.281 1.176-6.817 5.645-5.676 9.957a8.147 8.147 0 0 0 7.863 6.028c.7 0 1.43-.098 2.125-.286 23.688-6.343 43.508-21.562 55.809-42.875 12.398-21.242 15.668-46.039 9.324-69.726zm-89.516 3.9h.063c.445 0 .887 0 1.426.03l.539.032c10.34.793 18.457 9.547 18.457 19.914 0 6.5-3.203 12.62-8.531 16.363l-.477.316-.156.098c-.13.094-.285.156-.414.254l-.477.285c-.156.094-.285.156-.473.254-.253.125-.445.219-.636.316h-.031a20.184 20.184 0 0 1-4.946 1.68c-2.57.508-5.328.508-7.894-.031l-.891-.223c-8.719-2.218-15.031-10.37-15.031-19.343 0-2.313.383-4.598 1.176-6.754.886-2.442 2.218-4.692 3.996-6.625l.062-.098c3.582-3.93 8.465-6.246 13.762-6.5.16.031.316.031.476.031zm0 0"/></clipPath><path fill="url(#a)" d="M213.375 36.625c-48.8-48.832-127.95-48.832-176.75 0s-48.8 127.95 0 176.781 127.95 48.801 176.781 0 48.801-127.98-.031-176.781"/><path fill="url(#b)" d="m5.422 120.879 55.875-61.676 78.226-18.266 49.657 32.66-39.352 39.321 6.883 12.46 17.406-19.976 5.613 17.188 20.833-23.844 8.183 31.36-12.05 53.968-51.782 58.887-77.184-10.305-54.793-59.965zm0 0"/><path fill="#f2d58b" d="M213.914 102.55a8.14 8.14 0 0 0-9.988-5.741c-2.094.57-3.867 1.902-4.946 3.804a8.255 8.255 0 0 0-.824 6.184c8.813 32.851-5.55 67.797-34.945 84.953a5.944 5.944 0 0 1-2.95.793 5.882 5.882 0 0 1-5.042-2.887c-1.586-2.695-.762-6.12 1.84-7.832l.093-.062a.636.636 0 0 0 .192-.13l.094-.062c.035-.03.066-.03.097-.062l.285-.16c11.7-6.977 21.055-17.79 26.32-30.442 5.485-13.16 6.434-27.363 2.758-41.129-.953-3.55-4.187-6.054-7.863-6.054-.7 0-1.43.093-2.125.285-4.344 1.172-6.914 5.644-5.773 9.988l.062.285v.098c.574 2.98-1.265 5.93-4.215 6.723a6.353 6.353 0 0 1-1.523.187c-2.379 0-4.566-1.488-5.422-3.71v-.032a19.116 19.116 0 0 1-.191-.602c-.032-.093-.063-.191-.094-.285l-.094-.254a36.492 36.492 0 0 0-12.844-18.836c-6.375-4.882-13.984-7.449-22.039-7.449-4.343 0-8.625.758-12.652 2.281l-.125.032-.098.03a5.215 5.215 0 0 1-.98.099c-2.473 0-4.695-1.586-5.488-3.903a5.802 5.802 0 0 1 3.3-7.293c.032-.031.094-.031.157-.062l.062-.032c.098-.03.192-.066.285-.097l.067-.031c.03 0 .03-.032.062-.032h.063a47.728 47.728 0 0 1 15.379-2.535c12.75 0 24.734 4.945 33.742 13.95 1.55 1.523 3.582 2.378 5.77 2.378a8.227 8.227 0 0 0 5.769-2.379c3.14-3.136 3.172-8.273.066-11.445l-.285-.285c-2.062-2.317-1.969-5.836.219-8.024a5.785 5.785 0 0 1 4.125-1.71c1.426 0 2.82.507 3.867 1.457l.316.285a8.107 8.107 0 0 0 5.707 2.316 8.055 8.055 0 0 0 5.743-2.379c1.55-1.523 2.379-3.582 2.379-5.77a8.07 8.07 0 0 0-2.38-5.742C172.5 43.887 149.419 34.34 124.81 34.34c-24.606 0-47.692 9.547-65.036 26.89a8.04 8.04 0 0 0-2.378 5.743c0 2.187.855 4.215 2.378 5.738a8.03 8.03 0 0 0 5.739 2.379c2.187 0 4.218-.856 5.773-2.38 14.27-14.269 33.262-22.132 53.524-22.132 13.191 0 26.16 3.422 37.515 9.926 1.363.758 2.313 2.027 2.727 3.52a5.761 5.761 0 0 1-.57 4.437c-1.047 1.809-2.985 2.95-5.075 2.95-.922 0-1.84-.224-2.633-.634l-.093-.066a.62.62 0 0 1-.192-.125l-.285-.16a64.317 64.317 0 0 0-31.426-8.211c-17.12 0-33.199 6.66-45.28 18.707-1.556 1.555-2.38 3.586-2.38 5.773s.856 4.215 2.38 5.77c1.523 1.523 3.581 2.379 5.737 2.379s4.22-.856 5.774-2.38c.062-.062.125-.124.191-.187l.125-.129a5.79 5.79 0 0 1 3.805-1.425c1.555 0 3.012.601 4.121 1.71a5.803 5.803 0 0 1 .793 7.231l-.95 1.047c-6.816 6.848-10.558 15.918-10.558 25.59a36.119 36.119 0 0 0 13.317 28.062l.093.063.067.097a5.798 5.798 0 0 1-.13 7.45c-1.109 1.27-2.726 2.03-4.405 2.03-1.301 0-2.57-.444-3.551-1.206l-.13-.125c-.093-.063-.155-.16-.253-.223l-.156-.16a47.691 47.691 0 0 1-14.114-21.656 47.464 47.464 0 0 1-.57-26.606c1.176-4.343-1.426-8.812-5.77-9.988a7.94 7.94 0 0 0-2.124-.285 8.14 8.14 0 0 0-7.832 5.96l-.098.415c-.793 2.41-3.012 3.996-5.547 3.996a6.359 6.359 0 0 1-1.523-.191c-2.98-.793-4.82-3.805-4.215-6.817l.093-.414c1.11-4.312-1.492-8.75-5.773-9.894a8.072 8.072 0 0 0-2.121-.286 8.148 8.148 0 0 0-7.867 6.028c-6.34 23.687-3.074 48.453 9.23 69.761 12.301 21.31 32.121 36.528 55.809 42.872a8.079 8.079 0 0 0 2.125.285 8.147 8.147 0 0 0 7.863-6.028 7.976 7.976 0 0 0-.824-6.183 8.195 8.195 0 0 0-4.95-3.805c-32.85-8.812-55.933-38.715-56.093-72.71 0-1.552.602-3.013 1.68-4.122a5.956 5.956 0 0 1 4.125-1.742h.03c3.106 0 5.677 2.41 5.802 5.516V127.063c.16 13.695 4.851 27.238 13.191 38.175 8.66 11.32 20.484 19.25 34.246 22.961.7.188 1.399.285 2.125.285a8.153 8.153 0 0 0 7.867-6.027c1.141-4.312-1.43-8.781-5.742-9.957h-.031c-.063 0-.125-.031-.156-.031l-.254-.063c-2.856-1.015-4.504-4.09-3.711-7.008.695-2.535 3.012-4.312 5.613-4.312.156 0 .317 0 .473.031l1.047.254a37.05 37.05 0 0 0 9.324 1.203c16.234 0 30.601-10.906 34.914-26.539l.062-.191c.032-.125.063-.285.094-.41l.031-.13c0-.03.032-.093.032-.124l.066-.223c.031-.16.094-.316.125-.477v-.03c.063-.286.129-.571.191-.856l.063-.254c0-.031 0-.063.031-.094l.031-.066c0-.032 0-.063.032-.094l.031-.125c.035-.223.098-.414.16-.606.73-2.44 3.043-4.12 5.582-4.12.348 0 .727.03 1.078.093a5.818 5.818 0 0 1 4.692 6.5v.035c0 .032 0 .094-.032.157l-.03.097c0 .094-.032.156-.032.25v.067c0 .03-.031.093-.031.125v.062a47.99 47.99 0 0 1-11.703 23.024c-6.118 6.69-13.985 11.445-22.766 13.792-2.094.57-3.871 1.903-4.95 3.805a8.253 8.253 0 0 0-.823 6.184 8.153 8.153 0 0 0 7.867 6.027c.664 0 1.363-.098 2.027-.254l.414-.097a5.072 5.072 0 0 1 1.203-.125 5.804 5.804 0 0 1 5.613 4.312 5.827 5.827 0 0 1-3.804 7.04l-.414.124c-4.281 1.176-6.817 5.645-5.676 9.957a8.147 8.147 0 0 0 7.863 6.028c.7 0 1.43-.098 2.125-.286 23.688-6.343 43.508-21.562 55.809-42.875 12.398-21.242 15.668-46.039 9.324-69.726zm-89.516 3.9h.063c.445 0 .887 0 1.426.03l.539.032c10.34.793 18.457 9.547 18.457 19.914 0 6.5-3.203 12.62-8.531 16.363l-.477.316-.156.098c-.13.094-.285.156-.414.254l-.477.285c-.156.094-.285.156-.473.254-.253.125-.445.219-.636.316h-.031a20.184 20.184 0 0 1-4.946 1.68c-2.57.508-5.328.508-7.894-.031l-.891-.223c-8.719-2.218-15.031-10.37-15.031-19.343 0-2.313.383-4.598 1.176-6.754.886-2.442 2.218-4.692 3.996-6.625l.062-.098c3.582-3.93 8.465-6.246 13.762-6.5.16.031.316.031.476.031zm0 0"/><g clip-path="url(#c)"><g clip-path="url(#d)"><path fill="#fdf5b2" d="M314.371 170.852s-.316-3.137-115.965 11.066c-9.226 5.805-13.98 3.234-17.406-4.723-4.473-2.125-6.691-3.363-10.973-5.582-8.37 3.235-14.617-5.422-11.605-11.16-4.473-3.933-4.758-4.441-8.371-7.96-9.672 1.71-13.7-8.466-9.895-13.317-8.21-10.88-16.172-20.93-23.433-30.95-5.864 3.422-12.907-3.425-16.551-14.84-12.906-7.105-13.477-18.109-7.738-22.355-1.743-4.918-3.36-6.281-4.504-10.75-12.684 6.246-20.04-1.176-10.114-13.097 26.32-31.551-4.058-116.946-4.058-116.946zm0 0"/></g></g><g clip-path="url(#e)"><g clip-path="url(#f)"><path fill="#e4b94a" d="M204.527 283.898s-.316-3.14-115.96 11.067c-9.227 5.8-13.985 3.234-17.41-4.727-4.47-2.125-6.692-3.36-10.973-5.578-8.371 3.235-14.618-5.422-11.606-11.164-4.469-3.93-4.754-4.437-8.371-7.957-9.672 1.711-13.7-8.469-9.89-13.32-8.215-10.875-16.176-20.926-23.434-30.95-5.836 3.426-12.875-3.453-16.524-14.84-12.906-7.1-13.476-18.105-7.738-22.355-1.742-4.914-3.36-6.277-4.5-10.75-12.683 6.25-20.043-1.172-10.117-13.094 26.289-31.52-4.09-116.914-4.09-116.914s72.871 42.11 72.457 58.442c8.816-.446-9.894 41.664 19.566 75.879 26.637 30.949 49.594 37.77 54.602 33.52 6.215 6.152 25.336-16.27 31.586-10.528.316 3.676 7.293 12.683 29.457 4.945 18.106 26.543 32.375 82.508 32.945 78.324zm0 0"/></g></g><g clip-path="url(#g)"><g clip-path="url(#h)"><path fill="#fffcc7" d="M375.191 124.207s-.316-3.14-115.964 11.066c-9.227 5.805-13.985 3.235-17.407-4.722-4.472-2.125-27.715 1.648-24.703-4.094-.508 2.98-3.394-14.203-7.515-20.2-4.79-7.007-10.813-3.452-9.895-6.433-9.672 1.711-16.488-20.297-12.684-25.148-5.359.347 5.707-7.801-12.238-18.485-21.723-12.906-35.863-12.367-29.87-19.566 26.284-31.52-10.306-153.031-10.306-153.031s72.868 42.14 72.426 58.472c8.813-.445-9.894 41.668 19.563 75.883 26.636 30.95 49.593 37.766 54.605 33.516 6.215 6.152 25.336-16.266 31.582-10.528.317 3.68 7.293 12.684 29.457 4.946 18.11 26.543 32.38 82.512 32.95 78.324zm0 0"/></g></g></svg>