<svg xmlns="http://www.w3.org/2000/svg" xmlns:xlink="http://www.w3.org/1999/xlink" version="1.0" x="0" y="0" style="enable-background:new 0 0 50 50" xml:space="preserve" viewBox="15 49 37.1 37.1"><style></style><defs><path id="SVGID_1_" d="M15 49h186v37H15z"/></defs><clipPath id="SVGID_2_"><use xlink:href="#SVGID_1_" style="overflow:visible"/></clipPath><g style="clip-path:url(#SVGID_2_)"><path d="M17.7 64.7c2.3 2.8 6.2 4.6 10.6 4.6.8 0 1.6 0 2.4-.1.7-.1 1.2-.5 1.3-1.2.1-.7 0-1.3-.5-1.7-2.2-1.7-3.6-4.4-3.6-7.5 0-5.4 4.3-9.7 9.5-9.7 4.2 0 7.8 3.6 9 7.1l3.5-1.5c.4-.1.8-.1 1.2.1.4.3.5.7.5 1.1 0 1.3-.5 2.5-1.5 3.4.3 0 .5.1.7.4.4.3.5.7.4 1.2-.2 1.1-2 2-4.2 2-.4 0-.8 0-1.1-.1-.3.4-.7.8-1.1 1.2-.3.3-.3.5-.3.8.1.3.3.5.5.7 9.1 3.2 12.5 20.6-10 20.6-8.4-.1-20-4-20-14.4 0-2.7 1.1-5.1 2.7-7zm24.5-9.3c.7.9 1.6 1.5 2.2 1.2.4-.3.3-1.3-.4-2.4-.7-.9-1.6-1.5-2.2-1.2-.4.4-.3 1.5.4 2.4z" style="fill-rule:evenodd;clip-rule:evenodd;fill:#fdd325"/></g></svg>
