<svg xmlns="http://www.w3.org/2000/svg" width="250" height="250"><path fill="#1d1f2a" d="M198.875 105.332c0-.164-.125-.25-.25-.332v-.082c-.125-.25-.375-.418-.625-.5L99.25 66.332 99 66.25c-.125-.082-.375-.082-.5-.082H51.875c-.125 0-.125.082-.25.082s-.125.082-.25.168c-.125.082-.125.164-.25.25v.082c0 .082-.125.168-.125.25v.082l.125.75 23.75 113.836.25.914.125.586c0 .164.125.332.25.414l.125.086c.125.082.375.164.625.25h46.25c.125 0 .25 0 .375-.086.125 0 .25-.082.375-.082h.125s.125 0 .125-.082l.125-.086 74.625-77h.125v-.082l.5-.5c0-.25.125-.5 0-.668zm-86 37.918-17.25 17.832-17.25-82.832 22.875 8.832zM115 141l-10.875-52.832 45.25 17.5zm.75 3.168 36.375-37.586h18l-51.375 52.836zm-15-59.586L77.875 75.75l-1.625-7.668h21zm-4.5 79.668 17.25-17.832 3.125 15.25-17.25 17.832zm55.875-59.832c-.125 0-.125-.086-.25-.086L103.5 85.668 100 68.75l92 35.668zm0 0"/></svg>