<svg xmlns="http://www.w3.org/2000/svg" width="250" height="250"><linearGradient id="a" x1="201.503" x2="140.71" y1="-33.47" y2="219.262" gradientUnits="userSpaceOnUse"><stop offset="0" stop-color="#2c2c3d"/><stop offset="1" stop-color="#1a1a27"/></linearGradient><linearGradient id="b" x1="87.282" x2="126.906" y1="67.196" y2="115.875" gradientUnits="userSpaceOnUse"><stop offset="0" stop-color="#fff"/><stop offset="1" stop-color="#fff" stop-opacity=".55"/></linearGradient><linearGradient id="c" x1="167.157" x2="118.562" y1="183.725" y2="117.058" gradientUnits="userSpaceOnUse"><stop offset="0" stop-color="#6966ff"/><stop offset="1" stop-color="#6966ff" stop-opacity=".36"/></linearGradient><path fill="url(#a)" d="M51.914 1.367h146.172c27.918 0 50.547 22.63 50.547 50.547v146.172c0 27.918-22.63 50.547-50.547 50.547H51.914c-27.918 0-50.547-22.63-50.547-50.547V51.914c0-27.918 22.63-50.547 50.547-50.547zm0 0"/><path fill="#fff" d="M157.535 58.742 61.477 193.977h29.492l96.558-135.235zm0 0"/><path fill="url(#b)" d="m94.04 58.742 28.265 39.852-14.746 21.734-43.625-61.586zm0 0"/><path fill="url(#c)" d="m160.398 193.988-31.335-44.074 14.746-21.133 46.082 65.207zm0 0"/><path fill="none" stroke="#2d2d3d" stroke-width="2.73224" d="M51.914 1.367h146.172c27.918 0 50.547 22.63 50.547 50.547v146.172c0 27.918-22.63 50.547-50.547 50.547H51.914c-27.918 0-50.547-22.63-50.547-50.547V51.914c0-27.918 22.63-50.547 50.547-50.547zm0 0"/></svg>