<svg xmlns="http://www.w3.org/2000/svg" width="250" height="250"><path fill="#2b1544" fill-rule="evenodd" d="M250 125c0 69.035-55.965 125-125 125S0 194.035 0 125 55.965 0 125 0s125 55.965 125 125zm0 0"/><path fill="#fff" d="M195.234 97.672v52c0 2.312.118 4.672-.406 6.945a27.103 27.103 0 0 1-7.828 13.75c-1.844 1.774-4.14 2.922-6.336 4.219-14.898 8.672-29.75 17.367-44.64 26.055-4.547 2.43-9.922 2.843-14.97 2.218a20.388 20.388 0 0 1-7.5-2.453c-15.679-9.14-31.359-18.304-47.03-27.437-3.829-2.133-6.688-5.649-8.79-9.43-1.718-3.281-2.976-6.89-2.976-10.648V96.75c.289-5.469 2.71-10.648 6.156-14.781a19.287 19.287 0 0 1 4.992-4.406c14.57-8.485 29.14-17 43.703-25.516 2.399-1.328 4.672-2.953 7.266-3.844a27.827 27.827 0 0 1 13.555-.766c2.007.563 4.054 1.157 5.86 2.22 15.858 9.304 31.741 18.538 47.593 27.85 4.226 2.5 7.328 6.68 9.344 11.141 1.273 2.813 2.007 5.915 2.007 9.024zm-70.703-19.344a83.493 83.493 0 0 1-11.617 13.75c-2.281 2.164-4.477 4.5-5.781 7.399-1.047 2.046-1.75 4.375-1.453 6.718.351 3.157 2.601 5.938 5.523 7.063 2.969 1.187 6.328.922 9.281-.235a3.047 3.047 0 0 1 1.696-.234c-.578 3.703-2.828 6.828-4.61 10.024l.078.53c1.61 1.72 3.305 3.344 4.907 5.032.406.383.78.914 1.343 1.094 1.868-1.446 3.329-3.344 5.047-4.938.383-.437 1.172-.914.758-1.594-1.664-3.124-3.508-6.289-4.031-9.898.312-.734 1.195-.117 1.719.063 2.773 1.359 6.125 1.562 9.023.445 3.945-1.508 6.399-6.125 5.516-10.297-.672-3.75-2.657-7.188-5.344-9.813-4.14-4.257-8.117-8.804-10.945-14.07a1.824 1.824 0 0 0-1.11-1.039zm-28.383 50.86c-4.687 2.546-7.82 7.539-8.593 12.843-1.07 7.446 3.28 15.227 10.023 18.274 4.266 1.836 9.219 1.797 13.516.117 2.219-.89 4.117-2.344 5.75-4.055.617-.656 1.515-1.242 1.515-2.25-.078-1.008-.984-1.562-1.57-2.25-.766-.68-1.375-1.562-2.25-2.101-1.406-.618-2.25.922-3.156 1.687-3.555 3.61-9.953 3.64-13.594.117a9.809 9.809 0 0 1-2.953-8.75c.437-2.992 2.219-5.828 4.875-7.25 1.719-.86 3.648-1.328 5.547-1.242 2.68.172 5.133 1.594 6.945 3.547 6.188 6.156 12.14 12.54 18.305 18.719 3.265 3.226 7.789 5.297 12.398 5.117 3.516.078 6.899-1.328 9.758-3.313 4.211-2.93 6.774-8.015 7.031-13.156.563-8.14-5.336-16.351-13.28-17.922-5.071-1.03-10.798.032-14.704 3.64-2.781 2.532-5.313 5.376-8.063 7.977-2.835-2.335-5.078-5.289-7.851-7.68a13.581 13.581 0 0 0-4.063-2.663c-.28-.18-.375-.266-.75-.414a16.422 16.422 0 0 0-14.836 1.007zm39.352 8.218c2.023-2.015 4.883-3.195 7.734-2.96 3.094.085 6.094 1.742 7.735 4.406 2.562 3.906 1.812 9.523-1.485 12.742-3.39 3.289-9.203 3.703-12.851.594-2.711-2.305-4.985-5.055-7.578-7.477-.032-.172-.063-.5-.094-.649 2.164-2.25 4.375-4.406 6.539-6.656zm0 0"/></svg>