<svg xmlns="http://www.w3.org/2000/svg" width="250" height="250"><path fill="#ffbc36" d="M250 125c0 69.035-55.965 125-125 125S0 194.035 0 125 55.965 0 125 0s125 55.965 125 125zm0 0"/><path fill="#ca9729" d="M38.32 157.5h42.266v-11.719H53.633v-15.625h20.586v-11.328H53.633v-15.312h26.953v-11.72H38.32zm101.172-56.367a32.348 32.348 0 0 0-10.586-6.875 37.949 37.949 0 0 0-13.945-2.461H89.258V157.5h25.508c4.828.09 9.625-.746 14.14-2.46a31.7 31.7 0 0 0 10.781-6.876 31.235 31.235 0 0 0 6.915-10.39 36.23 36.23 0 0 0 0-26.25 30.653 30.653 0 0 0-7.11-10.391zm-7.5 32.305a19.565 19.565 0 0 1-3.633 6.68 15.912 15.912 0 0 1-5.78 4.179 19.758 19.758 0 0 1-7.813 1.484H104.57v-42.265h10.196c2.68-.04 5.336.464 7.812 1.484a15.648 15.648 0 0 1 5.781 4.375 19.028 19.028 0 0 1 3.633 6.64 31.71 31.71 0 0 1 0 17.618zm64.453-41.641v39.062a20.38 20.38 0 0 1-.86 6.211 13.171 13.171 0 0 1-2.538 4.61 11.315 11.315 0 0 1-4.102 2.89 15.218 15.218 0 0 1-10.937 0 11.005 11.005 0 0 1-3.906-2.93 13.203 13.203 0 0 1-2.735-4.921 20.38 20.38 0 0 1-.86-6.211V91.445h-15.273v39.063a30.82 30.82 0 0 0 1.953 11.094 25.02 25.02 0 0 0 5.586 8.71 25.786 25.786 0 0 0 9.102 5.938 35.17 35.17 0 0 0 23.438 0 26.113 26.113 0 0 0 8.906-5.664 25.02 25.02 0 0 0 5.586-8.711 29.996 29.996 0 0 0 1.992-11.094V91.72zM125 0C55.965 0 0 55.965 0 125s55.965 125 125 125 125-55.965 125-125S194.035 0 125 0zm0 234.375c-60.406 0-109.375-48.969-109.375-109.375S64.594 15.625 125 15.625 234.375 64.594 234.375 125 185.406 234.375 125 234.375zm0 0"/></svg>