<svg xmlns="http://www.w3.org/2000/svg" width="250" height="250"><linearGradient id="a" x1="250" x2="35.156" y1="0" y2="250" gradientUnits="userSpaceOnUse"><stop offset="0" stop-color="#fbfbfb"/><stop offset=".51" stop-color="#b5b5b5"/><stop offset="1" stop-color="#fbfbfb"/></linearGradient><path fill="url(#a)" d="M0 0h250v250H0z"/><g fill="#fff"><path d="M168.61 63.46c-.567-.386-.958-.687-1.376-.956-.21-.149-.48-.27-.691-.418-.508-.332-1.016-.66-1.527-.988-.239-.153-.508-.27-.778-.422-.207-.117-.539-.18-.629-.36-.359-.718-.867-.566-1.437-.386-.57.18-1.195.27-1.766.449-.18.059-.36.328-.422.508-.117.48-.359.898-.867.867-.597-.027-1.226-.207-1.824-.387-.27-.09-.422-.422-.691-.512-1.196-.449-1.707-1.617-2.575-2.394-.27-.238-.75-.48-.988-.39-.27.09-.48.6-.508.929-.062.719-.062 1.438.028 2.156.12.899.87 1.38 1.468 1.946.328.3.63.66.93 1.02.867.987 1.766 2.007 2.633 2.995.242.27.691.45.152.867-.512.418-.93.418-1.289-.03-.328-.419-.75-.778-1.078-1.169-.148-.18-.27-.387-.418-.597-.09-.149-.121-.36-.21-.45-.9-.777-1.38-1.945-2.188-2.726-1.735-1.617-1.137-3.504-1.047-5.328.031-.57.597-1.079.898-1.649.031-.058.121-.09.149-.148.96-1.887 2.757-1.051 4.195-1.348.719.598 1.316 1.285 2.156 1.734.297.153-.09.809-.512.72-.386-.06-.808-.298-1.078-.567-.656-.692-2.543-1.14-3.414-.719-.418.207-.476.629-.09.957.66.57 1.348 1.11 2.008 1.676.149.152.27.332.39.539.09.121.118.332.208.39.96.481 1.797 1.317 2.996.989.207-.059.508-.418.508-.63 0-.48-.149-.956-.328-1.437-.121-.359-.391-.75.09-.957.449-.21 1.078-.27 1.289.297.265.75.804.871 1.464.871.54.028.957.18 1.11.778.058.18.36.328.597.39.66.207 1.47.149 1.766.989.031.09.242.207.36.207.511.062.898.242 1.019.808.031.121.148.301.27.332 1.109.207 1.468 1.285 2.246 1.914.75.602 1.406 1.348 2.035 2.008.57.57 1.32 1.047 1.707 1.828.062.117.09.297.18.328.75.059.898.809 1.347 1.137.45.332.781.66.961 1.168.027.09.09.18.18.242.957.508 1.914.989 2.844 1.524.417.242.777.511 1.199.75.867.507 1.734.988 2.574 1.527.27.18.418.54.687.75.27.207.63.45.899.387 1.437-.18 1.348-.207 1.379-1.735.058-2.277.27-4.523.387-6.796.03-.54.093-1.079.152-1.649.09-1.559.387-3.023.746-4.55.36-1.47.21-3.055.242-4.614 0-.867.149-1.617.75-2.277.207-.239.328-.567.387-.868.27-1.617 2.605-2.753 4.012-1.917.84.511 1.796.93 2.246 1.949.27.566.718 1.078.988 1.644.152.301.09.719.121 1.29a707.88 707.88 0 0 1-1.527-1.829c-.121.031-.239.09-.39.121 0 .508-.208 1.137.03 1.496.54.899.66 1.918.899 2.907.058.27.21.539.328.84.719-.301.539-.93.691-1.38.149-.48.239-.988.36-1.496.09-.03.148-.03.238-.062.148.422.39.84.39 1.258.028 1.797 0 3.594 0 5.39.028 3.746.028 7.489.118 11.23.031 1.65.18 3.294.3 4.911 0 .18.06.36.122.512 1.015 1.945.836 3.922.058 5.898-.238.598-.238 1.317-.36 1.977-.237 1.469-.507 2.933-.776 4.402-.18.957-.333 1.918-.57 2.844-.18.691-.481 1.316-.72 2.008-.148.48-.328.988-.418 1.465-.12.718-.152 1.437-.242 2.156-.058.3-.117.691-.328.898-.719.75-.629 1.649-.238 2.367.598 1.11.687 2.278.777 3.446.121 1.707.36 3.351.93 5.03.45 1.286.297 2.813.36 4.224.027.777-.032 1.496.597 2.125.27.27.27.84.328 1.257.18 1.348.3 2.723.48 4.075.032.265.239.539.391.777.477.777.418 1.676-.242 2.394-.059-.269-.117-.449-.148-.66-.09-.687-.18-1.257-.84-1.793-.477-.39-.54-1.289-.809-1.949-.117-.3-.27-.597-.45-.898-.058-.09-.206-.149-.237-.27-.508-1.168-1.047-2.336-1.559-3.504-.059-.117 0-.297-.059-.36-.718-.687-.957-1.675-1.468-2.425-.45-.629-.688-1.285-.989-1.945-.148-.328-.386-.66-.597-.988-.032-.032-.059-.06-.09-.122-.598-1.136-1.2-2.273-1.797-3.414 0-.027 0-.058-.031-.058-.598-.867-1.164-1.766-1.285-2.844 0-.121-.239-.18-.332-.3-.266-.302-.625-.598-.72-.958-.206-.75-.417-1.437-1.077-1.949-.266-.207-.297-.719-.508-1.047a248.067 248.067 0 0 0-1.797-3.086c-.54-.898-1.137-1.797-1.676-2.691-.031-.063-.058-.18-.12-.18-.927-.332-1.138-1.14-1.376-1.976a.49.49 0 0 0-.18-.243c-1.378-1.047-2.726-2.125-4.132-3.144-.93-.656-1.918-1.227-2.875-1.824-.332-.211-.72-.332-1.078-.512-.57-.297-1.141-.656-1.739-.957-.687-.36-1.347-.719-2.097-.957-1.915-.63-3.594-1.649-5.297-2.668-.332-.207-.75-.297-1.11-.45-1.379-.597-2.843-.988-4.011-1.945-.18-.148-.391-.21-.602-.3-.328-.09-.746-.06-.988-.27-1.047-.836-2.305-1.258-3.442-1.887-.48-.27-1.109-.36-1.527-.687-1.078-.809-1.707-.36-2.398.57-.567.777-1.528.867-2.426.957-1.016.09-1.977-.031-2.664-.957-.121-.18-.418-.332-.63-.36-.538-.09-.898-.39-1.288-.78-.328-.329-.957-.418-1.496-.508-.149-.032-.45.238-.508.449-.57 1.766-.238 2.516 1.406 3.355.328.18.57.54.867.746.301.211.63.332.961.48.688.329 1.375.63 2.035.958.149.062.301.242.45.242 1.648-.031 2.754 1.137 4.074 1.824.777.391 1.465.93 2.215 1.348.328.18.75.242 1.136.36.18.062.422.062.57.152 1.137.687 2.278 1.406 3.415 2.093.238.153.539.211.808.36.301.12.598.27.868.422 1.02.629 2.007 1.258 2.996 1.914.27.18.476.422.718.629.239.21.45.449.688.66.781.687 1.558 1.379 2.336 2.035.957.84 1.738 1.828 2.484 2.844.54.75 1.348 1.32 1.977 2.008.93 1.02 1.828 2.097 2.726 3.144.121.149.211.328.27.508.27.691.687 1.289 1.226 1.828.602.598.93 1.438 1.38 2.156.148.239.359.45.538.63.18.179.48.3.598.538.332.75.871 1.348 1.258 2.008.48.809 1.68 1.168 1.59 2.336 0 .059.09.117.117.18.36.507.719 1.015 1.05 1.554.118.211.15.54.329.66 1.137.66 1.02 2.126 1.976 2.907.059.058-.058.476-.21.597-.09.09-.419 0-.567-.12a8.844 8.844 0 0 1-1.05-1.079c-.118-.148-.27-.328-.298-.508-.12-.75-.629-1.199-1.168-1.648-.09-.059-.21-.148-.21-.207-.06-1.168-1.169-1.77-1.56-2.785-.237-.63-.956-1.078-1.437-1.649-.597-.75-1.136-1.527-1.707-2.277 0-.027 0-.059-.027-.059-1.5-.777-1.68-3.023-3.715-3.293-1.047-.152-2.098-.601-3.113-.96-.512-.18-.961-.63-1.5-.778-1.645-.48-2.992-1.707-4.82-1.676-.27 0-.567-.09-.778-.242-1.047-.687-2.215-.836-3.414-.898-2.156-.117-4.223-.719-6.2-1.555-1.288-.539-1.944-.45-2.843.57-1.469 1.704-3.773 1.704-5.453.149-.328-.301-1.016-.422-1.496-.328-.45.086-.36.597-.09.984.54.781 1.316 1.11 2.246 1.32.508.118.957.508 1.469.72.45.179.926.296 1.437.386.688.09 1.227.332 1.766.808.688.602 1.527.989 2.336 1.41 1.766.868 3.563 1.708 5.36 2.544.18.09.359.152.538.21.18.06.391.032.512.149.778.629 1.887.781 2.574 1.32.778.63 1.649 1.047 2.453 1.617.243.18.481.329.75.45.72.297 1.47.507 1.739 1.347.027.09.12.207.207.207.96.063 1.32.75 1.707 1.47.12.21.422.48.629.48.988.027 1.11.777 1.347 1.464.121.301.36.54.48.84.24.54.481 1.078.661 1.617.09.211.027.48.148.66 1.11 1.434 1.079 3.145 1.317 4.82.152 1.048.36 2.095.512 3.145.027.18.027.387-.032.508-.75 1.317-.539 2.754-.597 4.164-.063 1.528-.602 2.844-1.168 4.223-.211.539-.301 1.137-.48 1.707-.09.27-.212.54-.329.809-.242.449-.512.867-.781 1.316-.328.54-.688 1.047-.988 1.617-.477.84-.899 1.707-1.348 2.547-.149.297-.387.54-.598.805-.12.12-.27.242-.36.36-.745 1.019-1.495 2.007-2.245 3.026-.656.868-1.227 1.797-1.946 2.606-.57.656-1.316 1.168-1.945 1.766-.512.507-.93 1.136-1.41 1.675-.988 1.051-1.977 2.04-2.992 3.055-.75.75-1.528 1.469-2.278 2.219-.449.418-.898.836-1.316 1.285-.39.422-.75.898-1.14 1.348-.06.062-.09.152-.149.18-1.047.39-1.437 1.527-2.305 2.128-.96.656-2.007 1.196-2.875 1.946-.75.628-1.527 1.046-2.488 1.199-.09 0-.207.09-.238.18-.39.714-1.047.894-1.797 1.046-.809.18-1.586.54-2.395.746-2.605.72-5.27.211-7.875.36a20.308 20.308 0 0 1-3.297-.086c-.925-.121-1.824-.39-2.753-.633-.84-.238-1.707-.418-2.485-.777-.87-.36-1.68-.836-2.457-1.348-1.11-.688-2.156-1.438-3.234-2.156-.031-.028-.117-.028-.117-.09-.48-1.258-1.977-1.137-2.727-2.156-.539-.746-1.559-1.137-2.187-1.856-.899-1.047-2.274-1.586-2.875-2.906-.059-.149-.239-.27-.418-.297-1.11-.27-1.618-1.078-2.008-2.039-.028-.059-.028-.148-.09-.207a81.803 81.803 0 0 0-1.856-1.559c-.058-.058-.148-.058-.21-.09-.598-.66-1.168-1.347-1.766-1.976a40.175 40.175 0 0 0-1.586-1.676c-.719-.691-1.5-1.289-1.77-2.304-.09-.301-.207-.66-.418-.84-.687-.63-.957-1.41-1.02-2.336-.026-.688-.296-1.29-.597-1.946-.36-.808-.418-1.796-.418-2.695 0-2.426.18-4.824.149-7.25-.031-1.375-.36-2.754-.54-4.133a3.483 3.483 0 0 1-.058-.566c.09-.899.18-1.77.297-2.668.062-.387.09-.809.242-1.168.508-1.195 1.137-2.363 1.617-3.563.328-.867.45-1.824.72-2.695.148-.508.476-.957.687-1.437.148-.329.328-.657.39-1.016.117-.84.27-1.68.989-2.246.058-.063.148-.121.148-.152-.031-1.497 1.379-2.364 1.586-3.774.062-.45.45-.836.691-1.258.059-.117.149-.18.239-.297.808-1.109 1.648-2.218 2.457-3.324.117-.18.207-.39.27-.601.116-.54.179-1.078.776-1.375.09-.063.18-.18.211-.301.149-1.047.36-2.094.418-3.145.059-.84-.03-1.675-.09-2.515-.03-.418-.12-.926-.66-.926-.27 0-.656.297-.808.566-.836 1.317-1.856 2.489-3.203 3.325-.45.27-1.11.48-1.586.359-1.348-.297-3.266.777-3.297 2.336 0 .418-.598.84-.899 1.289-.238.36-.566.687-.656 1.078-.152.719-.332 1.406-.988 1.856-.152.09-.242.27-.332.418-.477.87-.899 1.738-1.375 2.605-.18.3-.48.57-.719.84-.058.058-.21.12-.21.18-.028 1.257-1.317 1.707-1.708 2.816-.39 1.078-.836 2.215-1.766 2.992-.21.18-.269.57-.417.871-.301.54-.602 1.106-.899 1.645-.062.12-.18.242-.21.39-.302 1.2-1.138 2.035-1.856 2.996-.45.598-.54 1.465-.809 2.215-.21.598-.512 1.196-.66 1.797-.211.778-.418 1.586-.45 2.395-.058 1.648 0 3.293-.03 4.941-.06 3.113-.18 6.23-.27 9.344 0 .21 0 .48-.117.66-.75 1.164-.781 2.484-.961 3.8-.149 1.052-.63 2.036-.836 3.087-.211 1.078-.39 2.215-.422 3.324-.027 1.285-.688 2.273-1.285 3.293-.211.36-.692.238-.871-.18-.36-.867-.239-1.707.21-2.515.36-.598.36-1.227.391-1.918.09-1.348.477-2.664.778-3.98.09-.391.359-.72.418-1.11.27-1.559.48-3.113.718-4.64.032-.122 0-.27.063-.36 1.016-2.574.656-5.242.598-7.906-.032-1.47-.06-2.934-.18-4.403-.059-.75-.328-1.496-.45-2.246-.3-1.648-.57-3.293-.84-4.941-.027-.211-.027-.418-.116-.57-.961-1.856-.809-3.86-.899-5.837-.062-1.078.059-2.156.028-3.207-.028-.718-.118-1.375-.418-2.093-.329-.84-.06-1.95.03-2.907.09-.84.298-1.648.388-2.484.152-1.289.12-2.605.39-3.863.18-.871.75-1.68 1.078-2.516.48-1.258.899-2.578 1.406-3.832.27-.691.75-1.32 1.02-2.008.3-.75.45-1.527.988-2.215.39-.511.418-1.289.63-1.949.09-.297.269-.539.448-.867.54.898.391 2.965-.21 3.652-.09.121-.208.211-.27.36-.566 1.648-1.106 3.297-1.676 4.941-.12.36-.418.63-.629.957-.18.274-.418.57-.418.84-.062.988-.062 1.918-.93 2.637-.238.18-.269.687-.269 1.047-.121 2.695-.3 5.39-.27 8.054.032 2.278.419 4.524.419 6.801 0 1.887 1.078 3.442 1.289 5.238.03.149.3.27.449.391.09-.18.3-.36.3-.54 0-.78.27-1.405.989-1.796.148-.062.238-.242.297-.39.422-.868.84-1.735 1.258-2.606 0-.027.03-.059.03-.059.688-.93 1.407-1.855 2.098-2.785.118-.18.149-.418.27-.597.36-.54.746-1.051 1.137-1.59 0-.028.058-.028.058-.028.48-.75.93-1.5 1.407-2.246.273-.449.57-.898.84-1.379.597-.957 1.23-1.945 1.828-2.906.18-.297.386-.629.597-.926.121-.21.301-.39.39-.601.09-.18.09-.387.208-.567.39-.57.988-1.109 1.168-1.738.21-.808.539-1.348 1.347-1.617a.44.44 0 0 0 .243-.27c.297-.718.566-1.437.898-2.156.238-.476.508-.957.809-1.406.476-.75.957-1.496 1.496-2.215.75-.96 1.558-1.86 2.875-2.039.238-.027.449-.297.66-.477.566-.511 1.016-.421 1.496.149.508.57 1.02 1.137 1.617 1.617.66.54.957 1.258.957 2.004.031 1.078-.148 2.187-.207 3.266-.031.328.028.628.059.96.09.895.27 1.766-.75 2.364-.297.18-.328.777-.418 1.199-.121.508-.211 1.047-.84 1.195a.416.416 0 0 0-.207.18c-.54.988-1.02 2.008-1.559 2.965-.597 1.078-1.289 2.097-1.828 3.207-.597 1.258-1.168 2.574-1.586 3.922-.238.75-.328 1.496-.93 2.066-.117.121-.148.36-.18.54-.116.75-.206 1.468-.358 2.214-.059.27-.118.602-.297.75-.63.45-.692 1.11-.871 1.734-.149.54-.45 1.02-.72 1.532-.026.086-.148.148-.148.238-.238 1.527-.777 3.055-.328 4.64.239.868.688 1.708.899 2.606.148.719.148 1.496.09 2.215-.122 1.976-.301 3.926-.45 5.902-.03.27-.062.598.059.809.57.836.539 1.765.629 2.722.058.602.39 1.168.629 1.708.148.359.328.718.539 1.078.3.511.597 1.02.93 1.496.09.12.238.21.269.36.328 1.558 1.797 2.218 2.695 3.296a72.917 72.917 0 0 0 2.934 3.262c.48.511.988.96 1.496 1.41.152.148.422.27.45.45.179.687.75.866 1.288 1.194.809.512 1.496 1.2 2.278 1.77 1.285.988 2.605 1.976 3.89 2.965.957.746 1.856 1.554 2.875 2.215 1.828 1.168 3.504 2.754 5.84 2.906.36.027.777.148 1.02.387.836.808 1.855.777 2.875.75 2.543-.032 5.09-.032 7.636-.153.688-.027 1.344-.386 2.036-.566.84-.211 1.675-.45 2.515-.598.567-.09 1.168-.09 1.375-.781.031-.09.121-.149.211-.207.957-.48 1.918-.93 2.844-1.438.3-.152.539-.39.808-.629.692-.57 1.348-1.167 2.008-1.738l.508-.418c.48-.422.961-.84 1.438-1.258.242-.21.601-.39.66-.66.21-.93.898-1.379 1.527-1.945.508-.422.899-.961 1.348-1.438.058-.062.12-.152.21-.21a239.196 239.196 0 0 1 3.981-3.715c.84-.746 1.77-1.407 2.516-2.246.629-.657 1.078-1.496 1.586-2.246.12-.149.12-.418.273-.54 1.465-1.046 2.004-2.875 3.352-4.011.03-.028.09-.059.09-.117.238-1.23 1.226-2.008 1.765-3.055.66-1.29 1.32-2.578 1.918-3.895.211-.48.27-1.047.45-1.586.269-.808.777-1.558.898-2.398.449-3.145.597-6.29.12-9.461-.12-.688.06-1.438 0-2.156-.03-.328-.331-.66-.538-.961-.153-.207-.422-.418-.422-.656-.09-1.407-1.106-2.305-1.797-3.356-1.016-1.555-2.664-2.363-4.16-3.351-.871-.57-1.77-1.051-2.574-1.59a8.705 8.705 0 0 0-2.157-1.078c-.12-.028-.27-.09-.332-.18-.476-.809-1.347-.836-2.093-1.078-.512-.18-.961-.598-1.47-.809a259.588 259.588 0 0 0-4.132-1.644c-.031 0-.059 0-.059-.032-1.257-1.02-2.875-1.257-4.285-1.976-.718-.36-1.554-.54-2.246-.957-1.078-.63-2.066-1.41-3.113-2.13-.09-.058-.121-.148-.18-.237-.957-1.438-.898-3.832.032-5.301.66-1.047 1.554-1.528 2.785-1.555.718 0 1.437-.062 2.156-.062.297 0 .598.03.867.152 1.137.539 2.246 1.105 3.383 1.644.48.211.988.36 1.469.57.597.24 1.199.477 1.797.72.539.21 1.109.39 1.675.539 1.258.296 2.516.629 3.774.867.539.12 1.078.062 1.617.12.45.06 1.02.06 1.348.302.867.625 1.918.656 2.875.925.867.239 1.707.66 2.547.989.238.09.476.148.687.238.54.242 1.047.54 1.617.781.121.059.301.028.45.028-.032-.149.03-.36-.06-.45-1.257-1.375-2.695-2.632-3.745-4.16-.778-1.11-1.707-1.886-2.692-2.754-.812-.718-1.468-1.527-2.457-2.066-.867-.48-1.617-1.2-2.425-1.828-.09-.09-.18-.211-.301-.211-1.016-.149-1.645-.957-2.485-1.348-.597-.297-1.109-.746-1.648-1.015-.988-.512-1.977-.989-2.902-1.618-.45-.3-.989-.48-1.47-.691l-2.066-.809c-.148-.058-.3-.09-.418-.18-1.378-1.167-3.175-1.616-4.671-2.573-.45-.301-.93-.508-1.407-.778-.093-.062-.21-.09-.242-.152-.93-1.438-1.945-2.934-1.348-4.762.36-1.105.958-2.125 2.036-2.902 1.527-1.14 3.054-.961 4.703-.688.238.028.48.239.719.36.39.207.75.539 1.167.656 1.56.45 2.934 1.226 4.282 2.098.09.058.152.117.242.148 1.168.539 2.305 1.078 3.473 1.617.12.059.27.059.328.149.601.898 1.617.898 2.488 1.199.059.031.117 0 .148.058.688.961 1.887.75 2.754 1.23.422.24.84.509 1.258.747.121.062.27.18.39.18.93 0 1.65.449 2.305 1.078.032.031.09.062.122.09 1.257.511 2.515 1.02 3.773 1.527.18.062.45.121.539.242.45.719 1.195.809 1.945.957.059.031.149.031.211.059.809.691 1.766 1.05 2.754 1.347.149.032.211.36.36.45.238.152.539.3.808.27.149-.028.36-.477.3-.657-.151-.602-.21-1.29-.898-1.617-.18-.09-.3-.57-.269-.84.059-.66-.09-1.137-.719-1.406-.09-.032-.21-.09-.242-.18-.387-1.617-2.246-1.828-2.992-3.176-.45-.777-1.469-1.226-2.156-1.887-.93-.867-1.77-1.824-2.696-2.695-.87-.808-1.77-1.558-2.668-2.336-.718-.597-1.644-.957-2.062-1.914-.063-.152-.39-.21-.54-.332-.3-.207-.66-.387-.808-.687-.12-.239 0-.688.18-.899.09-.12.629-.031.836.121.75.508 1.617.989 2.156 1.676.57.719 1.23 1.168 1.918 1.676a70.43 70.43 0 0 1 2.875 2.246c.598.48 1.168.988 1.707 1.5 1.106 1.016 2.215 2.035 3.324 3.05.567.54 1.106 1.141 1.707 1.68.746.72 1.348 1.465 1.586 2.575.149.75.84 1.379 1.137 2.125.512 1.289.898 2.636 1.348 3.953.062.152.062.36.18.48.538.57 1.14 1.137 1.679 1.707.207.239.36.54.539.84.09.117.09.328.18.387 1.347.601 1.644 2.008 2.425 3.055.598.78 1.227 1.527 1.856 2.277.059.058.148.09.18.148.507 1.051.988 2.125 1.496 3.203.18.36.39.72.629 1.079.152.21.418.39.511.628.477 1.02.899 2.067 1.375 3.055.211.45.57.84.868 1.258.09.152.242.27.3.422.36.629.778 1.258 1.078 1.945.57 1.258 1.079 2.547 1.618 3.832.058.153.09.332.18.39.75.329.777.99.898 1.677.031.27.328.511.508.75.18-.239.539-.48.539-.75.062-1.079.03-2.184.03-3.262 0-.09-.03-.211-.089-.27-1.289-1.14-.84-2.726-1.02-4.132-.058-.481-.027-.989-.027-1.5 0-.747.09-1.376-.601-2.067-.567-.566-.688-1.676-.809-2.574-.18-1.11-.238-2.188-.687-3.266-.45-1.047-.301-2.336-.45-3.5-.12-.87-.36-1.738-.48-2.605-.207-1.348-.45-2.696-.567-4.043-.12-1.14 0-2.309-.808-3.266-.09-.12-.121-.27-.153-.418-.238-1.23-.238-2.488-1.343-3.504-1.02-.93-1.68-2.218-2.578-3.234-.598-.66-1.407-1.168-2.094-1.77-.39-.328-.719-.746-1.11-1.074a28.25 28.25 0 0 0-2.214-1.68c-.45-.296-1.051-.449-1.528-.718-.75-.45-1.527-.899-2.156-1.528-1.348-1.347-2.547-2.843-3.863-4.191-.422-.418-.899-.75-1.051-1.379-.027-.148-.328-.27-.54-.36-1.077-.718-1.886-1.765-1.976-2.425zm27.343 6.59h.059c0-2.277-.032-4.523 0-6.796.031-1.32-.57-2.367-1.559-3.086-.687-.508-1.016-1.078-1.285-1.828-.602-1.707-.629-3.473-.781-5.238-.028-.36-.239-.961-.477-1.02-.512-.121-1.379-.18-1.59.121-.718.899-1.437 1.914-1.707 2.992-.328 1.258-.148 2.637-.207 3.953-.27 4.196-.75 8.387-1.258 12.551-.18 1.528-.18 3.051-.328 4.582-.12 1.254-.062 2.453.899 3.41.445.45.656.961.687 1.59.028.27.207.656.418.746.508.211.63.57.688 1.051.152 1.047.21 2.125 1.02 2.965.21.207.238.629.3.988.36 1.856-.031 3.801.867 5.598.328.66.36 1.437.45 2.187.12.93.12 1.887.21 2.817.028.238.239.445.387.656.18-.18.45-.36.57-.598.27-.449.508-.957.75-1.437.149-.3.36-.629.387-.957.27-1.918.629-3.805 1.078-5.692.422-1.855.66-3.742 1.348-5.57.242-.629.39-1.586.062-2.066-.93-1.438-.87-3.024-.96-4.551-.118-2.426-.028-4.883-.028-7.367zm-53.933 4.372c-.333.062-.75.09-1.141.21-.418.118-.477.391-.149.72 1.227 1.168 2.875 1.585 4.313 2.394.148.09.39.059.598.059.48.03 1.02.09 1.05-.598.028-.57.149-1.227-.75-1.348-.27-.03-.629-.18-.777-.39-.75-1.164-1.95-.926-3.144-1.047zm.957 21.262c-.63.39-1.317.808-1.977 1.23-.148.086-.3.328-.27.445.032.153.27.301.418.332.45.09.899.121 1.32.121.54-.03.9.118 1.196.567.422.629 1.02.75 1.559.27.328-.297.539-.75.687-1.196.031-.094-.539-.36-.836-.57-.48-.328-.93-.66-1.41-.957-.18-.09-.387-.153-.687-.242zM99.074 97.12c.031.899.57 1.2 1.23.66.926-.75 1.766-1.648 2.575-2.547.328-.359.18-.836-.211-1.105-.238-.152-.746-.211-.898-.09a49.555 49.555 0 0 0-2.426 2.453c-.149.211-.207.508-.27.63zm0 0"/><path d="M104.496 203.52c-.121-.36-.3-.72-.36-1.079-.09-.836-.09-1.707-.21-2.543-.059-.421-.328-.808-.477-1.199a58.866 58.866 0 0 1-.75-2.156 89.05 89.05 0 0 1-.84-2.695c-.148-.508-.27-1.047-.418-1.586-.058-.211-.03-.508-.18-.63-1.257-.898-1.706-2.335-2.456-3.593-.477-.777-1.196-1.406-1.797-2.125-.149-.152-.207-.39-.328-.57-.18-.27-.36-.508-.54-.75-.148-.207-.39-.36-.449-.567-.21-.78-.777-1.23-1.379-1.707-.925-.718-1.707-1.59-2.574-2.367-.36-.3-.687-.629-1.105-.867-1.29-.691-1.68-2.399-3.207-2.848a.99.99 0 0 1-.387-.328c-.75-1.047-1.5-2.097-2.246-3.144-.121-.18-.3-.328-.45-.508-1.558-1.559-3.144-3.086-4.613-4.703-.507-.567-1.109-1.106-1.468-1.645-.719-1.11-1.645-1.887-2.575-2.726-.628-.57-1.136-1.317-1.617-2.008-.418-.598-.718-1.258-1.136-1.856-.332-.507-.809-.93-1.168-1.437-1.32-1.977-2.579-4.012-3.414-6.258-.09-.27-.301-.512-.45-.781-.93-1.586-1.199-3.293-1.199-5.117.031-1.977-.117-3.926-.21-5.903 0-.18-.028-.449-.15-.566-.956-.988-.808-2.309-1.077-3.504-.059-.211-.09-.45-.18-.629-.238-.512-.656-.96-.688-1.469-.12-1.406-.898-2.547-1.437-3.773-.57-1.348-1.406-2.606-2.098-3.895-.18-.36-.328-.718-.508-1.078-.449-.957-1.226-1.734-1.347-2.87 0-.153-.238-.243-.328-.392-.211-.328-.422-.687-.602-1.02-.238-.476-.45-.956-.687-1.405-.059-.121-.211-.18-.211-.301-.418-1.945-1.856-3.531-1.825-5.629 0-.418-.21-.898-.449-1.227-.601-.75-.48-1.648-.629-2.488-.152-.746-.422-1.465-.57-2.215-.21-1.136-.418-2.304-.508-3.472-.152-1.918-.18-3.836-.332-5.75-.027-.602-.238-1.168-.328-1.739-.148-1.554-.328-3.203-.629-4.82-.12-.719-.45-1.379-.719-2.066-.148-.391-.328-.778-.507-1.137-.27-.54-.602-1.078-.84-1.617-.18-.39-.418-.809-.45-1.23-.18-2.036-.328-4.071.122-6.048.09-.421.449-.75.718-1.14.09-.117.239-.207.27-.328.36-1.137 1.285-1.079 2.184-1.047.242 0 .48.058.75.058.988.059 1.976.059 2.515 1.227.149.332.66.48 1.02.691.238.149.539.207.687.418.57.809 1.078 1.649 1.649 2.457.296.418.597.836.898 1.258.09.117.207.207.27.36.539 1.105 1.015 2.246 1.586 3.324.449.867.925 1.734 1.468 2.574.297.45.688.36.899-.27.207-.718.418-1.437.539-2.156.265-1.707.445-3.472.777-5.152.207-1.106.66-2.184 1.02-3.262.238-.719.148-1.617 1.046-2.035.149-.063.149-.512.18-.75.117-.66.149-1.348.328-1.977.09-.328.418-.539.598-.867.242-.422.539-.84.602-1.289.09-.777 0-1.586.027-2.394 0-.27.121-.57.27-.809.331-.48.66-.96 1.05-1.41.328-.36.719-.688 1.106-1.016.12-.09.27-.09.422-.152.718-.387 1.347-.54 2.214-.18.809.332 1.407.602 1.258 1.617 0 0-.031.063-.058.063-1.68.418-1.41.027-1.559 1.945-.031.418-.031.84-.09 1.258-.031.328-.058.75-.27.898-.718.54-.687 1.407-1.046 2.094-.422.813-.961 1.559-1.469 2.309-.121.18-.39.3-.629.36-1.586.476-2.394 1.526-2.605 3.144-.149 1.105-.57 2.215-.778 3.324-.152.808-.152 1.617-.238 2.426-.21 2.093-.48 4.191-.633 6.316-.18 2.426-.36 4.883-.445 7.309-.094 1.886-.063 3.8-.063 5.687 0 .242.032.48.063.719.086.031.148.031.238.062.121-.3.3-.628.36-.93.12-.777.27-1.558.835-2.187.18-.207.18-.597.27-.898.512-1.617 1.05-3.203 1.559-4.82.449-1.348.808-2.723 1.316-4.043.45-1.137 1.078-2.215 1.59-3.325.36-.836.656-1.707.957-2.574.09-.238.121-.508.3-.66.688-.629.778-1.438.747-2.273a6.86 6.86 0 0 1 .84-3.657c.3-.566.27-1.285.418-1.945.152-.598.359-1.168.57-1.734.18-.512.45-.993.66-1.47.18-.359.27-.78.54-1.046 1.015-1.05.538-2.309.448-3.477-.03-.27-.449-.507-.691-.746-.36-.39-.719-.781-1.106-1.23.899-.328 1.438-.117 1.887.539.207.332.54.57.746.898.242.39.54.809.63 1.23.21 1.255 1.019 1.794 2.128 2.126.418.12.867.207 1.285.36.602.206 1.14.48 1.32 1.167.09.297.329.598.567.75.602.36.809.957 1.14 1.496 1.169 1.766.81 3.653.747 5.508 0 .18-.028.36-.118.512-.09.148-.242.238-.39.386-.09-.117-.238-.27-.238-.386-.063-1.078-.18-2.156-.09-3.207.058-.746-.18-1.317-.602-1.914-.418-.57-.957-1.168-.719-1.95-.507-.207-.988-.476-1.496-.625-.238-.062-.75.059-.808.207-.211.54-.36 1.137-.328 1.676 0 .57-.032.961-.48 1.38-.329.3-.481.839-.599 1.288-.12.54-.21 1.016-.78 1.258-.118.059-.27.18-.298.328-.359 1.258-1.437 1.649-2.488 2.035-.926.332-1.316.66-1.406 1.59-.09.899-.211 1.766-.899 2.453-.238.242-.238.63-.39.961-.27.54-.54 1.016-.809 1.555-.117.21-.238.45-.297.691-.511 1.856-.718 3.864-1.558 5.54-.809 1.585-.688 3.472-1.797 4.94-.27.388-.211 1.016-.36 1.497-.18.719-.418 1.406-.628 2.098-.211.687-.391 1.375-.63 2.066-.21.629-.507 1.195-.75 1.797-.238.656-.445 1.316-.718 1.976-1.344 3.293-1.258 6.707-.688 10.121.032.27.149.567.301.747.688.75.45 1.59.238 2.398-.058.18-.27.39-.449.418-.09.031-.3-.207-.418-.36-.422-.566-.898-1.136-1.199-1.765-.207-.418-.27-.957-.3-1.438-.028-2.515-.06-5.03-.06-7.546 0-3.563.032-7.13.032-10.692 0-1.406-.031-2.844 0-4.25.027-1.11-.36-2.097-.777-3.086a4.805 4.805 0 0 1-.332-1.136c-.149-.93-.45-1.739-1.047-2.547-.75-1.02-1.11-2.278-1.649-3.446-.148-.297-.328-.597-.476-.925-.211-.422-.422-.84-.63-1.258-.3-.602-.6-1.168-.898-1.77a1.178 1.178 0 0 1-.152-.27c-.18-1.554-1.438-2.515-2.066-3.831-1.137-.36-1.825-1.676-3.204-1.586-1.226.09-1.406.957-1.109 2.066.031.149.152.328.27.45 1.68 1.945 1.5 4.312 1.41 6.585-.121 2.606-.032 5.211.36 7.817.327 2.187.358 4.402.538 6.617.059.93-.12 1.95.238 2.726.899 1.977.84 4.075 1.2 6.11.027.21.027.449.148.57.809.746.777 1.856 1.168 2.785.598 1.496 1.29 2.934 1.918 4.43.566 1.32 1.106 2.668 1.676 4.012.09.242.27.48.418.691.781.988 1.617 1.945 1.887 3.234.03.207.12.45.27.63.78.867.987 1.913 1.226 2.992.03.18.093.449.21.539.63.48.72 1.168.81 1.859.12.746.179 1.438.839 2.004.297.242.297.871.36 1.348.09.57.03 1.168.148 1.707.09.449.39.87.57 1.289.149.39.418.777.45 1.168.117 2.425.148 4.882.238 7.336.03.421.09.84.18 1.257.238.84.507 1.707.777 2.547.03.09.03.207.09.27.66.808 1.347 1.586 2.007 2.394.149.18.36.39.39.63.208 1.378 1.349 2.155 2.005 3.234.09.148.242.238.36.39.448.656.929 1.285 1.288 1.946.39.687.989 1.109 1.649 1.527.297.18.508.57.746.84.66.808 1.32 1.644 1.976 2.484.243.3.422.629.66.899s.508.507.778.777c.09.09.242.121.3.21.508.63.93 1.317 1.47 1.919 1.015 1.168 2.093 2.273 3.144 3.41.598.633 1.137 1.32 1.824 1.887 1.078.898 1.617 2.308 2.965 2.996.54.27.93.867 1.379 1.347.687.778 1.375 1.586 2.066 2.336.387.418.868.809 1.285 1.227.18.18.45.332.48.539.24 1.379 1.438 1.86 2.306 2.668.152.148.3.27.421.418a152.424 152.424 0 0 1 2.395 3.742c.211.3.3.691.48 1.02.239.418.54.777.81 1.199.089.117.206.238.237.36.27 2.034 1.797 3.769 1.559 5.956-.031.301.09.66.27.899.898 1.316.835 2.785.718 4.254-.031.296-.242.566-.36.836h-.3zM80.238 75.648c-.148-.359-.27-.898-.449-.925-.36-.059-.836.09-1.105.328-.332.27-.512.719-.692 1.11-.207.476-.27 1.046-.566 1.437-.809 1.168-.871 2.394-.602 3.683.031.149.211.387.332.418.117.031.36-.148.45-.3.539-.958 1.105-1.887 1.554-2.876.45-.867.719-1.855 1.078-2.875zm-10.21-2.515c.269-.117.359-.149.417-.207 1.168-1.2 2.098-2.547 2.578-4.133.118-.36-.03-.84-.152-1.227-.027-.12-.508-.27-.598-.18-.48.45-1.136.9-1.316 1.466-.422 1.32-.602 2.726-.93 4.28zm-18.985 13.18c.836-.81.988-2.997.328-3.774-.66.45-.84 2.633-.328 3.773zM135.79 146.352c-1.466-.028-2.813.332-4.25.632-1.59.328-3.356.328-4.974.028-2.367-.45-4.703-.45-7.066-.54-1.379-.058-2.605-.386-3.684-1.378-.57-.54-1.437-.715-2.187-1.074-.09-.032-.207-.032-.27-.09a96.326 96.326 0 0 1-2.695-2.13c-.418-.327-.836-.687-1.168-1.105-.508-.629-1.105-1.257-1.375-1.976-.18-.54-.031-1.29.18-1.86.297-.777.719-1.464 1.496-1.945.719-.45 1.226-1.2 1.887-1.766 1.406-1.257 3.023-2.187 4.671-3.144 2.844-1.68 5.81-1.11 8.805-.899.598.028 1.168.508 1.797.688 1.316.39 2.633.539 3.922-.238.45-.27 1.02-.422 1.559-.45 1.105-.03 2.246-.12 3.32.118.93.21 2.008.601 2.61 1.289.566.66 1.284.84 1.855 1.316.566.48 1.105.899 1.797 1.23.718.387 1.257 1.137 1.886 1.735.598.539 1.227 1.078 1.797 1.617.27.27.567.57.746.899.512.84.422 1.02-.27 1.738-.417.45-.777.957-1.136 1.469-.211.297-.36.718-.629.898-.3.18-.898.36-1.11.207-.359-.297-.269-.777.063-1.195.567-.66.508-1.41-.18-1.68-.539-.207-1.257-.36-1.769-.18-.957.36-1.676.032-2.453-.386-.3-.153-.63-.301-.957-.332-1.738-.18-3.477-.27-5.184-.45-.597-.058-1.168-.238-1.734-.359-2.547-.539-5.063-.297-7.578.152-1.02.18-2.008.297-3.024.477-.57.09-1.11.27-1.68.332-.359.059-.746.09-1.105 0-.691-.18-1.23.027-1.738.45-.809.687-1.738.687-2.543.027-.781-.63-2.516-.27-2.817.66-.09.238.18.75.418.93 1.29.956 2.696 1.765 3.922 2.812.75.629 1.618.93 2.368 1.437 1.437.957 2.964.871 4.492.989 1.738.148 3.472.242 5.21.422.75.058 1.528.418 2.278.359 1.676-.121 3.324-.422 5-.57 1.437-.121 2.875-.149 4.312-.243.149 0 .387-.148.418-.265.329-.961 1.29-1.32 1.887-2.008l.54-.629c.12-.148.179-.418.327-.45.332-.089.692-.058 1.051-.089-.062.36 0 .898-.21 1.11-.84.745-1.766 1.406-2.665 2.093-.121.09-.36.18-.39.3-.297.99-1.168 1.017-1.915 1.11-.601 0-1.23-.093-1.859-.093zM121.175 130.3c-.93-.09-2.035.242-3.235.57-1.707.45-2.902 1.559-4.191 2.574-.75.57-1.348 1.32-2.04 1.95-.417.359-.386.656.122.808.629.18 1.316.45 1.95.418 1.945-.121 3.948-.148 5.808-.66 4.101-1.106 8.203-.836 12.308-.629 2.125.121 4.16.988 6.317.961 1.289 0 2.574.148 3.863.207.211 0 .508-.09.66-.238.09-.09.028-.45-.09-.598-.48-.539-.93-1.168-1.5-1.559-1.046-.718-2.183-1.316-2.96-2.367-.094-.09-.274-.117-.391-.18-.602-.269-1.2-.566-1.797-.808-.328-.148-.719-.297-1.078-.297-1.379-.031-2.727.027-4.074.688-1.586.808-3.383.66-4.942.03-1.465-.6-2.875-.898-4.73-.87zM161.363 203.46c-.058-1.046-.207-2.124-.148-3.175.12-2.426.328-4.879.508-7.305.03-.417.3-.84.418-1.257.12-.45.273-.899.273-1.348.117-2.695.149-5.39.297-8.055.031-.48.422-.93.601-1.379.118-.3.297-.597.297-.898.121-1.918.243-3.832.328-5.719 0-.152.032-.36.122-.422.808-.507.629-1.316.687-2.066.031-.508.152-.984.27-1.465.062-.27.152-.691.359-.777.719-.36.75-1.02.84-1.649.18-1.347 1.226-2.187 1.797-3.293.328-.66.687-1.32 1.02-1.949.148-.27.296-.508.448-.746.208-.36.418-.719.63-1.078.027-.063.027-.18.058-.211 1.047-.3 1.047-1.469 1.707-2.125.75-.691 1.2-1.648 1.828-2.488.54-.688 1.106-1.317 1.676-1.946.687-.75 1.289-1.617 2.098-2.187.718-.508 1.105-1.258 1.765-1.824.63-.54 1.11-1.2 1.676-1.828.062-.06.062-.18.121-.18.777-.36 1.137-1.078 1.649-1.676.597-.781 1.343-1.437 1.976-2.187.598-.72 1.137-1.497 1.797-2.184.297-.332.836-.422 1.285-.602.09.063.152.121.238.18-.086.27-.18.54-.328.781-.18.297-.36.567-.597.809-.598.656-1.2 1.258-1.797 1.914-.153.148-.301.328-.45.48-.3.301-.57.63-.867.926-.12.153-.273.274-.39.453-.09.149-.121.36-.239.477-.691.75-1.379 1.469-2.066 2.187-.332.36-.57.809-.93 1.079-.539.386-1.257.539-1.675.988-.45.45-.57 1.168-.961 1.707-.598.836-1.258 1.617-1.946 2.394-.57.66-1.199 1.227-1.765 1.887-.54.629-1.02 1.317-1.528 1.977-.601.75-1.289 1.437-1.828 2.215-.39.601-.719 1.289-.84 1.976-.148.66-.18 1.29-.808 1.68a.986.986 0 0 0-.239.27c-.507.988-1.02 1.976-1.527 2.96-.18.36-.45.692-.629 1.078-.148.274-.27.54-.328.813-.121.598-.121 1.195-.3 1.766-.15.476-.481.867-.688 1.316-.153.27-.301.57-.332.867-.09 1.348-.059 2.695-.207 4.043-.121.988-.54 1.95-.75 2.938-.18.777-.27 1.554-.297 2.363-.152 2.039-.211 4.074-.36 6.11-.062.84 0 1.769-.78 2.398-.118.09-.06.386-.06.566a851.31 851.31 0 0 1-.21 8.836c-.028.566-.239 1.137-.387 1.734-.242-.117-.36-.148-.512-.148zM130.758 117.516c.87-.868 3.324-1.29 4.523-.75.75.359.477.988.418 1.5-.09.629-.808 1.136-1.437 1.046-.598-.09-1.168-.21-1.735-.359-.808-.238-1.468-.328-2.277.211-1.559 1.016-3.355 1.406-5.21.836-.958-.297-1.856-.836-2.817-1.168-.63-.207-1.285-.27-1.946-.297-.597-.031-1.078-.09-1.379-.691-.296-.598-.148-1.106.18-1.617.36-.508.809-.598 1.379-.418.957.328 1.918.629 2.906.957.149.062.297.12.387.21 1.379 1.38 3.055 1.227 4.734.84.508-.12 1.016-.3 1.528-.39.18-.059.386.031.746.09zM189.332 139.438c0-1.618 1.77-2.13 2.156-3.594.153-.66 1.258-1.051 1.617-1.739.45-.867 1.168-1.585 1.56-2.457.3-.628.148-1.464.987-1.855.149-.059.18-.418.239-.66.152-.45.21-.926.422-1.348.058-.148.417-.27.597-.238.121.031.36.328.328.48-.117.778-.027 1.645-.808 2.215-.207.149-.36.418-.45.66-.207.63-.296 1.317-1.015 1.645-.121.031-.211.242-.211.36.031.808-.39 1.32-1.02 1.679-.09.059-.18.148-.18.207-.117 1.078-.988 1.738-1.617 2.398-.835.809-1.078 2.274-2.605 2.246zM115.484 118.324c-.625.54-1.015.39-1.257-.3-.059-.149-.149-.329-.297-.419-1.2-.84-1.047-2.097-.989-3.324 0-.238.329-.48.508-.719.211.149.48.27.598.481.21.36.39.777.512 1.195.328 1.02.629 2.04.925 3.086zM140.402 118.863c-.777-1.675.028-3.472-.449-5.21.988-.122 1.195.507 1.227 1.019.058 1.195-.032 2.426-.121 3.621 0 .21-.27.422-.387.66a.43.43 0 0 0-.27-.09zm0 0"/><path d="M84.133 86.79c.148-.72.238-1.466.418-2.185.062-.21.36-.332.539-.48.09.21.242.45.242.66-.031.809-.09 1.645-.242 2.453-.059.301-.36.57-.54.84-.116-.3-.269-.598-.359-.898-.027-.121 0-.239 0-.36-.027-.03-.058-.03-.058-.03zM160.883 205.29c.152 1.167.36 2.155-.266 3.202-.57-.84-.453-2.484.266-3.203zm0 0"/></g></svg>