<svg xmlns="http://www.w3.org/2000/svg" width="250" height="250"><g fill="#2b5eba"><path d="M249.977 124.938c0 29.492-23.442 53.398-52.356 53.398s-52.351-23.906-52.351-53.399S168.707 71.54 197.62 71.54c28.914 0 52.356 23.906 52.356 53.398zM156.71 25.75c0 14.219-11.304 25.746-25.245 25.746S106.223 39.97 106.223 25.75c0-14.223 11.3-25.75 25.242-25.75s25.246 11.527 25.246 25.75zM156.71 224.25c0 14.223-11.304 25.75-25.245 25.75s-25.242-11.527-25.242-25.75c0-14.219 11.3-25.746 25.242-25.746s25.246 11.527 25.246 25.746zM119.902 163.496c1.493.508 3.11.762 4.723.762 8.707 0 15.793-7.23 15.793-16.11 0-8.878-7.086-16.109-15.793-16.109-5.594 0-10.445 2.918-13.305 7.356v.128c-.496.633-.87 1.395-1.117 2.157-17.41 31.328-52.355 10.402-52.355 10.402-5.72-3.426-12.309-5.457-19.524-5.457-21.015 0-38.05 17.379-38.05 38.813 0 21.437 17.035 38.812 38.05 38.812 14.676 0 27.485-8.496 33.703-20.926v-.129c1.118-2.156 1.989-4.437 2.735-6.847 18.156-42.493 45.14-32.852 45.14-32.852zm-8.953-56.953c.746 1.398 1.739 2.793 2.86 3.934 6.218 6.343 16.164 6.343 22.257 0 6.22-6.34 6.22-16.489 0-22.704-3.976-4.058-9.449-5.453-14.425-4.312h-.121c-.747.125-1.618.379-2.364.762-34.074 9.636-44.27-30.442-44.27-30.442a38.703 38.703 0 0 0-9.948-17.886c-14.922-15.22-38.922-15.22-53.72-.125-14.8 15.093-14.925 39.699 0 54.792 10.446 10.657 25.243 13.825 38.423 9.512h.125c2.238-.758 4.476-1.773 6.714-2.914 42.157-16.996 54.47 9.383 54.47 9.383zm0 0"/></g></svg>