<svg xmlns="http://www.w3.org/2000/svg" width="250" height="250"><path fill="#020202" d="M.063 121.031C2.243 52.035 59.965-2.125 128.964.062c68.996 2.192 123.16 59.903 120.972 128.903-2.187 68.996-59.902 123.156-128.902 120.972-69-2.195-123.164-59.902-120.972-128.906zm93.355-68.16H72.316v20.524H51.504v21.097h20.812v20.613H34.871a462.328 462.328 0 0 1-4.66 4.512v11.781c1.605 1.602 3.21 3.204 4.809 4.805h37.296v20.613H51.504v21.098h20.812v19.211h21.102v-19.21h60.535V164.41a46.16 46.16 0 0 1-9.484-7.594H93.422v-20.613h39.656A45.699 45.699 0 0 1 131.691 125c0-3.395.38-6.703 1.075-9.895H93.418V94.492h49.84a46.257 46.257 0 0 1 10.695-8.906V73.395H93.418zm87.828 33.438c-21.273 0-38.531 17.25-38.531 38.527 0 21.281 17.258 38.535 38.531 38.535 21.281 0 38.54-17.254 38.54-38.535 0-21.277-17.259-38.527-38.54-38.527zm0 0"/></svg>