<svg xmlns="http://www.w3.org/2000/svg" width="250" height="250"><path fill="#00bfff" d="M249.766 125c0 68.906-55.86 124.766-124.766 124.766S.234 193.906.234 125 56.094.234 125 .234 249.766 56.094 249.766 125zm0 0"/><path fill="#fff" d="m132.684 173.941 64.726-31.449c-7.601 31.54-35.36 55.543-69.387 56.922-41.093 1.672-75.77-30.289-77.437-71.387-1.672-41.097 30.289-75.77 71.387-77.441 30.738-1.25 57.882 16.316 70.316 42.45l-62.879 30.55-44.168-19.023c-3.594-1.551-7.765.113-9.32 3.71-1.55 3.594.113 7.766 3.71 9.32l47.145 20.305a7.09 7.09 0 0 0 2.809.579 7.051 7.051 0 0 0 3.098-.711l64.46-31.317a74.82 74.82 0 0 1 2.329 19.274l-70.063 34.035-44.168-19.024c-3.594-1.55-7.765.114-9.32 3.711-1.55 3.594.113 7.766 3.71 9.32l47.145 20.305a7.09 7.09 0 0 0 2.809.578 7.047 7.047 0 0 0 3.098-.707zm0 0"/></svg>