<svg xmlns="http://www.w3.org/2000/svg" width="250" height="250"><path fill="#e72e9d" d="M173.898 95.063 127.961 65.8 81.199 95.062l46.028 27.876zm0 0"/><path fill="#20b1f9" d="m128.262 176.473 46.527-24.434 1.371-54.5-48.273 26.762zm0 0"/><path fill="#095198" d="m127.227 178.324-1.891-54.613-47-27.16-1.875 53.773zm0 0"/><path fill="none" stroke="#000" stroke-miterlimit="10" stroke-width="5" d="M224.125 68.875 127.41 12.5 28.95 67.738l.09 111.5 98.534 54.035 96.387-55.386zm0 0"/><path d="M130.875 31.523a3.9 3.9 0 1 1-7.8.005 3.9 3.9 0 0 1 7.8-.005zM130.875 51.125a3.9 3.9 0 0 1-7.8 0 3.9 3.9 0 0 1 7.8 0zM52.25 167.648a3.9 3.9 0 1 1-7.8.005 3.9 3.9 0 0 1 7.8-.005zM68.75 158.398a3.9 3.9 0 1 1-7.8.005 3.9 3.9 0 0 1 7.8-.005zM209.125 167.648a3.9 3.9 0 1 1-7.8.005 3.9 3.9 0 0 1 7.8-.005zM192.688 158.398a3.9 3.9 0 1 1-7.8.005 3.9 3.9 0 0 1 7.8-.005zm0 0"/><g fill="none" stroke="#000" stroke-miterlimit="10" stroke-width="8"><path stroke-width="5" d="m28.79 67.125 98.437 55.813M225.125 68.125l-97.898 54.813M127.875 233.7l-.648-110.762M177.227 149.512l-50 28.812M176.176 95.54l.035 55.448M126.523 65.313l49.653 30.226M78.012 95.04l50.277-29.84M78.012 151.352V95.039M127.227 178.324 77.25 149.687"/></g></svg>