<svg xmlns="http://www.w3.org/2000/svg" width="250" height="250"><radialGradient id="b" cx="54.278" cy="45.614" r="129.551" gradientUnits="userSpaceOnUse"><stop offset="0" stop-color="#7ff"/><stop offset=".394" stop-color="#87e4ff"/><stop offset=".861" stop-color="#6273ff"/><stop offset="1" stop-color="#9468ff"/></radialGradient><clipPath id="c"><path d="M33 86h200v156H33zm0 0"/></clipPath><clipPath id="d"><path d="M241.39 116.398c4.75 64.282-43.511 120.247-107.792 124.997-64.286 4.75-120.246-43.512-124.996-107.797C3.852 69.316 52.113 13.352 116.395 8.602 180.68 3.852 236.64 52.113 241.39 116.398zm0 0"/></clipPath><radialGradient id="e" cx=".502" cy=".478" r=".554" gradientTransform="matrix(163.3969 -17.4283 20.15029 189.08066 39.564 81.219)" gradientUnits="userSpaceOnUse"><stop offset=".497" stop-color="#0ff"/><stop offset="1" stop-color="#00f4ff" stop-opacity="0"/></radialGradient><linearGradient id="f" x1=".636" x2=".997" y1=".506" y2=".764" gradientTransform="matrix(175.60547 0 0 160.64844 32.164 47.05)" gradientUnits="userSpaceOnUse"><stop offset="0" stop-color="#5a27ed"/><stop offset="1" stop-color="#ab37f4"/></linearGradient><linearGradient id="g" x1=".039" x2=".877" y1=".245" y2=".957" gradientTransform="matrix(147.53516 0 0 43.85547 48.05 159.254)" gradientUnits="userSpaceOnUse"><stop offset="0" stop-color="#7618f4"/><stop offset=".504" stop-color="#575ff8"/><stop offset="1" stop-color="#09ffff"/></linearGradient><linearGradient id="h" x1=".17" x2=".918" y1=".498" y2=".744" gradientTransform="matrix(138.07031 0 0 42.44531 64.055 60.883)" gradientUnits="userSpaceOnUse"><stop offset="0" stop-color="#7f4cff"/><stop offset="1" stop-color="#3095ff"/></linearGradient><linearGradient id="i" x1=".14" x2=".791" y1=".056" y2="1.241" gradientTransform="matrix(138.1836 0 0 42.44922 64.781 113.621)" gradientUnits="userSpaceOnUse"><stop offset="0" stop-color="#7f52ff"/><stop offset="1" stop-color="#3096ff"/></linearGradient><linearGradient id="j" x1=".81" x2=".575" y1=".81" y2=".511" gradientTransform="matrix(170.5039 0 0 134.13672 34.238 48.707)" gradientUnits="userSpaceOnUse"><stop offset="0" stop-color="#fff"/><stop offset=".157" stop-color="#fbffff"/><stop offset=".319" stop-color="#efffff"/><stop offset=".483" stop-color="#daffff"/><stop offset=".648" stop-color="#bdfffe"/><stop offset=".814" stop-color="#98fffe"/><stop offset=".979" stop-color="#6bfffd"/><stop offset="1" stop-color="#65fffd"/></linearGradient><linearGradient id="k" x1=".126" x2=".692" y1=".992" y2="-.06" gradientTransform="matrix(155.51172 0 0 144.8789 28.273 21.809)" gradientUnits="userSpaceOnUse"><stop offset="0" stop-color="#fff" stop-opacity="0"/><stop offset=".515" stop-color="#e6ffff"/><stop offset="1" stop-color="#ceffff" stop-opacity=".502"/></linearGradient><filter id="a" width="100%" height="100%" x="0%" y="0%"><feColorMatrix in="SourceGraphic" values="0 0 0 0 1 0 0 0 0 1 0 0 0 0 1 0 0 0 1 0"/></filter><mask id="m"><g filter="url(#a)"><path fill-opacity=".4" d="M0 0h250v250H0z"/></g></mask><linearGradient id="n" x1="0" x2="1" y1=".5" y2=".5" gradientTransform="matrix(181.85938 0 0 149.23047 8.29 8.227)" gradientUnits="userSpaceOnUse"><stop offset="0" stop-color="#fff"/><stop offset=".867" stop-color="#fff" stop-opacity=".306"/><stop offset="1" stop-color="#fff" stop-opacity=".2"/></linearGradient><clipPath id="l"><path d="M0 0h250v250H0z"/></clipPath><path fill="url(#b)" d="M241.719 124.98c0 64.457-52.254 116.711-116.711 116.711S8.293 189.437 8.293 124.981c0-64.461 52.254-116.715 116.71-116.715 64.462 0 116.716 52.254 116.716 116.714zm0 0"/><g clip-path="url(#c)"><g clip-path="url(#d)"><path fill="url(#e)" d="M201.586 88.383c16.078 15.601 28.32 35.117 30.8 58.46 5.462 51.41-34.523 97.794-89.308 103.614C88.293 256.281 39.457 219.32 34 167.914c-5.46-51.406 25.52-47.922 80.297-53.742 29.894-3.168 77.55-35.242 87.289-25.79zm0 0"/></g></g><path fill="url(#f)" d="m207.168 98.422-.117-1.504h-19.113l19.238-16.445-.031-.793a63.586 63.586 0 0 0-9.81-31.75l-.46-.88H93.652c-9.75 0-28.691 3.016-42.597 18.567-6.063 6.781-19.055 27.137-18.89 49.969.097 12.848 1.343 22.836 6.194 34.016a103.681 103.681 0 0 0 8.211 15.43c9.797 17.57 20.473 29.804 31.735 36.363 9.539 5.55 17.984 6.304 24.992 6.304h58.508l.347-.195c.196-.098 19.336-10.106 36.621-20.606l.504-.304.196-.54c.058-.167.12-.327.18-.484.144-.332.273-.672.378-1.02 2.13-6.097 3.906-19.206 4.766-26.452.348-2.645.547-4.383.547-4.395l.219-1.816h-.07l.148-1.465h-20.422l21.894-16.578.063-.727c1.336-16.129 0-34.508-.008-34.695zm0 0"/><path fill="#fff" d="M121.219 170.156s-19.176 1.844-75.7-12.91c23.063 44.984 44.66 47.434 60.731 47.434h54.855s18.223-9.88 35.508-20.375zm0 0"/><path fill="url(#g)" d="M106.258 203.105c-6.926 0-16.653.055-26.301-6.234-16.777-10.937-22.316-19.559-31.906-37.617 43.094 11.062 63.761 12.289 70.726 12.289 1.27 0 2.04-.043 2.383-.07l74.426 12.066c-15.25 9.113-33.246 18.484-35.316 19.57h-54.012zm0 0"/><path fill="#fff" d="M84.95 152.582s-9.27-10.742-12.5-18.902l104.84 18.902 26.87-20.348c-.031-16.691-.101-32.66-.101-32.66H72.453s4.649-13.332 13.031-18.633l95.996 17.934 22.657-19.379c-.914-18.226-9.64-29.332-9.64-29.332H93.18c-8.844 0-26.914 1.953-40.528 17.172-13.609 15.219-25.738 49.14-12.687 80.746 13.254 32.102 30.46 36.223 40.183 36.223h116.473c.16-.47.39-.907.547-1.453 2.8-9.48 5.203-30.262 5.203-30.262H84.95zm0 0"/><path fill="url(#h)" d="M112.965 60.883s-37.836 7.375-39.684 8.3c-1.844.922-9.226 34.145-9.226 34.145h109.89l28.18-23.832zm0 0"/><path fill="url(#i)" d="M113.684 113.621s-37.836 7.383-39.676 8.309c-1.836.925-9.227 34.14-9.227 34.14h105.836l32.348-24.425zm0 0"/><path fill="url(#j)" d="M204.164 132.234H72.554c3.231 8.168 12.5 18.903 12.5 18.903H202.48s-2.308 23.172-5.308 31.707H83.695c-14.465 0-30.015-4.844-43.625-36.215-13.61-31.375-.918-65.527 12.692-80.75 13.61-15.219 31.68-17.172 40.52-17.172h101.32s8.77 12.105 9.535 30.79H85.59C77.21 84.8 72.555 98.128 72.555 98.128h131.601c.778 11.355.778 22.75.008 34.105zm0 0"/><path fill="url(#k)" d="M183.785 41.066s-45.781-18.164-87.097 5.204C60.477 66.754 19.406 99.492 49.91 166.687c-27.558-39.32-27.855-71.273-6.21-104.75 20.456-31.644 80.675-60.496 140.085-20.87zm0 0"/><g clip-path="url(#l)" mask="url(#m)"><path fill="url(#n)" d="M124.902 8.227A117.272 117.272 0 0 0 12.73 157.457s-.05-1.125-.117-3.176c-.37-12.199 1.203-57.086 24.114-53.176 22.91 3.91 56.445 10.696 96.125-.242 39.68-10.941 71.308-48.047 50.925-76.699.004 0-23.863-15.937-58.875-15.937zm0 0"/></g><path fill="#fff" d="M105.852 49.336c2.843 7.238-6.864 15.898-19.02 18.55-12.156 2.65-24.406-1.323-26.555-8.788-3.41-11.856 8.414-16.075 20.57-18.715 12.157-2.645 19.29-5.602 25.005 8.953zm0 0"/></svg>