<svg xmlns="http://www.w3.org/2000/svg" width="250" height="250"><linearGradient id="a" x1="166.521" x2="-76.467" y1="279.629" y2="-148.063" gradientUnits="userSpaceOnUse"><stop offset="0" stop-color="#44bcf0"/><stop offset=".379" stop-color="#7298f8"/><stop offset="1" stop-color="#a099ff"/></linearGradient><path fill="url(#a)" d="M125 0c69.035 0 125 55.965 125 125s-55.965 125-125 125S0 194.035 0 125 55.965 0 125 0zm0 0"/><g fill="#fff"><path d="M70.406 109.164c1.625 3.453 5.637 10.281 5.637 10.281L122.457 43 77.16 74.516a19.729 19.729 0 0 0-6.45 7.07A32.592 32.592 0 0 0 67.5 95.34c-.05 4.765.941 9.48 2.906 13.824zM52.016 134.336a51.324 51.324 0 0 0 6.082 20.879 51.521 51.521 0 0 0 14.195 16.515l50.102 34.81s-31.348-45.013-57.786-89.802a45.053 45.053 0 0 1-5.312-15.273 24.283 24.283 0 0 1 0-7.332 261.72 261.72 0 0 0-2.027 3.879 59.014 59.014 0 0 0-5.415 17.273c-.523 6.34-.468 12.719.16 19.05zM179.836 140.375c-1.621-3.453-5.637-10.281-5.637-10.281l-46.41 76.445 45.297-31.496a19.715 19.715 0 0 0 6.445-7.07c2.067-4.301 3.164-9 3.219-13.766a32.612 32.612 0 0 0-2.914-13.832zM198.227 115.203a51.324 51.324 0 0 0-6.082-20.879 51.475 51.475 0 0 0-14.192-16.515L127.848 43s31.328 45.012 57.789 89.8a45.195 45.195 0 0 1 5.293 15.27 24.565 24.565 0 0 1 0 7.336 308.388 308.388 0 0 0 2.027-3.879 59.16 59.16 0 0 0 5.41-17.273c.531-6.344.485-12.719-.14-19.05zm0 0"/><path d="M70.71 81.586a19.729 19.729 0 0 1 6.45-7.07L122.457 43l-46.414 76.465s-4.055-6.828-5.637-10.281a32.608 32.608 0 0 1 .305-27.598zm-18.694 52.75a51.324 51.324 0 0 0 6.082 20.879 51.521 51.521 0 0 0 14.195 16.515l50.102 34.81s-31.348-45.013-57.786-89.802a45.053 45.053 0 0 1-5.312-15.273 24.283 24.283 0 0 1 0-7.332 261.72 261.72 0 0 0-2.027 3.879 59.014 59.014 0 0 0-5.415 17.273c-.523 6.34-.468 12.719.16 19.05zm127.742 6.059c-1.625-3.454-5.64-10.282-5.64-10.282l-46.329 76.426 45.297-31.496a19.715 19.715 0 0 0 6.445-7.07c2.067-4.301 3.164-9 3.219-13.766a32.612 32.612 0 0 0-2.914-13.832zm18.387-25.172a51.319 51.319 0 0 0-6.079-20.88 51.576 51.576 0 0 0-14.195-16.515L127.848 43s31.328 45.012 57.789 89.8a45.195 45.195 0 0 1 5.293 15.27 24.565 24.565 0 0 1 0 7.336 308.388 308.388 0 0 0 2.027-3.879 59.16 59.16 0 0 0 5.41-17.273c.531-6.344.485-12.719-.14-19.05zm0 0"/></g></svg>