<svg xmlns="http://www.w3.org/2000/svg" width="250" height="250"><radialGradient id="a" cx="0" cy="0" r="1" gradientTransform="scale(246.08874) rotate(55.124 .019 .25)" gradientUnits="userSpaceOnUse"><stop offset="0" stop-color="#00d5ff"/><stop offset=".089" stop-color="#00d5ff"/><stop offset=".5" stop-color="#3a4aff"/><stop offset="1" stop-color="#7e20ff"/></radialGradient><path fill="url(#a)" d="M-.098 125.012c0 69.035 55.961 125 124.996 125 69.036 0 125-55.965 125-125 0-69.032-55.964-124.996-125-124.996C55.863.016-.098 55.98-.098 125.012"/><g fill="#010a24"><path d="M124.832 97.172c-37.25 0-67.45-5.95-67.45-13.29 0-7.339 30.2-13.288 67.45-13.288s67.445 5.949 67.445 13.289-30.195 13.289-67.445 13.289M124.832 137.668c-37.25 0-67.45-5.95-67.45-13.29s30.2-13.288 67.45-13.288 67.445 5.95 67.445 13.289-30.195 13.289-67.445 13.289M124.832 179.46c-37.25 0-67.45-5.948-67.45-13.288s30.2-13.293 67.45-13.293 67.445 5.953 67.445 13.293-30.195 13.289-67.445 13.289"/></g></svg>