<svg xmlns="http://www.w3.org/2000/svg" width="250" height="250"><linearGradient id="a" x1="2.445" x2="247.357" y1="1.392" y2="248.409" gradientUnits="userSpaceOnUse"><stop offset="0" stop-color="#e27640"/><stop offset="1" stop-color="#fe2f51"/></linearGradient><clipPath id="b"><path d="M159 152h20v13h-20zm0 0"/></clipPath><clipPath id="c"><path d="m163.203 152.941 17.219 12.567c-.906-.66-2.098-.953-3.426-.742l-17.215-12.567c1.324-.21 2.516.082 3.422.742zm0 0"/></clipPath><clipPath id="d"><path d="M161 152h19v14h-19zm0 0"/></clipPath><clipPath id="e"><path d="m163.203 152.941 17.219 12.567c-.906-.66-2.098-.953-3.426-.742l-17.215-12.567c1.324-.21 2.516.082 3.422.742zm0 0"/></clipPath><clipPath id="f"><path d="M162 152h19v14h-19zm0 0"/></clipPath><clipPath id="g"><path d="m163.203 152.941 17.219 12.567c-.906-.66-2.098-.953-3.426-.742l-17.215-12.567c1.324-.21 2.516.082 3.422.742zm0 0"/></clipPath><clipPath id="h"><path d="M121 158h18v13h-18zm0 0"/></clipPath><clipPath id="i"><path d="m138.36 170.715-17.215-12.567c.101.075.25.13.449.098l17.215 12.566a.59.59 0 0 1-.45-.097zm0 0"/></clipPath><clipPath id="j"><path d="M65 194h20v20H65zm0 0"/></clipPath><clipPath id="k"><path d="M84.512 213.438 67.297 200.87a4.411 4.411 0 0 1-1.242-1.426c-.922-1.675-.817-3.804.277-5.71l17.215 12.57c-1.094 1.902-1.2 4.035-.277 5.707a4.331 4.331 0 0 0 1.242 1.425zm0 0"/></clipPath><clipPath id="l"><path d="M65 193h19v15H65zm0 0"/></clipPath><clipPath id="m"><path d="M84.512 213.438 67.297 200.87a4.411 4.411 0 0 1-1.242-1.426c-.922-1.675-.817-3.804.277-5.71l17.215 12.57c-1.094 1.902-1.2 4.035-.277 5.707a4.331 4.331 0 0 0 1.242 1.425zm0 0"/></clipPath><clipPath id="n"><path d="M66 193h18v14H66zm0 0"/></clipPath><clipPath id="o"><path d="M84.512 213.438 67.297 200.87a4.411 4.411 0 0 1-1.242-1.426c-.922-1.675-.817-3.804.277-5.71l17.215 12.57c-1.094 1.902-1.2 4.035-.277 5.707a4.331 4.331 0 0 0 1.242 1.425zm0 0"/></clipPath><clipPath id="p"><path d="M107 121h18v14h-18zm0 0"/></clipPath><clipPath id="q"><path d="m124.79 134.488-17.216-12.566c.668-1.18.696-2.637.067-3.703l17.214 12.566c.63 1.07.602 2.524-.066 3.703zm0 0"/></clipPath><clipPath id="r"><path d="M107 121h19v14h-19zm0 0"/></clipPath><clipPath id="s"><path d="m124.79 134.488-17.216-12.566c.668-1.18.696-2.637.067-3.703l17.214 12.566c.63 1.07.602 2.524-.066 3.703zm0 0"/></clipPath><clipPath id="t"><path d="M162 35h20v14h-20zm0 0"/></clipPath><clipPath id="u"><path d="m165.492 36.703 17.215 12.567c-.906-.66-2.098-.954-3.422-.743L162.07 35.961c1.325-.211 2.516.082 3.422.742zm0 0"/></clipPath><clipPath id="v"><path d="M163 35h19v14h-19zm0 0"/></clipPath><clipPath id="w"><path d="m165.492 36.703 17.215 12.567c-.906-.66-2.098-.954-3.422-.743L162.07 35.961c1.325-.211 2.516.082 3.422.742zm0 0"/></clipPath><clipPath id="x"><path d="M164 36h19v14h-19zm0 0"/></clipPath><clipPath id="y"><path d="m165.492 36.703 17.215 12.567c-.906-.66-2.098-.954-3.422-.743L162.07 35.961c1.325-.211 2.516.082 3.422.742zm0 0"/></clipPath><clipPath id="z"><path d="M165 36h18v14h-18zm0 0"/></clipPath><clipPath id="A"><path d="m165.492 36.703 17.215 12.567c-.906-.66-2.098-.954-3.422-.743L162.07 35.961c1.325-.211 2.516.082 3.422.742zm0 0"/></clipPath><path fill="url(#a)" d="M0 0h250v250H0z"/><g clip-path="url(#b)"><g clip-path="url(#c)"><path fill="#b3b3b3" d="m176.996 164.766-17.215-12.57a5.024 5.024 0 0 1 1.781.027l17.215 12.566a5.027 5.027 0 0 0-1.78-.023"/></g></g><g clip-path="url(#d)"><g clip-path="url(#e)"><path fill="#adadad" d="m178.777 164.79-17.218-12.567a4.5 4.5 0 0 1 .77.23l17.214 12.567a4.565 4.565 0 0 0-.766-.23"/></g></g><g clip-path="url(#f)"><g clip-path="url(#g)"><path fill="#a8a8a8" d="m179.543 165.02-17.215-12.567c.188.078.371.168.543.27l17.219 12.566a4.734 4.734 0 0 0-.547-.27"/><path fill="#a3a3a3" d="m180.09 165.29-17.219-12.567c.117.066.227.14.336.218l17.215 12.567a4.418 4.418 0 0 0-.332-.219"/></g></g><path fill="#c1c1c1" d="m138.809 170.813-17.215-12.567 38.187-6.047 17.215 12.567zm0 0"/><g clip-path="url(#h)"><g clip-path="url(#i)"><path fill="#a3a3a3" d="m138.36 170.715-17.215-12.567c.015.008.03.02.046.032l17.215 12.566c-.015-.012-.031-.02-.047-.031"/><path fill="#a8a8a8" d="m138.406 170.746-17.215-12.566.075.035 17.214 12.566c-.027-.011-.05-.023-.074-.035"/><path fill="#adadad" d="m138.48 170.781-17.214-12.566c.027.008.062.02.093.027l17.22 12.567a.321.321 0 0 1-.099-.028"/><path fill="#b3b3b3" d="m138.578 170.809-17.219-12.567c.07.016.149.016.235.004l17.215 12.566a.563.563 0 0 1-.23-.003"/></g></g><path fill="#afaea9" d="M84.512 213.438 67.297 200.87a4.411 4.411 0 0 1-1.242-1.426c-.922-1.675-.817-3.804.277-5.71l17.215 12.57c-1.094 1.902-1.2 4.035-.277 5.707a4.331 4.331 0 0 0 1.242 1.425zm0 0"/><g clip-path="url(#j)"><g clip-path="url(#k)"><path fill="#afaea9" d="M84.512 213.438 67.297 200.87a4.411 4.411 0 0 1-1.242-1.426c-.762-1.39-.825-3.093-.196-4.722l17.215 12.57c-.629 1.625-.566 3.328.196 4.719a4.331 4.331 0 0 0 1.242 1.425"/></g></g><g clip-path="url(#l)"><g clip-path="url(#m)"><path fill="#afaea9" d="M83.074 207.29 65.86 194.722c.102-.266.223-.532.36-.79L83.434 206.5a7.837 7.837 0 0 0-.36.79"/></g></g><g clip-path="url(#n)"><g clip-path="url(#o)"><path fill="#afaea9" d="m83.434 206.5-17.215-12.566c.035-.067.074-.133.113-.2l17.215 12.567c-.04.066-.078.133-.113.199"/></g></g><path fill="#bebdb8" d="m83.547 206.3-17.219-12.566 41.246-71.812 17.215 12.566zm0 0"/><path fill="#93928d" d="m124.79 134.488-17.216-12.566c.668-1.18.696-2.637.067-3.703l17.214 12.566c.63 1.07.602 2.524-.066 3.703zm0 0"/><g clip-path="url(#p)"><g clip-path="url(#q)"><path fill="#9c9b96" d="m124.79 134.488-17.216-12.566c.016-.027.031-.059.047-.086l17.219 12.566a.622.622 0 0 0-.05.086"/></g></g><g clip-path="url(#r)"><g clip-path="url(#s)"><path fill="#9c9b96" d="m124.84 134.402-17.219-12.57c.078-.144.149-.293.207-.445l17.215 12.566a4.645 4.645 0 0 1-.203.45"/></g></g><g clip-path="url(#t)"><g clip-path="url(#u)"><path fill="#b3b3b3" d="m179.285 48.527-17.215-12.57a5 5 0 0 1 1.778.027l17.218 12.567a5.026 5.026 0 0 0-1.78-.024"/></g></g><g clip-path="url(#v)"><g clip-path="url(#w)"><path fill="#adadad" d="m181.066 48.55-17.218-12.566c.27.051.523.133.77.23l17.214 12.567a4.457 4.457 0 0 0-.766-.23"/></g></g><g clip-path="url(#x)"><g clip-path="url(#y)"><path fill="#a8a8a8" d="m181.832 48.781-17.215-12.566c.188.078.371.168.543.27l17.215 12.566a4.39 4.39 0 0 0-.543-.27"/></g></g><g clip-path="url(#z)"><g clip-path="url(#A)"><path fill="#a3a3a3" d="M182.375 49.05 165.16 36.485c.117.067.227.141.332.22l17.215 12.566a3.25 3.25 0 0 0-.332-.22"/></g></g><path fill="#9c9b98" d="m124.855 130.785-17.214-12.566-38.563-58.977L86.293 71.81zm0 0"/><path fill="#c1c1c1" d="M90.953 62.516 73.734 49.949l88.336-13.988 17.215 12.566zm0 0"/><path fill="#ededed" d="M179.285 48.527c2.992-.476 5.285 1.602 5.223 4.727l-.496 24.254c-.067 3.129-2.457 5.949-5.45 6.422l-38.101 6.035a.807.807 0 0 0-.594.426.86.86 0 0 0-.004.808l21.426 32.742c1.133 1.606 1.086 3.97-.117 6.036l-22.953 39.84a.664.664 0 0 0-.04.683.58.58 0 0 0 .63.309l38.187-6.051c2.992-.473 5.285 1.605 5.223 4.726l-.496 24.258c-.063 3.125-2.457 5.946-5.446 6.418l-88.422 14.004c-1.953.309-3.664-.496-4.582-2.16-.921-1.676-.816-3.809.274-5.711l41.246-71.813c.668-1.18.695-2.636.066-3.703L86.297 71.801c-1.02-1.567-1.04-3.684-.043-5.66.992-1.97 2.75-3.325 4.703-3.633zm0 0"/><path fill="#c6c5c0" d="M86.07 71.43a4.68 4.68 0 0 1-.097-.2 1.125 1.125 0 0 1-.051-.12 3.815 3.815 0 0 1-.078-.188c-.016-.04-.028-.082-.047-.125a3.514 3.514 0 0 0-.063-.188c-.011-.043-.023-.09-.039-.132-.015-.067-.03-.13-.047-.196-.007-.043-.02-.086-.03-.133-.013-.066-.024-.136-.036-.203l-.023-.129-.024-.23c-.004-.04-.008-.07-.008-.106a5.058 5.058 0 0 1-.015-.343v-.02c0-.11.004-.219.008-.328l.011-.117c.004-.078.012-.156.02-.234a1.44 1.44 0 0 1 .02-.137c.007-.07.019-.145.03-.219.008-.047.02-.098.028-.144.016-.07.027-.141.047-.211.011-.047.023-.098.039-.149.015-.07.035-.14.055-.21.015-.052.027-.098.046-.15a4.81 4.81 0 0 1 .075-.218c.015-.047.03-.094.046-.137.032-.078.063-.16.098-.238l.047-.117a7.295 7.295 0 0 1 .398-.774l.118-.191c.03-.047.058-.09.086-.137.023-.031.046-.062.07-.097a8.8 8.8 0 0 1 .316-.434c.016-.016.028-.035.043-.055.114-.136.23-.273.356-.402l.086-.086c.12-.125.25-.25.379-.363l.011-.008c.004-.004.012-.008.016-.016.082-.07.168-.14.258-.21l.09-.067c.062-.047.125-.09.187-.137.047-.027.086-.058.133-.086.055-.039.113-.078.172-.113.043-.027.09-.055.133-.078.05-.031.101-.059.156-.086.078-.043.152-.082.23-.121.047-.024.094-.047.145-.067.082-.039.164-.074.25-.109.043-.016.09-.039.133-.055a3.01 3.01 0 0 0 .101-.035c.074-.023.149-.05.223-.074.039-.012.078-.023.113-.035l.23-.059a5.101 5.101 0 0 1 .438-.09L73.734 49.957c-.109.016-.218.04-.332.063-.035.007-.07.015-.101.027l-.23.058-.114.036c-.074.023-.148.05-.223.074a3.013 3.013 0 0 1-.101.035c-.012.004-.028.008-.04.016-.034.011-.066.027-.097.039-.086.035-.168.07-.25.105l-.14.07c-.079.036-.157.079-.235.118-.023.015-.05.027-.074.043-.027.011-.05.03-.078.043-.047.027-.09.054-.133.082l-.176.113c-.043.027-.086.055-.129.086-.02.015-.043.027-.062.043-.043.031-.086.062-.125.094-.031.023-.063.043-.09.066a6.118 6.118 0 0 0-.258.21c-.004.005-.012.009-.016.013 0 0-.003 0-.003.004-.004 0-.004.003-.008.003a8.317 8.317 0 0 0-.38.364c-.019.015-.034.031-.05.047-.012.011-.023.027-.035.039a5.877 5.877 0 0 0-.356.406l-.011.012-.028.039c-.113.14-.218.285-.316.433-.012.02-.027.035-.04.055-.01.012-.019.027-.03.043-.028.043-.055.09-.082.133a5.303 5.303 0 0 0-.121.195c-.028.05-.055.098-.086.145-.02.039-.043.078-.063.113l-.082.156c-.059.117-.113.238-.168.356l-.047.117-.082.195a5.493 5.493 0 0 1-.063.18c-.027.074-.05.144-.074.219l-.046.148c-.02.07-.04.14-.055.21-.012.052-.027.102-.04.15l-.046.21c-.008.047-.016.098-.027.145-.012.074-.024.144-.032.215a1.737 1.737 0 0 0-.02.14c-.007.078-.01.157-.019.235l-.011.117c-.004.113-.008.219-.008.328v.02c0 .117.008.23.015.343 0 .035.004.07.012.11.004.074.012.152.024.226.007.043.015.086.02.13a3.855 3.855 0 0 0 .07.339c.011.066.027.129.046.191l.04.133c.019.063.038.125.062.188l.047.129c.023.062.05.125.078.187.015.04.031.078.05.117.028.067.063.137.098.2a4.246 4.246 0 0 0 .223.383L86.3 71.804a5.01 5.01 0 0 1-.172-.285c-.024-.028-.04-.06-.059-.09zm0 0"/></svg>