<svg xmlns="http://www.w3.org/2000/svg" width="250" height="250"><path fill="#18103c" d="M245.938 124.25c0 66.86-54.204 121.063-121.063 121.063S3.812 191.108 3.812 124.25 58.017 3.187 124.876 3.187 245.938 57.392 245.938 124.25zm0 0"/><g fill="#2dbaa1"><path d="M90.313 159.875c8.937 0 17.874-3.375 24.687-10.188l5.125-5.125 14.688-14.625 14.875-14.875c2.687-2.687 6.25-4.124 10-4.124s7.312 1.5 10 4.124c2.687 2.688 4.125 6.25 4.125 10s-1.5 7.313-4.125 10c-2.688 2.688-6.25 4.125-10 4.125s-7.313-1.5-10-4.125l-5.125-5.125-4.875 4.875 5.125 5.125c4 4 9.25 6.188 14.875 6.188s10.937-2.188 14.875-6.188c4-4 6.187-9.25 6.187-14.875s-2.188-10.937-6.188-14.874c-4-4-9.25-6.188-14.875-6.188s-10.937 2.188-14.875 6.188L142.5 112.5 130 125.063l-14.75 14.562-1.438 1.438-3.124 3.062-.626.625c-10.874 10.875-28.624 10.875-39.562 0-5.313-5.313-8.188-12.313-8.188-19.75 0-7.5 2.938-14.5 8.188-19.75 5.313-5.313 12.313-8.188 19.75-8.188 7.5 0 14.5 2.938 19.75 8.188l10 10-19.813 19.813c-2.687 2.687-6.25 4.125-10 4.125-2.437 0-4.812-.625-6.874-1.75l24.562-24.563-2.75-2.75c-.813-.813-1.688-1.5-2.563-2.188-3.562-2.562-7.812-4-12.312-4-5.625 0-10.938 2.188-14.875 6.188-4 4-6.188 9.25-6.188 14.875s2.188 10.938 6.188 14.875c4 4 9.25 6.188 14.875 6.188s10.938-2.188 14.875-6.188l24.625-24.625L115 100.312c-13.625-13.624-35.688-13.624-49.313 0C59.126 106.876 55.5 115.626 55.5 125s3.625 18.063 10.188 24.688c6.812 6.75 15.687 10.187 24.624 10.187zM76.186 125c0-3.75 1.5-7.313 4.126-10 2.687-2.688 6.25-4.125 10-4.125 2.624 0 5.187.688 7.374 2.063L78.25 132.375c-1.375-2.188-2.063-4.75-2.063-7.375zm0 0"/><path d="M139.875 105.25c10.875-10.875 28.625-10.875 39.563 0 5.312 5.313 8.187 12.313 8.187 19.75 0 7.5-2.938 14.5-8.188 19.75-5.312 5.313-12.312 8.188-19.75 8.188-7.5 0-14.5-2.938-19.75-8.188l-5.125-5.125-4.875 4.875 5.063 5.063c6.813 6.812 15.75 10.187 24.688 10.187s17.875-3.375 24.687-10.188c6.563-6.562 10.188-15.312 10.188-24.687s-3.625-18.063-10.188-24.688c-13.625-13.624-35.688-13.624-49.313 0l-5.125 5.126 4.875 4.874zm0 0"/></g></svg>