<svg xmlns="http://www.w3.org/2000/svg" xmlns:xlink="http://www.w3.org/1999/xlink" viewBox="0 0 64 64" xmlns:v="https://vecta.io/nano"><path d="M112.4.8h0 0z" fill="#090807"/><path d="M0 0h64v64H0z" fill="#f9da0a"/><path d="M30.3 17.5l-.1.1c.1 0 .1 0 .1-.1z" fill="#f5d815"/><path d="M35.1 15.7c0 .1-.1.1-.1.1 0-.1.1-.1.1-.1z" fill="#090807"/><path d="M28.2 22.7h0v.2c.1-.1.1-.1 0-.2h0zm.8 3.4c0-.1 0-.3-.1-.4.1.1.1.2.1.4zm.3-4.5v.1-.1zm.2 2.9h0c-.2-.1-.1-.3-.1-.4h0c.2.1.1.2.1.4 0-.1 0-.1 0 0zm.7.7h0s-.1.1-.1 0c-.1-.1 0-.1 0-.1.1 0 .1 0 .1.1z" fill="#fff"/><path d="M27.7 50c-.1 0-.1.1-.2.1.1-.1.2-.1.2-.1h0zm-.5-.1c-.1 0-.1 0 0 0-.1 0-.1 0 0 0-.1 0-.1 0 0 0zm.1-1h-.1c0-.1.1 0 .1 0z" fill="#dde7e7"/><path d="M46.6 47l-1.3 1.5c-.1-.4.1-.7.2-.9.2-.5.1-.7-.4-.8l-1-.3c-.5-.2-1-.3-1.6-.2v-.2c.1-.1.2-.1.3-.2h.1 0 0c.1 0 .2 0 .2-.1 0 .1 0 .2.2.3l1.4.3 1.5.3c.5 0 .6 0 .4.3z" fill="#13a64b"/><path d="M29.1 37.3c-.1.1-.2.3-.3.4-.1.2-.3.3-.4.4-.2.1-.2.3-.3.4l-.3.3c-.1.1-.3.1-.1.3-.4.2-.5.1-.6-.3-.1-.7-.4-1.3-.6-2 .1 0 .2 0 .2-.1.5 0 1-.1 1.4-.4h.7c.3 0 .5.3.6.5s-.2.3-.3.5zm-1.8-2.6c-.1.1-.1.1-.1.2v.1.1h0c-.1 0-.2.1-.2.2-.1.2-.2.4-.3.5h-.1c-.1-.1-.1-.1 0-.2.3-.3.5-.8.6-1.2h.3c0 .1-.2.1-.2.3zm-1.2 1.9c-.2.7-.5-.1-.8 0 .2-.1.4-.2.5-.3.1 0 .1.3.3.3zm-2.5 3.6c-.2.1-.3.4-.3.6s.3.3.5.3.2.1.1.3c-.5.9-1.6 1.2-2.4.6-.4-.3-.2-.6-.2-1 .2-1.1.5-2.2 1.2-3.1.3-.4.7-.6 1-.8.1 0 .2-.2.3-.1s0 .2-.1.3l-1.1 1.1c-.1.1-.2.2-.2.3-.2.3-.2.5.2.5a.9.9 0 0 1 .5.1c.4-.1.8-.2 1.2.1-.2.3-.4.6-.7.8zm17.1 1.4l-1.9 1.8h-.1c-.3-1.2-.9-2.2-1.3-3.3 0-.1 0-.2-.1-.2 0-.1-.1-.2-.1-.3 0-.3-.2-.4-.3-.6 0-.1-.1-.2-.1-.3-.2-.4-.3-.8-.5-1.2s-.2-.7-.2-1.1c0-.2.1-.3.3-.1l1.1.8c.3.2.2.6.2.9-.1.3-.1.6-.1.9-.1.5.2.7.7.7.4 0 .4.1.3.4-.1 1.1.1 1.1 1 .7.9-.5 1-.4 1.4.6-.2 0-.2.2-.3.3zm-9.6-1h-.2c-.6-.5-1.1-1.1-1.2-2-.1-.2.2-.5.1-.8 0-.1 0-.1.1-.2.1 0 .2.1.3.2.3.4.4.8.6 1.2l.3 1.3c0 .2.1.3 0 .3zm4.3-3.6c-.1.5-.3 1-.3 1.5 0 .1-.1.2-.2.2s-.1-.1-.2-.1l-1.2-1.3c.4 0 .7 0 1 .1s.4 0 .4-.3c0-.4.1-.8.1-1.3.5.3.5.7.4 1.2zM33 39c-.3.5-.7.9-1.2 1.2.2-.8.2-1.6.9-2.2.3-.2.3-.2.4.1s.1.6-.1.9z" fill="#dde7e7"/><path d="M36.8 31.8h-.1c0-.1 0-.1.1 0z" fill="#7e6044"/><path d="M45.2 51.1c-.4-.5-.8-.9-1.2-1.3-.3-.3-.6-.2-.8.3-.1.2-.1.3-.1.5 0 .1 0 .2.1.3 0 .1.1.1.2.2s.3.2.4.4c.2.4.6.5 1.1.4.3-.1.5-.5.3-.8zm-.5.5c-.3.1-.6-.2-.9-.2 0-.2-.2-.4-.3-.5-.2-.2-.2-.5-.1-.7s.2-.4.5-.1c.3.4.7.8 1 1.1s.1.4-.2.4zm-.2.7c-.9.4-2 .1-2.6-.6-.2-.3-.1-.5.1-.6.3-.1.6-.2.8.1h0-.3c-.2 0-.4 0-.4.2-.1.2.2.3.3.4.2.2.5.3.7.4s.5.3.7 0c.2-.2-.3-.3-.3-.5h0c.4.1.6.4 1 .6z" fill="#f5d815"/><use xlink:href="#B" fill="#13a64b"/><path d="M42.7 52.6c-.4-.1-.8-.5-1.3-.4-.3.1-.6.1-.2.5.2.3.4.4.7.4.4 0 .8-.1 1.2-.3 0-.1-.3-.1-.4-.2zm-.9.3c-.2 0-.4-.2-.3-.4s.3-.1.4-.1c.2.1.6.1.8.4-.4.2-.6.2-.9.1z" fill="#f5d815"/><path d="M46.6 48.2l-.9.9c-.1.1-.2.3-.5.2l1.1-1.3c.2-.2.4-.4.6-.2.1.1-.2.3-.3.4zm-5.5 3l-.1-.1h0c.1 0 .1.1.1.1z" fill="#13a64b"/><g fill="#f5d815"><path d="M43.3 51.6h0c-.2 0-.4-.1-.4-.3h0c.2 0 .4.1.4.3z"/><path d="M43.5 51.7h0c-.1 0-.1 0-.2-.1h0c.1 0 .2 0 .2.1z"/></g><path d="M41 51.1l-.1-.1s.1 0 .1.1c0-.1 0-.1 0 0 0-.1 0-.1 0 0z" fill="#318e51"/><path d="M22.1 54c-.8.3-1.6.5-2.4.7-.2 0-.4.1-.5.1-.3 0-.5 0-.6-.2-.2-.2-.2-.4.1-.5l3.2-.9c.2 0 .4-.1.5.2s0 .4-.3.6z" fill="#7e6044"/><path d="M18.1 54.9h-.8c.3-.3.5-.5.8-.1v.1z" fill="#e4d145"/><path d="M18.1 54.9v-.2c.1 0 .2.1 0 .2z" fill="#7e6044"/><path d="M24.5 52.1l-.1-.1.1.1zm4.8-30.5v.1-.1z" fill="#f5d815"/><path d="M29.1 28.1L29 28h0c.1 0 .1.1.1.1z" fill="#e4d145"/><path d="M39.2 50.6c-1 .8-2.2 1.1-3.5 1.3-.3 0-.3-.1-.2-.3l.8-1.8c-.6-.1-1.1 0-1.5.1h-.1c-.3.1-.4 0-.4-.3v-.2c0-.6.1-1.1-.1-1.7-.1-.2-.2-.4-.4-.1-.3.3-.6.7-.9 1-.4.4-.4.4-.8-.1-.4-.6-.7-1.2-1.2-1.7-.1-.1-.3-.3-.5-.2a.55.55 0 0 0-.3.5c0 .5-.1.9-.1 1.5v.3c-.2-.1-.4-.2-.5-.3a4.67 4.67 0 0 0-1-.5c-.1 0-.2 0-.2-.1-.1 0-.2 0-.4-.1h-.3c-.2 0-.4 0-.6.1 0 .2.2.4.3.7v.1c-.1 0-.1 0-.1.1h.1c.2.3.4.6.4 1 0 0-.1.1-.2.1v.1h-.1s-.1 0-.1.1c-.4 0-.7.3-1.1.3-.8.5-1 .2-1.1-.7 0-.2 0-.5-.1-.7V49v-.8c.2-.1.2.1.4.1v.1h.1c.2.2.5.4.8.5h.1.1s.1-.1.2-.1V46c0-.1-.1-.4.1-.3s.5 0 .7.1l2.4.5c.3.3.6.2.9.2h.2c.1 0 .1 0 .1-.1v-.2l-1.8-2.5h0 .3s.1 0 .1-.1c.2 0 .4-.1.5-.1h.2c.1 0 .1 0 .2-.1.1-.2-.1-.2-.2-.3 0-.1-.1-.1-.2-.1-.2-.2-.5-.4-.8-.5-.1-.1-.2-.1-.3-.1h-.2c-.1-.4-.6-.3-.6-.6.1 0 .2-.1.2-.1.3-.1.5-.2.7-.4v-.1h0c0-.4-.2-.7-.6-.9 0-.2-.2-.2-.3-.3-.2-.2-.4-.2-.4-.5.1-.1.1-.1.1-.2.2-.1.3-.3.4-.5.1-.1.2-.2.2-.3.1 0 .2-.1.2-.2.1-.1.1-.3.4-.3 0 .5-.1 1 .1 1.4.3 1 1.1 1.6 1.9 2.3.2.2.3 0 .4-.1.4-.6.9-1.1 1.4-1.6.4-.4.7-.9.6-1.5 0-.1 0-.2.1-.3s.2.1.3.2l.7 1c.3.5.7.4.9-.1.1-.2.2-.5.2-.8 0-.1-.1-.2.1-.3.2 0 .2.1.3.2.1.2.1.3.2.4h0c0 .2.1.3.2.4.1.2.2.5.3.7v.2c-.1.2-.3.5-.4.7l-.1.1c-.1.1-.2.2-.2.3l-1.4 1.2c-.1 0-.2 0-.2.1-.4.1-.7.4-1 .5-.2.1-.3.2-.1.4s.5.1.8.1c.2 0 .3.2.5.1l.1.1c-.1.1-.1.2-.2.2s-.1 0-.1.1c-.1 0-.1.1-.2.1s-.1 0-.1.1a11.94 11.94 0 0 0-1.6.8c-.1 0-.1 0-.1.1-.3 0-.3.2-.1.3.6.4 1.1.9 1.8 1 .2.2.5.2.7.2h.7c.4 0 .4.1.3.4-.3.5-.5 1-.8 1.6h1l2.1-.7c.1 0 .1 0 .1-.1h.1c.1-.1.3 0 .4-.2h.3v.1c0 .5.2 1 .3 1.5-.2.6.1 1.1-.3 1.4z" fill="#dde7e7"/><path d="M29.3 28.2c-.1.1-.1.1 0 0-.1 0 0 0 0 0z" fill="#e4d145"/><g fill="#13a64b"><path d="M44.6 48.4c-.1.1-.1.2-.2.4s-.2.2-.4.1l-1.1-.8c0-.1-.1-.2-.1-.3 0 0 0-.1-.1-.1.1-.2.1-.5.2-.7v-.2c.2-.3.5-.2.8-.1 1.7.5 1.6.2.9 1.7zm-3.6.8c0 .6-.3 1-.9 1.1v-.1c0-.1.1-.2.1-.3.3-.2.4-.6.8-.7z"/><path d="M46.6 47l-1.3 1.5c-.1-.4.1-.7.2-.9.2-.5.1-.7-.4-.8l-1-.3c-.5-.2-1-.3-1.6-.2h0v-.2c.1-.1.2-.1.3-.2h.1c.1.1.2.1.5.2l1.4.3 1.5.3c.4 0 .5 0 .3.3zm0 1.2l-.9.9c-.1.1-.2.3-.5.2l1.1-1.3c.2-.2.4-.4.6-.2.1.1-.2.3-.3.4z"/><use xlink:href="#B"/><path d="M42.9 54.6c0 .1 0 .3-.2.3-.1 0-.2-.1-.2-.3.1-.3.1-.6.4-.9.1.4.1.7 0 .9zm-.7-.7c0 .5-.2.9-.3 1.4 0 .2-.1.2-.2.1l-1.7-.9c-.2-.1-.3-.3-.2-.5s.3 0 .5.1l1 .6c.3.2.5.1.6-.2-.1-.2 0-.4.3-.6zm.4-3.7c0 .4-.2.6-.9.6a.47.47 0 0 1-.5-.5c0-.4.4-.8.8-.8.4.1.6.3.6.7z"/><path d="M41.5 53.8c-.1.3-.3.6-.7.4s-.8-.4-1.1-.7v-1.6s0-.1.1-.1v-.2c.2-.3.5-.5.8-.8s.4-.1.4.2h0s0 .1.1.1h0l.1.1.1.1v.1.1.1c0 .1-.2.1-.4.2-.1.1-.2.2-.4.2h0c0 .3 0 .6.1.9.1.1.3.2.4.3.1 0 .2.1.3.1.3.1.4.2.2.5z"/></g><path d="M43.1 52.9c-.4.2-.8.3-1.2.3-.3 0-.5-.1-.7-.4-.3-.4 0-.5.2-.5.5-.1.9.2 1.3.4.1 0 .4 0 .4.2zm1.4-.6c-.9.4-2 .1-2.6-.6-.2-.3-.1-.5.1-.6.3-.1.6-.2.8.1.2 0 .4.1.4.3.1 0 .2 0 .2.1.5.2.7.5 1.1.7zm.4-.5c-.4 0-.8 0-1.1-.4a.78.78 0 0 1-.4-.4c-.1-.1-.1-.2-.2-.2-.1-.1-.1-.2-.1-.3s0-.3.1-.5c.2-.4.5-.6.8-.3l1.2 1.3c.2.4 0 .8-.3.8zM29.5 24.4v-.3h0c-.1.1-.2.3 0 .3h0zm-.2-2.8h0 0 0zm13.8 27.5c-.3.2-.6.3-1 .2l-1.1-.6c-.4-.2-.6-.3-.7.2-.1.2-.2.4-.3.5h-.1l-.1-.1c0-.2-.1-.3-.1-.5v-.1h-.1c0-.4-.1-.8-.2-1.2 0-.1 0-.2-.1-.3 0-.1.1-.3-.1-.3v-.4c0-.1 0-.1-.1-.1v-.1-.3c0-.1-.1-.3-.1-.4s0-.2-.1-.2v-.2c0-.1.1-.2-.1-.3V44c.4-.3.8-.6 1.2-1 .2-.2.3-.2.4.1.2.9.6 1.8.5 2.8 0 .6.4 1.1.6 1.6.2.2.5.3.6.6.1 0 .2 0 .2.1.1 0 .2.1.3.1v.1c.1 0 .3.1.4.1.3.2.4.4.1.6zm-13-24h0 0z" fill="#f9da0a"/><g fill="#090807"><path d="M31 46.3c.1.1 0 .1 0 0 0 .1 0 .1 0 0zm-2.1-17.1s-.1 0 0 0c-.1-.1-.2-.2-.2-.3-.2-.2-.4-.3-.6-.2-.3.1-.2.3-.2.5 0 .3.1.5.1.8 0 .1-.1.1-.2.1-.2-.3-.5-.5-.5-.9 0-.8.4-1.1 1.1-.9.1 0 .2.1.3.1.2.3.2.5.2.8zm14.9 22.2h0 0zm-26.9-.5v-.2c-.1-.2-.2-.5-.2-.7v-.4c-.2-.1-.1-.2-.1-.3v-.4c-.1-.2 0-.4.2-.5h0c0-.1 0-.2.1-.2V48v-1.3-.2c-.2-.1 0-.4-.2-.4-.3 0-.2.3-.2.5 0 .8.1 1.6-.4 2.3-.1.2-.1.5 0 .8.2.6.3 1.2.5 1.9 0 .2 0 .5.3.4s.1-.3.2-.5c-.3-.4-.2-.5-.2-.6zm1.1.1h0c.1-.4.1-.7.1-1.1-.2-.1-.1-.3-.1-.4v-.2c-.1-.2-.2-.3-.4-.2s-.1.2 0 .3v.3c-.1 1 0 2.1 0 3.1 0 .2 0 .4.2.5h.2c.1-.8-.1-1.5 0-2.3.1.1.1.1 0 0zm12.1-25.9s-.1.1 0 .1c.1.1.1 0 .1 0h0c0-.1 0-.1-.1-.1zm0 0s-.1.1 0 .1c.1.1.1 0 .1 0h0c0-.1 0-.1-.1-.1zm0 0s-.1.1 0 .1c.1.1.1 0 .1 0h0c0-.1 0-.1-.1-.1zm-2.8 23.8c-.1 0-.1 0-.1.1l.1-.1zm.4 1.1s-.1.1-.2.1c.1-.1.2-.1.2-.1h0zm2.4-24.9s-.1.1 0 .1c.1.1.1 0 .1 0h0c0-.1 0-.1-.1-.1zm10.9 26h0l.1.1s0-.1-.1-.1zm2.1-.6c0-.1 0-.3.1-.5-.1.2-.1.4-.1.5zm.2-4.8c-.1 0-.1 0-.2.1h0 0c.1.1.2.1.5.2-.3 0-.3-.2-.3-.3zM30.1 25.1s-.1.1 0 .1c.1.1.1 0 .1 0h0c0-.1 0-.1-.1-.1zm0 0s-.1.1 0 .1c.1.1.1 0 .1 0h0c0-.1 0-.1-.1-.1zm0 0s-.1.1 0 .1c.1.1.1 0 .1 0h0c0-.1 0-.1-.1-.1z"/><path d="M47.8 48.7c-.6-.4-.6-.4-.1-.9v-.2h-.1c-.1 0-.1 0-.1-.1-.4 0-.6-.2-.2-.5 0-.1 0-.2.1-.2v-.1c-.1 0-.2 0-.2-.1l-1.1-.3c-.1 0-.2 0-.3-.1h-.1c-.2.1-.3-.1-.4-.1h-.1-.2c-.1 0-.2-.1-.3-.1-.4 0-1.1-.3-1.6-.4H43h-.5c-.2.2-.3.4-.4.6 0 .1-.1.3-.2.3-.2 0-.2-.1-.2-.3 0-.1-.1-.3-.1-.4v-.2c-.3-.3-.2-.6-.3-.9v-.1c-.3-.3-.3-.4-.3-.5 0-.2-.2-.3-.1-.4l-.3-1c0-.2 0-.4.2-.5l.1-.1c0-.1 0-.1.1-.1.1-.1.2-.2.3-.2 0-.1 0-.2.1-.2-.1-.6-.4-1.1-.7-1.6-.8-1.3-1.9-2.2-3-3.1-.1 0-.1 0-.1-.1-.1 0-.1-.1-.2-.1s-.1 0-.1-.1c-.5-.4-1-.7-1.4-1.1-.1 0-.1 0-.1-.1-.2-.2-.5-.3-.5-.6-.1-.1-.2-.3-.1-.4v-.1c0-.1 0-.1.1-.1.1-.2.3-.3.5-.4 0-.1 0-.1.1-.1.2-.2.6-.3.7-.7v-.4c0-.2.1-.3.3-.3h.6c0-.1.1-.1.2-.1.9 0 1.7-.2 2.6-.3.2-.1.4-.2.6-.2.7-.3 1.5-.5 1.9-1.3-.1-.2.1-.4.1-.6v-.3-.4-.2c-.2-.1-.1-.2-.1-.3v-.3c-.2-.1-.1-.2-.1-.3 0-.3-.1-.5-.1-.8-.1-.1-.1-.3 0-.4 0-.3.3-.5.4-.7a.76.76 0 0 0 .2-.4c0-.1 0-.1.1-.1 0-.3.1-.5.1-.8 0-.2 0-.3.2-.4 0-.1.1-.2.1-.3.4-.3.7-.6.8-1 0-.1.1-.1.1-.2s-.1-.2.1-.3v-.8-.2c-.1 0-.1-.1-.1-.2-.2-.3-.3-.6-.6-.9-.2-.2-.5-.3-.5-.7h-.1V19v-.1c.1-.1.1-.2.1-.3v-.1-.1h0-.2 0c-.5.1-.7-.2-.6-.7.1-.3-.1-.6-.1-.9v-.3-.4c0-.3-.2-.5-.3-.8-.1 0-.3-.1-.3-.3-.2-.1-.3-.3-.5-.3-.2-.2-.5-.3-.8-.4-.1 0-.3.1-.4-.1h-.2c-.1 0-.2.1-.3-.1h-.3 0c-.2 0-.3-.1-.4-.3-.1 0-.1-.1-.1-.2v-.1c-.1-.1-.2-.2-.2-.4V13c-.1 0-.1 0-.1-.1v-.2c-.1 0-.1 0-.1-.1s-.1-.3-.1-.4c-.1 0-.1-.1-.1-.2-.3-.3-.3-.8-.6-1l-.2-.2c-.3-.6-.8-.9-1.3-1.1-.3-.7-.4-.8-.5-.9h0-.1v-.1c-.1 0-.2 0-.2-.1-.4-.1-.7-.3-1.1-.2h-.5-.2-.2-.2v-.1h-.6c0 .1-.1.1-.2.1H32c0 .1 0 .1-.1.1-.2 0-.4.1-.6.1-1 .3-1.9.7-2.6 1.4-.3 0-.4.3-.6.5-.4.3-.7.7-1.1 1.1-.6.7-1.1 1.5-2 1.9-1.1.5-1.4 1.6-1.5 2.7v.2c-.2.2-.1.5-.1.7v.1c-.1.5-.4.9-.8 1.3-.2.2-.4.6-.3 1v.2.2c0 .5.2 1 .4 1.5.4 1.1 1.1 2.2.7 3.5 0 .1 0 .2.1.3l.6 1.4c.3.6.2.9-.4 1.2-.2.1-.3.2-.1.4.3.3.6.7 1.1.7.2.1.3.2.3.4 0 .3.1.5.2.7 0 .2 0 .3.1.4.1.2.2.5.5.6 0 .1.1.2.2.2.2.2.5.2.7.3h0c.2 0 .3.3.5.2.2.3.3.6.4.9v.4c-.1.3-.3.6-.6.8-.3.3-.7.6-.7 1.1-.1.1-.1.2-.1.3-.2.1-.1.2-.1.3-.1.1-.3.2-.4.3-.1 0-.1 0-.1.1h-.1c-.1 0-.1 0-.1.1-.4.2-.7.5-1.2.5-1 .2-1.9.6-2.4 1.5-.7 1.3-1.2 2.7-1.1 4.2.1.8-.1 1.5-.1 2.2 0 .1 0 .1-.1.1v.6.2h-.1c0 .3 0 .6-.1.8v.8c-.1 0-.1.1-.1.1v.1.5l-.1 2.2c-.2.4-.1.8.1 1.2v.3c-.1.1.1.2.1.3v.4c.3.9.4 1.3-.7 1.4-.1 0-.1 0-.2.1 0 .1 0 .1-.1.1-.3.2-.5.2-.8.2-.2.3-.5.3-.8.4l-.1.1c-.2 0-.4.2-.4.4s.2.2.3.3c.2.2.5.1.7.2.5-.1.9-.3 1.4-.2h.2c.1-.1.2-.1.3-.1.6 0 1.2-.2 1.7-.1.7.1 1.3.1 2-.1 0-.1 0-.1.1-.1h.1c0-.1 0-.1.1-.1s.1-.1.2-.1c0-.2.1-.3.2-.4v-.6c0-.1 0-.2.2-.2.5.1.8-.1 1.1-.4 1 .2 2.1.3 3.3.3 2.7 0 4.9-.5 5.9-1.3.4.4.9.7 1.5.5h0c0-.1 0-.1.1-.1h.3c.1-.2.2-.1.3-.1.3-.1.5-.3.8-.2 0-.1.1-.1.2-.1h.1c.1-.1.3-.2.4-.1.2 0 .5-.1.5.3-.1.1-.1.2 0 .3v-.1.1c0 .5 0 1-.1 1.5-.1.6-.4 1.3-.3 1.9h.2c.1-.1.2-.1.2-.2.1-.8.6-.5 1-.3l.6.3c.4.2.8.4 1.2.3 0-.1 0-.1.1-.1.1-.1.1-.1.2-.1 0-.1 0-.1.1-.1.4-.2.7-.4 1.1-.5.4-.2.7-.5.6-.9 0-.1 0-.2.1-.2 0-.2.1-.5.2-.6 0-.1 0-.1.1-.1.1-.1.1-.3.3-.4.4-.2.7-.6 1-.9 0-.2.1-.2.2-.3 0-.1.1-.2.1-.3 0-.2-.1-.4.1-.5 0-.1.1-.2.2-.3.5-.3.9-.7 1.4-1 .2-.5.3-.6 0-.8zm-29.7 6.2h-.8c.3-.3.5-.5.8-.1.1-.1.2 0 0 .1zm28.8-7.2c.2.2-.1.3-.3.5l-.9.9c-.1.1-.2.3-.5.2l1.1-1.3c.1-.2.3-.5.6-.3zM42.5 46c.1-.1.2-.1.3-.2h.1 0 0c.1 0 .2 0 .2-.1 0 .1 0 .2.2.3l1.4.3 1.5.3c.3.1.4.1.2.4l-1.3 1.5c-.1-.4.1-.7.2-.9.2-.5.1-.7-.4-.8l-1-.3c-.5-.2-1-.3-1.6-.2h0c.2-.1.2-.2.2-.3zm2.1 2.4c-.1.1-.1.2-.2.4s-.2.2-.4.1l-1.1-.8c0-.1-.1-.2-.1-.3 0 0 0-.1-.1-.1.1-.2.1-.5.2-.7v-.2c.2-.3.5-.2.8-.1 1.7.5 1.6.2.9 1.7zm-8.4-12.2l1.1.8c.3.2.2.6.2.9-.1.3-.1.6-.1.9-.1.5.2.7.7.7.4 0 .4.1.3.4-.1 1.1.1 1.1 1 .7.9-.5 1-.4 1.4.6.1.2.1.4-.1.5l-1.9 1.8h-.1c-.3-1.2-.9-2.2-1.3-3.3 0-.1 0-.2-.1-.2 0-.1-.1-.2-.1-.3 0-.3-.2-.4-.3-.6 0-.1-.1-.2-.1-.3-.2-.4-.3-.8-.5-1.2s-.2-.7-.2-1.1c-.2-.4-.1-.5.1-.3zm-.8.8c-.1.5-.3 1-.3 1.5 0 .1-.1.2-.2.2s-.1-.1-.2-.1l-1.2-1.3c.4 0 .7 0 1 .1s.4 0 .4-.3c0-.4.1-.8.1-1.3.5.3.5.7.4 1.2zm5.9-15.4c-.1.2 0 .3.1.4v.6.2h-.1v.3a1.44 1.44 0 0 1-.9 1.1h-.3c-.1 0-.1 0-.1-.1-.3-.4-.6-.6-1.1-.7h-1c-.3 0-.6 0-.9.1-.1.1-.3 0-.4 0-.1-.1-.1-.2-.1-.3 0-.9-.1-1.7-.7-2.3-.1-.1-.1-.2 0-.2 0-.1 0-.1.1-.2.2-.2.4-.5.7-.6.1 0 .1 0 .1-.1.1 0 .1 0 .1-.1.1 0 .2 0 .2-.1.2 0 .3-.1.4-.2.3 0 .5-.1.8-.1.4.1.9-.1 1.3.2.6.5 1.2 1 1.5 1.8.2.1.3.2.3.3zM36.4 9.5s0 .1-.1.2c0-.1.1-.2.1-.2zm-8.9 21c-.1-.1-.3-.3-.4-.5v-.1c0-.1 0-.2-.1-.2v-.5-.6c.1-.2.1-.4.2-.6l.3-.3a.76.76 0 0 1 .4-.2h.5c.1 0 .2.1.3.1 0 .1 0 .1.1.2.1 0 .2.1.3.2h0l.1.1s0 .1.1.1h.1c.2-.1.1-.2.1-.3s0-.2-.1-.2c0-.1.1-.3-.1-.4 0-.3-.1-.6-.2-.9v-.1-.1c0-.1 0-.2-.1-.4 0-.1-.1-.1-.1-.2v-.3s0-.1-.1-.1c0-.2-.1-.3-.1-.5v-.2c0-.1 0-.1-.1-.2v-.1c0-.1.1-.2-.1-.3 0-.1 0-.3-.1-.5v-.2-.1-.2-.1-.1c.1-.4.4-.7.6-1a.55.55 0 0 0 .3-.5c.1 0 .2 0 .2-.1.1-.2.1-.4.2-.5-.2-.2 0-.3-.1-.5v-.2h0v-.4-.3-.2c0-.4.1-.8.2-1.2.2-.3.6-.3.9-.4h.1c.1.2.3.2.5.2h.5s.1 0 .1-.1c.1 0 .2 0 .3-.1 0 0 .1 0 .1-.1l1.8-1.3h.2.1v-.1h.4s.1 0 .1-.1h.1a.96.96 0 0 0 .9-.2c.1 0 .2 0 .3-.1.3-.1.5-.2.7-.3l.3-.3.3-.3c.3 0 .4-.4.6-.5.4-.2.4.2.5.4l.6 1.8c.2.6.5 1.2 1 1.7l.3.3c.1.1.1.2.1.3h0c.1.2.1.5-.1.8-.2.4-.6.2-.9.2-.2-.4-.7-.3-1-.4-.5 0-1.1-.2-1.5.2h-.2c-.2.1-.3.1-.4.3-.1 0-.1.1-.2.1-.1.1-.2.1-.2.2l-.2.2c-.1.1-.2.2-.3.2h-.1-.1 0c-.2 0-.4-.1-.7-.3-.2-.1-.3-.1-.5-.2-.5-.2-1-.2-1.6-.2-.2-.1-.4-.1-.5 0-.4 0-.8.1-1.1.3-.5.1-.7.6-1.1.8h0c-.1 0-.1.1-.1.2h0c-.1.3-.3.6-.4 1-.2.7-.1 1.4-.1 2.1.1.1 0 .2 0 .3v.1h0c.2.2.2.6.6.6 0-.1-.1-.3-.1-.4-.3-.7-.4-1.5-.2-2.2.2-1.1.9-1.9 1.9-2.5.4-.1.7-.1 1.1-.1.5 0 1 .1 1.5.2.2 0 .4.1.6.1.6.5 1.2.9 1.3 1.8.2 1.2 0 2.5-.9 3.3-.3.3-.7.6-1.2.8-1.5.6-2.7.1-3.9-.8h0c-.2.2.1.3.2.4.6.6 1.4.8 2.3.9 1.2.1 2.2-.2 2.9-1.1.2-.2.3-.4.5-.7a1.72 1.72 0 0 1 .6-.6c.2-.1.5-.2.9-.2.6 0 1.2-.3 1.8-.1.5.1.6.5.6.9.1.4-.1.7-.5.9l-1.2.6c-.1.1-.3.1-.4.1.4.4.5 1 .9 1.5.2.2.5.4.8.4.5 0 .9.1 1.3.2.3.1.8 0 .9-.3.2-.4 0-.7-.4-.9-.5-.2-.9-.5-1.4-.7-.4-.1-.4-.2-.1-.5l.1-.1h0 0c.1 0 .1-.1.2-.1 0-.1.1-.1.1-.2 0 0 0-.1.1-.1 0 0 0-.1.1-.1.1-.2.1-.4 0-.6-.1-.3.2-.3.4-.3s.5-.2.6.2c0 .1 0 .1.1.2l.9 3.8c.2 1-.1 1.7-1 2.2-.8.4-1.6.6-2.5.7-.7 0-1.4.3-2.2.2h-.1c-.4 0-.8.1-1.2.1-.1 0-.2.1-.2.1-1.3.2-2.6.6-3.8 1.3.3.2.4.1.6 0l3.2-.9c.3-.1.6-.2.8.1s0 .7-.4.9c-.6.4-1 .9-1.2 1.6-.4 1.1-1.2 1.9-1.9 2.8l-.9 1.1c-.2.2-.3.2-.4-.1-.4-1-1.2-1.8-1.9-2.6-.4-.4-.8-.8-1-1.5 0-.1-.1-.3-.1-.4 0 0 0-.1-.1-.1v-.9c0-.1.1-.2-.1-.3v-.2c0-.6 0-1.2.5-1.8h.1c.2 0 .3-.1.4-.2h-.5c-.4-.1-.7-.2-.9-.4zM33 39c-.3.5-.7.9-1.2 1.2.2-.8.2-1.6.9-2.2.3-.2.3-.2.4.1s.1.6-.1.9zm-1.9 1.6h-.2c-.6-.5-1.1-1.1-1.2-2-.1-.2.2-.5.1-.8 0-.1 0-.1.1-.2.1 0 .2.1.3.2.3.4.4.8.6 1.2l.3 1.3c0 .2.1.3 0 .3zm-4.6-5.1c.3-.3.5-.8.6-1.2h.3c.1.1-.1.2-.1.4l-.1.1-.1.1v.1.1h0c-.1 0-.2.1-.2.2-.1.2-.2.4-.3.5h-.1c-.1-.1-.1-.2 0-.3zm.1 1.2c.5 0 1-.1 1.4-.4h.7c.3 0 .5.3.6.5s-.2.3-.3.5c-.1.1-.2.3-.3.4-.1.2-.3.3-.4.4-.2.1-.2.3-.3.4l-.3.3c-.1.1-.3.1-.1.3-.4.2-.5.1-.6-.3-.1-.7-.4-1.3-.6-2 .1 0 .2 0 .2-.1zm-.8-.4c.1.1.1.3.3.3-.2.7-.5-.1-.8 0 .1-.1.3-.2.5-.3zm-4.6 4.8c.2-1.1.5-2.2 1.2-3.1.3-.4.7-.6 1-.8.1 0 .2-.2.3-.1s0 .2-.1.3l-1.1 1.1c-.1.1-.2.2-.2.3-.2.3-.2.5.2.5a.9.9 0 0 1 .5.1c.4-.1.8-.2 1.2.1-.2.3-.4.6-.8.9-.2.1-.3.4-.3.6s.3.3.5.3.2.1.1.3c-.5.9-1.6 1.2-2.4.6-.3-.5-.1-.8-.1-1.1zm.9 12.9c-.8.3-1.6.5-2.4.7-.2 0-.4.1-.5.1-.3 0-.5 0-.6-.2-.2-.2-.2-.4.1-.5l3.2-.9c.2 0 .4-.1.5.2s0 .4-.3.6zm2.9-1.5s0 .1 0 0c-.3.3-.4 0-.6-.1 0 0-.1 0-.1-.1h0c-.2-.2-.3-.4-.5-.2s-.1.5 0 .8c.2.8 0 1.2-.5 1.4-.3-.7-.2-1.4-.3-2.2h-.2c-.1.2-.4.3-.6.5-.5.5-.5.4-.7-.2 0-.2-.2-.3-.1-.6-.2.1-.4.2-.4.5.1.2.1.4 0 .6-.4-.4-.4-.9-.6-1.4v-.3-.6l.3-3.5v-.3-.2-.3c.1 0 .1-.1.1-.2-.1-.9.2-1.8.2-2.8v-.1s0-.1.1-.1l.1-.1.1-.1v-.1c0-.2 0-.2.2-.2.3 0 .6-.1.8.1.7 0 1.4.3 2.1.2.1.2.3.1.5.1v.1c-.1.1.1.2.1.3s-.1.3-.1.4c-.2.5-.3 1-.3 1.5v.3c-.2.1-.1.3-.1.4v.2c-.1.2-.1.4 0 .5v1.1c-.1.2-.1.5 0 .7v.3c-.1.1-.1.3 0 .4v.2c.1.8.5 1.5.7 2.3.1.4 0 .6-.2.8zm14.2-1.9c-1 .8-2.2 1.1-3.5 1.3-.3 0-.3-.1-.2-.3l.8-1.8c-.6-.1-1.1 0-1.5.1h-.1c-.3.1-.4 0-.4-.3v-.2c0-.6.1-1.1-.1-1.7-.1-.2-.2-.4-.4-.1-.3.3-.6.7-.9 1-.4.4-.4.4-.8-.1-.4-.6-.7-1.2-1.2-1.7-.1-.1-.3-.3-.5-.2a.55.55 0 0 0-.3.5c0 .5-.1.9-.1 1.5v.3c-.2-.1-.4-.2-.5-.3a4.67 4.67 0 0 0-1-.5c-.1 0-.2 0-.2-.1-.1 0-.2 0-.4-.1h-.3c-.2 0-.4 0-.6.1 0 .2.2.4.3.7v.1.1c.2.3.4.6.4 1h0c-.1 0-.1.1-.2.1v.1h-.1s-.1 0-.1.1c-.4 0-.7.3-1.1.3-.8.5-1 .2-1.1-.7 0-.2 0-.5-.1-.7V49v-.8c.2-.1.2.1.4.1v.1h.1c.2.2.5.4.8.5h.1.1s.1-.1.2-.1V46c0-.1-.1-.4.1-.3s.5 0 .7.1l2.4.5c.3.3.6.2.9.2-.1-.1-.2-.2-.3-.2.2 0 .3.1.3.2h.2l.1-.1v-.2l-1.8-2.5h0 .3s.1 0 .1-.1c.2 0 .4-.1.5-.1h.2c.1 0 .1 0 .2-.1.1-.2-.1-.2-.2-.3 0-.1-.1-.1-.2-.1-.2-.2-.5-.4-.8-.5-.1-.1-.2-.1-.3-.1h-.2c-.1-.4-.6-.3-.6-.6.1 0 .2-.1.2-.1.3-.1.5-.2.7-.4v-.1h0c0-.4-.2-.7-.6-.9 0-.2-.2-.2-.3-.3-.2-.2-.4-.2-.4-.5.1-.1.1-.1.1-.2.2-.1.3-.3.4-.5.1-.1.2-.2.2-.3.1 0 .2-.1.2-.2.1-.1.1-.3.4-.3 0 .5-.1 1 .1 1.4.3 1 1.1 1.6 1.9 2.3.2.2.3 0 .4-.1.4-.6.9-1.1 1.4-1.6.4-.4.7-.9.6-1.5 0-.1 0-.2.1-.3s.2.1.3.2l.7 1c.3.5.7.4.9-.1.1-.2.2-.5.2-.8 0-.1-.1-.2.1-.3.2 0 .2.1.3.2.1.2.1.3.2.4h0c0 .2.1.3.2.4.1.2.2.5.3.7v.2c-.1.2-.3.5-.4.7l-.1.1c-.1.1-.2.2-.2.3l-1.4 1.2c-.1 0-.2 0-.2.1-.4.1-.7.4-1 .5-.2.1-.3.2-.1.4s.5.1.8.1c.2 0 .3.2.5.1l.1.1c-.1.1-.1.2-.2.2s-.1 0-.1.1c-.1 0-.1.1-.2.1s-.1 0-.1.1a11.94 11.94 0 0 0-1.6.8c-.1 0-.1 0-.1.1-.3 0-.3.2-.1.3.6.4 1.1.9 1.8 1 .2.2.5.2.7.2h.7c.4 0 .4.1.3.4-.3.5-.5 1-.8 1.6h1l2.1-.7c.1 0 .1 0 .1-.1h.1c.1-.1.3 0 .4-.2h.3v.1c0 .5.2 1 .3 1.5-.2.6.1 1.1-.3 1.4zm.2-3.1c0-.1 0-.2-.1-.3 0-.1.1-.3-.1-.3v-.4c0-.1 0-.1-.1-.1v-.1-.3c0-.1-.1-.3-.1-.4s0-.2-.1-.2v-.2c0-.1.1-.2-.1-.3V44c.4-.3.8-.6 1.2-1 .2-.2.3-.2.4.1.2.9.6 1.8.5 2.8 0 .6.4 1.1.6 1.6.2.2.5.3.6.6.1 0 .2 0 .2.1.1 0 .2.1.3.1v.1c.1 0 .3.1.4.1.3.2.4.4.1.6s-.6.3-1 .2l-1.1-.6c-.4-.2-.6-.3-.7.2-.1.2-.2.4-.3.5h-.1l-.1-.1c0-.2-.1-.3-.1-.5v-.1h-.1c.1-.4 0-.8-.2-1.2zm1.2 5.5c.1.1.3.2.4.3.1 0 .2.1.3.1.3 0 .4.1.2.4-.1.3-.3.6-.7.4s-.8-.4-1.1-.7v-1.6s0-.1.1-.1v-.2c.2-.3.5-.5.8-.8s.4-.1.4.2h0 0 0l.1.1.1.1v.1.1.1c0 .1-.2.1-.4.2-.1.1-.2.2-.4.2h0c.1.5.1.8.2 1.1zm-.5-2.8c0-.1.1-.2.1-.3.3-.2.4-.6.8-.7-.1.6-.4 1-.9 1zm1.1.1c0-.4.4-.8.8-.8s.6.3.6.7-.2.6-.9.6a.47.47 0 0 1-.5-.5zm.6 5c0 .2-.1.2-.2.1l-1.7-.9c-.2-.1-.3-.3-.2-.5s.3 0 .5.1l1 .6c.3.2.5.1.6-.2.1-.2.1-.4.4-.6-.1.5-.2.9-.4 1.4zm1.1-.7c0 .1 0 .3-.2.3-.1 0-.2-.1-.2-.3.1-.3.1-.6.4-.9.1.4.1.7 0 .9zm-1-1.4c-.3 0-.5-.1-.7-.4-.3-.4 0-.5.2-.5.5-.1.9.2 1.3.4.1 0 .3.1.4.3a3.73 3.73 0 0 1-1.2.2zm0-1.5c-.2-.3-.1-.5.1-.6.3-.1.6-.2.8.1.2 0 .4.1.4.3.1 0 .2 0 .2.1.4.1.6.4 1 .6-.8.5-1.9.2-2.5-.5zm3 .1c-.4 0-.8 0-1.1-.4a.78.78 0 0 1-.4-.4c-.1-.1-.1-.2-.2-.2-.1-.1-.1-.2-.1-.3s0-.3.1-.5c.2-.4.5-.6.8-.3l1.2 1.3c.2.4 0 .8-.3.8zm1.9-2.4l-1.1.9c-.1.1-.3.2-.5.1-.1-.2.1-.2.2-.3.3-.3.7-.6 1-1 .3-.3.5-.4.9-.3 0 .3-.3.4-.5.6z"/></g><path d="M25 52.5s0 .1 0 0c-.3.3-.4 0-.6-.1 0 0-.1 0-.1-.1h0c-.2-.2-.3-.4-.5-.2s-.1.5 0 .8c.2.8 0 1.2-.5 1.4-.3-.7-.2-1.4-.3-2.2h-.2c-.1.2-.4.3-.6.5-.5.5-.5.4-.7-.2 0-.2-.2-.3-.1-.6-.2.1-.4.2-.4.5.1.2.1.4 0 .6-.4-.4-.4-.9-.6-1.4v-.3-.6l.3-3.5v-.3-.2-.3c.1 0 .1-.1.1-.2-.1-.9.2-1.8.2-2.8v-.1s0-.1.1-.1l.1-.1.1-.1v-.1c0-.2 0-.2.2-.2.3 0 .6-.1.8.1.7 0 1.4.3 2.1.2.1.2.3.1.5.1v.1c-.1.1.1.2.1.3s-.1.3-.1.4c-.2.5-.3 1-.3 1.5v.3c-.2.1-.1.3-.1.4v.2c-.1.2-.1.4 0 .5v1.1c-.1.2-.1.5 0 .7v.3c-.1.1-.1.3 0 .4v.2c.1.8.5 1.5.7 2.3.1.4 0 .6-.2.8z" fill="#f9da0a"/><path d="M41.4 22c-.1-.1-.2-.2-.1-.4 0-.1-.2-.2-.1-.3-.3-.8-.9-1.3-1.5-1.8-.4-.3-.9-.2-1.3-.2-.3.1-.6.1-.8.1a.76.76 0 0 1-.4.2c0 .1-.1.1-.2.1 0 .1 0 .1-.1.1 0 .1 0 .1-.1.1-.3.2-.5.4-.7.6-.1.1-.1.1-.1.2v.2c.6.7.7 1.5.7 2.3 0 .2 0 .3.1.3.1.1.2.1.4 0 .3-.1.6-.1.9-.1h1c.4.1.8.3 1.1.7 0 .1 0 .1.1.1h.3c.5-.2.7-.6.9-1.1v-.3h.1v-.2c-.2-.2-.2-.4-.2-.6zm-1.1 1.1c-.1 0-.2 0-.2.1h-.2c-.5-.3-.6-.5-.1-.8h.4c.2.1.2.2.2.4-.1.1-.1.2-.1.3z" fill="#fff"/><path d="M40.4 22.9c-.1 0-.1.1-.1.2-.1 0-.2 0-.2.1h-.2c-.5-.3-.6-.5-.1-.8h.4c.1.2.2.3.2.5z" fill="#090807"/><path d="M36.2 22c-.1-.8-.8-1.3-1.3-1.8-.2 0-.4-.1-.6-.1-.5-.1-1-.2-1.5-.2-.4 0-.7 0-1.1.1-1 .5-1.7 1.3-1.9 2.5-.1.8-.1 1.5.2 2.2.1.1.1.2.1.4.1 0 .1 0 .1.1 1.2.9 2.4 1.4 3.9.8.5-.2.9-.4 1.2-.8.8-.8 1.1-2 .9-3.2zm-3.1 2.8c-.2 0-.4-.2-.4-.4 0-.3.2-.4.4-.4.1 0 .5-.1.4.3.2.4-.2.4-.4.5z" fill="#fff"/><path d="M33.1 24.8c-.2 0-.4-.2-.4-.4 0-.3.2-.4.4-.4.1 0 .5-.1.4.3.2.4-.2.4-.4.5z" fill="#090807"/><path d="M42.4 28.7l-.9-3.8c0-.1 0-.1-.1-.2-.1-.4-.4-.2-.6-.2s-.5.1-.4.3.1.4 0 .6c0 0 0 .1-.1.1 0 0 0 .1-.1.1 0 .1-.1.1-.1.2s-.1.1-.2.1h0l-.1.1c-.3.3-.3.4.1.5.5.2.9.5 1.4.7.4.2.6.5.4.9-.1.3-.6.4-.9.3-.4-.1-.9-.2-1.3-.2-.3 0-.6-.1-.8-.4-.4-.5-.5-1.1-.9-1.5.1 0 .3-.1.4-.1l1.2-.6c.4-.2.6-.5.5-.9s-.2-.8-.6-.9c-.6-.2-1.2 0-1.8.1-.3 0-.6.1-.9.2-.2.1-.4.3-.6.6a3.04 3.04 0 0 1-.5.7c-.7.9-1.7 1.2-2.9 1.1-.8-.1-1.6-.3-2.3-.9-.1-.1-.4-.2-.2-.4 0 0-.1.1-.1 0-.1-.1 0-.1 0-.1-.4 0-.4-.4-.6-.6-.2-.1-.1-.3-.1-.4h0c0-.7-.1-1.4.1-2.1.1-.3.3-.6.4-1h0c0-.1 0-.2.1-.2h0c.4-.2.6-.7 1.1-.8.3-.2.7-.3 1.1-.3a.45.45 0 0 1 .5 0c.5 0 1.1.1 1.6.2.2 0 .3.1.5.2.3.2.5.3.7.3h0 .1.1c.1 0 .2-.1.3-.2.1 0 .1-.1.2-.2s.2-.1.2-.2c.1 0 .1-.1.2-.1.1-.1.3-.2.4-.3h.2c.5-.3 1-.1 1.5-.2.4.1.8 0 1 .4.3 0 .7.2.9-.2.1-.3.2-.5.1-.8h0c0-.1-.1-.2-.1-.3l-.3-.3c-.5-.5-.8-1.1-1-1.7l-.6-1.8c-.1-.2-.1-.5-.5-.4-.2.1-.3.5-.6.5l-.3.3-.3.3c-.2.2-.4.3-.7.3-.1.2-.2.1-.3.1-.3.2-.6.2-.9.2h-.1c0 .1-.1.1-.1.1h-.4v.1h-.1-.2c-.7.3-1.2.9-1.8 1.3l-.1.1c0 .2-.2.1-.3.1 0 .1 0 .1-.1.1h-.5c-.2 0-.4 0-.5-.2h-.1c-.3.2-.7.1-.9.4-.1.4-.2.8-.2 1.2v.2.3.4h0v.2c.1.2-.2.4.1.5-.1.2-.1.3-.2.5 0 .1-.1.1-.2.1a.55.55 0 0 1-.3.5c-.2.3-.5.6-.6 1v.1.1.2.1.2c0 .2.1.3.1.5.2.1.1.2.1.3v.1c.1 0 .1.1.1.2v.2c0 .2.2.3.1.5 0 0 .1 0 .1.1v.3c0 .1.1.1.1.2s.1.2.1.4v.1.1c.1.3.2.6.2.9.2.1.1.3.1.4.1 0 .1.1.1.2-.1.1 0 .2-.1.3s-.1 0-.1 0 0-.1-.1-.1h-.1 0V28c-.1-.1-.2-.1-.3-.2 0 0-.1-.1-.1-.2-.1 0-.2-.1-.3-.1h-.5a.76.76 0 0 1-.4.2l-.3.3c-.1.2-.1.4-.2.6v.6.5c.1 0 .1.1.1.2v.1c.2.1.3.3.4.5.3.2.6.3.9.3h.5c-.1.1-.2.2-.4.2h-.1c-.5.5-.4 1.1-.5 1.8v.2c.1.1.1.2.1.3v.9s.1 0 .1.1.1.3.1.4c.2.6.6 1 1 1.5.8.8 1.5 1.5 1.9 2.6.1.2.2.3.4.1l.9-1.1c.7-.9 1.5-1.7 1.9-2.8.2-.7.6-1.2 1.2-1.6.3-.2.5-.5.4-.9-.2-.3-.5-.1-.8-.1l-3.1.9c-.2 0-.3.1-.6 0 1.3-.7 2.5-1.1 3.8-1.3 0-.2.1-.2.2-.1.4 0 .8-.1 1.2-.1h.1c.7 0 1.5-.2 2.2-.2.9-.1 1.7-.3 2.5-.7.9-.5 1.3-1.2 1-2.2zm-13.1-7h0 0 0zm-.4 7.5s-.1 0 0 0c-.1-.1-.2-.2-.2-.3-.2-.2-.4-.3-.6-.2-.3.1-.2.3-.2.5 0 .3.1.5.1.8 0 .1-.1.1-.2.1-.2-.3-.5-.5-.5-.9 0-.8.4-1.1 1.1-.9.1 0 .2.1.3.1.2.3.2.5.2.8zm8.7-.9c-.5.5-1.1.9-1.8 1.1l-2.2.6c-.4.1-.8 0-1.1-.2s-.4-.4-.3-.8a1.27 1.27 0 0 1 .7-.9c1-.5 2-1 3-1.3.2-.1.5-.1.8-.1h.3c.4.1.8.2.9.6.2.4 0 .8-.3 1z" fill="#f9da0a"/><path d="M35.4 31.9c-.1 0-.2.1-.2.1 0-.1.1-.2.2-.1zm2.2-3.6c-.5.5-1.1.9-1.8 1.1l-2.2.6c-.4.1-.8 0-1.1-.2s-.4-.4-.3-.8a1.27 1.27 0 0 1 .7-.9c1-.5 2-1 3-1.3.2-.1.5-.1.8-.1h.3c.4.1.8.2.9.6.2.4 0 .8-.3 1z" fill="#090807"/><defs ><path id="B" d="M47.4 48.7c-.1.3-.4.4-.6.6l-1.1.9c-.1.1-.3.2-.5.1-.1-.2.1-.2.2-.3.3-.3.7-.6 1-1 .3-.2.6-.4 1-.3z"/></defs></svg>