<svg xmlns="http://www.w3.org/2000/svg" width="250" height="250"><path fill="#fff" d="M0 0h250v250H0z"/><path fill="#faf9f9" d="M242.133 124.563c0 65.402-52.832 118.421-118.008 118.421-65.172 0-118.008-53.02-118.008-118.422S58.953 6.141 124.125 6.141c65.176 0 118.008 53.02 118.008 118.421zm0 0"/><path stroke="#d9d7d7" stroke-width="4" d="M157 142.001C157 179.002 127.003 209 90 209c-37.005 0-67-29.997-67-66.998C23 104.996 52.996 75 90 75c37.002 0 67 29.996 67 67.001zm0 0" transform="scale(.87413 .8772)"/><path fill="#fff" stroke="#d9d7d7" stroke-width="4" d="M261.002 142.001c0 37.001-29.999 66.998-67 66.998-37.006 0-67-29.997-67-66.998 0-37.005 29.994-67.001 67-67.001 37.001 0 67 29.996 67 67.001zm0 0" transform="scale(.87413 .8772)"/><path fill="#fff" d="M75.855 80.703 95.68 92.512l-19.825 11.82-19.816-11.82zm24.23 18.79v23.628l-20.214 12.031v-23.62zm-20.214 45.3 26.774-15.914v23.629L79.87 168.422zm-28.297-21.684V99.492l20.207 12.04v23.62zm0 33.27V132.75l20.207 12.043v23.617zm0 0"/><path fill="#343434" d="m169.715 76.238-.645 2.203v63.922l.645.649 29.57-17.54zm0 0"/><path fill="#8c8c8c" d="m169.715 76.242-29.567 49.23 29.567 17.54zm0 0"/><path fill="#3c3c3b" d="m169.715 148.629-.363.445v22.77l.363 1.07 29.586-41.812zm0 0"/><path fill="#8c8c8c" d="M169.715 172.91V148.63l-29.567-17.531zm0 0"/><path fill="#141414" d="m169.547 142.68 29.57-17.54-29.57-13.488zm0 0"/><path fill="#393939" d="m140.148 125.473 29.567 17.539v-31.024zm0 0"/></svg>