<?xml version="1.0" encoding="UTF-8"?><svg id="Layer_2" xmlns="http://www.w3.org/2000/svg" viewBox="0 0 1928 1928"><defs><style>.cls-1{fill:#fff;}.cls-2{fill:#db7200;}</style></defs><g id="Logos"><circle class="cls-1" cx="964" cy="964" r="964"/><g><polygon class="cls-2" points="407.15 1018.78 407.15 1318.77 667.15 1468.77 927.15 1318.77 927.15 1018.73 667.15 868.77 407.15 1018.78"/><polygon class="cls-2" points="1262.15 868.77 1002.15 1018.78 1002.15 1318.77 1262.15 1468.77 1522.15 1318.76 1522.15 1018.73 1262.15 868.77"/><polygon class="cls-2" points="1224.48 654.05 1094.56 578.79 1094.44 428.81 964.65 353.77 704.83 503.78 704.83 803.77 964.65 953.77 1224.48 803.77 1224.48 654.05"/><polygon class="cls-2" points="1224.48 654.05 1354.39 578.74 1354.39 428.77 1224.68 353.77 1094.44 428.81 1224.68 503.65 1224.48 654.05"/></g></g></svg>