<svg xmlns="http://www.w3.org/2000/svg" width="250" height="250"><linearGradient id="a" x1="67.119" x2="182.881" y1="24.746" y2="225.254" gradientUnits="userSpaceOnUse"><stop offset="0" stop-color="#0095d7"/><stop offset="1" stop-color="#0072aa"/></linearGradient><path fill="#fff" d="M249.512 125c0 68.766-55.746 124.512-124.512 124.512S.488 193.766.488 125 56.234.488 125 .488 249.512 56.234 249.512 125zm0 0"/><path fill="url(#a)" d="M240.746 125c0 63.926-51.82 115.746-115.746 115.746S9.254 188.926 9.254 125 61.074 9.254 125 9.254 240.746 61.074 240.746 125zm0 0"/><path fill="#fff" d="m184.758 164.234-16.117-9.277a1.451 1.451 0 0 0-1.125-.14c-.38.105-.7.359-.891.706a32.103 32.103 0 0 1-5.117 6.954 39.72 39.72 0 0 1-9.223 7.093 40.355 40.355 0 0 1-10.48 4.024 46.644 46.644 0 0 1-10.504 1.258 38.493 38.493 0 0 1-17.942-4.25 45.04 45.04 0 0 1-13.89-11.157 48.913 48.913 0 0 1-4.98-7.254l-1.895-3.363H133.5c.809 0 1.465-.656 1.465-1.465v-12.746c0-.808-.656-1.46-1.465-1.46H88.043l-.227-2.016a58.889 58.889 0 0 1-.363-6.536c0-1.832.098-3.75.293-5.714l.203-2.036H133.5c.809 0 1.465-.656 1.465-1.464v-12.743c0-.812-.656-1.464-1.465-1.464H92.156l1.754-3.317a48.758 48.758 0 0 1 4.278-6.719 42.195 42.195 0 0 1 13.515-11.515c5.442-2.969 11.89-4.477 19.176-4.477 3.46.016 6.906.403 10.285 1.153a41.335 41.335 0 0 1 10.156 3.703 36.573 36.573 0 0 1 14.434 13.894c.203.352.547.602.945.688a1.487 1.487 0 0 0 1.148-.223l14.965-10.309c.633-.437.825-1.289.43-1.953-4.433-7.457-10.773-13.699-18.836-18.554-9.133-5.493-20.144-8.301-32.719-8.301-10.667 0-20.296 2.012-28.62 5.976a66.68 66.68 0 0 0-34.544 37.637c-.046.121-.085.246-.125.367v.036c-.039.125-.082.253-.132.378l-.536 1.504H36.266c-.809 0-1.465.657-1.465 1.465v12.746c0 .809.656 1.465 1.465 1.465H64.28l-.16 2.406a68.978 68.978 0 0 0-.168 4.54c0 2.273.117 4.581.344 6.867l.242 2.484H36.266c-.809 0-1.465.656-1.465 1.465v12.746c0 .809.656 1.465 1.465 1.465H68.57l.57 1.426a75.327 75.327 0 0 0 13.544 22.14 70.473 70.473 0 0 0 21.027 16.18c8.031 4.082 17.039 6.152 26.766 6.152a72.192 72.192 0 0 0 17.062-2.137 70.29 70.29 0 0 0 16.371-6.199 60.3 60.3 0 0 0 13.672-9.922 40.806 40.806 0 0 0 7.73-10.254 1.466 1.466 0 0 0-.554-1.953zm0 0"/></svg>