<svg xmlns="http://www.w3.org/2000/svg" width="250" height="250"><path fill="#5591f1" d="M250 125c0 69.035-55.965 125-125 125S0 194.035 0 125 55.965 0 125 0s125 55.965 125 125zm0 0"/><g fill="#fff"><path d="M187.883 86.387h-83.531c-10.446 0-18.915-8.469-18.915-18.914 0-10.446 8.47-18.914 18.915-18.914h83.53c10.446 0 18.915 8.468 18.915 18.914 0 10.445-8.469 18.914-18.914 18.914zM150.05 201.441H84.224c-26.25 0-47.61-21.355-47.61-47.605s21.36-47.61 47.61-47.61h84.742c10.45 0 18.914 8.47 18.914 18.915s-8.465 18.914-18.914 18.914H84.223c-5.301 0-9.782 4.48-9.782 9.78 0 5.302 4.48 9.778 9.782 9.778h65.828c10.445 0 18.914 8.469 18.914 18.914 0 10.446-8.469 18.914-18.914 18.914"/></g></svg>