<svg xmlns="http://www.w3.org/2000/svg" width="250" height="250"><path fill="#a566ff" d="M249.988 124.992c0 69.035-55.96 124.996-124.996 124.996C55.961 249.988 0 194.028 0 124.992 0 55.961 55.96 0 124.992 0c69.035 0 124.996 55.96 124.996 124.992zm0 0"/><g fill="#fff"><path d="M119.195 186.477a40.55 40.55 0 0 1-23.34 7.574c-14.394 0-27.765-7.914-37.644-22.242-8.637-12.563-13.7-28.786-14.39-46.239a1.548 1.548 0 0 1 .902-1.465l9.785-4.398a1.516 1.516 0 0 1 1.453.11c.434.277.695.761.695 1.277 0 16.472 4.344 31.86 12.246 43.363 7.391 10.742 17.008 16.668 26.993 16.668a27.674 27.674 0 0 0 15.203-4.762 1.528 1.528 0 0 1 2.066.364 67.887 67.887 0 0 0 6.281 7.433 1.513 1.513 0 0 1-.25 2.316zM191.684 171.781c-9.868 14.395-23.239 22.246-37.645 22.246s-27.777-7.918-37.656-22.246c-9.367-13.633-14.524-31.625-14.524-50.687 0-17.598 10.141-31.403 23.094-31.403s23.082 13.793 23.082 31.403a93.285 93.285 0 0 1-10.586 44.226 1.544 1.544 0 0 1-2.512.285 45.88 45.88 0 0 1-3.324-4.289 54.356 54.356 0 0 1-3.23-5.351 1.535 1.535 0 0 1 0-1.309 82.699 82.699 0 0 0 6.765-33.523c0-8.715-4.343-18.461-10.156-18.461-5.808 0-10.164 9.746-10.164 18.46 0 16.473 4.356 31.86 12.258 43.364 7.394 10.742 17.012 16.668 26.992 16.668 9.984 0 19.629-5.926 26.996-16.668 7.848-11.504 12.258-26.89 12.258-43.363s-4.355-31.86-12.258-43.348a46.717 46.717 0 0 0-7.984-9.027 1.534 1.534 0 0 1-.567-1.414c.075-.54.43-.996.934-1.203l9.723-4.356a1.517 1.517 0 0 1 1.715.313 62.146 62.146 0 0 1 6.816 8.32c9.367 13.621 14.535 31.625 14.535 50.676s-5.195 37.054-14.562 50.687zm0 0"/></g></svg>