<svg xmlns="http://www.w3.org/2000/svg" width="250" height="250"><g fill="#202943"><path d="M.098 0h30.265v30.227H.098zM75.766 0h30.27v30.227h-30.27zM151.434 0h30.27v30.227h-30.27zM.098 75.664h30.265v30.227H.098zM75.766 75.664h30.27v30.227h-30.27zM.098 151.52h30.265v30.226H.098zM249.902 15.21c0 4.2-3.343 7.606-7.468 7.606s-7.47-3.406-7.47-7.605c0-4.2 3.345-7.606 7.47-7.606s7.468 3.407 7.468 7.606zM249.902 90.875c0 4.2-3.343 7.605-7.468 7.605s-7.47-3.406-7.47-7.605c0-4.203 3.345-7.605 7.47-7.605s7.468 3.402 7.468 7.605zM249.902 166.535c0 4.203-3.343 7.606-7.468 7.606s-7.47-3.403-7.47-7.606c0-4.2 3.345-7.605 7.47-7.605s7.468 3.406 7.468 7.605zM249.902 242.395c0 4.199-3.343 7.605-7.468 7.605s-7.47-3.406-7.47-7.605 3.345-7.606 7.47-7.606 7.468 3.406 7.468 7.606zM174.04 90.875c0 4.2-3.345 7.605-7.47 7.605s-7.468-3.406-7.468-7.605c0-4.203 3.343-7.605 7.468-7.605s7.47 3.402 7.47 7.605zM174.04 166.535c0 4.203-3.345 7.606-7.47 7.606s-7.468-3.403-7.468-7.606c0-4.2 3.343-7.605 7.468-7.605s7.47 3.406 7.47 7.605zM174.04 242.395c0 4.199-3.345 7.605-7.47 7.605s-7.468-3.406-7.468-7.605 3.343-7.606 7.468-7.606 7.47 3.406 7.47 7.606zM98.367 166.535c0 4.203-3.344 7.606-7.469 7.606s-7.468-3.403-7.468-7.606c0-4.2 3.343-7.605 7.468-7.605s7.47 3.406 7.47 7.605zM98.367 242.395c0 4.199-3.344 7.605-7.469 7.605s-7.468-3.406-7.468-7.605 3.343-7.606 7.468-7.606 7.47 3.406 7.47 7.606zM22.7 242.395c0 4.199-3.345 7.605-7.47 7.605s-7.468-3.406-7.468-7.605 3.343-7.606 7.468-7.606 7.47 3.406 7.47 7.606zm0 0"/></g></svg>