<svg xmlns="http://www.w3.org/2000/svg" width="250" height="250"><clipPath id="a"><path d="M105 96h126.906v62.055H105zm0 0"/></clipPath><clipPath id="b"><path d="M23.438 93.75H102V151H23.437zm0 0"/></clipPath><path fill="#b40329" d="M0 0h250v250H0z"/><g clip-path="url(#a)"><path fill="#fff" d="M166.457 139.594c-1.43-.399-2.809-.809-4.2-1.133-.288-.063-.741.11-.98.324-3.175 2.906-6.363 5.805-9.996 8.176-4.125 2.68-8.433 4.996-13.11 6.57-3.058 1.031-6.214 1.227-9.28.043-2.168-.832-3.868-2.242-4.461-4.61-.38-1.487-.012-2.94.441-4.362.602-1.895 1.649-3.543 2.8-5.137a1698.1 1698.1 0 0 1 5.462-7.5c-5.344-.84-7.348-4.113-6.828-9.39-.711 1.312-1.336 2.519-1.993 3.695-2.996 5.351-5.234 11.039-7.304 16.793-.957 2.667-1.906 5.34-2.778 8.042-.69 2.133-2.394 3.383-4.527 3.192-2.637-.25-4.242-1.684-4.328-4.106-.098-2.605-.012-5.214-.012-7.82 0-6.797.024-13.594-.011-20.39-.02-4.45-.118-8.895-.172-13.344-.02-1.606-.043-3.2-.063-4.805v-.863c1.723.195 3.39.207 4.977.594 2.187.527 3.433 2.476 3.426 4.976-.036 6.957-.079 13.926-.11 20.887 0 .246 0 .504.117.773.54-1.129 1.078-2.262 1.63-3.39 3.671-7.477 8.046-14.555 12.527-21.567 1.195-1.875 2.851-3.476 4.414-5.082 1.402-1.422 4.117-1.195 5.527.3 1.508 1.606 1.477 3.75-.129 5.31-2.996 2.91-5.43 6.238-7.445 9.89-.074.149-.16.29-.227.442-.008.03.012.085.035.16 1.012-1.219 1.98-2.446 3.024-3.61 3.34-3.691 6.668-7.41 10.527-10.574 2.778-2.285 5.793-4.148 9.317-5.086a8.617 8.617 0 0 1 4.125-.097c2.617.57 4.253 2.23 5.007 4.718.7 2.336-1.195 4.278-3.574 3.64-.8-.214-1.512-.765-2.273-1.12a1.092 1.092 0 0 0-.692-.074c-2.273.636-4.199 1.918-6.086 3.296-5.449 3.985-10.047 8.778-13.765 14.41-.656 1.005-1.098 2.145-1.637 3.223.066.086.129.172.207.258 1.031-.183 2.086-.3 3.11-.55 1.812-.43 3.449-1.25 4.956-2.348a554.13 554.13 0 0 1 8.122-5.805c1.226-.863 2.562-1.637 4.113-1.39 1.305.214 2.64.57 3.805 1.163.484.246.699 1.258.828 1.961.332 1.785-.29 3.274-1.797 4.297-3.008 2.047-5.938 4.2-9.211 5.828-2.38 1.184-4.363 2.918-6.13 4.91-2.94 3.317-5.773 6.723-7.917 10.622-.559 1.011-.969 2.101-1.453 3.156.055.074.117.16.172.238 1.207-.324 2.457-.55 3.62-.98 5.028-1.856 9.552-4.614 13.786-7.864 3.953-3.039 7.809-6.172 11.73-9.254.422-.332.743-.925 1.454-.73.992.266 1.93.613 2.433 1.602.098.195.176.39.313.71.636-.14 1.328-.246 1.949-.472.207-.074.336-.485.398-.766.649-2.96 1.274-5.922 1.91-8.887.56-2.582 1.118-5.18 1.668-7.765.055-.246.098-.496.153-.817-1.39.301-2.707.301-3.996-.152-1.004-.344-1.801-.95-2.48-1.754-.442-.527-.462-1.058-.313-1.66.336-1.348 1.195-2.262 2.414-2.867a541.545 541.545 0 0 1 5.676-2.754c.41-.195.668-.441.832-.895.59-1.703 2.097-2.359 3.734-1.585 1.059.496 2.113.519 3.223.41 5.297-.528 10.523-.325 15.554 1.648 1.11.43 2.196.95 3.243 1.52 3.574 1.937 4.91 5.418 3.585 9.25-.765 2.23-2.046 4.148-3.566 5.925-3.629 4.246-7.539 8.2-12.484 10.891-2.672 1.453-5.578 2.488-8.38 3.703-.195.09-.378.164-.57.39.915.063 1.82.15 2.735.192 5.074.238 10.137.485 15.21.692 2.626.105 5.266.171 7.895.203 5.438.066 10.88.129 16.317.129 1.746 0 3.492-.141 5.238-.278 1.992-.164 3.691.399 5.05 1.883 1.055 1.152 1.239 2.512.68 3.941-.539 1.372-1.543 2.2-3.062 2.176-1.766-.008-3.52-.105-5.29-.172-1.937-.062-3.874-.171-5.816-.203-3.734-.054-7.472 0-11.21-.097-6.504-.184-13.024-.387-19.52-.723-4.059-.203-8.11-.633-12.16-1.012-.516-.043-.7.098-.754.563-.277 2.39-.633 4.781-.84 7.183-.16 1.918-.203 3.856-.184 5.782.036 2.867-1.808 3.836-4.437 3.554-1.969-.215-3.102-1.258-3.188-3.25-.097-2.187.043-4.394.258-6.57.258-2.707.703-5.398 1.055-8.102a1.845 1.845 0 0 1-.043-.472zm9.89-11.406c.356-.122.626-.196.895-.305.485-.203.969-.406 1.43-.645 4.578-2.39 8.672-5.43 12.25-9.156 2.078-2.164 4.047-4.394 5.332-7.152.43-.926.43-.926-.488-1.258-4.696-1.758-9.5-2.027-14.399-1.035-.453.086-.582.324-.668.687-1.41 6.067-2.832 12.117-4.254 18.184-.054.203-.066.41-.097.68zm0 0"/></g><g clip-path="url(#b)"><path fill="#fff" d="M51.938 118.512c1.66-.504 3.18-1 4.707-1.43 3.125-.887 6.257-1.727 9.394-2.574.41-.11.852-.207 1.27-.195 1.09.03 1.832-.508 2.53-1.27 2.563-2.844 5.063-5.754 8.024-8.211 3.137-2.594 6.496-4.812 10.301-6.3 2.52-.981 5.879.906 6.344 3.546.258 1.496-.582 2.883-2.125 3.39-7.723 2.532-13.031 8.048-17.77 14.282-.043.055-.043.133-.11.348.282-.196.474-.313.65-.442 3.812-2.922 7.956-5.312 12.234-7.465 1.863-.937 3.867-1.238 5.925-.648 1.68.484 2.747 1.637 3.188 3.297.398 1.531-.324 2.703-1.52 3.597-1.539 1.141-3.082 2.274-4.675 3.34-3.801 2.543-7.907 4.438-12.235 5.914-.894.301-1.746.895-2.468 1.52-3.52 3.101-6.622 6.57-8.895 10.715-.227.422-.434.851-.648 1.281-.098.215-.184.441-.364.895 1.215-.332 2.348-.473 3.317-.946 2.531-1.242 5.05-2.523 7.472-3.953 6.594-3.902 13.133-7.875 19.68-11.851 2.047-1.239 3.406-1.067 4.977.746.293.332.324.613.152 1.023-.992 2.41-2.648 4.297-4.61 5.953-4.699 3.977-9.953 7.133-15.187 10.32-3.652 2.231-7.465 4.083-11.59 5.235-3.008.84-5.914.7-8.683-.852-3.114-1.742-4.328-4.77-3.274-8.175.797-2.551 2.348-4.696 3.985-6.75 1.68-2.114 3.492-4.13 5.234-6.184-.504-.66-1.129-1.293-1.559-2.047-.433-.754-.66-1.617-1.004-2.512-1.496.52-3.058 1.079-4.632 1.618-3.391 1.152-6.774 2.316-10.176 3.437-.973.32-1.555.871-1.918 1.84-2.274 6-4.59 11.988-6.895 17.976-.14.356-.3.7-.496 1.036-1.281 2.23-4.437 2.757-6.398 1.066-1.13-.98-1.387-2.285-.73-3.996 1.624-4.29 3.261-8.563 4.89-12.84.148-.398.3-.809.492-1.336-1.226.387-2.367.778-3.52 1.11-1.324.386-2.652.851-4.007 1.078-1.961.343-3.715-.301-4.977-1.864-.508-.636-.808-1.52-.937-2.336-.149-.949.465-1.671 1.324-2.003 1.324-.528 2.703-.961 4.063-1.391 3.5-1.133 7-2.242 10.511-3.352.594-.183 1.024-.515 1.239-1.086 1.164-3.027 2.316-6.066 3.468-9.101.012-.031-.011-.086-.031-.215-1.434.473-2.855.938-4.266 1.422-1.949.656-3.91 1.27-5.816 2.012-1.887.734-3.727 1.593-5.582 2.414-2.25 1-4.856.238-6.18-1.832-1.023-1.594-.722-3.286.938-4.18a37.61 37.61 0 0 1 5.148-2.324c4.426-1.594 8.895-3.059 13.332-4.633 1.961-.692 3.88-1.488 5.785-2.305.41-.172.735-.656.98-1.066.325-.551.552-1.164.786-1.766.14-.379.355-.527.754-.433 1.11.27 2.219.574 3.351.746.54.086 1.141.007 1.668-.153 5.485-1.68 10.922-3.48 16.438-5.062 1.95-.559 4.05-.68 6.086-.852 1.281-.105 2.371.551 3.168 1.551 1.164 1.445.582 3.45-1.262 4.148-1.312.508-2.691.82-4.027 1.282-6.098 2.09-12.192 4.199-18.29 6.312-.066.02-.14.055-.206.055-1.957.215-2.778 1.57-3.414 3.23-1.024 2.715-2.164 5.364-3.328 8.196zm0 0"/></g></svg>