<svg xmlns="http://www.w3.org/2000/svg" width="250" height="250"><path fill="#f4a427" d="M221.059 187.953c-2.653 33.14-40.29 61.238-96.528 59.734-53.05-1.539-90.183-24.496-92.836-57.738a63.542 63.542 0 0 1 .438-12.808c1.816-12.797 6.015-25.098 12.355-36.22l3.961 1.892a171.873 171.873 0 0 1 32.133-9.45 192.421 192.421 0 0 1 43.645-1.433c14.558-1.18 29.191-.7 43.648 1.433a171.978 171.978 0 0 1 32.332 9.45l3.965-1.891 2.785-1.328c6.398 11.254 10.844 23.597 13.129 36.46.648 3.93.84 7.923.57 11.9"/><path fill="#fff" d="M221.059 187.953c-2.653 33.14-39.754 59.77-96.528 59.734-53.05-1.539-90.183-24.496-92.836-57.738a63.542 63.542 0 0 1 .438-12.808 43.82 43.82 0 0 1 17.156-.453c10.809 1.816 16.785 8.71 24.375 12.28 4.43 2.134 8.797-1.363 12.824-5.144 10.7-10.957 25.024-17.219 40.024-17.496 15.207-.21 27.394 6.02 40.726 18.688 2.653 2.812 6.285 4.39 10.07 4.37 3.52-.984 6.758-2.847 9.438-5.421 9.93-6.961 22.004-9.797 33.844-7.945.648 3.93.84 7.921.57 11.898"/><path fill="#f79422" d="M65.168 106.313c-3.688 3.828-8.348 6.488-13.43 7.664l-1.98.386a34.275 34.275 0 0 1-6.278 1.117 9.095 9.095 0 0 1-1.343-.171 19.665 19.665 0 0 1-3.36-1.227 46.796 46.796 0 0 1-10.07-6.613 88.397 88.397 0 0 1-16.285-18.164C-6.012 61.508-.461 23.547 25.082 2.73a3.442 3.442 0 0 1 4.14-.261c1.294.847 1.923 2.46 1.567 4.008-2.484 11.164-4.398 28.66 5.606 43.707 8.562 12.773 26.859 25.02 37.875 24.773 2.484 14-1.243 23.379-9.102 31.496"/><path fill="none" stroke="#221f1f" stroke-linejoin="round" d="M19.41 30.34a8.182 8.182 0 0 1-4 2.19l-.59.11a10.6 10.6 0 0 1-1.87.32 2.818 2.818 0 0 1-.4-.05 6.018 6.018 0 0 1-1-.35 14.006 14.006 0 0 1-3-1.89 25.649 25.649 0 0 1-4.85-5.19C-1.79 17.536-.137 6.688 7.47.74a1.06 1.06 0 0 1 1.7 1.07C8.43 5 7.86 10 10.84 14.3c2.55 3.65 8 7.15 11.28 7.08.74 4.02-.37 6.68-2.71 8.96zm0 0" transform="matrix(3.3575 0 0 3.49937 0 .142)"/><path fill="#5a595c" d="m113.383 57.777-4.297 44.934h-.27c-6.714.906-15.71 2.344-28.136 4.406-11.516 1.89-26.86 10.043-35.89 15.574l-1.345-7.07a34.054 34.054 0 0 0 6.282-1.121l1.98-.383c5.082-1.18 9.738-3.836 13.43-7.664 7.855-7.976 11.582-17.285 9.097-31.496l1.243.422A51.12 51.12 0 0 1 89.613 64.39c7.328-4.051 15.446-6.313 23.735-6.614"/><path fill="none" stroke="#221f1f" stroke-linejoin="round" d="m33.77 16.47-1.28 12.84h-.08c-2 .26-4.68.67-8.38 1.26-3.43.54-8 2.87-10.69 4.45l-.4-2.02a10.53 10.53 0 0 0 1.87-.32l.59-.11a8.196 8.196 0 0 0 4-2.19c2.34-2.28 3.45-4.94 2.71-9l.37.12a15.16 15.16 0 0 1 4.21-3.14 16.277 16.277 0 0 1 7.08-1.89zm0 0" transform="matrix(3.3575 0 0 3.49937 0 .142)"/><path fill="#929497" d="m211.523 138.262-2.82 1.332-2.754 1.328-3.996 1.89a171.978 171.978 0 0 0-32.332-9.449 212.459 212.459 0 0 0-43.648-4.058 212.51 212.51 0 0 0-43.649 4.058 171.398 171.398 0 0 0-32.332 9.45c-1.344-.63-2.652-1.297-3.996-1.891l-5.57-2.66c.168-4.899 0-7.594 0-12.492 1.14-.77 2.582-1.75 4.297-2.766.132-.113.277-.207.437-.277 8.559-5.532 24.004-13.684 35.422-15.575 12.422-2.062 21.285-3.5 28.133-4.41 4.367-.277 8.965-.488 13.734-.523 6.985 0 13.43 0 19.809.492 6.883.906 15.812 2.344 28.402 4.441 11.653 1.891 27.23 10.22 36.164 15.746l.336.176a93.013 93.013 0 0 1 4.13 2.696c0 4.898-.169 7.593 0 12.492"/><path fill="none" stroke="#221f1f" stroke-linecap="round" stroke-linejoin="round" d="m63 39.47-.84.38-.82.38-1.19.54a52.878 52.878 0 0 0-9.63-2.7 78.155 78.155 0 0 0-13-1.06 78.766 78.766 0 0 0-13 1.06 52.7 52.7 0 0 0-9.63 2.7c-.4-.18-.79-.37-1.19-.54l-1.66-.76c.05-1.4 0-2.17 0-3.57.34-.22.77-.5 1.28-.79a.53.53 0 0 1 .13-.08C16 33.45 20.6 31.12 24 30.58c3.7-.59 6.34-1 8.38-1.26 1.3-.08 2.67-.14 4.09-.15 2.08 0 4 0 5.9.14 2.05.26 4.71.67 8.46 1.27 3.47.54 8.11 2.92 10.77 4.5l.1.05c.49.29.9.55 1.23.77.07 1.4-.02 2.17.07 3.57zm0 0" transform="matrix(3.3575 0 0 3.49937 0 .142)"/><path fill="#929497" stroke="#221f1f" stroke-linecap="round" stroke-linejoin="round" d="M42.4 29.31c-1.85-.11-3.82-.17-5.9-.14-1.42 0-2.79.07-4.09.15h.08l1.28-12.84.27-2.6a6.934 6.934 0 0 1 3.32-.88h.16a6.929 6.929 0 0 1 3.33.88l.26 2.56v.07zm0 0" transform="matrix(3.3575 0 0 3.49937 0 .142)"/><path fill="none" stroke="#221f1f" stroke-linecap="round" stroke-linejoin="round" d="M65.86 53.79C65.07 63.26 53 70.86 37.11 70.86c-15.8-.44-26.85-7-27.64-16.5a16.81 16.81 0 0 1 .13-3.66 28.577 28.577 0 0 1 3.67-10.35l1.19.54a52.875 52.875 0 0 1 9.63-2.7 77.25 77.25 0 0 1 13-1.17c4.361-.032 8.715.36 13 1.17a52.62 52.62 0 0 1 9.63 2.7l1.28-.54.82-.38a32.1 32.1 0 0 1 3.92 10.42c.177 1.124.218 2.266.12 3.4zm0 0" transform="matrix(3.3575 0 0 3.49937 0 .142)"/><path fill="#f79422" d="M237.477 89.305a89.422 89.422 0 0 1-16.317 18.164 46.725 46.725 0 0 1-10.074 6.613l-1.711.734-1.074.352c-2.387.7-3.594 0-8.094-.805l-1.98-.386c-5.079-1.184-9.735-3.84-13.43-7.665-7.856-7.976-11.582-17.285-9.067-31.492 10.88.243 29.278-12.004 37.84-24.777 10.075-14.906 8.024-32.402 5.64-43.566-.374-1.563.255-3.196 1.563-4.051a3.45 3.45 0 0 1 4.18.304c25.496 20.856 30.996 58.797 12.559 86.575"/><path fill="none" stroke="#221f1f" stroke-linejoin="round" d="M70.73 25.48a25.95 25.95 0 0 1-4.86 5.19 13.985 13.985 0 0 1-3 1.89l-.51.21-.32.1c-.71.2-1.07 0-2.41-.23l-.59-.11a8.225 8.225 0 0 1-4-2.19c-2.34-2.28-3.45-4.94-2.7-9 3.24.07 8.72-3.43 11.27-7.08C66.61 10 66 5 65.29 1.81A1.061 1.061 0 0 1 67 .74c7.59 5.963 9.225 16.804 3.73 24.74zm0 0" transform="matrix(3.3575 0 0 3.49937 0 .142)"/><path fill="#5a595c" d="m208.367 115.168-1.445 7.73c-8.93-5.527-24.508-13.996-36.16-15.746-12.59-2.097-21.52-3.5-28.403-4.441l-4.332-44.828c7.813.43 15.434 2.652 22.328 6.508a50.596 50.596 0 0 1 14.235 10.988l1.277-.422c-2.52 14 1.207 23.379 9.063 31.496 3.695 3.82 8.351 6.48 13.433 7.664.301 0 1.676.7 1.98.77a14.31 14.31 0 0 0 8.09.422"/><path fill="none" stroke="#221f1f" stroke-linejoin="round" d="m62.06 32.87-.43 2.21c-2.66-1.58-7.3-4-10.77-4.5-3.75-.6-6.41-1-8.46-1.27L41.11 16.5c2.327.123 4.597.758 6.65 1.86A15.01 15.01 0 0 1 52 21.5l.38-.12c-.75 4 .36 6.68 2.7 9a8.232 8.232 0 0 0 4 2.19l.59.11c1.33.22 1.68.39 2.39.19zM41.11 16.5h-.42" transform="matrix(3.3575 0 0 3.49937 0 .142)"/><path fill="#f79422" stroke="#221f1f" stroke-miterlimit="10" d="M62.15 32.38a1.919 1.919 0 0 1-.54 2.85M12.82 32.38a1.918 1.918 0 0 0 .55 2.85" transform="matrix(3.3575 0 0 3.49937 0 .142)"/><path fill="none" stroke="#171717" stroke-linecap="round" stroke-linejoin="round" d="M33.75 57.57a3.303 3.303 0 0 0 2.15-.26 2.729 2.729 0 0 0 1.74-2.7 2.601 2.601 0 0 0 1.74 2.7 3.279 3.279 0 0 0 2.14.26" transform="matrix(3.3575 0 0 3.49937 0 .142)"/><path fill="#171717" d="M139.402 179.45c0 4.058-6.074 9.835-13.43 9.835-7.35 0-13.429-5.531-13.429-9.625s6.078-5.492 13.43-5.492c7.355 0 13.43 1.187 13.43 5.281"/><path fill="#fff" d="M131.582 177.875c0 .945-2.586 2.273-5.742 2.273s-5.707-1.293-5.707-2.238c0-.945 2.55-.77 5.707-.77s5.742-.245 5.742.735"/><path fill="none" stroke="#171717" stroke-linecap="round" stroke-linejoin="round" d="M31.28 54.63a2.71 2.71 0 0 0 2.21 2.89h.26M37.63 53.24v1.37M41.52 57.57h.27A2.71 2.71 0 0 0 44 54.63" transform="matrix(3.3575 0 0 3.49937 0 .142)"/><path fill="none" stroke="#221f1f" stroke-linejoin="round" d="M67 .74c7.594 5.96 9.232 16.802 3.74 24.74M19.41 30.34a8.182 8.182 0 0 1-4 2.19l-.59.11a10.6 10.6 0 0 1-1.87.32 2.818 2.818 0 0 1-.4-.05 6.018 6.018 0 0 1-1-.35 14.006 14.006 0 0 1-3-1.89 25.649 25.649 0 0 1-4.85-5.19C-1.79 17.536-.137 6.688 7.47.74a1.06 1.06 0 0 1 1.7 1.07C8.43 5 7.86 10 10.84 14.3c2.55 3.65 8 7.15 11.28 7.08.74 4.02-.37 6.68-2.71 8.96zm0 0" transform="matrix(3.3575 0 0 3.49937 0 .142)"/><path fill="#221f1f" d="M101.496 156.598c0 7.629-4.297 13.789-9.601 13.789-5.305 0-9.57-6.16-9.57-13.79 0-6.683 3.359-12.28 7.69-13.538l10.712 8.464c.484 1.649.742 3.356.77 5.075zm0 0"/><path fill="#fff" d="M97.938 154.781c0 2.692-1.512 4.934-3.356 4.934-1.848 0-3.36-2.242-3.36-4.934 0-2.695 1.548-4.969 3.36-4.969s3.356 2.239 3.356 4.97"/><path fill="#221f1f" d="M89.781 166.922a76.957 76.957 0 0 0-10.074 10.5 30.453 30.453 0 0 0-3.66 6.121 27.908 27.908 0 0 0-2.082 7c-.2 1.191-.367 2.45-.504 3.676l-.168 1.886v1.891a72.413 72.413 0 0 0 0 7.594c.195 2.55.543 5.09 1.043 7.594.234 1.261.504 2.52.84 3.746.304 1.199.707 2.37 1.207 3.5a23.649 23.649 0 0 1-1.61-3.5c-.472-1.192-.875-2.414-1.277-3.5a71.116 71.116 0 0 1-1.879-7.594 74.93 74.93 0 0 1-1.008-7.805l-.101-1.926v-1.992a38.817 38.817 0 0 1 .168-3.988c.203-2.75.754-5.457 1.644-8.05a35.052 35.052 0 0 1 3.528-7.348 84.825 84.825 0 0 1 9.77-12.387 2.964 2.964 0 0 1 4.206.027c1.172 1.172 1.258 3.102.192 4.38l-.204.21zm0 0"/><path fill="#221f1f" d="M87.563 165.906c-.231.051-.473.051-.704 0h-1.175l-1.543-.347a19.14 19.14 0 0 0-3.125-.387 19.892 19.892 0 0 0-6.278.562c-1.039.266-2.05.641-3.023 1.118-3.05 1.484-5.633 3.835-7.453 6.789a20.628 20.628 0 0 1 3.629-6.227 18.27 18.27 0 0 1 5.738-4.621 23.436 23.436 0 0 1 6.953-2.8 33.98 33.98 0 0 1 3.727-.419h3.253s.305 0 0 0c1.16-.062 2.254.567 2.82 1.621.571 1.055.516 2.356-.14 3.356s-1.797 1.523-2.945 1.355M170.426 156.598c0 7.629-4.297 13.789-9.567 13.789-5.273 0-9.605-6.16-9.605-13.79a19.488 19.488 0 0 1 .672-5.14l10.746-8.398c4.43 1.222 7.754 6.82 7.754 13.539zm0 0"/><path fill="#fff" d="M154.781 154.781c0 2.692 1.543 4.934 3.356 4.934 1.816 0 3.36-2.242 3.36-4.934 0-2.695-1.544-4.969-3.36-4.969-1.813 0-3.356 2.239-3.356 4.97"/><path fill="#221f1f" d="M167.137 162.305a85.633 85.633 0 0 1 9.57 12.175 40.018 40.018 0 0 1 3.66 7 33.42 33.42 0 0 1 1.98 7.805c.301 2.637.301 5.305 0 7.942a83.847 83.847 0 0 1-1.175 7.628 69.754 69.754 0 0 1-1.848 7.418c-.402 1.227-.773 2.415-1.242 3.5a22.363 22.363 0 0 1-1.613 3.5c.504-1.132.918-2.3 1.242-3.5.336-1.191.605-2.414.875-3.675.504-2.461.871-4.95 1.11-7.453.234-2.52.335-5.04.367-7.524a34.422 34.422 0 0 0-.739-7.242 28.798 28.798 0 0 0-2.449-6.684 38.23 38.23 0 0 0-3.863-5.949 82.35 82.35 0 0 0-10.07-10.5c-1.149-1.172-1.227-3.07-.184-4.34 1.043-1.273 2.855-1.484 4.144-.488l.235.21"/><path fill="#221f1f" d="M164.922 159.574h1.644a17.953 17.953 0 0 1 1.946 0c1.304.047 2.605.16 3.894.348a28.437 28.437 0 0 1 7.524 2.242 20.204 20.204 0 0 1 6.312 4.547 20.112 20.112 0 0 1 4.063 6.476 18.82 18.82 0 0 0-5.04-5.25 17.335 17.335 0 0 0-6.308-2.765 24.425 24.425 0 0 0-6.719-.488c-1.125.07-2.246.21-3.355.418l-1.68.351h-1.945c-1.153.168-2.293-.36-2.95-1.355-.652-1-.71-2.301-.14-3.356.566-1.054 1.66-1.683 2.82-1.625"/></svg>