<svg xmlns="http://www.w3.org/2000/svg" xmlns:xlink="http://www.w3.org/1999/xlink" width="250" height="250"><clipPath id="b"><path d="M250 125c0 69.035-55.965 125-125 125S0 194.035 0 125 55.965 0 125 0s125 55.965 125 125zm0 0"/></clipPath><linearGradient id="a"><stop offset=".001" stop-color="#4ce096"/><stop offset=".315" stop-color="#5fddc2"/><stop offset=".602" stop-color="#6cdae3"/><stop offset=".84" stop-color="#75d9f8"/><stop offset="1" stop-color="#78d8ff"/></linearGradient><linearGradient xlink:href="#a" id="c" x1="-18.252" x2="267.063" y1="267.909" y2="-13.497" gradientUnits="userSpaceOnUse"/><linearGradient xlink:href="#a" id="d" x1="125" x2="125" y1="250.03" y2="-.03" gradientUnits="userSpaceOnUse"/><g clip-path="url(#b)"><path fill="url(#c)" d="M0 0h250v250H0z"/><path fill="url(#d)" d="M125 14.3c29.605 0 57.352 11.516 78.305 32.47 20.879 20.878 32.465 48.695 32.465 78.3 0 29.606-11.512 57.352-32.465 78.305-20.883 20.883-48.7 32.465-78.305 32.465s-57.352-11.512-78.305-32.465C25.816 182.352 14.301 154.605 14.301 125S25.816 67.648 46.77 46.695C67.648 25.816 95.395 14.301 125 14.301M125 0C55.922 0 0 55.992 0 125s55.922 125 125 125 125-55.922 125-125S194.078 0 125 0zm0 0"/></g><g fill="#fff"><path d="M149.027 72.082h-10.011l-8.797 42.906c.074 0 .144.07.144.07a11.45 11.45 0 0 1 3.36 2.79c.214.289.43.574.644.859.43.57.79 1.215 1.074 1.93.715 1.718 1.07 3.578.856 5.508-.07.714-.211 1.359-.356 2.074v.14c-.214.645-.43 1.22-.714 1.79 0 .07-.07.144-.07.214-.29.57-.645 1.075-1.005 1.575-.07.07-.07.14-.14.214-.36.5-.79.93-1.219 1.356-.07.074-.14.144-.211.215-.43.43-.93.789-1.434 1.074-.07.07-.14.07-.214.144-.5.286-1.07.57-1.645.786-.07 0-.14.07-.215.07-.57.215-1.14.43-1.785.5-.07 0-.144 0-.215.074-.43.07-.86.07-1.215.14l-6.507 31.54h17.16l18.238-88.817c.715-3.718-2.074-7.152-5.723-7.152zM118.707 134.582c-.644-.43-1.215-.86-1.715-1.36-.289-.285-.5-.5-.715-.785-.504-.574-.859-1.144-1.218-1.789-.141-.285-.356-.644-.5-1-.43-1-.715-2.074-.856-3.218-.074-.356-.074-.785-.074-1.145 0-.355 0-.785.074-1.144.07-.715.211-1.36.356-2.075v-.14c.214-.645.43-1.215.714-1.79 0-.07.07-.14.07-.214.29-.57.645-1.07 1.005-1.574.07-.07.07-.141.14-.211.36-.504.79-.93 1.219-1.36.07-.074.14-.144.211-.215.43-.43.93-.789 1.434-1.074.07-.07.14-.07.214-.14.5-.29 1.07-.575 1.645-.79.07 0 .14-.07.285-.07.57-.215 1.145-.43 1.785-.5.074 0 .145 0 .215-.074.43-.07.86-.07 1.29-.14l6.507-31.75h-17.164L95.395 170.84c-.715 3.574 2.003 7.008 5.722 7.008h10.012l8.793-42.621c-.07-.07-.14-.07-.215-.07-.43-.145-.715-.36-1-.575zm0 0"/><path d="M114.844 129.504c-.426-1-.715-2-.856-3.145.14 1.07.43 2.145.856 3.145zM114.059 126.36c-.07-.36-.07-.715-.07-1.075 0 .36 0 .715.07 1.074zM114.344 122.14v-.144c.074.07.074.07 0 .145zM115.059 120.281c0-.074.074-.144.074-.215 0 .07 0 .141-.074.215zM116.133 118.563c.07-.07.07-.141.144-.215-.074.074-.074.144-.144.215zM133.867 131.652c-.07.07-.07.141-.144.211.074-.07.074-.14.144-.21zM132.508 133.152c-.07.07-.14.145-.215.215.074-.07.144-.144.215-.215zM117.492 117.063c.07-.07.14-.145.215-.215-.074.07-.144.144-.215.215zM129.148 135.367c-.074 0-.144.074-.214.074.07-.074.14-.074.214-.074zM116.492 132.152c-.43-.574-.86-1.144-1.219-1.718.43.644.79 1.218 1.22 1.718zM118.922 134.297c-.574-.43-1.145-.86-1.645-1.36.5.5 1 1 1.645 1.36zM125 136.156s.07 0 0 0c-.285 0-.645 0-1-.07.355.07.715.07 1 .07zM121.781 135.656a9.775 9.775 0 0 1-2-.86c.64.43 1.356.645 2 .86zM127.074 114.273c.715.145 1.43.36 2.074.645-.574-.285-1.289-.5-2.074-.645zM130.934 134.367c-.07.07-.141.07-.211.145.07 0 .14-.075.21-.145zM135.656 128.074v.145c-.074-.074-.074-.074 0-.145zM134.082 118.852c.43.57.715 1.214 1 1.859a6.663 6.663 0 0 0-1-1.86zM125 114.059c.285 0 .645 0 1 .07-.355-.07-.715-.07-1-.07zM133.508 117.992c-.926-1.074-2-2.004-3.29-2.644 1.22.715 2.364 1.57 3.29 2.644zM120.852 114.844c.074 0 .144-.07.214-.07-.07.07-.14.07-.214.07zM134.941 129.934c0 .07-.074.144-.074.214 0-.07 0-.144.074-.214zM119.066 115.773c.07-.07.141-.07.211-.14-.07.07-.14.14-.21.14zm0 0"/><path d="M147.883 105.977c-5.078-6.149-12.301-9.868-20.238-10.582-.856-.07-1.786-.145-2.715-.145-15.52 0-28.32 11.656-29.68 27.176-.715 7.937 1.719 15.66 6.797 21.808 5.074 6.153 12.297 9.871 20.234 10.586.86.07 1.79.14 2.719.14 15.52 0 28.316-11.655 29.676-27.17.789-7.938-1.645-15.661-6.793-21.813zm-11.871 20.097c-.07.715-.215 1.356-.356 2v.145c-.144.644-.43 1.215-.715 1.715 0 .07-.074.144-.074.214-.285.5-.57 1.075-.93 1.504-.07.07-.07.141-.14.211-.36.43-.79.86-1.215 1.29-.074.07-.144.144-.215.214-.43.356-.93.715-1.36 1.07-.073.075-.144.075-.214.145-.5.285-1 .574-1.574.785-.07 0-.145.074-.215.074-.57.215-1.145.356-1.715.5h-.215c-.644.145-1.215.145-1.86.215h-.07c-.359 0-.644 0-1.003-.07a11.23 11.23 0 0 1-2.215-.43 9.901 9.901 0 0 1-2.004-.86 7.012 7.012 0 0 1-.93-.57c-.57-.43-1.144-.859-1.644-1.359-.285-.215-.5-.5-.715-.789-.43-.57-.86-1.144-1.215-1.715-.145-.285-.36-.644-.5-.93-.43-1-.715-2.003-.86-3.144-.07-.36-.07-.719-.07-1.074 0-.36 0-.715.07-1.145.07-.715.215-1.36.36-2.004v-.14c.14-.645.426-1.215.715-1.719 0-.07.07-.14.07-.21.285-.505.57-1.075.93-1.505.07-.07.07-.144.144-.215.356-.43.785-.859 1.215-1.285.07-.074.14-.144.215-.215.43-.359.93-.715 1.36-1.074.07-.07.14-.07.21-.14.504-.29 1.004-.575 1.575-.79.074 0 .144-.07.214-.07.575-.215 1.145-.36 1.715-.5h.215c.645-.144 1.219-.144 1.86-.215h.074c.355 0 .64 0 1 .07.36 0 .785.07 1.144.145.715.14 1.43.356 2.074.64.356.145.645.29 1 .43 1.29.645 2.36 1.575 3.29 2.649l.644.855c.43.575.715 1.22 1 1.86.79 1.718 1.074 3.578.93 5.437zm0 0"/><path d="M134.797 130.148c-.285.5-.57 1.075-.93 1.504.36-.43.645-.93.93-1.504zM132.293 133.367c-.43.356-.93.715-1.36 1.07.505-.355.93-.714 1.36-1.07zM133.723 131.863c-.356.43-.786.86-1.215 1.29.43-.36.86-.786 1.215-1.29zM136.012 126.074c-.07.715-.215 1.356-.356 2 .14-.644.285-1.285.356-2zM135.582 128.219c-.14.57-.426 1.215-.715 1.715.29-.5.574-1.145.715-1.715zM121.137 114.773c.574-.214 1.144-.355 1.718-.5-.644.145-1.214.286-1.718.5zM119.277 115.633c.504-.285 1.004-.574 1.575-.79-.57.216-1.07.505-1.575.79zM116.277 118.348c.356-.426.785-.856 1.215-1.285-.43.355-.86.785-1.215 1.285zM117.707 116.848c.43-.356.93-.715 1.36-1.075-.504.36-.93.72-1.36 1.075zM123.07 114.273c.64-.144 1.215-.144 1.86-.214-.645 0-1.29.07-1.86.214zM114.344 122.14c-.14.641-.285 1.286-.356 2 0 .36-.074.79-.074 1.145 0-.355 0-.715.074-1.144.07-.715.215-1.36.356-2zM130.723 134.582c-.504.285-1.004.574-1.575.785.57-.285 1.07-.5 1.575-.785zM126.93 135.941c-.64.145-1.215.145-1.86.215.645 0 1.29-.07 1.86-.215zM128.863 135.441c-.574.215-1.144.356-1.718.5.644-.144 1.214-.285 1.718-.5zM114.418 121.996c.14-.644.426-1.215.715-1.715-.29.5-.574 1.145-.715 1.715zM115.203 120.066c.285-.5.57-1.074.93-1.504-.36.43-.645.93-.93 1.504zm0 0"/></g></svg>