<svg xmlns="http://www.w3.org/2000/svg" width="250" height="250"><clipPath id="a"><path d="M124.973 0C194.059 0 250 55.941 250 124.973 250 194.059 194.059 250 124.973 250 55.94 250 0 194.059 0 124.973 0 55.94 55.941 0 124.973 0zm0 0"/></clipPath><path fill="#2b2a29" fill-rule="evenodd" d="M124.973 0C194.059 0 250 55.941 250 124.973 250 194.059 194.059 250 124.973 250 55.94 250 0 194.059 0 124.973 0 55.94 55.941 0 124.973 0zm0 0"/><g clip-path="url(#a)" clip-rule="evenodd"><path d="M0 0h250v250H0z"/></g><path fill-rule="evenodd" d="M249.941 124.973c0 69.02-55.949 124.968-124.968 124.968C55.953 249.941 0 193.992 0 124.973 0 55.953 55.953 0 124.973 0S249.94 55.953 249.94 124.973zm0 0"/><g fill="#35ffe5"><path d="M124.973 9.633c31.89 0 60.726 12.918 81.601 33.793s33.793 49.71 33.793 81.547c0 31.89-12.918 60.726-33.793 81.601s-49.71 33.793-81.601 33.793c-31.836 0-60.672-12.918-81.547-33.793s-33.793-49.71-33.793-81.601c0-31.836 12.918-60.672 33.793-81.547s49.71-33.793 81.547-33.793zm75.488 39.906c-19.32-19.32-46.02-31.258-75.488-31.258-29.414 0-56.114 11.938-75.434 31.258s-31.258 46.02-31.258 75.434c0 29.468 11.938 56.168 31.258 75.488 19.32 19.262 46.02 31.258 75.434 31.258 29.468 0 56.168-11.996 75.488-31.258 19.262-19.32 31.258-46.02 31.258-75.488 0-29.414-11.996-56.114-31.258-75.434zm0 0"/><path d="M96.02 65.8h88.18v40.946H72.433v15.977H99.94v54.843h15.918v-27.449h55.825v-15.976h-49.368v-12.457H184.2v40.945h-55.883v27.394H87.43V135.18H59.977V94.234h111.707V78.258H96.02zm0 0"/></g></svg>