<svg xmlns="http://www.w3.org/2000/svg" width="250" height="250"><path fill="#070618" d="M250 125c0 69.035-55.965 125-125 125S0 194.035 0 125 55.965 0 125 0s125 55.965 125 125zm0 0"/><path fill="#fff" d="M172.781 100.922a1.363 1.363 0 0 0-.672-1.188l-13.125-8.152a1.335 1.335 0 0 0-.605-.195l-10.43-.809-12.652-18.535-10.43-32.156a1.364 1.364 0 0 0-1.383-.969 1.486 1.486 0 0 0-1.312 1.055l-7.91 33.62h-6.5a1.391 1.391 0 0 0-1.278.86l-6.75 16.281-15.59 3.278c-.398.09-.742.34-.945.695L77.363 105.5c-.078.176-.125.36-.144.55v.384l9.355 46.218c.07.325.246.621.5.836l19.051 14.785 9.738 16.153 11.926 25.855c.238.512.766.828 1.332.801.43-.043.809-.293 1.02-.672l.058.035 14.875-23.136 18.395-28.278c.101-.156.172-.34.195-.527v-.031l9.043-57.395h-.031c.074-.012.105-.078.105-.156zm-24.633-3.356-9.32 1.918-8.879 1.856 7.75-8.79 1.137-1.308.11-.11.218.141 2.223 1.551zm-3.75-7.293 1 1.473.692 1-1.531-1.074-2.223-1.55-2.441-1.72-1.329-4.718-.914-3.278zM123.75 45.441l8.965 27.606 4.469 15.863-.672.75-1.133 1.309-1.129 1.304-7.46 8.5-2.88-9.324-.441-1.418-.438-1.418-1.914-6.164c0-.031-.035-.031-.055-.054a1.114 1.114 0 0 1-.054-.196l-4.106-7.402zm-9.203 30.938 1.223 2.223-3.356-2.223zm-12.75 16.777.637-1.55.64-1.555 1.676-4.078 3.684-8.934 6.93 4.574 1.917 1.278-8.25 5.91-5.61 4-2.136 1.527zm8.375-1.75 2.805-2 2-1.422L119 85.102l1.023 3.277.442 1.422.441 1.418 3.387 10.937h-18.129l-5.598-3.883zm-24.8 5.192 13.124-2.75-1.605 3.918a1.35 1.35 0 0 0 .5 1.66l7.601 5.25c.227.168.5.254.781.25h20.418a.74.74 0 0 0 .278-.031l25.379-5.25c.449-.098.824-.41 1-.836a1.46 1.46 0 0 0-.145-1.313l-2.75-4.023 7.856.605 10.882 6.75-14.043 8.024-43.554 2.296-30.352-6zm27.378 17.254 41.145-2.168 3.41 22.386-19.586 45.051-12.906-13.894zm7.988 46.082-17.09-22.278L81.84 108.22l28 5.543zM81.203 112l19.5 26.36-11.871 11.32zm8.875 40.273 12.293-11.703 18.535 24.16-13.289 1.188zm19.442 16.25 11.98-1.039-4.719 13.09zm19.343 37.375-10.25-22.191 5.465-15.203 12.488 13.457zm13.95-20.09-9.133 14.239 5.687-17.668 15.227-14.629zm-.641-10.019 15.898-36.57 2.828 18.558zm20.2-26.57-5.798-38.25 4.16-2.39 8.844-5.048zm0 0"/></svg>