<svg xmlns="http://www.w3.org/2000/svg" width="250" height="250"><clipPath id="a"><path d="M.137 0h249.82v250H.137zm0 0"/></clipPath><g clip-path="url(#a)"><path fill="#3772ff" d="M125.05 250c68.985 0 124.91-55.96 124.91-125 0-69.035-55.925-125-124.91-125C56.064 0 .138 55.965.138 125c0 69.04 55.925 125 124.914 125zm0 0"/></g><g fill="#fff"><path d="M85.281 100.324a592.827 592.827 0 0 0-5.144 23.59c-2.688 13.613-3.09 18.16-3.051 22.918v.625c.047 4.77.394 14.555 4.668 25.434a63.177 63.177 0 0 0 5.5 10.82c6.469 10.187 14.547 16.601 19.258 19.879 5.675-.863 15.75-3.055 26.066-9.363a62.358 62.358 0 0 0 9.684-7.254c8.52-7.793 13.148-16.328 15.32-20.637.133-.25.254-.473.356-.688 2.132-4.253 3.773-8.511 7.363-21.918a599.75 599.75 0 0 0 5.824-23.695c.672-3.008 1.363-6.16 2.047-9.445l-10.676-13.133-3.328-4.094-51.356-11.945-4.777 2.2-15.36 7.077a780.295 780.295 0 0 0-2.394 9.63zm27.387 23.492a12.109 12.109 0 0 1 20.262-5.902 12.146 12.146 0 0 1 3.227 11.797 12.15 12.15 0 0 1-3.184 5.476 12.05 12.05 0 0 1-5.508 3.122l-5.172 22.265-10.914-2.539 5.176-22.277a12.123 12.123 0 0 1-3.887-11.942zm0 0"/><path d="m92.469 55.934 5.074 1.183-2.305 9.934 4.946-2.11 3.18-13.68 10.933-4.84 14.887 3.466-2.004 8.633 24.535 5.707 2.004-8.633 14.89 3.465 7.848 9.207-3.176 13.675 3.512 4.079 2.309-9.934 5.074 1.184 6.984 8.316-6.015 25.894-22.551-26.53-54.313-12.634-31.765 13.895 6.015-25.895zm0 0"/></g></svg>