<svg xmlns="http://www.w3.org/2000/svg" width="250" height="250"><path fill="#22373d" d="M.113 0h249.774v250H.113zm0 0"/><path fill="#ccc" d="M45.54 81.68 27.104 71.035V178.97l18.434-10.645zm0 0"/><path fill="#76bedd" d="M222.895 71.035V178.97l-18.442-10.645V81.68zm0 0"/><path fill="#e6e6e6" d="m47.477 173.293-18.434 10.64 93.469 53.97v-21.29zm0 0"/><path fill="#fff" d="m202.523 173.293 18.434 10.64-93.473 53.97v-21.29zM127.484 12.098l93.473 53.968-18.434 10.645-75.039-43.324zm0 0"/><path fill="#e6e6e6" d="M122.516 12.098 29.043 66.066l18.434 10.645 75.039-43.324zm0 0"/><g fill="#76bedd"><path d="M143.613 149.34v-48.676l12.399 7.117v34.352zM126.938 137.176v-24.348l7.585 4.348v15.594zM169.781 164.098V85.902l18.438 10.582v56.907zm0 0"/></g></svg>