<svg xmlns="http://www.w3.org/2000/svg" width="250" height="250"><g fill="#ff671d"><path d="M190.453 56.7s-33.016 9.116-45.55 12.616c-12.532 3.5-20.25 30.282-20.333 30.516l-36.668 10.285s-13.332 2.649-13.332 16.43c0 13.086 13.332 8.168 13.332 8.168s6.387-1.668 18.852-5.25 17.8-29.383 17.832-29.617l65.883-18.332s13.336-2.852 13.336-16.668c.05-13.067-13.352-8.149-13.352-8.149M59.547 193.297l48.031-13.547c12.418-3.535 17.77-29.383 17.836-29.633l36.664-10.285s13.418-2.648 13.418-16.434c0-13.066-13.434-8.433-13.434-8.433s-6.367 1.668-18.832 5.25c-12.468 3.582-17.785 29.668-17.835 29.902L59.53 168.45s-13.336 2.867-13.336 16.668c-.05 13.113 13.352 8.18 13.352 8.18"/></g></svg>