<svg xmlns="http://www.w3.org/2000/svg" width="250" height="250"><path fill-rule="evenodd" stroke="#000" stroke-miterlimit="11.339" stroke-width=".5421647300000001" d="M249.719 124.992c0 68.89-55.848 124.739-124.739 124.739C56.09 249.73.246 193.883.246 124.992S56.09.254 124.98.254c68.891 0 124.739 55.848 124.739 124.738zm0 0"/><path fill="#fff" d="M56.172 55.61c-5.262 5.523-9.602 10.167-9.645 10.257-.043.133 4.692 4.778 10.52 10.301 5.828 5.566 10.914 10.43 11.266 10.738l.656.614-1.184 1.972c-10.387 17.18-12.535 37.867-6.004 56.887 1.227 3.594 3.328 8.2 5.13 11.223.874 1.488 1.269 2.453 1.179 2.628-.086.176-5.39 5.786-11.79 12.493-6.398 6.66-11.612 12.226-11.702 12.316-.043.129 17.882 17.441 19.593 18.844l.657.57 10.125-10.562a7347.227 7347.227 0 0 0 11.57-12.141l1.492-1.488 1.403.875c7.144 4.558 15.515 7.715 24.761 9.379 4.645.832 13.5 1.05 18.453.437 9.555-1.094 19.02-4.293 26.778-8.984l2.015-1.227 2.149 2.106c4.691 4.554 22.222 21.21 22.398 21.3.176.086 19.414-20.03 19.371-20.293-.043-.132-13.234-12.8-21.3-20.382l-2.672-2.543 1.226-2.016c10.301-17.137 12.446-37.91 5.785-57.062-.964-2.805-3.902-9.118-5.609-12.012l-.832-1.445 11.262-11.79c6.18-6.445 11.218-11.835 11.175-11.964-.175-.442-19.898-19.067-20.16-19.067-.175 0-5.129 5.04-11.047 11.266-5.914 6.18-10.824 11.262-10.957 11.305-.086.046-.656-.22-1.183-.614-1.488-1.008-5.258-3.066-7.36-4.031-6.402-2.938-12.363-4.734-19.285-5.742-3.594-.528-14.379-.613-17.707-.133-7.976 1.14-14.508 3.113-21.172 6.445-1.925.918-4.164 2.149-5.039 2.672l-1.578.965-1.797-1.754c-.965-.965-5.347-5.082-9.687-9.246-4.336-4.121-8.766-8.328-9.817-9.379l-1.93-1.887zm73.586 28.578c6.969.832 13.195 3.199 18.933 7.23 2.938 2.062 7.32 6.445 9.383 9.379 11.7 16.57 9.465 39.098-5.262 52.902-12.578 11.746-30.765 14.375-46.062 6.574-11.047-5.652-18.848-15.996-21.348-28.402-.789-3.941-.789-11.305 0-15.207.746-3.855 1.754-6.617 3.641-10.476 7.539-15.165 23.887-24.016 40.715-22zm0 0"/></svg>