<?xml version="1.0" encoding="utf-8"?>
<!-- Generator: Adobe Illustrator 26.0.2, SVG Export Plug-In . SVG Version: 6.00 Build 0)  -->
<svg version="1.1" id="Layer_1" xmlns="http://www.w3.org/2000/svg" xmlns:xlink="http://www.w3.org/1999/xlink" x="0px" y="0px"
	 viewBox="0 0 1024 1024" style="enable-background:new 0 0 1024 1024;" xml:space="preserve">
<style type="text/css">
	.st0{fill:#EB148A;}
	.st1{fill:#FFFFFF;}
</style>
<rect class="st0" width="1024" height="1024"/>
<g>
	<path class="st1" d="M418.1,828c-12.4,0-24.2-5-33.2-13.8c-16.1-15.8-18.2-41.9-5-60.6l117.1-163.2l-194.3-18.8
		c-21.1-1.9-38.6-15.7-45.3-36.1c-6.8-20.4-1.3-41.9,14.6-56.3l302.1-270.9c8.5-7.8,19.8-12.3,31.6-12.3c12.5,0,24.3,5,33.3,13.9
		c15.9,15.7,18.1,41.8,4.8,60.5L526.9,433.6l194.1,18.7c21.2,2,38.7,15.9,45.6,36.4c6.7,20.3,1.1,41.9-14.8,56.2L449.7,815.7
		C441.4,823.5,430,828,418.1,828z"/>
</g>
</svg>
