<svg xmlns="http://www.w3.org/2000/svg" width="250" height="250"><path fill="#e42c84" d="M36.61 36.613c-48.813 48.813-48.813 127.961 0 176.778 29.878 29.875 71.113 41.464 109.808 34.77l-54.613-54.61 43.113-43.113-35.356-35.356-40.164 40.168c-12.3-26.688-7.453-59.328 14.532-81.316a72.005 72.005 0 0 1 49.96-21.157L79.606 8.5A124.637 124.637 0 0 0 36.61 36.613zm0 0"/><path fill="#009eff" d="m103.918 1.781 54.473 54.473-43.309 43.312 35.356 35.356 40.164-40.168c12.3 26.683 7.457 59.324-14.532 81.312a71.962 71.962 0 0 1-49.574 21.137l44.184 44.188a124.682 124.682 0 0 0 42.71-28c48.813-48.817 48.813-127.965 0-176.778C183.61 6.824 142.517-4.789 103.919 1.781zm0 0"/></svg>