<svg xmlns="http://www.w3.org/2000/svg" xmlns:xlink="http://www.w3.org/1999/xlink" width="250" height="250"><linearGradient id="a"><stop offset="0" stop-color="#b7fdbc"/><stop offset="1" stop-color="#fafd89"/></linearGradient><linearGradient xlink:href="#a" id="b" x1="797.384" x2="808.551" y1="322.308" y2="1301.271" gradientTransform="matrix(.15504 0 0 .15428 0 .043)" gradientUnits="userSpaceOnUse"/><linearGradient xlink:href="#a" id="c" x1="812.147" x2="800.98" y1="296.5" y2="1301.518" gradientTransform="matrix(.15504 0 0 .15428 0 .043)" gradientUnits="userSpaceOnUse"/><linearGradient xlink:href="#a" id="d" x1="807.627" x2="800.182" y1="318.523" y2="1301.208" gradientTransform="matrix(.15504 0 0 .15428 0 .043)" gradientUnits="userSpaceOnUse"/><path fill="#0a2336" d="M246.195 125c0 66.605-54.261 120.598-121.195 120.598S3.805 191.605 3.805 125 58.066 4.402 125 4.402 246.195 58.395 246.195 125zm0 0"/><path fill="url(#b)" d="M124.309 170.543a51.205 51.205 0 0 1-19.18-3.742l-32.04-12.93-16.007 7.094c-4.336 1.922-6.281 6.98-4.348 11.293a8.582 8.582 0 0 0 4.598 4.433l50.098 21.754a45.33 45.33 0 0 0 33.945.043l50.32-21.707c5.157-2.074 7.64-7.918 5.551-13.043a10.021 10.021 0 0 0-5.55-5.523l-13.364-5.406-34.957 13.996a51.178 51.178 0 0 1-19.066 3.738zm0 0"/><path fill="url(#c)" d="m191.719 117.043-17.02-6.848-31.308 12.535a51.291 51.291 0 0 1-19.055 3.696 51.205 51.205 0 0 1-19.18-3.742l-28.578-11.532-19.469 8.625c-4.336 1.926-6.277 6.985-4.347 11.297a8.574 8.574 0 0 0 4.597 4.43l29.871 12.113 22.07 9.125a40.012 40.012 0 0 0 29.993.04l24.336-9.868 28.098-11.309c5.148-2.074 7.632-7.91 5.546-13.035a10.035 10.035 0 0 0-5.554-5.527zm0 0"/><path fill="url(#d)" d="m191.719 72.875-56.067-22.57a28.63 28.63 0 0 0-22.304.386L57.102 75.574c-4.332 1.926-6.278 6.98-4.344 11.297a8.575 8.575 0 0 0 4.597 4.43l33.41 13.543 18.52 7.77a40.03 40.03 0 0 0 29.992.038l20.598-8.441 31.828-12.836c5.137-2.117 7.574-7.98 5.445-13.09a10.027 10.027 0 0 0-5.43-5.41zm0 0"/></svg>