<svg xmlns="http://www.w3.org/2000/svg" width="250" height="250"><path fill-rule="evenodd" d="M130.793 84.941c1.582.059 3.465.114 4.344-.48 4.754-1.824 12.386-16.102 20.75-10.137 8.953 6.387-5.762 16.844-7.239 20.754 8.332 2.93 12.25 14.965 14.48 24.129.895 3.688-.16 8.656.966 12.066 14.781-3.992 47.222-12.875 54.054 5.309 1.395 3.719 1.903 9.543.48 13.996a53.697 53.697 0 0 1-3.858 9.172c-8.375 15.164-27.575 27.375-44.403 34.266l-13.031 3.859-6.758.965-4.344 4.828c-4.914 3.719-10.25 8.086-14.476 12.547-5.582-1.95-10.524-4.117-14.961-7.238-3.11-2.184-6.422-6.395-10.137-7.723l-8.203-.48-13.516-2.415c-8.254-2.761-17.546-6.34-25.097-9.652-3.305-1.453-6.723-1.965-9.653-3.863-6.52-4.219-12.773-8.996-18.82-13.512-4.273-3.191-13.25-11.258-14.96-16.41-2.005-6.024 4.874-10.695 7.237-13.031 13.051-12.871 34.489-10.52 57.915-10.133a40.486 40.486 0 0 0-1.446-7.723c-1.746-6.387-6.656-28.297 1.445-31.37.864-.798 1.215-.845 2.899-.966l3.375 2.895c1.727 2.484 1.984 5.894 4.828 7.238 1.082.676 1.582.266 2.895 0v-.965c2.214-3.793.015-12.535 0-16.89-.04-13.106.754-24.399 7.242-30.887 3.172-3.176 10.46-6.219 13.996-.965 2.84 3.621-1.3 15.672-1.45 21.234a6.726 6.726 0 0 0 1.93.48c7.844-14.089 9.493-34.374 18.34-47.296 4.59-6.7 11.793-11.473 22.684-7.238a29.281 29.281 0 0 1 6.758 3.863c6.324 4.824 3.46 16.664 0 22.2-8.75 13.98-31.41 20.523-34.266 39.573zm-16.895 38.61c-.132-11.387 3.891-20.79 9.172-27.028 1.614-1.902 4.586-2.457 5.79-4.824-1.645-1.414-1.02-2.96-3.86-3.379-.887.598-2.75.528-4.344.485a6.89 6.89 0 0 1-.484-1.934l.484-.48a15.665 15.665 0 0 0 5.793-.965l1.446-6.758c2.824-6.848 8.882-14.602 14.48-18.824 10.195-7.688 23.727-14.84 19.79-32.336-1.852-1.207-3.247-3.422-5.313-4.34-20.13-8.973-26.614 24.11-30.887 37.16-1.528 4.66-2.715 15.36-6.758 16.89-1.414 1.337-3.785.946-5.789.485-3.719-6.316-.254-15.312-.484-23.168-1.407-.887-1.403-1.32-3.86-1.445-6.527 6.469-6.765 5.95-9.172 16.89-2.53 11.52 4.207 30.47-3.859 36.196-.813.652-1.516.793-2.895.969-1.511-1.352-3.636-2.223-4.828-3.864-1.86-2.554-1.78-5.797-5.793-6.273-4.23 8.527-.683 21.875 1.934 29.441 1.195 3.457 2.637 9.809 7.719 7.239 5.957-5.801 9.597-11.602 21.718-10.137zm35.235-45.848c-2.602 2.66-7.047 4.711-8.688 8.203 1.977.418 2.97.762 3.38 2.899h-.97c-2.425-2.368-9.574-.344-12.062 1.445.383.492.168.133.48.965h1.45c3.308-2.207 9.773.512 12.547.965 2.917-4.203 9.914-8.13 6.273-14.477zM134.168 93.63c-1.84 1.473-4.406 1.965-6.273 3.379-5.489 4.156-10.465 17.844-10.618 27.508l5.309 2.898c-.066-4.598 1.957-8.07 5.309-9.172 6.02-4.86 11.273 2.817 13.515 5.309a29.97 29.97 0 0 1-.965 8.207c-3.87 2.652-5.472 4.695-12.066 3.86v.964c2.684 3.64.105 11.074-.484 14.48 2.19 1.434 4.5 3.512 7.242 4.344 14.441 4.375 21.261-10.136 24.129-19.789.843-2.836 2.832-8.043 1.93-12.066-3.048-13.614-10.356-30.176-27.028-29.922zm-29.438 22.683c-2.863.16-8.523.086-10.617 1.45-2.386 1.547-1.613 3.445-5.308 4.343v-3.863a5.696 5.696 0 0 0 .965-2.41c3.96-1.195 6.289-2.852 12.062-2.898.785.754 1.727 1.05 2.414 1.93.363.519.29.456.484 1.448zm23.649 4.829c-.906 1.414-1.586 1.687-1.93 3.859 1.344 1.281 1.418 2.043 3.86 2.414 1.464-1.488 2.277-1.297 2.414-4.344-.871-.757-.618-.949-1.93-1.449-.625-.422-1.191-.43-2.414-.48zm-23.168 4.824c-5.309 4.015-9.434 4.543-11.582 12.066-4.356 15.274 14.754 24.813 26.543 17.856v-.48c-2.742-.606-3.207-1.81-4.824-3.38a23.988 23.988 0 0 1 .484-5.308c4.656-3.11 4.637-2.188 9.652-.485v-6.754c-1.234-1.804-1.257-4.414-2.414-6.277-3.445-5.52-8.515-7.387-17.86-7.238zm90.254 21.234c-.762 9.637-17.75 27.875-24.617 32.336-2.078 1.352-4.465 1.117-6.754 2.414-1.543.875-8.989 10.242-9.653 12.067h2.41c1.723-1.094 4.063-.774 6.278-1.45l11.098-3.859c17.75-7.746 35.671-22.43 40.543-42.953 5.128-21.629-31.063-17.418-42.954-13.031-3.457 1.273-6.773 1.613-8.687 4.343-1.43 2.121-1.336 5.25-2.414 7.723-2.817 6.461-12.516 16.79-24.133 13.996a40.177 40.177 0 0 1-7.723-2.898v.965c3.254 1.832 6.032 4.734 9.653 6.277 2.164.914 5.12.52 6.277 2.41h-4.828c-1.559-1.012-3.918-.668-5.793-1.445-3.582-1.489-6.238-5.016-9.652-6.274-3.024 6.172-22.243 12.66-29.438 5.79 8.559.171 13.883-.278 20.754-1.93v-.485c-13.105.52-21.242-2.715-24.617-13.027-.813-2.488.32-9.336-.48-10.621-.84-.973-1.036-.902-2.9-.965-3.151-2.144-8.132-.988-12.546-1.93-16.844-3.593-37.203 2.48-46.332 8.688-2.793 1.898-8.219 5.379-7.723 10.137.563 5.375 10.153 12.562 13.996 15.441 17.043 12.777 37.227 26.477 64.672 28.477v-.485c-5.586-3.258-9.527-8.36-14.476-12.066l-8.688-2.41c-5.683-2.461-11.55-6.094-16.41-9.653-5.621-4.12-10.598-9.453-15.926-13.996-1.32-1.129-.242-1.765-2.414-2.414-1.433 1.54-3.515 3.227-5.793 3.86v-1.446c6.977-6.668 18.36-18.273 33.785-13.031v.48a24.02 24.02 0 0 0-8.687 1.934c.305.844.094.465.484.965 1.715 6.437 7.082 11.148 10.618 15.926 10.875 14.691 25.015 25.64 40.058 36.195 4.719 3.312 12.543 10.582 18.82 11.582 2.915-5.395 8.934-8.734 12.551-13.512 13.324-17.605 31.84-33.254 37.16-58.398-1.625-.559-4.414-.516-6.757-.48-1.055.714-3.23.882-4.825.964v-.965h.48c1.677-1.652 3.54-1.68 6.278-2.414 11.043-2.969 20.008 3.383 23.649 9.653h-1.45c-.683-.465-1.578-.473-2.894-.485zm-11.102-5.308-2.414 10.136c2.727.868 3.602 2.832 6.758 3.38.95-3.196 2.957-6.356 4.344-9.653-2.778-1.871-3.844-3.758-8.688-3.863zm-66.12 4.828a5.365 5.365 0 0 1-.966 1.449c.305.844.094.465.485.965l1.445 1.445 1.45-.48c.16-.805.32-1.61.484-2.414l-.97-.965zm-62.743 1.93c-3.2 2.304-8.29 1.593-9.168 6.273 2.383 1.668 5.48 5.418 7.238 7.723l.485-.48c1.265-.79 6.324-6.446 5.789-6.759-.5-2.25-2.313-5.969-4.344-6.758zm124.52 6.757c-.899 3.465-3.61 4.766-4.344 8.203 1.402.93 2.492 2.442 3.379 3.864l.48-.485c2.535-1.617 6.145-5.277 6.758-8.687-2.414-.75-3.582-2.367-6.273-2.895zm-117.762 2.895c-1.477 2.812-4.606 3.863-5.309 7.238 2.281 1.527 3.367 3.871 6.274 4.828v-.484c.73-.684 3.203-3.992 3.379-4.824.328-1.54-3.196-6.211-4.344-6.758zm60.328 5.308c3.121 2.243 1.527 7.989-2.414 8.207-.492-.386-.129-.171-.965-.484a13.93 13.93 0 0 1-.48-4.344 32.7 32.7 0 0 0 3.859-3.379zm6.758.485c1.984.133 2.297.547 3.86.965.827 1.668 1.605 2.507 1.933 4.824-1.41.887-1.403 1.324-3.864 1.449-1.363-2.043-2.355-2.613-2.414-6.273.387-.493.172-.133.485-.965zm-8.688 4.824h1.45c.304-.844.093-.469.48-.965l-.48-1.45-.965.485a6.733 6.733 0 0 0-.485 1.93zm10.617-2.414c-.191 1.094-.441.523 0 1.45.493.386.133.171.965.483v-1.449zm-62.742.969c-.605 1.3-1.437 2.879-2.41 3.859.305.848.09.469.48.965 2.579 2.703 7.915 6.46 12.067 7.238v-.48c-3.957-2.72-5.684-9.782-10.137-11.582zm104.25 0c-1.289 4.12-5.027 6.37-6.277 10.617h.484c2.297-3.156 7.657-4.45 9.172-8.207-1.312-.871-1.71-1.82-3.379-2.41zm0 0"/></svg>