<svg xmlns="http://www.w3.org/2000/svg" width="250" height="250"><path fill-rule="evenodd" stroke="#000" stroke-width=".54291569" d="M249.73 125c0 68.887-55.843 124.73-124.73 124.73S.27 193.888.27 125 56.112.27 125 .27 249.73 56.113 249.73 125zm0 0"/><path fill="#fff" d="m69.719 53.918-8.36 8.363 10.578 10.582 10.606 10.578-.879 2.59c-1.133 3.395-1.594 6.235-1.594 10 0 12.266 6.422 22.707 17.785 28.922 4.575 2.496 12.43 5.313 21.137 7.555 17.004 4.367 19.613 5.129 22.965 6.699 4.574 2.172 6.836 4.527 7.785 8.086.414 1.547.39 5.012-.023 6.676-1.063 4.043-4.504 8.11-8.781 10.324-5.774 3.027-15.82 3.86-23.399 1.918-2.82-.691-6.816-2.656-8.824-4.297-4.09-3.371-7.278-9.195-8.688-15.914-.23-1.063-.414-1.965-.437-2.012-.07-.093-23.723 2.219-23.84 2.356-.094.07-.023 1.039.137 2.148.742 5.336 2.613 11.692 4.761 16.102l1.247 2.566-10.282 10.278-10.254 10.28 16.746 16.747 10.606-10.602 10.578-10.582 1.824.762c9.657 4.066 24.14 5.34 38.188 3.305 3.37-.485 8.246-1.641 10.808-2.586l1.528-.555 20.258 20.258 16.746-16.746-18.782-18.781 1.18-2.403c2.45-4.922 3.465-9.101 3.672-14.855.371-10.973-2.469-19.243-8.938-26.055-6.746-7.094-14.347-10.465-35.808-15.871-15.13-3.79-21.645-6.399-24.23-9.68-2.563-3.234-2.797-7.761-.555-11.066 1.293-1.914 4.48-3.973 7.945-5.125 3.906-1.317 10.465-1.918 15.34-1.41 10.281 1.086 15.453 5.472 17.719 15.086.277 1.175.53 2.168.554 2.214.047.07 16.77-.53 21.782-.785l2.867-.136-.164-2.012c-.32-4.09-1.13-7.738-2.61-11.55l-.808-2.15 10.418-10.44L188.64 62.28l-8.36-8.383-8.386-8.363-10.536 10.531-10.554 10.559-2.567-.969c-6.304-2.36-12.402-3.398-21.39-3.652-9.817-.254-18.434 1.016-25.04 3.695l-2.449.996L88.73 56.113 78.105 45.535zm0 0"/></svg>