<svg xmlns="http://www.w3.org/2000/svg" width="250" height="250"><g fill="#060606" fill-rule="evenodd"><path d="M0 184.96c3.41 1.614 7.89 4.083 11.086 5.977 1.176.715 2.508 1.329 3.785 2.043.695.38 1.121.567 1.762.95.316.187.586.379.906.52.371.19.586.284.957.476l41.047 22.484c.586.285 1.117.617 1.758.95l37.261 20.445c.426.238.586.285.958.523l17.804 9.723c.801.379 1.121.855 2.028.902V126.137l-5.653-2.89c-.531-.24-.851-.43-1.386-.712l-4.422-2.277c-6.293-2.942-12.157-6.547-18.5-9.488-.637-.286-.852-.477-1.543-.762l-5.653-2.89c-1.386-.763-7.675-4.13-8.793-4.368v19.547l23.133 11.906c.64.332 1.067.57 1.653.856.64.28.96.613 1.757.757v83.825c-4.05-2.422-8.367-4.602-12.523-6.832l-10.078-5.551c-4.102-2.465-8.528-4.508-12.633-6.926-.48-.285-.746-.379-1.227-.664l-8.898-4.887a25.538 25.538 0 0 1-2.559-1.422c-3.254-1.945-6.77-3.652-10.078-5.55-.906-.524-1.652-.856-2.558-1.375-4.903-2.942-10.18-5.598-15.192-8.301-.426-.238-.797-.477-1.172-.715l-3.89-2.133V74.668a51.162 51.162 0 0 0-2.344-1.234 50.154 50.154 0 0 1-2.348-1.235L2.453 66.13C1.547 65.703.852 65.227 0 64.848zM130.863 125.95v47.581l7.09-3.558c3.25-1.52 6.238-3.371 9.488-4.887.586-.285.801-.379 1.227-.664.426-.238.852-.379 1.277-.57v-28.036c.64-.144.856-.238 1.336-.523.477-.285.797-.379 1.278-.617 2.504-1.278 4.957-2.797 7.515-3.938 3.465-1.515 6.77-3.414 10.074-5.168.856-.43 1.547-.808 2.454-1.28l5.011-2.517c.532-.285.692-.378 1.227-.664 2.183-.996 4.21-2.324 6.45-3.367l2.448-1.281c.43-.238.856-.379 1.282-.57l16.363-8.442c3.465-1.613 6.664-3.558 10.074-5.172l5.066-2.656c1.704-.902 3.356-1.707 5.063-2.656.906-.477 1.652-.809 2.453-1.281l2.664-1.329v81.168c-.746.141-.96.38-1.598.711l-4.69 2.563c-.481.281-.852.52-1.442.851-.637.332-1.063.618-1.598.903-.586.285-.906.52-1.492.804l-4.746 2.516c-4.262 2.184-8.262 4.649-12.524 6.832l-12.476 6.879c-.586.332-.907.473-1.492.805-5.594 3.367-11.567 6.168-17.215 9.441-1.016.617-2.078 1.137-3.094 1.707l-15.617 8.54c-.48.238-1.012.523-1.492.804-4.637 2.707-9.489 5.031-14.125 7.734l-6.344 3.461V250c1.066-.238 2.77-1.375 3.73-1.898 1.282-.711 2.504-1.282 3.785-2.04 3.57-2.132 7.461-3.89 11.036-6.023.691-.379 1.222-.71 1.863-1.043l9.437-5.172c.637-.332 1.118-.617 1.758-.949l50.211-27.516a122.6 122.6 0 0 0 1.867-1.043l33.528-18.359c.64-.379 1.28-.71 1.922-.996V65.039c-.961.188-1.122.473-1.868.852-.691.332-1.172.57-1.812.902l-11.14 5.742c-3.786 1.8-7.302 4.031-11.141 5.738l-29.797 15.274c-1.332.664-2.399 1.281-3.68 1.945l-5.488 2.848c-3.89 1.754-9.543 4.742-13.114 6.734-.64.383-1.171.524-1.812.903l-12.102 6.261c-.53.239-.425.239-.957.524l-3.785 1.847c-2.238 1.047-4.21 2.325-6.449 3.371-.535.235-.535.332-.96.52l-3.786 1.852c-2.504 1.09-9.113 5.218-11.14 5.597zM7.41 56.879c.746.14 1.172.52 1.863.855 2.508 1.184 4.747 2.606 7.305 3.746l20.254 10.438C46.48 77.133 56.504 81.785 66.203 87l1.813.902c.695.332 1.175.618 1.812.903l11.035 5.691c.48.238.426.238.801.43 5.168 2.797 10.606 5.168 15.723 8.062l16.418 8.399c.64.332 1.12.613 1.761.945 1.918 1.047 8.793 4.746 9.489 4.746 1.011 0 6.875-3.32 8.367-4.129l2.879-1.515c.96-.524 1.812-.856 2.773-1.375 1.012-.524 1.758-.903 2.77-1.426l5.597-2.942c.961-.52 1.813-.898 2.72-1.421l8.476-4.27c.531-.238.906-.473 1.383-.71.48-.286.8-.427 1.386-.712l5.653-2.894c.906-.477 1.918-1.188 2.984-1.422-.16-.57-.266-.524-.8-.809l-18.071-9.25c-7.195 3.367-14.02 7.305-21.16 10.77-.586.285-1.067.566-1.602.898a67.333 67.333 0 0 1-3.305 1.711l-10.875-5.598c-3.78-1.71-7.246-3.937-11.03-5.695-.856-.426-1.708-.898-2.454-1.281L78.68 73.718c-.43-.238-.801-.425-1.227-.663-.48-.285-.8-.38-1.281-.618l-28.25-14.515c-.535-.285-.586-.426-1.332-.57.586-.758 1.277-.805 2.238-1.329.797-.472 1.547-.71 2.399-1.136L75.8 43.074c.531-.285.531-.332 1.066-.57.531-.238.797-.332 1.278-.617.851-.473 1.707-.805 2.558-1.184l30.652-14.707c.532-.238.692-.379 1.223-.664l12.477-5.93c.691 0 10.125 4.887 12.312 5.883.531.238.906.38 1.438.664.64.332.8.473 1.547.758l33.902 16.273c2.984 1.66 12.047 5.883 15.246 7.305 3.625 1.613 7.09 3.559 10.715 5.172l20.148 9.723c.692.332.907.425 1.547.757 2.399 1.282 2.45.192 6.34-1.707l7.2-3.652c1.277-.617 6.128-3.367 7.245-3.605-.21-.618-.851-.852-1.492-1.184l-7.3-3.559c-3.68-1.66-7.356-3.699-11.036-5.265l-7.3-3.559c-2.508-1.14-5.012-2.183-7.36-3.511l-36.832-17.696c-.746-.332-1.172-.52-1.813-.898l-14.82-7.117c-.691-.332-1.117-.57-1.808-.903-.375-.187-.536-.234-.856-.379l-19.457-9.39C131.398 2.848 125.691 0 125 0c-.586 0-4.691 2.184-5.598 2.562L77.238 22.867a20.31 20.31 0 0 0-1.863.852L45.844 37.902c-.696.332-1.016.57-1.813.903l-2.668 1.28c-.531.24-.531.333-.957.52-.586.333-1.226.477-1.867.856l-5.648 2.703c-.746.332-1.121.617-1.813.902l-8.582 4.176c-.32.14-.32.094-.586.235-1.226.617-2.508 1.046-3.68 1.757-.69.38-1.12.52-1.867.852l-8.261 4.082c-.641.332-.48.047-.692.71zm0 0"/></g></svg>