<svg xmlns="http://www.w3.org/2000/svg" xmlns:xlink="http://www.w3.org/1999/xlink" width="250" height="250"><linearGradient id="c" x1="456.831" x2="502.969" y1="337.654" y2="289.539" gradientTransform="matrix(.29676 0 0 .41996 .078 0)" gradientUnits="userSpaceOnUse"><stop offset="0" stop-color="#39b54a"/><stop offset=".289" stop-color="#38b149"/><stop offset=".455" stop-color="#34a847"/><stop offset=".591" stop-color="#2e9d44"/><stop offset=".709" stop-color="#238d40"/><stop offset=".817" stop-color="#137a3a"/><stop offset=".915" stop-color="#006431"/><stop offset="1" stop-color="#004e26"/></linearGradient><linearGradient id="a"><stop offset="0" stop-color="#81c341"/><stop offset="1" stop-color="#009444"/></linearGradient><linearGradient xlink:href="#a" id="d" x1="345.264" x2="524.818" y1="290.352" y2="224.065" gradientTransform="matrix(.29676 0 0 .41996 .078 0)" gradientUnits="userSpaceOnUse"/><linearGradient xlink:href="#a" id="e" x1="417.341" x2="354.011" y1="296.984" y2="274.879" gradientTransform="matrix(.29676 0 0 .41996 .078 0)" gradientUnits="userSpaceOnUse"/><linearGradient id="b"><stop offset="0" stop-color="#009444"/><stop offset=".015" stop-color="#209844"/><stop offset=".076" stop-color="#5aa643"/><stop offset=".141" stop-color="#7ab341"/><stop offset=".209" stop-color="#92bf3f"/><stop offset=".283" stop-color="#a4c93d"/><stop offset=".365" stop-color="#afd03b"/><stop offset=".472" stop-color="#b2d33b"/><stop offset=".579" stop-color="#aed03b"/><stop offset=".671" stop-color="#a2c83d"/><stop offset=".758" stop-color="#8fbd3f"/><stop offset=".842" stop-color="#75b141"/><stop offset=".922" stop-color="#51a343"/><stop offset="1" stop-color="#009444"/></linearGradient><linearGradient xlink:href="#b" id="f" x1="397.272" x2="337.701" y1="211.069" y2="317.445" gradientTransform="matrix(.29676 0 0 .41996 .078 0)" gradientUnits="userSpaceOnUse"/><linearGradient id="g" x1="421" x2="533.01" y1="275.351" y2="275.351" gradientTransform="matrix(.29676 0 0 .41996 .078 0)" gradientUnits="userSpaceOnUse"><stop offset="0" stop-color="#51b848"/><stop offset=".609" stop-color="#51b848"/><stop offset=".707" stop-color="#51b848"/><stop offset=".794" stop-color="#4bb148"/><stop offset=".903" stop-color="#35a447"/><stop offset="1" stop-color="#069447"/></linearGradient><linearGradient xlink:href="#a" id="h" x1="458.49" x2="396.355" y1="298.593" y2="328.466" gradientTransform="matrix(.29676 0 0 .41996 .078 0)" gradientUnits="userSpaceOnUse"/><linearGradient xlink:href="#b" id="i" x1="364.697" x2="460.008" y1="280.325" y2="375.635" gradientTransform="matrix(.29676 0 0 .41996 .078 0)" gradientUnits="userSpaceOnUse"/><linearGradient id="j" x1="469.13" x2="509.16" y1="335.485" y2="291.274" gradientTransform="matrix(.29676 0 0 .41996 .078 0)" gradientUnits="userSpaceOnUse"><stop offset=".04" stop-color="#81c341" stop-opacity="0"/><stop offset=".766" stop-color="#009444"/></linearGradient><path fill="url(#c)" d="M158.254 112.297c0 6.594-1.04 12.851-2.941 18.433-3.055 9.114-8.278 16.465-14.778 20.708l-5.55-20.368c3.386-2.648 5.995-7.058 7.183-12.347.445-2.016.684-4.2.684-6.426 0-.547 0-1.094-.032-1.598 0-.207-.03-.418-.03-.629h15.401c.063.715.063 1.47.063 2.227zm0 0"/><path fill="url(#d)" d="M158.105 69.168h-30.003c-16.829 0-30.895 19.484-30.805 43.297.031 7.726 1.484 14.992 4.008 21.25 4.21 10.414 11.394 18.097 19.941 20.746-8.516-2.649-15.73-10.332-19.941-20.746a61.409 61.409 0 0 1-.297-6.008c0-28.05 20.238-34.937 21.097-35.234h.032c1.722-1.008 3.648-1.551 5.61-1.551h14.956c8.516 0 15.402-9.746 15.402-21.754zm0 0"/><path fill="#383838" d="M140.566 151.438c-3.89 2.558-8.222 3.988-12.793 3.988-1.246 0-2.46-.125-3.648-.293-.684-.125-1.367-.254-2.047-.465-.27-.082-.566-.168-.832-.25-8.516-2.645-15.73-10.332-19.941-20.746a61.331 61.331 0 0 1-.297-6.004c0-28.055 20.238-34.941 21.097-35.234-5.546 3.148-9.464 10.875-9.464 19.82 0 11.8 6.765 21.375 15.105 21.375 2.64 0 5.102-.965 7.238-2.602zm0 0"/><path fill="url(#e)" d="M140.566 151.438c-3.89 2.558-8.222 3.988-12.793 3.988-1.246 0-2.46-.125-3.648-.293-.684-.125-1.367-.254-2.047-.465-.27-.082-.566-.168-.832-.25-8.516-2.645-15.73-10.332-19.941-20.746a61.331 61.331 0 0 1-.297-6.004c0-28.055 20.238-34.941 21.097-35.234-5.546 3.148-9.464 10.875-9.464 19.82 0 11.8 6.765 21.375 15.105 21.375 2.64 0 5.102-.965 7.238-2.602zm0 0"/><path fill="url(#f)" d="M101.305 133.672c-.297-2.309-.504-4.621-.477-6.973-.027-2.351.149-4.703.445-7.011.625-4.66 2.079-9.07 4.098-12.895a35.746 35.746 0 0 1 3.442-5.164 29.816 29.816 0 0 1 4.066-4.113 25.85 25.85 0 0 1 4.48-3.067c1.543-.84 3.114-1.554 4.746-1.976a30.807 30.807 0 0 0-4.57 2.562 36.667 36.667 0 0 0-4.273 3.36 39.154 39.154 0 0 0-3.887 4.16 31.848 31.848 0 0 0-3.293 5.039c-.98 1.804-1.812 3.777-2.523 5.836a41.312 41.312 0 0 0-1.602 6.468c-.121.547-.18 1.133-.238 1.68s-.18 1.133-.207 1.723l-.149 1.719c-.031.59-.058 1.136-.09 1.722-.148 2.27-.09 4.621.032 6.93zm0 0"/><path fill="url(#g)" d="M158.254 110.324v1.973c0 3.777-.36 7.433-.98 10.918a54.677 54.677 0 0 1-1.93 7.515c.922-10.582-8.516-11.968-13.145-12.05-1.484 0-2.465.082-2.465.082h-6.054c-2.848 0-5.371-1.93-6.973-4.953-1.07-2.059-1.723-4.579-1.723-7.309 0-1.637.477-3.148 1.246-4.242.774-1.09 1.84-1.762 3-1.762h22.047c3.86.043 6.977 4.41 6.977 9.828zm0 0"/><path fill="url(#h)" d="M155.344 130.73c-3.055 9.114-8.281 16.465-14.778 20.708-34.011 3.44-27.898-39.141-27.898-39.141 0 11.8 6.77 21.375 15.105 21.375 2.641 0 5.106-.965 7.243-2.602.535-.422 1.039-.843 1.511-1.347 2.645-2.688 4.66-6.508 5.641-11 4.66.039 14.066 1.468 13.176 12.007zm0 0"/><path fill="url(#i)" d="M140.566 151.438c-.98.125-1.96.25-2.937.335-.98.04-1.961.04-2.941.082l-1.481-.125c-.508-.042-.98-.042-1.484-.125l-1.485-.296-.742-.125-.71-.211-1.458-.418c-.473-.168-.95-.422-1.422-.63l-.715-.296-.68-.375-.683-.379a4.07 4.07 0 0 1-.683-.422l-1.336-.965c-.446-.336-.829-.754-1.274-1.133-.445-.378-.8-.84-1.219-1.261l-.593-.672-.535-.797c-1.454-1.973-2.668-4.242-3.59-6.762-.918-2.52-1.57-5.207-1.989-7.937-.8-5.5-.77-11.211.059-16.63a70.48 70.48 0 0 0-.207 8.274c.09 2.73.355 5.5.832 8.145.918 5.293 2.73 10.332 5.52 14.027 1.394 1.848 2.968 3.403 4.687 4.621.21.168.445.293.652.418l.657.422.652.418.68.336 1.367.633 1.394.504c3.828 1.215 7.746 1.511 11.664 1.344zm0 0"/><path fill="url(#j)" d="M155.344 130.73a48.516 48.516 0 0 1-1.899 4.833c-3.117 6.886-7.597 12.386-12.879 15.875l-4.007-21.754c2.64-2.688 4.66-6.512 5.64-11.004 4.63.082 14.035 1.511 13.145 12.05zm0 0"/><g fill="#fff"><path d="M135.344 107.469h-.89c-.122 0-.208-.13-.208-.297v-1.258c0-.883-.508-1.64-1.16-1.64-.621 0-1.156.714-1.156 1.64v1.258c0 .168-.09.297-.207.297h-.891c-.625 0-1.156.71-1.156 1.636 0 .883.504 1.637 1.156 1.637h.89c.118 0 .208.125.208.293v1.262c0 .883.504 1.637 1.156 1.637.625 0 1.16-.715 1.16-1.637v-1.262c0-.168.086-.293.207-.293h.89c.622 0 1.157-.715 1.157-1.637 0-.882-.504-1.636-1.156-1.636zM151.16 105.871c0 .883-.504 1.598-1.129 1.598-.62 0-1.129-.715-1.129-1.598 0-.883.508-1.598 1.13-1.598.624 0 1.128.715 1.128 1.598zM151.16 112.34c0 .879-.504 1.594-1.129 1.594-.62 0-1.129-.715-1.129-1.594 0-.883.508-1.598 1.13-1.598.624 0 1.128.715 1.128 1.598zM148.875 109.105c0 .88-.504 1.594-1.129 1.594-.621 0-1.125-.715-1.125-1.594 0-.882.504-1.597 1.125-1.597.625 0 1.129.715 1.129 1.597zM153.445 109.105c0 .88-.504 1.594-1.129 1.594-.62 0-1.129-.715-1.129-1.594 0-.882.508-1.597 1.13-1.597.624 0 1.128.715 1.128 1.597zm0 0"/></g><path fill="#39b54a" d="M155.344 130.73c.18-1.55 0-3.105-.446-4.492a8.652 8.652 0 0 0-2.046-3.402 9.389 9.389 0 0 0-2.88-2.016c-1.007-.504-2.077-.84-3.144-1.09-2.137-.503-4.332-.671-6.531-.714-2.195-.043-4.39-.168-6.586-.336 2.195-.168 4.39-.254 6.586-.336l1.664-.043c.562 0 1.098.043 1.66.043 1.098.125 2.227.25 3.293.504 1.102.293 2.2.629 3.238 1.175 1.036.547 2.075 1.262 2.965 2.27.89.965 1.633 2.266 2.047 3.777.387 1.512.477 3.192.18 4.66zm0 0"/></svg>