<svg xmlns="http://www.w3.org/2000/svg" width="250" height="250"><path fill="#ff0025" d="M125 250c69.035 0 125-55.965 125-125S194.035 0 125 0 0 55.965 0 125s55.965 125 125 125zm0 0"/><path fill="#fff" d="M124.273 63.16a4.324 4.324 0 0 0-4.324 4.328V182.82a4.324 4.324 0 1 0 8.649 0V67.488a4.324 4.324 0 0 0-4.325-4.328zm0 0"/><path fill="none" stroke="#fff" stroke-width=".5" d="M124.273 63.16a4.324 4.324 0 0 1 4.325 4.328V182.82a4.324 4.324 0 1 1-8.649 0V67.488a4.324 4.324 0 0 1 4.324-4.328zm0 0"/><path fill="#fff" d="M187.254 124.953a4.327 4.327 0 0 0-4.328-4.324H67.594a4.326 4.326 0 0 0 0 8.652h115.332a4.328 4.328 0 0 0 4.328-4.328zm0 0"/><path fill="none" stroke="#fff" stroke-width=".5" d="M187.254 124.953a4.328 4.328 0 0 1-4.328 4.328H67.594a4.327 4.327 0 0 1 0-8.652h115.332a4.327 4.327 0 0 1 4.328 4.324zm0 0"/><path fill="#fff" d="M169.152 169.21a4.333 4.333 0 0 0 0-6.12l-81.55-81.55a4.329 4.329 0 0 0-6.118 0 4.322 4.322 0 0 0 0 6.116l81.551 81.555a4.329 4.329 0 0 0 6.117 0zm0 0"/><path fill="none" stroke="#fff" stroke-width=".5" d="M169.152 169.21a4.329 4.329 0 0 1-6.117 0l-81.55-81.554a4.322 4.322 0 0 1 0-6.117 4.329 4.329 0 0 1 6.117 0l81.55 81.55a4.333 4.333 0 0 1 0 6.122zm0 0"/><path fill="#fff" d="M63.367 185.559a4.329 4.329 0 0 0 6.117 0L185.152 69.89a4.322 4.322 0 0 0 0-6.118 4.322 4.322 0 0 0-6.117 0L63.367 179.441a4.329 4.329 0 0 0 0 6.118zm0 0"/><path fill="none" stroke="#fff" stroke-width=".5" d="M63.367 185.559a4.329 4.329 0 0 1 0-6.118L179.035 63.773a4.322 4.322 0 0 1 6.117 0 4.322 4.322 0 0 1 0 6.118L69.484 185.559a4.329 4.329 0 0 1-6.117 0zm0 0"/></svg>