<svg xmlns="http://www.w3.org/2000/svg" width="250" height="250"><linearGradient id="a" x1="67.119" x2="182.881" y1="24.746" y2="225.254" gradientUnits="userSpaceOnUse"><stop offset="0" stop-color="#0095d7"/><stop offset="1" stop-color="#0072aa"/></linearGradient><path fill="#fff" d="M249.512 125c0 68.766-55.746 124.512-124.512 124.512S.488 193.766.488 125 56.234.488 125 .488 249.512 56.234 249.512 125zm0 0"/><path fill="url(#a)" d="M240.746 125c0 63.926-51.82 115.746-115.746 115.746S9.254 188.926 9.254 125 61.074 9.254 125 9.254 240.746 61.074 240.746 125zm0 0"/><path fill="#fff" d="m168.328 192.79-5.195-14.915a1.46 1.46 0 0 0-1.461-1.352c-.168 0-.336.036-.492.094a52.822 52.822 0 0 1-16.38 2.496 49.318 49.318 0 0 1-16.632-2.793 61.759 61.759 0 0 0-18.664-3.566 66.886 66.886 0 0 0 7.93-14.434c1.691-4.16 3.84-14.922 3.84-21.09v-2.261h33.343c.813 0 1.469-.653 1.469-1.461v-14.254c0-.809-.656-1.465-1.469-1.465h-37.355l-.563-1.422a97.374 97.374 0 0 0-3.676-8.082 197.065 197.065 0 0 1-3.804-7.812 69.922 69.922 0 0 1-2.996-7.66 25.882 25.882 0 0 1-1.29-8c0-5.61 1.922-10.38 5.712-14.157 3.789-3.781 8.703-5.715 14.597-5.715 5.656 0 11.477 1.63 17.336 4.883a44.237 44.237 0 0 1 11.543 9.239 1.46 1.46 0 0 0 2.2-.024l10.117-11.855a1.47 1.47 0 0 0 0-1.895 55.015 55.015 0 0 0-16.989-13.512 51.578 51.578 0 0 0-23.785-5.765 47.015 47.015 0 0 0-16.508 2.863 44.218 44.218 0 0 0-13.39 7.766 35.79 35.79 0 0 0-8.899 11.425 31.184 31.184 0 0 0-3.203 13.965 38.5 38.5 0 0 0 3.547 16.246c2.402 5.223 4.969 10.711 7.617 16.309l1.535 3.227H81.055c-.809 0-1.465.656-1.465 1.464v14.254c0 .809.656 1.465 1.465 1.465h20.238v2.262a45.539 45.539 0 0 1-5.996 23.047c-3.758 6.53-10.102 12.504-16.395 17.984-.375.328-.558.82-.488 1.313.047.382.246.734.555.976l.035.067 6.914 14.101a1.466 1.466 0 0 0 2.086 1.07 44.924 44.924 0 0 1 17.703-3.605 40.21 40.21 0 0 1 13.613 2.316 71.007 71.007 0 0 0 24.008 4.075c13.758 0 23.734-3.758 24.152-3.907.368-.136.665-.414.825-.773.16-.36.168-.77.027-1.133zm0 0"/></svg>