<svg width="144" height="144" fill="none" xmlns="http://www.w3.org/2000/svg">
  <path fill-rule="evenodd" clip-rule="evenodd" d="M44.8 34.59c.04.05.32.45.6.88a9.18 9.18 0 0 0 5.2 3.58c.44.1 1.08.22 2.07.34l-2.91 2.88a90.33 90.33 0 0 0-4.36 4.66c-.81.96-1.97 2.46-2.59 3.31a53.3 53.3 0 0 0-2.1 3.21 46.03 46.03 0 0 0-3.3 6.7c-.36.87-.82 2.28-1.08 3.12a44.13 44.13 0 0 0-1.22 5.7c-.19 1.2-.24 2.35-.24 5.24 0 2.93.05 4.03.24 5.24.13.83.38 2.21.57 3.05a40.89 40.89 0 0 0 2.35 6.96 39.62 39.62 0 0 0 3.04 5.44c.49.73 1.4 1.95 2 2.72a42.1 42.1 0 0 0 5.53 5.51 40.8 40.8 0 0 0 8.6 5.16c.63.27 1.55.64 2.07.83a40.64 40.64 0 0 0 5.07 1.43c.87.17 2.38.41 3.33.53a48.48 48.48 0 0 0 8.66 0c.95-.12 2.34-.33 3.07-.48a41.37 41.37 0 0 0 6.2-1.8 43.52 43.52 0 0 0 6.2-3.12 53.3 53.3 0 0 0 2.67-1.84 39.94 39.94 0 0 0 5.33-4.88c.67-.76 1.68-2.02 2.27-2.8a39.89 39.89 0 0 0 3.78-6.43 41.53 41.53 0 0 0 2.47-7.23c.19-.84.43-2.15.55-2.92.12-.77.25-2.65.29-4.18a45.8 45.8 0 0 0-.08-4.57c-.1-.99-.28-2.48-.43-3.32a43.77 43.77 0 0 0-1.52-5.9 58.4 58.4 0 0 0-1.34-3.38 47.44 47.44 0 0 0-3.86-6.9A56.54 56.54 0 0 0 97 45.09a117 117 0 0 0-5.73-5.69l.66-.07a10.67 10.67 0 0 0 3.4-1 9.14 9.14 0 0 0 3.87-3.85l.84.56a63.8 63.8 0 0 1 4.83 3.7 62.71 62.71 0 0 1 5.83 5.96c.55.69 1.49 1.93 2.09 2.74.6.82 1.08 1.54 1.08 1.6 0 .06-.38.34-.82.63-.44.3-1.12.86-1.49 1.26-.39.4-.92 1.09-1.19 1.53-.26.43-.65 1.27-.86 1.85-.34.96-.38 1.24-.38 2.85 0 1.62.04 1.9.38 2.86.21.58.64 1.47.94 1.99.34.51 1.02 1.32 1.56 1.83a8.47 8.47 0 0 0 2.06 1.43c.58.28 1.45.6 1.93.74a11.47 11.47 0 0 0 4.13.05c.4-.09.75-.14.76-.12.03.03.16.7.31 1.5s.39 2.46.53 3.68c.19 1.56.27 3.06.27 5.04 0 1.93-.08 3.54-.27 5.08a71.57 71.57 0 0 1-.53 3.71c-.15.8-.28 1.47-.3 1.5a2.9 2.9 0 0 1-.77-.12 11.46 11.46 0 0 0-4.13.07c-.48.13-1.35.46-1.93.74a8.9 8.9 0 0 0-3.51 3.12c-.35.51-.8 1.43-1.01 2.05-.3.85-.4 1.46-.46 2.46-.05.98 0 1.6.18 2.38a10.53 10.53 0 0 0 2.21 4.25 11.45 11.45 0 0 0 2.39 1.88c.04.03-.3.57-.74 1.2-.44.64-1.4 1.9-2.12 2.82a60 60 0 0 1-3.26 3.63 62.94 62.94 0 0 1-3.56 3.32 60.22 60.22 0 0 1-4.82 3.57c-.1.06-.29-.1-.49-.48-.17-.3-.64-.9-1.03-1.34a10.52 10.52 0 0 0-3.38-2.32 12.1 12.1 0 0 0-1.87-.5 8.22 8.22 0 0 0-2.13-.11c-.59.05-1.46.21-1.94.36-.48.14-1.28.47-1.78.74-.51.28-1.31.85-1.79 1.29-.47.43-1.13 1.2-1.47 1.72-.34.52-.8 1.43-1 2.06a7.57 7.57 0 0 0-.45 2.45c-.04.82 0 1.67.12 2.24.1.58.12.92.04.96a69.36 69.36 0 0 1-5.73.84 50.8 50.8 0 0 1-4.4.27c-1.03 0-2.76-.1-3.87-.2a58.26 58.26 0 0 1-6.4-.92c-.1-.03-.08-.34.03-.88.09-.47.17-1.3.17-1.85 0-.54-.1-1.4-.2-1.92s-.48-1.5-.81-2.19a7.68 7.68 0 0 0-1.71-2.33 7.08 7.08 0 0 0-2.21-1.62 12.9 12.9 0 0 0-2-.78 10.17 10.17 0 0 0-4.4 0 9.71 9.71 0 0 0-3.97 2.15c-.47.43-1.1 1.15-1.4 1.59-.29.44-.6.77-.69.75-.08-.02-.82-.54-1.66-1.12-.84-.6-2.26-1.7-3.14-2.43a58.64 58.64 0 0 1-6.56-6.62 68.18 68.18 0 0 1-1.73-2.25l-1.07-1.5c-.21-.3-.36-.59-.32-.6l.67-.42c.33-.22.92-.68 1.32-1.05s1-1.09 1.33-1.6c.35-.52.79-1.44 1-2.06.28-.84.4-1.47.46-2.46a8.42 8.42 0 0 0-1.02-4.64 7.45 7.45 0 0 0-1.61-2.19 11.8 11.8 0 0 0-1.81-1.46 11.3 11.3 0 0 0-1.63-.75 9.86 9.86 0 0 0-3.97-.45c-.51.06-1.14.16-1.36.2-.44.08-.44.08-.58-.63l-.26-1.48c-.08-.44-.26-1.8-.4-3.03a40.4 40.4 0 0 1-.27-5.04c0-1.92.08-3.52.27-5.06a63.65 63.65 0 0 1 .83-5.22c.02-.02.37.03.77.12a11.48 11.48 0 0 0 4.13-.05 14.3 14.3 0 0 0 2-.78c.9-.44 1.36-.77 2.27-1.69a7.89 7.89 0 0 0 2.4-4.19 9.2 9.2 0 0 0 0-4.38c-.16-.58-.52-1.5-.8-2.05a9.54 9.54 0 0 0-2.92-3.25c-.44-.3-.82-.56-.82-.6 0-.04.48-.75 1.08-1.59.6-.83 1.6-2.15 2.23-2.92a60.98 60.98 0 0 1 7.16-7.05 61.2 61.2 0 0 1 2.87-2.14 6.03 6.03 0 0 1 1.33-.78ZM37.7 94.1c.42.73 1.07 1.83 1.47 2.46.4.62 1.1 1.6 1.54 2.18a44.8 44.8 0 0 0 4.04 4.58 40.9 40.9 0 0 0 7.72 5.77c.88.52 2.38 1.29 3.33 1.71.95.42 2.7 1.09 3.87 1.49 1.17.38 2.82.84 3.66 1.03a41.4 41.4 0 0 0 6.4.88c1.6.1 2.82.1 4.47 0 1.25-.08 2.85-.23 3.57-.34a46.84 46.84 0 0 0 5.43-1.19 42.28 42.28 0 0 0 6.73-2.7 42.84 42.84 0 0 0 7.99-5.44 39.06 39.06 0 0 0 4.55-4.72 40.31 40.31 0 0 0 4.65-7.25c.12-.29.19-.51.15-.51-.04 0-.32.43-.62.96a53.25 53.25 0 0 1-3.42 4.94c-.48.58-1.36 1.59-1.95 2.24-.6.64-1.7 1.71-2.45 2.39-.76.66-1.96 1.64-2.67 2.19-.72.53-1.87 1.34-2.56 1.8-.7.45-1.93 1.18-2.73 1.63a52.3 52.3 0 0 1-3 1.49 46.54 46.54 0 0 1-6.53 2.25c-.85.21-2.23.5-3.07.65-.84.15-2.32.33-3.27.43-1.08.09-2.64.13-4.13.08a44.4 44.4 0 0 1-4.2-.35 55.2 55.2 0 0 1-3.4-.66c-.88-.22-2.32-.63-3.2-.92a48.97 48.97 0 0 1-5.54-2.28 58.1 58.1 0 0 1-2.2-1.2 64.1 64.1 0 0 1-2.53-1.6c-.73-.49-1.96-1.4-2.73-2.01-.78-.61-2-1.69-2.72-2.36a44.53 44.53 0 0 1-4.82-5.5 55.6 55.6 0 0 1-2.06-3.11 51.73 51.73 0 0 0-1.15-1.86c-.04-.04.1.3.3.73.2.44.69 1.4 1.09 2.12Z" fill="#000"/>
  <path d="M57.79 24.84c.08.03.14.1.14.17l-.18 1.32c-.12.8-.16 1.81-.11 3.05.03 1.02.17 2.33.3 2.92a31.05 31.05 0 0 0 1.35 4.5 47.2 47.2 0 0 0 2.99 6.04c.52.92 2.23 3.69 3.79 6.17s3.22 5.2 3.69 6.03c.48.84 1.2 2.18 1.6 2.99a31.28 31.28 0 0 1 2.39 6.17c.22.83.46 2.24.54 3.11.12 1.2.12 1.96 0 3.12-.09.83-.3 2.1-.49 2.78-.21.79-.68 1.97-1.27 3.12a21.2 21.2 0 0 1-2.02 3.32 40.2 40.2 0 0 1-2.71 3.06c-.88.87-2.65 2.53-3.93 3.66a89.13 89.13 0 0 0-3.62 3.37c-.69.71-1.58 1.76-1.97 2.3-.39.55-.93 1.47-1.23 2.02a17.3 17.3 0 0 0-.84 2.12 14.92 14.92 0 0 0-.48 5.21c.07.8.08 1.5.03 1.56-.05.06-.63-.23-1.3-.64a39.27 39.27 0 0 1-2.46-1.7 38.92 38.92 0 0 1-5.36-5.12 38.04 38.04 0 0 1-2.13-2.85 37.39 37.39 0 0 1-3.51-6.9c-.28-.72-.7-2.1-.93-3.04-.24-.95-.56-2.42-.7-3.25-.2-1.25-.24-2.26-.22-5.44 0-3.33.04-4.2.29-5.77a36.84 36.84 0 0 1 1.5-6.23 40.84 40.84 0 0 1 2.35-5.17c.4-.74 1.34-2.3 2.08-3.5a12 12 0 0 1 1.5-2.1c.08.04.12.1.1.17-.01.06-.3.9-.64 1.84-.33.94-.74 2.38-.94 3.18-.24 1.04-.36 2-.42 3.32-.04 1.06-.01 2.18.07 2.59a6.46 6.46 0 0 0 1.25 2.94c.36.45.78.77 1.4 1.06.8.39 1.02.44 1.98.43a6.04 6.04 0 0 0 3.46-1.1 11.05 11.05 0 0 0 3.35-3.4 15.06 15.06 0 0 0 1.99-4.64 20.52 20.52 0 0 0 .25-8.36 28.4 28.4 0 0 0-.64-2.98c-.24-.92-.79-2.76-1.2-4.11-.41-1.36-.9-3.15-1.1-3.98a19.56 19.56 0 0 1-.4-3.85c-.06-1.78-.03-2.6.13-3.51.12-.65.4-1.77.62-2.46.23-.69.67-1.79.96-2.42.31-.64.62-1.14.7-1.12Z" fill="#F17300"/>
  <path d="M84.5 9.09c.02.03-.09.22-.22.43-.15.2-.53.93-.85 1.62a13.6 13.6 0 0 0-.87 2.32c-.15.59-.3 1.49-.36 2a12 12 0 0 0 .05 2.05 15.6 15.6 0 0 0 1.72 5.17c.43.84 1.42 2.6 2.2 3.91a65.07 65.07 0 0 1 2.08 3.78 23 23 0 0 1 .92 2.2 13.28 13.28 0 0 1 .7 4.11 4.3 4.3 0 0 1-.1 1.25c-.06 0-2.09-1.95-4.52-4.33a81.84 81.84 0 0 1-5.38-5.61c-.54-.7-1.2-1.65-1.48-2.13-.28-.47-.67-1.31-.87-1.85a7.63 7.63 0 0 1-.41-2.26 6.4 6.4 0 0 1 .21-2.39 14.34 14.34 0 0 1 1.97-4.24 38.71 38.71 0 0 1 3.98-4.88c.64-.68 1.2-1.2 1.22-1.15Z" fill="#000"/>
  <path d="M73.41 0c.11 0 .19.07.19.13 0 .07-.25.63-.55 1.24a38.23 38.23 0 0 0-2.36 6 43.7 43.7 0 0 0-.65 2.64 20.4 20.4 0 0 0-.24 3.78c0 2 .05 2.87.25 3.78.14.65.46 1.85.72 2.66.26.8.87 2.22 1.35 3.18.5.95 1.35 2.41 1.9 3.25a53.17 53.17 0 0 0 4.51 5.7c.68.77 1.63 1.8 2.12 2.31.48.5 2.5 2.45 4.47 4.31a170.2 170.2 0 0 1 5.45 5.39c1.03 1.1 2.35 2.56 2.92 3.24a73.79 73.79 0 0 1 4.33 5.7c.51.78 1.25 1.94 1.65 2.6a59.05 59.05 0 0 1 2.79 5.53 43.13 43.13 0 0 1 1.82 5.6c.17.73.43 2 .55 2.79.17 1.1.24 2.27.24 4.78 0 2.56-.06 3.66-.26 4.84a39.97 39.97 0 0 1-1.63 6.37 38.8 38.8 0 0 1-1.46 3.3 38.67 38.67 0 0 1-1.99 3.46c-.56.83-1.52 2.12-2.13 2.85-.6.73-1.67 1.87-2.35 2.53-.69.65-1.7 1.55-2.25 2-.55.43-1.48 1.13-2.07 1.53-.58.41-1.73 1.11-2.53 1.58-.81.45-2.04 1.09-2.73 1.4a41.2 41.2 0 0 1-5.34 1.83 28.54 28.54 0 0 1-7.33.95 30.15 30.15 0 0 1-11-1.52l-.25-.83a9.83 9.83 0 0 1-.27-2.9c-.01-1.78.03-2.2.3-3.12.17-.59.51-1.52.77-2.06.25-.54.85-1.56 1.32-2.25.46-.7 1.24-1.74 1.73-2.32.48-.59 2.07-2.33 3.52-3.85a312.9 312.9 0 0 0 3.47-3.71 31.07 31.07 0 0 0 3.5-4.7 21.22 21.22 0 0 0 2.04-4.72 19.88 19.88 0 0 0 .87-6.1c0-1.08-.1-2.59-.21-3.42a31.96 31.96 0 0 0-1.74-6.33 60.84 60.84 0 0 0-1.64-3.58 70.16 70.16 0 0 0-2.28-4.11 125.7 125.7 0 0 0-3.08-4.78c-1-1.5-2.56-3.77-3.45-5.04a39.31 39.31 0 0 1-2.33-3.71 26.3 26.3 0 0 1-1.11-2.59 24.65 24.65 0 0 1-1.1-4.9 35.1 35.1 0 0 1-.13-2.92c0-.96.1-2.47.2-3.39a40.92 40.92 0 0 1 3.4-12.07c.24-.54.74-1.59 1.1-2.32a52.15 52.15 0 0 1 4.23-6.88c.6-.8 1.43-1.84 1.83-2.3.42-.46.83-.83.92-.83Z" fill="#E03597"/>
</svg>
