<svg xmlns="http://www.w3.org/2000/svg" width="250" height="250"><path fill="#334b63" fill-rule="evenodd" d="M125 0c69.035 0 125 55.965 125 125s-55.965 125-125 125S0 194.035 0 125 55.965 0 125 0zm0 0"/><g fill="#fff"><path d="M100.672 88.379c-2.129 0-3.856-1.574-3.856-3.512s1.727-3.512 3.856-3.512h47.945c2.13 0 3.856 1.575 3.856 3.512s-1.727 3.512-3.856 3.512zM117.805 190.945c-2.13 0-3.856-1.574-3.856-3.511s1.727-3.512 3.856-3.512h14.539c2.129 0 3.855 1.574 3.855 3.512s-1.726 3.511-3.855 3.511zM115.66 109.457c-2.129 0-3.855-1.57-3.855-3.508s1.726-3.511 3.855-3.511h17.969c2.129 0 3.855 1.574 3.855 3.511s-1.726 3.508-3.855 3.508zm0 0"/><path d="M106.605 165.86a4.185 4.185 0 1 1 6.391 5.406l-23.34 27.625c-.148.257-.215.57-.215.902 0 .41.098.816.274 1.176.168.351.383.636.625.82a.7.7 0 0 0 .41.152h68.5a.71.71 0 0 0 .41-.152c.242-.184.457-.473.625-.82.176-.36.274-.766.274-1.176 0-.332-.067-.648-.215-.902l-59.727-70.692-2.066-2.433c-6.813-7.993-15.778-18.504-19.649-28.961a46.064 46.064 0 0 1-1.09-3.352c-3.3-11.629-1.687-23.734 3.641-33.988 5.32-10.227 14.352-18.633 25.899-22.906a49.674 49.674 0 0 1 3.546-1.157c4.735-1.343 9.422-2.015 14.102-2.015v.02c4.723 0 9.41.663 14.105 1.995 1.23.352 2.41.739 3.543 1.157 11.551 4.27 20.582 12.68 25.899 22.91 5.328 10.25 6.945 22.355 3.64 33.988a44.716 44.716 0 0 1-1.09 3.348c-3.867 10.453-12.827 20.96-19.64 28.953l-4.238 5c-1.406 1.664-2.797 3.3-4.645 5.508a4.187 4.187 0 1 1-6.422-5.375c1.246-1.485 2.973-3.524 4.676-5.54l4.274-5.035c6.382-7.484 14.777-17.332 18.132-26.394.34-.93.641-1.84.891-2.727 2.7-9.507 1.363-19.43-3.016-27.86-4.394-8.456-11.84-15.394-21.343-18.91a38.002 38.002 0 0 0-2.922-.956c-4.004-1.137-7.942-1.707-11.844-1.707v.02c-3.941 0-7.879.562-11.84 1.683-.969.277-1.945.597-2.922.96-9.504 3.516-16.949 10.454-21.343 18.91-4.383 8.43-5.72 18.352-3.02 27.86.254.887.55 1.797.895 2.727 3.355 9.066 11.753 18.918 18.14 26.406l2.098 2.465 59.777 70.754-.008.008.137.172a9.927 9.927 0 0 1 2.035 6.066c0 1.668-.406 3.332-1.125 4.816a10.697 10.697 0 0 1-3.117 3.836c-1.555 1.176-3.414 1.89-5.457 1.89h-68.5c-2.04 0-3.902-.714-5.457-1.89a10.705 10.705 0 0 1-3.117-3.836 11.134 11.134 0 0 1-1.125-4.816c0-1.969.554-3.969 1.804-5.754.106-.168.227-.336.36-.492zm0 0"/><path d="M115.66 68.496c-2.129 0-3.855-1.57-3.855-3.508s1.726-3.511 3.855-3.511h17.969c2.129 0 3.855 1.574 3.855 3.511s-1.726 3.508-3.855 3.508zm0 0"/></g></svg>