<svg xmlns="http://www.w3.org/2000/svg" viewBox="0 0 1000 1000" fill="#000000"><path d="M5 500.496c0 271.98 220.55 494.507 495.496 494.507 271.98 0 494.507-220.55 494.507-495.496C995.003 227.528 773.464 5 500.496 5 226.54 5 5 225.55 5 500.496zm172.088.99c28.682-21.76 50.44-39.561 74.177-64.287-28.682-21.758-49.451-44.505-69.231-60.33C290.825 266.1 394.672 161.264 500.496 53.462 604.343 161.264 713.134 266.1 820.936 377.858c-15.823 14.836-38.57 37.583-67.252 59.341 28.681 24.726 47.473 42.528 73.187 64.286-21.758 23.736-44.506 42.528-73.187 63.297 28.681 24.725 47.473 47.473 67.253 63.297-107.803 109.78-210.66 215.605-320.44 319.452C394.671 843.684 290.824 737.86 182.033 624.123c19.78-15.824 40.55-34.616 64.285-59.34-23.736-20.77-44.505-39.562-69.23-63.298zm65.275 126.593c86.045 88.022 175.056 177.034 258.133 265.056C585.551 805.113 677.53 716.1 762.585 628.079c-8.901-8.901-21.758-19.78-30.66-34.616-77.143 78.133-155.275 152.309-231.429 231.43-73.187-79.121-150.33-153.297-226.484-226.484-8.901 9.89-22.747 20.769-31.649 29.67zm0-126.594c8.902 8.901 22.748 23.736 31.649 33.627 6.923-9.89 21.758-24.726 35.604-33.627-13.846-12.857-22.747-21.758-35.604-35.604-8.901 13.846-22.747 22.747-31.649 35.604zm0-130.55c8.902 6.923 22.748 21.759 31.649 40.55 76.154-78.132 153.297-152.308 231.43-231.43 76.153 79.122 149.34 149.342 226.484 226.485 8.9-13.846 21.758-22.748 30.659-35.605-85.055-86.044-177.034-172.088-262.089-259.121-87.033 87.033-172.088 173.077-258.133 259.121zm63.297 193.847C372.913 628.08 437.2 697.31 505.441 760.607c64.286-63.297 124.616-126.594 193.847-195.825-9.89-9.89-21.758-20.77-34.615-35.604-54.396 54.395-109.781 108.791-168.133 162.198-50.44-53.407-103.846-107.803-161.21-162.198-6.922 14.835-19.78 25.714-29.67 35.604zm3.956-127.583c9.89 9.89 18.792 24.726 31.649 38.572 53.407-60.33 110.77-108.792 164.176-163.188 49.451 54.396 104.836 108.792 159.232 157.254 12.857-7.912 22.747-22.748 34.615-32.638-69.231-66.264-135.495-129.56-193.847-192.858C437.2 307.638 372.913 376.87 309.616 437.2zm63.297 59.341c44.506 47.473 86.045 92.967 127.583 131.539 44.506-38.572 90.99-84.066 129.561-126.594-38.572-45.495-85.055-90-124.616-130.55-46.483 44.506-91.978 85.055-132.528 125.605zm321.43 0c14.835 13.846 27.692 28.681 37.583 38.572 8.9-9.89 21.758-18.792 34.615-33.627-12.857-12.857-25.714-21.758-34.615-35.604-13.847 13.846-28.682 22.747-37.583 30.66z"></path></svg>