<svg width="250" height="272" viewBox="0 0 250 272" fill="none" xmlns="http://www.w3.org/2000/svg">
<rect width="250" height="271.277" fill="url(#paint0_linear_701_31)"/>
<g clip-path="url(#clip0_701_31)">
<path d="M124.987 258.459L125.007 258.449C125.007 258.449 125.004 258.467 125.002 258.474L124.987 258.459V258.459Z" fill="white"/>
<path d="M127.147 258.449L127.167 258.459L127.152 258.474C127.152 258.474 127.149 258.457 127.147 258.449V258.449Z" fill="white"/>
<path d="M106.807 112.427C106.427 113.012 106.216 113.656 106.158 114.302C107.443 115.078 109.003 115.547 110.352 114.726C109.644 116.067 108.28 116.69 106.812 116.928C107.116 117.4 107.522 117.816 108.024 118.14C109.941 119.382 112.499 118.835 113.742 116.921C114.365 115.96 114.535 114.837 114.31 113.798C115.362 114.391 116.341 115.017 117.172 115.588C117.162 115.945 117.129 116.312 117.071 116.69C117.053 116.812 117.03 116.959 117.002 117.121C116.911 117.651 116.777 118.325 116.703 118.723C116.665 118.921 116.63 119.118 116.594 119.316C115.737 119.775 114.753 120.102 113.8 120.386C111.487 121.025 109.02 121.334 106.586 121.202C104.72 121.098 102.938 120.305 101.683 118.921C101.672 118.908 101.66 118.895 101.65 118.883C100.866 118.003 100.752 116.71 101.343 115.694C102.179 114.252 103.214 112.949 104.517 112.105C105.435 111.512 106.541 111.329 107.73 111.423C107.38 111.699 107.063 112.031 106.807 112.427V112.427Z" fill="white"/>
<path d="M139.799 209.067C138.937 211.566 138.739 213.617 139.206 215.186C139.188 215.328 139.155 215.503 139.112 215.698C125.078 210.618 113.255 215.591 113.011 215.695C113.009 215.698 113.006 215.698 113.006 215.698C112.963 215.5 112.93 215.328 112.912 215.186C113.379 213.617 113.181 211.564 112.319 209.067C112.469 208.018 113.288 206.198 117.707 204.852C117.707 204.852 126.044 202.558 134.411 204.852C138.831 206.198 139.65 208.02 139.799 209.067Z" fill="white"/>
<path d="M126.059 84.5138C121.564 84.1843 112.902 81.8954 112.902 81.8954L126.059 79.3759L139.216 81.8954C139.216 81.8954 130.555 84.1843 126.059 84.5138Z" fill="white"/>
<path d="M138.953 225.361C140.662 227.044 141.412 229.307 141.24 232.28C141.077 235.117 140.291 237.505 138.861 239.474C136.955 235.609 134.026 232.382 130.172 230.42C132.664 233.687 133.861 237.532 133.709 241.603C133.676 242.328 133.608 243.046 133.509 243.76C133.473 243.778 133.438 243.793 133.402 243.811C128.765 246.011 123.359 246.019 118.724 243.816C118.701 243.806 118.676 243.796 118.653 243.783C118.549 243.056 118.481 242.328 118.448 241.603C118.306 238.006 119.279 234.288 121.366 231.292L121.982 230.42C121.62 230.63 120.93 230.995 120.57 231.216C117.276 233.317 114.916 236.199 113.28 239.507C111.845 237.538 111.054 235.147 110.887 232.306C110.709 229.332 111.455 227.066 113.164 225.383C115.473 223.105 119.297 222.086 122.578 221.68C123.549 221.601 124.495 221.553 125.408 221.541C126.97 221.52 128.438 221.586 129.797 221.708C133.017 222.131 136.698 223.148 138.953 225.361V225.361Z" fill="white"/>
<path d="M137.832 113.785C137.601 114.827 137.771 115.955 138.397 116.921C139.637 118.835 142.198 119.382 144.112 118.14C144.614 117.816 145.023 117.4 145.327 116.928C143.859 116.69 142.492 116.067 141.785 114.726C143.136 115.547 144.695 115.078 145.981 114.302C145.92 113.656 145.71 113.012 145.329 112.427C145.073 112.031 144.759 111.697 144.406 111.423C145.591 111.332 146.688 111.517 147.601 112.105C148.904 112.949 149.939 114.252 150.776 115.694C151.366 116.71 151.252 118.003 150.469 118.883C150.459 118.895 150.446 118.908 150.436 118.921C149.181 120.305 147.398 121.098 145.532 121.202C143.098 121.334 140.631 121.025 138.319 120.386C137.365 120.102 136.381 119.775 135.524 119.316C135.489 119.118 135.453 118.921 135.415 118.723C135.342 118.325 135.207 117.651 135.116 117.121C135.088 116.959 135.065 116.812 135.048 116.69C134.989 116.313 134.956 115.945 134.946 115.588C135.786 115.015 136.772 114.381 137.832 113.785V113.785Z" fill="white"/>
<path d="M137.568 129.194C137.228 128.076 136.949 126.925 136.704 125.759C141.435 127.871 146.99 124.877 146.99 124.877C145.494 124.865 144.173 124.5 143.073 124.016C143.301 124.061 150.824 125.481 156.002 116.67C154.769 113.05 152.061 109.04 146.95 107.745C143.674 106.916 140.54 107.651 137.976 108.815C138.803 108.001 139.749 107.273 140.748 106.63C141.785 105.96 142.88 105.382 143.96 104.891C140.824 104.86 137.497 105.811 134.921 107.714C133.529 108.741 132.355 110.046 131.551 111.626C130.745 113.174 130.352 114.89 130.273 116.609C130.251 117.131 130.256 117.653 130.286 118.173L130.329 119.301C130.337 119.425 130.344 119.549 130.352 119.676C130.387 120.246 130.42 120.834 130.458 121.44C130.758 126.378 131.265 132.292 134.335 136C135.177 137.011 136.26 137.865 137.434 138.466C138.156 138.803 138.958 139.171 139.657 139.637C140.215 140.005 140.71 140.436 141.052 140.958C141.716 141.949 141.364 143.186 140.588 144.081C140.03 144.725 139.257 145.193 138.478 145.275C138.362 145.285 138.243 145.292 138.123 145.297C134.924 145.46 131.807 146.428 129.186 148.271C128.303 148.892 127.223 149.257 126.059 149.257C124.895 149.257 123.815 148.892 122.933 148.271C120.311 146.428 117.195 145.46 113.995 145.297C113.876 145.292 113.757 145.285 113.64 145.275C112.862 145.193 112.088 144.725 111.531 144.081C110.755 143.186 110.402 141.949 111.067 140.958C111.409 140.436 111.903 140.005 112.461 139.637C113.161 139.171 113.962 138.803 114.685 138.466C115.859 137.865 116.941 137.011 117.783 136C120.854 132.292 121.361 126.378 121.66 121.44C121.698 120.834 121.731 120.246 121.767 119.676C121.774 119.549 121.782 119.425 121.789 119.301L121.833 118.173C121.863 117.653 121.868 117.131 121.845 116.609C121.767 114.89 121.374 113.174 120.567 111.626C119.764 110.046 118.59 108.741 117.198 107.714C114.621 105.811 111.295 104.86 108.158 104.891C109.238 105.382 110.334 105.96 111.371 106.63C112.37 107.273 113.316 108.001 114.142 108.815C111.579 107.651 108.445 106.916 105.169 107.745C100.057 109.04 97.3493 113.05 96.117 116.67C101.295 125.481 108.818 124.061 109.046 124.016C107.945 124.5 106.624 124.865 105.128 124.877C105.128 124.877 110.684 127.871 115.415 125.757C115.169 126.925 114.89 128.076 114.55 129.194C113.904 131.088 113.316 132.373 111.721 133.212C110.314 133.858 109.008 134.715 107.938 135.741C107.154 136.489 106.5 137.331 106.023 138.246C105.739 138.791 105.521 139.361 105.377 139.957C101.074 135.546 94.5704 129.998 87.2832 127.605C91.7103 123.602 89.6514 115.433 89.6514 115.433C86.307 110.1 89.6514 105.451 89.6514 105.451C91.5125 102.926 93.726 100.404 96.1525 98.602C97.5724 97.5754 98.7058 96.9367 100.126 96.6249C101.092 96.4272 101.716 96.5463 102.77 96.815C107.301 97.943 111.741 99.8035 115.532 102.62C116.308 103.208 117.071 103.829 117.758 104.549C117.476 103.588 117.071 102.65 116.63 101.727C114.426 97.2358 111.183 93.3195 107.471 89.9331C109.383 91.1118 112.086 91.9812 114.842 92.6174C122.218 94.3182 129.901 94.3182 137.277 92.6174C140.033 91.9812 142.736 91.1118 144.647 89.9331C140.935 93.3195 137.692 97.2358 135.489 101.727C135.048 102.65 134.642 103.588 134.361 104.549C135.048 103.829 135.811 103.208 136.587 102.62C140.378 99.8035 144.817 97.943 149.348 96.815C150.403 96.5463 151.027 96.4272 151.993 96.6249C153.413 96.9367 154.546 97.5754 155.966 98.602C158.393 100.404 160.606 102.926 162.467 105.451C162.467 105.451 165.812 110.1 162.467 115.433C162.467 115.433 160.408 123.602 164.835 127.605C157.548 129.998 151.045 135.546 146.742 139.957C146.597 139.361 146.379 138.791 146.095 138.246C145.618 137.331 144.964 136.489 144.181 135.741C143.111 134.715 141.805 133.858 140.398 133.212C138.803 132.373 138.215 131.088 137.568 129.194V129.194Z" fill="white"/>
<path d="M138.179 169.362C137.845 170.414 137.406 171.428 136.856 172.384C136.402 173.175 135.867 173.892 135.271 174.544C135.258 174.556 135.243 174.569 135.23 174.582C132.956 176.561 130.175 177.679 127.33 177.935L130.76 173.961C131.79 173.443 132.888 172.625 133.222 171.444C133.347 171.03 133.314 170.584 133.164 170.232C132.53 171.573 131.204 171.705 129.941 171.945C128.042 172.209 126.037 172.232 124.107 172.133C122.492 171.983 119.693 171.966 118.96 170.232C118.354 171.862 120.02 173.299 121.353 173.953L124.789 177.935C121.942 177.679 119.16 176.561 116.888 174.582C116.873 174.569 116.86 174.556 116.845 174.544C116.252 173.892 115.717 173.175 115.263 172.384C114.713 171.428 114.274 170.414 113.939 169.362C123.174 169.362 126.059 163.418 126.059 163.418C126.059 163.418 128.945 169.362 138.179 169.362V169.362Z" fill="white"/>
<path d="M195.434 155.906C191.74 149.419 177.66 127.861 158.448 137.234C156.323 138.271 154.368 139.622 152.576 141.163C150.038 143.346 147.895 145.48 146.392 147.064C145.867 147.617 145.314 148.134 144.738 148.626H144.744C135.712 156.557 126.059 152.958 126.059 152.958C126.059 152.958 116.406 156.557 107.375 148.626H107.38C106.804 148.134 106.251 147.617 105.727 147.064C104.221 145.477 102.073 143.338 99.5272 141.151C97.7422 139.617 95.7949 138.271 93.6802 137.24C74.4634 127.853 60.3784 149.419 56.6841 155.906C56.357 156.491 56.0376 157.082 55.7231 157.68C55.9615 157.981 56.2049 158.281 56.4534 158.577C60.9717 163.847 65.3709 166.46 70.1732 167.003C70.8325 167.079 71.4968 167.114 72.1712 167.112C72.6707 167.112 73.1728 167.089 73.6824 167.046C74.4405 166.985 75.2113 166.879 75.9948 166.731C78.8575 166.189 81.9052 165.089 85.2217 163.525C84.0502 165.439 82.5999 167.216 80.9239 168.752C79.7195 169.857 78.4011 170.835 76.9888 171.651C77.1941 174.148 77.8458 177.375 79.3823 180.759C80.4853 183.187 81.9432 185.509 83.7384 187.704C85.5335 189.902 87.6685 191.975 90.1203 193.912C90.1381 186.835 91.8749 180.478 96.6519 176.63C92.8207 183.621 96.0155 191.59 99.6464 197.952C100.214 198.918 100.808 199.871 101.424 200.811H101.426C103.135 201.623 104.928 202.393 106.797 203.121C108.381 200.963 111.087 198.888 115.656 197.526C117.994 196.832 120.314 196.477 122.058 196.297C129.804 195.433 134.409 196.997 134.411 196.997C135.083 197.146 135.773 197.321 136.462 197.526C141.032 198.888 143.737 200.963 145.322 203.121C147.19 202.393 148.983 201.623 150.692 200.811C151.308 199.871 151.901 198.918 152.469 197.952C156.1 191.59 159.295 183.621 155.464 176.63C157.852 178.554 159.48 181.104 160.515 184.059C161.547 187.015 161.988 190.373 161.995 193.912C166.902 190.039 170.528 185.618 172.733 180.759C174.27 177.375 174.922 174.148 175.127 171.651C173.715 170.835 172.396 169.857 171.192 168.752C169.516 167.216 168.066 165.439 166.894 163.525C170.211 165.089 173.258 166.189 176.121 166.731C176.904 166.879 177.675 166.985 178.433 167.046C178.943 167.089 179.445 167.112 179.945 167.112C180.619 167.114 181.283 167.079 181.943 167.003C186.745 166.46 191.144 163.847 195.662 158.577C195.911 158.281 196.154 157.981 196.393 157.68C196.081 157.082 195.759 156.491 195.432 155.906H195.434ZM159.647 151.845C158.324 157.979 154.574 162.316 149.721 165.221C149.721 165.221 147.13 180.371 126.059 180.371C104.989 180.371 102.397 165.221 102.397 165.221C97.5444 162.316 93.7943 157.979 92.4708 151.845C92.0524 149.941 91.8851 148.03 91.8876 146.144C91.9256 146.289 91.9662 146.433 92.0043 146.578C92.8765 149.566 99.0733 166.787 124.137 158.395C124.766 158.184 125.408 157.956 126.059 157.713C126.711 157.956 127.352 158.184 127.981 158.395C153.045 166.787 159.242 149.566 160.114 146.578C160.152 146.433 160.193 146.289 160.231 146.144C160.231 148.03 160.066 149.941 159.647 151.845Z" fill="white"/>
<path d="M136.26 52.923C136.247 52.9737 136.232 53.0244 136.219 53.0726C135.928 54.1144 135.514 55.0497 135 55.8786C133.853 57.7441 132.213 59.0724 130.365 59.8607C127.619 61.0393 124.411 61.0267 121.673 59.8252C121.66 59.8201 121.65 59.8151 121.637 59.81L125.091 51.2019L133.326 55.5693L126.062 43.3239V35.9984C127.411 36.5637 129.036 37.3393 130.692 38.3456C136.323 41.7701 137.545 48.1323 136.26 52.923V52.923Z" fill="white"/>
<path d="M189.417 59.8404C177.371 45.1008 153.846 35.5904 139.85 31.19C136.452 30.1229 133.191 29.2306 130.167 28.4854L126.059 27.5425L121.951 28.4854C118.926 29.2306 115.666 30.1229 112.268 31.19C98.2719 35.5904 74.7472 45.1008 62.7008 59.8404C53.446 71.1683 49.5793 84.8864 51.2097 100.615C51.8055 104.364 53.5246 110.3 56.1008 114.054C59.0775 107.132 63.5324 100.549 69.491 96.7897C70.7714 96.0039 72.1102 95.3576 73.4743 94.843C72.2902 95.7048 71.2075 96.6579 70.2364 97.6946C64.6126 103.95 62.6881 112.589 62.2165 120.766C62.181 121.534 62.1607 122.302 62.1607 123.065C63.2383 125.215 64.9042 127.83 67.209 129.579C67.209 129.579 86.1013 107.557 72.4246 117.585C72.3333 115.983 72.3282 114.366 72.45 112.746C72.8531 108.249 74.1057 104.128 76.0048 100.354C77.6529 97.0761 79.7904 94.0623 82.2853 91.2943C89.9351 82.7978 103.919 76.6206 115.306 72.2582C118.49 71.0948 121.814 70.4636 125.151 70.3699C125.757 70.3496 126.361 70.3496 126.967 70.3699C130.303 70.4636 133.628 71.0948 136.812 72.2582C148.199 76.6206 162.183 82.7978 169.833 91.2943C172.328 94.0623 174.465 97.0761 176.113 100.354C178.012 104.128 179.265 108.249 179.668 112.746C179.79 114.366 179.785 115.983 179.693 117.585C176.057 114.921 174.724 114.518 174.724 115.367C174.724 117.707 184.909 129.579 184.909 129.579C187.214 127.83 188.88 125.215 189.957 123.065C189.957 122.302 189.937 121.534 189.901 120.766C189.43 112.589 187.505 103.95 181.882 97.6946C180.91 96.6579 179.828 95.7048 178.644 94.843C180.008 95.3576 181.347 96.0039 182.627 96.7897C188.586 100.549 193.04 107.132 196.017 114.054C198.593 110.3 200.312 104.364 200.908 100.615C202.539 84.8864 198.672 71.1683 189.417 59.8404V59.8404ZM160.012 73.6397C159.183 72.2608 158.182 70.9959 157.026 69.8857C156.866 69.7311 156.544 69.4218 156.389 69.2774C156.26 69.1734 155.405 68.4865 155.253 68.3623C153.405 67.029 151.295 65.9923 149.117 65.3662C143.656 63.8226 137.75 64.1242 132.274 65.46L131.759 65.5994C131.706 65.6172 131.642 65.6349 131.584 65.6501C131.581 65.6527 131.579 65.6527 131.579 65.6527C130.727 66.0354 129.834 66.3548 128.906 66.6057C128.724 66.6564 128.539 66.702 128.354 66.7477C126.85 67.1076 125.278 67.1051 123.774 66.7502C123.587 66.7046 123.402 66.659 123.217 66.6083C122.337 66.37 121.492 66.0734 120.681 65.716V65.7363C119.34 65.2876 117.874 65.0266 116.464 64.7934C110.328 63.858 103.668 64.1647 98.2238 67.4042C97.8739 67.5943 97.1183 68.1393 96.7785 68.3623L95.8733 69.0949C95.5969 69.2976 95.2597 69.6525 95.0087 69.8857C94.4255 70.4155 93.9083 71.0466 93.3961 71.6423C91.8672 73.5915 90.7515 75.774 89.8818 78.1288C90.1785 75.1682 90.9239 72.1416 92.354 69.4801C92.501 69.1329 92.8154 68.6462 93.0158 68.3192C93.2262 67.9796 93.5077 67.498 93.7511 67.1887C97.9499 61.2675 104.783 58.094 111.794 56.6542C111.469 55.8837 111.193 55.0776 110.967 54.2386C108.83 46.2871 111.977 38.1606 118.795 34.0137C120.511 32.9719 122.19 32.1481 123.635 31.517C124.555 31.119 125.379 30.7997 126.062 30.5512C126.741 30.7997 127.565 31.119 128.483 31.517C129.928 32.1456 131.609 32.9694 133.328 34.0137C140.146 38.1606 143.293 46.2871 141.156 54.2386C140.93 55.0802 140.654 55.8862 140.326 56.6593C144.17 57.4654 147.895 58.8088 151.207 60.7479C153.582 62.1572 155.715 63.9797 157.472 66.0988C157.73 66.4663 158.443 67.3611 158.664 67.7464C159.736 69.4041 160.618 71.2342 161.169 73.1226C161.711 74.7651 161.955 76.4685 162.15 78.1288C161.541 76.5572 160.9 75.0211 160.012 73.6397V73.6397Z" fill="white"/>
<path d="M124.987 258.459L125.002 258.475C125.002 258.475 125.007 258.457 125.007 258.449L124.987 258.459V258.459ZM127.147 258.449C127.147 258.449 127.147 258.467 127.152 258.475L127.167 258.459L127.147 258.449V258.449Z" fill="white"/>
<path d="M106.807 112.427C106.427 113.012 106.216 113.656 106.158 114.302C107.443 115.078 109.003 115.547 110.352 114.726C109.644 116.067 108.28 116.69 106.812 116.928C107.116 117.4 107.522 117.816 108.024 118.14C109.941 119.382 112.499 118.835 113.742 116.921C114.365 115.96 114.535 114.837 114.31 113.798C115.362 114.391 116.341 115.017 117.172 115.588C117.162 115.945 117.129 116.312 117.071 116.69C117.053 116.812 117.03 116.959 117.002 117.121C116.911 117.651 116.777 118.325 116.703 118.723C116.665 118.921 116.63 119.118 116.594 119.316C115.737 119.775 114.753 120.102 113.8 120.386C111.487 121.025 109.02 121.334 106.586 121.202C104.72 121.098 102.938 120.305 101.683 118.921C101.672 118.908 101.66 118.895 101.65 118.883C100.866 118.003 100.752 116.71 101.343 115.694C102.179 114.252 103.214 112.949 104.517 112.105C105.435 111.512 106.541 111.329 107.73 111.423C107.38 111.699 107.063 112.031 106.807 112.427V112.427Z" fill="white"/>
<path d="M139.799 209.067C138.937 211.566 138.739 213.617 139.206 215.186C139.188 215.328 139.155 215.503 139.112 215.698C125.078 210.618 113.255 215.591 113.011 215.695C113.009 215.698 113.006 215.698 113.006 215.698C112.963 215.5 112.93 215.328 112.912 215.186C113.379 213.617 113.181 211.564 112.319 209.067C112.469 208.018 113.288 206.198 117.707 204.852C117.707 204.852 126.044 202.558 134.411 204.852C138.831 206.198 139.65 208.02 139.799 209.067Z" fill="white"/>
<path d="M126.059 84.5138C121.564 84.1843 112.902 81.8954 112.902 81.8954L126.059 79.3759L139.216 81.8954C139.216 81.8954 130.555 84.1843 126.059 84.5138Z" fill="white"/>
<path d="M138.953 225.361C140.662 227.044 141.412 229.307 141.24 232.28C141.077 235.117 140.291 237.505 138.861 239.474C136.955 235.609 134.026 232.382 130.172 230.42C132.664 233.687 133.861 237.532 133.709 241.603C133.676 242.328 133.608 243.046 133.509 243.76C133.473 243.778 133.438 243.793 133.402 243.811C128.765 246.011 123.359 246.019 118.724 243.816C118.701 243.806 118.676 243.796 118.653 243.783C118.549 243.056 118.481 242.328 118.448 241.603C118.306 238.006 119.279 234.288 121.366 231.292L121.982 230.42C121.62 230.63 120.93 230.995 120.57 231.216C117.276 233.317 114.916 236.199 113.28 239.507C111.845 237.538 111.054 235.147 110.887 232.306C110.709 229.332 111.455 227.066 113.164 225.383C115.473 223.105 119.297 222.086 122.578 221.68C123.549 221.601 124.495 221.553 125.408 221.541C126.97 221.52 128.438 221.586 129.797 221.708C133.017 222.131 136.698 223.148 138.953 225.361V225.361Z" fill="white"/>
<path d="M137.832 113.785C137.601 114.827 137.771 115.955 138.397 116.921C139.637 118.835 142.198 119.382 144.112 118.14C144.614 117.816 145.023 117.4 145.327 116.928C143.859 116.69 142.492 116.067 141.785 114.726C143.136 115.547 144.695 115.078 145.981 114.302C145.92 113.656 145.71 113.012 145.329 112.427C145.073 112.031 144.759 111.697 144.406 111.423C145.591 111.332 146.688 111.517 147.601 112.105C148.904 112.949 149.939 114.252 150.776 115.694C151.366 116.71 151.252 118.003 150.469 118.883C150.459 118.895 150.446 118.908 150.436 118.921C149.181 120.305 147.398 121.098 145.532 121.202C143.098 121.334 140.631 121.025 138.319 120.386C137.365 120.102 136.381 119.775 135.524 119.316C135.489 119.118 135.453 118.921 135.415 118.723C135.342 118.325 135.207 117.651 135.116 117.121C135.088 116.959 135.065 116.812 135.048 116.69C134.989 116.313 134.956 115.945 134.946 115.588C135.786 115.015 136.772 114.381 137.832 113.785V113.785Z" fill="white"/>
<path d="M89.6514 115.433C86.307 110.1 89.6514 105.451 89.6514 105.451C91.5125 102.926 93.726 100.404 96.1525 98.602C97.5724 97.5754 98.7058 96.9367 100.126 96.6249C101.092 96.4272 101.716 96.5463 102.77 96.815C107.301 97.943 111.741 99.8035 115.532 102.62C116.308 103.208 117.071 103.829 117.758 104.549C117.476 103.588 117.071 102.65 116.63 101.727C114.426 97.2358 111.183 93.3195 107.471 89.9331C109.383 91.1118 112.086 91.9812 114.842 92.6174C122.218 94.3182 129.901 94.3182 137.277 92.6174C140.033 91.9812 142.736 91.1118 144.647 89.9331C140.935 93.3195 137.692 97.2358 135.489 101.727C135.048 102.65 134.642 103.588 134.361 104.549C135.048 103.829 135.811 103.208 136.587 102.62C140.378 99.8035 144.817 97.943 149.348 96.815C150.403 96.5463 151.027 96.4272 151.993 96.6249C153.413 96.9367 154.546 97.5754 155.966 98.602C158.393 100.404 160.606 102.926 162.467 105.451C162.467 105.451 165.812 110.1 162.467 115.433C162.467 115.433 160.408 123.602 164.835 127.605C157.548 129.998 151.045 135.546 146.742 139.957C146.597 139.361 146.379 138.791 146.095 138.246C145.618 137.331 144.964 136.489 144.181 135.741C143.111 134.715 141.805 133.858 140.398 133.212C138.803 132.373 138.215 131.088 137.568 129.194C137.228 128.076 136.949 126.925 136.704 125.759C141.435 127.871 146.99 124.877 146.99 124.877C145.494 124.865 144.173 124.5 143.073 124.016C143.301 124.061 150.824 125.481 156.002 116.67C154.769 113.05 152.061 109.04 146.95 107.745C143.674 106.916 140.54 107.651 137.976 108.815C138.803 108.001 139.749 107.273 140.748 106.63C141.785 105.96 142.88 105.382 143.96 104.891C140.824 104.86 137.497 105.811 134.921 107.714C133.529 108.741 132.355 110.046 131.551 111.626C130.745 113.174 130.352 114.89 130.273 116.609C130.251 117.131 130.256 117.653 130.286 118.173L130.329 119.301C130.337 119.425 130.344 119.549 130.352 119.676C130.387 120.246 130.42 120.834 130.458 121.44C130.758 126.378 131.265 132.292 134.335 136C135.177 137.011 136.26 137.865 137.434 138.466C138.156 138.803 138.958 139.171 139.657 139.637C140.215 140.005 140.71 140.436 141.052 140.958C141.716 141.949 141.364 143.186 140.588 144.081C140.03 144.725 139.257 145.193 138.478 145.275C138.362 145.285 138.243 145.292 138.123 145.297C134.924 145.46 131.807 146.428 129.186 148.271C128.303 148.892 127.223 149.257 126.059 149.257C124.895 149.257 123.815 148.892 122.933 148.271C120.311 146.428 117.195 145.46 113.995 145.297C113.876 145.292 113.757 145.285 113.64 145.275C112.862 145.193 112.088 144.725 111.531 144.081C110.755 143.186 110.402 141.949 111.067 140.958C111.409 140.436 111.903 140.005 112.461 139.637C113.161 139.171 113.962 138.803 114.685 138.466C115.859 137.865 116.941 137.011 117.783 136C120.854 132.292 121.361 126.378 121.66 121.44C121.698 120.834 121.731 120.246 121.767 119.676C121.774 119.549 121.782 119.425 121.789 119.301L121.833 118.173C121.863 117.653 121.868 117.131 121.845 116.609C121.767 114.89 121.374 113.174 120.567 111.626C119.764 110.046 118.59 108.741 117.198 107.714C114.621 105.811 111.295 104.86 108.158 104.891C109.238 105.382 110.334 105.96 111.371 106.63C112.37 107.273 113.316 108.001 114.142 108.815C111.579 107.651 108.445 106.916 105.169 107.745C100.057 109.04 97.3493 113.05 96.117 116.67C101.295 125.481 108.818 124.061 109.046 124.016C107.945 124.5 106.624 124.865 105.128 124.877C105.128 124.877 110.684 127.871 115.415 125.757C115.169 126.925 114.89 128.076 114.55 129.194C113.904 131.088 113.316 132.373 111.721 133.212C110.314 133.858 109.008 134.715 107.938 135.741C107.154 136.489 106.5 137.331 106.023 138.246C105.739 138.791 105.521 139.361 105.377 139.957C101.074 135.546 94.5704 129.998 87.2832 127.605C91.7103 123.602 89.6514 115.433 89.6514 115.433V115.433Z" fill="white"/>
<path d="M138.179 169.362C137.845 170.414 137.406 171.428 136.856 172.384C136.402 173.175 135.867 173.892 135.271 174.544C135.258 174.556 135.243 174.569 135.23 174.582C132.956 176.561 130.175 177.679 127.33 177.935L130.76 173.961C131.79 173.443 132.888 172.625 133.222 171.444C133.347 171.03 133.314 170.584 133.164 170.232C132.53 171.573 131.204 171.705 129.941 171.945C128.042 172.209 126.037 172.232 124.107 172.133C122.492 171.983 119.693 171.966 118.96 170.232C118.354 171.862 120.02 173.299 121.353 173.953L124.789 177.935C121.942 177.679 119.16 176.561 116.888 174.582C116.873 174.569 116.86 174.556 116.845 174.544C116.252 173.892 115.717 173.175 115.263 172.384C114.713 171.428 114.274 170.414 113.939 169.362C123.174 169.362 126.059 163.418 126.059 163.418C126.059 163.418 128.945 169.362 138.179 169.362V169.362Z" fill="white"/>
<path d="M195.434 155.906C191.74 149.419 177.66 127.861 158.448 137.234C156.323 138.271 154.368 139.622 152.576 141.163C150.038 143.346 147.895 145.48 146.392 147.064C145.867 147.617 145.314 148.134 144.738 148.626H144.744C135.712 156.557 126.059 152.958 126.059 152.958C126.059 152.958 116.406 156.557 107.375 148.626H107.38C106.804 148.134 106.251 147.617 105.727 147.064C104.221 145.477 102.073 143.338 99.5272 141.151C97.7422 139.617 95.7949 138.271 93.6802 137.24C74.4634 127.853 60.3784 149.419 56.6841 155.906C56.357 156.491 56.0376 157.082 55.7231 157.68C55.9615 157.981 56.2049 158.281 56.4534 158.577C60.9717 163.847 65.3709 166.46 70.1732 167.003C70.8325 167.079 71.4968 167.114 72.1712 167.112C72.6707 167.112 73.1728 167.089 73.6824 167.046C74.4405 166.985 75.2113 166.879 75.9948 166.731C78.8575 166.189 81.9052 165.089 85.2217 163.525C84.0502 165.439 82.5999 167.216 80.9239 168.752C79.7195 169.857 78.4011 170.835 76.9888 171.651C77.1941 174.148 77.8458 177.375 79.3823 180.759C80.4853 183.187 81.9432 185.509 83.7384 187.704C85.5335 189.902 87.6685 191.975 90.1203 193.912C90.1381 186.835 91.8749 180.478 96.6519 176.63C92.8207 183.621 96.0155 191.59 99.6464 197.952C100.214 198.918 100.808 199.871 101.424 200.811H101.426C103.135 201.623 104.928 202.393 106.797 203.121C108.381 200.963 111.087 198.888 115.656 197.526C117.994 196.832 120.314 196.477 122.058 196.297C129.804 195.433 134.409 196.997 134.411 196.997C135.083 197.146 135.773 197.321 136.462 197.526C141.032 198.888 143.737 200.963 145.322 203.121C147.19 202.393 148.983 201.623 150.692 200.811C151.308 199.871 151.901 198.918 152.469 197.952C156.1 191.59 159.295 183.621 155.464 176.63C157.852 178.554 159.48 181.104 160.515 184.059C161.547 187.015 161.988 190.373 161.995 193.912C166.902 190.039 170.528 185.618 172.733 180.759C174.27 177.375 174.922 174.148 175.127 171.651C173.715 170.835 172.396 169.857 171.192 168.752C169.516 167.216 168.066 165.439 166.894 163.525C170.211 165.089 173.258 166.189 176.121 166.731C176.904 166.879 177.675 166.985 178.433 167.046C178.943 167.089 179.445 167.112 179.945 167.112C180.619 167.114 181.283 167.079 181.943 167.003C186.745 166.46 191.144 163.847 195.662 158.577C195.911 158.281 196.154 157.981 196.393 157.68C196.081 157.082 195.759 156.491 195.432 155.906H195.434ZM159.647 151.845C158.324 157.979 154.574 162.316 149.721 165.221C149.721 165.221 147.13 180.371 126.059 180.371C104.989 180.371 102.397 165.221 102.397 165.221C97.5444 162.316 93.7943 157.979 92.4708 151.845C92.0524 149.941 91.8851 148.03 91.8876 146.144C91.9256 146.289 91.9662 146.433 92.0043 146.578C92.8765 149.566 99.0733 166.787 124.137 158.395C124.766 158.184 125.408 157.956 126.059 157.713C126.711 157.956 127.352 158.184 127.981 158.395C153.045 166.787 159.242 149.566 160.114 146.578C160.152 146.433 160.193 146.289 160.231 146.144C160.231 148.03 160.066 149.941 159.647 151.845Z" fill="white"/>
<path d="M136.26 52.923C136.247 52.9737 136.232 53.0244 136.219 53.0726C135.928 54.1144 135.514 55.0497 135 55.8786C133.853 57.7441 132.213 59.0724 130.365 59.8607C127.619 61.0393 124.411 61.0267 121.673 59.8252C121.66 59.8201 121.65 59.8151 121.637 59.81L125.091 51.2019L133.326 55.5693L126.062 43.3239V35.9984C127.411 36.5637 129.036 37.3393 130.692 38.3456C136.323 41.7701 137.545 48.1323 136.26 52.923V52.923Z" fill="white"/>
<path d="M189.417 59.8404C177.371 45.1008 153.846 35.5904 139.85 31.19C136.452 30.1229 133.191 29.2306 130.167 28.4854L126.059 27.5425L121.951 28.4854C118.926 29.2306 115.666 30.1229 112.268 31.19C98.2719 35.5904 74.7472 45.1008 62.7008 59.8404C53.446 71.1683 49.5793 84.8864 51.2097 100.615C51.8055 104.364 53.5246 110.3 56.1008 114.054C59.0775 107.132 63.5324 100.549 69.491 96.7897C70.7714 96.0039 72.1102 95.3576 73.4743 94.843C72.2902 95.7048 71.2075 96.6579 70.2364 97.6946C64.6126 103.95 62.6881 112.589 62.2165 120.766C62.181 121.534 62.1607 122.302 62.1607 123.065C63.2383 125.215 64.9042 127.83 67.209 129.579C67.209 129.579 86.1013 107.557 72.4246 117.585C72.3333 115.983 72.3282 114.366 72.45 112.746C72.8531 108.249 74.1057 104.128 76.0048 100.354C77.6529 97.0761 79.7904 94.0623 82.2853 91.2943C89.9351 82.7978 103.919 76.6206 115.306 72.2582C118.49 71.0948 121.814 70.4636 125.151 70.3699C125.757 70.3496 126.361 70.3496 126.967 70.3699C130.303 70.4636 133.628 71.0948 136.812 72.2582C148.199 76.6206 162.183 82.7978 169.833 91.2943C172.328 94.0623 174.465 97.0761 176.113 100.354C178.012 104.128 179.265 108.249 179.668 112.746C179.79 114.366 179.785 115.983 179.693 117.585C176.057 114.921 174.724 114.518 174.724 115.367C174.724 117.707 184.909 129.579 184.909 129.579C187.214 127.83 188.88 125.215 189.957 123.065C189.957 122.302 189.937 121.534 189.901 120.766C189.43 112.589 187.505 103.95 181.882 97.6946C180.91 96.6579 179.828 95.7048 178.644 94.843C180.008 95.3576 181.347 96.0039 182.627 96.7897C188.586 100.549 193.04 107.132 196.017 114.054C198.593 110.3 200.312 104.364 200.908 100.615C202.539 84.8864 198.672 71.1683 189.417 59.8404V59.8404ZM160.012 73.6397C159.183 72.2608 158.182 70.9959 157.026 69.8857C156.866 69.7311 156.544 69.4218 156.389 69.2774C156.26 69.1734 155.405 68.4865 155.253 68.3623C153.405 67.029 151.295 65.9923 149.117 65.3662C143.656 63.8226 137.75 64.1242 132.274 65.46L131.759 65.5994C131.706 65.6172 131.642 65.6349 131.584 65.6501C131.581 65.6527 131.579 65.6527 131.579 65.6527C130.727 66.0354 129.834 66.3548 128.906 66.6057C128.724 66.6564 128.539 66.702 128.354 66.7477C126.85 67.1076 125.278 67.1051 123.774 66.7502C123.587 66.7046 123.402 66.659 123.217 66.6083C122.337 66.37 121.492 66.0734 120.681 65.716V65.7363C119.34 65.2876 117.874 65.0266 116.464 64.7934C110.328 63.858 103.668 64.1647 98.2238 67.4042C97.8739 67.5943 97.1183 68.1393 96.7785 68.3623L95.8733 69.0949C95.5969 69.2976 95.2597 69.6525 95.0087 69.8857C94.4255 70.4155 93.9083 71.0466 93.3961 71.6423C91.8672 73.5915 90.7515 75.774 89.8818 78.1288C90.1785 75.1682 90.9239 72.1416 92.354 69.4801C92.501 69.1329 92.8154 68.6462 93.0158 68.3192C93.2262 67.9796 93.5077 67.498 93.7511 67.1887C97.9499 61.2675 104.783 58.094 111.794 56.6542C111.469 55.8837 111.193 55.0776 110.967 54.2386C108.83 46.2871 111.977 38.1606 118.795 34.0137C120.511 32.9719 122.19 32.1481 123.635 31.517C124.555 31.119 125.379 30.7997 126.062 30.5512C126.741 30.7997 127.565 31.119 128.483 31.517C129.928 32.1456 131.609 32.9694 133.328 34.0137C140.146 38.1606 143.293 46.2871 141.156 54.2386C140.93 55.0802 140.654 55.8862 140.326 56.6593C144.17 57.4654 147.895 58.8088 151.207 60.7479C153.582 62.1572 155.715 63.9797 157.472 66.0988C157.73 66.4663 158.443 67.3611 158.664 67.7464C159.736 69.4041 160.618 71.2342 161.169 73.1226C161.711 74.7651 161.955 76.4685 162.15 78.1288C161.541 76.5572 160.9 75.0211 160.012 73.6397V73.6397Z" fill="white"/>
<path d="M125.007 258.449C125.007 258.449 125.004 258.467 125.002 258.474L124.987 258.459L125.007 258.449V258.449Z" fill="black"/>
<path d="M127.167 258.459L127.152 258.474C127.152 258.474 127.15 258.457 127.147 258.449L127.167 258.459V258.459Z" fill="black"/>
</g>
<defs>
<linearGradient id="paint0_linear_701_31" x1="125" y1="0" x2="125" y2="271.277" gradientUnits="userSpaceOnUse">
<stop stop-color="#00082A"/>
<stop offset="1" stop-color="#261782"/>
</linearGradient>
<clipPath id="clip0_701_31">
<rect width="150.424" height="230.932" fill="white" transform="translate(50.8474 27.5425)"/>
</clipPath>
</defs>
</svg>
