<svg xmlns="http://www.w3.org/2000/svg" width="250" height="250"><g fill-rule="evenodd"><path fill="#fff" d="M238.75 125c0 62.824-50.926 113.75-113.75 113.75S11.25 187.824 11.25 125 62.176 11.25 125 11.25 238.75 62.176 238.75 125zm0 0"/><path fill="#01c696" d="M0 125C0 56.078 56.078 0 125 0s125 56.078 125 125-56.078 125-125 125S0 193.922 0 125zm133.363-12.168v-17.3l-28.894 28.894 28.894 28.894v-17.406h49.418l-55.285 55.281-66.82-66.824 66.82-66.82 35.402 35.398c4.504 4.508 11.813 4.508 16.32 0 4.509-4.508 4.509-11.812 0-16.32l-43.562-43.563c-4.504-4.504-11.812-4.504-16.32 0L36.19 116.211c-4.504 4.508-4.504 11.816 0 16.32l83.145 83.145c4.508 4.508 11.816 4.508 16.32 0l76.086-76.082c3.156-3.086 5.188-7.051 5.188-11.692s-2.032-8.605-5.282-11.78a11.532 11.532 0 0 0-8.066-3.29zm0 0"/></g></svg>