<svg width="200" height="200" viewBox="0 0 200 200" fill="none" xmlns="http://www.w3.org/2000/svg">
<rect width="200" height="200" fill="#201F2D"/>
<g clip-path="url(#clip0_59_160)">
<path fill-rule="evenodd" clip-rule="evenodd" d="M165.508 134.134L145.235 100.057H119.732L140.232 134.134H89.2295C70.854 134.134 56.9853 118.7 56.9853 100.055C56.9853 81.4101 70.86 65.9723 89.2295 65.9723H133.072L120.589 45H89.2295C59.7863 45 35 69.7282 35 100.055C35 130.382 59.8063 155 89.2295 155H165.508M96.9477 84.529C96.9477 90.3207 92.3849 95.0152 86.7569 95.0152C81.1289 95.0152 76.5661 90.3207 76.5661 84.529C76.5661 78.7373 81.1289 74.0429 86.7569 74.0429C92.3849 74.0429 96.9477 78.7373 96.9477 84.529ZM86.7569 124.058C92.3849 124.058 96.9477 119.364 96.9477 113.572C96.9477 107.78 92.3849 103.086 86.7569 103.086C81.1289 103.086 76.5661 107.78 76.5661 113.572C76.5661 119.364 81.1289 124.058 86.7569 124.058Z" fill="#A795D0"/>
</g>
<defs>
<clipPath id="clip0_59_160">
<rect width="130.508" height="110" fill="white" transform="translate(35 45)"/>
</clipPath>
</defs>
</svg>
