<svg xmlns="http://www.w3.org/2000/svg" width="250" height="250"><path fill="#0a2052" d="M201.234 43.336c-23.644-8.813-49.21-13.61-75.91-13.61s-52.265 4.797-75.91 13.61c-10.95 4.059-21.465 8.945-31.496 14.66 1.48 11.606 3.836 22.945 7.066 33.941 9.336-6.019 19.282-11.257 29.664-15.53 21.77-8.989 45.633-13.962 70.676-13.962 25.04 0 48.906 4.973 70.676 13.961 10.383 4.274 20.328 9.512 29.664 15.531 3.227-10.996 5.586-22.335 7.066-33.94-10.03-5.716-20.546-10.602-31.496-14.661"/><path fill="#31c8c4" d="M187.754 101.36h-.043c-13.09 31.89-34.86 59.374-62.387 79.398-27.527-20.024-49.297-47.508-62.386-79.399h-.043a172.27 172.27 0 0 0-8.247 3.184 181.938 181.938 0 0 0-21.464 10.559c13.656 32.632 35.078 61.253 61.906 83.543a214.09 214.09 0 0 0 30.234 21.074 213.827 213.827 0 0 0 30.23-21.074c26.833-22.29 48.255-50.91 61.907-83.543a181.343 181.343 0 0 0-21.465-10.559 170.535 170.535 0 0 0-8.242-3.184"/></svg>