<svg xmlns="http://www.w3.org/2000/svg" width="250" height="250"><path fill="#002d64" d="M250 125c0 69.035-55.965 125-125 125S0 194.035 0 125 55.965 0 125 0s125 55.965 125 125zm0 0"/><path fill="#fff" d="M148.352 106.25c6.171-6.176 9.523-14.3 9.523-23.05 0-7.638-2.68-15.036-7.574-20.9l18.949-18.948-4.227-4.102-18.949 18.95c-5.847-4.876-13.097-7.575-20.773-7.575a32.597 32.597 0 0 0-23.05 55.625c5.397 5.398 12.448 8.773 20.022 9.426v24.023a31.651 31.651 0 0 0-20.023 9.426c-12.7 12.742-12.7 33.355 0 46.102 6.176 6.171 14.3 9.523 23.05 9.523a32.417 32.417 0 0 0 23.052-9.523c6.171-6.176 9.523-14.301 9.523-23.051s-3.352-16.875-9.523-23.051c-5.403-5.398-12.454-8.773-20.028-9.426v-24.023a31.603 31.603 0 0 0 20.028-9.426m-4.227 47.074c4.977 5.074 7.8 11.7 7.8 18.824a26.52 26.52 0 0 1-7.8 18.829c-4.977 5.074-11.7 7.796-18.824 7.796a26.507 26.507 0 0 1-18.824-7.796c-4.977-5.079-7.801-11.704-7.801-18.829a26.51 26.51 0 0 1 7.8-18.824c4.973-5.074 11.7-7.8 18.825-7.8 7.148.027 13.847 2.726 18.824 7.8m-18.824-43.398a26.51 26.51 0 0 1-18.824-7.801c-4.977-5.074-7.801-11.7-7.801-18.824a26.55 26.55 0 0 1 7.8-18.824c4.973-5.079 11.7-7.801 18.825-7.801a26.51 26.51 0 0 1 18.824 7.8c5.074 4.973 7.8 11.7 7.8 18.825a26.51 26.51 0 0 1-7.8 18.824c-4.977 5.102-11.676 7.8-18.824 7.8"/></svg>