<svg xmlns="http://www.w3.org/2000/svg" width="250" height="250"><path fill="#4d9afb" d="M248.457 125c0 69.035-55.273 125-123.457 125S1.543 194.035 1.543 125 56.816 0 125 0s123.457 55.965 123.457 125zm0 0"/><path fill="#fff" d="m190.914 125.34-47.437-27.738v24.16c0 5.043 2.656 9.707 6.968 12.23l26.653 15.582-16.668 29.23h-33.793V71.196h33.793l14.746 25.868c4.879 8.57 15.699 11.507 24.156 6.562l8.914-5.176-26.07-45.68c-3.281-5.753-9.34-9.3-15.903-9.312H93.871c-6.203 0-11.933 3.348-15.039 8.785L42.418 116.09a18.01 18.01 0 0 0 0 17.82l36.219 63.477c3.238 5.687 9.23 9.191 15.715 9.187h71.902c6.586.008 12.68-3.543 15.984-9.312l25.875-45.36c3.89-6.836 1.578-15.57-5.172-19.515zm-91.707 53.465h-.144l-10.22-17.953-20.284-35.563-.153-.289 30.656-53.805h.145zm0 0"/></svg>