<svg xmlns="http://www.w3.org/2000/svg" width="250" height="250"><path fill="#00a6c4" d="M42.691 211.426v25.46c-4.277 5.329-10.597 8.981-16.375 8.981-12.46 0-22.152-15.297-22.152-35.031 0-19.734 9.813-34.836 22.574-34.836 6.02 0 12.04 3.75 16.196 9.672l-4.036 8.582c-3.25-4.93-7.765-7.89-12.16-7.89-8.61 0-15.351 10.753-15.351 24.472 0 13.812 6.8 24.574 15.41 24.574 3.133 0 6.683-1.777 9.695-4.738v-19.246zm42.32 33.953-22.456-49.543v49.543h-7.098v-69.086h6.98l22.575 49.64v-49.64h6.984v69.086zm62.009-34.543c0 19.734-9.75 35.031-22.336 35.031-12.582 0-22.332-15.297-22.332-35.031 0-19.836 9.75-34.836 22.332-34.836 12.586 0 22.336 15.102 22.336 34.836zm-37.446 0c0 13.719 6.922 24.574 15.172 24.574 8.246 0 14.988-10.855 14.988-24.574s-6.742-24.375-14.988-24.375c-8.308 0-15.172 10.656-15.172 24.375zm76.34-27.926-2.953 10.262c-4.574-4.543-9.152-6.418-12.34-6.418-4.156 0-6.863 2.57-6.863 7.207 0 15.098 22.754 7.008 22.695 31.875 0 12.336-6.621 19.934-15.89 19.934-6.625 0-12.883-4.438-17.22-10.954l3.067-10.066c4.336 6.516 9.758 10.066 14.27 10.066 4.937 0 7.89-3.058 7.89-8.39 0-15.395-22.761-6.805-22.761-31.38 0-11.839 6.203-19.241 15.355-19.241 5.477 0 10.836 2.86 14.75 7.105zm11.559 62.469v-69.086h7.101v69.086zm49.48-62.469L244 193.172c-4.57-4.543-9.145-6.418-12.336-6.418-4.156 0-6.86 2.57-6.86 7.207 0 15.098 22.755 7.008 22.692 31.875 0 12.336-6.621 19.934-15.894 19.934-6.622 0-12.88-4.438-17.215-10.954l3.07-10.066c4.332 6.516 9.754 10.066 14.266 10.066 4.937 0 7.89-3.058 7.89-8.39 0-15.395-22.758-6.805-22.758-31.38 0-11.839 6.2-19.241 15.352-19.241 5.477 0 10.836 2.86 14.746 7.105zM159.586 36.5l-3.004 4.926c2.418 6.148 3.129 14.008 1.504 21.426-2.774 12.664-11.285 19.253-19.008 14.707-1.09-.637-2.11-1.47-3.043-2.454l-9.676 15.86-8.523-13.969c-3.89 4.27-8.918 5.574-13.664 2.781-7.95-4.672-12.078-19.015-9.23-32.035a33.894 33.894 0 0 1 1.695-5.5l-3.63-5.949-.702 1.879c-3.809 10.187-5.828 21.894-5.844 33.863-.04 35.965 17.773 65.278 39.715 65.348h.074c21.898 0 39.746-29.207 39.79-65.098.01-11.969-1.981-23.691-5.755-33.902zm-58.453 13.117c-1.051 2.23-1.68 5.024-1.68 8.059 0 7.312 3.613 13.234 8.074 13.234 1.852 0 3.555-1.035 4.918-2.754zm39.8 17.453c1.294 1.43 2.844 2.262 4.52 2.262 4.457 0 8.074-5.926 8.074-13.238 0-2.742-.511-5.29-1.382-7.403zm-14.511 14.004L93.586 27.047l1.277-2.23c8.168-14.22 19.215-22.047 31.11-22.047h.082c12.02.035 23.535 8.437 31.605 23.05l1.235 2.23zM98.98 26.973l27.454 45.168 27.109-44.262c-7.258-11.945-17.172-18.762-27.496-18.793h-.074c-10.196 0-19.707 6.324-26.993 17.887zm-8.761 88.886-3.867-.418c-16.344-1.738-38.891-8.34-53.48-29.882-8.938-13.196-10.65-25.739-10.716-26.27l-.496-3.797h59.485l-.297 3.567c-.27 3.293-.41 6.625-.414 9.894-.016 14.867 2.625 29.254 7.636 41.617zm72.05 0 2.145-5.289c4.988-12.285 7.633-26.574 7.652-41.328 0-3.394-.136-6.816-.41-10.183l-.293-3.563h59.473l-.492 3.793c-.067.531-1.781 13.074-10.719 26.27-14.59 21.543-37.14 28.144-53.488 29.886zm0 0"/></svg>