<svg id="a" xmlns="http://www.w3.org/2000/svg" viewBox="0 0 1000 1000" fill="#000000"><path d="M583.463,465.672l-127.083-53.044,25.702-61.577,127.083,53.044-25.702,61.577Zm-272.381-4.9l88.136-217.643,78.531-31.333-66.84-28.923-62.954,27.88-70.149,169.078,33.276,80.942Zm28.779,140.299l-86.625-221.06,28.743-70.329-65.329,25.182-25.182,61.156,69.25,172.675,79.143,32.377Zm45.469-18.22l127.083,53.044,25.702-61.577-127.083-53.044-25.702,61.577Zm188.31-93.645l-127.083-53.044-25.702,61.577,127.083,53.044,25.702-61.577Zm-112.366,192.068l-213.146-88.136-32.377-79.143-29.679,67.451,24.282,62.055,172.675,71.049,78.243-33.276Zm-134.902-189.025l31.477,80.042,112.419-268.006,136.701-54.86,74.646,32.377-25.182-67.451-64.753-25.182-168.178,69.25-97.13,233.831Zm673.629,7.75c0,276.142-223.858,500-500,500S0,776.142,0,500,223.858,0,500,0s500,223.858,500,500Zm-191.577,13.996l41.37-105.634-29.679-75.297-97.13-41.37-34.175-102.526-86.338-31.477-89.935,38.672-101.627-46.622-80.042,33.132-42.269,98.029-97.13,36.873-29.679,78.243,29.679,80.941-41.676,101.624,36.28,90.549,96.23,39.859,41.37,103.425,71.948,29.679,94.881-40.309,102.976,47.953,74.646-31.028,41.37-95.331,107.023-42.108,33.276-74.808-41.37-92.471Zm-196.958-237.59l-78.243,33.276,213.146,88.136,32.377,79.143,29.679-67.451-24.282-62.055-172.675-71.049Zm71.948,253.779l-88.136,217.643-78.531,31.333,66.84,28.923,62.954-27.88,70.149-169.078-33.276-80.941Zm-15.289-31.477l-31.477-80.042-112.419,268.006-136.701,54.86-74.646-32.377,25.182,67.451,64.753,25.182,168.178-69.25,97.13-233.831Zm-13.49-108.821l86.625,221.06-28.743,70.329,65.329-25.182,25.182-61.156-69.25-172.675-79.143-32.377Z" fill="#231f20"></path></svg>