<svg xmlns="http://www.w3.org/2000/svg" width="250" height="250"><linearGradient id="a" x1="113.5" x2="113.5" y1="-119.175" y2="363.2" gradientUnits="userSpaceOnUse"><stop offset=".195" stop-color="#708b96"/><stop offset="1" stop-color="#f7fbe7"/></linearGradient><path fill="#fff" d="M125 7.813c64.719 0 117.188 52.464 117.188 117.187 0 64.719-52.47 117.188-117.188 117.188-64.723 0-117.188-52.47-117.188-117.188C7.813 60.277 60.278 7.812 125 7.812zm0 0"/><path fill="#fff" d="M70 70.25h110v110H70zm0 0"/><path fill="#708b96" fill-rule="evenodd" d="M137 180v.25h43v-15.5h-21.234c12.777-9.68 20.984-24.727 20.984-41.625 0-29.203-24.512-52.875-54.75-52.875s-54.75 23.672-54.75 52.875c0 16.898 8.207 31.945 20.984 41.625H70v15.5h43v-20.832c-15.668-4.934-27-19.262-27-36.168 0-20.988 17.46-38 39-38s39 17.012 39 38c0 16.906-11.332 31.234-27 36.168zm0 0"/><path fill="none" stroke="url(#a)" stroke-width="14.188" d="M113.5 7.094c58.765 0 106.406 47.638 106.406 106.406 0 58.765-47.641 106.406-106.406 106.406-58.768 0-106.406-47.641-106.406-106.406C7.094 54.732 54.732 7.094 113.5 7.094zm0 0" transform="scale(1.10132)"/></svg>