<svg xmlns="http://www.w3.org/2000/svg" xmlns:xlink="http://www.w3.org/1999/xlink" version="1.1" id="Layer_1" x="0px" y="0px" style="enable-background:new 0 0 841.89 595.28;" xml:space="preserve" viewBox="298.67 157.94 244.56 279.41">
<style type="text/css">
	.st0{fill:#DEA36D;}
</style>
<path class="st0" d="M422.05,157.94h37.99l-17.53,30.06h42.15l-22.16,37.98h-79.7l-41.34,71.6l41.34,71.61h82.69l21.68-37.51h-55.12  l21.87-37.74h76.3c6.86,0,12.49,5.29,13.01,12.02c0,2.72-0.57,4.46-0.97,5.71c-0.26,0.82-0.61,1.6-1.04,2.35l-50.65,87.83  c-0.46,0.76-1.02,1.46-1.64,2.08c-2,2.01-4.76,3.24-7.82,3.24h-37.65l-17.5,30.18h-37.84l17.53-30.18l13.98-24.08l-18.58,24.08  h-33.78c-3.05,0-5.82-1.24-7.82-3.24c-0.63-0.62-1.18-1.32-1.64-2.08l-58.11-100.65l-0.21-0.36c-0.01-0.01-0.01-0.02-0.02-0.03  c-0.51-0.96-0.8-2.06-0.8-3.23c0-1.17,0.29-2.26,0.8-3.22c0.01-0.01,0.01-0.02,0.02-0.03l0.21-0.35l58.11-100.65  c0.46-0.76,1.02-1.46,1.64-2.09c2-2,4.76-3.24,7.82-3.24h32.82l-8.74,23.18l13.37-23.18L422.05,157.94z"/>
</svg>