<svg xmlns="http://www.w3.org/2000/svg" width="250" height="250"><path d="M0 125v125h250V0H0zM174.316 14.648l2.735 2.93-12.5 12.598-12.5 12.695 2.441 3.711c4.59 7.031 6.836 15.137 6.836 25.293 0 8.691-.586 11.523-3.418 17.969-2.148 4.687-6.836 11.23-10.742 14.844-3.809 3.515-14.258 9.57-16.602 9.57-.683 0-2.832.488-4.785 1.074l-3.71.977v31.152l2.734.586c17.675 3.906 28.71 13.672 35.351 31.348 1.953 5.078 1.367 21.386-.879 27.44-5.37 14.356-15.234 23.83-29.297 28.126-5.468 1.66-17.675 1.758-22.46.293-20.215-6.445-32.325-22.754-32.325-43.36 0-8.789.684-11.816 4.98-20.605 4.884-10.156 16.31-19.434 26.759-21.973 2.734-.586 5.468-1.27 6.152-1.464.977-.293 1.172-4.004.977-16.211l-.293-15.918-4.883-1.075c-15.332-3.418-27.149-14.843-32.52-31.738-.683-1.855-1.172-6.933-1.172-11.328 0-19.531 11.23-35.644 29.493-42.383 10.84-3.906 27.148-1.953 36.914 4.688 1.855 1.172 3.906 2.246 4.492 2.246s6.445-5.469 12.988-12.207c6.64-6.738 12.11-12.207 12.207-12.207.098 0 1.465 1.27 3.027 2.93zm0 0"/><path d="M106.836 37.402C98.828 40.43 91.309 47.266 87.5 54.687c-4.883 9.57-5.469 18.262-2.05 28.81 5.468 16.894 25.097 27.538 41.6 22.558 7.032-2.149 11.72-4.98 16.114-9.57 17.09-17.774 11.816-47.07-10.351-57.715-5.176-2.442-20.899-3.32-25.977-1.368zM107.227 158.203c-12.11 4.59-19.63 13.086-23.145 25.977-3.906 14.355 4.297 32.129 18.262 39.746 22.851 12.402 50.976-5.274 50.976-32.031 0-16.114-10.156-29.395-26.27-34.57-4.882-1.563-14.55-1.173-19.823.878zm0 0"/></svg>