<svg xmlns="http://www.w3.org/2000/svg" width="250" height="250"><path fill="#24262e" d="M242.402 124.11c0 65.316-52.777 118.265-117.882 118.265-65.11 0-117.887-52.95-117.887-118.266S59.41 5.84 124.52 5.84c65.105 0 117.882 52.954 117.882 118.27zm0 0"/><g fill="#f0ce0e"><path d="M16.621 119.043H.29C3.102 54.773 54.523 3.187 118.582.367V16.75c-55.043 2.793-99.18 47.07-101.96 102.293zM247.93 119.043h-16.328c-2.758-54.691-46.082-98.621-100.383-102.176V.441c63.324 3.594 113.922 54.86 116.71 118.602zM118.582 248.809C55.051 246.008 3.949 195.246.367 131.715h16.371c3.543 54.476 47.332 97.945 101.844 100.71zM131.219 248.73v-16.425c53.773-3.52 96.754-46.64 100.261-100.59h16.375c-3.55 63.004-53.835 113.453-116.636 117.015zm0 0"/></g><path fill="#24262e" d="M242.445 124.145h-3.504c-.004 31.695-12.8 60.375-33.504 81.144-20.707 20.77-49.292 33.613-80.886 33.613-31.59 0-60.176-12.843-80.883-33.613-20.703-20.77-33.5-49.45-33.504-81.144.004-31.7 12.8-60.375 33.504-81.149 11.809-11.844 26.18-21.11 42.21-26.887 12.079-4.351 25.099-6.726 38.673-6.726 31.594.004 60.18 12.844 80.886 33.613 20.704 20.774 33.5 49.45 33.504 81.149h3.504c0-65.325-52.78-118.274-117.894-118.278C59.44 5.871 6.66 58.82 6.66 124.145c0 65.32 52.78 118.273 117.89 118.273 65.113 0 117.894-52.953 117.894-118.273zm0 0"/><path fill="#f0ce0e" d="M71.828 118.41a5.018 5.018 0 0 0-5 5.016v14.11c.05 3.335.352 6.663.899 9.952 0 0 1.812 9.973 7.375 16.153 5.656 6.093 17.218 8.172 17.218 8.172a67.14 67.14 0 0 0 9.926.886h47.098c3.32-.058 6.633-.39 9.898-.996 0 0 8.617-1.754 13.645-6.766 5.066-4.94 6.672-13.207 6.672-13.207.582-3.285.898-6.609.957-9.94v-18.364a5.018 5.018 0 0 0-5-5.016h-34.371a7.129 7.129 0 0 0-3.95 1.414 7.14 7.14 0 0 0-2.48 3.395l-1.778 5.972c-.792 2.649.813 4.809 3.567 4.809h18.8c2.75 0 5 1.922 5 4.273 0 2.348-.265 6.52-.593 9.254a8.192 8.192 0 0 1-2.016 4.125 7.253 7.253 0 0 1-4.027 2.223c-3.3.426-6.621.66-9.95.703h-35.413a66.444 66.444 0 0 1-9.918-.906 14.485 14.485 0 0 1-6.664-3.54 13.651 13.651 0 0 1-3.735-6.753 68.576 68.576 0 0 1-.875-9.957v-10a5.026 5.026 0 0 0-4.996-5.012zM72.063 94.297c-1.32 2.422-.149 4.402 2.605 4.402h91a7.228 7.228 0 0 0 3.96-1.406 7.225 7.225 0 0 0 2.509-3.387l2.398-7.836c.809-2.636-.777-4.793-3.523-4.793h-68.52c-3.324.051-6.64.348-9.926.883 0 0-11.816 2.125-17.312 8.043a24.73 24.73 0 0 0-3.192 4.094zm0 0"/></svg>