<svg xmlns="http://www.w3.org/2000/svg" width="250" height="250"><path fill="#02e2ac" d="M125 250c68.973 0 125-55.906 125-124.922C249.844 55.906 193.973 0 125 0 55.871 0 0 55.906 0 124.922S55.871 250 125 250zm0 0"/><path fill="#0e0333" fill-rule="evenodd" d="m174.434 166.504-8.664-6.637c6.421-9.199 10.007-20.207 10.007-31.215.149-11.914-3.734-23.675-11.054-33.175l9.71-9.2c1.196-1.054 1.196-2.863.149-4.07l-2.39-2.414c-12.098-12.363-28.528-19.602-45.704-20.207V49.484c.149-5.882-8.96-5.882-8.96 0v10.407c-4.036.3-8.067 1.203-11.95 2.261v-12.82c.149-5.879-8.96-5.879-8.96 0v16.137h-.153c-13.738 6.484-25.39 17.492-32.262 31.515-7.02 13.723-9.258 29.707-6.273 44.938 3.136 15.23 11.203 28.953 23.004 39.058 11.8 9.954 26.734 15.532 42.12 15.985l49.735.3c1.496 0 2.688-1.206 2.688-2.714v-25.332c0-1.36-.297-2.262-1.043-2.715zm-33.309-49.16 14.191-12.969c9.707 13.723 10.004 33.477.149 47.5l-15.086-11.61c2.539-3.32 3.883-7.09 4.031-11.312-.148-4.07-1.043-7.992-3.285-11.61zm22.105 66.047c0 .754-.597 1.359-1.343 1.359l-37.79-.152c-12.245-.149-24.195-4.223-33.902-11.61-9.71-7.543-16.73-18.246-19.718-30.16-6.57-23.976 4.632-51.121 26.14-63.183l.445-.153v19.453c-.148 5.883 8.965 5.883 8.965 0V75.117c17.176-6.031 37.489-3.015 51.828 8.297.747.453.747 1.508.149 2.11l-26.29 24.128c-5.077-2.113-10.901-2.113-15.831.301-7.914 3.621-12.992 12.516-11.5 21.262.297 2.867 1.344 5.582 2.836 7.992 1.496 2.566 3.586 4.523 5.976 6.184 4.778 3.168 10.903 4.07 16.43 2.414l33.156 25.484c.301.3.45.754.45 1.207zm-31.066-55.04c0 1.508-.45 3.165-1.344 4.372-.898 1.359-2.093 2.261-3.586 3.015-1.492.606-3.136.754-4.48.305-1.492-.305-2.836-1.059-4.031-2.113-1.047-1.055-1.793-2.563-2.094-4.07-.297-1.508-.149-3.169.45-4.524.597-1.508 1.644-2.566 2.839-3.621 3.137-2.11 7.316-1.656 10.004 1.055 1.344 1.359 2.242 3.468 2.242 5.582zm0 0"/></svg>