<svg xmlns="http://www.w3.org/2000/svg" width="250" height="250"><linearGradient id="a" x1="283.135" x2="268.1" y1="242.482" y2="-7.518" gradientUnits="userSpaceOnUse"><stop offset="0" stop-color="#e7b84a"/><stop offset=".45" stop-color="#ffe8ce"/><stop offset="1" stop-color="#e7b84a"/></linearGradient><path fill="url(#a)" fill-rule="evenodd" d="M250 125.125c0 19.723-4.582 38.39-12.75 55.008-.031.066-.066.129-.098.195-.195.379-.382.75-.382 1.024-.083.16-.168.328-.258.496-.086.168-.176.336-.254.496-9.934 19.18-24.188 34.773-41.008 46.105-.094.067-.223.16-.32.227l-.493.328c-.398.273-.792.543-1.207.793-.464.285-.917.574-1.375.863-.457.29-.914.578-1.378.863 0 .032-.032.032-.063.067-19 11.687-41.36 18.41-65.258 18.41-2.308 0-4.613-.063-6.922-.191a7.71 7.71 0 0 0-.445-.032c-.152-.011-.305-.015-.45-.035a52.28 52.28 0 0 1-2.339-.16c-.195-.012-.398-.035-.605-.059-.235-.023-.47-.05-.707-.066-.672-.066-1.313-.129-1.954-.195a19.666 19.666 0 0 1-1.507-.16 31.39 31.39 0 0 1-.899-.11c-.293-.039-.59-.082-.894-.113-.258-.031-.512-.07-.77-.113-.258-.04-.512-.078-.77-.11-.289-.05-.582-.097-.878-.144s-.594-.098-.883-.145c-.254-.047-.512-.09-.77-.129-.254-.039-.511-.078-.77-.129-.284-.054-.57-.109-.847-.156-.34-.062-.672-.125-1.008-.195-.414-.055-.8-.133-1.203-.215-.07-.012-.137-.027-.207-.04a53.913 53.913 0 0 1-2.148-.448 11.099 11.099 0 0 1-1.086-.227 98.046 98.046 0 0 1-3.239-.797 2.995 2.995 0 0 1-.296-.074 1.577 1.577 0 0 0-.215-.055l-.004-.004c-.93-.253-1.856-.511-2.75-.765a36.182 36.182 0 0 1-.992-.29c-.371-.109-.746-.222-1.125-.335-.375-.113-.75-.223-1.121-.336a12.29 12.29 0 0 1-.891-.274c-.074-.027-.152-.05-.23-.078-.704-.226-1.41-.449-2.114-.703a21.04 21.04 0 0 1-.578-.21c-.191-.071-.383-.145-.574-.208a51.68 51.68 0 0 0-1.028-.383c-.343-.129-.687-.257-1.023-.386-.16-.063-.32-.118-.473-.176a14.04 14.04 0 0 1-.71-.27 58.582 58.582 0 0 1-2.02-.8c-.191-.082-.395-.16-.594-.243-.199-.078-.398-.16-.594-.238-.304-.129-.597-.266-.894-.402s-.594-.27-.899-.399c-1.152-.48-2.304-1.023-3.457-1.57h-.003a3.558 3.558 0 0 0-.207-.094c-.07-.035-.145-.066-.208-.097-.289-.13-.546-.258-.8-.383-.32-.13-.61-.29-.899-.45a107.35 107.35 0 0 1-3.683-1.921c-.832-.45-1.664-.93-2.5-1.41-.09-.067-.18-.118-.282-.176-.043-.024-.086-.051-.132-.078-21.723-12.489-38.895-30.899-49.786-53.25-.113-.223-.222-.457-.336-.688l-.335-.687c-.352-.739-.704-1.504-1.059-2.274a82.914 82.914 0 0 1-1.953-4.547c-.031-.097-.074-.191-.113-.289a6.35 6.35 0 0 1-.114-.289 122.83 122.83 0 0 1-5.508-17.449.433.433 0 0 1-.03-.113c-.009-.04-.016-.078-.036-.11a131.718 131.718 0 0 1-1.055-5.027 30.22 30.22 0 0 1-.175-1.008c-.059-.34-.114-.676-.176-1.012-.196-1.054-.356-2.113-.516-3.167-2.305-15.465-1.695-31.09 1.828-46.27.032-.16.07-.328.114-.496.039-.168.078-.336.109-.496.352-1.473.707-2.946 1.121-4.387.32-1.215.676-2.434 1.059-3.648.16-.579.351-1.153.543-1.73.48-1.505.996-2.977 1.539-4.419.062-.176.136-.351.207-.527a15 15 0 0 0 .21-.531 83.065 83.065 0 0 1 1.891-4.739c.063-.16.133-.32.207-.48.07-.16.145-.32.207-.48.672-1.536 1.348-3.04 2.082-4.547.051-.094.09-.184.13-.27.038-.09.081-.176.128-.273.13-.32.29-.61.45-.895a73.223 73.223 0 0 1 1.921-3.684c.239-.418.473-.832.703-1.25.235-.414.465-.832.707-1.246.043-.117.106-.215.176-.32.024-.043.051-.086.078-.129 12.496-21.68 30.914-38.84 53.246-49.726.48-.258.961-.48 1.442-.704.367-.16.734-.336 1.105-.511.368-.18.735-.356 1.102-.516 1.508-.703 3.047-1.344 4.617-1.984.094-.032.184-.07.27-.114.09-.039.175-.078.273-.109a123.8 123.8 0 0 1 17.523-5.508c.012 0 .032-.008.055-.011.031-.008.067-.02.106-.02 1.664-.387 3.363-.738 5.062-1.059.328-.07.668-.129 1.008-.187.293-.055.586-.106.883-.164a89.466 89.466 0 0 0 1.648-.258c.551-.086 1.106-.176 1.649-.254 24.859-3.715 50.234.129 73.27 11.43l-19.224 39.258c-11.34-5.575-23.515-8.329-35.785-8.293-4.101 0-8.105.32-12.047.894a6.123 6.123 0 0 1-.44.074c-.169.028-.333.051-.485.086-.899.13-1.828.29-2.727.48-.285.063-.582.13-.879.192-.297.067-.594.13-.883.192-.32.082-.632.152-.945.226-.312.07-.621.145-.941.223-.13.031-.258.066-.387.097a47.8 47.8 0 0 0-1.953.512c-.227.063-.457.13-.688.192-.234.062-.465.129-.691.191-.863.258-1.73.512-2.563.8-.222.083-.441.153-.656.227a62.195 62.195 0 0 0-2.898 1.055c-.125.05-.254.098-.38.148-.46.176-.933.356-1.382.555-.394.149-.766.313-1.148.485-.121.05-.239.105-.36.156-.863.351-1.73.738-2.562 1.152-.078.035-.16.074-.239.113-.082.04-.16.082-.242.114a81.789 81.789 0 0 0-36.008 34.386c-.015.016-.023.043-.03.067-.009.023-.016.047-.032.062-.578 1.09-1.121 2.176-1.668 3.266-.098.191-.184.394-.273.594-.086.199-.176.398-.27.59-.387.8-.738 1.601-1.09 2.402-.097.226-.183.45-.273.672-.086.226-.176.449-.274.676-.105.265-.215.53-.324.796-.223.536-.441 1.07-.637 1.602-.047.144-.093.281-.144.418-.047.137-.094.273-.14.414a80.332 80.332 0 0 0-4.712 27.188c0 4.097.32 8.132.899 12.07.015.129.039.262.062.398.024.137.047.274.063.403.16.96.32 1.921.515 2.847.094.547.223 1.121.352 1.664.105.567.238 1.106.371 1.66.023.11.05.22.078.329.113.515.254 1.05.399 1.578.058.222.12.445.175.664.075.289.157.566.239.84.062.21.125.422.18.632.144.528.312 1.047.48 1.567.097.297.195.594.289.898.16.48.32.961.48 1.407.254.738.512 1.44.801 2.18.129.304.246.609.367.91.121.304.242.609.367.913.098.239.204.48.305.72.106.241.211.48.305.722.387.894.77 1.762 1.187 2.625.094.129.16.258.223.418 7.434 15.304 19.543 27.918 34.473 36.02a63.97 63.97 0 0 0 3.332 1.73c.316.168.64.312.96.453.16.07.32.144.481.219.734.351 1.441.672 2.176.992.578.25 1.172.48 1.758.707.164.062.324.125.484.187a58.384 58.384 0 0 0 4.55 1.637c.223.094.481.192.74.254 1.214.383 2.433.738 3.683 1.059.03.015.062.023.093.03s.067.017.098.032c1.059.258 2.145.512 3.203.738.215.024.403.075.61.125l.129.036c.32.062.648.117.976.175.328.055.656.11.977.176.336.047.671.11 1.007.176.336.062.676.129 1.012.176a32.6 32.6 0 0 0 1.727.222c.27.036.531.07.797.11.488.07.976.136 1.48.18.348.03.703.058 1.063.081.335.024.68.047 1.02.079.608.062 1.25.128 1.89.16.578.043 1.172.058 1.77.07.292.008.59.016.886.027.21 0 .426.008.64.016.22.008.434.016.641.016 1.156 0 2.309-.032 3.461-.067h.387a81.993 81.993 0 0 0 33.668-8.867.768.768 0 0 1 .062-.027c.028-.012.047-.02.067-.04.992-.48 1.953-1.023 2.914-1.566l.96-.578c.673-.383 1.348-.766 1.989-1.184.305-.19.606-.39.91-.593.305-.2.61-.399.914-.59.176-.113.352-.234.528-.352.18-.12.355-.242.53-.355.864-.606 1.731-1.215 2.595-1.856.03-.03.074-.054.113-.082a.731.731 0 0 0 .113-.078 81.7 81.7 0 0 0 22.711-26.222c.047-.098.106-.204.16-.305.055-.106.114-.211.16-.305 6.121-11.398 9.579-24.398 9.579-38.199zm-43.73-44.633h-44.657v44.633h44.657zm0 0"/></svg>