<svg xmlns="http://www.w3.org/2000/svg" width="250" height="250"><path fill="#26ddf9" d="M163.418 0C119.27.246 82.281 33.469 77.312 77.332c-45.59 5.121-79.28 44.906-76.816 90.719s40.23 81.754 86.11 81.949c44.136-.258 81.113-33.477 86.082-77.332 45.59-5.121 79.277-44.898 76.816-90.707C247.043 36.152 209.289.207 163.418 0zm66.312 96.375c-4.425 29.195-27.332 52.117-56.523 56.563V96.374zm-209.46 57.25c4.425-29.195 27.332-52.117 56.523-56.563v56.52zm132.667 19.582c-4.757 32.965-33.007 57.43-66.312 57.43s-61.555-24.465-66.313-57.43zm.731-76.832v57.25H96.375v-57.25zm76.062-19.582H97.063c4.824-32.91 33.05-57.305 66.312-57.305s61.488 24.395 66.313 57.305zm0 0"/></svg>