<svg xmlns="http://www.w3.org/2000/svg" width="250" height="250"><path fill="#b733a7" fill-rule="evenodd" d="M102.074 45.836V12.363L123.801 0l103.515 58.895-65.078 37.027V71.957c5.278-2.012 9.028-7.102 9.028-13.062 0-7.72-6.286-13.977-14.04-13.977-7.753 0-14.038 6.258-14.038 13.977 0 5.96 3.746 11.05 9.023 13.062v29.668l-28.41 16.164L20.285 58.895l71.762-40.829v27.77c-5.277 2.008-9.027 7.098-9.027 13.059 0 7.718 6.285 13.976 14.039 13.976s14.039-6.258 14.039-13.976c0-5.961-3.746-11.051-9.024-13.06zM235 163.324v19.043c0 4.535-2.426 8.727-6.36 10.988l-97.324 55.946c-.46.265-.937.5-1.421.703v-77.402l20.257 11.64a13.887 13.887 0 0 0-.28 2.785c0 7.72 6.284 13.977 14.038 13.977s14.04-6.258 14.04-13.977c0-7.722-6.286-13.98-14.04-13.98-3.14 0-6.039 1.027-8.379 2.762l-25.636-14.73V129.64c.18-.094.359-.192.539-.293l103.515-58.895c.352-.2.696-.418 1.028-.648.015.254.023.507.023.761v81.23l-20.73-11.91c.027-.366.042-.741.042-1.116 0-7.72-6.285-13.98-14.039-13.98-7.75 0-14.039 6.26-14.039 13.98s6.29 13.976 14.04 13.976c3.742 0 7.14-1.457 9.656-3.828zm-220 .051 23.438-13.469a14.031 14.031 0 0 0 8.484 2.84c7.754 0 14.039-6.258 14.039-13.976s-6.285-13.98-14.04-13.98-14.038 6.26-14.038 13.98c0 .91.086 1.8.254 2.66L15 151.852V71.219l102.168 58.129c.176.101.355.199.539.293v31.437l-25.64 14.73a14.013 14.013 0 0 0-8.38-2.761c-7.75 0-14.035 6.258-14.035 13.98 0 7.72 6.285 13.977 14.035 13.977 7.754 0 14.04-6.258 14.04-13.977 0-.957-.094-1.886-.278-2.785l20.258-11.64v76.136l-96.348-55.383A12.678 12.678 0 0 1 15 182.367zm68.688 29.64c-3.32 0-6.016-2.68-6.016-5.988s2.695-5.992 6.016-5.992c3.324 0 6.019 2.684 6.019 5.992s-2.695 5.989-6.02 5.989zm-36.766-48.257c-3.324 0-6.016-2.68-6.016-5.988 0-3.31 2.692-5.993 6.016-5.993s6.016 2.684 6.016 5.993c0 3.308-2.692 5.988-6.016 5.988zm116.988 48.258c-3.324 0-6.015-2.68-6.015-5.989s2.69-5.992 6.015-5.992c3.324 0 6.016 2.684 6.016 5.992s-2.692 5.989-6.016 5.989zm36.363-48.258c-3.32 0-6.015-2.68-6.015-5.988 0-3.31 2.695-5.993 6.015-5.993 3.325 0 6.02 2.684 6.02 5.993 0 3.308-2.695 5.988-6.02 5.988zm-43.046-79.871c-3.325 0-6.016-2.684-6.016-5.992 0-3.31 2.691-5.989 6.016-5.989 3.32 0 6.015 2.68 6.015 5.989 0 3.308-2.695 5.992-6.015 5.992zm-60.168 0c-3.32 0-6.016-2.684-6.016-5.992 0-3.31 2.695-5.989 6.016-5.989 3.324 0 6.02 2.68 6.02 5.989 0 3.308-2.696 5.992-6.02 5.992zm0 0"/></svg>