<svg xmlns="http://www.w3.org/2000/svg" width="250" height="250"><filter id="a" width="100%" height="100%" x="0%" y="0%"><feColorMatrix in="SourceGraphic" values="0 0 0 0 1 0 0 0 0 1 0 0 0 0 1 0 0 0 1 0"/></filter><mask id="c"><g filter="url(#a)"><path fill-opacity=".3" d="M0 0h250v250H0z"/></g></mask><clipPath id="b"><path d="M0 0h250v250H0z"/></clipPath><mask id="e"><g filter="url(#a)"><path fill-opacity=".3" d="M0 0h250v250H0z"/></g></mask><clipPath id="d"><path d="M0 0h250v250H0z"/></clipPath><mask id="g"><g filter="url(#a)"><path fill-opacity=".3" d="M0 0h250v250H0z"/></g></mask><clipPath id="f"><path d="M0 0h250v250H0z"/></clipPath><mask id="i"><g filter="url(#a)"><path fill-opacity=".3" d="M0 0h250v250H0z"/></g></mask><clipPath id="h"><path d="M0 0h250v250H0z"/></clipPath><mask id="k"><g filter="url(#a)"><path fill-opacity=".3" d="M0 0h250v250H0z"/></g></mask><clipPath id="j"><path d="M0 0h250v250H0z"/></clipPath><mask id="m"><g filter="url(#a)"><path fill-opacity=".3" d="M0 0h250v250H0z"/></g></mask><clipPath id="l"><path d="M0 0h250v250H0z"/></clipPath><mask id="o"><g filter="url(#a)"><path fill-opacity=".1" d="M0 0h250v250H0z"/></g></mask><clipPath id="n"><path d="M0 0h250v250H0z"/></clipPath><mask id="q"><g filter="url(#a)"><path fill-opacity=".1" d="M0 0h250v250H0z"/></g></mask><clipPath id="p"><path d="M0 0h250v250H0z"/></clipPath><path fill="#472edb" d="M230.71 177.387c28.93-58.38 5.056-129.157-53.323-158.086-58.383-28.93-129.16-5.055-158.09 53.324-28.93 58.383-5.055 129.16 53.324 158.09 58.383 28.93 129.16 5.055 158.09-53.328zm0 0"/><path fill="#fff" d="M107.5 193.75a7.962 7.962 0 0 1-3.367-.75 8.006 8.006 0 0 1-2.73-2.105l-.055-.063a8.02 8.02 0 0 1-1.547-3.113 7.972 7.972 0 0 1-.078-3.477 20.753 20.753 0 0 1 2.68-6.832c-16.458-8.543-28.571-25.945-30.778-44.918-.16-1.375 0-2.762.469-4.062A8.927 8.927 0 0 1 74.32 125a9.324 9.324 0 0 1 8.035-2.43 269.521 269.521 0 0 0 43.02 3.653 271.257 271.257 0 0 0 43.082-3.66 8.653 8.653 0 0 1 1.523-.126 9.318 9.318 0 0 1 6.403 2.528 8.85 8.85 0 0 1 2.75 7.59c-2.223 18.937-14.285 36.328-30.778 44.882a20.65 20.65 0 0 1 2.68 6.813 8.11 8.11 0 0 1-.078 3.48 8.009 8.009 0 0 1-1.547 3.118l-.055.062a7.874 7.874 0 0 1-2.73 2.106 7.953 7.953 0 0 1-3.367.754zm-15.918-51.473a32.755 32.755 0 0 0 2.676 5.223l-2.016-5.145zm0 0"/><path fill="#472edb" d="M80.758 127.305c.242 0 .484.027.722.07a274.999 274.999 0 0 0 43.895 3.73 275.452 275.452 0 0 0 43.895-3.73c.234-.043.472-.063.71-.063 1.137 0 2.227.43 3.055 1.208a4.005 4.005 0 0 1 1.234 3.39c-2.242 19.133-15.43 36.508-32.796 43.235a.768.768 0 0 0-.328.238.805.805 0 0 0-.168.37.827.827 0 0 0 .039.403.784.784 0 0 0 .234.336 15.545 15.545 0 0 1 4.938 8.696c.09.44.082.894-.024 1.332a3.04 3.04 0 0 1-1.64 2.02 3.058 3.058 0 0 1-1.301.292h-35.715c-.445 0-.887-.102-1.293-.289a3.082 3.082 0 0 1-1.047-.813 3.087 3.087 0 0 1-.625-2.542 15.407 15.407 0 0 1 4.937-8.696.76.76 0 0 0 .27-.742.756.756 0 0 0-.492-.605c-17.363-6.727-30.551-24.11-32.793-43.235a4.06 4.06 0 0 1 1.258-3.39 4.463 4.463 0 0 1 3.047-1.215zm20.547 33.925a2.409 2.409 0 0 0 1.675-.695c.434-.406.704-.953.766-1.543a2.49 2.49 0 0 0-.426-1.672l-6.89-17.578a2.75 2.75 0 0 0-.825-1.414 2.704 2.704 0 0 0-1.48-.683c-2.25-.27-4.27-.563-5.973-.805a1.506 1.506 0 0 0-.375 0 2.274 2.274 0 0 0-1.707.777c-.254.274-.437.61-.527.977-.094.363-.09.75.012 1.113A38.206 38.206 0 0 0 99.84 160.77c.414.308.918.48 1.437.488zm-20.563-43.722a14.19 14.19 0 0 0-9.824 3.91 13.819 13.819 0 0 0-4.258 11.555v.097a64.711 64.711 0 0 0 9.488 26.434 64.676 64.676 0 0 0 19.797 19.914 26.177 26.177 0 0 0-1.078 3.867 12.87 12.87 0 0 0 2.625 10.645l.098.113a12.797 12.797 0 0 0 9.867 4.617h35.711a12.84 12.84 0 0 0 5.426-1.215c1.695-.8 3.199-1.96 4.398-3.402l.106-.113a12.922 12.922 0 0 0 2.504-5.032c.453-1.835.492-3.753.12-5.613a26.707 26.707 0 0 0-1.09-3.867 64.697 64.697 0 0 0 19.794-19.898 64.67 64.67 0 0 0 9.492-26.415 13.66 13.66 0 0 0-.66-6.328 13.665 13.665 0 0 0-3.453-5.347l-.063-.075a14.303 14.303 0 0 0-12.074-3.66 265.89 265.89 0 0 1-42.293 3.575 265.47 265.47 0 0 1-42.223-3.575c-.789-.14-1.59-.215-2.394-.215zm0 0"/><path fill="#fff" d="M125.277 129.27a276.962 276.962 0 0 1-43.386-3.68h-.274a4.897 4.897 0 0 1-4.375-5.285 48.13 48.13 0 0 1 47.91-44.11 49.1 49.1 0 0 1 7.828.637l7.875-15.324a9.558 9.558 0 0 1 2.333-2.938 9.554 9.554 0 0 1 7.004-2.238 9.525 9.525 0 0 1 3.601 1.043l4.152 2.152a9.626 9.626 0 0 1 3.82 3.59 9.666 9.666 0 0 1 1.38 5.063 9.58 9.58 0 0 1 5.816-.27 9.568 9.568 0 0 1 4.894 3.16l2.977 3.575a9.632 9.632 0 0 1 2.137 7.02 9.632 9.632 0 0 1-3.442 6.48l-10.714 8.925a47.67 47.67 0 0 1 8.285 23.215 4.889 4.889 0 0 1-1.118 3.547 4.865 4.865 0 0 1-3.285 1.738 276.483 276.483 0 0 1-36.027 3.575h-7.41zm0 0"/><path fill="#472edb" d="M149.395 61.168a4.71 4.71 0 0 1 2.132.52l4.168 2.16a4.715 4.715 0 0 1 2.02 6.32l-7.285 14.18 13.097-10.828a4.598 4.598 0 0 1 1.602-.868 4.743 4.743 0 0 1 1.812-.187 4.634 4.634 0 0 1 3.156 1.68l2.985 3.625a4.692 4.692 0 0 1 1.043 3.418 4.685 4.685 0 0 1-1.68 3.16l-14.41 11.937a43.057 43.057 0 0 1 10.16 24.41h-.07a268.399 268.399 0 0 1-35.715 3.528h-.402c-.625 0-1.25 0-1.883.047-.633.043-1.027 0-1.57 0H125.242a272.43 272.43 0 0 1-42.734-3.645l-.418-.043a43.205 43.205 0 0 1 43.062-39.512c3.535 0 7.059.43 10.493 1.278l9.578-18.633c.394-.766.996-1.406 1.73-1.856s1.578-.687 2.442-.691zm0-9.82a14.477 14.477 0 0 0-12.887 7.84l-6.32 12.292a53.037 53.037 0 0 0-40.93 13.77 53.056 53.056 0 0 0-16.938 34.605 9.824 9.824 0 0 0 8.75 10.582h.145a282.735 282.735 0 0 0 44.027 3.723h7.598a281.577 281.577 0 0 0 36.492-3.57 9.838 9.838 0 0 0 6.434-3.54 9.835 9.835 0 0 0 2.18-7.015 52.6 52.6 0 0 0-6.731-21.805l7.445-6.175a14.524 14.524 0 0 0 5.18-9.778 14.53 14.53 0 0 0-3.215-10.59l-2.945-3.785a14.42 14.42 0 0 0-10.66-5.27 14.505 14.505 0 0 0-6.778-7.487l-4.199-2.172a14.533 14.533 0 0 0-6.64-1.618zm0 0"/><g clip-path="url(#b)" mask="url(#c)"><path fill="#fff" d="m130.188 71.492 6.32-12.297a14.472 14.472 0 0 1 12.887-7.84c2.03.004 4.039.434 5.89 1.262 12.27-9.02 26.86-14.582 41.813-14.887a112.51 112.51 0 0 0-48.938-23.265 88.127 88.127 0 0 0-24.695 25.539 88.123 88.123 0 0 0-12.61 33.21 53.211 53.211 0 0 1 14.29-1.964c1.687 0 3.37.082 5.043.242zm0 0"/></g><g clip-path="url(#d)" mask="url(#e)"><path fill="#fff" d="M232.645 89.777a87.231 87.231 0 0 0-48.715-8.144 14.429 14.429 0 0 1-5.207 10.277l-7.446 6.18a52.418 52.418 0 0 1 5.036 12.222c23.68 1.903 46.82 13.793 60.214 33.34a112.015 112.015 0 0 0-3.882-53.875zm0 0"/></g><g clip-path="url(#f)" mask="url(#g)"><path fill="#fff" d="M85.5 89.133c-8.93-21.426-8.355-47.82.395-69.64A113.028 113.028 0 0 0 40.82 50.894c2.11 24.25 14.285 47.32 32.735 61.347A52.834 52.834 0 0 1 85.5 89.132zm0 0"/></g><g clip-path="url(#h)" mask="url(#i)"><path fill="#fff" d="M181.895 143.313a65.368 65.368 0 0 1-14.602 25.59c5.45 19.64 3.762 42.292-2.75 61.179a114.25 114.25 0 0 0 16.492-7.625 112.625 112.625 0 0 0 28.645-23.11c-1.25-21.917-12.075-42.14-27.785-56.035zm0 0"/></g><g clip-path="url(#j)" mask="url(#k)"><path fill="#fff" d="M107.5 198.645c-1.883 0-3.742-.415-5.45-1.211a12.86 12.86 0 0 1-4.417-3.407l-.098-.117c-.195-.242-.367-.5-.543-.75a94.808 94.808 0 0 1-42.074 18.75 112.475 112.475 0 0 0 48.777 22.91 96.236 96.236 0 0 0 28.7-36.132zm0 0"/></g><g clip-path="url(#l)" mask="url(#m)"><path fill="#fff" d="M68.07 140.527c-21.132-3.922-41.472-16.257-53.472-32.617a112.006 112.006 0 0 0 4.91 53.403c18.75 7.722 41.262 9.457 60.86 4.027a65.037 65.037 0 0 1-12.298-24.813zm0 0"/></g><g clip-path="url(#n)" mask="url(#o)"><path fill="#fff" d="M176.785 37.883s.992.527 2.735 1.715a74.251 74.251 0 0 1 7.21 5.625 91.287 91.287 0 0 1 10.055 10.215 97.187 97.187 0 0 1 10.848 15.312 104.315 104.315 0 0 1 9.332 20.418A52.569 52.569 0 0 1 218.75 97c.535 2.117 1.043 3.758 1.605 6.332.903 4.121 1.551 8.297 1.938 12.5a99.22 99.22 0 0 1-1.016 27.625 106.53 106.53 0 0 1-8.687 27.125 105.13 105.13 0 0 1-15.68 23.856 70.569 70.569 0 0 1-10.777 9.902 90.444 90.444 0 0 1-11.73 7.14 114.836 114.836 0 0 1-45.75 12.5c-6.255.415-12.532.239-18.75-.515a95.909 95.909 0 0 1-14.048-2.68 80.468 80.468 0 0 1-8.675-2.805l-2.993-1.187 3.196.227c2.074.187 5.125.292 8.93.375 3.804.078 8.464-.102 13.687-.52 5.805-.54 11.57-1.453 17.258-2.73a131.19 131.19 0 0 0 19.512-6.11 126.35 126.35 0 0 0 19.988-10.07 92.417 92.417 0 0 0 9.304-6.66 55.432 55.432 0 0 0 7.723-8.035 105.113 105.113 0 0 0 12.645-20.387 107.573 107.573 0 0 0 7.695-22.703 102.994 102.994 0 0 0 2.27-23.11c.16-3.488-.45-7.777-.7-11.703-.14-1.34-.527-3.574-.765-5.234-.243-1.66-.61-3.57-.985-5.356a122.368 122.368 0 0 0-5.597-19.52 136.795 136.795 0 0 0-14.286-27.632 99.761 99.761 0 0 0-7.277-9.742zm0 0"/></g><g clip-path="url(#p)" mask="url(#q)"><path fill="#fff" d="M77.152 212.332a31.6 31.6 0 0 1-2.68-1.727 70.093 70.093 0 0 1-7.214-5.625 90.488 90.488 0 0 1-10.117-10.21 97.394 97.394 0 0 1-10.82-15.305 104.637 104.637 0 0 1-9.348-20.422 54.35 54.35 0 0 1-1.785-5.836c-.528-2.11-1.047-3.75-1.61-6.332a105.485 105.485 0 0 1-1.937-12.5 99.722 99.722 0 0 1 1.027-27.633 105.298 105.298 0 0 1 24.348-50.965 70.37 70.37 0 0 1 10.777-9.902 89.527 89.527 0 0 1 11.723-7.145 115.047 115.047 0 0 1 45.754-12.5c6.25-.406 12.527-.23 18.75.528a94.551 94.551 0 0 1 14.015 2.707 84.4 84.4 0 0 1 8.68 2.793l2.98 1.187-3.195-.222c-2.063-.188-5.117-.285-8.93-.368-3.812-.078-8.453.09-13.675.512a136.352 136.352 0 0 0-17.262 2.738 131.288 131.288 0 0 0-19.453 6.083 128.779 128.779 0 0 0-19.985 10.09 92.168 92.168 0 0 0-9.304 6.652 55.241 55.241 0 0 0-7.723 8.035 104.707 104.707 0 0 0-12.613 20.367 107.542 107.542 0 0 0-7.727 22.75 102.95 102.95 0 0 0-2.258 23.106c-.168 3.48.438 7.777.696 11.707.144 1.328.52 3.523.761 5.222.223 1.828.606 3.57.98 5.356A123.693 123.693 0 0 0 55.606 175a137.665 137.665 0 0 0 14.286 27.68 101.475 101.475 0 0 0 7.261 9.652zm0 0"/></g><g fill="none" stroke="#6c6cea" stroke-linecap="round" stroke-linejoin="round" stroke-width="5"><path stroke-width="4.4643" d="m130.187 71.492 6.32-12.297a14.472 14.472 0 0 1 12.888-7.84c2.03.004 4.039.434 5.89 1.262 12.27-9.02 26.86-14.582 41.813-14.887a112.51 112.51 0 0 0-48.938-23.265 88.127 88.127 0 0 0-24.695 25.539 88.123 88.123 0 0 0-12.61 33.21 53.211 53.211 0 0 1 14.29-1.964c1.687 0 3.37.082 5.042.242zM232.644 89.777a87.231 87.231 0 0 0-48.714-8.144 14.429 14.429 0 0 1-5.207 10.277l-7.446 6.18a52.418 52.418 0 0 1 5.035 12.222c23.68 1.903 46.82 13.793 60.215 33.34a112.015 112.015 0 0 0-3.883-53.875zM85.5 89.133c-8.93-21.426-8.355-47.82.395-69.64A113.028 113.028 0 0 0 40.82 50.894c2.11 24.25 14.285 47.32 32.735 61.347A52.834 52.834 0 0 1 85.5 89.132zM181.895 143.312a65.368 65.368 0 0 1-14.602 25.59c5.45 19.64 3.762 42.293-2.75 61.18a114.25 114.25 0 0 0 16.492-7.625 112.625 112.625 0 0 0 28.645-23.11c-1.25-21.917-12.075-42.14-27.785-56.035zM107.5 198.644c-1.883 0-3.742-.414-5.45-1.21a12.86 12.86 0 0 1-4.417-3.407l-.098-.117c-.195-.242-.367-.5-.543-.75a94.808 94.808 0 0 1-42.074 18.75 112.475 112.475 0 0 0 48.777 22.91 96.236 96.236 0 0 0 28.7-36.133zM68.07 140.527c-21.133-3.922-41.472-16.257-53.472-32.617a112.006 112.006 0 0 0 4.91 53.402c18.75 7.723 41.262 9.458 60.86 4.028a65.037 65.037 0 0 1-12.298-24.813zm0 0"/></g><path fill="#fff" d="M125.348 11.215a113.798 113.798 0 0 1 75.187 28.234c20.797 18.235 34.242 43.418 37.82 70.848s-2.957 55.223-18.378 78.183A113.803 113.803 0 0 1 18.027 87.613a113.783 113.783 0 0 1 51.465-61.656 113.7 113.7 0 0 1 55.856-14.742zm0-6.11a119.85 119.85 0 0 0-30.633 235.688 119.865 119.865 0 0 0 84.047-8.492 119.834 119.834 0 0 0 57.562-61.82 119.848 119.848 0 0 0-51.332-149.543 119.92 119.92 0 0 0-59.644-15.833zm0 0"/></svg>