<svg xmlns="http://www.w3.org/2000/svg" width="250" height="250"><linearGradient id="a" x1="68.335" x2="182.889" y1="224.295" y2="25.882" gradientUnits="userSpaceOnUse"><stop offset=".002" stop-color="#ffdc00"/><stop offset=".333" stop-color="#e58e2f"/><stop offset=".667" stop-color="#db2d72"/><stop offset="1" stop-color="#f0f"/></linearGradient><path fill="url(#a)" d="m64.898 221.094-15.511-26.871c-.48-.864-.48-2.293.011-3.145l17.227-29.828c.496-.86 1.762-1.59 2.754-1.59h34.445c.992 0 2.254.73 2.754 1.59l17.223 29.828c.496.86.496 2.313 0 3.18l-17.223 29.828c-.488.844-1.707 1.55-2.687 1.582h-31c-2.922-.027-6.477-2.063-7.993-4.574zm111.864-61.38-34.313-59.433c-.683-1.176-2.402-2.172-3.77-2.172H70.052c-1.364 0-3.086.996-3.77 2.172l-34.316 59.434c-.684 1.176-.684 3.172 0 4.351l10.058 17.426 17.57-30.433c.798-1.391 2.755-2.512 4.352-2.512h45.223c1.598 0 3.555 1.129 4.352 2.512l22.613 39.16c.8 1.386.8 3.64 0 5.027l-17.57 30.43h20.101c1.36 0 3.086-.996 3.77-2.172l34.316-59.434c.688-1.183.688-3.18.012-4.355zm62.289-39.316-52.656-91.207c-1.489-2.578-5.145-4.691-8.122-4.691H72.953c-2.976 0-6.633 2.113-8.121 4.691l-52.656 91.207c-1.488 2.579-1.488 6.801 0 9.38l12.066 20.902 35-60.618c.988-1.71 3.399-3.097 5.367-3.097h79.47c1.976 0 4.378 1.387 5.366 3.097l39.739 68.825c.988 1.715.988 4.488 0 6.199l-34.985 60.59h24.074c2.977 0 6.633-2.113 8.122-4.692l52.656-91.207c1.488-2.578 1.488-6.8 0-9.379zm0 0"/></svg>