<svg xmlns="http://www.w3.org/2000/svg" width="250" height="250"><g fill-rule="evenodd"><path fill="#fbfbfc" d="M86.598 86.598C62.742 110.453 62.5 110.75 62.5 116.094c0 7.035 3.637 12.148 9.996 14.054 3.746 1.122 5.711 1.114 8.488-.039 5.188-2.148 48.633-46.199 49.664-50.355 2.172-8.738-5.214-17.238-14.988-17.25-4.781-.004-5.844.879-29.062 24.094m37.777 20.156c-5.453 2.41-17.652 15.754-18.68 20.43-1.132 5.16 2.223 12.32 6.91 14.746 1.938 1 5.618 1.82 8.18 1.82 4.121 0 5.715-1.055 13.813-9.152s9.152-9.692 9.152-13.813c0-6.508-3.152-11.914-8.168-14.008-5.144-2.152-6.383-2.152-11.207-.023m18.473 36.094C118.992 166.703 118.75 167 118.75 172.344c0 7.035 3.637 12.148 9.996 14.054 3.746 1.122 5.711 1.114 8.488-.039 5.188-2.148 48.633-46.199 49.664-50.355 2.172-8.738-5.214-17.238-14.988-17.25-4.781-.004-5.844.879-29.062 24.094"/><path fill="#6c2cf4" d="M0 125.008v125.004l125.313-.317 125.312-.32.32-124.688L251.262 0H0zm.602.617c0 68.75.152 97.059.336 62.906.183-34.148.183-90.398 0-125-.184-34.597-.336-6.656-.336 62.094m85.996-39.027C62.742 110.453 62.5 110.75 62.5 116.094c0 7.035 3.637 12.148 9.996 14.054 3.746 1.122 5.711 1.114 8.488-.039 5.188-2.148 48.633-46.199 49.664-50.355 2.172-8.738-5.214-17.238-14.988-17.25-4.781-.004-5.844.879-29.062 24.094m37.777 20.156c-5.453 2.41-17.652 15.754-18.68 20.43-1.132 5.16 2.223 12.32 6.91 14.746 1.938 1 5.618 1.82 8.18 1.82 4.121 0 5.715-1.055 13.813-9.152s9.152-9.692 9.152-13.813c0-6.508-3.152-11.914-8.168-14.008-5.144-2.152-6.383-2.152-11.207-.023m18.473 36.094C118.992 166.703 118.75 167 118.75 172.344c0 7.035 3.637 12.148 9.996 14.054 3.746 1.122 5.711 1.114 8.488-.039 5.188-2.148 48.633-46.199 49.664-50.355 2.172-8.738-5.214-17.238-14.988-17.25-4.781-.004-5.844.879-29.062 24.094"/></g></svg>