<svg xmlns="http://www.w3.org/2000/svg" width="250" height="250"><g stroke-width="12.5"><path stroke="#fff" stroke-width="6.1034999999999995" d="M0 0h250v250H0zm8.871 121.098c-.293 3.418-.117 6.8.106 10.222.554 13.305 3.593 26.508 8.843 38.742 3.004 7.473 7.04 14.547 11.657 21.133 13.257 19.238 32.445 34.117 54.253 42.442 8.465 2.949 16.88 5.484 25.82 6.511 7.419.965 14.825 1.032 22.286.754 15.176-.652 30.316-4.949 43.992-11.465 16.559-8.109 31.04-20.18 42.14-34.886 6.255-8.348 11.329-17.54 15.215-27.215 3.02-8.254 5.497-16.485 6.692-25.223 1.691-12.367 1.527-25.02-.559-37.328-1.261-6.89-3.203-13.598-5.601-20.172-10.102-26.875-30.457-49.593-56.055-62.601-8.957-4.57-18.539-8.063-28.406-10.055-9.77-2.324-20.098-2.832-30.11-2.457-4.152.23-8.328.547-12.433 1.227-5.883 1.128-11.727 2.324-17.395 4.289-5.925 1.68-11.527 4.183-17.007 6.972-8.07 3.914-15.13 8.996-22.118 14.57-14.832 12.489-26.613 28.75-33.632 46.84-2.383 6.532-4.442 13.168-5.801 20-1.078 5.844-1.68 11.758-1.887 17.7zm0 0"/><path stroke="#1b1c1a" stroke-width="6.1034999999999995" d="M119.144 9.5c10.012-.375 20.34.133 30.11 2.457 9.867 1.992 19.449 5.484 28.406 10.055 25.598 13.008 45.953 35.726 56.055 62.601 2.398 6.574 4.34 13.281 5.601 20.172 2.086 12.309 2.25 24.961.559 37.328-1.195 8.738-3.672 16.969-6.692 25.223-3.886 9.676-8.96 18.867-15.214 27.215-11.102 14.707-25.582 26.777-42.141 34.886-13.676 6.516-28.816 10.813-43.992 11.465-7.461.278-14.867.211-22.285-.754-8.942-1.027-17.356-3.562-25.82-6.511-21.81-8.325-40.997-23.204-54.254-42.442-4.618-6.586-8.653-13.66-11.657-21.133-5.25-12.234-8.289-25.437-8.843-38.742-.223-3.422-.399-6.804-.106-10.222.207-5.942.809-11.856 1.887-17.7 1.36-6.832 3.418-13.468 5.8-20 7.02-18.09 18.801-34.351 33.633-46.84 6.989-5.574 14.047-10.656 22.118-14.57 5.48-2.789 11.082-5.293 17.007-6.972 5.668-1.965 11.512-3.16 17.395-4.29 4.105-.68 8.281-.996 12.433-1.226zM95.59 51.242c4.105.25 8.207-.246 12.32-.05 5.055.253 10.137.136 15.16.644 6.508.547 12.985 1.644 19.371 3.008 4.899 1.172 9.918 2.496 14.52 4.566 2.93 1.3 5.855 2.73 8.312 4.817 5.977 5.335 10.864 11.554 13.317 19.28.547 1.65.86 3.407 1.543 5 .593 1.298 2.218 2.126 3.383 2.868.187-6.223-.297-12.523.308-18.793.117-1.742.418-3.266-.64-4.8-3.114-4.622-7.872-8.407-12.5-11.438-6.012-4.024-12.434-7.356-19.364-9.469-5.86-2.063-11.847-2.867-17.996-3.461-5.996-.523-11.797.078-17.707 1.02-4.86.8-9.383 2.308-14 3.96-2.101.754-4.133 1.653-6.027 2.848zm38.144 49.793c-.965-2.187-2.187-4.23-3.379-6.3-6.566-11.497-13.086-23.02-19.66-34.516-1.14-1.93-2.086-4.047-3.445-5.828-.531-.766-1.395-.641-2.23-.762-2.399-.098-4.84-.113-7.231.125.762 2.215 2.11 4.3 3.207 6.363 4.902 9.086 9.742 18.18 14.648 27.262.88 1.562 1.653 3.672 3.301 4.55 1.79 1.036 3.711 1.817 5.492 2.876 3.282 1.851 6.09 4.273 9.297 6.23zm14.055 10.328c-1.508-3.078-3.297-6.011-5.016-9.011-8.207-14.274-16.332-28.594-24.472-42.907-1.043-1.703-1.875-3.941-3.403-5.246-1.562-.43-3.3-.363-4.914-.324 1.04 2.578 2.727 4.945 4.07 7.379 7.266 12.734 14.653 25.402 21.926 38.129 1.473 2.484 2.809 5.738 5.176 7.449a88.26 88.26 0 0 0 6.633 4.531zM63.051 62.031c1.187 2.906 2.957 5.504 4.355 8.324 2.313 4.079 4.305 8.38 6.867 12.301 3.262.153 6.454-.445 9.715-.18 2.739.227 5.848.344 8.41 1.395 1.625.691 2.54 1.926 3.813 3.063.785.914 2.375.57 3.469.66-.926-2.754-2.473-5.078-3.899-7.575-3.98-7.082-8.164-14.042-12.105-21.144-.653-1.176-1.407-2.29-2.188-3.387-2.761.364-5.441 1.067-8.129 1.785-3.632.989-7.418 2.25-10.308 4.758zm65.746-6.527c.496 1.035 1 2.058 1.601 3.035a26863.485 26863.485 0 0 1 30.856 47.77c1.683 2.535 3.137 5.363 5.191 7.554 2.52-.832 4.774-2.008 6.68-3.883-1.438-2.707-3.184-5.191-4.813-7.777-8.265-13.066-16.625-26.074-24.878-39.148-1.137-1.743-2.114-3.68-3.477-5.258-.68-.82-1.762-.926-2.738-1.152a115.622 115.622 0 0 0-8.422-1.141zm54.988 100.164c-.48 4.101-.785 8.754.363 12.766.657 2.167 1.97 3.738 3.961 4.8 4.082 2.29 9.227 2.602 13.434.461 4.492-2.254 7.969-6.136 10.762-10.238 4.18-6.156 6.687-12.957 8.64-20.094.906-3.613 1.317-7.394 1.735-11.094.437-3.91-.098-7.894-.957-11.718-.692-3.012-2.051-5.606-3.329-8.387-2.046-4.656-4.625-8.906-7.293-13.223-3.375-5.316-7.003-10.449-10.988-15.328-3.219-3.957-6.543-8.336-10.691-11.344-.766 4.079-.598 8.547-.57 12.692.453 9.914.539 19.863.386 29.785-.312 14.113-3.668 27.082-5.453 40.922zm-115.613-54.5c.152-3.465-1.79-6.5-1.473-9.863.215-1.43 1.328-1.977 2.551-2.438 7.434-2.312 14.383-1.777 21.992-1.758a28.486 28.486 0 0 1-.219-1.425c-1.859-.407-3.675-.575-5.574-.582-5.644-.055-11.148-.235-16.637 1.289-1.566.464-3.457 1.207-4.445 2.574-.367 1.449.207 3.207.508 4.648.809 2.797 1.078 5.48 3.297 7.555zm13.996 7.89c-2.363 1.024-4.887 1.61-7.445 1.836-1.79-.425-3.465-.863-4.977-1.945-2.324-1.582-3.848-4.164-5.14-6.597-1.348-2.5-1.88-5.141-2.852-7.774-2.887-.559-6.106.274-8.77 1.406-6.265 2.82-10.578 8.172-13.523 14.23-2.68 5.934-4.14 12.231-4.79 18.692-.843 6.14-.882 12.324-.64 18.508.57 7.39 1.805 14.617 4.504 21.55 2.043 5.692 5.297 11.544 10.324 15.114 1.735 1.305 3.684 2.09 5.79 2.582-.551-3.309-1.712-6.351-2.544-9.582-.949-3.562-1.511-7.094-2.144-10.727-.516-3.027-.977-6.039-.953-9.12.015-3.485-.184-7.06.265-10.528.899-5.61 2.793-11.242 6.805-15.418 2.774-2.969 6.379-4.762 10.25-5.848 2.344-.652 4.965-.625 7.418-.886.168-2.106.102-4.215.242-6.317.172-2.047 1.02-3.797 2.043-5.543.117 4.059-.617 7.676.88 11.625 2.69.899 5.51 1.149 8.206 2.012 3.379 1.07 6.703 2.523 9.68 4.461 3.89 2.566 7.523 5.43 10.523 9.023 7.145 7.907 11.969 17.016 17.254 26.168 4.38 7.856 8.98 16.34 15.156 22.946 3.41 3.675 7.664 6.457 12.63 7.46 5.796 1.442 12.042.212 16.902-3.23 5.379-3.863 9.515-9.398 12.718-15.129.676-1.383 1.5-2.863.938-4.43-.871-2.601-2.086-4.933-2.371-7.722-.48-5.492-.14-10.973.86-16.39 1.124-7.141 2.273-14.274 3.44-21.403.442-2.945.907-5.848.708-8.84-2.04-1.64-4.352-2.988-6.758-4.008-1.137-.632-2.125.664-3.09 1.14-3.652 2.321-7.809 3.118-12.086 3.134-3.477.015-6.8.203-10.152-.867-6.164-1.938-11.23-5.774-16.27-9.676-5.23-3.996-10.7-8.254-16.547-11.27-7.07-3.656-14.957-5.523-22.918-4.683-.504.054-.847.254-1.015.597-.793 1.254-1.367 2.649-2.078 3.953-1.336 2.551-3.235 4.88-5.18 6.989-1.578 1.644-3.313 3.363-5.293 4.508zm-27.281 52.567c.082 5.332.93 10.578 2.097 15.766.883 4.289 3.48 8.425 6.762 11.289 4.113 3.218 8.633 5.964 13.3 8.296 13.598 7.313 29.634 10.836 45 8.602 3.403-.422 6.763-1.129 10.024-2.195 3.559-1.164 6.957-2.137 10.172-4.125-2.836-2.34-5.91-4.157-8.394-6.93-7.536-8.219-12.813-18.719-18.325-28.3-3.601-5.895-7.101-12.262-11.507-17.548-2.606-3.203-5.477-6.28-8.7-8.867-6.832-5.457-15.84-8.152-24.539-7.437-3.972.34-7.765 1.851-10.539 4.765-2.972 2.93-4.293 6.801-5.195 10.778-1.023 5.14-.762 10.722-.156 15.906zm0 0"/><path stroke="#fff" stroke-width="6.1034999999999995" d="M133.324 43.414c6.149.594 12.137 1.398 17.996 3.461 6.93 2.113 13.352 5.445 19.364 9.469 4.628 3.031 9.386 6.816 12.5 11.437 1.058 1.535.757 3.059.64 4.801-.605 6.27-.121 12.57-.308 18.793-1.165-.742-2.79-1.57-3.383-2.867-.684-1.594-.996-3.352-1.543-5-2.453-7.727-7.34-13.946-13.317-19.281-2.457-2.086-5.382-3.516-8.312-4.817-4.602-2.07-9.621-3.394-14.52-4.566-6.386-1.364-12.863-2.461-19.37-3.008-5.024-.508-10.106-.39-15.16-.645-4.114-.195-8.216.301-12.321.051 1.894-1.195 3.926-2.094 6.027-2.847 4.617-1.653 9.14-3.16 14-3.961 5.91-.942 11.711-1.543 17.707-1.02zm0 0"/><path stroke="#fff" stroke-width="6.1034999999999995" d="M97.789 53.754c2.39-.238 4.832-.223 7.23-.125.836.121 1.7-.004 2.23.762 1.36 1.78 2.306 3.898 3.446 5.828 6.574 11.496 13.094 23.02 19.66 34.515 1.192 2.07 2.414 4.114 3.38 6.301-3.208-1.957-6.016-4.379-9.298-6.23-1.78-1.059-3.703-1.84-5.492-2.875-1.648-.88-2.422-2.989-3.3-4.551-4.907-9.082-9.747-18.176-14.649-27.262-1.098-2.062-2.445-4.148-3.207-6.363zM109.984 53.875c1.614-.04 3.352-.105 4.914.324 1.528 1.305 2.36 3.543 3.403 5.246 8.14 14.313 16.265 28.633 24.472 42.907 1.72 3 3.508 5.933 5.016 9.011a88.26 88.26 0 0 1-6.633-4.531c-2.367-1.711-3.703-4.965-5.176-7.45-7.273-12.726-14.66-25.394-21.925-38.128-1.344-2.434-3.032-4.8-4.07-7.379zM81.488 55.488c.781 1.098 1.535 2.211 2.188 3.387 3.941 7.102 8.125 14.062 12.105 21.144 1.426 2.497 2.973 4.82 3.899 7.575-1.094-.09-2.684.254-3.47-.66-1.273-1.137-2.187-2.372-3.812-3.063-2.562-1.05-5.671-1.168-8.41-1.394-3.261-.266-6.453.332-9.715.18-2.562-3.923-4.554-8.223-6.867-12.302-1.398-2.82-3.168-5.418-4.355-8.324 2.89-2.508 6.676-3.77 10.308-4.758 2.688-.718 5.368-1.421 8.13-1.785zM128.797 55.504c2.808.27 5.637.664 8.422 1.14.976.227 2.058.333 2.738 1.153 1.363 1.578 2.34 3.515 3.477 5.258 8.253 13.074 16.613 26.082 24.878 39.148 1.63 2.586 3.375 5.07 4.813 7.777-1.906 1.875-4.16 3.051-6.68 3.883-2.054-2.191-3.508-5.02-5.191-7.554a26863.485 26863.485 0 0 0-30.856-47.77c-.601-.977-1.105-2-1.601-3.035zM189.422 72.27c4.148 3.007 7.472 7.386 10.691 11.343 3.985 4.88 7.613 10.012 10.988 15.328 2.668 4.317 5.247 8.567 7.293 13.223-1.418 7.11-3.039 13.934-6.074 20.555-3.535 7.925-8.828 15.586-15.922 20.71-3.453 2.399-7.863 4.329-12.144 4.145-.16-.637-.317-1.27-.469-1.906 1.785-13.84 5.14-26.809 5.453-40.922.153-9.922.067-19.871-.387-29.785-.027-4.145-.195-8.613.57-12.692zm0 0"/><path stroke="#fff" stroke-width="6.1034999999999995" d="M85.45 85.102c1.898.007 3.714.175 5.573.582.063.48.133.953.22 1.425-7.61-.02-14.56-.554-21.993 1.758-1.223.461-2.336 1.008-2.55 2.438-.317 3.363 1.624 6.398 1.472 9.863-2.219-2.074-2.488-4.758-3.297-7.555-.3-1.441-.875-3.199-.508-4.648.988-1.367 2.88-2.11 4.445-2.574 5.489-1.524 10.993-1.344 16.637-1.29zM95.734 93.012c7.961-.84 15.848 1.027 22.918 4.683 5.848 3.016 11.317 7.274 16.547 11.27 5.04 3.902 10.106 7.738 16.27 9.676 3.351 1.07 6.675.882 10.152.867 4.277-.016 8.434-.813 12.086-3.133 2.605.91 6.039 2.137 7.742 4.426.305 2.222-.3 4.629-.531 6.847-.715 6-1.461 11.985-2.606 17.918-.933 4.77-1.46 9.692-2.77 14.38-.839 2.964-2.503 5.359-4.952 7.222a19.512 19.512 0 0 1-10.063 4.082c-4.039.426-8.004.203-11.62-1.805-4.188-2.37-7.891-5.828-11.294-9.207-8.387-8.52-15.832-18.097-23.648-27.137-3.223-3.667-6.563-7.562-10.387-10.609-5.496-4.305-12.078-6.867-18.953-7.906-2.648-.367-5.336-.328-8.004-.582.09-.922.18-1.84.293-2.758 1.766-.644 3.61-1.281 5.254-2.187 1.98-1.145 3.715-2.864 5.293-4.508 1.945-2.11 3.844-4.438 5.18-6.989.71-1.304 1.285-2.699 2.078-3.953.168-.343.511-.543 1.015-.597zM61.754 94.578c.973 2.633 1.504 5.274 2.851 7.774 1.293 2.433 2.817 5.015 5.141 6.597 1.512 1.082 3.188 1.52 4.977 1.945.675.512 1.093.95 1.308 1.797-2.336 2.66-5.226 2.368-8.367 3.305-5.77 1.598-11.383 4.55-14.86 9.586-4.335 6.074-6.34 14.086-7.218 21.406-.813 5.918-.242 11.68.434 17.578.351 2.918 1.125 6.211.652 9.13-.172.952-.656 1.648-1.715 1.46-3.512-.39-5.059-3.328-6.422-6.191-2.7-6.934-3.933-14.16-4.504-21.551-.242-6.184-.203-12.367.64-18.508.65-6.46 2.11-12.758 4.79-18.691 2.945-6.059 7.258-11.41 13.523-14.23 2.664-1.133 5.883-1.966 8.77-1.407zm0 0"/><path stroke="#d2d2d2" stroke-width="6.1034999999999995" d="M82.168 109.059c-1.645.906-3.488 1.543-5.254 2.187-.113.918-.203 1.836-.293 2.758 2.668.254 5.356.215 8.004.582 6.875 1.039 13.457 3.601 18.953 7.906 3.824 3.047 7.164 6.942 10.387 10.61 7.816 9.039 15.261 18.617 23.648 27.136 3.403 3.38 7.106 6.836 11.293 9.207 3.617 2.008 7.582 2.23 11.621 1.805a19.512 19.512 0 0 0 10.063-4.082c2.449-1.863 4.113-4.258 4.953-7.223 1.308-4.687 1.836-9.61 2.77-14.379 1.144-5.933 1.89-11.918 2.605-17.918.23-2.218.836-4.625.531-6.847-1.703-2.29-5.137-3.516-7.742-4.426.965-.477 1.953-1.773 3.09-1.14 2.406 1.019 4.719 2.367 6.758 4.007.199 2.992-.266 5.895-.707 8.84a3537.033 3537.033 0 0 0-3.442 21.402c-1 5.418-1.34 10.899-.86 16.39.286 2.79 1.5 5.122 2.372 7.724.562 1.566-.262 3.046-.938 4.43-3.203 5.73-7.34 11.265-12.718 15.128-4.86 3.442-11.106 4.672-16.903 3.23-4.965-1.003-9.218-3.785-12.629-7.46-6.175-6.606-10.777-15.09-15.156-22.946-5.285-9.152-10.11-18.261-17.254-26.168-3-3.593-6.633-6.457-10.523-9.023-2.977-1.938-6.301-3.39-9.68-4.46-2.695-.864-5.515-1.114-8.207-2.013-1.496-3.949-.762-7.566-.879-11.625-.215-.847-.633-1.285-1.308-1.797 2.558-.226 5.082-.812 7.445-1.835zM218.394 112.164c1.278 2.781 2.637 5.375 3.329 8.387.859 3.824 1.394 7.808.957 11.718-.418 3.7-.829 7.48-1.735 11.094-1.953 7.137-4.46 13.938-8.64 20.094-2.793 4.102-6.27 7.984-10.762 10.238-4.207 2.14-9.352 1.828-13.434-.46-1.992-1.063-3.304-2.634-3.96-4.801-1.15-4.012-.844-8.665-.364-12.766.152.637.309 1.27.469 1.906 4.281.184 8.691-1.746 12.144-4.144 7.094-5.125 12.387-12.786 15.922-20.711 3.035-6.621 4.656-13.446 6.074-20.555zm0 0"/><path stroke="#d2d2d2" stroke-width="6.1034999999999995" d="M76.031 112.691c-1.023 1.746-1.87 3.496-2.043 5.543-.14 2.102-.074 4.211-.242 6.317-2.453.261-5.074.234-7.418.886-3.871 1.086-7.476 2.88-10.25 5.848-4.012 4.176-5.906 9.809-6.805 15.418-.449 3.469-.25 7.043-.265 10.527-.024 3.082.437 6.094.953 9.121.633 3.633 1.195 7.165 2.144 10.727.832 3.23 1.993 6.273 2.543 9.582-2.105-.492-4.054-1.277-5.789-2.582-5.027-3.57-8.28-9.422-10.324-15.113 1.363 2.863 2.91 5.8 6.422 6.191 1.059.188 1.543-.508 1.715-1.46.473-2.919-.3-6.212-.652-9.13-.676-5.898-1.247-11.66-.434-17.578.879-7.32 2.883-15.332 7.219-21.406 3.476-5.035 9.09-7.988 14.859-9.586 3.14-.937 6.031-.644 8.367-3.305zm0 0"/><path stroke="#fff" stroke-width="6.1034999999999995" d="M70.777 130.176c8.7-.715 17.707 1.98 24.54 7.437 3.222 2.586 6.093 5.664 8.699 8.867 4.406 5.286 7.906 11.653 11.507 17.547-.218 1.11-.402 2.16-1.062 3.114-3.465 4.773-7.961 8.722-13.43 11.023-4.297 1.852-8.976 2.281-13.605 2.383-4.852.086-9.66-.375-14.14-2.38-4.114-1.847-7.825-4.855-10.958-8.081-2.644-2.695-4.71-5.836-7.441-8.461-.606-5.184-.867-10.766.156-15.906.902-3.977 2.223-7.848 5.195-10.778 2.774-2.914 6.567-4.425 10.54-4.765zm0 0"/><path stroke="#d2d2d2" stroke-width="6.1034999999999995" d="M54.887 161.625c2.73 2.625 4.797 5.766 7.441 8.46 3.133 3.227 6.844 6.235 10.957 8.083 4.48 2.004 9.29 2.465 14.14 2.379 4.63-.102 9.31-.531 13.606-2.383 5.469-2.3 9.965-6.25 13.43-11.023.66-.954.844-2.004 1.062-3.114 5.512 9.582 10.79 20.082 18.325 28.301 2.484 2.773 5.558 4.59 8.394 6.93-3.215 1.988-6.613 2.96-10.172 4.125-3.261 1.066-6.62 1.773-10.023 2.195-15.367 2.234-31.403-1.289-45-8.602-4.668-2.332-9.188-5.078-13.3-8.296-3.282-2.864-5.88-7-6.763-11.29-1.168-5.187-2.015-10.433-2.097-15.765zm0 0"/></g><path fill="#fff" d="M0 0h250v250H0zm8.871 121.098c-.293 3.418-.117 6.8.106 10.222.554 13.305 3.593 26.508 8.843 38.743 3.004 7.472 7.04 14.546 11.657 21.132 13.257 19.239 32.445 34.118 54.253 42.442 8.465 2.949 16.88 5.484 25.82 6.511 7.419.965 14.825 1.032 22.286.754 15.176-.652 30.316-4.949 43.992-11.464 16.559-8.11 31.04-20.18 42.14-34.887 6.255-8.348 11.329-17.54 15.216-27.215 3.02-8.254 5.496-16.484 6.691-25.223 1.691-12.367 1.527-25.02-.559-37.328-1.261-6.89-3.203-13.597-5.601-20.172-10.102-26.875-30.457-49.593-56.055-62.601-8.957-4.57-18.539-8.063-28.406-10.055-9.77-2.324-20.098-2.832-30.11-2.457-4.152.23-8.328.547-12.433 1.227-5.883 1.128-11.727 2.324-17.395 4.289-5.925 1.68-11.527 4.183-17.007 6.972-8.07 3.914-15.13 8.996-22.118 14.57-14.832 12.489-26.613 28.75-33.632 46.84-2.383 6.532-4.442 13.168-5.801 20-1.078 5.844-1.68 11.758-1.887 17.7zm0 0"/><path fill="#1b1c1a" d="M119.145 9.5c10.011-.375 20.34.133 30.109 2.457 9.867 1.992 19.45 5.484 28.406 10.055 25.598 13.008 45.953 35.726 56.055 62.601 2.398 6.575 4.34 13.282 5.601 20.172 2.086 12.309 2.25 24.961.559 37.328-1.195 8.739-3.672 16.969-6.691 25.223-3.887 9.676-8.961 18.867-15.215 27.215-11.102 14.707-25.582 26.777-42.14 34.887-13.677 6.515-28.817 10.812-43.993 11.464-7.461.278-14.867.211-22.285-.754-8.942-1.027-17.356-3.562-25.82-6.511-21.81-8.325-40.997-23.203-54.254-42.442-4.618-6.586-8.653-13.66-11.657-21.132-5.25-12.235-8.289-25.438-8.843-38.743-.223-3.422-.399-6.804-.106-10.222.207-5.942.809-11.856 1.887-17.7 1.36-6.832 3.418-13.468 5.8-20 7.02-18.09 18.801-34.351 33.633-46.84 6.989-5.574 14.047-10.656 22.118-14.57 5.48-2.789 11.082-5.293 17.007-6.972 5.668-1.965 11.512-3.16 17.395-4.29 4.105-.68 8.281-.996 12.434-1.226zM95.59 51.242c4.105.25 8.207-.246 12.32-.05 5.055.253 10.137.136 15.16.644 6.508.547 12.985 1.644 19.371 3.008 4.899 1.172 9.918 2.496 14.52 4.566 2.93 1.3 5.855 2.73 8.312 4.817 5.977 5.335 10.864 11.554 13.317 19.28.547 1.65.86 3.407 1.543 5 .594 1.298 2.219 2.126 3.383 2.868.187-6.223-.297-12.523.308-18.793.117-1.742.418-3.266-.64-4.8-3.114-4.622-7.871-8.407-12.5-11.438-6.012-4.024-12.434-7.356-19.364-9.469-5.86-2.063-11.847-2.867-17.996-3.46-5.996-.524-11.797.077-17.707 1.019-4.86.8-9.383 2.308-14 3.96-2.101.754-4.133 1.653-6.027 2.848zm38.144 49.793c-.964-2.187-2.187-4.23-3.379-6.3-6.566-11.497-13.085-23.02-19.66-34.516-1.14-1.93-2.086-4.047-3.445-5.828-.531-.766-1.395-.641-2.23-.762-2.399-.098-4.84-.113-7.23.125.76 2.215 2.108 4.3 3.206 6.363 4.902 9.086 9.742 18.18 14.649 27.262.878 1.562 1.652 3.672 3.3 4.55 1.79 1.036 3.711 1.817 5.493 2.876 3.28 1.851 6.09 4.273 9.296 6.23zm14.055 10.328c-1.508-3.078-3.297-6.011-5.016-9.011-8.207-14.274-16.332-28.594-24.472-42.907-1.043-1.703-1.875-3.941-3.403-5.246-1.562-.43-3.3-.363-4.914-.324 1.04 2.578 2.727 4.945 4.07 7.379 7.266 12.734 14.653 25.402 21.926 38.129 1.473 2.484 2.81 5.738 5.176 7.449a88.26 88.26 0 0 0 6.633 4.531zM63.051 62.031c1.187 2.907 2.957 5.504 4.355 8.324 2.313 4.079 4.305 8.38 6.867 12.301 3.262.153 6.454-.445 9.715-.18 2.739.227 5.848.344 8.41 1.395 1.625.692 2.54 1.926 3.813 3.063.785.914 2.375.57 3.469.66-.926-2.754-2.473-5.078-3.899-7.574-3.98-7.082-8.164-14.043-12.105-21.145-.653-1.176-1.406-2.29-2.188-3.387-2.761.364-5.441 1.067-8.129 1.785-3.632.989-7.418 2.25-10.308 4.758zm65.746-6.527c.496 1.035 1 2.059 1.601 3.035a26863.367 26863.367 0 0 1 30.856 47.77c1.684 2.535 3.137 5.363 5.191 7.554 2.52-.832 4.774-2.008 6.68-3.883-1.438-2.707-3.184-5.19-4.813-7.777-8.265-13.066-16.625-26.074-24.878-39.148-1.137-1.743-2.114-3.68-3.477-5.258-.68-.82-1.762-.926-2.738-1.152a115.622 115.622 0 0 0-8.422-1.141zm54.988 100.164c-.48 4.102-.785 8.754.363 12.766.657 2.168 1.97 3.738 3.961 4.8 4.082 2.29 9.227 2.602 13.434.461 4.492-2.254 7.969-6.136 10.762-10.238 4.18-6.156 6.687-12.957 8.64-20.094.907-3.613 1.317-7.394 1.735-11.093.437-3.91-.098-7.895-.957-11.72-.692-3.01-2.051-5.605-3.328-8.386-2.047-4.656-4.625-8.906-7.293-13.223-3.375-5.316-7.004-10.449-10.989-15.328-3.218-3.957-6.543-8.336-10.691-11.343-.766 4.078-.598 8.546-.57 12.69.453 9.915.539 19.864.386 29.786-.312 14.113-3.668 27.082-5.453 40.922zm-115.613-54.5c.152-3.465-1.79-6.5-1.473-9.863.215-1.43 1.328-1.977 2.551-2.438 7.434-2.312 14.383-1.777 21.992-1.758a28.486 28.486 0 0 1-.219-1.425c-1.859-.407-3.675-.575-5.574-.582-5.644-.055-11.148-.235-16.636 1.289-1.567.464-3.458 1.207-4.446 2.574-.367 1.45.207 3.207.508 4.648.809 2.797 1.078 5.48 3.297 7.555zm13.996 7.89c-2.363 1.024-4.887 1.61-7.445 1.837-1.79-.426-3.465-.864-4.977-1.946-2.324-1.582-3.848-4.164-5.14-6.597-1.348-2.5-1.88-5.141-2.852-7.774-2.887-.558-6.106.274-8.77 1.406-6.265 2.82-10.578 8.172-13.523 14.23-2.68 5.934-4.14 12.231-4.79 18.692-.843 6.14-.882 12.324-.64 18.508.57 7.39 1.805 14.617 4.504 21.55 2.043 5.692 5.297 11.544 10.324 15.114 1.735 1.305 3.684 2.09 5.79 2.582-.551-3.308-1.712-6.351-2.544-9.582-.949-3.562-1.511-7.094-2.144-10.726-.516-3.028-.977-6.04-.953-9.122.015-3.484-.184-7.058.265-10.527.899-5.61 2.793-11.242 6.805-15.418 2.774-2.969 6.379-4.762 10.25-5.847 2.344-.653 4.965-.626 7.418-.887.168-2.106.102-4.215.242-6.317.172-2.046 1.02-3.796 2.043-5.543.117 4.059-.617 7.676.88 11.625 2.69.899 5.51 1.149 8.206 2.012 3.38 1.07 6.703 2.524 9.68 4.461 3.89 2.566 7.523 5.43 10.523 9.024 7.145 7.906 11.97 17.015 17.254 26.167 4.38 7.856 8.98 16.34 15.156 22.946 3.41 3.676 7.665 6.457 12.63 7.46 5.796 1.442 12.042.212 16.902-3.23 5.379-3.863 9.515-9.398 12.718-15.129.676-1.382 1.5-2.863.938-4.43-.871-2.6-2.086-4.933-2.371-7.722-.48-5.492-.14-10.973.86-16.39 1.124-7.141 2.273-14.274 3.44-21.403.442-2.945.907-5.848.708-8.84-2.04-1.64-4.352-2.988-6.758-4.008-1.137-.632-2.125.664-3.09 1.141-3.652 2.32-7.809 3.117-12.086 3.133-3.476.015-6.8.203-10.152-.867-6.164-1.938-11.23-5.774-16.27-9.676-5.23-3.996-10.699-8.254-16.547-11.27-7.07-3.656-14.957-5.523-22.918-4.683-.504.054-.847.254-1.015.597-.793 1.254-1.367 2.649-2.078 3.954-1.336 2.55-3.235 4.878-5.18 6.988-1.578 1.644-3.313 3.363-5.293 4.508zm-27.281 52.567c.082 5.332.93 10.578 2.097 15.766.883 4.289 3.48 8.425 6.762 11.289 4.113 3.218 8.633 5.965 13.3 8.297 13.599 7.312 29.634 10.835 45 8.601 3.403-.422 6.763-1.129 10.024-2.195 3.559-1.164 6.957-2.137 10.172-4.125-2.836-2.34-5.91-4.156-8.394-6.93-7.536-8.219-12.813-18.719-18.325-28.3-3.601-5.895-7.101-12.262-11.507-17.548-2.606-3.203-5.477-6.28-8.7-8.867-6.832-5.457-15.84-8.152-24.539-7.437-3.972.34-7.765 1.851-10.539 4.765-2.972 2.93-4.293 6.801-5.195 10.778-1.023 5.14-.762 10.722-.156 15.906zm0 0"/><path fill="#fff" d="M133.324 43.414c6.149.594 12.137 1.398 17.996 3.461 6.93 2.113 13.352 5.445 19.364 9.469 4.629 3.031 9.386 6.816 12.5 11.437 1.058 1.535.757 3.059.64 4.801-.605 6.27-.12 12.57-.308 18.793-1.164-.742-2.79-1.57-3.383-2.867-.684-1.594-.996-3.352-1.543-5-2.453-7.727-7.34-13.945-13.317-19.281-2.457-2.086-5.382-3.516-8.312-4.817-4.602-2.07-9.621-3.394-14.52-4.566-6.386-1.364-12.863-2.461-19.37-3.008-5.024-.508-10.106-.39-15.16-.645-4.114-.195-8.216.301-12.321.051 1.894-1.195 3.926-2.094 6.027-2.847 4.617-1.653 9.14-3.16 14-3.961 5.91-.942 11.711-1.543 17.707-1.02zm0 0"/><path fill="#fff" d="M97.79 53.754c2.39-.238 4.831-.223 7.23-.125.835.121 1.699-.004 2.23.762 1.36 1.78 2.305 3.898 3.445 5.828 6.575 11.496 13.094 23.02 19.66 34.515 1.192 2.07 2.415 4.114 3.38 6.301-3.208-1.957-6.016-4.379-9.298-6.23-1.78-1.059-3.703-1.84-5.492-2.875-1.648-.88-2.422-2.989-3.3-4.551-4.907-9.082-9.747-18.176-14.649-27.262-1.098-2.062-2.445-4.148-3.207-6.363zM109.984 53.875c1.614-.04 3.352-.105 4.914.324 1.528 1.305 2.36 3.543 3.403 5.246 8.14 14.313 16.265 28.633 24.472 42.907 1.72 3 3.508 5.933 5.016 9.011a88.26 88.26 0 0 1-6.633-4.531c-2.367-1.71-3.703-4.965-5.176-7.45-7.273-12.726-14.66-25.394-21.925-38.128-1.344-2.434-3.032-4.8-4.07-7.379zM81.488 55.488c.782 1.098 1.535 2.211 2.188 3.387C87.617 65.977 91.8 72.938 95.78 80.02c1.426 2.496 2.973 4.82 3.899 7.574-1.094-.09-2.684.254-3.47-.66-1.272-1.137-2.187-2.371-3.812-3.063-2.562-1.05-5.671-1.168-8.41-1.394-3.261-.266-6.453.332-9.715.18-2.562-3.923-4.554-8.223-6.867-12.302-1.398-2.82-3.168-5.418-4.355-8.324 2.89-2.508 6.676-3.77 10.308-4.758 2.688-.718 5.368-1.421 8.13-1.785zM128.797 55.504c2.808.27 5.637.664 8.422 1.14.976.227 2.058.333 2.738 1.153 1.363 1.578 2.34 3.516 3.477 5.258 8.254 13.074 16.613 26.082 24.879 39.148 1.628 2.586 3.375 5.07 4.812 7.777-1.906 1.875-4.16 3.051-6.68 3.883-2.054-2.191-3.507-5.02-5.191-7.554a26863.367 26863.367 0 0 0-30.856-47.77c-.601-.977-1.105-2-1.601-3.035zM189.422 72.27c4.148 3.007 7.473 7.386 10.691 11.343 3.985 4.88 7.614 10.012 10.989 15.328 2.668 4.317 5.246 8.567 7.293 13.223-1.418 7.11-3.04 13.934-6.075 20.555-3.535 7.926-8.828 15.586-15.922 20.71-3.453 2.4-7.863 4.329-12.144 4.145-.16-.637-.316-1.27-.469-1.906 1.785-13.84 5.14-26.809 5.453-40.922.153-9.922.067-19.871-.386-29.785-.028-4.145-.196-8.613.57-12.691zm0 0"/><path fill="#fff" d="M85.45 85.102c1.898.007 3.714.175 5.573.582.063.48.133.953.22 1.425-7.61-.02-14.56-.554-21.993 1.758-1.223.461-2.336 1.008-2.55 2.438-.317 3.363 1.624 6.398 1.472 9.863-2.219-2.074-2.488-4.758-3.297-7.555-.3-1.441-.875-3.199-.508-4.648.988-1.367 2.88-2.11 4.445-2.574 5.489-1.524 10.993-1.344 16.637-1.29zM95.734 93.012c7.961-.84 15.848 1.027 22.918 4.683 5.848 3.016 11.317 7.274 16.547 11.27 5.04 3.902 10.106 7.738 16.27 9.676 3.351 1.07 6.676.882 10.152.867 4.277-.016 8.434-.813 12.086-3.133 2.606.91 6.04 2.137 7.742 4.426.305 2.222-.3 4.629-.531 6.847-.715 6-1.461 11.985-2.606 17.918-.933 4.77-1.46 9.692-2.769 14.38-.84 2.964-2.504 5.359-4.953 7.222a19.512 19.512 0 0 1-10.063 4.082c-4.039.426-8.004.203-11.62-1.805-4.188-2.37-7.891-5.828-11.294-9.207-8.386-8.52-15.832-18.097-23.648-27.136-3.223-3.668-6.563-7.563-10.387-10.61-5.496-4.305-12.078-6.867-18.953-7.906-2.648-.367-5.336-.328-8.004-.582.09-.922.18-1.84.293-2.758 1.766-.644 3.61-1.281 5.254-2.187 1.98-1.145 3.715-2.864 5.293-4.508 1.945-2.11 3.844-4.438 5.18-6.989.71-1.304 1.285-2.699 2.078-3.953.168-.343.511-.543 1.015-.597zM61.754 94.578c.973 2.633 1.504 5.274 2.851 7.774 1.293 2.433 2.817 5.015 5.141 6.597 1.512 1.082 3.188 1.52 4.977 1.946.675.511 1.093.949 1.308 1.796-2.336 2.66-5.226 2.368-8.367 3.305-5.77 1.598-11.383 4.55-14.86 9.586-4.335 6.074-6.34 14.086-7.218 21.406-.813 5.918-.242 11.68.434 17.578.351 2.918 1.125 6.211.652 9.13-.172.952-.656 1.648-1.715 1.46-3.512-.39-5.059-3.328-6.422-6.191-2.7-6.934-3.933-14.16-4.504-21.55-.242-6.185-.203-12.368.64-18.509.65-6.46 2.11-12.758 4.79-18.691 2.945-6.059 7.258-11.41 13.523-14.23 2.664-1.133 5.883-1.965 8.77-1.407zm0 0"/><path fill="#d2d2d2" d="M82.168 109.059c-1.645.906-3.488 1.543-5.254 2.187-.113.918-.203 1.836-.293 2.758 2.668.254 5.356.215 8.004.582 6.875 1.039 13.457 3.602 18.953 7.906 3.824 3.047 7.164 6.942 10.387 10.61 7.816 9.039 15.262 18.617 23.648 27.136 3.403 3.38 7.106 6.836 11.293 9.207 3.617 2.008 7.582 2.23 11.621 1.805a19.512 19.512 0 0 0 10.063-4.082c2.45-1.863 4.113-4.258 4.953-7.223 1.309-4.687 1.836-9.61 2.77-14.379 1.144-5.933 1.89-11.918 2.605-17.918.23-2.218.836-4.625.531-6.847-1.703-2.29-5.137-3.516-7.742-4.426.965-.477 1.953-1.773 3.09-1.14 2.406 1.019 4.719 2.367 6.758 4.007.199 2.992-.266 5.895-.707 8.84a3537.104 3537.104 0 0 0-3.442 21.402c-1 5.418-1.34 10.899-.86 16.391.286 2.79 1.5 5.121 2.372 7.723.562 1.566-.262 3.047-.938 4.43-3.203 5.73-7.34 11.265-12.718 15.128-4.86 3.442-11.106 4.672-16.903 3.23-4.964-1.003-9.218-3.784-12.629-7.46-6.175-6.606-10.777-15.09-15.156-22.946-5.285-9.152-10.11-18.261-17.254-26.167-3-3.594-6.632-6.458-10.523-9.024-2.977-1.937-6.3-3.39-9.68-4.46-2.695-.864-5.515-1.114-8.207-2.013-1.496-3.949-.762-7.566-.879-11.625-.215-.847-.633-1.285-1.308-1.796 2.558-.227 5.082-.813 7.445-1.836zM218.395 112.164c1.277 2.781 2.636 5.375 3.328 8.387.859 3.824 1.394 7.808.957 11.719-.418 3.699-.828 7.48-1.735 11.093-1.953 7.137-4.46 13.938-8.64 20.094-2.793 4.102-6.27 7.984-10.762 10.238-4.207 2.14-9.352 1.828-13.434-.46-1.992-1.063-3.304-2.633-3.96-4.801-1.149-4.012-.844-8.664-.364-12.766.153.637.309 1.27.469 1.906 4.281.184 8.691-1.746 12.144-4.144 7.094-5.125 12.387-12.785 15.922-20.711 3.035-6.621 4.657-13.446 6.075-20.555zm0 0"/><path fill="#d2d2d2" d="M76.031 112.691c-1.023 1.746-1.87 3.496-2.043 5.543-.14 2.102-.074 4.211-.242 6.317-2.453.261-5.074.234-7.418.886-3.871 1.086-7.476 2.88-10.25 5.848-4.012 4.176-5.906 9.809-6.805 15.418-.449 3.469-.25 7.043-.265 10.527-.024 3.083.437 6.094.953 9.122.633 3.632 1.195 7.164 2.144 10.726.833 3.23 1.993 6.274 2.543 9.582-2.105-.492-4.054-1.277-5.789-2.582-5.027-3.57-8.28-9.422-10.324-15.113 1.363 2.863 2.91 5.8 6.422 6.191 1.059.188 1.543-.508 1.715-1.46.473-2.919-.3-6.212-.652-9.13-.676-5.898-1.247-11.66-.434-17.578.879-7.32 2.883-15.332 7.219-21.406 3.476-5.035 9.09-7.988 14.86-9.586 3.14-.937 6.03-.644 8.366-3.305zm0 0"/><path fill="#fff" d="M70.777 130.176c8.7-.715 17.707 1.98 24.54 7.437 3.222 2.586 6.093 5.664 8.699 8.867 4.406 5.286 7.906 11.653 11.507 17.547-.218 1.11-.402 2.16-1.062 3.114-3.465 4.773-7.961 8.722-13.43 11.023-4.297 1.852-8.976 2.281-13.605 2.383-4.852.086-9.66-.375-14.14-2.379-4.114-1.848-7.825-4.856-10.958-8.082-2.644-2.695-4.71-5.836-7.441-8.461-.606-5.184-.867-10.766.156-15.906.902-3.977 2.223-7.848 5.195-10.778 2.774-2.914 6.567-4.425 10.54-4.765zm0 0"/><path fill="#d2d2d2" d="M54.887 161.625c2.73 2.625 4.797 5.766 7.441 8.46 3.133 3.227 6.844 6.235 10.957 8.083 4.48 2.004 9.29 2.465 14.14 2.379 4.63-.102 9.31-.531 13.606-2.383 5.469-2.3 9.965-6.25 13.43-11.023.66-.953.844-2.004 1.062-3.114 5.512 9.582 10.79 20.082 18.325 28.301 2.484 2.774 5.558 4.59 8.394 6.93-3.215 1.988-6.613 2.96-10.172 4.125-3.261 1.066-6.62 1.773-10.023 2.195-15.367 2.234-31.402-1.289-45-8.601-4.668-2.332-9.188-5.079-13.3-8.297-3.282-2.864-5.88-7-6.763-11.29-1.168-5.187-2.015-10.433-2.097-15.765zm0 0"/></svg>