<svg xmlns="http://www.w3.org/2000/svg" width="250" height="250"><path fill="#49c85b" d="m229.016 224.152.793-.199v.2zm-170.684 0v-3.468l131.852-.395 35.664-.098v-85.789l-24.668 2.18 34.672-13.176 5.843-1.883 3.47.594v1.98l-15.356 9.907v89.851zM4.937 127.465l2.278-.195zm0 0"/><path fill="#34a647" d="m201.18 136.582 24.668-2.18v85.79l-35.664.097v-40.121zm0 0"/><path fill="#18471e" d="m125.2 45.441 20.007-19.812 96.39 95.992-5.843 1.883-34.672 13.176-10.996 43.586V137.57l14.66-10.203zM52.882 223.953l5.449.2 171.477-.2h.199l-.2.102-.792.195-29.52 5.945H18.707zm.297-82.816.199.101-.399 4.852-.097.992-34.176 1.883v-3.668L5.234 130.242l34.77-2.578h.2zm29.324-58.348V71.992L90.426 71zm0 0"/><path fill="#4fac5c" d="m18.707 148.965 34.176-1.883v76.871l-34.176 6.145zm21.297-22.094.2.895h-.2l-34.77 2.574-.296-2.875 2.277-.195 32.097-2.676zM66.75 57.43v40.617L30.988 99.73l.399-38.043zm0 0"/><path fill="#4ead5c" d="M66.75 98.738v-.793l1.785-.988zm0 0"/><path fill="#2bbb47" d="M82.504 57.629v25.457L68.535 96.957l-1.883 1.09V57.43h6.141zm0 0"/><path fill="#4fce6a" d="M82.504 71.992V57.63l-9.711-.2 34.277-34.671 38.438-2.774 99.554 99.559v2.672l-3.464-.594-96.391-95.992-20.008 19.812-80.933 80.34 13.964 14.86v83.511l-5.449-.199v-76.871l.102-.992.394-4.852-.195-.101-12.98-13.473-.196-.89-.695-2.278-32.098 2.672-2.277.2.102-.395 26.05-27.243 35.762-1.683v.789l1.785-1.879 13.969-13.969v-.199L90.426 71zm0 0"/></svg>