<svg xmlns="http://www.w3.org/2000/svg" width="250" height="250"><path fill="#007f88" d="M6.535.352C2.75.766-.165 1.59 0 2.207c1.512 4.98 10.848 34.305 10.973 34.48.129.176 2.297.383 4.851.532 11.313.59 20.266 3.652 29.946 10.285 6.953 4.742 12.101 9.84 17.46 17.238 7.891 10.903 13.036 23.016 16.055 37.836.344 1.711.617 3.242.617 3.48 0 .325-1.722.383-9.336.383-5.144 0-9.57.118-9.847.266-.403.203-1.465 3.387-5.89 17.445-2.977 9.457-5.446 17.414-5.49 17.68-.148.766 1.641 1.445 6.106 2.36.914.206 6.403.41 12.887.53l11.297.176-.684 3.243c-7.613 35.773-31.242 60.793-60.187 63.8-1.637.145-3.785.293-4.785.293h-1.809l-5.57 17.77c-4.785 15.176-5.531 17.77-5.211 17.918 1.445.738 4.68 1 12.164 1 9.57 0 14.23-.586 22.121-2.828 32.219-9.164 58.996-37.574 71.117-75.528 2.34-7.308 5.086-19.332 5.574-24.37l.149-1.446h24.18l.085.648c1.747 11.848 3.637 19.832 6.915 29.262 9.843 28.41 28.304 51.602 51.167 64.332 13.883 7.703 28.758 11.406 43.708 10.875 6.253-.265 11.23-1.238 10.972-2.152-.21-.766-10.805-34.45-10.867-34.54-.063-.085-2.254-.202-4.914-.35-7.465-.415-13.078-1.622-19.414-4.126-9.766-3.89-19.418-10.933-26.82-19.539-9.317-10.875-16.06-24.402-19.63-39.398-.406-1.711-.808-3.508-.874-4.04l-.149-.94 9.102-.09c5-.06 9.254-.208 9.422-.325.277-.207 11.168-34.422 11.168-35.097 0-.442-2.746-1.563-5.235-2.122-1.828-.414-4.144-.53-13.398-.62l-11.207-.145.426-2.094c6.21-30.473 25.265-54.664 49.832-63.242 5.421-1.883 10.695-2.856 17.543-3.238 4.085-.239 4.593-.325 4.851-.797.168-.325 2.68-8.133 5.57-17.36 3.555-11.285 5.192-16.855 5.043-17.004-.468-.351-3.445-1.09-5.785-1.414-3.402-.5-13.336-.41-17.719.121-25.05 3.094-47.636 17.09-64.566 39.957-10.336 13.97-17.59 29.649-22.055 47.743-1.148 4.566-2.53 11.757-2.957 15.234l-.257 2.152h-23.77l-.086-.68c-.062-.35-.297-2.03-.55-3.741-3.512-24.165-13.423-47.653-27.415-64.95-15.93-19.715-35.797-32.062-57.66-35.812C20.594.145 12.121-.238 6.535.352zm0 0"/></svg>