<svg xmlns="http://www.w3.org/2000/svg" width="250" height="250"><g fill-rule="evenodd"><path fill="#1a61f0" d="M123.465 246.93c68.187 0 123.465-55.278 123.465-123.465S191.652 0 123.465 0 0 55.277 0 123.465 55.277 246.93 123.465 246.93zm0 0"/><g fill="#fff"><path d="M159.684 112.645a26.304 26.304 0 0 0-10.875-2.352h-37.946c-7.281 0-13.187-5.906-13.187-13.188V51.652H71.289v58.641c.004 14.57 11.813 26.383 26.387 26.387h37.937c3.496 0 6.852 1.39 9.325 3.867a13.176 13.176 0 0 1 3.863 9.328v45.45h26.387V136.68a26.382 26.382 0 0 0-15.504-24.035zM72.195 152.809v44.328h26.387v-17.942c-.004-14.574-11.816-26.386-26.387-26.386zM153.402 53.465h-5.507v17.941c.003 14.57 11.816 26.383 26.386 26.387V53.465zm0 0"/></g></g></svg>