<svg xmlns="http://www.w3.org/2000/svg" width="250" height="250"><g fill="#383838"><path d="M114.258.535C76.125 3.81 41.75 24.415 20.363 56.883c-4.445 6.789-10.156 18.164-12.941 25.879-7.324 20.265-9.18 43.36-5.223 64.843 6.25 33.79 25.633 62.891 54.688 82.032 6.785 4.445 18.164 10.156 25.879 12.941 20.261 7.324 43.359 9.18 64.843 5.223 33.79-6.25 62.891-25.633 82.032-54.688 4.441-6.785 10.156-18.164 12.937-25.879 7.324-20.261 9.18-43.359 5.227-64.843-6.25-33.79-25.637-62.891-54.688-82.032-6.543-4.297-17.969-10.058-25.39-12.793-16.309-6.003-35.743-8.543-53.47-7.03zm20.02 37.356c6.69 3.515 15.09 12.644 25.538 27.832 18.164 26.316 27.54 45.117 31.153 62.207 1.562 7.324 1.511 18.699 0 25.632-2.93 12.942-9.082 24.024-18.801 33.743-13.426 13.379-29.297 19.824-47.117 19.09-17.285-.684-31.739-7.079-44.29-19.579-9.91-9.96-16.16-21.386-19.09-34.96-.683-3.223-.878-6.25-.878-13.43.047-8.399.195-9.813 1.414-15.086 1.855-7.961 3.664-12.988 7.668-21.242 4.102-8.446 6.688-12.84 14.012-23.73 8.984-13.329 19.582-27.247 25.734-33.79 3.367-3.613 8.79-7.324 12.45-8.496.683-.242 2.882-.34 4.882-.293 3.176.148 4.152.441 7.324 2.102zm0 0"/><path d="M119.043 71.238c-11.328 11.672-21.777 26.125-27.734 38.38-5.711 11.718-7.957 20.214-8.008 30.03 0 10.938 2.734 18.309 9.472 25.489 9.278 9.91 19.582 14.258 33.938 14.207 8.105-.047 14.11-1.367 20.508-4.492 9.617-4.786 17.625-14.356 20.36-24.317 1.32-4.93 1.417-15.625.194-21.14-4.148-18.899-16.796-39.844-35.644-58.985-3.613-3.664-5.223-4.98-6.152-4.98-.926 0-2.586 1.414-6.934 5.808zm0 0"/></g></svg>