<svg xmlns="http://www.w3.org/2000/svg" width="250" height="250"><path fill="#cf300f" d="M0 0h250v250H0z"/><g fill="#fff"><path d="M124.297 39.063h1.875c.258.03.512.09.77.093 3.91.016 7.78.442 11.628 1.098a76.585 76.585 0 0 1 19.598 6.125c10.234 4.785 19.039 11.469 26.398 20.043 6.567 7.648 11.485 16.25 14.711 25.8 2.953 8.731 4.356 17.712 4.055 26.93-.078 2.364-.23 4.727-.469 7.082-.52 5.141-1.652 10.16-3.238 15.075a77.506 77.506 0 0 1-6.547 14.816c-.414.719-.398.762.246 1.285 2.297 1.863 4.805 3.375 7.567 4.457 1.828.715 3.718 1.18 5.636 1.535.172.036.34.118.504.176-.258.242-.496.34-.738.406a74.498 74.498 0 0 1-14.691 2.317c-2.305.129-4.614.18-6.934.086-3.176-.125-6.336-.387-9.465-.883-6.058-.957-12.101-2-18.152-3.024-2.817-.48-5.633-.992-8.45-1.484-.19-.031-.394-.004-.687-.004.07.39.113.715.191 1.031.583 2.293 1.192 4.582 1.758 6.88 1.016 4.113 2.11 8.21 2.332 12.48.102 1.996-.07 3.957-.73 5.844-1.145 3.27-3.457 5.464-6.567 6.824a203.659 203.659 0 0 1-8.445 3.465c-5.48 2.109-8.945 5.91-10.07 11.734-.797 4.137-1.567 8.277-2.36 12.418-.363 1.887-.757 3.77-1.132 5.652h-.157c-.066-.25-.148-.5-.187-.754-.43-2.8-.856-5.601-1.277-8.406-.625-4.18-1.586-8.265-3.094-12.226-1.617-4.258-4.442-7.352-8.582-9.223-2.11-.953-4.258-1.82-6.364-2.77-1.015-.46-2.043-.933-2.972-1.539-3.547-2.312-5.192-5.699-5.094-9.855.047-2.094.375-4.2.781-6.258 1.02-5.18 2.164-10.336 3.254-15.5.047-.234.07-.476.106-.734-.16 0-.215-.008-.258.004-.203.05-.406.101-.606.156-7.824 2.152-15.703 4.09-23.773 5.074-3.121.383-6.254.719-9.39.852-6.118.257-12.216 0-18.266-1.051-1.352-.235-2.692-.55-4.043-.828v-.157c.23-.027.468-.035.695-.082 5.059-.992 9.559-3.144 13.45-6.546.64-.563.64-.579.226-1.293a78.185 78.185 0 0 1-3.887-7.735c-4.031-9.27-6.148-18.965-6.445-29.066-.098-3.434.058-6.86.414-10.281.527-5.086 1.531-10.075 3.062-14.954 4.149-13.21 11.278-24.558 21.387-34.027a76.828 76.828 0 0 1 17.617-12.394c10.692-5.465 22.032-8.368 34.043-8.57.258-.009.512-.063.766-.094zM59.445 155.097c.207-.184.387-.293.508-.45 1.29-1.664 2.672-3.265 3.828-5.02 1.899-2.87 3.364-5.987 4.739-9.136 2.003-4.59 3.425-9.375 4.543-14.254 1.66-7.226 2.44-14.566 2.62-21.965.087-3.609-.066-7.226-.093-10.843-.004-.797-.25-1.493-.778-2.063a11.4 11.4 0 0 0-1.425-1.32c-1.473-1.125-2.899-2.293-4.137-3.672-1.035-1.152-1.875-2.43-2.465-3.863-.094-.223-.27-.453-.027-.778.308.137.617.262.914.407 4.918 2.41 10.012 4.359 15.266 5.898 6.98 2.05 14.101 3.39 21.34 4.07 3.284.305 6.577.563 9.874.73 2.778.141 5.563.134 8.344.169.777.012 1.559-.055 2.34-.082 3.375-.114 6.762-.164 10.133-.356 3.054-.175 6.113-.46 9.164-.78 4.449-.474 8.847-1.278 13.195-2.353 8.168-2.023 15.871-5.14 23-9.636.156-.098.313-.192.469-.281.273-.165.492-.075.695.136.285.301.278.453-.117.934-1.258 1.527-2.54 3.031-3.77 4.578a163.117 163.117 0 0 0-3.332 4.328c-.441.586-.738 1.25-.761 2.012-.094 2.703-.258 5.406-.266 8.11-.004 2.624.133 5.25.234 7.87.165 4.035.622 8.035 1.297 12.016 1.094 6.433 2.707 12.723 5.336 18.715 1.387 3.164 2.555 6.437 4.602 9.273.183.254.336.528.504.793 1.476 2.309 3.219 4.406 5.125 6.371.168.176.383.313.59.473 11.687-21.414 13.07-58.41-13.778-85.18-28.25-28.152-73.324-28.66-102.18-1.656-28.355 26.535-27.585 64.55-15.53 86.805zm26.84 1.8c.496.227.875.145 1.254.063 1.094-.238 2.184-.465 3.273-.727 2.32-.562 4.641-1.16 6.965-1.722.973-.239 1.688-.801 2.157-1.664.234-.43.441-.891.554-1.364a129.656 129.656 0 0 0 2.106-10.793c.172-1.156.367-2.312.613-3.457.234-1.078.941-1.726 2.05-1.851 1.579-.184 3.165-.16 4.747.008.59.062.687.18.644.75-.07.902-.132 1.816-.289 2.71-.886 4.965-1.789 9.926-2.707 14.891-1.425 7.723-2.863 15.442-4.304 23.164-.325 1.715-.649 3.422-.555 5.184.105 1.945.867 3.574 2.363 4.828.555.465 1.156.887 1.778 1.258 3.707 2.215 7.425 4.41 11.14 6.605.192.114.403.176.7.305.07-.383.14-.652.16-.926.062-1.012.109-2.023.156-3.035.156-3.172.312-6.34.472-9.508l.622-12.543c.207-4.207.418-8.414.625-12.62.156-3.169.312-6.337.472-9.505.207-4.183.418-8.363.621-12.543.18-3.77.344-7.531.524-11.3.023-.481.101-.961.152-1.446a.6.6 0 0 1 .215.438c.09 1.273.195 2.539.262 3.812.215 4.258.425 8.52.629 12.778.164 3.453.312 6.91.464 10.363.176 4.004.344 8.004.524 12.004.055 1.14.105 2.285.176 3.43.242 3.94.484 7.89.734 11.831.16 2.465.309 4.934.52 7.391.32 3.781.695 7.563 1.05 11.34.016.164.067.328.102.492.086-.016.121-.012.137-.027.078-.067.16-.133.222-.215 1.778-2.27 4.059-3.863 6.703-4.95 1.25-.511 2.528-.956 3.805-1.402 1.793-.625 3.195-1.699 4.043-3.441.809-1.672 1.02-3.45.746-5.25-.293-1.902-.7-3.785-1.09-5.668-2.058-9.961-4.187-19.902-5.933-29.922-.805-4.644-1.465-9.3-1.75-14.004-.203-3.398-.344-6.8-.524-10.207-.062-1.191-.168-2.383-.238-3.578-.027-.492-.059-.992-.008-1.48.102-1 .656-1.7 1.617-1.989a8.582 8.582 0 0 1 1.91-.355c1.11-.074 1.63.449 1.668 1.566.02.543.016 1.094.086 1.633.317 2.605.657 5.215.985 7.82.492 3.946.996 7.89 1.472 11.84.465 3.848.883 7.7 1.364 11.543.148 1.156.347 2.32.687 3.434.75 2.46 2.461 3.98 4.918 4.672.348.097.711.175 1.067.23 1.363.195 2.738.336 4.09.586 1.609.3 3.199.695 4.8 1.031.184.04.387.008.656.008-.058-.32-.085-.578-.156-.82-.254-.903-.492-1.805-.785-2.696-1.246-3.808-2.52-7.605-3.762-11.414-1.496-4.586-2.68-9.246-3.297-14.03-.542-4.204-.972-8.423-1.44-12.634-.087-.777-.165-1.554-.177-2.336-.015-1.109.446-1.722 1.54-1.925.964-.18 1.96-.25 2.945-.29.675-.027 1.058.32 1.203.997.094.457.11.925.144 1.39.133 2.051.188 4.11.399 6.149.46 4.484 1.351 8.89 2.543 13.238 1.676 6.082 3.914 11.957 6.554 17.687.61 1.32 1.243 2.641 1.98 3.887 1.778 3 4.38 4.961 7.74 5.914 2.519.711 5.105.95 7.695 1.176a139.8 139.8 0 0 0 4.046.281c1.348.078 2.7.133 4.047.184.215.012.43-.047.801-.094-.312-.289-.496-.465-.684-.633-.406-.363-.851-.695-1.218-1.093-1.934-2.07-3.922-4.098-5.75-6.262-4.97-5.89-8.942-12.399-11.778-19.578-3.836-9.73-5.324-19.844-4.902-30.274.152-3.746.52-7.468 1.074-11.175.035-.239.004-.481.004-.84-.437.152-.754.254-1.062.375-10.067 3.847-20.36 6.828-31.07 8.226-3.614.469-7.239.793-10.88.86-2.312.039-4.629 0-6.937-.137-2.621-.149-5.238-.356-7.844-.68-4.34-.547-8.605-1.46-12.82-2.644-.223-.063-.45-.137-.68-.176-.402-.063-.512.027-.55.445-.016.176-.005.363.007.543.094 1.613.262 3.219.266 4.828.012 4.11-.008 8.219-.106 12.325-.09 3.957-.554 7.886-1.14 11.796-1.453 9.696-4.086 19.063-8.028 28.047-.113.258-.195.528-.324.867zm-23.351 4.32c.933.067 1.73.06 2.52-.034 2.401-.286 4.8-.579 7.194-.883 2.325-.297 4.625-.707 6.844-1.496 2.125-.758 3.645-2.14 4.574-4.203 2.336-5.176 4.371-10.461 5.938-15.922a87.562 87.562 0 0 0 3.156-17.79c.078-1.054.008-2.132-.105-3.183-.121-1.207-.883-1.988-2.008-2.355a12.719 12.719 0 0 0-2.277-.516 74.452 74.452 0 0 0-4.188-.41c-2.527-.18-3.156.828-3.32 2.707-.098 1.14-.184 2.281-.297 3.418-.469 4.761-1.52 9.394-3.055 13.918-2.14 6.32-5.137 12.222-8.832 17.765-1.832 2.75-3.738 5.446-5.61 8.168-.16.23-.304.465-.534.817zm30.57-50.366h.02c-.055-1.274-.102-2.547-.172-3.82a418.056 418.056 0 0 0-.356-5.84c-.055-.805-.117-1.614-.277-2.399-.211-1.055-.813-1.84-1.883-2.2-3.156-1.054-6.313-2.116-9.469-3.163-.734-.243-1.027-.028-1.031.75-.004.515.066 1.039.117 1.554.414 4.586.883 9.164 1.223 13.75.101 1.387 1.203 2.649 2.496 2.91a62.69 62.69 0 0 1 2.965.676c1.386.344 2.761.743 4.148 1.075 1.328.308 2.121-.293 2.215-1.657.04-.543.004-1.09.004-1.636zm0 0"/><path d="M105.21 119.61c0-1.794-.003-3.59.005-5.383.004-.875.176-1.141 1.031-1.254a11.704 11.704 0 0 1 4.106.168c.765.171 1.253.68 1.359 1.437.129.899.207 1.809.191 2.715-.03 2.129-.132 4.258-.215 6.39a5.794 5.794 0 0 1-.101 1.004c-.293 1.348-1.215 2.067-2.59 1.938-1.086-.098-2.16-.293-3.242-.445-.324-.043-.52-.22-.531-.563-.004-.234-.012-.469-.016-.703.004-1.77.004-3.535.004-5.305zm0 0"/></g></svg>