<svg xmlns="http://www.w3.org/2000/svg" width="250" height="250"><path fill="#f8a608" d="M250 125c0 69.035-55.965 125-125 125S0 194.035 0 125 55.965 0 125 0s125 55.965 125 125zm0 0"/><g fill="#fff"><path fill-rule="evenodd" d="M75.426 65.707h50.695c32.754 0 59.305 26.55 59.305 59.305 0 32.754-26.551 59.304-59.305 59.304H75.426zm13.058 13.055v92.5h37.637c25.543 0 46.25-20.707 46.25-46.25s-20.707-46.25-46.25-46.25zm0 0"/><path d="M58.762 117.758h138.191v-13.055H58.762zM58.762 145.535h138.191V132.48H58.762zm0 0"/></g></svg>