<svg xmlns="http://www.w3.org/2000/svg" width="250" height="250"><linearGradient id="a" x1="233.75" x2="33.75" y1="233.75" y2="33.75" gradientUnits="userSpaceOnUse"><stop offset=".159" stop-color="#003cda"/><stop offset="1" stop-color="#33dfcc"/></linearGradient><path fill="url(#a)" d="M125 48.203a76.804 76.804 0 0 1 70.953 47.406 76.806 76.806 0 0 1-16.648 83.695 76.806 76.806 0 0 1-83.696 16.65A76.804 76.804 0 0 1 48.203 125a76.888 76.888 0 0 1 22.524-54.273A76.888 76.888 0 0 1 125 48.203zM125 0a125 125 0 1 0 .002 250A125 125 0 0 0 125 0zm0 0"/><path fill="#fff" d="M125 223.633c53.934 0 97.656-43.723 97.656-97.656 0-53.934-43.722-97.657-97.656-97.657s-97.656 43.723-97.656 97.657c0 53.933 43.722 97.656 97.656 97.656zm0 0"/><path fill="#c8c8c8" d="M180.031 181.594a76.693 76.693 0 0 1-25.465 16.898 76.577 76.577 0 0 1-30.035 5.594 75.111 75.111 0 0 1-29.855-5.563 75.194 75.194 0 0 1-25.227-16.93 74.839 74.839 0 0 1-22.558-55.171c0-22.457 7.52-41.164 22.558-56.121a75.295 75.295 0 0 1 25.235-16.899 75.117 75.117 0 0 1 29.847-5.535c10.281-.18 20.492 1.715 30.028 5.57s18.199 9.59 25.472 16.864c15.387 14.957 23.078 33.664 23.078 56.12a74.045 74.045 0 0 1-23.078 55.173zm0 0"/><path fill="#8b8b8b" d="m125 72.406-31.25 53.25L125 111.062zm0 0"/><path fill="#393939" d="m125 111.063-31.25 14.593L125 144.617zm0 0"/><path fill="#343434" d="M125 72.406v38.656l31.219 14.594zm0 0"/><path fill="#161616" d="M125 111.063v33.554l31.219-18.96zm0 0"/><path fill="#8b8b8b" d="M93.75 131.734 125 176.97V150.71zm0 0"/><path fill="#343434" d="M156.25 131.734 125 150.711v26.258zm0 0"/></svg>