<svg xmlns="http://www.w3.org/2000/svg" width="250" height="250"><path fill="#1bbc9a" d="M125 0c69.035 0 125 55.965 125 125s-55.965 125-125 125S0 194.035 0 125 55.965 0 125 0zm0 0"/><g fill="#fff"><path d="M60.79 80.16a3.046 3.046 0 0 1 3.183.281l53.144 39.918a3.079 3.079 0 0 1 1.227 2.43v45.648a3.05 3.05 0 0 1-3.043 3.043 3.05 3.05 0 0 1-3.043-3.042v-44.114L65.195 88.957v79.484a3.05 3.05 0 0 1-3.043 3.043A3.024 3.024 0 0 1 60 170.61a3.024 3.024 0 0 1-.89-2.144V82.87c0-1.148.648-2.2 1.68-2.71zM190.25 80.16a3.032 3.032 0 0 1 1.676 2.711v85.59a3.043 3.043 0 0 1-6.082 0V88.953L138.8 124.324v44.14a3.043 3.043 0 0 1-6.082 0v-45.651a2.985 2.985 0 0 1 1.226-2.43l53.098-39.942a3.087 3.087 0 0 1 3.207-.28zm0 0"/></g></svg>