<svg xmlns="http://www.w3.org/2000/svg" width="250" height="250"><path fill="#49bc98" d="M212.996 214.07a122.601 122.601 0 0 1-40.77 26.996 122.48 122.48 0 0 1-48.054 8.91 120.186 120.186 0 0 1-88.082-35.938 119.516 119.516 0 0 1-27.211-40.401A119.744 119.744 0 0 1 .03 125.71c0-35.918 12.04-65.844 36.117-89.781A120.404 120.404 0 0 1 76.516 8.883a120.17 120.17 0 0 1 47.75-8.86 122.515 122.515 0 0 1 48.043 8.934 122.641 122.641 0 0 1 40.75 27.004c24.613 23.957 36.921 53.894 36.921 89.809a118.689 118.689 0 0 1-9.187 48.062 118.437 118.437 0 0 1-27.797 40.238zm0 0"/><g fill="#fff"><path d="m167.86 79.95-35.747-26.38-1.804.14a13.87 13.87 0 0 0-2.055 3.548c-3.16 13.617-6.254 27.265-9.344 40.91v.008l-.008.031c-.847 3.746-1.695 7.496-2.547 11.242a286.158 286.158 0 0 0-.859 4.086l-.27 1.317c.415-.211.766-.383 1.083-.536.437-.214.8-.394 1.148-.59l38.422-21.167a1147.88 1147.88 0 0 0 12.715-6.98 2.802 2.802 0 0 0 1.05-.942c.266-.395.426-.852.465-1.328a2.81 2.81 0 0 0-1.121-2.488zm0 0"/><path d="M80.188 82.93a14.1 14.1 0 0 0-5.102 6.25L75 162.059a25.317 25.317 0 0 0 3.664 5.093c8.059 6.625 16.207 13.168 24.344 19.707l.008.004c2.824 2.27 5.644 4.535 8.464 6.805 1.07.875 2.227 1.523 3.579.676.57-.387.996-.957 1.203-1.617a3.088 3.088 0 0 0-.047-2.012 13755.963 13755.963 0 0 1-12.656-62.606 12.3 12.3 0 0 1 0-4.867 13559.93 13559.93 0 0 1 12.824-62.379c.312-1.52.281-2.93-1.184-3.773-1.465-.844-2.62-.028-3.719.875a7707.045 7707.045 0 0 0-8.8 7.035c-7.489 5.992-14.977 11.984-22.493 17.93zm0 0"/><path d="M130.059 196.43a13.522 13.522 0 0 1-2.032-3.38c-3.297-14.503-6.52-29.046-9.742-43.577-.887-3.996-1.773-7.993-2.664-11.989 0-.41-.086-.824-.195-1.332a21.544 21.544 0 0 1-.168-.863c.265.129.504.242.722.344.504.238.907.426 1.278.64l50.574 27.954c3.129 1.746 3.242 3.632.281 5.628l-36 26.18-.254.254zM124.11 120.059l-7.301 4.14 1.886 1.153 33.38 18.777 18.238 10.469c1.75.988 3.355.816 4.117-.504a5.85 5.85 0 0 0 .562-2.817V97.793c0-3.883-1.86-4.953-5.242-3.066zm0 0"/></g></svg>