<svg xmlns="http://www.w3.org/2000/svg" width="250" height="250"><linearGradient id="a" x1="239.36" x2="34.56" y1="17.92" y2="222.72" gradientTransform="matrix(.97656 0 0 -.97656 0 251.25)" gradientUnits="userSpaceOnUse"><stop offset=".159" stop-color="#003cda"/><stop offset="1" stop-color="#33dfcc"/></linearGradient><clipPath id="b"><path d="M46.875 46.875h156.25v156.25H46.875zm0 0"/></clipPath><path fill="url(#a)" d="M125 48.242c15.234 0 30.078 4.492 42.676 12.988 12.597 8.399 22.46 20.41 28.32 34.473s7.324 29.492 4.395 44.336c-2.93 14.941-10.254 28.613-20.996 39.356-10.743 10.742-24.415 18.066-39.356 20.996-14.941 2.93-30.371 1.464-44.336-4.395-14.062-5.86-26.074-15.625-34.473-28.32-8.496-12.598-12.988-27.442-12.988-42.676 0-20.313 8.106-39.844 22.559-54.297 14.355-14.355 33.886-22.46 54.199-22.46zM125 0c-24.707 0-48.926 7.324-69.434 21.094-20.605 13.672-36.62 33.203-46.093 56.054C0 100-2.441 125.098 2.343 149.414c4.786 24.219 16.7 46.484 34.18 63.965 17.48 17.48 39.747 29.394 63.965 34.18s49.414 2.343 72.266-7.13c22.851-9.472 42.383-25.488 56.055-45.995 13.77-20.606 21.093-44.727 21.093-69.434 0-33.105-13.183-64.941-36.62-88.379C189.941 13.184 158.104 0 125 0zm0 0"/><path fill="#fff" d="M125 222.656c53.906 0 97.656-43.75 97.656-97.656S178.906 27.344 125 27.344 27.344 71.094 27.344 125s43.75 97.656 97.656 97.656zm0 0"/><g clip-path="url(#b)"><path fill="#f7931a" d="M200.781 143.945c-10.449 41.895-52.832 67.285-94.726 56.934-41.797-10.45-67.285-52.832-56.836-94.727 10.449-41.894 52.832-67.285 94.629-56.933 41.894 10.449 67.382 52.832 56.933 94.726zm0 0"/></g><path fill="#fff" d="M159.473 113.867c1.562-10.351-6.348-16.015-17.188-19.726l3.516-14.063-8.594-2.148-3.418 13.672c-2.246-.586-4.59-1.075-6.836-1.66l3.418-13.77-8.594-2.149-3.515 14.063c-1.856-.39-3.711-.879-5.469-1.27l-11.816-2.93-2.247 9.18s6.348 1.465 6.25 1.563c3.516.879 4.102 3.125 4.004 4.98l-4.004 16.016c.196.098.586.195.88.293-.294-.098-.587-.195-.88-.195l-5.566 22.46c-.39 1.075-1.465 2.637-3.906 2.051.097.098-6.25-1.562-6.25-1.562l-4.297 9.766 11.133 2.734c2.05.488 4.101 1.074 6.152 1.562l-3.516 14.258 8.594 2.149 3.516-14.063a682.73 682.73 0 0 1 6.836 1.758l-3.516 14.062 8.594 2.149 3.516-14.258c14.648 2.734 25.585 1.66 30.273-11.523 3.71-10.645-.195-16.797-7.91-20.801 5.469-1.27 9.668-4.98 10.84-12.598zm-19.63 27.442c-2.636 10.644-20.605 4.882-26.366 3.418l4.687-18.848c5.86 1.465 24.512 4.394 21.68 15.43zm2.637-27.637c-2.44 9.668-17.382 4.785-22.167 3.516l4.296-17.09c4.883 1.27 20.41 3.515 17.871 13.574zm0 0"/></svg>