<svg xmlns="http://www.w3.org/2000/svg" width="250" height="250"><linearGradient id="a" x1="233.75" x2="33.75" y1="233.75" y2="33.75" gradientUnits="userSpaceOnUse"><stop offset=".159" stop-color="#003cda"/><stop offset="1" stop-color="#33dfcc"/></linearGradient><path fill="url(#a)" d="M125 48.203a76.804 76.804 0 0 1 70.953 47.406 76.806 76.806 0 0 1-16.648 83.695 76.806 76.806 0 0 1-83.696 16.65A76.804 76.804 0 0 1 48.203 125a76.888 76.888 0 0 1 22.524-54.273A76.888 76.888 0 0 1 125 48.203zM125 0a125 125 0 1 0 .002 250A125 125 0 0 0 125 0zm0 0"/><path fill="#fff" d="M125 223.633c53.934 0 97.656-43.723 97.656-97.656 0-53.934-43.722-97.657-97.656-97.657s-97.656 43.723-97.656 97.657c0 53.933 43.722 97.656 97.656 97.656zm0 0"/><path fill="#2a5ada" d="M180 181.645a76.669 76.669 0 0 1-25.484 16.875 76.546 76.546 0 0 1-30.032 5.566 75.071 75.071 0 0 1-29.836-5.547 75.177 75.177 0 0 1-25.218-16.914 74.793 74.793 0 0 1-22.535-55.203c0-22.45 7.523-41.152 22.574-56.113a75.226 75.226 0 0 1 25.226-16.907 75.111 75.111 0 0 1 29.844-5.535c10.281-.176 20.492 1.723 30.027 5.582s18.196 9.598 25.473 16.88c15.383 14.972 23.07 33.683 23.07 56.128a74.12 74.12 0 0 1-5.738 30.04A74.033 74.033 0 0 1 180 181.644zm0 0"/><path fill="#fff" fill-rule="evenodd" d="m125 77.695 42.41 24.739v49.316L125 176.492 82.59 151.75v-49.316zm-24.555 34.993v28.808L125 155.82l24.555-14.324v-28.809L125 98.368zm0 0"/></svg>