<svg xmlns="http://www.w3.org/2000/svg" width="250" height="250"><path fill="#5b88ff" d="M0 125C0 55.965 55.965 0 125 0s125 55.965 125 125-55.965 125-125 125S0 194.035 0 125zm0 0"/><g fill="#fff"><path d="M72.703 11.43a124.219 124.219 0 0 1 25.059-8.453v52.265H72.703zM2.809 98.508a124.136 124.136 0 0 1 8.312-25.133h128.7c18.792 0 34.003 15.258 34.003 34.11v33.21c0 18.852-15.21 34.11-34.004 34.11h-33.11c-18.792 0-34.007-15.258-34.007-34.11v-24.234h25.059v24.055c0 5.027 3.937 8.976 8.949 8.976h33.11c5.011 0 8.949-3.949 8.949-8.976v-33.032c0-5.027-3.938-8.976-8.95-8.976zm0 0"/></g></svg>