<svg xmlns="http://www.w3.org/2000/svg" width="250" height="250"><linearGradient id="a" x1="239.36" x2="34.56" y1="17.92" y2="222.72" gradientTransform="matrix(.97656 0 0 -.97656 0 251.25)" gradientUnits="userSpaceOnUse"><stop offset=".159" stop-color="#003cda"/><stop offset="1" stop-color="#33dfcc"/></linearGradient><path fill="url(#a)" d="M125 48.242c42.383 0 76.758 34.375 76.758 76.758 0 20.41-8.106 39.941-22.461 54.297-21.973 21.973-54.98 28.516-83.692 16.601-28.71-11.914-47.363-39.843-47.363-70.996 0-42.285 34.375-76.66 76.758-76.66zM125 0C55.957 0 0 55.957 0 125s55.957 125 125 125 125-55.957 125-125S194.043 0 125 0zm0 0"/><path fill="#fff" d="M125 222.656c53.906 0 97.656-43.75 97.656-97.656S178.906 27.344 125 27.344 27.344 71.094 27.344 125s43.75 97.656 97.656 97.656zm0 0"/><path fill="#26a17b" d="M203.125 125c0 43.148-34.977 78.125-78.125 78.125S46.875 168.148 46.875 125 81.852 46.875 125 46.875 203.125 81.852 203.125 125zm0 0"/><path fill="#fff" d="M133.594 131.64c-.586 0-3.418.196-9.668.196-4.98 0-8.594-.098-9.766-.195-19.336-.88-33.691-4.102-33.691-8.106s14.453-7.324 33.691-8.105v12.89c1.27.098 4.883.293 9.863.293 5.957 0 8.985-.293 9.57-.293v-12.89c19.239.879 33.692 4.199 33.692 8.105s-14.355 7.227-33.691 8.106zm0-17.577V102.44h26.855V84.863H87.207v17.676h26.856v11.621c-21.876.977-38.282 5.274-38.282 10.352s16.406 9.375 38.281 10.351v37.11h19.434v-37.11c21.875-.976 38.281-5.273 38.281-10.351.098-5.176-16.308-9.473-38.183-10.45"/></svg>