<svg xmlns="http://www.w3.org/2000/svg" width="250" height="250"><path fill="#006ae3" d="M0 125C0 55.965 55.965 0 125 0s125 55.965 125 125-55.965 125-125 125S0 194.035 0 125zm0 0"/><g fill="#fff"><path d="M119.836 177.7v-104h11.324v104zm0 0"/><path d="m177.48 108.352-34.972 9.273-7.797-36.3 10.398-2.348 4.098 17.199s9.45-15.5-3.148-31.551c-7.426-8.25-10.95-8.598-19.274-9.898-7.324-1.051-24.347 1.425-29.422 21.3-2.148 12.797.274 22.274 16.774 34.672l-.926 13.801s-18.422-12.973-23.172-22.074c-3.676-7.2-9.973-21.426 1.398-41.227 6.126-9.898 18.2-19.398 39.473-18.398 10.7.449 36.82 13.523 32.774 44.074-.704 5.727-3.676 13.352-3.676 13.352l14.347-3.2zM157.508 189.727c-6.399 9.722-18.723 18.898-39.946 17.347-10.699-.722-36.445-14.5-31.597-44.922.851-5.703 4.023-13.226 4.023-13.226l-14.422 2.8-2.824-11.374L107.965 132l6.847 36.5-10.472 2.074-3.653-17.324s-9.847 15.227 2.301 31.625c7.2 8.45 10.7 8.875 19.024 10.402 7.273 1.25 24.37-.8 29.972-20.527 2.473-12.723.301-22.273-15.847-35.125l1.297-13.773s18.074 13.449 22.574 22.675c3.449 7.325 9.375 21.723-2.5 41.2zm0 0"/></g></svg>