<svg xmlns="http://www.w3.org/2000/svg" width="250" height="250"><linearGradient id="a" x1="233.75" x2="33.75" y1="233.75" y2="33.75" gradientUnits="userSpaceOnUse"><stop offset=".159" stop-color="#003cda"/><stop offset="1" stop-color="#33dfcc"/></linearGradient><path fill="url(#a)" d="M0 125C0 55.965 55.965 0 125 0s125 55.965 125 125-55.965 125-125 125S0 194.035 0 125zm0 0"/><g fill="#fff"><path d="M72.707 11.43a124.184 124.184 0 0 1 25.055-8.453v52.265H72.707zM2.813 98.508a124.136 124.136 0 0 1 8.312-25.133h128.7c18.792 0 34.003 15.258 34.003 34.11v33.21c0 18.852-15.21 34.11-34.004 34.11h-33.113c-18.793 0-34.004-15.258-34.004-34.11v-24.234h25.055v24.055c0 5.027 3.937 8.976 8.949 8.976h33.113c5.008 0 8.946-3.949 8.946-8.976v-33.032c0-5.027-3.938-8.976-8.946-8.976zm0 0"/></g></svg>