<svg xmlns="http://www.w3.org/2000/svg" width="250" height="250"><linearGradient id="a" x1="21.429" x2="221.429" y1="58.929" y2="230.357" gradientUnits="userSpaceOnUse"><stop offset="0" stop-color="#fff"/><stop offset="1" stop-color="#ffe1ef"/></linearGradient><path fill="url(#a)" d="M0 125C0 55.965 55.965 0 125 0s125 55.965 125 125-55.965 125-125 125S0 194.035 0 125zm0 0"/><g fill="#ff007a"><path d="M95.941 58.742c-1.918-.297-2-.332-1.097-.472 1.73-.262 5.816.097 8.633.765 6.574 1.559 12.554 5.55 18.941 12.64l1.695 1.884 2.426-.391c10.223-1.637 20.625-.336 29.324 3.672 2.39 1.101 6.164 3.297 6.637 3.86.148.179.426 1.34.613 2.573.645 4.27.32 7.543-.988 9.989-.715 1.332-.754 1.754-.273 2.89.382.91 1.449 1.582 2.503 1.582 2.16-.004 4.489-3.488 5.567-8.34l.43-1.925.847.96c4.653 5.258 8.309 12.426 8.938 17.528l.16 1.332-.781-1.21c-1.344-2.079-2.7-3.497-4.43-4.641-3.121-2.06-6.422-2.762-15.164-3.22-7.899-.413-12.367-1.09-16.797-2.527-7.54-2.453-11.34-5.718-20.297-17.433-3.976-5.203-6.433-8.086-8.879-10.403-5.558-5.27-11.02-8.03-18.008-9.113zm0 0"/><path d="M164.277 70.36c.2-3.485.672-5.786 1.63-7.887.374-.832.73-1.512.784-1.512.055 0-.109.613-.367 1.363-.691 2.04-.804 4.828-.328 8.07.606 4.118.95 4.711 5.313 9.16 2.046 2.083 4.43 4.716 5.289 5.844l1.57 2.055-1.57-1.469c-1.918-1.793-6.328-5.293-7.305-5.796-.652-.333-.75-.329-1.152.07-.371.37-.453.926-.504 3.543-.078 4.082-.637 6.703-1.985 9.324-.726 1.414-.843 1.113-.183-.488.492-1.192.543-1.719.539-5.668-.008-7.942-.953-9.848-6.496-13.117-1.403-.832-3.719-2.024-5.14-2.657-1.427-.632-2.556-1.183-2.517-1.222.157-.157 5.563 1.418 7.739 2.25 3.238 1.242 3.773 1.402 4.164 1.254.265-.102.394-.868.52-3.118zM99.668 83.941c-3.895-5.347-6.305-13.546-5.781-19.675l.16-1.899.887.164c1.664.301 4.535 1.367 5.879 2.18 3.69 2.234 5.289 5.176 6.914 12.73.476 2.215 1.097 4.72 1.386 5.567.461 1.363 2.211 4.55 3.633 6.62 1.024 1.493.344 2.196-1.922 1.993-3.453-.308-8.136-3.531-11.156-7.68zM159.555 123.746c-18.203-7.308-24.614-13.652-24.614-24.36 0-1.573.055-2.863.121-2.863.063 0 .77.52 1.563 1.157 3.691 2.949 7.828 4.21 19.27 5.879 6.734.976 10.523 1.77 14.02 2.925 11.112 3.676 17.987 11.133 19.628 21.29.477 2.953.195 8.488-.578 11.406-.61 2.3-2.469 6.457-2.965 6.613-.137.047-.27-.477-.305-1.188-.187-3.816-2.12-7.527-5.367-10.308-3.687-3.164-8.648-5.684-20.773-10.55zM146.773 126.785c-.23-1.355-.625-3.082-.878-3.844l-.465-1.379.863.965c1.191 1.336 2.137 3.047 2.937 5.325.61 1.738.676 2.257.672 5.082-.004 2.773-.082 3.355-.644 4.918-.887 2.468-1.992 4.218-3.84 6.097-3.328 3.375-7.602 5.242-13.773 6.016-1.07.137-4.2.363-6.946.504-6.926.36-11.484 1.101-15.578 2.539-.59.203-1.117.328-1.168.277-.168-.164 2.621-1.824 4.926-2.93 3.246-1.558 6.48-2.41 13.723-3.613 3.578-.594 7.273-1.316 8.21-1.601 8.864-2.711 13.418-9.703 11.961-18.356zm0 0"/><path d="M155.117 141.563c-2.418-5.184-2.972-10.192-1.648-14.86.14-.5.37-.906.508-.906.136 0 .707.308 1.265.683 1.117.747 3.352 2.008 9.309 5.247 7.43 4.039 11.668 7.168 14.55 10.742 2.524 3.133 4.083 6.699 4.837 11.047.425 2.46.175 8.386-.458 10.867-2 7.82-6.644 13.96-13.265 17.547-.973.523-1.844.953-1.938.957-.093.004.262-.895.786-1.992 2.23-4.645 2.484-9.165.796-14.192-1.03-3.082-3.132-6.836-7.379-13.187-4.937-7.383-6.148-9.348-7.363-11.953zM86.738 169.54c6.758-5.688 15.16-9.731 22.82-10.97 3.297-.535 8.797-.324 11.852.457 4.899 1.25 9.278 4.051 11.559 7.387 2.226 3.258 3.18 6.102 4.176 12.422.394 2.492.82 4.996.949 5.562.746 3.278 2.199 5.895 4 7.211 2.863 2.09 7.789 2.22 12.636.332.82-.32 1.536-.543 1.586-.492.176.176-2.265 1.805-3.984 2.66-2.316 1.157-4.16 1.602-6.61 1.602-4.437 0-8.12-2.25-11.199-6.844-.605-.902-1.964-3.61-3.02-6.015-3.25-7.383-4.85-9.633-8.62-12.094-3.281-2.145-7.512-2.528-10.695-.969-4.18 2.043-5.348 7.371-2.352 10.746 1.187 1.344 3.41 2.5 5.223 2.727 3.394.422 6.312-2.157 6.312-5.575 0-2.218-.855-3.484-3.008-4.453-2.941-1.324-6.101.223-6.09 2.977.008 1.176.52 1.914 1.704 2.445.757.344.773.371.156.242-2.7-.558-3.332-3.8-1.16-5.957 2.605-2.586 7.992-1.445 9.843 2.086.774 1.48.868 4.434.188 6.22-1.516 3.987-5.938 6.085-10.422 4.944-3.055-.777-4.3-1.62-7.98-5.402-6.399-6.57-8.883-7.844-18.106-9.281l-1.77-.274zm0 0"/><path fill-rule="evenodd" d="M56.719 51.906C78.086 77.77 92.8 88.438 94.437 90.691c1.352 1.864.84 3.536-1.472 4.848-1.285.73-3.93 1.469-5.254 1.469-1.5 0-2.012-.578-2.012-.578-.867-.82-1.36-.676-5.816-8.57-6.192-9.583-11.375-17.528-11.516-17.66-.324-.31-.32-.298 10.883 19.69 1.813 4.169.36 5.7.36 6.294 0 1.207-.329 1.84-1.825 3.5-2.488 2.77-3.601 5.882-4.402 12.324-.903 7.219-3.434 12.316-10.453 21.047-4.11 5.11-4.782 6.043-5.817 8.105-1.304 2.59-1.664 4.043-1.808 7.32-.157 3.461.144 5.7 1.203 9.008.93 2.899 1.898 4.813 4.379 8.637 2.136 3.305 3.367 5.762 3.367 6.719 0 .765.148.765 3.46.02 7.93-1.786 14.372-4.927 17.993-8.778 2.242-2.383 2.766-3.695 2.785-6.961.012-2.137-.066-2.582-.644-3.813-.942-1.996-2.657-3.66-6.438-6.238-4.953-3.375-7.07-6.094-7.656-9.836-.477-3.066.078-5.23 2.82-10.957 2.836-5.93 3.54-8.457 4.016-14.433.305-3.86.73-5.383 1.844-6.606 1.16-1.273 2.203-1.707 5.074-2.097 4.683-.637 7.664-1.844 10.113-4.094 2.125-1.953 3.012-3.836 3.149-6.668l.105-2.149-1.188-1.382c-4.3-5-45.851-40.875-46.113-40.875-.058 0 1.36 1.77 3.145 3.93zm9.949 100.492c.973-1.718.457-3.925-1.168-5.007-1.54-1.016-3.926-.536-3.926.793 0 .402.227.699.73.957.856.437.915.93.247 1.937-.68 1.02-.625 1.914.152 2.524 1.258.98 3.035.437 3.965-1.204zM103.828 104.273c-2.195.672-4.332 2.997-4.992 5.43-.402 1.484-.176 4.09.43 4.899.976 1.296 1.918 1.64 4.476 1.62 5.004-.034 9.356-2.171 9.86-4.847.414-2.195-1.497-5.234-4.13-6.57-1.355-.688-4.245-.961-5.644-.532zm5.852 4.559c.773-1.09.433-2.273-.88-3.074-2.5-1.52-6.277-.262-6.277 2.094 0 1.171 1.97 2.449 3.778 2.449 1.203 0 2.847-.715 3.379-1.469zm0 0"/></g></svg>