<svg xmlns="http://www.w3.org/2000/svg" width="250" height="250"><path fill="#3574b9" d="M249.8 125.238c.11-68.902-55.675-124.867-124.6-125C56.27.105.304 55.855.2 124.758c-.11 68.906 55.675 124.87 124.6 125 68.93.133 124.895-55.613 125-124.52zm0 0"/><g fill="#fff"><path d="M104.781 202.926c0 2.812-1.832 3.8-4.586 3.8-16.66-5.515-31.203-16.433-41.511-31.163-10.313-14.731-15.856-32.512-15.829-50.754.032-18.246 5.633-36.004 15.993-50.7s24.941-25.558 41.617-31.011c2.7-.93 4.586.957 4.558 3.828v6.785a5.393 5.393 0 0 1-.695 2.781 5.145 5.145 0 0 1-2 1.977c-13.121 4.93-24.465 13.957-32.496 25.855-8.031 11.899-12.355 26.09-12.383 40.64-.031 14.556 4.235 28.766 12.219 40.7 7.98 11.934 19.289 21.012 32.39 26a5.093 5.093 0 0 1 2.004 1.973c.477.843.715 1.804.692 2.785zm0 0"/><path d="M132.188 179.273a4.176 4.176 0 0 1-1.094 2.704 3.83 3.83 0 0 1-2.551 1.238h-7.309a3.837 3.837 0 0 1-2.511-1.195 4.164 4.164 0 0 1-1.13-2.633v-11.262c-14.616-1.941-21.902-10.5-24.624-22.887 0-1.886.941-3.8 2.695-3.8h8.227c1.808 0 2.699.957 3.644 2.812 1.805 6.676 5.39 12.39 17.317 12.418 9.113 0 15.507-4.73 15.535-12.332.027-7.602-3.64-10.473-16.399-12.414-19.18-2.817-28.297-8.617-28.27-24.777 0-12.36 9.173-21.875 21.958-23.73V71.757a4.133 4.133 0 0 1 1.129-2.621 3.8 3.8 0 0 1 2.511-1.18h7.309c.95.059 1.84.477 2.512 1.18a4.113 4.113 0 0 1 1.129 2.62v11.43c10.953 1.915 18.234 8.586 20.043 19.06 0 1.886-.918 3.8-2.7 3.8h-7.254c-1.835 0-2.699-.957-3.64-2.817-1.809-6.671-6.367-9.543-14.594-9.543-9.117 0-13.703 4.731-13.703 11.262s2.7 10.473 16.402 12.418c19.149 2.813 28.266 8.613 28.239 24.774 0 12.359-9.145 22.804-22.844 25.648zm0 0"/><path d="M144.918 203.094c0 2.844 1.86 4.758 4.559 3.8 16.675-5.464 31.253-16.328 41.62-31.015 10.368-14.691 15.989-32.441 16.048-50.688.05-38.035-24.52-70.441-57.344-81.925-2.754 0-4.586.984-4.586 3.8v6.672a5.384 5.384 0 0 0 .695 2.782 5.145 5.145 0 0 0 2 1.976c13.098 4.988 24.406 14.07 32.387 26.004 7.98 11.938 12.242 26.148 12.21 40.703s-4.359 28.742-12.39 40.64c-8.035 11.895-19.383 20.923-32.504 25.848a5.053 5.053 0 0 0-2 1.961 5.332 5.332 0 0 0-.695 2.77zm0 0"/></g></svg>