<svg xmlns="http://www.w3.org/2000/svg" xmlns:xlink="http://www.w3.org/1999/xlink" width="250" height="250"><linearGradient id="a"><stop offset=".159" stop-color="#003cda"/><stop offset="1" stop-color="#33dfcc"/></linearGradient><linearGradient xlink:href="#a" id="b" x1="239.36" x2="34.56" y1="17.92" y2="222.72" gradientTransform="matrix(.97656 0 0 -.97656 0 251.25)" gradientUnits="userSpaceOnUse"/><linearGradient xlink:href="#a" id="c" x1="197.6" x2="69.6" y1="59.68" y2="187.68" gradientTransform="matrix(.97656 0 0 -.97656 0 251.25)" gradientUnits="userSpaceOnUse"/><path fill="url(#b)" d="M125 48.242c15.234 0 30.078 4.492 42.676 12.988 12.597 8.399 22.46 20.41 28.32 34.473s7.324 29.492 4.395 44.336c-2.93 14.941-10.254 28.613-20.996 39.356-10.743 10.742-24.415 18.066-39.356 20.996-14.941 2.93-30.371 1.464-44.336-4.395-14.062-5.86-26.074-15.625-34.473-28.32-8.496-12.598-12.988-27.442-12.988-42.676 0-20.313 8.106-39.844 22.559-54.297 14.355-14.355 33.886-22.46 54.199-22.46zM125 0c-24.707 0-48.926 7.324-69.434 21.094-20.605 13.672-36.62 33.203-46.093 56.054C0 100-2.441 125.098 2.343 149.414c4.786 24.219 16.7 46.484 34.18 63.965 17.48 17.48 39.747 29.394 63.965 34.18s49.414 2.343 72.266-7.13c22.851-9.472 42.383-25.488 56.055-45.995 13.77-20.508 21.093-44.727 21.093-69.434 0-33.105-13.183-64.941-36.62-88.379C189.941 13.184 158.104 0 125 0zm0 0"/><path fill="#fff" d="M125 222.656c53.906 0 97.656-43.75 97.656-97.656S178.906 27.344 125 27.344 27.344 71.094 27.344 125s43.75 97.656 97.656 97.656zm0 0"/><path fill="url(#c)" d="M46.875 125c0-43.164 34.96-78.125 78.125-78.125s78.125 34.96 78.125 78.125-34.96 78.125-78.125 78.125S46.875 168.165 46.875 125zm0 0"/><path fill="#fff" d="M92.285 54.004c4.98-2.246 10.156-4.102 15.625-5.274v32.715H92.285zm-43.652 54.394a78.076 78.076 0 0 1 5.176-15.722h80.468c11.72 0 21.29 9.57 21.29 21.289v20.8a21.214 21.214 0 0 1-21.29 21.29h-20.703c-11.719 0-21.289-9.57-21.289-21.29V119.63h15.625v15.039c0 3.125 2.442 5.566 5.567 5.566h20.703c3.125 0 5.566-2.441 5.566-5.566v-20.606c0-3.124-2.441-5.566-5.566-5.566H48.633zm0 0"/></svg>