<svg xmlns="http://www.w3.org/2000/svg" width="250" height="250"><linearGradient id="a" x1="226.75" x2="40.75" y1="56.75" y2="213.25" gradientUnits="userSpaceOnUse"><stop offset="0" stop-color="#b6509e"/><stop offset="1" stop-color="#2ebac6"/></linearGradient><path fill="url(#a)" d="M125 250c69.035 0 125-55.965 125-125S194.035 0 125 0 0 55.965 0 125s55.965 125 125 125zm0 0"/><path fill="#fff" d="M178.73 175.39 137.273 71.669c-2.343-5.363-5.808-7.988-10.39-7.988h-3.668c-4.582 0-8.047 2.625-10.39 7.988l-18.028 45.187H81.145a7.342 7.342 0 0 0-5.239 2.254 7.846 7.846 0 0 0-2.195 5.418v.106c.012 2.035.8 3.98 2.195 5.418a7.326 7.326 0 0 0 5.239 2.254h7.332L71.266 175.39a9.314 9.314 0 0 0-.512 2.941c0 2.418.715 4.313 2.039 5.781 1.324 1.473 3.156 2.207 5.5 2.207a7.288 7.288 0 0 0 4.277-1.472c1.325-.946 2.243-2.313 2.953-3.887l18.95-48.656h13.14a7.342 7.342 0 0 0 5.239-2.254 7.853 7.853 0 0 0 2.195-5.418v-.211a7.846 7.846 0 0 0-2.195-5.418 7.326 7.326 0 0 0-5.239-2.254h-7.027l14.46-37.309 39.423 101.52c.715 1.574 1.633 2.941 2.957 3.887a7.253 7.253 0 0 0 4.277 1.472c2.344 0 4.176-.734 5.5-2.207 1.324-1.472 2.04-3.363 2.04-5.781a7.195 7.195 0 0 0-.513-2.941zm0 0"/></svg>