<svg xmlns="http://www.w3.org/2000/svg" width="250" height="250"><path fill="#070a0e" d="M125 250c69.04 0 125-55.96 125-125S194.04 0 125 0 0 55.96 0 125s55.96 125 125 125zm0 0"/><path fill="#00d395" fill-rule="evenodd" d="M72.21 166.914a12.587 12.587 0 0 1-6.022-10.726v-24.426a5.244 5.244 0 0 1 5.261-5.239c.926 0 1.836.25 2.637.715l55.113 32.137a10.475 10.475 0 0 1 5.211 9.063v25.3a6.274 6.274 0 0 1-6.273 6.301 6.406 6.406 0 0 1-3.301-.926zm82.153-46.363a10.523 10.523 0 0 1 5.211 9.062v51.348a4.175 4.175 0 0 1-2.137 3.652l-12.062 6.785c-.152.09-.313.153-.488.204v-28.516c0-3.688-1.938-7.11-5.114-9.012l-48.398-28.949V92.937a5.244 5.244 0 0 1 5.262-5.238c.925 0 1.836.25 2.636.715zm24.125-37.926a10.489 10.489 0 0 1 5.223 9.074v75a4.248 4.248 0 0 1-2.211 3.688l-11.438 6.175v-52.21c0-3.688-1.937-7.102-5.09-9L115.5 85.676V55.148c0-.921.25-1.836.7-2.636a5.263 5.263 0 0 1 7.175-1.899zm0 0"/></svg>