<svg xmlns="http://www.w3.org/2000/svg" xmlns:xlink="http://www.w3.org/1999/xlink" width="250" height="250"><linearGradient id="a"><stop offset="0" stop-color="#6fa4f2"/><stop offset=".505" stop-color="#0f6beb"/><stop offset="1" stop-color="#0b50b0"/></linearGradient><linearGradient xlink:href="#a" id="b" x1="222.184" x2="20.24" y1="363.489" y2="92.923" gradientTransform="scale(.25615 .646)" gradientUnits="userSpaceOnUse"/><linearGradient xlink:href="#a" id="c" x1="298.516" x2="96.572" y1="306.517" y2="35.951" gradientTransform="scale(.25615 .646)" gradientUnits="userSpaceOnUse"/><g fill="#fff"><path d="M121.625 57.883h10.23v144.941h-10.23zM202.355 57.883v139.36l-10.23 14.902V57.883zM174.633 47.602v61.66c-3.164-10.278-7.73-19.5-14.973-19.5-10.476 0-20.375 20.77-20.375 57.46v.426c0 36.692 10.059 57.461 20.375 57.461 7.156 0 11.735-9.222 14.973-20.77v18.485h10.23V32.7zm.164 100.046c0 2.028-.059 4.004-.164 5.91-1 17.883-6.473 29.544-12.563 29.544-6.816 0-12.64-14.07-12.64-35.454v-.425c0-22.028 5.738-35.453 12.64-35.453 6.09 0 11.57 11.492 12.563 29.496.105 1.906.164 3.91.164 5.964zM207.574 147.855v-.421c0-31.672 8.899-57.68 21.457-57.68 13.973 0 21.047 27.687 21.047 59.574 0 2.305-.086 4.613-.168 7.133h-32.273c1.082 18.035 6.156 28.105 12.64 28.105 4.91 0 8.403-4.613 11.895-13.214l5.906 13.214c-4.16 12.586-9.898 20.77-17.965 20.77-12.722-.008-22.539-23.293-22.539-57.48zm32.52-8.183c-.664-16.363-4.489-29.156-11.145-29.156-6.156 0-10.48 11.957-11.394 29.156zm0 0"/></g><path fill="url(#b)" fill-rule="evenodd" d="M34.246.645v199.757H.215L0 200.09V50.512l1.305-1.907zm0 0"/><path fill="url(#c)" fill-rule="evenodd" d="M45.215 250V50.246h34.031l.215.309v149.582l-1.305 1.906zm0 0"/></svg>