<svg xmlns="http://www.w3.org/2000/svg" width="250" height="250"><path fill="#b13932" d="M241.488 80C216.723 15.676 144.5-16.395 80.176 8.375l-.25.102a122.564 122.564 0 0 0-17.938 8.636 125 125 0 0 0-25.352 196.25 122.367 122.367 0 0 0 26.063 20 125.014 125.014 0 0 0 107.356 8.188 125.012 125.012 0 0 0 73.894-78.301 121.948 121.948 0 0 0 5.863-32.313A124.546 124.546 0 0 0 241.488 80zm0 0"/><path fill="#cc4641" d="M241.488 80a124.593 124.593 0 0 1 8.285 50.95 208.515 208.515 0 0 1-12.5 15.113C209.582 82.129 152.746 35.48 84.637 20.788A216.327 216.327 0 0 1 98.96 2.773C158.984-9.953 219.37 22.766 241.488 80zm0 0"/><path fill="#cc4641" d="M249.773 130.898a122.46 122.46 0 0 1-5.859 32.301 174.457 174.457 0 0 0-3.312-9.05c-1.102-2.723-2.204-5.512-3.301-8.137a222.863 222.863 0 0 0 12.5-15.114zm0 0"/><path fill="#b13932" d="M240.648 154.148a258.67 258.67 0 0 1 3.313 9.051 125 125 0 0 1-181.25 70.113 729.26 729.26 0 0 1-3.75-8.886c-1.098-2.75-2.063-5.512-3-8.262 68.14 6.59 135.387-19.422 181.351-70.152 1.149 2.675 2.239 5.465 3.313 8.136zm0 0"/><path fill="#be4137" d="M237.3 146.012c-45.945 50.765-113.195 76.812-181.35 70.238C33.413 150.309 44.085 77.543 84.612 20.852c68.102 14.652 124.957 61.257 152.688 125.16zm0 0"/><path fill="#a5322d" d="M98.977 2.773a218.626 218.626 0 0 0-14.34 18.016 209.941 209.941 0 0 0-22.688-3.676 122.013 122.013 0 0 1 17.977-8.636 127.937 127.937 0 0 1 19.05-5.704zm0 0"/><path fill="#a5322d" d="M61.938 17.113c7.628.813 15.207 2.04 22.699 3.676-40.551 56.703-51.227 129.5-28.66 195.461-6.516-.637-13-1.563-19.403-2.8A124.927 124.927 0 0 1 61.937 17.2zm0 0"/><path fill="#b13932" d="M58.977 224.426c1.109 3.023 2.375 5.972 3.75 8.887a122.813 122.813 0 0 1-26.079-20c6.403 1.25 12.891 2.199 19.391 2.8a152.5 152.5 0 0 0 3 8.262zm0 0"/><path fill="#fff" d="M41.164 53.977h41.887a84.25 84.25 0 0 1 16.8 1.586 42.396 42.396 0 0 1 14.387 5.511 28.854 28.854 0 0 1 10 10.551c2.5 4.418 3.75 10.04 3.75 16.863 0 8.75-2.414 16.075-7.238 21.973-4.824 5.902-11.707 9.496-20.648 10.789l31.96 53.313H106.25L78.3 123.477H62.626v51.148h-21.46zm38.148 51.097c3.075 0 6.165-.136 9.211-.426a28.35 28.35 0 0 0 8.426-2.035 14.539 14.539 0 0 0 6.25-5c1.59-2.215 2.375-5.3 2.375-9.289.149-3-.62-5.972-2.199-8.523A13.833 13.833 0 0 0 97.562 75a26.824 26.824 0 0 0-7.925-2.102 68.367 68.367 0 0 0-8.387-.511H62.625v32.687zm54.075-17.5H152.8v12.262h.336a26.267 26.267 0 0 1 11.937-10.899 38.379 38.379 0 0 1 16.176-3.449 40.9 40.9 0 0 1 16.875 3.262 37.557 37.557 0 0 1 12.762 9.113 38.666 38.666 0 0 1 8.011 13.575 51.22 51.22 0 0 1 2.727 16.874 48.372 48.372 0 0 1-2.875 16.899 42.096 42.096 0 0 1-8.086 13.75 37.688 37.688 0 0 1-12.5 9.113 38.441 38.441 0 0 1-16.027 3.301 39.671 39.671 0 0 1-10.211-1.25 34.721 34.721 0 0 1-7.84-3.063 31.288 31.288 0 0 1-5.785-4 29.47 29.47 0 0 1-3.914-4.164h-.637v49.215h-20.363zm67.863 40.84c.012-3.14-.54-6.258-1.625-9.203a23.082 23.082 0 0 0-4.773-7.824 24.878 24.878 0 0 0-27.676-5.512 23.749 23.749 0 0 0-7.574 5.512 23.255 23.255 0 0 0-4.778 7.824 26.938 26.938 0 0 0 0 18.402 23.242 23.242 0 0 0 4.778 7.836 24.86 24.86 0 0 0 27.671 5.438 23.882 23.882 0 0 0 7.579-5.438 23.232 23.232 0 0 0 4.773-7.836 26.603 26.603 0 0 0 1.625-9.199zm0 0"/></svg>