<svg xmlns="http://www.w3.org/2000/svg" width="250" height="250"><path fill="#163256" d="M163.293 83.047h18.66c19.297 0 34.992-15.695 34.992-34.988V34.063c0-6.442-5.222-11.665-11.664-11.665s-11.664 5.223-11.664 11.664V48.06c0 6.43-5.23 11.664-11.66 11.664h-18.664c-6.441 0-11.66 5.218-11.66 11.66 0 6.445 5.219 11.664 11.66 11.664zm0 0"/><path fill="#03a3b4" d="M55.02 129.7c-25.657 0-46.653-20.993-46.653-46.653h233.266c0 25.66-20.996 46.652-46.653 46.652zm0 0"/><path fill="#01949a" d="M8.367 83.047s29.938 23.91 62.887 30.031L55.02 129.7s-44.805-.289-46.653-46.652zm0 0"/><path fill="#03a3b4" d="M101.672 129.7h58.316c19.246 0 34.992-15.747 34.992-34.99 0-19.245-15.746-34.987-34.992-34.987h-58.316c-19.242 0-34.988 15.742-34.988 34.988 0 19.242 15.746 34.988 34.988 34.988zm0 0"/><path fill="#03a3b4" d="M183.438 106.375H94.55c-25.59 0-46.528 20.938-46.528 46.527v.246c0 25.594 20.938 46.532 46.528 46.532h88.886c25.594 0 46.532-20.938 46.532-46.532v-.246c0-25.59-20.938-46.527-46.531-46.527zm0 0"/><path fill="#01949a" d="M153.77 83.047c0-12.828-12.247-23.324-18.66-23.324h24.878c19.246 0 34.992 15.742 34.992 34.988 0 3.176-.468 6.242-1.27 9.176a23.337 23.337 0 0 1-7.5 2.297c24.317 1.511 43.759 21.82 43.759 46.504 0 25.66-20.992 46.652-46.653 46.652h-43.543c12.829 0 23.329-20.992 23.329-46.653 0-23.835-6.735-43.62-18.305-46.316 0 .004 8.973-5.879 8.973-23.324zm0 0"/><path fill="#fff" d="M130.832 113.371c0 10.309-8.355 18.66-18.66 18.66-10.309 0-18.664-8.351-18.664-18.66 0-10.305 8.355-18.66 18.664-18.66 10.305 0 18.66 8.355 18.66 18.66zm0 0"/><path fill="#163256" d="M123.832 113.371c0 6.442-5.219 11.664-11.66 11.664s-11.664-5.222-11.664-11.664 5.222-11.66 11.664-11.66 11.66 5.219 11.66 11.66zm0 0"/><path fill="#163256" d="M132.582 107.54h-40.82c-4.813 0-8.75-3.935-8.75-8.747s3.937-8.746 8.75-8.746h40.82c4.809 0 8.746 3.933 8.746 8.746s-3.937 8.746-8.746 8.746zm0 0"/><path fill="#fff" d="M197.7 113.371c0 10.309-8.356 18.66-18.66 18.66-6.75 0-12.661-3.582-15.938-8.949a18.575 18.575 0 0 1-2.723-9.71c0-3.63 1.035-7.017 2.828-9.884 3.297-5.27 9.156-8.777 15.832-8.777 10.305 0 18.66 8.355 18.66 18.66zm0 0"/><path fill="#163256" d="M186.035 113.371c0 6.442-5.219 11.664-11.66 11.664s-11.664-5.222-11.664-11.664 5.223-11.66 11.664-11.66 11.66 5.219 11.66 11.66zm0 0"/><path fill="#163256" d="M202.363 107.54H163.75c-4.809 0-8.746-3.938-8.746-8.747 0-4.813 3.937-8.746 8.746-8.746h38.613c4.809 0 8.746 3.933 8.746 8.746s-3.937 8.746-8.746 8.746zm0 0"/><path fill="#fff" d="m167.375 122.703 4.668-11.664-11.664 4.664v5.637zm0 0"/><path fill="#163256" d="M89.621 83.047H69.016c-19.293 0-34.989-15.695-34.989-34.988V34.063c0-6.442 5.22-11.665 11.664-11.665 6.442 0 11.66 5.223 11.66 11.664V48.06c0 6.43 5.235 11.664 11.665 11.664H89.62c6.442 0 11.664 5.218 11.664 11.66 0 6.445-5.222 11.664-11.664 11.664zM190.54 142.613H96.683c-5.407 0-10.063-7.18-12.16-11.008a4.492 4.492 0 0 0-3.95-2.34 4.505 4.505 0 0 0-4.504 4.505v3.582c0 12.66 10.266 22.921 22.922 22.921h91.516"/><path fill="#5ec7d1" d="M98.992 156.684h87.051a4.464 4.464 0 0 1 4.465 4.464c0 2.465-2 4.465-4.465 4.465h-87.05c-15.102 0-27.388-12.285-27.388-27.386 0 0-1.617-12.551 8.97-12.551a8.965 8.965 0 0 1 7.862 4.656c3.274 5.973 6.57 8.691 8.247 8.691h107.851c2.469 0 4.465 2 4.465 4.465a4.464 4.464 0 0 1-4.465 4.465H96.684c-7.25 0-12.743-7.246-16.075-13.328l-.074.02s.809 22.039 18.457 22.039zm0 0"/><g fill="#fff"><path d="m177.313 147.996-8.375 8.688H156.73v-8.688zM124.434 147.996l8.375 8.688h14.539v-8.688zM178.266 147.973l9.78 22.957 10.044-22.957zM101.324 147.973l9.781 22.957 10.043-22.957zm0 0"/></g><path fill="#5ec7d1" d="M164.016 143.695h-18.66c-7.731 0-13.997-6.265-13.997-13.996s6.266-13.996 13.996-13.996h18.66c7.731 0 13.997 6.266 13.997 13.996s-6.266 13.996-13.996 13.996zm0 0"/><path fill="#163256" d="M151.188 139.031h-9.333v-12.996c0-.55.45-1 1-1h7.333c.55 0 1 .45 1 1zM167.516 139.031h-9.332v-12.996c0-.55.449-1 1-1h7.332c.55 0 1 .45 1 1zM127.04 199.703s42.28 6 45.585 23.496c0 0 23.375-31.297-10.305-57.539 0 0-2.914 34.043-35.28 34.043zm0 0"/><path fill="#fff" d="m105.172 122.703 4.668-11.664-11.664 4.664v5.637zm0 0"/></svg>