<svg xmlns="http://www.w3.org/2000/svg" xmlns:xlink="http://www.w3.org/1999/xlink" version="1.1" id="Layer_1" x="0px" y="0px" style="enable-background:new 0 0 1920 1080;" xml:space="preserve" viewBox="819.5 321.47 280 280">

<path d="M959.5,321.47c-77.32,0-140,62.68-140,140s62.68,140,140,140s140-62.68,140-140S1036.82,321.47,959.5,321.47z   M953.44,378.04c3.89-1.9,7.99-1.78,11.75,0.37c13.07,7.45,26.1,14.96,39.08,22.57c4.18,2.45,6.31,6.39,6.33,11.21  c0.08,16.92,0.05,33.83,0,50.75c0,0.63-0.41,1.54-0.91,1.84c-5.03,2.99-10.12,5.89-15.63,9.06c0-1.11,0-1.89,0-2.66  c0-17.4-0.05-34.8,0.04-52.2c0.02-3.34-1.14-5.49-4.1-7.18c-15.18-8.62-30.27-17.41-45.39-26.14c-0.65-0.38-1.29-0.78-2.28-1.38  C946.23,382.07,949.74,379.85,953.44,378.04z M950.66,551.17c-0.84-0.44-1.48-0.74-2.09-1.09c-20.03-11.55-40.03-23.17-60.12-34.63  c-5.63-3.22-8.2-7.79-8.15-14.22c0.11-13.68,0.08-27.35,0.01-41.03c-0.03-6.18,2.48-10.65,7.9-13.73  c14.1-8.02,28.13-16.17,42.16-24.32c1.21-0.7,2.1-0.82,3.36-0.06c4.85,2.91,9.77,5.69,14.92,8.66c-0.98,0.58-1.73,1.04-2.48,1.47  c-15.18,8.77-30.35,17.56-45.57,26.27c-2.5,1.43-3.65,3.28-3.63,6.17c0.08,10.78,0.09,21.55,0,32.33c-0.03,2.98,1.15,4.86,3.72,6.33  c16.06,9.18,32.06,18.48,48.11,27.68c1.36,0.78,1.94,1.59,1.9,3.22C950.59,539.74,950.66,545.26,950.66,551.17z M950.66,520.3  c-1.39-0.79-2.4-1.36-3.4-1.94c-12.73-7.35-25.45-14.72-38.21-22.01c-1.38-0.79-1.89-1.63-1.87-3.23  c0.09-8.29,0.06-16.57,0.02-24.86c0-1.12,0.17-1.9,1.28-2.51c4.7-2.62,9.34-5.36,14-8.04c0.34-0.19,0.7-0.34,1.32-0.64  c0,3.28,0,6.29,0,9.3c0,5.04,0.08,10.08-0.03,15.12c-0.06,2.87,1.04,4.81,3.55,6.23c7.21,4.07,14.33,8.3,21.55,12.35  c1.42,0.8,1.85,1.68,1.82,3.25C950.6,508.83,950.66,514.35,950.66,520.3z M935.95,411.55c-2.7-1.59-5.01-1.57-7.71,0.01  c-15.14,8.84-30.34,17.57-45.52,26.34c-0.64,0.37-1.31,0.71-2.44,1.33c0.4-5.77-0.83-11.21,1.13-16.48  c1.07-2.88,3.08-5.05,5.74-6.59c12.67-7.32,25.33-14.66,38.02-21.93c4.63-2.66,9.36-2.59,13.99,0.07  c14.41,8.3,28.82,16.62,43.2,24.97c0.61,0.36,1.38,1.15,1.39,1.74c0.1,5.93,0.06,11.85,0.06,18.22c-5.23-3.02-10.06-5.81-14.89-8.59  C957.93,424.29,946.9,417.99,935.95,411.55z M1037.27,504.7c-0.37,4.66-3.11,7.97-7.14,10.28c-15.44,8.88-30.85,17.79-46.28,26.7  c-4.84,2.79-9.68,5.59-14.53,8.38c-0.58,0.34-1.19,0.63-1.98,1.05c-0.05-0.8-0.12-1.39-0.12-1.98c-0.01-5.11,0.03-10.22-0.03-15.33  c-0.01-1.15,0.28-1.87,1.34-2.48c22.5-12.94,44.97-25.93,67.45-38.9c0.34-0.2,0.71-0.35,1.35-0.66  C1037.34,496.29,1037.61,500.52,1037.27,504.7z M1037.38,472.49c-0.04,5.3-2.89,9.02-7.43,11.62  c-17.59,10.11-35.16,20.28-52.73,30.42c-3.21,1.85-6.43,3.7-9.88,5.68c-0.05-0.87-0.12-1.45-0.12-2.04  c-0.01-5.04,0.05-10.08-0.04-15.13c-0.02-1.43,0.45-2.2,1.69-2.91c15.99-9.17,31.91-18.45,47.92-27.57c2.85-1.62,4.1-3.61,4.08-6.95  c-0.12-17.4-0.06-34.81-0.06-52.21c0-0.83,0-1.65,0-3.04c4.18,2.52,8.08,4.59,11.66,7.12c3.26,2.31,4.9,5.81,4.92,9.84  C1037.45,442.38,1037.49,457.43,1037.38,472.49z"/>
</svg>