<svg xmlns="http://www.w3.org/2000/svg" width="250" height="250"><linearGradient id="a" x1="41.667" x2="208.333" y1="125" y2="125" gradientUnits="userSpaceOnUse"><stop offset="0" stop-color="#0082fa"/><stop offset="1" stop-color="#00f2fe"/></linearGradient><g fill="url(#a)"><path d="M61.875 70.473c1.035-1.301 2.129-2.551 3.227-3.805.05-.063.16-.074.21-.137.098-.12.258-.199.356-.32l.102-.125c.761-.707 1.578-1.477 2.515-2.145 3.317-2.52 6.762-4.433 10.39-5.695 11.65-4.086 24.614-1.566 34.782 8.031 14.195 13.309 12.926 34.743 1.59 48.993-14.32 21.242-38.93 50.875-4.856 77.421 6.13 4.774 10.672 8.711 29.973 14.286-12.621 2.324-24.324 1.601-37.351-1.723-9.215-5.203-23.704-16.34-28.63-31.379-7.449-22.809 13.114-56.902 23.051-70.035 13.645-18.172-8.433-37.848-24.687-15.883-8.496 11.445-23.363 43.836-18.195 67.863 3.02 13.621 7.046 23.555 23.007 37.196a75.317 75.317 0 0 1-8.62-5.942c-37.09-34.55-32.786-87.965-6.864-116.601zm0 0"/><path d="M188.125 179.527c-1.035 1.301-2.129 2.551-3.227 3.805-.05.063-.16.074-.21.137-.098.12-.258.199-.356.32l-.102.125c-.761.707-1.578 1.477-2.515 2.145-3.317 2.52-6.762 4.433-10.39 5.695-11.65 4.086-24.614 1.566-34.782-8.031-14.195-13.309-12.926-34.743-1.59-48.993 14.32-21.242 38.93-50.875 4.856-77.421-6.13-4.774-10.672-8.711-29.973-14.286 12.621-2.324 24.324-1.601 37.352 1.723 9.214 5.203 23.703 16.34 28.628 31.379 7.45 22.809-13.113 56.902-23.05 70.035-13.645 18.172 8.433 37.848 24.687 15.883 8.496-11.445 23.363-43.836 18.195-67.863-3.02-13.621-7.046-23.555-23.007-37.196a75.317 75.317 0 0 1 8.62 5.942c37.09 34.55 32.786 87.965 6.864 116.601zm0 0"/></g></svg>