<svg xmlns="http://www.w3.org/2000/svg" width="250" height="250"><path fill="#1e3c64" d="M129.332 1.25h-.11v112.133c8.954 1.71 15.68 8.945 15.68 17.613 0 2.652-.648 5.164-1.777 7.43l105.906 43.883-123.875 66.75 123.88-66.75zm0 0"/><path fill="#3c82b4" d="m1.273 182.309 105.91-43.883c-1.128-2.266-1.773-4.778-1.773-7.43 0-8.668 6.723-15.902 15.676-17.613V1.25h-.106zm0 0"/><path fill="#142846" d="M143.125 138.426c-3.105 6.23-9.973 10.57-17.973 10.57l.004 100.063 123.875-66.75zm0 0"/><path fill="#2d4b69" d="M125.152 249.059V148.996c-7.996 0-14.863-4.34-17.968-10.57L1.274 182.309zm0 0"/></svg>