<svg xmlns="http://www.w3.org/2000/svg" width="250" height="250"><path d="M98.16 55.215c0 2.762 1.074 3.066 9.203 3.066 8.13 0 9.2.309 9.2 3.07 0 2.915 1.074 3.067 20.707 3.067 19.632 0 20.707-.152 20.707-3.066 0-2.762 1.074-3.07 9.203-3.07s9.199-.305 9.199-3.067c0-2.914-1.07-3.067-39.11-3.067-38.035 0-39.109.153-39.109 3.067zM73.621 73.621c0 2.758 1.07 3.067 9.969 3.067h9.969v142.636h-9.97c-9.663 0-9.968.156-9.968 3.836v3.832h78.219v-3.832c0-3.68-.461-3.836-9.203-3.836h-9.2V76.687h9.66c8.59 0 9.665-.308 9.665-3.066 0-2.914-1.075-3.07-39.57-3.07-38.5 0-39.57.156-39.57 3.07zm0 0"/><path d="M139.57 145.707v62.883h36.809v-3.836c0-3.68-.457-3.832-9.2-3.832h-9.202V82.82H139.57zm0 0"/></svg>