<svg xmlns="http://www.w3.org/2000/svg" width="250" height="250"><g fill-rule="evenodd"><path fill="#fff" d="M250 125c0 69.035-55.965 125-125 125S0 194.035 0 125 55.965 0 125 0s125 55.965 125 125zm0 0"/><path fill="#75b943" d="M59.914 119.191a11.786 11.786 0 0 1 0 11.329c.606 1.828 1.82 3.773 3.547 5.496 1.73 1.718 3.684 2.925 5.52 3.53 4.503-2.452 10.265-1.78 14.078 2.017s4.488 9.535 2.027 14.015c.605 1.828 1.816 3.774 3.547 5.496 1.73 1.723 3.683 2.93 5.52 3.531a11.92 11.92 0 0 1 11.374 0c1.836-.601 3.79-1.808 5.52-3.53 1.73-1.723 2.941-3.669 3.547-5.497-2.461-4.48-1.785-10.219 2.027-14.016s9.574-4.468 14.078-2.015c1.836-.606 3.79-1.813 5.52-3.531 1.726-1.723 2.941-3.668 3.547-5.496a11.786 11.786 0 0 1 0-11.329c-.606-1.828-1.82-3.773-3.547-5.496-1.73-1.718-3.684-2.925-5.52-3.527-4.504 2.45-10.265 1.777-14.078-2.02a11.78 11.78 0 0 1-2.027-14.015c-.606-1.828-1.817-3.774-3.547-5.496-1.73-1.723-3.684-2.926-5.52-3.532a11.92 11.92 0 0 1-11.375 0c-1.836.606-3.789 1.81-5.52 3.532-1.73 1.722-2.94 3.668-3.546 5.496a11.78 11.78 0 0 1-2.027 14.015c-3.813 3.797-9.575 4.47-14.079 2.02-1.835.602-3.789 1.809-5.52 3.527-1.726 1.723-2.94 3.668-3.546 5.496m-4.727-4.707c1.836-.601 3.79-1.808 5.52-3.53s2.941-3.665 3.547-5.493c-2.461-4.484-1.785-10.223 2.027-14.02s9.574-4.468 14.078-2.015c1.836-.606 3.79-1.809 5.52-3.531 1.726-1.723 2.937-3.668 3.543-5.497a11.78 11.78 0 0 1 2.027-14.015c4.633-4.613 12.149-4.613 16.781 0a11.78 11.78 0 0 1 2.028 14.015c.605 1.829 1.816 3.774 3.543 5.497 1.73 1.722 3.683 2.925 5.52 3.53 4.503-2.452 10.265-1.78 14.077 2.016 3.817 3.797 4.489 9.536 2.028 14.02.605 1.828 1.816 3.77 3.547 5.492 1.73 1.723 3.683 2.93 5.52 3.531 4.503-2.449 10.265-1.777 14.077 2.02a11.779 11.779 0 0 1 0 16.707c-3.812 3.793-9.574 4.469-14.078 2.016-1.836.601-3.789 1.808-5.52 3.53-1.73 1.723-2.94 3.669-3.546 5.493 2.46 4.484 1.789 10.223-2.028 14.02-3.812 3.796-9.574 4.468-14.078 2.015-1.836.606-3.789 1.809-5.52 3.531-1.726 1.723-2.937 3.668-3.542 5.496a11.78 11.78 0 0 1-2.028 14.016c-4.632 4.613-12.148 4.613-16.78 0a11.78 11.78 0 0 1-2.028-14.016c-.606-1.828-1.817-3.773-3.543-5.496-1.73-1.722-3.684-2.925-5.52-3.53-4.504 2.452-10.265 1.78-14.078-2.016s-4.488-9.536-2.027-14.02c-.606-1.824-1.817-3.77-3.547-5.492-1.73-1.723-3.684-2.93-5.52-3.531-4.503 2.453-10.265 1.777-14.078-2.016a11.779 11.779 0 0 1 0-16.707c3.813-3.797 9.575-4.469 14.078-2.02"/><path fill="#008845" d="M119.41 110.05c-1.836.602-3.789 1.81-5.52 3.532-1.73 1.723-2.94 3.668-3.546 5.492a11.786 11.786 0 0 1 0 11.328c.605 1.828 1.816 3.774 3.547 5.496 1.968 1.961 4.23 3.254 6.273 3.747 2.047.496.578 3.351-.66 4.585-1.238 1.235-4.11 2.696-4.606.66-.496-2.038-1.793-4.288-3.765-6.25-1.727-1.722-3.68-2.925-5.516-3.53-4.504 2.452-10.265 1.78-14.078-2.016a11.772 11.772 0 0 1 0-16.707c3.813-3.797 9.574-4.469 14.078-2.016 1.836-.605 3.79-1.812 5.516-3.531 1.73-1.723 2.941-3.668 3.547-5.496-2.461-4.485-1.785-10.223 2.027-14.016 3.813-3.797 9.574-4.469 14.078-2.02 1.836-.601 3.79-1.808 5.52-3.53 1.73-1.723 2.941-3.669 3.547-5.493a11.786 11.786 0 0 1 2.027-14.02c4.633-4.613 12.144-4.613 16.777 0 3.817 3.797 4.489 9.536 2.028 14.02.605 1.824 1.816 3.77 3.546 5.492s3.684 2.93 5.52 3.532c4.504-2.45 10.266-1.778 14.078 2.02 3.813 3.792 4.488 9.53 2.027 14.015.606 1.828 1.817 3.773 3.543 5.496 1.73 1.719 3.684 2.926 5.52 3.531 4.504-2.453 10.266-1.781 14.078 2.016a11.772 11.772 0 0 1 0 16.707c-3.812 3.797-9.574 4.469-14.078 2.015-1.836.606-3.79 1.809-5.52 3.532-1.726 1.722-2.937 3.668-3.543 5.496 2.461 4.484 1.786 10.218-2.027 14.015s-9.574 4.47-14.078 2.02c-1.836.601-3.79 1.808-5.52 3.531-1.73 1.719-2.94 3.664-3.546 5.492 2.46 4.485 1.789 10.223-2.028 14.02-4.633 4.613-12.144 4.613-16.777 0a11.786 11.786 0 0 1-2.027-14.02c-.606-1.828-1.817-3.773-3.547-5.492-1.97-1.96-4.23-3.254-6.278-3.75-2.043-.492-.574-3.351.664-4.586 1.239-1.23 4.11-2.691 4.606-.656.496 2.035 1.793 4.285 3.762 6.246 1.73 1.723 3.683 2.93 5.52 3.531a11.95 11.95 0 0 1 11.378 0c1.836-.601 3.79-1.808 5.52-3.531 1.726-1.719 2.941-3.664 3.546-5.492a11.78 11.78 0 0 1 2.024-14.02c3.812-3.797 9.574-4.468 14.078-2.015 1.836-.602 3.79-1.809 5.52-3.532 1.73-1.722 2.94-3.668 3.546-5.496a11.786 11.786 0 0 1 0-11.328c-.605-1.824-1.816-3.77-3.546-5.492-1.73-1.723-3.684-2.93-5.52-3.531-4.504 2.449-10.266 1.777-14.078-2.02a11.773 11.773 0 0 1-2.024-14.015c-.605-1.829-1.82-3.774-3.546-5.496-1.73-1.72-3.684-2.926-5.52-3.528a11.95 11.95 0 0 1-11.379 0c-1.836.602-3.789 1.809-5.52 3.528-1.726 1.722-2.937 3.668-3.546 5.496a11.773 11.773 0 0 1-2.024 14.015c-3.812 3.797-9.574 4.469-14.078 2.02"/><path fill="#75b943" d="M124.973 161.676c6.55 0 11.867-5.29 11.867-11.817 0-6.523-5.317-11.812-11.867-11.812-6.555 0-11.868 5.289-11.868 11.812 0 6.528 5.313 11.817 11.868 11.817"/></g></svg>