<svg xmlns="http://www.w3.org/2000/svg" xmlns:xlink="http://www.w3.org/1999/xlink" width="250" height="250"><linearGradient id="a"><stop offset="0" stop-color="#00dc9c"/><stop offset="1" stop-color="#00d3dc"/></linearGradient><linearGradient xlink:href="#a" id="c" x1="-2.635" x2="3.116" y1="-.821" y2="2.061" gradientTransform="matrix(49.28516 0 0 60.1211 151.113 .148)" gradientUnits="userSpaceOnUse"/><filter id="b" width="100%" height="100%" x="0%" y="0%"><feColorMatrix in="SourceGraphic" values="0 0 0 0 1 0 0 0 0 1 0 0 0 0 1 0 0 0 1 0"/></filter><mask id="e"><g filter="url(#b)"><path fill-opacity=".9" d="M0 0h250v250H0z"/></g></mask><linearGradient xlink:href="#a" id="f" x1="-3.634" x2="2.117" y1="-1.323" y2="1.56" gradientTransform="matrix(49.28125 0 0 60.125 200.398 30.25)" gradientUnits="userSpaceOnUse"/><clipPath id="d"><path d="M0 0h250v250H0z"/></clipPath><mask id="h"><g filter="url(#b)"><path fill-opacity=".8" d="M0 0h250v250H0z"/></g></mask><linearGradient xlink:href="#a" id="i" x1="-3.164" x2="2.587" y1="-1.086" y2="1.796" gradientTransform="matrix(49.28516 0 0 60.125 151.113 60.27)" gradientUnits="userSpaceOnUse"/><clipPath id="g"><path d="M0 0h250v250H0z"/></clipPath><mask id="k"><g filter="url(#b)"><path fill-opacity=".8" d="M0 0h250v250H0z"/></g></mask><linearGradient xlink:href="#a" id="l" x1="-4.163" x2="1.587" y1="-1.588" y2="1.295" gradientTransform="matrix(49.28125 0 0 60.1211 200.398 90.375)" gradientUnits="userSpaceOnUse"/><clipPath id="j"><path d="M0 0h250v250H0z"/></clipPath><mask id="n"><g filter="url(#b)"><path fill-opacity=".8" d="M0 0h250v250H0z"/></g></mask><linearGradient xlink:href="#a" id="o" x1="-3.697" x2="2.054" y1="-1.354" y2="1.529" gradientTransform="matrix(49.28516 0 0 60.1211 151.113 120.395)" gradientUnits="userSpaceOnUse"/><clipPath id="m"><path d="M0 0h250v250H0z"/></clipPath><linearGradient xlink:href="#a" id="p" x1="-4.697" x2="1.054" y1="-1.855" y2="1.027" gradientTransform="matrix(49.28125 0 0 60.125 200.398 150.496)" gradientUnits="userSpaceOnUse"/><mask id="r"><g filter="url(#b)"><path fill-opacity=".5" d="M0 0h250v250H0z"/></g></mask><linearGradient xlink:href="#a" id="s" x1="-1.071" x2="4.68" y1="-.037" y2="2.845" gradientTransform="matrix(49.28125 0 0 60.125 23.727 58.246)" gradientUnits="userSpaceOnUse"/><clipPath id="q"><path d="M0 0h250v250H0z"/></clipPath><mask id="u"><g filter="url(#b)"><path fill-opacity=".2" d="M0 0h250v250H0z"/></g></mask><linearGradient xlink:href="#a" id="v" x1="-2.037" x2="3.723" y1="-.519" y2="2.363" gradientTransform="matrix(49.20703 0 0 60.1211 85.906 80.594)" gradientUnits="userSpaceOnUse"/><clipPath id="t"><path d="M0 0h250v250H0z"/></clipPath><mask id="x"><g filter="url(#b)"><path fill-opacity=".4" d="M0 0h250v250H0z"/></g></mask><linearGradient xlink:href="#a" id="y" x1="-2.233" x2="3.518" y1="-.62" y2="2.262" gradientTransform="matrix(49.28516 0 0 60.1211 49.363 118.625)" gradientUnits="userSpaceOnUse"/><clipPath id="w"><path d="M0 0h250v250H0z"/></clipPath><mask id="A"><g filter="url(#b)"><path fill-opacity=".9" d="M0 0h250v250H0z"/></g></mask><linearGradient xlink:href="#a" id="B" x1="-2.977" x2="2.783" y1="-.99" y2="1.892" gradientTransform="matrix(49.20313 0 0 60.125 81.848 163.988)" gradientUnits="userSpaceOnUse"/><clipPath id="z"><path d="M0 0h250v250H0z"/></clipPath><mask id="D"><g filter="url(#b)"><path fill-opacity=".7" d="M0 0h250v250H0z"/></g></mask><linearGradient xlink:href="#a" id="E" x1="-4.344" x2="1.416" y1="-1.674" y2="1.208" gradientTransform="matrix(49.20703 0 0 60.125 150.715 189.875)" gradientUnits="userSpaceOnUse"/><clipPath id="C"><path d="M0 0h250v250H0z"/></clipPath><mask id="G"><g filter="url(#b)"><path fill-opacity=".9" d="M0 0h250v250H0z"/></g></mask><linearGradient xlink:href="#a" id="H" x1="-2.246" x2="3.514" y1="-.624" y2="2.259" gradientTransform="matrix(49.20313 0 0 60.125 94.11 50.91)" gradientUnits="userSpaceOnUse"/><clipPath id="F"><path d="M0 0h250v250H0z"/></clipPath><mask id="J"><g filter="url(#b)"><path fill-opacity=".8" d="M0 0h250v250H0z"/></g></mask><linearGradient xlink:href="#a" id="K" x1="-1.668" x2="4.083" y1="-.837" y2="2.046" gradientTransform="matrix(49.28125 0 0 60.1211 101.832 .148)" gradientUnits="userSpaceOnUse"/><clipPath id="I"><path d="M0 0h250v250H0z"/></clipPath><mask id="M"><g filter="url(#b)"><path fill-opacity=".7" d="M0 0h250v250H0z"/></g></mask><linearGradient xlink:href="#a" id="N" x1="-.991" x2="4.76" y1="-.498" y2="2.385" gradientTransform="matrix(49.28516 0 0 60.1211 44.824 25.7)" gradientUnits="userSpaceOnUse"/><clipPath id="L"><path d="M0 0h250v250H0z"/></clipPath><mask id="P"><g filter="url(#b)"><path fill-opacity=".6" d="M0 0h250v250H0z"/></g></mask><linearGradient xlink:href="#a" id="Q" x1="-2.053" x2="3.698" y1="-1.03" y2="1.853" gradientTransform="matrix(49.28125 0 0 60.1211 94.11 55.465)" gradientUnits="userSpaceOnUse"/><clipPath id="O"><path d="M0 0h250v250H0z"/></clipPath><linearGradient xlink:href="#a" id="R" x1="-1.242" x2="4.508" y1="-.624" y2="2.259" gradientTransform="matrix(49.28125 0 0 60.1211 36.387 80.594)" gradientUnits="userSpaceOnUse"/><mask id="T"><g filter="url(#b)"><path fill-opacity=".6" d="M0 0h250v250H0z"/></g></mask><linearGradient xlink:href="#a" id="U" x1="-2.734" x2="3.026" y1="-1.368" y2="1.514" gradientTransform="matrix(49.20313 0 0 60.1211 101.91 120.395)" gradientUnits="userSpaceOnUse"/><clipPath id="S"><path d="M0 0h250v250H0z"/></clipPath><mask id="W"><g filter="url(#b)"><path fill-opacity=".65" d="M0 0h250v250H0z"/></g></mask><linearGradient xlink:href="#a" id="X" x1="-1.022" x2="4.728" y1="-.514" y2="2.369" gradientTransform="matrix(49.28516 0 0 60.125 .078 134.39)" gradientUnits="userSpaceOnUse"/><clipPath id="V"><path d="M0 0h250v250H0z"/></clipPath><linearGradient xlink:href="#a" id="Y" x1="-3.667" x2="2.084" y1="-1.838" y2="1.044" gradientTransform="matrix(49.28125 0 0 60.125 200.398 60.27)" gradientUnits="userSpaceOnUse"/><mask id="aa"><g filter="url(#b)"><path fill-opacity=".95" d="M0 0h250v250H0z"/></g></mask><linearGradient xlink:href="#a" id="ab" x1="-3.198" x2="2.553" y1="-1.604" y2="1.278" gradientTransform="matrix(49.28516 0 0 60.1211 151.113 90.375)" gradientUnits="userSpaceOnUse"/><clipPath id="Z"><path d="M0 0h250v250H0z"/></clipPath><mask id="ad"><g filter="url(#b)"><path fill-opacity=".9" d="M0 0h250v250H0z"/></g></mask><linearGradient xlink:href="#a" id="ae" x1="-4.195" x2="1.555" y1="-2.104" y2=".779" gradientTransform="matrix(49.28125 0 0 60.1211 200.398 120.395)" gradientUnits="userSpaceOnUse"/><clipPath id="ac"><path d="M0 0h250v250H0z"/></clipPath><mask id="ag"><g filter="url(#b)"><path fill-opacity=".7" d="M0 0h250v250H0z"/></g></mask><linearGradient xlink:href="#a" id="ah" x1="-3.728" x2="2.023" y1="-1.87" y2="1.013" gradientTransform="matrix(49.28516 0 0 60.125 151.113 150.496)" gradientUnits="userSpaceOnUse"/><clipPath id="af"><path d="M0 0h250v250H0z"/></clipPath><mask id="aj"><g filter="url(#b)"><path fill-opacity=".4" d="M0 0h250v250H0z"/></g></mask><linearGradient xlink:href="#a" id="ak" x1="-2.986" x2="2.765" y1="-1.497" y2="1.386" gradientTransform="matrix(49.28516 0 0 60.1211 90.922 175.543)" gradientUnits="userSpaceOnUse"/><clipPath id="ai"><path d="M0 0h250v250H0z"/></clipPath><linearGradient xlink:href="#a" id="al" x1="-2.665" x2="3.086" y1="-1.337" y2="1.545" gradientTransform="matrix(49.28516 0 0 60.125 151.113 30.25)" gradientUnits="userSpaceOnUse"/><path fill="url(#c)" d="M151.113.148V60.27l49.285-30.02zm0 0"/><g clip-path="url(#d)" mask="url(#e)"><path fill="url(#f)" d="M200.398 30.25v60.125L249.68 60.27zm0 0"/></g><g clip-path="url(#g)" mask="url(#h)"><path fill="url(#i)" d="M151.113 60.27v60.125l49.285-30.02zm0 0"/></g><g clip-path="url(#j)" mask="url(#k)"><path fill="url(#l)" d="M200.398 90.375v60.121l49.282-30.101zm0 0"/></g><g clip-path="url(#m)" mask="url(#n)"><path fill="url(#o)" d="M151.113 120.395v60.12l49.285-30.019zm0 0"/></g><path fill="url(#p)" d="M200.398 150.496v60.125l49.282-30.105zm0 0"/><g clip-path="url(#q)" mask="url(#r)"><path fill="url(#s)" d="M23.727 58.246v60.125l49.28-30.105zm0 0"/></g><g clip-path="url(#t)" mask="url(#u)"><path fill="url(#v)" d="M85.906 80.594v60.12l49.207-30.1zm0 0"/></g><g clip-path="url(#w)" mask="url(#x)"><path fill="url(#y)" d="M49.363 118.625v60.121l49.285-30.105zm0 0"/></g><g clip-path="url(#z)" mask="url(#A)"><path fill="url(#B)" d="M81.848 163.988v60.125l49.203-30.105zm0 0"/></g><g clip-path="url(#C)" mask="url(#D)"><path fill="url(#E)" d="M150.715 189.875V250l49.207-30.105zm0 0"/></g><g clip-path="url(#F)" mask="url(#G)"><path fill="url(#H)" d="M94.11 50.91v60.125l49.203-30.02zm0 0"/></g><g clip-path="url(#I)" mask="url(#J)"><path fill="url(#K)" d="M151.113.148V60.27l-49.281-30.02zm0 0"/></g><g clip-path="url(#L)" mask="url(#M)"><path fill="url(#N)" d="M94.11 25.7v60.12L44.823 55.72zm0 0"/></g><g clip-path="url(#O)" mask="url(#P)"><path fill="url(#Q)" d="M143.39 55.465v60.12l-49.28-30.1zm0 0"/></g><path fill="url(#R)" d="M85.668 80.594v60.12l-49.281-30.1zm0 0"/><g clip-path="url(#S)" mask="url(#T)"><path fill="url(#U)" d="M151.113 120.395v60.12l-49.203-30.019zm0 0"/></g><g clip-path="url(#V)" mask="url(#W)"><path fill="url(#X)" d="M49.363 134.39v60.126L.078 164.41zm0 0"/></g><path fill="url(#Y)" d="M249.68 60.27v60.125l-49.282-30.02zm0 0"/><g clip-path="url(#Z)" mask="url(#aa)"><path fill="url(#ab)" d="M200.398 90.375v60.121l-49.285-30.101zm0 0"/></g><g clip-path="url(#ac)" mask="url(#ad)"><path fill="url(#ae)" d="M249.68 120.395v60.12l-49.282-30.019zm0 0"/></g><g clip-path="url(#af)" mask="url(#ag)"><path fill="url(#ah)" d="M200.398 150.496v60.125l-49.285-30.105zm0 0"/></g><g clip-path="url(#ai)" mask="url(#aj)"><path fill="url(#ak)" d="M140.207 175.543v60.121l-49.285-30.02zm0 0"/></g><path fill="url(#al)" d="M200.398 30.25v60.125L151.113 60.27zm0 0"/></svg>