<svg xmlns="http://www.w3.org/2000/svg" width="250" height="250"><linearGradient id="a" x1="24.813" x2="73.708" y1="179.37" y2="94.681" gradientUnits="userSpaceOnUse"><stop offset="0" stop-color="#7bd8d7"/><stop offset="1" stop-color="#375fa2"/></linearGradient><linearGradient id="b" x1="89.251" x2="145.347" y1="16.787" y2="113.948" gradientUnits="userSpaceOnUse"><stop offset="0" stop-color="#8bf6de"/><stop offset="1" stop-color="#5393fb"/></linearGradient><linearGradient id="c" x1="250.788" x2="49.101" y1="91.144" y2="232.366" gradientUnits="userSpaceOnUse"><stop offset="0" stop-color="#8dfbc6"/><stop offset="1" stop-color="#5393fb"/></linearGradient><path fill="url(#a)" d="M13.332 78.27c6.441-6.856 16.95-8.649 25.422-3.754l87.434 50.468-87.399 50.5c-8.473 4.895-19.016 3.102-25.422-3.754-.035-.101.035-99.593-.035-93.46zm0 0"/><path fill="url(#b)" d="M221.234 52.434c2.344 8.816-1.273 18.464-9.578 23.218l-85.433 49.332-87.434-50.468c-8.473-4.895-19.016-3.102-25.422 3.754a31.057 31.057 0 0 1 15.5-26.594l80.2-46.336a31.028 31.028 0 0 1 31.038 0zm0 0"/><path fill="url(#c)" d="M38.79 175.484 211.69 75.652c8.27-4.789 11.508-14.402 9.164-23.218 9.06 5.648 14.09 15.605 14.09 26.351v92.672c0 11.09-5.41 21.356-15.02 26.902l-79.991 46.301a30.832 30.832 0 0 1-30.934 0l-80.2-46.336a31.07 31.07 0 0 1-15.503-26.594c6.441 6.856 16.984 8.649 25.492 3.754zm0 0"/></svg>