<svg xmlns="http://www.w3.org/2000/svg" width="250" height="250"><linearGradient id="a" x1="-46.875" x2="250.017" y1="-39.063" y2="249.981" gradientUnits="userSpaceOnUse"><stop offset="0" stop-color="#7b8e56"/><stop offset="1" stop-color="#bcc7a4"/></linearGradient><path fill="url(#a)" d="M0 0h250v250H0z"/><g fill="#fff"><path d="M97.625 136.016c5.125 0 9.285-13.07 9.285-29.192 0-16.125-4.16-29.191-9.285-29.191-5.129 0-9.29 13.066-9.29 29.191 0 16.121 4.161 29.192 9.29 29.192zM152.367 136.016c5.13 0 9.285-13.07 9.285-29.192 0-16.125-4.156-29.191-9.285-29.191-5.129 0-9.285 13.066-9.285 29.191 0 16.121 4.156 29.192 9.285 29.192zM124.996 105.262c5.129 0 9.285-13.07 9.285-29.196 0-16.12-4.156-29.191-9.285-29.191s-9.289 13.07-9.289 29.191c0 16.125 4.16 29.196 9.29 29.196zM196.055 158.445c-2.66 1.344-6.297 1.97-10.035 1.97-.614 0-1.227-.02-1.84-.052-.98 12.672-8.836 25.375-20.325 32.692-8.917 5.87-20.417 9.226-34.152 9.968-1.652.067-3.273.102-4.867.102-15.953 0-29.195-3.379-39.426-10.07-11.476-7.309-19.324-20-20.308-32.664-.403.015-.805.023-1.207.023-3.739 0-7.375-.625-10.036-1.969a2.046 2.046 0 0 1-.906-2.75 2.049 2.049 0 0 1 2.746-.902c5.711 2.883 17.473 1.336 20.547-1.813a2.038 2.038 0 0 1 2.887-.039c.812.79.828 2.082.039 2.895-2.234 2.289-6.613 3.8-11.324 4.348 4.691 17.097 18.879 29.406 38.27 33.074 18.155 3.39 36.425 1.898 50.112-4.09 12.497-5.395 21.833-16.188 25.239-29.059-4.485-.605-8.59-2.082-10.727-4.273a2.043 2.043 0 1 1 2.926-2.855c3.074 3.148 14.832 4.695 20.547 1.812a2.044 2.044 0 0 1 1.84 3.652zm0 0"/></g></svg>