<svg xmlns="http://www.w3.org/2000/svg" width="250" height="250"><linearGradient id="a" x1="66.892" x2="183.108" y1="24.353" y2="225.647" gradientUnits="userSpaceOnUse"><stop offset="0" stop-color="#0095d7"/><stop offset="1" stop-color="#0072aa"/></linearGradient><path fill="#fff" d="M250 125c0 69.035-55.965 125-125 125S0 194.035 0 125 55.965 0 125 0s125 55.965 125 125zm0 0"/><path fill="url(#a)" d="M241.2 125c0 64.176-52.024 116.2-116.2 116.2S8.8 189.175 8.8 125 60.825 8.8 125 8.8 241.2 60.825 241.2 125zm0 0"/><g fill="#fff" stroke="#fff" stroke-linejoin="round" stroke-width="3"><path stroke-width="1.4706000000000001" d="M73.984 163.945V86.141H89.13v36.98l32.703-37.09H138.5l-29.84 34.559 31.719 43.347h-17.012l-24.25-33.683-9.988 10.433v23.262zM180.215 119.172c-4.125 0-8.203.879-11.961 2.578a15.096 15.096 0 0 0-7.574 7.41v34.805h-14.703V106.44h13.5v12.293a26.169 26.169 0 0 1 3.617-5.324 28.123 28.123 0 0 1 4.5-4.117 20.993 20.993 0 0 1 4.902-2.684c1.52-.597 3.14-.914 4.774-.933h1.812c.387 0 .773.035 1.152.11zm0 0"/></g></svg>