<svg xmlns="http://www.w3.org/2000/svg" width="250" height="250"><linearGradient id="a" x1="263.241" x2="0" y1="98.524" y2="151.47" gradientUnits="userSpaceOnUse"><stop offset="0" stop-color="#f40083"/><stop offset="1" stop-color="#fc7a23"/></linearGradient><path fill="url(#a)" fill-rule="evenodd" d="M2.324 149.473c9.426 49.726 48.477 88.777 98.203 98.203 88.067 16.695 163.844-59.082 147.149-147.149-9.426-49.722-48.473-88.77-98.196-98.203C141.191.754 133.004 0 125 0 47.96-.004-12.8 69.691 2.324 149.473m85.742-44.168V89.98a3.7 3.7 0 0 1 3.704-3.699h25.503V63.527a4.223 4.223 0 0 1 4.223-4.222h12.875c2.309 0 4.2 1.89 4.2 4.203V86.28h25.394a4.03 4.03 0 0 1 4.015 4.016v14.668a4.044 4.044 0 0 1-4.03 4.031h-25.38v18.664h25.485a3.933 3.933 0 0 1 3.925 3.922v14.797a3.995 3.995 0 0 1-3.992 3.996h-25.386c0 26.273-20.922 48.086-46.93 49.758a3.38 3.38 0 0 1-3.606-3.367v-13.688c0-2.2 1.649-4.035 3.832-4.312 14.09-1.774 25.336-13.2 25.336-28.391H91.738a3.673 3.673 0 0 1-3.672-3.676v-15.36a3.682 3.682 0 0 1 3.684-3.679h25.523v-18.664H91.758a3.691 3.691 0 0 1-3.692-3.691"/></svg>