<svg xmlns="http://www.w3.org/2000/svg" width="250" height="250"><g fill="#1cc674"><path d="M65.352 202.742c3.097-15.043 6.796-29.918 10.898-44.683 2-7.407 4.2-14.704 6.352-22.059 2.148-7.352 4.546-14.59 6.949-21.832a761.987 761.987 0 0 1 7.5-21.55c2.597-7.126 5.25-14.25 8.05-21.321C110.649 57.21 126.149 13.66 132.7.086c-3.398 4.355-6.8 8.71-10.05 13.176-.5.68 4.5-9.446 4-8.766C85.75 60.152 41.8 164.453 21.648 233.23c13.55-1.98 27.05-3.902 40.55-6.109 6.75-1.133 13.5-2.148 20.2-3.394 6.703-1.243 13.453-2.317 20.152-3.618 6.699-1.304 13.449-2.547 20.148-3.906 6.7-1.355 13.403-2.77 20.102-4.129 13.398-2.828 26.75-8.258 40.199-11.14"/><path d="M128.3 82.61c9.95 10.574 19.5 21.66 28.75 32.972 4.65 5.656 9.15 11.426 13.7 17.25 4.55 5.828 8.898 11.766 13.25 17.707 4.352 5.938 8.602 12.047 12.75 18.156 4.148 6.106 8.3 12.274 12.25 18.551 8 12.5 33.602 49.434 40.75 62.668a564.037 564.037 0 0 0-5.05-16.457c-.25-.848 5 9.106 4.698 8.258-22.148-67.875-80-163.067-122.648-217.195-5.25 14.253-10.5 28.449-15.602 42.761-2.546 7.18-5.097 14.309-7.546 21.492-2.454 7.184-4.954 14.368-7.301 21.551-2.352 7.18-4.75 14.422-7.102 21.66-2.347 7.243-4.597 14.54-6.898 21.778-4.551 14.535-7.051 30.37-11.551 44.965"/><path d="M188.602 204.61c-13.102 4.468-26.301 8.316-39.653 11.706-6.648 1.754-13.347 3.282-20.05 4.809-6.7 1.527-13.45 2.828-20.149 4.129-6.7 1.3-13.5 2.375-20.3 3.45-6.802 1.077-13.552 1.98-20.348 2.773-13.602 1.468-54.653 8.09-68.352 8.484 5.05 1.187 10.102 2.262 15.148 3.281.75.168-9.449.34-8.699.453 63.051 12.215 164.852 3.11 227.602-11.539-8.301-12.273-16.551-24.547-24.95-36.71-4.25-6.051-8.402-12.102-12.703-18.098-4.296-5.996-8.5-11.993-12.847-17.93-4.352-5.941-8.653-11.879-13.051-17.762s-8.8-11.765-13.25-17.644c-8.852-11.711-19.7-22.117-28.648-33.77"/></g></svg>