<svg xmlns="http://www.w3.org/2000/svg" width="250" height="250"><path fill="#0a0806" d="M250 125c0 69.035-55.965 125-125 125S0 194.035 0 125 55.965 0 125 0s125 55.965 125 125zm0 0"/><path fill="#48dbb4" d="m169.602 96.777-23.809 28.102 23.637 27.754h7.41v22.265h-49.918v-22.265h7.793l-15.399-18.188h-7.05v18.188h8.906v22.265h-48.8v-22.265h10.573V96.777H72.371V74.512h12.246v8.347h6.492v-8.347h11.508v8.347h6.492v-8.347h12.063v22.265h-8.906v18.188h6.304l16.258-18.188h-7.906V74.512h49.918v22.265zm0 0"/></svg>