<svg xmlns="http://www.w3.org/2000/svg" xmlns:xlink="http://www.w3.org/1999/xlink" width="250" height="250"><linearGradient id="a"><stop offset="0" stop-color="#08bccd"/><stop offset="1" stop-color="#2da1f8"/></linearGradient><linearGradient xlink:href="#a" id="b" x1=".5" x2=".5" y1=".978" y2=".016" gradientTransform="matrix(31.83203 0 0 32.10156 104.422 157.59)" gradientUnits="userSpaceOnUse"/><linearGradient xlink:href="#a" id="c" x1=".5" x2=".438" y1=".978" y2="-.164" gradientTransform="matrix(217.03906 0 0 248.05469 17.605 0)" gradientUnits="userSpaceOnUse"/><path fill="url(#b)" fill-rule="evenodd" d="M136.254 173.64c0 8.864-7.129 16.051-15.918 16.051-8.79 0-15.914-7.187-15.914-16.05 0-8.868 7.125-16.051 15.914-16.051s15.918 7.183 15.918 16.05zm0 0"/><path fill="url(#c)" d="M234.645 62.016 126.125 0 17.605 62.016v124.027l108.52 62.012 108.52-62.012zm-73.86-8.399c-.004 3.918-3.16 7.094-7.066 7.113h-26.285v15.32h19.39a7.078 7.078 0 0 1 5.004 2.09 7.106 7.106 0 0 1 2.063 5.024c.004 3.918-3.157 7.102-7.067 7.11h-19.39v54.535c.011.25.011.504 0 .754 13.714 3.632 22.632 16.93 20.863 31.09-1.774 14.156-13.692 24.808-27.871 24.902-14.184.097-26.242-10.39-28.203-24.528-1.961-14.132 6.777-27.543 20.445-31.363a8.5 8.5 0 0 1-.055-.828V53.988c-.004-1.976.774-3.87 2.164-5.27s3.282-2.187 5.25-2.19a7.32 7.32 0 0 1 1.84.242 6.9 6.9 0 0 1 1.785-.243h30.09c3.906.02 7.063 3.2 7.067 7.114l-.024-.02zm0 0"/></svg>