<svg xmlns="http://www.w3.org/2000/svg" width="250" height="250"><path d="M20.148 58.613 15 72.07v27.66c0 15.102.148 27.512.352 27.512.199 0 2.597-6.578 5.25-14.504L25.5 98.086v20.633c0 11.215.148 20.484.352 20.484.199 0 .898-1.492 1.546-3.437l1.204-3.29 7.449 22.727 7.398 22.879H58.25l-15-44.86h-7.102c-3.949 0-7.148-.449-7.148-1.195 0-.597 3.148-10.464 7-21.98l7-20.934V44.258L26 95.094V69.977c0-13.758-.148-24.97-.352-24.82-.25 0-2.699 6.128-5.5 13.456zM69.148 103.02c-2.449 2.84-2.597 3.44-1 5.53 1.102 1.497 1.102 1.946 1.25 32.45.102 30.203.102 30.95-1 33.941l-1.097 3.141 4-.152c3.398 0 3.75-.297 2.699-1.793-1.7-2.395-2-3.887-2-11.215 0-4.035.2-6.281.648-6.281.301 0 1.801 4.336 3.301 9.718l2.7 9.723h2.703c2.847 0 3.25-1.945.699-3.441-1.051-.598-2.301-4.036-4.301-11.364-1.55-5.832-2.7-11.062-2.55-11.812.6-2.988 5.698-13.754 6.448-13.754.5 0 .852-.75.852-1.496 0-.899-1.45-1.496-3.352-1.496-3.148.148-3.347.3-2.398 2.39.95 2.246.898 2.543-1.75 9.871l-2.75 7.625-.148-27.062c-.051-14.953-.301-27.066-.5-27.066-.204.152-1.301 1.347-2.454 2.543zM128.3 108.105c-.448 4.336-.698 13.157-.402 13.157.204 0 .75-2.094 1.204-4.485.796-4.336 1-4.488 4.398-4.488h3.5v61.156l-1.352 2.243c-1.347 2.093-1.148 2.242 3.102 2.394h4.5l-1.602-2.992-1.648-2.992v-59.809h4c3.852 0 4.05.152 4.5 3.738.7 5.535 1 4.637 1-2.988v-6.73H139c-8 0-10.602.449-10.7 1.796zM211.352 134.719c-.954 3.289-2.352 3.886-3.25 1.195-.301-.894-1.704-1.793-3.153-1.793-2.25-.148-2.699.45-4 4.785-1.8 5.98-2.05 16.149-.5 20.485 1 2.543 1 2.543-.097 6.879-.903 3.738-1 5.082-.5 8.82.5 3.887.449 4.785-.403 5.98-.648 1.196-.949 3.14-.949 6.73 0 4.184.3 5.532 1.45 7.325 2.5 3.887 5.35 4.484 7.8 1.645 5.352-5.98 5-21.68-.5-21.68-2.05 0-5.602-2.094-6.102-3.438-.148-.449-.097-2.246.102-3.89.25-2.692.75-3.137 2.8-3.137 4.302 0 6.45-5.234 6.45-15.402 0-3.141.3-5.532.7-5.98.652-.75 1.652-9.571 1.198-10.766-.097-.45-.597.597-1.046 2.242zm-4.852 2.992c1.5 2.39 2.2 12.258 1.3 18.39-.75 5.532-1.948 7.325-3.652 5.383-1.449-1.644-2.296-6.578-2.296-13.609 0-9.418 2.199-14.055 4.648-10.164zm1.398 44.258c3.954 2.39 1.352 14.054-3.097 14.054-2.602 0-4.25-2.394-4.602-6.73-.5-5.828.551-8.223 3.551-8.223 1.45 0 3.3.45 4.148.899zM93.5 135.914c-2.05 3.441-4 13.61-4 21.082 0 7.328 1.398 15.102 3.5 19.29 2.3 4.636 5.25 3.886 7.852-2.095 1.898-4.336 1.5-7.027-.454-2.988-2.699 5.68-6.75.297-7.898-10.469-1-8.82-.602-9.718 4.352-9.566 2.449.148 4.648.148 5 .148.949-.148-.153-8.074-1.801-12.71-1.852-5.383-4.301-6.278-6.551-2.692zm4.55 4.785c.848 2.395 1.4 5.086 1.2 5.98-.148.75-1.852 1.497-3.75 1.497H92l.55-4.188c1.098-8.672 3.25-10.015 5.5-3.289zM156.2 135.617c-2.052 2.988-3.098 8.524-2.2 11.813 1.102 4.035 2 2.691 2-2.993 0-4.187.25-5.53 1.102-6.578 2.449-2.691 4.597 3.29 4.296 11.961-.148 4.637-.296 4.934-2.796 6.578-3.102 2.094-5.102 7.18-5.102 12.563 0 4.781.398 6.578 1.852 8.969 1.546 2.394 2.648 2.093 4.699-1.196 1.648-2.691 1.898-2.691 2.597-.597.903 2.691 3.153 3.14 4 .597.403-1.195.301-1.644-.449-1.644-1.847 0-2.199-2.992-2.199-18.692-.05-16.148-.398-18.988-2.7-21.68-1.85-2.093-3.25-1.792-5.1.9zm5.3 28.11c0 8.074-1 11.664-3.148 11.062-3-.894-3.153-10.914-.25-15.101 2.796-4.184 3.398-3.438 3.398 4.039zM175.5 136.066c-2 2.54-2.102 2.84-1 3.29 1.25.597 1.25.746 1.398 16.894.102 13.605 0 16.746-.699 18.988-.847 2.692-.75 2.844 2.801 2.844 3.7 0 3.95-.602 1.898-3.59-1.046-1.644-1.148-2.84-1.296-14.953-.153-11.96-.051-13.605.949-16.746 1.597-5.082 4.5-4.934 5.898.3.903 3.438 1.051 6.13 1.051 17.493 0 11.066-.148 13.758-.852 15.402-.796 1.793-.398 1.942 2.75 2.094 2.301 0 3.551-.602 3.352-1.496-.148-.899-.7-1.496-1.25-1.496-1.25 0-1.5-2.84-1.5-16.598 0-14.351-.8-20.035-3.352-23.324-2-2.395-3.648-1.645-5.75 2.691l-1.398 2.989v-3.739c0-4.484-.05-4.632-3-1.043zM224.352 135.316c-3.551 3.887-4.852 9.868-4.852 22.727 0 7.777.148 8.824 1.898 14.055 4.551 13.609 12.301 6.73 13.352-11.813.5-9.27-1.3-19.285-4.25-23.773-2.55-3.739-3.5-3.887-6.148-1.196zm4.949 3.141c1.648 3.29 2.699 11.512 2.699 20.934 0 7.324-.2 8.968-1.45 12.859-1.85 5.531-3.948 5.68-6 .598-3-7.625-3.448-26.465-.85-33.196 1.55-4.035 4.05-4.484 5.6-1.195zM108 135.617c0 .45.45 1.942.95 3.29 1.05 2.84 6.05 37.378 6.05 42.015 0 1.496-.55 5.234-1.25 8.223-.7 3.14-1.352 6.28-1.398 7.175-.153 2.246 1.5 2.692 2.046.75.25-1.047 1.852-13.906 3.602-28.71 1.75-14.801 3.602-28.407 4.148-30.352l1-3.29h-2.796c-2.801 0-3.801 1.946-1.852 3.438.602.45 1 2.094 1 4.04 0 4.034-2.5 25.417-2.95 25.417-.55 0-4.1-26.914-3.8-28.558.2-.746.648-1.344 1.05-1.344.4 0 .7-.75.7-1.496 0-.899-1.398-1.496-3.25-1.496-1.8 0-3.25.449-3.25.898zm0 0"/><path d="m20.352 156.848-5.352 16v16.148c0 9.27.2 15.996.45 15.7.25-.301 2.75-6.13 5.5-13.16L26 178.827v-19.14c0-10.465-.05-18.989-.148-18.989-.051 0-2.551 7.176-5.5 16.149zm0 0"/></svg>