<?xml version="1.0" encoding="utf-8"?>
<!-- Generator: Adobe Illustrator 23.0.3, SVG Export Plug-In . SVG Version: 6.00 Build 0)  -->
<svg version="1.1" id="Layer_1" xmlns="http://www.w3.org/2000/svg" xmlns:xlink="http://www.w3.org/1999/xlink" x="0px" y="0px"
	 viewBox="0 0 595.28 595.28" style="enable-background:new 0 0 595.28 595.28;" xml:space="preserve">
<style type="text/css">
	.st0{fill:#B69E54;}
	.st1{fill:#A69257;}
	.st2{fill:#A59255;}
	.st3{fill:#A18F55;}
	.st4{fill:#A18F53;}
	.st5{fill:#221D0B;}
	.st6{fill:#CBCBCB;}
	.st7{fill:#A2A2A2;}
	.st8{fill:#211C09;}
	.st9{fill:#504C3F;}
	.st10{fill:#736435;}
	.st11{fill:#D4D4D5;}
	.st12{fill:#4E4E4E;}
</style>
<path class="st0" d="M68.46,289.77c0.17-3.43,0.28-6.85,0.58-10.27c0.23-2.7,0.5-5.39,0.77-8.09c0.43-4.27,1.04-8.52,1.76-12.75
	c1.54-9,3.58-17.89,6.19-26.65c7.89-26.41,20.09-50.65,36.65-72.69c6.86-9.12,14.33-17.72,22.48-25.7
	c25.79-25.26,55.78-43.63,90.11-54.9c10.2-3.35,20.59-5.92,31.15-7.8c5.48-0.97,10.99-1.71,16.53-2.26
	c5.08-0.51,10.17-0.84,15.27-1.07c2.39,0.04,4.77,0.12,7.16-0.04c0.81,0,1.62,0,2.43,0c2.39,0.17,4.77,0.08,7.16,0.05
	c4.22,0.22,8.44,0.4,12.64,0.82c3.6,0.36,7.2,0.76,10.78,1.23c5.32,0.7,10.59,1.62,15.83,2.73c14.13,3,27.87,7.27,41.2,12.86
	c17.92,7.52,34.61,17.16,50.09,28.9c8.87,6.73,17.23,14.03,25.01,21.98c21.29,21.75,37.78,46.67,49.25,74.9
	c5.26,12.95,9.27,26.26,12.12,39.93c1.14,5.48,2.04,11,2.73,16.56c0.82,6.53,1.51,13.06,1.66,19.63c0.02,0.8,0.3,1.58,0.16,2.38
	c-0.07,1.59-0.13,3.18,0.03,4.77c0,2.09,0,4.18,0,6.27c-0.16,1.59-0.1,3.18-0.03,4.77c-0.18,3.34-0.27,6.69-0.57,10.03
	c-0.24,2.7-0.5,5.39-0.77,8.09c-0.43,4.27-1.04,8.52-1.76,12.75c-1.54,8.96-3.58,17.81-6.17,26.53
	c-7.96,26.82-20.42,51.37-37.32,73.67c-7.99,10.54-16.82,20.32-26.5,29.33c-20.01,18.6-42.59,33.24-67.78,43.85
	c-12.99,5.47-26.39,9.68-40.16,12.66c-5.66,1.23-11.37,2.22-17.12,2.99c-7.11,0.95-14.24,1.71-21.41,1.9
	c-0.8,0.02-1.58,0.3-2.38,0.16c-2.15-0.08-4.3-0.13-6.45,0.03c-0.97,0-1.94,0-2.91,0c-2.15-0.16-4.3-0.1-6.45-0.03
	c-3.38-0.2-6.77-0.28-10.15-0.59c-2.66-0.24-5.31-0.5-7.97-0.76c-4.27-0.42-8.52-1.03-12.75-1.76c-8.96-1.54-17.81-3.58-26.53-6.17
	c-26.86-7.98-51.44-20.46-73.76-37.4c-10.57-8.02-20.39-16.87-29.4-26.6c-21.99-23.76-38.39-50.91-49-81.53
	c-3.95-11.39-6.93-23.02-9.05-34.88c-0.85-4.73-1.51-9.49-2.01-14.28c-0.54-5.2-1.08-10.39-1.18-15.61
	c-0.02-0.88-0.31-1.74-0.16-2.62c0.09-1.51,0.13-3.02-0.02-4.53c0-2.09,0-4.18,0-6.27C68.59,292.79,68.55,291.28,68.46,289.77z"/>
<path class="st1" d="M297.1,67.56c-1.15,0.42-2.34,0.17-3.51,0.18c-1.21,0.01-2.44,0.2-3.65-0.14
	C292.33,67.44,294.72,67.51,297.1,67.56z"/>
<path class="st1" d="M306.69,67.6c-2.39,0.23-4.77,0.31-7.16-0.05C301.92,67.51,304.31,67.44,306.69,67.6z"/>
<path class="st2" d="M290.42,527.29c2.15-0.27,4.3-0.32,6.45,0.03C294.72,527.31,292.57,527.3,290.42,527.29z"/>
<path class="st2" d="M299.77,527.32c2.15-0.35,4.3-0.3,6.45-0.03C304.07,527.3,301.92,527.31,299.77,527.32z"/>
<path class="st3" d="M528.2,294.3c-0.34-1.59-0.3-3.18-0.03-4.77C528.18,291.12,528.19,292.71,528.2,294.3z"/>
<path class="st3" d="M528.17,305.34c-0.27-1.59-0.31-3.18,0.03-4.77C528.19,302.16,528.18,303.75,528.17,305.34z"/>
<path class="st4" d="M68.46,289.77c0.28,1.51,0.32,3.02-0.02,4.53C68.45,292.79,68.45,291.28,68.46,289.77z"/>
<path class="st4" d="M68.44,300.57c0.35,1.51,0.3,3.02,0.02,4.53C68.45,303.59,68.45,302.08,68.44,300.57z"/>
<path class="st5" d="M516.24,297.45c0,120.49-97.59,217.98-218.23,217.9C177.78,515.26,80.28,417.6,80.39,297.18
	C80.5,176.87,178.15,79.43,298.63,79.52C418.8,79.6,516.24,177.19,516.24,297.45z"/>
<path class="st0" d="M317.1,230.69c-0.03-0.07-0.03-0.18-0.08-0.22c-1.59-1.09-1.14-2.26-0.4-3.72
	c6.78-13.46,13.48-26.96,20.2-40.45c2.51-5.04,5.01-10.09,7.49-15.14c0.28-0.58,0.54-0.93,1.31-0.93
	c26.59,0.03,53.19,0.02,79.78,0.02c0.12,0,0.24,0.02,0.5,0.05c-1.04,2.11-2.04,4.19-3.06,6.24c-6.58,13.2-13.18,26.39-19.76,39.6
	c-9.27,18.6-18.52,37.2-27.78,55.81c-1.3,2.61-2.6,5.22-3.85,7.85c-0.38,0.8-0.88,1.09-1.76,1.07c-2.28-0.05-4.56-0.01-6.84,0.02
	c-1.01,0.01-2.03-0.04-2.94-0.46c-1.16-0.54-1.5-0.01-1.84,0.99c-1.52,4.55-3.73,8.76-6.61,12.58
	c-6.78,8.97-15.58,14.91-26.59,17.44c-8.93,2.05-17.56,1.3-25.68-3.17c-6.04-3.33-10.55-8.24-13.91-14.21
	c-2.82-5-4.54-10.37-5.29-16.07c-0.12-0.93,0.09-1.16,1-1.22c5.75-0.41,11.26-1.82,16.57-4.05c0.29-0.12,0.54-0.31,0.81-0.47
	c0.26-0.52,0.8-0.61,1.27-0.83c7.08-3.31,13.26-7.8,18.03-14.07c2.2-2.89,3.88-6.06,4.56-9.66c0.98-5.21-0.12-9.98-3.23-14.29
	C318.35,232.52,317.48,231.77,317.1,230.69z"/>
<path class="st0" d="M276.19,276.82c0.39,1.23,0.28,2.42-0.18,3.63c-3.94,10.36-10.23,18.86-19.7,24.81
	c-6.42,4.03-13.42,6-21.01,5.32c-7.22-0.65-13.69-3.37-19.57-7.56c-7.77-5.55-13.44-12.82-17.37-21.47
	c-0.49-1.09-0.94-1.71-2.14-0.93c-0.16,0.1-0.38,0.16-0.57,0.16c-4.35,0.11-8.72,0.41-12.91-1.22c-0.77-0.3-1.23-0.6-0.64-1.53
	c0.65-1.04,0.78-2.24,0.78-3.46c-0.01-34.24-0.01-68.48,0-102.72c0-1.82-0.23-1.6,1.58-1.6c25.6,0,51.2,0,76.8,0
	c1.79,0,1.57-0.21,1.57,1.62c0.01,14.6-0.02,29.2,0.04,43.8c0,1.25-0.39,1.7-1.55,2c-2.97,0.78-5.91,1.68-8.63,3.17
	c-0.33,0.57-0.94,0.72-1.47,0.97c-3.45,1.63-6.72,3.55-9.61,6.04c-3.32,2.87-6.25,6.03-7.83,10.27c-1.76,4.71-1.3,9.28,0.72,13.73
	c2.45,5.4,6.4,9.59,11.02,13.2c2.88,2.24,5.97,4.15,9.24,5.75c0.4,0.19,0.76,0.44,1.12,0.68c0.84,0.6,1.79,0.94,2.76,1.23
	c0.11,0.04,0.22,0.08,0.33,0.13c2.08,0.86,4.17,1.69,6.42,1.97c3.28,0.75,6.58,1.36,9.94,1.63
	C275.66,276.5,275.98,276.54,276.19,276.82z"/>
<path class="st0" d="M434.77,424.88c-0.55,0-0.97,0-1.4,0c-29.11,0-58.23-0.01-87.34,0.03c-1.08,0-1.6-0.33-2.07-1.29
	c-7.17-14.47-14.39-28.91-21.59-43.36c-8.55-17.17-17.1-34.34-25.64-51.52c-0.68-1.36-1.31-2.74-2-4.09
	c-0.3-0.59-0.28-0.89,0.48-0.85c0.6,0.03,1.2-0.01,1.8-0.01c11.88-0.01,23.76,0,35.63-0.02c3.72-0.01,7.43-0.11,11.15-0.1
	c8.88,0.03,17.75,0.17,26.63,0.12c5.18-0.03,9.49,1.85,13.2,5.32c2.37,2.22,4.59,4.57,6.73,7c0.56,0.64,0.97,1.37,1.34,2.12
	c7.61,15.27,15.23,30.54,22.84,45.82c6.59,13.24,13.17,26.49,19.75,39.73C434.45,424.09,434.58,424.42,434.77,424.88z"/>
<path class="st0" d="M262.83,374.37c0,16.4-0.01,32.8,0.02,49.2c0,1.03-0.21,1.34-1.3,1.33c-25.8-0.03-51.6-0.03-77.4,0
	c-1.07,0-1.31-0.28-1.3-1.32c0.03-32.44,0.03-64.88-0.01-97.32c0-1.07,0.39-1.48,1.32-1.71c1.71-0.42,3.43-0.75,5.21-0.74
	c3,0.01,6-0.02,9-0.04c6.88-0.04,13.76-0.18,20.63-0.09c14.2,0.17,28.39,0.06,42.59,0.08c1.02,0,1.25,0.32,1.25,1.29
	C262.83,341.49,262.83,357.93,262.83,374.37z"/>
<path class="st6" d="M351.59,299.58c3.51-4.16,6.48-8.67,8.63-13.7c0.04-0.09,0.16-0.16,0.25-0.23c0.22,0.28,0.51,0.15,0.78,0.15
	c3.43,0,6.86,0,10.3,0c-3.55,0.01-7.09-0.01-10.64,0c-0.16,0-0.31-0.02-0.44-0.14c0.36-0.39,0.83-0.2,1.25-0.21
	c3.76-0.11,7.51,0.08,11.27-0.21c4.5-0.34,8.43-2.02,11.91-4.84c4.41-3.57,8.04-7.89,11.71-12.16c3.11-3.62,6.71-6.48,11.43-7.72
	c9.8-2.57,20.03,4.03,21.73,14.03c1.03,6.09-0.98,11.34-4.41,16.2c-1.5,2.12-3.06,4.19-4.38,6.44c-2.04,3.47-2.02,6.85,0.03,10.31
	c1.23,2.07,2.6,4.02,4.04,5.95c2.86,3.83,4.88,8.05,4.97,12.88c0.13,7.11-2.97,12.65-9.18,16.11c-6.2,3.46-12.43,2.9-18.42-0.81
	c-3.4-2.1-5.76-5.27-8.37-8.19c-1.57-1.76-3.15-3.51-4.79-5.21c-3.24-3.37-6.79-6.31-11.26-7.94c-1.56-0.76-3.28-0.94-4.96-1.1
	c-1.42-0.13-2.87-0.16-4.31-0.16c-59.45,0.01-118.91,0.01-178.36,0c-2.44,0-4.83,0.38-7.2,0.9c-0.27,0.06-0.54,0.15-0.74,0.37
	c-5.78,2.09-9.89,6.35-13.9,10.73c-1.89,2.06-3.67,4.23-5.55,6.3c-3.72,4.12-8.16,6.91-13.84,7.3
	c-11.38,0.78-20.61-9.72-18.45-20.92c0.73-3.77,2.34-7.11,4.61-10.17c1.65-2.21,3.26-4.44,4.54-6.9c1.5-2.89,1.52-5.71,0.02-8.6
	c-1.2-2.32-2.68-4.45-4.25-6.52c-2.38-3.13-4.21-6.52-4.88-10.43c-1.29-7.57,1.22-13.74,7.49-18.04c6.33-4.34,12.99-4.09,19.53-0.2
	c2.4,1.43,4.34,3.39,6.14,5.5c3.1,3.61,6.25,7.17,9.72,10.45c4.71,4.46,10.23,6.7,16.71,6.62c1.68-0.02,3.36,0.03,5.04,0.01
	c0.59-0.01,0.95,0.17,1.24,0.71c2.88,5.55,6.61,10.46,11.03,14.87c0.26,0.91-0.48,0.79-0.92,0.81c-1.36,0.04-2.71,0.21-4.06,0.23
	c-3.8,0.05-7.58,0.29-11.36,0.53c-4.99,0.31-9.65,1.71-14.03,4.11c-4.18,2.29-7.88,5.16-11.16,8.6c-1.25,1.31-2.26,2.79-3.4,4.18
	c-2.55,3.1-5.49,5.69-9.28,7.2c-1.13,0.45-2.3,0.71-3.49,0.82c-2.95,0.28-5.49-1.41-6.58-4.35c-0.13-0.36-0.09-0.81-0.57-1.11
	c-2.43,3.65-4.42,7.43-4.18,11.98c0.09,1.73,0.75,3.26,1.97,4.53c3.58,3.72,9.84,4.54,14.59,1.14c3.17-2.27,5.91-5.01,8.52-7.88
	c3.27-3.62,6.59-7.19,10.2-10.47c3.73-3.39,8.33-5.17,13.12-6.45c5.34-1.43,10.8-2.16,16.3-2.66c6.13-0.55,12.26-0.81,18.41-0.98
	c1.25-0.03,2.31,0.53,3.46,0.82c2.84,0.83,5.67,1.62,8.62,1.98c5.54,0.67,10.91,0.05,16.17-1.76c0.26-0.09,0.54-0.15,0.81-0.22
	c2.1-1.06,4.36-1.09,6.65-1.08c7.91,0.04,15.82,0.07,23.73,0c4.87-0.05,9.74,0.24,14.61,0.26c0.78,0,1.49,0.23,2.17,0.59
	c4.51,2.44,9.39,3.74,14.43,4.35c2.81,0.34,5.65,0.19,8.46-0.31c1.06-0.19,2.13-0.3,3.19-0.46c1.75-0.63,3.6-0.9,5.38-1.48
	c0.86-0.28,1.67-0.71,2.58-0.86c0.7-0.25,1.41-0.5,2.11-0.76c1.4-0.61,2.88-0.7,4.35-0.49c2.07,0.3,4.15,0.29,6.21,0.37
	c8.87,0.34,17.7,1.07,26.44,2.69c3.63,0.67,7.15,1.72,10.53,3.21c2.22,0.98,4.17,2.37,5.88,4.08c4.37,4.39,8.79,8.75,12.93,13.34
	c2.28,2.53,4.98,3.14,7.93,3.55c1.6,0.22,3.24,0.29,4.89,0.06c4.17-0.56,6.94-3.5,7.17-7.7c0.16-2.91-0.29-5.74-1.05-8.53
	c-0.28-1.03-0.36-1.06-1.08-0.31c-2.64,2.76-5.78,2.99-9.16,1.8c-3.4-1.21-6.31-3.26-8.97-5.66c-3.36-3.04-6.38-6.39-9.04-10.05
	c-1.15-1.58-2.88-2.26-4.62-2.86c-4.75-1.64-9.7-2.31-14.66-3c-4.36-0.6-8.74-0.89-13.11-1.33c-1.82-0.18-3.67-0.19-5.5-0.33
	c-0.28-0.02-0.56,0.01-0.84-0.01c-0.47-0.03-1.04,0.09-1.3-0.41C350.82,300.21,351.47,299.98,351.59,299.58z"/>
<path d="M276.19,276.82c-3.73-0.15-7.38-0.8-10.99-1.71c-2.2-0.6-4.38-1.25-6.48-2.16l0,0c-0.98-0.36-1.93-0.77-2.87-1.22
	c-5.09-2.48-9.84-5.46-13.97-9.37c-3.4-3.22-6.27-6.84-8.03-11.22c-2.85-7.11-1.5-13.57,3.33-19.34c4.19-5.01,9.54-8.43,15.5-10.95
	c1.33-0.01,2.39-0.83,3.59-1.23c1.96-0.66,3.97-1.18,5.91-1.88c6.14-2.19,12.51-2.59,18.92-2.34c3.65,0.14,7.26,0.83,10.81,1.71
	c5.33,1.31,10.41,3.28,15.23,5.91c2.6,1.42,5.01,3.1,7.29,4.98c0.98,0.81,1.46,2.11,2.66,2.7c5.71,5.44,7.37,13.79,4.2,21.06
	c-2.72,6.24-7.31,10.88-12.72,14.8c-3.17,2.3-6.54,4.29-10.21,5.7c-1.6,0.21-3,1.01-4.5,1.52c-3.86,1.31-7.78,2.21-11.85,2.58
	C280.07,276.53,278.15,276.87,276.19,276.82z"/>
<path class="st7" d="M351.59,299.58c-0.58,1.01-0.24,1.2,0.85,1.24c4.02,0.12,8.01,0.52,12.02,0.86c4.72,0.4,9.41,0.98,14.07,1.79
	c3.69,0.64,7.35,1.41,10.73,3.17c2.03,1.06,2.93,3.1,4.32,4.71c4.1,4.76,8.33,9.37,14.15,12.1c2.85,1.34,5.73,1.92,8.69,0.26
	c1.06-0.6,1.72-1.65,2.81-2.49c1.21,4.42,2.37,8.69,0.83,13.16c-1.08,3.13-3.52,4.55-6.58,5.02c-3.4,0.53-6.72-0.11-10-1.03
	c-0.85-0.24-1.55-0.67-2.06-1.36c-1.04-1.39-2.34-2.51-3.54-3.74c-2.92-3.01-5.98-5.9-8.75-9.04c-4.02-4.56-9.14-6.94-14.89-8.32
	c-4.34-1.04-8.73-1.71-13.16-2.18c-3.96-0.42-7.91-0.8-11.89-0.98c-3.18-0.15-6.37-0.31-9.55-0.49c-1.87-0.11-3.72-0.27-5.58,0.03
	c3.8-1.76,7.44-3.78,10.72-6.41c2.15-1.72,4.25-3.48,6.03-5.6C351.03,300.02,351.33,299.82,351.59,299.58z"/>
<path class="st7" d="M225.16,312.05c-2.56-0.8-5.21-0.55-7.8-0.4c-4.57,0.26-9.14,0.42-13.7,0.85c-5.63,0.54-11.22,1.25-16.69,2.71
	c-5.75,1.54-10.91,4.07-15.15,8.45c-4.17,4.3-8.07,8.86-12.44,12.97c-2.12,1.99-4.34,3.89-7.14,4.92
	c-5.31,1.95-12.87-0.84-13.88-6.69c-0.42-2.43,0.09-4.76,0.91-7.04c0.76-2.12,1.93-4.02,3.15-5.9c0.16-0.24,0.22-0.69,0.64-0.59
	c0.34,0.08,0.22,0.48,0.29,0.72c0.38,1.46,1.02,2.74,2.18,3.75c1.99,1.74,4.26,1.62,6.54,0.94c4.6-1.35,8.02-4.37,10.83-8.11
	c3.75-4.99,8.34-8.96,13.78-12.01c3.59-2.02,7.38-3.41,11.43-4.07c1.84-0.3,3.72-0.5,5.58-0.52c2.84-0.02,5.65-0.36,8.49-0.33
	c1.58,0.02,3.17-0.27,4.77-0.21c0.37,0.01,0.62-0.11,0.68-0.5c4.33,3.99,9.06,7.39,14.47,9.79
	C223.11,311.24,224.24,311.4,225.16,312.05z"/>
<path class="st7" d="M324.23,315.42c-1.22,0.64-2.62,0.7-3.91,0.82c-3.05,0.28-6.13,0.38-9.19-0.07c-4.76-0.7-9.32-2.07-13.57-4.36
	c-0.37-0.2-0.76-0.22-1.16-0.23c-6.34-0.13-12.69-0.26-19.03-0.23c-7.71,0.04-15.42,0.04-23.13-0.04c-1.26-0.01-2.27,0.69-3.47,0.73
	c1.05-0.75,2.34-0.97,3.47-1.54c5.67-2.83,10.64-6.56,14.74-11.41c0.23-0.27,0.52-0.48,0.78-0.71c-0.02,0.74,0.29,0.88,1.05,0.95
	c2.61,0.24,4.08-1.55,5.71-3c1.33-1.19,2.66-2.27,4.51-2.46c1.31,2.08,2.42,4.28,3.87,6.27c6.43,8.81,14.99,14.02,25.82,15.58
	c2.19,0.31,4.36,0.48,6.56,0.41c2-0.09,3.95-0.49,5.91-0.8C323.52,315.28,323.9,315.24,324.23,315.42z"/>
<path class="st8" d="M378.19,320.82c-0.91,0.29-1.55,0.04-2.11-0.18c-1.45-0.55-2.96-0.63-4.45-0.63
	c-60.94-0.02-121.89-0.02-182.83-0.02c-1.84,0-3.62,0.35-5.39,0.83c-0.34,0.09-0.67,0.22-1.07,0.02c0.64-0.54,1.41-0.61,2.14-0.68
	c1.89-0.16,3.73-0.68,5.66-0.67c60.1,0.03,120.21,0.03,180.31,0.03C373.04,319.52,375.54,319.98,378.19,320.82z"/>
<path class="st6" d="M182.42,320.29c0.07-0.25,0.22-0.45,0.47-0.49c2.34-0.43,4.67-0.99,7.06-0.99
	c60.01-0.01,120.02-0.02,180.03,0.01c2.5,0,4.97,0.43,7.42,0.95c0.31,0.07,0.5,0.23,0.59,0.52c-4.73-1.4-9.59-1.05-14.41-1.05
	c-29.63-0.02-59.26,0.03-88.89,0.02c-24.43,0-48.87-0.04-73.3-0.06c-3.8,0-7.6,0.06-11.4,0.06
	C187.41,319.25,184.9,319.66,182.42,320.29z"/>
<path class="st6" d="M281.03,293.88c-0.05,0.26-0.17,0.43-0.47,0.44c-1.38,0.05-2.34,0.91-3.31,1.76c-0.87,0.76-1.73,1.53-2.57,2.32
	c-1.58,1.49-3.51,1.22-5.42,1.18c-0.07-0.54,0.61-0.69,0.5-1.19c3-3.74,5.67-7.68,7.68-12.06c0.08-0.17,0.23-0.4,0.37-0.41
	c0.3-0.03,0.33,0.28,0.39,0.5C278.92,288.99,280.04,291.41,281.03,293.88z"/>
<path class="st9" d="M324.23,315.42c-1.6,0.04-3.13,0.48-4.7,0.69c-0.74,0.1-1.5,0.03-2.26,0.03c1.94-0.31,3.88-0.65,5.82-0.93
	c2.6-0.36,5.11-1.09,7.58-1.92c0.42-0.14,0.81-0.33,1.26-0.23C329.5,314.26,326.84,314.75,324.23,315.42z"/>
<path class="st10" d="M258.72,272.95c2.16,0.72,4.32,1.44,6.48,2.16C262.92,274.76,260.73,274.12,258.72,272.95z"/>
<path class="st10" d="M255.85,271.74c1.04,0.2,1.98,0.65,2.87,1.22C257.64,272.83,256.69,272.42,255.85,271.74z"/>
<path class="st11" d="M360.46,285.66c3.99,0,7.98,0,11.97,0c0,0.09,0,0.17,0,0.26c-0.8,0-1.6-0.03-2.39,0.01
	c-3.13,0.15-6.27-0.32-9.4,0.23C360.42,286.19,360.52,285.83,360.46,285.66C360.46,285.65,360.46,285.66,360.46,285.66z"/>
<path class="st12" d="M278.49,220.84c6.21-0.1,11.92,0.69,17.48,2.44c1.75,0.55,3.46,1.26,4.82,2.58c1.47,1.42,1.7,2.69,0.82,4.54
	c-1.22,2.56-3.35,4.28-5.62,5.76c-6.04,3.93-12.7,6.06-19.92,5.78c-7.22-0.28-13.86-2.49-19.56-7.12c-0.81-0.66-1.47-1.47-2.04-2.34
	c-1.47-2.27-0.98-4.6,1.31-6.27c2.83-2.06,6.09-3.11,9.46-3.9C269.72,221.25,274.26,220.73,278.49,220.84z"/>
</svg>
