<svg xmlns="http://www.w3.org/2000/svg" width="250" height="250"><path fill="#132cc4" d="M250 229.305c0 11.43-9.266 20.695-20.695 20.695H20.695C9.265 250 0 240.734 0 229.305V20.695C0 9.265 9.266 0 20.695 0h208.61C240.735 0 250 9.266 250 20.695zm0 0"/><g fill="#fff"><path d="M66.8 60.723h5.184v12.582h.121l12.172-12.582h6.989l-13.61 13.445 14.516 15.664H84.89L72.105 75.238h-.12v14.594H66.8zM158.3 176.52c0-2.329.387-4.434 1.169-6.317.781-1.875 1.863-3.469 3.25-4.785 1.383-1.316 3.027-2.332 4.933-3.047 1.907-.707 3.985-1.066 6.23-1.066 2.274 0 4.368.36 6.29 1.066 1.918.715 3.574 1.73 4.976 3.047 1.399 1.316 2.489 2.914 3.266 4.785.781 1.883 1.172 3.984 1.172 6.317 0 2.273-.39 4.351-1.172 6.226-.777 1.879-1.867 3.496-3.266 4.852-1.398 1.355-3.054 2.414-4.976 3.164-1.918.754-4.016 1.129-6.29 1.129-2.25 0-4.327-.375-6.23-1.13-1.906-.75-3.55-1.808-4.933-3.163-1.387-1.356-2.469-2.977-3.25-4.852s-1.168-3.953-1.168-6.226zm5.63 0c0 1.562.238 2.992.718 4.292.48 1.301 1.165 2.434 2.055 3.395a9.4 9.4 0 0 0 3.168 2.238c1.215.535 2.57.805 4.047.805 1.48 0 2.84-.266 4.07-.805a9.401 9.401 0 0 0 3.188-2.238 9.958 9.958 0 0 0 2.054-3.394c.48-1.301.72-2.735.72-4.293 0-1.508-.24-2.907-.72-4.196a10.15 10.15 0 0 0-2.035-3.37 9.367 9.367 0 0 0-3.164-2.259c-1.234-.55-2.605-.824-4.113-.824-1.508 0-2.871.274-4.09.824-1.223.547-2.266 1.297-3.144 2.258s-1.559 2.082-2.036 3.371c-.476 1.29-.718 2.688-.718 4.196zM114.324 154.852H85.813v-4.165h24.351v-25.695h23.86v-24.965h28.148v4.164h-23.984v24.965h-23.864zm0 0"/></g></svg>