<svg xmlns="http://www.w3.org/2000/svg" xmlns:xlink="http://www.w3.org/1999/xlink" width="250" height="250"><filter id="a" width="100%" height="100%" x="0%" y="0%"><feColorMatrix in="SourceGraphic" values="0 0 0 0 1 0 0 0 0 1 0 0 0 0 1 0 0 0 1 0"/></filter><mask id="d"><g filter="url(#a)"><path fill-opacity=".3" d="M0 0h250v250H0z"/></g></mask><mask id="f"><g filter="url(#a)"><path fill-opacity=".063" d="M0 0h250v250H0z"/></g></mask><linearGradient id="g" x1="20.96" x2="79.11" y1="23.833" y2="23.833" gradientTransform="matrix(3.125 0 0 -3.125 0 256.25)" gradientUnits="userSpaceOnUse"><stop offset=".375" stop-opacity=".063"/><stop offset="1" stop-opacity="0"/></linearGradient><clipPath id="e"><path d="M0 0h250v250H0z"/></clipPath><mask id="i"><g filter="url(#a)"><path fill-opacity=".125" d="M0 0h250v250H0z"/></g></mask><linearGradient id="j" x1="20.95" x2="78.7" y1="23.979" y2="23.979" gradientTransform="matrix(3.125 0 0 -3.125 0 256.25)" gradientUnits="userSpaceOnUse"><stop offset=".375" stop-opacity=".125"/><stop offset="1" stop-opacity="0"/></linearGradient><clipPath id="h"><path d="M0 0h250v250H0z"/></clipPath><mask id="l"><g filter="url(#a)"><path fill-opacity=".188" d="M0 0h250v250H0z"/></g></mask><linearGradient id="m" x1="20.95" x2="78.31" y1="24.125" y2="24.125" gradientTransform="matrix(3.125 0 0 -3.125 0 256.25)" gradientUnits="userSpaceOnUse"><stop offset=".375" stop-opacity=".188"/><stop offset="1" stop-opacity="0"/></linearGradient><clipPath id="k"><path d="M0 0h250v250H0z"/></clipPath><mask id="o"><g filter="url(#a)"><path fill-opacity=".25" d="M0 0h250v250H0z"/></g></mask><linearGradient id="p" x1="20.95" x2="77.91" y1="24.268" y2="24.268" gradientTransform="matrix(3.125 0 0 -3.125 0 256.25)" gradientUnits="userSpaceOnUse"><stop offset=".375" stop-opacity=".25"/><stop offset="1" stop-opacity="0"/></linearGradient><clipPath id="n"><path d="M0 0h250v250H0z"/></clipPath><mask id="r"><g filter="url(#a)"><path fill-opacity=".313" d="M0 0h250v250H0z"/></g></mask><linearGradient id="s" x1="20.95" x2="77.52" y1="24.414" y2="24.414" gradientTransform="matrix(3.125 0 0 -3.125 0 256.25)" gradientUnits="userSpaceOnUse"><stop offset=".375" stop-opacity=".313"/><stop offset="1" stop-opacity="0"/></linearGradient><clipPath id="q"><path d="M0 0h250v250H0z"/></clipPath><mask id="u"><g filter="url(#a)"><path fill-opacity=".375" d="M0 0h250v250H0z"/></g></mask><linearGradient id="v" x1="20.95" x2="77.12" y1="24.557" y2="24.557" gradientTransform="matrix(3.125 0 0 -3.125 0 256.25)" gradientUnits="userSpaceOnUse"><stop offset=".375" stop-opacity=".375"/><stop offset="1" stop-opacity="0"/></linearGradient><clipPath id="t"><path d="M0 0h250v250H0z"/></clipPath><mask id="x"><g filter="url(#a)"><path fill-opacity=".438" d="M0 0h250v250H0z"/></g></mask><linearGradient id="y" x1="20.95" x2="76.73" y1="24.701" y2="24.701" gradientTransform="matrix(3.125 0 0 -3.125 0 256.25)" gradientUnits="userSpaceOnUse"><stop offset=".375" stop-opacity=".438"/><stop offset="1" stop-opacity="0"/></linearGradient><clipPath id="w"><path d="M0 0h250v250H0z"/></clipPath><mask id="A"><g filter="url(#a)"><path fill-opacity=".5" d="M0 0h250v250H0z"/></g></mask><linearGradient id="B" x1="20.95" x2="76.33" y1="24.836" y2="24.836" gradientTransform="matrix(3.125 0 0 -3.125 0 256.25)" gradientUnits="userSpaceOnUse"><stop offset=".375" stop-opacity=".5"/><stop offset="1" stop-opacity="0"/></linearGradient><clipPath id="z"><path d="M0 0h250v250H0z"/></clipPath><mask id="D"><g filter="url(#a)"><path fill-opacity=".563" d="M0 0h250v250H0z"/></g></mask><linearGradient id="E" x1="20.95" x2="75.94" y1="24.98" y2="24.98" gradientTransform="matrix(3.125 0 0 -3.125 0 256.25)" gradientUnits="userSpaceOnUse"><stop offset=".375" stop-opacity=".563"/><stop offset="1" stop-opacity="0"/></linearGradient><clipPath id="C"><path d="M0 0h250v250H0z"/></clipPath><mask id="G"><g filter="url(#a)"><path fill-opacity=".625" d="M0 0h250v250H0z"/></g></mask><linearGradient id="H" x1="20.95" x2="75.54" y1="25.123" y2="25.123" gradientTransform="matrix(3.125 0 0 -3.125 0 256.25)" gradientUnits="userSpaceOnUse"><stop offset=".375" stop-opacity=".625"/><stop offset="1" stop-opacity="0"/></linearGradient><clipPath id="F"><path d="M0 0h250v250H0z"/></clipPath><mask id="J"><g filter="url(#a)"><path fill-opacity=".688" d="M0 0h250v250H0z"/></g></mask><linearGradient id="K" x1="20.95" x2="75.14" y1="25.264" y2="25.264" gradientTransform="matrix(3.125 0 0 -3.125 0 256.25)" gradientUnits="userSpaceOnUse"><stop offset=".375" stop-opacity=".688"/><stop offset="1" stop-opacity="0"/></linearGradient><clipPath id="I"><path d="M0 0h250v250H0z"/></clipPath><mask id="M"><g filter="url(#a)"><path fill-opacity=".75" d="M0 0h250v250H0z"/></g></mask><linearGradient id="N" x1="20.95" x2="74.75" y1="25.409" y2="25.409" gradientTransform="matrix(3.125 0 0 -3.125 0 256.25)" gradientUnits="userSpaceOnUse"><stop offset=".375" stop-opacity=".75"/><stop offset="1" stop-opacity="0"/></linearGradient><clipPath id="L"><path d="M0 0h250v250H0z"/></clipPath><mask id="P"><g filter="url(#a)"><path fill-opacity=".813" d="M0 0h250v250H0z"/></g></mask><linearGradient id="Q" x1="20.95" x2="74.35" y1="25.553" y2="25.553" gradientTransform="matrix(3.125 0 0 -3.125 0 256.25)" gradientUnits="userSpaceOnUse"><stop offset=".375" stop-opacity=".813"/><stop offset="1" stop-opacity="0"/></linearGradient><clipPath id="O"><path d="M0 0h250v250H0z"/></clipPath><mask id="S"><g filter="url(#a)"><path fill-opacity=".875" d="M0 0h250v250H0z"/></g></mask><linearGradient id="T" x1="20.95" x2="73.96" y1="25.692" y2="25.692" gradientTransform="matrix(3.125 0 0 -3.125 0 256.25)" gradientUnits="userSpaceOnUse"><stop offset=".375" stop-opacity=".875"/><stop offset="1" stop-opacity="0"/></linearGradient><clipPath id="R"><path d="M0 0h250v250H0z"/></clipPath><mask id="V"><g filter="url(#a)"><path fill-opacity=".938" d="M0 0h250v250H0z"/></g></mask><linearGradient id="W" x1="20.95" x2="73.56" y1="25.829" y2="25.829" gradientTransform="matrix(3.125 0 0 -3.125 0 256.25)" gradientUnits="userSpaceOnUse"><stop offset=".375" stop-opacity=".938"/><stop offset="1" stop-opacity="0"/></linearGradient><clipPath id="U"><path d="M0 0h250v250H0z"/></clipPath><linearGradient id="X" x1="20.95" x2="73.17" y1="25.955" y2="25.955" gradientTransform="matrix(3.125 0 0 -3.125 0 256.25)" gradientUnits="userSpaceOnUse"><stop offset=".375"/><stop offset="1" stop-opacity="0"/></linearGradient><clipPath id="c"><path d="M0 0h250v250H0z"/></clipPath><linearGradient id="Y" x1="20.95" x2="73.17" y1="13.741" y2="13.741" gradientTransform="matrix(3.125 0 0 -3.125 0 256.25)" gradientUnits="userSpaceOnUse"><stop offset="0" stop-color="gray"/><stop offset=".328" stop-color="#838383"/><stop offset=".591" stop-color="#8d8d8d"/><stop offset=".83" stop-color="#9e9e9e"/><stop offset="1" stop-color="#afafaf"/></linearGradient><linearGradient id="Z" x1="47.06" x2="47.06" y1="18.449" y2="9.024" gradientTransform="matrix(3.125 0 0 -3.125 0 256.25)" gradientUnits="userSpaceOnUse"><stop offset=".35" stop-color="#dfdfdf"/><stop offset=".645" stop-color="#ddd"/><stop offset=".752" stop-color="#d6d6d6"/><stop offset=".828" stop-color="#cbcbcb"/><stop offset=".889" stop-color="#bababa"/><stop offset=".941" stop-color="#a4a4a4"/><stop offset=".987" stop-color="#898989"/><stop offset="1" stop-color="gray"/></linearGradient><linearGradient id="aa" x1="20.96" x2="73.18" y1="29.594" y2="29.594" gradientTransform="matrix(3.125 0 0 -3.125 0 256.25)" gradientUnits="userSpaceOnUse"><stop offset="0" stop-color="#dfdfdf"/><stop offset=".021" stop-color="#e1e1e1"/><stop offset=".243" stop-color="#f2f2f2"/><stop offset=".487" stop-color="#fcfcfc"/><stop offset=".791" stop-color="#fff"/><stop offset=".844" stop-color="#fcfcfc"/><stop offset=".887" stop-color="#f2f2f2"/><stop offset=".926" stop-color="#e1e1e1"/><stop offset=".963" stop-color="#c9c9c9"/><stop offset=".966" stop-color="#c7c7c7"/><stop offset="1" stop-color="#fff"/></linearGradient><linearGradient id="b"><stop offset="0" stop-color="#242424"/><stop offset=".335" stop-color="#2d2d2d"/><stop offset=".791" stop-color="#303030"/><stop offset=".867" stop-color="#2d2d2d"/><stop offset=".927" stop-color="#232323"/><stop offset=".966" stop-color="#181818"/><stop offset="1" stop-color="#303030"/></linearGradient><linearGradient xlink:href="#b" id="ab" x1="20.954" x2="73.172" y1="40.165" y2="40.165" gradientTransform="matrix(3.125 0 0 -3.125 0 256.25)" gradientUnits="userSpaceOnUse"/><linearGradient xlink:href="#b" id="ac" x1="20.949" x2="73.173" y1="36.69" y2="36.69" gradientTransform="matrix(3.125 0 0 -3.125 0 256.25)" gradientUnits="userSpaceOnUse"/><linearGradient xlink:href="#b" id="ad" x1="20.954" x2="73.171" y1="39.945" y2="39.945" gradientTransform="matrix(3.125 0 0 -3.125 0 256.25)" gradientUnits="userSpaceOnUse"/><linearGradient xlink:href="#b" id="ae" x1="20.955" x2="73.171" y1="43.215" y2="43.215" gradientTransform="matrix(3.125 0 0 -3.125 0 256.25)" gradientUnits="userSpaceOnUse"/><linearGradient xlink:href="#b" id="af" x1="20.955" x2="73.171" y1="39.73" y2="39.73" gradientTransform="matrix(3.125 0 0 -3.125 0 256.25)" gradientUnits="userSpaceOnUse"/><linearGradient xlink:href="#b" id="ag" x1="20.953" x2="73.171" y1="19.845" y2="19.845" gradientTransform="matrix(3.125 0 0 -3.125 0 256.25)" gradientUnits="userSpaceOnUse"/><linearGradient xlink:href="#b" id="ah" x1="20.951" x2="73.176" y1="20.32" y2="20.32" gradientTransform="matrix(3.125 0 0 -3.125 0 256.25)" gradientUnits="userSpaceOnUse"/><linearGradient xlink:href="#b" id="ai" x1="20.954" x2="73.167" y1="16.625" y2="16.625" gradientTransform="matrix(3.125 0 0 -3.125 0 256.25)" gradientUnits="userSpaceOnUse"/><linearGradient xlink:href="#b" id="aj" x1="20.952" x2="73.172" y1="17.12" y2="17.12" gradientTransform="matrix(3.125 0 0 -3.125 0 256.25)" gradientUnits="userSpaceOnUse"/><linearGradient xlink:href="#b" id="ak" x1="20.953" x2="73.171" y1="35.125" y2="35.125" gradientTransform="matrix(3.125 0 0 -3.125 0 256.25)" gradientUnits="userSpaceOnUse"/><linearGradient xlink:href="#b" id="al" x1="20.952" x2="73.172" y1="36.18" y2="36.18" gradientTransform="matrix(3.125 0 0 -3.125 0 256.25)" gradientUnits="userSpaceOnUse"/><linearGradient xlink:href="#b" id="am" x1="20.952" x2="73.172" y1="37.245" y2="37.245" gradientTransform="matrix(3.125 0 0 -3.125 0 256.25)" gradientUnits="userSpaceOnUse"/><linearGradient xlink:href="#b" id="an" x1="20.954" x2="73.171" y1="20.95" y2="20.95" gradientTransform="matrix(3.125 0 0 -3.125 0 256.25)" gradientUnits="userSpaceOnUse"/><linearGradient xlink:href="#b" id="ao" x1="20.949" x2="73.173" y1="25.33" y2="25.33" gradientTransform="matrix(3.125 0 0 -3.125 0 256.25)" gradientUnits="userSpaceOnUse"/><linearGradient xlink:href="#b" id="ap" x1="20.954" x2="73.172" y1="20.06" y2="20.06" gradientTransform="matrix(3.125 0 0 -3.125 0 256.25)" gradientUnits="userSpaceOnUse"/><linearGradient xlink:href="#b" id="aq" x1="20.955" x2="73.171" y1="24.445" y2="24.445" gradientTransform="matrix(3.125 0 0 -3.125 0 256.25)" gradientUnits="userSpaceOnUse"/><linearGradient xlink:href="#b" id="ar" x1="20.955" x2="73.171" y1="19.18" y2="19.18" gradientTransform="matrix(3.125 0 0 -3.125 0 256.25)" gradientUnits="userSpaceOnUse"/><linearGradient xlink:href="#b" id="as" x1="20.955" x2="73.171" y1="23.535" y2="23.535" gradientTransform="matrix(3.125 0 0 -3.125 0 256.25)" gradientUnits="userSpaceOnUse"/><linearGradient id="at" x1="20.953" x2="73.172" y1="30.47" y2="30.47" gradientTransform="matrix(3.125 0 0 -3.125 0 256.25)" gradientUnits="userSpaceOnUse"><stop offset="0" stop-color="#b41b00"/><stop offset=".021" stop-color="#b61d01"/><stop offset=".243" stop-color="#c72e0b"/><stop offset=".487" stop-color="#d13811"/><stop offset=".791" stop-color="#d43b13"/><stop offset=".842" stop-color="#d13812"/><stop offset=".882" stop-color="#c72f0f"/><stop offset=".919" stop-color="#b61f0a"/><stop offset=".954" stop-color="#9e0903"/><stop offset=".966" stop-color="#940000"/><stop offset="1" stop-color="#d43b13"/></linearGradient><linearGradient id="au" x1="20.952" x2="73.172" y1="26.428" y2="26.428" gradientTransform="matrix(3.125 0 0 -3.125 0 256.25)" gradientUnits="userSpaceOnUse"><stop offset="0" stop-color="#00209f"/><stop offset=".021" stop-color="#0222a1"/><stop offset=".243" stop-color="#1333b2"/><stop offset=".487" stop-color="#1d3dbc"/><stop offset=".791" stop-color="#2040bf"/><stop offset=".842" stop-color="#1e3dbc"/><stop offset=".882" stop-color="#1933b2"/><stop offset=".919" stop-color="#1122a1"/><stop offset=".954" stop-color="#050a89"/><stop offset=".966" stop-color="#00007f"/><stop offset="1" stop-color="#2040bf"/></linearGradient><mask id="aw"><g filter="url(#a)"><path fill-opacity=".19" d="M0 0h250v250H0z"/></g></mask><linearGradient id="ax" x1="20.96" x2="73.18" y1="29.594" y2="29.594" gradientTransform="matrix(3.125 0 0 -3.125 0 256.25)" gradientUnits="userSpaceOnUse"><stop offset="0" stop-color="#404040"/><stop offset=".791" stop-color="#fff"/><stop offset=".966" stop-color="#fff"/><stop offset="1" stop-color="#fff"/></linearGradient><clipPath id="av"><path d="M0 0h250v250H0z"/></clipPath><path fill="#0e3ca5" d="M105.188 174.031c5.218 19.281 23.906 33.969 33.343 33.375.344-.031 35.781-6.625 55.219-39.062 15.094-25.25 9.969-49.625-10.594-50.156-7.406.562-87.906 19.156-77.969 55.843M181.219 50.281v-.031c-15.75-13.406-36.156-21.5-58.438-21.5-13.031 0-25.406 2.781-36.594 7.781-2 .844-3.906 1.782-5.718 2.813-1.25.687-2.531 1.343-3.75 2.062l.312.094c-3.719 2.563-6.906 5.563-9.531 9-25.875 34.188 60.875 59.063 107.25 59.125 21.344 15.344 27.313-43.125 6.469-59.344zm0 0"/><g fill="#5493f7"><path d="M91.406 50.969C79.5 68.875 39.781 81.5 33.25 79.53c0-.031-.031-.062-.031-.094.281-.53.531-1.062.812-1.624A94.252 94.252 0 0 1 51.25 54.28a96.946 96.946 0 0 1 11.063-9.5 96.792 96.792 0 0 1 7.593-5.031c5.563-3.219 11.25-3.438 13.125-3.5 17.719.406 8.469 14.594 8.375 14.719M81.656 177.563c.844 5.625-.031 27.875-1.187 29.718-1 .063-3.063.188-9.031-3.156a83.477 83.477 0 0 1-9.063-5.906c-3.938-2.875-7.625-6.063-11.063-9.5s-6.624-7.156-9.5-11.063c-2.874-3.937-5.468-8.094-7.718-12.469s-4.188-8.906-5.75-13.625-2.782-9.593-3.594-14.625-1.25-10.156-1.25-15.406.438-10.406 1.25-15.406A94.307 94.307 0 0 1 28.344 91.5c.312-.969.656-1.906 1-2.844C36.187 97.781 44.125 106 50.875 115.22c6.406 8.75 15.25 23.062 17.031 26.094 11.094 18.937 12.875 30.625 13.75 36.25M213.531 121.531c0 12.313-2.344 24.094-6.625 34.906-11.187 12.032-86.687-17.593-87.406-17.906C109.187 134 77.75 120.25 74.906 98.625c-4.062-31.094 59.031-52.781 86.781-53.594 3.313.032 13.438.157 19.344 4.938 19.906 17.406 32.5 43.031 32.5 71.562M162.438 205.844c-8.22 3.844-17.282 1.031-14.938-6.969 4.531-15.375 43.969-31.156 52.688-32.031 1.062-.094 1.53.625 1.062 1.469-9.094 15.906-22.531 29.03-38.813 37.53"/></g><g clip-path="url(#c)" mask="url(#d)"><g clip-path="url(#e)" mask="url(#f)"><path fill="url(#g)" d="M71.594 119.125c-3.375 0-6.094 2.313-6.094 5.188v96.562c0 3.906 2.719 7.031 6.094 7.063 89.187.53 175.656 25.5 175.625 12.968-.125-31.844-.125-75.625 0-107.437.031-12.813-86.469-14.281-175.625-14.344zm0 0"/></g><g clip-path="url(#h)" mask="url(#i)"><path fill="url(#j)" d="M71.563 119.125c-3.376 0-6.094 2.313-6.094 5.188v96.562c0 3.906 2.719 7.031 6.094 7.063 88.562.53 174.437 24.25 174.375 12.125-.125-31.375-.125-74.72 0-106.094.062-12.406-85.813-14.719-174.375-14.844zm0 0"/></g><g clip-path="url(#k)" mask="url(#l)"><path fill="url(#m)" d="M71.563 119.125c-3.376 0-6.094 2.313-6.094 5.188v96.562c0 3.906 2.719 7.031 6.094 7.063 87.937.5 173.187 23 173.156 11.28a14630.13 14630.13 0 0 1 0-104.75c.062-11.968-85.219-15.187-173.156-15.343zm0 0"/></g><g clip-path="url(#n)" mask="url(#o)"><path fill="url(#p)" d="M71.563 119.125c-3.376 0-6.094 2.313-6.094 5.188v96.562c0 3.906 2.719 7.031 6.094 7.063 87.312.468 171.968 21.78 171.906 10.437-.125-30.5-.125-72.938 0-103.406.062-11.563-84.594-15.625-171.906-15.844zm0 0"/></g><g clip-path="url(#q)" mask="url(#r)"><path fill="url(#s)" d="M71.563 119.125c-3.376 0-6.094 2.313-6.094 5.188v96.562c0 3.906 2.719 7.031 6.094 7.063 86.656.437 170.718 20.53 170.687 9.593-.125-30.031-.125-72.031 0-102.062.063-11.156-83.969-16.094-170.688-16.344zm0 0"/></g><g clip-path="url(#t)" mask="url(#u)"><path fill="url(#v)" d="M71.563 119.125c-3.376 0-6.094 2.313-6.094 5.188v96.562c0 3.906 2.719 7.031 6.094 7.063 86.03.406 169.468 19.28 169.437 8.78-.125-29.593-.125-71.124 0-100.718.063-10.75-83.344-16.594-169.438-16.875zm0 0"/></g><g clip-path="url(#w)" mask="url(#x)"><path fill="url(#y)" d="M71.563 119.125c-3.376 0-6.094 2.313-6.094 5.188v96.562c0 3.906 2.719 7.031 6.094 7.063 85.406.406 168.25 18.03 168.218 7.937-.125-29.156-.125-70.219 0-99.375.031-10.344-82.75-17.219-168.219-17.375zm0 0"/></g><g clip-path="url(#z)" mask="url(#A)"><path fill="url(#B)" d="M71.563 119.156c-3.376 0-6.094 2.313-6.094 5.188v96.562c0 3.906 2.719 7.031 6.094 7.063 84.78.375 167 16.781 166.968 7.094-.125-28.688-.125-69.344 0-98.032.063-9.937-82.125-17.75-166.969-17.875zm0 0"/></g><g clip-path="url(#C)" mask="url(#D)"><path fill="url(#E)" d="M71.563 119.156c-3.376 0-6.094 2.313-6.094 5.188v96.562c0 3.906 2.719 7.031 6.094 7.063 84.156.344 165.78 15.531 165.75 6.25-.125-28.25-.125-68.438 0-96.688.03-9.531-81.532-18.219-165.75-18.375zm0 0"/></g><g clip-path="url(#F)" mask="url(#G)"><path fill="url(#H)" d="M71.563 119.156c-3.376 0-6.094 2.313-6.094 5.188v96.562c0 3.906 2.719 7.031 6.094 7.063 83.53.312 164.53 14.281 164.5 5.406-.125-27.813-.125-67.531 0-95.344.062-9.125-80.907-18.719-164.5-18.875zm0 0"/></g><g clip-path="url(#I)" mask="url(#J)"><path fill="url(#K)" d="M71.563 119.156c-3.376 0-6.094 2.313-6.094 5.188v96.562c0 3.906 2.719 7.031 6.094 7.063 82.906.281 163.312 13.031 163.25 4.594a11781.38 11781.38 0 0 1 0-94c.062-8.72-80.282-19.22-163.25-19.407zm0 0"/></g><g clip-path="url(#L)" mask="url(#M)"><path fill="url(#N)" d="M71.563 119.156c-3.376 0-6.094 2.313-6.094 5.188v96.562c0 3.906 2.719 7.031 6.094 7.031 82.28.25 162.062 11.813 162.03 3.75-.124-26.906-.124-65.75 0-92.656.063-8.281-79.687-19.656-162.03-19.875zm0 0"/></g><g clip-path="url(#O)" mask="url(#P)"><path fill="url(#Q)" d="M71.563 119.156c-3.376 0-6.094 2.313-6.094 5.156v96.563c0 3.906 2.719 7.031 6.094 7.031 81.656.25 160.812 10.563 160.78 2.906-.124-26.437-.124-64.843 0-91.312.063-7.844-79.03-20.125-160.78-20.344zm0 0"/></g><g clip-path="url(#R)" mask="url(#S)"><path fill="url(#T)" d="M71.563 119.156c-3.376 0-6.094 2.313-6.094 5.156v96.563c0 3.875 2.719 7.031 6.094 7.031 81.03.219 159.593 9.313 159.562 2.063-.125-26-.125-63.969 0-89.969.031-7.406-78.438-20.594-159.563-20.844zm0 0"/></g><g clip-path="url(#U)" mask="url(#V)"><path fill="url(#W)" d="M71.563 119.156c-3.376 0-6.094 2.313-6.094 5.156v96.563c0 3.875 2.719 7.031 6.094 7.031 80.406.188 158.343 8.063 158.312 1.219-.125-25.563-.125-63.063 0-88.625.063-7-77.813-21.094-158.313-21.344zm0 0"/></g><path fill="url(#X)" d="M71.563 119.156c-3.376 0-6.094 2.313-6.094 5.156v96.563c0 3.875 2.719 7.031 6.094 7.031 79.78.313 157.156 6.813 157.093.406v-87.28c.063-6.595-77.219-21.157-157.094-21.876zm0 0"/></g><path fill="url(#Y)" d="M65.469 220.906c0 3.875 2.719 7.031 6.062 7.063 79.938.531 157.125-3.125 157.125-15.094 0-36.281-163.187 8.031-163.187 8.031zm0 0"/><path fill="url(#Z)" d="M65.469 220.906c0 3.906 2.719 7.063 6.094 7.063 79.937.594 157-1.906 157.093-15.094 0-36.281-163.187 8.031-163.187 8.031zm6.094 6.594c-.22 0-.438 0-.626-.031-2.437-.281-4.468-2.125-5.187-4.594.781 2.656 3.094 4.594 5.813 4.594 79.874-.5 155.843-25.094 155.843-14.25 0 11.031-75.969 14.844-155.844 14.281zm0 0"/><path fill="url(#aa)" d="M71.594 118.219a6.082 6.082 0 0 0-6.094 6.094v96.593c0 3.344 2.719 6.063 6.063 6.094 79.937-.594 157.218-27.063 157.125-14.125V104.094c.062-12.938-77.188 13.531-157.094 14.125zm0 0"/><path fill="url(#ab)" d="M180.594 136.906c1.5-1.25 2.25-1.906 3.781-3.156-1.375-1.844-2.406-3.219-3.438-4.594s-2.062-2.75-3.468-4.594c-1.5 1.25-2.25 1.907-3.781 3.157a332.078 332.078 0 0 0 3.468 4.594c1.031 1.375 2.063 2.75 3.438 4.593zm0 0"/><path fill="url(#ac)" d="M188.75 147.75c1.5-1.281 2.25-1.906 3.75-3.156-1.375-1.844-2.406-3.219-3.438-4.594s-2.062-2.75-3.437-4.563c-1.5 1.282-2.25 1.907-3.75 3.188 1.375 1.844 2.406 3.219 3.438 4.594 1.03 1.312 2.062 2.687 3.437 4.531zm0 0"/><path fill="url(#ad)" d="m186.875 133 3.469 4.625 4.031 5.375 3.75-3.125c-1.5-2.031-2.813-3.781-4.031-5.406l-3.469-4.625-3.469-4.625-4.031-5.375c-1.5 1.281-2.25 1.906-3.75 3.156 1.5 2 2.813 3.75 4.063 5.375a453.447 453.447 0 0 0 3.437 4.625zm0 0"/><path fill="url(#ae)" d="M191.875 127.375c1.5-1.281 2.25-1.906 3.75-3.156-1.375-1.844-2.406-3.219-3.438-4.594s-2.062-2.75-3.437-4.594c-1.5 1.281-2.25 1.906-3.75 3.188 1.375 1.844 2.406 3.187 3.438 4.562a343.095 343.095 0 0 0 3.437 4.594zm0 0"/><path fill="url(#af)" d="M196.906 125.906c-1.5 1.25-2.25 1.875-3.75 3.156 1.375 1.844 2.406 3.22 3.438 4.594s2.062 2.781 3.437 4.625c1.5-1.25 2.25-1.875 3.75-3.094-1.375-1.875-2.406-3.25-3.437-4.656-1.031-1.375-2.063-2.75-3.438-4.625zm0 0"/><path fill="url(#ag)" d="M113.281 192.813c-1.125-1.594-2.281-3.157-3.5-4.907-1.219-1.719-2.562-3.594-4.062-5.719-1.5 1.125-2.281 1.72-3.781 2.844 1.5 2.156 2.843 4 4.062 5.75 1.219 1.719 2.375 3.313 3.5 4.906s2.281 3.188 3.5 4.907 2.563 3.562 4.063 5.687c1.5-1.156 2.28-1.75 3.78-2.906-1.5-2.094-2.843-3.938-4.062-5.656s-2.375-3.313-3.5-4.906zm0 0"/><path fill="url(#ah)" d="M99.719 194.156c1.031 1.469 2.094 2.938 3.469 4.906 1.5-1.125 2.25-1.687 3.78-2.843-1.374-1.938-2.437-3.406-3.468-4.875s-2.094-2.938-3.469-4.906c-1.5 1.125-2.281 1.687-3.781 2.78 1.406 1.97 2.438 3.47 3.469 4.938zm0 0"/><path fill="url(#ai)" d="M108.25 198c-1.5 1.156-2.281 1.719-3.781 2.844a336.627 336.627 0 0 0 3.469 4.875c1.03 1.469 2.093 2.937 3.468 4.875 1.5-1.156 2.281-1.719 3.781-2.875-1.374-1.938-2.437-3.406-3.468-4.844-1.063-1.469-2.094-2.938-3.469-4.875zm0 0"/><path fill="url(#aj)" d="M101.938 201.375c-1.126-1.594-2.282-3.219-3.5-4.969s-2.563-3.656-4.063-5.812c-1.5 1.094-2.281 1.656-3.781 2.75 1.5 2.187 2.844 4.094 4.062 5.844s2.375 3.375 3.5 5 2.281 3.218 3.5 4.968 2.563 3.625 4.063 5.75c1.5-1.125 2.281-1.719 3.781-2.844-1.5-2.125-2.844-3.968-4.063-5.718s-2.374-3.344-3.5-4.969zm0 0"/><path fill="url(#ak)" d="M113 139.844c-1.219 1.969-2.375 3.75-3.5 5.562s-2.281 3.594-3.5 5.563c-1.219 1.937-2.563 4.031-4.063 6.437 1.5.875 2.282 1.313 3.782 2.188 1.5-2.406 2.844-4.5 4.062-6.438s2.375-3.75 3.5-5.562 2.281-3.625 3.5-5.594 2.563-4.094 4.063-6.5c-1.5-.844-2.281-1.25-3.781-2.125a925.38 925.38 0 0 1-4.063 6.469zm0 0"/><path fill="url(#al)" d="M103.844 142.125a1181.771 1181.771 0 0 1-3.5 5.5c-1.219 1.938-2.563 4-4.063 6.375 1.5.906 2.281 1.344 3.781 2.25 1.5-2.375 2.844-4.469 4.063-6.406s2.375-3.75 3.5-5.531c1.125-1.813 2.281-3.594 3.5-5.563 1.219-1.938 2.563-4.063 4.063-6.469-1.5-.844-2.282-1.281-3.782-2.156a606.85 606.85 0 0 0-4.062 6.469c-1.25 1.937-2.375 3.75-3.5 5.531zm0 0"/><path fill="url(#am)" d="M98.438 146.531c1.218-1.937 2.374-3.719 3.5-5.5s2.28-3.594 3.5-5.531 2.562-4.031 4.062-6.438c-1.531-.875-2.281-1.312-3.781-2.187-1.5 2.406-2.844 4.469-4.063 6.406s-2.375 3.719-3.5 5.5-2.281 3.563-3.5 5.469-2.562 3.969-4.062 6.313c1.531.937 2.281 1.375 3.781 2.28 1.5-2.312 2.844-4.374 4.063-6.312zm0 0"/><path fill="url(#an)" d="M184.375 185.906c-1.5-.75-2.25-1.125-3.781-1.844-1.375 2.313-2.406 4.063-3.469 5.782a468.54 468.54 0 0 1-3.469 5.781c1.5.75 2.25 1.125 3.781 1.875 1.375-2.313 2.407-4.031 3.47-5.781s2.093-3.469 3.468-5.813zm0 0"/><path fill="url(#ao)" d="M185.625 183.813c1.375-2.313 2.406-4.063 3.438-5.782 1.03-1.75 2.062-3.469 3.437-5.781l-3.75-1.875c-1.375 2.313-2.406 4.063-3.438 5.781-1.03 1.75-2.062 3.469-3.437 5.781zm0 0"/><path fill="url(#ap)" d="M190 188.688c-1.5-.75-2.25-1.094-3.75-1.844-1.375 2.312-2.406 4.062-3.438 5.781-1.03 1.75-2.062 3.469-3.437 5.781 1.5.75 2.25 1.125 3.781 1.875 1.375-2.312 2.406-4.062 3.438-5.781 1-1.75 2.031-3.5 3.406-5.813zm0 0"/><path fill="url(#aq)" d="M194.719 180.813c1.031-1.72 2.062-3.47 3.437-5.75-1.5-.782-2.25-1.157-3.75-1.907-1.375 2.313-2.406 4.031-3.437 5.781-1.031 1.72-2.063 3.47-3.438 5.782 1.5.75 2.25 1.094 3.75 1.844 1.344-2.282 2.375-4.032 3.438-5.75zm0 0"/><path fill="url(#ar)" d="M188.438 195.406c-1.032 1.75-2.063 3.469-3.438 5.781 1.5.75 2.25 1.125 3.75 1.844 1.375-2.312 2.406-4.062 3.438-5.781 1.03-1.75 2.062-3.469 3.437-5.781l-3.75-1.875a678.264 678.264 0 0 1-3.438 5.812zm0 0"/><path fill="url(#as)" d="M196.594 181.75c-1.031 1.719-2.063 3.469-3.438 5.781l3.75 1.875c1.375-2.312 2.406-4.031 3.438-5.75s2.062-3.437 3.437-5.719c-1.5-.78-2.25-1.156-3.75-1.937-1.375 2.313-2.406 4.031-3.437 5.75zm0 0"/><path fill="url(#at)" d="M172.844 152.469c-.969-2.469-2.313-4.719-4.063-6.656s-3.844-3.594-6.344-4.844c-2.093-1.063-4.28-1.75-6.562-2.156s-4.625-.47-6.938-.25c-2.343.218-4.625.75-6.906 1.53s-4.5 1.813-6.625 3.126c-2.094 1.312-4.094 2.844-5.906 4.625s-3.438 3.812-4.813 6.062c-1.562 2.531-2.593 5.188-3.062 7.844-.5 2.656-.469 5.313.031 7.813s1.5 4.843 2.969 6.906c1.469 2.031 3.375 3.781 5.719 5.031a17.348 17.348 0 0 0 7.531 2.094c2.625.156 5.281-.25 7.813-1.156 2.562-.907 5-2.282 7.218-4.094s4.188-4.031 5.75-6.625c2.281 1.156 3.969 2 5.656 2.844l5.625 2.812c1.657-2.781 2.875-5.656 3.625-8.531s1.063-5.75.938-8.5a26.399 26.399 0 0 0-1.656-7.875zm0 0"/><path fill="url(#au)" d="M166.156 159.188c-2.062-1.032-4.406-1.407-6.719-1.157-2.343.25-4.687 1.063-6.78 2.406s-3.97 3.22-5.376 5.5c-1.375 2.282-3.219 4.157-5.344 5.47-2.093 1.312-4.437 2.093-6.78 2.28-2.345.157-4.688-.28-6.75-1.406-2.095-1.125-3.657-2.812-4.688-4.781s-1.5-4.281-1.344-6.625c.125-2.344.875-4.75 2.281-7-1.656 2.688-2.875 5.5-3.625 8.313-.75 2.843-1.062 5.687-.937 8.468s.687 5.469 1.625 8c.969 2.5 2.312 4.844 4.062 6.875s3.875 3.781 6.406 5.125A23.253 23.253 0 0 0 138.75 193c2.281.438 4.594.563 6.938.344 2.312-.219 4.656-.75 6.937-1.563s4.5-1.906 6.594-3.25 4.094-2.969 5.875-4.844c1.812-1.875 3.406-3.968 4.812-6.312 1.375-2.313 2.125-4.781 2.25-7.125s-.344-4.594-1.344-6.531a10.38 10.38 0 0 0-4.656-4.531zm0 0"/><g clip-path="url(#av)" mask="url(#aw)"><path fill="url(#ax)" d="M71.594 118.219c-3.375 0-6.094 2.75-6.094 6.094v96.593c0 3.344 2.719 6.063 6.063 6.094 79.937-.594 157.218-27.063 157.125-14.125V104.094c.062-12.938-77.188 13.531-157.094 14.125zm0 0"/></g></svg>