<svg xmlns="http://www.w3.org/2000/svg" width="250" height="250"><linearGradient id="a" x1=".5" x2=".5" y1="1" y2="0" gradientTransform="matrix(60.46875 0 0 48.23438 .324 26.469)" gradientUnits="userSpaceOnUse"><stop offset="0" stop-color="#abec79"/><stop offset="1" stop-color="#72d444"/></linearGradient><linearGradient id="b" x1=".5" x2=".5" y1="0" y2=".981" gradientTransform="matrix(93.08203 0 0 111.39844 125.129 74.703)" gradientUnits="userSpaceOnUse"><stop offset="0" stop-color="#36b564"/><stop offset="1" stop-color="#598e69"/></linearGradient><linearGradient id="c" x1=".5" x2=".5" y1="1" y2="0" gradientTransform="matrix(217.88672 0 0 24.11719 .324 50.586)" gradientUnits="userSpaceOnUse"><stop offset="0" stop-color="#499d6c"/><stop offset="1" stop-color="#1c8441"/></linearGradient><linearGradient id="d" x1="0" x2="1" y1=".5" y2=".5" gradientTransform="matrix(31.38672 0 0 24.11719 186.824 50.586)" gradientUnits="userSpaceOnUse"><stop offset="0" stop-color="#4c9b72"/><stop offset="1" stop-color="#25623e"/></linearGradient><linearGradient id="e" x1=".5" x2=".5" y1="0" y2=".981" gradientTransform="matrix(168.89063 0 0 24.11719 40.82 26.469)" gradientUnits="userSpaceOnUse"><stop offset="0" stop-color="#b1f286"/><stop offset="1" stop-color="#6bd240"/></linearGradient><linearGradient id="f" x1="1" x2="0" y1=".5" y2=".5" gradientTransform="matrix(51.15234 0 0 48.23438 198.676 26.469)" gradientUnits="userSpaceOnUse"><stop offset="0" stop-color="#a6e579"/><stop offset="1" stop-color="#66b740"/></linearGradient><linearGradient id="g" x1=".5" x2=".5" y1="1" y2="0" gradientTransform="matrix(124.69922 0 0 148.39844 125.129 74.703)" gradientUnits="userSpaceOnUse"><stop offset="0" stop-color="#399163"/><stop offset="1" stop-color="#205a38"/></linearGradient><linearGradient id="h" x1=".5" x2=".5" y1="0" y2="1" gradientTransform="matrix(84.09766 0 0 100.16406 41.25 122.938)" gradientUnits="userSpaceOnUse"><stop offset="0" stop-color="#54a66d"/><stop offset="1" stop-color="#2a6d3b"/></linearGradient><linearGradient id="i" x1=".5" x2=".5" y1="0" y2="1" gradientTransform="matrix(63.0039 0 0 19.52344 41.25 122.938)" gradientUnits="userSpaceOnUse"><stop offset="0" stop-color="#b1f286"/><stop offset="1" stop-color="#79e14e"/></linearGradient><linearGradient id="j" x1=".5" x2=".5" y1="0" y2="1" gradientTransform="matrix(36.92969 0 0 63.16406 88.36 122.938)" gradientUnits="userSpaceOnUse"><stop offset="0" stop-color="#4c9d69"/><stop offset="1" stop-color="#256438"/></linearGradient><path fill="url(#a)" d="m40.82 26.469 19.973 24.117L.324 74.703zm0 0"/><path fill="url(#b)" d="m125.29 147.996 61.534-73.293h31.387l-93.082 111.399zm0 0"/><path fill="url(#c)" d="M186.824 74.703H.324l60.469-24.117h137.883l19.535 24.117zm0 0"/><path fill="url(#d)" d="m186.824 74.703 11.852-24.117 19.535 24.117zm0 0"/><path fill="url(#e)" d="M198.676 50.586H60.793L40.82 26.469h168.89zm0 0"/><path fill="url(#f)" d="m218.21 74.703-19.534-24.117 11.035-24.117 40.117 48.234zm0 0"/><path fill="url(#g)" d="M125.129 186.102 218.21 74.703h31.617l-93.035 110.813-31.445 37.586zm0 0"/><path fill="url(#h)" d="m88.36 142.46 36.769 43.642.219 37L41.25 122.937zm0 0"/><path fill="url(#i)" d="m88.36 142.46-47.11-19.523h63.004zm0 0"/><path fill="url(#j)" d="M104.254 122.938 88.359 142.46l36.77 43.64.16-38.105zm0 0"/></svg>