<svg xmlns="http://www.w3.org/2000/svg" width="250" height="250"><radialGradient id="a" cx="5000" cy="5000" r="1683.5" gradientTransform="rotate(-21.441 49.385 235.872) scale(.03206)" gradientUnits="userSpaceOnUse"><stop offset="0" stop-color="#a0d1fe"/><stop offset="1" stop-color="#3270c4"/></radialGradient><g fill-rule="evenodd"><path fill="url(#a)" d="M202.5 125c0 42.8-34.7 77.5-77.5 77.5S47.5 167.8 47.5 125 82.2 47.5 125 47.5s77.5 34.7 77.5 77.5zm0 0"/><path fill="#fff" d="m111.5 125 28.625 28.523 18.074-18c3.2-3.171 8.375-3.171 11.574 0a8.115 8.115 0 0 1 0 11.528l-23.847 23.773c-3.2 3.153-8.426 3.125-11.574 0l-34.426-34.3v20.374c0 4.477-3.676 8.153-8.176 8.153s-8.176-3.653-8.176-8.153V93.102c0-4.5 3.676-8.153 8.176-8.153 4.523 0 8.176 3.653 8.176 8.153v20.375l34.426-34.301c3.148-3.125 8.375-3.153 11.574 0l23.847 23.773a8.115 8.115 0 0 1 0 11.528c-3.199 3.171-8.375 3.171-11.574 0l-18.074-18zm28.648-8.148c4.528 0 8.176 3.648 8.176 8.148s-3.648 8.148-8.176 8.148c-4.523 0-8.199-3.648-8.199-8.148s3.676-8.148 8.2-8.148zm0 0"/></g></svg>