<svg xmlns="http://www.w3.org/2000/svg" width="250" height="250"><g fill="#31cb9e"><path d="m114.8 125 73.735 34.25c2.59 1.2 5.8-.3 5.8-2.727V93.426c0-2.403-3.21-3.926-5.8-2.727zM184.305 75.977l-49.012-30.301c-2.254-1.403-5.523-.426-6.14 1.824l-17.903 67.45 72.625-33.774c2.406-1.102 2.621-3.824.43-5.2zM135.293 204.324 184.367 174c2.192-1.352 1.977-4.102-.433-5.2l-72.684-33.777 17.902 67.477c.586 2.227 3.856 3.2 6.141 1.824zm0 0"/><path d="m95.941 125 19.29-72.7c.742-2.85-3.27-4.925-6.141-3.152L59.676 79.7c-2.531 1.574-4.012 4-4.012 6.602v77.449c0 2.574 1.48 5.023 4.012 6.602l49.414 30.523c2.87 1.773 6.883-.3 6.14-3.148zm0 0"/></g></svg>