<?xml version="1.0" encoding="UTF-8"?>
<svg width="999px" height="1000px" viewBox="0 0 999 1000" version="1.1" xmlns="http://www.w3.org/2000/svg" xmlns:xlink="http://www.w3.org/1999/xlink">
    <title>编组</title>
    <g id="页面-1" stroke="none" stroke-width="1" fill="none" fill-rule="evenodd">
        <g id="画板" fill-rule="nonzero">
            <g id="lambda-LOGO导出-01" transform="translate(-146.000000, 0.000000)">
                <g id="编组" transform="translate(146.000000, 0.000000)">
                    <path d="M369.30593,325.747944 L370.147714,328.269537 C378.269507,351.766138 399.967361,367.903955 424.839267,368.946477 C449.711174,369.988999 472.687197,355.723715 482.752571,332.989441 L592.832075,84.9035331 C602.93788,62.0690203 597.947199,35.3803855 580.270061,17.7257228 L580.270061,17.7257228 C566.204718,3.66922526 546.119633,-2.58812789 526.544594,0.987969054 C506.969555,4.564066 490.404393,17.5169275 482.23455,35.6354951 L371.313262,281.329123 C365.00434,295.34008 364.286414,311.226567 369.30593,325.747944 L369.30593,325.747944 Z" id="路径" fill="#E11F53"></path>
                    <path d="M552.817211,272.285902 L552.817211,272.285902 C559.123407,258.030891 571.095856,247.051242 585.849474,241.992798 L722.955992,195.035258 C743.193617,188.089532 765.623472,193.27888 780.746292,208.405562 L782.556279,210.214105 C796.361372,223.97596 802.004457,243.924382 797.452057,262.870993 C792.899658,281.817604 778.807873,297.031789 760.254653,303.031142 L621.402791,348.244729 C600.36151,355.092553 577.257635,348.927961 562.433898,332.510609 C547.610161,316.093256 543.842365,292.497356 552.817211,272.285902 Z" id="路径" fill="#E11F53"></path>
                    <path d="M673.179368,366.278557 L670.657234,367.120516 C647.197663,375.267183 631.095588,396.948713 630.053594,421.793532 C629.011601,446.638351 643.241515,469.595785 665.936317,479.683919 L914.075495,589.786211 C936.897436,599.948742 963.612363,594.978934 981.267731,577.286363 L981.267731,577.286363 C995.328776,563.230858 1001.58933,543.149458 998.0116,523.578582 C994.433873,504.007705 981.475399,487.450145 963.354113,479.295322 L717.607728,368.351071 C703.602093,362.01964 687.712039,361.278393 673.179368,366.278557 Z" id="路径" fill="#4C8BF5"></path>
                    <path d="M727.680004,552.846085 L727.680004,552.846085 C741.91538,559.146756 752.879905,571.108715 757.931381,585.849406 L804.888744,722.642035 C811.955449,742.977434 806.766234,765.568583 791.536857,780.769214 L789.730804,782.577615 C775.974445,796.366091 756.047497,802.000591 737.120127,797.453696 C718.192756,792.906801 702.988091,778.832684 696.977113,760.29553 L651.825803,621.565328 C644.879768,600.516744 650.988705,577.346727 667.405647,562.473987 C683.82259,547.601246 707.456472,543.826097 727.680004,552.846085 Z" id="路径" fill="#4C8BF5"></path>
                    <path d="M629.708905,674.152323 L628.866974,671.694787 C620.735071,648.228065 599.062655,632.111402 574.217894,631.055071 C549.373134,629.99874 526.40727,644.217506 516.307262,666.909057 L406.208579,915.055616 C396.054625,937.900263 401.021914,964.629015 418.708018,982.314522 L418.708018,982.314522 C432.776462,996.345818 452.846632,1002.58622 472.40517,999.01052 C491.963708,995.434825 508.518057,982.498727 516.695846,964.400371 L627.636459,718.646677 C633.984717,704.621959 634.726097,688.704917 629.708905,674.152323 L629.708905,674.152323 Z" id="路径" fill="#43C6AC"></path>
                    <path d="M444.352024,728.54979 L444.352024,728.54979 C438.011735,742.836693 426.006262,753.835468 411.22143,758.902275 L273.910652,805.951864 C253.632564,812.922282 231.15546,807.722922 215.996822,792.555351 L214.249701,790.743263 C200.560835,776.938149 195.00376,757.02371 199.566449,738.124086 C204.129138,719.224463 218.159646,704.040152 236.638735,698.003151 L375.631926,652.700934 C396.631389,645.944614 419.640927,652.107948 434.453211,668.456802 C449.265495,684.805655 453.137684,708.312654 444.352024,728.54979 Z" id="路径" fill="#43C6AC"></path>
                    <path d="M325.815094,631.721339 L328.337552,630.879354 C351.800131,622.732428 367.904272,601.050209 368.946399,576.204601 C369.988526,551.358993 355.756787,528.400831 333.059075,518.312377 L84.8880728,408.206589 C62.0524272,398.040949 35.3209984,403.039112 17.6872203,420.771602 L17.6872203,420.771602 C3.65454151,434.840954 -2.58647002,454.91242 0.989577307,474.47222 C4.56562464,494.03202 17.5029965,510.587438 35.6031358,518.765754 L281.381037,629.64876 C295.388468,635.980391 311.28056,636.721661 325.815094,631.721339 L325.815094,631.721339 Z" id="路径" fill="#F8B233"></path>
                    <path d="M269.257858,447.133449 L269.257858,447.133449 C255.034321,440.815866 244.074765,428.866028 239.001923,414.143652 L192.101998,277.277959 C185.050378,256.950015 190.23837,234.376851 205.455897,219.174598 L207.262221,217.366938 C221.022475,203.616178 240.931997,198.004694 259.840726,202.547725 C278.749456,207.090755 293.943165,221.136178 299.965374,239.639893 L345.123486,378.313246 C352.142844,399.370243 346.064687,422.588671 329.630314,437.49683 C313.195941,452.40499 289.511105,456.18555 269.257858,447.133449 Z" id="路径" fill="#F8B233"></path>
                </g>
            </g>
        </g>
    </g>
</svg>