<svg xmlns="http://www.w3.org/2000/svg" width="250" height="250"><path fill="#f69988" d="M250 125c0 69.035-55.965 125-125 125S0 194.035 0 125 55.965 0 125 0s125 55.965 125 125zm0 0"/><g fill="#fff"><path fill-rule="evenodd" d="m125.059 36.621 43.847 68.473-43.851 25.496-43.844-25.496zm-30.426 65.234 30.426-47.511 30.425 47.511-30.43 17.692zm0 0"/><path d="M124.992 145.64 74.13 116.064l-1.387 2.167c-15.668 24.465-12.168 56.504 8.41 77.032 24.215 24.156 63.48 24.156 87.696 0 20.578-20.528 24.078-52.567 8.41-77.032l-1.387-2.168-50.875 29.579zm0 0"/></g></svg>