<svg xmlns="http://www.w3.org/2000/svg" width="250" height="250"><path fill="#1e8fca" d="M125 250a125.96 125.96 0 0 1-25.188-2.531 124.3 124.3 0 0 1-44.687-18.813 125.37 125.37 0 0 1-45.313-55A124.85 124.85 0 0 1 21.376 55.125 125.366 125.366 0 0 1 76.344 9.812a124.258 124.258 0 0 1 23.437-7.28 126.164 126.164 0 0 1 50.406 0 124.3 124.3 0 0 1 44.688 18.812 125.37 125.37 0 0 1 45.313 55 124.848 124.848 0 0 1-11.563 118.562 125.371 125.371 0 0 1-55 45.281 124.258 124.258 0 0 1-23.438 7.282A125.96 125.96 0 0 1 125 250zM85.312 113.531 70 128.844l35.813 35.844L70 200.468l15.313 15.313 51.093-51.125zm21.75-21.719-15.218 15.25 51.062 51.063 15.219-15.25zm57.626-57.562-51.094 51.094 51.094 51.125L180 121.156l-35.813-35.844L180 49.532zm0 0"/></svg>