<svg xmlns="http://www.w3.org/2000/svg" width="250" height="250"><linearGradient id="a" x1="5.32" x2="244.68" y1="125" y2="125" gradientUnits="userSpaceOnUse"><stop offset="0" stop-color="#d2f0f0"/><stop offset="1" stop-color="#f0e6b4"/></linearGradient><path fill="url(#a)" d="M244.68 125c0 66.098-53.582 119.68-119.68 119.68S5.32 191.098 5.32 125 58.902 5.32 125 5.32 244.68 58.902 244.68 125zm0 0"/><g fill="#28646e"><path d="M125 249.734C56.25 249.734.266 193.75.266 125S56.25.266 125 .266 249.734 56.25 249.734 125 193.75 249.734 125 249.734zm0-238.832c-62.898 0-114.098 51.2-114.098 114.098S62.102 239.098 125 239.098 239.098 187.898 239.098 125 187.898 10.902 125 10.902zm0 0"/><path d="M118.004 97.254c-1.125 0-2.41-.48-3.215-1.438-1.605-1.757-1.445-4.476.324-6.074 12.047-10.55 17.508-19.344 18.473-20.941 3.531-6.235 9.316-9.434 15.258-8.473 2.41.32 4.015 2.399 3.695 4.793-.32 2.399-2.41 4-4.82 3.68-3.531-.48-5.781 2.875-6.746 4.316-1.125 1.918-7.067 11.668-20.078 23.18-.805.637-1.926.957-2.891.957zM45.883 169.508c-1.285 0-2.41-.477-3.215-1.598-1.445-1.758-1.285-4.476.484-6.074 4.176-3.516 12.848-8.953 15.739-10.55 2.09-1.118 4.66-.161 5.785 1.917s.16 4.637-1.93 5.758c-2.246 1.117-10.277 6.234-14.133 9.43-.804.8-1.77 1.117-2.73 1.117zm0 0"/><path d="M153.664 129.066c1.766 1.598 3.691.957 5.461-.8 12.367-11.828 25.54-30.211 29.875-39.805.965-2.078 2.89-3.195 4.82-2.398 2.41.96 2.41 5.117.16 9.433-5.78 11.668-13.652 24.617-29.394 40.922-1.445 1.602-1.285 3.68 0 4.797 1.445 1.277 3.695 1.117 5.781-.961 8.192-8.313 13.656-14.703 18.313-21.258 1.285-1.762 2.73-2.398 4.175-2.078 2.09.477 2.41 2.394 1.766 4.793-.96 3.84-11.883 17.906-16.062 22.7-11.563 12.948-23.29 19.984-45.618 31.651-7.87 3.997-13.652 7.997-17.187 13.91-3.211 5.434-4.176 7.192-4.496 7.833-1.285 2.558-.32 5.914 2.41 7.191.8.32 1.445.48 2.246.48 2.09 0 4.016-1.277 4.82-3.195 0 0-.16.16 4.016-7.035 2.09-3.355 6.426-8.473 13.172-11.508 22.328-10.23 31.644-18.226 44.652-31.172 5.946-5.918 14.137-18.546 16.387-22.222 6.262-10.551 3.05-19.5-2.73-20.942-.485-.16-.645-.636-.485-1.117 4.34-7.515 6.426-12.629 7.23-16.625 1.126-5.437-.484-11.992-7.87-13.59-.32-.16-.645-.48-.485-.957.484-1.758.965-3.836 1.285-5.277 1.61-7.031-2.89-13.426-8.351-14.547-3.856-.797-7.227 0-10.118 2.078-.484.32-.964.16-1.285-.16-1.125-1.277-3.054-2.559-5.625-2.559-4.656-.156-9.316 1.282-12.687 8.473-2.41 5.117-5.945 11.992-16.547 23.66-9.797 10.871-23.45 21.262-31.805 26.856-1.445.96-3.531.8-3.37-1.278.32-3.199 3.695-24.14 4.335-30.375.965-10.07-4.496-14.707-10.601-15.504-4.977-.64-12.688.797-16.864 12.149-2.41 6.715-7.55 17.586-11.886 35.168-3.055 12.469-3.536 26.855-.805 43.48.16.961 0 2.078-.48 2.88-3.376 5.433-8.192 12.628-10.926 18.863-1.121 2.558-.16 5.593 2.25 6.875.804.476 1.605.636 2.57.636 1.93 0 3.855-1.117 4.82-3.035 1.606-3.36 4.977-9.754 6.262-12.469 2.25-4.636 3.695-7.675 4.34-9.593.48-1.758.96-3.836-.16-8.313-1.77-7.672-2.25-22.219.8-35.168C83.95 103.008 91.18 83.984 92.465 80.79c1.285-3.2 3.05-4.156 4.816-3.996 1.77.16 5.301.957 4.34 7.352-1.77 11.511-4.18 26.058-4.98 31.011-.485 2.399-.805 7.996 3.53 10.551 3.536 2.078 7.391.961 11.567-1.918 9.477-6.394 26.024-19.18 36.301-30.691 10.766-12.149 14.297-19.344 17.027-25.899 1.286-3.035 4.5-2.875 5.621-2.554 1.125.32 2.57 1.918 1.61 5.113-2.41 7.992-12.371 26.219-31.324 43.32-2.086 1.922-1.926 4.156-.801 5.438.96 1.117 3.05 1.918 5.3 0 17.184-14.547 26.825-31.973 31.321-41.243 2.25-4.636 3.05-7.355 3.695-9.593.965-2.715 3.051-3.676 4.496-3.356 2.09.48 3.536 2.559 2.73 6.074-.64 3.036-2.41 7.993-4.655 12.95-5.461 11.668-17.028 27.175-29.555 40.441-1.285 1.602-1.61 3.68.16 5.277zM75.36 71.438c.636-.645.476-1.29.16-1.934-.954-2.895-6.032-15.29-7.461-17.703-.633-1.29-1.586-1.45-2.54-1.125-1.269.48-2.699 1.61-5.082 3.699-2.378 2.094-3.648 3.383-4.285 4.668-.476.965-.476 1.77.637 2.574 2.223 1.61 13.652 8.531 16.352 9.82.949.32 1.586.645 2.218 0zM51.5 75.797c-1.438 0-2.078.629-2.238 1.57-.16 1.258 0 3.14.48 6.121.477 2.985.957 4.867 1.598 5.965.476.785 1.277 1.254 2.555.785 2.554-1.097 14.375-7.218 16.93-8.945.48-.316 1.116-.785.96-1.57M170.875 179.543c-.781 0-1.094.797-1.25 1.434-1.098 2.87-4.23 15.785-4.703 18.496-.156 1.433.316 2.07 1.254 2.39 1.254.32 3.133.32 6.11.16 2.976-.16 4.859-.48 6.112-.957.938-.476 1.41-1.117.938-2.55-.781-2.711-5.64-14.989-7.05-17.7-.157-.636-.626-1.433-1.411-1.273zM178.363 173.535c-.48.817.16 1.465.48 1.953 1.923 2.442 11.204 12.207 13.442 14 1.121.977 1.922.813 2.723 0 .96-.976 1.918-2.605 3.36-5.37 1.44-2.77 2.241-4.56 2.402-5.86.16-.977-.32-1.793-1.602-2.281-2.719-.813-15.844-2.93-18.883-3.09-.64 0-1.441-.164-1.922.648zm0 0"/></g></svg>