<svg xmlns="http://www.w3.org/2000/svg" width="250" height="250"><linearGradient id="a" x1="250" x2="3.906" y1="0" y2="246.094" gradientUnits="userSpaceOnUse"><stop offset="0" stop-color="#e49408"/><stop offset="1" stop-color="#aa751f"/></linearGradient><path fill="url(#a)" d="M0 0h250v250H0z"/><g fill="#fff"><path d="M117.746 35.156h.848c1.984.64 3.094 2.168 3.992 3.922.562 1.094 1.133 2.184 1.766 3.234.578.961 1.515 1.579 2.605 1.446 1.215-.145 2.086-1 2.828-2.188-.781-.257-1.73-.843-2.02-.613-.617.508-.894 1.43-1.296 2.152-.535-.687-.715-2.226-.254-2.62 1.605-1.376 2.898-1.208 4.414.644 1.844-1.332 3.777-2.594 6.125-2.774 2.324-.18 4.492.34 6.254 2-.41-.136-.77-.41-1.176-.558-1.047-.383-2.09-.864-3.172-1.035-2.676-.426-4.922.746-7.097 2.12-.66.415-.958.926-1.098 1.665-.106.547-.461 1.043-.63 1.586-.108.347-.077.738-.116 1.215 1.078-.36 1.988-.532 2.75-.957.816-.458 1.472-1.18 2.238-1.735 1.453-1.058 2.945-1.652 4.77-.754 1.023.508 2.18.758 3.293 1.063 3.222.879 4.496 2.582 4.605 5.883a8.86 8.86 0 0 0 .773 3.324c.735 1.601 3.23 2.242 4.922 1.414v-1.406l.64 1.09c.755-1.028.642-3.063-.202-3.833-.485-.445-1.078-.586-1.586-.027-.512.559-.3.988.324 1.336.242.133.402.418.602.633-.465-.035-.774-.2-1.102-.328-.355-.137-.723-.243-1.156-.383.191-.367.36-.711.543-1.047.703-1.277 1.652-1.441 2.738-.477 1.024.914 1.348 2.602.75 3.985-.176.41-.367.812-.566 1.242 1.968 1.281 2.437 3.059 2.265 5.227-.054.722.418 1.652.942 2.21.879.938 2.441.536 2.644-.574.278.203.54.399.805.59.078-.41-.106-.719-.11-1.027-.007-.754-.097-1.567.153-2.246.434-1.188 1.508-1.262 2.34-.285-.512.042-1.344-.075-1.473.171-.36.688-.43 1.524-.613 2.301.101.02.195.043.297.063.59-.852 1.18-1.7 1.77-2.547.757.574.921 1.937 2.296 1.715.098-.012.293.359.379.578.684 1.738-.352 3.683-2.297 4.441-.336.133-.582.5-.867.758l.02-.031c-.672-.625-1.344-1.25-2.09-1.946-.637.11-1.387.235-2.141.364-.133.937.625 1.004 1.117 1.172 1.352.457 2.051 1.375 2.238 2.754.07.507.192 1.007.25 1.32.934.277 1.739.465 2.504.754 1.16.437 2.29.957 3.442 1.418.453.183.949.261 1.394.457 1.477.64 2.078 2.293 1.262 3.554-.23.356-.66.586-1.156 1.004 2.625 1.453 2.41 3.72 2.062 5.903.469.265.84.476 1.211.683l.02-.02c-.418.094-.844.188-1.281.282l-.446-1.25c-.562.488-1.039.902-1.61 1.402.407.157.641.246 1.009.39-.641.493-1.176.903-1.91 1.47.707.203 1.187.336 1.667.48 2.204.676 3.368 2.871 2.332 4.64-.773 1.333-.714 2.669-.535 4.079.106.832.532 1.281 1.29 1.598 3.3 1.382 6.585 2.796 9.859 4.234 3.324 1.453 4.48 5.168 2.601 8.234-.882 1.442-1.86 2.79-3.453 3.551 1.067.895 2.082 1.7 3.043 2.559.813.734.988 1.718.692 2.722-.625 2.137-2.739 3.309-4.907 2.715-.699-.187-1.343-.582-2.027-.84-.414-.152-.867-.316-1.297-.308-.738.015-1.66 1.062-1.64 1.816.019.813.69.809 1.265.977.738.222 1.48.48 2.152.843 1.16.625 1.508 1.692 1.075 2.961-.09.262-.192.516-.297.797.133.106.238.2.347.278 1.645 1.16 1.739 1.609.844 3.382-.656 1.305-1.242 2.645-1.898 4.059 1.097-.164 2.05-.363 3.011-.434.891-.07 1.813.075 2.297.942.532.953.598 2.012-.03 2.933-.317.465-.895.747-1.419 1.157.504.828.996 1.644 1.527 2.527-.89.707-1.37 1.594-.617 2.89.219.38.04 1.13-.191 1.594-.621 1.25-1.457 2.391-2.047 3.653-.594 1.277-1.613 1.773-2.879 2.004-.168.03-.402.007-.504.109-.27.281-.484.613-.719.926.258.195.489.453.782.562.293.118.644.086 1.222.14-1.015.532-1.832.423-2.25-.26-.734-1.216.625-1.516 1.313-2.184-.414-.235-.738-.43-1.07-.602-1.762-.914-1.825-1.082-1.083-2.922.711-1.762-.05-2.844-1.968-2.844-.16.965-.32 1.926-.414 2.48.398.7.703 1.102.867 1.556.187.523.27 1.09.36 1.644.144.879.257 1.766.39 2.715l-1.719.191c.024.868.629 1.008 1.211 1.141 1.832.418 2.856 1.64 3.145 3.406.168 1.04.03 2.125.03 3.086.407-.574 1.06-.664 1.88-.304 2.09.917 4.191 1.8 6.304 2.652 3.93 1.59 7.88 3.12 11.801 4.73 1.215.5 2.39 1.118 3.52 1.79.933.554 1.832 1.199 2.625 1.93.566.523 1.035 1.214 1.355 1.917.446.973.707 2.027 1.051 3.047v.426c-.344.328-.691.656-1.07 1.02-.086-1.157-.086-2.321-.29-3.446-.199-1.113-.628-2.176-1.995-2.738.343 1.437.667 2.68.933 3.933.555 2.617.422 5.031-2.27 6.688v-4.567h-.328c-.05.828.012 1.676-.167 2.47-.336 1.483-.5 3.14-1.297 4.355-1.082 1.648-2.692 2.957-4.082 4.402-.145.152-.352.25-.528.375-.082-.04-.164-.078-.246-.121.192-1.016.457-2.028.547-3.055.09-1.047.055-2.113-.02-3.164-.07-.992-.269-1.977-.414-2.96-.101.003-.207.01-.312.015-.043.191-.11.379-.121.574-.13 2.527-.457 5.07-.317 7.586.13 2.3-1.21 3.387-2.761 4.578-.114-.379-.215-.68-.29-.98-.765-3.02-1.515-6.047-2.296-9.063-.137-.527-.406-1.02-.664-1.66-.27.754-.344 1.625-.657 1.723-.972.3-.55.816-.41 1.34.137.507.278 1.015.407 1.523.414 1.61.82 3.219 1.23 4.828a5.51 5.51 0 0 1-.23.086c-.454-.977-.903-1.957-1.243-2.684-.484.63-.922 1.297-1.468 1.871-.38.403-.875.715-1.368.985-1.015.558-1.496 1.476-1.691 2.543-.172.93-.246 1.883-.312 2.828-.063.879.632 1.59 1.539 1.644.351.02.699.036 1.05.051l.094.344c-3.137 2.11-6.277 4.215-9.414 6.324l-.398-.129c-.176-1.965-.395-3.926-.512-5.894-.035-.625.07-1.22-.688-1.446-.668-.195-1.191-.136-1.562.61-.453.906-1.047 1.742-1.559 2.625-.37.633-.804.773-1.472.406-.395-.215-.88-.277-1.32-.41-.032.086-.063.176-.094.262l6.843 4.171c-.05.125-.097.247-.144.372-.375-.094-.793-.102-1.11-.29-5.226-3.148-10.441-6.32-15.574-9.433-.035.926.09.988 1.235 1.664 3.207 1.883 6.402 3.785 9.546 5.762 1.442.906 2.762 2.015 4.13 3.023-.856.926-1.594.84-2.516.184-3.496-2.493-7.047-4.899-10.57-7.348-.985-.684-1.938-1.414-3.133-2.289.113.941.12 1.648.297 2.305.296 1.074.683 2.125 1.07 3.175.094.25.312.497.539.649 1.101.754 2.23 1.473 3.348 2.203.316.137.77-.031 1.234-.18 1.277-.406 2.414.176 2.789 1.477.289 1 .508 2.027.789 3.168-2.164.93-4.336 1.867-6.258 2.695-.672-.406-1.097-.87-1.566-.91-1.11-.102-1.805-.676-2.371-1.535-.192-.297-.387-.594-.578-.887-.079.031-.157.063-.235.09.106 1.59.215 3.18.328 4.887-2.629.785-5.234 1.566-7.964 2.379-.16-6.942.066-13.664 1.628-20.297.29-1.239.985-1.922 2.168-2.121 1-.164 2.02-.317 3.024-.286.898.028 1.316-.27 1.39-1.12-1.515-1.184-3.238-1.606-5.16-1.56-.129.446-.258.91-.41 1.438-.988-.418-1.95-.824-3.082-1.308-.34 8.668-.668 17.054-1.004 25.535l-4.254.828c.95-.93 2.64-1.41 1.797-3.313-.812.622-1.543 1.176-2.273 1.73.695-1.433 2.304-2.12 2.754-3.882-1.106.64-2.082 1.211-3.055 1.774.851-1.368 2.98-1.532 3.059-3.7-1.22.801-2.344 1.54-3.465 2.274 1.152-1.676 3.363-2.328 3.84-4.813-1.25.746-2.31 1.38-3.368 2.008-.054-.094-.109-.18-.168-.273.762-.536 1.524-1.067 2.282-1.61.836-.597 1.414-1.336 1.312-2.566-1.062.7-2.043 1.344-3.023 1.988l-.235-.207c1.266-1.3 3.39-1.976 3.422-4.379a515.34 515.34 0 0 1-2.238 1.719c.676-1.426 2.215-1.98 2.078-3.781-1.008.949-1.867 1.754-2.727 2.558l-.218-.234c1.101-1.508 3.074-2.332 3.644-4.418-1.48-.215-2.004 1.254-3.082 1.543.844-1.477 3.246-1.875 2.906-4.367-1.074.719-1.988 1.336-2.906 1.945-.043-.062-.09-.125-.137-.187 1.008-1.086 2.012-2.172 3.016-3.254-.058-.075-.117-.149-.18-.223-.878.441-1.753.887-2.566 1.293 0-.305.106-.723-.023-.82-.188-.141-.575-.118-.829-.032-.398.133-.757.375-1.132.575-.051-.082-.106-.16-.157-.239 1.332-1.18 2.664-2.355 3.993-3.535-.028-.023-.055-.043-.079-.066-1.667.816-3.335 1.633-5.003 2.445-.055-.113-.114-.223-.168-.332.886-.437 1.77-.875 2.66-1.309-.04-.085-.078-.171-.114-.257-1.027.273-2.054.539-3.082.812-.015-.05-.035-.101-.05-.152l4.082-1.7c-.024-.113-.051-.226-.078-.34-1.512-.523-2.836.919-4.325.692.532-.324 1.082-.543 1.633-.758.992-.394.992-.394 1.149-1.054l-2.207.68c.578-.434.921-.7 1.265-.962-.02-.03-.039-.066-.058-.097l-4.704 1.418c-.054-.153-.113-.301-.171-.453 1.574-.688 3.148-1.375 4.718-2.063-.043-.098-.09-.2-.132-.297-1.333.383-2.668.766-3.997 1.153-1.187.347-1.187.351-2.207-.48 1.692-.708 3.368-1.411 5.043-2.11-.03-.125-.062-.246-.093-.371-.34.02-.707-.036-1.012.074-1.25.457-2.48.969-3.723 1.445-.3.113-.625.168-.933.254 2.109-.945 4.898-2.562 5.156-3.215-1.887.656-3.774 1.317-5.66 1.973-.035-.09-.067-.176-.106-.262l5.239-2.86c-.04-.077-.079-.155-.118-.234-1.922.868-3.847 1.739-5.77 2.606-.042-.102-.089-.203-.132-.3 1.43-1.177 3.54-1.333 4.602-3.087-2.024.98-3.883 2.371-6.282 2.383 2.274-.707 4.04-2.156 5.723-3.762-.605.043-1.16.215-1.555.567-1.492 1.34-3.12 2.34-5.226 2.34a45.856 45.856 0 0 1 3.078-1.442c.992-.426 1.27-.863 1.074-1.715-1.43.5-2.867.996-4.305 1.5-.054-.133-.109-.261-.164-.394.973-.532 1.989-1 2.914-1.61.938-.613 1.797-1.347 2.668-2.062 1.864-1.531 1.887-1.578 2.051-2.45-2.176 1.465-3.976 3.524-6.71 4 .136-.23.323-.382.519-.523 1.629-1.168 3.265-2.328 4.879-3.512.21-.156.328-.437.488-.66-.082-.058-.164-.125-.246-.183-1.113.777-2.27 1.398-3.746 1.11 1.344-.833 2.613-1.583 3.832-2.4.265-.175.351-.609.582-1.038-1.414.66-2.59 1.207-3.766 1.754.703-.883 1.516-1.528 2.281-2.223.157-.145.145-.477.211-.719-.277.02-.586-.039-.824.066-.785.352-1.539.758-2.305 1.145-.042-.082-.085-.16-.128-.242l2.796-1.922-.148-.215c-.816.285-1.633.57-2.602.91.61-1.343 2.422-1.125 2.762-2.746-1.316.653-2.43 1.203-3.547 1.75-.05-.086-.105-.168-.156-.254 1.184-.863 2.387-1.707 3.543-2.61.352-.269.566-.71.844-1.073a9.343 9.343 0 0 0-.227-.184c-1.16.676-2.32 1.36-3.476 2.04-.004-.25.074-.364.172-.454 1.148-1.039 2.332-2.043 3.43-3.129.382-.379.554-.96.823-1.45-.09-.046-.175-.093-.265-.14-2.871 3.266-3.903 3.985-5.332 3.727 4.55-3.063 4.945-3.465 4.601-4.715-1.265.688-1.582 2.727-3.64 2.484 1.175-1.101 2.261-2.12 3.351-3.144-1.363.215-2.133 1.683-3.96 1.41 1.433-.953 2.648-1.715 3.804-2.559.336-.246.508-.722.754-1.09-.106-.085-.211-.167-.316-.253-1.086 1.304-2.305 2.402-4.047 2.773.957-.851 1.91-1.707 2.863-2.559l-.2-.277-2.163.836c.195-1.195.347-2.363.593-3.508.067-.316.399-.582.61-.867a5.364 5.364 0 0 0-.246.04l.203-4.063c-.723.968-1.348 1.808-1.973 2.652-.035-.059-.07-.113-.101-.172-.504.352-1.008.695-1.622 1.125.473.27.688.39.895.508-.844.746-1.633 1.45-2.426 2.148.055.07.106.145.164.215.457-.285.895-.601 1.375-.84.16-.078.418.036.633.059-.086.195-.133.43-.273.574-.137.145-.364.2-.551.301-2.586 1.414-5.328 1.504-8.133.914-.945-.203-1.867-.535-2.797-.809.031-.12.063-.242.098-.367 1.336-.543 2.555.34 3.836.422 1.36.086 2.687.047 4.031-1.035-.664 0-1.078.023-1.488-.004-1.785-.129-3.574-.21-5.34-.457-.555-.074-1.047-.605-1.567-.93.047-.086.098-.175.149-.261 2.422-.063 4.82 1.312 7.371.238l-.328-.7c-.578.075-1.082.266-1.531.176a58.593 58.593 0 0 1-4.7-1.105c-.414-.117-1.07-.648-1.023-.879.164-.851.816-.277 1.273-.234 1.336.12 2.672.27 4.008.41.809-.086 1.617-.172 2.422-.254-.777-.215-1.516-.223-2.254-.195-.05.004-.094.308-.14.472-1.246-.406-2.512-.773-3.739-1.234-.89-.336-2.125-.242-2.312-1.606h1.55c-.613-.578-.984-.925-1.523-1.43v1.462h-.867c.258.523.512 1.031.691 1.402-.507.25-.808.383-1.093.543-.309.172-.602.367-.946.586 1.004.602-.386.691-.293 1.152.18.293.36.582.535.875l-.117.227c-1.937-.887-4.265-.563-5.976-2.156-.149-.133-.34-.282-.528-.305-1.043-.121-2.09-.203-3.293-.316.88.546 1.657 1.03 2.5 1.558-.34.203-.558.336-.82.492.68.414 1.285.782 1.89 1.153a7.54 7.54 0 0 1-.136.312c-1.14-.418-2.277-.844-3.45-1.277-.445.887.06 1.304.747 1.644l3.512 1.723c-.036.086-.07.172-.102.258-.754-.125-1.543-.153-2.262-.39-1.664-.552-1.652-.595-2.062-.282l4.347 2.039c-.039.102-.074.207-.109.309-1.535-.434-3.07-.871-4.601-1.309-.047.129-.098.254-.145.383 1.992 1.707 4.3 2.765 7.035 3.02-.398.234-.781.429-1.113.363-1.156-.235-2.34-.446-3.426-.883-1.133-.457-2.148-1.192-3.242-1.75-.418-.211-.91-.281-1.367-.418-.035.097-.074.2-.11.293 1.356 1.32 2.606 2.746 4.707 3.031 1.168.156 2.305.59 3.442.95.273.085.492.355.836.613-3.684.585-6.414-.93-8.985-3.102.086.457.211.879.461 1.21.938 1.263 2.211 2.04 3.739 2.395 1.324.31 2.656.598 3.988.895v.344c-1.688.613-3.492-.633-5.442.062l7.418 3.07c-.046.122-.09.239-.132.356-3.012-.234-5.746-1.352-8.52-2.906.086 2.37-.984 4.172-2.422 5.812.098.059.196.114.293.168l2.262-3.066c-.215.933-.594 1.816-.863 2.734-.121.414-.02.895-.02 1.41-.371.063-1 .168-1.848.313.543.488.883.8 1.356 1.23-1.633-.015-3.16-1.191-4.55.254l3.218 1.535c-.05.125-.098.254-.145.38l-3.984-.954v1.422l3.383 1.64a14.44 14.44 0 0 1-.149.368c-1.078-.219-2.152-.434-3.23-.652l-.266.253c.317.461.57 1.004.977 1.368.449.398 1.043.64 1.578.945-.059.113-.11.23-.164.344-.695-.172-1.387-.34-2.082-.512-.04.098-.078.195-.117.297 1.18.57 2.363 1.148 3.543 1.722-.051.125-.106.25-.157.375l-3.336-1.238c.11 1.899 2 1.817 2.887 2.871-.887-.336-1.773-.668-2.66-1.004-.07.098-.137.196-.207.293.605.524 1.21 1.043 1.816 1.567a4.042 4.042 0 0 0-.125.14c-.48-.144-.964-.289-1.386-.414-.29 1.457.507 1.922 1.566 2.286.781.269 1.5.714 2.25 1.082-.031.09-.07.171-.102.257-1.07-.308-2.144-.617-3.257-.941.207 1.512.195 1.535 1.285 2.152 1.3.739 2.629 1.422 3.945 2.133-.05.098-.097.195-.148.293l-4.02-1.941c.117 2.824 2.477 3.597 4.176 4.988a731.9 731.9 0 0 1-2.719-.79c.946 2.134 3.137 2.52 4.43 4.02-1.23-.648-2.457-1.293-3.723-1.964.004 1.148.285 1.867 1.403 2.382 1.367.637 2.554 1.653 3.824 2.504-.051.086-.102.172-.153.262l-4.457-2.29c-.015 1.536.551 2.645 2.043 3.22 1.032.398 2.032.89 3.043 1.343l-.171.387a1724.07 1724.07 0 0 0-4.215-1.82c-.164 1.426.336 2.207 1.62 2.722 1.29.516 2.548 1.118 3.821 1.684-.047.113-.094.223-.137.332-1.586-.578-3.172-1.16-4.746-1.734-.168 1.601.098 2.242 1.094 2.586 1.348.465 2.695.925 4.043 1.402.5.184.988.402 1.48.606-.046.132-.097.261-.144.394-2.106-.73-4.211-1.46-6.281-2.18-.164 1.184-.035 1.602 1.09 2.184 1.835.945 3.722 1.8 5.585 2.691.274.133.543.27.813.407-.04.082-.082.164-.125.242-2.672-.403-4.965-1.754-7.32-3.246.304 1.773.785 3.172 2.43 3.847 1.265.52 2.48 1.149 3.734 1.703.851.375 1.722.708 2.586 1.06-3.094-.118-5.559-1.794-8.164-3.321-.18 1.582.023 2.808 1.562 3.469-1.473-.204-2.852-.446-4.203-.79-.3-.078-.695-.472-.738-.77-.465-3.085-.836-6.183-1.293-9.273-.45-3.046-.856-6.105-1.5-9.109-.434-2.012-1.293-3.922-1.883-5.898-.602-2.012-1.11-4.051-1.703-6.258-1.219 2.945-2.387 5.754-3.524 8.582-.082.207-.004.57.137.758 1.82 2.43 3.223 5.082 4.266 7.93.324.878.66 1.773.816 2.69.262 1.59.371 3.204.574 4.805.23 1.825.492 3.645.774 5.715-3.075-.98-5.914-1.863-8.739-2.789-1.636-.539-1.625-.613-1.437-2.308.062-.582.176-1.442-.133-1.711-.644-.559-1.266.164-1.86.504-.679.382-.777.84-.234 1.43.196.214.336.476.5.718-.039.05-.082.102-.12.156l-5.75-2.492c1.148-1.207 2.202-2.328 3.273-3.43 3.332-3.433 6.14-7.171 7.047-12.054-4.985-.922-10.254-.45-15.215-2.246 4.316.37 8.629.746 13.031 1.125.477-2.465.934-4.871 1.406-7.278.25-1.265-.183-2.25-1.289-2.91-.176-.105-.39-.265-.43-.437a92.294 92.294 0 0 1-.863-4.106c-.043-.242.07-.676.246-.773 1.207-.668 1.79-1.918 2.746-2.813.075-.07.192-.09.278-.148 1.168-.79 1.531-1.61 1.308-2.992l-.96.808-.626-3.601c-.648.261-1.367.55-2.265.914.347-1.313.648-2.438.949-3.559-.047-.02-.094-.043-.14-.062l-.786.886v-5.535l-.527-.035c-.07.54-.363 1.191-.164 1.598.586 1.207.234 2.343.012 3.5-.38 1.945-.797 3.882-1.2 5.824l.184.082c.601-.75 1.203-1.492 1.918-2.383v6.137c-2.016.312-2.399.879-1.817 2.805.43 1.421.43 2.82.114 4.265-.125.582-.192 1.38.101 1.809.524.77.489 1.504.368 2.304-.098.66-.239 1.313-.36 1.97-.406 2.28-.652 2.48-3.031 2.237-3.074-.312-6.156-.62-9.223-1-2.793-.351-5.398-1.218-7.652-3.003-.703-.555-.805-1.086-.332-1.79.375-.55.746-1.109 1.144-1.644 1.164-1.57 2.344-4.793 2.227-6.285-2.586 3.656-4.754 7.52-8.512 10.367l7.406 2.559c-1.671.261-3.449-.348-5.242-1.02-1.55-.578-2.91-1.184-2.375-3.375a8.492 8.492 0 0 1-.304.066c-.602.77-1.2 1.54-1.856 2.375 5.133 2.633 10.18 4.887 16.012 4.75 2.617-.062 5.27.23 7.86.657 1.655.27 3.241 1.039 4.831 1.656.242.094.54.61.48.848-.48 1.972-1.28 3.808-2.784 5.23a442.61 442.61 0 0 1-6.754 6.23c-.207.184-.61.149-.922.212a25.177 25.177 0 0 1-.07-.266c1.601-1.512 3.203-3.02 4.8-4.527a6.397 6.397 0 0 0-.183-.266l-2.743.84c.637-1.656 1.18-3.063 1.723-4.469l-.496-.207c-1.43 2.703-2.863 5.402-4.3 8.121-.278-.125-.54-.226-.786-.36A103.023 103.023 0 0 1 56.47 194.16c-.309-.262-.489-.836-.496-1.27-.063-3.132-.063-6.269-.082-9.402v-1.187c-.54.137-.93.238-1.426.363-.145-1.418-.281-2.777-.445-4.36-1.442 1.68-2.715 3.16-4.032 4.696 1.184.852 2.258 1.625 3.36 2.414l.918-1.512c.68 2.922.375 5.559.027 8.344-.266-.226-.406-.328-.527-.445-2.09-2.074-4.153-4.184-6.286-6.211-1.128-1.07-1.648-2.172-1.359-3.8.29-1.634-.738-2.821-2.039-3.876-.305.906-.574 1.715-.855 2.543-.707-.36-.75-.828-.536-1.504.61-1.945 1.875-3.183 3.883-3.375 2.446-.23 4.442-1.355 6.477-2.582 2.515-1.52 5.164-2.816 7.73-4.254.946-.535 1.63-1.219 1.852-2.469.195-1.101.758-2.293 1.52-3.113 1.882-2.039 1.964-1.965.96-4.625-.039-.101-.074-.2-.117-.293-.496-1.105-.066-1.965.707-2.738.164-.16.332-.313.512-.48-.137-.172-.211-.294-.313-.383a7.303 7.303 0 0 0-.582-.457c-1.578-1.153-1.582-2.625.059-3.657.875-.55 1.844-.953 2.77-1.422.261-.128.519-.265.816-.421-3.133-3.02-3.207-3.336-1.48-6.426-1.07-1.04-1.473-2.367-1.294-3.926-1.011.578-1.011.578-.765 3.121-1.07-1.012-.922-3.039.379-3.52 1.011-.374 2.156-.421 3.246-.542.504-.055 1.027.07 1.566.113-.387-.816-.734-1.547-1.11-2.332-1.089-.129-2.3-.227-3.495-.43-.914-.16-1.852-.347-2.684-.73-.664-.305-1.183-.922-1.77-1.403-.542 2.91-.542 2.91-5.285 5.172.36.797 1.04.895 1.809.989.922.113 1.906.242 2.715.652 1.133.578 1.734 1.648 1.562 2.98-.152 1.16-1.004 1.72-2.02 2.055-.593.195-1.222.293-1.827.461-.969.273-1.754-.008-2.301-.824-.582-.871-.602-1.797-.016-2.711.118.394.086.793.121 1.183.121 1.352.82 1.899 2.141 1.586.773-.187 1.566-.433 2.262-.812 1.402-.766 1.43-2.328.015-3.07-.851-.446-1.859-.579-2.777-.899-.613-.21-1.297-.379-1.77-.781-.648-.543-1.128-1.29-1.671-1.953-.496-.606-.707-1.352-.118-1.895.375-.344 1.086-.328 1.645-.472.02.105.043.207.062.308l-1.5.66c.668 1.825 1.079 2.078 2.262 1.422-.3-.18-.59-.351-.89-.527.078-.086.093-.125.117-.13.488-.065.976-.124 1.46-.198.9-.133 1.22-.758 1.036-1.653-.281-1.41-1.281-1.78-2.5-1.957-.926-.136-1.766-2.18-1.278-2.957.852-1.36 1.934-2.226 3.856-1.754-.652-1.308-1.207-2.394-1.738-3.492-.649-1.332-.516-1.91.636-2.824.61-.48 1.207-.973 1.84-1.414 1.192-.82 2.41-1.496 3.942-1.586.757-.043 1.488-.582 2.23-.895l-.07-.316c-.79-.36-1.574-.723-2.363-1.082-1.028-.465-1.7-1.25-2.004-2.316-.465-1.61 1.05-5.625 2.488-6.512 1.254-.774 2.36-.922 3.465.125.402.379.883 1.176 1.566.558.418-.375.578-1.043.852-1.582-.528-.199-1.051-.425-1.594-.585-.223-.063-.488.019-.734.039-1.598.128-2.547-.743-2.5-2.36.046-1.613.945-2.805 2.168-3.687 1.23-.883 1.953-2.418 3.593-2.778.207-.043.34-.359.543-.488.555-.352.469-.727.2-1.242-.493-.938-1.32-1.317-2.266-1.555-1.285-.324-1.973-1.191-2.102-2.46-.156-1.606.274-3.012 1.368-4.274 1.69-1.961 3.921-3.04 6.214-4.031 2.43-1.055 3.387-2.793 2.743-5.368-.176-.707-.739-1.316-1.098-1.988-1.266-2.351-1.633-4.937-.192-7.144 2.118-3.243 5.434-4.57 9.31-4.11 1.76.211 3.413.16 4.73-1.101 2.132-2.047 2.57-3.657-.415-5.047-.285-.133-.632-.184-.863-.38-.523-.44-1.222-.859-1.449-1.444-.977-2.547.691-5.754 3.344-6.575.445-.136.953-.086 1.433-.105.309-.016.785.129.907-.02.71-.894 1.671-1.77 1.949-2.808 1.12-4.27 4.781-6.383 9.008-4.989.43.145.863.293 1.3.41.547.141.903.051 1.075-.62.207-.805.601-1.567.91-2.348.992-2.5 3.117-3.238 5.515-3.504 1.707-.184 3.426-.29 5.137-.43zm65.371 101.258c-.176.113-.383.2-.515.352-.145.156-.22.375-.325.57.215.016.457.11.637.039.492-.188.953-.445 1.43-.68-.024-.09-.047-.175-.067-.265h-1.187l1.168-.332c-.926-1.305-2.059-1.059-3.801-.121.457.183.758.378 1.082.414.52.062 1.05.02 1.578.023zm-24.324 45.652-.695 1.246c.168.09.422.293.488.247.383-.29.734-.63 1.066-.977.09-.094.078-.285.125-.484h-1.027c.156-.118.305-.239.707-.555h-5.25l1.434.648c-.516.114-.926.168-1.309.305-.172.066-.281.297-.422.453.172.113.34.324.512.332.777.035 1.555.016 2.41.016-.035-.371-.062-.656-.094-.977.688-.082 1.371-.172 2.055-.254zm-2.164-84.101v4.765c1.344-.933 1.559-2.12.926-4.214-.184-.61-.438-.723-.965-.512-.324-.41-.645-.813-.938-1.18-.84.211-1.593.399-2.613.653.477.523.781 1.16 1.172 1.218.687.11.844.434.96.993.15.703.364 1.39.552 2.085.129-.035.257-.062.386-.093-.148-1.32-.297-2.637-.457-4.04.383.13.68.227.977.325zm-7.379-23.488c.434-.875.906-1.73 1.293-2.625.512-1.188-.078-2.086-1.566-2.04 1.675.82.953 1.747.398 2.665-.094.148-.207.289-.277.449-.746 1.668-1.778 3.226-1.348 5.242.375 1.773 1.344 2.277 3.016 1.289-.41-.121-.778-.219-1.133-.344-1.11-.386-1.68-1.472-1.32-2.61.175-.554.48-1.065.722-1.597-.097 1.035-.605 2.094.219 3.102.043-.297.082-.598.16-1.153.188.41.25.563.328.711.574 1.09 1.613 1.528 2.836 1.192 1.192-.328 1.79-1.067 1.637-2.317-.05-.406-.531-.902-.938-1.078-.265-.117-.746.254-1.132.41.039.118.082.235.12.352.294-.035.587-.113.876-.105.566.02 1.035.84.632 1.113-.628.43-1.43.863-2.14.832-.836-.031-1.547-.653-1.547-1.688 0-.843-.156-1.718.625-2.37.148-.126.172-.395.25-.598-.07-.055-.14-.114-.211-.168-.5.445-1 .886-1.5 1.336zm-73.371 26.84c.988.03 2.027-.692 3.02.203-.348.28-.66.523-1.208.957h2.356L78.78 98.87l-.722.574c.242-1.351.27-2.718 1.515-3.593.785-.551.735-1.418.684-2.262-1.582-.18-.707 1.55-1.621 1.91-.082-.164-.149-.32-.23-.465-.087-.16-.188-.316-.302-.496-1.18 1.332-1.699 4.348-1.117 5.633-.386.418-.734.793-1.086 1.164-1.289.543-1.578 1.176-.742 1.812.242-.62.48-1.226.719-1.832zm12.031-1.434c.063-.828.125-1.653.188-2.508-1.262.094-.989.93-1.024 1.64-.031.653.246.9.867.837-.164.988.254 1.757.868 2.492.742.883.66 1.699-.192 2.496-.351.328-.719.644-1.25 1.12 1.32.024 1.969-.632 2.453-1.444.508-.844.305-1.68-.25-2.461-.215-.301-.601-.797-.507-.942.402-.61.953-1.12 1.44-1.66.231.563.419 1.016.602 1.465.442-.586.735-.996 1.047-1.383.575-.7 1.371-1.305 1.692-2.101.656-1.625-.649-3.72-2.383-4.086-.254-.051-.555.093-1.004.18.398.32.711.468.863.718.274.438.711 1 .614 1.395-.168.691-.157 1.609-1.286 1.808-.488.086-.847.82-1.296 1.23-.465.423-.961.805-1.442 1.204zm33.371-50.067c.524 1.973.985 3.977 2.88 5.22-.68-1.72-1.497-3.368-2.345-5-.066-.13-.37-.13-.562-.192.668-1.453.016-3.344-1.5-4.239-1.152-.68-2.328-1.304-3.488-1.972-.305-.176-.579-.406-1.114-.79.668-.093 1.008-.202 1.336-.183 2.207.145 3.774 1.14 4.512 3.317.43 1.261.91 2.503 1.477 3.703.12.25.726.27 1.105.394.031-.363.195-.781.07-1.074-.527-1.219-1.16-2.39-1.718-3.598-.817-1.757-2.118-2.922-3.985-3.488-1.129-.34-2.004-.191-2.969.629-.808.691-1.972.957-2.98 1.41-.066-.113-.137-.226-.203-.34.226-.332.422-.699.687-1 1.516-1.71 3.477-1.968 5.59-1.652.711.105 1.414.266 2.211.418-.336-1.117-.48-2.137-.957-2.973-.3-.523-1.055-.926-1.683-1.086-.56-.14-1.23.082-1.829.239-1.175.308-2.382.582-3.476 1.082-.496.222-.852.433-1.41.293-1.332-.344-2.258.12-3.09 1.191-.692.898-.38 1.848-.258 2.734.078.582.64 1.098 1 1.633.05.074.18.102.281.14 1.254.466 1.438 1.223.547 2.415-.238-.156-.48-.313-.883-.578.43 3.543.008 7.156 3.254 9.347-.558.133-1.14.18-1.633.414-.648.31-1.226.145-1.433-.585-.082-.286-.07-.598-.11-.954-.886 1.133-.652 2.075.684 2.7 1.254.586 2.547 1.093 4.012 1.714-.367.293-.66.536-.957.774l-.012.262c.336 0 .684.054 1.008-.012.523-.11 1.031-.297 1.547-.45.343-.1.922-.12.984-.312.106-.328-.047-.785-.203-1.14-.523-1.196-1.45-2.028-2.516-2.762-1.636-1.13-2.968-2.531-3.125-4.645-.14-1.965.399-3.808 1.391-5.5.215-.367.637-.664 1.031-.86 2.16-1.077 4.145-.429 6.086 2.044-1.144-.25-2.16-.469-3.176-.691-1.652-.364-2.726.132-3.703 1.527-1.058 1.52-.93 4.07-.254 4.777 1.907 2 3.868 3.953 5.942 6.063-.09-.543-.012-1.149-.278-1.47-1.027-1.222-2.058-2.487-3.293-3.487-1.335-1.078-2.175-2.844-1.714-4.504.265-.961 1.468-2.375 2.035-2.313 2.367.278 4.664.711 6.293 2.727.222.285.59.46.894.683zm-12.797 16.602c.508-1.973-1.78-1.711-2.117-2.984-1.465 1.086-1.465 1.113-3.23 1.011-.98-.054-1.953-.246-2.93-.324-1.703-.133-3.277.617-3.781 1.82 1.48-1.183 3.047-1.77 4.73-1.195-.832.395-1.777.754-2.629 1.27-.761.457-1.418 1.093-1.304 2.125.117 1.054.984 1.351 1.785 1.726.582.27 1.133.594 2 1.051-.906.535-1.5.89-2.098 1.242.383.188.867.332 1.149.156.586-.37 1.3-.82 1.53-1.406.313-.808-.437-1.312-1.124-1.66-.438-.223-.91-.383-1.324-.645-.38-.238-.7-.574-1.047-.867.351-.394.629-.972 1.066-1.144 1.418-.567 2.88-1.074 4.363-1.418.676-.156 1.45.125 2.293.219-.246.44-.351.625-.425.761.363.168.656.301.953.438-.168.234-.336.469-.496.707-.45.672-.887 1.347-1.364 2.062 1.368.082 2.582-1.023 4.168-.574-1.965.918-4.07.86-5.55 2.367l4.226-1.23c.04.133.078.265.113.394-1.773.73-3.55 1.465-5.328 2.196l.106.296c1.332-.433 2.664-.867 3.996-1.296.047.125.09.25.137.375-2.274 1.187-4.551 2.37-6.829 3.554.059.114.118.227.172.34 1.582-.762 3.164-1.527 4.743-2.293.062.125.128.25.19.375l-4.804 2.977c.047.082.094.16.137.238 1.41-.422 2.422-1.937 4.418-1.691-1.356.886-2.52 1.543-3.559 2.355-1.023.8-2.234 1.512-2.375 3.063.676-.52 1.172-1.22 1.801-1.762 1.379-1.2 1.422-1.176 2.102-.871-1.602 1.066-2.875 2.39-3.692 4.14l1.246-.785a25.158 25.158 0 0 1-2.242 3.805c-.535.75-.629 1.406-.367 2.32.555 1.934 1.71 3.809.812 5.969.403-.023.7-.047 1.254-.082-.828.594-1.453 1.043-2.078 1.488.031.082.063.164.098.246.488-.058.973-.12 1.457-.18.078.083.16.16.238.243-.52.367-1.039.73-1.558 1.097.046.047.093.086.136.133.399-.043.797-.078 1.325-.132-.317.46-.547.792-.848 1.222.457-.05.793-.086 1.348-.148-.993.812-1.813 1.488-2.633 2.16.043.082.082.164.125.246l2.086-.68c.023.043.05.086.078.125l-2.356 2.063c.055.07.11.136.164.207l2.43-1.488c.047.074.09.148.133.222-.762.906-1.516 1.809-2.102 2.504.703-.379 1.66-.894 2.614-1.41.062.102.125.2.183.3-1.125.778-2.758 1.005-2.988 2.782.648-.477 1.289-.953 1.934-1.434l.144.196c-.2.308-.402.62-.687 1.066.726-.11 1.273-.187 1.832-.27-.875.801-1.707 1.56-2.536 2.313.075.082.149.168.223.25.512-.3 1.024-.594 1.531-.902.5-.301.938-.864 1.688-.407-2.817 1.547-3.106 1.836-2.903 2.97.848-.595 1.676-1.173 2.504-1.75.047.077.098.155.149.234-.824.726-1.649 1.457-2.473 2.187l.211.246c.82-.422 1.64-.844 2.457-1.262.028.055.05.11.078.165-.808.699-1.62 1.402-2.484 2.152l.71.656c.524-.39.962-.715 1.4-1.043-.348.727-.856 1.25-1.294 1.82-.11.137-.011.438-.007.665.21-.036.433-.043.632-.114.352-.125.688-.289 1.035-.437.051.101.098.207.149.308-.356.496-.707.993-1.172 1.637.55-.156.926-.266 1.43-.41-.2.86-.367 1.586-.555 2.402l.734-.195c-.097.75-.195 1.45-.285 2.148.067.02.133.04.203.055.309-.473.621-.945 1.098-1.68-.16 1.258-.281 2.196-.402 3.13.101.011.199.019.297.03.203-.562.406-1.12.714-1.976.528 1.504-.18 2.894.633 4.176.528-.824-.488-1.73.66-2.278.051.743.051 1.399.153 2.043.101.61.308 1.2.468 1.797.125-.031.25-.066.38-.097v-2.11c.05 0 .105.004.156.004.234.95.464 1.899.703 2.848.07-.008.144-.02.219-.028.14-.355.28-.71.457-1.152.832 1.914.832 1.914 1.464 1.996v-1.52a.99.99 0 0 0 .141-.046c.383.863.762 1.722 1.14 2.582.114-.043.223-.09.337-.137l-.141-1.41c.465.742.867 1.375 1.266 2.008.085-.047.168-.09.257-.137.04-.316.082-.633.133-1.012.48.653.89 1.215 1.473 2.012.055-.727.082-1.082.105-1.437.532.582 1.028 1.12 1.707 1.859.13-.637.18-.871.243-1.172.988 1.297.988 1.297 1.972 1.145.04-.243.074-.485.125-.801 1.254 1.386 1.469 1.422 2.434.472.308.215.617.426.937.645.137-.328.246-.598.39-.938.54 1.075 1.153 1.075 2.032.063.04.344.074.648.117 1.043l1.825-1.113c.168.367.28.625.425.933.485-.457.895-.84 1.301-1.222.82.953.774.789 1.762-.782.086.332.164.625.27 1.04l1.394-1.747c.039.035.078.07.117.102-.101.43-.203.855-.305 1.285.094.031.184.063.274.098.254-.395.508-.785.77-1.188.472.742 1.081.883 1.515.258.367-.531.54-1.2.86-1.953.081.558.14.933.202 1.367 1.793-.219.372-1.887 1.211-2.453.215.523.434 1.047.649 1.57l.41-.023v-3.086c.09.004.18.004.27.008l.609 2.34c1.605-.97-.117-2.184.523-3.235.352.762.657 1.434.965 2.102.098-.04.192-.078.29-.114l-.75-2.757c.105-.032.214-.067.32-.098l.93 2.36c1.695-1.083-.352-2.036.077-3.165.41.684.77 1.293 1.137 1.903.606-.59.606-.586.238-1.153-.398-.613-.796-1.234-1.199-1.847l.38-.246c.577.699 1.16 1.39 1.765 2.117.226-.461.324-.899.593-1.164 1.493-1.47 1.504-1.453.06-3.02-.036-.035-.028-.11-.056-.273.442.293.817.547 1.313.875.254-1.582-1.543-1.918-1.555-3.23.887.421 1.047 1.75 2.446 1.792-.762-.996-1.383-1.812-2.004-2.629l.183-.183c.309.289.594.601.93.847.293.215.64.356.965.532l.136-.246c-.648-.708-1.3-1.41-1.953-2.118.067-.058.133-.12.2-.183.605.363 1.207.73 1.867 1.125.12-.832.12-.832-1.715-2.192.55.032.996.055 1.77.098-.958-.652-1.645-1.125-2.333-1.594-2.07-1.41-2.297-4.078-.347-5.687.84-.696 1.957-1.047 2.925-1.606.313-.187.54-.527.805-.797l-.168-.226c.34-.113.68-.23 1.117-.38-.992-1.46-1.914-2.815-2.851-4.202-.293.367-.54.707-.82 1.015-.883.954-2.442 1.246-3.458.551-.312-.21-.523-.719-.566-1.113-.023-.234.371-.516.613-.817 1.008 1.47 2.024 1.422 2.817-.019-.278-.188-.606-.586-.844-.535-.945.195-1.437-.445-1.969-.961-1.285-1.254-1.597-1.317-3.191-.442-.367.2-.746.497-1.137.524-.613.047-1.238-.094-1.86-.156.012-.106.028-.207.044-.313l2.183-.48c-.015-.114-.027-.227-.047-.34-.683-.04-1.378-.012-2.046-.14-.625-.126-1.22-.41-1.829-.63 4.336-.015 4.336-.015 5.266-.812-.469-.324-.91-.633-1.43-.996l-.21 1.02c-1.032-.087-2.028-.052-2.954-.29-.675-.176-1.246-.629-1.566.582-.367-.75-.625-1.27-.996-2.011l-1.496 1.507c-.336-.074-.844-.191-1.356-.312l-.082-.356c1.332-.582 2.61-1.386 3.996-1.703 2.563-.586 5.145-.625 7.297 1.332.207.192.43.457.672.489.328.043.762-.012.996-.207.14-.118.102-.665-.05-.88-.426-.601-.958-1.12-1.43-1.69-.149-.177-.371-.552-.332-.587.64-.586-.07-.734-.32-.972-.352-.336-.77-.602-1.16-.899.019-.039.038-.074.054-.113.7.226 1.402.457 2.101.683a3.85 3.85 0 0 1 .09-.18c-.644-.472-1.289-.948-1.933-1.425.058-.09.117-.176.172-.266 1.136.762 2.273 1.528 3.406 2.29a7.94 7.94 0 0 0 .086-.122c-.367-.43-.738-.859-1.106-1.285.032-.031.063-.062.098-.094l2.184 1.676.093-.14c-.21-.403-.43-.801-.64-1.204.078-.058.16-.109.242-.164.203.145.41.286.613.43.082-.039.168-.078.254-.121-.336-1.348-.254-2.895-1.195-3.965-.91-1.035-2.196-1.746-3.313-2.597.043-.083.086-.16.13-.239.917.45 1.839.906 2.757 1.36-.95-1.63-3.074-1.786-4.219-3.61l3.606 1.656c.05-.12.105-.238.16-.355-1.356-.84-2.711-1.676-4.063-2.516.047-.097.098-.191.145-.285.75.215 1.5.426 2.25.64l.2-.245c-.212-.223-.388-.508-.645-.645-1.137-.625-2.301-1.207-3.454-1.8l.082-.184c.59.086 1.18.176 1.77.262.027-.098.055-.192.086-.29-.895-.39-1.785-.785-2.805-1.234.387-.035.64-.058 1.176-.11-1.004-.523-1.781-.929-2.559-1.331.024-.055.043-.11.067-.164h1.488c-.488-.368-.797-.602-1.11-.836.204-.117.356-.207.657-.383-1.063-.305-1.95-.555-3.035-.863l1.863-.485c-1.156-.82-3.113.043-3.168-2.101-2.16.613-3.738-1.063-5.762-1.137a9.967 9.967 0 0 0-2.89.297c-.438.113-.922.238-1.344.148-1.11-.23-2.176-.687-3.289-.84-.762-.101-1.57.168-2.61.301v1.266h-1.835c-.844 0-1.63.055-1.301 1.156-.492.192-.895.344-1.3.504.026.082.05.168.077.254h2.41c-.863.254-1.586.465-2.453.719.356.316.54.476.797.707-1 .332-1.875.625-2.91.965.105-.598.176-1.016.25-1.434.488-.008.906-.027 1.234-.043zm25.649-2.715c-.063.078-.121.156-.18.234.211.235.379.583.64.692 1.153.48 2.298 1 3.622.664.535-.133 1.12-.125 1.68-.11.953.024 1.742.723 1.93 1.645.116.59-.66 1.95-1.403 1.98-.766.036-1.567-.355-2.313-.66-.09-.035-.054-.78.137-1.027.402-.516.95-.922 1.504-1.437-1.332.043-2.23.816-2.52 2.058-.19.84.36 2.016 1.141 2.426 1.328.695 2.535.273 4.125-1.45.168.137.34.274.52.423.75-1.63.726-1.696-.223-1.723-.281-.926-.535-1.773-.79-2.617.372.191.606.515.856.824.137.168.301.313.453.465.07-.23.172-.457.208-.695.02-.141-.06-.297-.106-.52 1.668-.094.879 1.828 2.035 2.129.164-.262.36-.574.512-.809.195.047.406.098.617.145.016-.399.106-.817.035-1.2-.191-1.038-1.308-1.437-1.715-2.456-.234-.582-.332-.77.067-1.133.41-.371.86-.707 1.273-1.047 1.602 1.14 1.77 1.41 1.332 3.168-.289 1.148-.132 2.098.782 2.82.453.356 1.046.551 1.593.778 1.57.656 3.125 1.304 2.59 3.64.399-.484.738-.957.703-1.402-.066-.824-.351-1.625-.558-2.492.984-.332 2.515-.496 2.62-2.204.04-.562-.468-1.156-.726-1.738-.097.043-.195.09-.297.137-.062.762.086 1.629-.23 2.258-.426.836-1.336.879-1.926.652.524-1.234 1.035-2.422 1.524-3.617.05-.129-.012-.39-.114-.48-.785-.676-1.437-1.563-2.656-1.516a4.375 4.375 0 0 1-1.457-.192c-.23-.07-.582-.48-.531-.605.43-1.102-.399-1.715-.934-2.375-.293-.363-.871-.496-1.316-.73-.055.105-.114.21-.168.312.336.285.75.512.992.86.297.417.664.956.621 1.41-.113 1.195.227 1.769 1.41 1.968.723.125 1.465.227 2.153.473.359.133.62.55.925.84-.058.11-.113.222-.172.336-.543 0-1.109.093-1.628-.024-.63-.136-1.188-.133-1.399.512-.125.379-.074 1.117.145 1.238.445.242 1.062.176 1.605.239l.012-.278-1.461-.539c1.047-.719 1.867-.441 2.73-.277.051 1.465-1.09 1.64-2.125 2.02l.75.706c-.484-.066-.863-.136-1.242-.168-1.504-.117-2.113-1.039-1.61-2.457.579-1.629.321-2.355-1.128-3.414-.254-.183-.43-.527-.54-.836-.277-.761-.284-1.695-1.374-1.859-.07 1.012 1.308 2.223-.469 3.172.11-1.528.516-2.969-1.078-3.973 0 .461-.082.797.012 1.074.511 1.496-.059 2.61-1.086 3.676-.524.54-.883.543-1.367.094.238-2.129-.243-2.977-1.7-3.004.317.645.633 1.285.946 1.926-.828-.453-1.391-1.242-2.153-1.563-1.222-.515-2.41.89-1.566 2.352.336-.504.543-.996.906-1.309.613-.523 1.035.043 1.36.465.328.43.566 1.027-.145 1.313-1.117.445-2.277.699-3.457.101-.227-.117-.535-.07-.805-.101.137.25.211.582.418.734.563.418 1.184.766 1.781 1.14a4.548 4.548 0 0 0-.097.196c-.836-.086-1.668-.168-2.5-.258zM187.125 187c.348-2.254-.898-3.668-2.082-5.105-.356-.434-.805-.797-1.129-1.25a113.968 113.968 0 0 1-2.672-3.883c-1.117-1.703-2.176-3.438-3.3-5.137-.16-.238-.536-.336-.813-.496-.004.324-.117.7.008.953.793 1.598 1.578 3.203 2.488 4.73 1.582 2.657 3.262 5.258 4.875 7.895.363.598.5 1.188-.445 1.461-3.325.973-6.606 2.152-9.98 2.894-4.38.961-8.845 1.536-13.25 2.383-.903.172-1.84.696-2.536 1.309-.86.762-.566 1.691.637 2.453-.18-1.574.816-1.68 1.965-1.758 1.082-.07 2.16-.273 3.218-.515 5.47-1.25 10.922-2.57 16.395-3.79 2.328-.511 4.66-.972 6.621-2.144zm-36.105-77.32c1.363-.18 2.738-.188 4-.57 1.375-.415 1.546-2.094.457-3.044-1.204-1.046-2.606-1.476-4.188-1.359-.723.055-1.41-.008-1.914-1.012l2.95-2.925c-1.653-.262-2.645.55-3.302 1.656-.386.656-.632 1.66-.425 2.351.27.895 1.234 1.23 2.246 1.211 1.351-.027 2.683.137 3.816.965.238.176.492.574.453.824-.043.266-.43.684-.656.68-1.137-.027-2.305-.039-3.387-.328-.691-.184-1.156-.477-1.312.488-.563-.344-1.035-.625-1.5-.906 1.672 2.047 1.203 3.727-.887 5.332 2.133-.18 2.36-1.742 2.844-3.106 1.531.739 3.406.461 4.45 2.043-.743.997-1.602 1.313-2.849.907-1.593-.524-2.98.23-4.164 1.215-.527.437-.574 1.144.227 1.527.57.27 1.172.469 1.75.715 1.078.46 1.758 1.965 1.101 2.656-.792.836-1.707 1.645-2.984 1.54-.45-.036-.934-.267-1.3-.544-.684-.52-.305-1.086.144-1.512.46-.437.969-.53 1.422.106.152.215.445.328.855.613-.37-1.496-.781-1.824-1.812-1.676-1.325.196-1.746.633-1.727 1.809.02 1.234 1.477 2.23 2.777 1.766.915-.325 1.778-.836 2.61-1.348 1.137-.7 1.379-1.676.617-2.758-.387-.547-1.004-.953-1.582-1.324-.457-.297-1.012-.445-1.57-.676.797-.996 1.75-1.496 2.968-1.414.598.04 1.188.152 1.782.191 1.234.082 2.527-.8 2.652-1.785.117-.925-.676-1.625-2.105-1.863-.836-.14-1.668-.3-2.457-.445zm-4.75 21.574c.18-.887.988-1.703.117-2.344-.715-.039-1.285-.078-1.852-.09-.875-.02-1.18.25-1.09.98.203-.042.418-.144.606-.1.293.066.566.23.851.355-.175.254-.297.597-.535.75-.719.457-2.133.136-2.695-.547-.711-.863-.684-1.617.289-2.203 1.035-.625 2.148-1.192 3.297-1.543 1.637-.496 3.344-.762 5.015-1.14 1.059-.243 1.86-1.083 1.856-2.032-1.363 1.39-3.106 1.25-4.762 1.457-2.394.305-4.719.832-6.465 2.7-1.129 1.206-1.093 2.687.094 3.823.219.211.52.332.785.496a7.862 7.862 0 0 0-.219.286c-.93-.141-1.855-.282-3.019-.457 1.137 1.285 2.379 1.695 3.75 1.476 1.625-.258 3.227-.672 4.828-1.047.598-.14 1.164-.195 1.441.461.301.719-.171 1.106-.757 1.387-1.496.719-3.063 1.027-4.707.695-1.438-.285-2.735-.031-3.84.95-.91.8-.82 2.042.172 2.265 1.367.313 2.695.043 4.25-.55-.856-.41-1.973.19-1.922-1.407-.418.508-.57.824-.824.969-.325.187-.727.277-1.102.3-.086.008-.348-.496-.273-.64.168-.34.457-.805.754-.852 1.035-.16 2.093-.148 3.14-.23a79.969 79.969 0 0 0 3.215-.332c.527-.059 1.047-.18 1.66-.29.344-.796 1.41-1.609.863-2.745-.566-1.188-1.742-1.078-2.921-.801zm55.652 38.957c-.563-.418-.918-.809-1.356-.988-4.308-1.778-8.629-3.524-12.949-5.278-1.625-.66-3.238-1.351-4.875-1.976-.238-.094-.59.117-.887.183.07.239.063.594.223.7 1.211.816 2.457 1.578 3.688 2.363.265.168.511.375.78.535 1.462.86 2.876 1.82 4.407 2.527 1.387.645 2.914.985 4.363 1.496 2.043.723 4.098 1.25 6.606.438zm-83.52-31.652c2.828 1.398 6.887.546 8.11-.7-1.762-1.195-3.66.22-5.48-.398 1.304-.434 2.648-1.04 3.972-1.008 1.598.035 2.586-.937 3.828-1.613-.84-.07-1.684-.137-2.523-.207-.004-.11-.004-.219-.008-.324l3.3-1.286-.07-.328c-.777 0-1.57-.097-2.332.02-2.07.316-4.117.781-6.191 1.078-1.328.191-2.692.191-4.04.277 2.684 1.266 5.5.598 8.298.836-2.094.727-4.543.453-6.059 2.27.285.094.668.222 1.32.441-.855.38-1.414.625-2.125.942zm-24.879 6.949h-1.628c-1.313.008-2.079.617-2.125 1.68-.051 1.175.734 1.968 2.003 2.09.344.03.676.199 1.008.308l-.058.27-.703.187c.105.035.207.066.312.105 0 .649.266 1.54-.059 1.891-.511.555-1.39.832-2.168 1.027-.226.059-.867-.558-.875-.875-.007-.316.493-.828.856-.93.5-.132 1.082.044 1.629.087.047-.094.086-.188.133-.286-.59-.23-1.239-.73-1.758-.62-.621.132-1.313.671-1.645 1.23-.71 1.191-.812 2.5.164 3.816.602.051 1.336.082 2.067.172 1.34.164 2.402-.394 3.32-1.265.938-.887 1.516-2.079 1.238-3.293-.293-1.301-1.21-2.25-2.71-2.438-.5-.059-1.008-.309-1.442-.586-.66-.418-.555-1.238.164-1.52.488-.19.996-.331 1.5-.476 1.602-.46 1.567-.457 1.54-2.102-.02-1.042-.669-1.453-1.49-1.796-.71-.29-1.417-.704-1.046-1.618.262-.648.781-1.191 1.14-1.808.165-.27.223-.602.325-.903-.156-.058-.309-.12-.465-.18-.523.93-1.164 1.813-1.54 2.798-.429 1.117-.058 1.824.895 2.273 1.653.781 1.653.781 1.418 2.762zm11.665-98.024c-.387 2.723-2.235 3.836-4.653 4.313-.722.14-1.484.082-2.195.254-1.434.355-2.945.543-3.996 1.816-.637.774-1.203 1.633-.848 2.582.43 1.137 1.16 2.156 1.758 3.23l.367-.167c-.367-.953-.695-1.922-1.11-2.852-.355-.793-.417-1.472.333-2.062 1.937-1.532 4.207-1.84 6.867-1.926-.711.48-1.188.766-1.617 1.101-1.563 1.243-2.098 4.426-1.223 5.66 1.524.094 2.84.176 4.207.258-1.207 1.032-2.629.993-4.129.813.91 1.137 2.461.012 3.324 1.043.922-1.192 2.352-1.902 2.36-3.246-.403-.293-.656-.406-.797-.602-.133-.187-.078-.59-.227-.672-.504-.27-1.082-.629-1.597-.59-.438.036-1 .516-.676 1.043.625-.105 1.11-.257 1.578-.218.133.011.398.734.281.89-.277.371-.715.778-1.148.856-1.098.195-2.133-.582-2.477-1.688-.382-1.242.118-2.504 1.285-3.129.887-.476 1.81-.894 2.895-1.425-.582-.153-.969-.258-1.367-.364 1.117-1.566 3.762-2.218 2.805-4.918zm96.859 125.22c-1.57 1.163-1.95 1.038-3.313-.208-.746-.684-1.734-1.187-2.703-1.523-2.77-.973-5.59-1.805-8.383-2.715-2.293-.742-4.566-1.547-6.867-2.266-.476-.148-1.039-.02-1.562-.02-.024.15-.043.301-.063.45 2.645 1.066 5.29 2.129 7.938 3.195.031.012.07.004.101.016 2.61.785 5.29 1.39 7.797 2.414 2.09.855 3.977 2.203 5.961 3.32.305.172.652.27 1.094.446v-3.11zm-27.438-71.481-.164.289c2.426 1.484 3.028 3.699 2.77 6.3-.028.282.34.606.46.801 1.259-.918 2.31-1.793 3.466-2.492 1.172-.71 1.687-1.371 1.488-2.363-.211-1.063-1.434-2.348-2.395-2.414-1.543-.11-3.09-.164-4.636-.223-.325-.016-.657.063-.989.102zm6.48 92.46c-.757.56-1.312.555-1.75-.335-.116-.243-.757-.391-1.105-.32-1.195.25-2.39.542-3.53.972-.4.145-.802.695-.9 1.129-.163.758-.519 1.078-1.261 1.121-1.977.125-1.973.14-2.176 2.16-.02.207-.137.434-.09.617.086.336.192.828.422.914.258.098.766-.086.973-.316.484-.543.844-1.203 1.285-1.793 1.14-1.531 1.703-1.715 3.543-1.191 1.988.558 4.086-.739 4.59-2.957zm-90.144-2.378c.125.027.25.054.375.078.07-.102.164-.196.203-.309.989-2.699 2-5.387 2.934-8.101.27-.778.55-1.692.39-2.45-.3-1.398-.925-2.73-1.413-4.085-.34.53-.477 1.109-.598 1.687-.25 1.188-.469 2.379-.754 3.559-.121.504-.504.964-.547 1.464-.234 2.715-.402 5.438-.59 8.157zm59.325-55.817c-1.305-.437-2.305-.047-3.2.985-1.425 1.636-1.34 1.918.524 3.03a8.715 8.715 0 0 1 2.129 1.782c.562.656.367 2.016-.274 2.27-1.058.425-2.168.808-3.293.96-.699.098-1.492-.273-1.613-1.175-.106-.805.703-1.61 1.582-1.637.39-.012.79.031 1.23.05-.437-.82-.816-1.058-1.613-.874-1.515.348-2.015 1.5-2.047 3.117l-1.039-1.73c-.64 1.289.035 2.937 1.227 3.297.804.242 1.62.476 2.449.605.492.074 1.066.055 1.52-.129.972-.398 1.906-.906 2.82-1.426.3-.168.496-.511.742-.777-.059-.047-.117-.094-.176-.145-.304.094-.61.188-.953.29.211-.754.602-1.418.528-2.024-.176-1.379-1.04-2.328-2.383-2.8-.582-.208-1.149-.454-1.633-.65-.113-1.124.523-1.648 1.246-2.042.707-.387 1.484-.656 2.227-.977zm-37.54-84.71c.543-.403.93-.63 1.243-.93 1.132-1.086 2.367-.59 3.554-.203 1.086.351 1.387 1.34 1.489 2.335.132 1.325.105 2.66.261 3.985.063.539.348 1.101.664 1.558.825 1.172 1.957 1 3.024.438.074-.04-.434-1.18-.66-1.809-.266-.738-.649-1.465-.762-2.226-.293-1.98-1.652-3.418-2.852-4.711-1.183-1.274-3.168-1.13-4.87-.547-.84.285-1.188.95-1.09 2.11zM91.172 158.77c-.387.52-.84.917-.77 1.062.461.961.418 1.863.098 2.863-.188.59-.016 1.285-.094 1.922-.144 1.188-.351 2.363-.535 3.547 1.367.113 1.856-.215 2.035-1.297.117-.687.281-1.402.2-2.078-.235-1.863 1.304-2.773 2.195-3.926.793-1.027 1.187-2.101 1.707-3.199-2.465-.152-2.93 2.137-4.328 3.367-.168-.758-.297-1.332-.508-2.261zm6.058-16.446c-.328.688-.761 1.414-1.023 2.203-.34 1.024-.469 2.07.547 2.883 1.004.8 2.023.778 3.148.254.856-.398 1.375-1.078 1.094-1.906-.23-.668-.828-1.352-1.45-1.719-.75-.441-1.28.035-1.359.996 1.286-.523 2.274-.031 1.989 1.07-.125.48-.75 1.036-1.25 1.16-.453.118-1.215-.152-1.535-.515-.653-.742-.125-3.133.707-3.73.734-.532 1.5-1.024 2.23-1.524-.262-.348-.5-.66-.734-.965.582-.61 1.117-1.168 1.648-1.726a3.881 3.881 0 0 0-.129-.254c-1.957.379-3.89 1.394-5.906.168-.027.125-.055.246-.078.37l3.351 1.84c-.062.176-.125.356-.19.532-.954-.168-1.907-.328-2.86-.496l-.137.23c.652.38 1.305.758 1.937 1.13zm77.864-7.703c1.758-1.371 3.261-2.504 4.71-3.703.587-.488.786-2.098.266-2.402-.652-.383-1.656-.813-2.222-.567-1.336.578-2.504 1.547-3.137 2.969-.074.156-.223.45-.203.46.86.532.004 1.157.113 1.716.078.414.246.816.473 1.527zm-94.106-58.46c-.531-2.528.051-4.817.758-7.106.227-.727.16-1.543.234-2.336-2.007-.012-3.152 1.277-3.707 3.918-.53 2.543.442 4.613 2.715 5.523zm96.055 99.167c-.563 1.54-.215 2.781.977 3.742.296.243.582.516.812.82 1.238 1.66 2.125 3.45 1.93 5.61-.008.113.082.238.14.398 1.028-.25 2.004-.488 2.989-.722-.653-1.953-5.805-9.39-6.848-9.848zm-88.785-30.066c.094-.075.191-.149.285-.223-.215-.332-.36-.789-.664-.969-1.117-.668-2.285-1.246-3.656-1.097-.645.07-1.11-.29-1.051-.864.039-.34.531-.777.91-.902.586-.195 1.25-.129 1.871-.234.64-.106 1.469-.086 1.54-.97.062-.823.347-1.808-.766-2.28-.153-.067-.286-.196-.403-.32-.351-.368-.691-.75-1.035-1.126-.168.207-.523.536-.477.61.27.422.657.77.958 1.175.316.422.582.883.867 1.329-.489.21-.973.43-1.469.625-.121.047-.281.02-.418 0-1.21-.164-2.043.422-2.563 1.43-.242.468-.253 1.054-.374 1.617a97.783 97.783 0 0 0-.665-.458c-.074.047-.148.098-.226.145.129.313.195.676.398.926.649.8 2.645 1.137 3.633.851.598-.172 1.317-.097 1.95.032.472.097.902.457 1.355.703zm57.472-90.973c-.652-.52-1.312-1.258-2.136-1.637-.903-.418-1.098-.847-.598-1.636.73-1.157.297-2.508-.43-3.172-1.027-.95-2.812-1.317-3.91-.778-.285.141-.535.348-.8.524.765.246 1.453.219 2.132.254.871.039 1.7.246 2.137 1.093.438.856-.047 1.547-.523 2.22-.329.456-.688.89-.965 1.374-.684 1.18-.282 2.188.894 2.856 1.13.64 1.922-.094 2.82-.469.372-.152.735-.332 1.38-.629zm-46.48 73.805c-.04-.114-.082-.223-.117-.336-.578.168-1.172.285-1.723.508-1.523.617-1.879 1.55-1.105 2.953a5.576 5.576 0 0 0 1.09 1.398c.906.832 1.89 1.574 2.816 2.38.738.636.621 1.706-.227 2.171-1.168.637-2.363.559-3.546.047-.626-.27-1.047-.813-.653-1.41.262-.395.899-.64 1.406-.735.383-.07.832.203 1.348.356-.234-.863-.625-1.266-1.406-1.367-1.215-.153-1.844.683-2.32 1.48-.22.371.09 1.184.355 1.688.8 1.52 2.3 1.226 3.629 1.175.625-.027 1.348-.261 1.84-.644 1.11-.852 1.027-2.063-.246-3.36-.957-.976-2.079-1.789-3.082-2.718-1.207-1.114-.938-2.422.566-3.004.469-.176.918-.387 1.375-.582zm-5.371.285c-.809.055-1.621.082-2.426.176-.992.117-1.922.914-2.992.254-.11-.07-.344.02-.504.082-1.191.476-2.344 2.148-2.324 3.39.004.176.105.434.242.512 1.469.832 2.934 1.7 4.703.727.61-.336 1.297-.536 1.93-.829.89-.406 1.015-1.015.531-1.699-.465.516-.867 1.242-1.477 1.567-.847.453-1.843.761-2.796.828-.594.039-1.477-.32-1.786-.793-.332-.516-.421-1.52-.128-2.031.359-.633 1.222-.977 1.867-1.446.066.086.133.168.199.254-.492.707-1.496 1.293-.8 2.34.53.8 2.355.965 3.433.324.3-.176.457-.605.676-.914l-.258-.27c-1.067.868-2.121.981-3.278.047 1.43-1.652 3.602-1.257 5.188-2.52zm-33.582 43.664c-.621-.262-1.098-.41-1.512-.652-.832-.485-1.512-.364-2.277.214-1.004.758-2.051 1.516-3.192 2.024-1.738.773-2.363 2.121-2.546 4.066 2.574-2.992 6.152-3.957 9.527-5.652zm90.523-7.715c-1.441-1.586-3.168-1.586-4.484-.2-1.082 1.142-1.07 2.188-.024 3.224l-1.496 1.941c.043.11.086.219.13.324.91-.695 1.812-1.453 2.89-.48-.203 1.23-1.34.746-2.125.984 1.312 1.184 1.922.887 2.976-1.351-.62-.301-1.238-.598-1.859-.899.059-.137.11-.27.164-.406.817.281 1.832.351 2.406.89 1.008.95-.074 1.926-.511 2.958 1.172-.645 1.59-1.81 1.187-3.231-.308-1.07-1.207-1.195-2.168-1.285-.43-.04-.976-.27-1.215-.602-.441-.613-.117-1.187.461-1.601.891-.64 1.805-1.086 2.907-.465.222.129.507.137.761.2zm-58.656-55.394.082.418c-.965.304-1.91.75-2.898.863-.582.066-1.223-.387-1.84-.61.234-.543.344-1.218.734-1.605.871-.86 1.906-1.555 2.824-2.371.278-.246.391-.68.579-1.027-.653.257-1.043.628-1.47.96-.991.786-2.023 1.524-3.003 2.325-.656.539-.91 1.218-.453 2.047.433.789 1.054 1.039 1.933.843.817-.183 1.649-.32 2.485-.41.308-.031.64.133.965.215-.008.145-.012.29-.02.434-1.465.203-2.93.41-4.418.617.164.734.781.726 1.375.687 1.61-.105 4.211-1.433 4.543-2.379-.414.184-.766.332-1.43.621l.825-1.546c-1.27-1.36-2.528-1.457-3.11-.18.778.031 1.535.062 2.297.098zm49.234-65.414c.262 1.37 1.676 1.042 2.313 1.746.11.48.258.968.59 1.254.933.804 1.61 1.644 1.176 2.98-.079.238-.008.758.074.777 1.015.22.64 1.07.707 1.625.152 1.356.344 1.61 1.89 1.711-.144-.355-.273-.66-.386-.968-.407-1.137-.89-2.262-1.168-3.43-.153-.645.172-1.39.074-2.059-.281-1.922-3.27-3.949-5.27-3.636zm-54.68 48.453c-.292.199-.593.386-.874.597-.617.465-1.16 1.086-1.844 1.383-2.512 1.094-2.516 2.137-2.367 4.77.086 1.46.793 2.257 1.781 2.175 1.555-.128 2.762.188 3.29 1.977.23-.379.468-.867.327-1.04-.398-.476-.898-.995-1.46-1.183-1.497-.496-2.489-2.082-1.481-3.527.062-.09.008-.258.008-.45-1.657.763-1.164 2.114-1.07 3.388-.27-.301-.516-.606-.583-.946-.46-2.289.512-4.156 2.68-4.969 1.016-.382 1.355-1.168 1.594-2.175zm-10.827 25.73c.113-.016.23-.023.343-.039-.054-.504-.078-1.016-.18-1.512-.163-.777-.929-.84-1.44-1.226-1.27-.95-1.727-.996-2.692.285-.527-.313-1.059-.625-1.656-.977-.036.305-.106.489-.07.649.132.62-.989 1.36.019 1.805.59.257 1.375.062 2.07.058.137 0 .285-.11.406-.082.364.094.711.227 1.032.332-.094.379-.164.668-.243.98.536.098.997.18 1.485.266-.168-.523-.313-.992-.461-1.457.078-.055.152-.105.226-.16.387.363.774.719 1.16 1.078zm90.32-46.094v4.688c.871-.11 1.945-.07 2.86-.43.554-.219 1.124-1.023 1.195-1.625.058-.472-.524-1.23-1.024-1.512-.883-.5-1.918-.73-3.031-1.12zM59.883 129.04l.324-.105c.895-3.274.227-5.871-1.937-7.563-1.075.3-1.301 1.117-.95 1.977.785 1.925 1.7 3.797 2.563 5.691zm30.992-35.867c.125-.02.25-.04.371-.063-.566-1.664.578-2.09 1.66-2.554.192-.082.38-.196.582-.235 1.528-.304 1.977-1.394 2.059-2.773.058-1.004-.438-1.676-1.442-1.86-.343-.062-.695-.082-1.046-.12-1.743-.18-1.856-.36-1.407-2.032.082-.289.012-.62.012-.933-.152-.012-.305-.028-.457-.04-.172.797-.73 1.817-.43 2.348.559.992 1.621 1.695 2.551 2.598l.559-1.207c.347.55.883 1.035.793 1.324a3.548 3.548 0 0 1-1.114 1.617c-.605.488-1.523.617-2.054 1.153-.606.609-1.102 1.027-1.996.539-.04.074-.079.152-.118.23.493.668.985 1.336 1.477 2.008zm-14.422 19.98c.41-1 .746-1.976 1.203-2.89.403-.809.715-1.75 2.004-1.606.59.067 1.238-.203 1.828-.418.285-.101.7-.418.7-.636-.004-1.153-.036-2.317-.247-3.438-.062-.312-.761-.5-1.171-.742-.137.394-.461.844-.372 1.183.332 1.266.024 2.043-1.039 2.875-.796.622-1.91.899-2.25 2.082-.226.778-.601 1.532-1.035 2.22-.375.59-.27.945.38 1.37zm61.965 24.746c-.219.485-.586.91-.535 1.278.058.41.43.851.785 1.125.34.262.824.367 1.258.469 1.972.453 5.05-1.356 5.691-3.329.012-.039-.066-.113-.18-.296-2.148 1.878-4.507 2.164-7.019.753zm-2.766-92.234c-.148-.289-.351-.516-.304-.625.808-1.723 2.8-1.613 4.175-2.574-2.308-.996-4.527.215-6.27 2.39.395.434.77.883 1.188 1.293.262.25.582.438.88.657.128-.278.253-.555.386-.832.043-.09.078-.203.152-.25 1.387-.86 2.676-1.989 4.508-1.633.192.039.41-.09.707-.16-1.445-1.121-4.21-.243-5.422 1.734zM91.035 78.82c-.2.157-.308.282-.445.34-1 .434-1.04.8-.278 1.555.813.805 1.614.851 2.52.191.453-.328.941-.61 1.395-.937 1.324-.957 1.394-1.801.14-2.871-.726-.618-.629-1.16-.12-1.793.179-.223.358-.442.538-.66-.055-.07-.11-.145-.168-.215l-2.86 1.242c.032.078.063.16.095.242.43-.059.859-.117 1.011-.133.524.762.965 1.317 1.301 1.926.188.336.406.98.258 1.121-.52.492-1.164.887-1.817 1.192-.214.101-.75-.09-.878-.305-.165-.278-.176-.758-.043-1.059.086-.199.543-.3.84-.316.359-.016.726.101 1.152.176-.328-1.063-.809-1.352-1.645-.86-.738.434-1.383.578-2.144.047l-.13.34 1.278.777zm54.344 100.547c.27-.906.43-1.82-.45-2.43-.312-.218-.972-.12-1.39.047-.258.11-.355.614-.64 1.164.413-.132.503-.18.601-.187.39-.047.79-.078 1.184-.117-.106.406-.09.914-.332 1.199-.602.703-1.485.82-2.172.27-.508-.403-1.075-1.157-1.04-1.723.048-.867.903-1.254 1.79-1.293.277-.016.562.07.836.047.34-.028.668-.121 1.004-.184 0-.125-.004-.246-.004-.367-.672-.078-1.34-.184-2.016-.23-1.14-.079-1.676.785-2.18 1.562-.472.723-.164 1.39.426 1.969.352.34.582.812.953 1.117.344.281.817.598 1.219.582 1.285-.047 2.39-.566 3.062-1.73.188-.32.196-.75.29-1.13l-.31-.085c-.273.507-.554 1.011-.831 1.52zM94.559 70.09c-2.11-1.367-4.668.078-5.329 2.25-.238.785.02 1.426.946 1.66-.125-1.66.199-2.629 1.265-3.027.625-.235 1.73-.38 2.024-.047.488.562.508 1.543.719 2.336 1.277-.45 1.898-1.871 1.363-3.621-.285-.938-.863-1.32-1.695-1.106.238.52.472 1.035.707 1.555zm53.363 83.965c-.086 0-.172.004-.258.004-.367.8-.836 1.578-1.078 2.418-.227.777.703 1.613 1.496 1.402.563-.152 1.094-.441 1.637-.676.687-.3.851-.797.703-1.535-.293-1.492-1.578-2.09-2.547-2.969-.023-.023-.172.082-.27.133.11.418.215.82.317 1.223zm-2.344-84.078c-2.535 1.562-4.473 5.418-2.133 7.726-.191.172-.382.348-.578.524.262.144.512.382.781.402.446.035.934-.192 1.352-.098 1.063.242 1.375-.418 1.773-1.18-.812-.253-1.515-.472-2.492-.78-.543.245-1.199-.18-.949-1.153.32-1.223.914-2.371 1.406-3.547.262-.637.559-1.262.84-1.894zm-79.266 62.18c.786-.489 1.864-1.098 2.833-1.852.12-.094-.297-.977-.575-1.422-.082-.13-.757-.11-.824.015-.516 1.004-1.398.758-2.215.727-.453-.02-.898-.137-1.351-.164-.59-.043-.817.25-.735.844.149 1.078 1.164 1.84 2.868 1.851zm79.891-21.243-.344.023c.047.473-.082 1.18.176 1.383.61.48 1.27.2 1.68-.46.656-1.063.605-2.133-.059-3.172-.937-1.461-2.46-2.028-4.015-2.461-.805-.227-1.325-.54-1.43-1.415-.055-.46-.215-.906-.328-1.359-.531 2.41.043 3.32 2.3 4.004 1.622.488 2.938 1.992 2.962 3.445.003.29-.184.582-.352 1.082-.305-.55-.45-.812-.59-1.07zm-55.531 10.64c1.016 3.766 1.281 3.958 4.187 3.41 1.633-.304 2.18-.827 2.118-2.132-.551.055-1.102.106-1.649.164-1.371.149-2.785.55-3.793-.91-.176-.254-.57-.356-.863-.531zm65.61-57.308c.41 2.356.366 2.473-1.321 4.215-.219.227-.441.46-.61.719-.902 1.355-.808 2.965.18 4.187.563.7 1.344.883 2.078.625.551-.191.965-.773 1.438-1.18-.086-.105-.172-.21-.258-.312-.336.16-.672.316-1 .492-.906.488-1.496.29-1.96-.637-.571-1.136-.282-2.113.53-2.98.457-.488.993-.895 1.45-1.383 1.203-1.281.949-3.023-.528-3.746zm.355 20.496c-.082.106-.16.215-.242.32.316.649.746 1.27.906 1.954.156.66.035 1.386.035 2.273 1.074-.992.156-2.11.566-3.012 1.032.121 2.067.246 3.098.368.266-1.93-4.215-4.188-6.941-3.473.52.187.789.344 1.078.383.449.062.922-.016 1.367.074 1.371.266 1.601.637 1.207 1.672-.344-.176-.711-.371-1.074-.559zm-17.13 64.02c-.374-.145-.804-.305-1.234-.469.02-.066.04-.137.055-.203.602-.125 1.203-.254 1.805-.383-.004-.055-.012-.113-.016-.168-.383-.105-.762-.207-1.14-.316l-.04-.266c.973-.32 1.946-.637 2.922-.957-.03-.102-.062-.203-.097-.305-1.48-.32-2.825-.015-4.117 1.055.07-.602.214-1.137.527-1.543.328-.426.785-.781 1.246-1.062.46-.286 1-.438 1.504-.649-1.18-.45-2.14-.121-2.883.691-.742.82-1.312 1.739-.871 2.95.332.906.57 1.847.918 2.746.078.199.434.293.562.37.325-.558.575-.987.86-1.491zm-77.956-24.348c.558-.3 1.152-.46 1.5-.844.41-.453.89-1.136.812-1.644-.066-.438-.816-.926-1.36-1.098-.605-.191-1.32-.094-1.983-.043-.934.074-1.301.785-.758 1.531.554.758 1.218 1.438 1.789 2.098zm25.164-9.375c.16 1.402.98 2.414 2.289 2.531 1.558.14 3.148.075 4.723.035 1.273-.035 2.34.387 3.226 1.266.469.469.852 1.016 1.305 1.504.11.11.332.11.504.164.015-.184.12-.45.039-.539-.77-.852-1.434-1.945-2.399-2.43-1.132-.57-2.523-.761-3.816-.82-2.074-.094-4.297.563-5.871-1.71zm-2.153-27.258c.31-.043.649-.18.915-.094.226.075.37.407.55.626-.632.507-1.218 1.312-1.918 1.425-.593.098-1.73.196-1.945-1.047-.297-1.707.555-2.754 2.32-2.714.52.011 1.032 0 1.797 0-.945-.993-2.027-.98-2.648-.602-.953.578-2.102 1.223-2.242 2.605-.106 1.04.34 1.801 1.351 2.247 1.88.835 2.684.738 3.637-.442.777-.965.715-1.375-.074-2.36-.754-.945-1.172.04-1.743.356zm63.243-33.21c-.028.109-.059.222-.086.335.293.157.57.36.883.457 1.035.325 2.062.719 3.128.887 2.282.355 2.13 1.508 1.887 3.059-.054.343-.156.695-.12 1.035.026.238.241.46.37.691l.188-.082c.05-.941.105-1.883.16-2.82l.293.023.387 2.555c.242-.344.261-.656.32-.965.36-1.82.125-2.312-1.496-3.36-.625-.402-1.203-.878-1.805-1.324.05-.07.106-.144.156-.218-1.422-.086-2.843-.184-4.265-.274zm-46.66-10.993c.125-.984-.102-1.176-.957-.863-.895.32-1.965 2.3-1.657 3.14.07.196.406.41.614.403.367-.012.902-.086 1.046-.324.211-.344.133-.864.192-1.43l.98.785c-.226.738-.414 1.34-.597 1.938.082.023.164.05.246.074.523-1.242 2.336-2.063 1.14-3.883-.324.05-.66.102-1.007.16zm48.73 87.563c0-.47.031-.582-.004-.676-.652-1.668-.437-1.961 1.227-2.543a25.19 25.19 0 0 0 4.074-1.856c.992-.558 1.113-2.144.375-3.09-.281.84-.531 1.669-.84 2.473-.102.274-.297.63-.531.715-1.11.418-2.238.988-3.383 1.043-.953.043-1.574.496-1.996 1.047-.375.488-.453 1.351-.34 1.996.055.328.816.535 1.418.89zm-77.586 29.882c.746-.773 1.445-1.5 2.219-2.296-1.445-.11-2.692-.29-3.934-.258-.476.011-1.097.398-1.363.804-.168.254.082.993.371 1.274.332.32.91.453 1.402.535.422.074.875-.031 1.305-.059zm79.961-22.453c.285-.234.688-.515 1.023-.86.141-.144.23-.464.172-.644-.062-.18-.418-.437-.515-.394-.54.266-1.172.512-1.504.96-.211.282-.13 1.071.129 1.356.824.922 1.804 1.7 2.695 2.563.406.394 1.05.808.555 1.488-.512.7-1.047.184-1.551-.117-.082-.047-.188-.055-.285-.082-.074.058-.149.117-.219.176.23.304.398.734.703.882.746.352 1.488.114 1.973-.507.207-.274.293-.942.11-1.164-1.009-1.23-2.114-2.375-3.286-3.657zm-81.324 9.649c.168.43.21.742.383.937.464.531.941 1.074 1.507 1.485.29.207.88.304 1.16.148.696-.383 1.294-.945 2.118-1.578.031-1.113-.809-1.574-3.02-1.262.219.301.414.57.668.926-.93-.215-1.765-.414-2.816-.656zm-5.707-20.012c1.047.031 2.136-.687 1.824-1.297-.402-.777-1.211-1.484-2.016-1.87-.593-.29-1.64 1.007-1.66 1.847-.02.898.52 1.285 1.852 1.32zm23.258-55.05c-.079-.552-.149-1.036-.22-1.516-.097.004-.187.007-.284.007-.106.258-.215.516-.356.848-.36-1.336.469-2.473 1.805-2.902 1.156-.375 2.375-.762 3.336-1.461 1.902-1.375 1.902-1.688.289-3.883.055.285.07.445.11.598.429 1.71.25 2.191-1.286 3.093-.57.332-1.191.586-1.8.844-.583.246-1.192.418-1.762.692-.848.398-1.454 1.605-1.38 2.546.055.743.454 1.098 1.548 1.133zm-19.25 51.445c-.262 1.293-.008 1.707 1.09 1.425 1.562-.398 3.07-1.02 4.511-1.515-.348-.98-.61-1.723-.965-2.735-1.136 2.059-2.16 3.778-4.636 2.825zm11.085-46.59c-.316-.696-.515-1.309-.859-1.828-.574-.88-1.332-1.649-1.836-2.563-.32-.586-.375-1.344-.457-2.031-.097-.809-.101-1.625-.144-2.438-.817 1.098-1.141 2.282-.817 3.512.574 2.184 2.293 3.629 3.633 5.309.027.039.133.015.48.039zm23.75-30.047c-.289.05-.414.035-.476.09-1.95 1.695-4.14 2.75-6.797 2.586-1.137-.07-3.555 1.382-4.195 2.68.469-.266.828-.36 1-.587.828-1.101 1.949-1.48 3.246-1.347 1.937.191 3.664-.465 5.36-1.239.878-.402 1.534-1.058 1.862-2.183zM75.528 87.64c1.649-.41 2.516-2.262 4.446-1.895a6.946 6.946 0 0 0-.04-.281c-.562-.313-1.128-.63-1.695-.942-.008.125-.011.247-.02.372-.464.101-.972.117-1.386.328-.805.402-1.754.761-2.273 1.422-.543.69.148 1.394.808 2.058.063-.437.11-.73.16-1.062zm78.996 43.89c-.007-.136-.015-.27-.027-.41-.601 0-1.223.098-1.797-.031-.457-.102-.851-.48-1.273-.738.308-.32.562-.766.941-.934.922-.418 1.906-.684 2.848-1.047.773-.297.914-.55.844-.945-1.399.386-2.817.781-4.235 1.176-1 .28-1.43.93-1.308 1.96.101.872.789 1.465 1.78 1.387.75-.058 1.49-.273 2.227-.418zM90.13 113.97c.027.125.05.246.074.367 1.047-.352 2.223-.516 3.102-1.117.586-.403.75-1.422 1.101-2.168-.101-.074-.207-.149-.312-.223-1.156.555-2.32 1.11-3.477 1.672-1.25.613-2.46.227-3.672-.156 2.043 1.547 4.137 1.219 6.258-.09l.047.398c-1.04.442-2.082.88-3.121 1.317zm22.875 17.644c2.351 1.73 7.203 2.223 9.32.809-3.148-.274-6.187-.54-9.32-.809zM94.48 85.211c-.156-.219-.226-.34-.316-.441-1.203-1.395-1.144-1.926.293-3.086.816-.66 1.637-1.317 2.398-2.036.68-.632.59-1.43-.12-1.882-.934-.594-1.657-1.2-1.446-2.477-.773 1.29-.707 1.773.422 2.508.797.523.953 1.082.367 1.812-.25.313-.539.61-.867.84-.57.403-1.234.684-1.766 1.13-.84.69-.863 1.64-.527 2.597.234.664.621 1.187 1.562 1.035zm52.54 17.527c-.106-.144-.208-.293-.313-.441-.852.07-1.734.031-2.55.234-1.028.258-1.798 1.43-1.54 2.07.285.704 1.422.77 2.512.133.152-.09.281-.218.453-.359-.441-.172-.809-.313-1.172-.457.578-.18 1.156.043 1.606-.11.41-.144.675-.699 1.004-1.07zm-15.75-51.515c1.832-.59 1.957-1.598 1.48-3.692h.55c-.917-1.93-1.28-2.144-3.019-1.68 2.024 1.446 1.262 3.442.989 5.372zm-45.5 93.945c.171.191.312.45.527.57.89.504 1.176 1.282.965 2.219-.215.934-1.239 1.68-2.207 1.602-.317-.024-.77-.282-.856-.54-.09-.25.164-.66.352-.949.14-.218.414-.351.765-.632-1.273-.083-1.64.18-1.84 1-.214.906.223 1.44.977 1.71 1.34.477 3.227-.671 3.621-2.128.297-1.102-.375-2.793-2.304-2.852zm61.582-59.102c-.102-.02-.204-.039-.305-.054-.246.605-.574 1.195-.719 1.824-.308 1.324.727 2.61 1.945 2.512 1.305-.102 2.086-.809 2.512-2.121.215-.665-.043-.868-.617-.829a6.6 6.6 0 0 0-1.34.258c-.082.024-.098.297-.133.41.52.036.95.059 1.375.09.008.106.016.207.028.313-.66.504-1.297 1.199-2.258.793-.98-.418-.774-1.262-.559-2.086.09-.352.051-.739.07-1.11zm9.718 18.047c2.426-.172 1.79-2.23 2.41-3.433.883 1.265.004 2.172-.69 3.254 1.448-.235 1.007-1.446 1.39-2.13.851-1.519-.317-2.117-1.203-2.652-.61 1.586-1.223 3.188-1.907 4.961zm-15.82 48.278c-1-.11-1.766-.055-2.406-.301-.614-.238-1.102-.797-1.813-1.34v2.016c.621-.051 1.207-.102 1.79-.145-2.532 1.664-2.774 2.043-2.055 3.809.597-2.309 2.742-2.766 4.484-4.04zM85.312 72.297c.567-.867 1-2.008 1.82-2.668 1.255-1.004 2.774-1.672 4.177-2.492.132-.078.218-.23.324-.348-2.156.215-4.258.496-5.563 2.469-.652.988-1.293 2.008-.757 3.039zm58.399 75.871c1.59 1.168 4.113 1.082 6.195-.336l-1.18.086 1.305-1.406c-2.273.593-4.297 1.125-6.32 1.656zM66.52 102.695c.32.32.816.856 1.375 1.317.058.05.609-.274.69-.508.243-.684.38-1.41.52-2.129.145-.754-.296-1.191-1.078-1.113-.933.097-1.539.922-1.507 2.433zm117.105 40.7c-.16-.043-.32-.083-.48-.125-.305.511-.79.988-.88 1.535-.226 1.394-.816 2.511-1.945 3.36-.148.108-.25.284-.41.476 1.707.015 2.692-.743 3.25-2.375.106-.301.36-.551.543-.825l.25.059-.328-2.105zm-49.18-84.918c.063.105.125.218.188.324.742-.274 1.496-.528 2.234-.82 2.469-.977 4.7-1.083 6.14 1.937.11-1.484-.913-2.816-2.21-3.16-.766-.203-1.543-.387-2.016-.504-.695.355-1.199.613-1.699.871l-2.637 1.352zm2.809 67.675c3.539-.523 6.05-3.34 6.246-5.957-.957 1.075-1.813 2.164-2.805 3.114-1.023.972-2.18 1.808-3.441 2.843zm-39.402 4.965c.375-.484.695-.996 1.117-1.406.234-.223.652-.234.965-.395 1.046-.543 1.582-1.59 1.464-2.808-.109-1.133-.847-2.02-2.03-2.27-.407-.082-.868.11-1.302.176.02.102.036.2.055.3.102.024.203.075.3.063.974-.105 1.669.438 2.063 1.176.43.809.196 1.668-.527 2.277-.477.403-1.02.723-1.55 1.06-.954.605-1.087 1.19-.555 1.827zm-11.625 24.899-.024-.328c-.555-.145-1.152-.204-1.648-.461-.414-.22-.895-.622-1-1.028-.075-.289.394-.762.695-1.082.285-.304.668-.515 1.242-.941-1.308-.34-2.312-.598-3.41-.883v1.348c.36-.043.652-.078 1.04-.121-.095.69-.263 1.28-.235 1.859.054 1.23 1.129 1.52 2.015 1.86.36.136.88-.137 1.325-.223zm-2 1.09c.851 1.32.68 1.656-.915 1.792 0-.21.012-.421-.003-.625-.024-.23-.079-.453-.118-.683-1.074.25-1.375.672-1.148 1.52.203.753 1.305 1.273 2.168 1.023.926-.262 1.715-1.453 1.473-2.23-.223-.715-.59-1.176-1.457-.798zm65.152-4.75c1.523 1.57 3.332 3.035 1.926 5.66.43-.23.773-.485.968-.825.805-1.394.122-3.918-1.23-5.023-.621-.508-1.07-.531-1.664.187zm15.894 35.554c-2.078.871-4.046 1.7-6.015 2.528.035.128.066.257.101.386 2.036-.402 4.075-.808 6.196-1.23-.094-.574-.172-1.043-.282-1.684zm20.38-80.703c1.23-1.879-.102-5.062-2.665-6.203.899 2.09 1.774 4.129 2.664 6.203zm-25.528 48.594c1.574-.106 2.477-1.754 1.809-3.059-.454-.89-1.11-1.68-1.692-2.508-.547-.785-1.14-.964-2.488-.601 3.824.972 3.547 3.441 2.371 6.168zm-91.39 5.937c-1.297-1.836-.594-3.492.156-5.207-1.293.024-1.813.762-2.207 1.66-.368.836-.442 1.61.394 2.246.14.11.242.356.246.54.016.757.477.832 1.41.761zM106.18 58.477c-.297 1.195.61 1.691 1.215 2.32.367.375.851.64 1.285.96.273-.577.57-1.148.804-1.741.075-.192-.02-.453-.039-.7-.468.16-.882.301-1.312.45-.211-1.496-.211-1.496-1.953-1.29zm-37.387 52.656c-1.371-.457-2.504.12-3.512.77-1.386.894-1.031 3.011.528 3.687.87-.903-.297-1.39-.395-1.887.516-.61.867-1.215 1.383-1.594.59-.43 1.328-.66 1.996-.976zm28.25-48.942c-1.461 1.414-1.719 1.739-1.582 2.137 1.055-1.633 2.664-1.016 4.137-1.043-.461-.95-2.457-2.222-3.207-2.094-1.153.196-1.957.996-2.024 2.07.766-.671 1.473-1.437 2.676-1.07zm-22.29 79.5c-2.222.618-4.116 1.715-6.019 2.801 3.016-.183 5.926-.62 6.02-2.8zm75.708-9.796c-.254 1.492-.027 1.734 1.281 1.785 1.063.043 2.238-.387 2.93.52.41-.704.808-1.387 1.285-2.2-.203-.023-.504-.152-.625-.055-1.586 1.243-3.184 1.028-4.871-.05zm28.863-18.805c1.43-1.676 3.762-1.973 5.004-3.918-2.683.539-5.77 1.726-5.004 3.918zm-26.719 32.914c2.348-.32 3.04-.668 3.247-1.465-1.188.129-2.442.266-3.793.41-.215 1.008.074 2.028.875 2.469.941.52 1.703.148 2.636-.578-1.078-.36-2.308.441-2.965-.836zm4.813-26.352c.793-1.132 2.367-1.64 2.578-3.191l-.23-.246c-.395.305-.79.613-1.036.805l-.972-2.856c-.13.02-.258.035-.387.055-.074.281-.3.676-.195.824 1.097 1.504.27 3.043.242 4.61zm-53.102 4.43a8973.96 8973.96 0 0 1-5.109-6.324c-.094.086-.187.164-.281.246 1.086 2.648 2.746 4.812 5.39 6.078zm1.852-76.18c-.277.793-.484 1.407.102 2.059.207.23.28.707.222 1.035-.191 1.059-.914 1.695-1.875 2.106-.383.164-.734.398-1.344.73 1.75.137 3.383-.965 3.93-2.437.192-.52.563-1.165.406-1.579-.265-.683-.894-1.226-1.441-1.914zm59.477 99.907c.085-.075.167-.149.257-.223-.347-.453-.632-1.207-1.054-1.293-.672-.137-1.516.02-2.133.348-.317.168-.297.968-.43 1.484.117.04.235.074.352.105l.652-1.195.41 2.418c.504-.398.832-.656 1.145-.906-.059-.356-.11-.68-.168-1.05l.969.312zm-98.696 28.023c.082.05.164.102.242.152.192-.222.38-.441.575-.66 1.304-1.48 1.972-3.472 3.726-4.605.203-.133.153-.649.219-.985-.293.09-.633.114-.867.286-1.559 1.093-2.258 2.828-3.18 4.386-.27.457-.477.95-.715 1.426zm89.754-58.734c-1.898-.328-2.644.011-3.156 1.605-.27.836-.047 1.832-.047 2.688.7.07 1.445.14 2.332.23-.437-.57-.793-1.004-1.117-1.457-.844-1.184-.606-1.969.742-2.523.422-.172.832-.364 1.246-.543zm-73.027-5.13 1.508-2.44a5.467 5.467 0 0 0-.137-.18c-1.328.632-2.66 1.27-4.059 1.937.145.445.301.945.375 1.172l2.313-.488zm85.535-34.116c-1.828.93-2.371 1.945-2.14 3.894 1.87-.707 2.816-2.383 2.14-3.894zm-16.262 42.68c-2.105 1.714-4.304 3.12-7.3 2.784.464.977 1.285.786 1.859.72 2.351-.263 4.297-1.263 5.441-3.505zm-55.754.445c-.968.18-1.644.367-2.332.414-.32.02-.918-.211-.933-.375-.04-.36.18-.766.355-1.121.078-.149.317-.22.524-.348-.754-.809-1.16-.203-1.536.27-.605.761-.464 1.8.274 2.32 1.058.754 2.48.39 3.648-1.16zm-3.304 12.39c-.063-.101-.13-.203-.192-.308-.469.28-1.047.468-1.39.863-1.121 1.266-2.407 1.75-4.047 1.21-.344-.112-.723-.116-1.328-.206 1.945 1.941 6.254.8 6.957-1.559zm58.773-45.18c1.578-1.242 1.23-4.14-.344-4.847-.468.7-.925 1.367-1.433 2.12.761.142 1.453.267 2.133.384-.125.82-.23 1.527-.356 2.344zm18.531 18.395c1.836-.621 2.414-1.156 2.364-2.242-.043-.895-.77-1.695-1.477-1.832l-.887 4.074zm-98.05 31.75c-1.153 0-2.247-.07-3.325.023-.699.063-1.097.52-.754 1.415.457-.247.848-.454 1.278-.68.195.422.394.847.597 1.293 1.02-.422 2.16-.578 2.204-2.051zm105.214-23.094a31.985 31.985 0 0 1-.07-.289c-1.062-.261-2.125-.531-3.215-.8l-.449 3.027 3.734-1.938zm-69.812 32.114c.023-.102.039-.207.062-.313-1.375-.34-2.746-.687-4.125-1.031-.03.11-.062.21-.097.316 1.968 1.172 3.949 2.332 6.383 2.563-.211-.371-.493-.692-.844-.817-.735-.254-1.504-.402-2.262-.597l.047-.22c.281.036.559.067.836.099zm22.98-90.957c1.016-.735 1.953-1.473 2.957-2.11 1.141-.734 2.254-.117 3.438.203-.383-.578-.8-1.156-1.344-1.32-1.473-.438-4.531 1.309-5.07 2.773-.043.114.008.266.02.454zM68.418 120.21c-.59.73-1.184 1.41-1.715 2.133-.566.773.106 2.164 1.07 2.195.211.004.61-.285.618-.457.05-1.223.027-2.45.027-3.871zm4.445-15.29c-.199.977-.5 1.845-.5 2.708.004.43.567.86.88 1.285.312-.242.78-.422.91-.738.554-1.399.171-2.348-1.29-3.254zM94.23 172.81c.11.03.22.058.325.09.945-1.11 1.777-6.5 1.12-7.922-.495 2.707-.968 5.27-1.445 7.832zm74.922-89.27-.14-.316h-4.668c.719 1.226 3.136 2.117 3.937 1.62-.398-.198-.781-.394-1.18-.597l2.051-.707zm-93.277 51.05c-.766.27-1.555.493-2.285.84-.164.079-.274.72-.14.891.48.614 1.023 1 1.925.504.93-.512 1.191-1.07.5-2.234zm96.121-35.944c.664 1.453 4.672 2.132 6.879 1.367-2.41-.48-4.645-.926-6.879-1.367zm-31.457-6.938 3.152 1.309c-.152-1.145-.27-2.024-.386-2.91-.055 0-.11.003-.164.003-.172.473-.34.95-.61 1.696-.043-.871-.074-1.457-.101-2.043-.094-.024-.192-.043-.285-.067l-1.606 2.012zm-70.543 31.41c.926-.437 1.688-.812 2.465-1.156.512-.23.707-.563.398-1.066-.293-.473-.586-1.012-1.304-.727-.774.312-1.567 1.656-1.559 2.95zm8.031 29.324c-.03-.113-.058-.226-.093-.34-1.032-.425-1.473-2.074-3.192-1.316.422.832.844 1.653 1.34 2.633.606-.305 1.277-.64 1.945-.977zm81.95-61.593c.851-.223 1.507-.723 1.847-1.5.332-.774.309-1.598-.234-2.313-1.09.305-1.645.8-1.375 1.98.117.508-.133 1.102-.238 1.833zM111.62 150.66a5.036 5.036 0 0 1-.016-.242c-1.613-.441-3.226-.887-5.003-1.375 1.722 1.77 4.812 3.047 5.113 2.16l-.531-.379.437-.164zm40.25-31.066c-1.789 1.547-3.824 2.234-6.3 1.785 1.515 1.863 5.152.777 6.3-1.785zm-26.324 12.355c.016.117.035.235.05.352 2.473.265 4.856-.067 7.126-1.149a5.89 5.89 0 0 0-.043-.277c-2.375.36-4.758.715-7.133 1.074zm-64.649-12.097c2.653.695 5.04-.25 5.184-1.977-1.574.578-3.137 1.148-4.7 1.727-.124.046-.237.125-.484.25zm39.122 30.597c-2.329-.355-2.743-.117-3.06 1.43-.25 1.23.06 2.137.884 2.437 0-.543.031-1.062-.004-1.582-.086-1.27.101-1.507 1.32-1.789.309-.07.574-.328.86-.496zm46.5 30.84c-.915-.41-1.586-.137-2.075.54-.472.651-1.11 1.288-.336 2.218.664.797 1.223 1.59 2.22.976-.517-.64-1.267-1.214-1.493-1.945-.379-1.223 1.18-.988 1.684-1.789zM87.055 66.65c3.187-.055 6.007-2.391 5.304-4.528-1.074 2.426-3.035 3.637-5.304 4.527zm73.652 30.714-1.8-3.015c-.204.472-.509.984-.65 1.543-.222.902.282 1.632 1.005 1.984.32.156.949-.32 1.445-.512zm-95.39 70.524c.078-.653.246-1.274.206-1.883-.043-.652-.273-1.297-.457-2.082-1.625 2.02-1.539 3.808.25 3.965zm73.406-113.485c.047-.343.242-.777.101-1.015-.39-.688-.906-1.825-1.39-1.836-1.028-.02-2.34-.34-3.211.836 3.207-.117 3.043-.024 4.5 2.015zm1.191 17.067c2.348.93 4.246-.438 4.399-3.406-1.157 1.718-2.329 3.132-4.399 3.406zm-37.953 74.953c-.555 1.2-1.434 2.012-2.727 2.191-1.195.168-2.437.309-3.234-1.058-.328 1.132-.031 1.746 1.043 1.707 1.285-.047 2.59-.364 3.824-.75.863-.266 1.262-1.051 1.094-2.09zm47.148-47.031c1.11.02 1.836-.364 1.942-1.184.066-.48-.383-1.098-.73-1.555-.403-.535-.946-.96-1.485-1.492.059-.074-.094.031-.14.172-.282.84.124 1.402.78 1.863.735.512.864 1.055.083 1.653-.125.097-.211.25-.45.543zM85.437 120.52c-1.039.101-1.671.628-1.37 1.125.43.703.714 1.59 1.89 1.496 1.02-.079 1.633-.594 2.02-1.422.449-.957-.286-1.934-1.387-1.918 1.097 1.523 1.039 2.285-.34 2.683-.445.125-1.043-.27-1.566-.421.156-.364.308-.735.476-1.094.063-.145.164-.266.278-.45zM72.93 109.895a1274.24 1274.24 0 0 1-2.797-1.954c-.219.266-.512.63-.793.973 1.312 1.75 1.781 1.902 3.59.98zm92.129 53.55c-.504.032-.973.024-1.434.094-.21.031-.559.184-.574.316-.063.489-.184 1.11.047 1.458.246.367.863.5 1.34.675.093.032.398-.203.417-.343.102-.754.145-1.516.204-2.2zm-19.711-81.222v5.004c1.55-1.258 1.488-3.625 0-5.004zm8.742 53.968c.004.075.004.153.004.23l2.297-1.179c0 .145-.032.414.015.672.024.14.172.344.29.363.117.02.324-.12.398-.246.32-.535-.598-2.554-1.09-2.746-.652.988-1.281 1.95-1.914 2.906zm-94.606-.527c1.907-1.762 1.754-4.867-.257-5.754.515 1.957 1.359 3.82.257 5.754zm104.297 24.211c1.52-.992 1.567-2.344.114-3.914-.29.32-.579.64-.813.902.238 1.032.469 2.028.7 3.012zm8.781-42.402c1.43-.645 2.016-1.532 1.973-3.004-.316.195-.594.367-.87.531-.294-.207-.571-.406-1.102-.785zm-44.546-58.746.093.332c.203.222.375.488.618.652.511.34 1.058 1.016 1.699.394.957-.914 2.066-1.77 2.183-3.351-1.023 1.762-2.382 2.785-4.593 1.973zm-.926-8.766c-.145-.574-.27-1.063-.422-1.668.453.062.82.113 1.21.164-.144-1.129-.784-1.531-1.823-1.137-.336.13-.856.664-.84.692.48.675.367 1.879 1.875 1.949zm34.105 63.883c-.11 1.11 2.176 2.375 4.043 2.234.008-.84.008-.84-4.043-2.234zm-76.894 32.64c-.586-.968-1.332-1.097-2.04-.933-.952.226-1.863.64-2.898 1.012.754.472 1.645.976 2.278.445.523-.438.953-.403 1.472-.442.328-.023.66-.043 1.188-.082zM103.67 45.93c.544-.668.974-1.032 1.161-1.493.145-.343.133-1.035-.082-1.19-.41-.298-1.016-.325-1.543-.458-.004.371-.02.742-.016 1.113.004.348-.015.707.051 1.043.055.278.227.532.43.985zm37.536 107.933.094.293c.773 0 1.57.106 2.32-.039.438-.082.828-.531 1.172-.883.062-.062-.184-.636-.328-.652-.524-.059-1.121-.117-1.574.082-.618.274-1.13.79-1.684 1.2zm25.723 3.133c.054-.07.11-.137.164-.207-.223-.242-.422-.512-.672-.719-1.16-.957-2.207-1.945-1.336-3.644.035-.07-.043-.192-.094-.395-1.445.653-.816 2.07-.793 2.871.047 1.47 1.89 1.235 2.73 2.094zm-6.578-44.152.316-.223c0-.52.059-1.055-.023-1.566-.055-.356-.266-.934-.473-.965-.43-.063-.965.086-1.336.328-.164.11-.172.777 0 .992.43.543 1 .965 1.516 1.434zm-.516-17.719c.121.04.242.078.363.121.871-1.824 2.645-2.547 4.262-3.441.574-.32 1.246-.485 1.105-1.528-1.664 1.086-3.28 2.059-4.785 3.18-.469.348-.64 1.098-.945 1.668zM163.21 86c1.746 2.227.465 3.7-1.184 5.121 1.278-.336 2.625-.695 2.856-2.125.203-1.266-.68-2.223-1.672-2.996zm-72.527 52.883c-1.282 1.34-1.207 2.867-.594 4.18.234.503 1.539.507 2.355.742l.13-.399c-.395-.156-.778-.328-1.18-.453-.81-.25-1.278-.738-1.122-1.617.086-.473.309-.922.399-1.395.066-.343.012-.707.012-1.058zm86.347-27.633 5.64-4.145c-1.519 1.114-3.858.934-4.831 2.852-1.082-.133-.508.68-.809 1.293zm-17.636 59.95c.097.042.199.09.292.132.32-.39.848-.75.915-1.18.105-.672.343-.968.992-1.105.215-.047.457-.406.508-.66.039-.211-.153-.645-.301-.672-.258-.047-.617.07-.828.242-1.028.844-1.344 2.027-1.578 3.242zm-80.7-30.395a545.62 545.62 0 0 0 2.723-.528c-.957-1.507-1.727-1.586-3.27-.484l.547 1.012zm91.418 18.37c.328.481.496.954.828 1.15.34.198.84.124 1.27.171-.05-.453-.098-.91-.16-1.36-.016-.1-.102-.187-.125-.284-.113-.508-.309-1.063-.93-.813-.344.137-.531.66-.883 1.137zM88.63 119.09c-2.063-.836-2.785-2.426-2.55-4.781-.895 1.136-.915 2.222-.224 3.3.614.961 1.403 1.7 2.774 1.48zm82.215-8.715c.754-.695 1.508-1.418 2.293-2.105.34-.297.785-.48 1.093-.801.215-.219.278-.578.407-.875-2.473.863-4.125 2.781-3.793 3.781zm-11.504 28.477c.457-.641.965-1.145 1.2-1.758.124-.32-.231-.824-.368-1.246-.402.218-.942.34-1.176.675-.476.7-.305 1.454.344 2.329zm8.508-45.055c-1.536 1.074-1.52 1.066-.618 2.512.125.199.11.566.02.808-.117.328-.363.613-.621 1.016l1.219.199v-4.535zm-15.028 59.398c.344.32.582.664.688.625.988-.347 1.21.332 1.5 1.008.242.578.586 1.059 1.336.734.18-1.73-.903-2.535-3.524-2.367zm3.54-1.336-.235.258 1.914 2.649c1.223-1.024 1.18-1.453-.137-2.137-.507-.266-1.027-.516-1.543-.77zm-11.005 8.97c.149-.227.325-.45.454-.7.421-.816-.297-1.969-1.215-1.906-.2.011-.567.34-.543.414.27.785.066 1.843 1.304 2.191zm17.512-50.493c-.148.016-.297.027-.441.043-.074.55-.39 1.242-.168 1.621.414.71 1.164 1.203 2.008 1.383.078-.074.16-.153.242-.227a1806.78 1806.78 0 0 1-1.64-2.82zm-79.762 12.098c-.34 1.101.247 1.691 1.137 2.054 1.254.512 3.106-.16 3.871-1.445-1.8.676-3.625 1.898-5.008-.61zm57.872 43.73c.543.11.918.309 1.207.219.629-.188 1.234-.485 1.804-.813.239-.136.364-.465.535-.707-.382-.136-.878-.496-1.128-.367-.762.383-1.426.957-2.418 1.668zm27.335-83.367c1.141-.152 2.157-1.309 2.625-2.879.204-.676.192-1.348-.785-2.11.547 2.235-.699 3.544-1.84 4.989zM84.63 128.05c-1.234-.61-2.055-.77-2.649.234-.433.738-.222 1.88.524 2.422-.02-1.34.406-2.367 2.125-2.656zm-4.656 29.617c-.551.133-1.11.273-1.664.406.601.45 1.136.707 1.707.856.207.05.664-.118.695-.258.168-.703.23-1.43.336-2.192h-1.188c.043.442.075.817.114 1.188zm88.937-45c-.61-.984-1.207-1.945-1.941-3.125-.149.473-.496.973-.39 1.344.456 1.566 1.07 1.949 2.331 1.781zm-40.785-62.695c.496.246.926.453 1.36.664.55-1.356.32-2.36-.731-3.153l-.629 2.489zm40.39 99.398c.012.149.02.293.032.441h2.094c-.032.07-.063.149-.094.223.527.211 1.055.426 1.582.637l.25-.27c-.125-.425-.25-.851-.406-1.367-1.239.121-2.348.227-3.457.336zm-19.413-.105c-1.372.222-2.801.453-4.188.68.973 1.39 3.047 1.066 4.188-.68zM89.508 83.629c-1.23-.152-2.613.348-2.899-1.559-.504 1.399-.46 1.946.032 2.211.886.473 2.09.262 2.867-.652zm71.367 44.922c-1.84-1.465-3.328-1.41-3.777 0zm4.066-11.715c-.675.57-.89 2.465-.472 2.762.242.172.625.332.855.254.2-.07.426-.528.375-.75-.172-.72-.46-1.407-.758-2.266zm12.934 26.574c.992.758 3.133.395 4.324-.668-1.625-.644-2.887.567-4.324.668zm-16.258-67.68c-1.12.2-2.289.407-3.441.61 1.367 1.523 2.789 1.238 3.441-.61zm-25.105-29.343 4.613-1.672c-2.07-.606-4.063.18-4.613 1.672zm42.343 99.851c.73.106 1.282.274 1.81.223.269-.024.64-.406.718-.691.09-.344-.086-.758-.145-1.137-.32.07-.707.05-.945.23-.484.364-.887.836-1.438 1.375zm-36.64 13.68.73-2.918c-.058-.063-.12-.125-.18-.191-.648.73-1.312 1.449-1.925 2.207-.059.074.12.484.277.566.356.176.766.238 1.098.336zm-58.95-86.332c-.413-1.68-.12-3.242.817-4.883-1.809.535-1.246 1.942-1.535 2.922-.215.734-.254 1.508.719 1.96zm-6 62.914c-.222.656-.484 1.234-.605 1.848-.047.246.215.554.336.836.266-.145.625-.227.774-.446.207-.308.25-.722.375-1.086.261-.742.058-1.152-.88-1.152zm10.227-10.691c.266-.688 1.602-.25 1.465-1.434-.809.305-1.594.52-2.281.902-.215.121-.344.809-.2 1.055.243.414 2.063-.02 2.504-.613-.3.035-.527.074-.757.086-.243.015-.48.004-.73.004zm-4.469 23.171c-.613 1.067-.488 1.567.329 2.118 1.027.699 2.375.582 3.085-.325-1.46.079-3.066.489-3.414-1.793zm72.563 29.645c-.18-1.156-.293-1.902-.441-2.86-.665.485-1.16.844-1.649 1.204.281.32.563.644.84.969.023.027.027.078.05.09.325.167.653.327 1.2.597zm-50.574-23.145c.734-.91.613-1.085-1.63-2.535-.183.282-.366.559-.585.887.781.578 1.5 1.113 2.215 1.648zm54.504-40.996.312-.152c-.14-.332-.25-.68-.418-.996a36.303 36.303 0 0 0-1.152-2c-.168-.262-.414-.477-.656-.68-.024-.023-.364.192-.356.285.024.325.055.688.227.946.414.636.906 1.23 1.379 1.832.21.265.441.511.664.765zm-70.43-61.87c-1.344.44-1.211 1.456-1.281 2.234-.035.414.422.87.652 1.308.102-.047.203-.09.305-.133.101-1.062.203-2.125.324-3.41zm-5.606 61.718c-.996.738-1.453 2.11-1.023 2.867.328.586 2.191 1.688 2.57 1.567-.64-.563-1.605-1.036-1.87-1.758-.266-.723.175-1.7.323-2.676zm-4.582 13.461c-1.09-1.215-1.187-1.18-2.492.875.805.59 1.207.453 2.492-.875zm82.825 44.773c.722-1.125 1.332-2.066 2.054-3.187-1.535.101-1.89 1.297-2.718 1.957.203.379.382.707.664 1.23zm-4.485-101.894c1.59-.406 2.07-2.234 1.051-3.57-.34 1.168-.676 2.293-1.05 3.57zm-3.496 86.836c-.867.789-1.933 1.762-2.976 2.71 1.105.153 2.562-1.257 2.976-2.71zM123.508 41.953c-1.61-3.246-3.102-4.988-4.223-4.68 1.895.97 2.59 2.688 3.356 4.364.066.156.175.336.312.406.113.055.3-.043.555-.09zM88.09 136.895c1.215 1.125 2.851 1.082 4.277 0H88.09zm10.055-89.43c.046-.09.09-.18.132-.27-.203-1.09-.41-2.18-.632-3.37-.75.683-.754 1.62-.711 2.386.023.441.785.836 1.21 1.254zm79.687 70.676c-.21-.938-.719-1.024-1.25-.45-.543.582-.996 1.266-1.375 1.965-.184.328-.102.797-.144 1.203.109.036.218.075.328.11.191-1.512 1.02-2.446 2.441-2.828zm-10.687 42.625c.91.078 2.37-.61 2.507-1.368.075-.402-.297-.886-.43-1.23-.75.941-1.402 1.758-2.077 2.598zm-3.149-30.657c.45-.804.852-1.445 1.156-2.132.082-.188-.058-.594-.23-.743-.149-.125-.555-.125-.727-.007-.418.293-.578 2.156-.199 2.882zm-34.945-77.222c.324.738.633 1.441.933 2.12.317-.687.637-1.386.98-2.14-.48-.648-1.218-.656-1.913.02zm-43.278 75.566c-.996.645-2.195 1.16-1.843 2.59.113.453.625.809.953 1.21l.387-.14c-1.81-1.59.37-2.418.503-3.66zm82.313-3.68c.629-1.503 1.117-2.675 1.617-3.867-.543.07-1.742 1.375-1.836 2.121-.066.493.113 1.016.219 1.746zM81.446 73.7c-.126.043-.25.082-.376.125.153.614.13 1.414.52 1.778.262.246 1.097-.122 1.68-.211l-.012-.36c-.606-.445-1.211-.886-1.813-1.332zm32.495-36.941c-.027-.13-.05-.266-.074-.395-1.465.117-3-.011-4.195 1.106.031.11.058.215.086.328 1.394-.348 2.789-.692 4.183-1.04zm-36.64 95.047c-1.102.402-2.172.789-3.32 1.207 1.515.976 3.25.207 3.32-1.207zm19.793-38.532c.765-1.62.398-3.867-.754-4.738.254 1.586.488 3.067.754 4.738zm10.039-47.359c-.973 1.477-.606 2.297 1.222 2.961-.472-1.148-.847-2.055-1.222-2.96zm62.73 47.602a17.95 17.95 0 0 0-.457-.032c-.215.809-.465 1.614-.613 2.434-.035.184.281.43.434.648.21-.152.597-.289.605-.453.066-.863.031-1.73.031-2.597zM96.078 58.344c.113.004.227.008.336.015-.074-1.172-.152-2.347-.242-3.718-1.043 1.164-1.008 2.492-.094 3.703zm-8.226 20.058c.468 0 .832.102 1.085-.023.376-.188.38-2.344-.171-3.004-.313 1.043-.57 1.89-.914 3.027zm74.375 67.028c.101-1.133.195-2.168.296-3.258-1.68.969-1.726 1.46-.296 3.258zM62.68 129.96c-.075-1.21-.137-2.26-.2-3.312-1.289 1.961-1.242 2.75.2 3.313zm101.422-66.687c1.324-1.199 1.507-1.906.773-2.812-.992.828-1.203 1.555-.773 2.812zm8.21 101.02c.446.238.833.633 1.196.61.539-.04 1.054-.364 1.625-.587-.832-1.32-1.059-1.332-2.82-.023zm-47.8-118.75c-.852-1.11-1.594-2.078-2.465-3.207.168 2.39.289 2.547 2.465 3.207zm-61.207 67.059 2.492-2.168c-1.461-.575-2.723.402-2.492 2.168zm110.703 1.59c1.008-.883.715-1.63.398-2.356-.101-.23-.324-.414-.488-.617-.184.222-.55.476-.52.668.118.722.368 1.425.61 2.304zm-21.43 57.671c-1.23-.425-1.68.227-2.148.758-.16.18-.145.512-.211.774.316.03.758.21.926.066.5-.422.89-.973 1.433-1.598zM97.36 73.676c-1-.067-1.453.258-1.578 1.082-.168 1.097.36 1.937 1.356 2.152-.235-.57-.657-1.148-.64-1.715.007-.484.519-.953.862-1.52zm-38.765 56.222c.125-.082.25-.164.375-.242-.27-.437-.446-1.011-.832-1.293-.594-.43-1.293-.367-1.965.309.86.437 1.64.828 2.422 1.226zm93.71 32.192c.165.586.235 1.117.477 1.555.156.28.563.425.86.628.086-.316.222-.628.25-.945.093-1.02-.446-1.371-1.586-1.238zm-27.054-22.07c.008-.043.02-.09.031-.137-1.39.133-2.781.258-4.351.402.511 1.063 1.238.852 1.906.637.82-.262 1.61-.598 2.414-.902zm30.535 27.515c-.715 1.438-.488 1.707 1.969 2.262-.625-.715-1.25-1.438-1.969-2.262zM91.242 54.75c.672-1.246 1.32-2.46 1.965-3.664-1.43.785-2.703 1.664-1.965 3.664zm-11.906 67.867c.844.25 1.57.469 2.484.738l-1.164-2.332-1.32 1.594zm94.195 46.238c-.87-.214-1.894.211-2.199.989-.05.136.215.562.375.59.707.113 1.707-.793 1.824-1.579zm-6.492-60.777c-1.16-.031-2.098.813-2.45 2.14-.062.243.227.571.442 1.063.84-1.191.469-2.785 2.008-3.203zm-6.402 51.512c.972-.078 1.492-.707 1.629-1.637.035-.242-.293-.543-.453-.816-.235.168-.594.285-.676.504-.227.617-.34 1.273-.5 1.949zm1.707-49.375c.797-.918 1.511-1.742 2.23-2.563-1.828.317-2.539 1.184-2.23 2.563zm-8.79-15.29c.848-.445 1.048-1.636.493-2.878-.781.851-1.016 1.738-.492 2.879zm-6.863 77.571.094-.332c-.289-.133-.62-.441-.851-.375-.707.195-1.899-.066-1.59 1.469l2.347-.762zm3.672 5.32c-.218-.011-.437-.027-.656-.043-.176.594-.352 1.184-.531 1.778.46-.012.926-.02 1.387-.028l-.2-1.707zm9.883-105.027c-.086 0-.176.008-.262.008-.183.484-.433.957-.52 1.457-.05.293.126.648.27.941.032.063.453.047.54-.058.203-.254.445-.594.417-.875-.05-.5-.285-.98-.445-1.473zM147.36 91.9c.977.953 2.5.601 3.098-.794-1.086.278-2.074.532-3.098.793zM93.723 49.66c1.117-.097 2.05-.18 3.23-.285-1.695-1.09-2.484-1.047-3.23.285zM76.12 163.273c.063-.113.129-.226.192-.343-.376-.332-.762-.946-1.118-.93-.492.02-.965.52-1.445.813l.14.363c.743.031 1.489.062 2.231.097zm87.875-23.12.082.367c1.922.363 2.457.207 2.961-1.067-1.11.254-2.074.477-3.043.7zm-90.465-8.891c-.691-.29-1.328-.551-2.312-.957.148.656.133 1.37.355 1.453.653.238 1.426.328 1.957-.496zm97.57-9.797c-.007 1.129.926 2.617 1.962 2.965-.72-1.047-.606-2.356-1.961-2.965zM79.114 83.93l.309-.332c-.285-.723-.567-1.446-.852-2.164-.132.015-.265.035-.398.05-.098.516-.399 1.106-.242 1.524.144.402.77.62 1.183.922zm83.328 52.168c-.273 1.093-.507 2.023-.8 3.187 1.453-1.015 1.687-1.992.8-3.187zm19.54 5.5c.652.652 1.226.207 1.59-.18.195-.207-.032-.809-.063-1.234-.336.144-.723.222-.98.449-.243.219-.344.59-.548.965zm-18.778-79.746c-.14-.051-.281-.106-.418-.157-.222.582-.5 1.157-.633 1.762-.039.172.356.438.547.664.168-.203.453-.394.48-.617.071-.543.024-1.102.024-1.652zM67.281 166.367c.11.051.219.106.324.156.223-.28.63-.57.622-.84-.024-.511-.286-1.019-.45-1.53-.168.027-.332.05-.5.077.004.715.004 1.426.004 2.137zM164.2 75.863c-1 .832-1.77 1.477-2.594 2.16 1.247.34 1.86-.601 2.63-1.12.124-.083-.012-.563-.036-1.04zm2.844 55.18c-.809-.125-1.719.512-1.621 1.078.043.254.332.543.578.649.137.058.523-.176.617-.368.2-.394.274-.851.426-1.359zM79.18 165.887c.062 1.261.511 2.293 1.851 3.035-.117-1.477-1.148-2.16-1.851-3.035zm-2.407-61.973c-.628.914-.464 1.79.293 2.102.176.074.493.043.621-.075.118-.105.16-.445.079-.593-.27-.473-.614-.899-.993-1.434zm-8.77 9.652c-1.437.93-1.495 1.762-.175 2.594.078-.746.16-1.472.227-2.195.011-.121-.032-.25-.051-.399zm-6.233-1.379c-.38 1.918.023 2.7 1.507 2.977-.492-.977-1.011-1.996-1.507-2.977zm17.023 23.876c1.441.609 2.242-.083 2.105-1.805-.722.625-1.394 1.195-2.105 1.804zm79.922-54.118c.027-.203.05-.41.078-.613l-3.496-.281c-.02.168-.035.34-.055.508l3.473.386zM145.457 92.25c.059-.11.117-.215.176-.328-.113-.59-.223-1.184-.352-1.871-.984.347-.926 1.101-.816 1.738.031.207.644.313.992.461zm23.625 12.469c.004-1.305.348-2.387-.926-3.297.367 1.152-.379 2.316.926 3.297zM58.188 131.012c-.399-1.438-1.313-1.832-2.938-1.29 1.055.462 1.895.833 2.938 1.29zm96.921-52.614c1.028-.644 1.274-1.34.797-2.128-.27-.45-.605-.872-1.312-.399.969.695 1.015 1.543.515 2.527zm14.739 12.875c1.43-.5 1.734-1.48.941-2.734-.309.89-.594 1.727-.941 2.734zm-22.188 4.079c-.57-.457-.926-.809-1.351-1.04-.094-.05-.418.317-.637.489.355.398.691.82 1.086 1.168.047.047.422-.285.902-.617zM93.41 126.46c-.992.582-1.98 1.16-2.91 1.703 1.988.149 2.777-.027 2.91-1.703zM75.645 97.71c-.563.937-1.008 1.676-1.485 2.473 1.348-.051 1.91-.895 1.485-2.473zm-3.563 66.852c.813-.508.711-1.133.258-1.704-.102-.129-.774-.07-.88.098-.487.762.11 1.168.622 1.606zm10.055-3.075c1.3.856 2.496.555 3.008-.605-.965.195-1.852.375-3.008.605zm91.914-19.808c.508-1.457.05-1.825-1.856-1.461l1.856 1.46zm-18.899 28.976c-.011-.261.036-.644-.082-.969-.047-.128-.547-.253-.683-.16-.438.305-.801.715-1.192 1.082.07.055.14.11.211.168.516-.035 1.028-.074 1.746-.12zm17.82-42.957c1.63-.41 1.833-.984.782-2.035l-.781 2.035zm-14.812-6.328c-1.273.024-1.808-.75-2.12-2.05-.411 1.253-.267 1.949.663 2.335.477.196.984.684 1.457-.285zm14.98 17.008c.38-.324.704-.606 1.09-.941-.5-.301-.933-.567-1.386-.836-.313.77-.707 1.484.297 1.777zm-14.187-15.438c-.558 1.274-1.36.72-2.203.399.125.988.75 1.27 1.398 1.176.618-.086 1.141-.516.805-1.575zm-12.648-50.968c-.864.992-.153 1.949-.024 2.93.805-.977.09-1.95.024-2.93zm-55.047 4.785c.094-.102.187-.203.285-.305-.348-.379-.645-.871-1.074-1.074-.172-.078-.649.48-.98.75.062.105.128.21.19.316.524.106 1.051.211 1.579.313zm77.441 13.219c1.426-.98 1.461-1.926.203-2.645l-.203 2.645zm-1.199 55.027c1.41.035 2.762-1.274 2.32-2.16-.757.707-1.515 1.41-2.32 2.16zm-88.207-29.918c1.066 1.367 1.55 1.367 2.508 0h-2.508zm71.117 66.223.13-.442c-.806-.297-1.61-.59-2.415-.887l-.188.5c.524 1.06 1.7.418 2.473.829zm-65.46-78.145c-.61.164-.727.59-.337 1.203.364.574 1.028.754 1.473.469-.367-.543-.738-1.086-1.137-1.672zm82.804 98.621a7.582 7.582 0 0 0-.156.219c1.297.98 2.597 1.96 3.898 2.941.082-.11.16-.222.246-.332-1.332-.941-2.66-1.883-3.988-2.828zm-98.816-49.488c1.492 1.3 1.843 1.258 2.304-.223l-2.305.223zm35.015-8.914c.703 1.742 2.02 1.379 3.149 1.457-.97-.445-1.934-.895-3.149-1.457zM72.5 95.664l-.617 2.375c1.363-.504 1.61-1.363.617-2.375zm74.895 79.106.453.218c.359-.46.718-.918 1.082-1.375l-.211-.328c-.41.074-.973.016-1.188.258-.222.254-.105.805-.136 1.227zM92.488 88.297c-.894-.125-1.734-.79-2.629-.004.649.707 1.914.71 2.63.004zm67.075 38.289c-.043.117-.086.234-.125.352.71.261 1.417.523 2.273.84-.496-1.368-.633-1.434-2.149-1.192zm7.789 11.855c1.148-.445 1.367-1.175 1.164-2.086-.028-.132-.184-.316-.293-.324-.114-.008-.313.149-.348.27-.184.656-.328 1.324-.523 2.14zm.808-29.043c-.187 1.79.27 2.38 1.528 2.184-.473-.676-.926-1.32-1.528-2.184zm1.465 6.286v2.804c.98-.918.992-1.773 0-2.804zm.895 9.355c-.258-.746-.512-1.492-.81-2.367-.714 1.387-.581 1.875.81 2.367zm-13.45-30.156c-1.035.949-.992 1.484.22 2.492-.08-.918-.142-1.605-.22-2.492zm9.008-7.863c-.863-1.336-1.703-2.258-3.34-2.23 1.106.733 2.106 1.401 3.34 2.23zM124.266 58.03c.914.746 2.648.645 3.261-.117-.965 0-1.972 0-2.984.004-.086.004-.172.074-.277.113zM76.898 156.09l.325.129c1.238-.856 1.304-1.176.293-2.121-.223.714-.418 1.355-.618 1.992zm88.692 2.105-.55 1.797.265.184 1.53-1.176c-.5-.32-.843-.543-1.245-.805zm-97.824-16.879v-2.836c-.946.81-.942 1.344 0 2.836zm39.242 2.133c.066-.144.129-.293.195-.437-.863-.375-1.73-.75-2.594-1.121-.07.156-.14.316-.207.472.868.364 1.739.727 2.606 1.086zM79.156 87.484c-.59.22-1.058.387-1.527.563v.32c.414.27.828.54 1.39.903.051-.688.083-1.102.137-1.786zm.707 9.383c.082.59.157 1.102.223 1.617.098.016.195.036.289.055l.898-1.922c-.578.102-.941.164-1.41.25zm-13.722 35.801c-.782-.18-1.477-.34-2.329-.54 1.032 1.352 1.907 1.544 2.329.54zm110.445-19.137c-.383-.933-.695-1.687-1.008-2.441-.105.043-.21.086-.316.133-.008.902-.219 1.898 1.324 2.308zm-39.703-57.437c.195-1.028-.438-1.211-.969-1.395-.762-.265-1.508.117-1.996 1.07 1.059-.812 2.062-.925 2.965.325zm33.23 43.84c-.508-.762-1.047-1.286-2.172-.93.715.578 1.02 1.637 2.172.93zM70.25 89.18l.383.175c.375-.847.746-1.69 1.117-2.539-.078-.035-.16-.074-.242-.109-.492.79-1.426 1.375-1.258 2.473zm106.996 81.574c-.2-.922-.703-1.106-1.344-.973-.062.012-.105.531-.027.77.32 1 .836.156 1.371.203zM86.512 96.617c-1.125 1.067-1.172 1.98-.305 2.7.098-.84.191-1.66.305-2.7zm-6.957-17.144.414 2.242c1.054-1.004.945-1.535-.414-2.242zm66.086 14.574c.183.086.359.168.539.254.074-.262.277-.574.191-.774-.148-.355-.465-.64-.715-.957-.234.203-.707.485-.668.59.117.332.422.598.653.887zm15.785 7.168c-.11-.016-.227-.035-.336-.05-.547.726-.805 1.503-.504 2.374.137.027.273.055.41.078.14-.8.285-1.601.43-2.402zm-14.133 81.289c-.379.113-.79.117-.973.32-.187.211-.289.68-.183.926s.52.363.781.531c.129-.617.219-1.05.375-1.777zM164.797 75.57l.367.059c.188-.703.375-1.41.563-2.117-.133-.032-.262-.067-.395-.098-.488.637-.797 1.32-.535 2.156zm-96.68 68.082c1.074-.386 1.918-.691 2.922-1.05-1.473-.36-2.105-.145-2.922 1.05zm96.649-42.214c.078-.06.16-.118.242-.18-.305-.461-.574-.957-.934-1.371-.125-.137-.488-.063-.742-.082.07.23.074.53.23.683.364.356.797.637 1.204.95zm-1.082 80.886c-.536-.144-1.067-.293-1.852-.512.77 1.563.785 1.567 1.852.512zm30.77 4.528c-.86.8-.794 2.183 0 2.578v-2.578zM161.487 81.324c-1.02-.449-1.183-.386-1.62.602l1.304.316c.121-.355.219-.64.316-.918zm8.696 57.531c.109.02.218.04.328.063.87-.887.437-1.852.144-2.797-.156.91-.316 1.82-.472 2.734zm-2.883-32.18c1.054-1.124 1.113-1.421.351-2.015-.035.695-1.097 1.074-.351 2.016zm-9.465 30.54c-.16.02-.32.035-.484.055.054.57.074 1.152.195 1.71.023.102.469.114.848.196-.227-.801-.391-1.38-.56-1.961zm-8.664 38.894c-1.055.446-1.594.934-1.336 1.953 1.16-.101.887-1.09 1.336-1.953zM69.453 90.695c-.191 1.414.195 1.895 1.512 1.75l-1.512-1.75zm114.984 15.7c-.296.386-.539.707-.777 1.023-.246.328-.488.66-.8 1.082 1.542-.422 1.84-.813 1.577-2.105zm-13.796 24.976-.317.082c.16.598.324 1.2.512 1.906.793-.832.715-1.254-.195-1.988zm-9.086-32.926c.347.399.617.762.945 1.063.113.105.383.125.547.074.09-.031.148-.3.137-.457-.055-.602-.914-1.004-1.63-.68zm5.625 54.207c-1.192.868-1.293 1.48-.438 2.305.14-.746.278-1.457.438-2.305zm-83.926-48.156c-.496 1.156-.106 1.613 1.308 1.563l-1.308-1.563zm-6.973 39.008c.125.031.25.059.375.086.215-.422.461-.832.633-1.274.055-.136-.078-.492-.156-.5-.195-.023-.563.051-.59.157-.137.5-.184 1.02-.262 1.53zm2.176 16.59c-.262.527-.523 1.05-.887 1.789 1.422-.395 1.504-.563.887-1.79zm62.531 7.25c1.278.758 1.778.672 2.38-.313-.77.102-1.438.188-2.38.313zm34.41-28.508c.075.059.145.121.215.18.371-.18.79-.309 1.09-.567.152-.137.098-.508.137-.773-.266.012-.649-.082-.781.054-.286.31-.446.73-.66 1.106zM77.871 123.91c-.414-.265-.664-.55-.894-.535-.22.016-.415.344-.622.535.254.235.48.52.778.668.082.043.37-.324.738-.668zm81.434 33.75-.36-.324c-1.004.176-.957 1.195-1.425 1.793.062.059.128.113.195.176a315.73 315.73 0 0 1 1.59-1.645zm-89.813-.652c.89-.594.477-1.102.133-1.504-.098-.113-.547.07-.832.121l.7 1.383zm4.778-3.488c-.704-1.106-1.332-1.063-1.915 0zm108.496-34.641c1.343.117 1.832-.27 1.824-1.395-.606.465-1.16.891-1.824 1.395zm-9.653 1.297c-.125.008-.25.015-.37.02l.398 2.62c.105-.011.21-.023.32-.039.027-.09.086-.183.07-.265-.129-.782-.273-1.559-.418-2.336zm-6.125 21.047a10.215 10.215 0 0 1-.332-.239c-.32.45-.636.899-1.062 1.5 1.37.09 1.148-.761 1.394-1.261zm2.95 12.879c-.31.773-.524 1.316-.844 2.12 1.27-.706 1.398-1.003.844-2.12zm-92.993-31.329c.118-.144.23-.285.348-.43-.379-.312-.762-.624-1.145-.94-.132.163-.265.327-.398.495.398.29.797.582 1.195.875zm81.184 28.07c.531.606 1.02 1.165 1.57 1.798.145-1.211-.281-1.676-1.57-1.797zm21.191-24.667c1.024-.828.957-1.27-.324-1.88.117.665.219 1.25.324 1.88zM76.023 92.886l.301-.21-1.406-1.77c-.137.117-.273.23-.41.348l1.515 1.633zm89.98 5.825c-.065.105-.124.207-.19.312.847.493 1.69.989 2.535 1.489l.199-.348-2.543-1.453zm-21.015 65.543c.16-.14.317-.285.473-.43-.266-.32-.535-.644-.805-.965-.16.184-.488.48-.449.532.215.32.512.582.781.863zM69.98 129.129c.418-1.172.047-1.703-1.105-1.758l1.105 1.758zm100.473 32.207v1.336c.602-.379 1.02-.645 1.442-.91-.028-.078-.055-.153-.079-.23l-1.363-.196zM97.38 59.418l.508-.047c-.043-.473-.075-.95-.149-1.418-.004-.016-.39.024-.597.04.078.476.156.948.238 1.425zm24.7 83.379c-.067.082-.138.16-.208.242.242.25.453.649.734.707.258.05.59-.27.887-.426-.039-.09-.086-.18-.129-.27-.43-.081-.855-.167-1.285-.253zm25.21 17.41c-.074-.02-.148-.043-.226-.062-.157.449-.34.894-.422 1.359-.012.059.527.215.984.39-.145-.714-.242-1.199-.336-1.687zm16.926-78.062.441-.012c-.094-.57-.18-1.137-.273-1.707-1.008.652-.27 1.164-.168 1.719zm7.148 59.144c.125.531.23.973.336 1.414.196-.098.535-.168.559-.297.094-.504.12-1.047-.895-1.117zm-7.508-38.004c-.156-.031-.316-.058-.476-.09-.117.547-.238 1.094-.36 1.645.176.031.352.066.528.101.105-.55.207-1.105.308-1.656zm-90.593 36.41c.133.125.27.246.406.368.344-.43.691-.856 1.035-1.286a35.435 35.435 0 0 0-.445-.355c-.332.426-.664.851-.996 1.273zm90.265-67.632c-.03-.09-.062-.18-.097-.27-.278.094-.692.105-.793.293-.172.309-.145.727-.2 1.102.118.027.235.054.352.085.246-.406.492-.812.738-1.21zm6.551 61.468c.121-.101.238-.203.36-.304-.204-.45-.403-.899-.606-1.344-.102 0-.203.008-.305.008-.066.25-.261.562-.18.742.16.34.481.605.731.898zm5.258 9.281c-.035.094-.07.188-.102.282l1.977.687c-.441-1.172-1.172-1.027-1.875-.969zm-12.84 55.532c-.082.125-.16.25-.238.375l2.449 1.36a6.1 6.1 0 0 1 .125-.216c-.777-.508-1.559-1.011-2.336-1.52zm0 0"/><path d="m111.508 154.688 1.5.351c-.403-1.48-1.844-1.062-2.668-1.656.875-.348 4.55.914 5.633 1.922-1.067.742-1.051.843.316 1.808-.664.2-1.176.489-.644 1.242l-.797.344c.261.305.504.578.87.996-.792-.101-1.726.348-1.378-.984.039-.145-.223-.363-.332-.555-.192-.344-.371-.695-.555-1.043.086-.07.176-.136.262-.207a232.64 232.64 0 0 1-1.39-.601c.179-.2.323-.364.523-.586-.528-.23-1.035-.45-1.54-.672.063-.117.133-.238.2-.36zM130.652 157.887c-2.214.797-4.382 1.777-6.656 2.328-1.398.34-2.941-.031-4.183-.992-.25-.196-.45-.457-.672-.692.054-.086.109-.18.168-.265.613.242 1.218.511 1.847.718 1.64.551 3.188-.086 4.75-.445 1.328-.3 2.645-.684 3.969-1.016.219-.054.453-.027.684-.039.03.137.062.27.093.403zM119.102 174.434c3.648 2.007 6.75.98 9.59-1.653-.618 1.801-1.91 2.828-3.61 3.324-2.277.668-4.46.075-5.98-1.671zM120.152 166.027c1.934-.304 3.72-.59 5.532-.875-.649 1.766-4.102 2.38-5.532.875zM120.406 163.563c1.91-.13 3.813-.254 5.653-.38-1.02 1.672-4.657 1.919-5.653.38zM107.148 169.379c2.332-.5 4.415.074 6.309 1.422-2.039-.754-4.332-.43-6.309-1.422zM125.582 167.07c-1.195 1.66-3.73 2.09-4.797.77 1.613-.258 3.133-.504 4.797-.77zM123.906 161.547c-2.234 1.098-3.816 1.055-4.172-.598 1.332.192 2.696.387 4.172.598zM121.8 177.39c1.427-.18 3.075-.382 4.563-.566-1.144 1.41-3.43 1.637-4.562.567zM120.059 172.137c1.441.265 3.07.566 4.554.843-1.187.903-3.34.512-4.554-.843zM108.703 171.07c1.348.477 2.695.953 4.04 1.434-.06.172-.122.344-.18.52-1.348-.47-2.696-.93-4.043-1.395.058-.188.125-.371.183-.559zM123.684 162.375c1.238-.738 2.222-1.328 3.254-1.945-.079 1.129-1.489 2.043-3.254 1.945zM121.887 169.441h2.96c-1.062 1.016-1.886 1.024-2.96 0zM123.45 178.895c1.257-.184 2.206-.32 3.245-.47-.797 1.079-1.66 1.231-3.246.47zM129.61 163.523c-.657.403-1.31.809-1.989 1.227-.195-1.04.23-1.344 1.988-1.227zM130.445 159.367c-.816.496-1.496.906-2.222 1.348.172-1.203.879-1.656 2.222-1.348zM127.805 162.25c.652-.426 1.304-.852 1.957-1.281.105.168.207.332.316.496-.664.41-1.328.824-1.988 1.234-.094-.148-.192-.297-.285-.449zM110.031 173.95l2.184.632c-.028.113-.059.227-.09.34-.793.062-1.602.176-2.2-.59.036-.125.071-.254.106-.383zM162.586 65.75c.625.809 1.387 1.137 2.39.719 1.157-.48 2.153-1.934 2.102-3.133-.012-.316-.074-.629-.113-.941.105-.02.21-.036.32-.055.082.601.317 1.234.211 1.805-.226 1.242-1.09 2.109-2.144 2.726-1.098.645-2.254.129-2.743-1.152l-.023.031zM172.703 83.156c.367.406.82.774 1.063 1.242.109.22-.207.653-.297.899-.27-.781-.508-1.473-.742-2.164l-.024.023zM121.063 107.703c.683-.305 1.242-.52 1.769-.797 1.629-.851 3.14-.687 4.535.48.84.7 1.61 1.477 2.469 2.141.562.438 1.262.7 1.84 1.121.289.215.527.59.62.938.04.152-.32.57-.538.602-.535.078-1.238.21-1.617-.051-1.621-1.114-3.512-1.184-5.325-1.461-1.379-.207-2.808-.11-4.214-.07-.563.015-1.118.242-1.711.285-.418.058-.848.21-1.25.164-1.961-.211-3.727.312-5.485 1.14-.39.188-1.12-.304-1.672-.543-.035-.02.075-.726.23-.777 2.134-.71 3.227-2.64 4.79-4.016.687-.613 1.32-1.074 2.305-.57.445.23 1.015.305 1.527.305.812.008 1.465.172 1.727 1.11zM103.469 88.59c.543-.168 1.004-.317 1.465-.461-.063-.067-.13-.129-.192-.195.485-.47.965-.934 1.445-1.407l.184.176-.93.887c1.66-.137 3.278-.535 4.805-.328 1.559.215 3.031 1.031 4.137 2.343-.813.352-1.563.676-2.438 1.051.48-.492.84-.86 1.2-1.222-.274-.235-.602-.711-.805-.66-.531.124-1.008.484-1.55.773.007.016-.056-.168-.188-.567-.922 1.407-2.348 1.075-3.86 1.122 1.188 1.375 2.766-.032 4.082 1.03-1.504.052-2.015 1.016-2.726 1.759-.246.254-.743.41-1.11.386-.773-.05-1.539-.254-2.531-.433l1.559-.946c-.043-.109-.086-.214-.125-.324h-3.059l.844-1.027h-2.215c1.008-3.047 3.309-5.059 5.871-5.102-1.637.606-3.039 1.489-3.863 3.145zM141.488 83c-.316-.21-.61-.3-.629-.434-.199-1.132-.96-1.336-1.941-1.316-.371.008-.773-.11-1.117-.262-1.086-.48-2.168-.468-3.281-.101-.23.074-.579.09-.758-.035-.707-.489-1.422-.153-2.254-.114-2.23.106-3.778 1.793-5.844 2.168-.023.004-.059-.035-.227-.136.532-.387 1.024-.735 1.415-1.02 0-.77-.13-1.48.027-2.121.297-1.254.789-1.516 2.078-1.555 1.574-.047 3.172-.36 4.715-.18 1.754.204 3.512.676 5.16 1.317 1.535.602 2.406 1.93 2.656 3.789zM99.254 84.805c1.98-3.739 4.668-6.098 8.875-6.563 1.91-.21 3.7.086 5.496.531.598.149 1.148.559 1.668.922.629.438.809 1.559.23 1.828-.418.196-1.199.047-1.597-.246-.64-.472-1.098-1.187-1.633-1.8-.078.046-.152.093-.227.14.22.504.442 1.012.66 1.516-1.288-.656-2.523-1.305-3.972-.664-.067.031-.008.347-.008.613-1.445-.559-2.578.133-3.789.82-1.789 1.016-3.668 1.875-5.703 2.903zM114.277 98.637c.29-.625.598-1.075.707-1.567.399-1.765 2.957-2.91 4.653-1.68.758.551 1.87.606 3.082.962l-.59 2.84c-.754-.598-1.305-.958-1.758-1.415-.312-.316-.46-.785-.726-1.156-.723-1.023-1.243-.996-2.168.192.32.027.601-.016.804.09.453.238 1.067.452 1.254.85.453.97 1.106 1.52 2.106 1.895.5.184.82.864 1.242 1.34-1.356.828-2.153.746-3.281-.23-1.32-1.14-1.32-1.14-2.633-.164-.973.719-1.438.633-1.996-.426-.282-.523-.496-1.086-.696-1.531zm0 0"/><path d="M117.477 90.406c.14-.422.285-.844.468-1.39-.804.144-1.507.273-2.36.43.7-1.56-.71-1.864-1.437-2.551-.785-.743-1.66-1.387-2.668-2.215.52-.063.832-.098 1.23-.145-.194-.305-.355-.55-.515-.797.04-.097.075-.191.11-.289 1.12.324 2.242.649 3.36.977.038-.063.077-.13.116-.192l-2.265-1.52c.863-.163 1.773-.331 2.75-.515v-2.66c.175 2.625 1.273 4.918 2.367 7.234.68 1.438-.367 2.555-.899 3.743a7.272 7.272 0 0 1-.257-.11zM127.836 113.402c-.031 1.864-.371 2.305-1.953 2.457-1.5.145-3.012.164-4.52.258-.73.047-1.48.051-2.18.23-1.25.321-2.269-.03-3.206-.82-.454-.382-.918-.754-1.368-1.12.489-1.063.977-1.243 1.942-.946.855.266 1.742.512 2.629.57 2.886.184 5.8.645 8.656-.629zM124.184 96.117c1.836.738 2.171 1.317 1.582 2.653-.246.554-.649.93-1.22.574-.487-.301-1.398-.406-1.05-1.383.223-.613.457-1.23.688-1.844zM125.074 87.32c.27.59.574 1.168.793 1.774.13.355.758.785-.039 1.172-.062.027.168.652.164 1.023-1.68-1.168-1.199-3.027-1.441-4.723.265-.113.57-.246.957-.41.183.496.37.989.558 1.48-.097.048-.187.094-.285.137l-.484-.625c-.074.059-.149.114-.223.172zM127.773 84.453c.723-.176 1.149-.277 1.57-.379l.106.223c-.883.598-1.765 1.191-2.648 1.789-.043-.047-.082-.094-.125-.137.238-.32.472-.64.707-.957-.028-.047-.051-.094-.078-.14-.473.289-.942.578-1.41.87l-.118-.163c1.02-.864 2.035-1.727 3.055-2.59.074.094.152.183.23.277-.367.34-.734.688-1.289 1.207zM126.96 86.996c.915-1.68 3.782-2.703 5.571-2.05-2.176-.212-3.758 1.238-5.57 2.05zM139.129 88.379c-1.195-1.008-2.293-1.934-3.395-2.86.067-.074.13-.144.196-.214 1.234.789 2.64 1.382 3.199 3.074zM129.195 82.305c-1.074.687-2.144 1.375-3.215 2.062.59-1.387 1.805-1.875 3.063-2.3.05.078.102.156.152.238zM124.48 94.484c.364-.875.7-1.687 1.036-2.5.777 1.493.675 1.743-1.036 2.5zM131.281 86.746c-1.008.41-2.02.817-3.125 1.27.883-1.258 1.29-1.446 3.125-1.27zM123.156 117.05h-3.265c0-.073.004-.152.004-.226h3.265c0 .074 0 .153-.004.227zM142.254 116.816l-1.524-2.199c1.375.38 1.543 1.281 1.774 2.133-.082.023-.164.043-.25.066zM93.18 153.469v-3.317c.601.274 1.398.418 1.511 1.32.137 1.102-.41 1.743-1.511 1.997zM92.54 153.535c-.145 1.07-1.481 1.414-2.755.723.965-.254 1.813-.477 2.754-.723zM91.39 99.055c.477-1.246.887-2.332 1.313-3.461 1.047 1.226.555 2.66-1.312 3.46zM141.836 54.555c-.266-.235-.531-.473-.793-.707.418-.364.809-.778 1.277-1.047.098-.059.743.445.711.629-.074.523-.234 1.168-1.195 1.125zm0 0"/></g></svg>