<svg xmlns="http://www.w3.org/2000/svg" width="250" height="250"><path fill="#4bc0c8" d="M189.637 250 19.043 114.11C7.234 104.722.203 89.394.203 73.034c0-16.355 7.031-31.687 18.84-41.074L60.363-.797 230.957 135.11c11.8 9.391 18.828 24.72 18.828 41.075 0 16.355-7.027 31.683-18.828 41.074zM60.347 21.055l-32.206 25.57C20.539 52.66 16.016 62.52 16.016 73.047c0 10.523 4.523 20.383 12.125 26.418l161.543 128.683 32.207-25.55c7.593-6.04 12.113-15.903 12.113-26.422s-4.52-20.383-12.113-26.422zm0 0"/><g fill="#02819b"><path d="m60.191 228.023-32.16-25.62c-7.593-6.04-12.113-15.9-12.113-26.423 0-10.52 4.52-20.382 12.113-26.417l83.25-66.051-13.73-10.91-78.524 62.296C7.22 144.285.187 159.613.187 175.973s7.032 31.687 18.84 41.074l41.211 32.828 50.985-40.48-13.735-10.942zM231.035 32.156 189.81-.672l-51.032 40.516 13.735 10.941 37.281-29.535 32.176 25.621c7.594 6.04 12.113 15.902 12.113 26.422s-4.52 20.383-12.113 26.422l-83.266 65.996 13.73 10.941 78.54-62.347c11.808-9.387 18.84-24.715 18.84-41.075s-7.032-31.687-18.84-41.074zm0 0"/><path d="m28.844 127.055 64.875-51.508 9.047 14.668-64.88 51.512zM213.574 106.246l-31.601 25.11 9.035 14.664 32.773-26.047c-3.433-4.5-6.82-9.106-10.207-13.727zm0 0"/></g></svg>