<svg xmlns="http://www.w3.org/2000/svg" width="250" height="250"><g fill="#307dfb"><path d="M125.418 249.418c-68.5 0-124-55.5-124-124s55.5-124 124-124 124 55.5 124 124-55.836 124-124 124zm0-239.836C61.5 9.582 9.5 61.582 9.5 125.5s52 115.918 115.918 115.918c63.914 0 115.914-52 115.914-115.918S189.25 9.582 125.418 9.582zm0 0"/><path d="M125.082 28.582 68.25 119l56.832 45.5L182.5 119zm-3.75 123.25-42.5-33.332 42.75-70.918zm7.836-104.25 42.75 70.918-42.5 33.332zM100.418 215.918H84.832v-37.836h5.75v32.168h9.836zM120.168 178c3.164 0 5.5.918 7 2.668 1.332 1.5 2 3.664 2 6.414v5.5c0 2.668-1 4.918-3.086 6.836l4.25 16.5h-6.164l-3.5-14.25h-3.836v14.25h-5.75v-37.836h9.086zm3.414 9.168c0-2.168-1.082-3.336-3.25-3.336h-3.414v12.086h3.414c.918 0 1.668-.336 2.336-1 .664-.668.914-1.418.914-2.336zM150.082 216.418c-2.5 0-4.664-.918-6.414-2.668S141 209.832 141 207.332v-20.664c0-2.5.918-4.668 2.668-6.418s3.914-2.668 6.414-2.668 4.668.918 6.418 2.668 2.668 3.918 2.668 6.418V191h-5.918v-4.418c0-.914-.332-1.664-1-2.332s-1.418-1-2.332-1c-.918 0-1.668.332-2.336 1-.664.668-.914 1.418-.914 2.332v20.75c0 .918.332 1.668.914 2.336.586.664 1.418.914 2.336.914.914 0 1.664-.332 2.332-.914.668-.668 1-1.418 1-2.336v-5.25h5.918v5.25c0 2.5-.918 4.668-2.668 6.418s-3.918 2.668-6.418 2.668zm0 0"/></g></svg>