<svg xmlns="http://www.w3.org/2000/svg" width="250" height="250"><path fill="#f55749" d="M250 125c0 69.035-55.965 125-125 125S0 194.035 0 125 55.965 0 125 0s125 55.965 125 125zm0 0"/><path fill="#fff" d="M123.54 47.25a2.983 2.983 0 0 1 2.905 0l64.258 36.078a2.812 2.812 0 0 1 1.453 2.453 2.803 2.803 0 0 1-1.445 2.453l-55.899 31.516a12.938 12.938 0 0 0-7.601-4.219V98.398c6.055-1.007 10.672-6.132 10.672-12.328 0-6.914-5.75-12.523-12.852-12.523s-12.851 5.61-12.851 12.523c0 6.157 4.57 11.266 10.578 12.313v17.172c-2.906.5-5.551 1.976-7.5 4.187L59.368 88.36a2.79 2.79 0 0 1-1.458-2.449 2.794 2.794 0 0 1 1.45-2.457l64.187-36.18M190.89 92.72a2.963 2.963 0 0 1 2.906-.008 2.823 2.823 0 0 1 1.46 2.453l.055 70.047a2.804 2.804 0 0 1-1.453 2.453l-62.226 35.078c-1.93 1.094-4.352-.273-4.352-2.453l-.054-60.101c3.015-.5 5.75-2.04 7.71-4.336l15.547 8.71a12.159 12.159 0 0 0-.289 4.907c.985 6.851 7.493 11.617 14.516 10.656 7.031-.969 11.922-7.305 10.937-14.156-.984-6.852-7.5-11.617-14.523-10.649a12.846 12.846 0 0 0-8.766 5.29l-15.234-8.54a12.009 12.009 0 0 0-.195-8.945l53.968-30.422M54.75 95.156c0-1.656 1.39-2.836 2.906-2.836.508 0 1.016.133 1.453.39l54.024 30.454a12.059 12.059 0 0 0-.18 8.906l-15.226 8.54a12.846 12.846 0 0 0-8.766-5.29c-7.031-.968-13.524 3.805-14.516 10.649-.992 6.844 3.907 13.18 10.938 14.148s13.515-3.804 14.515-10.648c.239-1.64.141-3.313-.289-4.914l15.54-8.711a12.913 12.913 0 0 0 7.632 4.328l-.047 60.117c0 2.18-2.421 3.54-4.359 2.445l-62.234-35.078a2.812 2.812 0 0 1-1.453-2.453z"/></svg>