<svg xmlns="http://www.w3.org/2000/svg" width="250" height="250"><path fill="#fff" d="M250 125c0 69.035-55.965 125-125 125S0 194.035 0 125 55.965 0 125 0s125 55.965 125 125zm0 0"/><path fill="#f9d85e" d="M135.371 153.828C84.395 131.055 52.598 84.824 50.742 38.301c-.078-1.953-2.422-2.93-3.887-1.64C22.207 58.32 6.758 90.136 7.051 125.565c.527 63.086 51.758 114.864 114.883 116.055 50.976.957 94.687-30.605 111.777-75.312.684-1.758-.899-3.594-2.734-3.125-29.688 7.46-63.594 4.96-95.606-9.356zm0 0"/><path fill="#ef7730" d="M239.277 103.438c-.039-.235-.078-.47-.136-.704-.645-3.379-1.426-6.699-2.344-9.96-.04-.157-.078-.294-.117-.45-.45-1.562-.938-3.125-1.446-4.668l-.117-.351a112.407 112.407 0 0 0-3.633-9.453c-.039-.059-.058-.137-.097-.215a90.459 90.459 0 0 0-2.051-4.414l-.059-.118a119.75 119.75 0 0 0-2.304-4.453l-.059-.117c-.82-1.504-1.68-2.969-2.559-4.433a.409.409 0 0 0-.078-.118c-.82-1.347-1.66-2.656-2.52-3.964-.097-.157-.195-.293-.292-.45-1.817-2.734-3.77-5.37-5.8-7.93-.118-.156-.255-.312-.372-.468a91.382 91.382 0 0 0-3.34-3.945v-.02a119.988 119.988 0 0 0-3.36-3.652c-.038-.04-.097-.098-.136-.137a97.861 97.861 0 0 0-3.184-3.184c-.156-.156-.312-.293-.468-.449a127.204 127.204 0 0 0-3.38-3.105l-.41-.352a169.273 169.273 0 0 0-3.554-2.988c-.117-.098-.215-.176-.332-.274a121.027 121.027 0 0 0-3.906-2.988c-.02-.02-.059-.039-.078-.058a116.657 116.657 0 0 0-4.063-2.852c-.02-.02-.039-.02-.059-.04a113.97 113.97 0 0 0-8.535-5.175c-.117-.058-.215-.117-.332-.176-1.386-.761-2.812-1.484-4.238-2.207-.195-.097-.371-.195-.566-.273a122.582 122.582 0 0 0-9.122-3.985c-.175-.078-.351-.136-.527-.214a131.116 131.116 0 0 0-4.883-1.739c-.039-.02-.058-.02-.097-.039a115.869 115.869 0 0 0-4.63-1.425c-.136-.04-.273-.079-.429-.118-1.66-.468-3.34-.898-5.02-1.289-.039 0-.058-.02-.097-.02a133.08 133.08 0 0 0-4.844-1.015c-.098-.02-.215-.039-.312-.058-1.7-.313-3.418-.586-5.137-.84h-.04a122.401 122.401 0 0 0-8.105-.84c.45.097.899.137 1.348.195 1.074.098 2.11.195 3.125.313h.02c1.015.117 1.992.234 2.949.37h.039c.937.137 1.855.274 2.754.43.02 0 .058 0 .078.02.879.156 1.738.312 2.578.488.04 0 .078.02.117.02.82.176 1.621.351 2.403.547.058.02.097.02.156.039.762.195 1.504.39 2.207.605.058.02.137.04.195.059.703.215 1.387.43 2.05.664.079.02.157.058.235.078.645.234 1.27.469 1.875.703l.293.117c.586.235 1.153.489 1.719.762.117.059.215.117.332.176.527.254 1.055.508 1.543.781.137.078.254.156.39.215.47.273.938.527 1.387.82.157.098.293.195.45.293.41.274.84.547 1.23.84l.527.41c.352.274.723.528 1.055.82.215.176.41.372.625.547l.879.762c.273.254.527.527.8.781.216.215.43.41.626.625.469.489.918.996 1.347 1.524.645.781 3.985 5.02 5.782 12.46 2.168 8.966 1.797 18.301 3.847 27.286.352 1.504.723 2.988 1.094 4.433.098.391.215.762.313 1.153.312 1.113.625 2.226.937 3.3l.293.997c10.547 33.984 31.66 50.136 59.98 71.757a116.717 116.717 0 0 0 1.465-18.593c.02-7.149-.625-14.219-1.875-21.075zm0 0"/><path fill="#f9d85e" d="M240.059 108.36c-4.141-9.57-4.141-9.57-115.196-49.688-55.879-20.195-66.25-39.688-25.8-48.516 1.972-.43 3.964-.8 5.957-1.133A117.334 117.334 0 0 1 124.023 7.5c59.2 0 108.145 43.887 116.036 100.86"/></svg>