<svg xmlns="http://www.w3.org/2000/svg" width="250" height="250"><path fill="#f3d872" d="M136.984 156.25C82.578 131.922 48.625 82.559 46.641 32.883a2.488 2.488 0 0 0-2.61-2.383 2.519 2.519 0 0 0-1.539.621A124.617 124.617 0 0 0 0 126.055c.555 67.382 55.254 122.648 122.637 123.918 52.746 1.035 100.472-31.125 119.316-80.403a2.51 2.51 0 0 0-1.414-3.242 2.479 2.479 0 0 0-1.504-.098c-31.683 7.97-67.87 5.305-102.05-9.98zm0 0"/><path fill="#df7e42" d="M247.89 102.441c0-.254-.085-.496-.136-.75a104.92 104.92 0 0 0-2.5-10.636l-.125-.477c-.488-1.68-.977-3.34-1.543-4.992 0-.125-.09-.254-.137-.379a120.772 120.772 0 0 0-3.906-10.117l-.098-.215c-.703-1.59-1.43-3.164-2.18-4.719l-.066-.125a132.473 132.473 0 0 0-2.46-4.746l-.06-.129a145.28 145.28 0 0 0-2.726-4.726l-.078-.125a110.96 110.96 0 0 0-2.695-4.239l-.313-.48a132.152 132.152 0 0 0-6.18-8.465l-.39-.488a119.251 119.251 0 0 0-3.555-4.219 143.297 143.297 0 0 0-3.594-3.906l-.148-.149a347.65 347.65 0 0 0-3.367-3.398l-.508-.477a150.874 150.874 0 0 0-3.605-3.3l-.438-.383a118.948 118.948 0 0 0-3.8-3.192l-.36-.285a114.691 114.691 0 0 0-4.16-3.183l-.078-.067a137.935 137.935 0 0 0-4.356-3.039h-.05a136.256 136.256 0 0 0-9.102-5.527l-.36-.195a140.686 140.686 0 0 0-4.492-2.344l-.597-.301a120.407 120.407 0 0 0-9.766-4.25l-.555-.215a122.89 122.89 0 0 0-5.215-1.844h-.097c-1.64-.539-3.281-1.046-4.953-1.515l-.45-.125a99.744 99.744 0 0 0-5.359-1.38h-.012c-1.707-.401-3.43-.765-5.175-1.081l-.34-.059c-1.82-.347-3.64-.644-5.47-.89h-.05a126.29 126.29 0 0 0-8.664-.887l1.445.125c1.145.11 2.258.215 3.34.351 1.086.118 2.13.254 3.156.403.977.144 1.954.3 2.93.469h.078c.946.168 1.864.343 2.754.527h.137l2.559.555h.164c.812.207 1.601.421 2.375.656l.203.058c.754.223 1.476.457 2.187.704l.254.097c.684.242 1.348.488 1.953.75l.305.137c.625.266 1.23.527 1.824.8l.363.188a34.7 34.7 0 0 1 1.66.84l.41.242c.509.285.977.559 1.485.871l.488.32c.438.294.887.56 1.309.891l.566.43c.371.281.762.555 1.121.867.364.313.442.39.665.567l.976.82c.305.254.559.558.852.84.293.285.449.441.664.664.496.527.976 1.066 1.445 1.62 3 3.938 5.106 8.477 6.172 13.313 2.324 9.551 1.953 19.532 4.11 29.141.37 1.613.761 3.187 1.171 4.727.11.417.227.82.332 1.23.324 1.191.664 2.363.977 3.516l.324 1.062c11.258 36.29 33.797 53.535 64.023 76.633a126.219 126.219 0 0 0-.476-42.414zm0 0"/><path fill="#f3d872" d="M248.742 107.688c-4.414-10.22-4.414-10.22-122.98-53C66.094 33.124 55 12.312 98.203 2.93c2.11-.457 4.23-.86 6.367-1.211A127.499 127.499 0 0 1 124.863 0c62.371-.031 115.219 45.918 123.856 107.688"/><path fill="#fff" d="M152.082 171.875c0 40.844-33.113 73.957-73.957 73.957S4.168 212.719 4.168 171.875s33.113-73.957 73.957-73.957 73.957 33.113 73.957 73.957zm0 0"/><path fill="#0e3ca5" d="M78.125 102.078c38.547 0 69.797 31.25 69.797 69.797s-31.25 69.797-69.797 69.797-69.793-31.25-69.793-69.797c.043-38.527 31.266-69.75 69.793-69.797m0-8.328C34.977 93.75 0 128.727 0 171.875S34.977 250 78.125 250s78.125-34.977 78.125-78.125S121.273 93.75 78.125 93.75zm0 0"/><path fill="#5493f7" d="m120.508 203.508-9.082 7.535c-6.32 5.258-15.656 4.613-21.192-1.465l-40.43-44.351 22.22-18.743zm0 0"/><path fill="#0e3ca5" d="m74.531 179.992-35.937-7.578a5.85 5.85 0 0 1-3.211-1.809l-10.14-11.23a.483.483 0 0 1-.126-.3l-.07-1.74 49.805 20.868zm0 0"/><path fill="#5493f7" d="m76.516 139.953 14.351-10.617a.975.975 0 0 1 1.125 0l8.555 6.238c.5.356.82.906.89 1.516l3.055 26.289zm0 0"/><path fill="#0e3ca5" d="m125 181.844 5.957 22.258a7.412 7.412 0 0 1-9.094 9.07l-20.508-5.555a22.056 22.056 0 0 1-10.386-6.074l-41.555-43.34c-5.926-6.226-5.86-16.027.156-22.168 5.696-5.82 14.864-6.41 21.258-1.367l34.64 27.441 13.673 10.813a16.95 16.95 0 0 1 5.859 8.922zm0 0"/><g fill="#5493f7"><path d="M125 181.844a17.203 17.203 0 0 0-1.21-3.192 23.561 23.561 0 0 1-6.72 3.73 38.671 38.671 0 0 1-20.39 1.302c-1.18-.246-2.22-.473-3.25.27a3.095 3.095 0 0 0-1.29 2.51c0 1.876 1.465 2.755 3.075 3.048l.52.078c6.835.742 14.374.703 21.093-.977 2.988-.761 6.258-1.953 8.309-4.402.097-.11.234-.285.402-.5zM50.078 153.25l24.914 24.64a.19.19 0 0 1 .059.133.19.19 0 0 1-.059.133.248.248 0 0 1-.168 0l-35.937-7.21a5.86 5.86 0 0 1-3.203-1.805l-10.567-11.532a.29.29 0 0 1 0-.41c.04-.039.09-.062.149-.07l24.636-3.906a.161.161 0 0 1 .176.027zM129.168 204.887c1.09 1.093.562 3.39-1.18 5.133-1.742 1.742-4.039 2.27-5.133 1.18-1.09-1.09-.558-3.387 1.184-5.13 1.742-1.746 4.04-2.273 5.129-1.183zm0 0"/></g></svg>