<svg xmlns="http://www.w3.org/2000/svg" width="250" height="250"><g fill="#ff0b75"><path d="M124.996.008A124.99 124.99 0 0 0 2.402 149.39c4.825 24.246 16.727 46.52 34.207 64a125.009 125.009 0 0 0 136.223 27.093 124.99 124.99 0 0 0 77.16-115.48 125.136 125.136 0 0 0-36.656-88.34A125.142 125.142 0 0 0 124.996.008zm110.29 124.996a110.3 110.3 0 0 1-18.595 61.293 110.291 110.291 0 0 1-49.515 40.633 110.315 110.315 0 0 1-150.414-80.422A110.315 110.315 0 0 1 124.996 14.684a110.398 110.398 0 0 1 77.961 32.347 110.404 110.404 0 0 1 32.328 77.973zm0 0"/><path d="M74.203 116.176a27.688 27.688 0 0 0-20.683.09 27.691 27.691 0 0 0-14.848 14.398 25.698 25.698 0 0 0-1.922 10.02c.04 3.437.766 6.828 2.137 9.976a27.938 27.938 0 0 0 15.383 15.078 38.203 38.203 0 0 0 14.183 2.461 85.142 85.142 0 0 0 30.824-6.984 6.734 6.734 0 0 0 2.938-1.465 6.712 6.712 0 0 0 1.883-2.691 6.661 6.661 0 0 0-.852-6.305c-.43-1.106-10.644-27.227-29.043-34.578zM146.379 150.754a6.705 6.705 0 0 0 3.938 10.46 85.533 85.533 0 0 0 30.949 6.985c4.84.082 9.652-.754 14.18-2.465a27.921 27.921 0 0 0 15.382-15.074 25.572 25.572 0 0 0 2.137-9.976 25.698 25.698 0 0 0-1.922-10.02 27.675 27.675 0 0 0-14.91-14.465 27.668 27.668 0 0 0-20.778-.023c-18.457 7.351-28.546 33.469-28.976 34.578zM151.73 102.668a27.663 27.663 0 0 0-7.714-19.195 27.666 27.666 0 0 0-18.864-8.493 25.787 25.787 0 0 0-18.46 7.598 27.96 27.96 0 0 0-8.399 19.781 38.441 38.441 0 0 0 3.078 14.09 85.912 85.912 0 0 0 17.902 26.184 7.983 7.983 0 0 0 5.692 2.922 7.903 7.903 0 0 0 5.508-3.078c.707-.954 21.195-19.997 21.257-39.809zm0 0"/></g></svg>