<svg xmlns="http://www.w3.org/2000/svg" width="250" height="250"><path fill="#adadad" d="M204.617 172.48c-2.933 6.934-6.406 13.313-10.43 19.18-5.484 7.996-9.972 13.535-13.433 16.606-5.367 5.047-11.113 7.632-17.27 7.777-4.418 0-9.746-1.285-15.949-3.895-6.222-2.593-11.941-3.882-17.168-3.882-5.484 0-11.367 1.289-17.66 3.882-6.3 2.61-11.375 3.97-15.258 4.106-5.898.258-11.781-2.402-17.656-7.988-3.746-3.34-8.434-9.075-14.05-17.192-6.024-8.672-10.981-18.726-14.86-30.191-4.156-12.383-6.238-24.371-6.238-35.98 0-13.298 2.808-24.766 8.433-34.376C57.5 82.81 63.383 76.72 70.746 72.247c7.363-4.47 15.32-6.747 23.887-6.892 4.687 0 10.836 1.48 18.472 4.395 7.622 2.926 12.512 4.41 14.657 4.41 1.601 0 7.035-1.734 16.25-5.191 8.71-3.207 16.062-4.535 22.086-4.012 16.32 1.348 28.582 7.926 36.734 19.781-14.594 9.047-21.816 21.719-21.672 37.969.133 12.66 4.621 23.195 13.445 31.563 4 3.882 8.47 6.882 13.438 9.011a148.851 148.851 0 0 1-3.426 9.2zm-37.43-150.652c0 9.922-3.546 19.188-10.609 27.762-8.527 10.195-18.84 16.086-30.023 15.156a32.043 32.043 0 0 1-.223-3.762c0-9.523 4.055-19.718 11.254-28.054 3.594-4.22 8.168-7.73 13.71-10.528 5.532-2.757 10.767-4.285 15.684-4.547.145 1.329.208 2.657.208 3.973zm0 0"/></svg>