<svg width="1024" height="1024" viewBox="0 0 1024 1024" fill="none" xmlns="http://www.w3.org/2000/svg">
<g clip-path="url(#clip0)">
<circle cx="512" cy="512" r="512" fill="#171717"/>
<path d="M859.199 460.168L700.148 253.557C688.31 238.157 669.988 229.332 649.899 229.332C629.81 229.332 611.502 238.157 599.65 253.557L582.363 276.029L565.064 253.557C553.212 238.157 534.904 229.332 514.814 229.332C494.725 229.332 476.417 238.157 464.565 253.557L447.475 275.755L430.385 253.544C418.533 238.157 400.212 229.332 380.122 229.332C360.033 229.332 341.725 238.157 329.873 253.557L170.836 460.168C148.206 489.576 148.206 529.076 170.836 558.484L329.873 765.107C341.725 780.495 360.033 789.332 380.122 789.332C400.212 789.332 418.52 780.507 430.372 765.107L515.011 655.146L532.481 677.842H532.468C532.533 677.916 532.599 677.991 532.664 678.078L599.65 765.107C611.502 780.495 629.81 789.332 649.899 789.332C669.988 789.332 688.297 780.507 700.148 765.107L859.186 558.496C881.829 529.088 881.829 489.576 859.199 460.168ZM489.945 271.144C495.812 263.525 504.874 259.162 514.814 259.162C524.754 259.162 533.817 263.537 539.684 271.144L562.903 301.31L515.024 363.518L466.935 301.049L489.945 271.144ZM404.992 747.508C399.125 755.127 390.062 759.489 380.122 759.489C370.182 759.489 361.12 755.114 355.253 747.508L196.216 540.884C181.679 522.004 181.679 496.636 196.216 477.756L355.253 271.144C361.12 263.525 370.182 259.162 380.122 259.162C390.062 259.162 399.125 263.537 404.992 271.144L428.001 301.036L305.515 460.168C282.885 489.576 282.885 529.076 305.567 558.546L314.891 570.54L314.904 570.527L397.003 677.842C407.454 691.427 422.959 699.891 440.259 701.693L404.992 747.508ZM472.161 660.254L472.135 660.242C466.268 667.861 457.205 672.224 447.265 672.224C437.325 672.224 428.263 667.849 422.422 660.267L338.006 549.92L337.966 549.945L330.908 540.871C316.371 521.991 316.371 496.623 330.908 477.743L447.475 326.33L495.563 388.799L440.626 460.168C417.996 489.576 417.996 529.076 440.626 558.484L495.563 629.852L472.161 660.254ZM515.011 414.08L564.029 477.768C578.566 496.648 578.566 522.016 564.029 540.896L515.011 604.584L465.993 540.896C451.456 522.016 451.456 496.648 465.993 477.768L515.011 414.08ZM589.422 558.484C612.052 529.076 612.052 489.576 589.422 460.168L534.485 388.799L582.363 326.591L698.734 477.768C713.271 496.648 713.271 522.016 698.669 540.983L680.033 565.568L607.599 660.242C601.732 667.861 592.67 672.224 582.73 672.224C572.895 672.224 563.924 667.948 558.057 660.478L534.485 629.852L589.422 558.484ZM833.819 540.896L674.769 747.508C668.902 755.127 659.839 759.489 649.899 759.489C639.959 759.489 630.897 755.114 625.03 747.508L589.763 701.681C607.049 699.866 622.529 691.402 632.992 677.804L695.224 596.455L695.29 596.505L705.492 583.031L717.409 567.457L717.33 567.408L724.088 558.484C746.718 529.076 746.718 489.576 724.088 460.168L601.824 301.31L625.043 271.144C630.91 263.525 639.973 259.162 649.912 259.162C659.852 259.162 668.915 263.537 674.782 271.144L833.819 477.768C848.342 496.648 848.342 522.016 833.819 540.896Z" fill="url(#paint0_linear)"/>
<path opacity="0.6" d="M447.267 702.067C444.858 702.067 442.474 701.93 440.13 701.682L405.976 746.352L431.722 763.604L494.164 682.242C482.378 694.87 465.327 702.067 447.267 702.067Z" fill="url(#paint1_linear)"/>
<path opacity="0.6" d="M582.575 702.068C584.985 702.068 587.369 701.931 589.713 701.682L623.867 746.353L598.12 763.605L535.993 682.33C547.78 694.958 564.516 702.068 582.575 702.068Z" fill="url(#paint2_linear)"/>
<path opacity="0.6" d="M495.318 629.666L515.185 655.395L484.985 693.838L465.132 668.856L495.318 629.666Z" fill="url(#paint3_linear)"/>
<path d="M428.012 301.023L447.551 326.516L376.846 418.666L352.121 400.134L428.012 301.023Z" fill="url(#paint4_linear)"/>
<path d="M495.585 388.738L514.915 414.218L469.838 473.357L445.113 454.825L495.585 388.738Z" fill="url(#paint5_linear)"/>
<path d="M562.907 301.273L582.355 326.629L534.541 388.726L515.055 363.407L562.907 301.273Z" fill="url(#paint6_linear)"/>
</g>
<defs>
<linearGradient id="paint0_linear" x1="287.16" y1="725.584" x2="719.083" y2="270.493" gradientUnits="userSpaceOnUse">
<stop stop-color="#FF8506"/>
<stop offset="0.5805" stop-color="#FD3947"/>
<stop offset="1" stop-color="#FB0078"/>
</linearGradient>
<linearGradient id="paint1_linear" x1="474.387" y1="681.621" x2="424.796" y2="755.566" gradientUnits="userSpaceOnUse">
<stop stop-color="#78005B"/>
<stop offset="0.3483" stop-color="#7A025A" stop-opacity="0.6517"/>
<stop offset="0.51" stop-color="#820955" stop-opacity="0.49"/>
<stop offset="0.6332" stop-color="#8E154E" stop-opacity="0.3668"/>
<stop offset="0.7369" stop-color="#A12643" stop-opacity="0.2631"/>
<stop offset="0.8283" stop-color="#B83C36" stop-opacity="0.1717"/>
<stop offset="0.9111" stop-color="#D65725" stop-opacity="0.0889"/>
<stop offset="0.9857" stop-color="#F87711" stop-opacity="0.0143"/>
<stop offset="1" stop-color="#FF7E0D" stop-opacity="0"/>
</linearGradient>
<linearGradient id="paint2_linear" x1="604.445" y1="747.802" x2="557.803" y2="677.119" gradientUnits="userSpaceOnUse">
<stop stop-color="#FF7E0D" stop-opacity="0"/>
<stop offset="0.00928743" stop-color="#F97811" stop-opacity="0.0127"/>
<stop offset="0.0651" stop-color="#D65825" stop-opacity="0.0888"/>
<stop offset="0.1269" stop-color="#B93D36" stop-opacity="0.1729"/>
<stop offset="0.1949" stop-color="#A12643" stop-opacity="0.2657"/>
<stop offset="0.272" stop-color="#8F154E" stop-opacity="0.3707"/>
<stop offset="0.3632" stop-color="#820955" stop-opacity="0.495"/>
<stop offset="0.4822" stop-color="#7A025A" stop-opacity="0.6573"/>
<stop offset="0.7336" stop-color="#78005B"/>
</linearGradient>
<linearGradient id="paint3_linear" x1="476.141" y1="681.255" x2="513.857" y2="624.1" gradientUnits="userSpaceOnUse">
<stop stop-color="#FF7E0D" stop-opacity="0"/>
<stop offset="0.0133" stop-color="#F97910" stop-opacity="0.0192"/>
<stop offset="0.1144" stop-color="#D25427" stop-opacity="0.1659"/>
<stop offset="0.219" stop-color="#B1363A" stop-opacity="0.3175"/>
<stop offset="0.3263" stop-color="#981E48" stop-opacity="0.4731"/>
<stop offset="0.4375" stop-color="#860D53" stop-opacity="0.6344"/>
<stop offset="0.5551" stop-color="#7B0359" stop-opacity="0.8048"/>
<stop offset="0.6897" stop-color="#78005B"/>
</linearGradient>
<linearGradient id="paint4_linear" x1="356.054" y1="403.858" x2="441.503" y2="313.825" gradientUnits="userSpaceOnUse">
<stop stop-color="#FF4630" stop-opacity="0"/>
<stop offset="0.5722" stop-color="#B31F48" stop-opacity="0.5722"/>
<stop offset="1" stop-color="#78005B"/>
</linearGradient>
<linearGradient id="paint5_linear" x1="451.391" y1="460.778" x2="508.308" y2="400.809" gradientUnits="userSpaceOnUse">
<stop stop-color="#FF4630" stop-opacity="0"/>
<stop offset="0.5722" stop-color="#B31F48" stop-opacity="0.5722"/>
<stop offset="1" stop-color="#78005B"/>
</linearGradient>
<linearGradient id="paint6_linear" x1="518.602" y1="373.594" x2="575.707" y2="313.426" gradientUnits="userSpaceOnUse">
<stop stop-color="#FF4630" stop-opacity="0"/>
<stop offset="0.5722" stop-color="#B31F48" stop-opacity="0.5722"/>
<stop offset="1" stop-color="#78005B"/>
</linearGradient>
<clipPath id="clip0">
<rect width="1024" height="1024" fill="white"/>
</clipPath>
</defs>
</svg>
