<svg xmlns="http://www.w3.org/2000/svg" width="250" height="250"><linearGradient id="a" x1="0" x2="250" y1="250" y2="0" gradientUnits="userSpaceOnUse"><stop offset="0" stop-color="#4629a7"/><stop offset="1" stop-color="#3e89bc"/></linearGradient><path fill="url(#a)" d="M0 0h250v250H0z"/><g fill="#fff"><path d="M58.14 150.996c4.587-1.394 9.06-1.316 13.454.469 4.398 1.785 7.668 4.847 9.922 8.922h6.453c7.488-13.856 27.246-13.77 34.636 0h6.407a37.2 37.2 0 0 0 .402-.653c3.344-5.496 8.184-8.87 14.57-9.539 8.082-.847 14.45 2.301 18.891 9.13.602.921 1.11 1.245 2.21 1.073 1.173-.18 2.392-.039 3.587-.015.433.008.867.078 1.242.113 5.176-8.402 12.531-11.723 22.27-9.95.086-.202.207-.456.293-.726a66.88 66.88 0 0 0 2.894-13.43c.508-4.671.418-9.343.2-14.023-.157-3.273-.434-6.535-.938-9.773-.281-1.817-.649-3.621-.977-5.434-.043-.23-.117-.453-.144-.687-.059-.504.16-.856.57-.946.41-.09.762.121.934.606.105.305.164.62.23.937.668 3.086 1.121 6.207 1.445 9.352.454 4.398.68 8.805.649 13.223-.043 7.101-1.14 14.042-3.414 20.765-5.336 15.778-15.145 28.082-29.086 37.098-8.305 5.375-17.383 8.804-27.133 10.476-5.273.903-10.578 1.258-15.906.973-17.84-.953-33.426-7.387-46.602-19.477-8.972-8.234-15.414-18.14-19.168-29.75-1.535-4.742-2.496-9.605-2.941-14.578-.438-4.914-.324-9.812.176-14.71.629-6.169 2.129-12.137 3.941-18.04.066-.222.14-.453.262-.648.18-.3.46-.457.82-.356.383.11.602.375.566.778-.023.258-.101.515-.18.765-1.187 3.914-2.26 7.86-3.023 11.883-.965 5.11-1.312 10.258-1.242 15.45.094 6.75 1.23 13.316 3.356 19.714.109.328.238.645.375 1.008zm63.012 30.344c-3.785-6.125-9.101-9.41-16.175-9.297-6.813.105-11.918 3.383-15.543 9.3.73.227 1.324.407 1.91.587 3.351-5.11 7.926-7.946 14.008-7.926 6.074.02 10.625 2.902 13.894 7.93a867.27 867.27 0 0 1 1.906-.594zm20.489 10.281c-1.618-2.836-3.703-5.027-6.368-6.672-3.43-2.117-7.171-2.953-11.16-2.594-3.84.344-7.234 1.817-10.152 4.348-1.59 1.383-2.93 2.969-3.95 4.926.708.207 1.286.379 1.844.543 6.332-10.477 21.38-10.645 27.907 0 .566-.168 1.144-.336 1.879-.55zm-20.582-30.762c-2.512-4.875-8.293-9.523-15.993-9.359-6.843.148-11.992 3.367-15.632 9.328.73.219 1.324.399 1.91.578 3.332-5.082 7.89-7.922 13.926-7.93 6.07-.003 10.652 2.844 13.96 7.922.598-.18 1.176-.347 1.829-.539zm9.382 20.489 1.914.566c3.325-5.074 7.875-7.902 13.922-7.91 6.082-.008 10.649 2.855 13.97 7.926.605-.192 1.194-.38 1.8-.57-2.547-4.954-8.531-9.653-16.348-9.329-6.699.274-11.722 3.489-15.258 9.317zm11.114-10.227c-2.254-4.613-8.496-10.059-17.36-9.3-3.902.335-7.343 1.84-10.304 4.417-1.778 1.555-3.5 3.801-3.743 4.907.575.171 1.153.347 1.707.52 6.415-10.548 21.446-10.602 27.907-.013.566-.168 1.144-.34 1.793-.53zm20.437-10.27c-1.808-5.062-9.597-9.597-15.992-9.378-4 .136-7.629 1.347-10.797 3.824-1.922 1.5-3.516 3.285-4.695 5.531.539.176.976.324 1.418.457.133.04.281.043.457.07 3.277-5.042 7.86-7.886 13.922-7.878 6.066.003 10.64 2.863 13.937 7.937l1.75-.562zm-92.824 9.794c.402.832 1.07.84 1.676 1.007 3.304-5.097 7.902-7.93 13.972-7.918 6.059.012 10.645 2.883 13.903 7.93.336-.101.613-.184.89-.27.297-.093.594-.19 1.004-.32-3.39-5.601-8.191-8.863-14.64-9.246-7.301-.441-12.848 2.723-16.805 8.817zm112.664-.743c-2.852-4.68-9.086-8.82-16.816-8.066-3.707.36-7.008 1.77-9.86 4.18-1.68 1.422-3.074 3.074-4.144 5.093.695.203 1.277.375 1.867.551 3.254-5.031 7.789-7.87 13.781-7.926 5.977-.054 10.574 2.684 13.945 7.68l1.227-1.512zm-84.637 2.383c-1.734-3.52-6.691-7.336-12.879-7.113-5.03.183-10.933 3.738-11.914 7.11.114.07.235.152.36.218.386.2.777.39 1.207.61 2.617-3.813 6.168-5.962 10.828-5.954 4.652.004 8.187 2.172 10.797 5.957l1.601-.828zm61.551-10.277c-2.062-4.301-7.668-7.332-13.312-7.04-5.043.259-8.875 2.72-11.684 7 .648.317 1.188.579 1.75.856 2.652-3.824 6.203-5.941 10.824-5.93 4.613.008 8.153 2.149 10.754 5.918.195-.078.332-.12.457-.187.39-.191.778-.395 1.211-.617zm20.61 10.219c-2.942-4.473-6.981-6.93-12.227-7.032-5.508-.105-9.762 2.348-12.805 6.938.121.125.168.207.238.246.465.238.934.473 1.442.726 2.633-3.8 6.18-5.96 10.844-5.949 4.652.012 8.187 2.188 10.785 5.953.578-.297 1.07-.55 1.722-.882zM117.753 162c-2.262-4.422-7.719-7.355-13.406-7.031-5 .289-8.809 2.742-11.598 6.996.633.316 1.168.586 1.738.87 2.645-3.812 6.184-5.944 10.797-5.94 4.649 0 8.207 2.152 10.82 5.96.575-.296 1.09-.562 1.649-.855zm17.746 21.355c2.633-3.84 6.195-5.949 10.797-5.949 4.629.004 8.2 2.153 10.812 5.969.594-.309 1.102-.574 1.614-.836-1.418-3.023-6.2-7.105-12.43-7.105-6.137-.004-10.961 4.007-12.414 7.078.117.074.234.156.363.222.387.196.778.387 1.258.621zm-20.496-10.242c2.64-3.82 6.172-5.957 10.8-5.957 4.66-.004 8.204 2.16 10.821 5.953l1.73-.918c-3.199-4.738-7.539-7.203-13.156-6.988-5.129.2-9.074 2.645-11.914 7.024.617.32 1.13.585 1.719.886zm23.254 19.672c-2.047-3.863-7.13-7.398-13.184-7.082-4.89.258-10.633 3.777-11.652 7.113.351.188.715.375 1.074.559.152.082.309.148.516.246 2.597-3.777 6.117-5.922 10.742-5.941 4.664-.02 8.21 2.125 10.863 5.941.57-.289 1.106-.562 1.64-.836zm-43.762-9.418c2.645-3.863 6.219-5.965 10.824-5.957 4.602.004 8.16 2.14 10.785 5.969.579-.305 1.106-.582 1.735-.91-3.324-4.906-7.809-7.266-13.656-6.989-4.457.208-10.067 3.684-11.278 7.032.106.078.219.172.344.234.383.2.773.387 1.246.621zm-35.148-29.16c3.668-1.098 7.199-1.016 10.672.313 3.503 1.343 6.175 3.699 8.16 6.894.648-.2 1.218-.375 1.898-.59-2.308-3.98-5.5-6.754-9.73-8.27-3.852-1.382-7.739-1.433-11.72-.136.255.629.466 1.164.72 1.789zm132.34-2.102c-7.426-2.136-16.458 1.52-20.094 8.754.61.184 1.21.36 1.773.532 4.293-6.352 10.137-8.868 17.645-7.59.222-.563.433-1.094.675-1.696zm-76.852 32.051c-2.477-3.644-5.836-5.449-10.14-5.281-4.618.184-8.028 3.344-8.821 5.379.46.348.938.703 1.426 1.078 1.969-2.894 4.562-4.496 7.996-4.492 3.46 0 6.062 1.637 7.988 4.492.516-.39.977-.742 1.55-1.176zm2.992-9.078c1.91-2.898 4.543-4.504 7.992-4.504 3.45-.004 6.07 1.633 7.973 4.477.297-.223.535-.395.762-.574.25-.192.488-.387.722-.575-1.617-2.879-5.52-5.773-10.71-5.246-3.622.367-7.188 2.906-8.176 5.34l1.437 1.082zm20.473 10.23c.187-.242.293-.378.398-.519 3.887-5.309 11.246-5.312 15.18-.008.129.176.297.328.457.5.293-.215.527-.386.762-.562.226-.176.449-.356.73-.578-2.418-3.567-5.715-5.371-9.957-5.274-4.625.11-8.105 3.219-9 5.363.45.34.91.684 1.43 1.079zm37.98-11.351c-1.57-3.27-5.824-5.535-10.164-5.309-3.808.2-6.715 2.051-8.836 5.247.313.242.54.43.774.601.246.184.504.356.761.531 3.668-5.75 12.094-6.125 16.036.004.464-.351.93-.699 1.43-1.074zm-62.96-9.168c.492-.387.98-.766 1.507-1.176-2.414-3.527-5.66-5.36-9.832-5.258-3.945.098-7 1.918-9.234 5.278l1.515 1.148c3.79-5.86 12.059-6.062 16.043.008zm22.007 29.582c-2.437-3.543-5.719-5.379-10.016-5.21-3.898.155-6.847 2-9.046 5.257l1.535 1.148c3.695-5.785 12.027-6.136 16.027-.027.348-.258.695-.516 1.04-.777.136-.102.26-.219.46-.39zm20.508-30.73c-2.363-3.512-5.578-5.344-9.7-5.29-4 .051-7.116 1.883-9.378 5.278.566.418 1.047.77 1.562 1.148 1.957-2.867 4.559-4.468 7.977-4.464 3.45 0 6.058 1.636 7.992 4.5.52-.399.98-.743 1.547-1.172zm-79.05 11.43c1.94-2.9 4.57-4.505 8.026-4.497 3.442.004 6.051 1.649 7.97 4.504.546-.437 1.015-.808 1.527-1.219-2.559-3.68-5.965-5.5-10.356-5.21-3.734.25-6.601 2.07-8.703 5.246.543.417 1.02.78 1.535 1.175zm4.671 7.624c.543.414 1.027.766 1.492 1.145.387.308.801.398 1.297.398.961.008 1.938.016 2.879.168 4.754.766 8.469 3.164 11.156 7.164.125.192.266.375.422.602.32-.09.625-.172.93-.266.293-.09.586-.191.89-.289-3.785-7.273-12.464-10.539-19.066-8.922zm69.64 8.942c.31.097.606.199.903.285.8.234.91.187 1.387-.473.379-.52.746-1.05 1.164-1.535 3.047-3.516 6.906-5.383 11.539-5.68 1.047-.066 2.273-.808 2.933-1.734-6.906-1.246-14.914 2.879-17.925 9.137zm-69.511-10.621c.305-.02.594-.043.879-.051 1.34-.035 2.703-.23 4.012-.043 1.156.172 1.765-.11 2.257-1.125.254-.524.344-.945.149-1.477-.61-1.636-2.156-2.793-3.856-2.847-1.922-.07-3.527.925-4.261 2.62-.274.622-.391 1.196.117 1.782.277.324.457.734.703 1.14zm88.422-.024c.289-.472.558-.953.87-1.406.22-.32.235-.617.126-.988-.492-1.664-1.977-2.95-3.645-3.114-1.898-.191-3.586.703-4.43 2.34-.39.746-.577 1.473.075 2.18.117.129.207.289.27.45.19.5.542.612 1.038.538 1.684-.254 3.372-.238 5.06-.004.198.028.405.004.636.004zm-47.45-.074h6.454c.222-.363.476-.82.781-1.246.3-.426.297-.844.129-1.317a4.308 4.308 0 0 0-4.074-2.89c-1.868-.008-3.489 1.11-4.133 2.82-.215.559-.215 1.047.172 1.543.265.344.46.742.672 1.09zm-14.019 10.246c.215-.348.465-.812.77-1.234.273-.375.273-.746.156-1.16-.516-1.774-2.363-3.114-4.242-3.075-1.957.04-3.723 1.434-4.145 3.297-.047.207-.047.477.05.656.302.563.661 1.09.923 1.516zm34.64.168c2.122-.387 4.212-.309 6.282-.027.34-.559.676-1.04.934-1.559.117-.234.156-.566.093-.82-.433-1.82-2.18-3.176-4.105-3.23-1.887-.051-3.7 1.253-4.246 3.054-.106.344-.153.668.066 1 .32.484.61.988.977 1.582zm-41.034-20.527c2.136-.352 4.199-.32 6.3-.008.285-.461.54-.918.84-1.348.3-.43.285-.863.13-1.328-.606-1.812-2.356-2.988-4.34-2.906-1.919.082-3.56 1.402-3.99 3.238-.054.23-.03.527.075.734.281.54.63 1.043.985 1.618zm47.332-.055c.312-.508.671-1.035.96-1.602.106-.203.114-.511.055-.746-.437-1.832-2.168-3.156-4.117-3.187-1.973-.031-3.719 1.2-4.23 3.031-.079.281-.079.656.042.91.278.57.653 1.094.961 1.594 1.094-.074 2.11-.203 3.125-.203 1.043 0 2.086.125 3.204.203zm-88.754-13.438c6.058-1.296 10.8.543 14.355 5.524.285-.14.543-.266.797-.402.277-.145.543-.297.887-.485-2.004-3.172-4.688-5.289-8.176-6.37-2.848-.888-5.707-.903-8.617-.005.113.301.176.492.258.676.148.344.316.68.496 1.063zm115.797 5.54c3.207-4.641 7.613-6.524 13.128-5.825.258-.609.485-1.136.711-1.675-4.843-1.473-12.308.82-15.472 6.652.531.277 1.066.55 1.633.848zM79.324 177.64c1.192-2.344 2.946-3.645 5.485-3.641 2.53 0 4.242 1.379 5.437 3.594l1.383-1.5c-1.594-2.688-3.914-4.098-6.957-4.063-2.961.035-5.219 1.446-6.742 4.067.46.511.886.984 1.394 1.543zm61.535 10.21c1.153-2.292 2.93-3.593 5.442-3.597 2.535-.004 4.293 1.363 5.457 3.621.336-.371.59-.648.844-.93.566-.62.566-.62.082-1.32-3.059-4.46-9.801-4.434-12.82.055-.141.21-.25.445-.384.687.47.504.899.965 1.38 1.485zm32.809-11.765c-1.637-2.68-3.941-4.102-6.988-4.05-2.961.046-5.196 1.472-6.723 4.066.488.53.926 1.003 1.398 1.511 2.157-4.55 8.372-5.062 10.95-.031.437-.484.867-.95 1.363-1.496zm-73.836 11.8c1.16-2.288 2.918-3.624 5.434-3.632 2.55-.012 4.32 1.348 5.488 3.629.512-.563.933-1.035 1.398-1.547-1.703-2.742-4.086-4.18-7.308-4.012-2.848.145-4.934 1.563-6.399 4.028.47.52.895.992 1.387 1.535zm41.02-20.542c1.207-2.34 2.972-3.617 5.503-3.602 2.524.016 4.23 1.383 5.399 3.621.496-.55.918-1.023 1.383-1.543-1.567-2.586-3.774-4-6.762-4.03-3.059-.032-5.328 1.386-6.926 4.019.477.515.903.984 1.403 1.535zm-8.247 8.77c-1.156-2.415-3.992-4.255-7.105-4.087-2.89.153-5.059 1.551-6.543 4.07.5.544.926 1.008 1.398 1.528 1.165-2.285 2.899-3.613 5.438-3.625 2.559-.012 4.3 1.36 5.473 3.598.488-.54.894-.996 1.34-1.485zm-32.773-8.762c1.168-2.262 2.906-3.602 5.438-3.61 2.562-.008 4.308 1.36 5.496 3.613.504-.562.93-1.03 1.382-1.535-1.703-2.761-4.093-4.191-7.312-4.023-2.836.148-4.934 1.566-6.395 4.035.473.523.903.988 1.391 1.52zm19.148 29.226c.832.98 1.579.992 2.278.125 2.36-2.918 6.629-2.933 9.074-.035.656.777 1.574.746 2.293-.133-1.52-2.535-3.758-3.95-6.723-3.98-3.039-.032-5.34 1.379-6.922 4.023zm-1.933.457c-4.004-3.976-11.348-5.504-16.277-3.805 1.007.344 1.875.633 2.742.93.722.25 1.457.367 2.23.363 2.074-.007 4.09.403 5.938 1.32 1.656.825 3.43.845 5.367 1.192zM61.492 158.79c.446 1.094.516 1.211.973 1.64 4.16-.577 7.39.891 9.785 4.376.508-.39.988-.754 1.453-1.11-2.156-4.144-7.992-6.367-12.21-4.906zm73.344 37.824.035.203c.414-.054.832-.109 1.246-.171 1.528-.23 3.035-.489 4.492-1.079 1.07-.433 2.243-.64 3.38-.886.792-.172 1.628-.164 2.413-.368 1.07-.28 2.114-.68 3.164-1.035.164-.058.309-.168.614-.34-5.832-1.093-10.871.157-15.344 3.676zm54.078-38.074c-4.012-.851-9.11 1.445-11.047 5.149.465.359.942.726 1.457 1.12.196-.253.352-.46.504-.667 1.352-1.828 3.121-3.059 5.34-3.575.758-.175 1.555-.195 2.34-.265.265-.024.52-.012.664-.305.226-.46.465-.922.742-1.457zm-125.758 3.422c.223.394.438.707.59 1.047.242.547.652.726 1.23.789 1.864.203 3.262 1.172 4.258 2.742.153.238.293.488.489.816l1.34-1.476c-1.352-2.89-5.133-4.64-7.907-3.918zm123.98-.074c-2.394-.313-5.495 1.593-6.616 4 .43.465.875.941 1.37 1.476.856-1.738 2.067-2.886 3.82-3.422.173-.054.34-.23.446-.394.328-.508.621-1.043.98-1.66zM86.134 185.875a52.216 52.216 0 0 0 10.02 5.406c-2.551-3.258-5.887-5.078-10.02-5.406zm-6.067-4.523c-1.972-3.485-4.668-5.965-8.265-7.688 1.02 1.629 7.004 7.227 8.265 7.688zm76.137 9.05c2.754-1.191 5.371-2.62 7.824-4.347-3.113.543-5.73 1.98-7.824 4.347zm-33.441 7.004c2.09.13 4.047.11 6.05-.078-1.226-1.777-4.816-1.75-6.05.078zM65.227 165.41c.992 1.39 1.93 2.703 3 4.211.144-.476.324-.746.28-.976-.241-1.426-1.57-3.051-3.28-3.235zM172.8 179.445c1.554-1.144 3.851-3.453 4.16-4.152-1.668 1.168-3.043 2.523-4.16 4.152zm0 0"/><path d="M43.395 89.383c-.297-.637-.004-1.195.496-1.719 1.562-1.633 3.422-2.832 5.476-3.727 1.797-.777 3.621-1.48 5.57-2.273-1.101-.164-2.097-.32-3.097-.457-.64-.09-1.27-.117-1.903.121-.39.145-.8.078-1.128-.074-.34-.875.32-1.418.586-2.16a3.516 3.516 0 0 0-2.098 1.136c-.176.192-.332.415-.535.575-.262.199-.57.343-.88.086-.273-.227-.366-.536-.245-.871.136-.375.3-.739.508-1.239-1.024.399-1.735.95-2.262 1.742-.274.415-.52.848-.809 1.254-.379.543-.422.555-1.215.739-.566-.586-.172-1.266-.144-2.02-.664.418-1.063.938-1.387 1.52-.281.515-.539 1.039-.805 1.558-.226.442-.55.746-1.105.828-.488-.449-.426-1.015-.305-1.597.11-.524.2-1.055.227-1.606-.793.817-1.348 1.766-1.828 2.754-.192.399-.352.805-.547 1.2-.266.53-.34.577-1.035.85-.41-.331-.461-.78-.414-1.26.078-.813.16-1.622.257-2.602-.273.226-.433.328-.554.464-1.235 1.383-2.364 2.832-3 4.602-.2.555-.617.906-1.164 1.164-.633-.469-.668-1.121-.598-1.805.059-.593.137-1.187.129-1.804-.613.625-.988 1.367-1.3 2.144a44.027 44.027 0 0 0-.622 1.64c-.207.571-.637.876-1.164 1.067-.809-.672-.496-1.582-.61-2.43-.953.622-1.265 1.903-2.472 2.176-.496-.527-.406-1.129-.234-1.671.96-3.04 2.27-5.903 4.488-8.25 1.183-1.258 2.43-2.454 3.648-3.676a16.038 16.038 0 0 1 3.567-2.68c3.285-1.844 6.722-3.281 10.484-3.82 2.656-.383 5.305-.36 7.941.191.16.031.329.047.704.098-.72-.68-1.328-1.156-2.028-1.52-.832-.43-1.675-.828-2.515-1.242-.625-.309-.664-.348-1.055-1.113.754-.918 1.844-.352 2.836-.598-.899-.953-1.867-1.672-3.012-2.148-.836-.348-1.687-.66-2.52-1.016-.316-.137-.66-.289-.89-.531-.172-.18-.277-.54-.227-.774.043-.183.364-.398.586-.425.579-.075 1.164-.055 1.75-.079.227-.007.454-.023.817-.042-.414-.493-.848-.754-1.301-1a38.149 38.149 0 0 0-5.602-2.489 4.015 4.015 0 0 1-1.265-.742c-.395-.336-.219-.84.297-.848 1.136-.02 2.273.032 3.41.07.555.02 1.105.083 1.715.13.027-.297.05-.547.074-.793.535-.399 1.094-.336 1.66-.098 1.203.508 2.41 1.02 3.66 1.547.024-.067.051-.168.094-.27.234-.535.516-.664 1.023-.425.258.125.493.312.727.484 1.273.918 2.387 1.98 3.078 3.523.086-.199.133-.34.207-.465.344-.542.8-.57 1.172-.046.164.234.266.52.379.785.644 1.504 1.281 3.008 1.969 4.62.191-.292.328-.491.472-.714.692.18 1.032.645 1.246 1.254.567 1.629 1.153 3.25 1.735 4.875.074.203.172.398.324.758.105-.414.176-.656.227-.903.668-3.074 1.953-5.875 3.789-8.418 1.21-1.683 2.5-3.316 3.77-4.96.226-.293.51-.575.831-.762.649-.38 1.153-.074 1.192.676.007.168-.047.34.035.586.199-.223.398-.446.594-.672 1.187-1.383 2.476-2.657 4.078-3.563a6.32 6.32 0 0 1 1.289-.535c.375-.11.781-.07 1.015.309.22.351.063.68-.168.968-.308.39-.629.766-.898 1.258.258-.125.52-.242.766-.383 1.918-1.113 4.007-1.586 6.203-1.668 1.195-.047 2.394-.156 3.59-.152.507 0 1.023.188 1.515.355.317.11.567.399.473.75a1.19 1.19 0 0 1-.492.657c-.348.199-.758.3-1.153.414-1.402.41-2.808.808-4.21 1.21-.137.04-.27.094-.508.18.41.164.753.235 1.007.422.243.176.391.48.567.711-.301.59-.797.668-1.29.73-1.128.141-2.261.262-3.41.505.278.078.586.105.825.25.23.14.523.394.527.609.008.219-.266.48-.476.656-.145.121-.38.133-.579.176-.964.203-1.93.398-3.043.625.356.184.594.27.793.41.508.363.489.863-.05 1.2-.192.117-.43.16-.653.23-.664.219-1.328.433-2.035.664.484.226.91.422 1.383.64-.234.614-.652.895-1.125 1.133-1.016.5-2.031 1.008-3.04 1.582.645.098 1.349-.129 1.88.485-.09.523-.426.847-.867 1.117-.993.605-1.98 1.227-2.938 2.004.434-.043.875-.067 1.309-.133.605-.086 1.164-.031 1.656.441-.148.63-.672.887-1.172 1.192-1.316.816-2.617 1.656-3.926 2.488-.093.063-.168.152-.203.332.238-.105.48-.195.707-.312 3.035-1.543 6.195-2.758 9.512-3.54 3.012-.71 6.012-.652 9.031.047 3.371.786 6.488 2.153 9.434 3.918 1.047.625 2.011 1.41 2.933 2.215a8.754 8.754 0 0 1 2.551 3.828c.567 1.688 1.238 3.356 1.625 5.086.504 2.254.227 4.54-.223 6.793-.093.457-.18.918-.293 1.371-.14.559-.453.864-.847.88-.403.015-.871-.344-.969-.872-.164-.89-.258-1.793-.379-2.691-.101-.77-.191-1.54-.426-2.309-.129.352-.234.715-.39 1.051-.133.29-.274.613-.504.8-.192.157-.555.235-.781.165-.168-.055-.297-.395-.344-.625-.05-.25.023-.524.027-.785.004-1.051 0-2.098-.082-3.172-.523.742-.582 1.805-1.691 2.144-.887-1.414-.418-3.07-.79-4.57-.366.55-.741 1.121-1.132 1.68-.117.168-.262.32-.422.445-.586.473-1.266.219-1.344-.531-.05-.492.008-.992.02-1.492.012-.38.035-.758.035-1.137a2.718 2.718 0 0 0-.152-.902c-.278.78-.57 1.554-.832 2.34-.188.574-.579.913-1.137 1.117-.754-.813-.488-1.825-.64-2.875-.2.46-.337.804-.497 1.136-.113.235-.222.489-.394.68-.407.457-.946.375-1.18-.188-.11-.261-.125-.566-.148-.851-.036-.426-.04-.856-.063-1.504-.746 1.023-.875 2.266-2.133 2.582-.941-.715-.781-1.914-1.156-3.008-.129.219-.203.34-.27.461-.222.399-.484.754-1.004.723-.484-.028-.675-.403-.851-.781-.156-.344-.32-.68-.535-1.13-.192.512-.32.923-.5 1.305-.469 1.02-1.063 1.09-1.758.23-.258-.32-.508-.636-.8-1.003-1.02 1.183-1.821-.035-2.766-.215-.446.895-1.36.863-2.32 1.09.35.082.558.129.769.176 1.144.23 2.297.425 3.43.707 1.921.48 3.847.968 5.68 1.765.605.266 1.073.594 1.007 1.45-.402.093-.832.195-1.328.312.367.145.683.277 1.008.398 1.629.606 3.12 1.461 4.527 2.473.297.211.535.528.727.844.093.152.015.406.015.754-.07-.086-.043-.02 0 0 2.235.902 4.078 2.383 5.89 3.918.477.402.747.875.763 1.601-1.465.278-2.43-.859-3.754-1.203.171.203.293.364.43.516.792.86 1.656 1.664 2.359 2.59.52.687.941 1.492 1.215 2.308.535 1.606.96 3.25 1.394 4.89.188.712.285 1.45-.312 2.06-.04.039-.102.05-.278.14-.304-.297-.644-.625-1.023-.992.195 2.336-.051 4.629-.215 6.922-.027.402-.11.808-.23 1.195-.102.317-.329.563-.723.5-.387-.058-.504-.332-.555-.683-.16-1.13-.328-2.254-.512-3.38-.363-2.253-.796-4.492-1.796-6.574-.075-.148-.153-.296-.31-.617-.108.555-.179.938-.265 1.317-.047.226-.062.5-.199.66-.176.199-.457.418-.695.414-.235 0-.516-.223-.692-.422-.136-.16-.16-.434-.21-.66-.419-1.926-1.18-3.727-2.04-5.492-.023-.047-.082-.079-.156-.149-.36.883.035 2.067-1.101 2.64-.485-.245-.68-.702-.778-1.237a13.05 13.05 0 0 0-1.699-4.434c-.031.437-.063.875-.09 1.312-.015.235-.008.47-.047.7-.058.332-.312.535-.617.515-.23-.015-.516-.152-.656-.328-.153-.187-.184-.484-.235-.738-.351-1.711-1.003-3.293-2.027-4.719a7.439 7.439 0 0 0-.266-.348c-.03-.035-.097-.043-.246-.109 0 1.078.012 2.117-.007 3.152-.004.344-.024.715-.157 1.024-.101.234-.394.535-.597.531-.262-.004-.614-.226-.758-.457-.195-.305-.266-.707-.32-1.074-.196-1.356-.801-2.524-1.59-3.742 0 .754-.016 1.382.004 2.011.02.614-.125 1.149-.621 1.586-.56-.183-.825-.609-1.075-1.09a93.532 93.532 0 0 0-1.672-3.074c-.148-.261-.39-.476-.585-.71-.067.019-.133.034-.2.054 0 .598.02 1.2-.008 1.797-.015.406-.035.832-.168 1.203-.085.234-.355.477-.593.555-.34.11-.602-.157-.781-.442a1.314 1.314 0 0 1-.145-.41c-.363-1.539-1.168-2.86-2.066-4.129-.356-.504-.7-1.011-1.047-1.515-.29-.418-.172-.707.289-.891.496.156.84.5 1.12.926.634.945 1.274 1.89 2.044 2.816-.035-.46-.07-.922-.113-1.387-.02-.203-.082-.402-.079-.605.012-.61.485-.902 1.02-.605.25.14.488.332.68.546.793.891 1.566 1.797 2.441 2.801-.062-.37-.133-.66-.148-.949-.032-.531-.305-1.148.336-1.504.453-.25 1.03.012 1.543.711.414.566.746 1.188 1.109 1.79.191.312.367.64.68.925l.117-1.18c.035-.355.101-.719.5-.847.406-.13.761.035 1.023.34.656.75 1.293 1.511 1.934 2.273.094.105.168.226.308.418.118-.356.207-.64.309-.953.762-.02 1.344.254 1.687.906.41.773.782 1.566 1.157 2.36.21.445.394.906.636 1.456.13-.168.196-.27.274-.36.394-.448.851-.476 1.242.056.586.796 1.145 1.625 1.613 2.496.477.89.832 1.847 1.29 2.886.37-.87-.18-1.855.66-2.468.554.105.785.527 1 .996 1.05 2.285 2.066 4.582 2.558 7.07.02.11.067.211.153.309.164-.914.054-1.825-.075-2.723-.082-.578-.242-1.148-.281-1.73-.027-.38.102-.774.18-1.274l1.254.473c-.555-2.274-1.387-4.317-3.172-5.848a236.188 236.188 0 0 0-3.559-2.992c-.414-.344-.762-.711-.887-1.285.672-.54 1.387-.274 2.137-.227-.176-.101-.347-.215-.527-.297-1.39-.613-2.781-1.234-4.184-1.816-.574-.234-.988-.594-1.293-1.258.352-.21.711-.426 1.133-.68a16.895 16.895 0 0 0-2.973-1.367c-.91-.316-1.832-.601-2.754-.886-.53-.165-.933-.454-1.16-1.09l1.141-.696c-2.281-.765-4.602-1.53-7.09-1.574-.703-.012-1.402-.11-2.101-.137-.555-.023-.895-.34-1.25-.699.375-.664 1.062-.77 1.722-1.191-.676-.094-1.203-.18-1.738-.235-.434-.046-.82-.156-.938-.636-.085-.356.22-.797.766-.934a19.32 19.32 0 0 1 2.406-.445c1.547-.192 3.082-.121 4.743.351-.235-.328-.383-.527-.52-.73-.152-.219-.316-.426-.438-.656-.164-.305-.18-.63.086-.891.266-.258.582-.246.887-.055.32.2.629.422.95.633 1.034.68 1.968 1.469 2.636 2.531.059.094.148.164.285.313.317-.625.246-1.242.305-1.832.039-.406.02-.824.113-1.219.07-.3.274-.562.434-.871 1.511.602 1.367 2.207 2.222 3.336.059-.352.133-.613.141-.875.02-.645.02-1.29.008-1.934-.008-.484.09-.922.45-1.324.581.133.952.465 1.105 1.07.363 1.473.75 2.938 1.16 4.524.11-.23.242-.402.281-.594.187-.945.355-1.894.52-2.844.085-.476.257-.894.699-1.203.48.235.718.614.804 1.149.153.949.348 1.886.551 2.965.422-.778.399-1.52.547-2.22.133-.632.121-.636.719-1.222 1.12.906.64 2.344 1.25 3.453.062-.523.144-1.043.187-1.566.047-.59.094-1.172.606-1.645.52.125.789.528 1.008.977.59 1.2.804 2.496.886 3.816.012.227 0 .45 0 .86.743-1.149.317-2.567 1.348-3.391.7.426.7.426 1.52 3.047.046-.012.113-.008.136-.035.57-.692 1.059-.656 1.406.16.329.77.575 1.578.883 2.437.18-.308.348-.593.535-.921.582.27.856.75.993 1.277.289 1.101.511 2.215.754 3.328.062.281.078.574.128.984.317-1.527.215-4.05-.277-5.687a41.496 41.496 0 0 0-1.172-3.305c-.742-1.867-1.937-3.418-3.601-4.539-1.211-.812-2.489-1.535-3.782-2.21-1.992-1.044-4.05-1.923-6.27-2.442-2.14-.5-4.276-.567-6.444-.403-3.29.247-6.309 1.457-9.309 2.688-1.54.629-3 1.441-4.5 2.172-.621.305-1.227.699-2.016.469-.152-.415-.09-.79.09-1.18.516-1.113 1.242-2.047 2.254-2.75.547-.379 1.106-.75 1.836-1.238-.871-.008-1.574.406-2.25-.043-.066-.555.184-.942.606-1.266.734-.566 1.457-1.148 2.312-1.824-1.078.11-1.863.972-2.902.515-.106-.488.05-.882.394-1.187.543-.484 1.11-.95 1.676-1.406.223-.18.469-.328.719-.5-.461-.07-.875-.137-1.293-.2-.055-.671.258-1.027.707-1.289 1.082-.632 2.176-1.254 3.265-1.875.227-.129.465-.238.864-.437-1.047.098-1.907.676-2.793.098.09-.622.422-1.032.968-1.274.985-.437 1.965-.879 2.954-1.32-.172-.102-.414-.25-.676-.41.117-.532.433-.836.89-1.02.864-.348 1.73-.695 2.598-1.039-.156-.508-.004-.89.5-1.168.227-.125.488-.2.734-.277 1.79-.547 3.582-1.082 5.372-1.63.332-.1.652-.222.863-.296-3.313-.332-6.254.945-9.028 2.754-.39.258-.773.527-1.171.77-.305.183-.641.34-.985.109-.383-.254-.363-.633-.258-1.024.02-.078.047-.16.122-.422-.274.247-.442.372-.575.528-.757.894-1.496 1.797-2.257 2.687-.266.313-.54.63-.856.88-.703.55-1.297.292-1.414-.583-.016-.117-.004-.234-.004-.437-.137.09-.242.125-.3.199-1.977 2.516-3.739 5.16-4.813 8.21-.64 1.805-1.028 3.65-.98 5.579.03 1.434 0 2.867.034 4.3.016.731-.289 1.278-.796 1.802-.5-.473-.7-1.016-.696-1.66.016-2.786-.746-5.423-1.593-8.18-.036.12-.055.152-.06.191-.089.465-.288.883-.82.863-.492-.02-.632-.453-.73-.867-.457-1.941-1.273-3.754-2.027-5.715-.211.297-.36.516-.535.766-.555-.258-.903-.648-1.153-1.168a271.122 271.122 0 0 0-1.879-3.863 2.805 2.805 0 0 0-.683-.918c.015.18.043.363.043.543 0 .347-.117.644-.457.777-.336.129-.555-.086-.754-.309a157.496 157.496 0 0 1-1.516-1.707c-.535-.609-1.207-.98-2.035-1.23.035.398.07.727.102 1.055-.485.254-.903.105-1.305-.059-.461-.184-.902-.422-1.367-.598a1.955 1.955 0 0 0-1.008-.125c.309.16.605.332.918.477 1.7.77 3.164 1.871 4.535 3.117.434.399.719.836.664 1.445-.68.176-.68.176-1.785-.078.27.188.402.285.543.38.168.112.355.202.512.331.996.817 1.984 1.64 2.972 2.465.047.035.09.074.13.117.675.727.546 1.18-.427 1.492-.105.032-.199.082-.367.157.219.168.367.3.535.41 1.438.93 2.649 2.113 3.73 3.433.259.317.368.75.567 1.172l-.797.426c.043.078.067.156.118.215.222.23.488.43.664.687.187.282.191.63-.082.883-.286.262-.594.188-.88-.027-.113-.086-.214-.195-.324-.293-1.843-1.64-3.996-2.645-6.437-2.95-1.73-.214-3.45.044-5.145.356-3.707.684-7.152 2.102-10.199 4.274-3.355 2.394-6.226 5.312-8.242 8.98-.11.203-.215.414-.312.625-.016.04.015.102.039.223.5-.535.797-1.317 1.757-1.219.102.281.215.594.32.89.813-1.062 1.614-2.136 2.438-3.19.461-.587.653-.657 1.434-.704.398 1.156-.363 2.137-.516 3.332.172-.203.281-.336.395-.465 1.222-1.379 2.445-2.754 3.672-4.129.308-.347.71-.488 1.16-.484.55.645.199 1.344.105 2.203.254-.3.403-.453.532-.625.699-.937 1.39-1.883 2.101-2.812.313-.41.715-.684 1.309-.551.507.851-.106 1.625-.227 2.531.582-.258.863-.738 1.242-1.09.43-.398.828-.828 1.239-1.246.39-.398.753-.836 1.43-.762.433.43.23.946.054 1.602 1.172-.777 2.227-1.445 3.242-2.164.512-.363 1.012-.402 1.57-.211.047.016.086.074.16.145.106.601-.308 1.062-.675 1.73.824-.25 1.476-.45 2.133-.644.222-.067.457-.196.672-.172.273.03.636.113.765.308.121.176.055.555-.05.797-.137.313-.391.574-.594.863-.13.184-.246.371-.426.645 1.07.148 2.054.23 3.008.437 1.597.352 3.18.762 4.757 1.2.399.105.747.398 1.079.582-.094.605-.454.804-.86.91-.39.11-.804.156-1.203.23-3.398.664-6.734 1.516-9.73 3.344-.57.348-1.13.715-1.832 1.16l1.46.297c-.101.629-.402 1.023-.878 1.297-.633.367-1.29.695-1.891 1.105-.719.489-1.387 1.047-2.074 1.575.031.058.062.113.09.171.261-.07.53-.222.78-.199.294.028.657.133.829.336.227.274.047.64-.219.848-.39.3-.812.574-1.25.808-2.418 1.305-4.215 3.215-5.52 5.61-.058.101-.1.21-.144.316-.008.024.008.059.016.149.105-.008.207-.02.312-.024.086-.004.172 0 .258 0 .379.528.285 1.047.07 1.586-.859 2.145-1.656 4.313-2.117 6.586-.101.5-.183 1.004-.18 1.527.102-.27.215-.535.305-.808.696-2.149 2.09-3.906 3.258-5.793.242-.39.656-.555 1.09-.61.621.774.254 1.59.273 2.434.164-.226.332-.445.485-.68 1.914-2.941 3.832-5.882 5.738-8.828.324-.504.687-.937 1.32-1.129.387.496.489 1.036.364 1.645a82.822 82.822 0 0 0-.739 4.203 13.611 13.611 0 0 0 2.196-3.656c.671-1.68 1.402-3.34 2.105-5.008.035-.082.074-.16.11-.238.167-.364.378-.68.847-.617.36.043.606.382.625.937.035.73.02 1.465.02 2.195.004.809 0 1.61.132 2.442l.34-.668c1.14-2.305 2.293-4.606 3.426-6.918.23-.473.523-.836 1.11-.938.523.344.562.875.527 1.446-.07 1.195-.125 2.39-.063 3.652.207-.332.442-.645.614-.992.511-1.02 1.007-2.043 1.496-3.074.242-.516.547-.957 1.101-1.25.41.492.414 1.07.403 1.64-.059 3-.555 5.934-1.266 8.836-.02.086-.035.168-.063.317 1.137-.606 1.176-2.055 2.188-2.711.57.328.734.757.637 1.347-.348 2.07-.676 4.149-1.012 6.227a2.902 2.902 0 0 0-.047.703c.527-.54.879-1.266 1.73-1.43.348.598.258 1.196.118 1.79-.325 1.363-.668 2.722-1.032 4.206.192-.132.297-.242.426-.289.41-.14.735-.015.82.399.075.36.063.758-.019 1.113-.41 1.734-.855 3.465-1.281 5.191-.051.196-.078.395-.117.598.804.055 1.03.27 1.054 1.047.012.406-.008.828-.097 1.219-.48 2.066-.993 4.125-1.493 6.215.52-.286.715-.84.914-1.364.18-.46.438-.812.93-1.074.242.207.5.43.875.746.195-1.16.438-2.23.54-3.316.198-2.153.32-4.317.464-6.473.04-.559.086-1.11.59-1.543.156.05.332.106.617.195.063-.925.156-1.796.168-2.664a40.221 40.221 0 0 0-.07-3.07c-.031-.457-.172-.914-.301-1.363-.168-.602-.137-1.149.355-1.64.176.062.36.12.543.179.02-.082.059-.145.047-.188-.312-1.218-.629-2.433-.937-3.652-.188-.734-.184-.746.078-1.574l.762.047c.015-.079.07-.168.047-.239-.344-1.117-.684-2.23-1.051-3.34-.375-1.14-.785-2.265-1.172-3.398-.067-.195-.164-.402-.14-.59a.716.716 0 0 1 .308-.457c.105-.062.363-.02.457.07.219.227.445.485.558.774.946 2.39 1.993 4.746 2.551 7.27.14.628.278 1.257.399 1.886.168.84.047 1.047-.844 1.418.14.86.293 1.742.43 2.63.109.69.21 1.386.289 2.081.027.258.004.531-.063.777-.129.477-.222.524-.789.563-.062 1.137-.098 2.27-.203 3.402-.148 1.57-.363 3.137-.54 4.703-.054.5-.312.801-.792.903-.207 1.597-.387 3.164-.613 4.719a27.763 27.763 0 0 1-1.371 5.433c-.176.488-.41.899-.95 1.129-.902-.43-.629-1.328-.773-2.117-1.207.512-2.035 1.8-3.5 1.722-.356-.789-.113-1.41.234-1.992.93-1.562 1.375-3.27 1.645-5.164-.278.258-.465.461-.684.63-.297.234-.644.304-.976.093-.301-.195-.399-.512-.297-.848.18-.586.347-1.18.597-1.734.614-1.367 1.016-2.785 1.297-4.367-.675.324-1.09 1-1.898.777-.29-.586-.082-1.148.148-1.723.489-1.215.977-2.433 1.426-3.668.184-.515.258-1.074.418-1.777-.57.45-1.043.82-1.691.715-.41-.531-.297-1.11-.172-1.68.43-1.937.87-3.879 1.3-5.816a.543.543 0 0 0-.058-.414c-.328.386-.684.754-.98 1.164-.43.59-1.016.844-1.739.93-.324-.598-.433-1.184-.195-1.844.809-2.266 1.234-4.625 1.617-6.996.02-.133.004-.278-.117-.473-.383.605-.766 1.207-1.148 1.812-.188.297-.36.606-.567.887-.34.453-.805.621-1.219.485-.363-.122-.605-.516-.578-1.082.043-.872.13-1.743.082-2.668-.093.148-.21.285-.281.441-.57 1.187-1.094 2.398-1.71 3.559-.435.82-.99 1.582-1.505 2.359-.11.168-.265.32-.43.43-.535.351-1.074.164-1.218-.461-.09-.36-.07-.754-.07-1.133-.012-.758-.004-1.52-.114-2.328-.11.242-.238.476-.332.726-.941 2.54-2.18 4.914-3.82 7.075-.16.207-.309.425-.492.613-.29.297-.637.402-1.04.242-.417-.164-.585-.504-.53-.91.12-.895.28-1.79.433-2.68.074-.43.18-.851.148-1.351-.164.246-.332.492-.496.738-1.863 2.836-3.726 5.672-5.578 8.512-.332.504-.687.945-1.34 1.03-.562-.472-.562-1.112-.496-1.94-.215.273-.36.398-.433.558-.383.82-.77 1.64-1.11 2.477-.418 1.027-.8 2.07-1.183 3.113-.204.558-.543.953-1.16 1.133-.477-.375-.708-.844-.723-1.489-.043-1.828.14-3.617.703-5.363.312-.973.59-1.953.918-3.031-.313.078-.547.14-.817.207-.347-.45-.39-.95-.214-1.473 1.027-3.027 2.425-5.832 4.875-7.992.222-.2.355-.363.308-.734-.043-.32.153-.743.375-1.004.953-1.137 1.973-2.219 3.07-3.418zM196.129 84.7c.71.527 1.309.991 1.922 1.421 1.238.867 2.242 1.95 3.105 3.192 1.348 1.94 1.352 3.91.211 5.933-.605 1.07-1.422 1.863-2.527 2.469-1.559.855-3.016 1.898-4.52 2.855-.515.328-1.027.672-1.57.953-.61.313-1.262.391-1.957.317-2.195-.23-4.395-.211-6.527.398-1.227.352-2.317.18-3.356-.465-1.64-1.015-3.254-2.07-4.898-3.082-1.473-.91-2.043-2.273-2.028-3.93.008-.523.07-1.05.16-1.57.118-.675.555-1.144 1.118-1.5.558-.351 1.125-.691 1.648-1.109-1.969.281-3.953.473-5.715 1.477-.636.363-1.285.71-1.867 1.148-1.203.902-2.55 1.41-4.02 1.625-1.101.16-2.199.332-3.3.457-2.809.313-5.34-.414-7.551-2.16-1.219-.965-2.394-1.973-3.816-2.633a1.717 1.717 0 0 1-.426-.308c-.805-.711-.824-1.22-.074-1.977 1.34-1.352 2.71-2.672 4.02-4.05.491-.52.913-1.138 1.273-1.77.812-1.434 1.77-2.746 2.968-3.887 1.16-1.113 2.536-1.781 4.13-1.942 1.538-.152 3.085-.246 4.628-.363.258-.02.512-.031.86-.05-.114-.235-.172-.43-.286-.579-1.214-1.57-1.773-3.375-2.082-5.32a23.728 23.728 0 0 0-1.12-4.313c-.641-1.761-.716-3.468-.13-5.23.356-1.062.805-2.066 1.45-2.984.882-1.266 2.074-2.043 3.601-2.266.715-.105 1.277-.387 1.828-.902 1.211-1.133 2.446-1.52 3.996-.739 1.598.801 3.168 1.645 4.493 2.871.3.278.613.543.93.801.433.364.863.598 1.507.477.883-.168 1.734.703 1.422 1.496-.434 1.102.129 1.766.793 2.598.086-.305.144-.512.2-.72.292-1.097.48-2.237.901-3.284.88-2.172 2.48-3.637 4.72-4.403a7.609 7.609 0 0 0 1.562-.761c2.03-1.262 4.175-1.891 6.597-1.5.758.12 1.563-.055 2.344-.125.406-.04.805-.157 1.211-.215 1.34-.188 2.402.297 3.219 1.355.808 1.047 1.176 2.278 1.469 3.535.64 2.704.417 5.403-.07 8.098-.141.762-.298 1.523-.458 2.328 1.95-.332 3.801-.18 5.645.145 1.847.324 3.207 1.36 4.168 2.933.886 1.446 1.3 3.059 1.597 4.703.145.778.235 1.563.332 2.344.102.856.028 1.68-.363 2.48-.184.376-.27.837-.273 1.262a62.221 62.221 0 0 0 .074 3.414c.094 2.036-1.781 3.801-3.926 3.454-2.043-.336-4.082-.254-6.125-.293-.523-.012-1.047-.086-1.562-.168-.739-.121-1.364-.47-1.93-.97a27.66 27.66 0 0 0-2.121-1.698c-.918-.664-1.906-.793-2.973-.293-.762.363-1.566.636-2.531 1.02zm-6.633-4.93c.652-.614 1.211-1.262 1.887-1.75a16.69 16.69 0 0 1 5.262-2.551c.742-.211 1.417-.653 2.125-.992.312-.153.605-.372.933-.457.555-.149 1.11.207 1.402.804.282.57.184 1.13-.265 1.512-.469.394-.965.43-1.5-.035-.485-.418-1-.465-1.555-.336-2.37.543-4.55 1.5-6.469 3.008a6.137 6.137 0 0 0-1.773 2.246c1.004-.395 1.95-.856 2.95-1.14 1.542-.438 3.136-.29 4.71-.169.293.024.606.207.848.403.336.269.5.671.304 1.097-.199.442-.617.613-1.074.649-.449.035-.797-.149-.969-.594-.093-.242-.18-.485-.289-.778-2.277-.113-4.375.352-6.253 1.626-.497.335-.934.785-1.067 1.5.645-.172 1.223-.36 1.813-.481 1.406-.281 2.812-.523 4.214.125.31.14.77.113 1.106.004a20.407 20.407 0 0 0 2.434-.977c.687-.332 1.37-.46 2.12-.34 1.005.16 1.91.512 2.692 1.184.508.438 1.027.863 1.559 1.277.617.477 1.308.766 2.105.77.613.004 1.227 0 1.84-.012 1.605-.023 3.21-.21 4.797.262.308.094.703.023 1.027-.07 1.035-.313 1.582-1.082 1.613-2.246.032-1.145.004-2.286.047-3.422.02-.524.024-1.102.243-1.547.476-.957.472-1.906.277-2.903-.086-.43-.121-.87-.195-1.3-.247-1.418-.598-2.801-1.32-4.067-.669-1.172-1.63-2.011-2.923-2.363-.836-.23-1.726-.262-2.582-.422-1.425-.27-2.656.164-3.793.977-.914.66-1.941 1.078-3.023 1.351-.797.196-1.61.32-2.395.547-1.148.328-2.293.672-3.414 1.09-.664.246-1.27.672-1.515 1.383-.258.758-.785 1.277-1.352 1.797-.469.433-1.05.828-1.336 1.367-.472.898-1.148 1.527-1.945 2.082-.285.2-.543.45-.77.715-.285.324-.527.683-.53 1.176zm5.223-7.57c.148-.216.281-.368.379-.544.414-.738 1.027-1.27 1.765-1.656.336-.176.668-.367 1.028-.488a166.74 166.74 0 0 1 4.152-1.383c1.586-.5 2.562-1.524 2.969-3.149.855-3.421.875-6.828-.094-10.222-.45-1.57-1.965-2.524-3.586-2.262-1.113.18-2.215.16-3.316-.02-1.97-.324-3.758.075-5.426 1.188-.793.531-1.676.95-2.55 1.34-.74.332-1.4.754-1.872 1.402-1.262 1.723-2.102 3.621-2.426 5.754-.246 1.645.004 3.27.078 4.903.051 1.042-.047 2.046-.527 2.98-.227.441-.266.863-.14 1.352.245.937.316 1.89.148 2.867-.188 1.07-.094 2.125.41 3.117.226-1.086.457-2.156.672-3.23.086-.426-.028-.778-.336-1.118-.719-.793-.477-1.644.504-2.086.664-.3 1.242-.144 1.793.305.484-.703.75-1.406.5-2.133-.324-.933-.297-2.015-1.242-2.715-.493-.363-.485-1.332-.172-1.695.324-.371 1.082-.465 1.64-.195.524.25.817.8.684 1.379-.066.28-.191.546-.316.812-.278.606-.157 1.152.12 1.64 1.294-1.402 2.555-2.78 3.829-4.144.273-.293.324-.586.218-.96s-.105-.75.208-1.063c.402-.406 1.078-.524 1.62-.258.602.289.872.8.755 1.426-.141.746-.52 1.207-1.16 1.215-.622.004-1.079.261-1.446.699-1.09 1.297-2.184 2.59-3.219 3.93-.242.316-.355.808-.36 1.222-.007 1.574.138 3.156-.304 4.707-.11.383.09.61.567.653.117-.2.234-.43.382-.633.258-.356.493-.742.813-1.028.414-.359.68-.726.758-1.304.125-.926.886-1.282 1.777-.93.234.098.461.207.723.324zm5.898 20.495c-.02-1.43-.484-2.476-1.199-3.437-.961-1.29-2.184-2.27-3.52-3.133-.312-.203-.695-.398-.878-.703-.66-1.094-1.579-1.399-2.77-1.082-.137.035-.293.02-.434.035-1.632.203-3.218.54-4.726 1.238-.895.418-1.848.727-2.785 1.04-.664.222-1.352.37-2.032.554-.812.219-1.312.715-1.421 1.578-.047.375-.11.754-.2 1.121-.351 1.477-1.218 2.16-2.75 2.18-.144 0-.293-.008-.437.004-1.332.097-2.211 1.015-2.223 2.347-.012 1.422.73 2.41 1.844 3.2a52.19 52.19 0 0 1 2.789 2.11c.598.487 1.238.698 1.953.456.875-.297 1.774-.351 2.68-.336 1.86.04 3.578-.402 5.176-1.379a19.62 19.62 0 0 1 2.566-1.316c1.367-.578 2.785-.828 4.281-.477.856.2 1.723.09 2.375-.562 1-1 1.567-2.23 1.711-3.438zm-49.613-3.234c1.219.902 2.367 1.656 3.406 2.539 2.067 1.75 4.41 2.16 6.977 1.59 1.52-.336 2.668-1.25 3.582-2.5 1.246-1.703 2.926-2.738 5.05-2.727 1.63.008 2.868-.629 3.973-1.715.48-.468.992-.914 1.516-1.328 1.05-.832 2.23-1.215 3.594-1.093.878.078 1.77.015 2.656.015-.25-.219-.535-.34-.828-.43a901.631 901.631 0 0 0-5.52-1.714c-.765-.235-1.484-.434-2.152.328-.38.433-1.059.234-1.446-.27-.398-.515-.378-1.23.043-1.59.364-.312.786-.207 1.172-.101 1.524.402 3.04.832 4.559 1.258.617.172 1.234.363 1.851.547-1.253-1.168-2.558-2.196-3.875-3.215-.203-.16-.453-.403-.671-.39-1.059.054-1.907-.571-2.868-.83-.058-.015-.117-.022-.171-.03-2.704-.356-5.415-.438-8.137-.407-2.403.032-4.18 1.137-5.457 3.118-.508.785-1.035 1.562-1.477 2.382a14.615 14.615 0 0 1-2.562 3.43c-.887.89-1.809 1.742-2.715 2.617-.184.176-.352.36-.5.516zm28.559-16c-.032-.164-.024-.32-.083-.441a137.977 137.977 0 0 0-1.566-3.137c-.344-.664-.789-1.176-1.629-1.309-.687-.105-1.14-.738-1.094-1.3.055-.66.5-1.028 1.063-1.282.559-.25 1.105-.195 1.566.192.477.398.59.957.34 1.511-.226.493-.105.871.133 1.313.777 1.441 1.512 2.898 2.27 4.347.148.282.34.54.5.813.289.5.652.98.835 1.52.36 1.046.61 2.132.915 3.199.093.316.23.62.351.957.688-.426.664-.418.422-1.078-.594-1.618-1.156-3.25-1.242-4.993-.024-.53-.25-.925-.684-1.253-.55-.418-.613-.645-.336-1.282.18-.414.14-.773.02-1.183a44.872 44.872 0 0 1-.625-2.368c-.094-.386-.223-.71-.621-.89-.461-.207-.692-.602-.797-1.09-.156-.738.05-1.281.625-1.566.613-.305 1.36-.164 1.754.328.468.582.523 1.355.03 1.836-.335.324-.358.632-.253 1.02.285 1.01.566 2.023.863 3.034.043.141.164.258.25.387.121-.5.133-.96.121-1.418-.082-2.574-.171-5.144-.261-7.715 0-.117-.004-.234-.008-.351-.012-.414-.14-.711-.594-.852-.258-.082-.555-.273-.687-.504-.746-1.289-1.95-2.078-3.11-2.914-1.172-.84-2.445-1.488-3.777-2.031-.914-.371-1.695-.262-2.418.426-.805.77-1.797 1.191-2.875 1.418-.785.168-1.383.59-1.79 1.293-.378.66-.76 1.32-1.179 1.953-1.242 1.883-1.3 3.836-.355 5.836a16.064 16.064 0 0 1 1.379 4.597c.332 2.309 1.359 4.192 3.402 5.47 1.437.894 2.894.73 4.41.347-.808-.832-1.562-1.649-2.355-2.422-1.094-1.07-2.11-2.192-2.664-3.656-.157-.418-.45-.63-.887-.746-.688-.188-1.121-.813-1.14-1.493-.016-.558.245-.957.734-1.191.457-.219.906-.168 1.32.148.586.454.75.91.523 1.688-.148.516-.117.988.16 1.433.293.473.57.961.922 1.383 1.504 1.801 3.094 3.516 4.93 4.989.453.363.95.683 1.438 1.004.117.078.277.082.421.12l.118-.14c-.793-1.117-1.582-2.234-2.38-3.348-.312-.437-.683-.726-1.265-.832a1.636 1.636 0 0 1-1.336-1.875c.047-.281.246-.629.485-.758.593-.332 1.199-.105 1.738.22.504.3.715.76.539 1.35-.133.438.023.774.285 1.13a41.934 41.934 0 0 1 1.793 2.593c.82 1.313 1.941 2.344 2.969 3.47a33.59 33.59 0 0 0-1.387-2.63c-.14-.238-.445-.37-.625-.597-.285-.356-.594-.72-.773-1.133-.223-.516-.04-.883.457-1.18.214-.137.457-.238.714-.367zm-17.11 20.812c.117-.011.23-.011.344-.035 2.09-.398 4.023-1.148 5.793-2.367 1.422-.984 2.976-1.746 4.7-2.082 1.089-.21 2.179-.43 3.276-.598 1.227-.183 2.258-.629 3.082-1.64.93-1.145 2.204-1.797 3.676-2.04.184-.03.36-.085.57-.136-1.417-.055-2.789-.066-4.152-.172-1.258-.09-2.383.192-3.39.93-.422.308-.813.668-1.215 1-.633.52-1.25 1.055-1.899 1.558-.941.727-1.972 1.07-3.195.825-1.395-.282-2.59.218-3.613 1.164a7.45 7.45 0 0 0-.785.824c-.872 1.117-1.872 2.082-3.192 2.77zm25.254 6.391c1.098 0 2.004-.039 2.906.008.91.047 1.739-.152 2.504-.629 1.043-.648 2.086-1.293 3.121-1.945.055-.032.067-.125.117-.227-1.449-.312-2.816-.305-4.128.399-1.438.77-2.883 1.527-4.52 2.394zm-12.496-23.059c.434.727 6.32 5.239 7.312 5.582-.273-.398-.445-.68-.652-.937-1.355-1.68-3.23-2.762-4.82-4.176-.453-.402-1.063-.715-1.84-.469zm8.996-2.824c.082-.011.164-.02.242-.031-.07-.36-.12-.727-.215-1.078a9.342 9.342 0 0 1-.03-4.688c.523-2.078.187-4.054-.575-6-.04-.101-.125-.183-.29-.406.286 4.192-.034 8.238.868 12.203zm3.41-1.02c-1.222 1.653-1.355 5.833-.457 6.84.149-2.234.305-4.535.457-6.84zm-3.933 7.692c.644 1.008 1.086 1.942 1.976 2.746.309-1.039-.316-1.687-.437-2.398l-1.54-.348zm-3.91 7.375c-.587.79-1.114 1.5-1.657 2.234 1.145.16 1.621-.472 1.656-2.234zm7.035-5.758c.293-.988-.399-1.703-.625-2.68-.754 1.22.097 1.91.625 2.68zm1.238-3.605c.062.015.125.027.187.043.207-.281.407-.57.621-.84.27-.328.254-.637-.035-.938-.152-.156-.32-.3-.59-.55-.07.863-.128 1.574-.183 2.285zm-7.094-3.817c-.082-.007-.164-.011-.246-.015-.043.254-.191.55-.11.754.25.605.594 1.175.903 1.758.04-.91-.066-1.758-.547-2.497zm-3.996-8.976c-.484.004-.863.344-.855.656.011.406.304.453.617.445.379-.011.742-.28.656-.546-.074-.235-.309-.422-.418-.555zm11.625 8.863a5.2 5.2 0 0 1 .246.016l.305-3.106c-.38 1.008-.672 2.024-.551 3.09zm-13.281-3.465c.035-.437-.336-.886-.633-.836a.725.725 0 0 0-.473.395c-.101.27.309.71.633.683.188-.011.36-.18.473-.242zm13.738-6.226c-.047-.453-.242-.656-.527-.594-.168.035-.371.266-.41.441-.059.286.296.606.55.508.18-.062.301-.27.387-.355zm-8.61 8.953c-.316-.2-.484-.395-.656-.395-.257-.004-.554.149-.484.47.035.171.297.421.434.41.199-.024.379-.247.707-.485zm-11.886-7.031c.148.402.152.84.672.77.117-.016.273-.294.277-.454.004-.34-.265-.434-.949-.316zm16.656 12.789c-.027-.442-.293-.664-.62-.578-.157.039-.345.214-.384.367-.066.234.309.574.567.511.183-.046.332-.226.437-.3zm8.418-7.012c.211-.211.406-.313.418-.426.02-.308-.125-.601-.453-.644-.129-.016-.422.25-.402.304.078.246.25.461.437.766zm-5.996-1.16c-.09-.442-.332-.582-.64-.528-.145.028-.25.223-.376.344.208.16.403.364.637.457.078.035.27-.187.38-.273zm-4.543-13.203c-.285-.2-.46-.418-.61-.399-.163.02-.386.242-.421.41-.067.29.14.524.445.47.176-.036.317-.25.586-.481zm-2.719 6.695.266.059c.105-.207.27-.403.297-.618.02-.132-.137-.375-.27-.421-.27-.098-.445.105-.449.359 0 .207.102.414.156.621zm14.618-2.047c.183-.398.363-.601.332-.766-.036-.171-.262-.41-.422-.43-.29-.034-.39.259-.34.493.035.184.2.344.43.703zm-5.848 12.715c-.012.363-.106.738.398.734.258 0 .473-.164.41-.453-.093-.41-.382-.465-.808-.281zm10.375-1.348c.137.297.3.57.691.414.102-.043.207-.39.145-.492-.246-.398-.531-.219-.836.078zm-8.207.418c.058.063.121.125.183.188.32-.371.649-.746.97-1.117-.06-.055-.118-.106-.177-.157-.324.364-.652.727-.976 1.086zm-7.27 25.305c-.457-.14-.89-.129-1.37.246.585.207.976-.035 1.37-.246zm-11.601-20c-.176.805-.11.883.64.793l-.64-.793zm12.187-1.883c.266-.87.246-1.133 0-1.625zm1.2-.625c-.063.43-.418.887.152 1.375l-.153-1.375zm-11.84-1.355c-.184.148-.286.234-.387.316.113.133.215.293.355.387.043.027.305-.149.293-.192-.039-.16-.148-.304-.261-.511zm23.297 3.53c-.125.204-.258.325-.243.415.02.105.16.21.274.262.039.02.226-.133.215-.176-.032-.145-.125-.273-.246-.5zm-13.872-5.651c-.035.027-.066.058-.101.086.074.187.144.378.219.566.03-.012.058-.02.093-.031a57.1 57.1 0 0 0-.21-.621zm5.211 6.129.106.058.25-.445c-.035-.02-.07-.035-.106-.055-.082.145-.168.293-.25.442zm0 0"/><path d="M150.766 128.133c.605.117.984-.113 1.32-.39.691-.567 1.168-1.259 1.375-2.169.27-1.195.637-2.37 1.027-3.531.164-.488.426-.973.75-1.375.215-.273.59-.5.93-.574.68-.145 1.16.332 1.043 1.023a6.543 6.543 0 0 1-.477 1.496c-.53 1.215-.91 2.473-1.062 3.785a5.168 5.168 0 0 0 .078 1.645c.129.625.578.773 1.133.45.222-.134.433-.305.601-.505.871-1.039 1.594-2.156 1.907-3.508.273-1.168.566-2.328.89-3.48a3.2 3.2 0 0 1 .524-1.09 1.158 1.158 0 0 1 1.422-.351c.457.214.554.507.43 1.261-.005.047.027.102.027.102.367-.332.75-.684 1.14-1.027.598-.524 1.227-.989 2.055-1.098 1.45-.2 2.574.754 2.484 2.215-.039.656-.261 1.308-.457 1.949-.238.781-.562 1.535-.789 2.32-.113.387-.14.809-.113 1.211.043.637.5.871 1.043.52.336-.219.66-.512.879-.84.484-.727.898-1.504 1.347-2.258.18-.297.329-.625.559-.883.324-.367.809-.39 1.195-.129.371.25.504.614.29 1.075-.739 1.57-1.622 3.05-3.055 4.105-.602.445-1.266.719-2.028.742-1.562.047-2.578-.863-2.593-2.426-.004-.546.12-1.105.273-1.632.227-.786.531-1.547.797-2.325.074-.218.148-.441.191-.671.07-.383.356-.864-.093-1.11-.399-.215-.778.149-1.075.414a11.334 11.334 0 0 0-2.804 3.883c-.47 1.063-.762 2.207-1.125 3.313-.082.25-.106.52-.196.765-.297.785-1.086 1.031-1.773.559-.117-.078-.211-.188-.305-.274-2.437 1.594-4.066 1.149-5.094-.472-.148.082-.296.164-.445.254-.816.496-1.699.8-2.66.75-.594-.032-1.047.14-1.5.535-.957.824-2.082 1.265-3.375 1.25-1.117-.012-2.066-.352-2.773-1.246-.075-.09-.121-.196-.204-.332-.28.254-.468.43-.66.605-1.765 1.594-3.843 2.29-6.207 2.152-1.031-.058-1.922-.464-2.656-1.332-.316.328-.605.645-.906.942-.703.691-1.496 1.21-2.504 1.336-1.637.203-2.852-.79-2.817-2.438.016-.742.254-1.488.457-2.219.227-.812.555-1.597.797-2.41.094-.316.075-.668.11-.992-.668-.273-1.047.094-1.406.422-.981.895-1.79 1.957-2.348 3.145-.574 1.207-.965 2.503-1.418 3.761-.09.246-.11.516-.184.766-.285 1-1.093 1.266-1.945.64-.066-.046-.14-.09-.2-.128-2.44 1.37-3.46 1.285-4.925-.47-.23.259-.453.52-.688.763-.796.82-1.699 1.41-2.91 1.41-.902.004-1.668-.258-2.27-.942-.097-.11-.144-.261-.148-.273l-1.476 1.305c-1.114.972-2.36 1.511-3.867 1.136-1.387-.34-2.246-1.379-2.364-2.808a6.628 6.628 0 0 1 .473-3.008c.559-1.379 1.184-2.734 1.773-4.098.57-1.312 1.196-2.61 1.672-3.953.246-.695.297-1.488.305-2.234.008-.742-.418-1.063-1.152-.946-.391.063-.82.196-1.13.43-.718.547-1.437 1.113-2.042 1.777-2.02 2.22-3.403 4.82-4.367 7.641-.75 2.184-1.41 4.399-2.125 6.59-.184.55-.387 1.11-.676 1.605-.387.668-1.055.875-1.645.618-.55-.243-.86-.832-.664-1.551.258-.926.582-1.84.938-2.73 1.37-3.407 2.355-6.915 2.765-10.567.063-.54 0-1.113-.101-1.652-.117-.625-.516-.91-1.145-.813-.418.066-.883.2-1.207.453-.687.54-1.36 1.121-1.922 1.781-1.898 2.227-3.28 4.77-4.242 7.524-.746 2.152-1.406 4.336-2.105 6.504-.145.445-.274.898-.473 1.316-.148.309-.36.61-.61.844-.374.36-.867.36-1.32.184-.445-.176-.71-.586-.64-1.051.097-.688.25-1.375.476-2.031.543-1.575 1.235-3.098 1.7-4.696.562-1.93.976-3.906 1.398-5.879.121-.558.094-1.164.074-1.746-.016-.496-.156-.972-.64-1.394-.11.355-.204.648-.29.941-.609 2.055-1.605 3.89-3.168 5.383-1.058 1.008-2.277 1.629-3.8 1.433-1.325-.167-2.184-.968-2.434-2.277-.2-1.05 0-2.039.527-2.957 1.317-2.297 3.34-3.707 5.801-4.547.246-.086.496-.16.746-.242.024-.012.043-.039.145-.137-.074-.218-.117-.507-.258-.738-.406-.656.195-1.332.82-1.375.668-.047 1.145.254 1.45.797.242.43.394.906.62 1.441 1.817.516 2.856 1.785 2.989 3.953.305-.425.473-.691.676-.93.886-1.046 1.738-2.128 2.691-3.109.809-.824 1.809-1.379 2.992-1.539 1.957-.27 3.461.871 3.715 2.836a132 132 0 0 1 .16 1.168c.27-.344.43-.535.578-.742.88-1.21 1.832-2.36 3.016-3.289.86-.676 1.781-1.207 2.914-1.316 2.414-.227 3.856 1.386 3.613 3.695a8.376 8.376 0 0 1-.582 2.281c-.64 1.567-1.375 3.098-2.086 4.637-.656 1.433-1.367 2.855-1.554 4.45-.055.48-.02.995.094 1.464.164.684.68.937 1.347.73.246-.074.492-.207.684-.375 1.16-1.027 2.05-2.246 2.457-3.757.558-2.059 1.668-3.723 3.449-4.91a5.38 5.38 0 0 1 1.004-.536c1.168-.457 2.324-.64 3.418.313.191-.223.351-.418.523-.606.29-.316.63-.52 1.075-.508.597.016 1.003.446.89 1.036-.074.398-.234.78-.387 1.16-.609 1.496-1.039 3.043-1.222 4.648-.051.422.008.88.117 1.293.121.465.453.574.887.352.207-.102.41-.242.562-.41.899-.985 1.59-2.09 1.926-3.395.816-3.172 1.637-6.34 2.473-9.5a3.02 3.02 0 0 1 .488-1.016c.371-.492 1.113-.64 1.578-.386.441.242.574.683.356 1.39-.606 1.977-1.227 3.953-1.711 6.012.14-.144.28-.293.433-.434.535-.496 1.028-1.046 1.625-1.457.41-.28.953-.476 1.453-.515 1.551-.125 2.567 1 2.317 2.543-.106.656-.352 1.293-.555 1.933-.223.696-.516 1.368-.7 2.07-.109.415-.116.876-.066 1.301.055.47.414.649.832.43.329-.172.657-.41.883-.7.793-1.015 1.41-2.093 1.727-3.394.637-2.62 2.324-4.414 4.851-5.363.809-.3 1.66-.34 2.5-.078.953.3 1.465.969 1.45 1.855-.02.98-.73 2.024-1.54 2.258-.917.266-1.667-.386-1.503-1.332.066-.386.214-.761.332-1.18-.516-.136-.887.079-1.2.313-1.726 1.285-2.562 3.004-2.382 5.164.074.856.656 1.344 1.527 1.399 2.074.132 4.496-1.375 5.277-3.293.086-.211.102-.454.149-.68.465-2.313 1.703-4.074 3.758-5.238.945-.54 1.968-.72 3.046-.618 1.426.137 2.414 1.028 2.754 2.43.317 1.285.032 2.492-.425 3.684-.114.277-.239.539-.38.87zm-1.59-2.899c-.035-.425-.047-.691-.086-.949-.028-.2-.07-.402-.145-.594-.203-.535-.574-.765-1.152-.746-.598.016-1.055.332-1.453.727-1.133 1.113-1.715 2.488-1.774 4.066-.02.426.082.88.23 1.282.235.628.782.875 1.497.773.758-.113 1.246-.527 1.281-1.164.028-.496.254-.844.672-1.047.352-.172.535-.426.61-.789l.32-1.559zm-37.488 7.149c0 .234-.024.469 0 .699.128 1.11.984 1.504 1.863.816.406-.316.746-.742 1.031-1.175.856-1.301 1.39-2.746 1.797-4.246.238-.872-.188-1.418-1.094-1.38-.64.028-1.176.325-1.62.766-1.263 1.242-1.919 2.754-1.978 4.52zm-28.907-9.414c-2.187.742-3.87 1.906-4.672 4.086-.109.293-.136.629-.132.945.003.95.585 1.375 1.437.96.531-.257 1.031-.675 1.418-1.128 1.027-1.2 1.582-2.644 1.945-4.164.043-.188.004-.395.004-.7zm0 0"/><path d="M125.16 207.031c-28.125-.039-53.14-14.89-67.183-37.851-5.086-8.32-8.485-17.293-10.239-26.883a76.715 76.715 0 0 1-1.25-14.399c.04-4.71.887-9.3 2.121-13.828 1.25-4.574 2.934-9 4.594-13.433.055-.137.11-.278.184-.399.254-.402.668-.543 1.05-.375.391.172.606.57.508 1.008-.054.254-.175.496-.265.742-1.653 4.407-3.278 8.817-4.532 13.364-1.62 5.867-2.183 11.824-1.808 17.89 1.781 28.977 19.32 53.215 43.742 64.918 6.82 3.27 13.973 5.457 21.453 6.617a75.647 75.647 0 0 0 15.746.786c17.14-.938 32.504-6.645 45.742-17.649 13.422-11.152 21.989-25.312 25.614-42.418a72.181 72.181 0 0 0 1.523-18.047c-.176-4.156-.832-8.261-1.836-12.293-.808-3.258-1.789-6.472-2.695-9.71-.04-.141-.106-.278-.125-.419-.05-.425.129-.738.516-.918.363-.168.761-.066 1 .293.16.239.257.524.347.801 1.86 5.707 3.297 11.516 4.094 17.473.586 4.394.594 8.8.262 13.219-.477 6.386-1.668 12.632-3.75 18.687-6.563 19.07-18.813 33.39-36.395 43.164-7.894 4.387-16.367 7.16-25.273 8.61-4.309.703-8.649 1.007-13.145 1.05zM128.063 50.879c.222-.043.335-.086.445-.09 1.375-.039 1.414-.008 1.785 1.328.195.7.394 1.399.637 2.254.156-.305.265-.484.343-.676.278-.707.57-1.41.813-2.125.148-.441.414-.601.855-.543.371.047.746.075 1.098.11.18.832-.023 4.898-.281 5.62h-1.086c-.2-.96.101-1.913-.067-3.042l-1.23 2.898h-1.086c-.309-1.015-.61-2.011-.914-3.004h-.094c-.07.934-.136 1.868-.21 2.868h-1.34c.124-1.922.164-3.766.332-5.598zM118.344 51.313c.281-.075.445-.137.613-.16.172-.024.344-.005.633-.005.367 1.805.445 3.657.68 5.47-1.149.484-1.239.464-1.95-.438-.582-.727-1.16-1.457-1.87-2.153.1 1.008.202 2.02.312 3.102-.426.074-.785.133-1.27.215-.312-1.895-.488-3.735-.648-5.555 1.125-.441 1.246-.414 1.902.414.578.73 1.152 1.461 1.879 2.149-.09-.985-.184-1.973-.281-3.04zM139.895 51.777c1.69.02 2.863 1.207 2.847 2.891-.02 1.77-1.207 3.082-2.797 3.086-1.695.004-2.89-1.18-2.886-2.852.004-1.82 1.203-3.14 2.836-3.125zm-1.458 3.16c.07.946.477 1.485 1.25 1.579.696.082 1.278-.348 1.493-1.176.09-.36.11-.75.082-1.121-.047-.664-.442-1.063-1.075-1.18-.59-.11-1.09.102-1.367.672-.187.383-.257.816-.382 1.227zM92.82 57.977l3.88-1.618c.171.38.308.688.491 1.09-.882.395-1.699.758-2.601 1.156.101.293.191.543.297.856.855-.328 1.633-.625 2.48-.953.14.363.25.652.395 1.023-.809.352-1.547.676-2.383 1.043.129.332.25.64.402 1.024.91-.364 1.766-.711 2.711-1.09.16.36.297.66.442.98-.575.535-1.282.664-1.907.946-.636.293-1.293.539-1.925.8-.442-.488-1.954-3.949-2.282-5.257zM157.492 62.777c-.39-.132-.652-.242-.93-.312-.445-.121-.671-.383-.753-.852-.13-.71-.325-1.414-.496-2.129-1.165.125-.887 1.305-1.547 1.887-.32-.129-.688-.273-1.036-.414.055-.715 1.461-4.437 2.012-5.324l1.192.46c-.22.626-.407 1.173-.664 1.919.664-.309 1.207-.489 1.667-.793.825-.54 1.524-.282 2.329.226-.793.672-1.786.805-2.606 1.383.145 1.281.719 2.516.832 3.95zM149.32 57.418c.422.14.77.254 1.118.371-.333 1.164-1.157 1.809-2.235 1.805-1.469-.004-2.629-1.032-2.816-2.489-.196-1.523.816-3.097 2.218-3.457 1.633-.421 3.297.762 3.286 2.34 0 .114-.047.223-.086.38-.633-.04-1.14-.071-1.399-.848-.27-.805-1.37-.922-1.969-.293-.488.515-.68 1.152-.636 1.851.039.59.375 1.04.887 1.18.523.144.98.035 1.308-.442.082-.117.18-.222.324-.398zM112.938 57.605c-1.16.52-1.16.52-2.075-.664-.543.118-1.133.243-1.691.364-.402 1.453-.402 1.453-1.629 1.437.078-.633.14-1.258.23-1.883.157-1.093.332-2.187.5-3.285.102-.672.184-.75.77-.886.473-.114.809-.047 1.098.421.832 1.375 1.718 2.711 2.582 4.067.074.117.129.254.215.43zm-2.72-1.722c-.195-.516-.382-.906-.788-1.266l-.188 1.461c.399-.078.66-.133.977-.195zM102.969 57.734v-3.449c.449-.148.847-.277 1.32-.43.023.336.055.563.055.79-.012 1.398-.024 2.8-.043 4.203-.012 1.027-.02 1.027-1 1.308-.137.035-.278.067-.508.125-1.117-1.586-2.238-3.168-3.438-4.867l1.368-.465c.695.985 1.367 1.926 2.035 2.871.07-.027.14-.058.21-.086zm0 0"/><path d="M157.586 116.176c.746.008 1.191.457 1.187 1.199-.003.918-.75 1.64-1.683 1.633-.778-.008-1.278-.5-1.262-1.246.016-.856.836-1.594 1.758-1.586zm0 0"/></g></svg>