<svg xmlns="http://www.w3.org/2000/svg" xmlns:xlink="http://www.w3.org/1999/xlink" width="250" height="250"><linearGradient id="a"><stop offset="0" stop-color="#4297ff"/><stop offset="1" stop-color="#18e7d9"/></linearGradient><linearGradient xlink:href="#a" id="b" x1="23.87" x2="6.189" y1="17.637" y2="17.929" gradientUnits="userSpaceOnUse"/><linearGradient xlink:href="#a" id="c" x1="24.771" x2="7.538" y1="17.187" y2="16.604" gradientUnits="userSpaceOnUse"/><linearGradient xlink:href="#a" id="d" x1="24.347" x2="6.838" y1="14.669" y2="15.226" gradientUnits="userSpaceOnUse"/><linearGradient xlink:href="#a" id="e" x1="24.161" x2="7.023" y1="18.697" y2="19.042" gradientUnits="userSpaceOnUse"/><linearGradient xlink:href="#a" id="f" x1="24.956" x2="6.568" y1="22.487" y2="23.229" gradientUnits="userSpaceOnUse"/><linearGradient xlink:href="#a" id="g" x1="23.711" x2="10.839" y1="19.095" y2="20.711" gradientUnits="userSpaceOnUse"/><linearGradient xlink:href="#a" id="h" x1="22.73" x2="8.22" y1="18.167" y2="18.167" gradientTransform="matrix(17.24138 0 0 16.07247 -144.31 -169.93)" gradientUnits="userSpaceOnUse"/><path fill="none" stroke="url(#b)" stroke-linecap="round" stroke-linejoin="round" stroke-width=".372" d="M18.1 11.2c3.38 8.27-3.46 13.2-3.46 13.2" transform="matrix(17.24138 0 0 16.07247 -144.31 -169.93)"/><path fill="none" stroke="url(#c)" stroke-linecap="round" stroke-linejoin="round" stroke-width=".372" d="M13.7 12.4c7.69 5.04 4.16 12.7 3.65 13.1" transform="matrix(17.24138 0 0 16.07247 -144.31 -169.93)"/><path fill="none" stroke="url(#d)" stroke-linecap="round" stroke-linejoin="round" stroke-width=".372" d="M15 11.5c4.87 1.21 6.6 5.62 6.58 5.77" transform="matrix(17.24138 0 0 16.07247 -144.31 -169.93)"/><path fill="none" stroke="url(#e)" stroke-linecap="round" stroke-linejoin="round" stroke-width=".372" d="M13.9 12.3c6.67-5.28 13.5 6.93.513 12.1" transform="matrix(17.24138 0 0 16.07247 -144.31 -169.93)"/><path fill="none" stroke="url(#f)" stroke-linecap="round" stroke-linejoin="round" stroke-width=".372" d="m21.4 21-.506 1.19c-3.18 6.71-6.99 1.05-6.49 2.21" transform="matrix(17.24138 0 0 16.07247 -144.31 -169.93)"/><path fill="none" stroke="url(#g)" stroke-linecap="round" stroke-linejoin="round" stroke-width=".372" d="M21.7 17.5c2.02-1.69.527 4.5-.255 3.48" transform="matrix(17.24138 0 0 16.07247 -144.31 -169.93)"/><g fill="url(#h)"><path d="M126.379 95.266c0 9.851-8.492 17.84-18.965 17.84-10.476 0-18.965-7.989-18.965-17.84s8.489-17.84 18.965-17.84c10.473 0 18.965 7.988 18.965 17.84zM83.277 154.734c0 9.766-8.492 17.68-18.968 17.68-10.473 0-18.965-7.914-18.965-17.68s8.492-17.68 18.965-17.68c10.476 0 18.968 7.915 18.968 17.68zM39.742 77.586c0 6.266-5.367 11.348-11.984 11.348s-11.98-5.082-11.98-11.348c0-6.266 5.363-11.348 11.98-11.348s11.984 5.082 11.984 11.348zM82.102 63.121c0 4.695-4.106 8.504-9.172 8.504-5.063 0-9.172-3.809-9.172-8.504 0-4.695 4.11-8.504 9.172-8.504 5.066 0 9.172 3.809 9.172 8.504zM18.309 127.41c0 4.695-4.106 8.504-9.172 8.504-5.067 0-9.172-3.809-9.172-8.504 0-4.695 4.105-8.5 9.172-8.5 5.066 0 9.172 3.805 9.172 8.5zM40.723 190.094c0 4.695-4.106 8.504-9.172 8.504-5.067 0-9.172-3.809-9.172-8.504s4.105-8.504 9.172-8.504c5.066 0 9.172 3.808 9.172 8.504zM133.035 156.34c0 6.055-5.297 10.96-11.828 10.96s-11.828-4.905-11.828-10.96c0-6.05 5.297-10.961 11.828-10.961s11.828 4.91 11.828 10.96zM187.363 137.055c0 7.277-6.46 13.18-14.433 13.18-7.97 0-14.43-5.903-14.43-13.18 0-7.278 6.46-13.18 14.43-13.18 7.972 0 14.433 5.902 14.433 13.18zM189.95 45.441c0 5.121-4.532 9.274-10.122 9.274s-10.121-4.153-10.121-9.274 4.531-9.273 10.121-9.273 10.121 4.152 10.121 9.273zM177.879 10.082c0 5.121-4.531 9.273-10.121 9.273-5.59 0-10.121-4.152-10.121-9.273 0-5.121 4.531-9.273 10.12-9.273 5.59 0 10.122 4.152 10.122 9.273zM103.742 29.367c0 5.125-4.531 9.278-10.12 9.278S83.5 34.492 83.5 29.367c0-5.12 4.531-9.273 10.121-9.273s10.121 4.152 10.121 9.273zM119.242 220.633c0 6.203-5.297 11.234-11.828 11.234s-11.828-5.031-11.828-11.234c0-6.207 5.297-11.235 11.828-11.235s11.828 5.028 11.828 11.235zM186.828 188.484c0 6.082-5.45 11.012-12.172 11.012s-12.172-4.93-12.172-11.012c0-6.078 5.45-11.007 12.172-11.007s12.172 4.93 12.172 11.007zM165.102 241.527c0 4.72-4.211 8.547-9.41 8.547-5.2 0-9.415-3.828-9.415-8.547 0-4.722 4.215-8.55 9.414-8.55 5.2 0 9.41 3.828 9.41 8.55zM123.43 16.512c0 3.586-3.309 6.492-7.395 6.492-4.086 0-7.398-2.906-7.398-6.492s3.312-6.496 7.398-6.496 7.395 2.91 7.395 6.496zm0 0"/></g></svg>