<svg xmlns="http://www.w3.org/2000/svg" width="250" height="250"><g fill-rule="evenodd"><path fill="#fff" d="M250 125c0 69.035-55.965 125-125 125S0 194.035 0 125 55.965 0 125 0s125 55.965 125 125zm0 0"/><path d="M137.914 115.824h-.008c0 8.692.207 15.914-4.195 23.645-3.563 6.281-9.234 10.14-15.516 10.14-8.617 0-13.64-6.52-13.64-16.172 0-18.988 17.14-22.445 33.36-22.445zm39.934 33.676c-4.09-5.629-8.461-10.215-8.461-20.66V94.11c0-14.715 1.035-28.231-9.88-38.364-8.597-8.21-22.862-11.101-33.773-11.101-21.336 0-45.156 7.914-50.156 34.128-.539 2.778 1.512 4.262 3.352 4.657l21.726 2.347c2.043-.105 3.516-2.093 3.899-4.105 1.867-9.024 9.476-13.383 18.027-13.383 4.621 0 9.867 1.7 12.598 5.785 3.144 4.602 2.718 10.871 2.718 16.184v2.89c-13.003 1.442-30 2.407-42.175 7.727-14.047 6.031-23.918 18.336-23.918 36.43 0 23.168 14.699 34.742 33.578 34.742 15.949 0 24.668-3.738 36.976-16.203 4.086 5.855 5.407 8.707 12.875 14.855 1.653.899 3.805.82 5.286-.52l.058.048c4.465-3.965 12.606-10.989 17.2-14.805 1.824-1.477 1.519-3.887.07-5.922zm0 0"/><path fill="#f89500" d="M45.352 176.383c-1.633-1.848-.188-4.367 1.78-2.934 22.388 16.317 50.067 26.145 78.653 26.145 19.293 0 40.492-5.004 60-15.387 2.945-1.574 5.414 2.441 2.528 5.098-17.399 16.086-42.618 24.648-64.344 24.648-30.453 0-57.856-14.105-78.617-37.57zm128.726.316c10.137-7.078 26.746-5.031 28.676-2.66 1.945 2.383-.512 18.934-10.016 26.836-1.46 1.219-2.843.563-2.199-1.04 2.137-5.296 6.922-17.175 4.656-20.07-2.257-2.89-14.96-1.367-20.675-.69-1.735.214-2.004-1.29-.442-2.376zm0 0"/></g></svg>