<svg xmlns="http://www.w3.org/2000/svg" xmlns:xlink="http://www.w3.org/1999/xlink" width="250" height="250"><linearGradient id="b" x1="213.5" x2="36.5" y1="36.5" y2="213.5" gradientUnits="userSpaceOnUse"><stop offset="0" stop-color="#ff2d55"/><stop offset="1" stop-color="#ffbc5b"/></linearGradient><linearGradient id="a"><stop offset="0" stop-color="#a524b3"/><stop offset="1" stop-color="#ff2d55"/></linearGradient><linearGradient xlink:href="#a" id="c" x1=".5" x2=".5" y1="0" y2="1" gradientTransform="matrix(78.05469 0 0 93.66406 88.48 81.176)" gradientUnits="userSpaceOnUse"/><linearGradient xlink:href="#a" id="d" x1=".5" x2=".5" y1="0" y2="1" gradientTransform="matrix(57.26172 0 0 68.6875 167.535 131.129)" gradientUnits="userSpaceOnUse"/><path fill="url(#b)" d="M250 125c0 69.035-55.965 125-125 125S0 194.035 0 125 55.965 0 125 0s125 55.965 125 125zm0 0"/><g fill-rule="evenodd"><path fill="url(#c)" d="M88.48 81.176v93.664h78.055zm0 0"/><path fill="#fff" d="M10.43 174.84h78.05V81.176zm0 0"/><path fill="#fc9965" d="M24.977 199.82a128.123 128.123 0 0 0 24.98 24.977H199.82a128.21 128.21 0 0 0 24.977-24.977zm0 0"/><path fill="#ff2d55" d="M49.953 224.797c44.406 33.3 105.461 33.3 149.863 0zm0 0"/><path fill="url(#d)" d="M167.535 131.129v68.687h57.262zm0 0"/><path fill="#ffbc5b" d="M167.535 174.84H10.43a124.13 124.13 0 0 0 14.547 24.976l142.62.004v-24.98zm0 0"/><path fill="#fff" d="M110.336 199.82h57.2v-68.687zm0 0"/></g><path fill="#ffc95b" d="M198.758 81.176c0 17.242-13.98 31.222-31.223 31.222-17.242 0-31.222-13.98-31.222-31.222s13.98-31.223 31.222-31.223 31.223 13.98 31.223 31.223zM104.094 46.832c0 8.621-6.992 15.61-15.614 15.61-8.62 0-15.609-6.989-15.609-15.61 0-8.621 6.988-15.61 15.61-15.61 8.62 0 15.613 6.989 15.613 15.61zm0 0"/></svg>