<svg xmlns="http://www.w3.org/2000/svg" width="250" height="250"><g fill="#0fd297"><path d="M137.512 145.762c3.023 4.113 5.953 8.168 9.316 12.015 6.059 6.938 12.988 12.63 21.996 15.348 4.946 1.496 10.028 2.164 15.149 2.637.402.039.707.078.937.523 2.676 5.106 4.156 10.457 3.461 16.278-.055.453-.129.902-.215 1.464a.143.143 0 0 1-.242.082c-1.215-1.195-2.371-2.273-3.637-3.222-4.222-3.18-8.867-5.344-14.222-5.559-7.13-.289-13.25 3.95-15.754 10.766-2.04 5.554-1.957 11.183-.594 16.86.066.273.133.55.184.831.027.13.007.293-.098.266-2.102-.613-3.984-1.672-5.77-2.903-3.285-2.265-5.828-5.226-7.945-8.59-.351-.554-.129-.93.074-1.374 1.743-3.793 3.282-7.66 4.453-11.676 2.368-8.117 2.008-16.211-.113-24.305-1.66-6.336-4.23-12.328-6.86-18.3-.144-.325-.269-.657-.402-.989-.097-.234.172-.336.282-.152zm0 0"/><path d="M125.332 220.223c-.125.351-.629.359-.758.004-2.761-7.622-6.527-14.473-9.656-21.61-2.066-4.703-4.004-9.457-4.723-14.597v-.004a.403.403 0 0 1 .567-.418c9.441 4.168 18.816 4.168 28.246-.051a.405.405 0 0 1 .562.43c-.52 3.8-1.664 7.187-2.968 10.53-2.454 6.282-5.579 12.259-8.32 18.407a100.55 100.55 0 0 0-2.95 7.309zM124.34 133.195a.5.5 0 0 1 .93.008c.382.98.753 1.938 1.16 2.883 2.71 6.273 5.465 12.531 8.152 18.82.809 1.895 1.43 3.871 2.195 5.79.274.683.149.968-.547 1.23-7.59 2.89-15.167 2.906-22.765.035-.719-.27-.758-.57-.528-1.238 2.325-6.86 5.442-13.391 8.286-20.032 1.066-2.488 2.074-5 3.117-7.496zM192.195 176.496a.294.294 0 0 1 .29-.402c5.07.344 9.988.844 14.855 1.816.652.13.637.543.707.985 1.152 7.093.95 14.152-.586 21.164-1.848 8.414-5.34 16.046-11.195 22.437-8.946 9.762-20.223 13.961-33.309 13.277-11.965-.625-22.52-5.066-31.836-12.539-.457-.37-.562-.675-.367-1.25 1.574-4.68 3.625-9.156 5.785-13.586v-.003c.094-.184.356-.196.484-.032 10.887 13.836 28.899 17.555 43.032 8.707 12.914-8.086 18.554-24.285 12.14-40.574zm0 0"/><path d="M112.39 146.031c-2.054 4.676-4.097 9.239-5.75 14.078-2.976 8.715-4.44 17.563-2.292 26.723 1.175 5.031 3.14 9.766 5.293 14.438.168.367.28.648.015 1.07-3.086 4.87-6.98 8.828-12.367 11.137-.422.18-.848.34-1.375.55a.144.144 0 0 1-.191-.172c.425-1.652.78-3.19.972-4.761.64-5.246.192-10.352-2.3-15.098-3.317-6.316-10.043-9.5-17.2-8.258-5.828 1.008-10.664 3.899-14.898 7.914-.203.196-.41.395-.625.578-.102.086-.254.153-.281.047-.52-2.129-.543-4.289-.371-6.445.32-3.98 1.613-7.664 3.464-11.18.305-.578.743-.574 1.227-.62 4.156-.391 8.277-.993 12.34-1.985 8.215-2.008 15.043-6.367 20.992-12.246 4.656-4.606 8.559-9.832 12.418-15.094.21-.285.437-.562.656-.844.156-.199.375-.02.274.168zm0 0"/><path d="M41.816 172.715c-.37.066-.625-.363-.382-.653 5.218-6.207 9.27-12.894 13.882-19.171 3.043-4.137 6.188-8.192 10.282-11.387.004 0 .004 0 .004-.004a.403.403 0 0 1 .644.281c1.11 10.262 5.8 18.38 14.168 24.442.258.183.203.578-.09.699-3.55 1.45-7.054 2.152-10.605 2.695-6.664 1.016-13.403 1.297-20.102 1.996a99.707 99.707 0 0 0-7.8 1.102zM116.688 128.34a.503.503 0 0 1 .457.812c-.657.82-1.301 1.621-1.915 2.446-4.078 5.484-8.125 10.996-12.226 16.468-1.234 1.649-2.637 3.176-3.914 4.797-.453.578-.766.614-1.34.145-6.297-5.13-10.102-11.684-11.414-19.703-.125-.754.117-.938.812-1.075 7.102-1.417 14.313-1.98 21.489-2.84 2.687-.32 5.367-.702 8.05-1.05zM113.113 208.754a.296.296 0 0 1 .496.055c2.239 4.558 4.262 9.07 5.856 13.77.21.632-.156.823-.504 1.108a56.132 56.132 0 0 1-18.617 10.07c-8.211 2.606-16.567 3.4-25.031 1.52-12.926-2.863-22.204-10.527-28.153-22.203-5.437-10.676-6.875-22.035-5.058-33.84.09-.582.304-.824.898-.945 4.84-.976 9.742-1.437 14.656-1.781h.004c.207-.016.348.207.274.402-6.54 16.344-.758 33.8 13.972 41.617 13.461 7.145 30.309 3.93 41.207-9.773zM112.18 102.273c-3.02-4.113-5.95-8.164-9.313-12.015-6.062-6.938-12.992-12.625-22-15.348-4.941-1.492-10.027-2.164-15.148-2.633-.403-.039-.703-.082-.938-.523-2.672-5.106-4.152-10.461-3.457-16.277.055-.454.13-.907.211-1.465a.146.146 0 0 1 .246-.082c1.215 1.195 2.371 2.273 3.633 3.222 4.223 3.18 8.871 5.344 14.227 5.559 7.129.285 13.246-3.95 15.754-10.77 2.039-5.55 1.953-11.18.593-16.855-.066-.277-.136-.55-.187-.832-.024-.129-.008-.297.097-.27 2.102.618 3.989 1.676 5.77 2.907 3.285 2.265 5.828 5.226 7.95 8.586.347.554.124.933-.079 1.375-1.738 3.796-3.281 7.664-4.45 11.68-2.366 8.116-2.007 16.21.11 24.3 1.66 6.336 4.235 12.332 6.86 18.305.144.324.27.656.406.984.094.238-.172.34-.285.152zm0 0"/><path d="M124.36 27.816c.128-.355.628-.359.757-.003 2.766 7.62 6.531 14.472 9.66 21.609 2.063 4.703 4.004 9.453 4.72 14.598v.003a.401.401 0 0 1-.563.418c-9.442-4.168-18.817-4.168-28.25.047a.401.401 0 0 1-.559-.425c.52-3.801 1.66-7.188 2.965-10.532 2.453-6.281 5.578-12.258 8.324-18.41a98.712 98.712 0 0 0 2.945-7.305zM125.355 114.844c-.171.418-.765.41-.933-.012-.383-.977-.754-1.937-1.16-2.879-2.711-6.277-5.461-12.535-8.149-18.82-.812-1.899-1.433-3.875-2.199-5.79-.27-.683-.144-.968.547-1.234 7.59-2.886 15.168-2.902 22.77-.035.714.274.753.57.527 1.242-2.328 6.86-5.446 13.387-8.29 20.032-1.062 2.488-2.073 4.996-3.113 7.496zM57.5 71.543a.293.293 0 0 1-.293.398c-5.07-.34-9.988-.84-14.852-1.812-.656-.129-.64-.547-.71-.988a56.059 56.059 0 0 1 .59-21.16c1.843-8.415 5.34-16.047 11.195-22.438 8.945-9.762 20.222-13.965 33.304-13.277 11.965.625 22.52 5.062 31.836 12.539.461.37.563.675.368 1.25-1.575 4.68-3.626 9.156-5.782 13.586h-.004c-.09.187-.355.199-.484.035-10.883-13.836-28.895-17.559-43.027-8.707C56.723 39.055 51.082 55.254 57.5 71.543zm0 0"/><path d="M137.305 102.004c2.05-4.672 4.093-9.238 5.746-14.074 2.98-8.72 4.441-17.563 2.297-26.723-1.18-5.031-3.141-9.77-5.293-14.437-.168-.368-.285-.653-.016-1.075 3.082-4.867 6.98-8.828 12.367-11.132.418-.18.844-.344 1.375-.551.11-.043.219.058.192.172-.43 1.648-.782 3.187-.973 4.757-.645 5.25-.195 10.356 2.297 15.102 3.316 6.312 10.043 9.496 17.203 8.258 5.828-1.012 10.66-3.899 14.895-7.914.207-.196.41-.395.628-.578.102-.086.25-.153.282-.051.52 2.129.543 4.289.367 6.449-.317 3.977-1.61 7.66-3.461 11.176-.305.582-.746.578-1.23.625-4.157.39-8.278.988-12.34 1.984-8.211 2.008-15.043 6.363-20.989 12.246-4.66 4.606-8.562 9.832-12.422 15.094-.21.285-.433.559-.652.84-.156.203-.379.02-.273-.168zm0 0"/><path d="M207.875 75.324c.371-.07.629.364.387.653-5.219 6.203-9.274 12.89-13.887 19.168-3.04 4.14-6.188 8.195-10.281 11.39h-.004a.401.401 0 0 1-.645-.277c-1.11-10.262-5.8-18.383-14.168-24.442a.404.404 0 0 1 .09-.699c3.555-1.449 7.059-2.156 10.606-2.695 6.668-1.016 13.406-1.3 20.105-1.996a99.616 99.616 0 0 0 7.797-1.102zM133.008 119.7a.502.502 0 0 1-.457-.813c.656-.82 1.3-1.621 1.914-2.446 4.078-5.488 8.12-11 12.222-16.468 1.239-1.649 2.637-3.176 3.915-4.797.457-.578.765-.614 1.34-.145 6.296 5.13 10.101 11.684 11.417 19.7.121.757-.117.94-.812 1.078-7.102 1.414-14.317 1.98-21.492 2.84-2.684.32-5.364.703-8.047 1.05zM136.578 39.281a.29.29 0 0 1-.492-.05c-2.238-4.563-4.266-9.07-5.856-13.77-.214-.633.153-.824.5-1.11a56.15 56.15 0 0 1 18.622-10.07c8.21-2.61 16.566-3.398 25.027-1.523 12.926 2.867 22.207 10.531 28.152 22.207 5.442 10.672 6.875 22.031 5.059 33.84-.09.582-.3.824-.899.941-4.84.977-9.738 1.442-14.656 1.785h-.004c-.207.012-.347-.21-.27-.402 6.54-16.344.759-33.805-13.972-41.621-13.46-7.14-30.312-3.926-41.21 9.773zm0 0"/><path d="M150.191 123.75c5.075-.563 10.051-1.074 15.067-2.063 9.039-1.777 17.43-4.933 24.289-11.374 3.766-3.536 6.887-7.602 9.855-11.801.235-.328.422-.57.922-.551 5.758.238 11.137 1.633 15.824 5.144.368.274.723.563 1.165.918.093.07.062.22-.051.25-1.645.454-3.153.918-4.61 1.536-4.863 2.07-9.062 5.011-11.925 9.543-3.813 6.027-3.204 13.445 1.449 19.023 3.789 4.543 8.707 7.285 14.3 8.945.274.078.547.157.813.254.125.043.262.14.184.219-1.582 1.516-3.442 2.613-5.399 3.543-3.605 1.715-7.441 2.437-11.41 2.59-.656.027-.871-.356-1.152-.754-2.418-3.402-4.996-6.672-7.89-9.692-5.845-6.109-13.036-9.847-21.102-12.054-6.317-1.73-12.793-2.5-19.282-3.211-.351-.04-.703-.098-1.054-.145-.25-.035-.207-.316.007-.32zm0 0"/><path d="M208.586 171.527c.242.286-.004.723-.375.657-7.98-1.414-15.797-1.582-23.543-2.438-5.106-.566-10.191-1.262-15.004-3.21 0 0 0-.005-.004-.005a.4.4 0 0 1-.078-.695c8.332-6.094 13.016-14.215 14.082-24.488a.401.401 0 0 1 .649-.274c3.035 2.352 5.394 5.035 7.64 7.836 4.211 5.266 7.824 10.961 11.777 16.41a101.667 101.667 0 0 0 4.856 6.207zM132.723 128.875a.503.503 0 0 1 .472-.805c1.04.16 2.055.317 3.075.438 6.792.789 13.585 1.535 20.375 2.351 2.046.246 4.07.696 6.113.993.726.105.91.355.793 1.085-1.293 8.02-5.067 14.59-11.352 19.739-.594.484-.87.367-1.34-.164-4.777-5.446-8.87-11.407-13.203-17.192-1.62-2.168-3.293-4.297-4.933-6.445zM204.148 91.758a.293.293 0 0 1-.199-.453c2.828-4.22 5.723-8.227 8.996-11.953.442-.504.79-.282 1.211-.122a56.13 56.13 0 0 1 18.031 11.09c6.364 5.805 11.227 12.649 13.833 20.914 3.98 12.63 1.984 24.496-5.153 35.485-6.527 10.047-15.644 16.969-26.777 21.3-.55.211-.867.149-1.266-.308-3.27-3.703-6.117-7.715-8.875-11.8v-.005c-.117-.172.008-.406.211-.433 17.426-2.512 29.653-16.246 29.059-32.91-.547-15.231-11.754-28.215-29.07-30.805zM99.824 124.14c-5.074.56-10.05 1.07-15.066 2.06-9.04 1.78-17.43 4.937-24.29 11.374-3.765 3.535-6.886 7.606-9.855 11.801-.234.332-.422.574-.922.55-5.757-.234-11.136-1.628-15.828-5.14-.363-.273-.718-.562-1.16-.918a.142.142 0 0 1 .05-.25c1.645-.457 3.153-.918 4.61-1.539 4.864-2.066 9.063-5.008 11.926-9.539 3.813-6.031 3.203-13.45-1.45-19.027-3.788-4.543-8.706-7.285-14.3-8.942-.273-.082-.547-.16-.812-.254-.125-.046-.262-.144-.184-.222 1.582-1.512 3.441-2.614 5.398-3.543 3.606-1.711 7.442-2.434 11.41-2.59.657-.023.872.355 1.153.754 2.418 3.406 4.996 6.672 7.89 9.695 5.844 6.11 13.032 9.844 21.102 12.055 6.317 1.73 12.793 2.5 19.281 3.21.352.04.703.095 1.055.145.25.035.207.317-.008.32zm0 0"/><path d="M41.43 76.363a.404.404 0 0 1 .375-.66c7.98 1.418 15.797 1.582 23.543 2.442 5.105.562 10.191 1.261 15.004 3.21a.403.403 0 0 1 .082.7c-8.332 6.09-13.02 14.215-14.082 24.488a.402.402 0 0 1-.649.273c-3.035-2.351-5.394-5.035-7.64-7.836-4.211-5.265-7.825-10.96-11.778-16.414a100.435 100.435 0 0 0-4.855-6.203zM117.293 119.016c.277.355-.027.867-.473.8-1.039-.156-2.054-.316-3.074-.433-6.793-.79-13.586-1.54-20.375-2.352-2.047-.25-4.07-.699-6.113-.992-.727-.105-.91-.355-.793-1.09 1.293-8.015 5.066-14.59 11.351-19.734.594-.488.871-.371 1.34.164 4.778 5.441 8.871 11.406 13.203 17.191 1.621 2.164 3.293 4.293 4.934 6.446zM45.867 156.129c.211.031.32.273.2.453-2.829 4.223-5.723 8.227-8.997 11.957-.441.5-.793.277-1.21.121a56.13 56.13 0 0 1-18.032-11.09c-6.363-5.808-11.226-12.648-13.832-20.914-3.98-12.629-1.984-24.496 5.152-35.484 6.524-10.05 15.645-16.969 26.778-21.3.55-.216.867-.15 1.265.304 3.266 3.703 6.118 7.719 8.875 11.8v.004c.118.176-.007.407-.21.438-17.426 2.508-29.657 16.246-29.06 32.91.548 15.227 11.755 28.215 29.071 30.8zm0 0"/></g></svg>