<svg xmlns="http://www.w3.org/2000/svg" width="250" height="250"><path d="M123.7 0h2.6C194.618 0 250 55.383 250 123.7v2.6c0 68.317-55.383 123.7-123.7 123.7h-2.6C55.382 250 0 194.617 0 126.3v-2.6C0 55.382 55.383 0 123.7 0zm0 0"/><g fill="#fff"><path d="M107.93 63.332c-17.965 1.922-33.125 14.41-38.395 31.672-1.844 6.05-2.492 12.824-1.687 17.965.129.855.156.832 1.558-1.688 6.125-11.136 16.82-18.926 29.465-21.418 4.23-.855 11.578-.832 15.547 0 17.578 3.715 30.637 16.903 34.426 34.684l.441 2.078.883-1.95c5.012-10.98 5.527-23.128 1.453-34.136-1.168-3.168-3.687-7.762-5.789-10.539-6.777-9.063-16.926-14.98-28.246-16.46-2.672-.364-7.371-.466-9.656-.208zm0 0"/><path d="M155.18 85.582c0 .05.543.883 1.218 1.867 1.61 2.414 3.997 7.45 4.985 10.594 1.347 4.23 1.894 7.941 1.922 13.133.023 6.074-.703 10.176-2.86 15.836-4.773 12.617-15.054 22.48-27.8 26.738-6.958 2.313-14.747 2.883-21.547 1.586-1.325-.262-2.387-.363-2.387-.262 0 .363 5.215 5.66 6.824 6.957 5.66 4.469 11.918 7.375 19.133 8.88 3.922.804 10.594.831 14.852.026 21.44-4.05 36.394-23.054 35.433-45.066-.726-16.25-10.02-30.867-24.195-37.98-2.203-1.118-5.578-2.516-5.578-2.309zm0 0"/><path d="M99.234 99.73c-10.332 1.84-19.574 7.45-26.14 15.887-4.207 5.399-7.09 11.836-8.57 19.184-.778 3.945-.829 11.683-.102 15.707 3.219 17.754 15.703 31.41 32.605 35.668 12.72 3.191 26.79-.051 36.993-8.54l1.738-1.429-3.996-.156c-13.735-.543-25.832-7.27-33.852-18.82-6.8-9.762-9.426-22.922-6.957-34.891.7-3.426 1.895-6.778 3.766-10.516 1.996-4.074 4.36-7.55 7.215-10.562l1.894-2.028-.984.028c-.574 0-2.184.234-3.61.468zm0 0"/></g></svg>