<svg xmlns="http://www.w3.org/2000/svg" width="250" height="250"><g fill="#ff8802" fill-rule="evenodd"><path d="M243.223 103.918c-2.414 3.812-8.188 11.703-23.121 21.254-3.575 2.308-7.497 4.308-11.637 6.16-3.172 1.578-4.078 5.465-4.27 8.352v34.231c22.684-9.356 38.715-22.872 43.953-38.349 1.192-3.582 1.852-7.238 1.852-10.972-.031-7.2-2.445-14.207-6.777-20.676zM178.098 138.988c-12.235 2.926-25.598 4.852-39.653 5.582v12.668c0 7.2-3.89 13.016-8.722 13.016-4.801 0-8.72-5.816-8.72-13.016v-12.36c-51.765-.921-95.339-17.823-111.651-41.155-4.016 6.043-6.215 12.55-6.215 19.289 0 3.656.691 7.238 1.914 10.742 10.164 28.875 60.484 50.781 121.097 50.781 21.364 0 41.442-2.73 58.946-7.508V149.31c-.125-9.856-5.93-10.32-6.996-10.32zm0 0"/><path d="M123.195 0C55.152 0 0 28.027 0 62.64c0 3.735.691 7.395 1.914 10.938 9.914 28.645 58.133 50.59 116.828 51.629v-1.078c0-12.59-.562-29.684-6.715-37.422-3.953-5.008-19.074-12.016-26.195-16.867-2.414-1.383-4.578-2.887-6.367-4.465-.723-.617-1.317-1.191-1.79-1.77-3.073-3.312-4.8-6.968-4.8-10.82 0-14.59 24.473-26.41 54.621-26.41 30.149 0 54.617 11.82 54.617 26.41 0 7.278-6.086 13.86-15.937 18.637-3.985 2.73-20.735 7.89-25.285 18.094-3.86 8.703-4.078 22.445-4.078 35.382 54.492-3.043 98.257-24.18 107.667-51.32 1.223-3.543 1.915-7.203 1.915-10.937C246.425 28.027 191.242 0 123.195 0zM199.555 192.89v21.215c0 5.852-3.856 10.586-8.657 10.586-4.77 0-8.66-4.734-8.66-10.586v-15.44c-17.535 4.812-37.644 7.546-59.043 7.546-53.234 0-98.57-16.941-115.793-40.695C2.605 172.136 0 179.262 0 186.69c0 34.153 55.152 61.871 123.195 61.871 68.047 0 123.2-27.683 123.2-61.87 0-7.43-2.637-14.555-7.403-21.176-7.875 10.859-21.68 20.289-39.437 27.375zm0 0"/></g></svg>