<svg xmlns="http://www.w3.org/2000/svg" width="250" height="250"><path fill="#1c68f3" d="M125.273 250c69.23 0 125.278-56.043 125.278-125.273C250 56.043 193.957 0 125.273 0 56.593 0 0 56.043 0 125.273 0 193.957 56.043 250 125.273 250zm0 0"/><path fill="#fff" fill-rule="evenodd" d="M200.55 94.504v41.762H68.68c5.496 25.273 28.574 43.953 56.047 43.953 22.527 0 42.304-12.637 51.648-31.317h24.723v34.614c0 8.242-6.594 14.836-15.383 14.836H63.735c-8.239 0-15.383-6.594-15.383-14.836V94.504zm-39.01 53.848c-8.243 11.539-21.43 19.23-36.813 19.23-15.387 0-29.122-7.691-36.817-19.23zm-69.231-43.957c-12.09 0-21.98 8.793-23.63 19.78h13.188c1.649-4.394 5.496-7.69 10.442-7.69 4.945 0 8.789 3.296 10.437 7.69h12.637c-1.649-11.538-11.535-19.78-23.074-19.78zm64.836 0c-12.09 0-21.98 8.793-23.63 19.78h13.188c1.649-4.394 5.496-7.69 10.442-7.69 4.945 0 8.789 3.296 10.437 7.69h13.188c-2.2-11.538-12.09-19.78-23.625-19.78zm28.02-56.043c8.241 0 15.386 6.593 15.386 14.836V81.32H48.35V63.188c0-8.243 6.594-14.836 15.383-14.836zm0 0"/></svg>