<svg id="a" xmlns="http://www.w3.org/2000/svg" viewBox="0 0 1000 1000" fill="#000000"><path d="M500,0C223.858,0,0,223.858,0,500s223.858,500,500,500,500-223.857,500-500S776.142,0,500,0ZM131.586,602.858c-8.469,8.47-22.202,8.47-30.671,0-8.469-8.469-8.469-22.201,0-30.671,8.469-8.469,22.202-8.469,30.671,0,8.47,8.47,8.47,22.202,0,30.671Zm491.456-276.043c16.939-16.939,44.403-16.939,61.343,0s16.939,44.404,0,61.343-44.403,16.939-61.343,0-16.939-44.404,0-61.343Zm-307.427,0c16.939-16.939,44.403-16.939,61.343,0s16.939,44.404,0,61.343-44.403,16.939-61.343,0-16.939-44.404,0-61.343Zm-107.35,352.722c-8.47,8.469-22.202,8.469-30.671,0s-8.47-22.202,0-30.671c8.469-8.47,22.201-8.47,30.671,0s8.469,22.201,0,30.671Zm7.668-145.69c-12.704,12.705-33.303,12.705-46.007,0-12.704-12.704-12.704-33.303,0-46.007,12.704-12.704,33.303-12.704,46.007,0,12.705,12.704,12.705,33.303,0,46.007Zm23.004-130.353c16.939-16.939,44.404-16.939,61.343,0,16.939,16.939,16.939,44.403,0,61.343-16.939,16.939-44.404,16.939-61.343,0s-16.939-44.403,0-61.343Zm53.675,207.032c-12.704,12.704-33.303,12.704-46.007,0-12.705-12.704-12.705-33.303,0-46.007,12.704-12.705,33.303-12.705,46.007,0,12.704,12.704,12.704,33.303,0,46.007Zm84.346-69.011c-16.939,16.939-44.403,16.939-61.343,0s-16.939-44.404,0-61.343c16.939-16.939,44.403-16.939,61.343,0,16.939,16.939,16.939,44.404,0,61.343Zm69.011,69.011c-12.704,12.704-33.303,12.704-46.007,0s-12.704-33.303,0-46.007c12.704-12.705,33.303-12.705,46.007,0,12.704,12.704,12.704,33.303,0,46.007Zm7.668-145.69c-16.939,16.939-44.404,16.939-61.343,0s-16.939-44.403,0-61.343,44.404-16.939,61.343,0,16.939,44.403,0,61.343Zm61.343,214.7c-8.469,8.469-22.202,8.469-30.671,0-8.47-8.47-8.47-22.202,0-30.671,8.469-8.47,22.202-8.47,30.671,0,8.47,8.469,8.47,22.201,0,30.671Zm7.668-145.69c-12.704,12.705-33.303,12.705-46.007,0s-12.704-33.303,0-46.007c12.705-12.704,33.303-12.704,46.007,0,12.704,12.704,12.704,33.303,0,46.007Zm23.716-130.353c16.939-16.939,44.404-16.939,61.343,0s16.939,44.403,0,61.343-44.404,16.939-61.343,0-16.939-44.403,0-61.343Zm53.675,207.032c-12.704,12.704-33.303,12.704-46.007,0-12.704-12.704-12.704-33.303,0-46.007,12.704-12.705,33.303-12.705,46.007,0,12.704,12.704,12.704,33.303,0,46.007Zm84.346-69.011c-16.939,16.939-44.403,16.939-61.343,0s-16.939-44.404,0-61.343c16.939-16.939,44.403-16.939,61.343,0,16.939,16.939,16.939,44.404,0,61.343Zm69.011,69.011c-12.704,12.704-33.303,12.704-46.007,0s-12.704-33.303,0-46.007c12.704-12.705,33.303-12.705,46.007,0,12.704,12.704,12.704,33.303,0,46.007Zm7.668-145.69c-16.939,16.939-44.404,16.939-61.343,0s-16.939-44.403,0-61.343,44.404-16.939,61.343,0,16.939,44.403,0,61.343Zm61.343,214.7c-8.469,8.469-22.202,8.469-30.671,0-8.469-8.47-8.469-22.202,0-30.671,8.469-8.47,22.202-8.47,30.671,0,8.47,8.469,8.47,22.201,0,30.671Zm7.668-145.69c-12.704,12.705-33.303,12.705-46.007,0s-12.704-33.303,0-46.007c12.705-12.704,33.303-12.704,46.007,0,12.704,12.704,12.704,33.303,0,46.007Zm38.339,69.011c-8.47-8.469-8.47-22.201,0-30.671,8.469-8.469,22.201-8.469,30.671,0,8.469,8.47,8.469,22.202,0,30.671-8.47,8.47-22.202,8.47-30.671,0Z"></path></svg>