<svg xmlns="http://www.w3.org/2000/svg" width="250" height="250"><path fill="#fff" fill-rule="evenodd" d="M250 125c0 69.035-55.965 125-125 125S0 194.035 0 125 55.965 0 125 0s125 55.965 125 125zm0 0"/><path d="m173.309 92.871-.168-2.035c-1.524-5.422-12.02-9.832-31.489-12.883 2.203 1.524 3.895 3.223 4.743 4.746l1.015 2.715-38.258 9.152-25.394 7.121 3.555 8.31-1.864 2.882-6.43 5.254-4.234 2.035-4.062-2.543 1.015 17.8c-8.465 1.864-13.883 5.427-16.082 10.68l-1.015 3.051c-.848 3.899.34 6.781 3.894 8.817-2.879-3.391-3.387-6.614-1.523-9.832 1.015-1.528 2.199-3.051 4.062-4.41 3.387-2.88 7.278-4.575 11.34-5.422h1.695l.844-16.446 11.344 3.051 12.02-.508c3.722-1.02 7.109-2.375 10.156-4.238a34.855 34.855 0 0 0 8.465-6.613c1.355 1.015 2.203 4.238 2.539 9.492l.675-4.914c0-4.578-2.199-7.801-6.261-9.836l2.539 3.055-1.692 1.355c-3.386 2.883-7.11 5.086-11.004 6.781l-1.523.508c-4.742 1.695-9.649 2.203-14.559 1.863l-2.203-.336-.508-.171c-1.859-.168-3.382-.848-4.57-1.864l9.988-6.781c-.507-2.715-1.355-5.426-2.539-7.8l-.34-.509-.843-1.015c1.011 0 6.261-1.528 16.25-4.918 9.816-3.39 25.562-7.29 46.89-11.7l-2.707-6.44c15.746 3.73 24.547 7.968 26.239 12.546zm0 0"/><path fill="#f08200" fill-rule="evenodd" d="M224.434 135.766c-30.47 11.187-51.801 17.46-63.989 18.476-12.867 1.188-13.882-4.238-3.047-15.933l13.036-15.43c3.046-3.559 5.586-6.95 7.617-10.68 7.785-13.394 7.785-23.906 0-31.535l-.676-.848c-2.71-2.37-5.758-4.238-9.313-5.425-7.617-2.88-17.777-3.391-29.964-1.696-18.957 2.375-37.918 9.157-56.54 20.348l-1.863 1.016c-17.945 10.851-30.64 22.718-38.09 35.601-7.957 13.395-7.789 23.906.168 31.535l6.774 4.918 1.183.508c8.465 3.219 17.438 4.406 26.918 3.219 11.848-1.356 24.375-6.102 37.918-14.41l3.22-2.203-3.22 1.02c-17.097 5.421-31.484 7.796-43.168 6.948l-10.156-2.035-.676-.34-2.03-.847c-3.556-2.036-4.743-4.914-3.895-8.817l1.015-3.05c2.2-5.254 7.617-8.817 16.082-10.68l-1.015-17.801 4.062 2.543 4.235-2.035 6.43-5.254 1.862-2.883-3.554-8.308 25.39-7.122 38.262-9.152-1.015-2.715c-.848-1.523-2.54-3.219-4.743-4.746 19.47 3.05 29.965 7.461 31.489 12.887l.168 2.031v2.207l-.676 3.727c-1.356 3.902-4.063 8.648-8.297 13.734l-18.621 20.852c-5.246 4.918-9.48 11.699-12.528 20.343-3.382 8.48.172 12.887 10.329 13.055 9.988 0 23.53-3.05 40.12-9.152 15.067-5.766 28.61-12.715 40.798-20.684l3.726-2.715zm0 0"/></svg>