<svg xmlns="http://www.w3.org/2000/svg" width="250" height="250"><path fill="#080c0a" d="M124.633 239.305c30.344-9.645 62.316-35.746 85.398-72.989 22.969-37.132 30.848-84.96 25.332-121.87C211.438 24.163 171.414 10.64 126.38 10.64c-45.934 0-86.356 13.855-110.11 34.859 0 0-9.402 71.215 25.782 121.59 24.32 34.86 53.027 61.906 82.582 72.215zm0 0"/><path fill="#fff" d="M22.629 49.71s24.488-17.788 46.894-24.105c22.403-6.32 52.747-8.035 52.747-8.035v214.918c-3.489-1.277-6.926-2.66-10.247-4.27-4.164-2.105-9.851-6.316-9.851-6.316l.113-184.328s-3.883.5-7.937 1.219c-2.758.5-5.461 1.277-8.106 2.219l-.113 168.531-11.484-10.809c-3.489-3.27-6.813-6.703-9.907-10.304V48.547s-7.148 3.437-10.922 5.433c-3.77 2.051-11.035 7.98-11.035 7.98s-.73 23.83 1.016 33.86 5.965 19.563 5.965 19.563v52.207s-18.18-25.492-23.7-55.64C20.547 81.8 22.63 49.71 22.63 49.71zm0 0"/><path fill="#6a5fa9" d="M230.07 49.71s-24.484-17.788-46.89-24.105c-22.407-6.32-52.746-8.035-52.746-8.035v214.918c3.375-1.277 6.64-2.718 9.793-4.379 3.546-1.886 7.039-3.933 10.3-6.261l-.054-184.328s3.882.5 7.882 1.218c2.758.5 5.461 1.274 8.106 2.219l.113 168.531s8.442-7.316 12.215-11.14c3.77-3.825 9.23-9.918 9.23-9.918V48.547s7.153 3.437 10.922 5.433c3.774 1.993 11.036 7.98 11.036 7.98s.73 23.83-1.016 33.86c-1.742 10.032-5.91 19.563-5.91 19.563v52.207s18.297-27.598 23.812-57.746 3.207-60.133 3.207-60.133zm0 0"/></svg>