<svg xmlns="http://www.w3.org/2000/svg" xmlns:xlink="http://www.w3.org/1999/xlink" width="250" height="250"><symbol id="a" overflow="visible"><path d="M1.156-1.86c-.23 0-.406.075-.531.22-.125.148-.188.343-.188.593 0 .262.063.469.188.625.133.149.316.219.547.219.289 0 .508-.14.656-.422l.219.11a.915.915 0 0 1-.36.406.971.971 0 0 1-.53.14C.944.031.765-.008.608-.094a.963.963 0 0 1-.343-.375 1.4 1.4 0 0 1-.11-.578c0-.32.086-.578.266-.766.176-.187.422-.28.734-.28.219 0 .399.042.547.124a.797.797 0 0 1 .328.39l-.265.079a.5.5 0 0 0-.235-.266.722.722 0 0 0-.375-.093zm0 0"/></symbol><symbol id="b" overflow="visible"><path d="M.203-1.922v-.25H.47v.25zM.203 0v-1.578H.47V0zm0 0"/></symbol><symbol id="c" overflow="visible"><path d="M.203 0V-1.579h.25v.313H.47c.039-.132.086-.222.14-.265.051-.051.13-.078.235-.078.031 0 .066.007.11.015v.235a.774.774 0 0 0-.141-.016.298.298 0 0 0-.266.14c-.055.094-.078.231-.078.407V0zm0 0"/></symbol><symbol id="d" overflow="visible"><path d="M.406-.797c0 .211.031.367.094.469.07.105.172.156.297.156A.34.34 0 0 0 1.03-.25a.4.4 0 0 0 .125-.234l.266.015a.56.56 0 0 1-.203.36.59.59 0 0 1-.407.14c-.218 0-.39-.066-.515-.203C.18-.316.125-.523.125-.797c0-.258.055-.457.172-.594a.647.647 0 0 1 .516-.218c.156 0 .285.043.39.125.113.086.18.199.203.343l-.265.016a.318.318 0 0 0-.11-.203.333.333 0 0 0-.234-.078c-.137 0-.235.047-.297.14s-.094.25-.094.47zm0 0"/></symbol><symbol id="e" overflow="visible"><path d="M.203 0v-2.172H.47V0zm0 0"/></symbol><symbol id="f" overflow="visible"><path d="M.406-.734c0 .18.035.32.11.421.07.094.18.141.328.141a.47.47 0 0 0 .265-.062c.07-.051.125-.11.157-.172l.234.062c-.105.25-.324.375-.656.375-.23 0-.406-.066-.531-.203C.186-.316.124-.523.124-.797c0-.27.063-.473.188-.61.124-.132.3-.202.53-.202.458 0 .688.28.688.843v.032zm.86-.204c-.024-.164-.07-.285-.141-.359-.063-.082-.164-.125-.297-.125a.353.353 0 0 0-.297.14.554.554 0 0 0-.125.345zm0 0"/></symbol><symbol id="g" overflow="visible"><path d="M2 0v-1.375c0-.156.004-.3.016-.438-.055.18-.094.313-.125.407L1.359 0h-.203L.61-1.406l-.078-.25-.047-.157v.157l.016.281V0H.25v-2.063h.36L1.155-.64c.02.063.04.133.063.204.02.062.031.105.031.124l.047-.171c.031-.082.05-.133.062-.157l.532-1.421h.359V0zm0 0"/></symbol><symbol id="h" overflow="visible"><path d="M-.047.594V.406h1.75v.188zm0 0"/></symbol><symbol id="i" overflow="visible"><path d="M2.219 0h-.344l-.36-1.313a5.424 5.424 0 0 1-.093-.437c-.031.117-.059.21-.078.281-.012.074-.14.563-.39 1.469H.624l-.61-2.063h.297L.672-.75c.039.168.082.336.125.5.02-.102.047-.219.078-.344s.164-.613.406-1.469h.266l.36 1.282c.062.21.109.386.14.531v-.047a3.29 3.29 0 0 0 .062-.266l.422-1.5h.297zm0 0"/></symbol><symbol id="j" overflow="visible"><path d="M.469-1.313a.502.502 0 0 1 .187-.218.588.588 0 0 1 .313-.078c.176 0 .3.043.375.125.082.086.125.226.125.421V0h-.266v-1a.777.777 0 0 0-.031-.25.213.213 0 0 0-.11-.11.316.316 0 0 0-.187-.046.404.404 0 0 0-.297.125.505.505 0 0 0-.11.343V0H.204v-2.172H.47v.75c0 .063-.008.102-.016.11zm0 0"/></symbol><symbol id="k" overflow="visible"><path d="M.813-.016a.76.76 0 0 1-.266.047c-.211 0-.313-.117-.313-.36V-1.39H.047v-.187h.187l.078-.36H.5v.36h.281v.187H.5v1c0 .075.008.125.031.157.02.03.063.047.125.047a.87.87 0 0 0 .156-.016zm0 0"/></symbol><symbol id="l" overflow="visible"><path d="M2.188-1.047c0 .219-.043.414-.126.578a.974.974 0 0 1-.359.375 1.038 1.038 0 0 1-.531.125 1.15 1.15 0 0 1-.563-.125.963.963 0 0 1-.343-.375 1.236 1.236 0 0 1-.125-.578c0-.32.086-.578.265-.766.188-.187.442-.28.766-.28.207 0 .39.042.547.124.156.086.27.211.343.375.083.157.126.34.126.547zm-.282 0c0-.25-.07-.445-.203-.594-.125-.144-.305-.218-.531-.218-.242 0-.43.074-.563.218-.125.137-.187.336-.187.594 0 .262.062.469.187.625.133.149.32.219.563.219.226 0 .406-.07.531-.219.133-.144.203-.351.203-.625zm0 0"/></symbol><symbol id="m" overflow="visible"><path d="M1.203 0v-1a.72.72 0 0 0-.031-.234.23.23 0 0 0-.094-.125c-.043-.032-.11-.047-.203-.047a.375.375 0 0 0-.297.125c-.074.086-.11.203-.11.36V0H.204v-1.578h.25v.266H.47a.587.587 0 0 1 .203-.235.68.68 0 0 1 .297-.062c.176 0 .3.043.375.125.082.086.125.226.125.421V0zm0 0"/></symbol><symbol id="n" overflow="visible"><path d="M1.844-1.438a.62.62 0 0 1-.203.47c-.125.116-.297.171-.516.171H.531V0H.25v-2.063h.86c.238 0 .421.06.546.172.125.106.188.258.188.454zm-.282 0c0-.269-.164-.406-.484-.406H.531v.813h.563c.312 0 .468-.133.468-.407zm0 0"/></symbol><symbol id="o" overflow="visible"><path d="M.453-1.578v1c0 .105.008.187.031.25.02.055.051.094.094.125.05.023.117.031.203.031.133 0 .239-.039.313-.125a.61.61 0 0 0 .11-.375v-.906h.25v1.234c0 .188.003.305.015.344h-.25v-.109c0-.032-.008-.082-.016-.157a.671.671 0 0 1-.219.235.599.599 0 0 1-.28.062c-.18 0-.31-.039-.391-.125C.227-.187.186-.332.186-.53v-1.047zm0 0"/></symbol><symbol id="p" overflow="visible"><path d="M1.547-.797c0 .555-.2.828-.594.828C.711.031.551-.062.47-.25H.453C.461-.238.47-.156.47 0v.625H.203v-1.89c0-.157-.008-.258-.016-.313h.266v.157c.008.042.016.073.016.093a.502.502 0 0 1 .187-.219.622.622 0 0 1 .297-.062c.195 0 .344.07.438.203.101.125.156.328.156.61zm-.281 0c0-.219-.032-.375-.094-.469-.055-.093-.149-.14-.281-.14a.463.463 0 0 0-.25.062c-.055.043-.094.11-.125.203s-.047.215-.047.36c0 .21.031.367.094.469.07.093.18.14.328.14.125 0 .218-.047.28-.14s.095-.254.095-.485zm0 0"/></symbol><use xlink:href="#a" x="108.25" y="124.751"/><use xlink:href="#b" x="110.5" y="124.751"/><use xlink:href="#c" x="111.25" y="124.751"/><use xlink:href="#d" x="112.25" y="124.751"/><use xlink:href="#e" x="113.75" y="124.751"/><use xlink:href="#f" x="114.5" y="124.751"/><use xlink:href="#g" x="116.25" y="124.751"/><use xlink:href="#h" x="118.75" y="124.751"/><use xlink:href="#i" x="120.5" y="124.751"/><use xlink:href="#j" x="123.25" y="124.751"/><use xlink:href="#b" x="125" y="124.751"/><use xlink:href="#k" x="125.75" y="124.751"/><use xlink:href="#f" x="126.5" y="124.751"/><use xlink:href="#l" x="128.25" y="124.751"/><use xlink:href="#m" x="130.5" y="124.751"/><use xlink:href="#n" x="132.25" y="124.751"/><use xlink:href="#o" x="134.25" y="124.751"/><use xlink:href="#c" x="136" y="124.751"/><use xlink:href="#p" x="137" y="124.751"/><use xlink:href="#e" x="138.75" y="124.751"/><use xlink:href="#f" x="139.5" y="124.751"/><path fill="#7e61f8" d="M250 125c0 69.035-55.965 125-125 125S0 194.035 0 125 55.965 0 125 0s125 55.965 125 125zm0 0"/><path fill="#fff" d="M60.762 169.531c4.867 0 8.824-4.054 8.824-9.035V111.29c.227-12.844 10.55-22.883 23.5-22.883 12.828 0 22.871 10.043 22.883 22.86V160.496c0 .063.02.117.02.176.097 4.816 4.175 8.86 9.007 8.86.04 0 .07-.012.11-.016.035 0 .066.015.101.015 4.867 0 8.824-4.054 8.824-9.035V111.29c.227-12.844 10.547-22.883 23.5-22.883 12.832 0 22.883 10.055 22.883 22.883v49.207c0 4.899 4.137 9.035 9.031 9.035 4.813 0 9.035-4.219 9.035-9.035V111.29c0-22.578-18.367-40.945-40.945-40.945-12.91 0-24.652 6.172-32.344 15.61-7.504-9.49-19.09-15.61-32.101-15.61-22.531 0-41.567 18.75-41.567 40.945v49.207c0 4.645 4.489 9.035 9.239 9.035zm0 0"/></svg>