<svg xmlns="http://www.w3.org/2000/svg" width="250" height="250"><g fill="#3f34a7"><path d="M1.738 0h12.239c.941 0 1.703.883 1.703 1.973v246.054c0 1.09-.762 1.973-1.703 1.973H1.738c-.941 0-1.707-.883-1.707-1.973V1.973C.031.883.797 0 1.738 0zM31.027 26.48h12.239c.941 0 1.707.883 1.707 1.973v191.125c0 1.086-.766 1.969-1.707 1.969H31.027c-.941 0-1.707-.883-1.707-1.969V28.453c0-1.09.766-1.973 1.707-1.973zM60.316 44.957h12.239c.941 0 1.707.883 1.707 1.973v189.336c0 1.09-.766 1.972-1.707 1.972H60.316c-.941 0-1.703-.883-1.703-1.972V46.93c0-1.09.762-1.973 1.703-1.973zM89.59 74.375h12.238c.942 0 1.707.883 1.707 1.973v153.02c0 1.089-.765 1.972-1.707 1.972H89.59c-.942 0-1.703-.883-1.703-1.973V76.347c0-1.09.761-1.972 1.703-1.972zM118.879 100.879h12.242c.941 0 1.703.883 1.703 1.969v144.195c0 1.09-.762 1.973-1.703 1.973H118.88c-.942 0-1.703-.883-1.703-1.973V102.848c0-1.086.761-1.97 1.703-1.97zM236.023 0h12.239c.941 0 1.707.883 1.707 1.973v246.054c0 1.09-.766 1.973-1.707 1.973h-12.239c-.941 0-1.703-.883-1.703-1.973V1.973c0-1.09.762-1.973 1.703-1.973zM206.734 26.48h12.239c.941 0 1.707.883 1.707 1.973v191.125c0 1.086-.766 1.969-1.707 1.969h-12.239c-.941 0-1.707-.883-1.707-1.969V28.453c0-1.09.766-1.973 1.707-1.973zM177.46 44.957h12.24c.94 0 1.706.883 1.706 1.973v189.336c0 1.09-.765 1.972-1.707 1.972h-12.238c-.941 0-1.703-.883-1.703-1.972V46.93c0-1.09.762-1.973 1.703-1.973zM148.172 74.395h12.238c.942 0 1.703.882 1.703 1.972v153.024c0 1.086-.761 1.968-1.703 1.968h-12.238c-.942 0-1.707-.882-1.707-1.968V76.367c0-1.09.765-1.972 1.707-1.972zm0 0"/></g></svg>