<svg xmlns="http://www.w3.org/2000/svg" xmlns:xlink="http://www.w3.org/1999/xlink" width="250" height="250"><linearGradient id="a"><stop offset="0" stop-color="#e5c45d"/><stop offset="1" stop-color="#987a3b"/></linearGradient><linearGradient xlink:href="#a" id="b" x1="178.428" x2="101.278" y1="152.73" y2="104.35" gradientTransform="matrix(1.08696 0 0 -1.13122 0 253.394)" gradientUnits="userSpaceOnUse"/><linearGradient xlink:href="#a" id="c" x1="112.321" x2="113.621" y1="33.991" y2="100.031" gradientTransform="matrix(1.08696 0 0 -1.13122 0 253.394)" gradientUnits="userSpaceOnUse"/><linearGradient xlink:href="#a" id="d" x1="44.128" x2="111.598" y1="153.707" y2="115.327" gradientTransform="matrix(1.08696 0 0 -1.13122 0 253.394)" gradientUnits="userSpaceOnUse"/><path fill="#e5c45d" d="M202.5 152.828c-40.11 0-72.719-33.824-72.719-75.68 0-15.722 4.676-30.996 13.48-43.777h-40.87c23.261 34.05 15.543 81.336-17.172 105.543-12.285 9.05-27.067 14.027-42.067 14.027-2.5 0-5.109-.113-7.609-.453l20.98 38.008c16.52-38.121 59.672-54.976 96.196-37.781 16.086 7.578 29.02 21.039 36.304 37.781l21.086-38.008c-2.5.227-5.109.34-7.609.34zm0 0"/><path fill="url(#b)" d="M188.586 126.469c0-13.348 9.133-24.887 21.738-27.375l-21.086-37.895c-9.89 11.426-26.738 12.442-37.715 2.149-8.046-7.465-10.98-19.344-7.394-29.977h-.977c-23.261 34.05-15.543 81.336 17.172 105.543 12.285 9.05 27.067 14.027 42.067 14.027 1.414 0 2.828 0 4.132-.113-10.761-3.96-17.937-14.48-17.937-26.36zm0 0"/><path fill="url(#c)" d="M90 185.746c10.871 6.336 16.086 19.57 12.61 32.016h41.519c-4.563-14.594 3.152-30.317 17.176-35.07a25.79 25.79 0 0 1 21.195 2.148c2.176 1.246 4.238 2.828 5.977 4.754-17.063-37.785-60.325-54.074-96.739-36.313-15.652 7.692-28.261 20.926-35.324 37.328l.543.907c8.477-9.84 22.066-12.106 33.043-5.77zm0 0"/><path fill="url(#d)" d="M102.39 33.371h-.542c4.89 14.48-2.391 30.43-16.414 35.52-10.325 3.734-21.848.566-29.02-8.032L35.324 98.98c14.567 2.602 24.352 16.97 21.852 32.13-1.633 10.066-8.48 18.324-17.719 21.605 1.195.113 2.5.113 3.695.113 40.11 0 72.72-33.824 72.72-75.68 0-15.609-4.677-30.882-13.481-43.777zm0 0"/></svg>