<svg xmlns="http://www.w3.org/2000/svg" width="250" height="250"><path fill="#4285f4" d="M223.04 124.707c0-6.484-.528-13.004-1.65-19.383h-89.964v36.73h51.52a44.154 44.154 0 0 1-19.067 28.985v23.832h30.738c18.047-16.613 28.422-41.144 28.422-70.164zm0 0"/><path fill="#34a853" d="M131.426 217.895c25.726 0 47.418-8.446 63.226-23.024l-30.738-23.832c-8.55 5.816-19.59 9.11-32.453 9.11-24.883 0-45.98-16.786-53.55-39.356H46.19v24.566c16.196 32.211 49.172 52.536 85.235 52.536zm0 0"/><path fill="#fbbc04" d="M77.875 140.793a57.123 57.123 0 0 1 0-36.52V79.707H46.191a95.462 95.462 0 0 0 0 85.652zm0 0"/><path fill="#ea4335" d="M131.426 64.883a51.837 51.837 0 0 1 36.59 14.297l27.23-27.23a91.666 91.666 0 0 0-63.82-24.813c-36.063 0-69.04 20.328-85.235 52.57l31.684 24.566c7.535-22.605 28.668-39.39 53.55-39.39zm0 0"/></svg>