<svg xmlns="http://www.w3.org/2000/svg" xmlns:xlink="http://www.w3.org/1999/xlink" width="250" height="250"><symbol id="a" overflow="visible"><path d="M4.781 0v-49.14h10.282V0zm0 0"/></symbol><symbol id="b" overflow="visible"><path d="m39.516 0-4.36-12.547H16.422L12.062 0H1.783l17.921-49.14h12.14L49.704 0zm-13.75-41.563-.203.766a94.95 94.95 0 0 1-.844 2.86c-.324 1.062-2.32 6.945-5.985 17.64h14.11L28-34.422l-1.5-4.734zm0 0"/></symbol><symbol id="c" overflow="visible"><path d="M25.219.703C18.445.703 13.266-.945 9.672-4.25c-3.586-3.3-5.375-8.02-5.375-14.156v-30.735h10.281v29.922c0 3.887.922 6.836 2.766 8.844 1.851 2.012 4.57 3.016 8.156 3.016 3.664 0 6.488-1.051 8.469-3.157 1.976-2.101 2.968-5.117 2.968-9.046v-29.579H47.22v30.203c0 6.231-1.93 11.063-5.782 14.5C37.594-1.007 32.188.704 25.22.704zm0 0"/></symbol><path fill="#fff" fill-rule="evenodd" d="M250 125c0 69.035-55.965 125-125 125S0 194.035 0 125 55.965 0 125 0s125 55.965 125 125zm0 0"/><g fill="#121a2f"><use xlink:href="#a" x="65.645" y="151.787"/><use xlink:href="#b" x="81.723" y="151.787"/><use xlink:href="#c" x="133.516" y="151.787"/></g></svg>