<svg xmlns="http://www.w3.org/2000/svg" width="250" height="250"><linearGradient id="a" x1="68.035" x2="166.925" y1="-110.601" y2="110.519" gradientTransform="matrix(1.06201 0 0 1.06655 .479 125.49)" gradientUnits="userSpaceOnUse"><stop offset="0" stop-color="#f8bd00"/><stop offset=".89" stop-color="#ec9500"/></linearGradient><path fill="url(#a)" d="M124.945 0C56.235.105.48 56.102.585 125.105c.106 69.008 55.86 125 124.575 124.895 68.711-.105 124.36-55.992 124.36-125S193.766 0 124.945 0zm0 0"/><path fill="#fff" d="M227.43 131.508c.11-2.137.215-4.27.215-6.508 0-15.785-3.504-31.465-10.301-45.754l-46.73-26.984 31.542 3.52a106.415 106.415 0 0 0-26.761-22.505l-61.813-1.175 34.516-10.239c-8.602-2.238-17.414-3.304-26.336-3.304-17.098 0-33.985 4.16-49.067 12.156l11.364 19.84L63.03 36.477c-.636.425-1.168.746-1.804 1.171l12.32 22.399-19.969 16.957-2.016 15.68-29.207 28.902 15.93-2.559 8.285 3.305-21.879 16.64 9.243 12.157 27.609 2.242 14.34-11.414-10.621-9.066 39.613-2.664 17.098-18.559-6.582-43.195 28.035 46.394-28.25 70.715-.637-42.45-17.84 46.395-31.437 25.489c16.886 10.668 36.32 16.32 56.285 16.425l29.207-65.164-4.672 62.286a105.939 105.939 0 0 0 36.215-16.32l-1.063-77.856 22.407 57.914c8.285-10.238 14.656-21.867 18.691-34.45l-27.293-55.89zM82.785 97.805l-15.187 3.199-8.07 9.383-4.567 2.988 10.726-20.797-.214-7.68 31.117-.96-13.805 13.867zm1.91 74.23-12.53-9.812-14.337 4.691-19.648-5.226 6.691 18.667 13.7 9.063 7.648-6.719zm0 0"/></svg>