<svg xmlns="http://www.w3.org/2000/svg" width="250" height="250"><path fill="#656565" d="m108.95 207.5-1.235 18.125zM93.516 219.375l15.586-13.125 15.585 25.625zm0 0"/><path fill="#787778" d="M93.516 180.625v38.75l15.586-13.125zm0 0"/><path fill="#5c5c5c" d="m140.273 206.25-15.585 25.625 31.171-12.5zm0 0"/><path fill="#787778" d="m155.86 219.375-15.587-13.125 15.586-25.625zm0 0"/><path fill="#4a4a4a" d="M93.516 180.625h62.343l-31.172 51.25zm0 0"/><g fill="#fed12f"><path d="M99.75 62.5 165.836 90l-47.383 38.125zM149.625 16.25 187.031 55l-21.195 35zM93.516 180.625l68.578-20-6.235 20zM87.281 160.625l31.172-32.5-24.937 52.5zM62.344 55 99.75 16.25V62.5zm0 0"/></g><path fill="#fff3cb" d="m118.453 128.125 43.64 32.5L165.837 90zM118.453 128.125 58.602 117.5l28.68 43.125zm0 0"/><path fill="#ffdd63" d="m99.75 62.5 49.875-46.25L165.835 90zm0 0"/><path fill="#ffedac" d="m58.602 117.5 41.148-55 18.703 65.625zm0 0"/><path fill="#ffdd63" d="m93.516 180.625 24.937-52.5 43.64 32.5zM162.094 160.625 165.836 90l24.937 27.5zM58.602 117.5 62.344 55l37.406 7.5zm0 0"/><path fill="#fee382" d="m165.836 90 21.195-35 3.742 62.5zm0 0"/><path fill="#fef1c0" d="M149.625 16.25 99.75 62.5V16.25zm0 0"/></svg>