<svg xmlns="http://www.w3.org/2000/svg" width="250" height="250"><path fill="#00316d" fill-rule="evenodd" d="M250 125c0 69.035-55.965 125-125 125S0 194.035 0 125 55.965 0 125 0s125 55.965 125 125zm0 0"/><path fill="#fff" d="M141.844 155.367c-.102-.187-.117-.265-.156-.289-4.844-2.289-9.688-4.586-14.547-6.844-.258-.125-.782-.093-.946.086-2.11 2.266-4.172 4.586-6.265 6.907 1.515 1.117 20.648 1.125 21.914.14m-44.328-55.96-.485-1.016c-.406.289-.937.5-1.203.89a2970.606 2970.606 0 0 0-13.344 20.031c-.273.422-.257 1.04-.39 1.563.547-.11 1.156-.086 1.601-.36a441.253 441.253 0 0 0 11.282-7.015 3.098 3.098 0 0 0 1.257-1.945c.5-3.907.844-7.836 1.282-12.149m93.726 56.64h6.453c1.243 0 1.72-.468.93-1.663-4.102-6.266-8.188-12.54-12.305-18.781-.218-.344-.718-.493-1.093-.727-.196.39-.532.781-.57 1.195-.477 6.11-.907 12.22-1.376 18.328-.086 1.165.32 1.688 1.508 1.665 2.149-.047 4.297-.016 6.453-.016m-138.547-.469c.985.234 1.47.453 1.946.461 6.976.016 13.953 0 20.922.016 1.351 0 1.695-.477 1.124-1.782a869.275 869.275 0 0 1-6.421-14.953c-.61-1.46-1.172-1.39-2.133-.36-3.719 4.017-7.469 7.993-11.203 11.985-1.305 1.407-2.578 2.813-4.235 4.633m103.086-36.039c.453.883.602 1.266.828 1.594l9.438 13.703c3.898 5.664 7.789 11.328 11.719 16.969.265.39.78.601 1.172.89.203-.468.53-.914.593-1.398.156-1.328.188-2.656.274-3.984.422-6.055.89-12.102 1.25-18.149.156-2.578-.961-3.906-3.407-4.516-6.523-1.632-13.046-3.273-19.578-4.89-.586-.14-1.203-.117-2.289-.219m-1.656-40.117-.594.101c-.078 1.196-.195 2.399-.234 3.61l-.867 29.46c-.04 1.079.28 1.641 1.398 1.907 6.766 1.64 13.516 3.367 20.281 5.031.586.14 1.235.008 1.852 0-.156-.601-.188-1.281-.477-1.812-6.742-12.266-13.5-24.531-20.273-36.781-.297-.54-.719-1.016-1.086-1.516m-30.352 60.21c.188-1.038.368-1.663.391-2.288.102-3.274.11-6.547.258-9.82a10.654 10.654 0 0 0-2.094-6.962 7586.948 7586.948 0 0 1-18.555-25.859c-.28-.39-.398-.898-.593-1.351l-.735.437c-.18.656-.46 1.305-.53 1.969-.548 5.312-1.017 10.625-1.603 15.922a3.597 3.597 0 0 0 .993 3.093c6.992 7.79 13.937 15.625 20.914 23.438.375.422.828.766 1.554 1.422m4.508-1.633.469.313c.43-.336.938-.602 1.281-1.016 5.942-7.211 11.86-14.442 17.758-21.688.363-.46.574-1.02.61-1.601.28-9.649.523-19.297.742-28.945.015-.532-.29-1.07-.453-1.602-.43.414-1.032.75-1.274 1.25-5.469 11.578-10.695 23.273-16.43 34.703-3.03 6.047-2.547 12.29-2.703 18.594m-27.367 18.047c3.758 0 7.523.054 11.281-.047a3.581 3.581 0 0 0 2.297-.977c2.617-2.742 5.07-5.648 7.68-8.398.976-1.016.758-1.64-.07-2.547-4.41-4.781-8.778-9.602-13.11-14.453-1.047-1.172-1.648-1.164-2.586.117-5.945 8.133-11.953 16.21-17.93 24.328-.296.406-.406.945-.609 1.422.524.188 1.047.523 1.578.523 3.828.047 7.64.032 11.47.032m3.89-30.985c-2.078-2.414-4.118-4.687-6.047-7.07-.813-.992-1.438-1.094-2.531-.414-6.532 4.11-13.133 8.11-19.649 12.242-1.18.75-2.11 1.914-3.11 2.938-.929.953-.804 2-.296 3.172 2.539 5.804 5.016 11.632 7.523 17.453.953 2.187 1.313 2.226 2.774.273 3.867-5.156 7.719-10.336 11.57-15.5zm45.273-6.156c-.508.82-.75 1.32-1.094 1.727a5101.341 5101.341 0 0 1-18.617 22.609c-1.015 1.227-.492 1.71.656 2.234 7.165 3.282 14.297 6.618 21.477 9.883a7.464 7.464 0 0 0 2.922.656c5.906.055 11.82.04 17.734.008.547 0 1.102-.25 1.656-.39-.195-.578-.28-1.243-.625-1.735a7582.173 7582.173 0 0 0-16.398-23.844c-2.422-3.515-4.86-7.03-7.71-11.148m-25.134 45.133c-26.89 0-53.78-.008-80.672.016-2.093 0-3.984-.235-4.89-2.485-.86-2.133.14-3.71 1.539-5.203 8.031-8.578 16.172-17.063 23.984-25.828 2.985-3.344 5.29-7.32 7.813-11.078 8.086-12.094 16.11-24.235 24.234-36.297.797-1.18 2.016-2.375 3.297-2.844 1.766-.656 3.273.36 4.398 1.969 6.54 9.344 13.125 18.656 19.696 27.984 1.351 1.906 1.836 1.844 2.836-.328l20.265-44.14c.797-1.735 1.852-3.211 3.907-3.305 2.148-.102 3.453 1.203 4.46 3.047 10.172 18.453 20.11 37.062 30.68 55.28 6.39 11.017 13.79 21.415 20.735 32.095.859 1.312 1.726 2.617 2.57 3.945 1.016 1.602 1.617 3.36.664 5.133-.938 1.719-2.672 2.047-4.492 2.047-27.008-.016-54.016-.008-81.024-.008"/></svg>