<svg xmlns="http://www.w3.org/2000/svg" xmlns:xlink="http://www.w3.org/1999/xlink" width="250" height="250"><filter id="a" width="100%" height="100%" x="0%" y="0%"><feColorMatrix in="SourceGraphic" values="0 0 0 0 1 0 0 0 0 1 0 0 0 0 1 0 0 0 1 0"/></filter><mask id="d"><g filter="url(#a)"><path fill-opacity=".3" d="M0 0h250v250H0z"/></g></mask><mask id="f"><g filter="url(#a)"><path fill-opacity=".063" d="M0 0h250v250H0z"/></g></mask><linearGradient id="g" x1="20.96" x2="79.11" y1="23.833" y2="23.833" gradientTransform="matrix(3.125 0 0 -3.125 0 256.25)" gradientUnits="userSpaceOnUse"><stop offset=".375" stop-opacity=".063"/><stop offset="1" stop-opacity="0"/></linearGradient><clipPath id="e"><path d="M0 0h250v250H0z"/></clipPath><mask id="i"><g filter="url(#a)"><path fill-opacity=".125" d="M0 0h250v250H0z"/></g></mask><linearGradient id="j" x1="20.95" x2="78.7" y1="23.979" y2="23.979" gradientTransform="matrix(3.125 0 0 -3.125 0 256.25)" gradientUnits="userSpaceOnUse"><stop offset=".375" stop-opacity=".125"/><stop offset="1" stop-opacity="0"/></linearGradient><clipPath id="h"><path d="M0 0h250v250H0z"/></clipPath><mask id="l"><g filter="url(#a)"><path fill-opacity=".188" d="M0 0h250v250H0z"/></g></mask><linearGradient id="m" x1="20.95" x2="78.31" y1="24.125" y2="24.125" gradientTransform="matrix(3.125 0 0 -3.125 0 256.25)" gradientUnits="userSpaceOnUse"><stop offset=".375" stop-opacity=".188"/><stop offset="1" stop-opacity="0"/></linearGradient><clipPath id="k"><path d="M0 0h250v250H0z"/></clipPath><mask id="o"><g filter="url(#a)"><path fill-opacity=".25" d="M0 0h250v250H0z"/></g></mask><linearGradient id="p" x1="20.95" x2="77.91" y1="24.268" y2="24.268" gradientTransform="matrix(3.125 0 0 -3.125 0 256.25)" gradientUnits="userSpaceOnUse"><stop offset=".375" stop-opacity=".25"/><stop offset="1" stop-opacity="0"/></linearGradient><clipPath id="n"><path d="M0 0h250v250H0z"/></clipPath><mask id="r"><g filter="url(#a)"><path fill-opacity=".313" d="M0 0h250v250H0z"/></g></mask><linearGradient id="s" x1="20.95" x2="77.52" y1="24.414" y2="24.414" gradientTransform="matrix(3.125 0 0 -3.125 0 256.25)" gradientUnits="userSpaceOnUse"><stop offset=".375" stop-opacity=".313"/><stop offset="1" stop-opacity="0"/></linearGradient><clipPath id="q"><path d="M0 0h250v250H0z"/></clipPath><mask id="u"><g filter="url(#a)"><path fill-opacity=".375" d="M0 0h250v250H0z"/></g></mask><linearGradient id="v" x1="20.95" x2="77.12" y1="24.557" y2="24.557" gradientTransform="matrix(3.125 0 0 -3.125 0 256.25)" gradientUnits="userSpaceOnUse"><stop offset=".375" stop-opacity=".375"/><stop offset="1" stop-opacity="0"/></linearGradient><clipPath id="t"><path d="M0 0h250v250H0z"/></clipPath><mask id="x"><g filter="url(#a)"><path fill-opacity=".438" d="M0 0h250v250H0z"/></g></mask><linearGradient id="y" x1="20.95" x2="76.73" y1="24.701" y2="24.701" gradientTransform="matrix(3.125 0 0 -3.125 0 256.25)" gradientUnits="userSpaceOnUse"><stop offset=".375" stop-opacity=".438"/><stop offset="1" stop-opacity="0"/></linearGradient><clipPath id="w"><path d="M0 0h250v250H0z"/></clipPath><mask id="A"><g filter="url(#a)"><path fill-opacity=".5" d="M0 0h250v250H0z"/></g></mask><linearGradient id="B" x1="20.95" x2="76.33" y1="24.836" y2="24.836" gradientTransform="matrix(3.125 0 0 -3.125 0 256.25)" gradientUnits="userSpaceOnUse"><stop offset=".375" stop-opacity=".5"/><stop offset="1" stop-opacity="0"/></linearGradient><clipPath id="z"><path d="M0 0h250v250H0z"/></clipPath><mask id="D"><g filter="url(#a)"><path fill-opacity=".563" d="M0 0h250v250H0z"/></g></mask><linearGradient id="E" x1="20.95" x2="75.94" y1="24.98" y2="24.98" gradientTransform="matrix(3.125 0 0 -3.125 0 256.25)" gradientUnits="userSpaceOnUse"><stop offset=".375" stop-opacity=".563"/><stop offset="1" stop-opacity="0"/></linearGradient><clipPath id="C"><path d="M0 0h250v250H0z"/></clipPath><mask id="G"><g filter="url(#a)"><path fill-opacity=".625" d="M0 0h250v250H0z"/></g></mask><linearGradient id="H" x1="20.95" x2="75.54" y1="25.123" y2="25.123" gradientTransform="matrix(3.125 0 0 -3.125 0 256.25)" gradientUnits="userSpaceOnUse"><stop offset=".375" stop-opacity=".625"/><stop offset="1" stop-opacity="0"/></linearGradient><clipPath id="F"><path d="M0 0h250v250H0z"/></clipPath><mask id="J"><g filter="url(#a)"><path fill-opacity=".688" d="M0 0h250v250H0z"/></g></mask><linearGradient id="K" x1="20.95" x2="75.14" y1="25.264" y2="25.264" gradientTransform="matrix(3.125 0 0 -3.125 0 256.25)" gradientUnits="userSpaceOnUse"><stop offset=".375" stop-opacity=".688"/><stop offset="1" stop-opacity="0"/></linearGradient><clipPath id="I"><path d="M0 0h250v250H0z"/></clipPath><mask id="M"><g filter="url(#a)"><path fill-opacity=".75" d="M0 0h250v250H0z"/></g></mask><linearGradient id="N" x1="20.95" x2="74.75" y1="25.409" y2="25.409" gradientTransform="matrix(3.125 0 0 -3.125 0 256.25)" gradientUnits="userSpaceOnUse"><stop offset=".375" stop-opacity=".75"/><stop offset="1" stop-opacity="0"/></linearGradient><clipPath id="L"><path d="M0 0h250v250H0z"/></clipPath><mask id="P"><g filter="url(#a)"><path fill-opacity=".813" d="M0 0h250v250H0z"/></g></mask><linearGradient id="Q" x1="20.95" x2="74.35" y1="25.553" y2="25.553" gradientTransform="matrix(3.125 0 0 -3.125 0 256.25)" gradientUnits="userSpaceOnUse"><stop offset=".375" stop-opacity=".813"/><stop offset="1" stop-opacity="0"/></linearGradient><clipPath id="O"><path d="M0 0h250v250H0z"/></clipPath><mask id="S"><g filter="url(#a)"><path fill-opacity=".875" d="M0 0h250v250H0z"/></g></mask><linearGradient id="T" x1="20.95" x2="73.96" y1="25.692" y2="25.692" gradientTransform="matrix(3.125 0 0 -3.125 0 256.25)" gradientUnits="userSpaceOnUse"><stop offset=".375" stop-opacity=".875"/><stop offset="1" stop-opacity="0"/></linearGradient><clipPath id="R"><path d="M0 0h250v250H0z"/></clipPath><mask id="V"><g filter="url(#a)"><path fill-opacity=".938" d="M0 0h250v250H0z"/></g></mask><linearGradient id="W" x1="20.95" x2="73.56" y1="25.829" y2="25.829" gradientTransform="matrix(3.125 0 0 -3.125 0 256.25)" gradientUnits="userSpaceOnUse"><stop offset=".375" stop-opacity=".938"/><stop offset="1" stop-opacity="0"/></linearGradient><clipPath id="U"><path d="M0 0h250v250H0z"/></clipPath><linearGradient id="X" x1="20.95" x2="73.17" y1="25.955" y2="25.955" gradientTransform="matrix(3.125 0 0 -3.125 0 256.25)" gradientUnits="userSpaceOnUse"><stop offset=".375"/><stop offset="1" stop-opacity="0"/></linearGradient><clipPath id="c"><path d="M0 0h250v250H0z"/></clipPath><linearGradient id="Y" x1="20.95" x2="73.17" y1="13.741" y2="13.741" gradientTransform="matrix(3.125 0 0 -3.125 0 256.25)" gradientUnits="userSpaceOnUse"><stop offset="0" stop-color="#700000"/><stop offset=".328" stop-color="#730000"/><stop offset=".591" stop-color="#7d0000"/><stop offset=".83" stop-color="#8e0000"/><stop offset="1" stop-color="#9f0000"/></linearGradient><linearGradient id="Z" x1="45.2" x2="45.2" y1="18.447" y2="9.022" gradientTransform="matrix(3.125 0 0 -3.125 0 256.25)" gradientUnits="userSpaceOnUse"><stop offset=".35" stop-color="#0050cf"/><stop offset=".645" stop-color="#004ecd"/><stop offset=".752" stop-color="#0049c6"/><stop offset=".828" stop-color="#003fbb"/><stop offset=".889" stop-color="#0031aa"/><stop offset=".941" stop-color="#001e94"/><stop offset=".987" stop-color="#000879"/><stop offset="1" stop-color="#000070"/></linearGradient><linearGradient id="aa" x1="47.06" x2="47.06" y1="18.446" y2="9.024" gradientTransform="matrix(3.125 0 0 -3.125 0 256.25)" gradientUnits="userSpaceOnUse"><stop offset=".35" stop-color="#cf2000"/><stop offset=".645" stop-color="#cd1f00"/><stop offset=".752" stop-color="#c61d00"/><stop offset=".828" stop-color="#bb1900"/><stop offset=".889" stop-color="#aa1300"/><stop offset=".941" stop-color="#940c00"/><stop offset=".987" stop-color="#790300"/><stop offset="1" stop-color="#700000"/></linearGradient><linearGradient id="ab" x1="20.96" x2="73.18" y1="29.594" y2="29.594" gradientTransform="matrix(3.125 0 0 -3.125 0 256.25)" gradientUnits="userSpaceOnUse"><stop offset="0" stop-color="#cf2000"/><stop offset=".021" stop-color="#d12201"/><stop offset=".243" stop-color="#e23309"/><stop offset=".487" stop-color="#ec3d0e"/><stop offset=".791" stop-color="#ef4010"/><stop offset=".842" stop-color="#ec3d0f"/><stop offset=".882" stop-color="#e2330d"/><stop offset=".919" stop-color="#d12208"/><stop offset=".954" stop-color="#b90a03"/><stop offset=".966" stop-color="#af0000"/><stop offset="1" stop-color="#ef4010"/></linearGradient><linearGradient id="ac" x1="20.953" x2="73.172" y1="29.045" y2="29.045" gradientTransform="matrix(3.125 0 0 -3.125 0 256.25)" gradientUnits="userSpaceOnUse"><stop offset="0" stop-color="#0050cf"/><stop offset=".021" stop-color="#0252d1"/><stop offset=".243" stop-color="#1363e2"/><stop offset=".487" stop-color="#1d6dec"/><stop offset=".791" stop-color="#2070ef"/><stop offset=".842" stop-color="#1e6dec"/><stop offset=".882" stop-color="#1963e2"/><stop offset=".919" stop-color="#1152d1"/><stop offset=".954" stop-color="#053ab9"/><stop offset=".966" stop-color="#0030af"/><stop offset="1" stop-color="#2070ef"/></linearGradient><linearGradient id="b"><stop offset="0" stop-color="#fbbf00"/><stop offset=".021" stop-color="#fbc102"/><stop offset=".243" stop-color="#fdd213"/><stop offset=".487" stop-color="#ffdc1d"/><stop offset=".791" stop-color="#ffdf20"/><stop offset=".842" stop-color="#fddc1e"/><stop offset=".882" stop-color="#f8d219"/><stop offset=".919" stop-color="#eec111"/><stop offset=".954" stop-color="#e1a905"/><stop offset=".966" stop-color="#db9f00"/><stop offset="1" stop-color="#ffdf20"/></linearGradient><linearGradient xlink:href="#b" id="ad" x1="20.953" x2="73.171" y1="27.975" y2="27.975" gradientTransform="matrix(3.125 0 0 -3.125 0 256.25)" gradientUnits="userSpaceOnUse"/><linearGradient xlink:href="#b" id="ae" x1="20.952" x2="73.172" y1="30.857" y2="30.857" gradientTransform="matrix(3.125 0 0 -3.125 0 256.25)" gradientUnits="userSpaceOnUse"/><linearGradient xlink:href="#b" id="af" x1="20.952" x2="73.174" y1="37.999" y2="37.999" gradientTransform="matrix(3.125 0 0 -3.125 0 256.25)" gradientUnits="userSpaceOnUse"/><linearGradient xlink:href="#b" id="ag" x1="20.953" x2="73.17" y1="33.076" y2="33.076" gradientTransform="matrix(3.125 0 0 -3.125 0 256.25)" gradientUnits="userSpaceOnUse"/><linearGradient xlink:href="#b" id="ah" x1="20.953" x2="73.169" y1="22.275" y2="22.275" gradientTransform="matrix(3.125 0 0 -3.125 0 256.25)" gradientUnits="userSpaceOnUse"/><linearGradient xlink:href="#b" id="ai" x1="20.952" x2="73.175" y1="22.015" y2="22.015" gradientTransform="matrix(3.125 0 0 -3.125 0 256.25)" gradientUnits="userSpaceOnUse"/><linearGradient xlink:href="#b" id="aj" x1="20.953" x2="73.171" y1="18.345" y2="18.345" gradientTransform="matrix(3.125 0 0 -3.125 0 256.25)" gradientUnits="userSpaceOnUse"/><linearGradient xlink:href="#b" id="ak" x1="20.954" x2="73.167" y1="22.495" y2="22.495" gradientTransform="matrix(3.125 0 0 -3.125 0 256.25)" gradientUnits="userSpaceOnUse"/><linearGradient xlink:href="#b" id="al" x1="20.952" x2="73.173" y1="21.95" y2="21.95" gradientTransform="matrix(3.125 0 0 -3.125 0 256.25)" gradientUnits="userSpaceOnUse"/><linearGradient xlink:href="#b" id="am" x1="20.953" x2="73.171" y1="16.495" y2="16.495" gradientTransform="matrix(3.125 0 0 -3.125 0 256.25)" gradientUnits="userSpaceOnUse"/><linearGradient xlink:href="#b" id="an" x1="20.953" x2="73.17" y1="25.995" y2="25.995" gradientTransform="matrix(3.125 0 0 -3.125 0 256.25)" gradientUnits="userSpaceOnUse"/><path fill="#0e3ca5" d="M105.188 174.031c5.218 19.281 23.906 33.969 33.343 33.375.344-.031 35.781-6.625 55.219-39.062 15.094-25.25 9.969-49.625-10.594-50.156-7.406.562-87.906 19.156-77.969 55.843M181.219 50.281v-.031c-15.75-13.406-36.156-21.5-58.438-21.5-13.031 0-25.406 2.781-36.594 7.781-2 .844-3.906 1.782-5.718 2.813-1.25.687-2.531 1.343-3.75 2.062l.312.094c-3.719 2.563-6.906 5.563-9.531 9-25.875 34.188 60.875 59.063 107.25 59.125 21.344 15.344 27.313-43.125 6.469-59.344zm0 0"/><g fill="#5493f7"><path d="M91.406 50.969C79.5 68.875 39.781 81.5 33.25 79.53c0-.031-.031-.062-.031-.094.281-.53.531-1.062.812-1.624A94.252 94.252 0 0 1 51.25 54.28a96.946 96.946 0 0 1 11.063-9.5 96.792 96.792 0 0 1 7.593-5.031c5.563-3.219 11.25-3.438 13.125-3.5 17.719.406 8.469 14.594 8.375 14.719M81.656 177.563c.844 5.625-.031 27.875-1.187 29.718-1 .063-3.063.188-9.031-3.156a83.477 83.477 0 0 1-9.063-5.906c-3.938-2.875-7.625-6.063-11.063-9.5s-6.624-7.156-9.5-11.063c-2.874-3.937-5.468-8.094-7.718-12.469s-4.188-8.906-5.75-13.625-2.782-9.593-3.594-14.625-1.25-10.156-1.25-15.406.438-10.406 1.25-15.406A94.307 94.307 0 0 1 28.344 91.5c.312-.969.656-1.906 1-2.844C36.187 97.781 44.125 106 50.875 115.22c6.406 8.75 15.25 23.062 17.031 26.094 11.094 18.937 12.875 30.625 13.75 36.25M213.531 121.531c0 12.313-2.344 24.094-6.625 34.906-11.187 12.032-86.687-17.593-87.406-17.906C109.187 134 77.75 120.25 74.906 98.625c-4.062-31.094 59.031-52.781 86.781-53.594 3.313.032 13.438.157 19.344 4.938 19.906 17.406 32.5 43.031 32.5 71.562M162.438 205.844c-8.22 3.844-17.282 1.031-14.938-6.969 4.531-15.375 43.969-31.156 52.688-32.031 1.062-.094 1.53.625 1.062 1.469-9.094 15.906-22.531 29.03-38.813 37.53"/></g><g clip-path="url(#c)" mask="url(#d)"><g clip-path="url(#e)" mask="url(#f)"><path fill="url(#g)" d="M71.594 119.125c-3.375 0-6.094 2.313-6.094 5.188v96.562c0 3.906 2.719 7.031 6.094 7.063 89.187.53 175.656 25.5 175.625 12.968-.125-31.844-.125-75.625 0-107.437.031-12.813-86.469-14.281-175.625-14.344zm0 0"/></g><g clip-path="url(#h)" mask="url(#i)"><path fill="url(#j)" d="M71.563 119.125c-3.376 0-6.094 2.313-6.094 5.188v96.562c0 3.906 2.719 7.031 6.094 7.063 88.562.53 174.437 24.25 174.375 12.125-.125-31.375-.125-74.72 0-106.094.062-12.406-85.813-14.719-174.375-14.844zm0 0"/></g><g clip-path="url(#k)" mask="url(#l)"><path fill="url(#m)" d="M71.563 119.125c-3.376 0-6.094 2.313-6.094 5.188v96.562c0 3.906 2.719 7.031 6.094 7.063 87.937.5 173.187 23 173.156 11.28a14630.13 14630.13 0 0 1 0-104.75c.062-11.968-85.219-15.187-173.156-15.343zm0 0"/></g><g clip-path="url(#n)" mask="url(#o)"><path fill="url(#p)" d="M71.563 119.125c-3.376 0-6.094 2.313-6.094 5.188v96.562c0 3.906 2.719 7.031 6.094 7.063 87.312.468 171.968 21.78 171.906 10.437-.125-30.5-.125-72.938 0-103.406.062-11.563-84.594-15.625-171.906-15.844zm0 0"/></g><g clip-path="url(#q)" mask="url(#r)"><path fill="url(#s)" d="M71.563 119.125c-3.376 0-6.094 2.313-6.094 5.188v96.562c0 3.906 2.719 7.031 6.094 7.063 86.656.437 170.718 20.53 170.687 9.593-.125-30.031-.125-72.031 0-102.062.063-11.156-83.969-16.094-170.688-16.344zm0 0"/></g><g clip-path="url(#t)" mask="url(#u)"><path fill="url(#v)" d="M71.563 119.125c-3.376 0-6.094 2.313-6.094 5.188v96.562c0 3.906 2.719 7.031 6.094 7.063 86.03.406 169.468 19.28 169.437 8.78-.125-29.593-.125-71.124 0-100.718.063-10.75-83.344-16.594-169.438-16.875zm0 0"/></g><g clip-path="url(#w)" mask="url(#x)"><path fill="url(#y)" d="M71.563 119.125c-3.376 0-6.094 2.313-6.094 5.188v96.562c0 3.906 2.719 7.031 6.094 7.063 85.406.406 168.25 18.03 168.218 7.937-.125-29.156-.125-70.219 0-99.375.031-10.344-82.75-17.219-168.219-17.375zm0 0"/></g><g clip-path="url(#z)" mask="url(#A)"><path fill="url(#B)" d="M71.563 119.156c-3.376 0-6.094 2.313-6.094 5.188v96.562c0 3.906 2.719 7.031 6.094 7.063 84.78.375 167 16.781 166.968 7.094-.125-28.688-.125-69.344 0-98.032.063-9.937-82.125-17.75-166.969-17.875zm0 0"/></g><g clip-path="url(#C)" mask="url(#D)"><path fill="url(#E)" d="M71.563 119.156c-3.376 0-6.094 2.313-6.094 5.188v96.562c0 3.906 2.719 7.031 6.094 7.063 84.156.344 165.78 15.531 165.75 6.25-.125-28.25-.125-68.438 0-96.688.03-9.531-81.532-18.219-165.75-18.375zm0 0"/></g><g clip-path="url(#F)" mask="url(#G)"><path fill="url(#H)" d="M71.563 119.156c-3.376 0-6.094 2.313-6.094 5.188v96.562c0 3.906 2.719 7.031 6.094 7.063 83.53.312 164.53 14.281 164.5 5.406-.125-27.813-.125-67.531 0-95.344.062-9.125-80.907-18.719-164.5-18.875zm0 0"/></g><g clip-path="url(#I)" mask="url(#J)"><path fill="url(#K)" d="M71.563 119.156c-3.376 0-6.094 2.313-6.094 5.188v96.562c0 3.906 2.719 7.031 6.094 7.063 82.906.281 163.312 13.031 163.25 4.594a11781.38 11781.38 0 0 1 0-94c.062-8.72-80.282-19.22-163.25-19.407zm0 0"/></g><g clip-path="url(#L)" mask="url(#M)"><path fill="url(#N)" d="M71.563 119.156c-3.376 0-6.094 2.313-6.094 5.188v96.562c0 3.906 2.719 7.031 6.094 7.031 82.28.25 162.062 11.813 162.03 3.75-.124-26.906-.124-65.75 0-92.656.063-8.281-79.687-19.656-162.03-19.875zm0 0"/></g><g clip-path="url(#O)" mask="url(#P)"><path fill="url(#Q)" d="M71.563 119.156c-3.376 0-6.094 2.313-6.094 5.156v96.563c0 3.906 2.719 7.031 6.094 7.031 81.656.25 160.812 10.563 160.78 2.906-.124-26.437-.124-64.843 0-91.312.063-7.844-79.03-20.125-160.78-20.344zm0 0"/></g><g clip-path="url(#R)" mask="url(#S)"><path fill="url(#T)" d="M71.563 119.156c-3.376 0-6.094 2.313-6.094 5.156v96.563c0 3.875 2.719 7.031 6.094 7.031 81.03.219 159.593 9.313 159.562 2.063-.125-26-.125-63.969 0-89.969.031-7.406-78.438-20.594-159.563-20.844zm0 0"/></g><g clip-path="url(#U)" mask="url(#V)"><path fill="url(#W)" d="M71.563 119.156c-3.376 0-6.094 2.313-6.094 5.156v96.563c0 3.875 2.719 7.031 6.094 7.031 80.406.188 158.343 8.063 158.312 1.219-.125-25.563-.125-63.063 0-88.625.063-7-77.813-21.094-158.313-21.344zm0 0"/></g><path fill="url(#X)" d="M71.563 119.156c-3.376 0-6.094 2.313-6.094 5.156v96.563c0 3.875 2.719 7.031 6.094 7.031 79.78.313 157.156 6.813 157.093.406v-87.28c.063-6.595-77.219-21.157-157.094-21.876zm0 0"/></g><path fill="url(#Y)" d="M65.469 220.906c0 3.875 2.719 7.031 6.062 7.063 79.938.562 157.125-3.125 157.125-15.094 0-36.281-163.187 8.031-163.187 8.031zm0 0"/><path fill="url(#Z)" d="m175.406 216.75-15.375-15.375c-18 2.406-36.844 6.063-52.937 9.531l13.594 13.594c20.062-2.125 38.75-5.063 54.718-7.75zm0 0"/><path fill="url(#aa)" d="m160.031 201.375 15.375 15.375c31.219-5.188 52-9.219 52-3.563 0 11.063-75.969 14.844-155.844 14.313-.218 0-.437 0-.624-.031-2.126-.25-3.907-1.656-4.813-3.625v-.031c-.125-.313-.25-.625-.375-.97.094.345.219.657.375.97 1 2.156 3.063 3.625 5.438 3.625 16.75-.094 33.343-1.282 49.093-2.938l-13.594-13.594c-23.812 5.156-41.593 10-41.593 10 0 3.906 2.719 7.063 6.094 7.063 79.937.594 157-1.906 157.093-15.094 0-16.219-32.594-16.313-68.625-11.5zm0 0"/><path fill="url(#ab)" d="M71.594 118.219a6.082 6.082 0 0 0-6.094 6.094v96.593c0 3.344 2.719 6.063 6.063 6.094 79.937-.594 157.218-27.063 157.125-14.125V104.094c.062-12.938-77.188 13.531-157.094 14.125zm0 0"/><path fill="url(#ac)" d="M120.063 115.125v108.781c19.843-2.219 38.437-5.312 54.437-8.062V107.063c-16 2.75-34.594 5.812-54.438 8.062zm0 0"/><path fill="url(#ad)" d="M97.063 168.844c1.718-1.156 2.562-1.719 4.28-2.875-3.437.281-5.156.375-8.562.594-3.437.187-5.156.28-8.562.406 1.719.969 2.562 1.437 4.281 2.375s2.563 1.406 4.281 2.344a338.27 338.27 0 0 0 4.281-2.844zm0 0"/><path fill="url(#ae)" d="M98.469 159.406c-1.625 1.156-3.594 1.906-5.688 2.031s-4.062-.375-5.687-1.375a9.396 9.396 0 0 1-3.719-4.156v.156a8.74 8.74 0 0 0 2.75 6.407c1.719 1.594 4.063 2.531 6.656 2.375s4.969-1.344 6.688-3.156 2.75-4.188 2.75-6.75v-.157a11.51 11.51 0 0 1-3.75 4.625zm0 0"/><path fill="url(#af)" d="M92.781 144.344c2.375-.125 4.281-2.188 4.281-4.531 0-1.72-1.062-1.844-1.062-2.5 0-.625.656-1.532-.656-2.532.656 1.031-.438 1.313-.438 2.375s.438 1.031.438 1.875c0 .469-.375.875-.844.906s-.844-.343-.844-.812c0-.844.844-1.75.844-3.031s-.219-1.688-.844-2.719c-.656-1.031-1.719-1.813-.875-2.719-1.281.5-.656 2.188-.656 3.25s-.844 1.75-.844 3.031.656 1.47.656 2.313c0 .469-.374.875-.843.906s-.844-.344-.844-.812c0-.844.438-.875.438-1.938s-1.063-1.219-.438-2.312c-1.281 1.125-.656 1.937-.656 2.594s-1.063.906-1.063 2.625c-.062 2.343 1.875 4.156 4.25 4.03zm0 0"/><path fill="url(#ag)" d="M92.781 159.719c1.906-.094 3.625-1 4.844-2.313 1.25-1.312 2-3.094 2-4.969s-.781-3.53-2-4.687c-1.25-1.156-2.969-1.813-4.844-1.688-1.906.125-3.594.97-4.844 2.25s-2 3.032-2 4.907.782 3.562 2 4.75 2.938 1.844 4.844 1.75zm0 0"/><path fill="url(#ah)" d="M92.781 186.531c1.125-.062 2.125-.562 2.844-1.344s1.188-1.812 1.188-2.906-.47-2.094-1.188-2.781a3.803 3.803 0 0 0-2.719-1h-.125c-2.375.125-4.5 1.188-6.062 2.813s-2.5 3.78-2.5 6.156c0 1.625.437 3.125 1.25 4.375a7.977 7.977 0 0 0 3.25 2.937c-.625-.812-.969-1.844-.969-2.937 0-1.406.563-2.688 1.5-3.625a5.202 5.202 0 0 1 3.531-1.688zm0-5.719c.938-.062 1.719.688 1.719 1.625s-.781 1.75-1.719 1.813-1.719-.656-1.719-1.594c0-.969.75-1.781 1.72-1.844zm0 0"/><path fill="url(#ai)" d="M96.844 179.281c.625.781 1 1.813 1 2.938 0 1.406-.563 2.687-1.5 3.656-.906.969-2.188 1.625-3.563 1.688a4.158 4.158 0 0 0-2.844 1.343 4.22 4.22 0 0 0-1.187 2.906c0 1.094.469 2.094 1.188 2.782.718.656 1.656 1.062 2.718 1.031h.125c2.375-.125 4.5-1.25 6.063-2.906s2.5-3.875 2.5-6.219c0-1.625-.469-3.094-1.25-4.344s-1.906-2.25-3.25-2.875zm-4.063 14c-.937.063-1.719-.656-1.719-1.594s.75-1.75 1.72-1.812a1.593 1.593 0 0 1 1.718 1.594c0 .969-.781 1.781-1.719 1.812zm0 0"/><path fill="url(#aj)" d="M84.188 197.719v3.406c3.437-.125 6-.281 8.562-.406 2.563-.156 5.156-.313 8.563-.594v-3.406c-3.438.281-6 .437-8.563.594s-5.125.28-8.563.406zm0 0"/><path fill="url(#ak)" d="M103.063 206.844c3.437-.281 5.124-.438 8.562-.781v-41c-3.438.312-5.156.5-8.563.78zm0 0"/><path fill="url(#al)" d="M73.906 208.281c3.438-.062 5.156-.125 8.563-.25v-41c-3.438.125-5.156.188-8.563.25zm0 0"/><path fill="url(#am)" d="M84.188 202.844c1.718.969 2.562 1.437 4.28 2.375s2.563 1.406 4.282 2.344c1.719-1.125 2.563-1.688 4.281-2.844s2.563-1.719 4.281-2.875c-3.437.25-5.156.375-8.562.594-3.406.187-5.125.28-8.563.406zm0 0"/><path fill="url(#an)" d="M84.188 173.813v3.406c3.437-.125 6-.281 8.562-.406 2.563-.157 5.156-.313 8.594-.594v-3.406c-3.438.28-6 .437-8.563.593-2.594.125-5.156.25-8.594.406zm0 0"/></svg>