<svg xmlns="http://www.w3.org/2000/svg" width="250" height="250"><path fill="#010101" d="M0 0v250h34.723v-97.223h6.945V250h166.664v-55.34h-6.727c0 1.438.704 5.547-.347 6.598-.707.71-2.637.347-3.559.347h-9.98c0 1.438.703 5.547-.348 6.598-.71.707-2.64.348-3.559.348h-9.984c0 1.351.711 5.91-.504 6.722-1.035.688-3.496.223-4.703.223H111.11v-6.945H100.91c-.918 0-2.847.36-3.558-.348-1.051-1.05-.348-5.16-.348-6.598H83.332v-6.945h-6.941v-6.941h-6.946v-14.11H62.5v-27.777h6.945v-6.941h6.946v-6.946h6.941V125h6.945v-7.16h32.118c.718 0 1.914-.215 2.476.347 1.074 1.075.348 5.34.348 6.813h6.941v6.945h6.945v6.946h13.672v-6.946h6.727V125h7.164v-7.16h34.723v-13.672h-6.946v-6.945H187.5v-6.946h6.945v6.727h6.946v-6.727h7.16V125h6.945v15.406c0 1.219.559 4.387-.348 5.297-1.074 1.074-5.343.348-6.816.348v27.344c1.473 0 5.742-.727 6.816.347.86.86.348 3.719.348 4.86V250H250V0zm0 0"/><path fill="#fff" d="M118.055 13.89v6.942h-6.946v6.945h-6.941v13.891h6.941v6.941h6.946v6.946h13.89v-6.946h6.946v-6.941h6.941v-6.945h-6.941v6.945H125v-6.945h-6.945V20.832H125v-6.941zM62.5 55.556V62.5h-6.945v13.89h-6.946v13.887h-6.941v62.5h6.941v-62.5h6.946V76.391H62.5V62.5h6.945v13.89h6.946v13.887h6.941v6.946h6.945V83.332h20.832v-6.941h48.614v6.941h13.886v6.945H187.5v-6.945h-13.89v-6.941h6.945V62.5h6.945v13.89h6.945v13.887h6.946V76.391h-6.946V62.5H187.5v-6.945h-6.945V62.5h-6.946v13.89h-13.886v-6.945h-48.614v6.946H90.277v6.941h-6.945v-6.941h-6.941V62.5h-6.946v-6.945zm0 0"/><path fill="#111" d="M83.332 76.39v6.942h.219zm-6.941 13.887v.22h6.941zm0 0"/><path fill="#fff" d="M187.5 90.277v6.946h6.945v6.945h6.946v13.887h-34.723V125h-6.945v6.945h-6.946v6.946h-13.886v-6.946h-6.946V125H125v-6.945H90.277V125h-6.945v6.945h-6.941v6.946h-6.946v6.941H62.5v27.777h6.945V187.5h6.946v6.945h6.941v6.946h13.89v6.941h13.887v6.945h62.5v-6.945H187.5v-6.941h13.89v-6.946h6.942V250h6.945v-76.39h-6.945v-27.778h6.945V125h-6.945V90.277h-6.941v6.946h-6.946v-6.946zm0 0"/><path fill="#111" d="M208.332 90.277V125h.219v-24.305c0-2.933.914-7.726-.219-10.418m-13.887 6.727v.219h6.946zM90.277 117.84v.215H125c-2.691-1.13-7.484-.215-10.418-.215zm76.391 0v.215h34.723c-2.696-1.13-7.485-.215-10.418-.215zm-41.668.215V125h.219zm6.945 6.945v6.945h.215zm27.559 0v6.945h.219zm55.773 0v20.832h.22v-14.539zm0 0"/><path fill="#1f1f1f" d="m90.277 131.945.22.215zm0 0"/><path fill="#111" d="M90.277 138.89c-1.48 0-5.425-.706-6.597.223-1.051.832-.348 5.422-.348 6.719-1.297 0-5.887-.703-6.719.348-.855 1.078-.222 4.597-.222 5.945v15.625c0 1.27-.586 4.496.222 5.512.832 1.05 5.422.347 6.719.347v-.214h-6.727V146.05c1.297 0 5.891.703 6.723-.348.926-1.172.223-5.117.223-6.598 1.48 0 5.426.708 6.597-.222 1.051-.832.348-5.422.348-6.723h27.559c-1.711-.715-4.442-.215-6.293-.215h-14.54c-1.472 0-5.429-.703-6.597.223-1.05.832-.348 5.422-.348 6.723m48.614-6.946v6.946h.214zm0 0"/><path fill="#1f1f1f" d="m173.61 131.945.218.215zm0 0"/><path fill="#111" d="M173.61 138.89h.218v-6.73h34.504c-2.121-.89-5.719-.215-8.027-.215h-24.09c-.633 0-1.723-.199-2.254.223-1.055.832-.352 5.422-.352 6.723zm0 0"/><path fill="#010101" d="M90.496 132.16v6.73h27.559v-6.73zm83.332 0v6.73h27.777v6.942h6.727V132.16zm0 0"/><path fill="#1f1f1f" d="m83.332 138.89.219.215zm0 0"/><path fill="#fff" d="M90.277 138.89v6.942h-6.945v27.777h6.945v6.946h27.778v-6.946H125v-27.777h-6.945v-6.941zm0 0"/><path fill="#1f1f1f" d="m118.055 138.89.218.215zm0 0"/><path fill="#111" d="M118.055 145.832h.218v-6.727H125l-5.207-.214-1.606.5zm0 0"/><path fill="#1f1f1f" d="m166.668 138.89.215.215zm0 0"/><path fill="#111" d="M166.668 145.832h.215v-6.727h6.726l-5.207-.214-1.605.5zm34.723-6.941v6.941h.214zm0 0"/><path fill="#010101" d="M83.55 139.105v6.727h6.727v-6.727zm34.723 0v6.727H125v-6.727zm48.61 0v6.727h6.726v-6.727zm0 0"/><path fill="#1f1f1f" d="m76.39 145.832.215.219zm0 0"/><path fill="#111" d="M125 145.832v.219h6.945zm34.723 0v.219h6.945zm48.609 0v.219h6.945zm0 0"/><path fill="#010101" d="M76.605 146.05v27.345h6.727V146.05zm48.395 0v27.345h6.945V146.05zm34.723 0v20.618h-20.618v6.941h20.618v20.836h6.945V180.34h6.941v-6.512h-6.941v-27.777zm0 0"/><path fill="#fff" d="M34.723 152.777V250h6.945v-97.223zm0 0"/><path fill="#1f1f1f" d="m97.223 152.777.215.22zm0 0"/><path fill="#111" d="M97.223 166.668h.215v-13.672h6.73c-1.012-.426-5.996-.789-6.723.129-.61.77-.222 2.84-.222 3.777zm0 0"/><path fill="#1f1f1f" d="m180.555 152.777.218.22zm0 0"/><path fill="#111" d="M180.555 166.668h.218v-13.672h6.727c-1.012-.426-5.996-.789-6.723.129-.609.77-.222 2.84-.222 3.777zm0 0"/><path fill="#010101" d="M97.438 152.996v13.672h13.671v-6.73h-6.941v-6.942zm83.335 0v13.672h13.672v-6.73H187.5v-6.942zm0 0"/><path fill="#111" d="M104.168 159.723v.214h6.941zm83.332 0v.214h6.945zm-48.61 6.945v6.941h.215zm0 0"/><path fill="#1f1f1f" d="m76.39 173.395.215.214zm0 0"/><path fill="#111" d="M125 173.395v.214h6.945zm83.332 0v.214h6.945zm0 0"/><path fill="#1f1f1f" d="m83.332 173.61.219.218zm0 0"/><path fill="#111" d="M90.277 180.555v-.215h-6.726v-6.512h6.726c-1.097-.46-5.625-.762-6.597.008-.727.574-.727 5.922 0 6.496 1.172.93 5.117.223 6.597.223zm0 0"/><path fill="#1f1f1f" d="m118.055 173.61.218.218zm0 0"/><path fill="#111" d="M125 180.555v-.215h-6.727v-6.512H125c-1.098-.46-5.629-.762-6.598.008-.726.574-.726 5.922 0 6.496 1.172.93 5.118.223 6.598.223m6.945-6.946V187.5h.215v-9.547zm0 0"/><path fill="#010101" d="M132.16 173.61v13.89h6.73v-13.89zm0 0"/><path fill="#fff" d="M138.89 173.61v13.89h6.942v6.945h13.89V173.61zm0 0"/><path fill="#111" d="M166.668 173.61v.218h6.941zm0 0"/><path fill="#1f1f1f" d="m201.39 173.61.215.218zm0 0"/><path fill="#111" d="M208.332 180.555v-.215h-6.727v-6.512h6.727c-1.094-.46-5.625-.762-6.594.008-.73.574-.73 5.922 0 6.496 1.172.93 5.114.223 6.594.223m6.945-6.946V250h.22v-69.66zm0 0"/><path fill="#010101" d="M83.55 173.828v6.512h6.727v-6.512zm34.723 0v6.512H125v-6.512zm83.332 0v6.512h6.727v-6.512zm0 0"/><path fill="#1f1f1f" d="m83.332 180.34.219.215zm34.723 0 .218.215zm0 0"/><path fill="#111" d="M166.668 180.34v.215h6.941zm0 0"/><path fill="#1f1f1f" d="m201.39 180.34.215.215zm0 0"/><path fill="#111" d="M90.277 180.555v6.945h.22zm0 0"/><path fill="#010101" d="M90.496 180.555v6.945h27.559v-6.945zm0 0"/><path fill="#111" d="M173.61 180.555v6.945h.218zm0 0"/><path fill="#010101" d="M173.828 180.555v6.945h27.563v-6.945zm0 0"/><path fill="#111" d="M69.445 187.5v.219h6.946zm0 0"/><path fill="#1f1f1f" d="m138.89 187.5.215.219zm0 0"/><path fill="#111" d="M138.89 194.445h.215v-6.726h6.727l-5.207-.219-1.605.504zm0 0"/><path fill="#010101" d="M139.105 187.719v6.726h6.727v-6.726zm0 0"/><path fill="#111" d="M76.39 194.445v.215h6.942zm69.442 0v13.887h.219v-9.547zm0 0"/><path fill="#010101" d="M146.05 194.445v13.887h6.727v-6.941h6.727v-6.946zm0 0"/><path fill="#111" d="M159.504 194.445v6.946h.219zm0 0"/><path fill="#1f1f1f" d="m201.39 194.445.215.215zm0 0"/><path fill="#111" d="M201.605 194.445v.215h6.727zm-.214.215v6.73h.214zm-118.059 6.73v.215h13.672v6.727c.426-1.012.789-5.992-.129-6.719-.77-.61-2.84-.222-3.777-.222zm0 0"/><path fill="#1f1f1f" d="m97.004 201.39.219.215zm90.496 0 .219.215zm0 0"/><path fill="#111" d="M187.719 201.39v.215h13.672l-4.344-.214zm-.219.215v6.727h.219zm-90.277 6.727v.219h13.886l-4.34-.219zm0 0"/><path fill="#1f1f1f" d="m173.61 208.332.218.219zm0 0"/><path fill="#111" d="M173.828 208.332v.219H187.5l-4.34-.219zm-.219.219v6.726h.22zm-62.5 6.726v.22h62.5l-5.64-.22zm0 0"/></svg>