<svg xmlns="http://www.w3.org/2000/svg" width="250" height="250"><path fill="#fff" fill-rule="evenodd" d="M250 125c0 69.035-55.965 125-125 125S0 194.035 0 125 55.965 0 125 0s125 55.965 125 125zm0 0"/><path fill="#001a7a" d="M196.43 53.57v99.328l-43.32 43.532H53.57V53.57zM82.145 64.61c-11.985 0-19.051 9.195-19.051 22.378 0 13.18 7.066 22.38 19.05 22.38 2.458 0 4.606-.31 6.45-1.227l3.074 4.597 6.758-4.293-3.38-4.597c3.688-3.985 5.837-9.809 6.145-16.86 0-13.183-7.066-22.379-19.046-22.379zm41.472 0c-11.98 0-19.047 9.195-19.047 22.378 0 13.18 7.067 22.38 19.047 22.38 2.457 0 4.61-.31 6.453-1.227l3.07 4.597 6.758-4.293-3.378-4.597c3.687-3.985 5.84-9.809 6.144-16.86 0-13.183-7.066-22.379-19.047-22.379zm41.168 0c-11.98 0-19.047 9.195-19.047 22.378 0 13.18 7.067 22.38 19.047 22.38 2.457 0 4.61-.31 6.453-1.227l3.07 4.597 6.758-4.293-3.379-4.597c3.688-3.985 6.145-9.809 6.145-16.86 0-13.183-7.066-22.379-19.047-22.379zM123.31 73.19c7.066 0 10.14 6.133 10.14 14.102 0 3.68-.613 7.05-1.844 9.504l-2.765-4.293-6.758 4.293 3.07 4.293h-1.535c-7.066 0-10.137-6.133-10.137-14.102 0-7.664 2.766-13.797 9.829-13.797zm41.476 0c7.067 0 9.832 6.133 10.137 14.102 0 3.68-.613 7.05-1.844 9.504l-2.762-4.293-6.761 4.293 3.074 4.293h-1.535c-7.067 0-10.14-6.133-10.14-14.102 0-7.664 2.765-13.797 9.831-13.797zm-82.64 0c7.062 0 9.828 6.133 10.136 14.102 0 3.68-.613 7.05-1.844 9.504l-2.765-4.293-6.758 4.293 3.07 4.293H82.45c-7.066 0-10.136-6.133-10.136-14.102 0-7.664 2.765-13.797 9.832-13.797zm0 0"/></svg>