<svg xmlns="http://www.w3.org/2000/svg" xmlns:xlink="http://www.w3.org/1999/xlink" width="250" height="250"><symbol id="a" overflow="visible"><path d="M44.844-14.156c0 4.812-1.79 8.496-5.36 11.047C35.922-.566 30.687.703 23.781.703 17.477.703 12.535-.41 8.953-2.64 5.38-4.879 3.082-8.266 2.063-12.797L12-14.437c.676 2.605 1.988 4.496 3.938 5.671 1.945 1.168 4.656 1.75 8.124 1.75 7.188 0 10.782-2.18 10.782-6.546 0-1.395-.418-2.547-1.25-3.454-.824-.906-1.985-1.66-3.485-2.265-1.5-.602-4.375-1.336-8.625-2.203-3.68-.852-6.242-1.54-7.687-2.063-1.438-.531-2.742-1.148-3.906-1.86-1.157-.706-2.141-1.562-2.954-2.562s-1.449-2.172-1.906-3.515c-.449-1.352-.672-2.899-.672-4.641 0-4.445 1.664-7.848 5-10.203 3.344-2.363 8.196-3.547 14.563-3.547 6.094 0 10.664.953 13.719 2.86 3.062 1.906 5.035 5.058 5.922 9.453l-9.985 1.359c-.512-2.113-1.555-3.703-3.125-4.766-1.562-1.07-3.808-1.61-6.734-1.61-6.23 0-9.344 1.954-9.344 5.86 0 1.282.328 2.328.984 3.14.664.813 1.649 1.509 2.954 2.079 1.3.563 3.937 1.277 7.906 2.14 4.718 1 8.093 1.93 10.125 2.782 2.039.844 3.656 1.828 4.843 2.953s2.094 2.477 2.72 4.047c.624 1.562.937 3.371.937 5.422zm0 0"/></symbol><symbol id="b" overflow="visible"><path d="M4.781 0v-49.14h10.282v41.187h26.374V0zm0 0"/></symbol><symbol id="c" overflow="visible"><path d="M29.078 0H18.656L.484-49.14h10.75l10.11 31.562c.625 2.055 1.484 5.148 2.578 9.281l.734-3 1.782-6.281 10.078-31.563h10.64zm0 0"/></symbol><path fill="#fff" fill-rule="evenodd" d="M250 125c0 69.035-55.965 125-125 125S0 194.035 0 125 55.965 0 125 0s125 55.965 125 125zm0 0"/><g fill="#121a2f"><use xlink:href="#a" x="67.07" y="151.787"/><use xlink:href="#b" x="109.934" y="151.787"/><use xlink:href="#c" x="143.87" y="151.787"/></g></svg>