<svg xmlns="http://www.w3.org/2000/svg" width="250" height="250"><path d="M250 125c0 69.035-55.965 125-125 125S0 194.035 0 125 55.965 0 125 0s125 55.965 125 125zm0 0"/><g fill="#fff"><path d="M64.023 84.324c0-4.914-.304-9.672-.757-14.59h21.968l.758 9.985c2.461-3.38 8.445-11.672 23.961-11.672 17.82 0 22.887 10.898 24.418 14.59 6.445-12.442 16.887-14.453 24.879-14.453 15.66 0 21.969 9.37 23.645 12.437 4.152 6.758 3.84 16.129 3.84 22.887v42.484h-22.88v-44.308c0-8.336-1.234-17.508-13.05-17.508-13.676 0-13.98 12.742-13.98 24.242v37.566h-22.887V101.22c0-5.992-.149-17.043-12.75-17.043-14.278 0-14.278 12.277-14.278 17.508v44.324H64.023zM63.258 163.063h123.484v18.89H63.258zm0 0"/></g></svg>