<svg xmlns="http://www.w3.org/2000/svg" xmlns:xlink="http://www.w3.org/1999/xlink" width="250" height="250"><linearGradient id="a"><stop offset="0" stop-color="#4400e2"/><stop offset=".041" stop-color="#7013c5"/><stop offset=".087" stop-color="#9a25aa"/><stop offset=".133" stop-color="#bc3494"/><stop offset=".18" stop-color="#d73f82"/><stop offset=".228" stop-color="#ea4876"/><stop offset=".278" stop-color="#f54c6e"/><stop offset=".33" stop-color="#f94e6c"/><stop offset="1" stop-color="#ffd402"/></linearGradient><linearGradient xlink:href="#a" id="b" x1=".226" x2="210.727" y1="13.636" y2="8.706" gradientTransform="matrix(4.54545 0 0 5.68182 13.636 28.41)" gradientUnits="userSpaceOnUse"/><linearGradient xlink:href="#a" id="c" x1=".209" x2="210.71" y1="12.945" y2="8.015" gradientTransform="matrix(4.54545 0 0 5.68182 13.636 28.41)" gradientUnits="userSpaceOnUse"/><linearGradient xlink:href="#a" id="d" x1=".215" x2="210.716" y1="13.176" y2="8.246" gradientTransform="matrix(4.54545 0 0 5.68182 13.636 28.41)" gradientUnits="userSpaceOnUse"/><linearGradient xlink:href="#a" id="e" x1=".221" x2="210.722" y1="13.383" y2="8.453" gradientTransform="matrix(4.54545 0 0 5.68182 13.636 28.41)" gradientUnits="userSpaceOnUse"/><path fill="url(#b)" d="M188.703 52.11c-5.289.019-9.562 5.398-9.543 12.011v120.55c0 6.642 4.274 12.013 9.543 12.013 5.293-.02 9.57-5.399 9.55-12.012V64.122c.02-6.614-4.253-11.997-9.542-12.013"/><path fill="url(#c)" d="M56.14 52.11c-5.288.015-9.566 5.394-9.55 12.011v120.55c0 6.642 4.281 12.013 9.55 12.013 5.294-.02 9.567-5.399 9.551-12.012V64.122c.012-3.18-.988-6.231-2.78-8.485-1.79-2.254-4.224-3.528-6.766-3.535"/><path fill="url(#d)" d="M100.336 77.172c-5.29.016-9.566 5.39-9.55 12.004v70.437c0 6.64 4.276 12.012 9.546 12.012 5.293-.016 9.57-5.395 9.555-12.012V89.176c0-6.625-4.274-12.004-9.551-12.004"/><path fill="url(#e)" d="M144.531 97.402c-5.289.016-9.57 5.395-9.554 12.008v29.715c0 6.637 4.28 12.012 9.554 12.012 5.27 0 9.547-5.387 9.547-12.012V109.41c.016-6.61-4.258-11.984-9.547-12.008"/></svg>