<svg xmlns="http://www.w3.org/2000/svg" width="250" height="250"><g fill="#e31837"><path d="m126.887 226.11 28.004-157.5c26.695 0 35.113 2.93 36.328 14.874 0 0 17.906-6.675 26.941-20.234-35.246-16.332-70.656-17.07-70.656-17.07L126.84 71.348l.047-.004-20.664-25.168s-35.414.738-70.653 17.07C44.594 76.805 62.508 83.48 62.508 83.48c1.222-11.945 9.633-14.875 36.148-14.894z"/><path d="M126.875 38.91c28.488-.219 61.098 4.406 94.48 18.957 4.461-8.031 5.61-11.578 5.61-11.578C190.473 31.852 156.3 26.91 126.87 26.785c-29.426.125-63.598 5.067-100.086 19.504 0 0 1.63 4.371 5.606 11.578 33.375-14.55 65.992-19.176 94.48-18.957z"/></g></svg>