<svg xmlns="http://www.w3.org/2000/svg" width="250" height="250"><path fill="#fff" fill-rule="evenodd" d="M250 125c0 69.035-55.965 125-125 125S0 194.035 0 125 55.965 0 125 0s125 55.965 125 125zm0 0"/><path fill="#2aa9e0" d="M205.355 78.355a64.633 64.633 0 0 1-18.933 5.32c6.805-4.183 12.035-10.808 14.496-18.702a65.032 65.032 0 0 1-20.938 8.203c-6.015-6.57-14.585-10.676-24.07-10.676-18.207 0-32.972 15.137-32.972 33.809 0 2.652.292 5.23.855 7.707-27.402-1.41-51.7-14.871-67.961-35.329-2.84 4.997-4.465 10.801-4.465 17 0 11.731 5.82 22.079 14.668 28.141a32.185 32.185 0 0 1-14.933-4.23c-.004.14-.004.285-.004.425 0 16.383 11.367 30.047 26.449 33.153a32.216 32.216 0 0 1-14.89.582c4.195 13.43 16.374 23.207 30.8 23.476-11.285 9.07-25.5 14.477-40.95 14.477-2.66 0-5.284-.16-7.862-.473 14.59 9.594 31.921 15.192 50.542 15.192 60.649 0 93.813-51.52 93.813-96.2 0-1.468-.031-2.925-.094-4.375 6.442-4.765 12.031-10.722 16.45-17.5zm0 0"/></svg>