<svg xmlns="http://www.w3.org/2000/svg" width="250" height="250"><path d="M249.484 124.098c0 67.289-55.558 121.84-124.097 121.84-68.535 0-124.098-54.551-124.098-121.84 0-67.293 55.563-121.84 124.098-121.84 68.539 0 124.097 54.547 124.097 121.84zm0 0"/><g fill="#fff"><path d="M122.555 144.453c-17.657-1.527-30.508-10.578-31.157-27.02h23.625c.52 5.227 3.118 8.41 7.528 9.817v-20.14c-13.89-3.567-31.285-7.391-31.285-27.403 0-15.934 13.632-25.363 31.285-26.512V42.871h8.308v10.324c17.786 1.403 29.211 10.325 30.38 26.512H137.48c-.515-4.719-2.98-7.648-6.617-8.922V90.54c13.89 3.824 31.672 7.52 31.672 27.277 0 13.762-11.164 25.875-31.672 26.766v10.324h-8.308zm0-56.59V70.145c-4.805.77-7.79 3.57-7.79 8.543 0 4.457 3.114 7.136 7.79 9.175zm8.304 21.668v18.098c5.196-.89 8.442-4.332 8.442-9.05 0-4.59-3.38-7.138-8.442-9.048zm0 0"/><path fill-rule="evenodd" d="M51.848 170.906H200.3v21.965H51.848zm0 0"/></g></svg>