<svg xmlns="http://www.w3.org/2000/svg" xmlns:xlink="http://www.w3.org/1999/xlink" width="250" height="250"><symbol id="a" overflow="visible"><path d="M25.219.703C18.445.703 13.266-.945 9.672-4.25c-3.586-3.3-5.375-8.02-5.375-14.156v-30.735h10.281v29.922c0 3.887.922 6.836 2.766 8.844 1.851 2.012 4.57 3.016 8.156 3.016 3.664 0 6.488-1.051 8.469-3.157 1.976-2.101 2.968-5.117 2.968-9.046v-29.579H47.22v30.203c0 6.231-1.93 11.063-5.782 14.5C37.594-1.007 32.188.704 25.22.704zm0 0"/></symbol><symbol id="b" overflow="visible"><path d="M44.844-14.156c0 4.812-1.79 8.496-5.36 11.047C35.922-.566 30.687.703 23.781.703 17.477.703 12.535-.41 8.953-2.64 5.38-4.879 3.082-8.266 2.063-12.797L12-14.437c.676 2.605 1.988 4.496 3.938 5.671 1.945 1.168 4.656 1.75 8.124 1.75 7.188 0 10.782-2.18 10.782-6.546 0-1.395-.418-2.547-1.25-3.454-.824-.906-1.985-1.66-3.485-2.265-1.5-.602-4.375-1.336-8.625-2.203-3.68-.852-6.242-1.54-7.687-2.063-1.438-.531-2.742-1.148-3.906-1.86-1.157-.706-2.141-1.562-2.954-2.562s-1.449-2.172-1.906-3.515c-.449-1.352-.672-2.899-.672-4.641 0-4.445 1.664-7.848 5-10.203 3.344-2.363 8.196-3.547 14.563-3.547 6.094 0 10.664.953 13.719 2.86 3.062 1.906 5.035 5.058 5.922 9.453l-9.985 1.359c-.512-2.113-1.555-3.703-3.125-4.766-1.562-1.07-3.808-1.61-6.734-1.61-6.23 0-9.344 1.954-9.344 5.86 0 1.282.328 2.328.984 3.14.664.813 1.649 1.509 2.954 2.079 1.3.563 3.937 1.277 7.906 2.14 4.718 1 8.093 1.93 10.125 2.782 2.039.844 3.656 1.828 4.843 2.953s2.094 2.477 2.72 4.047c.624 1.562.937 3.371.937 5.422zm0 0"/></symbol><symbol id="c" overflow="visible"><path d="M52.563-24.797c0 5.117-1.016 9.617-3.047 13.5-2.024 3.887-4.918 6.86-8.688 8.922C37.066-.32 32.676.703 27.656.703c-7.718 0-13.773-2.27-18.156-6.812-4.387-4.551-6.578-10.782-6.578-18.688 0-7.883 2.187-14.035 6.562-18.453 4.375-4.414 10.454-6.625 18.235-6.625 7.789 0 13.879 2.234 18.265 6.703 4.383 4.461 6.578 10.586 6.578 18.375zm-10.5 0c0-5.3-1.258-9.457-3.766-12.469-2.512-3.007-6.04-4.515-10.578-4.515-4.606 0-8.164 1.496-10.672 4.484-2.512 2.992-3.766 7.156-3.766 12.5 0 5.399 1.285 9.649 3.86 12.75C19.71-8.94 23.219-7.39 27.656-7.39c4.602 0 8.157-1.507 10.657-4.53 2.5-3.02 3.75-7.313 3.75-12.876zm0 0"/></symbol><path fill="#fff" fill-rule="evenodd" d="M250 125c0 69.035-55.965 125-125 125S0 194.035 0 125 55.965 0 125 0s125 55.965 125 125zm0 0"/><g fill="#121a2f"><use xlink:href="#a" x="56.93" y="151.787"/><use xlink:href="#b" x="108.722" y="151.787"/><use xlink:href="#c" x="151.586" y="151.787"/></g></svg>