<svg xmlns="http://www.w3.org/2000/svg" xmlns:xlink="http://www.w3.org/1999/xlink" width="250" height="250"><symbol id="a" overflow="visible"><path d="M29.078 0H18.656L.484-49.14h10.75l10.11 31.562c.625 2.055 1.484 5.148 2.578 9.281l.734-3 1.782-6.281 10.078-31.563h10.64zm0 0"/></symbol><symbol id="b" overflow="visible"><path d="M4.781 0v-49.14h10.282V0zm0 0"/></symbol><symbol id="c" overflow="visible"><path d="M36.203 0 23.86-19.563 11.516 0H.625l17.016-25.844L2.063-49.14h10.874L23.86-31.766 34.766-49.14h10.812L30.656-25.844 47.016 0zm0 0"/></symbol><symbol id="d" overflow="visible"><path d="M28.984-20.156V0h-10.25v-20.156L1.22-49.141H12l11.781 20.782L35.72-49.141h10.765zm0 0"/></symbol><path fill="#fff" fill-rule="evenodd" d="M250 125c0 69.035-55.965 125-125 125S0 194.035 0 125 55.965 0 125 0s125 55.965 125 125zm0 0"/><g fill="#121a2f"><use xlink:href="#a" x="46.93" y="151.787"/><use xlink:href="#b" x="89.794" y="151.787"/><use xlink:href="#c" x="105.872" y="151.787"/><use xlink:href="#d" x="148.736" y="151.787"/></g></svg>