<?xml version="1.0" encoding="UTF-8"?><svg id="_레이어_1" xmlns="http://www.w3.org/2000/svg" viewBox="0 0 250 250"><defs><style>.cls-1{fill:#fff;}.cls-2{fill:#f5bb39;}.cls-3{fill:#0a2e3d;}</style></defs><rect class="cls-1" x="0" y="0" width="250" height="250" rx="125" ry="125"/><g><g><path class="cls-3" d="M132.53,161.72c-.77,3.04-3.52,5.29-6.81,5.29s-6.04-2.25-6.81-5.29l-20.04-79.44c-3.04-12.16-14.06-21.2-27.16-21.2-15.43,0-27.99,12.56-27.99,27.99v6.32c0,5.85,4.74,10.6,10.6,10.6s10.6-4.74,10.6-10.6v-6.32c0-3.75,3.05-6.79,6.8-6.79,3.18,0,5.86,2.2,6.6,5.16l20.34,80.66c3.18,11.97,14.11,20.82,27.06,20.82s23.88-8.85,27.06-20.82l20.35-80.66c.73-2.96,3.41-5.16,6.6-5.16,3.75,0,6.79,3.05,6.79,6.79v89.25c0,5.86,4.74,10.6,10.6,10.6s10.6-4.74,10.6-10.6V89.07c0-15.43-12.56-27.99-27.99-27.99-13.09,0-24.12,9.03-27.16,21.2l-20.04,79.44Z"/><path class="cls-3" d="M64.93,178.32c0,5.86-4.74,10.6-10.6,10.6s-10.6-4.74-10.6-10.6v-23.71c0-5.85,4.74-10.6,10.6-10.6s10.6,4.74,10.6,10.6v23.71Z"/></g><path class="cls-2" d="M47.08,117.74c1.31-1.31,2.44-2.38,3.39-3.26l.1-.09c2.13-1.92,5.37-1.93,7.51-.02l.11,.1c.96,.88,2.09,1.96,3.41,3.27l.02,.02c1.31,1.31,2.38,2.43,3.25,3.39l.1,.11c1.91,2.14,1.9,5.38-.02,7.51l-.09,.1c-.88,.96-1.95,2.08-3.26,3.39l-.02,.02c-1.3,1.3-2.42,2.37-3.37,3.24l-.1,.09c-2.13,1.92-5.37,1.93-7.51,.02l-.11-.1c-.95-.87-2.08-1.95-3.39-3.25l-.02-.02c-1.32-1.32-2.39-2.45-3.27-3.41l-.1-.11c-1.91-2.14-1.9-5.38,.02-7.51l.09-.1c.87-.95,1.94-2.07,3.24-3.38l.02-.02Z"/></g></svg>