<svg xmlns="http://www.w3.org/2000/svg" width="250" height="250"><linearGradient id="a" x1="-4.3" x2="254.3" y1="254.3" y2="-4.3" gradientUnits="userSpaceOnUse"><stop offset="0" stop-color="#273469"/><stop offset=".18" stop-color="#283877"/><stop offset=".51" stop-color="#2a449b"/><stop offset=".95" stop-color="#2e56d5"/><stop offset="1" stop-color="#2e58db"/></linearGradient><path fill="url(#a)" d="M0 0h250v250H0z"/><g fill="#fff"><path d="m224.477 125-37.286 37.32h-.07a87.768 87.768 0 0 0-62.137-25.78 87.77 87.77 0 0 0-62.14 25.78h-.07L25.523 125 125 25.523zm0 0"/><path d="m176.176 173.316-51.14 51.137-51.212-51.137A71.63 71.63 0 0 1 125 152.102c3.422-.008 6.836.23 10.227.703a71.537 71.537 0 0 1 40.949 20.511zm0 0"/></g></svg>