<svg xmlns="http://www.w3.org/2000/svg" width="250" height="250"><linearGradient id="a" x1="450" x2="450" y1="630.16" y2="242.19" gradientTransform="matrix(.36127 0 0 .6906 -37.574 -185.773)" gradientUnits="userSpaceOnUse"><stop offset="0" stop-color="#272460"/><stop offset=".21" stop-color="#3a2460"/><stop offset=".62" stop-color="#6a2362"/><stop offset="1" stop-color="#9c2363"/></linearGradient><path fill="url(#a)" d="M247.941 155.387 168.351 1.773C167.762.641 166.962 0 166.126 0s-1.637.64-2.227 1.773L127.684 71.61c-.711 1.368-1.676 2.137-2.684 2.137-1.004 0-1.969-.77-2.68-2.137L86.11 1.79c-1.243-2.27-3.2-2.27-4.446 0L2.054 155.387c-2.667 5.148-2.667 13.441 0 18.59l38.493 74.226c1.246 2.274 3.207 2.274 4.453 0l36.2-69.832c.706-1.367 1.671-2.133 2.679-2.133 1.008 0 1.973.766 2.683 2.133L122.77 248.2c.59 1.13 1.39 1.766 2.226 1.766.832 0 1.633-.637 2.223-1.766l36.219-69.816c.707-1.367 1.671-2.137 2.68-2.137 1.007 0 1.972.77 2.679 2.137L205 248.219c.586 1.136 1.387 1.773 2.223 1.773.836 0 1.636-.637 2.226-1.773l38.492-74.246c2.664-5.149 2.664-13.438 0-18.586zm-79.59 5.11-9.394-18.517c-.883-1.746-1.25-4.23-.969-6.605s1.164-4.32 2.356-5.176l15.086-10.812c1.254-.903 2.664-.461 3.703 1.152 1.043 1.617 1.554 4.164 1.351 6.7l-2.8 34.921c-.22 2.695-1.211 4.926-2.567 5.766-1.36.844-2.847.156-3.851-1.781zM65.056 90.746 43.02 104.171c-.926.566-1.93-.149-2.438-1.73-.504-1.583-.379-3.622.305-4.934l24.597-47.453c.754-1.43 1.899-1.793 2.856-.903.953.891 1.508 2.836 1.383 4.852l-2.075 30.77c-.187 2.78-1.199 5.101-2.601 5.953zm4.492 17.066 7.008 36.25c.394 2.03.14 4.316-.649 5.875s-1.972 2.109-3.05 1.421L52.94 138.652c-1.507-.96-2.539-3.629-2.578-6.672l-.18-14.156c-.038-3.207 1.032-6.078 2.63-7.05l12.046-7.337c1.918-1.164 3.977.75 4.68 4.352zM55.684 153.03l16.66 10.645c1.238.785 2.176 2.742 2.476 5.172.305 2.425-.07 4.98-.988 6.754l-18.559 35.722c-.656 1.27-1.644 1.664-2.511 1.008-.864-.66-1.442-2.242-1.465-4.023l-.606-48.301c-.027-2.356.547-4.586 1.54-5.98.996-1.391 2.28-1.774 3.445-1.016zm27.945-41.933 20.832 16.609c.965.773 1.719 2.273 2.082 4.152.367 1.875.309 3.953-.16 5.746l-8.442 32.18c-.543 2.078-1.578 3.528-2.777 3.895-1.2.367-2.422-.395-3.277-2.043l-4.723-9.11c-.379-.73-.672-1.609-.86-2.574l-7.667-39.691c-.524-2.692-.164-5.723.918-7.715 1.082-1.996 2.68-2.57 4.066-1.469zm94.8-6.63-15.304 10.981c-.973.7-2.055.598-2.984-.273-.934-.875-1.637-2.446-1.946-4.34l-1.336-8.2c-.422-2.593-.047-5.425.977-7.32l15.387-28.554c.582-1.075 1.418-1.48 2.195-1.067.777.414 1.383 1.582 1.59 3.075l3.75 27.101c.488 3.578-.52 7.285-2.336 8.578zm-28.265 20.27-16.059 11.52c-.898.64-1.89.605-2.777-.098l-2.578-2.07c-1.508-1.203-2.438-4.121-2.309-7.23l1.493-36.278c.074-1.703.457-3.305 1.086-4.52l9.707-18.75c.933-1.796 2.289-2.53 3.578-1.93 1.285.602 2.312 2.45 2.707 4.868l7.422 45.578c.593 3.649-.407 7.547-2.278 8.89zm-34.832-1.332-5.16-4.144c-1.106-.883-1.926-2.719-2.211-4.946l-6.617-51.796c-.305-2.375.258-4.844 1.375-6.04 1.117-1.195 2.511-.824 3.414.91l14.422 27.81c.773 1.491 1.168 3.554 1.082 5.648l-1.082 26.43c-.094 2.316-.762 4.402-1.797 5.613-1.04 1.207-2.317 1.39-3.434.492zm1.91 14.5 10.781 8.598c1.165.93 2.012 2.918 2.25 5.293l2.051 20.242c.215 2.094-.199 4.242-1.066 5.578-.871 1.34-2.055 1.653-3.082.809l-17.293-14.2c-.953-.785-1.7-2.285-2.055-4.152-.36-1.867-.297-3.933.168-5.71l3.414-13.032c.887-3.39 2.992-4.898 4.824-3.453zm21.969 7.489 7.039-5.051c1.402-1.012 2.988-.34 4.04 1.715l8.874 17.52c1.43 2.823 1.414 7.312-.031 10.105l-12.258 23.632c-.988 1.899-2.441 2.598-3.781 1.82-1.34-.777-2.344-2.91-2.61-5.538l-3.656-36.102c-.348-3.453.656-6.887 2.375-8.129zm52.023-33.84 6.465-.325c1.438-.074 2.774 1.418 3.442 3.852l8.484 30.816c.688 2.485.555 5.504-.336 7.743l-16.734 41.906c-.66 1.66-1.668 2.687-2.758 2.82s-2.156-.644-2.922-2.133l-3.508-6.757c-.84-1.625-1.23-3.918-1.047-6.176l5.274-65.64c.277-3.45 1.808-6.02 3.633-6.106zm-4.218-17.328-4.735-34.2c-.324-2.367.219-4.855 1.332-6.07 1.11-1.215 2.512-.852 3.41.883l16.555 31.941c1.059 2.047 1.379 5.102.82 7.77-.562 2.672-1.898 4.453-3.402 4.531l-10.23.516c-1.754.097-3.313-2.13-3.758-5.371zm-18.223-74.551 1.227 2.375c.468.894.8 2.012.968 3.23l2.617 18.918c.348 2.524-.042 5.207-1.02 7.024L158.497 77.39c-.941 1.742-2.293 2.425-3.562 1.808-1.27-.62-2.282-2.453-2.676-4.847l-3.426-21.059c-.418-2.547-.062-5.328.922-7.223l13.684-26.394c.707-1.363 1.671-2.13 2.675-2.13 1.008 0 1.969.767 2.68 2.13zm-82.223 0 3.024 5.875c.48.933.82 2.097.984 3.37l8.863 69.372c.34 2.644-.129 5.43-1.21 7.2-1.083 1.769-2.594 2.222-3.907 1.171L76.258 92.258c-1.57-1.254-2.508-4.367-2.29-7.598l3.794-56.222c.11-1.567.484-3.02 1.066-4.141l2.375-4.586c.707-1.371 1.672-2.145 2.68-2.152 1.008-.004 1.976.761 2.687 2.125zM26.207 126.949l12.879-7.84c1.133-.691 2.371-.32 3.34.996.965 1.32 1.554 3.43 1.582 5.704l.304 24.101c.032 2.633-.687 5.09-1.878 6.41l-23.29 25.89c-1.484 1.65-3.367 1.173-4.578-1.16l-5.863-11.312c-1.46-2.812-1.46-7.347 0-10.16l15.98-30.836c.426-.824.95-1.437 1.524-1.793zm14.77 105.094-16.372-31.586c-.824-1.59-1.214-3.812-1.062-6.027.152-2.215.836-4.172 1.844-5.293l13.629-15.164c1.152-1.286 2.574-1.309 3.742-.063 1.164 1.246 1.898 3.574 1.93 6.125l.605 48.465c.02 1.313-.238 2.586-.723 3.523-.472.922-1.117 1.442-1.793 1.446-.675.004-1.324-.512-1.8-1.426zm81.335-1.719-20.167-38.894c-1.133-2.196-1.415-5.528-.696-8.29l1.34-5.1c.887-3.442 3.023-4.958 4.867-3.446l25.348 20.808c1.148.942 1.98 2.914 2.219 5.262l.898 8.887c.238 2.344-.144 4.762-1.023 6.457l-7.418 14.297c-.711 1.367-1.676 2.136-2.684 2.136-1.008 0-1.973-.77-2.683-2.136zm82.231 0-7.848-15.129c-1.324-2.558-1.46-6.593-.32-9.457l14-35.09c.781-1.957 2.031-3.015 3.316-2.812 1.282.207 2.422 1.648 3.024 3.828l6.91 25.047c.766 2.793.5 6.207-.66 8.45l-13.067 25.171c-.71 1.363-1.671 2.129-2.68 2.129-1.003 0-1.968-.766-2.675-2.129zm22.586-46.554-18.149-65.903c-.421-1.531-.402-3.367.055-4.855.457-1.492 1.285-2.426 2.188-2.473l2.91-.144c1.039-.055 2.047.718 2.781 2.132l24.39 47.07c1.462 2.813 1.462 7.348 0 10.16l-8.152 15.735c-.847 1.633-2.05 2.395-3.238 2.055-1.191-.34-2.223-1.742-2.785-3.777zm0 0"/></svg>