<svg xmlns="http://www.w3.org/2000/svg" width="250" height="250"><g fill="#0c2342"><path d="M217.367 179.531 125 234.066V197.7l61.574-36.347V52.282l30.793 18.175zm-88.719-70.847h4.407l22.43 22.144v-22.125h5.804v32.625h-4.406l-22.45-22.406v22.308h-5.804v-32.628zm-14.085 32.625-3.34-7.125H93.625l-3.223 7.125h-6.441l15.715-32.625h6.21l15.915 32.625zm-37.415 0h-4.406l-22.449-22.407v22.309h-5.8v-32.629h4.421l22.414 22.148v-22.128h5.8v32.628zM125-2.176 17.305 61.41v127.172L125 252.168l107.71-63.586V61.41zm0 0"/><path d="M96.477 128.328h12.16l-5.989-13.277zm0 0"/></g></svg>