<svg xmlns="http://www.w3.org/2000/svg" width="250" height="250"><linearGradient id="a" x1="38.638" x2="215.414" y1="211.362" y2="34.586" gradientUnits="userSpaceOnUse"><stop offset="0" stop-color="#2c1f9b"/><stop offset="1" stop-color="#5844f1"/></linearGradient><path fill="url(#a)" d="M250 125c0 69.035-55.965 125-125 125S0 194.035 0 125 55.965 0 125 0s125 55.965 125 125zm0 0"/><g fill="#fff"><path d="M148.484 97 65.22 48.941a6.577 6.577 0 0 0-3.93-1.324h-.32a6.59 6.59 0 0 0-4.946 2.442 6.595 6.595 0 0 0-1.351 5.347v139.922a6.866 6.866 0 0 0 3.375 5.805 6.866 6.866 0 0 0 6.71.14l42-24.25a6.613 6.613 0 0 0 2.427-9.039 6.62 6.62 0 0 0-9.04-2.425l-32.242 18.625V65.754l73.97 42.71a6.61 6.61 0 0 0 9.03-2.417 6.615 6.615 0 0 0 .668-5.027 6.64 6.64 0 0 0-3.086-4.02zm0 0"/><path d="m101.516 152.77 83.265 48.058a6.551 6.551 0 0 0 3.93 1.324h.32a6.578 6.578 0 0 0 6.297-7.78V54.448a6.86 6.86 0 0 0-10.086-5.949l-42 24.25a6.615 6.615 0 0 0-2.426 9.04 6.613 6.613 0 0 0 9.04 2.425l32.242-18.63v118.43l-73.97-42.706a6.612 6.612 0 0 0-9.03 2.425 6.615 6.615 0 0 0 2.418 9.036zm0 0"/></g></svg>