<svg xmlns="http://www.w3.org/2000/svg" width="250" height="250"><path fill="#fff" d="M250 125c0 69.035-55.965 125-125 125S0 194.035 0 125 55.965 0 125 0s125 55.965 125 125zm0 0"/><path fill="#111" d="M129.012 94.617c10.449 0 18.472 3.473 24.062 10.418 5.59 6.824 8.383 16.75 8.383 29.79v43.128h-17.5v-43.129c0-8.164-1.394-14.195-4.191-18.094-2.797-4.02-7.473-6.03-14.036-6.03-5.468 0-10.148 2.316-14.039 6.945-3.765 4.507-5.648 10.476-5.648 17.91v42.398h-17.5V96.078h17.5v10.234c1.578-3.042 4.375-5.726 8.383-8.039 4.011-2.437 8.87-3.656 14.586-3.656zm0 0"/><path fill="#ff001f" d="M88.543 65.105h72.914v17.36H88.543zm0 0"/></svg>