<svg xmlns="http://www.w3.org/2000/svg" width="250" height="250"><path fill="#fff" d="M0 0h250v250H0z"/><path fill="#111618" d="m164.277 66.602-27.168 40.343a2.883 2.883 0 0 0 .402 3.914c.548.48 1.259.739 1.989.715a2.867 2.867 0 0 0 1.941-.832l26.735-23.11c.152-.14.344-.234.55-.269a1.08 1.08 0 0 1 1.074.484c.11.18.169.383.165.594v72.641a1.077 1.077 0 0 1-.71 1.008c-.212.074-.435.086-.65.031a1.14 1.14 0 0 1-.546-.344l-80.836-96.78A13.835 13.835 0 0 0 76.656 60h-2.812A13.849 13.849 0 0 0 60 73.852v102.296A13.849 13.849 0 0 0 73.844 190c2.363 0 4.691-.605 6.754-1.762a13.858 13.858 0 0 0 5.039-4.84l27.164-40.343a2.881 2.881 0 0 0 .57-2.035 2.878 2.878 0 0 0-.969-1.88 2.875 2.875 0 0 0-1.988-.714 2.86 2.86 0 0 0-1.941.832l-26.735 23.11c-.152.14-.347.234-.55.269a1.08 1.08 0 0 1-1.074-.484 1.098 1.098 0 0 1-.165-.594v-72.57c0-.22.07-.434.2-.614.124-.18.304-.316.511-.39a1.08 1.08 0 0 1 1.195.312l80.836 96.777a13.798 13.798 0 0 0 4.746 3.625 13.797 13.797 0 0 0 5.833 1.285h2.886a13.84 13.84 0 0 0 9.79-4.055 13.898 13.898 0 0 0 3-4.495 13.859 13.859 0 0 0 1.054-5.301V73.852c0-1.825-.36-3.633-1.063-5.32a13.75 13.75 0 0 0-3.023-4.505 13.718 13.718 0 0 0-4.52-2.996A13.835 13.835 0 0 0 176.07 60c-2.367 0-4.691.61-6.757 1.762a13.878 13.878 0 0 0-5.036 4.84zm0 0"/></svg>