<svg xmlns="http://www.w3.org/2000/svg" width="250" height="250"><path fill="#6366f1" d="M124.883 249.766c68.972 0 124.883-55.91 124.883-124.883C249.766 55.914 193.856 0 124.883 0 55.914 0 0 55.914 0 124.883c0 68.972 55.914 124.883 124.883 124.883zm0 0"/><path fill="#ece9ff" d="M124.879 226.469c56.105 0 101.586-45.48 101.586-101.586 0-56.102-45.48-101.582-101.586-101.582-56.102 0-101.582 45.48-101.582 101.582 0 56.105 45.48 101.586 101.582 101.586zm0 0"/><path fill="#a5b4fc" d="M132.566 178.238H85.97V71.528h46.597c29.59 0 53.356 24 53.356 53.355-.234 29.59-24 53.355-53.356 53.355zm0 0"/><path fill="#6366f1" d="M110.906 178.238h-25.16V71.528h24.93c29.59 0 53.351 24 53.351 53.355.235 29.59-23.761 53.355-53.12 53.355zm0 0"/><path fill="#4338ca" d="M86.898 178.238h-.93V71.528h.93c29.59 0 53.125 24 53.125 53.355 0 29.59-23.765 53.355-53.125 53.355zm0 0"/></svg>