<svg xmlns="http://www.w3.org/2000/svg" width="250" height="250"><g fill-rule="evenodd"><path fill="#d5e20f" d="M250 125c0 69.035-55.965 125-125 125S0 194.035 0 125 55.965 0 125 0s125 55.965 125 125zm0 0"/><path fill="#1e3038" d="M58.316 88.957v83.07l70.121 41.536 70.13-41.536v-83.07l-70.13-41.543zm37-13.965 1.418-.844 31.704-18.773 33.09 19.586v104.61zm72.137 3.485 24.399 14.449v75.12l-24.399 14.458zm-102.422 89.57V92.926l23.653-14.004v103.14zm29.57 17.52V85.015l64.747 102.28-30.91 18.313zm0 0"/></g></svg>