<svg xmlns="http://www.w3.org/2000/svg" width="250" height="250"><path fill="#f4b731" d="M250.3 81.008h-26.886C208.61 33.039 168.81 0 116.313 0H29.984v81.008H0v29.062h29.984v30.477H0v29.062h29.984v80.04h86.328c51.891 0 91.391-32.688 106.575-80.04H250.3v-29.062h-21.375c.531-5.121.758-10.422.758-15.723v-.707c0-4.77-.227-9.453-.606-14.047h21.223zM54.153 25.973h62.16c38.52 0 67.149 22.172 80.364 55.035H54.152zm62.16 197.613h-62.16v-53.977h142.375c-13.37 32.336-41.843 53.977-80.214 53.977zm88.446-98.055c0 5.121-.301 10.156-.906 15.016h-149.7V110.07h149.774c.531 4.77.832 9.72.832 14.754zm0 0"/></svg>