<svg xmlns="http://www.w3.org/2000/svg" width="250" height="250"><path fill="#2853c3" fill-rule="evenodd" d="m164.7 54.691 39.038 22.504a3.277 3.277 0 0 1 1.574 2.723l-.03 91.902-39.012 22.508a3.259 3.259 0 0 1-1.641.442 3.28 3.28 0 0 1-1.64-.442l-38.93-22.476-40.504 23.398v.063l-39.012-22.508a3.295 3.295 0 0 1-1.16-1.203 3.3 3.3 0 0 1-.414-1.618V78.117L81.98 55.61a2.971 2.971 0 0 1 1.56-.445c.55 0 1.089.156 1.558.445l79.597 45.934 39.043-24.348-39.043 24.344-40.582-23.426 40.582-23.422v-.004h.004zm0 0"/><path fill="#60beff" d="M42.969 78.113v91.871a3.3 3.3 0 0 0 .414 1.618c.277.492.676.91 1.16 1.203l39.012 22.507v-93.835zm0 0"/><path fill="#1a4199" d="m164.703 54.688 39.043 22.507c.473.285.863.684 1.137 1.16.273.477.426 1.012.437 1.563v91.871l-40.617-23.394zm0 0"/><path fill="#3ca9e5" d="m83.559 195.25 40.554-23.426-40.554-23.43zM85.098 55.61l79.597 45.933v46.852L42.97 78.117 81.98 55.61a2.971 2.971 0 0 1 1.56-.445c.55 0 1.089.156 1.558.445zm0 0"/><g fill="#2853c3"><path d="m164.703 54.688-40.59 23.425 40.59 23.43zM205.293 171.82l-39.012 22.508a3.27 3.27 0 0 1-3.281 0l-79.566-45.933v-46.918zm0 0"/></g></svg>