<svg xmlns="http://www.w3.org/2000/svg" width="250" height="250"><path fill="#191919" d="M222.45 125c0 54-43.63 97.777-97.45 97.777S27.55 179 27.55 125 71.18 27.223 125 27.223 222.45 71 222.45 125zm0 0"/><g fill="#ffc209"><path d="m156.113 85.379 11.117-19.695 11.903 19.773-11.606-6.598zm0 0"/><path d="m156.113 85.379 11.414-6.52.055.028-.43-13.063zM167.23 65.684l-.078.14.43 13.063 11.55 6.57zM82.3 182.563V65.68l96.833 87.367v29.512l-77.465-69.977v69.98zM164.629 118.816a1.383 1.383 0 0 1-1.383-1.382V96.063a1.383 1.383 0 0 1 2.766 0v21.37c0 .762-.617 1.383-1.383 1.383zM170.617 118.816a1.383 1.383 0 0 1-1.383-1.382V96.063a1.383 1.383 0 0 1 2.766 0v21.37c0 .762-.617 1.383-1.383 1.383zm0 0"/></g></svg>