<svg xmlns="http://www.w3.org/2000/svg" xmlns:xlink="http://www.w3.org/1999/xlink" width="250" height="250"><clipPath id="b"><path d="M0 49h112v201H0zm0 0"/></clipPath><clipPath id="c"><path d="m36.055 174.477 63.28 31.16v25.843L13.13 189.086V67.379L30.179 59l-6.28-9.258L.565 61.207V195.23L111.898 250v-50.535l-69.562-34.219zm0 0"/></clipPath><linearGradient id="a"><stop offset="0" stop-color="#35b7ea"/><stop offset=".13" stop-color="#35b7ea"/><stop offset="1" stop-color="#304ba0"/></linearGradient><linearGradient xlink:href="#a" id="d" x1="-28.35" x2="-27.35" y1="113.39" y2="113.39" gradientTransform="matrix(0 348.98282 400.85865 0 -45393.646 9875.5)" gradientUnits="userSpaceOnUse"/><clipPath id="e"><path d="M46 0h158v48H46zm0 0"/></clipPath><clipPath id="f"><path d="m125.035 12.348 72.16 35.511 6.282-9.261L125.035 0 46.59 38.57l6.281 9.262zm0 0"/></clipPath><linearGradient xlink:href="#a" id="g" x1="-28.35" x2="-27.35" y1="113.39" y2="113.39" gradientTransform="matrix(0 348.98282 400.85865 0 -45324.827 9875.5)" gradientUnits="userSpaceOnUse"/><clipPath id="h"><path d="M46 38h158v49H46zm0 0"/></clipPath><clipPath id="i"><path d="m125.035 50.652 72.16 35.512 6.282-9.258-78.442-38.57-78.445 38.57 6.281 9.258zm0 0"/></clipPath><clipPath id="j"><path d="M138 49h112v201H138zm0 0"/></clipPath><clipPath id="k"><path d="M226.102 49.742 219.82 59l17.051 8.379v121.707l-86.207 42.394v-25.843l63.988-31.485-6.28-9.257-70.27 34.57V250l111.332-54.77V61.207zm0 0"/></clipPath><linearGradient xlink:href="#a" id="l" x1="-28.35" x2="-27.35" y1="113.39" y2="113.39" gradientTransform="matrix(0 348.98282 400.85865 0 -45256.11 9875.5)" gradientUnits="userSpaceOnUse"/><clipPath id="m"><path d="M89 86h72v82H89zm0 0"/></clipPath><clipPath id="n"><path d="M114.195 148.223c-.496.03-.992.03-1.488 0 0 0-.3-.145-.3-.262a4.972 4.972 0 0 1-.204-1.234v-12.024c-.02-.285-.02-.57 0-.855a.964.964 0 0 1 .64-.559h23.637a10.578 10.578 0 0 1 3.38.441c3.035.895 5.144 3.301 5.331 6.086a8 8 0 0 1-.37 3.559c-1.04 2.805-3.977 4.75-7.36 4.879h-23.266m0-28.223c-.484.031-.968.031-1.453 0a.528.528 0 0 1-.336-.293 5.684 5.684 0 0 1 0-1.031v-10.168a4.902 4.902 0 0 1 0-1.266c.024-.222.219-.402.473-.441h22.148c2.082-.059 4.098.633 5.575 1.91 1.058.965 1.691 2.227 1.789 3.559v2.117c-.293 2.797-2.75 5.059-5.942 5.465h-22.39m-12.192-33.688h-.976c-.418.055-.735.368-.743.735v5.734c-.066.363-.421.637-.847.645h-8.07a8.162 8.162 0 0 0-1.45 0 .872.872 0 0 0-.543.382 1.27 1.27 0 0 0 0 .618v11.23a1.27 1.27 0 0 0 0 .617.476.476 0 0 0 .305.324c.328.028.656.028.98 0h4.254a5.74 5.74 0 0 1 1.215 0c.235.055.41.23.442.442.05.555.05 1.117 0 1.676v37.687a7.74 7.74 0 0 1 0 .852.753.753 0 0 1-.258.582.991.991 0 0 1-.656.242h-5.606c-.43 0-.777.3-.777.676v11.875c.097.273.355.476.675.531.497.027.993.027 1.489 0h7.73a.923.923 0 0 1 .68.191c.18.145.277.356.266.57v4.442c.035.29.308.516.644.527h14.18c.332-.046.59-.27.644-.558V162.395c-.05-.274-.05-.551 0-.825a.918.918 0 0 1 .473-.441c.23-.043.473-.043.707 0h2.5c1.723 0 1.824.266 1.855 1.617.036 1.352 0 1.969 0 2.941 0 .97 0 1.293 1.622 1.32h13.035c.777 0 1.113-.26 1.113-.85v-4.235c.059-.367.39-.652.813-.703h1.722c9.992-.696 18.356-6.875 20.766-15.348 1.707-5.785.48-11.93-3.375-16.871l-.406-.531-1.688-2.059a6.408 6.408 0 0 1-.777-.82.393.393 0 0 1 0-.383c.304-.5.64-1 .98-1.473 1.363-1.847 2.328-3.902 2.836-6.054.59-2.578.656-5.223.203-7.82-.61-3.528-2.34-6.837-5-9.555-3.535-3.59-8.437-5.961-13.808-6.672-2.063-.293-2.028-.235-2.028-2.176v-4a3.45 3.45 0 0 0 0-.852.603.603 0 0 0-.34-.293 5.098 5.098 0 0 0-.976 0h-12.73a2.756 2.756 0 0 0-.981 0 .766.766 0 0 0-.473.41 3.51 3.51 0 0 0 0 1.032v4.027c.051.352.051.707 0 1.059a.94.94 0 0 1-.508.41 1.203 1.203 0 0 1-.472 0h-3.375a1.077 1.077 0 0 1-.778-.277.802.802 0 0 1-.27-.692v-5.5c-.046-.363-.39-.648-.812-.676h-13.406"/></clipPath><g clip-path="url(#b)"><g clip-path="url(#c)"><path fill="url(#d)" d="M.566 49.742h111.332V250H.566zm0 0"/></g></g><g clip-path="url(#e)"><g clip-path="url(#f)"><path fill="url(#g)" d="M46.59 0H203.44v47.86H46.59zm0 0"/></g></g><g clip-path="url(#h)"><g clip-path="url(#i)"><path fill="url(#g)" d="M46.59 38.336H203.44v47.86H46.59zm0 0"/></g></g><g clip-path="url(#j)"><g clip-path="url(#k)"><path fill="url(#l)" d="M138.102 49.742h111.332V250H138.102zm0 0"/></g></g><g clip-path="url(#m)"><g clip-path="url(#n)"><path fill="url(#g)" d="M89.137 86.164h72.636v81.14H89.137zm0 0"/></g></g></svg>