<svg xmlns="http://www.w3.org/2000/svg" width="250" height="250"><linearGradient id="a" x1="250" x2="0" y1="0" y2="242.188" gradientUnits="userSpaceOnUse"><stop offset="0" stop-color="#f2dde7"/><stop offset="1" stop-color="#cd5c8c"/></linearGradient><clipPath id="b"><path d="M61.797 57h126.34v146.125H61.797zm0 0"/></clipPath><clipPath id="c"><path d="M103 46.875h76V83h-76zm0 0"/></clipPath><path fill="url(#a)" d="M0 0h250v250H0z"/><path fill-opacity=".2" d="M0 0h250v250H0z"/><g clip-path="url(#b)"><path fill="#fff" d="M98.016 151.164c.757-2.453 1.492-4.789 2.195-7.156 2.254-7.488 4.168-15.04 5.574-22.727 1.606-8.816 2.34-17.687 2.031-26.672-.254-7.347-2.48-14.05-6.086-20.332a156.367 156.367 0 0 0-6.136-9.914c-1.102-1.633-1.383-3.152-.508-4.898.281-.594.508-1.215.816-1.945 1.547.507 3.098.902 4.563 1.492 11.039 4.422 20.219 11.293 27.543 20.73 6.617 8.531 11.8 17.883 16.25 27.625 3.324 7.27 6.222 14.73 8.844 22.278.085.253.195.535.335.957.313-.336.536-.618.79-.899 2.171-2.281 4.562-4.308 7.378-5.8 6.141-3.27 12.254-2.454 17.293 2.308 3.38 3.21 5.606 7.152 7.043 11.52 4.137 12.53 2.336 24.19-5.605 34.722-4.395 5.832-10.363 9.352-17.688 10.309-5.464.703-10.73-.227-15.66-2.617-10.59-5.098-17.574-13.266-20.386-24.758-1.41-5.746-1.016-11.434 1.773-16.785 3.238-6.196 9.434-9.352 16.332-8.364 1.832.254 3.606.73 5.438 1.098-.028-.113-.06-.281-.114-.45-3.633-10.73-7.687-21.292-12.953-31.347-3.633-6.93-7.914-13.434-12.984-19.434-2.844-3.378-6.395-5.492-10.422-7.039a2346.78 2346.78 0 0 0-7.742-2.957c-.114-.027-.2-.058-.426-.113.34.79.621 1.52.93 2.195 2.28 5.043 3.52 10.368 4.199 15.829 1.012 8.195.73 16.39-.254 24.558-1.55 12.645-4.676 24.899-8.422 37.035-.254.817-.508 1.66-.789 2.59.59-.082 1.098-.168 1.633-.223 3.804-.562 7.578-.707 11.293.422 5.832 1.774 9.07 5.86 10.054 11.743.93 5.492-.054 10.789-2.14 15.828-4.703 11.433-13.012 18.957-24.98 22.109-11.575 3.07-22.868-1.605-29.516-11.914-3.38-5.238-5.153-11.012-5.602-17.207-.453-6.535.645-12.758 3.688-18.586 1.886-3.605 4.422-6.676 7.773-9.016 7.574-5.293 16.363-4.168 22.39 2.848.731.984 1.434 1.914 2.255 2.957zm83.925-1.664c-.113-.93-.168-2.25-.394-3.52-.703-3.687-2.055-7.097-4.79-9.828-.929-.93-1.968-1.664-3.237-2.027-.622-.2-1.184-.031-1.579.45-.394.448-.222.929.086 1.35 1.72 2.368 2.676 5.098 3.434 7.887 2.14 7.606 1.61 14.954-1.887 22.079-.027.086-.11.172-.11.254 0 .171-.03.421.056.507.113.086.367.086.507.028.336-.196.649-.45.93-.73 4.703-4.34 6.758-9.802 6.984-16.45zm-65.285 23.602c-.054-.676-.054-1.239-.11-1.801-.198-1.438-.566-2.817-1.41-4-.394-.563-.984-.817-1.66-.621-.62.199-.675.761-.703 1.324-.03.508-.03 1.043-.113 1.55-.367 2.93-1.383 5.688-2.562 8.364-2.93 6.562-7.578 11.492-13.973 14.785-.223.113-.363.422-.531.621.25.113.531.281.785.281.875-.058 1.746-.113 2.594-.28 4.109-.762 7.687-2.65 10.73-5.493 4.281-4.027 6.59-8.984 6.953-14.73zm0 0"/></g><g clip-path="url(#c)"><path fill="#fff" d="M157.89 69.32c-1.1-.648-2.199-1.351-3.324-1.945-5.097-2.73-10.449-4.844-15.855-6.844-9.774-3.66-19.742-6.785-29.797-9.601a4.955 4.955 0 0 1-.453-.14c.254-.142.426-.227.566-.282 7.688-2.621 15.575-4.028 23.711-3.52 12.899.785 24.25 5.293 33.602 14.446 4.168 4.086 7.77 8.648 11.347 13.238.254.336.508.676.79 1.07-1.72.676-3.352 1.324-5.012 1.969-4.028 1.578-8.113 3.043-12.395 3.887-6.87 1.355-13.515.566-19.996-2.028-5.347-2.14-10.137-5.238-14.758-8.617-5.039-3.719-9.941-7.601-15.402-10.73-2.2-1.266-4.48-2.336-6.734-3.52-.336-.168-.672-.308-.985-.535 18.645 2.703 36.782 7.379 54.696 13.152zm0 0"/></g></svg>