<svg xmlns="http://www.w3.org/2000/svg" width="250" height="250"><path d="M124.523.629c-5.054.11-5.98.223-5.98.664 0 .742-.281.703-.73-.11-.368-.593-.422-.593-.786.036-.28.484-.422.52-.507.187-.196-.742-7.215.442-15.891 2.7-.785.222-1.656.628-1.883.925-.223.332-.531.48-.672.367-.644-.554-14.883 6.73-17.351 8.875-.336.297-1.293.852-2.106 1.258-.816.406-2.133 1.371-2.922 2.184a37.344 37.344 0 0 1-2.808 2.476c-5.64 4.29-10.64 9.579-16.48 17.532-3.145 4.289-4.802 6.285-4.942 5.992-.223-.52-1.43 1.293-2.637 3.992-.394.926-.984 1.848-1.293 2.11-.816.663-2.89 5.433-2.668 6.175.113.442.055.555-.254.367-.277-.144-.726.371-1.347 1.555-1.067 2.07-5.305 13.238-5.305 14.016 0 .297-.113.554-.254.554-.336 0-1.32 3.145-1.824 5.918-.227 1.332-.844 4.067-1.348 6.102l-.926 3.7-1.406.222c-.98.183-1.598.074-2.02-.262-.335-.293-1.32-.516-2.163-.516-.868 0-1.625-.183-1.739-.445-.254-.516-8.816-.11-10.136.52-.704.332-1.235.332-2.051.035-1.04-.332-1.18-.293-1.63.48-.417.778-.616.817-1.515.555-2.3-.703-3.984.852-2.668 2.48.79.922 2.555 1.258 6.797 1.368 1.852.035 4.942.183 6.852.37 2.527.184 3.425.15 3.285-.148-.113-.222-.059-.406.082-.406.168 0 .308.184.308.406 0 .258.45.297 1.293.11.872-.149 1.375-.11 1.489.187.14.293.449.293 1.039.035.531-.257 1.12-.257 1.543-.074.73.371 1.515.332 2.332-.11.363-.222.644-.113.898.333.25.48.672.629 1.489.554.617-.074 1.207 0 1.316.149.312.406 2.7.293 2.5-.074-.281-.63 2.305-.887 3.82-.407.926.293 1.516.332 1.63.11.081-.223 1.57-.48 3.253-.63 1.715-.148 3.625-.296 4.297-.37.644-.07 1.266.039 1.348.187.226.516 2.304.407 2.472-.148.14-.371.196-.371.336 0 .223.664 1.235.59 1.235-.074s.59-.739 1.066-.11c.254.332.34.332.34 0 0-.261.14-.445.277-.445.172 0 .281.258.281.555 0 .445.45.52 2.754.406 1.489-.11 2.946-.297 3.227-.442.281-.148 1.18-.039 1.996.22.785.26 2.16.405 3.059.335.87-.074 1.628-.039 1.683.11.086.37 1.32-.075 1.32-.48 0-.185-.113-.333-.28-.333-.141 0-.282-.187-.282-.371 0-.48 1.687-.48 2.25 0 .223.184.309.445.195.59-.086.148-.367.039-.59-.184-.449-.515-1.125-.222-.87.371.113.184 1.011.332 2.05.332 1.04 0 2.387.184 2.977.407.925.332 1.148.296 1.347-.184.336-.777 1.04-.742 2.496.11.844.519 1.32.628 1.547.37.223-.257.73-.222 1.543.036.899.336 1.235.336 1.375-.036.114-.222.899-.48 1.715-.52.84-.034 1.879-.257 2.3-.515.45-.222.731-.258.618-.039-.082.188.309.446.898.555.59.113 1.266.371 1.489.52.226.183 1.574.183 2.949 0 3.902-.446 4.156-.407 3.957.257-.14.446-.027.52.48.258.336-.144 1.04-.219 1.543-.184 2.442.223 3.368.223 4.266-.074.899-.297.957-.258.563.332-.391.594-.336.63.562.371.535-.148 1.121-.406 1.293-.59.363-.37 5.36-.187 6.121.22.45.261.504.187.363-.294-.14-.52 0-.629.73-.629.505 0 1.067.184 1.263.442.254.332.48.332 1.011-.035.535-.407.785-.407 1.32 0 1.012.703 5.137.812 6.376.109.84-.441 1.148-.48 1.683-.11.477.368.7.368.953.036.196-.258.758-.442 1.293-.442.786 0 .926.11.786.59-.168.555 0 .594 1.292.371 3.649-.593 5.055-.703 5.223-.332.11.22.7.48 1.317.63 1.039.257 1.097.218.562-.298-.7-.742-.14-.742 1.32-.074.844.406 1.207.406 2.106-.039 1.012-.48 1.91-.441 2.976.074.364.223.45.114.309-.367-.168-.555.027-.594 2.441-.371 1.743.148 2.5.11 2.246-.11-.25-.261.227-.296 1.461-.187 1.996.223 3.399-.074 3.145-.629-.11-.219.168-.183.617.04.422.222 1.52.48 2.445.515.899.074 1.739.297 1.825.52.113.257.59.257 1.402 0 .816-.223 1.293-.223 1.406 0 .11.222.645.074 1.403-.372 1.46-.851 2.164-.886 2.5-.109.195.48.421.516 1.543.11.843-.258 2.668-.333 5.168-.223 2.355.113 4.406.039 5.25-.22 1.18-.37 1.375-.335 1.628.22.196.52.477.593 1.29.41.562-.149 1.18-.41 1.378-.594.196-.223 1.207-.258 2.442-.11 1.683.22 2.16.15 2.273-.222.196-.668 1.992-.668 1.91-.039-.058.262.223.445.645.445.394 0 .644-.148.535-.37-.086-.22-.027-.368.11-.368.171 0 .312.184.312.406 0 .258.45.332 1.348.184 2.132-.332 2.836-.371 6.09-.074 1.714.148 3.37.445 3.68.668.421.257 1.066.257 2.16-.075 1.687-.445 3.679-.187 3.37.48-.113.259.45.294 1.77.15 1.066-.15 2.36-.262 2.863-.262.617 0 .899-.184.899-.555 0-.555.59-.738.953-.293.281.367 1.347.406 2.164.035a1.831 1.831 0 0 1 1.515.074c.59.297.844.297 1.012-.035.14-.297.617-.37 1.488-.222.786.148 1.29.109 1.29-.114 0-.219.14-.367.308-.367.14 0 .2.184.086.406-.14.332.703.367 3.145.149 1.851-.149 4.914-.336 6.851-.371 4.774-.149 6.29-.48 7.02-1.48 1.207-1.7-.508-3.141-2.754-2.329-.813.297-.98.223-1.488-.594-.477-.812-.672-.886-1.149-.554-.309.222-1.012.296-1.601.187-3.622-.851-10.81-1.223-11.118-.594-.086.188-.843.371-1.687.371-.84 0-1.598.149-1.684.372-.222.48-3.34.48-4.66 0-1.125-.41-1.207-.668-3.93-10.91-.62-2.258-1.379-4.81-1.742-5.735-1.601-4.031-4.492-10.578-4.86-10.945-.222-.223-.39-.594-.39-.778 0-.664-3.031-7.21-4.41-9.617-2.945-4.992-8.367-13.164-8.816-13.312-.282-.11-.59-.48-.672-.852-.14-.555-1.715-2.625-3.793-4.953-1.485-1.703-6.848-6.879-9.207-8.875-1.574-1.332-2.95-2.703-3.117-3.07-.59-1.48-13.141-9.653-15.079-9.84-.53-.035-.953-.258-.953-.48 0-.368-3.707-1.848-8.226-3.255-1.04-.293-2.219-.886-2.668-1.293-.926-.925-4.098-1.886-5.278-1.628-.507.113-1.238-.075-1.742-.407C137.946.887 133.422.48 124.523.63zM139.04 2.55c1.461.37 2.777.629 2.89.52.114-.114.368-.04.563.148.504.515 2.668 1.515 4.238 1.957.758.222 1.516.629 1.688.89.168.293.898.774 1.656 1.145.73.371 1.32.812 1.32.96 0 .446-2.023.407-2.894 0-.617-.331-2.3-.847-5.953-1.886-.617-.183-1.348-.441-1.598-.555-.394-.218-.508-.07-.535.594-.055.813-.055.813-.168.11-.168-1.184-1.262-1.625-5.277-2.22-3.989-.589-5.953-1.034-6.262-1.402-.871-1.148 6.203-1.332 10.332-.261zM124.664 9.8c7.469.074 9.04.222 11.848.926 6.066 1.515 13.73 4.324 16.707 6.101.785.48 1.965 1.11 2.668 1.402 1.488.668 4.043 2.184 4.547 2.739.195.222 1.011.664 1.77 1 .784.332 1.964 1.293 2.667 2.105.7.817 2.328 2.219 3.649 3.145 2.246 1.515 6.148 5.176 6.175 5.77 0 .183-.195.296-.476.296-.254 0-.364-.113-.281-.262.59-.738-12.016-10.464-12.774-9.87-.168.144-.226.109-.14-.114.308-.664-10.446-6.36-12.887-6.879-.282-.035-.649-.183-.817-.332-.363-.297-7.691-2.402-8.422-2.441-.308 0-1.066-.184-1.683-.367-5.168-1.739-21.254-1.555-27.488.292-.618.188-1.235.262-1.348.149-.113-.11-.227-.074-.227.113 0 .145-.418.332-.925.367-1.461.149-5.305 1.516-5.532 1.961-.113.223-.363.297-.617.184-.223-.11-.785-.035-1.234.223-.45.222-1.516.628-2.36.925-2.976 1.036-10.5 5.325-12.636 7.176-.223.219-.727.516-1.121.738a6.331 6.331 0 0 0-1.125.704c-.223.183-1.235.96-2.247 1.738-2.496 1.887-9.066 8.062-10.472 9.8-.617.813-1.207 1.442-1.317 1.442-.394 0-7.246 9.32-9.406 12.758-6.012 9.652-11.094 21.152-14.18 32.176l-1.18 4.18-1.32.144c-.703.113-1.375.113-1.46.039-.11-.04.308-1.887.93-4.067.616-2.222 1.347-4.734 1.597-5.66.254-.925.535-1.738.617-1.847.086-.114.93-2.184 1.856-4.625 2.02-5.325 2.808-7.246 3.816-9.32.422-.887.758-1.813.758-2.145 0-.293.113-.555.226-.555.114 0 .73-.96 1.375-2.144.618-1.145 2.5-4.18 4.157-6.73 1.656-2.516 3.199-4.958 3.425-5.438.336-.703 4.043-5.285 8.114-10.094.59-.742 1.992-2.11 3.062-3.07 1.094-.961 2.414-2.258 3.004-2.922 1.066-1.293 5.5-4.883 9.32-7.543 7.832-5.477 17.493-9.504 27.825-11.614 1.093-.222 2.414-.52 2.949-.703.531-.183 1.207-.257 1.488-.148.281.113 4.406.223 9.125.297zm5.867 3.918c4.465.484 9.352 1.48 13.645 2.886 2.695.852 3.285.926 3.285.48 0-.37.14-.331.508.224.39.628 5.754 3.402 6.57 3.402.11 0 .223-.297.25-.668.027-.441.086-.367.2.223.136.629.898 1.257 3.003 2.515 1.543.926 4.266 2.7 6.035 3.957 1.77 1.258 3.371 2.254 3.567 2.184.195-.074.363.11.363.367 0 .258 1.098 1.406 2.445 2.516 2.188 1.847 5.082 4.734 8.618 8.652.73.777 1.406 1.332 1.488 1.184.113-.149.027-.407-.196-.59-.308-.258-.335-.406 0-.887.196-.336.282-.742.168-.852-.113-.148-.308-.039-.421.223-.168.367-.282.367-.45.035-.113-.222-.113-.515-.027-.629.086-.109.027-.441-.14-.738-.59-.926.195-.48.953.555.535.703.703 1.258.562 1.847-.113.668-.027.817.45.817.308 0 .59.144.59.332 0 .184-.196.293-.45.258-1.04-.11-.563.886 2.05 4.254 5.505 7.101 10.446 16.011 14.462 26.07 2.527 6.363 3.875 10.726 3.875 12.687 0 .813.109 1.551.25 1.7.168.113.254.52.226.886-.058 1.075-3.566 1.371-14.433 1.223l-4.801-.074-1.852-4.363c-3.875-9.063-4.605-10.504-8.144-15.868-4.352-6.656-7.72-10.648-8.676-10.316-.25.074-.39 0-.309-.188.254-.554-.39-1.367-2.695-3.402-1.152-.996-2.469-2.293-2.95-2.848-2.214-2.699-14.26-9.503-16.198-9.132-.422.074-.813.035-.844-.075-.223-.629-2.973-1.96-4.38-2.109l-1.6-.184 2.386 1c1.32.516 2.586 1.11 2.809 1.293.226.184.898.63 1.488.961.562.332 1.039.703 1.039.852 0 .332-.73.148-6.598-1.59-2.472-.703-5.476-1.48-6.683-1.664-2.047-.332-2.696-.594-2.414-.96.054-.075 1.039-.224 2.132-.298 2.051-.11 2.836-.629 1.153-.703-2.695-.148-12.692.148-14.262.406-7.414 1.332-12.664 3.035-16.117 5.215-.617.406-1.207.703-1.348.703-.113 0-1.656.926-3.425 2.035-1.743 1.11-3.258 2.032-3.313 2.032-.281 0-7.078 6.03-9.21 8.175-2.95 2.922-8.2 10.094-7.974 10.872.141.48.028.554-.675.37-.786-.187-.954-.038-1.766 1.551-.508 1-1.348 2.442-1.855 3.22-.504.812-.926 1.663-.926 1.921 0 .297-.422 1.11-.899 1.852-.504.777-1.742 3.55-2.75 6.21l-1.828 4.848H60.34c-2.278 0-4.13.11-4.13.258 0 .297-2.386.184-7.776-.258-3.735-.336-3.649-.148-2.274-4.957 2.02-7.137 6.961-18.933 10.555-25.297 4.383-7.765 10.867-16.53 15.976-21.633 1.407-1.445 1.684-1.886 1.575-2.59-.086-.445 0-.812.168-.812s.308.149.308.367c0 .668.477.371 3.172-1.957a153.776 153.776 0 0 1 3.961-3.293c.926-.738 1.29-1.257 1.316-1.847 0-.743.032-.778.34-.223.281.555.559.441 2.977-1.184 4.21-2.773 10.75-6.214 13.785-7.21 4.465-1.446 7.187-2.555 7.523-3.11.336-.555.368-.515.227.074-.113.52-.059.63.336.48.254-.109.98-.292 1.601-.44.618-.149 1.262-.52 1.457-.852.282-.445.34-.48.368-.074 0 .406.308.445 1.347.257.73-.144 2.47-.332 3.844-.441 1.406-.113 2.586-.297 2.64-.371.227-.297 7.356-.148 10.895.258zM190.56 43.64c5.28 7.726 10.136 17.23 13.898 27.18 2.023 5.324 5.055 15.605 5.055 17.05 0 .406-.223.516-.899.442-.73-.075-1.039-.368-1.402-1.403l-.508-1.297.172 1.407c.168 1.332.14 1.367-.48 1.07-.418-.219-.786-.887-1.04-1.922-.308-1.145-.476-1.441-.671-1.07-.168.367-.196.257-.086-.336.308-1.442-2.274-10.39-5.25-18.196-2.696-6.988-5.727-13.421-8.45-17.898-1.375-2.254-1.488-2.773-.507-2.105.648.48.957.035.675-.965-.086-.368-.898-1.739-1.742-3.032-2.3-3.476-1.289-2.59 1.235 1.075zm-69.516 2.07c.898.184 1.176.148 1.035-.148-.11-.258-.027-.446.227-.446.222 0 .449.149.504.371.058.223.73.223 1.77.035 1.796-.293 6.206-.218 6.937.149.25.148.53.074.644-.149.082-.218.309-.406.45-.406.167 0 .222.149.14.336-.113.184.223.442.703.59 1.57.445.727.812-4.578 1.848-.59.113-1.066.406-1.066.629 0 .48 1.629.187 4.492-.848 2.414-.852 3.984-.89 5.613-.149.649.293 1.238.516 1.348.48.226-.073 2.023.665 3.285 1.368.48.258 1.488.777 2.246 1.11.789.37 2.105 1.074 2.95 1.59 1.46.85 1.515.925.843 1.222-.59.258-.535.293.309.184.562-.11 1.152 0 1.289.183.14.188.648.406 1.125.445.476.036.812.184.757.297-.113.293 1.235 1.957 2.079 2.512.335.262.562.594.476.816-.113.184.168.333.563.333.87 0 1.742.738 4.351 3.699 1.012 1.11 2.3 2.441 2.89 2.883.563.48 1.04 1.035 1.04 1.222 0 .145.2.219.422.11.308-.149.367-.075.281.332-.113.332.254.96.984 1.738.618.668 1.094 1.258 1.036 1.367-.223.262 1.519 2.332 1.769 2.148.14-.113.309-.039.395.145.113.188.054.445-.086.594-.168.11-.223.441-.11.738.11.406-.058.555-.648.555-.45 0-1.008.187-1.235.406-.308.262-.027.297 1.012.148 1.403-.222 1.461-.222 2.328 1.184 1.293 2.07 1.293 2.07-1.515 2.55-.926.15-1.43.337-1.094.411.309.074 1.32 0 2.246-.223 1.602-.332 1.684-.297 2.273.63.336.554.676 1.366.786 1.847.086.48.535 1.555.984 2.367 1.32 2.402 1.234 2.55-1.965 3.031-.535.075 0 .114 1.207.04 2.133-.075 2.192-.075 2.582.96.227.555.422 1.11.422 1.184 0 .332-5.476-.184-5.98-.555-.336-.222-.786-.148-1.403.258-.648.445-2.36.703-6.234 1-7.047.555-7.695.516-8.817-.258-.843-.554-1.433-.594-4.718-.37-2.524.183-3.735.148-3.735-.114 0-.219.34-.48.79-.555 1.093-.258-3.876 0-6.458.336-1.21.149-2.191.367-2.191.48 0 .223-14.32.258-14.602.075-.082-.074-2.863-.149-6.175-.188-3.594-.074-6.516-.258-7.215-.554-.871-.332-1.32-.332-1.883 0-.531.336-.813.336-1.094 0-.308-.332-.59-.293-1.207.148-.676.48-1.433.555-4.242.332-3.004-.219-3.594-.144-4.492.445-1.18.739-1.906.778-7.16.332-2.047-.183-3.508-.441-3.426-.629.113-.222-.617-.257-1.738-.109-1.489.184-2.133.11-2.754-.332-.532-.336-.98-.445-1.262-.223-.254.149-1.516.332-2.836.407-1.32.035-2.695.222-3.059.406-.421.223-.761.184-.87-.035-.114-.262-.508-.262-1.239 0-.586.219-1.121.332-1.176.219-.086-.07 0-.625.168-1.18.168-.594.223-1.297.14-1.594-.112-.441-.085-.441.25-.11.282.298.9.333 2.165.11l1.797-.367-1.602-.04c-.898 0-1.629-.222-1.629-.405 0-.59 1.434-3.329 1.743-3.329.14 0 .195-.148.082-.37-.141-.258.62-2.106 1.546-3.77.082-.149 1.489-.48 3.086-.703 2.809-.407 6.77-1.367 5.899-1.407-.227-.035-1.77.223-3.426.555-1.629.297-3.398.52-3.875.445l-.871-.113 1.32-2.031c.899-1.371 1.516-2 1.883-1.926.45.074.477 0 .223-.441-.282-.406.027-1 1.574-3.07 4.184-5.587 5.223-6.696 6.625-6.954.73-.148 1.402-.445 1.516-.664.113-.222-.082-.297-.59-.113-.422.148-.73.074-.73-.148 0-.184.113-.368.226-.368s.926-.816 1.77-1.777c1.683-1.96 2.187-2.328 3.62-2.55a99.326 99.326 0 0 0 2.809-.481l1.824-.297-1.91.039c-1.039.035-1.883-.04-1.883-.188s.985-.921 2.192-1.738c1.207-.812 2.36-1.7 2.554-2.031.196-.297.508-.484.704-.371.421.222 1.292-.778 1.292-1.48 0-.739.758-1.481.98-.962.087.184.028.371-.112.371-.168 0-.309.258-.309.59 0 .668.816.52 2.387-.406 1.574-.926 6.261-2.402 7.664-2.402.789 0 1.46-.188 1.52-.371.054-.223 1.038-.63 2.187-.926 2.023-.48 3.144-.48 5.871.039zm52.531 28.734c1.461 2.625 2.89 5.032 3.172 5.364.254.332.477.812.477 1.109 0 .367.14.367.562.074.309-.222.563-.262.563-.039 0 .188-.2.445-.45.555-.367.187-.226.742.84 3.367 1.239 2.957 1.293 3.105.758 3.512-1.316.925-1.598.554-3.422-4.18-1.797-4.695-3.765-8.836-5.617-11.797-1.152-1.847-1.516-3.105-.535-1.957.422.516.562.555.562.145 0-.813-.476-1.551-.812-1.293-.336.297-.422-.223-.14-.63.363-.445 1.429 1.075 4.042 5.77zM23.922 97.152c-.395.075-.813.332-.953.52-.172.183-.563.332-.899.332-.34 0-1.547.629-2.668 1.367-3.203 2.11-6.207 6.25-8.058 11.242-1.656 4.403-3.031 11.059-2.332 11.356.308.148.308.219.027.441-.418.332-.531 4.735-.195 8.508.308 3.734.984 6.508 2.5 10.648 2.527 6.844 6.765 11.43 11.875 12.836 1.152.293 2.613.555 3.285.516 1.601 0 3.398-.441 3.344-.813-.086-.667 0-1 .25-1 .168 0 .28.262.28.555 0 .297.169.555.395.555.563 0 .813-.63.391-.887-.195-.11-.027-.11.367 0 .477.149 1.262-.148 2.192-.738 1.261-.852 1.402-1.074 1.148-1.703-.363-.887-.363-1.11 0-1.11.168 0 .281.332.281.743 0 1.109.282.921 2.051-1.149 4.574-5.363 7.215-14.016 7.215-23.594 0-8.765-2.527-17.199-6.711-22.558-1.797-2.258-4.996-4.957-5.559-4.66-.195.074-.363.035-.363-.149 0-.851-5.785-1.812-7.863-1.258zm2.3 11.317c.45.594 3.036 1.406 3.036.96 0-.183.14-.331.281-.331.168 0 .277.257.277.554s.141.555.309.555c.14 0 .957.852 1.77 1.848 5.109 6.363 5.054 21.746-.082 27.812-1.602 1.887-3.118 2.59-5.532 2.59-4.07-.039-7.16-3.664-8.367-9.914-1.434-7.395-.309-15.566 2.75-20.043 1.066-1.516 3.09-3.031 4.129-3.031.336 0 .645-.297.73-.742.168-.887.223-.887.7-.258zM86.113 97.559c-5.449 2.476-8.87 9.32-8.48 16.902.199 4.066.476 5.176 2.023 8.137 1.403 2.734 5.278 6.879 6.54 7.023.28 0 .761.336 1.038.703.313.336 1.348 1.297 2.305 2.11 2.273 1.921 3.086 3.882 2.668 6.507-.254 1.407-.227 1.887.11 2.368.226.296.394.777.394 1 0 .738-.617.48-.758-.297-.195-.961-.254-.926-1.402.222-.871.887-1.153.961-2.977.813-2.5-.149-4.914-1.555-7.414-4.328l-1.77-1.922-2.019 5.437-2.05 5.399.816.851c.449.48.98.778 1.207.664.25-.148.308 0 .168.446-.14.554-.059.629.422.48.363-.148.53-.074.449.223-.086.258.195.664.586.887.984.59.984.59 1.011-.594l.028-.996.199.926c.11.515.082 1.035-.086 1.183-.336.293 1.742 1.516 3.848 2.29 2.246.816 3.789 1.038 4.015.554.11-.293.25-.258.422.074.168.371.672.41 2.664.04 5.703-1 9.38-5.25 10.645-12.317.531-3.07.531-7.102 0-9.504-.563-2.477-2.695-6.582-3.344-6.434-.25.074-.45-.039-.422-.187.031-.145.031-.48 0-.7-.054-.628-2.918-3.144-6.062-5.289-2.754-1.886-4.578-3.738-5.168-5.18-.672-1.59-.055-4.546 1.125-5.507.812-.668 3.453-1.555 3.62-1.223.087.149.845.48 1.684.743.844.292 2.22 1.07 3.063 1.773.812.703 1.598 1.144 1.71.96.337-.48 1.684-4.843 1.684-5.472 0-.297.114-.554.227-.554s.422-.778.703-1.739c.45-1.629.45-1.738 0-2.402-.758-1.11-5.055-3.774-6.207-3.848-.562-.039-1.402-.258-1.824-.48-1.18-.594-3.79-.48-5.39.258zM117.926 97.45c-2.64.886-6.29 3.585-5.926 4.362.113.223 0 .297-.254.149-.59-.258-3.113 3.18-4.66 6.36-2.441 4.917-3.79 12.242-3.594 19.156.422 13.98 6.207 24.593 14.63 26.925 2.472.664 3.987.664 6.456 0 5.336-1.48 9.688-6.398 12.356-13.945.925-2.7 2.187-8.281 2.078-9.242-.028-.262.027-.778.168-1.184.363-1.074-.059-9.8-.563-12.058-.98-4.29-1.883-7.285-2.668-9.059-1.77-3.996-5.363-8.582-6.543-8.394-.449.035-.504 0-.222-.262.476-.406 0-.778-2.723-2.145-2.36-1.144-6.18-1.48-8.535-.664zm5.867 12.202c3.117 1.22 5.613 5.73 6.402 11.5.532 3.813.504 6.067-.027 9.801-.45 3.219-1.293 5.77-2.473 7.656-.422.594-.73 1.293-.73 1.516s-.113.406-.281.406c-.141 0-1.008.48-1.938 1.074-1.543.961-1.797 1.036-3.844.778-3.425-.371-5.562-2.184-6.965-5.844-1.742-4.512-2.218-11.574-1.18-17.086 1.462-7.656 6.067-11.762 11.036-9.8zM48.066 125.926v27.922h2.305c2.191 0 2.246-.04 1.824-.668-.504-.703-.644-1.922-.254-1.922.141 0 .422.554.649 1.183l.39 1.22 5.168.112c5.868.11 7.61-.296 10.079-2.257 3.68-2.883 5.59-9.356 4.832-16.235-.563-5.215-2.446-8.765-5.336-10.172-1.825-.886-1.852-1.035-.73-2.328.534-.629 1.402-2.293 1.91-3.625.898-2.402.925-2.59.925-7.285 0-4.14-.086-5.066-.59-6.508-.925-2.625-2.554-4.734-4.605-6.027-1.797-1.074-1.938-1.11-7.13-1.258-4.241-.113-5.335-.074-5.562.332-.195.406-.308.406-.418.035-.086-.293-.73-.441-1.796-.441h-1.66zm11.961-17.383c.535.297 1.211 1.074 1.52 1.738.504 1.035.558 1.63.45 3.809-.087 1.406-.173 2.957-.2 3.441 0 .48-.11.774-.195.664-.086-.11-.563.149-1.094.555-.535.445-1.63.852-2.613.96l-1.684.224v-12.426l1.46.258c.786.148 1.852.48 2.356.777zm2.559 23.336c1.402 1.367 1.879 2.59 1.992 5.066.168 3.22-.336 4.621-2.219 6.285-.843.743-1.57 1.184-1.656 1-.086-.148-1.094-.257-2.246-.257l-2.105.074-.086-4.774c-.028-2.625-.196-4.992-.336-5.21-.14-.223-.14-.594 0-.926.168-.297.28-.961.28-1.442 0-.851 0-.851 2.81-.703 2.246.11 2.945.293 3.566.887zM142.969 101.703c0 3.29.254 4.547.644 3.215.086-.258.172-.184.172.223.028.37-.172.738-.394.851-.227.149-.422.63-.422 1.145 0 .668.113.886.422.703.222-.11.422-.035.422.148 0 .223-.2.371-.422.371-.364 0-.422 2.957-.422 22.743v22.746h2.668c1.797 0 2.668-.149 2.668-.41 0-.293.113-.293.363 0 .254.261 2.668.37 7.469.37l7.078-.035-.059-5.511-.027-5.512-6.008-.074-6.039-.11.031-13.757V115.05l-.617-.778c-.59-.699-.59-.773-.113-.664.644.149.785-.925.449-3.328-.113-.851-.113-1.664.027-1.773.141-.113.254-2.516.254-5.363v-5.141h-1.293c-.757 0-1.207.148-1.093.367.082.188.054.371-.114.371-.14 0-.336-.148-.422-.332-.082-.183-1.32-.37-2.695-.37l-2.527-.036zM167.398 105.953c0 5.957.082 7.953.336 7.953.25 0 .25.11 0 .442-.199.261-.336 1.445-.336 2.699 0 2.035.082 2.332.813 3.144.476.48.785 1 .703 1.149-.2.441-1.207-.074-1.32-.742-.086-.332-.14 7.027-.168 16.347l-.028 16.938 3.227-.074c1.797-.036 3.145-.184 3.063-.371-.086-.184 0-.333.14-.333.168 0 .309.149.309.372 0 .59.898.445 1.457-.258.449-.555.508-.555.508 0 0 .515.644.59 5.753.629h5.758l.028-.852c0-.445.054-1.11.113-1.48.055-.371-.086-.63-.367-.63-.336 0-.364-.109-.114-.44.48-.63.422-1.778-.054-1.778s-.871-.664-.617-.996c.085-.113.335 0 .59.258.363.406.421.11.421-2.368v-2.812H175.54v-11.465h11.82l-.086-5.472-.082-5.434-4.914-.074c-2.695-.04-5.336-.075-5.812-.075l-.926-.039v-2.402c0-1.664-.113-2.406-.336-2.406-.281 0-.254-.11 0-.332.25-.184.363-.848.336-1.739a33.105 33.105 0 0 1-.027-2.847l.027-1.367h1.824c1.434 0 1.856-.149 2.078-.664.254-.594.282-.594.477.035.14.48.254.554.394.258.141-.293.364-.332.59-.149.563.445 1.094.52 1.094.149 0-.184-.113-.442-.281-.555-.336-.293-.363-.922-.055-.922.14 0 .395.406.563.922.308.89.422.926 2.863.926h2.527l.028-4.621c.027-2.555.054-4.883.054-5.18s-.027-.738-.054-.926c-.028-.219-1.461-.367-3.735-.367-2.89 0-3.62.11-3.37.441.448.594.421 1.035-.056 1.035-.59 0-1.12-.996-.671-1.218.195-.11-.172-.223-.817-.223-1.012-.035-1.207.074-1.207.668 0 .406-.14.848-.281.961-.195.148-.254-.074-.113-.703l.172-.961h-10.165zM190.14 103.55v5.548h8.423v8.765c.027 4.844 0 14.903 0 22.375l-.028 13.61h8.168v-44.75h8.426V98.004h-10.277c-6.766 0-10.192.11-10.079.367.082.188.028.371-.113.371-.168 0-.308-.183-.308-.37 0-.22-.899-.368-2.106-.368h-2.105zM218.246 115.902l.027 17.899.563-.223c.39-.11.531-.035.39.223-.113.262-.39.445-.617.445-.308 0-.394.516-.394 2.18 0 2.332.34 3.11.816 2 .254-.594.281-.594.309.148 0 1.11.281 1.996.562 1.774.141-.11.309-.036.422.148.25.555-.984 1.293-1.347.813-.172-.223-.422-.407-.536-.407-.14 0-.226 2.922-.195 6.473v6.473h20.188V142.75h-5.926c-3.258.04-5.98 0-6.008-.074-.168-.219-.254-10.98-.086-11.203.086-.114 2.695-.188 5.813-.188h5.644v-11.168l-3.566.074c-1.993.075-4.578.075-5.754.04l-2.192-.04v-11.093h12.075V98.004h-2.079c-1.937 0-2.078.035-1.937.738.082.406 0 .738-.14.738-.169 0-.45-.332-.618-.738-.281-.703-.59-.738-7.863-.738h-7.55zM14.516 156.84c-.926.222-2.696.41-3.93.484-1.234.035-2.387.184-2.555.293-.168.149-.226.89-.14 1.852l.168 1.55 1.543-.074c.843-.074 1.882-.183 2.304-.293.45-.113.84 0 .98.293.395.852 3.427 1.407 7.497 1.407 3.285 0 3.847.074 3.734.554-.14.406-.027.446.535.184.926-.48 6.88-.184 7.664.336.336.258 1.207.406 1.91.367 1.208-.11 1.294-.035 1.797 1.148.282.704.504 1.145.532.996 0-.144-.196-.812-.45-1.402-.503-1.332-.53-1.258.73-1.703 1.126-.406 1.688-.258 1.688.445 0 .258.196.664.418.926.34.367.422.367.422-.113 0-.371.168-.48.59-.371.395.148.477.297.254.484-.195.145-.367 1.07-.367 2.07-.082 3.215 2.922 11.391 8.144 22.188 1.262 2.7 2.332 5.105 2.332 5.398 0 .262.532 1.332 1.207 2.332a89.928 89.928 0 0 1 2.274 3.7c.59.996 1.262 1.847 1.516 1.847.28 0 .476.297.476.63 0 .331 1.012 2.034 2.246 3.808 2.387 3.402 9.32 11.539 9.742 11.355.114-.039.227.145.227.442 0 .777 1.601 2.441 3.367 3.441.844.516 1.856 1.219 2.277 1.625.418.371.954.594 1.207.48.31-.148.45-.035.45.372 0 .629.054.664 4.011 3.734 1.52 1.148 2.7 2.184 2.614 2.293-.086.113-.59-.148-1.153-.59-1.289-1-1.488-1-.812.035.7 1.035 8.14 5.77 12.351 7.84 1.856.887 3.989 2 4.746 2.442 1.235.703 5.168 1.921 5.7 1.777.113-.04.562.144.984.367.422.258.871.406.98.371.114-.039.395.035.622.184 1.12.554 3.367.851 3.648.48.195-.258.281-.258.281.04 0 .222.926.628 2.02.85 2.613.59 3.062.888 2.219 1.442-.645.48-2.051.223-6.485-1.11-1.32-.405-3.004-.776-3.793-.85-.812-.036-2.074-.52-3.031-1.11-1.656-1.074-4.156-1.922-6.934-2.441-1.488-.258-4.691-1.813-8.367-4.106-.957-.59-1.824-1.07-1.965-1.07-.254.035 1.121 1.441 1.43 1.476.113 0 .73.336 1.406.703 2.078 1.258 10.414 5.512 11.653 5.918.644.258 1.316.332 1.457.223.14-.113 1.347.297 2.668.926 4.27 1.922 13.168 3.547 21.34 3.918 4.578.183 5.671.332 5.953.812.308.48.785.52 3.843.149 1.91-.258 3.848-.63 4.297-.852.45-.219 1.461-.293 2.414-.144 1.125.144 1.602.109 1.602-.223 0-.223.226-.332.562-.223.758.258 9.602-1.922 9.965-2.476.172-.223.535-.371.871-.297.309.074 2.332-.813 4.465-1.961 4.492-2.367 4.52-2.402 4.07-2.773-.335-.297 3.118-2.625 6.04-4.067 2.808-1.371 5.53-3.183 7.101-4.66.844-.813 2.613-2.516 3.934-3.809 1.347-1.332 3.144-2.847 4.011-3.402 1.856-1.184 4.747-4.734 4.747-5.809 0-.406-.196-.812-.422-.96-.532-.258-.532-1.481 0-2.07.254-.298.422-.333.422-.075 0 .223-.141.52-.282.629-.168.11-.281.406-.281.59 0 .222.14.261.281.148.168-.11.282.04.282.332 0 .297.14.668.28.778.337.261 7.02-8.247 7.02-8.95 0-.257.196-.48.422-.48.926 0 4.606-5.25 5.98-8.543.31-.738 1.88-3.7 3.508-6.582 3.313-5.844 5.532-11.059 7.079-16.496.558-2.031 1.261-4.364 1.543-5.176s.812-2.773 1.152-4.363c.59-2.664.672-2.848 1.402-2.848.422 0 1.121-.187 1.57-.406 1.098-.555 6.993-.817 7.669-.336.449.336.562.297.562-.184s.586-.554 3.871-.59c3.68 0 6.461-.48 7.36-1.257.222-.188 1.375-.297 2.554-.223l2.16.11.114-1.442c.195-1.848-.168-2.402-1.32-2.11-.477.114-2.555-.07-4.606-.406-2.047-.367-4.52-.554-5.473-.441-3.144.367-6.207 1.035-6.289 1.406-.14.48-1.656.406-4.129-.223-1.629-.406-2.5-.445-3.453-.148-1.851.555-7.133.332-6.965-.297.2-.629-.25-.629-.644.04-.254.366-1.434.59-4.325.773-8.757.52-16.085.703-16.507.37-.114-.109-2.164-.183-4.578-.222-2.415 0-4.438-.148-4.52-.332-.195-.406-5.477-.555-7.3-.223-.31.075-.731.149-.927.188-.195 0-.28.219-.195.406.223.48-.226.48-.59 0-.367-.48-2.304-.52-8.117-.113-2.89.223-5.164.223-5.754 0-1.066-.367-3.09-.149-3.344.406-.082.223-.363.41-.585.484-.508.11-2.81-1.109-2.81-1.48 0-.445-3.343-.406-5 0-1.597.406-7.523.59-7.804.258-.082-.149-.562-.074-1.039.113-.504.184-2.527.332-4.547.332-1.996-.039-4.773-.039-6.18 0-7.328.035-9.628 0-13.335-.148-2.22-.114-4.688-.371-5.473-.594-2.219-.59-4.324-.293-5.672.777-1.039.813-1.347.887-2.95.668-.983-.148-5.026-.48-9.01-.703-5.337-.332-7.36-.332-7.583-.039-.394.52-1.32.52-1.32 0 0-.258-.195-.293-.477-.148-.812.41-1.066.41-1.011-.075.027-.218-.282-.515-.7-.628-.957-.22-1.742-.184-1.742.113 0 .11-.844.183-1.883.148-1.039-.039-2.046.11-2.218.297-.168.184-.758.332-1.262.293-.535 0-4.8.04-9.52.113-4.714.075-10.445 0-12.773-.148-7.918-.52-15.695-.629-18.477-.188-2.047.297-2.804.297-2.945 0-.48-.996-8.172-1.808-11.148-1.183zm49.558 5.55c0 .258.672.368 1.906.333 1.04-.04 2.024-.04 2.165 0 .168.035.363.074.476.035.113 0 .395.332.59.816.223.442 1.234 2.586 2.246 4.73 1.04 2.184 1.879 4.071 1.879 4.22 0 .628 4.324 7.21 6.402 9.8 5.14 6.36 6.907 8.356 8.2 9.242 1.656 1.149 6.738 5.18 6.738 5.364 0 .074-.25.039-.563-.075-2.355-.812 3.035 2.848 8.145 5.547 4.52 2.332 5.222 2.63 10.105 3.774 4.946 1.183 4.973 1.183 4.578 1.703-.222.293-1.093.184-3.09-.371-1.515-.406-3.113-.778-3.535-.778s-1.546-.406-2.5-.925c-.925-.516-2.5-1.11-3.425-1.328-2.106-.485-3.313-1-6.262-2.704-1.29-.699-2.328-1.218-2.328-1.144 0 .629 9.011 5.289 11.062 5.73.785.188 1.825.52 2.274.743 1.683.886 9.011 2.218 13.308 2.441 2.414.11 4.66.367 4.996.59.45.297 1.434.258 3.512-.035 1.602-.262 3.649-.52 4.574-.594 2.895-.258 8.286-1.887 11.43-3.512 1.684-.851 2.977-1.703 2.89-1.887-.167-.332 2.5-2.183 4.212-2.921 1.855-.778 3.511-1.996 6.402-4.77 1.516-1.445 3.23-2.96 3.793-3.328 1.402-.965 11.117-13.723 12.379-16.274.562-1.148 1.828-3.44 2.808-5.14.985-1.703 2.332-4.402 3.032-6.027.87-2.07 1.406-2.922 1.797-2.922.28 0 .535-.188.535-.371 0-.516 1.797-.442 3.68.148.98.297 1.738.371 1.964.184.504-.442 6.988-.258 6.988.187 0 .149.395.219.872.074.476-.113 1.546-.113 2.359 0 1.46.22 1.488.258 1.266 1.22-.114.554-1.239 3.733-2.473 7.1-3.34 8.985-7.215 16.864-11.766 23.965-.98 1.516-1.77 2.958-1.77 3.254 0 .258-.167.48-.363.48-.476 0-5.304 6.434-5.082 6.766.114.149 0 .262-.28.262-.255 0-.532.258-.618.555-.113.293-.281.555-.45.555-.14 0-1.12.921-2.132 2.07-1.04 1.144-2.164 2.367-2.5 2.738-.309.367-2.332 2.18-4.438 4.028-5.64 4.921-13.417 9.949-19.23 12.43-.844.366-1.602.773-1.687.886-.083.11-.391.258-.7.293-.308 0-2.078.558-3.93 1.223-1.855.628-3.82 1.257-4.355 1.332-.531.109-1.992.406-3.226.703-9.043 2.07-21.871 1.515-30.86-1.258-1.261-.406-2.89-.852-3.676-1-.757-.149-1.46-.406-1.543-.555-.085-.183-.59-.37-1.125-.406-.535-.074-1.093-.297-1.261-.52-.313-.441-1.938-1.254-2.559-1.254-.222 0-.39.258-.39.555 0 .887 9.77 4.473 14.039 5.14.699.11 2.636.481 4.324.774 3.535.668 11.539.89 16.004.446 1.683-.149 3.144-.372 3.254-.446.086-.074.984-.219 1.968-.367 1.008-.113 2.02-.297 2.246-.371.223-.074 1.067-.258 1.825-.371.785-.11 1.601-.293 1.824-.367.226-.075 2.191-.594 4.351-1.11 4.774-1.148 8.004-2.332 12.075-4.437 18.418-9.434 34.168-28.7 43.351-52.996 1.04-2.813 2.301-6.438 2.809-8.137l.926-3.035h1.234c.676 0 1.234.074 1.234.148 0 .371-1.515 5.364-2.636 8.692-.703 2.035-1.293 4.03-1.293 4.402 0 1.55-5.586 12.758-9.801 19.676-1.543 2.55-2.832 4.844-2.832 5.066 0 .258-.14.48-.313.48-.168 0-1.964 2.106-3.984 4.66-3.902 4.919-9.125 10.317-12.41 12.833-1.067.812-3.117 2.367-4.52 3.476-1.433 1.07-4.074 2.883-5.898 4.032-4.438 2.699-4.715 2.882-6.992 3.843-2.778 1.223-3.79 1.813-3.79 2.184 0 .184-.59.59-1.32.926-2.3.96-9.433 3.254-10.613 3.402-2.61.293-3.676.625-3.984 1.18-.227.336-.368.41-.368.148 0-.332-.53-.406-1.878-.258-6.04.555-12.86.63-16.399.149-2.078-.297-4.605-.52-5.672-.52-1.039 0-1.883-.144-1.883-.332 0-.148-.195-.222-.418-.074-.226.113-.421.074-.421-.11s-.985-.519-2.164-.777c-7.243-1.515-19.598-7.617-26.336-12.98-5.278-4.215-7.301-5.953-9.32-8.137-1.657-1.812-2.024-2.07-2.134-1.554-.085.484-.14.37-.171-.258-.028-.63-.504-1.407-1.457-2.403-.758-.812-1.856-2.332-2.446-3.328-.558-1.035-1.77-2.738-2.668-3.847-2.664-3.254-5.867-8.43-8.394-13.536-1.29-2.664-2.582-5.03-2.836-5.324-.418-.445-.477-.406-.477.332 0 .813-.027.852-.562.184-1.094-1.293-3.649-7.32-5.922-13.867-.73-2.145-1.488-3.848-1.688-3.774-.195.074-.25-.148-.136-.515.082-.332-.086-1.332-.395-2.258-.308-.961-.535-1.738-.504-1.813.055-.035 2.246-.148 4.856-.258 2.64-.109 4.773-.222 4.773-.257 0-.258 6.375-.371 6.793-.075.309.223 1.012.184 1.91-.113 1.824-.59 3.793-.664 3.793-.144zm16.14-.038c-.081.148.536.406 1.352.52.786.148 1.907.366 2.47.48.616.109 1.093 0 1.206-.223.422-.887 2.695-.184 2.695.851 0 .368.45.368 2.473-.074 3.844-.816 6.457-.886 6.738-.187.223.52.336.52 1.008-.074.73-.625.817-.625 1.742-.07.536.331.957.44.957.257 0-.187.364-.258.786-.148.449.109 1.43-.04 2.218-.332.786-.297 1.543-.446 1.657-.262.14.148.504.41.812.52s.113.148-.422.074c-.531-.075-1.347.109-1.797.406s-1.12.48-1.488.37c-.39-.112-1.039.075-1.457.333-.394.297-1.039.52-1.406.52-.363 0-.617.109-.504.218.082.149 1.348-.035 2.777-.367 2.95-.668 9.406-1.223 13.422-1.184 5.617.075 7.328.223 7.16.59-.086.188.086.371.422.371.336 0 .504-.183.422-.37-.2-.407-.309-.407 4.773-.555 2.02-.075 4.211-.223 4.883-.332.703-.149 1.375-.075 1.575.148.222.223.449.258.53.074.087-.187.817-.187 1.77 0 .899.184 2.024.258 2.473.149 1.57-.41 3.367-.48 3.535-.149.086.184.649.406 1.266.555 1.039.184 1.066.148.531-.371-.727-.738-.418-1.11.535-.63.813.407 3.34.298 4.184-.183.281-.148.758-.039 1.207.368.59.52.785.558.984.148.309-.664 5.024-.922 5.332-.293.14.332.508.332 1.406.035.926-.297 1.262-.297 1.43.04.14.292.45.257 1.207-.223 1.098-.704 2.668-.852 2.668-.262 0 .445 1.742.484 2.133.039.14-.184 1.32-.406 2.64-.52 1.32-.074 2.133-.035 1.825.114-.309.148.898.222 2.668.148 1.77-.074 3.593-.039 4.015.074l.786.22-.731 1.222c-.39.703-.7 1.367-.7 1.48 0 .7-4.632 8.727-5 8.653-.112-.04-1.46 0-3.003.074l-2.809.11 2.864.187 2.894.218-1.152 1.739-1.153 1.777-2.554.074-2.582.074 2.105.184c1.207.148 2.078.371 1.992.59-.195.777-2.3 3.516-2.695 3.516-.223 0-.418.148-.418.37 0 .184-.648 1.036-1.434 1.848-1.261 1.332-1.601 1.48-2.949 1.48-.84 0-1.515.15-1.515.333 0 .222.449.258.984.148 1.543-.332 1.18.406-1.039 2.219-1.992 1.59-2.133 1.625-5.7 2.07-4.015.516-6.515 1.035-5.054 1.074.477.036 2.274-.187 4.016-.445 1.738-.258 3.226-.37 3.285-.297.336.446-5.926 4.66-6.543 4.438-.113-.035-1.04.445-2.05 1.11-1.04.667-2.106 1.183-2.356 1.183-.395 0-.45.222-.34 1.11.113.628.058 1.108-.082 1.108-.168 0-.281-.257-.281-.554 0-.63.167-.664-4.07.777-4.157 1.406-11.993 2.442-17.016 2.219-4.102-.223-10.922-1.406-11.82-2.07-.282-.223-.759-.371-1.098-.371-.336 0-1.825-.516-3.313-1.11-3.875-1.625-3.594-1.441-3.117-1.848.308-.257.14-.37-.59-.37-1.316 0-5.023-2.18-4.434-2.59.223-.184 1.711-.555 3.313-.887 2.863-.555 3.902-.961 2.5-.961-.395 0-2.246.332-4.102.738l-3.367.778-1.011-.813c-.563-.406-1.012-.664-1.012-.52 0 .114-.223-.035-.477-.406-.281-.332-1.347-1.367-2.414-2.254-1.066-.886-2.078-1.777-2.273-1.996-.168-.187-.985-1-1.828-1.851-1.711-1.739-1.625-1.961.843-2.328.899-.149 1.965-.407 2.387-.63.703-.296.645-.296-.394-.148-.645.11-2.106.297-3.227.406l-2.05.258-.9-1.441c-1.12-1.774-1.12-1.996-.054-1.996.477 0 .84-.184.84-.371 0-.223-.418-.297-1.094-.149-.984.223-1.207.074-2.246-1.144-1.32-1.555-1.348-2.11-.14-2.442.675-.222.617-.258-.477-.297-1.406-.035-1.856-.515-3.68-3.918-1.347-2.554-1.43-2.773-1.008-2.773.196 0 .7.703 1.121 1.59.422.847 1.18 2.031 1.684 2.66.508.594.703.777.422.336-.254-.41-.477-.926-.477-1.11 0-.187-.394-.816-.843-1.406-.954-1.222-1.067-1.703-.364-1.703.504 0 .254-.515-.28-.59-1.294-.113-2.106-.742-2.837-2.109-.476-.813-.898-1.293-.953-1.07-.14.629-.535.554-.73-.188-.114-.332-.028-.738.168-.922.253-.187.195-.297-.227-.297-.672 0-1.684-1.664-1.234-2.035.14-.11 1.796-.148 3.707-.074 1.91.113 3.226.074 2.976 0-.87-.297-.535-.664.617-.703.618-.035 1.067.074.98.223zm0 0"/><path d="M45.344 165.125c-.028.703.058 1.297.168 1.297.113 0 .199.332.226.773.082 1.258 2.582 7.73 2.977 7.621.195-.039.308.258.25.813-.11 1.441 3.062 8.434 6.797 14.976 8.031 14.09 17.828 24.778 30.015 32.766 2.75 1.813 5.473 3.367 6.09 3.516.621.148 1.125.37 1.125.515 0 .223 1.63 1.149 2.051 1.149.418 0 .168-1.149-.281-1.367-.282-.114-2.246-1.184-4.383-2.407-15.274-8.765-28.692-24.187-37.649-43.27-1.011-2.179-1.855-4.066-1.855-4.14 0-.11-.422-1.148-.926-2.332-.535-1.18-1.293-3.289-1.742-4.656-.531-1.664-.926-2.441-1.176-2.332-.199.113-.367.039-.367-.11 0-.187.168-.445.367-.519.196-.11.137-.223-.14-.223-.368-.035-.508-.332-.508-1.11 0-2.366-.98-3.288-1.04-.96zM76.398 181.547c.477.777.872 1.59.872 1.773 0 .188.925 1.516 2.046 2.922 2.473 3.07 3.204 3.848 3.399 3.586.086-.11.336.04.562.371.223.297.364.63.282.738-.254.336 2.05 2.481 2.668 2.481 1.093 0 .617-1-1.434-3.035-1.121-1.11-3.172-3.547-4.578-5.434-3.227-4.328-5.727-6.582-3.817-3.402zM53.121 204.031c0 .297 1.461 2.739 2.445 4.106.196.258.364.812.364 1.183 0 .778 5.699 8.098 9.097 11.688 2.723 2.883 4.098 3.734 4.942 3.031.504-.406.504-.52.086-1.11-.254-.37-.621-.667-.817-.667-.195 0-.394-.11-.449-.293-.027-.149-1.742-2.035-3.762-4.219-1.992-2.18-3.847-4.398-4.043-4.953-.226-.52-.984-1.59-1.683-2.367-.985-1.075-1.489-1.407-1.996-1.258-.504.148-.559.11-.282-.149.59-.554.2-1.367-1.148-2.625a34.39 34.39 0 0 1-1.965-1.886c-.45-.446-.789-.63-.789-.48zm0 0"/></svg>