<svg id="Layer_1" data-name="Layer 1" xmlns="http://www.w3.org/2000/svg" viewBox="0 0 368.47 372.75"><title>ocean</title><path d="M47.13,179.41A19.82,19.82,0,1,1,27.31,159.6a19.82,19.82,0,0,1,19.82,19.81m314.91,0a19.82,19.82,0,1,1-19.81-19.81A19.82,19.82,0,0,1,362,179.41M204.59,257.6a19.82,19.82,0,1,1-19.81-19.81,19.82,19.82,0,0,1,19.81,19.81M125.32,219a19.82,19.82,0,1,1-19.82-19.82A19.82,19.82,0,0,1,125.32,219m157.46,0A19.82,19.82,0,1,1,263,199.23,19.82,19.82,0,0,1,282.78,219M40.7,239.4A13.39,13.39,0,1,1,27.32,226,13.39,13.39,0,0,1,40.7,239.4m314.91,0A13.39,13.39,0,1,1,342.23,226a13.4,13.4,0,0,1,13.39,13.39M198.16,318.65a13.39,13.39,0,1,1-13.38-13.38,13.4,13.4,0,0,1,13.38,13.38M118.9,279a13.39,13.39,0,1,1-13.38-13.39A13.38,13.38,0,0,1,118.9,279m157.46,0A13.39,13.39,0,1,1,263,265.64,13.39,13.39,0,0,1,276.35,279M34.28,286.52a7,7,0,1,1-7-7,7,7,0,0,1,7,7m314.91,0a7,7,0,1,1-7-7,7,7,0,0,1,7,7M191.73,365.79a7,7,0,1,1-7-7,7,7,0,0,1,7,7m-79.26-39.63a7,7,0,1,1-7-7,7,7,0,0,1,7,7m157.46,0a7,7,0,1,1-7-7,7,7,0,0,1,7,7M211,26.78A26.78,26.78,0,1,1,184.24,0,26.78,26.78,0,0,1,211,26.78M211,106a26.78,26.78,0,1,1-26.77-26.78A26.78,26.78,0,0,1,211,106m0,78.2a26.78,26.78,0,1,1-26.77-26.78A26.78,26.78,0,0,1,211,184.24M368.47,106a26.78,26.78,0,1,1-26.78-26.78A26.78,26.78,0,0,1,368.47,106M53.56,106A26.78,26.78,0,1,1,26.78,79.26,26.78,26.78,0,0,1,53.56,106m79.26-39.63A26.78,26.78,0,1,1,106,39.63a26.78,26.78,0,0,1,26.78,26.78m0,78.19A26.78,26.78,0,1,1,106,117.82a26.78,26.78,0,0,1,26.78,26.78M290.28,66.41A26.78,26.78,0,1,1,263.5,39.63a26.78,26.78,0,0,1,26.78,26.78m0,78.19a26.78,26.78,0,1,1-26.78-26.78,26.78,26.78,0,0,1,26.78,26.78" style="fill:#141414"/></svg>