<svg width="300" height="300" viewBox="0 0 300 300" fill="none" xmlns="http://www.w3.org/2000/svg">
<path d="M150.501 299.499C233.067 299.222 299.776 232.065 299.499 149.499C299.222 66.933 232.065 0.224303 149.499 0.500982C66.933 0.777661 0.224292 67.9349 0.500971 150.501C0.77765 233.067 67.9349 299.776 150.501 299.499Z" fill="#0074F0"/>
<path opacity="0.2" d="M243.446 242.848C294.705 191.247 294.449 107.811 242.847 56.5519C191.245 5.29266 107.81 5.54938 56.5508 57.1509L243.446 242.848Z" fill="white"/>
<path d="M143.895 90.955C145.902 90.7499 147.939 90.6448 150 90.6448C182.769 90.6448 209.333 117.209 209.333 149.978C209.333 175.531 193.18 197.312 170.527 205.665L150.395 233.977C196.605 233.764 234 196.238 234 149.978C234 106.539 201.027 70.8017 158.745 66.4279L143.895 90.955Z" fill="white"/>
<path d="M148.094 65.9993C102.582 67.0126 66 104.223 66 149.978C66 192.784 98.0185 228.111 139.412 233.317L156.752 208.931C154.536 209.182 152.283 209.311 150 209.311C117.231 209.311 90.6667 182.747 90.6667 149.978C90.6667 123.719 107.725 101.444 131.365 93.6302L148.094 65.9993Z" fill="white"/>
<path d="M170.528 205.665C193.181 197.312 209.335 175.532 209.335 149.979H234.001C234.001 196.239 196.607 233.765 150.396 233.978L170.528 205.665Z" fill="url(#paint0_linear_432_998)"/>
<path d="M148.094 65.9993C102.582 67.0126 66 104.223 66 149.978C66 149.978 90.6667 150.333 90.6667 149.978C90.6667 123.719 107.725 101.444 131.365 93.6302L148.094 65.9993Z" fill="url(#paint1_linear_432_998)"/>
<path d="M149.849 218.646L192.027 159.251L149.849 184.142L107.695 159.251L149.849 218.646Z" fill="white"/>
<path opacity="0.1" d="M149.85 218.646L192.027 159.251L149.85 184.142V218.646Z" fill="#0074F0"/>
<path d="M149.721 176.259L192.107 151.323L149.721 81.3131L107.334 151.323L149.721 176.259Z" fill="url(#paint2_linear_432_998)"/>
<path d="M149.721 176.259L192.107 151.323L149.721 81.3131L107.334 151.323L149.721 176.259Z" fill="white"/>
<path opacity="0.1" d="M149.721 176.257L107.334 151.323L149.721 81.3131L149.721 176.257Z" fill="#0074F0"/>
<path opacity="0.1" d="M149.721 176.26V131.451L107.334 151.323L149.721 176.26Z" fill="#0074F0"/>
<path opacity="0.1" d="M149.721 176.26V131.451L192.107 151.323L149.721 176.26Z" fill="#0074F0"/>
<defs>
<linearGradient id="paint0_linear_432_998" x1="94.6961" y1="255.228" x2="187.207" y2="194.629" gradientUnits="userSpaceOnUse">
<stop stop-color="#1A82FF" stop-opacity="0.5"/>
<stop offset="1" stop-color="white"/>
</linearGradient>
<linearGradient id="paint1_linear_432_998" x1="195.333" y1="27.334" x2="106.819" y2="91.2886" gradientUnits="userSpaceOnUse">
<stop stop-color="#1A82FF" stop-opacity="0.5"/>
<stop offset="1" stop-color="white"/>
</linearGradient>
<linearGradient id="paint2_linear_432_998" x1="59.544" y1="106.665" x2="133.802" y2="151.982" gradientUnits="userSpaceOnUse">
<stop stop-color="#1C313F"/>
<stop offset="1" stop-color="white"/>
</linearGradient>
</defs>
</svg>
