<svg xmlns="http://www.w3.org/2000/svg" width="250" height="250"><path fill="#1a82ff" d="M125 0c69.035 0 125 55.965 125 125s-55.965 125-125 125S0 194.035 0 125 55.965 0 125 0zm0 0"/><path fill="#fff" d="M170.7 176.473c-10.821 13.257-26.04 19.882-45.657 19.882-19.617 0-34.84-6.625-45.664-19.882-10.828-13.266-16.242-30.41-16.234-51.438.003-21.027 5.414-38.168 16.226-51.43 10.82-13.261 26.043-19.894 45.664-19.89 19.621 0 34.84 6.633 45.656 19.89 10.825 13.258 16.235 30.403 16.239 51.43 0 21.028-5.41 38.176-16.23 51.438zm0 0"/><g fill="#1a82ff"><path d="M124.813 168.637c5.167 0 9.554-1.407 13.171-4.223 3.618-2.812 6.239-6.629 7.86-11.45 1.617-4.82 2.761-9.444 3.426-13.862.667-4.422 1-9.11.996-14.067 0-6.097-.371-11.558-1.11-16.379l-44.492 46.364c4.113 9.074 10.832 13.613 20.148 13.617zM125.258 81.438c-5.164 0-9.555 1.406-13.172 4.218-3.617 2.817-6.234 6.633-7.856 11.45-1.628 4.824-2.773 9.445-3.43 13.867-.667 4.422-1 9.109-.991 14.062 0 3.266.101 6.348.312 9.242l42.438-44.214c-4.121-5.75-9.891-8.626-17.301-8.626zm0 0"/><path d="m66.602 169.234-5.465-5.242 41.433-43.191 5.465 5.242zm78.07-45.07-5.465-5.242 41.438-43.192 5.46 5.243zm0 0"/></g></svg>