<svg xmlns="http://www.w3.org/2000/svg" width="250" height="250"><filter id="a" width="100%" height="100%" x="0%" y="0%"><feColorMatrix in="SourceGraphic" values="0 0 0 0 1 0 0 0 0 1 0 0 0 0 1 0 0 0 1 0"/></filter><mask id="c"><g filter="url(#a)"><path fill-opacity=".2" d="M0 0h250v250H0z"/></g></mask><clipPath id="b"><path d="M0 0h250v250H0z"/></clipPath><linearGradient id="d" x1="92.753" x2="116.696" y1="106.317" y2="127.792" gradientUnits="userSpaceOnUse"><stop offset="0" stop-color="#1d313f"/><stop offset="1" stop-color="#fff"/></linearGradient><path fill="#1e313f" d="M225.195 124.105c.184 54.907-44.175 99.563-99.082 99.747-54.902.187-99.562-44.176-99.746-99.079-.183-54.906 44.176-99.562 99.082-99.75 54.906-.183 99.563 44.18 99.746 99.082zm0 0"/><g clip-path="url(#b)" mask="url(#c)"><path fill="#fff" d="M187.914 186.156c34.082-34.324 33.914-89.77-.414-123.851-34.328-34.082-89.77-33.91-123.852.414zm0 0"/></g><path fill="#fff" d="M179.516 94.824 168.21 83.422l-6.149 6.25c-.027-.024-.05-.047-.074-.07l-5.004 5.05-30.789 31.203-19.48-19.753a26.496 26.496 0 0 0-7.278 15.824l26.758 27.12 30.274-30.687c.39 1.954.586 3.98.586 6.055 0 17.234-14.04 31.273-31.274 31.273-17.238 0-31.273-14.039-31.273-31.273s14.035-31.273 31.273-31.273a31.145 31.145 0 0 1 18.871 6.347l13.403-13.597c-8.739-7.329-19.993-11.77-32.274-11.77-27.71 0-50.27 22.559-50.27 50.27 0 27.734 22.56 50.265 50.27 50.265s50.27-22.554 50.27-50.265c0-7.618-1.711-14.82-4.738-21.29zm0 0"/><path fill="url(#d)" d="m126.195 149.047-26.734-27.125c.586-6.125 3.25-11.621 7.277-15.82l19.48 19.753v23.192zm0 0"/></svg>