<svg xmlns="http://www.w3.org/2000/svg" width="250" height="250"><path fill="#708b96" d="M0 125C0 55.965 55.965 0 125 0s125 55.965 125 125-55.965 125-125 125S0 194.035 0 125zm0 0"/><path fill="#fff" fill-rule="evenodd" d="M70 180h43v-20.582c-15.668-4.934-27-19.262-27-36.168 0-20.988 17.46-38 39-38s39 17.012 39 38c0 16.906-11.332 31.234-27 36.168V180h43v-15.5h-20.906c12.59-9.688 20.656-24.621 20.656-41.375 0-29.203-24.512-52.875-54.75-52.875s-54.75 23.672-54.75 52.875c0 16.754 8.066 31.688 20.656 41.375H70zm0 0"/></svg>