<svg xmlns="http://www.w3.org/2000/svg" width="250" height="250"><path d="M241.75 125.5c0 64.375-52.125 116.5-116.5 116.5S8.75 189.875 8.75 125.5 60.875 8.875 125.25 8.875s116.5 52.25 116.5 116.625"/><g fill="#f3e6ac"><path d="M85.25 94c7.5-8.25 18.25-13.25 31.375-13.25 17.25 0 30.5 8.875 37.375 22.25l45.125 6c-7.625-38.5-40.375-64.25-82.5-64.25-34 0-62 16.625-75.5 43.375zm0 0"/><path d="M168.375 103.125c3.5 6.75 5.375 14.75 5.375 23.375 0 25.5-16.75 45.625-42.875 45.625-26.25 0-43-20.125-43-45.625 0-12.875 4.25-24.25 11.625-32.5l-44.125-5.875c-5.75 11.125-8.875 24.125-8.875 38.25 0 48 36.25 81.625 84.5 81.625s84.25-33.625 84.25-81.625c0-6-.625-11.875-1.625-17.375zm0 0"/></g></svg>