<svg xmlns="http://www.w3.org/2000/svg" width="250" height="250"><path fill="#1a53f0" d="M250 125c0 69.035-55.965 125-125 125S0 194.035 0 125 55.965 0 125 0s125 55.965 125 125zm0 0"/><path fill="#fff" d="M100.398 141.93c-15.96 0-28.902 12.98-28.902 28.988 0 16.012 12.942 28.988 28.906 28.988 15.961 0 28.907-12.976 28.907-28.988 0-16.008-12.942-28.988-28.907-28.988zm0 49.21c-11.125 0-20.148-9.05-20.148-20.21 0-11.164 9.02-20.211 20.148-20.211 11.13 0 20.153 9.047 20.153 20.21-.016 11.153-9.028 20.196-20.153 20.212zm61.735-111.046c-15.965 0-28.906 12.98-28.906 28.988 0 16.012 12.941 28.988 28.906 28.988 15.965 0 28.906-12.976 28.906-28.988 0-16.008-12.941-28.988-28.906-28.988zm0 49.207c-11.125 0-20.153-9.047-20.153-20.207 0-11.164 9.02-20.211 20.153-20.211s20.152 9.047 20.152 20.21c-.02 11.157-9.035 20.188-20.152 20.208zm-61.735-49.207c-13.757-.012-25.625 9.71-28.359 23.234-2.734 13.527 4.414 27.113 17.086 32.484 12.707 5.34 27.418.989 35.18-10.406 7.757-11.394 6.418-26.676-3.203-36.547h8.195v-8.765zm20.157 28.988c0 11.16-9.024 20.211-20.153 20.211-11.132 0-20.152-9.05-20.152-20.211 0-11.16 9.02-20.207 20.148-20.207 11.13 0 20.145 9.05 20.165 20.21h-.008zm0 0"/></svg>