<svg xmlns="http://www.w3.org/2000/svg" width="250" height="250"><clipPath id="b"><path d="M124.902 250c69 0 124.864-55.863 124.864-124.824S193.786.352 124.902.352C56.02.352 0 56.215 0 125.176 0 194.136 55.902 250 124.902 250zm0 0"/></clipPath><filter id="a" width="100%" height="100%" x="0%" y="0%"><feColorMatrix in="SourceGraphic" values="0 0 0 0 1 0 0 0 0 1 0 0 0 0 1 0 0 0 1 0"/></filter><mask id="d"><g filter="url(#a)"><path fill-opacity=".69" d="M0 0h250v250H0z"/></g></mask><clipPath id="c"><path d="M0 0h250v250H0z"/></clipPath><path fill="#f6be4e" d="M124.902 249.648c69 0 124.864-55.863 124.864-124.824C249.766 55.864 193.786 0 124.902 0 56.02 0 0 55.863 0 124.824s55.902 124.824 124.902 124.824zm0 0"/><g clip-path="url(#b)"><g clip-path="url(#c)" mask="url(#d)"><path fill="#e38329" d="M248.39 105.758c15.727 58.773-25.597 121.664-91.55 139.312-65.945 17.645-133.16-16.199-148.887-74.976 30.93 37.453 84.332 53.758 135.7 41.488 54.144-12.934 96.144-55.254 104.738-105.824zm0 0"/></g></g><g fill="#313076"><path d="M83.04 119a7.956 7.956 0 0 1-15.911 0 7.953 7.953 0 0 1 7.953-7.953A7.954 7.954 0 0 1 83.039 119zM182.64 119a7.953 7.953 0 1 1-15.906 0c0-4.395 3.559-7.953 7.953-7.953s7.954 3.558 7.954 7.953zM115.477 124.3c-2.293.106-3.891 1.755-4.036 4.005-.187 2.922 1.137 6.02 3.41 7.851 2.391 1.926 5.563 2.754 8.606 2.797 3.023.047 5.82-.785 8.14-2.707 1.298-1.082 2.173-2.512 2.77-4.074.61-1.61 1.016-2.977.696-4.738-.301-1.692-2.235-2.985-3.875-2.95-5.243.098-10.473-.28-15.715-.183"/></g></svg>