<svg xmlns="http://www.w3.org/2000/svg" width="250" height="250"><path fill="#fff" fill-rule="evenodd" d="M95.547 95a47.506 47.506 0 0 1 45.168-12.535c16.207 4.062 29.097 16.347 33.96 32.363a47.572 47.572 0 0 0-32.495 1.754c-.145-.16-.293-.316-.45-.473-7.097-7.093-18.59-7.09-25.68.016-7.09 7.102-7.093 18.617-.01 25.73.23.23.468.454.71.668a47.886 47.886 0 0 0-1.414 31.762c-15.98-4.87-28.242-17.789-32.293-34.027-4.055-16.242.691-33.422 12.504-45.258zm0 0"/><path fill="#80b9ff" fill-rule="evenodd" d="M36.96 36.54c48.622-48.72 127.454-48.72 176.075 0 27.113 27.108 40.23 65.233 35.555 103.323a76.554 76.554 0 0 0-46.922-20.843 76.78 76.78 0 0 0-20.965-47.184 74.187 74.187 0 0 0-1.34-1.383c-19.437-19.484-47.773-27.098-74.332-19.969s-47.304 27.914-54.418 54.528c-7.117 26.61.485 55.004 19.93 74.48a73.982 73.982 0 0 0 1.59 1.547 76.494 76.494 0 0 0 46.879 20.8 76.849 76.849 0 0 0 20.601 46.806c-37.867 4.523-75.715-8.633-102.652-35.684-48.617-48.715-48.617-127.703 0-176.422zm0 0"/><path fill="#fff" d="M241.7 183.164a47.242 47.242 0 0 0-4.634-11.363c-.125-.235-.265-.461-.398-.688-.164-.285-.34-.57-.516-.851-12.68-20.477-38.617-28.254-60.441-18.117a18.082 18.082 0 0 0-3.691-4.973c-7.04-6.707-18.098-6.684-25.106.058-7.004 6.739-7.48 17.81-1.082 25.13a18.147 18.147 0 0 0 6.05 4.535 47.838 47.838 0 0 0-2.484 29.246 47.104 47.104 0 0 0 4.274 11.504c.176.343.367.69.558 1.03.375.673.766 1.34 1.176 1.993.102.164.211.328.317.488 12.351 19.239 36.597 26.973 57.777 18.434l.07.105a47.76 47.76 0 0 0 25.657-24.78.69.69 0 0 0-.086-.063 47.826 47.826 0 0 0 2.558-31.688zm-39.755 16.422v19.758h-13.148v-19.758h-18.133l24.695-29.664 24.72 29.664zm0 0"/></svg>