<svg xmlns="http://www.w3.org/2000/svg" width="250" height="250"><path fill="#42456f" d="M75.16 159.883c-.695 2.773-2.933 3.445-4.976 1.488l-39.7-37.973c-2.043-1.953-1.593-4.418 1.004-5.48l55.688-22.816c2.594-1.063 4.144.335 3.453 3.105zm0 0"/><path fill="#565c93" d="M42.355 195.973c-2.113 1.863-4.253 1.093-4.75-1.723l-10.882-61.715c-.496-2.812.77-3.52 2.808-1.57l37.785 36.14c2.043 1.954 1.98 5.083-.132 6.95zM87.934 82.816c1.82 2.168 1.191 4.813-1.403 5.875l-55.379 22.692c-2.593 1.062-3.922-.266-2.945-2.95L50.945 45.79c.977-2.684 3.262-3.105 5.086-.937zM29.914 185.48c.496 2.813-.34 3.153-1.855.754L6.582 152.238c-1.52-2.402-1.39-6.246.277-8.543l9.594-13.168c1.668-2.293 3.445-1.867 3.942.946zM23.156 104.59c-.976 2.683-2.492 2.656-3.375-.059L12.445 81.97c-.882-2.715.09-6.512 2.157-8.434L40.75 49.238c2.07-1.922 2.965-1.3 1.996 1.383zM16.25 113.29c.887 2.718.242 6.812-1.43 9.108l-7.508 10.317c-1.671 2.293-2.804 1.84-2.519-1.008l3.602-35.812c.285-2.848 1.238-2.957 2.125-.239zM45.766 32.633c.93 1.105-.004 3.586-2.075 5.508L31.926 49.074c-2.074 1.922-2.403 1.614-.735-.683l9.856-13.594c1.664-2.297 3.789-3.27 4.719-2.164zM120 223.254c-1.41 2.473-3.86 2.566-5.438.203L83.81 177.582c-1.586-2.36-.606-4.527 2.175-4.82l61.797-6.54c2.778-.292 3.895 1.489 2.485 3.962zM107.121 223.297c1.578 2.36.711 3.535-1.933 2.617l-57.93-20.176c-2.645-.922-3.074-3.207-.961-5.074l24.824-21.918c2.117-1.867 5.145-1.469 6.727.895zm0 0"/><path fill="#7fcce2" d="M149.063 155.563c1.824 2.171 1.042 4.187-1.735 4.48l-62.71 6.633c-2.778.293-4.485-1.735-3.79-4.504l15.695-62.59c.696-2.77 2.754-3.266 4.582-1.098zm0 0"/><path fill="#565c93" d="M194.133 209.195c1.824 2.172 1.078 4.43-1.656 5.02l-63.813 13.77c-2.734.59-3.816-.95-2.41-3.423l30.101-52.777c1.41-2.472 4.055-2.719 5.875-.55zM91.477 244.395c-2.461 1.351-6.188.91-8.278-.985l-29.62-26.805c-2.095-1.894-1.645-2.69 1-1.77l50.698 17.657c2.641.922 2.79 2.785.332 4.137zM160.316 246.945c-2.16 1.813-5.964 2.235-8.457.938l-20.68-10.778c-2.484-1.296-2.288-2.843.446-3.433l54.969-11.86c2.73-.59 3.199.41 1.039 2.223zM102.734 248.266c-2.789-.133-3.058-1.348-.597-2.703l11.066-6.083c2.461-1.355 6.512-1.398 9.004-.101l16.164 8.422c2.492 1.297 2.242 2.25-.547 2.12zM204.398 221.414c.93 1.106-.324 3.117-2.789 4.465l-14.57 7.973c-2.465 1.347-2.715.968-.55-.844l12.292-10.305c2.16-1.82 4.688-2.394 5.617-1.289zm0 0"/><path fill="#42456f" d="M167.57 154.902c-2.593 1.063-4.144-.336-3.449-3.105l15.465-61.676c.695-2.773 2.937-3.445 4.98-1.492l39.704 37.976c2.042 1.954 1.593 4.418-1 5.48zm0 0"/><path fill="#565c93" d="M228.027 117.469c.493 2.812-.765 3.52-2.808 1.57l-37.79-36.14c-2.042-1.954-1.98-5.083.133-6.95l24.825-21.918c2.117-1.867 4.258-1.093 4.75 1.727zM203.797 204.219c-.977 2.683-3.262 3.105-5.086.933l-31.902-37.964c-1.825-2.172-1.192-4.813 1.402-5.875l55.379-22.692c2.597-1.062 3.922.262 2.945 2.95zM248.168 97.766c1.516 2.406 1.394 6.25-.277 8.543l-9.59 13.171c-1.672 2.297-3.446 1.868-3.938-.949l-9.527-54.008c-.492-2.816.34-3.152 1.855-.753zM242.305 168.035c.882 2.719-.086 6.512-2.157 8.434l-26.152 24.3c-2.07 1.922-2.965 1.301-1.992-1.382l19.59-53.965c.972-2.684 2.492-2.656 3.379.062zM246.355 154.105c-.285 2.848-1.242 2.958-2.128.239l-5.73-17.633c-.888-2.719-.243-6.813 1.429-9.11l7.515-10.316c1.668-2.293 2.801-1.844 2.516 1.008zM213.7 215.203c-1.669 2.3-3.794 3.274-4.723 2.168-.93-1.105.003-3.586 2.074-5.508l11.762-10.933c2.07-1.922 2.402-1.618.738.683zm0 0"/><path fill="#42456f" d="M170.938 72.422c1.582 2.36.601 4.527-2.176 4.824l-61.793 6.54c-2.778.292-3.899-1.49-2.489-3.962l30.27-53.07c1.41-2.473 3.855-2.567 5.438-.203zm0 0"/><g fill="#565c93"><path d="M183.621 71.254c-2.113 1.867-5.14 1.469-6.723-.895l-29.265-43.656c-1.582-2.36-.715-3.535 1.93-2.617l57.925 20.176c2.645.922 3.075 3.203.961 5.074zM158.223 150.422c-.7 2.77-2.754 3.266-4.578 1.098L105.68 94.44c-1.82-2.168-1.043-4.183 1.738-4.48l62.71-6.633c2.778-.293 4.481 1.734 3.786 4.504zM98.39 78.223c-1.41 2.472-4.05 2.718-5.878.55l-31.899-37.96c-1.824-2.168-1.078-4.426 1.653-5.016l63.812-13.77c2.738-.59 3.82.953 2.41 3.422zM149.473 17.516c-2.645-.922-2.793-2.782-.332-4.137l14.129-7.77c2.46-1.355 6.187-.91 8.28.985l29.618 26.808c2.094 1.895 1.64 2.692-1 1.774zM68.152 28.195c-2.734.59-3.203-.414-1.043-2.222l27.32-22.91c2.16-1.813 5.966-2.235 8.458-.938l20.68 10.777c2.492 1.297 2.288 2.844-.442 3.43zM141.543 10.523c-2.461 1.352-6.512 1.399-9 .102l-16.168-8.426c-2.488-1.297-2.242-2.254.547-2.12l35.09 1.66c2.789.132 3.058 1.347.597 2.702zM55.969 27.309c-2.164 1.812-4.692 2.39-5.621 1.285-.93-1.11.324-3.117 2.789-4.465l14.574-7.973c2.465-1.347 2.715-.968.55.848zM37.258 208.648c1.078-.949 3.496.004 5.37 2.125l10.669 12.063c1.875 2.121 1.578 2.46-.668.754l-13.262-10.102c-2.238-1.707-3.187-3.886-2.11-4.84zM221.434 46.05c1.078-.952 3.043.333 4.355 2.86l7.781 14.934c1.313 2.527.946 2.781-.824.562l-10.055-12.594c-1.77-2.214-2.336-4.808-1.257-5.761zM215.379 36.52c2.238 1.707 3.191 3.886 2.113 4.84-1.078.949-3.496-.005-5.37-2.126l-10.669-12.062c-1.875-2.121-1.578-2.461.668-.75zM32.063 198.191c1.765 2.215 2.332 4.809 1.253 5.762s-3.043-.332-4.355-2.86l-7.781-14.937c-1.317-2.527-.942-2.781.824-.562zm0 0"/></g></svg>