<svg xmlns="http://www.w3.org/2000/svg" width="250" height="250"><linearGradient id="a" x1="88.607" x2="306.701" y1="311.058" y2="92.964" gradientTransform="matrix(.625 0 0 -.625 0 251.25)" gradientUnits="userSpaceOnUse"><stop offset="0" stop-color="#3791cf"/><stop offset=".502" stop-color="#478ccb"/><stop offset="1" stop-color="#5bc1d1"/></linearGradient><path fill="url(#a)" d="M123.563 221.375c-44 0-82.376-29.75-93.313-72.313-.563-2.062-.063-4.312 1.25-6s3.375-2.687 5.5-2.687h26.875c2.938 0 5.5 1.813 6.563 4.5 8.312 22.063 29.687 36.875 53.187 36.875 21.75 0 41.25-12.125 50.938-31.563.75-1.562.875-3.312.312-4.937s-1.688-2.938-3.25-3.688c-3.188-1.562-7.063-.25-8.625 2.875-7.5 15.063-22.563 24.438-39.375 24.438-24.25 0-43.938-19.688-43.938-43.938S99.376 81 123.626 81c16.813 0 31.875 9.375 39.375 24.438a6.377 6.377 0 0 0 8.625 2.874c1.563-.75 2.688-2.062 3.25-3.687s.438-3.375-.313-4.938c-9.687-19.5-29.187-31.562-50.937-31.562-23.5 0-44.875 14.813-53.188 36.875-1 2.75-3.624 4.5-6.562 4.5H37c-2.188 0-4.188-1-5.5-2.688s-1.75-3.937-1.25-6c10.938-42.437 49.313-72.187 93.313-72.187C176.75 28.625 220 71.875 220 125s-43.25 96.375-96.438 96.375zM46.5 154.312c12 31.688 42.5 53.125 77.063 53.125C169 207.438 206 170.438 206 125s-36.938-82.438-82.438-82.438C89 42.563 58.5 64 46.5 95.689h12.688C70.624 70.75 95.874 54.25 123.561 54.25c27.063 0 51.376 15.063 63.438 39.313 2.438 4.874 2.813 10.437 1.063 15.562-1.75 5.188-5.375 9.313-10.25 11.75-10.063 5-22.313.875-27.313-9.188C145.375 101.376 135.062 95 123.625 95c-16.5 0-30 13.438-30 30s13.438 30 30 30c11.5 0 21.75-6.375 26.875-16.688 5-10.062 17.25-14.187 27.313-9.187 4.875 2.438 8.5 6.625 10.25 11.75 1.75 5.188 1.375 10.688-1.063 15.563-12.063 24.25-36.313 39.312-63.438 39.312-27.687 0-52.937-16.438-64.374-41.438zm0 0"/></svg>