<svg xmlns="http://www.w3.org/2000/svg" width="250" height="250"><g fill="#34445b"><path d="m139.246 77.684 31.547-34.086c15.05 2.18 30.195-3.41 35.988-13.274 5.793-9.867.578-21.191-12.394-26.91-12.969-5.719-29.985-4.2-40.438 3.613-10.449 7.813-11.34 19.684-2.12 28.211L112.64 77.52C46.586 82.04-2.82 121.574.18 167.512c2.996 45.937 57.347 82.218 123.722 82.59 66.371.375 121.567-35.297 125.633-81.196 4.07-45.898-44.406-85.976-110.344-91.238zm-14.398 131.714c-33.493 0-61.711-17.324-65.735-40.359-4.02-23.035 17.418-44.523 49.946-50.059 32.523-5.53 65.89 6.633 77.726 28.34-10.012-8.937-27.11-12.48-42.562-8.82-15.45 3.66-25.84 13.715-25.86 25.027s10.336 21.383 25.774 25.07c15.437 3.684 32.55.169 42.593-8.75-9.78 17.79-34.406 29.548-61.882 29.551zm0 0"/><path d="m139.246 77.684 31.547-34.086c15.05 2.18 30.195-3.41 35.988-13.274 5.793-9.867.578-21.191-12.394-26.91-12.969-5.719-29.985-4.2-40.438 3.613-10.449 7.813-11.34 19.684-2.12 28.211L112.64 77.52C46.586 82.04-2.82 121.574.18 167.512c2.996 45.937 57.347 82.218 123.722 82.59 66.371.375 121.567-35.297 125.633-81.196 4.07-45.898-44.406-85.976-110.344-91.238zm-14.398 131.714c-33.493 0-61.711-17.324-65.735-40.359-4.02-23.035 17.418-44.523 49.946-50.059 32.523-5.53 65.89 6.633 77.726 28.34-10.012-8.937-27.11-12.48-42.562-8.82-15.45 3.66-25.84 13.715-25.86 25.027s10.336 21.383 25.774 25.07c15.437 3.684 32.55.169 42.593-8.75-9.78 17.79-34.406 29.548-61.882 29.551zm0 0"/></g></svg>