<svg xmlns="http://www.w3.org/2000/svg" width="250" height="250"><path d="M0 125v125h250V0H0zm106.25-78.188c-4.5 11.063-9.875 30.376-11.5 41.376-.938 6.374-1.375 16.812-.688 16.812.188 0 1-.438 1.813-.938 2.875-1.874 12.25-4.624 19.25-5.687 12-1.75 25.875-.125 36.188 4.375l5.125 2.188-.375-8.876c-.563-12.562-4.125-27.687-11-46.374-1.375-3.75-2.375-6.938-2.25-7.063.687-.688 8.187 5.188 13.437 10.5 6.188 6.25 11.125 12.75 16.188 21.188l3 4.937 5.437-4.625c3.75-3.25 5.375-4.375 5.375-3.625 0 .625-.563 7.813-1.313 16.063-.687 8.187-1.125 15.062-.937 15.25s2.5-1.188 5.188-3.063c7-4.875 6.625-4.75 6.125-2.313-.813 4.188-5.313 16.75-8.438 23.626-2.5 5.5-3 7.25-2.5 8.187.313.625 3.938 6.438 8 12.938l7.875 12.562c.438.688-.688.813-6.438.438-4.625-.313-6.937-.25-6.937.187 0 .313 1.688 5.813 3.688 12.125 5.062 15.688 4.75 14.438 3.375 14-2.125-.625-15.875-3-16.063-2.813-.125.125-1.25 2.313-2.563 4.75-4.25 8.188-13.187 15.375-23.875 19.188-10.937 3.875-29.562 5.063-42.375 2.625-16.624-3.063-29.187-11.25-34.687-22.5-1.125-2.25-2.375-4.125-2.813-4.125s-4.187.688-8.437 1.563c-9.125 1.875-8.375 1.812-7.813.437.5-1.25 5.5-16.75 7.25-22.25l1.126-3.688-6.813.438c-3.813.25-6.875.25-6.875 0 0-.188 3.688-6.313 8.188-13.5s8.062-13.375 7.874-13.813c-.124-.437-2.187-3.562-4.5-7C57 113.5 51.938 103.5 50.376 98.25c-.5-1.75-.813-3.25-.688-3.25.376 0 10.188 4.563 14.188 6.625l2.938 1.5-.25-4.813c-.188-2.687-.438-10.25-.563-16.75l-.313-11.874 4.438 4.687c4.188 4.438 4.438 4.625 5.313 3.438.437-.688 3.062-4.626 5.75-8.75 5.124-7.813 11.062-14.813 16.937-20 3.25-2.876 8.563-6.563 9.438-6.563.25 0-.376 1.938-1.313 4.313zm-12 85.376c-8.875 3.375-14.25 12.375-12.375 20.687 2.813 12.438 17.063 19.25 28.875 13.813 7.063-3.188 10.563-8.188 11-15.625.313-5.438-1-9.063-4.813-13.125-4.374-4.688-7.937-6.25-14.75-6.5-3.812-.125-6.374.125-7.937.75zm47.188 4.75c-1.813.687-4.563 2.5-6.125 4.062-9.063 8.75-6.75 22.25 4.625 27.875 4.312 2.125 12.25 2 16.687-.25 4.563-2.375 6.625-4.313 8.688-8.125 1.625-2.875 1.875-3.938 1.875-8-.063-5.5-1.313-8.5-5.25-12.063-4-3.625-6.063-4.375-11.938-4.625-4.25-.125-6 .063-8.563 1.125zm0 0"/></svg>