<svg xmlns="http://www.w3.org/2000/svg" width="250" height="250"><filter id="a" width="100%" height="100%" x="0%" y="0%"><feColorMatrix in="SourceGraphic" values="0 0 0 0 1 0 0 0 0 1 0 0 0 0 1 0 0 0 1 0"/></filter><mask id="c"><g filter="url(#a)"><path fill-opacity=".2" d="M0 0h250v250H0z"/></g></mask><clipPath id="b"><path d="M0 0h250v250H0z"/></clipPath><linearGradient id="d" x1="281.79" x2="222.19" y1="484.097" y2="245.693" gradientTransform="scale(.31486 .31566)" gradientUnits="userSpaceOnUse"><stop offset=".001" stop-color="#fff"/><stop offset="1" stop-color="#1e313f"/></linearGradient><linearGradient id="e" x1="514.419" x2="568.06" y1="296.094" y2="517.809" gradientTransform="scale(.31486 .31566)" gradientUnits="userSpaceOnUse"><stop offset=".001" stop-color="#fff"/><stop offset=".997" stop-color="#4e5a64"/></linearGradient><path fill="#1e313f" d="M248.426 124.68c.23 68.218-54.746 123.703-122.793 123.933-68.043.227-123.39-54.886-123.617-123.105-.227-68.215 54.75-123.7 122.793-123.93 68.043-.226 123.39 54.887 123.617 123.102zm0 0"/><g clip-path="url(#b)" mask="url(#c)"><path fill="#fff" d="M202.234 201.8c42.254-42.648 42.036-111.554-.504-153.913-42.535-42.364-111.27-42.14-153.523.504zm0 0"/></g><path fill="#fafbfc" d="M136.809 114.047c-1.2-.254-2.364-.473-3.496-.695-15.176-3.063-26.133-5.27-26.133-15.813 0-6.566 6.453-11.809 18.039-11.809 10.297 0 18.547 4.2 23.898 12.09l.79.254 16.464-16.918-.062-.664c-6.579-7.828-14.86-13.258-24.336-16.16a80.848 80.848 0 0 0-3.938-1.043c-.031 0-.062-.031-.094-.031-.472-.094-.945-.192-1.418-.285V47.98H113.98v15.024c-.726.129-1.449.285-2.14.441-.031 0-.094.035-.13.035-10.67 2.524-19.929 8.141-27.202 16.602-3.024 5.113-4.567 11.238-4.567 18.34 0 24.21 18.23 31.914 36.055 36.238 3.274.79 6.547 1.387 9.664 1.957 11.149 2.02 20.781 3.754 20.781 13.856 0 6.25-6.863 14.047-21.222 14.047-8.469 0-15.426-2.84-20.559-8.083-.316-.312-.691-.597-.976-.914l-19.426 13.575-.031.664c2.77 3.281 5.824 6.152 9.16 8.586a48.536 48.536 0 0 0 3.402 2.3c.031 0 .031.036.063.036a48.984 48.984 0 0 0 3.527 1.957c.031.03.062.03.094.062a53.614 53.614 0 0 0 3.62 1.64c.063.032.126.032.188.063 1.23.504 2.457.95 3.746 1.324.067.036.16.036.223.067.566.187 1.164.348 1.73.504.063.031.125.031.192.062.629.157 1.258.317 1.918.473.094.031.191.031.285.062.535.13 1.102.223 1.637.348v15.027h22.511v-15.027c.41-.062.79-.156 1.196-.219.066 0 .16-.03.222-.062a53.017 53.017 0 0 0 4.567-1.235c.754-.25 1.476-.503 2.234-.753 8.281-3.063 15.555-8.176 21.504-15.215 2.203-2.621 4.188-5.492 5.953-8.524.88-3.347 1.32-6.976 1.32-10.922-.03-25.82-19.617-32.957-36.71-36.27zm0 0"/><path fill="url(#d)" d="M84.258 169.664a49.36 49.36 0 0 1-3.117-4.07c-.41-.57-.79-1.168-1.2-1.77-.093-.156-.187-.281-.28-.41-.349-.566-.692-1.137-1.04-1.703-.125-.191-.219-.379-.348-.566-.312-.57-.628-1.106-.945-1.676-.125-.219-.219-.442-.344-.66l-.851-1.707c-.125-.22-.219-.473-.313-.696-.254-.566-.535-1.168-.789-1.734-.094-.223-.187-.473-.281-.695-.254-.598-.504-1.23-.758-1.832-.062-.125-.094-.25-.125-.375-.535-1.391-1.008-2.844-1.449-4.293-.031-.13-.094-.254-.125-.38-.16-.507-.285-1.042-.441-1.577-.094-.415-.22-.79-.317-1.204-.125-.472-.219-.976-.344-1.449-.093-.472-.222-.918-.316-1.39-.094-.473-.188-.946-.281-1.387-.098-.508-.192-1.012-.285-1.516-.063-.441-.157-.918-.22-1.36a24.89 24.89 0 0 1-.222-1.609c-.062-.44-.094-.851-.156-1.292a31.051 31.051 0 0 1-.156-1.77c-.035-.41-.067-.82-.098-1.2a40.906 40.906 0 0 1-.125-2.019c-.031-.347-.031-.664-.062-1.012a97.85 97.85 0 0 1-.063-3.058c0-1.012.031-1.988.063-2.969 0-.316.03-.597.03-.914.032-.695.063-1.36.126-2.055l.094-1.039c.066-.664.128-1.297.19-1.957.032-.316.063-.664.095-.98.093-.79.187-1.547.316-2.305.031-.187.063-.347.063-.535.156-.914.312-1.863.504-2.777.062-.285.124-.57.187-.852.125-.633.285-1.266.41-1.894.094-.348.156-.696.25-1.043.16-.567.285-1.137.442-1.704.093-.347.191-.695.285-1.011.187-.598.375-1.2.566-1.797.094-.285.156-.57.25-.82a56.74 56.74 0 0 1 .883-2.497c.094-.25.219-.535.316-.789.22-.566.438-1.136.692-1.703.156-.347.281-.664.441-.98.219-.473.442-.977.66-1.45.157-.347.317-.663.473-1.011.25-.504.504-.98.754-1.453.16-.281.316-.598.473-.883.41-.727.82-1.453 1.261-2.18-.883 3.38-1.355 7.04-1.355 10.922 0 13.32 5.636 23.484 16.75 30.336.597 12.027 4.094 21.402 10.047 27.492zm0 0"/><path fill="url(#e)" d="M149.086 97.82c3.496 5.18 5.7 11.778 6.52 19.73 2.832 1.356 5.382 2.934 7.554 4.641 8.25 6.47 12.469 15.875 12.469 27.903 0 1.453-.063 2.906-.188 4.293 0-.032.032-.063.032-.094.41-.98.785-1.957 1.164-2.938.093-.28.191-.535.285-.82.25-.722.504-1.45.723-2.176.093-.347.222-.695.316-1.043l.375-1.324c.16-.57.316-1.168.473-1.738.129-.441.222-.883.316-1.324.125-.504.219-1.012.348-1.516.062-.348.156-.664.218-1.012.157-.757.286-1.511.41-2.3.063-.317.094-.602.157-.918.125-.82.254-1.641.347-2.493.032-.191.032-.347.063-.539.094-.789.156-1.578.219-2.336.031-.218.031-.41.062-.629.067-.917.13-1.8.16-2.714 0-.192 0-.38.032-.602.03-.945.062-1.926.062-2.871 0-1.043-.031-2.082-.062-3.125 0-.348-.032-.664-.063-1.012-.031-.691-.062-1.386-.129-2.082-.031-.41-.062-.82-.094-1.199-.062-.602-.093-1.23-.187-1.832-.063-.441-.094-.852-.156-1.293-.067-.566-.16-1.137-.223-1.703-.062-.442-.156-.887-.219-1.328-.093-.535-.191-1.07-.285-1.61-.094-.441-.187-.914-.281-1.355a30.435 30.435 0 0 0-.348-1.547 19.274 19.274 0 0 0-.347-1.36 21.137 21.137 0 0 0-.407-1.484c-.129-.441-.254-.914-.379-1.355-.156-.473-.285-.945-.441-1.422-.156-.441-.285-.883-.441-1.324a22.993 22.993 0 0 0-.504-1.39c-.157-.442-.313-.884-.504-1.325-.188-.442-.344-.883-.535-1.324a47.432 47.432 0 0 0-.567-1.297 15.617 15.617 0 0 0-.597-1.262c-.188-.441-.41-.851-.598-1.293-.191-.41-.41-.82-.629-1.2-.223-.41-.441-.855-.664-1.265-.219-.379-.441-.789-.66-1.168-.25-.41-.473-.82-.723-1.23-.222-.38-.472-.727-.726-1.106-.754-1.132-1.512-2.27-2.329-3.343a53.731 53.731 0 0 0-1.796-2.274zm0 0"/></svg>