<svg xmlns="http://www.w3.org/2000/svg" width="250" height="250"><path fill="#5f45ba" d="M250 125c0 69.035-55.965 125-125 125S0 194.035 0 125 55.965 0 125 0s125 55.965 125 125zm0 0"/><g fill="#fff"><path d="M82.867 70.059c0 4.5-3.644 8.148-8.144 8.148a8.149 8.149 0 0 1 0-16.297c4.5 0 8.144 3.649 8.144 8.149zM54.727 67.645a5.736 5.736 0 0 1-5.735 5.738 5.736 5.736 0 0 1 0-11.473 5.733 5.733 0 0 1 5.735 5.735zM131.379 188.57c32.594-3.867 56.855-31.949 55.95-64.757-.903-32.81-26.68-59.516-59.434-61.583a62.28 62.28 0 0 0-12.274.43 52.324 52.324 0 0 0-15.492 3.914c-5.734 2.785-9.434 7.504-9.434 13.774.016 8.164 6.63 14.777 14.793 14.797 1.395 0 6.11-1.5 7.239-1.875a33.664 33.664 0 0 1 13.398-1.825c16.055 1.004 29.242 13.055 31.684 28.953 2.441 15.899-6.52 31.352-21.532 37.125-15.015 5.778-32.023.317-40.867-13.12-6.805-8.95-5.25-23.208-5.25-23.423-.25-7.328-5.82-13.37-13.101-14.214s-14.086 3.761-16.004 10.836a30.107 30.107 0 0 0-.43 5.363c-1.414 34.457 24.973 63.722 59.39 65.875a57.55 57.55 0 0 0 11.364-.27M74.723 91.445c0 5.832-4.73 10.559-10.563 10.559-5.832 0-10.558-4.727-10.558-10.559 0-5.832 4.726-10.558 10.558-10.558s10.563 4.726 10.563 10.558zm0 0"/></g></svg>