<svg xmlns="http://www.w3.org/2000/svg" fill="none" viewBox="640.25 353.14 1277.47 1208.97">
<rect width="2560" height="1920" fill="none"/>
<path d="M1305.6 1534.25C1608.93 1534.25 1854.84 1288.35 1854.84 985.018C1854.84 681.683 1608.93 435.782 1305.6 435.782C1002.27 435.782 756.364 681.683 756.364 985.018C756.364 1288.35 1002.27 1534.25 1305.6 1534.25Z" fill="black"/>
<path d="M1917.72 1025.39C1917.72 818.103 1764.24 584.479 1583.94 475.111C1741.99 592.495 1850.96 794.626 1850.96 988.74C1850.96 1256.15 1746.55 1496.07 1376.26 1551.04C1725.44 1530.43 1917.72 1311.12 1917.72 1025.39Z" fill="url(#paint0_linear_1_15)"/>
<path d="M811.988 688.693C930.092 575.89 1178.85 400.099 1330.05 400.099C1419.63 400.099 1675.8 519.201 1784.21 717.896C1657.55 364.597 1402.51 353.718 1299.81 353.718C1153.18 353.145 903.276 485.418 811.988 688.693Z" fill="#63C3DF"/>
<path d="M728.116 1104.98C722.981 1395.86 971.742 1568.79 1242.18 1561.92C1020.24 1567.65 815.981 1343.18 728.116 1104.98Z" fill="url(#paint1_linear_1_15)"/>
<path d="M713.282 983.586C713.282 838.144 790.306 695.565 903.276 587.342C1009.97 462.513 1153.18 353.145 1299.81 353.145C1112.1 353.145 907.84 392.655 820.546 620.553C783.46 717.324 640.251 763.705 640.251 872.5C640.251 946.367 699.589 1026.53 728.116 1105.55C726.975 1098.68 726.405 1091.81 725.834 1084.94C717.846 1051.15 713.282 1017.37 713.282 983.586Z" fill="url(#paint2_linear_1_15)"/>
<path d="M725.834 1084.37C726.405 1091.24 727.546 1098.11 728.116 1104.98C815.981 1343.18 1019.67 1567.65 1242.18 1561.92C1290.11 1560.78 1335.18 1556.77 1376.26 1550.47C1365.42 1551.04 1354.01 1551.61 1343.17 1551.61C1081.29 1551.61 789.165 1339.18 725.834 1084.37Z" fill="#342151"/>
<path d="M739.815 1130.77C734.352 1115.67 729.673 1100.38 725.834 1084.94C725.613 1082.57 725.401 1080.2 725.2 1077.83C719.762 1050.04 701.911 976.581 726.545 869.531C748.995 771.975 827.675 657.619 904.822 582.527C939.257 549.638 976.452 522.411 1016.03 498.643C1112.95 437.174 1222.77 400.099 1329.48 400.099C1419.06 400.099 1505.78 428.157 1583.94 475.111C1646.29 521.415 1700.99 580.906 1744.39 647.89C1811.43 750.954 1851.67 871.875 1851.67 989.835C1851.67 1257.24 1747.83 1497.17 1376.97 1552.14C1366.13 1552.71 1355.29 1553.28 1343.88 1553.28C1250.33 1553.28 1146.81 1546.92 1057.35 1500.45C911.03 1424.45 791.021 1279.53 739.815 1130.77ZM1304.94 1521.84C1601.06 1521.84 1841.26 1280.77 1841.26 983.586C1841.26 686.403 1601.06 445.335 1304.94 445.335C1008.83 445.335 768.625 686.403 768.625 983.586C768.625 1280.77 1008.83 1521.84 1304.94 1521.84Z" fill="#342151"/>
<path d="M1289.84 1038.87V1040.94H1289.15V1157.24H1216.26V1040.94H1082.18L1112.44 968.954H1216.26V752.291H1349.66C1442.49 752.291 1505.75 810.437 1505.75 895.579C1505.75 979.337 1442.49 1038.87 1349.66 1038.87H1289.84ZM1289.84 970.338H1346.91C1400.54 970.338 1432.17 940.573 1432.17 895.579C1432.17 850.585 1400.54 820.82 1346.91 820.82H1289.84V968.954V970.338Z" fill="white"/>
<defs>
<linearGradient id="paint0_linear_1_15" x1="1376.59" y1="1012.87" x2="1917.82" y2="1012.87" gradientUnits="userSpaceOnUse">
<stop stop-color="#73C4C1"/>
<stop offset="0.2116" stop-color="#2CB3D1"/>
<stop offset="0.6059" stop-color="#2459A5"/>
<stop offset="1" stop-color="#634594"/>
</linearGradient>
<linearGradient id="paint1_linear_1_15" x1="728.133" y1="1333.66" x2="1242.42" y2="1333.66" gradientUnits="userSpaceOnUse">
<stop stop-color="#73C4C1"/>
<stop offset="0.2116" stop-color="#2CB3D1"/>
<stop offset="0.6059" stop-color="#2459A5"/>
<stop offset="1" stop-color="#634594"/>
</linearGradient>
<linearGradient id="paint2_linear_1_15" x1="640.075" y1="729.098" x2="1299.73" y2="729.098" gradientUnits="userSpaceOnUse">
<stop stop-color="#931D80"/>
<stop offset="0.4702" stop-color="#E9556B"/>
<stop offset="1" stop-color="#EB6534"/>
</linearGradient>
</defs>
</svg>
