<svg xmlns="http://www.w3.org/2000/svg" width="250" height="250"><path fill="#005cc7" fill-rule="evenodd" d="M59.984 132.219v36.117l-7.218.004v28.894H81.66l-.004-7.226h36.117l.004 59.992C54.38 246.395 3.605 195.621 0 132.223zm130.024 0 59.992.004C246.395 195.62 195.621 246.395 132.223 250l-.004-59.992h36.117l.004 7.226h28.894V168.34l-7.226-.004zm-72.23.004 57.784-.004v36.117l-7.222.004-.004 7.222h-86.68l.004-7.222-7.23-.004v-86.68l7.23.004V52.766H52.766V81.66l7.218-.004v36.117L0 117.777C3.605 54.38 54.379 3.605 117.777 0l-.004 59.984h50.563l.004-7.218h28.894V81.66H168.34l-.004-7.23h-50.563zm0 0"/></svg>