<svg xmlns="http://www.w3.org/2000/svg" width="250" height="250"><path fill="#f0e914" d="M32.145 39.73c1.855-5.292 3.542-9.796 5.152-13.578-27.258-2.218-19.324 47.52-28.203 98.059-10.227 58.2 1.203 80.39 18.238 87.3-2.363-7.03-4.289-15.077-5.758-23.765-11.039-35.101-6.597-99.039 10.57-148.016"/><path fill="#ede80a" d="M97.734 101.727c-2.535 18.035-7.191 38.257-13.77 58.175-5.124 15.52-10.827 27.735-16.718 36.586-6.805 11.121-15.246 17.684-24.68 17.684-5.277 0-10.472-.734-15.23-2.676 2.812 8.371 6.23 15.309 10.2 20.16 24.644 30.074 26.198-25.8 52.269-54.152 14.644-15.918 14.699-47.035 7.93-75.777"/><path fill="#eee809" d="M67.242 43.582c3.633 1.672 7.086 4.691 10.172 9.09 8.277 11.816 15.813 29.902 20.324 49.055 4.438-31.559 2.375-56.368-7.34-60.86-10.675-4.93-19.02-6.508-27.039-20.652C53.484 2.8 44.824 8.547 37.31 26.152c.53.04 1.07.106 1.632.188 10.414 1.55 20.36 6.668 28.301 17.242"/><path fill="#dfc31c" d="M32.145 39.73c-17.168 48.977-21.61 112.915-10.57 148.016-4.958-29.383-4.614-66.035 2.378-95.281 9.305-38.953 27.969-55.942 43.29-48.871C59.3 33.008 49.354 27.902 38.932 26.34a32.618 32.618 0 0 0-1.628-.188c-1.618 3.782-3.305 8.285-5.16 13.578"/><path fill="#e6cb23" d="M77.41 52.684c-3.09-4.41-6.535-7.418-10.176-9.09 10.457 13.93 17.41 37.32 17.329 74.59-.067 32.336-6.688 60.914-17.317 78.304 5.883-8.851 11.594-21.066 16.719-36.586 6.582-19.918 11.238-40.14 13.77-58.175-4.508-19.141-12.047-37.239-20.325-49.043"/><path fill="#cda727" d="M67.242 43.582c-15.32-7.043-33.984 9.93-43.289 48.883-6.992 29.262-7.336 65.898-2.371 95.281 1.465 8.688 3.395 16.734 5.754 23.766 4.758 1.925 9.953 2.66 15.23 2.66 9.438 0 17.88-6.563 24.68-17.684 10.633-17.39 17.254-45.968 17.317-78.304.085-37.282-6.872-60.672-17.32-74.602m-1.723 135.18c-11.797 19.14-27.532 10.601-35.149-19.075-7.613-29.675-3.844-67.878 7.586-88.382 12.777-22.926 29.168-13.887 35.148 19.074 5.825 32.137 4.215 69.254-7.585 88.383"/><g fill="#cbb20f"><path d="M144.004 177.625v34.543c-1.098 1.48-2.594 2.71-4.508 3.66-1.91.95-3.832 1.43-5.766 1.43-2.917 0-5.433-1.535-7.535-4.625-2.105-3.086-3.715-7.524-4.824-13.34-1.11-5.8-1.664-12.75-1.664-20.84 0-8.004.555-14.918 1.664-20.73 1.106-5.817 2.7-10.239 4.781-13.286 2.075-3.05 4.532-4.574 7.371-4.574 4.239 0 7.637 3.301 10.188 9.88l-1.094 5.214c-1.43-3.262-2.87-5.617-4.316-7.074-1.446-1.457-3.051-2.176-4.824-2.176-3.54 0-6.266 2.832-8.188 8.5-1.922 5.668-2.887 13.754-2.887 24.234 0 10.707.973 18.887 2.93 24.555 1.95 5.668 4.766 8.5 8.441 8.5 2.832 0 5.461-1.176 7.875-3.5v-24.77h-7.918v-5.628h10.274zM161.586 212.594c-2.008-3.114-3.555-7.578-4.633-13.395-1.082-5.8-1.621-12.683-1.621-20.625 0-7.937.535-14.808 1.598-20.625 1.066-5.812 2.605-10.277 4.613-13.394 2.008-3.114 4.387-4.676 7.14-4.676s5.137 1.562 7.16 4.676c2.024 3.117 3.563 7.566 4.634 13.34 1.062 5.777 1.597 12.632 1.597 20.574 0 7.937-.539 14.824-1.617 20.68-1.082 5.84-2.629 10.331-4.637 13.445-2.007 3.113-4.382 4.68-7.136 4.68-2.723 0-5.09-1.567-7.098-4.68zm14.95-9.785c1.866-5.735 2.8-13.848 2.8-24.34s-.926-18.567-2.777-24.235c-1.856-5.668-4.48-8.504-7.875-8.504-3.368 0-5.993 2.848-7.856 8.555-1.867 5.711-2.8 13.77-2.8 24.184s.933 18.511 2.8 24.285c1.863 5.777 4.488 8.664 7.856 8.664 3.367 0 5.988-2.86 7.851-8.61zM193.742 216.418v-75.684h2.61v69.934h15.496v5.734h-18.106zM221.45 140.734h9.644c4.773 0 8.453 3.262 11.031 9.786 2.586 6.52 3.875 15.84 3.875 27.949 0 12.125-1.297 21.465-3.895 28.054-2.597 6.594-6.265 9.88-11.011 9.88h-9.645zm9.519 69.95c4.07 0 7.133-2.715 9.18-8.13 2.05-5.425 3.074-13.445 3.074-24.074 0-21.332-4.086-32-12.254-32h-6.906v64.204zm0 0"/></g><path fill="#808285" d="M120.469 42.766h12.469c3.144 0 5.59 1.937 7.347 5.8 1.754 3.864 2.633 9.13 2.633 15.79 0 6.656-.89 11.921-2.676 15.785-1.781 3.863-4.219 5.789-7.304 5.789h-8.13v32.52h-4.34zm11.957 34.449c2.078 0 3.644-1.098 4.699-3.305 1.055-2.203 1.578-5.387 1.578-9.57 0-4.102-.523-7.258-1.578-9.465-1.055-2.191-2.617-3.3-4.7-3.3h-7.616v25.624h7.617zM172.934 118.45l-3.196-18.712h-15.164l-3.199 18.711h-4.422l13.352-75.683h3.664l13.394 75.683zM156.05 91.02h12.215l-6.11-36.024zM198.54 79.871l11.413 38.578h-5.137l-8.757-30.394-8.762 30.394h-5.137l11.414-38.683-10.906-36.985h5.094l8.336 28.91 8.293-28.91h5.14zm0 0"/></svg>