<svg xmlns="http://www.w3.org/2000/svg" width="250" height="250"><path fill="#ffd983" d="M222.223 0H69.445c-15.34 0-27.777 12.438-27.777 27.777v166.668h-13.89C12.437 194.445 0 206.883 0 222.223S12.438 250 27.777 250h166.668c15.34 0 27.778-12.438 27.778-27.777V55.555c15.34 0 27.777-12.438 27.777-27.778S237.562 0 222.223 0zm0 0"/><path fill="#e39f3d" d="M55.555 69.445h166.668v-13.89H69.445l-13.89-6.946zm0 0"/><path fill="#ffe8b6" d="M69.445 0c-15.34 0-27.777 12.438-27.777 27.777v170.52c-4.098-2.387-8.809-3.852-13.89-3.852C12.437 194.445 0 206.883 0 222.223S12.438 250 27.777 250s27.778-12.438 27.778-27.777V51.703c4.097 2.387 8.804 3.852 13.89 3.852 15.34 0 27.778-12.438 27.778-27.778S84.785 0 69.445 0zm0 0"/><path fill="#c1694f" d="M83.332 27.777c0 7.668-6.223 13.891-13.887 13.891-7.668 0-13.89-6.223-13.89-13.89 0-7.669 6.222-13.887 13.89-13.887 7.664 0 13.887 6.218 13.887 13.886M41.668 222.223c0 7.668-6.223 13.886-13.89 13.886-7.669 0-13.887-6.218-13.887-13.886 0-7.668 6.218-13.891 13.886-13.891 7.668 0 13.891 6.223 13.891 13.89m166.664-118.054a6.938 6.938 0 0 1-6.941 6.941h-125a6.944 6.944 0 1 1 0-13.886h125a6.94 6.94 0 0 1 6.941 6.945m0 27.777a6.937 6.937 0 0 1-6.941 6.946h-125a6.943 6.943 0 0 1-6.946-6.946c0-3.84 3.11-6.945 6.946-6.945h125a6.937 6.937 0 0 1 6.941 6.945m0 27.778a6.937 6.937 0 0 1-6.941 6.945h-125c-3.836 0-6.946-3.106-6.946-6.945s3.11-6.946 6.946-6.946h125a6.937 6.937 0 0 1 6.941 6.946m0 27.777a6.937 6.937 0 0 1-6.941 6.945h-125c-3.836 0-6.946-3.105-6.946-6.945s3.11-6.945 6.946-6.945h125a6.937 6.937 0 0 1 6.941 6.945"/></svg>