<svg width="500" height="501" viewBox="0 0 500 501" fill="none" xmlns="http://www.w3.org/2000/svg">
<g opacity="0.9">
<path d="M0 261.261C5.70619 390.551 109.519 494.364 238.834 500.045V475.919C238.834 341.798 145.883 262.412 0 261.261Z" fill="black"/>
<path d="M238.834 24.1296V0.0033884C109.519 5.70958 5.70619 109.497 0 238.788C145.908 237.636 238.834 158.25 238.834 24.1296V24.1296Z" fill="black"/>
<path d="M500 238.784C494.269 109.494 390.456 5.70619 261.166 0V24.1262C261.166 158.247 354.092 237.608 500 238.784V238.784Z" fill="black"/>
<path d="M261.166 475.919V500.045C390.481 494.364 494.269 390.576 500 261.261C354.117 262.412 261.166 341.798 261.166 475.919Z" fill="black"/>
</g>
</svg>
