<svg xmlns="http://www.w3.org/2000/svg" xmlns:xlink="http://www.w3.org/1999/xlink" width="250" height="250"><linearGradient id="a"><stop offset="0" stop-color="#17e2cf"/><stop offset="1" stop-color="#5181fd"/></linearGradient><linearGradient xlink:href="#a" id="b" x1="-11.191" x2="133.834" y1="78.13" y2="264.061" gradientUnits="userSpaceOnUse"/><linearGradient xlink:href="#a" id="c" x1="-33.647" x2="111.473" y1="90.407" y2="276.235" gradientUnits="userSpaceOnUse"/><g fill-rule="evenodd"><path fill="url(#b)" d="m247.035 112.957-40.488-69.91c-.332-.965-.938-1.813-1.68-2.594-1.933-2.762-5.23-4.426-8.828-4.426-3.621 0-6.574 1.664-8.86 4.356l-1.628 2.762-43.52 75.527-1.98 3.476c-.219 1.133-.711 2.387-.711 3.747 0 1.378.492 2.546.71 3.84l1.981 3.347 24.867 43.219c1.254 1.812 1.567 3.722 1.567 5.527 0 3.93-1.922 7.715-5.54 9.73-5.28 3.137-12.26 1.282-15.218-4.062l-12.758-21.648-.902-1.77c-1.973-2.742-5.344-4.598-9.082-4.598-3.656 0-7.078 1.856-9.004 4.598l-.918 1.77-31.703 54.527-.113.402c-.957 1.746-1.766 3.754-1.766 5.957 0 6.157 5.203 11.176 11.324 11.176h81.93c8.031 0 18.34-5.816 22.226-12.894l50.094-86.18c3.953-7.11 3.953-18.785 0-25.879zm0 0"/><path fill="url(#c)" d="M109.86 129.738c.3-1.293.788-2.46.788-3.843 0-1.387-.488-2.61-.789-3.743l-1.886-3.472-24.887-43.16c-1.258-1.82-1.629-3.77-1.629-5.676 0-3.832 1.98-7.653 5.535-9.711 5.36-3.067 12.195-1.184 15.301 4.183l12.75 21.57.918 1.802c1.926 2.855 5.348 4.769 9.004 4.769 3.738 0 7.105-1.914 9.078-4.77l.906-1.78 31.649-54.563.136-.25c.996-1.782 1.746-3.887 1.746-6.157 0-6.167-5.12-11.046-11.003-11.046h-82.27c-7.996 0-18.3 5.73-22.184 12.859L3.047 112.957c-4.063 7.094-4.063 18.77 0 25.879l40.414 69.98c.437.871.922 1.793 1.559 2.575 2.03 2.664 5.343 4.43 8.933 4.43 3.524 0 6.61-1.688 8.832-4.387l1.672-2.774 43.516-75.578zm0 0"/></g></svg>