<svg xmlns="http://www.w3.org/2000/svg" width="250" height="250"><g fill="#3ceaaa"><path d="M75.723 111.07c-3.727-3.933-9.774-3.933-13.504 0-3.73 3.934-3.73 10.313 0 14.246l55.855 58.918 13.508-14.246zm0 0"/><path d="M118.496 80.203c3.73-3.933 3.73-10.312 0-14.246-3.73-3.937-9.777-3.937-13.508 0l-42.77 45.113c-3.73 3.934-3.73 10.313 0 14.246s9.778 3.934 13.509 0zm0 0"/><path d="M145.508 108.695c3.73-3.933 3.73-10.312 0-14.246l-27.012-28.492c-3.73-3.934-9.777-3.934-13.508 0-3.73 3.934-3.73 10.313 0 14.246l27.016 28.492c3.726 3.934 9.773 3.934 13.504 0zm0 0"/><path d="M145.508 108.695c3.73-3.933 3.73-10.312 0-14.246-3.73-3.933-9.778-3.933-13.508 0l-42.77 45.114c-3.73 3.933-3.73 10.312 0 14.246 3.73 3.937 9.778 3.937 13.508 0zm0 0"/></g><path fill="#1a5d73" d="M174.371 111.07c3.727-3.933 9.774-3.933 13.504 0 3.73 3.934 3.73 10.313 0 14.246l-55.977 59.047-13.507-14.246zm0 0"/><path fill="#1a5d73" d="M131.598 80.203c-3.73-3.933-3.73-10.312 0-14.246 3.73-3.937 9.777-3.937 13.507 0l42.77 45.113c3.73 3.934 3.73 10.313 0 14.246s-9.777 3.934-13.508 0zm0 0"/><path fill="#1a5d73" d="M104.582 108.695c-3.727-3.933-3.727-10.312 0-14.246l27.016-28.492c3.73-3.934 9.777-3.934 13.504 0 3.73 3.934 3.73 10.313 0 14.246l-27.012 28.492c-3.73 3.934-9.778 3.934-13.508 0zm0 0"/><path fill="#1a5d73" d="M104.586 108.695c-3.73-3.933-3.73-10.312 0-14.246 3.727-3.933 9.773-3.933 13.504 0l42.773 45.114c3.727 3.933 3.727 10.312 0 14.25-3.73 3.933-9.777 3.933-13.508 0zm0 0"/><path fill="#3ceaaa" d="m110.27 86.164 13.488-14.23L145.52 94.89l-13.489 14.23zm0 0"/><path fill="#1a5d73" d="M134.578 177.418c0 5.562-4.277 10.074-9.55 10.074-5.278 0-9.551-4.512-9.551-10.074s4.273-10.074 9.55-10.074c5.274 0 9.551 4.511 9.551 10.074zm0 0"/></svg>