<svg xmlns="http://www.w3.org/2000/svg" width="250" height="250"><path fill="#04d6b4" d="M.098.242h250v250h-250zm0 0"/><g fill="#fff"><path d="M73.242 85.547a23.48 23.48 0 0 1-5.176-4.395V185.06c-.39 9.91 7.325 18.308 17.239 18.699 9.91.39 18.308-7.32 18.699-17.235v-81.738zM197.219 115.527c-5.278-8.449-16.36-10.988-24.809-5.715l-62.305 38.918v36.329c0 2.293-.34 4.543-.976 6.738l82.324-51.465c8.5-5.273 11.04-16.355 5.766-24.805zM76.516 80.371l65.718 41.113 26.953-16.843c2.637-1.664 5.618-2.786 8.692-3.32L95.555 49.85c-8.446-5.273-19.532-2.683-24.805 5.715-5.273 8.399-2.684 19.532 5.766 24.805zm0 0"/></g></svg>