<svg xmlns="http://www.w3.org/2000/svg" width="250" height="250"><g fill-rule="evenodd"><path fill="#f8b233" d="m29.473 144.309 93.293 95.324v-38.211l-93.293-94.715zm0 0"/><path fill="#ffd53d" d="m122.766 11.992-93.293 94.715 93.293 94.715 93.09-94.715zm0 0"/><path fill="#d7811c" d="M122.766 201.422v38.21l92.886-95.527.203-37.398zm0 0"/><g fill="#1d1d1b"><path d="m50.203 105.895 72.563-73.782 72.558 73.782-72.558 73.578zm72.563-86.993-85.57 86.993 85.57 86.992 85.566-86.992zm0 0"/><path d="M124.188 58.129v93.902l46.34-46.949zm8.94 22.36 24.392 24.593-24.391 24.594zm0 0"/></g></g></svg>