<svg xmlns="http://www.w3.org/2000/svg" width="250" height="250"><path fill="#00bfff" fill-rule="evenodd" d="M250 125c0 69.035-55.965 125-125 125S0 194.035 0 125 55.965 0 125 0s125 55.965 125 125"/><g fill="#fff"><path d="M77.086 154.137H76.5v24.308H62.574V96.133h13.633v3.785h.527c4.758-4.484 10.817-4.606 14.207-4.606 14.235 0 23.586 13.368 23.586 31.223v2.317c0 18.582-10.816 29.656-23.824 29.656-6.09 0-10.613-1.371-13.617-4.371zm24.508-24.192v-4.054c0-11.625-4.489-19.418-12.52-19.418-8.672 0-13.308 9.05-13.308 19.402v4.027c0 9.887 4.578 17.446 13.546 17.446 7.051 0 12.282-5.426 12.282-17.403zM121.488 71.441h13.926v86.282h-13.926zM174.934 109.098c-7.852 0-15.637 6.129-15.637 13.875v34.797h-13.93V96.074h12.895v3.79h.527c3.137-3.243 10.8-4.766 17.098-4.688.625.008.113.015.715.015l.066 13.883zM169.059 142.941h13.93v14.774h-13.93zm0 0"/></g></svg>