<svg xmlns="http://www.w3.org/2000/svg" width="250" height="250"><g fill="#213654"><path d="M154.16 109.465a.196.196 0 0 1-.195.195.195.195 0 0 1-.192-.195c0-.106.086-.192.192-.192.11 0 .195.086.195.192zm0 0"/><path d="M27.262 68.848v112.207l97.175 56.105 97.176-56.105V68.848l-97.175-56.106zm80.972 28.722c-.054 0-5.613-.015-8.062.262-2.961.332-7.219 1.469-9.477 3.582-2.394 2.246-2.617 5-2.074 12.149.5 6.574.313 9.328.274 9.789.007.68-.06 5.804-3.434 9.035-3.508 3.36-9.172 3.398-9.41 3.398h-3.465v-2.082h3.465c.047 0 5.074-.047 7.969-2.82 2.882-2.762 2.793-7.496 2.793-7.543l-.004-.067.007-.07c.004-.023.25-2.613-.273-9.484-.543-7.149-.453-10.844 2.73-13.824 3.391-3.176 9.48-4 10.668-4.137 2.567-.285 8.063-.27 8.297-.27zm-1.492-13.234c.18 1.223.91 2.312 2.172 3.234 4.309 3.145 8.176-1.933 8.34-2.148l7.355-10.461c.184-.234 3.66-4.512 8.125-4.367 4.313.148 8.41 3.719 8.582 3.87l-1.375 1.563c-.039-.03-3.718-3.23-7.277-3.351-3.406-.098-6.36 3.5-6.39 3.535l-7.333 10.43c-1.285 1.722-3.988 4.043-7.136 4.043-1.32 0-2.715-.407-4.118-1.43-1.742-1.27-2.75-2.832-3.007-4.637-.438-3.11 1.578-5.758 1.664-5.867l1.648 1.273c-.015.02-1.57 2.086-1.25 4.313zm42.168 99.258-.187.097c-.266.11-6.637 2.844-4.97 12.352l-2.054.36c-1.832-10.47 5.117-14.118 6.13-14.594 1.554-1.04 5.358-4.157 5.358-6.797 0-3.524-3.601-7.559-4.957-9.075a37.851 37.851 0 0 1-.382-.437c-.153-.176-.336-.371-.54-.59-1.128-1.215-3.023-3.242-3.769-6.488-1.078-4.7 6.426-9.652 7.281-10.203l1.125 1.754c-1.855 1.191-7.011 5.21-6.375 7.984.621 2.7 2.149 4.336 3.266 5.535.223.238.426.457.594.653.09.105.21.242.355.406 1.5 1.68 5.488 6.144 5.488 10.46 0 4.274-5.71 8.153-6.363 8.583zM136.871 62.57c11.668-8.011 22.688-.965 22.8-.89.294.172 8.09 4.902 8.895 12.484.676 6.352-2.683 11.07-4.156 12.805.067.101.121.215.149.34l3.382 15.351c.04.176.032.36-.023.531l-.406 1.317a1.043 1.043 0 0 1-.512.617l-1.238.645.129.902c.59.875 3.015 4.508 5.328 8.285 5.613 9.16 5.148 10.211 4.844 10.906-.762 1.73-5.63 2.867-9.86 3.543l1.875.961c.055.031.11.067.16.106.266.207 6.457 5.086 6.961 11.222.508 6.168-3.914 10.524-4.101 10.707-2.352 2.575-8.836 9.965-10.055 12.668-1.3 2.883.785 6.293.809 6.328l-1.766 1.106c-.113-.176-2.707-4.375-.941-8.29 1.605-3.562 10.101-12.866 10.46-13.26.083-.083 3.946-3.919 3.516-9.087-.402-4.902-5.434-9.156-6.09-9.695l-3.855-1.977c-2.578 4.215-7.781 8.86-18.223 8.973-.125.004-.254.004-.379.004-3.77 0-6.816-.637-9.297-1.64-2.246 1.734-5.363 4.702-4.859 6.898.621 2.695 2.148 4.336 3.266 5.53.222.243.425.458.593.657l.36.406c1.5 1.68 5.484 6.145 5.484 10.461 0 4.27-5.71 8.153-6.363 8.582l-.188.098c-.265.11-6.636 2.84-4.968 12.352l-2.051.359c-1.836-10.469 5.113-14.121 6.129-14.594 1.55-1.039 5.355-4.16 5.355-6.797 0-3.523-3.597-7.554-4.953-9.074-.156-.176-.289-.324-.387-.437-.152-.18-.336-.375-.535-.59-1.133-1.215-3.027-3.246-3.773-6.488-.723-3.145 2.39-6.395 4.793-8.372-7.903-4.468-8.508-13.035-8.516-13.152l2.082-.117c.027.43.594 8.195 8.242 11.898.43.23.575.332.805.375l.539.2c2.281.867 5.098 1.398 8.598 1.359 10.125-.113 14.773-4.707 16.898-8.578a.99.99 0 0 1 .16-.305c1.34-2.574 1.578-4.762 1.598-4.98l2.074.183c-.004.051-.187 1.817-1.144 4.145 4.742-.696 8.863-1.75 9.597-2.492-.136-1.758-5.273-10.309-10.082-17.418a.97.97 0 0 1-.168-.434l-.273-1.871c-.063-.438.16-.867.55-1.07l1.508-.786.2-.636-3.196-14.492c-2.238-.649-10.843-2.868-19.218-1.348-9.973 1.805-20.711 5.05-22.063 20.707-.004.277-.039.453-.043.484-.11.54-.621.903-1.164.832a1.042 1.042 0 0 1-.898-1.113l.035-.406c-.012-.606-.293-2.016-2.461-3.074-2.692-1.317-4.973 1.886-5.067 2.023-.171.254-4.062 6.324 6.582 14.316.7-.523 1.239-.875 1.434-1l1.121 1.754c-1.855 1.192-7.012 5.211-6.375 7.985.617 2.699 2.149 4.336 3.266 5.531.222.242.426.46.594.656.09.106.214.242.359.406 1.5 1.68 5.484 6.145 5.484 10.461 0 4.274-5.71 8.153-6.363 8.582l-.188.098c-.265.11-6.636 2.84-4.968 12.352l-2.055.359c-1.832-10.469 5.117-14.121 6.133-14.594 1.55-1.039 5.355-4.16 5.355-6.797 0-3.52-3.597-7.554-4.953-9.074-.156-.176-.289-.324-.386-.437-.153-.176-.336-.371-.536-.59-1.132-1.211-3.027-3.242-3.773-6.488-.664-2.88 1.898-5.856 4.18-7.852-11.801-9.113-6.848-16.535-6.621-16.855 1.148-1.672 4.242-4.399 7.69-2.707.868.421 1.528.902 2.036 1.402 2.59-13.371 12.64-17.086 23.273-19.012 8.063-1.46 16.083.285 19.32 1.156.645-.68 4.79-5.34 4.114-11.722-.7-6.54-7.86-10.895-7.934-10.942-.46-.3-10.632-6.742-21.48 1.547l-1.152.88-.465-1.372c-.133-.371-3.387-9.23-17.738-9.758-8.657-.316-14.907 3.176-17.192 4.692-3.527 2.343-7.613 8.043-8.234 13.992-.469 4.515.988 8.59 4.332 12.12l.219.024-.02.184.066.066-.082.078-.18 1.743-.515-.047c-1.582-.13-6.652-.43-10.547.715-4.781 1.402-6.636 2.304-8.199 4.863-1.496 2.46-1.996 4.266-2.07 4.562-.059.508-.512 4.871.668 10.325 1.183 5.468 1.535 7.394 1.593 7.742.582 2.082.207 6.386-5.289 8.168a7.454 7.454 0 0 1-2.297.36c-2.64 0-5.144-1.325-6.632-2.856-1.602-1.653-2.164-3.606-1.535-5.352l1.96.703c-.496 1.38.586 2.7 1.07 3.2 1.528 1.574 4.352 2.753 6.79 1.964 5.035-1.633 3.965-5.496 3.918-5.66l-.028-.121c0-.016-.304-1.781-1.59-7.707-1.328-6.152-.714-10.895-.687-11.094l.012-.086c.023-.09.512-2.23 2.34-5.23 2.02-3.317 4.53-4.352 9.39-5.778 2.926-.859 6.352-.984 8.766-.93-2.77-3.6-3.984-7.765-3.524-12.171.696-6.652 5.13-12.84 9.153-15.508 2.453-1.629 9.156-5.383 18.418-5.039 12.71.461 17.566 7.078 19.07 9.906zm15.79 39.903-13.321 5.547-.8-1.926 14.105-5.871 8.628 3.441-.773 1.938zm3.198 6.992c0 1.043-.851 1.89-1.894 1.89-1.04 0-1.89-.847-1.89-1.89a1.892 1.892 0 0 1 3.784 0zm0 0"/><path d="M125.133 0v.352L232.69 62.453v125l-.347.2-107.211 61.898v.402h-1.39v-.402l-107.56-62.098v-125l.344-.2L123.742.353V0H0v250h250V0zm0 0"/><path d="m231.309 63.246-106.871-61.7-106.876 61.7v123.41l106.876 61.703 106.874-61.703V63.246zm-8.442 118.535-.312.18-98.118 56.648-.316-.18-98.113-56.648V68.121l.312-.18 98.118-56.648 98.43 56.828zm0 0"/></g></svg>