<svg xmlns="http://www.w3.org/2000/svg" width="250" height="250"><path fill="#ff3369" fill-rule="evenodd" d="M63.207 188.266c-3.426-.868-4.719-1.735-6.367-4.286a31.133 31.133 0 0 1-1.606-2.84 46.083 46.083 0 0 1-3.304-8.745c-.563-2.122-.985-4.352-1.325-6.645-.433-2.898-.742-5.895-1.046-8.89-.598-.16-.239-.524.8-1.395 1.645-1.375 4.989-4.028 6.418-6.656 1.43-2.625.946-5.23-1.992-11.149-2.941-5.914-8.336-15.148-11.113-21.398-2.777-6.246-2.938-9.512-1.996-12.828.945-3.317 2.996-6.684 8.386-11.657 5.395-4.972 14.133-11.554 24.918-18.441l.438-.277.285.699c3.168 7.894 3.652 8.785 5.324 9.219.688.18 1.578.28 2.575.277-.813-.703-1.555-2.18-3.13-5.617-2.363-5.157-6.609-14.739-9.183-23.617-2.254-7.774-3.227-15.008-3.21-21.317C30.644 52.023 5.245 89.593 5.245 132.77c0 51.859 36.64 95.628 86.774 109.41.16-6.774.32-13.547 1.25-20.004.617-4.29 1.574-8.438 2.664-12.38.55-1.991 1.14-3.933 1.734-5.812 1.61-5.062 3.273-9.66 4.945-14.214-6.906.898-15.875.996-23.12.613-7.31-.383-12.864-1.25-16.286-2.117zM91.434 24.125c5.77-1.926 16.808-4.848 30.73-5.176 13.918-.324 30.715 1.946 46.566 7.762 15.848 5.816 30.75 15.18 39.036 21.043 8.293 5.863 9.968 8.226 10.566 9.613.598 1.383.121 1.785-3.766 4.953-3.89 3.168-11.187 9.102-16.605 11.676-5.418 2.574-8.961 1.785-11.3.668-2.34-1.113-3.481-2.559-6.942-6.992-3.461-4.43-9.246-11.848-12.504-18.25-3.262-6.402-3.996-11.79-5.508-14.18-1.508-2.39-3.793-1.781-14.152 2.606-10.356 4.386-28.785 12.55-38.68 17.12-9.895 4.575-11.25 5.555-13.156 3.274-1.906-2.285-4.356-7.832-6.293-13.433-1.938-5.598-3.36-11.246-3.817-14.54-.457-3.289.051-4.218 5.825-6.144zM221.453 90.984c.535 2.762 1.383 8.047-1.285 13.696-2.664 5.648-8.844 11.656-12.168 14.836-3.332 3.18-3.809 3.53-3.117 5.82.687 2.293 2.543 6.523 1.488 10.11-1.055 3.581-5.02 6.515-6.844 8.195-1.824 1.675-1.511 2.101-.53 3.332.983 1.226 2.636 3.261.53 5.566-2.109 2.305-7.968 4.883-13.605 7.012-5.637 2.125-11.05 3.804-14.422 5.316-3.371 1.508-4.703 2.852-7.316 7.676-2.614 4.824-6.508 13.129-7.977 20.93-1.469 7.797-.512 15.09.36 18.918.867 3.824 1.648 4.183 5.613 3.144 3.957-1.043 11.101-3.48 15.617-4.3s6.406-.016 7.613.394c1.203.414 1.727.434 3.856-.438s5.867-2.636 8.496-3.566c2.629-.934 4.156-1.027 5.492-.566 1.336.46 2.488 1.476 2.773 3.02.282 1.542-.304 3.605 1.68 2.858 1.98-.75 6.527-4.308 11.566-9.5 5.043-5.187 10.575-12.007 15.11-23.082 4.535-11.07 8.066-26.402 9.765-39.078 1.7-12.672 1.567-22.687-.777-32.625-2.344-9.933-6.902-19.785-9.394-25.086-2.497-5.296-2.93-6.039-4.313-4.933-1.387 1.105-3.719 4.066-5.414 5.894-1.691 1.828-2.742 2.528-3.152 2.993-.414.468-.184.703.355 3.464zm0 0"/><path fill="#ffd27f" fill-rule="evenodd" d="M186.871 93.258c-3.695 1.25-9.793 1.449-18.988 2.754-9.192 1.297-21.492 3.695-33.625 8.11-12.137 4.413-24.11 10.839-32.145 16.605-8.039 5.761-12.136 10.863-15.347 15.812-3.207 4.95-5.528 9.742-8.41 13.137-2.887 3.394-6.34 5.383-8.524 6.375-2.184.996-3.102.996-6.39.996-3.29 0-8.954 0-11.813-.05-1.047-.02-1.719-.044-2.07-.138.308 2.996.613 5.993 1.046 8.891.344 2.293.762 4.523 1.325 6.645a46.083 46.083 0 0 0 3.304 8.746 31.092 31.092 0 0 0 1.61 2.84c1.644 2.55 2.937 3.417 6.363 4.285s8.98 1.734 16.29 2.117c5.644.297 12.335.304 18.28-.133a88.837 88.837 0 0 0 5.016-.504c6.934-.918 11.73-2.652 18.5-5.738 6.77-3.086 15.508-7.528 24.785-11.172 6.91-2.719 14.125-5 21.168-7.133 2.406-.73 4.797-1.445 7.145-2.152 9.226-2.781 17.855-5.485 22.195-8.086 3.926-2.352 4.348-4.621 2.875-7.469-.156-.3-.332-.61-.527-.922-2.051-3.293-6.204-7.37-9.305-12.09a39.722 39.722 0 0 1-6.012-15.48c-.722-4.512-.617-9.063.227-13.223.168-.824.363-1.636.59-2.43 1.355-4.78 3.738-8.89 6.129-12.996-.762 1.004-1.965 1.817-3.692 2.403zm-34.543 37.918c-1.266 3.672-4.02 7.59-8.047 10.59-1.87 1.39-4.015 2.586-6.246 3.562a40.176 40.176 0 0 1-7.773 2.488c-4.688.977-8.762.86-12.274.282-3.515-.582-6.465-1.618-8.164-2.41-1.703-.786-2.148-1.325-1.804-2.981.058-.3.148-.633.265-1.004.54-1.683 1.727-4.09 4.09-7.121 2.883-3.703 7.523-8.328 12.664-11.387.11-.062.215-.129.324-.191 3.797-2.2 7.852-3.559 11.575-4.305a39.899 39.899 0 0 1 3.566-.547c4.668-.492 8.36.016 10.3.598 1.95.586 2.15 1.25 2.356 3.293.211 2.039.434 5.46-.832 9.133zm0 0"/><path fill="#ffe3ba" fill-rule="evenodd" d="M147.898 172.23c-8.597 3.383-16.699 7.497-22.976 10.356-6.274 2.863-10.723 4.469-17.149 5.32-1.46.196-3.027.348-4.652.469-1.84 5.016-3.683 10.027-5.453 15.61-1.773 5.581-3.473 11.73-4.402 18.19-.93 6.458-1.09 13.231-1.246 20.005 10.683 2.937 21.984 4.511 33.671 4.511 14.985 0 29.329-2.59 42.563-7.316-2.453-2.668-4.906-5.34-6.957-8.941-2.047-3.606-3.7-8.145-4.524-13.704-.043-.289-.085-.578-.12-.875-.704-5.363-.676-11.585-.153-17.664.547-6.406 1.648-12.648 3.578-18.05s4.688-9.961 7.445-14.524c-6.527 1.98-13.214 4.094-19.625 6.613zM106.656 55.324c9.184-4.816 26.817-14.023 37.281-18.531 10.47-4.508 13.766-4.316 15.594-3.645 1.832.676 2.192 1.836 3.172 5.07s2.582 8.548 6.676 14.966c4.101 6.421 10.691 13.949 14.746 19.18 4.059 5.226 5.578 8.156 6.395 10.417.816 2.262.93 3.86.167 5.797-.757 1.942-2.398 4.227-9.414 5.91-7.02 1.688-19.421 2.774-32.82 6.18s-27.8 9.125-39.398 17c-11.598 7.875-20.399 17.902-25.676 24.781-5.274 6.88-7.024 10.617-10.922 12.77-3.902 2.152-9.953 2.719-14.078 2.738-4.129.016-6.332-.516-7.473-.91-1.144-.395-1.222-.652.63-2.137 1.85-1.484 5.636-4.195 5.077-10.844-.558-6.652-5.457-17.246-8.754-23.941-3.293-6.691-4.98-9.484-6.156-12.629-1.176-3.144-1.836-6.644 2.883-12.078 4.719-5.438 14.82-12.816 21.043-17.215 6.226-4.398 8.578-5.816 10.203-5.531s2.523 2.27 3.773 4.918 2.852 5.957 6.082 6.57c3.235.613 8.098-1.472 11.723-3.672s6.008-4.511 6.43-6.25c.418-1.738-1.13-2.902-2.766-5.015-1.633-2.11-3.355-5.168-3.847-6.914-.493-1.743.246-2.168 9.43-6.985zm0 0"/><path fill="#f0c87f" fill-rule="evenodd" d="M147.898 172.23c-8.597 3.383-16.699 7.497-22.972 10.36-6.278 2.86-10.727 4.465-17.153 5.316-1.46.196-3.027.352-4.648.469-1.844 5.016-3.688 10.027-5.457 15.61a156.602 156.602 0 0 0-1.734 5.816c6.046-.031 14.504-.738 22.074-3.153 9.351-2.98 17.351-8.558 27-12.91 4.125-1.86 8.554-3.496 12.808-5.175.579-2.954 1.32-5.79 2.262-8.422 1.93-5.399 4.688-9.961 7.445-14.524-6.527 1.98-13.214 4.094-19.625 6.613zm0 0"/><path fill="#f0c87f" fill-rule="evenodd" d="M137.297 246.168c10.797-.977 21.18-3.3 30.957-6.793-2.453-2.668-4.906-5.336-6.953-8.941-2.051-3.606-3.703-8.145-4.528-13.704-.043-.289-.085-.578-.12-.875-.704-5.363-.676-11.585-.153-17.66.55-6.41 1.648-12.652 3.578-18.054 1.93-5.399 4.688-9.961 7.445-14.524-4.222 1.281-8.511 2.617-12.75 4.082-4.253 8.856-8.52 18.64-11.562 26.688-5.55 14.66-7.05 23.55-7.05 34.617 0 4.879.288 10.18 1.136 15.164zm0 0"/><path fill="#70cc81" fill-rule="evenodd" d="M188.035 136.844c2.66 4.047 6.219 7.543 7.977 10.363.168.27.32.531.449.79 2.715-2.642 5.43-5.278 7.363-8.173 1.938-2.89 3.094-6.039 2.946-8.82-.153-2.781-1.602-5.195-3.055-7.61-1.043.75-2.078 1.465-3.078 2.133-5.356 3.598-9.825 6.016-14.293 8.434a34.33 34.33 0 0 0 1.691 2.883zm0 0"/><path fill="#91f7a4" fill-rule="evenodd" d="M186.34 133.96c4.472-2.417 8.941-4.835 14.297-8.433 1-.672 2.031-1.382 3.078-2.132 4.535-3.258 9.285-7.2 12.629-11.446 4.113-5.226 6.101-10.91 6.71-15.054.606-4.149-.163-6.758-.933-9.372-2.77 2.7-5.879 5.266-9.2 7.727-6.054 4.48-12.8 8.59-17.89 11.36s-8.52 4.203-11.953 5.636c-.723 3.567-.812 7.461-.195 11.332a34.092 34.092 0 0 0 3.457 10.383zm0 0"/><path fill="#83de93" fill-rule="evenodd" d="M186.34 133.96c4.472-2.417 8.941-4.835 14.297-8.433 1-.672 2.031-1.382 3.078-2.132 4.535-3.258 9.285-7.2 12.629-11.446 3.34-4.246 5.277-8.789 6.215-12.57-1.418 2.066-4.223 5.504-8.051 8.738-4.301 3.63-9.89 6.996-15.442 8.403-5.546 1.41-11.05.863-16.343-.797l-.137-.043a32.817 32.817 0 0 0 .297 7.898 34.092 34.092 0 0 0 3.457 10.383zm0 0"/><path fill="#c7ffd1" fill-rule="evenodd" d="M195.027 106.61c5.094-2.77 11.84-6.88 17.895-11.36 3.32-2.457 6.43-5.027 9.195-7.727 1.977-1.925 3.778-3.921 5.352-5.988.238-.316.476-.633.707-.953 3.836-5.332 6.148-11.148 7.258-16.922 1.109-5.77 1.015-11.496.437-14.71-.578-3.212-1.64-3.91-4.066-2.098-2.43 1.816-6.22 6.144-11.79 10.976a111.579 111.579 0 0 1-6.449 5.176c-4.27 3.172-7.734 5.594-13.683 8.445-5.946 2.848-7.547 3.055-14.625 4.637 2.156 2.562 3.445 4.027 5.96 7.36 2.52 3.335-1.718 10.124-1.527 12.062.196 1.945-.113 2.539-.855 3.52-2.047 3.519-4.094 7.038-5.254 11.136-.191.68-.36 1.375-.504 2.082 3.43-1.433 6.863-2.867 11.95-5.637zm0 0"/><path fill="#91f7a4" fill-rule="evenodd" d="M195.031 106.61c5.09-2.77 11.84-6.88 17.895-11.36 3.32-2.457 6.43-5.027 9.195-7.727 1.977-1.925 3.777-3.921 5.352-5.988.238-.316.476-.633.707-.953 3.836-5.332 6.144-11.148 7.254-16.922.64-3.328.882-6.64.859-9.465a5.013 5.013 0 0 0-.54.637c-1.616 2.273-3.64 8.172-8.398 13.918-4.757 5.75-12.242 11.344-19.953 13.96-7.703 2.622-11.898 2.27-14.93 2.255-3.035-.012-1.742.004-2.488.027l.34.453c3.352 4.438-.82 8.125-.629 10.063.196 1.945-.113 2.539-.855 3.52-2.047 3.519-4.094 7.038-5.254 11.136-.129.445-.242.895-.348 1.352.297.097.598.195.91.28 3.09-1.292 6.32-2.702 10.883-5.187zm0 0"/><path fill="#ffd27f" fill-rule="evenodd" d="M161.555 215.266c3.625-1.641 11.246-3.649 15.586-4.325 4.343-.675 5.398-.027 6.047.621.648.645.886 1.29 2.91.458 2.02-.836 5.828-3.149 9.015-4.313 3.188-1.168 5.758-1.187 7.617-.687s3.012 1.515 2.801 3.898c-.21 2.379-1.789 6.125-5.12 9.684-3.333 3.558-8.419 6.93-14.071 10.027-5.649 3.098-11.867 5.922-15.074 7.226-3.207 1.305-3.403 1.094-4.973-1.3-1.574-2.395-4.523-6.973-6.02-10.184-1.5-3.21-1.546-5.059-1.753-6.621-.211-1.563-.586-2.84 3.035-4.484zm0 0"/><path fill="#fff" fill-rule="evenodd" d="M144.277 141.766c4.032-3 6.786-6.918 8.051-10.59 1.266-3.668 1.043-7.09.832-9.133-.21-2.043-.41-2.707-2.355-3.293-1.942-.582-5.633-1.09-10.301-.598-1.137.121-2.336.301-3.566.547a23.107 23.107 0 0 1 4.34 9.278c1.35 6.21.019 12.351-3.243 17.351 2.23-.976 4.375-2.172 6.242-3.562zm0 0"/><path fill="#91f7a4" fill-rule="evenodd" d="M126.36 134.406c0 6.297-4.462 11.61-10.555 13.262a35.9 35.9 0 0 0 2.18.43c3.511.578 7.585.695 12.273-.282a40.176 40.176 0 0 0 7.773-2.488c3.262-5 4.594-11.144 3.242-17.351a23.107 23.107 0 0 0-4.34-9.278c-3.824.766-8.007 2.184-11.898 4.496a36.922 36.922 0 0 0-2.656 1.743c2.469 2.472 3.98 5.804 3.98 9.468zm0 0"/><path fill="none" stroke="#0f172a" stroke-linecap="round" stroke-miterlimit="22.926" stroke-width="1.066" d="M20.739 30.825c.066-.358.283-.956.837-1.755.553-.8 1.444-1.8 2.432-2.46.747-.5 1.55-.805 2.284-.971.398.579.689 1.256.833 2.004a5.419 5.419 0 0 1-.622 3.748 7.12 7.12 0 0 1-1.493.537c-.9.211-1.682.186-2.356.061a5.83 5.83 0 0 1-1.568-.52c-.327-.17-.412-.287-.347-.644zm0 0" transform="scale(5.20833 4.62963)"/><path fill="none" stroke="#0f172a" stroke-linecap="round" stroke-miterlimit="22.926" stroke-width="1.066" d="M20.739 30.825c.066-.358.283-.956.837-1.755a10.412 10.412 0 0 1 1.921-2.083c.475.534.765 1.253.765 2.046 0 1.359-.857 2.506-2.027 2.863a5.607 5.607 0 0 1-1.15-.427c-.326-.17-.411-.287-.346-.644zm0 0" transform="scale(5.20833 4.62963)"/><path fill="#fff" fill-rule="evenodd" d="M128.734 128.219c2.266 0 4.102 1.738 4.102 3.879 0 2.144-1.836 3.882-4.102 3.882s-4.101-1.738-4.101-3.882c0-2.141 1.836-3.88 4.101-3.88zm0 0"/><g fill="none" stroke="#fff" stroke-linecap="round" stroke-miterlimit="22.926" stroke-width=".799"><path d="M13.586 44.826v1.847M12.941 45.75h1.29M5.99 35.669v2.94M4.963 37.139h2.052M35.134 39.315v1.47M34.62 40.05h1.027M41.28 37.166v1.846M40.636 38.089h1.29M43.587 27.846v1.26M43.147 28.477h.88M4.544 24.497v1.471M4.03 25.233h1.027M9.792 13.409v2.015M9.088 14.416h1.408M20.271 7.03v2.466M19.41 8.264h1.721M7.089 30.075v1.47M6.576 30.81h1.026M36.617 11.421v1.26M36.177 12.051h.88" transform="scale(5.20833 4.62963)"/></g><path fill="#fff" fill-rule="evenodd" d="M92.21 83.531c2.704-.695 5.263-2.058 7.228-3.469 1.96-1.406 3.332-2.855 4.003-3.718.676-.864.649-1.137-1.515-4.864-1.047-1.812-2.602-4.437-4.29-7.472-1.78-3.207-3.71-6.871-5.343-10.508-2.656-5.91-4.531-11.742-5.941-17.527-.278-1.141-.536-2.282-.782-3.418-1.484-6.907-2.39-13.754-2.922-18.57s-.687-7.598-1.09-9.204c-.402-1.601-1.046-2.02-2.742-.633-1.695 1.387-4.437 4.582-6.597 8.985-2.16 4.406-3.735 10.023-4.074 16.922-.2 4.168.046 8.804.847 13.78A84.472 84.472 0 0 0 71.29 54.02c2.574 8.878 6.82 18.46 9.184 23.617 1.53 3.336 2.273 4.824 3.058 5.554.43.399.871.57 1.457.696 1.668.36 4.52.336 7.223-.356zm0 0"/><path fill="#dedede" fill-rule="evenodd" d="M95.223 82.477c1.558-.688 3-1.543 4.21-2.415 1.965-1.406 3.337-2.855 4.008-3.718.676-.86.649-1.137-1.515-4.864-1.051-1.812-2.602-4.437-4.29-7.468-1.78-3.211-3.71-6.875-5.343-10.512-2.656-5.91-4.531-11.742-5.941-17.527-.278-1.141-.54-2.282-.782-3.418-1.484-6.907-2.39-13.754-2.922-18.57-.535-4.813-.691-7.598-1.09-9.2-.246-.976-.581-1.515-1.187-1.472-1.121 4.03-2.18 8.82-2.598 13.925-.742 9 .493 18.977 2.883 28.153s5.93 17.55 9.516 25.77c1.723 3.948 3.45 7.862 5.05 11.316zm0 0"/><path fill="none" stroke="#0f172a" stroke-linecap="round" stroke-miterlimit="22.926" stroke-width="1.066" d="M18.857 12.898a81.535 81.535 0 0 1 2.369-1.393 94.22 94.22 0 0 1 5.856-3.015c1.44-.685 2.195-1.018 2.8-1.13.604-.114 1.057-.007 1.238.446.181.453.091 1.252.29 2.037.197.786.684 1.557 1.497 2.67.813 1.113 1.952 2.567 2.703 3.685.75 1.118 1.113 1.901 1.17 2.54.056.64-.192 1.135-.9 1.406-.71.27-1.881.313-3.647.595-1.765.28-4.126.798-6.456 1.751-2.33.954-4.629 2.342-6.171 3.587-1.544 1.244-2.33 2.346-2.947 3.415-.616 1.07-1.061 2.105-1.615 2.838a4.854 4.854 0 0 1-1.636 1.377c-.42.215-.596.215-1.227.215s-1.72 0-2.268-.01c-.55-.012-.56-.034-.244-.332.316-.297.958-.87 1.233-1.437.274-.568.18-1.13-.383-2.408-.565-1.278-1.6-3.272-2.134-4.622-.533-1.35-.564-2.055-.383-2.771.181-.717.575-1.444 1.61-2.518 1.036-1.074 2.713-2.496 4.784-3.983l.085-.06" transform="scale(5.20833 4.62963)"/><path fill="none" stroke="#0f172a" stroke-linecap="round" stroke-miterlimit="22.926" stroke-width="1.066" d="M9.515 33.882c.106 1.159.212 2.318.455 3.355.245 1.037.628 1.952.944 2.503s.564.738 1.222.925c.658.188 1.724.375 3.127.458 1.403.082 3.143.06 4.473-.138 1.331-.198 2.252-.573 3.552-1.24 1.3-.666 2.978-1.625 4.759-2.412 1.78-.789 3.665-1.405 5.436-2.006 1.772-.6 3.428-1.185 4.261-1.747.834-.562.844-1.102.45-1.812-.393-.71-1.19-1.592-1.785-2.611s-.99-2.176-1.155-3.344a8.888 8.888 0 0 1 .157-3.381c.26-1.033.718-1.92 1.177-2.807" transform="scale(5.20833 4.62963)"/><path fill="none" stroke="#0f172a" stroke-linecap="round" stroke-miterlimit="22.926" stroke-width="1.066" d="M32.165 35.773c-.53.986-1.06 1.97-1.43 3.137-.37 1.167-.581 2.516-.687 3.9-.106 1.384-.106 2.804.052 4.004.16 1.2.476 2.18.87 2.96.393.778.864 1.355 1.335 1.931M19.8 40.689a84.42 84.42 0 0 0-1.048 3.372c-.34 1.205-.666 2.533-.844 3.929-.179 1.395-.21 2.858-.24 4.32" transform="scale(5.20833 4.62963)"/><path fill="none" stroke="#0f172a" stroke-linecap="round" stroke-miterlimit="22.926" stroke-width="1.066" d="M30.077 46.625c1.03-.293 2.06-.586 2.854-.84.793-.253 1.35-.467 1.71-.509.36-.04.523.092.61.421.087.33.096.856.021 1.329-.074.472-.232.891-.39 1.31M35.387 46.115c1.161-.552 2.322-1.103 3.061-1.354.739-.25 1.055-.2 1.195 0 .14.2.1.546-.017 1.014-.116.468-.311 1.056-.507 1.645M35.784 16.463c.856-.208 1.712-.417 2.845-1.097 1.134-.68 2.545-1.832 3.614-2.876 1.07-1.043 1.797-1.978 2.264-2.37.465-.392.67-.24.78.453.111.694.13 1.931-.084 3.178a9.85 9.85 0 0 1-1.393 3.655c-.737 1.151-1.767 2.2-2.929 3.167a30.518 30.518 0 0 1-3.436 2.455c-.976.598-1.636.907-2.294 1.217" transform="scale(5.20833 4.62963)"/><path fill="none" stroke="#0f172a" stroke-linecap="round" stroke-miterlimit="22.926" stroke-width="1.066" d="M42.647 18.905c.148.564.296 1.128.18 2.024-.117.895-.5 2.123-1.289 3.252-.79 1.128-1.988 2.157-2.953 2.895-.965.737-1.698 1.184-2.43 1.63" transform="scale(5.20833 4.62963)"/><path fill="none" stroke="#0f172a" stroke-linecap="round" stroke-miterlimit="22.926" stroke-width="1.066" d="M39.113 26.653c.28.522.558 1.043.586 1.644s-.194 1.28-.505 1.84c-.312.559-.714.997-1.116 1.435M20.739 30.825c.066-.358.283-.956.837-1.755.553-.8 1.444-1.8 2.432-2.46a6.88 6.88 0 0 1 2.969-1.09c.896-.105 1.604.004 1.977.13.374.127.412.27.453.711.04.44.083 1.18-.16 1.973s-.772 1.64-1.546 2.287c-.773.648-1.79 1.096-2.691 1.307-.9.211-1.682.186-2.356.061a5.86 5.86 0 0 1-1.568-.52c-.327-.17-.412-.287-.347-.644zm0 0" transform="scale(5.20833 4.62963)"/><path fill="#0f172a" fill-rule="evenodd" d="M115.809 147.668c6.093-1.652 10.554-6.965 10.554-13.262 0-3.664-1.511-6.996-3.98-9.469-4.063 2.915-7.63 6.594-10.008 9.645-2.883 3.7-4.016 6.469-4.36 8.125-.34 1.656.106 2.195 1.805 2.98 1.336.622 3.442 1.395 5.989 1.981zm0 0"/><path fill="none" stroke="#0f172a" stroke-linecap="round" stroke-miterlimit="22.926" stroke-width="1.066" d="M10.604 39.126c1.049-.051 2.097-.103 3.242.135 1.145.24 2.388.768 3.72 1.016 1.333.248 2.755.215 3.998-.066 1.243-.28 2.306-.807 3.045-1.556s1.152-1.72 1.566-2.691M13.272 36.86c.135-.22.27-.44.37-.674.101-.234.169-.482.236-.73M10.659 36.707c-.228-.162-.455-.325-.613-.476s-.243-.29-.33-.429M16.318 18.12c.32.077.867.072 1.386-.077.52-.15 1.01-.445 1.387-.75a4.12 4.12 0 0 0 .77-.803c.129-.185.123-.245-.291-1.05-.415-.805-1.24-2.356-1.85-3.884-.61-1.528-1.006-3.032-1.291-4.524s-.46-2.971-.561-4.011c-.102-1.04-.132-1.641-.21-1.987-.077-.347-.2-.437-.525-.138-.326.3-.853.99-1.268 1.94-.415.952-.717 2.166-.781 3.656-.065 1.49.11 3.258.604 5.176.494 1.918 1.308 3.988 1.763 5.102.453 1.114.546 1.273.867 1.35zm0 0" transform="scale(5.20833 4.62963)"/><path fill="none" stroke="#0f172a" stroke-linecap="round" stroke-miterlimit="22.926" stroke-width="1.066" d="M13.071 7.064C5.884 11.237 1.007 19.352 1.007 28.678c0 13.59 10.354 24.607 23.126 24.607 12.772 0 23.126-11.017 23.126-24.607 0-4.396-1.084-8.522-2.981-12.093m-2.427-3.721C37.61 7.488 31.246 4.07 24.133 4.07c-2.794 0-5.473.527-7.953 1.494" transform="scale(5.20833 4.62963)"/></svg>