<svg xmlns="http://www.w3.org/2000/svg" width="250" height="250"><path d="M115.25 14.402c-16.324 1.09-31.648 5.153-45.602 12.055l-2.699 1.352-1.625-1.286c-4.625-3.64-7.574-5.082-12.648-6.105-1.852-.375-3.125-.465-6.551-.488-5 0-6.824.355-10.5 1.953-6.324 2.773-10.977 8.633-12.5 15.781-1.273 5.969-.977 12.918 1.148 25.39.403 2.376.727 4.594.727 4.926 0 .313-.398 1.38-.898 2.332-9.079 17.645-11.903 37.622-8.079 56.907 3.051 15.226 10.625 30.207 21.454 42.37 7.574 8.5 16.699 15.825 26.921 21.641 1.477.84 2.653 1.708 3.352 2.485 1.75 1.953 5.55 4.527 8.25 5.57.977.38 1.25.645 1.926 1.863.972 1.754 5.097 6.282 6.449 7.125 2.25 1.375 5.7 1.954 8.074 1.309l.801-.219v.953c0 2.196 1.227 4.727 3.05 6.282.45.375 2.274 1.488 4.024 2.464 4.852 2.684 7.227 3.063 11 1.731l1.653-.602 2.023.555c1.125.336 2.2.578 2.398.578.25 0 .352.266.352.887v.89h-7.5v17.977h10.25v-4.617l3.95-.09c4.374-.086 5.6-.375 7.25-1.797 1.573-1.332 1.925-2.195 1.925-4.816 0-1.996-.074-2.465-.55-3.262-1.223-2.02-3.25-3.086-6.325-3.328l-1.5-.133v-1.601l1.875-.399c1.023-.222 2.375-.597 3.023-.863l1.204-.469 1.375.688c3.125 1.488 5.898 1.511 9.148.047 1.102-.512 3.125-1.579 4.5-2.399 3.676-2.195 5.125-4.305 5.125-7.414 0-.707.05-1.285.102-1.285.074 0 .421.11.796.242.403.113 1.528.223 2.551.223 3.903 0 6.125-1.352 10.301-6.258 1.5-1.777 1.648-1.887 3.398-2.484 3.602-1.247 6.75-3.754 8.653-6.926.8-1.332.972-1.465 5.176-3.973 6.472-3.84 10.273-6.594 15.722-11.32 11.125-9.656 19.5-20.864 25.176-33.758 10.477-23.703 9.75-50.805-2-74.02l-1.102-2.152.5-2.973c.778-4.73 1.977-14.43 2.176-17.601.653-10.785-1.699-21.528-5.847-26.68-1.426-1.773-2.704-2.574-5.653-3.437-1.972-.602-2.8-.735-5.449-.82-5.625-.18-9.977.773-16.898 3.75-3.801 1.64-6.426 3.152-8.903 5.105-1.05.84-1.972 1.531-2.05 1.531-.075 0-1.126-.512-2.325-1.156-2.847-1.488-9.398-4.281-13.199-5.613-13.227-4.665-26.352-6.836-40.625-6.727-3.102.023-6.125.066-6.75.11zm94.426 5.86c2.398.535 4.097 1.332 5 2.355 2.472 2.774 4.222 7.633 5.222 14.403.528 3.398.579 10.21.125 14.183-.875 7.77-2.574 19-3.421 22.527-1.028 4.352-2.954 8.813-4.403 10.23l-.773.735.148 2.243c.074 1.218.551 4.57 1.051 7.433 1.023 5.817 1.398 10.922.898 12.274-.523 1.421-3.023 3.55-7.421 6.37-.977.622-2.551 2.044-4.176 3.774-3.227 3.461-4.852 4.793-7.125 5.836-1.574.734-1.95.82-3.653.82-1.046 0-1.898.067-1.898.157-.05 1.886-.602 7.3-.898 8.699-.204 1.043-.954 3.242-1.653 4.883-1.523 3.683-1.8 4.972-1.398 6.902.324 1.754.125 7.172-.403 10.254-.222 1.176-1.046 4.242-1.898 6.816-1.676 5.192-3.273 10.828-3.75 13.27-.176.89-.398 1.62-.477 1.62-.074 0-.597-.73-1.148-1.597-1.45-2.308-5.574-7.836-7.8-10.453-2.473-2.93-7.024-7.613-9.302-9.59-.972-.844-1.773-1.597-1.773-1.683 0-.067.648-.203 1.45-.27 3.1-.308 6.948-1.55 9.624-3.129 5.574-3.285 8.676-8.344 9.477-15.469.25-2.218.222-2.84-.125-4.417-.95-4.262-3.801-7.41-8.602-9.43-4.347-1.844-9.449-3.2-14.3-3.797-7.126-.887-18.274.133-23.024 2.086-1.5.621-3.227 1.93-4 3.039l-.5.734-1.727-.777c-2.921-1.332-6.125-1.285-9.296.156l-1.426.621-.778-1.066c-1.472-2.02-3.625-3.129-7.898-4.082-10.2-2.285-21.05-1.82-30.05 1.266-5.075 1.753-7.626 3.238-9.5 5.59-2.223 2.82-3 5.706-2.552 9.812.852 7.988 4.852 13.426 12.176 16.555 2.426 1.023 4.625 1.554 8.625 2.066l.95.11-2.672 2.265c-9.176 7.766-13.454 12.45-16.551 18.176-1.375 2.488-1.801 3.043-1.801 2.265 0-.668-1.45-4.195-3.625-8.812-1.477-3.13-2.273-5.192-2.5-6.348-.477-2.351-.852-7.234-1.125-14.449-.2-5.746-.25-6.234-.977-8.543-.398-1.355-1.148-3.441-1.648-4.66-.523-1.223-1.3-3.352-1.75-4.75-.824-2.508-1.102-2.91-1.95-2.91-1.25 0-2.75-1.243-3.175-2.64-.176-.599-1.05-1.532-3.426-3.618-3.574-3.152-5.125-4.305-7.824-5.86-4.125-2.351-6.7-5.347-7.273-8.523-.301-1.687-.176-2.64.898-6.215 1.477-4.949 1.95-7.41 1.824-9.785-.097-2.133-.097-2.2-1.625-4.906-2.3-4.063-2.597-5.172-4.8-18.38-1.75-10.429-2.098-13.534-2.098-18.976-.028-5.168.3-7.277 1.625-10.875 1.148-3.015 2.597-5.28 4.8-7.41 2.047-1.976 6.297-4.129 8.973-4.574l.926-.156v1.133c0 2.152 1.55 5.28 4.125 8.347 1.773 2.106 3.523 3.66 6.523 5.813 2.676 1.91 5.028 4.129 6.903 6.527 2.023 2.527 5.55 8.676 9.574 16.645 1.727 3.394 3.023 5.37 4.977 7.5 3.625 3.953 8.375 6.214 13.125 6.238 1.347 0 1.949-.156 4.046-1 5.352-2.13 12.625-3.774 19.676-4.414 8.301-.778 21.2-.223 31.051 1.332 5.125.797 6.05 1.043 10.95 2.773 2.402.844 4.402 1.508 4.476 1.465.05-.066.324-.844.597-1.73.653-2 1.926-4.528 3.125-6.13 1.528-2.038 2.528-4.347 5.227-12.07 2.102-5.996 3.7-9.613 6.375-14.382 3.926-7.016 8.398-12.141 12.852-14.762 2.523-1.508 8.574-4.125 11.273-4.902 1.875-.512 4.824-1.09 6.875-1.29 1.45-.156 4.523.09 6.426.532zM97.148 119.098c.153.132 3.102 4.304 6.579 9.297 7.046 10.144 6.574 8.988 4.722 11.21-.55.641-1.097 1.153-1.222 1.11-.153-.047-3.653-4.973-7.829-10.942l-7.546-10.878 1.5-.133c1.847-.133 3.421 0 3.796.336zm50.801.507c.676.868 18.824 26.97 18.977 27.278.097.246-2.676 1.465-4.227 1.82l-.949.223-2.352-3.352c-7.347-10.543-17.898-25.722-17.898-25.789 0-.09 3.05-.535 4.375-.62.55-.048 1.125-.09 1.3-.114.15-.02.5.222.774.554zM94.375 131.57c4.648 6.68 8.5 12.297 8.55 12.496.075.266-.448.664-1.85 1.399-2.802 1.508-4.723 2.219-5.024 1.887-.125-.157-4.102-5.817-8.801-12.586-4.727-6.77-8.727-12.54-8.926-12.805-.347-.445-.3-.488 1.977-1.156 2.3-.664 4.824-1.285 5.347-1.332.153-.02 4.079 5.437 8.727 12.097zm31.023-7.414c1.903.778 2.278 1.332 2.426 3.73.25 3.395 1.403 7.278 2.977 10.075.398.71.699 1.332.648 1.375-.074.047-.773-.02-1.597-.133-2.875-.422-11.676-.11-16.204.578-.546.09-.921.067-.875-.043.051-.113.528-.933 1.051-1.82 1.778-3.02 2.977-6.902 3.324-10.52l.176-1.953 1.153-.644c2.296-1.332 4.75-1.555 6.921-.645zm6.977 18.2c1.398.289 1.676.445 3.75 2.308 4.426 3.906 10.602 6.813 16.352 7.68l1.847.265 3.25 2.907c7.403 6.593 13.727 13.718 19.051 21.53 1.824 2.684 1.898 2.997 1.375 6.77-1.2 8.59-5.523 14.094-12.25 15.559-.898.2-2.824.309-5.625.29-3.5 0-4.574-.09-6.148-.47-2.852-.71-5.704-1.773-7.852-2.93-1.8-.952-1.977-1.109-2.5-2.308-1.176-2.64-1.898-3.062-5.25-3.215l-2.25-.09-2.523-1.511c-3.352-1.996-6.125-2.883-8.903-2.883h-.972l.171-1.067c.125-.953.079-1.086-.625-1.687-.921-.777-.949-1.285-.25-2.73.676-1.352.727-2.797.102-3.395-.352-.356-.773-.445-1.926-.445-2.023 0-2.875.379-4.523 2.066-1.7 1.707-1.977 2.395-1.801 4.484.148 1.442.102 1.641-.7 2.996-.8 1.352-.925 1.465-2.948 2.395-2.454 1.156-5.329 2.887-10 6.016-5.153 3.441-7.704 4.37-12.528 4.617-4 .199-7.097-.446-11.324-2.309-4.977-2.199-8.2-4.949-9.824-8.344-.551-1.156-.653-1.71-.653-3.375.028-5.902 3.403-12.851 9.5-19.664 1.75-1.953 8.352-7.879 12.875-11.562l2.653-2.176 2.347-.535c5.278-1.219 10.028-3.55 13.852-6.836l1.75-1.484 3.125-.47c1.727-.241 4.148-.554 5.375-.64 3.227-.289 12.176-.133 14 .242zM124 188.698c.25.11.852.711 1.352 1.309 1.222 1.488 1.796 1.754 4.597 2.242 1.324.223 2.75.512 3.153.664.398.133 1.722 1.066 2.921 2.11 2.875 2.417 4.875 3.328 6.852 3.152.75-.067 1.375-.043 1.375.066 0 .422-4.7 3.617-6.426 4.371-1.472.645-2.347.844-4.8 1.133-2.922.332-3.047.332-5.575-.156-3.597-.73-4.972-.797-7.847-.375-4.926.687-7.977.375-11.75-1.176-2.176-.91-6.852-3.508-6.852-3.797 0-.246 3.023-2.219 3.375-2.219.5 0 1.074.73 1.25 1.622.25 1.109.898 1.796 2.25 2.375 1.523.64 2.102.488 4-1.114 1.45-1.242 1.676-1.351 3.852-1.863 1.296-.29 2.625-.73 3-.953 1.074-.711 1.75-2.067 2.046-4.086.25-1.84.477-2.441 1.176-3.149.426-.421 1.324-.488 2.051-.156zm1.3 17.578 6.177.043-1.079 1.024c-.574.554-1.296 1.465-1.597 2.02-.625 1.128-1.153 3.35-.977 4.124.125.645-.125.825-1.949 1.313-1.602.441-6.148.508-7.875.152l-.875-.2-.148-1.862c-.102-1.043-.352-2.309-.579-2.84-.5-1.223-1.671-2.754-2.699-3.485l-.824-.601 3.125.133c1.727.066 5.898.156 9.3.18zm-19.476 5.68c-.222.336-.449.645-.472.688-.051.023-.176 0-.329-.086-.421-.223.403-1.465.852-1.309.3.11.3.219-.05.707zm33.977-.176.398.645-.847.441c-1.125.602-1.204.602-1.528-.199-.25-.598-.222-.688.5-1.086 1.028-.555.977-.578 1.477.2zm0 0"/><path d="M152.324 97.7c-4.05.402-8.273 1.53-12.199 3.284-2.602 1.157-4.102 2.043-7.375 4.375-5.05 3.57-8.977 4.395-13.875 2.93-.977-.312-3.8-1.445-6.273-2.555-2.5-1.109-5.653-2.351-7.028-2.773-4.398-1.375-9.972-1.93-14.824-1.508-3.773.332-5.273.73-6.102 1.598-1.148 1.219-.375 1.375 2.926.62 1.7-.378 2.5-.444 4.676-.355 4.625.223 8.176 1.442 15.273 5.325 4.829 2.62 6.352 3.308 9.301 4.195 2 .602 2.653.71 4.926.71 4.25.024 6.25-.796 12.426-5.148 8.426-5.925 12.375-7.5 21.199-8.5 4.148-.464 5.023-.734 4.398-1.398-.699-.734-4.199-1.11-7.449-.8zM114.2 148.414c-4.052.602-7.274 1.953-9.598 3.996-5.977 5.262-3.204 11.496 7.898 17.735 2.176 1.218 8.125 3.906 8.648 3.906.227 0 .352.222.352.597 0 .356.102.735.2.868.323.441 3.624 2.195 5.3 2.816 2.602.957 3.273.824 4.102-.82.324-.621.75-1.266.972-1.418.2-.156.45-.711.551-1.223.074-.512.324-1.754.55-2.73.376-1.774.4-1.82 1.427-2.328 6.398-3.153 9.148-6.66 9.148-11.72 0-5.905-4.824-9.167-14.426-9.788-3.097-.2-3.375-.18-4.5.265-1.5.598-2.875.578-4.324-.023-1.324-.531-3.3-.574-6.3-.133zM146.398 165.46c-.699.446-.449 1.356.403 1.442.898.09 1.324-.574.8-1.242-.453-.578-.601-.597-1.203-.2zM91.273 166.793c-.421.465-.074 1.086.579 1 .375-.047.523-.223.523-.625 0-.621-.648-.84-1.102-.375zM149.648 167.68c-.699.445-.449 1.355.403 1.441.926.09 1.426-.687.8-1.309-.5-.507-.624-.507-1.203-.132zM88.273 169.457c-.347.375-1.5 1.02-2.671 1.484-1.778.735-2.153.977-2.727 1.887-.375.555-.625 1.067-.574 1.11.074.066.75-.286 1.523-.774.778-.488 2-1.18 2.727-1.512.972-.441 1.472-.843 1.898-1.554.727-1.176.625-1.532-.176-.641zM98.125 169.746c-.45.418-.398.73.176 1.063.3.156.523.132.8-.067.547-.398.5-.844-.078-1.133-.375-.152-.597-.132-.898.137zM155.125 172.652c2.023 1.996 2.852 3.04 3.75 4.637 1.898 3.375 4.05 4.73 9.102 5.75l1.398.29-.727-.49c-7.824-5.128-9.523-6.503-10.972-8.921-1.375-2.29-2.25-3.063-4.028-3.531l-1.148-.309zM164.824 171.61c1.028.843 2.301 2.128 2.852 2.816 1 1.312 1.773 1.687 2.449 1.18.727-.536-.25-2.797-1.7-3.93-.925-.711-2.527-1.266-4.374-1.488l-1.051-.133zM95.25 171.7c-.676.73.45 1.597 1.2.929.323-.29.35-.441.152-.754-.375-.512-.954-.578-1.352-.176zM92.773 174.805c-.625.664-3.449 2.11-4.648 2.375-2.574.554-5.05 1.754-6.926 3.394-.875.754-2.023 2.332-1.523 2.067.097-.047 1.347-.711 2.75-1.446 1.398-.754 3.25-1.617 4.125-1.906a169.49 169.49 0 0 1 3.023-1.043c1.528-.512 2.176-1.09 3.153-2.82.546-.953.574-1.176.046-.621zM100.074 176.758c-3.398 4.304-5.75 5.902-12.574 8.566-.5.2-.2.246 1.75.246 2.852.02 3.426-.18 6.773-2.308 4.204-2.688 5.977-4.528 5.977-6.192 0-1.047-.227-1.91-.477-1.91-.097 0-.75.73-1.449 1.598zM149.75 176.758c0 .265 1.727 4.527 2.676 6.547 1.597 3.418 3.097 4.86 5.926 5.816 1.171.375 4.898.996 5.074.82.05-.043-.574-.379-1.403-.777-4.472-2.11-8.625-6.101-11.324-10.898-.523-.91-.949-1.598-.949-1.508zm0 0"/></svg>