<svg xmlns="http://www.w3.org/2000/svg" viewBox="0 0 1000 1000" fill="#EA4968"><path d="M500.002 995.003c276.43 0 495.001-224.506 495.001-495.001C995.003 226.539 773.464 5 500.496 5 223.572 5 5 229.506 5 500.002c0 276.43 224.506 495.001 495.002 495.001zm-388.188-491.54c0-214.616 173.077-388.682 387.693-388.682 214.616 0 387.694 174.066 387.694 388.682 0 213.627-173.078 387.694-387.694 387.694S111.814 717.09 111.814 503.463zm193.846 46.484c0 33.626 25.715 62.308 59.341 62.308 33.627 0 62.308-27.693 62.308-62.308 0-33.627-27.692-59.341-61.319-59.341-34.615 0-60.33 25.714-60.33 59.34zM408.518 676.54c0 6.923 2.967 8.9 9.89 7.912h65.275c8.901.989 9.89-1.978 9.89-9.89v-82.089c0-6.923 1.978-8.9 7.912-8.9h62.308c23.736 0 48.462-4.946 70.22-17.803 48.462-31.648 64.286-78.132 58.352-133.517-4.945-53.407-47.473-98.901-98.901-108.791-31.649-5.935-65.275-.99-91.979-1.978h-78.132c-12.857 0-12.857 0-12.857 12.857 0 43.516 0 83.077-1.978 125.605 0 6.923 2.967 9.89 9.89 13.846 41.539 19.78 58.352 64.286 42.528 106.813-6.924 20.77-21.759 35.605-42.528 44.506-6.923 3.956-9.89 7.912-9.89 16.813 1.978 10.88 1.978 22.748 0 34.616zm85.055-172.089V398.628c0-6.923.99-8.901 7.912-8.901 14.835.989 28.682.989 43.517 0 41.538-2.967 70.22 32.637 62.308 74.176-3.956 33.626-26.704 51.428-59.341 51.428-14.835 0-30.66-.989-44.506 0-8.9 0-9.89-2.967-9.89-10.879z"></path></svg>