<svg xmlns="http://www.w3.org/2000/svg" width="250" height="250"><clipPath id="a"><path d="M42 14h204v3H42zm0 0"/></clipPath><clipPath id="b"><path d="M133.586 14.434H116.89C55.105 14.434 4.77 64.527 4.77 126.55c0 62.023 50.097 112.117 112.12 112.117h16.696c61.785 0 112.121-50.094 112.121-112.117 0-62.024-50.336-112.117-112.121-112.117zm14.793 166.984h-43.895l-32.441-56.059 32.441-56.062h43.895l32.441 56.062zm0 0"/></clipPath><clipPath id="c"><path d="M42 21h204v6H42zm0 0"/></clipPath><clipPath id="d"><path d="M133.586 14.434H116.89C55.105 14.434 4.77 64.527 4.77 126.55c0 62.023 50.097 112.117 112.12 112.117h16.696c61.785 0 112.121-50.094 112.121-112.117 0-62.024-50.336-112.117-112.121-112.117zm14.793 166.984h-43.895l-32.441-56.059 32.441-56.062h43.895l32.441 56.062zm0 0"/></clipPath><clipPath id="e"><path d="M42 31h204v5H42zm0 0"/></clipPath><clipPath id="f"><path d="M133.586 14.434H116.89C55.105 14.434 4.77 64.527 4.77 126.55c0 62.023 50.097 112.117 112.12 112.117h16.696c61.785 0 112.121-50.094 112.121-112.117 0-62.024-50.336-112.117-112.121-112.117zm14.793 166.984h-43.895l-32.441-56.059 32.441-56.062h43.895l32.441 56.062zm0 0"/></clipPath><clipPath id="g"><path d="M42 38h204v6H42zm0 0"/></clipPath><clipPath id="h"><path d="M133.586 14.434H116.89C55.105 14.434 4.77 64.527 4.77 126.55c0 62.023 50.097 112.117 112.12 112.117h16.696c61.785 0 112.121-50.094 112.121-112.117 0-62.024-50.336-112.117-112.121-112.117zm14.793 166.984h-43.895l-32.441-56.059 32.441-56.062h43.895l32.441 56.062zm0 0"/></clipPath><clipPath id="i"><path d="M42 47h204v6H42zm0 0"/></clipPath><clipPath id="j"><path d="M133.586 14.434H116.89C55.105 14.434 4.77 64.527 4.77 126.55c0 62.023 50.097 112.117 112.12 112.117h16.696c61.785 0 112.121-50.094 112.121-112.117 0-62.024-50.336-112.117-112.121-112.117zm14.793 166.984h-43.895l-32.441-56.059 32.441-56.062h43.895l32.441 56.062zm0 0"/></clipPath><clipPath id="k"><path d="M42 57h204v6H42zm0 0"/></clipPath><clipPath id="l"><path d="M133.586 14.434H116.89C55.105 14.434 4.77 64.527 4.77 126.55c0 62.023 50.097 112.117 112.12 112.117h16.696c61.785 0 112.121-50.094 112.121-112.117 0-62.024-50.336-112.117-112.121-112.117zm14.793 166.984h-43.895l-32.441-56.059 32.441-56.062h43.895l32.441 56.062zm0 0"/></clipPath><clipPath id="m"><path d="M42 66h204v6H42zm0 0"/></clipPath><clipPath id="n"><path d="M133.586 14.434H116.89C55.105 14.434 4.77 64.527 4.77 126.55c0 62.023 50.097 112.117 112.12 112.117h16.696c61.785 0 112.121-50.094 112.121-112.117 0-62.024-50.336-112.117-112.121-112.117zm14.793 166.984h-43.895l-32.441-56.059 32.441-56.062h43.895l32.441 56.062zm0 0"/></clipPath><clipPath id="o"><path d="M42 76h204v6H42zm0 0"/></clipPath><clipPath id="p"><path d="M133.586 14.434H116.89C55.105 14.434 4.77 64.527 4.77 126.55c0 62.023 50.097 112.117 112.12 112.117h16.696c61.785 0 112.121-50.094 112.121-112.117 0-62.024-50.336-112.117-112.121-112.117zm14.793 166.984h-43.895l-32.441-56.059 32.441-56.062h43.895l32.441 56.062zm0 0"/></clipPath><clipPath id="q"><path d="M42 85h204v6H42zm0 0"/></clipPath><clipPath id="r"><path d="M133.586 14.434H116.89C55.105 14.434 4.77 64.527 4.77 126.55c0 62.023 50.097 112.117 112.12 112.117h16.696c61.785 0 112.121-50.094 112.121-112.117 0-62.024-50.336-112.117-112.121-112.117zm14.793 166.984h-43.895l-32.441-56.059 32.441-56.062h43.895l32.441 56.062zm0 0"/></clipPath><clipPath id="s"><path d="M42 95h204v6H42zm0 0"/></clipPath><clipPath id="t"><path d="M133.586 14.434H116.89C55.105 14.434 4.77 64.527 4.77 126.55c0 62.023 50.097 112.117 112.12 112.117h16.696c61.785 0 112.121-50.094 112.121-112.117 0-62.024-50.336-112.117-112.121-112.117zm14.793 166.984h-43.895l-32.441-56.059 32.441-56.062h43.895l32.441 56.062zm0 0"/></clipPath><clipPath id="u"><path d="M42 105h204v5H42zm0 0"/></clipPath><clipPath id="v"><path d="M133.586 14.434H116.89C55.105 14.434 4.77 64.527 4.77 126.55c0 62.023 50.097 112.117 112.12 112.117h16.696c61.785 0 112.121-50.094 112.121-112.117 0-62.024-50.336-112.117-112.121-112.117zm14.793 166.984h-43.895l-32.441-56.059 32.441-56.062h43.895l32.441 56.062zm0 0"/></clipPath><clipPath id="w"><path d="M42 114h204v6H42zm0 0"/></clipPath><clipPath id="x"><path d="M133.586 14.434H116.89C55.105 14.434 4.77 64.527 4.77 126.55c0 62.023 50.097 112.117 112.12 112.117h16.696c61.785 0 112.121-50.094 112.121-112.117 0-62.024-50.336-112.117-112.121-112.117zm14.793 166.984h-43.895l-32.441-56.059 32.441-56.062h43.895l32.441 56.062zm0 0"/></clipPath><clipPath id="y"><path d="M42 124h204v5H42zm0 0"/></clipPath><clipPath id="z"><path d="M133.586 14.434H116.89C55.105 14.434 4.77 64.527 4.77 126.55c0 62.023 50.097 112.117 112.12 112.117h16.696c61.785 0 112.121-50.094 112.121-112.117 0-62.024-50.336-112.117-112.121-112.117zm14.793 166.984h-43.895l-32.441-56.059 32.441-56.062h43.895l32.441 56.062zm0 0"/></clipPath><clipPath id="A"><path d="M42 133h204v6H42zm0 0"/></clipPath><clipPath id="B"><path d="M133.586 14.434H116.89C55.105 14.434 4.77 64.527 4.77 126.55c0 62.023 50.097 112.117 112.12 112.117h16.696c61.785 0 112.121-50.094 112.121-112.117 0-62.024-50.336-112.117-112.121-112.117zm14.793 166.984h-43.895l-32.441-56.059 32.441-56.062h43.895l32.441 56.062zm0 0"/></clipPath><clipPath id="C"><path d="M42 143h204v6H42zm0 0"/></clipPath><clipPath id="D"><path d="M133.586 14.434H116.89C55.105 14.434 4.77 64.527 4.77 126.55c0 62.023 50.097 112.117 112.12 112.117h16.696c61.785 0 112.121-50.094 112.121-112.117 0-62.024-50.336-112.117-112.121-112.117zm14.793 166.984h-43.895l-32.441-56.059 32.441-56.062h43.895l32.441 56.062zm0 0"/></clipPath><clipPath id="E"><path d="M42 152h204v6H42zm0 0"/></clipPath><clipPath id="F"><path d="M133.586 14.434H116.89C55.105 14.434 4.77 64.527 4.77 126.55c0 62.023 50.097 112.117 112.12 112.117h16.696c61.785 0 112.121-50.094 112.121-112.117 0-62.024-50.336-112.117-112.121-112.117zm14.793 166.984h-43.895l-32.441-56.059 32.441-56.062h43.895l32.441 56.062zm0 0"/></clipPath><clipPath id="G"><path d="M42 159h204v6H42zm0 0"/></clipPath><clipPath id="H"><path d="M133.586 14.434H116.89C55.105 14.434 4.77 64.527 4.77 126.55c0 62.023 50.097 112.117 112.12 112.117h16.696c61.785 0 112.121-50.094 112.121-112.117 0-62.024-50.336-112.117-112.121-112.117zm14.793 166.984h-43.895l-32.441-56.059 32.441-56.062h43.895l32.441 56.062zm0 0"/></clipPath><clipPath id="I"><path d="M42 169h204v6H42zm0 0"/></clipPath><clipPath id="J"><path d="M133.586 14.434H116.89C55.105 14.434 4.77 64.527 4.77 126.55c0 62.023 50.097 112.117 112.12 112.117h16.696c61.785 0 112.121-50.094 112.121-112.117 0-62.024-50.336-112.117-112.121-112.117zm14.793 166.984h-43.895l-32.441-56.059 32.441-56.062h43.895l32.441 56.062zm0 0"/></clipPath><clipPath id="K"><path d="M42 179h204v5H42zm0 0"/></clipPath><clipPath id="L"><path d="M133.586 14.434H116.89C55.105 14.434 4.77 64.527 4.77 126.55c0 62.023 50.097 112.117 112.12 112.117h16.696c61.785 0 112.121-50.094 112.121-112.117 0-62.024-50.336-112.117-112.121-112.117zm14.793 166.984h-43.895l-32.441-56.059 32.441-56.062h43.895l32.441 56.062zm0 0"/></clipPath><clipPath id="M"><path d="M42 188h204v6H42zm0 0"/></clipPath><clipPath id="N"><path d="M133.586 14.434H116.89C55.105 14.434 4.77 64.527 4.77 126.55c0 62.023 50.097 112.117 112.12 112.117h16.696c61.785 0 112.121-50.094 112.121-112.117 0-62.024-50.336-112.117-112.121-112.117zm14.793 166.984h-43.895l-32.441-56.059 32.441-56.062h43.895l32.441 56.062zm0 0"/></clipPath><clipPath id="O"><path d="M42 198h204v5H42zm0 0"/></clipPath><clipPath id="P"><path d="M133.586 14.434H116.89C55.105 14.434 4.77 64.527 4.77 126.55c0 62.023 50.097 112.117 112.12 112.117h16.696c61.785 0 112.121-50.094 112.121-112.117 0-62.024-50.336-112.117-112.121-112.117zm14.793 166.984h-43.895l-32.441-56.059 32.441-56.062h43.895l32.441 56.062zm0 0"/></clipPath><clipPath id="Q"><path d="M42 207h204v6H42zm0 0"/></clipPath><clipPath id="R"><path d="M133.586 14.434H116.89C55.105 14.434 4.77 64.527 4.77 126.55c0 62.023 50.097 112.117 112.12 112.117h16.696c61.785 0 112.121-50.094 112.121-112.117 0-62.024-50.336-112.117-112.121-112.117zm14.793 166.984h-43.895l-32.441-56.059 32.441-56.062h43.895l32.441 56.062zm0 0"/></clipPath><clipPath id="S"><path d="M42 217h204v5H42zm0 0"/></clipPath><clipPath id="T"><path d="M133.586 14.434H116.89C55.105 14.434 4.77 64.527 4.77 126.55c0 62.023 50.097 112.117 112.12 112.117h16.696c61.785 0 112.121-50.094 112.121-112.117 0-62.024-50.336-112.117-112.121-112.117zm14.793 166.984h-43.895l-32.441-56.059 32.441-56.062h43.895l32.441 56.062zm0 0"/></clipPath><clipPath id="U"><path d="M42 226h204v6H42zm0 0"/></clipPath><clipPath id="V"><path d="M133.586 14.434H116.89C55.105 14.434 4.77 64.527 4.77 126.55c0 62.023 50.097 112.117 112.12 112.117h16.696c61.785 0 112.121-50.094 112.121-112.117 0-62.024-50.336-112.117-112.121-112.117zm14.793 166.984h-43.895l-32.441-56.059 32.441-56.062h43.895l32.441 56.062zm0 0"/></clipPath><clipPath id="W"><path d="M42 236h204v3H42zm0 0"/></clipPath><clipPath id="X"><path d="M133.586 14.434H116.89C55.105 14.434 4.77 64.527 4.77 126.55c0 62.023 50.097 112.117 112.12 112.117h16.696c61.785 0 112.121-50.094 112.121-112.117 0-62.024-50.336-112.117-112.121-112.117zm14.793 166.984h-43.895l-32.441-56.059 32.441-56.062h43.895l32.441 56.062zm0 0"/></clipPath><path fill="#2dff6c" stroke="#8400ff" stroke-width="4.771" d="M133.586 14.434H116.89C55.105 14.434 4.77 64.527 4.77 126.55s50.097 112.117 112.12 112.117h16.696c61.785 0 112.121-50.094 112.121-112.117S195.371 14.434 133.586 14.434zm14.793 166.984h-43.895l-32.441-56.059 32.441-56.062h43.895l32.441 56.062zm0 0"/><g clip-path="url(#a)"><g clip-path="url(#b)"><path fill="none" stroke="#8400ff" stroke-width="4.771" d="M45.324 14.434h238.551"/></g></g><g clip-path="url(#c)"><g clip-path="url(#d)"><path fill="none" stroke="#8400ff" stroke-width="4.771" d="M45.324 23.973h238.551"/></g></g><g clip-path="url(#e)"><g clip-path="url(#f)"><path fill="none" stroke="#8400ff" stroke-width="4.771" d="M45.324 33.516h238.551"/></g></g><g clip-path="url(#g)"><g clip-path="url(#h)"><path fill="none" stroke="#8400ff" stroke-width="4.771" d="M45.324 40.672h238.551"/></g></g><g clip-path="url(#i)"><g clip-path="url(#j)"><path fill="none" stroke="#8400ff" stroke-width="4.771" d="M45.324 50.215h238.551"/></g></g><g clip-path="url(#k)"><g clip-path="url(#l)"><path fill="none" stroke="#8400ff" stroke-width="4.771" d="M45.324 59.758h238.551"/></g></g><g clip-path="url(#m)"><g clip-path="url(#n)"><path fill="none" stroke="#8400ff" stroke-width="4.771" d="M45.324 69.297h238.551"/></g></g><g clip-path="url(#o)"><g clip-path="url(#p)"><path fill="none" stroke="#8400ff" stroke-width="4.771" d="M45.324 78.84h238.551"/></g></g><g clip-path="url(#q)"><g clip-path="url(#r)"><path fill="none" stroke="#8400ff" stroke-width="4.771" d="M45.324 88.383h238.551"/></g></g><g clip-path="url(#s)"><g clip-path="url(#t)"><path fill="none" stroke="#8400ff" stroke-width="4.771" d="M45.324 97.926h238.551"/></g></g><g clip-path="url(#u)"><g clip-path="url(#v)"><path fill="none" stroke="#8400ff" stroke-width="4.771" d="M45.324 107.465h238.551"/></g></g><g clip-path="url(#w)"><g clip-path="url(#x)"><path fill="none" stroke="#8400ff" stroke-width="4.771" d="M45.324 117.008h238.551"/></g></g><g clip-path="url(#y)"><g clip-path="url(#z)"><path fill="none" stroke="#8400ff" stroke-width="4.771" d="M45.324 126.55h238.551"/></g></g><g clip-path="url(#A)"><g clip-path="url(#B)"><path fill="none" stroke="#8400ff" stroke-width="4.771" d="M45.324 136.094h238.551"/></g></g><g clip-path="url(#C)"><g clip-path="url(#D)"><path fill="none" stroke="#8400ff" stroke-width="4.771" d="M45.324 145.633h238.551"/></g></g><g clip-path="url(#E)"><g clip-path="url(#F)"><path fill="none" stroke="#8400ff" stroke-width="4.771" d="M45.324 155.176h238.551"/></g></g><g clip-path="url(#G)"><g clip-path="url(#H)"><path fill="none" stroke="#8400ff" stroke-width="4.771" d="M45.324 162.332h238.551"/></g></g><g clip-path="url(#I)"><g clip-path="url(#J)"><path fill="none" stroke="#8400ff" stroke-width="4.771" d="M45.324 171.875h238.551"/></g></g><g clip-path="url(#K)"><g clip-path="url(#L)"><path fill="none" stroke="#8400ff" stroke-width="4.771" d="M45.324 181.418h238.551"/></g></g><g clip-path="url(#M)"><g clip-path="url(#N)"><path fill="none" stroke="#8400ff" stroke-width="4.771" d="M45.324 190.957h238.551"/></g></g><g clip-path="url(#O)"><g clip-path="url(#P)"><path fill="none" stroke="#8400ff" stroke-width="4.771" d="M45.324 200.5h238.551"/></g></g><g clip-path="url(#Q)"><g clip-path="url(#R)"><path fill="none" stroke="#8400ff" stroke-width="4.771" d="M45.324 210.043h238.551"/></g></g><g clip-path="url(#S)"><g clip-path="url(#T)"><path fill="none" stroke="#8400ff" stroke-width="4.771" d="M45.324 219.586h238.551"/></g></g><g clip-path="url(#U)"><g clip-path="url(#V)"><path fill="none" stroke="#8400ff" stroke-width="4.771" d="M45.324 229.125h238.551"/></g></g><g clip-path="url(#W)"><g clip-path="url(#X)"><path fill="none" stroke="#8400ff" stroke-width="4.771" d="M45.324 238.668h238.551"/></g></g><g stroke="#8400ff" stroke-width="2"><path fill="#2dff6c" stroke-width="4.771" d="M116.89 13.715c-62.023 0-112.359 50.097-112.359 112.36 0 62.023 50.336 112.355 112.36 112.355 62.023 0 112.355-50.332 112.355-112.356 0-62.262-50.332-112.36-112.355-112.36zm32.442 167.703H84.445l-32.203-56.059 32.203-56.062h64.649l32.441 56.062zm0 0"/><path fill="none" stroke-width="4.771" d="M116.89 28.27c-53.913 0-97.566 43.652-97.566 97.566 0 53.91 43.653 97.566 97.567 97.566 53.91 0 97.566-43.656 97.566-97.566 0-53.676-43.656-97.566-97.566-97.566zm0 0"/></g></svg>