<svg xmlns="http://www.w3.org/2000/svg" width="250" height="250"><path fill="#0000cf" d="M226.316 8.352 202.27 27.945l10.289 12.008zm0 0"/><path fill="#0000ab" d="m151.418.223 33.508 65.007-3.594-40.125zm0 0"/><path fill="#0014bf" d="m151.418.223.05.168.024-.008 28.703 98.972 4.73-34.125zm0 0"/><path fill="#0000cf" d="m151.469.39-17.14 5.465 45.866 93.5L151.492.383zm0 0"/><path fill="#0000e3" d="m134.328 5.855-3.867 62.032 49.734 31.468zm0 0"/><path fill="#0000cf" d="m134.328 5.855-55.137 73.7 51.27-11.668zm0 0"/><path fill="#0014bf" d="m180.195 99.355-54.84 24.016 30.098-5.465zm0 0"/><path fill="#001cd1" d="m125.355 123.371-30.296 8.363 30.816 8.36zm0 0"/><path fill="#0000ab" d="m155.453 117.906-30.098 5.465.52 16.723zm0 0"/><path fill="#0000ab" d="M130.46 67.887 79.192 79.555l46.164 43.816zm0 0"/><path fill="#0000cf" d="m79.191 79.555 15.868 52.18 30.296-8.364zm0 0"/><path fill="#0000ab" d="m79.191 79.555.579 70.172 15.289-17.993zm0 0"/><path fill="#001cd1" d="m53.215 93.617-10.738 18.465 16.832 40.988zm0 0"/><path fill="#0000ab" d="m42.477 112.082-19.43.406 19.469 18.746zm0 0"/><path fill="#0000e3" d="m23.047 112.496 1.558 12.965 17.91 5.809v-.036zm0 0"/><path fill="#0000cf" d="m23.047 112.496-9.578 28.856 11.136-15.891zm0 0"/><path fill="#0000ab" d="m0 147.629 12.688 3.351.777-9.628zm0 0"/><path fill="#0000e3" d="m24.602 125.46-11.133 15.892-.778 9.628zm0 0"/><path fill="#404a80" d="m42.578 158.414-.062-27.137zm0 0"/><path fill="#0014bf" d="m42.477 112.082.039 19.152v.036l.062 27.144 16.73-5.344zm0 0"/><path fill="#0000cf" d="M47.332 189.195 33.41 198.25l1.797 31.383zm0 0"/><path fill="#0000ab" d="m33.41 198.25-5.2 36.824 6.997-5.441zm0 0"/><path fill="#0000cf" d="m22.559 249.777 14.523-4.82-1.875-15.324zm0 0"/><path fill="#0000e3" d="m28.207 235.074-5.644 14.703 12.644-20.144zm0 0"/><path fill="#0000ab" d="m59.309 153.07-16.73 5.344-9.169 39.836zm0 0"/><path fill="#0000e3" d="M59.309 153.07 33.41 198.25l13.922-9.055 23.371-15.21zm0 0"/><path fill="#0000cf" d="M79.191 79.555 53.215 93.617l6.094 59.453zm0 0"/><path fill="#0000e3" d="M79.191 79.555 59.31 153.07l20.46-3.343zm0 0"/><path fill="#0000ab" d="m79.77 149.727-20.461 3.343 11.398 20.914zm0 0"/><path fill="#0000cf" d="m179.543 117.645-24.09.261 8.727 37.688zm0 0"/><path fill="#0000e3" d="m180.195 99.355-24.742 18.551 24.09-.261zm0 0"/><path fill="#0014bf" d="m155.453 117.906-4.71 33.621 13.437 4.067zm0 0"/><path fill="#0000cf" d="m150.742 151.527-5.812 17.602 19.25-13.535zM150.742 151.527l-13.844 1.293-3.62 28.864zm0 0"/><path fill="#0000ab" d="m150.742 151.527-17.465 30.157 11.653-12.555zm0 0"/><path fill="#0014bf" d="m225.18 1.96-22.91 25.985 24.042-19.593zm0 0"/><path fill="#0000bf" d="m225.18 1.96 1.132 6.392L243.958.46zM202.71 49.36l10.423 11.855 7.734-3.668 17.153-8.145zm0 0"/><path fill="#00009e" d="m233.086 43.02-16.164 3.375-14.211 2.964 35.309.043zm0 0"/><path fill="#0014bf" d="m247.012 23.29-13.926 19.73 4.937 6.382zm0 0"/><path fill="#0000e3" d="m238.023 49.402 11.98-23.87-2.991-2.243zm0 0"/><path fill="#000f91" d="M247.012 23.29 250 25.53l-.504-13.543zm0 0"/><path fill="#0000ab" d="m184.926 65.23-4.73 34.125 8.132 13.551zm0 0"/><path fill="#0000cf" d="m213.133 61.215-28.207 4.015 3.402 47.676zm0 0"/><path fill="#0000e3" d="m181.332 25.105 3.594 40.125 28.207-4.015zm0 0"/><path fill="#0000ab" d="m212.563 39.953-9.852 9.406 14.21-2.964zm0 0"/><path fill="#0000cf" d="m181.332 25.105 21.379 24.254 9.848-9.406zm0 0"/><path fill="#0000ab" d="m181.332 25.105 31.227 14.848-10.29-12.008zm0 0"/><path fill="#0014bf" d="m213.133 61.215-1.297 75.496 12.582-60.703zm0 0"/><path fill="#0000e3" d="m213.133 61.215-24.805 51.691 23.508 23.805zm0 0"/><path fill="#0000ab" d="m220.867 57.54-7.734 3.675 11.285 14.793zM224.418 76.008l-12.582 60.703 14.074-10.434zm0 0"/><path fill="#0000cf" d="m130.46 67.887-5.105 55.484 54.84-24.016zm0 0"/><g fill="#170087"><path d="M40.629 232.39h1.187v5.356h.688v-5.355h1.187v-.965H40.63zM48.328 231.426h-.703l-1.215 4.64-1.21-4.64h-.829v6.32h.68v-4.3l1.183 4.3h.36l1.18-4.3v4.3h.68v-6.32zm0 0"/></g></svg>