<svg width="201" height="201" viewBox="0 0 201 201" fill="none" xmlns="http://www.w3.org/2000/svg">
<circle cx="100.5" cy="100.5" r="100.5" fill="#3840C7"/>
<circle cx="101" cy="101" r="92" fill="white"/>
<path fill-rule="evenodd" clip-rule="evenodd" d="M116.275 64.2758C115.551 63.552 114.691 62.9784 113.744 62.5878C112.798 62.1973 111.783 61.9975 110.759 62H110.739C109.713 61.9998 108.697 62.2037 107.75 62.5998C106.804 62.9959 105.946 63.5763 105.226 64.3072L44.2773 125.508C43.5514 126.232 42.9764 127.093 42.5855 128.041C42.1946 128.988 41.9956 130.004 42.0001 131.029C42.0058 133.114 42.8248 135.073 44.303 136.545C45.0254 137.268 45.884 137.842 46.8292 138.233C47.7745 138.623 48.7877 138.823 49.8105 138.82C51.9023 138.82 53.8742 138.002 55.3524 136.522L116.298 75.3182C117.757 73.849 118.573 71.862 118.569 69.7923C118.565 67.7226 117.74 65.739 116.275 64.2758Z" fill="#2DB8E3"/>
<path fill-rule="evenodd" clip-rule="evenodd" d="M151.66 62.7443C150.232 62.148 148.657 61.9921 147.14 62.2965C145.622 62.6008 144.23 63.3517 143.142 64.4526L82.1878 125.659C80.7279 127.128 79.9109 129.116 79.9163 131.186C79.9214 133.257 80.749 135.24 82.2163 136.701C83.6871 138.16 85.677 138.976 87.749 138.971C89.8211 138.965 91.8063 138.137 93.2686 136.67L140.862 88.8787V131.163C140.864 133.234 141.687 135.219 143.152 136.683C144.617 138.147 146.603 138.97 148.675 138.971C150.747 138.97 152.733 138.147 154.198 136.683C155.664 135.219 156.487 133.234 156.488 131.163V69.9624C156.493 68.4158 156.036 66.903 155.176 65.6173C154.316 64.3316 153.092 63.3313 151.66 62.7443Z" fill="#3840C7"/>
</svg>
