<svg xmlns="http://www.w3.org/2000/svg" width="250" height="250"><linearGradient id="a" x1="0" x2="1" y1=".5" y2=".5" gradientTransform="scale(248.375 250)" gradientUnits="userSpaceOnUse"><stop offset="0" stop-color="#0bbdda"/><stop offset=".387" stop-color="#7d58f2"/><stop offset="1" stop-color="#fb71ae"/></linearGradient><path fill="url(#a)" fill-rule="evenodd" d="M68.918 0 0 89.223l24.598 111.261L124.188 250l99.593-49.516 24.594-111.261L179.457 0zm19.957 16.105h70.629l-35.316 45.72zm-67.898 71.79 51.699-66.926 41.535 53.773-30.93 40.04zm158.726-61.747 46.238 59.864-62.46 13.504zm-45.539 48.594 26.328-34.082-11.715 52.996zm-9.976 12.918 13.468 17.438-32.34 6.992zm41.46 27.84 63.973-13.828-16.613 75.14zm-146.23-10.82 53.75 23.195-37.8 48.938zm24.145 87.36 46.492-60.196 52.8-11.414-24.093 108.996zm113.214-62.192 48.036 62.191-69.415 34.508zm0 0"/></svg>