<svg xmlns="http://www.w3.org/2000/svg" width="250" height="250"><path fill="#05bca9" d="M248.125 122.504c-7-6.73-13.617-13.828-20.617-20.559a5.654 5.654 0 0 1-1.746-6.73c2.879-9.719 5.375-19.442 8.125-29.16.75-2.371.37-3.36-2.25-3.989-9.996-2.492-19.864-5.48-29.992-7.98-2.88-.621-4-2.121-4.622-4.742-2.5-9.719-5.246-19.188-7.625-28.91-.75-2.868-1.62-3.489-4.5-2.618-9.746 2.739-19.617 5.23-29.363 7.73-1.625.5-3.129.868-4.62-.62-8.005-8.211-16.38-16.063-24.118-24.66-.883.02-1.766-.063-2.629-.25.05.66-.293 1.3-.871 1.62-7.504 7.348-14.992 14.7-22.375 22.18a5.116 5.116 0 0 1-5.875 1.5c-9.746-2.742-19.496-5.23-29.242-7.98-2.75-.75-3.871-.25-4.625 2.617-2.496 9.723-5.375 19.442-7.871 29.16a4.633 4.633 0 0 1-3.871 3.992c-9.868 2.489-19.493 5.23-29.36 7.598-3.25.75-4.125 1.871-3.129 5.23 2.875 9.602 5.121 19.442 7.871 29.16.883 2.071.27 4.462-1.504 5.86-7.37 7.102-14.5 14.461-21.87 21.563-1.997 1.87-1.876 2.988 0 4.859 7.25 7.102 14.25 14.328 21.488 21.43a4.862 4.862 0 0 1 1.625 5.73c-2.746 9.602-5.125 19.192-8.004 28.79-1 3.359-.5 4.741 3.129 5.609 9.75 2.37 19.246 5.23 28.992 7.601 2.879.621 4 2.121 4.625 4.738 2.496 9.84 5.242 19.442 7.75 29.282.62 2.492 1.504 3.12 4 2.37 9.629-2.741 19.367-4.98 28.992-7.73a6.261 6.261 0 0 1 7.121 1.989c6.867 7.101 13.867 13.96 20.746 21.062 2.13 2.238 3.371 2.367 5.625.117 6.871-7.226 14.121-14.078 21.121-21.308a5.793 5.793 0 0 1 6.75-1.871c9.625 2.87 19.242 5.23 28.871 7.98 2.746.75 3.871.25 4.621-2.617 2.38-9.602 5.375-19.192 7.754-28.793.621-2.867 1.993-3.988 4.75-4.61 9.75-2.37 19.246-5.109 28.993-7.48 2.878-.617 3.75-1.738 2.878-4.738-2.746-9.723-5.246-19.692-8.003-29.531a4.966 4.966 0 0 1 1.503-5.86c7.122-6.851 14.122-14.082 21.372-20.93 2.609-2.48 2.355-3.73-.02-6.101zm-185.32-5.598v.028c-.04 4.23-3.508 7.62-7.75 7.582H47.3c-3.246 0-6.496 0-9.867.12-1.743 0-2.246-.62-1.875-2.37.875-3.61 1.746-6.48 6.5-7.23 6.125-.872 11.992-2.99 17.988-4.74 2.129-.5 3-.25 2.75 1.99-.113 1.5.008 3.12.008 4.62zm-.371 67.989c-5.153-4.84-9.766-9.31-14.5-13.782 4-2.238 7.87-4.36 11.625-6.597 2.125-1.25 2.875-1 2.875 1.62-.118 6.079 0 12.298 0 18.759zm-13.868-16.399c-1.504.867-1.875.5-2.246-1-1.125-4.492-2.496-8.973-3.62-13.46-.25-1-.372-2.24.62-2.872 1.004-.617 1.746.25 2.496.621 5.125 2.871 10.25 5.86 16.13 9.102-4.755 2.617-9.137 4.988-13.38 7.61zm-9.496-66.8c-1.254 3.12-5.625 3.609-8.496 5.609-2.875-7.352-2.875-7.352 2.13-12.461 3.5-3.489 6.995-6.848 10.495-10.34.324-.2.653-.36 1.004-.5-1.766 6.23-2.887 12.21-5.133 17.691zm7.489-19.06c.254-1.12 1.125-.87 1.746-.5 4.254 2.489 8.375 4.977 13.117 7.727-6.75 3.864-12.875 7.352-19.867 11.09 1.757-6.61 3.382-12.469 5.004-18.316zm-13.114 32.77c-1.375 0-1.375-1.37-1.625-2.242-1.375-4.11-1.125-4.36 6.375-7.48-.699 2.87-1.37 5.23-1.945 7.48a2.61 2.61 0 0 1-2.805 2.242zm-7.504 2.117c-4.753 1.25-9.496 2.372-14.25 3.493l-.37-.5 17.25-10.09c2.878 5.36 2.745 5.73-2.63 7.097zm3.633 1c3.246-.75 2.246 2.622 2.875 3.993.625 1.37-.25 1.988-1.742 1.988H10.328c0-.25-.121-.617-.121-.867 6.371-1.621 12.738-3.492 19.367-5.114zm4.89 11.793c1.247 4.707 2.49 9.418 3.903 14.5-9.476-4.601-8.254-2.011-3.902-14.5zm-3.218 13.38c3.129-.122 8.746 5.109 8.746 7.98-.8 2.12-2.496 4.11-4.12 6.36-.122 0-.25.12-.372.12-1.254.25-7.371-7.23-7.121-8.601.121-.25.121-.5.25-.75.863-1.75-.129-4.989 2.617-5.11zm2.75 20.558c1.254-1.867 2.125-2.617 3.871-.5a65.414 65.414 0 0 0 5.125 5.23c.621.75 1.875 1.371.25 2.371-7.12 3.989-14.37 8.098-21.492 12.09-.2-.18-.36-.39-.5-.62 4.191-6.231 8.441-12.34 12.746-18.571zm6.95-9.469c1.12 3.988 2.124 7.98 3.25 12.211-8.126-5.73-8.376-6.48-3.25-12.21zm2.995-8.601c-1.37 2.12-2.875 1.25-3.367-.5a492.844 492.844 0 0 1-4.875-17.938c-.62-1.992 1.125-1.5 2.125-1.5h19.867c-4.882 7.11-9.254 13.59-13.75 19.938zm17.743-38.13a8161.534 8161.534 0 0 0-23.246 6.11c.5-7.23 3-11.96 9.628-14.578 4.993-1.992 9.496-5.23 14.871-8.223v14.953a1.564 1.564 0 0 1-1.253 1.739zm1.12-38.257v18.566c-4.62-2.617-8.742-5.11-12.745-7.476-1.371-.75-1.743-1.5-.371-2.871a384.358 384.358 0 0 0 9.87-9.84c.61-.89 1.774-1.2 2.747-.75 1.004.379.5 1.5.5 2.37zm-13.867 5.11c1.254-8.852 1.876-9.473 8.372-7.481-2.875 2.62-5.746 5.11-8.371 7.48zm12.876-47.973c.25.12.62.12.87.25v16.57c0 6.851 0 6.851-7.62 7.851 2.246-8.351 4.496-16.57 6.75-24.671zm-8.254 29.78c.504-3.237 3-2.87 5.125-3.737 3.62-1.5 4.37.117 4 3.238v1.5c0 6.73-3.368 9.219-9.625 6.98-.754-.25-1.254-.5-1.125-1.25.504-2.25 1.254-4.492 1.625-6.73zm-28.739 5.11c8.926-2.238 17.871-4.61 27.246-6.98-.754 2.992-1.375 5.36-1.996 7.851-.5 1.989-1.996 1.621-3.37 1.5-7.25-.62-14.622-1.12-21.99-1.742.09-.2.13-.418.11-.629zm21.992 4.23c1.743.122 2.126.75 1.743 2.493-2.246 10.219-2.125 10.219-11 4.976-4.621-2.738-9.375-5.476-14.5-8.468 8.394-.739 16.136.629 23.758 1zm-27.117.63c-.12-.368-.12-.618-.25-1 .371 0 .621.12 1 .12 7.504 4.36 15.125 8.852 22.867 13.212.75.5 1.876.75.622 2.12-5.125 5.227-10.118 10.59-15.121 15.95a6.616 6.616 0 0 1-1.375-.621c-2.618-9.969-5.114-19.809-7.743-29.781zm6.496 34.64c.372.371.754.5.754.621 1.746 6.36 1.746 6.36-4 9.602-4.254 2.488-8.625 4.86-13.367 7.476a1209.097 1209.097 0 0 1 16.613-17.699zM5.957 126.246c8.004 0 15.875 0 23.867-.121 2.125 0 2.996.371 2.125 2.871-1.254 3.36-1.12 8.719-3.37 9.84-2.626 1.367-6.247-2.742-9.376-4.36-4.504-2.37-8.875-5.113-13.367-7.601.039-.21.09-.422.121-.629zm3.117 5.488.121-.12c6.38 2.37 11.875 6.363 17.739 9.6 1.625.872 1.254 3.122-1.121 7.852-5.735-5.75-11.493-11.23-16.739-17.332zm17.992 22.051c.372.121.75.121.872.25 6.5 6.23 6.5 6.23 1.375 13.578-2.75 3.992-5.625 7.852-8.375 11.711l-.622-.5zm-7.62 33.27c8.742-4.98 16.616-9.47 24.616-13.961 1.004-.617 1.504-.5 1.876.75 1.874 7.101 3.75 14.082 5.878 21.93a1628.295 1628.295 0 0 0-32.37-8.72zm42.667 36.39c-.25 0-.5.121-.75.121-2.246-8.101-4.375-16.203-6.62-24.55h-.052c.875-.121 1.125-.25 1.426-.121 5.996 1.37 5.996 1.37 5.996 7.601zm.203-25.422c-.875.122-1.004.25-1.004.25-5.496-.367-8.496-3.117-9.246-8.718-.754-4.739-2.246-9.22-2.75-14.211 4.004 3.992 8.246 7.73 11.875 12.09 2.618 3.113.121 6.98 1.125 10.59zm.489-59.808-.371 17.45c0 2.241-.371 3.241-2.746 1.741-4.254-2.492-8.497-4.98-12.876-7.23-1.874-1-1.874-1.871-.753-3.492 4.37-6.23 8.746-12.457 12.996-18.82a2.634 2.634 0 0 1 2.879-1.5c1.746.25.87 1.62.87 2.491.133 3.122 0 6.239 0 9.36zm107.472-58.82c-3.75-2.489-8.375-3.489-10-8.348a4.887 4.887 0 0 1 .121-4.363 526.446 526.446 0 0 0 9.375-16.079c1.254-2.12 1.997-1.742 3.622-.37 2.75 2.37 3.75 4.742 2.496 8.35-2.114 6.849-3.739 13.83-5.614 20.81zm15.625 93.96c0 10.34 0 10.34-10.37 9.47-4.993-.372-10.118-.872-15.122-1.25-1.254-.122-2.246-.25-2.629-1.74-.37-1.5 1.004-1.62 1.875-2.12 7.871-4.36 15.625-8.719 23.367-13.211 2.375-1.367 3.13-.75 2.88 1.871-.133 2.371 0 4.61 0 6.98zm-45.117 31.52c-4.254-3.121-9.125-5.48-14-8.352a582.006 582.006 0 0 0 12.875-7.347 1.741 1.741 0 0 1 2.38.25c5.491 5.48 11.12 10.969 16.866 16.699-.754.621-.875.75-.875.75-6.125 2.738-11.742 2.238-17.246-2zm5.125 5.238c-6.5 1.621-12.246 3.242-17.992 4.742-1.375.372-1.875 0-1.875-1.5v-14.949a1504.86 1504.86 0 0 1 19.867 11.707zm-63.48-6.11c-1.743-.5-.871-1.5-.371-2.366 3.25-5.614 6.62-11.223 10.12-17.32 3.618 7.597 6.997 14.578 10.247 21.558 1.254 2.488 0 3.36-1.996 2.871-6.004-1.371-12.004-3.121-18-4.742zm16.496 6.36c-8.242 5.48-8.492 5.364-15.742-4.238 5.363 1.488 10.367 2.738 15.742 4.238zm-18.942-37.386c.121-.622.5-1.25 1.254-.75 2.625 1.617 5.746 2.367 7.621 5.109 1.875 2.738 2.625 5.48.25 8.719a106.615 106.615 0 0 0-7.62 13.082c-1.876 3.61-3.372 3.36-5.497.5-.87-1.25-2.625-1.871-2.246-3.864 2.055-7.59 4.063-15.199 6.238-22.796zM64.563 53.844a1.367 1.367 0 0 1-.043-.309 2.497 2.497 0 0 1 2.296-2.68c2.75-.5 5.496-1.25 8.243-1.992a2.889 2.889 0 0 1 1.004 0c-.231.153-.41.371-.5.621-3.5 3.36-7 6.852-11 10.72 0-2.368.117-4.36 0-6.36zm.87 8.73c4.504-4.738 9.126-9.347 14.122-14.46 3.867 6.73 7.25 12.71 11.25 19.44-8.875-.62-16.996-1.12-24.993-1.988-2.374-.25-1.382-2-.378-2.992zm42.61-17.57c4.621 3.61 10.117 6.23 15.742 9.473-4.5 2.617-8.492 4.859-12.492 7.226-1.004.621-1.746 1-2.75 0-5.496-5.61-11.121-11.09-16.996-16.95 6.008-2.366 11-3.987 16.496.25zm-3.371-3.988a1591.91 1591.91 0 0 1 17.742-4.743c1.371-.367 2.125-.25 2.125 1.5v14.832c-6.75-3.87-12.996-7.601-19.867-11.59zm15.172 52.21c-1.25-1.5-3.246.118-4.75.5-6.25 1.5-6.13 1.618-9.38-3.992-2.745-4.98-5.495-9.968-8.491-14.828-1.125-1.992-1.004-2.992 1.12-3.86 1.255-.5 2.38-1.12 3.5-1.62 2.63-1.121 4.997-4.11 7.505-3.61 2.875.618 4.62 3.989 6.867 6.11 6.95 6.98 13.82 14.078 20.95 20.808a14.319 14.319 0 0 1 4.62 9.47c-8.07-1.368-15.992-2.618-23.816-4.11 0-.25-.117-.5 0-.75.37-1.5 3.25-2.38 1.875-4.117zM64.68 77.396l.05-1.25c0-8.848 0-8.848 8.625-8.22 5.497.372 11.122 1 16.618 1.372 1.254.117 2.324.117 2.695 1.617s-1 1.621-1.742 2.121L67.309 86.496c-2.496 1.5-2.746.367-2.63-1.742.133-2.5 0-4.86 0-7.36zm7.875 8.351c6.617-3.242 12.746-6.98 18.992-10.723 2.375-1.5 3.25-.75 4.371 1.372 3 5.73 6.25 11.34 9.629 16.82 1.371 2.238 1 2.87-1.504 3.488-11.875 2.992-23.75 6.23-35.613 9.473-2.625.75-3.618.5-3.246-2.371.12-1.739 0-3.61 0-6.48-2.13-5.84 1.754-8.962 7.37-11.579zm-7.743 36.14c.122-1.62.372-3.363.372-4.98.12-7.851.12-7.851 7.5-9.84 9.625-2.492 19.242-4.98 28.87-7.73 3.872-1.121 7.622-1.621 11.743.367a1043.604 1043.604 0 0 0-15.371 18.692c-1.746-1.25-1.004-4.489-3.13-4.239-1.874.25-1.374 2.989-1.995 4.61a20.87 20.87 0 0 0-1.004 3.738c0 .031-.012.07-.012.101a2.6 2.6 0 0 1-2.988 2.141c-7.117-.121-14.25-.25-21.367-.121-2.246 0-2.868-.871-2.618-2.738zm26.614-79.382a2.606 2.606 0 0 1-3.25-1.367c-.871-1.371.504-1.871 1.125-2.492 2.996-3.239 3.129-3.239 9.996 1.742-2.875.75-5.496 1.25-7.871 2.117zm-2.828-6.098c-1.625 2.367-3.13 2.489-5.246.117-3.125-3.488-6.618-6.726-9.997-10.09.122-.25.25-.617.372-.867 5.828 2.239 10.699 6.23 15.996 8.848.129 1.11-.743 1.36-1.125 1.992zM93.3 49.234c4.754 4.61 9.375 9.22 14.5 14.211a76.69 76.69 0 0 1-7.25 4.239 7.232 7.232 0 0 1-9.375-3.239c-3.25-5.73-6.5-11.34-9.746-17.07 7.117-2.871 7.117-2.75 11.87 1.86zm-28.871 80.25c0-2.37.37-3.359 3.129-3.238 6.75.25 13.5.117 20.246.117 1.746 0 2.75.25 2.129 2.371-3.621 13.082-7.121 26.172-10.75 39.63-2.25-1.368-4.125-2.368-5.88-3.36-9.245-5.23-9.245-5.23-8.995-15.7.254-6.609.254-13.21.12-19.82zm29.875 54.461c-.621-1.12-1.004-2.12.12-3.12.872-.872 1.626 0 2.376.37 8.625 4.98 17.117 10.09 26.113 15.328-5.375 3.122-10.25 5.98-14.992 8.852-1.625 1.121-2.746 1.5-3.75-.871-3.117-6.848-6.5-13.707-9.867-20.559zm-2.38-8.101c-1-.617-1.874-1.367-2.874-1.989-2.63-1.87-7-2.242-7.621-5.23-.625-2.738 1.25-6.11 2.125-9.219 2.496-8.972 5.125-17.82 7.25-26.922a15.033 15.033 0 0 1 6.125-9.468c2.5 6.847 4.875 13.578 7.625 19.937.75 2.242.62 3.121-1.996 2.621-.875-.12-1.996-.5-2.5.5-.5 1 .625 1.5 1.125 2.242 1.746 2.368 5.746 3.739 5.496 6.848-.25 2.621-2.63 5.11-4.121 7.73-2.38 3.993-4.754 7.981-7 12.09-1.004 1.86-2.008 2.102-3.633.86zm14.743-31.399c-2.625-7.101-5.242-14.332-7.871-21.43a3.217 3.217 0 0 1 .621-3.859c5.125-5.86 10.117-11.84 14.992-17.82a3.028 3.028 0 0 1 3.371-1.25c7.5 1.367 15.121 2.738 22.614 3.988a4 4 0 0 1 3.5 2.992c2.496 6.848 4.992 13.829 7.62 20.688.77 1.5.462 3.32-.753 4.492-4.875 5.61-9.625 11.457-14.5 17.2-.871 1-1.504 2.238-2.88 1.62-8.241-1.37-16.124-2.742-24.116-4.113-1.594-.27-2.094-1.27-2.598-2.508zm25.992 8.47c0 2.12-3.367 3.12-1.996 4.741 1.375 1.617 3.754.117 5.375-.62 4.375-1.99 6.621-.372 8.625 3.609 2.496 5.23 5.625 10.218 8.625 15.199 1.254 2.12 1.004 3.242-1.254 4.11a44.743 44.743 0 0 0-4.25 1.991c-6.87 3.739-6.87 3.739-12.246-1.62-7.121-7.098-14.117-14.212-21.238-21.18-2.75-2.739-5.375-5.48-5.375-10.34 7.992 1.37 15.863 2.742 23.734 4.11zm26.375 55.698a2.741 2.741 0 0 1 3.371 1.25c.75 1.25-.625 1.742-1.254 2.492-3 3.239-3 3.239-9.867-1.742 2.875-.75 5.375-1.25 7.75-2zm-1.625-6.097c-4-4.61-8.492-8.72-12.875-12.961-1.746-1.739-1.625-2.489.621-3.489 2.746-1.25 4.875-3.742 8.375-2.992 2.996-.75 4.5 1 5.875 3.61 2.746 5.113 5.625 10.09 8.625 15.082.871 1.62.75 2.238-1.125 2.988-3.75 1.492-6.629 1.121-9.496-2.238zm20.54-37.262c-6.5 3.242-12.747 7.101-18.997 10.723-1.992 1.117-2.996 1.25-4.25-1-3.129-5.98-6.5-11.84-9.996-17.57-1.254-1.993-.504-2.622 1.371-3.122 12.246-3.12 24.367-6.23 36.492-9.601 2.38-.618 3.13-.25 2.88 2.12-.122 1.872 0 3.86 0 6.852h-.052c2.125 5.86-1.703 8.98-7.449 11.598zm7.82-35.64c-.122 1.5-.372 3.12-.372 4.613-.12 7.847-.12 7.726-7.87 9.84-9.376 2.488-18.743 4.98-28.118 7.597-4.004 1.121-8.004 1.992-12.125-.367l15.492-18.442c1.746 1.122.871 4.489 3 4.11 2.125-.371 1.743-3.238 2.246-4.98 1.625-5.61 1.625-5.61 7.372-5.61 5.746 0 11.62.121 17.496 0 2.507 0 3.129.988 2.879 3.238zm-26.243-9.598c-.875 3.488-2.75 5.73-5.746 8.097-2.879-7.726-5.496-15.078-8.242-22.43 1.742-1.25 4.422 1 4.992-1.117.621-1.62-1.875-2.742-3.129-3.992-4.12-4.238-4.12-4.11-1.12-9.347 2.874-4.864 5.874-9.473 8.37-14.461 1.504-2.993 3-2.743 5.246-1a27.499 27.499 0 0 0 2.247 1.62c2.246 1.739 6.378 2.239 7 4.86.62 2.617-1.125 5.73-1.875 8.598-2.489 9.73-5.368 19.453-7.743 29.172zm8.625-72.903c1.621.371.871 1.5.371 2.371-3.25 5.61-6.5 11.22-10.12 17.32-3.75-7.6-7-14.699-10.247-21.558-1.125-2.371-.12-3.36 1.996-2.871 6.004 1.379 12 3.121 18 4.738zm-16.367-6.476c8.996-5.48 5.496-6.73 15.996 4.36-5.879-1.493-10.75-2.86-15.996-4.36zm4.492 26.168c.5 1 1.125 2.12.121 3.242-1.253 1.367-2.125 0-3-.5-8.492-4.863-16.867-9.844-25.742-15.082 5.625-3.238 10.871-6.23 15.875-9.219 1.625-1 2.246-.371 2.88 1 3.25 6.848 6.616 13.707 9.866 20.559zm17.871-20.059c-1.746 0-1.003-1.371-.503-2.242 3.128-5.36 6.25-10.59 9.378-15.95.34.02.68.11 1 .25-1.574 5.86-2.996 11.962-4.992 17.821-.883 2.86-3.129.121-4.883.121zm6.247-17.57c-2.997 5.23-6.125 10.469-9.125 15.699-3.372-3.488-6.38-6.73-9.625-10.09 7.117-4.11 14.367-8.969 22.12-12.71-.12 2.859-2.117 4.859-3.37 7.1zm-22.313-1.992c6.617-1.868 13.246-3.489 19.996-5.23l.371.75h-.05c-5.946 3.362-11.872 7.23-17.938 10.343-2.5 1.25-4.125-1.992-5.125-3.992-1.004-2 1.742-1.63 2.746-1.871zm-7.05 1.62c2.75.872 4.124 3.493 6.128 5.11.102.352 0 .73-.25 1a54.39 54.39 0 0 1-8.375 4.61c-2.125.75-7.25-5.477-6.617-7.727 0-.371.621-.75 1.004-.871 2.617-.75 5.234-1.38 8.11-2.121zm-1.622-1.87a.342.342 0 0 0-.12.25c-8.243 2.87-8.376 2.87-12.126-4.98-1.996-4.24-4-8.349-6.129-12.958 3.13 1.238 16.38 14.2 18.375 17.688zM126.543 6.996c.371 0 .625-.121 1.004-.121 3.371 7.102 6.75 14.21 10.117 21.059.625 1.25.754 1.992-.871 2.62-9.746 3.86-10.25 3.61-10.25-6.6zm2.246 29.41c4.375 1.367 8.746 2.489 13.117 3.61 1.004.25 1.996.5 2.246 1.738.121.75-.37 1.121-1 1.5-5.496 3.121-10.87 6.36-16.867 9.84v-14.82c-.12-2 .63-2.5 2.504-1.868zm-.32 20.68c8.004 4.86 15.996 9.598 24.117 14.21 1.996 1.118 2.129 1.99 1.004 3.86-3.621 5.73-6.867 11.59-10.25 17.45-.871 1.62-1.504 2.37-3.246.62-9.63-9.472-19.246-18.82-29.364-28.66h-.05c4.996-2.87 9.125-5.113 13.168-7.601a3.948 3.948 0 0 1 4.62.12zm-25.992-31.52c7.07-7.23 14.07-14.46 21.07-21.68.371.25.621.5 1 .75l.05 26.29c0 1.87-.75 2.37-2.374 1.87-6.75-1.87-13.618-3.741-20.75-5.73a9.13 9.13 0 0 1 1.004-1.5zm-1.555 3.61c6.25 1.62 12.625 3.238 18.875 4.98v.867c-4.996 1.372-10.121 2.743-15.242 4.243-4.254 1-6.75-2.621-10-4.11-.25-.12-.371-.75-.371-1 .12-1.37 5.363-5.351 6.738-4.98zm-4.371-1.5c-3.75 6.11-4.121 6.23-9.496 2.988-4.625-2.867-9.75-5.23-14-8.719 8.172 1 15.672 4.239 23.496 5.73zM70.93 26.434c4.25 4.242 8.625 8.472 12.625 12.96 2.125 2.493-1.375 2.993-2.125 4.36-.625 1.121-1.508 1.25-2.246-.117-3.13-5.48-6.25-10.84-9.38-16.32.383-.262.755-.633 1.126-.883zm-6.368 12.46c-.253-5.23-.12-10.34-.12-15.578.257-.03.519-.113.75-.25 4.003 6.98 8.003 13.957 11.996 21.059.87 1.371.62 2.121-1.004 2.371-.121 0-.25.117-.371.117-3.5.871-7.872 3.492-10.25 2.242-2.758-1.492-.883-6.468-1-9.96zm-.503 143.801c.62-6.48.12-13.082.12-20.441 4.876 2.871 8.997 5.23 13.118 7.601 1.375.872 1.004 1.872.621 2.989-1.996 7.23-3.871 14.46-5.996 22.43-3.61-3.977-8.484-6.098-7.863-12.579zm.504 8.23c1.992 1.99 3.867 3.86 5.746 5.61 1.12 1 .75 1.988.37 3.121-.503 1.739-1.745.5-2.5.367-4.742-1-5.242-2-3.617-9.097zm-.383 32.65c-.121 0-.25-.122-.371-.122 0-7.348 0-14.578-.121-21.808.37-.122.62-.372.753-.372 5.496 1.122 5.375 1.25 4 6.48-1.382 5.224-2.879 10.583-4.261 15.821zm2.257-1c1.626-5.86 3.13-11.84 4.872-17.688 1.004-3.614 3.5-.621 4.996-.5 2.496.367.75 1.988.25 2.867a754.714 754.714 0 0 1-8.004 13.71c-.489.74-.621 1.731-2.114 1.61zm.118 6.1c4.254-7.48 8.496-15.081 12.746-22.679 3.87 3.117 6.75 6.598 10.12 10.09-7.753 4.36-14.874 9.098-22.612 12.84zm5.629.25c5.375-4.359 11.492-7.48 17.496-10.59 3.25-1.5 4.004 2.868 7.25 4.61-9.125 2.121-16.625 4.989-24.746 5.98zm27.617-6.73c-1.254-.12-6.38-4.492-6.38-5.36a.834.834 0 0 1 .122-.75c.5-1 8.371-4.741 9.496-4.608 4.121.5 3.871 4.609 5.625 7.097.5.75-.121 1.371-.75 1.5-2.738.75-5.488 1.5-8.113 2.121zm8.742-9.218c4.254 1.117 7.871 2.117 11.875 3.117-8.125 4.11-9.617 3.742-11.875-3.117zm-6.246 13.09c-1.746-1.5-1.625-2.122.75-2.743 6.871-1.87 6.871-1.988 9.871 4.36 2.375 5.113 4.871 10.222 7.25 15.332-6-5.86-11.996-11.47-17.871-16.95zm21.488 9.718v8.469c-.25 0-.37.121-.62.121-3.368-6.98-6.75-14.078-10.247-21.059-.875-1.87-.625-2.492 1.504-3.12 9.496-2.743 9.496-2.872 9.496 7.1 0 2.88-.133 5.618-.133 8.49zm.504-29.289c0 8.848 0 8.848-8.496 6.598-2.496-.617-4.992-1.367-7.5-1.989-1.004-.25-1.746-.75-1.875-1.742-.121-1 .754-1.25 1.375-1.617 4.621-2.742 9.375-5.36 13.996-8.223 2.379-1.5 2.629-.367 2.5 1.622zm-1.945-12.582a1574.32 1574.32 0 0 0-24.489-14.328c-1.503-.871-1.996-1.621-1.003-3.242 4-6.598 7.75-13.207 11.87-20.188 10 9.969 19.567 19.559 29.364 29.16 1.125 1.118 1.254 1.618-.25 2.489-3.75 1.992-7.371 4.242-11.121 6.36-1.375.788-3.098.698-4.371-.25zm25.187 32.02c-6.746 7.101-13.617 14.082-20.363 21.18l-1.125-.75c0-8.848 0-17.688-.121-26.669 0-1.742.875-1.87 2.246-1.5 6.379 1.739 12.746 3.61 19.125 5.23 2.617.641 1.113 1.641.238 2.509zm1.625-3.98c-6.125-1.618-12.375-3.36-18.492-4.977.102-.282.14-.582.121-.872 5.125-1.37 10.422-2.992 15.625-4.109 4-.871 6.38 2.617 9.625 4.11.164.308.242.648.254 1-.262 1.609-5.508 5.218-7.133 4.847zm27.117 7.222c-7.37-1.992-14.742-3.86-22.12-5.86 2.624-5.613 4.12-6.113 9.124-3.12l13.496 7.85c-.218.36-.378.74-.5 1.13zm1.055-2.86c-5.629-3.363-11.121-6.73-17.371-10.34 1.074-.87 1.824-1.25 2.246-1.87 1.625-2.243 2.879-1.993 4.754 0 2.75 3.12 5.875 5.859 8.746 8.847.871.863 2.246 1.492 1.625 3.363zm2.195-2c-4.253-4.113-8.242-8.222-12.125-12.34-2.375-2.742 1.004-3.363 1.997-4.613 1.375-2.117 1.996.121 2.496 1l7.12 12.34a3.197 3.197 0 0 1 .512 3.613zm6.497 3.368c-.25.12-.372.12-.622.25-4-6.848-7.953-13.829-11.992-20.809-.875-1.5-.754-2.238 1.121-2.621 3.75-.867 7.504-1.988 11.493-2.988zm-9.497-26.047c3.13-2.992 6.5-6.23 9.497-9.223.382 8.23-.5 9.102-9.497 9.223zm8.497-12.832a3924.941 3924.941 0 0 1-13.75 14.832c-4.122-7.23-7.5-13.332-11.493-20.063 8.746.75 16.746 1.25 24.618 1.992 2.75.25 1.757 1.989.625 3.239zm1.183-94.461c-.121 8.972-.121 17.82-.121 26.793.121 2.617-.504 3.86-3.621 3.738-6.617-.371-13.246-.121-19.867-.121-1.621 0-2.496-.117-1.992-2.117 3.617-13.203 7.238-26.403 10.859-39.852 4.48 2.48 8.594 4.84 12.625 7.45a4.145 4.145 0 0 1 2.117 4.109zm.32-24.168c-.753 5.86-.12 11.84-.12 18.57-4.876-2.742-8.946-5.23-13.118-7.48 0 0-.012 0-.012-.012a1.688 1.688 0 0 1-.859-2.238c2.125-7.48 4.121-15.082 6.246-23.051 4.735 3.86 8.735 7.351 7.863 14.21zm-.753-9.102c-2.075-2.488-3.622-4.488-5.375-6.36a2.67 2.67 0 0 1-.5-3.12c.62-1.5 1.742-.75 2.625-.617 4.625.878 5.003 2 3.25 10.097zm-.82-11.46c-1.376-.618-4.626.62-3.75-2.868 1.62-6.23 3.366-12.34 4.991-18.57h.57c0 6.48 0 12.84-.07 19.308 0 1.13.504 3.25-1.742 2.13zm55.804 69.41c-.121.12-.121.37-.25.5-5.746-3.239-11.621-6.11-17-9.72-2.746-1.988.625-4.859.625-7.23 5.633 5.48 11.129 10.961 16.625 16.45zm-52.356 12.331c1.743-3.609 4.25-6.23 9.247-4.609 4.8 0 9.867.117 15.12 0 1.997 0 2.376.75 1.997 2.617-.754 3.492-1.875 5.864-6.13 6.602-5.995 1.12-11.991 2.988-17.987 4.738-2.125.621-3.25.25-2.88-2.117.383-2.371-.62-4.86.633-7.23zm-.25-65.3c5.122 4.98 9.747 9.351 14.5 13.96-4.12 2.372-8.125 4.61-12.125 6.848-1.625.871-2.375.75-2.375-1.25zm13.868 16.582c1.504-.871 1.875-.371 2.246 1.117 1.125 4.492 2.496 8.973 3.62 13.46.442.99.18 2.15-.62 2.872-1.004.617-1.625-.371-2.38-.75-5.241-2.871-10.5-5.86-16.124-9.102 4.765-2.738 9.015-5.109 13.258-7.597zm12.797-7.102c4.37-2.488 8.742-4.86 13.117-7.351.25-.118.5 0 1.625 0h-.051c-4.754 6.851-9.125 13.21-13.32 19.441-.871 1.371-1.371 1.371-2.625.25-7.864-7.238-7.993-7.11 1.254-12.34zm-4.926 29.899c1.746 5.863 3.25 11.71 4.754 17.57.62 1.992-.871 1.742-1.996 1.742H192.78c4.992-7.101 9.375-13.46 13.496-19.941 1.614-2.23 2.989-1.36 3.61.629zm2.879 39.75c-.121-2.868 1.125-5.36 1.746-7.848.25-1.121 1.254-1.5 2.375-1.621 1.504-.121 1.504 1.12 1.746 1.988 1.504 4.242.75 5.242-5.867 7.48zm-24.618-.739c2.125-3.86 8.743-3.12 13.368-4.61 3.5-1.12 7-1.87 11-2.87-.871 3.238-1.625 5.86-2.246 8.601a4.223 4.223 0 0 1-2.38 2.868c-2.874 1.5-5.624 3.12-8.492 4.742-3.62 2.12-7.37 4.11-11.37 6.36zm20.868 5.602c-1.746 6.598-3.371 12.457-4.996 18.316-.5 1.742-1.622.75-2.375.25-4-2.238-7.872-4.61-12.497-7.347 6.75-3.86 12.868-7.352 19.868-11.22zm1.754 1c.503-1.992 7-6.98 8.746-6.852.34.07.64.239.87.5 1.876 2.121 1.626 7.48-.37 9.47-3.5 3.491-7 6.98-10.5 10.339-.75.621-1.371 1.621-2.88 1.25a720.68 720.68 0 0 1 4.134-14.707zm10.167-12.211c-.12-1.371-1.875-3.492.372-4.242 5.738-1.739 11.464-3.48 17.691-3.739-5.496 2.989-10.871 6.098-16.316 9.09-1.243.758-1.625-.242-1.746-1.11zm.07-6.36c-3.128.75-2.245-2.492-2.745-3.992-.754-2.12 1.254-1.738 2.375-1.738h20.117c.031.188.121.36.25.5-6.617 1.738-13.246 3.61-19.996 5.23zm-4.62-10.59c-1.504-5.73-2.75-10.472-4.254-15.952 8.504 4.363 8.504 4.363 4.254 15.953zm2.746-14.331a49.832 49.832 0 0 1-7-4.11 4.942 4.942 0 0 1-.281-.218 3.741 3.741 0 0 1-.461-5.274c.754-1.117 1.504-2.117 2.129-3.238 1.12-2.371 2.246-1.871 3.617-.25 1.746 2.12 4.12 3.738 5.496 5.86-.621 2.37-1.121 4.359-1.746 6.6-.25.88-.871 1.13-1.754.63zm4.254-10.22c-.371-.12-.754-.12-.875-.25-6.617-5.98-6.617-5.98-1.625-13.21 2.75-3.86 5.375-7.73 8.125-11.59.37.121.75.371 1.12.5-2.245 8.102-4.37 16.328-6.745 24.55zm7.75-33.269c-9.125 5.11-17.5 9.84-26.114 14.7-2.125-7.73-4.12-15.332-6.246-23.43 10.86 2.867 21.11 5.738 32.36 8.73zm-33.742-5.98c1.503 5.61 2.996 11.34 4.5 17.07a2.628 2.628 0 0 1-.622.367c-4-3.988-8.003-7.976-11.992-11.84-.875-1-1.375-9.097-.62-10.09.187-.296.519-.488.87-.5 2.867-.616 7.11 2.122 7.864 4.993zm-9.079-12.34c.504-6.23.121-12.46.121-18.691h.704c2.125 7.73 4.12 15.449 6.175 23.18.5 1.87-.12 2.12-1.996 1.742-3.62-.622-5.375-1.993-5.004-6.23zm-.539 76.14v-9.722l.25-17.07c0-2.117.5-2.867 2.625-1.617a226.755 226.755 0 0 0 13.118 7.476c1.746.871 1.746 1.742.753 3.242-4.37 6.23-8.746 12.461-12.996 18.82-.754 1.25-1.746 1.989-3.129 1.5-1.375-.511-.62-1.761-.62-2.628zm-.132 59.317v-18.566c4.804 2.738 8.746 5.226 12.875 7.597 1.507.871 1.625 1.621.37 2.871a371.634 371.634 0 0 0-9.624 9.598 2.935 2.935 0 0 1-2.746 1.121c-1.497-.5-.875-1.75-.875-2.62zm14.12-6.36c-2.245 11.59-1.503 10.223-8.495 8.973 2.378-3.363 5.375-5.73 8.496-8.972zm-12.995 49.223c-.25 0-.622-.12-.875-.12 0-6.36.12-12.84-.118-19.192-.12-2.867.621-4.36 3.618-4.61a30.315 30.315 0 0 0 4.12-1c-2.374 8.602-4.492 16.82-6.745 24.922zm4.753-26.41c-6.62 1.617-5.496 1.867-5.628-4.242 0-5.86 1.003-7.598 4.875-7.23 1.996.12 4.875-1.118 5.875 1.37.996 2.493-2.875 9.47-5.122 10.102zm32.36-8.48a2663.153 2663.153 0 0 0-27.367 7.347c.754-2.988 1.375-5.609 1.996-8.097.5-1.992 2.125-1.5 3.5-1.371 7.25.5 14.37 1 21.62 1.62.13.13.13.38.25.5zm-21.371-3.992c-1.996-.118-2.88-.618-2.246-3.118 2.496-9.472 2.379-9.472 10.87-4.492l14.993 9.352c-8.242-.61-15.984-1.242-23.617-1.742zm27.125 1.132a3580.39 3580.39 0 0 0-25.117-14.832c5.625-5.609 11-11.09 16.746-16.57 2.617 10.09 5.363 20.313 8.37 31.402zm-7.63-37.14a2.275 2.275 0 0 1-.37-.5c-1.875-6.11-1.996-6.11 3.75-9.223 4.37-2.367 8.875-4.738 13.246-7.098l.504.372c-5.758 5.488-11.375 10.968-17.13 16.449zm20.126-24.422h-23.496c-1.742 0-2.746-.117-1.996-2.367 1.004-3.121 1.746-6.23 2.5-9.352.37-1.5.87-1.988 2.375-1.12 7 4.108 14 7.98 20.988 11.96-.098.3-.23.602-.371.879zm0 0"/></svg>