<svg xmlns="http://www.w3.org/2000/svg" width="250" height="250"><path fill="#152743" d="M250 125c0 69.035-55.965 125-125 125S0 194.035 0 125 55.965 0 125 0s125 55.965 125 125zm0 0"/><path fill="#fff" d="M125.383 64.969c-10.281 0-18.617-5.727-18.617-12.797s8.336-12.797 18.617-12.797 18.61 5.727 18.61 12.797-8.329 12.797-18.61 12.797zm-9.633 142.844V71.125h41.5c1.54 0 2.625 1.148 2.625 2.688v75.843c0 1.531-1.094 2.844-2.625 2.844h-22.875v55.313c0 1.539-1.172 2.937-2.71 2.937h-13.032a2.998 2.998 0 0 1-2.883-2.93zm-7-55.32H93.047a2.954 2.954 0 0 1-2.922-2.845V73.813c0-1.54 1.383-2.688 2.914-2.688h15.711V152.5zm0 0"/></svg>