<svg xmlns="http://www.w3.org/2000/svg" width="250" height="250"><path fill="#b10000" d="M213.398 36.613c48.817 48.813 48.817 127.961 0 176.774-48.812 48.816-127.96 48.816-176.773 0-48.816-48.813-48.816-127.961 0-176.774 48.813-48.816 127.96-48.816 176.773 0zm0 0"/><path fill="#fff" d="M200.469 60.473 132.03 20.957a4.829 4.829 0 0 0-4.82 0L58.75 60.497a4.807 4.807 0 0 0-2.398 4.167v140.488c0 1.723.91 3.305 2.398 4.168l34.23 19.77c.747.418 1.586.652 2.399.652.816 0 1.656-.21 2.398-.652l34.23-19.77a4.8 4.8 0 0 0 2.4-4.168v-19.144l66.038-38.117a3.91 3.91 0 0 0 .91-.7c.07-.07.141-.164.211-.234.184-.207.371-.441.512-.672.047-.094.117-.187.16-.281.164-.324.328-.652.422-1v-.024c.094-.375.14-.746.14-1.117V64.641c0-1.723-.91-3.305-2.398-4.168zm-70.86-29.782 58.82 33.95-18.44 10.644-6.15 3.54-31.808-18.376-20.582-11.875-6.43-3.703 24.59-14.203zM90.56 123.93v92.61l-24.59-14.208V72.98l24.59 14.204zm4.82-45.082-1.535-.887-23.078-13.32 24.59-14.204 24.59 14.204-24.59 14.207zm29.41 123.484-24.59 14.207v-44.758l24.59 14.207zm0-27.477-24.59-14.203v-28.386l24.59 14.203zm4.82-36.746-29.41-16.976v-33.95l29.41-16.976 29.41 16.977v33.949zm63.641 2.774-14.691 8.496-44.106 25.476v-28.41l58.82-33.949v28.41zm0-39.52-3.633 2.098-20.957 12.11V87.16l6.149-3.54 18.441-10.64v28.406zm0 0"/></svg>