<svg xmlns="http://www.w3.org/2000/svg" width="250" height="250"><path fill="#0e0122" d="M0 0h250v250H0z"/><path fill="#dcb6f0" d="M83.332 68.75c.535 1.531 3.035 1.875 4.43 2.395 3.328 1.234 6.3 1.96 7.668 5.68 2.433 6.612 1.675 13.94 1.976 20.831.719 16.438.25 33.012.25 49.48 0 5.704-.168 11.512-.738 17.188-.352 3.508-.566 7.434-2.102 10.676-1.273 2.684-4.082 4.137-6.796 4.977-1.446.449-3.797.757-4.688 2.054h55.469c-1.094-1.445-4.54-1.48-6.25-1.824-5.27-1.05-10.805-2.117-12.836-7.812-2.73-7.641-2.203-16.004-2.54-23.958-.741-17.66-.198-35.46.013-53.125.07-6.011.265-11.972.53-17.968.083-1.86-.093-5.356 2.337-5.465 6.37-.277 13.347.613 19.007 3.723 10.735 5.898 13.774 17.664 13.293 29.085-.226 5.313-.972 10.508-3.89 15.106-5.121 8.07-15.13 13.203-24.508 14.582.227 1.957 1.836 1.418 3.387 1.227 3.226-.395 6.433-.797 9.636-1.375 12.391-2.243 26.032-7.504 33.06-18.602 5.73-9.05 6.237-22.664.253-31.77-3.207-4.875-8.172-8.335-13.523-10.52-11.356-4.64-23.364-4.585-35.415-4.585zm0 0"/><path fill="#9b76b6" d="M134.375 68.75v.262h1.3zm0 0"/><path fill="#64579a" d="m135.852 68.836.171.086zm0 0"/><path fill="#4b3066" d="M136.2 68.75v.262h1.038zm0 0"/><path fill="#9b76b6" d="M138.543 69.012v.258h.781zm0 0"/><path fill="#64579a" d="m139.324 69.012.258.258zm0 0"/><path fill="#4b3066" d="m139.758 69.098.172.086zm0 0"/><path fill="#9b76b6" d="m141.145 69.27.261.261zm0 0"/><path fill="#64579a" d="m141.578 69.36.176.085zm0 0"/><path fill="#4b3066" d="m142.102 69.36.171.085zm-58.77.171.262.262zm0 0"/><path fill="#9b76b6" d="m83.594 69.531.261.262zm59.547.086.175.086zm0 0"/><path fill="#64579a" d="m143.488 69.531.262.262zm0 0"/><path fill="#4b3066" d="m143.75 69.531.262.262zm-59.637.262.262.258zm0 0"/><path fill="#9b76b6" d="m84.375 69.793.262.258zm60.328.086.176.086zm0 0"/><path fill="#64579a" d="m145.05 69.793.262.258zm0 0"/><path fill="#4b3066" d="m145.313 69.793.261.258zm0 0"/><path fill="#64579a" d="m84.895 70.05.261.263zm0 0"/><path fill="#9b76b6" d="m146.094 70.05.261.263zm0 0"/><path fill="#64579a" d="m146.355 70.05.258.263zm0 0"/><path fill="#4b3066" d="m146.613 70.05.262.263zm-61.195.263.258.261zm0 0"/><path fill="#64579a" d="m85.676 70.313.261.261zm0 0"/><path fill="#9b76b6" d="m147.395 70.313.261.261zm0 0"/><path fill="#64579a" d="m147.656 70.313.262.261zm0 0"/><path fill="#4b3066" d="m147.918 70.313.258.261zm-61.719.261.258.258zm0 0"/><path fill="#9b76b6" d="m86.457 70.574.262.258zm61.98 0 .262.258zm0 0"/><path fill="#64579a" d="m148.7 70.574.257.258zm0 0"/><path fill="#4b3066" d="m148.957 70.574.262.258zm-61.977.258.258.262zm0 0"/><path fill="#9b76b6" d="m87.238 70.832.262.262zm62.242 0 .258.262zm0 0"/><path fill="#64579a" d="m149.738 70.832.262.262zm0 0"/><path fill="#4b3066" d="m150 70.832.262.262zm0 0"/><path fill="#64579a" d="m87.762 71.094.258.261zm0 0"/><path fill="#9b76b6" d="m150.52 71.094.261.261zm0 0"/><path fill="#64579a" d="m150.781 71.094.262.261zm0 0"/><path fill="#4b3066" d="m151.043 71.094.258.261zm-62.762.261.262.258zm0 0"/><path fill="#64579a" d="m88.543 71.355.258.258zm0 0"/><path fill="#9b76b6" d="m151.563 71.355.261.258zm0 0"/><path fill="#4b3066" d="m151.824 71.355.258.258zm-62.5.258.258.262zm0 0"/><path fill="#9b76b6" d="m89.582 71.613.262.262zm62.762 0 .261.262zm0 0"/><path fill="#4b3066" d="m152.605 71.613.258.262zm-62.5.262.258.262zm0 0"/><path fill="#64579a" d="m90.363 71.875.262.262zm28.125 0 .262.262zm0 0"/><path fill="#4b3066" d="M123.438 71.875v.262h1.3zm0 0"/><path fill="#64579a" d="m124.914 71.96.172.087zm0 0"/><path fill="#9b76b6" d="M125.262 71.875v.262h.781zm27.863 0 .262.262zm0 0"/><path fill="#4b3066" d="m153.387 71.875.258.262zm-62.5.262.258.258zm0 0"/><path fill="#9b76b6" d="m91.145 72.137.261.258zm0 0"/><path fill="#4b3066" d="m127.258 72.223.172.086zm0 0"/><path fill="#64579a" d="m127.605 72.137.258.258zm0 0"/><path fill="#9b76b6" d="m128.04 72.223.17.086zm25.866-.086.262.258zm0 0"/><path fill="#4b3066" d="m154.168 72.137.258.258zm-62.762.258.262.261zm0 0"/><path fill="#9b76b6" d="m91.668 72.395.258.261zm26.562 0 .258.261zm0 0"/><path fill="#4b3066" d="m129.168 72.395.258.261zm0 0"/><path fill="#64579a" d="m129.426 72.395.262.261zm0 0"/><path fill="#9b76b6" d="m129.688 72.395.261.261zm25 0 .261.261zm0 0"/><path fill="#4b3066" d="m154.95 72.395.257.261zm-63.024.261.261.262zm0 0"/><path fill="#9b76b6" d="m92.188 72.656.261.262zm0 0"/><path fill="#64579a" d="m118.23 72.656.258.262zm0 0"/><path fill="#4b3066" d="m130.64 72.742.176.086zm0 0"/><path fill="#9b76b6" d="m130.988 72.656.262.262zm24.219 0 .262.262zm0 0"/><path fill="#64579a" d="m155.469 72.656.261.262zm-63.02.262.258.258zm0 0"/><path fill="#4b3066" d="m118.23 72.918.258.258zm13.54 0 .261.258zm0 0"/><path fill="#64579a" d="m132.031 72.918.262.258zm0 0"/><path fill="#9b76b6" d="m155.988 72.918.262.258zm0 0"/><path fill="#4b3066" d="m156.25 72.918.262.258zm-63.543.258.262.261zm0 0"/><path fill="#9b76b6" d="m92.969 73.176.261.261zm0 0"/><path fill="#4b3066" d="m132.813 73.176.261.261zm0 0"/><path fill="#9b76b6" d="m133.074 73.176.258.261zm23.438 0 .258.261zm0 0"/><path fill="#4b3066" d="m156.77 73.176.261.261zm0 0"/><path fill="#9b76b6" d="m93.23 73.438.258.261zm0 0"/><path fill="#4b3066" d="m133.594 73.438.261.261zm0 0"/><path fill="#64579a" d="m133.855 73.438.258.261zm0 0"/><path fill="#9b76b6" d="m134.113 73.438.262.261zm0 0"/><path fill="#64579a" d="m157.293 73.438.258.261zm0 0"/><path fill="#9b76b6" d="m93.488 73.7.262.257zm24.567.171.086.176zm0 0"/><path fill="#64579a" d="m134.637 73.7.258.257zm0 0"/><path fill="#9b76b6" d="m134.895 73.7.261.257zm0 0"/><path fill="#64579a" d="m157.813 73.7.261.257zm0 0"/><path fill="#4b3066" d="m158.074 73.7.258.257zm0 0"/><path fill="#9b76b6" d="m93.75 73.957.262.262zm0 0"/><path fill="#64579a" d="m135.418 73.957.258.262zm0 0"/><path fill="#9b76b6" d="m135.676 73.957.262.262zm22.656 0 .262.262zm0 0"/><path fill="#4b3066" d="m158.594 73.957.261.262zm0 0"/><path fill="#9b76b6" d="m94.012 74.219.258.261zm0 0"/><path fill="#4b3066" d="M117.969 74.219V75h.261zm17.969 0 .261.261zm0 0"/><path fill="#9b76b6" d="m136.2 74.219.257.261zm22.655 0 .258.261zm0 0"/><path fill="#4b3066" d="m159.113 74.219.262.261zm0 0"/><path fill="#64579a" d="m136.719 74.48.261.258zm0 0"/><path fill="#9b76b6" d="m136.98 74.48.258.258zm0 0"/><path fill="#64579a" d="m159.375 74.48.262.258zm0 0"/><path fill="#4b3066" d="m159.637 74.48.258.258zm-65.367.258.261.262zm42.968 0 .262.262zm0 0"/><path fill="#9b76b6" d="m137.5 74.738.262.262zm0 0"/><path fill="#64579a" d="m159.895 74.738.261.262zM94.53 75l.262.262zm0 0"/><path fill="#4b3066" d="m137.762 75 .258.262zm0 0"/><path fill="#9b76b6" d="m138.02 75 .261.262zm0 0"/><path fill="#64579a" d="m160.418 75 .258.262zm0 0"/><path fill="#4b3066" d="m138.281 75.262.262.258zm0 0"/><path fill="#9b76b6" d="m138.543 75.262.258.258zm0 0"/><path fill="#4b3066" d="m160.938 75.262.261.258zm-66.145.258.258.261zm44.008 0 .262.261zm0 0"/><path fill="#9b76b6" d="m139.063 75.52.261.261zm22.136 0 .258.261zm0 0"/><path fill="#4b3066" d="m161.457 75.52.262.261zm-22.133.261.258.262zm0 0"/><path fill="#9b76b6" d="m139.582 75.781.262.262zm0 0"/><path fill="#64579a" d="m161.719 75.781.261.262zm-66.668.262.261.258zm0 0"/><path fill="#9b76b6" d="M117.707 76.043v.781h.262zm0 0"/><path fill="#64579a" d="m139.844 76.043.261.258zm0 0"/><path fill="#4b3066" d="m162.238 76.043.262.258zm0 0"/><path fill="#64579a" d="m140.363 76.3.262.263zm22.137 0 .262.263zm0 0"/><path fill="#9b76b6" d="m95.313 76.563.261.261zm0 0"/><path fill="#4b3066" d="m140.625 76.563.262.261zm22.395 0 .261.261zm-67.708.261.262.258zm0 0"/><path fill="#64579a" d="m117.707 76.824.262.258zm23.438 0 .261.258zm22.136 0 .262.258zm0 0"/><path fill="#4b3066" d="M117.707 77.082v1.043h.262zm23.7 0 .261.262zm22.394 0 .262.262zm0 0"/><path fill="#64579a" d="m141.926 77.344.262.261zm22.137 0 .261.261zm-68.489.261.258.258zm0 0"/><path fill="#4b3066" d="m142.188 77.605.261.258zm0 0"/><path fill="#9b76b6" d="m164.324 77.605.258.258zm0 0"/><path fill="#4b3066" d="m95.574 77.863.258.262zm46.875 0 .258.262zm22.395 0 .261.262zm0 0"/><path fill="#9b76b6" d="m142.969 78.125.261.262zm0 0"/><path fill="#4b3066" d="m165.105 78.125.258.262zm0 0"/><path fill="#9b76b6" d="m95.832 78.387.262.258zm0 0"/><path fill="#64579a" d="m143.23 78.387.258.258zm22.133 0 .262.258zm-69.531.258.262.261zm0 0"/><path fill="#4b3066" d="m143.488 78.645.262.261zm0 0"/><path fill="#9b76b6" d="m165.625 78.645.262.261zm0 0"/><path fill="#4b3066" d="m95.832 78.906.262.262zm47.918 0 .262.262zm0 0"/><path fill="#9b76b6" d="m165.887 78.906.258.262zm0 0"/><path fill="#4b3066" d="m166.145 78.906.261.262zm-22.133.262.258.258zm22.394 0 .262.258zm0 0"/><path fill="#9b76b6" d="m96.18 79.602.086.171zm0 0"/><path fill="#4b3066" d="m144.27 79.426.261.261zm22.398 0 .258.261zm0 0"/><path fill="#9b76b6" d="M117.45 79.688v1.3h.257zm0 0"/><path fill="#4b3066" d="m144.531 79.688.262.261zm22.395 0 .262.261zm-70.746.433.086.176zm48.613-.172.258.258zm22.394 0 .262.258zm-22.136.258.262.262zm22.398 0 .258.262zm-22.137.262.262.261zm22.395 0 .262.261zm-22.133.261.258.258zm22.395 0 .261.258zm0 0"/><path fill="#9b76b6" d="m96.355 80.988.258.262zm0 0"/><path fill="#64579a" d="m117.535 81.164.086.172zm28.297-.176.262.262zm-49.477.262.258.262zm49.739 0 .261.262zm0 0"/><path fill="#9b76b6" d="m168.23 81.25.258.262zm0 0"/><path fill="#4b3066" d="m96.441 81.684.086.175zm21.008-.172v1.562h.258zm0 0"/><path fill="#9b76b6" d="m146.355 81.512.258.258zm22.133 0 .262.258zm0 0"/><path fill="#64579a" d="m168.75 81.77.262.261zm0 0"/><path fill="#4b3066" d="m146.613 82.031.262.262zm22.399 0 .258.262zm0 0"/><path fill="#64579a" d="m146.875 82.293.262.258zm0 0"/><path fill="#4b3066" d="m169.27 82.293.261.258zm0 0"/><path fill="#9b76b6" d="m96.703 82.727.086.171zm50.434-.176.258.261zm22.133 0 .261.261zm.261.261.262.262zm0 0"/><path fill="#64579a" d="m96.613 83.074.262.258zm0 0"/><path fill="#4b3066" d="m147.395 83.074.261.258zm22.398 0 .258.258zm-73.09.434.086.172zm0 0"/><path fill="#9b76b6" d="m147.656 83.332.262.262zm0 0"/><path fill="#4b3066" d="m147.656 83.594.262.261zm0 0"/><path fill="#9b76b6" d="m170.05 83.594.262.261zm0 0"/><path fill="#64579a" d="m147.918 83.855.258.258zm0 0"/><path fill="#4b3066" d="m170.313 83.855.261.258zm-22.137.52.262.262zm0 0"/><path fill="#9b76b6" d="m170.574 84.375.258.262zm-73.699.262v.781h.262zm51.563 0 .261.258zm0 0"/><path fill="#4b3066" d="m170.832 84.637.262.258zm-22.394.258.261.261zm0 0"/><path fill="#9b76b6" d="m170.832 84.895.262.261zm-22.133.261.258.262zm0 0"/><path fill="#4b3066" d="m171.094 85.156.261.262zm0 0"/><path fill="#64579a" d="m96.875 85.418.262.258zm0 0"/><path fill="#9b76b6" d="m117.188 85.418.261.258zm0 0"/><path fill="#4b3066" d="m148.7 85.418.257.258zm-51.825.258v1.043h.262zm0 0"/><path fill="#9b76b6" d="m148.957 85.676.262.261zm0 0"/><path fill="#64579a" d="m171.355 85.676.258.261zm0 0"/><path fill="#9b76b6" d="M117.188 85.938v2.082h.261zm0 0"/><path fill="#4b3066" d="m148.957 85.938.262.261zm0 0"/><path fill="#9b76b6" d="m149.219 86.2.261.257zm0 0"/><path fill="#64579a" d="m171.613 86.2.262.257zm0 0"/><path fill="#4b3066" d="m149.219 86.457.261.262zm0 0"/><path fill="#9b76b6" d="m149.48 86.719.258.261zm0 0"/><path fill="#4b3066" d="m171.875 86.719.262.261zm-22.395.261.258.258zm0 0"/><path fill="#9b76b6" d="m171.875 86.98.262.258zm0 0"/><path fill="#4b3066" d="m172.137 87.238.258.262zm0 0"/><path fill="#64579a" d="m149.738 87.5.262.262zm0 0"/><path fill="#9b76b6" d="m172.137 87.5.258.262zm0 0"/><path fill="#64579a" d="M117.188 88.02v1.304h.261zm0 0"/><path fill="#9b76b6" d="m150 88.02.262.261zm0 0"/><path fill="#64579a" d="m172.395 88.02.261.261zM150 88.28l.262.262zm0 0"/><path fill="#9b76b6" d="m172.395 88.281.261.262zm0 0"/><path fill="#4b3066" d="m172.656 88.543.262.258zm0 0"/><path fill="#9b76b6" d="m150.262 88.8.258.263zm22.394 0 .262.263zm-75.52.263v1.824h.259zm0 0"/><path fill="#4b3066" d="m150.262 89.063.258.261zm-33.075.261v3.125h.262zm55.731 0 .258.258zm0 0"/><path fill="#9b76b6" d="m150.52 89.582.261.262zm22.398 0 .258.262zm0 0"/><path fill="#64579a" d="m150.52 89.844.261.261zm0 0"/><path fill="#4b3066" d="m173.176 90.105.262.258zm0 0"/><path fill="#9b76b6" d="m150.781 90.363.262.262zm0 0"/><path fill="#64579a" d="m173.176 90.363.262.262zm-22.395.262.262.262zm0 0"/><path fill="#9b76b6" d="m173.176 90.625.262.262zm0 0"/><path fill="#64579a" d="M97.137 90.887v1.039h.258zm0 0"/><path fill="#4b3066" d="m150.781 90.887.262.258zm22.656.258.262.261zm0 0"/><path fill="#9b76b6" d="m151.043 91.406.258.262zm22.48.172.086.176zm0 0"/><path fill="#64579a" d="m151.043 91.668.258.258zm0 0"/><path fill="#4b3066" d="M97.137 91.926v2.344h.258zm53.906 0 .258.261zm22.656.261.258.262zm0 0"/><path fill="#9b76b6" d="m151.39 92.621.087.176zm0 0"/><path fill="#64579a" d="m173.7 92.45.257.257zm0 0"/><path fill="#9b76b6" d="m173.785 92.883.086.172zm0 0"/><path fill="#4b3066" d="m151.39 93.14.087.176zm22.657.524.086.172zm0 0"/><path fill="#9b76b6" d="m151.648 93.922.086.176zm0 0"/><path fill="#64579a" d="m173.957 94.012.262.258zm-22.394.258.261.261zm0 0"/><path fill="#9b76b6" d="m174.047 94.445.086.172zm0 0"/><path fill="#4b3066" d="m151.563 94.531.261.262zm0 0"/><path fill="#9b76b6" d="m151.91 95.484.086.176zm0 0"/><path fill="#4b3066" d="m174.305 95.484.086.176zm0 0"/><path fill="#64579a" d="m151.91 96.008.086.172zm22.309-.176v.781h.261zm0 0"/><path fill="#4b3066" d="m151.91 96.527.086.176zm0 0"/><path fill="#9b76b6" d="M174.219 96.613v1.043h.261zm-57.293.262v48.438h.261v-43.75zm35.156.52v.78h.262zm0 0"/><path fill="#64579a" d="M152.082 98.176v.781h.262zm0 0"/><path fill="#9b76b6" d="M97.395 98.7v4.425h.261zm0 0"/><path fill="#4b3066" d="M152.082 98.957V100h.262zm0 0"/><path fill="#9b76b6" d="M174.219 102.082v.781h.261zm-21.875.262v1.3h.261zm0 0"/><path fill="#64579a" d="m174.305 103.04.086.17zm-76.91.085v2.863h.261zm0 0"/><path fill="#4b3066" d="M174.219 103.387v.781h.261zm0 0"/><path fill="#9b76b6" d="m174.047 104.86.086.175zm0 0"/><path fill="#64579a" d="m173.957 105.207.262.262zm0 0"/><path fill="#4b3066" d="m173.957 105.469.262.261zm-76.562.52v38.28h.261v-26.82c0-3.25.992-8.476-.261-11.46m54.687 0v1.042h.262zm0 0"/><path fill="#9b76b6" d="m173.7 106.25.257.262zm0 0"/><path fill="#64579a" d="m173.7 106.512.257.258zm0 0"/><path fill="#4b3066" d="m173.7 106.77.257.261zm0 0"/><path fill="#64579a" d="m152.172 107.203.086.176zm0 0"/><path fill="#9b76b6" d="m173.438 107.293.261.258zm-21.356.258v.781h.262zm0 0"/><path fill="#64579a" d="m173.438 107.55.261.263zm0 0"/><path fill="#4b3066" d="m173.438 107.813.261.261zm0 0"/><path fill="#9b76b6" d="m173.176 108.332.262.262zm0 0"/><path fill="#4b3066" d="m173.266 108.766.086.175zm-21.356.261.086.176zm0 0"/><path fill="#9b76b6" d="m172.918 109.113.258.262zm0 0"/><path fill="#64579a" d="m151.91 109.547.086.176zm21.008-.172.258.262zm0 0"/><path fill="#4b3066" d="m172.918 109.637.258.258zm0 0"/><path fill="#9b76b6" d="m151.91 110.07.086.172zm20.746-.175.262.261zm0 0"/><path fill="#64579a" d="m172.656 110.156.262.262zm0 0"/><path fill="#4b3066" d="m172.656 110.418.262.258zm-21.008.434.086.171zm0 0"/><path fill="#9b76b6" d="m172.395 110.676.261.261zm0 0"/><path fill="#4b3066" d="m172.395 110.938.261.261zm0 0"/><path fill="#64579a" d="m151.563 111.2.261.257zm0 0"/><path fill="#9b76b6" d="m172.137 111.2.258.257zm-20.575.257.262.262zm0 0"/><path fill="#4b3066" d="m172.137 111.457.258.262zm0 0"/><path fill="#9b76b6" d="m171.96 111.89.087.176zm0 0"/><path fill="#4b3066" d="m151.3 111.98.262.258zm0 0"/><path fill="#64579a" d="m151.3 112.238.262.262zm0 0"/><path fill="#4b3066" d="m171.875 112.238.262.262zm0 0"/><path fill="#9b76b6" d="m151.3 112.5.262.262zm20.313 0 .262.262zm0 0"/><path fill="#4b3066" d="m171.613 112.762.262.258zm-20.57.258.258.261zm0 0"/><path fill="#9b76b6" d="m171.355 113.02.258.261zm0 0"/><path fill="#64579a" d="m151.043 113.281.258.262zm0 0"/><path fill="#4b3066" d="m171.355 113.281.258.262zm0 0"/><path fill="#9b76b6" d="m151.043 113.543.258.258zm20.05 0 .262.258zm0 0"/><path fill="#4b3066" d="m171.094 113.8.261.263zm-20.313.263.262.261zm0 0"/><path fill="#64579a" d="m170.832 114.063.262.261zm0 0"/><path fill="#9b76b6" d="m150.781 114.324.262.258zm19.793 0 .258.258zm0 0"/><path fill="#4b3066" d="m170.832 114.324.262.258zm-.258.258.258.262zm-20.054.262.261.261zm0 0"/><path fill="#9b76b6" d="m170.313 114.844.261.261zm-19.793.261.261.258zm0 0"/><path fill="#4b3066" d="m170.313 115.105.261.258zm0 0"/><path fill="#64579a" d="m170.05 115.363.262.262zm0 0"/><path fill="#4b3066" d="m150.262 115.625.258.262zm0 0"/><path fill="#9b76b6" d="m169.793 115.625.258.262zm0 0"/><path fill="#4b3066" d="m170.05 115.625.262.262zm0 0"/><path fill="#9b76b6" d="m150.262 115.887.258.258zm0 0"/><path fill="#4b3066" d="m169.793 115.887.258.258zm-19.793.258.262.261zm0 0"/><path fill="#9b76b6" d="m169.531 116.145-.261.523zm0 0"/><path fill="#64579a" d="m150 116.406.262.262zm0 0"/><path fill="#4b3066" d="m169.531 116.406.262.262zm-.261.262.261.258zm0 0"/><path fill="#64579a" d="m149.738 116.926.262.261zm19.274 0 .258.261zm0 0"/><path fill="#9b76b6" d="m149.738 117.188.262.261zm19.012 0 .262.261zm0 0"/><path fill="#4b3066" d="m149.48 117.45.258.257zm19.27 0 .262.257zm0 0"/><path fill="#9b76b6" d="m149.48 117.707.258.262zm0 0"/><path fill="#4b3066" d="m168.488 117.707.262.262zm-19.27.262.262.261zm0 0"/><path fill="#64579a" d="m168.23 117.969.258.261zm0 0"/><path fill="#9b76b6" d="m149.219 118.23.261.258zm18.75 0-.52.782zm0 0"/><path fill="#4b3066" d="m148.957 118.488.262.262zm19.012 0 .261.262zm-.262.262.262.262zm0 0"/><path fill="#64579a" d="m148.7 119.012.257.258zm0 0"/><path fill="#4b3066" d="m167.45 119.012.257.258zm-19.012.258.261.261zm0 0"/><path fill="#9b76b6" d="m148.7 119.27.257.261zm0 0"/><path fill="#4b3066" d="m167.188 119.27.261.261zm0 0"/><path fill="#64579a" d="m148.438 119.531.261.262zm18.488 0 .262.262zm0 0"/><path fill="#4b3066" d="m148.176 119.793.262.258zm0 0"/><path fill="#64579a" d="m166.668 119.793.258.258zm-.262.258.262.261zm-18.488.261.258.262zm18.227 0 .261.262zm0 0"/><path fill="#4b3066" d="m147.656 120.574-.261.52zm0 0"/><path fill="#64579a" d="m165.887 120.574.258.258zm0 0"/><path fill="#9b76b6" d="m147.656 120.832.262.262zm0 0"/><path fill="#64579a" d="m165.625 120.832.262.262zm0 0"/><path fill="#9b76b6" d="m147.395 121.094.261.261zm0 0"/><path fill="#64579a" d="m165.363 121.094.262.261zm-18.226.261.258.258zm17.968 0 .258.258zm0 0"/><path fill="#4b3066" d="m146.875 121.613.262.262zm0 0"/><path fill="#64579a" d="m164.844 121.613.261.262zm0 0"/><path fill="#4b3066" d="m164.582 121.875.262.262zm0 0"/><path fill="#9b76b6" d="m146.613 122.137.262.258zm0 0"/><path fill="#4b3066" d="m164.324 122.137.258.258zm0 0"/><path fill="#64579a" d="m146.355 122.395.258.261zm0 0"/><path fill="#9b76b6" d="m163.8 122.395.262.261zm0 0"/><path fill="#4b3066" d="m164.063 122.395.261.261zm-17.97.261.262.262zm0 0"/><path fill="#9b76b6" d="m163.543 122.656.258.262zm0 0"/><path fill="#4b3066" d="m145.832 122.918.262.258zm0 0"/><path fill="#64579a" d="m163.281 122.918.262.258zm0 0"/><path fill="#4b3066" d="m145.574 123.176.258.261zm0 0"/><path fill="#64579a" d="m163.02 123.176.261.261zm0 0"/><path fill="#9b76b6" d="m145.574 123.438.258.261zm16.926 0 .262.261zm0 0"/><path fill="#4b3066" d="m162.762 123.438.258.261zm0 0"/><path fill="#9b76b6" d="m145.313 123.7.261.257zm16.925 0 .262.257zm0 0"/><path fill="#64579a" d="m145.05 123.957.262.262zm16.93 0 .258.262zm-17.187.262.258.261zm0 0"/><path fill="#9b76b6" d="m161.457 124.219.262.261zm0 0"/><path fill="#4b3066" d="m161.719 124.219.261.261zm0 0"/><path fill="#64579a" d="m144.531 124.48.262.258zm0 0"/><path fill="#9b76b6" d="m161.2 124.48.257.258zm0 0"/><path fill="#64579a" d="m144.27 124.738.261.262zm16.667 0 .262.262zm-16.925.262.258.262zm0 0"/><path fill="#9b76b6" d="m160.418 125 .258.262zm0 0"/><path fill="#4b3066" d="m160.676 125 .262.262zm0 0"/><path fill="#64579a" d="m143.75 125.262.262.258zm16.406 0 .262.258zm-16.668.258.262.261zm0 0"/><path fill="#9b76b6" d="m159.637 125.52.258.261zm0 0"/><path fill="#4b3066" d="m159.895 125.52.261.261zm0 0"/><path fill="#64579a" d="m143.23 125.781.258.262zm16.145 0 .262.262zm0 0"/><path fill="#9b76b6" d="m142.969 126.043.261.258zm15.886 0 .258.258zm0 0"/><path fill="#4b3066" d="m142.45 126.3.257.263zm0 0"/><path fill="#9b76b6" d="m142.707 126.3.262.263zm15.625 0 .262.263zm0 0"/><path fill="#4b3066" d="m158.594 126.3.261.263zm-16.406.263.261.261zm0 0"/><path fill="#64579a" d="m158.074 126.563.258.261zm-16.148.261.262.258zm0 0"/><path fill="#9b76b6" d="m157.55 126.824.262.258zm0 0"/><path fill="#4b3066" d="m157.813 126.824.261.258zm0 0"/><path fill="#64579a" d="m141.668 127.082.258.262zm0 0"/><path fill="#9b76b6" d="m157.031 127.082.262.262zm0 0"/><path fill="#4b3066" d="m157.293 127.082.258.262zm-16.148.262.261.261zm15.625 0 .261.261zm0 0"/><path fill="#64579a" d="m140.887 127.605.258.258zm15.363 0 .262.258zm0 0"/><path fill="#4b3066" d="m140.363 127.863.262.262zm0 0"/><path fill="#9b76b6" d="m140.625 127.863.262.262zm0 0"/><path fill="#64579a" d="m155.73 127.863.258.262zm-15.625.262.258.262zm0 0"/><path fill="#9b76b6" d="m155.207 128.125.262.262zm0 0"/><path fill="#4b3066" d="m155.469 128.125.261.262zm-15.887.262.262.258zm0 0"/><path fill="#9b76b6" d="m154.688 128.387.261.258zm0 0"/><path fill="#4b3066" d="m154.95 128.387.257.258zm-15.887.258.261.261zm0 0"/><path fill="#9b76b6" d="m139.324 128.645.258.261zm14.844 0 .258.261zm0 0"/><path fill="#4b3066" d="m154.426 128.645.262.261zm-15.883.261.258.262zm0 0"/><path fill="#9b76b6" d="m138.8 128.906.262.262zm14.845 0 .261.262zm0 0"/><path fill="#4b3066" d="m153.906 128.906.262.262zm-15.886.262.261.258zm0 0"/><path fill="#9b76b6" d="m138.281 129.168.262.258zm14.844 0 .262.258zm0 0"/><path fill="#4b3066" d="m153.387 129.168.258.258zm-15.887.258.262.262zm0 0"/><path fill="#9b76b6" d="m137.762 129.426.258.262zm0 0"/><path fill="#64579a" d="m152.605 129.426.258.262zm-15.625.262.258.261zm15.102 0 .262.261zm0 0"/><path fill="#4b3066" d="m136.2 129.95.257.257zm0 0"/><path fill="#64579a" d="m136.457 129.95.262.257zm0 0"/><path fill="#9b76b6" d="m151.3 129.95.262.257zm0 0"/><path fill="#4b3066" d="m151.563 129.95.261.257zm-15.887.257.262.262zm0 0"/><path fill="#9b76b6" d="m135.938 130.207.261.262zm0 0"/><path fill="#64579a" d="m150.781 130.207.262.262zm0 0"/><path fill="#4b3066" d="m151.043 130.207.258.262zm0 0"/><path fill="#64579a" d="m135.156 130.469.262.261zm0 0"/><path fill="#9b76b6" d="m150 130.469.262.261zm0 0"/><path fill="#64579a" d="m150.262 130.469.258.261zm0 0"/><path fill="#4b3066" d="m134.375 130.73.262.258zm0 0"/><path fill="#9b76b6" d="m134.637 130.73.258.258zm0 0"/><path fill="#64579a" d="m149.48 130.73.258.258zm0 0"/><path fill="#4b3066" d="m149.738 130.73.262.258zm0 0"/><path fill="#64579a" d="m133.855 130.988.258.262zm0 0"/><path fill="#9b76b6" d="m134.113 130.988.262.262zm14.586 0 .258.262zm0 0"/><path fill="#64579a" d="m148.957 130.988.262.262zm0 0"/><path fill="#4b3066" d="m133.074 131.25.258.262zm0 0"/><path fill="#9b76b6" d="m133.332 131.25.262.262zm14.586 0 .258.262zm0 0"/><path fill="#64579a" d="m148.176 131.25.262.262zm-15.625.262.262.258zm0 0"/><path fill="#9b76b6" d="m147.137 131.512.258.258zm0 0"/><path fill="#64579a" d="m147.395 131.512.261.258zm0 0"/><path fill="#4b3066" d="m147.656 131.512.262.258zm0 0"/><path fill="#64579a" d="m131.77 131.77.261.261zm0 0"/><path fill="#9b76b6" d="m132.031 131.77.262.261zm14.324 0 .258.261zm0 0"/><path fill="#64579a" d="m146.613 131.77.262.261zm0 0"/><path fill="#4b3066" d="m146.875 131.77.262.261zm-15.887.261.262.262zm0 0"/><path fill="#9b76b6" d="m131.25 132.031.262.262zm14.324 0 .258.262zm0 0"/><path fill="#64579a" d="m145.832 132.031.262.262zm0 0"/><path fill="#4b3066" d="m146.094 132.031.261.262zm-15.887.262.262.258zm0 0"/><path fill="#64579a" d="m130.469 132.293.261.258zm0 0"/><path fill="#9b76b6" d="m144.793 132.293.258.258zm0 0"/><path fill="#4b3066" d="m145.05 132.293.262.258zm-15.624.258.262.262zm0 0"/><path fill="#64579a" d="m129.688 132.55.261.262zm0 0"/><path fill="#9b76b6" d="m143.75 132.55.262.262zm0 0"/><path fill="#64579a" d="m144.012 132.55.258.262zm0 0"/><path fill="#4b3066" d="m144.27 132.55.261.262zm-15.625.262.261.262zm0 0"/><path fill="#64579a" d="m128.906 132.813.262.261zm0 0"/><path fill="#9b76b6" d="m142.707 132.813.262.261zm0 0"/><path fill="#64579a" d="m142.969 132.813.261.261zm0 0"/><path fill="#4b3066" d="m143.23 132.813.258.261zm-15.367.261.262.258zm0 0"/><path fill="#9b76b6" d="m128.125 133.074.262.258zm13.543 0 .258.258zm0 0"/><path fill="#64579a" d="m141.926 133.074.262.258zm0 0"/><path fill="#4b3066" d="m142.188 133.074.261.258zm0 0"/><path fill="#64579a" d="m127.082 133.332.262.262zm0 0"/><path fill="#9b76b6" d="m127.344 133.332.261.262zm13.281 0 .262.262zm0 0"/><path fill="#64579a" d="m140.887 133.332.258.262zm0 0"/><path fill="#4b3066" d="m141.145 133.332.261.262zm-15.102.262.258.261zm0 0"/><path fill="#64579a" d="m126.3 133.594.263.261zm0 0"/><path fill="#9b76b6" d="m126.563 133.594.261.261zm12.933.086.176.086zm0 0"/><path fill="#64579a" d="m139.844 133.594.261.261zm0 0"/><path fill="#4b3066" d="m140.105 133.594.258.261zm0 0"/><path fill="#64579a" d="m125.262 133.855.258.258zm0 0"/><path fill="#9b76b6" d="m125.52 133.855.261.258zm12.761 0 .262.258zm0 0"/><path fill="#64579a" d="m138.543 133.855.258.258zm0 0"/><path fill="#4b3066" d="m138.977 133.941.171.086zm-14.758.172.261.262zm0 0"/><path fill="#64579a" d="m124.48 134.113.258.262zm0 0"/><path fill="#9b76b6" d="m124.738 134.113.262.262zm12.153.09.175.086zm0 0"/><path fill="#64579a" d="m137.238 134.113.262.262zm0 0"/><path fill="#4b3066" d="m137.672 134.203.176.086zm0 0"/><path fill="#64579a" d="m123.7 134.375.257.262zm0 0"/><path fill="#9b76b6" d="m135.418 134.375.258.262zm0 0"/><path fill="#64579a" d="m135.852 134.46.171.087zm0 0"/><path fill="#4b3066" d="m136.2 134.375.257.262zm-12.415.434.086.175zm0 0"/><path fill="#9b76b6" d="m133.766 134.723.175.086zm0 0"/><path fill="#64579a" d="m134.29 134.723.17.086zm0 0"/><path fill="#4b3066" d="m134.809 134.723.175.086zm0 0"/><path fill="#9b76b6" d="m132.203 134.984.176.086zm0 0"/><path fill="#64579a" d="m132.55 134.895.262.261zm0 0"/><path fill="#4b3066" d="m132.984 134.984.176.086zm0 0"/><path fill="#9b76b6" d="m130.121 135.242.176.086zm0 0"/><path fill="#64579a" d="m130.64 135.242.176.086zm0 0"/><path fill="#4b3066" d="m131.164 135.242.172.086zm0 0"/><path fill="#9b76b6" d="m124.047 135.59.086.176zm3.558-.172v.258h.782zm0 0"/><path fill="#64579a" d="m128.559 135.504.175.086zm0 0"/><path fill="#4b3066" d="m129.078 135.504.176.086zm0 0"/><path fill="#9b76b6" d="M125.262 135.676v.262h.781zm0 0"/><path fill="#64579a" d="m126.215 135.766.176.086zm0 0"/><path fill="#4b3066" d="M126.563 135.676v.262h.78zm-2.344.262.261.261zm0 0"/><path fill="#64579a" d="M97.395 144.27v4.687h.261zm0 0"/><path fill="#9b76b6" d="M116.926 146.094v1.3h.261zm-19.531 2.863v3.387h.261zm0 0"/><path fill="#4b3066" d="M117.188 149.219v2.605h.261zm0 0"/><path fill="#64579a" d="M117.188 151.824v2.082h.261zm0 0"/><path fill="#9b76b6" d="M117.188 153.906v2.344h.261zm0 0"/><path fill="#4b3066" d="M97.137 154.688v1.824h.258zm0 0"/><path fill="#64579a" d="M97.137 156.512v1.562h.258zm0 0"/><path fill="#4b3066" d="M117.45 157.031v1.563h.257zm0 0"/><path fill="#9b76b6" d="M97.137 158.074v1.563h.258zm0 0"/><path fill="#64579a" d="M117.45 158.594v.781h.257zm0 0"/><path fill="#9b76b6" d="M117.45 159.375v1.3h.257zm0 0"/><path fill="#4b3066" d="M96.875 160.676v1.562h.262zm20.832.262v1.042h.262zm0 0"/><path fill="#64579a" d="M117.707 161.98v.782h.262zm-20.746.434.086.172zm0 0"/><path fill="#9b76b6" d="M96.875 162.762v1.039h.262zm20.922.172.086.175zm0 0"/><path fill="#4b3066" d="M117.969 163.8v.782h.261zm-21.356.524v.781h.262zm0 0"/><path fill="#64579a" d="m117.969 164.582.261.262zm0 0"/><path fill="#9b76b6" d="m118.055 165.016.086.175zm0 0"/><path fill="#64579a" d="m96.703 165.277.086.176zm0 0"/><path fill="#9b76b6" d="M96.613 165.625v.781h.262zm0 0"/><path fill="#4b3066" d="m118.23 165.887.258.258zm0 0"/><path fill="#64579a" d="m118.316 166.32.086.172zm0 0"/><path fill="#9b76b6" d="m118.23 166.668.258.258zm0 0"/><path fill="#4b3066" d="m96.441 167.102.086.171zm0 0"/><path fill="#64579a" d="m96.441 167.621.086.176zm0 0"/><path fill="#4b3066" d="m118.488 167.45.262.257zm0 0"/><path fill="#64579a" d="m118.488 167.707.262.262zm0 0"/><path fill="#9b76b6" d="m96.441 168.14.086.176zm22.137 0 .086.176zm0 0"/><path fill="#4b3066" d="m96.18 168.922.086.176zm22.57-.172.262.262zm0 0"/><path fill="#64579a" d="m118.75 169.012.262.258zm-22.656.258.261.261zm0 0"/><path fill="#9b76b6" d="m118.75 169.27.262.261zm-22.57.433.086.176zm0 0"/><path fill="#4b3066" d="m119.012 169.793.258.258zm0 0"/><path fill="#64579a" d="m119.012 170.05.258.262zm0 0"/><path fill="#4b3066" d="m95.922 170.484.086.176zm0 0"/><path fill="#9b76b6" d="m119.012 170.313.258.261zm0 0"/><path fill="#64579a" d="m95.832 170.832.262.262zm0 0"/><path fill="#4b3066" d="m119.27 170.832.261.262zm0 0"/><path fill="#9b76b6" d="m95.832 171.094.262.261zm0 0"/><path fill="#64579a" d="m119.27 171.094.261.261zm0 0"/><path fill="#9b76b6" d="m119.27 171.355.261.258zm0 0"/><path fill="#4b3066" d="m95.574 171.613.258.262zm0 0"/><path fill="#64579a" d="m95.574 171.875.258.262zm23.957 0 .262.262zm0 0"/><path fill="#9b76b6" d="m95.574 172.137.258.258zm23.957 0 .262.258zm0 0"/><path fill="#4b3066" d="m95.313 172.656.261.262zm0 0"/><path fill="#64579a" d="m119.793 172.656.258.262zm-24.48.262.261.258zm0 0"/><path fill="#9b76b6" d="m119.793 172.918.258.258zm-24.48.258.261.262zm0 0"/><path fill="#4b3066" d="m120.05 173.176.263.262zm-24.91.433.087.176zm0 0"/><path fill="#9b76b6" d="m120.05 173.438.263.261zm-25 .519.263.262zm0 0"/><path fill="#64579a" d="m120.313 173.957.261.262zm0 0"/><path fill="#4b3066" d="m94.793 174.219.258.261zm0 0"/><path fill="#9b76b6" d="m94.879 174.652.086.176zm0 0"/><path fill="#64579a" d="m120.574 174.48.258.258zm0 0"/><path fill="#4b3066" d="m120.832 174.738.262.262zm-26.3.262-.262.52zm0 0"/><path fill="#9b76b6" d="m120.832 175 .262.262zm-26.3.262.261.258zm0 0"/><path fill="#64579a" d="m121.094 175.262.261.258zm-26.824.258.261.261zm0 0"/><path fill="#4b3066" d="m121.355 175.52.258.261zm-27.343.261.258.262zm0 0"/><path fill="#9b76b6" d="m94.27 175.781.261.262zm0 0"/><path fill="#4b3066" d="m121.613 175.781.262.262zm0 0"/><path fill="#9b76b6" d="m94.012 176.043.258.258zm0 0"/><path fill="#4b3066" d="m121.875 176.043.262.258zm-28.125.258.262.262zm28.387 0 .258.262zm-28.649.262-.52.78zm0 0"/><path fill="#64579a" d="m122.395 176.563.261.261zm0 0"/><path fill="#9b76b6" d="m93.488 176.824.262.258zm29.168 0 .52.52zm0 0"/><path fill="#4b3066" d="m122.918 176.824.258.258zm0 0"/><path fill="#9b76b6" d="m93.23 177.082.258.262zm0 0"/><path fill="#4b3066" d="m123.176 177.082.261.262zm-30.469.262.262.261zm0 0"/><path fill="#9b76b6" d="m123.438 177.344.261.261zm0 0"/><path fill="#4b3066" d="m123.7 177.344.257.261zm0 0"/><path fill="#64579a" d="m92.45 177.605.257.258zm31.507 0 .262.258zm0 0"/><path fill="#4b3066" d="m91.926 177.863.261.262zm0 0"/><path fill="#9b76b6" d="m92.188 177.863.261.262zm0 0"/><path fill="#64579a" d="m124.48 177.863.258.262zm0 0"/><path fill="#4b3066" d="m124.738 177.863.262.262zm0 0"/><path fill="#64579a" d="m91.668 178.125.258.262zm0 0"/><path fill="#9b76b6" d="m125 178.125.262.262zm0 0"/><path fill="#4b3066" d="m125.262 178.125.258.262zm-34.117.262.261.258zm0 0"/><path fill="#9b76b6" d="m91.406 178.387.262.258zm34.114 0 .261.258zm0 0"/><path fill="#64579a" d="m125.781 178.387.262.258zm0 0"/><path fill="#4b3066" d="m126.043 178.387.258.258zm-35.418.258.262.261zm0 0"/><path fill="#9b76b6" d="m90.887 178.645.258.261zm35.414 0 .261.261zm0 0"/><path fill="#64579a" d="m126.563 178.645.261.261zm0 0"/><path fill="#4b3066" d="m126.824 178.645.258.261zm-36.719.261.258.262zm0 0"/><path fill="#9b76b6" d="m90.363 178.906.262.262zm36.719 0 .262.262zm0 0"/><path fill="#64579a" d="m127.344 178.906.261.262zm0 0"/><path fill="#4b3066" d="m127.605 178.906.258.262zm-38.023.262.262.258zm0 0"/><path fill="#9b76b6" d="m89.844 179.168.261.258zm38.281 0 .262.258zm0 0"/><path fill="#64579a" d="m128.387 179.168.258.258zm0 0"/><path fill="#4b3066" d="m128.645 179.168.261.258zm-39.844.258.261.262zm0 0"/><path fill="#64579a" d="m89.063 179.426.261.262zm0 0"/><path fill="#9b76b6" d="m129.34 179.516.176.086zm0 0"/><path fill="#64579a" d="m129.688 179.426.261.262zm0 0"/><path fill="#4b3066" d="m129.95 179.426.257.262zm-41.93.262.261.261zm0 0"/><path fill="#64579a" d="m88.281 179.688.262.261zm0 0"/><path fill="#9b76b6" d="m88.543 179.688.258.261zm42.098.085.175.086zm0 0"/><path fill="#64579a" d="m130.988 179.688.262.261zm0 0"/><path fill="#4b3066" d="m131.25 179.688.262.261zm-44.012.261.262.258zm0 0"/><path fill="#64579a" d="m87.5 179.95.262.257zm0 0"/><path fill="#9b76b6" d="m131.945 180.035.172.086zm0 0"/><path fill="#64579a" d="m132.293 179.95.258.257zm0 0"/><path fill="#4b3066" d="m132.55 179.95.262.257zm-46.093.257.262.262zm0 0"/><path fill="#64579a" d="m86.719 180.207.261.262zm0 0"/><path fill="#9b76b6" d="m133.074 180.207.258.262zm0 0"/><path fill="#64579a" d="m133.332 180.207.262.262zm0 0"/><path fill="#4b3066" d="m133.766 180.297.175.086zm-48.09.172.261.261zm0 0"/><path fill="#9b76b6" d="m85.938 180.469.261.261zm48.437 0 .262.261zm0 0"/><path fill="#64579a" d="m134.637 180.469.258.261zm0 0"/><path fill="#4b3066" d="m135.07 180.555.172.086zm0 0"/><path fill="#64579a" d="m84.895 180.73.261.258zm0 0"/><path fill="#9b76b6" d="m85.156 180.73.262.258zm50.52 0 .262.258zm0 0"/><path fill="#64579a" d="m135.938 180.73.261.258zm0 0"/><path fill="#4b3066" d="m136.371 180.816.176.086zm0 0"/><path fill="#64579a" d="m84.113 180.988.262.262zm0 0"/><path fill="#9b76b6" d="m84.375 180.988.262.262zm52.605 0 .258.262zm0 0"/><path fill="#64579a" d="m137.238 180.988.262.262zm0 0"/><path fill="#4b3066" d="m137.5 180.988.262.262zm0 0"/><path fill="#64579a" d="m83.332 181.25.262.262zm0 0"/><path fill="#9b76b6" d="m83.594 181.25.261.262zm54.601.086.172.086zm0 0"/><path fill="#64579a" d="m138.543 181.25.258.262zm0 0"/><path fill="#4b3066" d="M138.8 181.512v.781h.262zm0 0"/><path fill="#9b76b6" d="M83.332 182.031v.262h6.773zm0 0"/><path fill="#64579a" d="M90.105 182.031v.262h48.696l-4.688-.262zm0 0"/></svg>