<svg xmlns="http://www.w3.org/2000/svg" width="250" height="250"><linearGradient id="a" x1="10.17" x2="243.06" y1="242.704" y2="318.532" gradientUnits="userSpaceOnUse"><stop offset="0" stop-color="#7543e3"/><stop offset="1" stop-color="#582acb"/></linearGradient><path fill="url(#a)" d="M125 0c69.035 0 125 55.965 125 125s-55.965 125-125 125S0 194.035 0 125 55.965 0 125 0zm0 0"/><path fill="#fff" fill-rule="evenodd" d="M125.008 31.25c12.047 0 22.437 12.563 29.281 32.977a170.07 170.07 0 0 0-8.437 2.597C140.164 49.938 132.363 40 125.008 40c-8.29 0-17.13 12.602-22.89 33.55 2.25.731 4.523 1.505 6.839 2.364 5.223 1.93 10.613 4.203 16.106 6.781.312-.144.628-.304.94-.445a212.97 212.97 0 0 1 10.477-4.5c.426-.164.836-.324 1.247-.488 10.363-4.024 20.382-6.91 29.554-8.438 19.746-3.3 33.633.114 39.086 9.614 5.461 9.5 1.465 23.289-11.25 38.812-.734.887-1.48 1.79-2.265 2.676a135.477 135.477 0 0 0-6.059-6.34c11.223-13.074 15.64-24.5 12.031-30.773-3.41-5.938-14.66-7.938-30.113-5.364a118.2 118.2 0 0 0-10.262 2.223c.504 2.324.977 4.695 1.39 7.152.954 5.5 1.692 11.32 2.216 17.38a215.067 215.067 0 0 1 7.914 5.847c9.98 7.761 18.55 15.898 25.148 23.949 12.715 15.523 16.711 29.313 11.25 38.813-4.097 7.136-12.957 10.835-25.484 10.835-4.145 0-8.688-.398-13.602-1.222-1.27-.215-2.566-.45-3.87-.715.784-2.711 1.507-5.547 2.163-8.484 1.059.21 2.106.398 3.137.574 15.445 2.574 26.703.574 30.113-5.363 4.145-7.215-2.328-21.243-17.547-36.758a165.386 165.386 0 0 1-4.699 4.156 30.99 30.99 0 0 1-.723.601 207.445 207.445 0 0 1-13.82 10.637 228.126 228.126 0 0 1-.828 8.09c-4.754 38.45-18.738 64.836-36.2 64.836-12.019 0-22.398-12.523-29.241-32.887a144.63 144.63 0 0 0 8.437-2.601c5.688 16.84 13.465 26.738 20.805 26.738 8.289 0 17.156-12.645 22.922-33.648a154.606 154.606 0 0 1-6.844-2.352c-5.258-1.922-10.625-4.172-16.027-6.688a219.001 219.001 0 0 1-9.36 4.137c-.46.188-.906.375-1.355.54-17.047 6.898-32.614 10.472-44.996 10.472-12.332 0-21.477-3.547-25.707-10.899-6.051-10.523-.325-25.937 13.996-42.187l6.086 6.45c-11.586 13.323-16.188 25-12.532 31.363 4.141 7.203 19.426 8.597 40.364 3.136-.493-2.32-.961-4.683-1.375-7.137-.946-5.492-1.68-11.296-2.207-17.343a222.627 222.627 0 0 1-7.899-5.793C55.81 122.55 41.25 102.637 41.25 87.813c0-3.426.785-6.575 2.39-9.376 6.02-10.46 22.012-13.226 43.005-9a139.386 139.386 0 0 0-2.192 8.602c-17.258-3.426-29.613-1.59-33.262 4.773-4.136 7.204 2.309 21.204 17.48 36.696a159.017 159.017 0 0 1 6.09-5.281c4.09-3.399 8.512-6.77 13.223-10.086.239-2.75.508-5.47.836-8.102 4.754-38.414 18.743-64.789 36.188-64.789zm27.562 122.16a248.28 248.28 0 0 1-6.382 3.942c-.735.437-1.47.859-2.204 1.285a239.285 239.285 0 0 1-7.703 4.277c-.375.203-.75.387-1.129.59a187.659 187.659 0 0 0 7.875 3.144c2.348.88 4.664 1.684 6.961 2.438.512-2.395.985-4.867 1.414-7.422.446-2.656.82-5.43 1.168-8.254zm-55.152-.012c.367 2.965.785 5.844 1.258 8.625.414 2.434.875 4.774 1.363 7.055 1.41-.457 2.832-.937 4.277-1.453.434-.148.883-.313 1.317-.477a164.838 164.838 0 0 0 9.133-3.597c.03-.012.058-.028.086-.035a253.38 253.38 0 0 1-8.82-4.88c-.15-.085-.31-.175-.462-.273-2.8-1.629-5.504-3.289-8.152-4.965zm27.594-61.011a226.508 226.508 0 0 0-8.95 4.613 235.94 235.94 0 0 0-19.703 12c-.18 2.55-.336 5.133-.433 7.79a233.67 233.67 0 0 0-.16 8.835c0 5.754.21 11.293.586 16.617a213.36 213.36 0 0 0 7.886 5.121 204.77 204.77 0 0 0 6.149 3.7 232.188 232.188 0 0 0 14.629 7.796c.316-.152.625-.293.937-.445a231.536 231.536 0 0 0 9.832-5.176c1.281-.699 2.563-1.425 3.844-2.175a232.7 232.7 0 0 0 14.027-8.81c.18-2.55.336-5.14.434-7.792.113-2.887.16-5.836.16-8.836 0-5.75-.21-11.29-.582-16.613a221.916 221.916 0 0 0-7.879-5.125 235 235 0 0 0-20.777-11.5zm-.004 21.988c6.187 0 11.199 5.035 11.199 11.25s-5.012 11.25-11.2 11.25c-6.183 0-11.198-5.035-11.198-11.25s5.015-11.25 11.199-11.25zm37.758 1.168c.129 3.305.195 6.664.195 10.082 0 .824 0 1.648-.012 2.477a243.847 243.847 0 0 1-.203 7.64 185.13 185.13 0 0 0 6.45-5.117c.261-.21.511-.414.761-.625a187.622 187.622 0 0 0 5.008-4.375 175.283 175.283 0 0 0-12.2-10.082zm-75.496-.023a194.64 194.64 0 0 0-5.829 4.593 154.05 154.05 0 0 0-6.394 5.516 167.268 167.268 0 0 0 4.582 4.008 181.975 181.975 0 0 0 7.625 6.07c-.129-3.3-.2-6.664-.2-10.082 0-.824 0-1.648.028-2.46.016-2.583.09-5.122.188-7.645zm62.707-33.352a173.927 173.927 0 0 0-14.031 5.246c-.25.102-.505.219-.755.324a255.752 255.752 0 0 1 8.793 4.875c.149.086.313.176.461.274a235.794 235.794 0 0 1 8.157 4.972c-.368-2.968-.79-5.851-1.262-8.632-.418-2.43-.88-4.774-1.363-7.059zm-49.946 0c-.504 2.39-.976 4.855-1.402 7.406-.453 2.66-.836 5.422-1.188 8.246a258.612 258.612 0 0 1 8.192-4.984c.137-.074.262-.148.398-.223a244.152 244.152 0 0 1 8.836-4.875 190.135 190.135 0 0 0-7.863-3.136 149.703 149.703 0 0 0-6.973-2.434zm0 0"/></svg>