<svg xmlns="http://www.w3.org/2000/svg" width="250" height="250"><g fill="#dab679"><path d="M177.367 172.086a4.515 4.515 0 0 1-1.894-.406 4.694 4.694 0 0 1-2.508-2.63 4.712 4.712 0 0 1 .078-3.62 4.71 4.71 0 0 1 2.617-2.5 4.74 4.74 0 0 1 3.41 8.832 4.991 4.991 0 0 1-1.703.324zm-2.578-3.734a2.78 2.78 0 0 0 3.582 1.585 2.729 2.729 0 0 0 1.535-1.484c.29-.672.29-1.437 0-2.113a2.82 2.82 0 0 0-1.465-1.535 2.875 2.875 0 0 0-2.132 0 2.799 2.799 0 0 0-1.57 3.597zM69.496 172.086a4.76 4.76 0 0 1-4.418-3.035 4.726 4.726 0 0 1 6.328-6.035 4.633 4.633 0 0 1 2.492 2.609 4.732 4.732 0 0 1-.07 3.629 4.737 4.737 0 0 1-2.625 2.508c-.547.21-1.125.32-1.707.324zm0-7.52a2.932 2.932 0 0 0-1.004.188 2.82 2.82 0 0 0-1.535 1.465 2.875 2.875 0 0 0 0 2.133 2.775 2.775 0 0 0 3.598 1.585 2.855 2.855 0 0 0 1.535-1.484 2.795 2.795 0 0 0-1.434-3.648 2.831 2.831 0 0 0-1.16-.239zM123.523 154.828a4.739 4.739 0 0 1-4.398-2.984 4.794 4.794 0 0 1 0-3.633 4.738 4.738 0 0 1 5.637-2.649 4.735 4.735 0 0 1 3.398 5.215 4.74 4.74 0 0 1-4.703 4.086zm0-7.504a2.603 2.603 0 0 0-1.003.188 2.78 2.78 0 0 0-1.57 3.582c.26.687.788 1.242 1.468 1.535a2.762 2.762 0 0 0 3.648-1.418c.29-.68.29-1.45 0-2.129a2.71 2.71 0 0 0-2.593-1.707zm0 0"/><path d="M122.55 80.3h1.966v66.052h-1.965zm0 0"/><path d="m176.938 165.215-53.415-83.106-53.328 82.985 12.47-87.25h80.718zm-92.57-85.41-11.036 76.66 49.34-76.66zm40.01 0 49.2 76.558-11.937-76.558zm0 0"/><path d="m82.672 79.328 1.687-1 40.024 67.512-1.688 1zm0 0"/><path d="m122.676 145.828 38.988-67.523 1.7.98-38.989 67.524zM48.758 37.578l1.008 2.797-2.047 1.707-4.246-11.785 2.078-1.707 10.898 6.176-1.996 1.707-2.59-1.453zm1.094-3.77-3.602-2.316 1.707 3.903zM62.64 25.523l-4.109-6.328 2.098-1.363 4.176 6.324a4.554 4.554 0 0 1-1.399 6.293 4.558 4.558 0 0 1-6.293-1.398l-4.11-6.324 2.118-1.383 4.125 6.328a2.04 2.04 0 0 0 2.816.598 2.036 2.036 0 0 0 .594-2.817zM79.695 18.477a5.782 5.782 0 0 1-3.324 4.468 5.906 5.906 0 0 1-4.566.243 5.913 5.913 0 0 1-3.368-3.09 5.901 5.901 0 0 1 2.68-7.996 5.822 5.822 0 0 1 5.492.101l-1.21 2.149a3.411 3.411 0 0 0-4.707 4.656 3.406 3.406 0 0 0 3.648 2.16 3.405 3.405 0 0 0 2.933-3.066zM80.156 8.246l8.528-2.883.734 2.133-3.07 1.09 3.086 8.988-2.387.82-3.09-9.039-3 1.024zM96.46 3.352l2.798 11.41-2.422.648-2.797-11.46zM108.191 1.066c1.57-.218 3.164.2 4.426 1.16a5.963 5.963 0 0 1 2.297 3.958 5.955 5.955 0 0 1-5.102 6.699 5.956 5.956 0 0 1-6.703-5.098 5.954 5.954 0 0 1 5.082-6.719zm1.282 9.48a3.481 3.481 0 0 0 2.32-1.362c.562-.746.8-1.688.664-2.61a3.443 3.443 0 0 0-6.82.938c.09.918.55 1.758 1.273 2.328a3.401 3.401 0 0 0 2.563.707zM129.188 11.793h-2.235l-4.16-7.078v7.094h-2.422V.059h2.285l4.024 7.011V.06h2.507zM152.637 3.043l-2.164 11.547-2.493-.461.887-4.637-4.11-.77-.87 4.641-2.453-.46 2.164-11.548 2.457.41-.887 4.708 4.11.765.886-4.707zM164.438 6.266a6.022 6.022 0 0 1 .921 11.101 6.022 6.022 0 0 1-8.46-7.246 5.99 5.99 0 0 1 2.968-3.496 5.977 5.977 0 0 1 4.57-.36zm-3.02 9.144a3.42 3.42 0 0 0 4.418-2.27 3.466 3.466 0 0 0-2.2-4.382 3.47 3.47 0 0 0-4.382 2.199 3.412 3.412 0 0 0 2.164 4.453zM178.32 20.336l3.309-6.82 2.25 1.109-3.309 6.82a4.568 4.568 0 0 1-5.972 1.852 4.567 4.567 0 0 1-2.23-5.84l3.308-6.824 2.285 1.11-3.309 6.82c-.359.992.098 2.09 1.051 2.535a2.028 2.028 0 0 0 2.617-.828zM186.746 25.965c-.207.375-.246.82-.113 1.226.129.407.426.739.812.922.852.547 1.703.532 2.133-.117.426-.648.34-.937-.48-1.879l-.973-1.09c-1.703-2.082-1.293-3.597-.715-4.504a3.703 3.703 0 0 1 2.492-1.507c1-.145 2.02.132 2.813.757a3.596 3.596 0 0 1 1.812 2.258 3.595 3.595 0 0 1-.43 2.86L192 23.543c.3-.668.094-1.461-.5-1.895a1.55 1.55 0 0 0-1.957.106c-.172.273-.375.8.41 1.703l.938 1.145c1.941 2.234 1.414 3.8.785 4.722a3.77 3.77 0 0 1-5.426.598 3.78 3.78 0 0 1-1.992-2.32 3.793 3.793 0 0 1 .37-3.036zM201.105 25.793l5.766 4.691-1.383 1.707-3.836-3.14-1.707 2.082 3.41 2.73-1.363 1.703-3.41-2.726-1.586 1.941 3.957 3.207-1.398 1.707-5.887-4.793zM216.863 40.207l4.844 5.523L220 47.18l-3.188-3.633-2.011 1.707 2.523 2.883-1.707 1.449-2.437-2.832-3.41 3.086-1.708-1.875zM228.426 54.633a6.037 6.037 0 1 1-8.34-1.5 5.971 5.971 0 0 1 8.34 1.5zm-7.914 5.406a3.543 3.543 0 0 0 3.644 1.55 3.54 3.54 0 0 0 2.809-2.784 3.543 3.543 0 0 0-1.52-3.657 3.544 3.544 0 0 0-3.96.032 3.497 3.497 0 0 0-.973 4.773zM228.188 78.031l-1.364-2.676 2.438-4.18-.254-.51-3.633 1.843-1.129-2.235 10.492-5.32 2.164 4.297c.524.906.641 1.992.313 2.988a3.68 3.68 0 0 1-2.02 2.23 3.62 3.62 0 0 1-4.656-.921zm5.714-9.754-2.953 1.485.957 1.89a1.705 1.705 0 0 0 2.984-1.43zM232.469 88.945l11.289-3.273 1.281 4.418c.938 3.238-.973 5.816-4.18 6.82-3.207 1.008-6.156-.219-7.093-3.41zm2.883 1.707.578 2.032c.527 1.804 2.37 2.234 4.23 1.703 1.86-.528 3.223-1.91 2.711-3.719l-.598-1.926zM248.156 103.496l-11.562 2.129-.457-2.453 11.578-2.117zM246.469 118.262a3.392 3.392 0 0 0 .988-2.66 3.733 3.733 0 0 0-7.434.582c.102 1.261 1.008 2.761 2.25 2.675l-.253-3.136 2.027-.172.46 6.02c-4.382.343-6.495-1.84-6.82-5.22a6.037 6.037 0 0 1 11.938-.937 5.753 5.753 0 0 1-1.57 4.555zM249.934 129.367l-11.754-.293v-2.488l11.754.289zM249.691 134.91l-1.004 8.817-2.234-.258.36-3.153-9.434-1.074.273-2.508 9.45 1.075.355-3.157zM238.625 148.707 236.137 147l.593-2.594 10.489 6.824-.594 2.641-12.418 1.707.582-2.558 2.934-.41zm1.398 3.648 4.262-.308-3.734-2.063zM244.066 163.27l-.82 2.37-9.02-3.12-1.453 4.144-2.078-.715 2.266-6.535zM227.879 178.773l-1.941-2.253 1.277-2.336 8.238 9.464-1.312 2.372-12.434-1.774 1.262-2.3 2.933.425zm.344 3.887 4.195.871-3.02-3.004zM214.477 194.617l1.296-1.824 8.168.832-5.78-4.16 1.448-2.012 9.551 6.82-1.332 1.86-8.066-.836 5.715 4.113-1.47 2.028zM211.047 198.793l8.527 8.016-3.137 3.41c-2.304 2.476-5.492 2.133-7.93-.133-2.44-2.27-2.968-5.406-.667-7.879zm0 3.414-1.45 1.55c-1.277 1.364-.699 3.188.7 4.5 1.398 1.317 3.308 1.708 4.59.411l1.43-1.535zM202.469 223.2l-3.871 2.863a3.847 3.847 0 0 1-3.95.636 3.852 3.852 0 0 1-.637-6.809l1.86-1.382-2.406-3.258 2.012-1.5zm-3.41-.29-1.961-2.644-1.707 1.312a1.707 1.707 0 0 0 1.91 2.695zM182.586 236.094l-5.8-10.235 2.198-1.246 2.32 4.114 3.65-2.067-2.337-4.11 2.168-1.226 5.797 10.23-2.164 1.231-2.371-4.195-3.567 2.078 2.356 4.18zM169.246 229.29l2.031 4.925 6.633 4.215-2.746 1.14-4.297-3-.972 5.118-2.747 1.14 1.707-7.726-1.96-4.809zM158.504 236.809a1.573 1.573 0 0 0-2.082-.871c-.973.273-1.516.921-1.328 1.707.187.785.492.902 1.703.902h1.469c2.71 0 3.547 1.418 3.836 2.441.23.98.046 2.02-.508 2.864s-1.43 1.425-2.426 1.601a3.596 3.596 0 0 1-4.809-2.367l2.407-.684c.097.375.359.688.71.856.352.168.758.172 1.114.015.836-.238 1.328-.87 1.125-1.554 0-.29-.34-.801-1.535-.801h-1.47c-2.964 0-3.784-1.45-4.058-2.54a3.748 3.748 0 0 1 .606-2.894 3.747 3.747 0 0 1 2.515-1.558 3.802 3.802 0 0 1 5.118 2.32zM146.84 248.098l-2.153-11.563 2.442-.46 2.164 11.562zM129.39 240.695a5.821 5.821 0 0 1 4.708-2.984 6.025 6.025 0 0 1 6.257 4.266 6.027 6.027 0 0 1-2.863 7.011 6.025 6.025 0 0 1-7.453-1.332l1.91-1.57a3.412 3.412 0 0 0 2.985 1.277 3.68 3.68 0 0 0 3.058-3.949 3.685 3.685 0 0 0-3.687-3.367 3.525 3.525 0 0 0-2.782 1.86zM122.45 241.004l1.16-2.73 2.644.105-4.809 11.562-2.71-.101-3.891-11.942 2.625.106.922 2.812zm-3.41 2.047 1.093 4.125 1.344-4.04zM109.148 249.055l-2.472-.375 1.433-9.45-4.351-.648.324-2.164 6.824 1.023zM91.004 235.957l1.855-2.254 2.528.82-7.797 9.825-2.574-.856-.496-12.515 2.507.816.121 2.969zm-3.77 1.04v4.28l2.403-3.53zM73.008 225.707l2.715 1.262.664 4.793.511.238 1.707-3.684 2.266 1.055-4.98 10.66-4.262-2.027a3.681 3.681 0 0 1-2.09-2.137 3.674 3.674 0 0 1 .18-2.98 3.634 3.634 0 0 1 4.23-2.149zm1.57 11.273 1.399-3.003-1.926-.887a1.704 1.704 0 0 0-1.45 2.969zM63.406 233.86l-7.57-4.641 1.195-1.926 2.692 1.703 4.98-8.082 2.149 1.313-4.977 8.066 2.71 1.707zM51.418 215.422a2.933 2.933 0 0 1-3.41.957 2.353 2.353 0 0 1-.442 2.726 3.412 3.412 0 0 1-4.742.172 3.867 3.867 0 0 1-1.5-3.41l2.317.426c-.012.363.14.71.41.953.219.242.527.383.851.383.328 0 .637-.14.856-.383.25-.262.379-.621.351-.984a1.292 1.292 0 0 0-.488-.926l-1.45-1.277-.87.988-1.707-1.465.89-.992-1.023-.903 1.277-1.433 1.008.906 1.156-1.297c.907-1.008.836-1.347-.152-2.218l1.383-1.536c1.347 1.23 2.047 2.047 1.484 3.293a3.412 3.412 0 0 1 3.102.801 3.616 3.616 0 0 1 .699 5.219zm-4.535-1.465a1.537 1.537 0 0 0 2.472-.121 1.572 1.572 0 0 0-.46-2.133 1.971 1.971 0 0 0-1.497-.523 1.985 1.985 0 0 0-1.402.746l-.613.699zM29.914 191.07a5.83 5.83 0 0 1 5.117 2.352 6.035 6.035 0 0 1-.195 7.598 6.03 6.03 0 0 1-7.473 1.386 6.033 6.033 0 0 1-2.906-7.023l2.352.75a3.552 3.552 0 0 0 1.875 3.941 3.554 3.554 0 0 0 4.28-.863 3.546 3.546 0 0 0 .208-4.356 3.56 3.56 0 0 0-3.09-1.332zM16.492 187.266a6.02 6.02 0 0 1 .332-6.696 6.023 6.023 0 0 1 6.32-2.234 6.012 6.012 0 0 1 4.47 4.992 6.023 6.023 0 0 1-2.919 6.035c-1.367.813-3 1.051-4.539.657s-2.86-1.383-3.664-2.754zm8.305-4.774a3.565 3.565 0 1 0-1.348 4.773 3.495 3.495 0 0 0 1.348-4.722zM11.086 176.453l-.973-2.3 8.782-3.72-1.704-4.058 2.012-.855 2.695 6.363zM6.496 164.754l-.73-2.406 9.12-2.813-1.241-4.195 2.097-.649 2.028 6.602zM3.086 152.61l-1.379-7.298 2.164-.425.957 4.86 2.625-.513-.887-4.21 2.133-.43.836 4.265 2.402-.527-.921-5.016 2.148-.425 1.469 7.453zM9.348 128.324a5.826 5.826 0 0 1 2.93 4.758 5.914 5.914 0 0 1-5.458 6.328 5.943 5.943 0 0 1-6.058-3.64 5.947 5.947 0 0 1 1.695-6.864l1.55 1.926a3.414 3.414 0 0 0 2.61 6.07c.95.004 1.86-.39 2.508-1.086a3.41 3.41 0 0 0 .902-2.578 3.557 3.557 0 0 0-1.84-2.797zM0 124.148l.375-8.851 2.25.086-.137 3.172 9.45.406v2.527l-9.551-.343-.137 3.171zM1.348 107.246l11.629 1.55-.32 2.474-11.634-1.551zM9.191 95.563a2.885 2.885 0 0 1 3.121-1.567c.965.211 1.793.809 2.297 1.656a3.55 3.55 0 0 1 .364 2.813l-1.141 4.926-11.445-2.711 1.023-4.535A3.137 3.137 0 0 1 7.383 93.5a2.304 2.304 0 0 1 1.808 2.063zm-1.277 1.859c.063-.3 0-.617-.18-.867a1.094 1.094 0 0 0-.757-.461 1.072 1.072 0 0 0-1.45.8l-.41 1.895 2.387.543zm1.566 2.39 2.766.63.543-2.337a1.325 1.325 0 0 0-1.125-1.55 1.286 1.286 0 0 0-1.07.09 1.28 1.28 0 0 0-.633.863zM6.121 86.406l.836-2.37 9.023 3.171 1.45-4.16 2.082.734-2.285 6.512zM10.59 74.637l3.191-6.7 1.992.938-2.128 4.52 2.421 1.14 1.86-3.906 1.96.922-1.859 3.906 2.266 1.074 2.184-4.605 1.98.957-3.242 6.82zM24.797 65.258c.383.191.824.219 1.226.078.403-.14.727-.441.907-.828.527-.852.492-1.707-.157-2.113-.644-.41-.953-.344-1.875.492l-1.074 1.008c-2.047 1.707-3.562 1.363-4.469.8a3.698 3.698 0 0 1-.867-5.285 3.583 3.583 0 0 1 2.227-1.875 3.602 3.602 0 0 1 2.887.39l-1.313 2.114a1.55 1.55 0 0 0-1.703 2.508c.254.152.8.36 1.703-.445l1.11-.954c2.183-1.996 3.769-1.5 4.706-.886a3.77 3.77 0 0 1 .715 5.406 3.801 3.801 0 0 1-5.336 1.707zM36.566 50.148a1.427 1.427 0 0 1 1.38-.582c.53.082.972.454 1.144.965a1.444 1.444 0 0 1-.344 1.461c-.312.438-.844.66-1.379.578a1.432 1.432 0 0 1-1.144-.965 1.435 1.435 0 0 1 .343-1.457zm0 0"/></g></svg>