<svg xmlns="http://www.w3.org/2000/svg" xmlns:xlink="http://www.w3.org/1999/xlink" width="250" height="250"><linearGradient id="a"><stop offset="0" stop-color="#4eceff"/><stop offset=".1" stop-color="#4eceff"/><stop offset=".2" stop-color="#4eceff"/><stop offset=".3" stop-color="#4eceff"/><stop offset=".4" stop-color="#4dceff"/><stop offset=".5" stop-color="#48cafc"/><stop offset=".6" stop-color="#40c6f9"/><stop offset=".7" stop-color="#38c2f6"/><stop offset=".8" stop-color="#2fbdf2"/><stop offset=".9" stop-color="#25b7ef"/><stop offset="1" stop-color="#21b5ed"/></linearGradient><linearGradient xlink:href="#a" id="b" x1="13.409" x2="86.285" y1="196.827" y2="166.747" gradientUnits="userSpaceOnUse"/><linearGradient xlink:href="#a" id="c" x1="123.214" x2="69.174" y1="239.888" y2="143.452" gradientUnits="userSpaceOnUse"/><linearGradient xlink:href="#a" id="d" x1="215.306" x2="105.71" y1="166.06" y2="185.817" gradientUnits="userSpaceOnUse"/><linearGradient xlink:href="#a" id="e" x1="197.591" x2="124.715" y1="49.173" y2="79.254" gradientUnits="userSpaceOnUse"/><linearGradient xlink:href="#a" id="f" x1="87.786" x2="141.826" y1="6.112" y2="102.548" gradientUnits="userSpaceOnUse"/><linearGradient xlink:href="#a" id="g" x1="-4.306" x2="105.29" y1="79.94" y2="60.182" gradientUnits="userSpaceOnUse"/><g stroke-width="2"><g stroke="#fff"><path fill="url(#b)" d="M50.963 91.427v120.998L1 183.5v-63.15zm0 0" transform="scale(1.18483 1.01626)"/><path fill="url(#c)" d="m50.963 154.573 104.501 60.5-49.964 28.928-54.537-31.576zm0 0" transform="scale(1.18483 1.01626)"/><path fill="url(#d)" d="m105.5 186.149 104.501-60.5V183.5l-54.537 31.572zm0 0" transform="scale(1.18483 1.01626)"/><path fill="url(#e)" d="M160.037 154.573V33.575L210 62.5v63.15zm0 0" transform="scale(1.18483 1.01626)"/></g><path fill="url(#f)" stroke="#fefefe" d="m160.037 91.427-104.501-60.5L105.5 1.999l54.537 31.576zm0 0" transform="scale(1.18483 1.01626)"/><path fill="url(#g)" stroke="#fff" d="M105.5 59.851.999 120.351V62.5l54.537-31.572zm0 0" transform="scale(1.18483 1.01626)"/></g></svg>