<?xml version="1.0" encoding="UTF-8"?>
<svg id="Layer_1" data-name="Layer 1" xmlns="http://www.w3.org/2000/svg" viewBox="0 0 250 250">
  <defs>
    <style>
      .cls-1 {
        fill: #007aff;
      }

      .cls-2 {
        fill: #ffdc0d;
      }

      .cls-3 {
        fill: #ff8000;
      }
    </style>
  </defs>
  <path class="cls-1" d="m96.57,78h0c8-13.86,3.25-31.58-10.61-39.58-13.86-8-31.58-3.25-39.58,10.61-.12.21-.21.42-.32.63-7.21,12.69-11.57,27.21-12.16,42.71l-.08,141.3c0,7.98,6.47,14.44,14.44,14.44h7.3c19.99,0,36.19-16.2,36.19-36.19v-116.42c.1-6.37,1.84-12.32,4.82-17.49h-.01Z"/>
  <path class="cls-3" d="m222.08,96.03c0-16.95-4.5-32.85-12.35-46.58,7.57,13.77,2.79,31.13-10.89,39.03-13.86,8-31.58,3.25-39.58-10.61h-.02c3.03,4.95,4.92,11.54,4.92,18.16,0,19.9-16.05,36.03-35.9,36.19-.1,0-.2-.02-.3-.02-16,0-28.97,12.97-28.97,28.97s12.97,28.97,28.97,28.97h0s0,0,0,0c0,0,0,0,0,0,51.98,0,94.12-42.15,94.12-94.13Z"/>
  <path class="cls-2" d="m80.88,14.52c-14.68,8.48-26.19,20.32-34.17,33.99,8.15-13.44,25.57-17.98,39.24-10.08,13.86,8,17.98,27.19,10.61,39.58v.02c3.08-5.36,7.54-10.03,13.28-13.34,17.23-9.95,39.23-4.12,49.3,13,.05.09.09.18.14.27,8,13.86,25.72,18.61,39.58,10.61,13.86-8,18.61-25.72,10.61-39.58h0s0,0,0,0c0,0,0,0,0,0,0,0,0,0,0,0C183.46,3.95,125.9-11.47,80.88,14.52Z"/>
</svg>