<svg xmlns="http://www.w3.org/2000/svg" width="250" height="250"><path fill="#faee00" d="M0 0h250v250H0z"/><path fill="#090502" d="M191.355 59.652c.418-.754.836-1.425 1.172-2.093.754-1.762.586-2.43-.754-3.774-.671-.668-1.593-1.254-2.011-2.094-2.012-3.683-5.446-5.195-9.301-5.613-2.43-.25-4.86-.168-7.203-.836-.25-.086-.504-.086-.754-.086-3.102.422-6.031-.332-9.047-.586-12.148-.922-24.297-.418-36.363.754-11.563 1.09-23.207 1.93-34.852 1.844-1.758 0-2.347.586-2.512 2.348-.085.586 0 1.254-.085 1.84 0 .421 0 .921-.418 1.007-1.09.336-1.844 1.258-3.016 1.59-2.262.504-2.766 1.426-2.516 3.688.422 3.101 1.676 5.949 2.766 8.797 1.258 3.101 1.258 3.101-1.844 4.44-.922.419-1.59 1.005-1.34 2.095.418 2.093.672 4.355 2.348 5.863 1.508 1.426 2.512 3.102 3.266 5.027 3.687 8.38 6.367 17.176 9.3 25.805.336.922-.254 1.09-.754 1.426-3.769 2.761-7.707 5.277-11.648 7.789l-4.355 2.765s-14.996 10.137-19.27 12.985l-6.785 4.61-.25.25a54.884 54.884 0 0 0-2.684 1.843c-.836.586-1.34 1.34-1.675 2.094l-.083.086.083.082c-.333 1.09-.168 2.18.671 3.351 3.938 5.7 7.121 11.813 11.73 17.094.837 1.004 1.759 1.59 3.017 1.676 1.253.082 2.343-.336 3.433-.922 6.031-3.352 11.813-7.04 17.594-10.895 2.18-1.507 4.441-2.68 7.207-2.511.836 0 1.59-.25 2.43-.336 1.34-.25 2.175-1.004 2.007-2.43-.082-1.172.422-1.926 1.426-2.512a113.449 113.449 0 0 0 6.703-4.273c1.004-.672 1.254-.586 1.59.586 1.762 6.87 3.688 13.656 5.445 20.527 1.344 4.942 3.352 9.633 4.778 14.492 1.258 4.442 2.511 8.883 3.851 13.32.922 2.852 1.93 5.614 3.102 8.298l.168.417.168.25c1.758 3.774 4.02 7.208 7.289 10.141.922.836 2.43 1.086 3.351.332 1.844-1.508 3.77-2.848 5.36-4.605.504-.504.754-.84 1.258 0 .672.922 1.675 1.507 2.597 2.007 1.172.672 2.512.504 3.52-.585.668-.668 1.254-1.422 1.926-2.176.504-.586.84-1.176 1.757-1.258.672-.082 1.344-.672 1.344-1.508.25-3.351-.086-6.617-1.93-9.637-.25-.418-.585-.921-.753-1.34-2.598-7.62-5.528-15.163-6.868-23.206-.086-.336-.168-.668-.336-.922a19.156 19.156 0 0 1-1.761-5.36c-.332-1.508-.5-3.101-.922-4.527-3.516-10.469-6.531-21.195-10.473-31.582-.25-.754-.164-1.176.504-1.676 2.934-2.18 23.207-18.433 30.328-24.465 7.793-6.535 15.5-13.152 21.45-21.531 3.097-4.441 6.199-8.883 9.214-13.488 1.676-2.598 1.09-4.192-1.59-4.692zM152.73 57.56c-.082.082-.082 0 0 0zm-47.25 8.796c.418-1.343 1.172-1.507 2.344-1.175 2.848.754 5.446 1.93 8.13 2.933 5.109 1.844 10.218 3.77 15.331 5.696.922.336 1.34.168 1.84-.668a297.34 297.34 0 0 1 10.809-15.918c.586-.84.921-1.09 1.843-.336 1.426 1.004 2.848 2.093 4.692 2.597-2.68 4.61-5.364 9.215-8.547 13.57-.754.923-.754 1.426.504 1.594.25.082.504.25.84.25.922.254 1.086.586.5 1.508-1.004 1.34-.922 1.426.586 2.012 4.191 1.508 8.378 3.184 12.57 4.61 1.004.331.922.921.754 1.675-.168.836-.504 1.34-1.508 1.004-.086 0-.168 0-.254-.082-1.676-.336-1.676-.336-1.676 1.422 0 1.926 0 1.926-1.843 1.926-.922 0-1.84-.164-2.68-.5-4.442-1.93-9.047-3.52-13.656-5.278-.836-.336-1.172-.086-1.676.586-1.09 1.676-2.344 3.184-3.352 4.942-2.765 4.609-6.449 8.46-9.969 12.398-1.257 1.426-1.507 1.508-2.68 0-.589-.836-1.343-1.34-2.179-1.758-.922-.504-.922-1.004-.336-1.843 2.766-3.602 5.7-7.204 8.211-10.977.336-.5.672-.918 1.004-1.422 1.344-2.094 1.344-2.094-.918-3.101-.59-.25-.922-.5-.422-1.09.422-.5.672-1.004 1.008-1.59-4.527-1.844-8.965-3.52-13.406-5.363-2.262-.922-4.524-1.926-6.785-2.848l-.336-2.344a8.47 8.47 0 0 0 1.257-2.43zm38.54 135.387.667-.168a.644.644 0 0 1-.667.168zm0 0"/><path fill="#d93978" d="M186.828 57.977c-.922-.254-2.094-.504-2.344-1.426-.336-1.09.836-1.508 1.508-2.012.25-.164.504-.418.586-.586.168-.754 1.594-1.422.504-2.344-2.516-2.093-5.277-3.687-8.797-3.601-1.93.082-3.937.668-5.7-.672-.25-.25-.92-.168-1.253-.082-.59.25-1.258.25-1.844.164-3.27-.332-6.535-.586-9.804-.922-3.938-.418-7.875-.332-11.895-.332-4.36 0-8.797.25-13.156.586-6.45.504-12.817 1.172-19.266 1.676-4.36.336-8.715-.086-12.988.586-3.098.418-6.117.586-9.215.25-1.258-.168-1.594.254-1.594 1.425 0 2.934-1.675 4.774-4.523 5.364-1.508.332-1.758.668-1.34 2.176.504 1.593 1.004 3.183 1.594 4.777.918 2.43 1.84 4.773 2.511 7.203.168.754.336 1.258-.84 1.426-1.085.168-2.175.754-3.265 1.172-.336.168-.504.25-.336.754.672 2.011 1.258 3.937 3.102 5.277.668.422 1.004 1.176 1.257 1.93 1.34 3.183 2.68 6.367 4.102 9.55.168.5.336.922.504 1.422.336 1.008 4.191 12.067 5.7 16.672.163.504.25 1.008.417 1.426 0 .754.336 1.508.082 2.262-.754.25-1.34.672-1.926 1.257-.754.418-1.507.836-2.093 1.422a3.59 3.59 0 0 0-.504.59c-2.012.754-3.602 2.344-5.446 3.434-1.004.668-2.011 1.34-3.101 2.011-.164.083-.25.168-.418.25-.836.418-1.676.922-2.43 1.59-1.34.754-2.597 1.594-3.937 2.348-.922.586-1.758 1.258-2.68 1.844-2.012 1.422-4.023 2.765-6.031 4.187-.336.086-.672.254-.84.586-2.262 1.426-4.524 2.852-6.703 4.36-.25.168-.586.418-.836.585-.418.25-.754.5-1.172.754-.504.336-5.363 3.688-7.29 4.942-.503.254-1.007.504-1.425 1.008-1.426 1.172-1.426 1.59-.25 2.761l.168.254.332.586s4.024 6.2 4.86 7.54c0-.083 0-.083.085-.169 0 .086 0 .086-.086.168.254.336.422.672.672 1.008.25.418.504.918.836 1.34l1.008 1.758c.922 1.675 1.676 1.843 3.434.922l1.925-1.09c.422-.168.754-.418 1.176-.668l2.93-1.676 5.363-3.438s.082 0 .082-.082c.168-.085.59-.417 1.176-.753l6.281-4.024c.422-.168.754-.332.922-.754.672-.082 1.172-.418 1.594-.922.668-.082 1.34-.168 1.926-.25 1.004.082 2.093-.082 3.015-.336h.25c.922 0 2.18.254 2.098-1.004-.086-2.093.922-3.269 2.598-4.105.5-.25.836-.586 1.254-.922.753-.504 1.507-.922 2.261-1.426.754-.5 1.508-1.004 2.348-1.507.922-.418 1.758-1.004 2.598-1.676.5-.168.921-.418 1.254-.836 2.011-1.258 2.011-1.258 2.765.25.254.922.504 1.762.754 2.683l3.016 11.645.086-.168c.336 1.258.586 2.512 1.004 3.688.167 1.171.503 2.343.921 3.433.25.922.504 1.758.754 2.68.672 3.101 1.508 6.117 2.598 9.133.504 2.347 1.676 4.523 2.512 6.785.168 1.008.336 1.93.84 2.851 1.507 6.114 3.265 12.063 5.53 17.926 1.087 2.934 1.927 6.117 4.102 8.547.754.84 1.512 1.926 2.43.168.086-.168.336-.25.59-.336 1.59-.836 2.93-1.926 3.937-3.52.668-1.085 2.008-.835 3.016-1.003.836-.168.668.753.922 1.171.668 1.008 1.508 1.844 2.512 2.094.921.254 1.171-1.086 1.843-1.59.336-.25 1.004-.586.672-1.09-.758-1.34.082-1.171.918-1.171 2.012-.086 2.012-.086 1.93-2.094 0-.422-.086-.754-.086-1.176-.168-2.344-1.676-4.27-2.512-6.45a136.737 136.737 0 0 1-3.437-9.8c-2.094-7.207-4.02-14.496-6.032-21.7-.418-1.507-1.003-3.019-1.421-4.526 0-.165.082-.333.082-.418a746.85 746.85 0 0 1-3.938-12.649c-.25-1.508-1.508-4.527-1.59-4.695 0-.332-.086-.668-.254-.836-.668-2.012-1.422-3.938-2.093-5.95 0-.753-.336-1.34-.672-1.925-.754-.754-.25-1.926-.918-2.68l-.758-2.933.504-.754c.672-.504 1.34-1.004 1.926-1.508 1.175-.754 2.265-1.594 3.27-2.598.335-.168.671-.336.835-.672.672-.418 1.344-.922 1.844-1.422 1.176-.671 2.262-1.425 3.015-2.597.84-.168 1.426-.84 2.012-1.34 2.348-1.762 4.692-3.606 6.871-5.613 1.34-1.008 2.598-1.93 3.77-3.102a208.927 208.927 0 0 0 11.394-9.633c11.813-8.547 19.52-20.61 27.563-32.59-1.004-.335-1.508-.421-2.012-.503zm-28.066 28.066c-.332 1.004-1.172 1.09-2.094 1.004-.836-.082-1.254.168-1.09 1.09.336 1.425-.5 1.843-1.676 2.093-2.007.336-3.937-.25-5.863-.835-1.172-.672-2.43-1.34-3.851-1.426-.254-.418-.672-.586-1.176-.586l-1.508-.504c-.836-.5-1.758-.754-2.68-1.004-2.847-1.09-3.351-1.172-4.441.504v-.086s-6.367 9.3-9.215 12.316c-.168.25-.25.336-.336.504l-1.426 1.758c-.836.84-1.672 1.758-2.68 2.348-.503.082-.921.25-1.421.332-.59-.25-1.176-.668-1.762-1.086-.082-.086-.168-.168-.25-.254-.418-.668-1.09-1.172-1.762-1.508-.418-.504-.922-.836-1.422-1.172-1.507-1.508-2.597-2.847-2.597-2.847-.086-.504 0-1.008 0-1.426 3.097-4.942 7.203-9.133 10.304-14.074.672-1.09.586-1.508-.586-1.926-6.03-2.348-12.148-4.695-18.011-7.375-3.184-1.422-3.606-2.598-2.598-5.863.586-1.762 1.844-3.102 2.344-4.946.254-1.004 1.426-1.086 2.347-1.004.922.082 1.926.25 2.848.586 6.871 2.598 13.738 5.11 20.61 7.707 1.007.422 1.593.168 2.093-.668.586-1.007 1.258-2.011 1.93-3.015 2.762-3.938 5.527-7.875 8.293-11.813 1.34-1.93 1.926-2.012 3.855-.84.082.082.164.082.25.168 1.758 1.508 3.852 2.344 6.2 2.43.586 0 1.172.168 1.257.922.168 1.676.168 3.351-.84 4.773-1.003 1.344-4.69 7.625-5.78 9.301-.669 1.004-1.173 2.094-1.84 3.016-.672.922-.168 1.09.585 1.34 3.352 1.09 6.618 2.261 9.801 3.687.672.336 1.426.586 1.676 1.426.082.418.418.5.754.418 1.34-.25 1.676.668 1.926 1.59.422 1.761.254 3.351-.168 4.945zm0 0"/></svg>