<svg xmlns="http://www.w3.org/2000/svg" width="250" height="250"><path fill="#052892" d="M220.844 133.25c.011-19.125-5.473-37.84-15.778-53.86l38.301-38.843-28.765-29.176-38.278 38.844c-32.281-21.352-73.953-21.352-106.234 0L31.754 11.37 2.98 40.547l38.305 38.84c-21.05 32.738-21.05 74.996 0 107.73L2.98 225.965l28.774 29.18L70.059 216.3c32.28 21.347 73.953 21.347 106.234 0l38.305 38.844 28.77-29.18-38.302-38.813c10.313-16.03 15.797-34.761 15.778-53.902zm-154.645 0c-.043-23.59 14.063-44.836 35.63-53.676 21.57-8.836 46.269-3.492 62.401 13.504 16.133 17 20.458 42.234 10.922 63.75l-37.586-38.164-28.78 29.184 37.597 38.117c-17.613 8.031-38.047 6.45-54.254-4.207-16.203-10.653-25.973-28.922-25.93-48.508zm0 0"/></svg>