<svg xmlns="http://www.w3.org/2000/svg" width="250" height="250"><g fill="#2e9ad0"><path d="M151.547 242.234h-68.73l-55.454-44.992L6.227 124.57l21.09-72.668L82.772 6.91h68.774L207 51.902l21.09 72.668L207 197.242l-.773.856zM84.363 237H150l53.137-43.23 20.316-69.2-20.316-69.195L150 12.145H84.363l-53.09 43.23-20.32 69.195 20.32 69.2zm0 0"/><path d="m235.953 230.105-32.043-32.007-31.273-12.985-55.453 7.801-56.23-7.8-31.27 12.984-1.547-5.184 32-13.84h.816l56.23 8.656 56.27-8.656.774.856 32.82 13.84 32 32.863zm0 0"/><path d="m150 244.8-32.816-50.175-34.368 50.176-25-61.399 4.684-2.617 21.863 53.649 32.82-49.32 32.044 49.32 21.863-53.649 29.683-65.722 7.043 80.417h-4.68l-5.5-61.398-21.863 49.32zm0 0"/><path d="M9.363 121.957h217.184v5.184H9.363zm0 0"/><path d="m200.773 134.082-27.32-59.684L150 130.613l-32.816-64.87-33.594 64.87-23.453-56.215-27.32 59.684-6.27-79.562 4.726-.856 4.68 62.254 24.184-52.742 23.453 56.21 33.594-64.011 32.043 64.012 24.226-56.211 24.184 51.886 3.91-61.398h4.726zm0 0"/><path d="m171.09 70.07-21.863-54.504-32.043 50.176-32.82-50.176L62.5 70.07l-3.91-2.566L82.816 5.199l34.368 51.031L150 5.2l25.773 62.304zm32.047 125.41-5.5-61.398-24.184 53.648-24.226-57.117-32.043 64.867-33.594-64.867-23.453 57.117-24.184-53.648-4.68 61.398h-4.726l6.27-80.417 27.32 60.539 23.453-56.215 33.594 64.87L150 119.388l23.453 57.07 27.32-61.394 7.043 80.417zm0 0"/><path d="m173.453 71.832-57.043-8.656-56.273 8.656-32-15.602 1.547-5.183 31.27 14.695 55.456-7.75 57.043 7.75 30.457-14.695 2.363 5.183zM92.953 239.617c0 5.727-4.191 10.367-9.363 10.367s-9.363-4.64-9.363-10.367c0-5.726 4.191-10.367 9.363-10.367s9.363 4.64 9.363 10.367zM158.59 239.617c0 5.727-4.192 10.367-9.363 10.367-5.172 0-9.364-4.64-9.364-10.367 0-5.726 4.192-10.367 9.364-10.367 5.171 0 9.363 4.64 9.363 10.367zM92.953 10.383c0 5.726-4.191 10.367-9.363 10.367s-9.363-4.64-9.363-10.367c0-5.727 4.191-10.367 9.363-10.367s9.363 4.64 9.363 10.367zM158.59 10.383c0 5.726-4.192 10.367-9.363 10.367-5.172 0-9.364-4.64-9.364-10.367 0-5.727 4.192-10.367 9.364-10.367 5.171 0 9.363 4.64 9.363 10.367zm0 0"/><path d="M213.273 53.664c0 5.723-4.191 10.367-9.363 10.367s-9.363-4.644-9.363-10.367c0-5.727 4.191-10.367 9.363-10.367s9.363 4.64 9.363 10.367zM38.273 53.664c0 5.723-4.191 10.367-9.363 10.367s-9.363-4.644-9.363-10.367c0-5.727 4.191-10.367 9.363-10.367s9.363 4.64 9.363 10.367zM38.273 196.387c0 5.726-4.191 10.367-9.363 10.367s-9.363-4.64-9.363-10.367c0-5.727 4.191-10.367 9.363-10.367s9.363 4.64 9.363 10.367zM18.727 124.57c0 5.727-4.192 10.368-9.364 10.368S0 130.297 0 124.57c0-5.722 4.191-10.367 9.363-10.367s9.364 4.645 9.364 10.367zM235.137 124.57c0 5.727-4.192 10.368-9.364 10.368-5.171 0-9.363-4.641-9.363-10.368 0-5.722 4.192-10.367 9.363-10.367 5.172 0 9.364 4.645 9.364 10.367zM208.59 124.57c0 5.727-4.192 10.368-9.363 10.368-5.172 0-9.364-4.641-9.364-10.368 0-5.722 4.192-10.367 9.364-10.367 5.171 0 9.363 4.645 9.363 10.367zM43.727 124.57c0 5.727-4.192 10.368-9.364 10.368S25 130.297 25 124.57c0-5.722 4.191-10.367 9.363-10.367s9.364 4.645 9.364 10.367zM92.953 124.57c0 5.727-4.191 10.368-9.363 10.368s-9.363-4.641-9.363-10.368c0-5.722 4.191-10.367 9.363-10.367s9.363 4.645 9.363 10.367zM158.59 124.57c0 5.727-4.192 10.368-9.363 10.368-5.172 0-9.364-4.641-9.364-10.368 0-5.722 4.192-10.367 9.364-10.367 5.171 0 9.363 4.645 9.363 10.367zM118.684 50.336c5.105.918 8.57 6.242 7.742 11.894-.828 5.649-5.637 9.489-10.742 8.57-5.106-.917-8.57-6.241-7.743-11.894s5.637-9.488 10.743-8.57zM69.5 69.215c0 5.722-4.191 10.367-9.363 10.367s-9.364-4.644-9.364-10.367c0-5.727 4.192-10.367 9.364-10.367s9.363 4.64 9.363 10.367zM182.816 69.215c0 5.722-4.191 10.367-9.363 10.367s-9.363-4.644-9.363-10.367c0-5.727 4.191-10.367 9.363-10.367s9.363 4.64 9.363 10.367zM126.547 190.297c0 5.726-4.195 10.367-9.363 10.367-5.172 0-9.368-4.64-9.368-10.367 0-5.723 4.196-10.367 9.368-10.367 5.168 0 9.363 4.644 9.363 10.367zM69.5 181.64c0 5.727-4.191 10.368-9.363 10.368s-9.364-4.64-9.364-10.367c0-5.723 4.192-10.368 9.364-10.368s9.363 4.645 9.363 10.368zM182.816 181.64c0 5.727-4.191 10.368-9.363 10.368s-9.363-4.64-9.363-10.367c0-5.723 4.191-10.368 9.363-10.368s9.363 4.645 9.363 10.368zM250 228.395c0 7.644-5.598 13.84-12.5 13.84s-12.5-6.196-12.5-13.84 5.598-13.84 12.5-13.84 12.5 6.195 12.5 13.84zm0 0"/></g></svg>