<svg xmlns="http://www.w3.org/2000/svg" width="250" height="250"><path fill="#9391bb" d="M187.406 93.375v62.254l62.465-31.125V62.25zm0 0"/><path fill="#a2eee3" d="m249.871 186.754-62.465-31.129v62.254h-.004l62.47 31.125zm0 0"/><path fill="#46ddc8" d="M124.938 62.25V0L0 62.25l62.469 31.125zm0 0"/><path fill="#262278" d="m124.938 186.754-62.47-31.129L0 186.754l124.938 62.25zm0 0"/><path fill="#9391bb" d="M0 62.254v124.5l62.469-31.125V93.375zm0 0"/><path fill="#46ddc8" d="m187.402 155.629-62.464 31.125v62.25l62.468-31.125zm0 0"/><path fill="#262278" d="m187.406 93.375 62.465-31.125-62.465-31.125L124.937 0v62.25zm0 0"/></svg>