<svg xmlns="http://www.w3.org/2000/svg" width="250" height="250"><path d="M116.21 1.27c-.292.292-3.417.683-6.835.78-3.516.098-7.031.587-7.813.977-1.66.88-8.886 2.246-10.156 1.953-.39-.097-1.27.196-1.953.684-.586.488-2.832 1.465-4.98 2.05-7.227 2.15-24.22 10.255-25.977 12.403-.586.781-1.758 1.367-2.441 1.367-.782 0-1.368.391-1.368.88s-.78 1.171-1.66 1.464c-.976.293-3.027 1.758-4.687 3.223-1.563 1.562-4.688 4.004-6.836 5.664-4.2 3.125-9.277 8.105-9.277 9.18 0 .39-1.758 2.636-3.907 4.98-2.148 2.344-4.199 5.078-4.492 6.055-.293.976-.976 1.757-1.465 1.757s-.879.586-.879 1.27-.78 2.148-1.757 3.223c-.977.976-2.442 3.32-3.125 4.98-.782 1.758-1.856 3.223-2.247 3.223-.488 0-.585.39-.292.781.292.488-.391 2.05-1.465 3.711-.977 1.563-1.856 3.613-1.856 4.492 0 .977-.39 1.758-.976 1.758-.489 0-.977 1.074-.977 2.344 0 1.367-.39 2.734-.976 3.027-.489.293-.977 1.66-.977 3.027 0 1.27-.39 2.344-.781 2.344-.39 0-1.27 2.93-1.856 6.543-.683 3.711-1.465 8.203-1.953 10.059-1.465 6.738-.781 36.133.977 44.433.879 4.297 1.757 8.79 1.953 9.961.195 1.172.586 2.54.976 2.832.391.39.684 1.758.684 3.028s.488 2.246.977 2.246c.585 0 .976.879.976 1.855 0 1.074.488 2.246.977 2.54.586.292.976 1.66.976 3.027 0 1.27.39 2.343.88 2.343.487 0 1.171 1.368 1.562 2.93.39 1.66 1.074 2.93 1.562 2.93s.879.683.879 1.465c0 .879.879 2.441 1.953 3.613s1.953 2.734 1.953 3.418.39 1.27.782 1.27 1.562 1.464 2.636 3.124c.977 1.758 2.344 3.711 2.832 4.297.586.586 2.344 2.735 4.004 4.785 4.785 6.153 16.992 18.067 18.457 18.067.781 0 2.246 1.074 3.32 2.441 1.075 1.367 2.54 2.442 3.32 2.442.684 0 1.954.879 2.735 1.953s1.953 1.953 2.54 1.953c.683 0 3.906 1.562 7.226 3.418 3.32 1.855 6.64 3.418 7.422 3.418s1.367.39 1.367.976c0 .489.976.977 2.246.977s2.637.39 3.125.879c.977.879 15.527 4.883 20.508 5.566 1.66.293 4.004.684 5.37 1.074 3.614.88 33.497 1.172 34.669.293.586-.39 2.93-.976 5.37-1.27 2.442-.39 6.153-.976 8.302-1.562 2.148-.488 4.883-1.171 6.054-1.367 1.172-.293 2.93-.976 3.907-1.465.976-.488 2.343-.683 3.027-.488.586.293 1.172 0 1.172-.586s.879-1.074 1.855-1.074c1.075 0 2.246-.488 2.54-.977.292-.586 1.464-.976 2.538-.976.977 0 1.856-.39 1.856-.88 0-.78 2.05-1.66 5.664-2.538.781-.195 2.148-1.074 3.027-1.856.977-.879 2.246-1.562 2.832-1.562.684 0 1.172-.488 1.172-.977 0-.586.781-.976 1.758-.976s2.344-.88 3.125-1.953 1.953-1.953 2.637-1.953c.781 0 3.125-1.954 5.37-4.395 2.247-2.441 4.688-4.395 5.372-4.395.684 0 1.27-.488 1.27-1.074 0-.488.292-.781.78-.586.88.39 5.079-3.906 4.298-4.59-.293-.293 0-.585.586-.585.683 0 1.171-.489 1.171-1.075 0-.683 1.954-3.125 4.395-5.566 2.441-2.344 4.394-4.98 4.394-5.664 0-.781.489-1.367.977-1.367.586 0 .977-.684.977-1.563 0-.781.488-1.172.976-.879.586.293.977-.293.977-1.367 0-1.172.488-2.05.976-2.05.586 0 .977-.489.977-1.075s.879-2.148 1.953-3.516c1.074-1.367 1.758-2.832 1.465-3.222-.293-.39.195-1.27.976-1.953s1.172-1.563.88-2.051c-.294-.488 0-.88.488-.88.586 0 1.074-.878 1.074-1.855 0-1.074.488-2.246.976-2.539.586-.293.977-1.464.977-2.539 0-.976.488-1.855.976-1.855.586 0 .977-1.074.977-2.442 0-1.367.488-2.44 1.074-2.44.489 0 .782-.392.489-.88-.391-.488.097-3.515.976-6.64s1.856-7.422 2.05-9.57c.196-2.15.685-4.59.977-5.372.977-2.246 1.172-27.93.293-32.031-.488-1.953-1.074-5.371-1.367-7.52-.781-6.152-4.101-19.336-5.37-21.777-2.442-4.492-7.911-16.895-7.911-17.773a.979.979 0 0 0-.977-.977c-.488 0-.976-.781-.976-1.758 0-.976-.879-2.344-1.953-3.125s-1.953-1.855-1.953-2.441c0-.684-1.075-2.149-2.442-3.418-1.367-1.27-2.441-2.832-2.441-3.418 0-.586-.977-1.953-2.149-3.125-1.27-1.074-3.613-3.418-5.273-5.274-3.613-4.004-11.914-11.62-12.695-11.62-.293 0-1.563-1.075-2.93-2.442-1.367-1.367-2.734-2.442-3.223-2.442-.39 0-1.66-.878-2.832-1.953-1.172-1.172-2.148-1.757-2.148-1.464s-1.465-.489-3.223-1.856c-1.855-1.465-3.808-2.539-4.492-2.539-.684 0-1.856-.684-2.637-1.465-.879-.781-2.344-1.465-3.418-1.465s-1.66-.488-1.367-.976c.293-.586-.195-.977-1.074-.977-2.344 0-8.203-2.148-8.203-3.027 0-.39-.781-.781-1.66-.781-.977 0-3.516-.391-5.664-.977-9.473-2.637-19.434-4.102-31.25-4.59-6.934-.39-12.891-.39-13.184-.097zm24.122 75.878c9.57 3.32 18.555 11.133 23.047 20.215 6.543 12.793 6.055 31.543-1.074 44.63-3.125 5.663-10.743 13.573-14.844 15.234-3.613 1.464-3.613 2.636-.195 6.347 9.668 10.547 14.843 11.035 24.12 2.344 2.052-1.856 3.419-2.441 4.298-1.953 1.953 1.172-.196 6.152-4.688 11.133-9.473 10.547-19.726 8.593-28.906-5.274l-4.883-7.422-8.789.489c-14.063.78-24.219-3.028-33.594-12.598-4.98-5.078-9.18-12.695-10.742-19.531-1.465-6.348-1.27-18.262.39-24.805 6.153-23.73 32.032-37.012 55.86-28.809zm0 0"/><path d="M116.602 80.469c-6.446 2.05-10.84 6.054-14.063 12.695-3.906 8.008-5.273 17.09-4.59 30.273.684 13.575 3.125 21.192 8.79 27.637l1.952 2.149 4.395-3.809c7.422-6.64 14.648-6.25 23.047 1.074l4.59 4.102 2.441-2.344c12.988-12.207 13.574-52.441 1.074-66.113-5.468-5.957-18.652-8.692-27.636-5.664zm0 0"/></svg>