<svg xmlns="http://www.w3.org/2000/svg" width="250" height="250"><g fill="#252836"><path d="M247.852 77.934 158 26.234a4.046 4.046 0 0 0-5.73 5.164l36.832 82.223c.468 1.043 1.355 1.84 2.445 2.192s2.277.23 3.27-.344l53.035-30.5a4.044 4.044 0 0 0 0-7.035zM60.898 113.621 97.73 31.398A4.046 4.046 0 0 0 92 26.234l-89.852 51.7a4.045 4.045 0 0 0 0 7l53.036 30.5a4.06 4.06 0 0 0 3.261.359 4.057 4.057 0 0 0 2.453-2.172zM121.605 223.61 78.16 126.694a4.059 4.059 0 0 1 0-3.304l43.434-97a4.053 4.053 0 0 1 7.402 0l42.856 97.293a4.07 4.07 0 0 1 0 3.27L129 223.593a4.048 4.048 0 0 1-7.395.015zm0 0"/></g></svg>