<svg xmlns="http://www.w3.org/2000/svg" width="250" height="250"><path fill="#2a373b" d="M105.379 116.668c-.942-.047-1.93.36-2.8-.316a4.598 4.598 0 0 1 2.8.316zM109.336 117.086c-.781.023-1.602.332-2.305-.293a3.434 3.434 0 0 1 2.305.293zm0 0"/><path fill="#283036" d="M27.383 46.879a59.198 59.198 0 0 1 6.57-7.68A123.915 123.915 0 0 1 95.16 3.516a75.812 75.812 0 0 1 11.586-2.149c.442 1.278-.637 1.645-1.367 2.067-4.383 2.53-8.742 5.105-13.145 7.609-4.734 2.691-9.394 5.504-14.129 8.203a2.586 2.586 0 0 0-1.316 1.188 1.88 1.88 0 0 1-.898.695 108.96 108.96 0 0 0-15.457 8.828 4.948 4.948 0 0 1-1.883.996 2.607 2.607 0 0 0-1.563.418c-8.843 5-17.633 10.098-26.414 15.211-.582.418-1.23.73-1.918.93-.531.101-1.222.332-1.273-.633zm0 0"/><path fill="#399584" d="M160.285 244.871a105.406 105.406 0 0 1-21.484 4.297c-.383-1.164.558-1.563 1.262-1.965 5.113-2.992 10.269-5.914 15.386-8.902 2.594-1.516 5.371-2.754 7.64-4.79 2.231-1.335 4.747-1.995 7.118-3.003a114.473 114.473 0 0 0 29.742-18.633c1.41-1.203 2.563-2.727 4.258-3.598a7.579 7.579 0 0 0 2.723-1.093c6.261-3.625 12.488-7.309 18.828-10.801.46-.254 1.21-1.348 1.676.097a112.173 112.173 0 0 1-14.426 17.27c-.387.39-.813.73-1.219 1.098-10.84 6.047-21.508 12.386-32.281 18.547-5.438 3.109-10.844 6.273-16.281 9.382a12.873 12.873 0 0 0-2.942 2.094zm0 0"/><path fill="#293237" d="M27.383 46.879c.726.879 1.43.238 2.043-.11 4.469-2.558 8.91-5.164 13.37-7.738 4.79-2.761 9.583-5.515 14.384-8.254.414-.234.87-.578 1.312-.011a64.06 64.06 0 0 1-6.187 5.113A130.696 130.696 0 0 0 36.84 51.363a7.363 7.363 0 0 1-2.094 2.063c-2.941.867-5.355 2.746-7.988 4.199-2.594 1.43-5.106 3.008-7.738 4.371-.547.285-1.434 1.164-1.88-.238a79.617 79.617 0 0 1 6.704-10.395 32.427 32.427 0 0 1 3.539-4.484zM76.668 20.195c.191-1.41 1.578-1.457 2.441-1.984 3.926-2.395 7.946-4.637 11.93-6.934 4.613-2.664 9.223-5.324 13.836-7.984.809-.465 1.695-.84 1.871-1.918a80.6 80.6 0 0 1 12.25-1.3c1.856-.118 3.73-.044 5.598-.055.125 1.132-.809 1.453-1.516 1.878-4.035 2.434-8.133 4.758-12.215 7.11-1.21.64-2.34 1.426-3.367 2.336-3.258.976-6.64 1.398-9.945 2.148a108.052 108.052 0 0 0-18.399 6.094c-.78.328-1.539.887-2.484.61zm0 0"/><path fill="#389181" d="M227.438 196.484c-.188-.367-.418-.422-.79-.207-5.214 3.012-10.43 6.02-15.652 9.024-1.562.902-3.117 1.824-4.676 2.734a3.33 3.33 0 0 1-2.027.555c-.316-.684.246-1.02.605-1.367a113.671 113.671 0 0 0 13.762-15.86 2.785 2.785 0 0 1 1.086-.976c4.121-1.856 7.86-4.395 11.793-6.578.867-.48 1.715-.989 2.594-1.438.605-.309 1.254-.789 1.972-.195a90.56 90.56 0 0 1-8.667 14.308zm0 0"/><path fill="#3a9987" d="M160.285 244.875c-.11-.941.692-1.2 1.262-1.535 4.863-2.852 9.746-5.664 14.629-8.496 10.52-6.086 21.047-12.16 31.574-18.23 1.21-.86 2.586-1.462 4.04-1.766-1.626 1.48-3.25 2.964-4.872 4.445a106.133 106.133 0 0 1-15.863 11.844 118.695 118.695 0 0 1-30.77 13.738zm0 0"/><path fill="#293439" d="M17.14 61.758c.626.832 1.215.164 1.712-.117 4.14-2.332 8.238-4.739 12.386-7.055 1.075-.602 2.02-1.645 3.457-1.348-.601 1.82-2.023 3.106-3.082 4.621-2.265 3.25-4.297 6.641-6.293 10.047-.386.653-.66 1.41-1.476 1.692-1.75.082-3.008 1.27-4.414 2.07-2.426 1.387-4.844 2.797-7.274 4.176-.703.398-1.426 1.136-2.383.5a88.952 88.952 0 0 1 7.368-14.586zM107.406 10.941c2.2-2.117 5.059-3.187 7.598-4.765 2.691-1.676 5.469-3.207 8.21-4.793a3.475 3.475 0 0 0 1.384-1.367c3.53-.125 7.07.011 10.582.406.672.277 1.41-.055 2.078.234l1.226.094c.543.258 1.16-.02 1.707.215V.949c.164.934-.593 1.203-1.171 1.563-2.637 1.652-5.352 3.187-8.079 4.687-1.535.844-2.902 1.93-4.43 2.774-2.488.316-5.003-.176-7.48.308-.957.137-1.922.188-2.886.149a4.667 4.667 0 0 0-1.954.195c-1.605.176-3.207.402-4.804.633a2.13 2.13 0 0 1-1.98-.317zm0 0"/><path fill="#2c4345" d="M184.078 14.957a41.445 41.445 0 0 1 7.211 4.012c1.613.988 3.137 2.117 4.703 3.183.168.57-.293.793-.633 1-2.734 1.66-5.433 3.399-8.32 4.805a2.78 2.78 0 0 1-1.543-.52c-3.164-1.89-6.3-3.843-9.621-5.464a1.828 1.828 0 0 1-.852-.75c-.222-.844.364-1.203.946-1.528 2.738-1.515 5.398-3.18 8.11-4.738zm0 0"/><path fill="#389282" d="M163.262 233.73c-1.192 1.778-3.223 2.375-4.926 3.383-6.031 3.563-12.14 6.992-18.211 10.485a2.221 2.221 0 0 0-1.32 1.578l-1.535.097c-.672.278-1.41-.039-2.086.23-2.52.384-5.075.497-7.618.337-.367-1 .52-1.219 1.055-1.531 4.356-2.52 8.68-5.086 13.059-7.559a20.782 20.782 0 0 0 3.879-2.703c5.468-1.336 10.972-2.57 16.308-4.395.457-.156.953-.332 1.395.078zm0 0"/><path fill="#2a373b" d="M9.773 76.34c2.004-.328 3.508-1.68 5.215-2.602 2.442-1.312 4.797-2.785 7.215-4.148.465-.262.996-.832 1.59-.145.207.64.074 1.344-.355 1.86a91.74 91.74 0 0 0-4.43 9.382c-.25.543-.38 1.168-1.008 1.442a7 7 0 0 0-3.332 1.3c-2.297 1.391-4.645 2.696-6.973 4.032-.629.36-1.246.992-2.093.488a69.606 69.606 0 0 1 4.171-11.61zm0 0"/><path fill="#388d7e" d="M116.559 249.598a61.573 61.573 0 0 1-11.844-1.336 3.225 3.225 0 0 1 1.555-1.399c3.015-1.789 6.046-3.55 9.117-5.242 1.054-.586 1.965-1.375 3-1.988 4.476.433 8.953-.403 13.425.015 1.27.95.11 1.399-.46 1.778-1.73 1.152-3.547 2.156-5.352 3.191-2.656 1.52-5.34 2.992-7.922 4.64-.457.294-.93.61-1.52.34zm0 0"/><path fill="#2a373b" d="M126.906 9.613c1.516-2 3.934-2.652 5.93-3.925 2.062-1.317 4.226-2.473 6.348-3.696A2.55 2.55 0 0 0 140.195.95c3.739.246 7.438.918 11.024 2.004.375.078.758.11 1.136.098.383 1.11-.628 1.281-1.195 1.613-2.078 1.215-4.137 2.469-6.242 3.645-1.418.793-2.898 1.492-3.836 2.914-3.316-.13-6.582-.739-9.89-.93a8.827 8.827 0 0 0-2.602-.223c-.594-.023-1.223.055-1.684-.457zm0 0"/><path fill="#2a3c3f" d="M161.285 5.371a77.756 77.756 0 0 1 11.89 4.281c.462 1.04-.413 1.356-1.007 1.723-2.863 1.781-5.813 3.418-8.73 5.11-2.278-.067-4.286-1.157-6.418-1.758-2.024-.57-4.2-.692-6.047-1.829-.293-1.105.582-1.433 1.27-1.832 2.343-1.34 4.632-2.761 7.01-4.043a5.556 5.556 0 0 0 2.032-1.652zM.977 109.434a69.9 69.9 0 0 1 2.3-12.938c1.301.027 2.211-.86 3.246-1.422 2.157-1.172 4.239-2.484 6.418-3.613.586-.305 1.422-.969 1.813.316-.938 4.125-1.629 8.309-2.973 12.336-3.09 1.645-6.125 3.39-9.152 5.157-.516.3-1.047.68-1.652.164zm0 0"/><path fill="#2b4042" d="M163.59 16.242c1.91-1.879 4.539-2.625 6.64-4.187 1.012-.754 2.586-.848 2.95-2.403a59.741 59.741 0 0 1 10.906 5.305c-1.32 1.781-3.469 2.344-5.203 3.527a31.367 31.367 0 0 1-3.004 1.68 1.12 1.12 0 0 0-.711 1.012c-.55.426-1.059.105-1.531-.13a92.803 92.803 0 0 0-8.778-3.741c-.504-.192-1.238-.243-1.27-1.063zm0 0"/><path fill="#34736a" d="M53.496 227.516a75.173 75.173 0 0 1-9.922-7.68c2.856-1.953 5.906-3.559 8.926-5.227.5-.027.988.157 1.344.512 2.43 1.899 4.883 3.77 7.472 5.45.457.292.93.609 1 1.234a1.434 1.434 0 0 1-.804 1.172c-2.696 1.48-5.246 3.203-8.016 4.539zm0 0"/><path fill="#388c7d" d="M243.504 164.625a72.14 72.14 0 0 1-3.945 10.246c-4.25 2.7-8.684 5.086-13.04 7.61a1.918 1.918 0 0 1-1.855.328c-.277-.524.02-.95.258-1.368a87.167 87.167 0 0 0 4.73-9.336c.164-.468.489-.867.922-1.109 3.332-1.23 6.156-3.39 9.258-5.043.727-.39 1.441-.805 2.164-1.203.473-.262.965-.605 1.508-.125zm0 0"/><path fill="#2b4042" d="M.977 109.43c1.93-.375 3.332-1.774 5.035-2.594 1.367-.66 2.66-1.496 3.992-2.246.457-.313 1-.469 1.55-.45.255.672.294 1.403.11 2.094-.418 3.028-.797 6.063-.996 9.114a1.769 1.769 0 0 1-.309.922c-3.023.894-5.5 2.847-8.242 4.285-.633.332-1.222 1.054-2.07.441v-.34c.316-1.226-.102-2.504.238-3.726-.039-2.52.192-5.032.692-7.5zm0 0"/><path fill="#389081" d="m116.559 249.602 6.054-3.508c2.832-1.64 5.672-3.266 8.485-4.946.43-.257 1.035-.453 1.097-1.12.782-.766 1.84-.669 2.778-.75 2.886-.262 5.746-.673 8.601-1.13.621-.097 1.305-.351 1.84.258-.578 1.414-1.992 1.797-3.14 2.465-4.52 2.645-9.083 5.219-13.606 7.852-.434.254-1.035.453-1.102 1.117a57.273 57.273 0 0 1-11.007-.238zm0 0"/><path fill="#34736a" d="M247.914 102.734a51.96 51.96 0 0 1 1.313 9.57c.308 2.473.3 2.462-1.739 3.614-1.808 1.02-3.586 2.102-5.398 3.125a2.456 2.456 0 0 0-1.406 2.363c-.004.668.355 1.578-.672 1.942a1.303 1.303 0 0 1-.52-1.149c.07-4.586-.52-9.129-.851-13.683.129-.555.613-.72 1.047-.957 2.78-1.54 5.535-3.13 8.226-4.825zm0 0"/><path fill="#2d4949" d="M187.055 27.805c2.222-1.778 4.87-2.864 7.215-4.442.585-.39 1.152-.808 1.726-1.21a62.048 62.048 0 0 1 8.621 6.542c.145 1.23-.93 1.5-1.652 1.93-2.195 1.309-4.438 2.535-6.606 3.887a.5.5 0 0 1-.32 0c-3.125-1.867-5.957-4.153-8.914-6.258-.129-.09-.121-.285-.07-.45zm0 0"/><path fill="#2e504f" d="M211.184 34.496a74.654 74.654 0 0 1 7.578 7.902c.039 1.118-.938 1.36-1.614 1.813-2.023 1.352-4.316 2.27-6.226 3.809-.578.14-.938-.239-1.285-.579a563.645 563.645 0 0 1-6.301-6.3 1.635 1.635 0 0 1-.586-1.145c.29-.883 1.121-1.14 1.813-1.555 2.199-1.324 4.523-2.445 6.62-3.945zM6.637 165.281a60.307 60.307 0 0 1-2.977-10.246c.3-.808 1.094-1.043 1.738-1.418 1.844-1.074 3.696-2.129 5.543-3.191.63-.356 1.282-.738 1.887.054 1 3.31 2.188 6.567 2.574 10.036a49.588 49.588 0 0 1-8.132 4.8.722.722 0 0 1-.633-.035zm0 0"/><path fill="#336e66" d="M247.914 102.73c-.047.16-.039.399-.14.465-2.833 1.82-5.579 3.785-8.79 4.914a1.66 1.66 0 0 1-.699-1.254c-.37-2.605-1.023-5.16-1.426-7.761a2.345 2.345 0 0 1 1.383-2.367c2.465-1.399 4.91-2.844 7.367-4.258a59.156 59.156 0 0 1 2.305 10.261zm0 0"/><path fill="#326962" d="M245.61 92.469c-.442 1.336-1.848 1.426-2.798 2.086a42.378 42.378 0 0 1-4.695 2.703 1.433 1.433 0 0 0-.828 1.601.497.497 0 0 1-.39-.078.514.514 0 0 1-.215-.336c-.82-3.347-2.016-6.593-2.696-9.976.028-.45.262-.86.63-1.114 2.624-1.562 5.109-3.367 8-4.445a52.877 52.877 0 0 1 2.991 9.559zm0 0"/><path fill="#336e66" d="M52.602 214.832c-2.692 1.613-5.38 3.23-8.082 4.82a2.902 2.902 0 0 1-.946.184 82.184 82.184 0 0 1-7.219-6.629c.028-.164.06-.363.188-.441 2.793-1.758 5.484-3.711 8.656-4.786 2.016 1.043 3.383 2.864 5.098 4.274.883.726 2.172 1.168 2.305 2.578zm0 0"/><path fill="#34786d" d="M53.496 227.516c1.262-1.438 3.113-1.985 4.617-3.055 1.325-.938 3.07-1.25 4.032-2.723 2.558.715 4.66 2.32 6.933 3.578.848.465 2.059.567 2.371 1.786-2.246 1.933-4.96 3.125-7.488 4.613-.707.418-1.281 1.246-2.29 1.05a57.72 57.72 0 0 1-8.175-5.25zm0 0"/><path fill="#2a393d" d="M14.535 91.586c-.586-.602-1.027.02-1.426.242-2.812 1.563-5.582 3.188-8.398 4.742-.41.227-1.04 1.239-1.438-.074a45.302 45.302 0 0 1 2.32-8.55c3.02-1.184 5.65-3.087 8.466-4.641.863-.477 1.746-.922 2.617-1.38.402-.21.808-.41 1.16.083.242.312.27.738.074 1.082-.89 2.539-1.726 5.09-2.574 7.644-.125.383-.176.907-.8.852zM161.285 5.375c.426.836-.293 1.035-.773 1.316a921.946 921.946 0 0 1-7.88 4.598c-.612.352-1.288.602-1.6 1.316a1.405 1.405 0 0 1-1.384.274c-2.359-.469-4.707-.992-7.097-1.305a1.527 1.527 0 0 1-1.102-.644c-.535-.813 0-1.118.633-1.473 2.98-1.684 5.95-3.39 8.902-5.121.536-.313 1.227-.527 1.368-1.281 2.636.222 5.043 1.316 7.535 2.054.472.059.937.145 1.398.266zm0 0"/><path fill="#31655f" d="M242.621 82.914a71.74 71.74 0 0 1-6.703 4.055c-.606.37-1.297.613-1.606 1.332-.507.054-.664-.34-.789-.684-.937-2.625-1.976-5.207-2.953-7.812a1.711 1.711 0 0 1-.086-.97c.825-1.253 2.23-1.683 3.442-2.374a27.747 27.747 0 0 1 5.015-2.707 54 54 0 0 1 3.68 9.16zm0 0"/><path fill="#326962" d="M45.254 208.258c-3.149 1.324-5.926 3.308-8.895 4.945a87.136 87.136 0 0 1-6.64-7.258c1.008-1.324 2.597-1.773 3.945-2.578a32.862 32.862 0 0 1 4.594-2.57c1.23.484 1.836 1.66 2.75 2.496 1.215 1.102 2.351 2.285 3.484 3.473.387.406 1.004.742.762 1.492zm0 0"/><path fill="#368275" d="M249.137 138.855a74.317 74.317 0 0 1-1.66 10.899c-3.059 1.371-5.887 3.164-8.786 4.824-.757.434-1.55 1.188-2.539.399-.363-.891.075-1.711.254-2.54.465-2.175.895-4.363 1.563-6.492a2.78 2.78 0 0 1 1.289-1.234c2.597-1.332 5.008-3.008 7.625-4.293.851-.418 1.351-1.27 2.254-1.563zm0 0"/><path fill="#31655f" d="M38.3 200.988a92.73 92.73 0 0 1-8.585 4.961 64.614 64.614 0 0 1-5.95-7.601c.231-.7.868-.977 1.43-1.29 1.813-1.027 3.625-2.05 5.422-3.117a2.045 2.045 0 0 1 1.688-.449c2.02 1.473 3.218 3.676 4.836 5.504.492.559 1.398.973 1.16 1.992zm0 0"/><path fill="#34786d" d="M240.262 123.332c-.614-2.922.672-4.652 3.355-5.703 1.25-.488 2.293-1.508 3.543-2.008 1.594-.637 2.352-1.601 2.07-3.32.372 2.078.57 4.183.598 6.293.09 1.789.043 3.582.055 5.37-.383.54-.906.966-1.512 1.231-2.289 1.207-4.465 2.621-6.75 3.84a2.131 2.131 0 0 0-1.012 1.758c-.097.473-.195 1.27-.96.437a16.769 16.769 0 0 1 .613-7.898zm0 0"/><path fill="#37887a" d="M243.504 164.625c-2.668.89-4.86 2.668-7.328 3.922-1.832.93-3.38 2.469-5.563 2.664a1.147 1.147 0 0 1-.05-1.238 117.186 117.186 0 0 0 2.796-7.13c.106-.25.274-.472.489-.644 3.3-1.515 6.347-3.476 9.504-5.273.761-.434 1.503-1.227 2.539-.563a49.074 49.074 0 0 1-2.387 8.262zm0 0"/><path fill="#2c4345" d="M.047 120.996c1.902-.422 3.312-1.797 5.012-2.621 1.171-.566 2.254-1.316 3.406-1.934.437-.234.937-.703 1.445-.066.574.828.75 1.867.473 2.832-.383 3.02.148 6.02.035 9.023a8.284 8.284 0 0 1-.188 2.282c-.613.879-.859.277-.976-.293a16.003 16.003 0 0 1-.106-3.293c0-1.063-.367-1.285-1.285-.73-2.023 1.226-4.039 2.476-6.176 3.495-.605.286-1.367.774-1.636-.418zm0 0"/><path fill="#368275" d="M84.602 243.25a49.993 49.993 0 0 1-8.582-3.273c-.012-.72.511-1.063 1.02-1.368 2.843-1.703 5.808-3.21 8.554-5.078.238-.133.508-.199.781-.195a44.931 44.931 0 0 1 8.52 2.734c.156.918-.547 1.254-1.145 1.61-2.078 1.238-4.152 2.488-6.27 3.66a24.352 24.352 0 0 0-2.878 1.91zm0 0"/><path fill="#2d4c4b" d="M12.527 150.418c-1.828.098-3.035 1.5-4.582 2.203-1.488.676-2.863 1.602-4.285 2.414a54.816 54.816 0 0 1-1.953-9.238c2.54-1.27 4.957-2.774 7.445-4.14.586-.325 1.227-1.102 2.004-.235.453 2.371 1.016 4.723 1.45 7.098.113.62.41 1.285-.079 1.898zm0 0"/><path fill="#2c4647" d="M.05 129.27c.415.699.903.367 1.38.097 2.234-1.277 4.48-2.539 6.695-3.847 1.113-.66 1.465-.465 1.484.878.024 1.504-.394 3.055.286 4.524.746.933.496 1.973.32 3.004-1.14 1.43-2.957 1.828-4.375 2.84a29.324 29.324 0 0 1-3.293 1.894c-.586.313-1.293.852-1.828-.133l-.098-1.234c-.324-.777.055-1.621-.246-2.398-.3-1.86-.41-3.747-.324-5.625zm0 0"/><path fill="#2d4c4b" d="M211.18 34.496c-.684 1.742-2.582 1.836-3.848 2.793-1.375 1.047-3.105 1.563-4.414 2.746-.734.184-1.059-.437-1.512-.781-1.476-1.129-2.82-2.418-4.27-3.586-.39-.316-1.003-.543-.827-1.258 1.511-1.77 3.765-2.387 5.62-3.625.95-.633 2.09-1 2.684-2.086a22.72 22.72 0 0 1 4.461 4.04 6.626 6.626 0 0 0 2.106 1.757zm0 0"/><path fill="#388e7e" d="M224.727 182.8c3.77-1.64 7.156-3.976 10.757-5.921 1.328-.715 2.461-1.856 4.075-2.004a54.517 54.517 0 0 1-3.457 7.309c-2.497.468-4.407 2.132-6.563 3.285-2.805 1.496-5.535 3.133-8.3 4.695a2.787 2.787 0 0 1-1.532.55c-.27-.468-.02-.859.215-1.222 1.355-2.07 2.734-4.12 4.027-6.234.164-.274.367-.567.778-.457zm0 0"/><path fill="#2f5552" d="M210.848 47.98c.617-1.617 2.359-1.718 3.535-2.582 1.422-1.046 3.207-1.57 4.379-3a50.021 50.021 0 0 1 5.332 6.504c.39.653-.028 1.055-.5 1.34a54.09 54.09 0 0 1-7.387 4.137 1.166 1.166 0 0 1-1.012-.438c-1.363-1.632-2.742-3.246-4.07-4.906-.281-.27-.39-.68-.277-1.055zM6.637 165.281c2.304-1.32 4.601-2.652 6.918-3.949a13.693 13.693 0 0 1 1.644-.672c.106.031.25.05.293.137a23.25 23.25 0 0 1 2.813 7.777c-2.387 1.613-4.914 2.985-7.422 4.395-.426.281-.98.258-1.383-.055a47.498 47.498 0 0 1-2.863-7.633zm0 0"/><path fill="#367f73" d="M86.305 233.68c-3.356 2.218-7.13 3.761-10.285 6.297a42.841 42.841 0 0 1-7.676-3.606c1.422-1.574 3.43-2.266 5.164-3.367 1.512-.961 3.078-1.844 4.59-2.813a37.312 37.312 0 0 1 8.047 3.051c.144.067.16.27.16.438zm0 0"/><path fill="#378a7b" d="M117.984 240.031c-.144 1.18-1.296 1.27-2.02 1.707-3.71 2.246-7.491 4.364-11.25 6.528a31.002 31.002 0 0 1-6.898-1.332c-.203-.614.227-.961.625-1.207 3.82-2.364 7.684-4.66 11.637-6.809 2.16.043 4.313.215 6.453.508a1.92 1.92 0 0 1 1.453.605zm0 0"/><path fill="#367f73" d="M249.133 138.86c-.84 1.976-2.969 2.19-4.492 3.214-2.02 1.36-4.2 2.488-6.309 3.711a.776.776 0 0 1-.316-.715 55.895 55.895 0 0 1 1.3-7.707c2.246-1.55 4.657-2.832 7.04-4.152a8.822 8.822 0 0 0 3.44-2.95 50.326 50.326 0 0 1-.663 8.598zm0 0"/><path fill="#357b70" d="M249.797 130.266a3.261 3.261 0 0 1-2.098 2.68c-2.324 1.218-4.554 2.617-6.82 3.94-.379.227-.82.337-1.262.305-.945-1.941-.48-3.793.38-5.613-.079-2.105 1.347-2.992 2.964-3.824 2.344-1.203 4.617-2.52 6.922-3.785a43.44 43.44 0 0 1-.086 6.297zM78.004 230.34c-.848 1.418-2.414 1.824-3.711 2.601-1.965 1.18-3.969 2.293-5.957 3.434a38.156 38.156 0 0 1-6.668-3.61c3.133-2.05 6.379-3.913 9.687-5.663a1.047 1.047 0 0 1 1.086.097c1.465.735 2.97 1.395 4.47 2.063.48.207 1.066.383 1.093 1.078zm0 0"/><path fill="#31615c" d="M32.344 193.71c-1.88.352-3.223 1.759-4.89 2.52-1.282.586-2.462 1.403-3.688 2.114a49.58 49.58 0 0 1-4.305-6.278.98.98 0 0 1 .422-.683 91.507 91.507 0 0 1 7.851-4.469c.434.094.801.383.989.781 1.05 1.586 2.195 3.106 3.246 4.688.258.387.64.777.375 1.328zm0 0"/><path fill="#2f5a56" d="M15.555 185.45a45.19 45.19 0 0 1-3.684-7.27c2.508-.618 4.492-2.27 6.73-3.418.715-.364 1.36-1.004 2.282-.64 1.207 1.862 2.156 3.87 3.222 5.812.25.367.293.836.122 1.246-2.32 1.62-4.864 2.867-7.297 4.297a1.126 1.126 0 0 1-1.375-.028zm0 0"/><path fill="#31615c" d="M238.941 73.754c-2.546 2.016-5.504 3.344-8.3 4.95-.168.015-.38.01-.446-.126-1.097-2.223-2.562-4.281-2.98-6.8 1.758-1.59 3.98-2.442 5.957-3.684a4.577 4.577 0 0 1 2.531-1.074 40.286 40.286 0 0 1 3.238 6.734zm0 0"/><path fill="#2f5a56" d="M228.207 54.516a43.438 43.438 0 0 1 3.809 5.984c.18.828-.528 1.008-1.008 1.293-2.32 1.367-4.633 2.742-6.946 4.129-.054 0-.132.016-.16-.012a16.207 16.207 0 0 1-4.277-6.758c.352-.562.871-1 1.48-1.254 1.766-1 3.536-1.996 5.27-3.046.563-.34 1.129-.723 1.832-.336zm0 0"/><path fill="#368578" d="M245.887 156.363c-2.496.453-4.262 2.328-6.477 3.328-1.82.825-3.3 2.34-5.383 2.621a.82.82 0 0 1-.195-.898c.563-1.918 1.18-3.816 1.797-5.715.101-.316.351-.562.668-.66 2.496-.437 4.242-2.344 6.469-3.309 1.562-.683 2.773-2.19 4.707-1.98a38.366 38.366 0 0 1-1.586 6.613zm0 0"/><path fill="#305e59" d="M15.555 185.45c2.383-.575 4.218-2.223 6.355-3.282a7.943 7.943 0 0 1 2.211-1.016c1.457 1.024 3.68 4.66 3.64 5.946l-8.3 4.972a49 49 0 0 1-3.906-6.62zM224.055 65.848c1.316-1.637 3.336-2.23 5-3.352.984-.668 2.175-1.027 2.96-1.996a41.693 41.693 0 0 1 3.684 6.523c-2.742 1.66-5.46 3.36-8.363 4.743a.645.645 0 0 1-.719-.266 49.233 49.233 0 0 1-2.699-5.047.571.571 0 0 1 .137-.605zm0 0"/><path fill="#37877a" d="M109.746 239.313c-3.043 2.23-6.453 3.847-9.648 5.82a5.408 5.408 0 0 0-2.278 1.797 30.857 30.857 0 0 1-6.613-1.64c-.445-.962.363-1.24.922-1.59 1.984-1.247 4.035-2.387 6.09-3.516 1.344-.739 2.539-1.684 3.84-2.48 2.472-.079 4.824.714 7.242 1.015.14.02.265.09.347.203a.538.538 0 0 1 .098.39zm0 0"/><path fill="#368577" d="M101.793 237.969c-1.164 1.953-3.395 2.375-5.106 3.543-1.476 1.004-3.085 1.816-4.652 2.683-.46.254-.82.528-.832 1.098a33.977 33.977 0 0 1-6.601-2.04c.46-1.612 2.09-1.784 3.214-2.538 2.297-1.547 4.907-2.598 7.059-4.38.344-.288.813-.366 1.23-.206 1.59.367 3.184.73 4.778 1.09.402.09.89.156.91.75zm0 0"/><path fill="#2d4949" d="M.71 138.523c.99.586 1.614-.261 2.345-.62 2.336-1.137 4.328-2.91 6.86-3.684a11.288 11.288 0 0 1 .956 6.941c-2.215 1.27-4.406 2.582-6.656 3.785-.766.41-1.45 1.23-2.504.852a43.154 43.154 0 0 1-1-7.274zm0 0"/><path fill="#2f5754" d="M228.207 54.516c-2.996 1.242-5.629 3.148-8.46 4.687a7.518 7.518 0 0 1-3.614-4.933c2.281-1.368 4.562-2.747 6.851-4.102.524-.309 1.114-.516 1.114-1.27a40.993 40.993 0 0 1 4.109 5.618zM20.77 174.21a54.14 54.14 0 0 0-6.81 3.712c-.694.39-1.32.766-2.089.254A28.213 28.213 0 0 1 9.5 172.91c2.246-.45 3.926-1.992 5.871-3.027a11.29 11.29 0 0 1 2.781-1.301 9.482 9.482 0 0 1 2.618 5.629zm0 0"/><path fill="#2c4345" d="M.29 116.93c-.06 1.246.312 2.515-.24 3.73a10.34 10.34 0 0 1 .24-3.73zm0 0"/><path fill="#2d4949" d="M.379 134.887c.531.754.187 1.597.242 2.398a4.603 4.603 0 0 1-.242-2.398zm0 0"/><path fill="#399584" d="M135.184 249.504c.648-.496 1.386-.195 2.086-.227-.653.301-1.383.383-2.086.227zm0 0"/><path fill="#192123" d="m20.77 174.215-2.618-5.621-2.953-7.934-2.672-10.242c-.48-3.098-1.539-6.09-1.66-9.254-.316-2.316-.637-4.629-.953-6.945l-.023-3.301c.082-4.848-.313-9.695.015-14.54.563-1.722.367-3.538.649-5.296.37-2.305.668-4.625.996-6.934.972-4.191 1.719-8.437 2.98-12.558l3.309-9.582c1.262-2.235 2.105-4.664 3.18-6.985.875-1.878 1.843-3.718 2.77-5.574 2.163-3.46 4.273-6.953 6.515-10.36a39.06 39.06 0 0 1 4.386-5.847c2.88-3.39 5.938-6.605 8.95-9.863 3.59-3.89 7.773-7.063 11.691-10.547 1-.766 2.055-1.453 3.156-2.05a110.914 110.914 0 0 1 17.825-10.259c.14-.062.238-.218.355-.328a111.119 111.119 0 0 1 25.992-8.285 22.602 22.602 0 0 0 4.746-.969c2.344.04 4.59-.82 6.946-.668.496-.375 1.156.079 1.652-.324l2.973-.008a98.221 98.221 0 0 1 12.226 0 83.37 83.37 0 0 1 10.246.989l9.582 1.672 12.555 3.64 11.57 4.934c4.125 1.922 7.918 4.437 11.895 6.629l9.258 6.601 6.605 5.63a135.831 135.831 0 0 0 7.93 7.944 65.973 65.973 0 0 0 5.281 6.29 28.47 28.47 0 0 0 3.613 4.933 56.11 56.11 0 0 0 4.309 6.64 37.073 37.073 0 0 0 3.285 5.919l3.3 6.941 3.673 9.594 2.98 10.562c.567 3.086 1.13 6.168 1.692 9.25a111.67 111.67 0 0 1 1.05 14.801c0 .14.149.281.227.422.05 2.754-.488 5.484-.266 8.242-.039 1.88-.539 3.727-.379 5.617-.425 2.864-.855 5.73-1.285 8.594l-2.035 9.254c-.758 2.422-1.512 4.848-2.27 7.274-1.136 2.964-2.277 5.93-3.417 8.898l-5.887 11.586-5.024 7.91a150.273 150.273 0 0 1-15.41 17.883c-3.738 3.32-7.504 6.601-11.55 9.547a114.29 114.29 0 0 1-28.735 15.246c-.254.097-.496.23-.746.344a147.209 147.209 0 0 1-17.844 4.675c-4.394.672-8.789 1.282-13.222 1.625-4.735-.105-9.473.496-14.211 0l-8.243-.722-7.949-1.344-6.918-1.633-8.57-2.656-8.3-3.34-6.641-3.242c-2.38-1.356-4.762-2.707-7.13-4.07-.706-.407-1.39-.86-2.085-1.29l-9.543-6.906-7.348-6.574-6.953-7.27-5.957-7.273-4.582-6.617a64.709 64.709 0 0 0-3.64-5.945c-.766-2.473-2.555-4.461-3.344-6.93zm0 0"/><path fill="#293237" d="M131.203 9.945h-12.226c1.453-.691 2.996-.195 4.492-.308 1.14-.082 2.293-.02 3.441-.02 1.422.188 2.906-.383 4.293.328zM116.004 9.95c-.469.538-1.094.253-1.652.32.464-.54 1.093-.243 1.652-.32zm0 0"/><path fill="#1fc8a7" d="M95.844 154.8a6.348 6.348 0 0 1-6.903.25c-1.597-5.257-2.793-10.62-4.238-15.917-3.676-13.461-7.21-26.957-10.824-40.434-.25-.722-.32-1.5-.195-2.254.039-.437.363-.66.668-.898 3.43-1.668 7.246-1.93 10.84-2.977.734-.215 1.48-.375 2.234-.488a3.959 3.959 0 0 1 2.058 4.059c1.153-2.172 1.368-4.98 4.364-5.606a22.358 22.358 0 0 0 2.734-.523c.27-.02.54.05.766.203.422.437.691 1.004.761 1.613a8308.477 8308.477 0 0 0 9.473 39.852c.125.422.2.855.219 1.297-.156 1.773-1.305 3.109-2.11 4.582-2.84 5.191-5.64 10.402-8.57 15.543a7.97 7.97 0 0 1-1.277 1.699zM176.438 153.422a2.763 2.763 0 0 1-1.258 1.3c-2.621 1.223-5.485 1.587-8.258 2.243-11.461 2.703-22.91 5.45-34.375 8.133-5.625 1.316-11.238 2.691-16.871 3.968a3.046 3.046 0 0 1-1.781.094c-.813-.59-.23-1.18.046-1.722 2.153-4.208 4.528-8.293 6.805-12.434 3.996-7.27 7.953-14.563 12.012-21.797.758-1.348 1.137-3.008 2.687-3.816a13.564 13.564 0 0 1 4.325 1.937c7.18 3.918 14.375 7.813 21.546 11.742 4.766 2.606 9.618 5.055 14.258 7.895a9.15 9.15 0 0 1 .863 2.457zm0 0"/><path fill="#198889" d="M113.715 168.945c5.027-.879 9.937-2.246 14.898-3.406 15.149-3.539 30.282-7.156 45.422-10.73.38-.059.762-.09 1.145-.086-2.782 2.246-5.97 3.879-8.993 5.742a21636.264 21636.264 0 0 1-52.093 31.996c-2.059 1.262-4.102 2.55-6.18 3.789a6.319 6.319 0 0 1-8.453-1.27c-.367-.527 0-.94.227-1.359 4.324-7.898 8.64-15.8 13.03-23.66.235-.426.434-.906.997-1.016zM97.191 90.266l-.683.007c-.344.22-.61.18-.758-.234-.902-.203 1.27-.234.016-.644-1.829-.598-3.86-1.032-4.688-3.165-.156-.398-.41-.78-.16-1.238 4.23-2.547 8.48-5.062 12.695-7.64a23627.458 23627.458 0 0 0 38.063-23.38c3.293-2.019 6.383-1.562 9.027 1.235-1.226 3.14-3.105 5.941-4.695 8.887-2.774 5.129-5.617 10.219-8.422 15.332a4.556 4.556 0 0 1-1.516 1.918 176.344 176.344 0 0 1-15.343 3.613c-1.524.406-3.043.824-4.59 1.164-2.653.7-5.305 1.399-8 1.922-2.953.648-5.903 1.34-8.836 2.066a3.426 3.426 0 0 1-2.11.157zm0 0"/><g fill="#68fde1"><path d="M113.715 168.945c-4.75 8.68-9.504 17.36-14.258 26.035a5.586 5.586 0 0 1-1.746-5.644 3501.983 3501.983 0 0 1 3.773-15.633 8 8 0 0 1 1.18-2.512c16.395-24.62 32.781-49.242 49.168-73.87A4.772 4.772 0 0 1 154 95.136c.348.726-.152 1.27-.438 1.832-1.515 2.988-3.218 5.879-4.812 8.824a15.756 15.756 0 0 0-1.23 2.687 52.294 52.294 0 0 0-3.18 5.372 204.755 204.755 0 0 0-4.18 7.664c-1.27 2.402-2.7 4.714-3.918 7.14-.14.36-.394.656-.73.848-1.535 1.758-2.407 3.914-3.52 5.914-6.113 10.988-12.144 22.027-18.195 33.05-.05.153-.078.313-.082.477zM136.164 81.008c3.984-7.215 7.95-14.442 11.969-21.633.793-1.422 1.336-3.008 2.558-4.168a6.908 6.908 0 0 1 1.262 6.504c-1.234 4.816-2.383 9.652-3.578 14.48a8.472 8.472 0 0 1-1.258 2.657c-16.37 24.59-32.738 49.183-49.097 73.78a4.838 4.838 0 0 1-2.176 2.173c3.418-6.266 6.84-12.531 10.265-18.801.559-.879 1.02-1.82 1.368-2.805.855-2.82 2.585-5.207 3.933-7.777 1.2-2.29 2.504-4.527 3.7-6.82 2.12-3.438 3.956-7.032 5.913-10.563 1.305-2.45 2.614-4.898 3.977-7.316 3.043-5.328 5.941-10.735 8.91-16.102.602-1.289 1.36-2.5 2.254-3.61zM176.438 153.422c-.954-.496-.684-1.504-.965-2.285-1.457-2.496-1.645-5.39-2.512-8.075a33.124 33.124 0 0 0-1.438-4.5c-.773-3.738-2.035-7.355-2.77-11.101a71.419 71.419 0 0 0-2.41-8.656 7510.658 7510.658 0 0 1-5.777-21.844c-.187-.711-.773-1.563.344-2.098a5.86 5.86 0 0 1 2.895 3.016 29592.273 29592.273 0 0 1 17.46 35.297 5.471 5.471 0 0 1 .532 4.273c-1.738 5.34-3.29 10.742-5.36 15.973zM73.68 96.441l5.824 21.618c3.09 11.554 6.16 23.117 9.21 34.683.192.727.86 1.477.227 2.309a5.848 5.848 0 0 1-2.691-2.781 36751.915 36751.915 0 0 0-17.441-35.157 7.2 7.2 0 0 1-.375-5.73c1.441-4.352 2.847-8.719 4.296-13.067a3.693 3.693 0 0 1 .95-1.875zm0 0"/></g><path fill="#1fc8a7" d="M160.91 94.863c-.523.489-.195 1-.055 1.52 1.915 7.195 3.825 14.39 5.73 21.586.067.258.216.52-.007.773a2.116 2.116 0 0 1-1.691-.449c-5.555-2.961-11.063-6.016-16.617-8.977-.387-.207-.782-.421-.88-.91-.398-1.133.516-1.828.938-2.656 1.824-3.574 4.031-6.941 5.672-10.61a6.257 6.257 0 0 1 6.91-.277zm0 0"/><path fill="#fdfefe" d="M90.91 84.992c.578 2.637 2.813 3.297 4.922 4.067.988.359.805.601.023.93-.554.683-1.418.624-2.14.906-1.57.382-2.246 1.617-2.813 2.957-.359.847-.703 1.703-1.101 2.671-.848-1.503-1.09-3.125-2.117-4.355-1.54-.836-3.344-1.172-4.649-2.465-.195-.226-.133-.36.153-.426 3.546-.832 5.761-2.996 6.445-7.047zm0 0"/><path fill="#19898a" d="M83.04 89.703c1.589.738 3.429 1.012 4.647 2.465-1.757 1.074-3.828 1.082-5.738 1.629-2.492.719-5.062 1.172-7.597 1.746 2.304-1.977 5.085-3.223 7.57-4.914.402-.274.902-.426 1.117-.926zm0 0"/><path fill="#a4e8db" d="M115.39 118.648c-1.331 3.254-3.288 6.176-4.902 9.286-.93 1.793-2.004 3.507-3.015 5.257l-9.996-41.98c-.079-.32-.196-.633-.29-.945 3.567-1.114 7.227-1.852 10.872-2.637.535.484.875 1.144.957 1.86a4114.106 4114.106 0 0 1 6.48 27.238 2.54 2.54 0 0 1-.105 1.921zm0 0"/><path fill="#2aa197" d="M93.71 90.895a5.408 5.408 0 0 1 2.15-.91l.648.285a4.993 4.993 0 0 1-2.797.625zm0 0"/><path fill="#a4e8db" d="M171.867 138.547c1.188 1.648 1.238 3.668 1.774 5.523.668 2.34 1.226 4.711 1.832 7.067-5.121-2.758-10.243-5.516-15.36-8.274-8.203-4.445-16.402-8.898-24.601-13.36 1.074-2.937 2.968-5.444 4.312-8.241.719-.332 1.281.097 1.844.414 9.582 5.304 19.227 10.488 28.852 15.707a3.023 3.023 0 0 1 1.347 1.164zm0 0"/><path fill="#f9fbfb" d="M132.094 169.07a4.145 4.145 0 0 0 2.969-3.453 4.312 4.312 0 0 0 3.597 3.418 4.106 4.106 0 0 0-3.535 3.434c-.535-1.95-1.441-2.989-3.031-3.399zm0 0"/><path fill="#1fc8a7" d="M115.39 118.652c-1.113-4.8-2.21-9.605-3.347-14.402-1.313-5.543-2.652-11.078-3.984-16.617l7.964-1.945c.415.44.676 1.003.75 1.605 1.465 6.18 2.918 12.36 4.418 18.527.262.723.317 1.504.149 2.258a84.64 84.64 0 0 1-5.95 10.574zM136.164 81.008a63.756 63.756 0 0 1-3.809 7.254c-2.011 3.77-4.082 7.508-6.144 11.25-.285.46-.602.902-.941 1.328-.75-.457-.81-1.27-.977-1.996-.82-3.567-1.688-7.117-2.516-10.684a20.193 20.193 0 0 0-1.132-3.582zm0 0"/><path fill="#a4e8db" d="M120.645 84.582c.82.027.87.637 1.015 1.25 1.192 5.004 2.406 10.004 3.613 15.008l-3.933 7.238c-1.914-7.433-3.715-14.887-5.313-22.394zm0 0"/><path fill="#1fc8a7" d="M171.867 138.547c-10.09-5.48-20.176-10.957-30.265-16.438-.579-.312-1.188-.566-1.782-.847 1.43-2.528 2.625-5.184 4.285-7.578 1.032-.188 1.786.472 2.575.914 6.968 3.886 14.039 7.582 21.011 11.46a3.276 3.276 0 0 1 1.496 1.243c.825 3.27 1.653 6.531 2.465 9.8.098.481.168.962.215 1.446zm0 0"/><path fill="#a4e8db" d="m169.188 127.3-25.083-13.616c1.028-1.801 1.563-3.91 3.286-5.274l19.187 10.34c1.246 1.633 1.16 3.723 1.883 5.54.316.983.559 1.991.726 3.01zm0 0"/><path fill="#fafdfc" d="M111.3 95.762a4.031 4.031 0 0 0 3.438-3.39 4.077 4.077 0 0 0 3.41 3.32c-1.757.632-2.988 1.394-3.34 3.14a4.403 4.403 0 0 0-3.507-3.07zm0 0"/></svg>