<svg xmlns="http://www.w3.org/2000/svg" width="250" height="250"><path d="M48.008 176.344c-6.805-.14-10.926 1.25-13.934 3.008v-43.704h.324c6.993 15.832 19.168 41.668 43.102 41.668 12.035 0 20.418-6.668 20.418-19.492 0-11.715-13.938-17.27-34.215-24.398-25.047-8.38-31.668-18.844-31.668-33.89 0-24.536 21.25-34.071 37.688-34.071 13.285 0 19.492 2.36 28.843 2.36a33.51 33.51 0 0 0 7.13-.79l2.034 37.41h-.324c-12.36-23.613-24.258-36.574-39.441-36.574-11.39 0-21.25 6.664-21.25 19.488 0 11.575 10.46 15.836 31.527 23.614 20.926 7.27 34.535 15.832 34.535 34.535 0 26.16-21.25 34.215-37.082 34.215-9.492-.047-19.445-3.196-27.687-3.38zM223.52 177.64v.325h-33.102l-21.715-36.899c-7.777-14.586-9.027-17.918-14.258-18.382v35.972c0 8.38 4.446 15.696 11.711 19.028v.324h-48.472v-.324c7.27-3.332 11.898-10.602 11.898-19.028V86.434c0-8.38-4.582-15.692-11.898-19.028v-.324h56.39c16.156 0 34.211 9.676 34.211 29.77 0 12.175-8.379 21.527-24.258 25.046l19.953 31.668c8.426 13.286 14.122 21.204 19.54 24.075zM154.445 69.259v51.484c2.684.461 5.696.649 8.703.649 10.137 0 19.63-6.16 19.63-22.825 0-16.808-11.575-29.308-25.508-29.308zm0 0"/></svg>