<svg xmlns="http://www.w3.org/2000/svg" width="250" height="250"><radialGradient id="a" cx="0" cy="0" r="1" gradientTransform="matrix(81.3205 128.42876 -134.33625 85.0611 58.465 83.479)" gradientUnits="userSpaceOnUse"><stop offset="0" stop-color="#0c50ff"/><stop offset=".557" stop-color="#5b9dff"/><stop offset="1" stop-color="#ff74f1"/></radialGradient><path fill="url(#a)" d="M125 0c69.035 0 125 55.965 125 125s-55.965 125-125 125S0 194.035 0 125 55.965 0 125 0zm0 0"/><path fill="#fff" d="M164.586 124.238c6.562-1.707 12.402-6.613 12.402-16.484 0-16.43-13.949-20.254-31.828-20.254H73.957v73.992h29.969V136.38h35.55c5.477 0 8.68 2.172 8.68 7.543v17.57h29.969v-18.5c0-10.074-5.684-16.43-13.54-18.754zm-24.594-7.8h-36.066v-7.235h36.066c3.93 0 6.305.516 6.305 3.617 0 3.098-2.375 3.618-6.305 3.618zm0 0"/></svg>