<svg xmlns="http://www.w3.org/2000/svg" width="250" height="250"><g fill="#cc1e46"><path d="M112.3.645c24.555-2.52 49.825 2.406 71.563 14.105 13.098 6.941 24.875 16.313 34.711 27.398 16.68 18.727 27.453 42.625 30.473 67.512 2.894 23.098-.844 46.985-10.719 68.067-7.187 15.543-17.668 29.53-30.492 40.875-18.727 16.671-42.625 27.43-67.508 30.457-22.906 2.855-46.578-.809-67.527-10.496a124.165 124.165 0 0 1-41.028-30.329c-19.132-21.25-30.515-49.3-31.648-77.859-1.012-22.398 4.195-45.035 14.887-64.75 7.695-14.355 18.316-27.102 30.91-37.422C64.719 12.781 88.113 3.09 112.3.645M92.316 72.23c-5.476-7.273-13.925-12.515-23.152-12.882-9.625-.57-19.11 4.007-25.398 11.164-4.77 5.5-7.04 12.785-7.125 19.992-.04 13.777-.043 27.562-.016 41.348-.16 1.824 1.488 3.105 3.215 2.914 39 .105 78.015-.125 117.008.125-.125 8.527-.016 17.054.605 25.558-11.125 8.098-24.156 13.809-37.781 15.934-1.774.406-4.762-.07-5.156 2.36-.168 4.577-.012 9.171-.067 13.75-.261 1.612 1 3.26 2.676 3.237 16.473-1.273 32.477-7.375 45.66-17.308 4.875 6.336 11.832 11.328 19.875 12.531 11.363 2.024 23.313-3.46 30.106-12.598 4.304-5.812 5.82-13.175 5.789-20.292-.04-13.09.117-26.18-.075-39.262.145-2.078-1.808-3.137-3.656-2.973-38.875-.078-77.75.043-116.613-.062-.227-7.7.34-15.43-.5-23.106-.086-1.07-.336-2.527.789-3.16 11.91-8.145 25.613-14.043 40.031-15.637 1.563-.039 2.285-1.8 2.176-3.16 0-4.375.11-8.762-.055-13.133.063-1.828-1.738-2.875-3.394-2.547-16.215 1.325-31.934 7.45-44.942 17.207zm0 0"/><path d="M52.348 92.875c.183-7.36 6.918-13.832 14.316-13.535 7.578-.145 14.402 6.527 14.547 14.078.164 7.875.062 15.75.047 23.625-9.633.215-19.258.066-28.895.082-.047-8.09-.031-16.172-.015-24.25M175.07 134.219c9.625-.016 19.25-.051 28.875.023.075 7.7.032 15.399.032 23.098.058 5.867-3.614 11.703-9.18 13.765-6.035 2.333-13.414.024-17.11-5.27a14.418 14.418 0 0 1-2.664-8.573c.032-7.676-.023-15.36.047-23.043"/></g></svg>