<svg xmlns="http://www.w3.org/2000/svg" width="250" height="250"><linearGradient id="a" x1="320.33" x2="320.33" y1="-50.182" y2="432.086" gradientTransform="matrix(.95785 0 0 -.96154 124.521 125)" gradientUnits="userSpaceOnUse"><stop offset="0" stop-color="#9e00f6"/><stop offset="1" stop-color="#fa7564"/></linearGradient><path fill="#fff" d="M125.023 246.95c67.09 0 121.48-54.598 121.48-121.95S192.114 3.05 125.024 3.05C57.93 3.05 3.54 57.649 3.54 125s54.39 121.95 121.484 121.95zm0 0"/><path fill="#4d2176" d="M155.504 195.3V139H94.539v56.3H66.695V54.7H94.54V111h60.965V54.7h27.844v140.6zm0 0"/><path fill="url(#a)" d="M249.043 125c0-69.035-55.75-125-124.523-125C55.75 0 0 55.965 0 125s55.75 125 124.52 125c68.773 0 124.523-55.965 124.523-125zm0 0"/><path fill="#fff" d="M115.902 125.11a7.45 7.45 0 0 1-1.21-.102c1.75-3.715 3.43-7.324 5.042-10.836a289.147 289.147 0 0 0 4.239-9.828c1.21-2.969 2.187-5.606 2.925-7.903.743-2.293 1.114-4.082 1.114-5.367 0-1.281-.203-2.328-.606-3.14-.406-.875-.875-1.52-1.414-1.922a3.898 3.898 0 0 0-1.816-.914c-.672-.203-1.242-.305-1.715-.305-1.75 0-3.734 1.016-5.953 3.039-2.153 1.961-4.473 4.594-6.961 7.902-2.426 3.309-4.945 7.125-7.57 11.446a465.741 465.741 0 0 0-7.668 13.27l-29.766 54.698a20.566 20.566 0 0 0-1.719 4.559 19.722 19.722 0 0 0-.605 4.762c0 1.078.136 2.226.406 3.441a10.28 10.28 0 0 0 1.613 3.344c.739 1.012 1.782 1.855 3.13 2.531 1.343.676 3.093 1.016 5.245 1.016 2.625 0 5.047-.946 7.266-2.84 2.219-1.89 4.305-4.352 6.258-7.395 1.949-3.105 3.73-6.582 5.347-10.43 1.614-3.917 3.16-7.866 4.641-11.85s2.86-7.837 4.137-11.548c1.277-3.785 2.523-7.058 3.734-9.828 2.152 7.024 4.606 13.711 7.363 20.059 2.758 6.277 5.82 11.781 9.184 16.508 3.363 4.726 7.098 8.476 11.203 11.246 4.102 2.77 8.574 4.152 13.418 4.152 5.922 0 12.176-1.484 18.77-4.457 6.66-3.04 13.453-7.832 20.382-14.383 2.352-2.23 4-4.355 4.942-6.383 1.012-2.093 1.515-3.918 1.515-5.468 0-1.621-.472-2.907-1.414-3.852-.941-.945-2.086-1.418-3.43-1.418-2.152 0-4.273 1.184-6.355 3.547a37.637 37.637 0 0 1-7.87 7.8c-2.56 1.958-5.755 3.747-9.587 5.368-3.836 1.621-8.207 2.43-13.117 2.43h-1.414a11.6 11.6 0 0 1-1.512-.102c-2.691-.203-5.25-1.55-7.672-4.05-2.422-2.497-4.64-5.505-6.656-9.016a79.892 79.892 0 0 1-5.047-11.243c-1.347-3.984-2.32-7.562-2.926-10.738 4.305-.742 8.743-1.957 13.32-3.644a93.73 93.73 0 0 0 13.52-6.18 85.445 85.445 0 0 0 12.309-8.305c3.902-3.176 7.3-6.617 10.191-10.332 2.895-3.781 5.184-7.8 6.864-12.054 1.75-4.325 2.625-8.848 2.625-13.575 0-7.023-1.45-13.168-4.34-18.433-2.825-5.27-6.66-9.625-11.504-13.067-4.844-3.511-10.426-6.148-16.75-7.902-6.258-1.758-12.817-2.633-19.676-2.633-6.996 0-13.625.742-19.879 2.227-6.258 1.418-12.043 3.343-17.355 5.773-5.246 2.363-9.989 5.133-14.227 8.309-4.238 3.105-7.84 6.347-10.797 9.722-2.894 3.375-5.148 6.754-6.761 10.13-1.547 3.374-2.32 6.515-2.32 9.421 0 3.106.839 5.535 2.523 7.293 1.68 1.688 4.203 2.531 7.566 2.531 2.488 0 4.574-.574 6.258-1.722 1.68-1.149 3.195-2.633 4.539-4.457 1.414-1.825 2.758-3.914 4.035-6.282a144.272 144.272 0 0 1 4.238-7.293c1.614-2.496 3.5-4.93 5.653-7.292 2.218-2.364 4.91-4.457 8.07-6.278 3.23-1.824 7.031-3.308 11.402-4.457 4.442-1.148 9.723-1.722 15.844-1.722 5.45 0 10.125.64 14.027 1.925 3.965 1.282 7.196 3.004 9.684 5.164 2.559 2.16 4.406 4.696 5.55 7.598 1.212 2.902 1.817 5.977 1.817 9.219 0 4.523-1.144 9.183-3.43 13.976-2.218 4.797-5.28 9.153-9.183 13.067-3.902 3.918-8.477 7.16-13.723 9.726-5.18 2.496-10.695 3.746-16.55 3.746zm0 0"/></svg>