<svg xmlns="http://www.w3.org/2000/svg" width="250" height="250"><linearGradient id="a" x1="26.208" x2="230.635" y1="62.704" y2="191.61" gradientUnits="userSpaceOnUse"><stop offset="0" stop-color="#21a9d7"/><stop offset="1" stop-color="#004e83"/></linearGradient><path fill="url(#a)" d="M250 125c0 69.035-55.965 125-125 125S0 194.035 0 125 55.965 0 125 0s125 55.965 125 125zm0 0"/><g fill="#fff"><path d="M124.477 112.227c-3.41 0-5.602.25-6.645.5v17.832h6.383c7.262 0 11.808-3.684 11.808-9.293-.007-6.192-4.558-9.04-11.546-9.04zm0 0"/><path d="M124.898 79.184c-29.648 0-53.683 24.03-53.683 53.683 0 29.649 24.035 53.684 53.683 53.684 29.653 0 53.684-24.035 53.684-53.684 0-29.652-24.039-53.683-53.684-53.683zm32.375 40.14c0 .094-.074.16-.156.16h-10.469c.012.258.043.516.043.774a14.09 14.09 0 0 1-.75 4.574h11.176a.16.16 0 0 1 .156.16v5.801c0 .09-.074.156-.156.156h-15.242a17.43 17.43 0 0 1-5.852 3.461v.25c4.204 1.508 6.735 5.442 8.22 10.883 1.831 7.031 3.405 13.566 4.632 15.742h-11.11c-.874-1.676-2.273-6.285-3.933-13.32-1.656-7.363-4.457-9.715-10.582-9.883h-5.426v23.191H107.16v-30.332H95.2a.157.157 0 0 1-.157-.156V125c0-.09.074-.16.156-.16h11.961v-5.348H95.2a.158.158 0 0 1-.157-.16v-5.797c0-.094.074-.16.156-.16h11.961v-7.758c4.024-.668 10.055-1.176 16.266-1.176 8.484 0 14.25 1.344 18.183 4.524 1.493 1.203 2.664 2.695 3.524 4.41h11.976c.09 0 .157.074.157.16v5.79zm0 0"/><path d="M241.75 91.715a8.767 8.767 0 0 0-.508-1.715 7.738 7.738 0 0 0-.832-1.484 6.154 6.154 0 0 0-1.086-1.118c-.199-.148-.398-.289-.617-.406a4.1 4.1 0 0 0-2.031-.55h-72.684c-.508 0-1.015.023-1.527.066-.156.015-.324.035-.48.05a13.43 13.43 0 0 0-1.036.141c-1.824-1.433-3.699-2.8-5.691-4.015-8.86-5.391-19.258-8.493-30.367-8.493a58.242 58.242 0 0 0-30.258 8.434c-2.016 1.215-3.918 2.602-5.766 4.05-.293-.042-.582-.093-.875-.116-.16-.016-.308-.036-.469-.051A18.064 18.064 0 0 0 86 86.44H13.324c-1.89 0-3.64 1.36-4.566 3.551-.926 2.192-.875 4.875.117 7.016l1.727 3.699c4.488 9.652 12.23 15.469 20.765 15.633l2.024 5.75c3.492 9.91 9.941 16.058 16.824 16.058h2.367l1.203 5.028c2.473 10.375 9.715 15.597 15.04 15.597h3.573c9.594 19.317 29.5 32.653 52.493 32.653 22.617 0 42.27-12.883 52.035-31.684h5.539c1.668 0 4.558-.61 6.043-1.75a12.44 12.44 0 0 0 1.726-1.633c.832-.941 1.625-2.074 2.348-3.375a30.361 30.361 0 0 0 2.008-4.418 45.91 45.91 0 0 0 1.61-5.382l1.198-5.024h2.368c1.726 0 3.418-.387 5.043-1.117a16.111 16.111 0 0 0 3.53-2.219 20.506 20.506 0 0 0 2.184-2.082 24.85 24.85 0 0 0 2.012-2.535c1.59-2.289 2.973-5.016 4.067-8.117l2.023-5.75a19.332 19.332 0 0 0 4.7-.672 21.072 21.072 0 0 0 2.991-1.078 22.154 22.154 0 0 0 4.207-2.508c2.227-1.672 4.262-3.816 6.02-6.355.7-1.02 1.367-2.102 1.973-3.25.308-.579.601-1.16.882-1.77l.86-1.848.86-1.851a7.69 7.69 0 0 0 .566-1.692c.066-.293.117-.59.148-.89a8.9 8.9 0 0 0-.082-2.711zM67.535 151.434c-2.344 0-6.234-4.325-7.77-10.758l-.597-2.528h.367c1.73 0 3.133-1.855 3.133-4.156 0-2.293-1.402-4.16-3.133-4.16h-4.637c-.03 0-.066.008-.097.008h-4.574c-4.493 0-8.66-4.207-11.145-11.266l-.707-2.008h25.273c1.735 0 3.137-1.859 3.137-4.156 0-2.293-1.387-3.734-3.11-3.734H33.618l-1.64.039c-.102-.016-.204-.016-.301-.016-6.492 0-12.324-5.031-15.735-12.347l-.742-2.317h65.824c-9.156 10.34-14.738 23.914-14.738 38.781 0 5.051.64 9.957 1.848 14.641a58.659 58.659 0 0 0 1.199 3.984h-1.797zm106.848-3.985a51.095 51.095 0 0 1-3.45 8.653c-8.523 16.789-25.956 28.324-46.042 28.324-20.082 0-37.508-11.535-46.04-28.324a51.109 51.109 0 0 1-3.453-8.653 51.486 51.486 0 0 1-2.125-14.64c0-16.774 8.043-31.7 20.477-41.133a51.823 51.823 0 0 1 6.793-4.367 51.303 51.303 0 0 1 24.348-6.118c8.859 0 17.199 2.243 24.492 6.192a52.496 52.496 0 0 1 6.742 4.367c12.375 9.441 20.375 24.324 20.375 41.05a51.182 51.182 0 0 1-2.117 14.65zm59.683-51.11c-.214.462-.433.903-.668 1.345-1.156 2.168-2.546 4.043-4.113 5.574-.32.308-.637.601-.96.875a18.085 18.085 0 0 1-2.032 1.508 15.306 15.306 0 0 1-4.453 1.941c-.774.203-1.59.793-2.39.902a9.793 9.793 0 0 1-1.34.098c-.102 0-.2.008-.301.02l-1.368.066h-30.05c-.215 0-.426.023-.633.082-.406.11-.781.324-1.125.625-.332.3-.625.684-.848 1.125-.344.668-.558 1.043-.558 1.898 0 .86.199 1.66.53 2.329.227.441.516.824.852 1.125.332.296.715.515 1.125.625.2.058.414.082.633.082h25.274l-.707 2.007c-.625 1.766-1.352 3.352-2.16 4.735a18.931 18.931 0 0 1-1.958 2.773 12.589 12.589 0 0 1-1.433 1.45c-.492.425-1 .8-1.524 1.109-.52.308-1.05.566-1.593.758-.266.093-.54.175-.817.242-.55.125-1.11.191-1.664.191h-9.308c-.22 0-.426.028-.637.086-.406.106-.781.324-1.125.625-.332.297-.625.68-.848 1.125-.344.664-.535 1.465-.535 2.324 0 .856.203 1.657.535 2.325.223.441.516.824.848 1.125.336.3.719.515 1.125.625.203.058.418.082.637.082h.363l-.598 2.527a38.469 38.469 0 0 1-.625 2.309 29.71 29.71 0 0 1-1.094 3.039 17.27 17.27 0 0 1-.808 1.699c-.274.52-.555.992-.848 1.418a8.915 8.915 0 0 1-.883 1.101c-.742.774-2.793 1.2-3.527 1.2h-2.008a56.513 56.513 0 0 0 1.2-3.985 58.42 58.42 0 0 0 1.851-14.64c0-14.043-5.602-28.266-14.867-38.868h66.16zm0 0"/></g></svg>