<svg xmlns="http://www.w3.org/2000/svg" width="250" height="250"><path fill="#0e3158" d="M250 125c0 69.035-55.965 125-125 125S0 194.035 0 125 55.965 0 125 0s125 55.965 125 125zm0 0"/><g fill="#fff"><path d="m74.43 76.867 12.203-7.012 1.637 2.832 44.96-25.945-3.285-1.89-3.3-1.914-1.637-.946-73.25 42.313v1.89l21.035-12.164zM74.43 103.504l35.238-20.356 1.652 2.86 44.961-25.945-3.289-1.918-3.297-1.891-1.652-.941-96.285 55.59v1.89l21.035-12.164zM74.43 116.824l46.761-27.011 1.653 2.832 44.96-25.977-3.3-1.852-3.285-1.93-1.656-.937-107.805 62.246v1.93l21.035-12.164zM74.43 130.117l58.613-33.84 1.652 2.832 44.63-25.757-3.302-1.918-3.289-1.887-1.648-.945-119.328 68.914v1.886l21.035-12.16zM74.43 143.398l70.136-40.48 1.653 2.875 44.629-25.785-3.301-1.903-3.285-1.918-1.653-.945L51.758 150.81v1.886l21.035-12.132zM195.781 82.867l-1.652-.972-142.371 82.23v1.89l21.035-12.136 1.637 2.832 70.136-40.473 1.653 2.832 52.023-30.015v-4.75zM60.781 174.094l11.797-6.801 1.637 2.832 70.02-40.41 1.648 2.86 52.36-30.231v-9.512L59.167 173.148zM144.234 143.04l1.653 2.858 52.355-30.23v-9.516L70.692 179.79l1.636.957 11.977-6.918 1.652 2.86M83.852 187.414l11.976-6.941 1.649 2.859 46.757-27 1.649 2.86 52.36-30.231v-9.516L82.175 186.441zM95.375 194.066l11.977-6.918L109 189.98l35.234-20.332 1.653 2.832 52.36-30.246v-9.472l-104.52 60.36zM105.246 199.758l1.652.945 12.012-6.918 1.61 2.86 23.71-13.72 1.653 2.876 52.355-30.246v-9.496zM118.422 207.387l11.976-6.961 1.645 2.879 12.191-7.082 1.649 2.875 52.36-30.22v-9.5l-81.473 47.063zM144.754 53.395l-3.29-1.887-3.296-1.89-1.637-.985-84.773 48.953v1.887l21.035-12.121 1.637 2.832 23.726-13.692 1.676 2.875zm0 0"/></g></svg>