<svg xmlns="http://www.w3.org/2000/svg" width="250" height="250"><path fill="#87888c" fill-rule="evenodd" d="M139.754 96.516c3.941 15.421-20.809 19.824-28.524 21.793l-7.039-27.325c7.746-1.968 31.371-10.562 35.493 5.532m17.289 40.808c4.332 17.008-25.246 22.465-34.543 24.86l-7.57-30.141c9.261-2.36 37.675-12.465 42.253 5.281m6.797-53.52c-5.707-15.812-21.129-17.609-39.156-14.753l-5.738-22.5-13.7 3.52 5.598 21.937c-3.52.914-7.254 1.902-10.879 2.922l-5.808-22.114-13.7 3.524 5.743 22.535c-2.961.844-5.848 1.617-8.7 2.355l-18.875 4.79 3.735 14.648s10.105-2.781 9.93-2.535a7.288 7.288 0 0 1 9.402 3.98l6.582 25.492c.488-.117.98-.199 1.48-.246l-1.445.352 9.086 35.914a5.073 5.073 0 0 1-4.05 5.848c.21 0-9.966 2.535-9.966 2.535l1.446 17.043 17.816-4.543 9.965-2.5 5.808 22.746 13.664-3.524-5.918-22.355a380 380 0 0 0 10.954-2.68l5.703 22.43 13.699-3.52-5.777-22.57c22.746-7.043 37.324-17.113 33.804-39.226-2.851-17.817-12.922-23.485-26.761-23.309 7.043-6.055 10.105-14.473 5.878-26.02m71.305-18.136c32.668 60.785 9.887 136.543-50.894 169.222-60.778 32.684-136.54 9.914-169.23-50.859-32.692-60.773-9.938-136.539 50.827-169.242 60.723-32.555 136.336-9.809 169.016 50.844"/></svg>