<svg xmlns="http://www.w3.org/2000/svg" width="250" height="250"><path fill="#87888c" d="M151.492 106.96c-3.836 15.481-27.734 7.599-35.512 5.68l6.891-27.413c7.738 1.918 32.668 5.539 28.621 21.699m-4.226 44.21c-4.227 17.048-32.918 7.813-42.223 5.505l7.527-30.184c9.305 2.309 39.063 7.102 34.696 24.856m31.32-43.926c2.523-16.832-10.156-25.711-27.484-31.746l5.609-22.375-13.707-3.551-5.469 21.91c-3.55-.887-7.316-1.738-10.972-2.555l5.503-22.09-13.707-3.55-5.644 22.515a422.638 422.638 0 0 1-8.738-2.058l-18.75-4.653-3.551 14.63s10.156 2.343 9.945 2.484a7.283 7.283 0 0 1 6.39 7.992l-6.64 25.746c.484.094.961.238 1.422.426l-1.457-.356-8.95 35.903a5.007 5.007 0 0 1-6.284 3.265c0 .18-9.98-2.52-9.98-2.52l-6.817 15.731 17.754 4.438c3.34.82 6.57 1.707 9.765 2.523l-5.644 22.797 13.672 3.55 5.644-22.546c3.55.992 7.281 1.918 10.902 2.84l-5.574 22.441 13.707 3.55 5.684-22.76c23.363 4.44 40.976 2.663 48.363-18.5 5.969-17.013-.281-26.848-12.605-33.24 8.984-2.097 15.73-7.991 17.507-20.136m71.415 17.758C249.758 194.266 193.71 250.11 124.69 250 55.676 249.89-.19 193.863-.105 124.848-.02 55.828 55.985-.06 125 0c69.035 0 125 55.965 125 125"/></svg>