<svg xmlns="http://www.w3.org/2000/svg" width="250" height="250"><g fill="#87888c"><path d="M125 0C55.965 0 0 55.965 0 125s55.965 125 125 125 125-55.965 125-125C249.941 55.988 194.012.059 125 0zm0 229.367c-57.64 0-104.367-46.726-104.367-104.367S67.359 20.633 125 20.633 229.367 67.359 229.367 125c-.058 57.617-46.75 104.309-104.367 104.367zm0 0"/><path d="M125 26.516c-54.45 0-98.59 44.14-98.59 98.59s44.14 98.59 98.59 98.59 98.59-44.141 98.59-98.59-44.14-98.59-98.59-98.59zm44.578 59.433-52.816 71.762h52.816v25.387h-34.086v20.777h-21.125v-20.777H80.422v-19.223l52.816-71.691H80.422V66.902h34.086V46.02h21.125v20.882h34.086zm0 0"/></g></svg>