<svg xmlns="http://www.w3.org/2000/svg" width="250" height="250"><path fill="#5f2652" d="M250 125c0 69.035-55.965 125-125 125S0 194.035 0 125 55.965 0 125 0s125 55.965 125 125zm0 0"/><path fill="#fff" d="m196.074 157.375-65.398-117.3a6.48 6.48 0 0 0-11.403 0l-65.375 117.3c-1.699 3.023-.722 6.95 2.329 8.75l65.472 39.148a6.878 6.878 0 0 0 6.801 0l65.375-39.074c2.898-1.875 3.977-5.8 2.2-8.824m-49.427-47.273-1.597-1.352-.102-.102a16.536 16.536 0 0 0-1.597-1.148l-.102-.102c-.523-.347-1.074-.722-1.7-1.074-.1 0-.1-.097-.175-.097-.523-.352-1.148-.625-1.7-.903-.1 0-.1-.097-.175-.097-.523-.278-1.148-.528-1.773-.801-.102 0-.102-.102-.176-.102-.528-.176-1.074-.449-1.602-.625a27.865 27.865 0 0 0-4.449-1.25c-1.148 2.227-2.773 4.2-4.55 5.875 2.777.176 5.448.903 7.85 1.875a30.542 30.542 0 0 1 4.098 2.153c.07.003.137.043.176.097.352.176.625.45.977.727.168.09.32.21.449.347.324.211.625.457.898.727.176.176.352.273.528.45.273.277.523.448.8.726l1.774 1.773c.188.258.398.5.625.727.176.199.352.449.523.625l.528.8c.176.274.347.45.449.723l.523.801c.176.273.278.523.454.727.171.273.273.523.449.796.176.278.273.528.449.801.102.278.273.528.352.801.171.352.273.727.449.977a23.02 23.02 0 0 1 1.523 5.699l.801 3.125c.352 1.347 3.574 12.75 11.05 16.597 8.575 4.454 19.9 10 24.348 12.125l-58.75 35.153v-24.074c0-3.829 7.579-8.301 11.051-9.801l.176-.102a27.975 27.975 0 0 0 2.148-1.148l.278-.176a27.679 27.679 0 0 0 4.273-3.125c.102-.102.278-.176.352-.352.176-.097.273-.273.449-.347.45-.352.8-.801 1.25-1.153l.176-.171c.46-.434.879-.91 1.25-1.426.097-.176.273-.278.347-.45.352-.351.625-.8.977-1.25.102-.101.176-.277.273-.351l1.079-1.602c0-.097.097-.097.097-.171.45-.727.903-1.528 1.352-2.227-1.778-2.148-3.125-4.45-4.2-6.602a24.472 24.472 0 0 1-1.703 3.829c-.273.523-.625 1.074-.898 1.597-.102.102-.102.176-.176.176-.273.434-.574.852-.898 1.25-.102.102-.176.273-.278.352a6.34 6.34 0 0 1-.972 1.148c-.102.102-.102.176-.176.176-2.148 2.398-4.727 4.449-7.676 5.875l-.523.273c-1.528.625-14.625 6.602-14.625 15.602V197.5L62.8 162.45c3.824-2.325 14.898-8.927 24-11.774 3.574-1.153 11.148 3.648 15.426 7.125l.273.273c.55.555 1.145 1.067 1.773 1.528l.176.171c1.352 1.079 2.778 2.153 4.375 2.954l1.074.523c.07.008.137.043.176.102.977.523 1.95.972 3.028 1.421.144.07.293.13.449.176.097 0 .176.102.347.102 1.528.523 3.028.972 4.551 1.347 1.153-2.222 2.852-4.199 4.653-5.875a25.5 25.5 0 0 1-7.329-1.597c-.097-.102-.273-.102-.347-.176a3.75 3.75 0 0 1-.801-.352c-.102-.097-.273-.097-.352-.171-.273-.102-.523-.278-.722-.352-1.778-.898-3.403-1.875-4.903-3.125l-2.324-2.148a43.705 43.705 0 0 0-6.949-5c-5.8-3.301-10.7-4.375-14.45-3.204-7.75 2.5-16.6 7.227-21.948 10.352L121.75 49.148V95.45c0 1.602-2.398 5.875-10.523 9.551l-.528.273c-.8.352-1.523.801-2.324 1.25l-.176.102c-1.539.926-3 1.969-4.375 3.125a19.26 19.26 0 0 0-2.398 2.324l-.102.102a18.225 18.225 0 0 0-2.148 2.5l-.102.097c-.347.454-.625.903-.972 1.352 0 .102-.102.102-.102.176-.273.449-.523.8-.8 1.25 0 .097-.098.097-.098.176l-.801 1.347c-.102.102-.102.176-.176.352-.273.449-.45.898-.625 1.25a.25.25 0 0 1-.102.176c-.171.449-.347.796-.523 1.25-.07.144-.129.293-.176.449l-.523 1.347c-.07.149-.13.297-.176.454-.082.335-.2.66-.352.972-.097.176-.097.352-.171.528-.102.449-.278.898-.352 1.25-.102.171-.102.449-.176.625-.097.273-.097.625-.176.898-.097.273-.097.523-.171.8-.102.348-.102.723-.176 1.075 0 .273-.102.45-.102.727 0 .347-.097.625-.097.972a3.3 3.3 0 0 1-.102.977v1.347c-.012 1.618.105 3.23.352 4.829 2.324.523 4.722 1.523 7.324 2.773-.727-2.324-1.074-4.727-1.153-7.227v-.449c-.015-.594.02-1.187.102-1.773v-.45c0-.527.102-.976.176-1.527v-.176c.097-.523.176-1.074.273-1.699 0-.176.102-.273.102-.449.097-.45.273-.898.347-1.352 0-.097.102-.171.102-.273l.523-1.602c.102-.097.102-.273.176-.347.176-.45.352-.903.528-1.25.097-.102.097-.176.171-.352.278-.523.454-.972.801-1.426.067-.085.125-.175.176-.273.273-.45.45-.8.727-1.25.066-.086.125-.18.171-.273.301-.47.63-.918.977-1.352 0-.027.008-.05.027-.07a.107.107 0 0 1 .075-.032c.347-.449.625-.796.972-1.25.067-.085.125-.175.176-.273a27.912 27.912 0 0 1 5.45-4.648l2.777-1.352c1.523-.625 14.546-6.773 14.546-15.8V49.073l59.329 106.5c-5.278-2.574-14.625-7.222-21.852-10.972-4.2-2.153-6.95-9.727-7.75-12.5l-.8-3.204c0-1.699-.45-3.398-.973-5.074a32.887 32.887 0 0 0-9.329-13.722"/></svg>