<svg xmlns="http://www.w3.org/2000/svg" width="250" height="250"><path fill="#0e0e21" d="M250 125c0 69.035-55.965 125-125 125S0 194.035 0 125 55.965 0 125 0s125 55.965 125 125zm0 0"/><path fill="#fff" d="m194.773 154.05-14.87-25.222a1.902 1.902 0 0 0-2.673-.637l-9.683 6.29c-.875.558-1.145 1.73-.617 2.628l8.504 14.414a.974.974 0 0 1-.309 1.317l-49.613 32.226a.927.927 0 0 1-1.028 0L74.883 152.84a.992.992 0 0 1-.309-1.317l8.504-14.414c.527-.898.258-2.07-.617-2.629l-9.684-6.289a1.9 1.9 0 0 0-2.672.637l-14.87 25.223c-1.067 1.797-.528 4.129 1.218 5.262l66.488 43.203c1.262.82 2.88.82 4.137 0l66.488-43.203c1.723-1.133 2.262-3.465 1.207-5.262zm0 0"/><path fill="#2ae7a8" d="m80.547 114.766 9.683 6.289a1.9 1.9 0 0 0 2.672-.637l31.274-53.02a.956.956 0 0 1 1.644 0l31.274 53.02a1.902 1.902 0 0 0 2.672.637l9.683-6.29c.871-.558 1.14-1.73.613-2.628l-37.37-63.371a3.829 3.829 0 0 0-3.29-1.891h-8.808a3.824 3.824 0 0 0-3.29 1.89L79.93 112.138c-.524.898-.254 2.07.617 2.629zm0 0"/></svg>