<svg xmlns="http://www.w3.org/2000/svg" width="250" height="250"><path fill="#008c62" d="m158.46 137.813 51.977-51.778a20.604 20.604 0 0 0 6.083-14.617l.09-41.883a8.405 8.405 0 0 0-2.333-5.785l-99.695 99.414c-8.09 8.07-8.105 21.168-.039 29.262l.039.039 70.3 70.082c8.122 7.89 21.079 7.785 29.071-.234s8.055-20.977.133-29.07zm0 0"/><path fill="#00e6a0" d="M208.473 21.422H51.898c-12.722 0-22.082 9.582-22.082 22.637V207.46c0 11.64 9.012 21.066 21.07 21.066 11.634 0 21.067-8.882 21.067-21.066V61.742h104.211l38.113-37.992a8.01 8.01 0 0 0-5.804-2.328zm0 0"/></svg>