<svg xmlns="http://www.w3.org/2000/svg" xmlns:xlink="http://www.w3.org/1999/xlink" width="250" height="250"><clipPath id="c"><path d="M250.371 125.184c0 69.14-56.047 125.187-125.187 125.187C56.047 250.371 0 194.324 0 125.184 0 56.047 56.047 0 125.184 0c69.14 0 125.187 56.047 125.187 125.184zm0 0"/></clipPath><linearGradient id="d" x1="-4.704" x2="1077.99" y1="2.01" y2="1071.358" gradientTransform="matrix(.23148 0 0 -.23148 0 250)" gradientUnits="userSpaceOnUse"><stop offset="0" stop-color="#ffd275"/><stop offset=".132" stop-color="#feca74"/><stop offset=".358" stop-color="#fbb570"/><stop offset=".652" stop-color="#f79569"/><stop offset="1" stop-color="#f2665f"/></linearGradient><clipPath id="e"><path d="M30 46h36v45H30zm0 0"/></clipPath><clipPath id="f"><path d="M250.371 125.184c0 69.14-56.047 125.187-125.187 125.187C56.047 250.371 0 194.324 0 125.184 0 56.047 56.047 0 125.184 0c69.14 0 125.187 56.047 125.187 125.184zm0 0"/></clipPath><clipPath id="g"><path d="M34 0h27v31H34zm0 0"/></clipPath><clipPath id="h"><path d="M250.371 125.184c0 69.14-56.047 125.187-125.187 125.187C56.047 250.371 0 194.324 0 125.184 0 56.047 56.047 0 125.184 0c69.14 0 125.187 56.047 125.187 125.184zm0 0"/></clipPath><clipPath id="i"><path d="M65 2h72v42H65zm0 0"/></clipPath><clipPath id="j"><path d="M250.371 125.184c0 69.14-56.047 125.187-125.187 125.187C56.047 250.371 0 194.324 0 125.184 0 56.047 56.047 0 125.184 0c69.14 0 125.187 56.047 125.187 125.184zm0 0"/></clipPath><clipPath id="k"><path d="M169 39h40v83h-40zm0 0"/></clipPath><clipPath id="l"><path d="M250.371 125.184c0 69.14-56.047 125.187-125.187 125.187C56.047 250.371 0 194.324 0 125.184 0 56.047 56.047 0 125.184 0c69.14 0 125.187 56.047 125.187 125.184zm0 0"/></clipPath><clipPath id="m"><path d="M139 90h23v36h-23zm0 0"/></clipPath><clipPath id="n"><path d="M250.371 125.184c0 69.14-56.047 125.187-125.187 125.187C56.047 250.371 0 194.324 0 125.184 0 56.047 56.047 0 125.184 0c69.14 0 125.187 56.047 125.187 125.184zm0 0"/></clipPath><clipPath id="o"><path d="M120 142h17v29h-17zm0 0"/></clipPath><clipPath id="p"><path d="M250.371 125.184c0 69.14-56.047 125.187-125.187 125.187C56.047 250.371 0 194.324 0 125.184 0 56.047 56.047 0 125.184 0c69.14 0 125.187 56.047 125.187 125.184zm0 0"/></clipPath><clipPath id="q"><path d="M144 172h18v27h-18zm0 0"/></clipPath><clipPath id="r"><path d="M250.371 125.184c0 69.14-56.047 125.187-125.187 125.187C56.047 250.371 0 194.324 0 125.184 0 56.047 56.047 0 125.184 0c69.14 0 125.187 56.047 125.187 125.184zm0 0"/></clipPath><clipPath id="s"><path d="M161 200h26v43h-26zm0 0"/></clipPath><clipPath id="t"><path d="M250.371 125.184c0 69.14-56.047 125.187-125.187 125.187C56.047 250.371 0 194.324 0 125.184 0 56.047 56.047 0 125.184 0c69.14 0 125.187 56.047 125.187 125.184zm0 0"/></clipPath><clipPath id="u"><path d="M0 170h95v80H0zm0 0"/></clipPath><clipPath id="v"><path d="M250.371 125.184c0 69.14-56.047 125.187-125.187 125.187C56.047 250.371 0 194.324 0 125.184 0 56.047 56.047 0 125.184 0c69.14 0 125.187 56.047 125.187 125.184zm0 0"/></clipPath><clipPath id="w"><path d="M250.371 125.184c0 69.14-56.047 125.187-125.187 125.187C56.047 250.371 0 194.324 0 125.184 0 56.047 56.047 0 125.184 0c69.14 0 125.187 56.047 125.187 125.184zm0 0"/></clipPath><filter id="a" width="100%" height="100%" x="0%" y="0%"><feColorMatrix in="SourceGraphic" values="0 0 0 0 1 0 0 0 0 1 0 0 0 0 1 0 0 0 1 0"/></filter><mask id="y"><g filter="url(#a)"><path fill-opacity=".15" d="M0 0h250v250H0z"/></g></mask><linearGradient id="z" x1=".3" x2="464.5" y1="316.3" y2="316.3" gradientTransform="matrix(.23148 0 0 -.23148 0 250)" gradientUnits="userSpaceOnUse"><stop offset="0" stop-color="#f296bf"/><stop offset=".214" stop-color="#f19dc1"/><stop offset=".582" stop-color="#f0b0ca"/><stop offset="1" stop-color="#f0cdd7"/></linearGradient><linearGradient id="A" x1="308.567" x2="1093.807" y1="-52.605" y2="1061.047" gradientTransform="matrix(.23148 0 0 -.23148 0 250)" gradientUnits="userSpaceOnUse"><stop offset="0" stop-color="#f6ad6c"/><stop offset=".121" stop-color="#f6a871"/><stop offset=".33" stop-color="#f49b7d"/><stop offset=".6" stop-color="#f2858d"/><stop offset=".92" stop-color="#ef629b"/><stop offset="1" stop-color="#ef579f"/></linearGradient><linearGradient id="B" x1="510.175" x2="988.825" y1="26.61" y2="705.43" gradientTransform="matrix(.23148 0 0 -.23148 0 250)" gradientUnits="userSpaceOnUse"><stop offset="0" stop-color="#db2166"/><stop offset=".144" stop-color="#dc2262"/><stop offset=".392" stop-color="#e02257"/><stop offset=".712" stop-color="#e62344"/><stop offset="1" stop-color="#ee232e"/></linearGradient><linearGradient id="C" x1="359.502" x2="669.972" y1="582.542" y2="1022.877" gradientTransform="matrix(.23148 0 0 -.23148 0 250)" gradientUnits="userSpaceOnUse"><stop offset="0" stop-color="#e074ad"/><stop offset=".174" stop-color="#e27cad"/><stop offset=".473" stop-color="#e890ae"/><stop offset=".859" stop-color="#f3b3b0"/><stop offset="1" stop-color="#f9c1b0"/></linearGradient><linearGradient id="D" x1="716" x2="1060.3" y1="1041.6" y2="1041.6" gradientTransform="matrix(.23148 0 0 -.23148 0 250)" gradientUnits="userSpaceOnUse"><stop offset="0" stop-color="#ed1982"/><stop offset=".492" stop-color="#ed1b87"/><stop offset="1" stop-color="#ed1d8f"/></linearGradient><mask id="F"><g filter="url(#a)"><path fill-opacity=".5" d="M0 0h250v250H0z"/></g></mask><clipPath id="E"><path d="M0 0h250v250H0z"/></clipPath><linearGradient id="G" x1="600.9" x2="639.7" y1="387.25" y2="387.25" gradientTransform="matrix(.23148 0 0 -.23148 0 250)" gradientUnits="userSpaceOnUse"><stop offset="0" stop-color="#1e3567"/><stop offset=".198" stop-color="#1c3966"/><stop offset=".54" stop-color="#144465"/><stop offset=".981" stop-color="#075362"/><stop offset="1" stop-color="#065461"/></linearGradient><linearGradient id="b"><stop offset="0" stop-color="#02a0b5" stop-opacity="0"/><stop offset=".952" stop-color="#009ab4" stop-opacity=".761"/><stop offset="1" stop-color="#009ab4" stop-opacity=".8"/></linearGradient><linearGradient xlink:href="#b" id="H" x1="1.831" x2="559.361" y1="761.152" y2="399.012" gradientTransform="matrix(.23148 0 0 -.23148 0 250)" gradientUnits="userSpaceOnUse"/><mask id="J"><g filter="url(#a)"><path fill-opacity=".3" d="M0 0h250v250H0z"/></g></mask><clipPath id="I"><path d="M0 0h250v250H0z"/></clipPath><mask id="L"><g filter="url(#a)"><path fill-opacity=".3" d="M0 0h250v250H0z"/></g></mask><clipPath id="K"><path d="M0 0h250v250H0z"/></clipPath><mask id="N"><g filter="url(#a)"><path fill-opacity=".3" d="M0 0h250v250H0z"/></g></mask><clipPath id="M"><path d="M0 0h250v250H0z"/></clipPath><mask id="P"><g filter="url(#a)"><path fill-opacity=".3" d="M0 0h250v250H0z"/></g></mask><clipPath id="O"><path d="M0 0h250v250H0z"/></clipPath><mask id="R"><g filter="url(#a)"><path fill-opacity=".3" d="M0 0h250v250H0z"/></g></mask><clipPath id="Q"><path d="M0 0h250v250H0z"/></clipPath><mask id="T"><g filter="url(#a)"><path fill-opacity=".3" d="M0 0h250v250H0z"/></g></mask><clipPath id="S"><path d="M0 0h250v250H0z"/></clipPath><mask id="V"><g filter="url(#a)"><path fill-opacity=".3" d="M0 0h250v250H0z"/></g></mask><clipPath id="U"><path d="M0 0h250v250H0z"/></clipPath><mask id="X"><g filter="url(#a)"><path fill-opacity=".3" d="M0 0h250v250H0z"/></g></mask><clipPath id="W"><path d="M0 0h250v250H0z"/></clipPath><mask id="Z"><g filter="url(#a)"><path fill-opacity=".3" d="M0 0h250v250H0z"/></g></mask><clipPath id="Y"><path d="M0 0h250v250H0z"/></clipPath><mask id="ab"><g filter="url(#a)"><path fill-opacity=".3" d="M0 0h250v250H0z"/></g></mask><clipPath id="aa"><path d="M0 0h250v250H0z"/></clipPath><mask id="ad"><g filter="url(#a)"><path fill-opacity=".3" d="M0 0h250v250H0z"/></g></mask><clipPath id="ac"><path d="M0 0h250v250H0z"/></clipPath><mask id="af"><g filter="url(#a)"><path fill-opacity=".3" d="M0 0h250v250H0z"/></g></mask><clipPath id="ae"><path d="M0 0h250v250H0z"/></clipPath><mask id="ah"><g filter="url(#a)"><path fill-opacity=".3" d="M0 0h250v250H0z"/></g></mask><clipPath id="ag"><path d="M0 0h250v250H0z"/></clipPath><mask id="aj"><g filter="url(#a)"><path fill-opacity=".3" d="M0 0h250v250H0z"/></g></mask><clipPath id="ai"><path d="M0 0h250v250H0z"/></clipPath><mask id="al"><g filter="url(#a)"><path fill-opacity=".3" d="M0 0h250v250H0z"/></g></mask><clipPath id="ak"><path d="M0 0h250v250H0z"/></clipPath><mask id="an"><g filter="url(#a)"><path fill-opacity=".3" d="M0 0h250v250H0z"/></g></mask><clipPath id="am"><path d="M0 0h250v250H0z"/></clipPath><mask id="ap"><g filter="url(#a)"><path fill-opacity=".3" d="M0 0h250v250H0z"/></g></mask><clipPath id="ao"><path d="M0 0h250v250H0z"/></clipPath><mask id="ar"><g filter="url(#a)"><path fill-opacity=".3" d="M0 0h250v250H0z"/></g></mask><clipPath id="aq"><path d="M0 0h250v250H0z"/></clipPath><mask id="at"><g filter="url(#a)"><path fill-opacity=".2" d="M0 0h250v250H0z"/></g></mask><clipPath id="as"><path d="M0 0h250v250H0z"/></clipPath><mask id="av"><g filter="url(#a)"><path fill-opacity=".2" d="M0 0h250v250H0z"/></g></mask><clipPath id="au"><path d="M0 0h250v250H0z"/></clipPath><mask id="ax"><g filter="url(#a)"><path fill-opacity=".8" d="M0 0h250v250H0z"/></g></mask><clipPath id="aw"><path d="M0 0h250v250H0z"/></clipPath><mask id="az"><g filter="url(#a)"><path fill-opacity=".2" d="M0 0h250v250H0z"/></g></mask><clipPath id="ay"><path d="M0 0h250v250H0z"/></clipPath><mask id="aB"><g filter="url(#a)"><path fill-opacity=".2" d="M0 0h250v250H0z"/></g></mask><clipPath id="aA"><path d="M0 0h250v250H0z"/></clipPath><mask id="aD"><g filter="url(#a)"><path fill-opacity=".68" d="M0 0h250v250H0z"/></g></mask><clipPath id="aC"><path d="M0 0h250v250H0z"/></clipPath><mask id="aF"><g filter="url(#a)"><path fill-opacity=".8" d="M0 0h250v250H0z"/></g></mask><clipPath id="aE"><path d="M0 0h250v250H0z"/></clipPath><linearGradient xlink:href="#b" id="aG" x1="141.1" x2="330.6" y1="443.15" y2="443.15" gradientTransform="matrix(.23148 0 0 -.23148 0 250)" gradientUnits="userSpaceOnUse"/><mask id="aI"><g filter="url(#a)"><path fill-opacity=".5" d="M0 0h250v250H0z"/></g></mask><clipPath id="aH"><path d="M0 0h250v250H0z"/></clipPath><clipPath id="x"><path d="M0 0h250v250H0z"/></clipPath><clipPath id="aJ"><path d="M250.371 125.184c0 69.14-56.047 125.187-125.187 125.187C56.047 250.371 0 194.324 0 125.184 0 56.047 56.047 0 125.184 0c69.14 0 125.187 56.047 125.187 125.184zm0 0"/></clipPath><mask id="aL"><g filter="url(#a)"><path fill-opacity=".7" d="M0 0h250v250H0z"/></g></mask><clipPath id="aK"><path d="M0 0h250v250H0z"/></clipPath><g fill="url(#d)" clip-path="url(#c)"><path d="M0 0h250v250H0z"/><path d="M0 0h250v250H0z"/></g><g clip-path="url(#e)"><g clip-path="url(#f)"><path fill="#f8a171" d="M63.195 90.254H33.566a2.787 2.787 0 0 1-2.78-2.777V48.89a2.787 2.787 0 0 1 2.78-2.782h29.63a2.787 2.787 0 0 1 2.777 2.782v38.586a2.786 2.786 0 0 1-2.778 2.777zm0 0"/></g></g><g clip-path="url(#g)"><g clip-path="url(#h)"><path fill="#faaa71" d="M57.34 30.832H37.594a2.786 2.786 0 0 1-2.778-2.777V.973a2.786 2.786 0 0 1 2.778-2.778H57.34A2.786 2.786 0 0 1 60.117.973v27.082a2.786 2.786 0 0 1-2.777 2.777zm0 0"/></g></g><g clip-path="url(#i)"><g clip-path="url(#j)"><path fill="#f9a471" d="M133.566 43.797H68.75a2.786 2.786 0 0 1-2.777-2.777V5.602a2.786 2.786 0 0 1 2.777-2.778h64.816a2.786 2.786 0 0 1 2.778 2.778V41.02a2.77 2.77 0 0 1-2.778 2.777zm0 0"/></g></g><g clip-path="url(#k)"><g clip-path="url(#l)"><path fill="#f7956b" d="M205.484 121.574h-33.656a2.786 2.786 0 0 1-2.777-2.777V41.945a2.786 2.786 0 0 1 2.777-2.777h33.637a2.786 2.786 0 0 1 2.777 2.777v76.852c.024 1.527-1.226 2.777-2.758 2.777zm0 0"/></g></g><g clip-path="url(#m)"><g clip-path="url(#n)"><path fill="#faab72" d="M158.266 125.277h-15.743a2.786 2.786 0 0 1-2.777-2.777V93.496a2.786 2.786 0 0 1 2.777-2.777h15.743a2.786 2.786 0 0 1 2.777 2.777V122.5a2.786 2.786 0 0 1-2.777 2.777zm0 0"/></g></g><g clip-path="url(#o)"><g clip-path="url(#p)"><path fill="#f9a571" d="M133.566 170.184h-10.488a2.786 2.786 0 0 1-2.777-2.778v-22.523a2.786 2.786 0 0 1 2.777-2.778h10.488a2.786 2.786 0 0 1 2.778 2.778v22.523a2.786 2.786 0 0 1-2.778 2.778zm0 0"/></g></g><g clip-path="url(#q)"><g clip-path="url(#r)"><path fill="#fbb171" d="M158.266 198.75h-11.414a2.786 2.786 0 0 1-2.778-2.777V175.3a2.786 2.786 0 0 1 2.778-2.778h11.414a2.786 2.786 0 0 1 2.777 2.778v20.672a2.786 2.786 0 0 1-2.777 2.777zm0 0"/></g></g><g clip-path="url(#s)"><g clip-path="url(#t)"><path fill="#f89e71" d="M163.82 200.277h20.371a2.786 2.786 0 0 1 2.778 2.778v37.039a2.786 2.786 0 0 1-2.778 2.777h-20.37a2.786 2.786 0 0 1-2.778-2.777v-37.04c0-1.503 1.25-2.777 2.777-2.777zm0 0"/></g></g><g clip-path="url(#u)"><g clip-path="url(#v)"><path fill="#fcbb71" d="M-.695 249.816h91.968a2.787 2.787 0 0 0 2.778-2.78v-74.071a2.787 2.787 0 0 0-2.778-2.781H-.695a2.787 2.787 0 0 0-2.778 2.78v74.071a2.787 2.787 0 0 0 2.778 2.781zm0 0"/></g></g><g clip-path="url(#w)"><g clip-path="url(#x)" mask="url(#y)"><path fill="#fff" d="M0 0h250v250H0z"/><path fill="#dbc2de" d="M45.832 76.18 32.66 96.715l89.91-15.606V61.391zm0 0"/><path fill="url(#z)" d="m3.82 264.469 103.703-153.567-10.742-21.804L.071 230.37zm0 0"/><path fill="#ed1c24" d="m156.48-1.227 44.422-10.37-35.16 51.69zm0 0"/><path fill="url(#A)" d="M140.832 257.43 258.496 72.453l-31.02-125.277-207.66 321.25zm0 0"/><path fill="url(#B)" d="M104.559 260.277 228.332 62.5l5.512 24.352-108.567 171.804zm0 0"/><path fill="url(#C)" d="m56.805 21.945 23.172 107.778 100.832-22.317L156.48-1.227zm0 0"/><path fill="url(#D)" d="m170.766 62.5 74.675-16.805-22.039-90.418-57.66 84.817zm0 0"/><path fill="#ed1e24" d="M78.45 16.898 41.155 77.57l5.512 42.012L112.895 8.891zm0 0"/><path fill="#f7c752" d="m56.805 21.945 4.816 22.36L78.45 16.898zm0 0"/><path fill="#f26422" d="m94.121 13.266 3.172 21.71 15.602-26.085zm0 0"/><g clip-path="url(#E)" mask="url(#F)"><path fill="#7c8fb7" d="m111.852 66.574-6.668-31.597-23.45 37.476zm0 0"/></g><path fill="#f26328" d="m79.977 129.723 7.246 34.77 27.175-42.388zm0 0"/><path fill="#f36e37" d="m69.793 163.633 57.66-9.281-44.906 67.8zm0 0"/><path fill="#f7b351" d="m74.168 183.633 15.95-23.285-20.325 3.285zm0 0"/><path fill="#ec165f" d="m70.879 228.52 2.894 11.015 8.403-13.031zm0 0"/><path fill="#f15822" d="m87.223 164.492 2.894-4.144-3.637.601zm0 0"/><path fill="url(#G)" d="m139.098 156.875 2.312 9.281 6.668-11.597zm0 0"/><path fill="url(#H)" d="M2.918 65.809 129.699 40.37 18.797 203.148zm0 0"/><path fill="#ef4823" d="m110.508 9.375-13.727 22.2-2.66-18.31zm0 0"/><path fill="#f6aa59" d="m6.273 232.941 34.747-6.738-29.77 46.137zm0 0"/><path fill="#f37053" d="M10.023 262.684 34.605 227.5l-28.332 5.441zm0 0"/><g clip-path="url(#I)" mask="url(#J)"><path fill="none" stroke="#fff" stroke-miterlimit="10" stroke-width="1.04166" d="M102.777 232.593 210.577 62.5"/></g><g clip-path="url(#K)" mask="url(#L)"><path fill="none" stroke="#fff" stroke-miterlimit="10" stroke-width="1.04166" d="M112.824 230.878 211.757 74.77"/></g><g clip-path="url(#M)" mask="url(#N)"><path fill="none" stroke="#fff" stroke-miterlimit="10" stroke-width="1.04166" d="m124.468 226.644 88.496-139.609"/></g><g clip-path="url(#O)" mask="url(#P)"><path fill="none" stroke="#fff" stroke-miterlimit="10" stroke-width="1.04166" d="m133.426 226.644 80.718-127.363"/></g><g clip-path="url(#Q)" mask="url(#R)"><path fill="none" stroke="#fff" stroke-miterlimit="10" stroke-width="1.04166" d="m144.168 222.8 73.171-115.484"/></g><g clip-path="url(#S)" mask="url(#T)"><path fill="none" stroke="#fff" stroke-miterlimit="10" stroke-width="1.04166" d="m155.183 218.957 63.961-100.926"/></g><g clip-path="url(#U)" mask="url(#V)"><path fill="none" stroke="#fff" stroke-miterlimit="10" stroke-width="1.04166" d="M44.121 47.594 124.84-79.77"/></g><g clip-path="url(#W)" mask="url(#X)"><path fill="none" stroke="#fff" stroke-miterlimit="10" stroke-width="1.04166" d="M54.84 43.75 128.03-71.734"/></g><g clip-path="url(#Y)" mask="url(#Z)"><path fill="none" stroke="#fff" stroke-miterlimit="10" stroke-width="1.04166" d="m65.879 39.906 63.96-100.925"/></g><g clip-path="url(#aa)" mask="url(#ab)"><path fill="none" stroke="#b44b34" stroke-miterlimit="10" stroke-width="1.04166" d="M-2.176 254.328 133.172 40.766"/></g><g clip-path="url(#ac)" mask="url(#ad)"><path fill="none" stroke="#b44b34" stroke-miterlimit="10" stroke-width="1.04166" d="M-7.316 240.578 128.03 27.016"/></g><g clip-path="url(#ae)" mask="url(#af)"><path fill="none" stroke="#b44b34" stroke-miterlimit="10" stroke-width="1.04166" d="M-12.43 226.851 122.894 13.285"/></g><g clip-path="url(#ag)" mask="url(#ah)"><path fill="none" stroke="#b44b34" stroke-miterlimit="10" stroke-width="1.04166" d="M-17.57 213.101 117.777-.465"/></g><g clip-path="url(#ai)" mask="url(#aj)"><path fill="none" stroke="#b44b34" stroke-miterlimit="10" stroke-width="1.04166" d="M10.441 252.175 134.652 56.156"/></g><g clip-path="url(#ak)" mask="url(#al)"><path fill="none" stroke="#b44b34" stroke-miterlimit="10" stroke-width="1.04166" d="M25.07 246.874 136.156 71.551"/></g><g clip-path="url(#am)" mask="url(#an)"><path fill="none" stroke="#b44b34" stroke-miterlimit="10" stroke-width="1.04166" d="M36.32 246.874 137.66 86.945"/></g><g clip-path="url(#ao)" mask="url(#ap)"><path fill="none" stroke="#b44b34" stroke-miterlimit="10" stroke-width="1.04166" d="m49.77 242.035 91.898-145"/></g><g clip-path="url(#aq)" mask="url(#ar)"><path fill="none" stroke="#b44b34" stroke-miterlimit="10" stroke-width="1.04166" d="m63.633 237.222 80.3-126.738"/></g><g clip-path="url(#as)" mask="url(#at)"><path fill="none" stroke="#0396b6" stroke-miterlimit="10" stroke-width="1.04166" d="m-115.531 246.226 226.734-357.8"/></g><g clip-path="url(#au)" mask="url(#av)"><path fill="none" stroke="#0396b6" stroke-miterlimit="10" stroke-width="1.04166" d="m-89.906 241.132 202.8-320.022"/></g><g clip-path="url(#aw)" mask="url(#ax)"><path fill="#eda3c8" d="M-2.176 176.945v26.203L76.527 81.11v-25.3zm0 0"/></g><g clip-path="url(#ay)" mask="url(#az)"><path fill="none" stroke="#0396b6" stroke-miterlimit="10" stroke-width="1.04166" d="m-66.18 240.578 185-291.922"/></g><g clip-path="url(#aA)" mask="url(#aB)"><path fill="none" stroke="#0396b6" stroke-miterlimit="10" stroke-width="1.04166" d="m-38.031 229.722 167.73-264.675"/></g><g clip-path="url(#aC)" mask="url(#aD)"><path fill="#0396b6" d="m-21.55 222.8 46.62-7.5-6.828-56.226zm0 0"/></g><g clip-path="url(#aE)" mask="url(#aF)"><path fill="#006185" d="m31.805 92.941.789 8.403 6.64-9.309zm0 0"/></g><path fill="url(#aG)" d="m32.66 129.469 13.172 40.066 30.695-44.234zm0 0"/><g clip-path="url(#aH)" mask="url(#aI)"><path fill="#8d5b76" d="m56.805 127.176-16.457 25.648-7.688-23.355zm0 0"/></g></g></g><path fill="#ffd48a" d="M125.184 11.574c15.347 0 30.21 3.008 44.214 8.91 13.52 5.72 25.672 13.914 36.11 24.356 10.441 10.437 18.637 22.59 24.351 36.11 5.926 14.003 8.914 28.866 8.914 44.21 0 15.348-3.007 30.211-8.914 44.215-5.714 13.52-13.91 25.672-24.351 36.11-10.438 10.44-22.59 18.636-36.11 24.355-14.003 5.926-28.867 8.91-44.214 8.91-15.344 0-30.207-3.008-44.211-8.91-13.52-5.719-25.672-13.914-36.114-24.356-10.437-10.437-18.632-22.59-24.351-36.109-5.926-13.98-8.934-28.867-8.934-44.191 0-15.325 3.008-30.207 8.91-44.211 5.72-13.52 13.914-25.672 24.356-36.114 10.437-10.437 22.59-18.632 36.11-24.351 14.003-5.926 28.89-8.934 44.234-8.934m0-11.574C56.043 0 0 56.043 0 125.184 0 194.328 56.043 250.37 125.184 250.37c69.144 0 125.187-56.043 125.187-125.187C250.371 56.043 194.305 0 125.184 0zm0 0"/><g clip-path="url(#aJ)"><g clip-path="url(#aK)" mask="url(#aL)"><path fill="#f04b36" d="M125.184 258.45c-17.985 0-35.438-3.52-51.875-10.485-15.88-6.715-30.114-16.32-42.36-28.567-12.246-12.222-21.851-26.48-28.566-42.34-6.942-16.433-10.485-33.886-10.485-51.874 0-17.985 3.52-35.438 10.485-51.875 6.715-15.88 16.32-30.114 28.566-42.36C43.195 18.703 57.43 9.098 73.31 2.383c16.414-6.965 33.867-10.485 51.875-10.485 17.988 0 35.441 3.52 51.875 10.485 15.882 6.715 30.117 16.32 42.363 28.566 12.246 12.246 21.851 26.48 28.562 42.36 6.946 16.437 10.489 33.89 10.489 51.875 0 17.988-3.52 35.441-10.489 51.875-6.71 15.882-16.316 30.117-28.562 42.363s-26.48 21.851-42.363 28.562c-16.434 6.946-33.887 10.465-51.875 10.465zm0-238.774c-14.258 0-28.055 2.777-41.063 8.289-12.57 5.32-23.844 12.914-33.543 22.613S33.266 71.551 27.965 84.121c-5.512 12.984-8.29 26.805-8.29 41.063 0 14.261 2.778 28.058 8.29 41.066 5.32 12.57 12.914 23.844 22.613 33.543s20.973 17.312 33.543 22.613c12.984 5.489 26.805 8.29 41.063 8.29 14.261 0 28.058-2.778 41.066-8.29 12.57-5.324 23.844-12.914 33.543-22.613s17.312-20.973 22.613-33.543c5.489-12.984 8.29-26.805 8.29-41.066 0-14.258-2.778-28.055-8.29-41.063-5.324-12.57-12.914-23.844-22.613-33.543S178.82 33.266 166.25 27.965c-13.008-5.512-26.828-8.29-41.066-8.29zm0 0"/></g></g><path fill="#ffd48a" d="M125.184 11.574c15.347 0 30.21 3.008 44.214 8.91 13.52 5.72 25.672 13.914 36.11 24.356 10.441 10.437 18.637 22.59 24.351 36.11 5.926 14.003 8.914 28.866 8.914 44.21 0 15.348-3.007 30.211-8.914 44.215-5.714 13.52-13.91 25.672-24.351 36.11-10.438 10.44-22.59 18.636-36.11 24.355-14.003 5.926-28.867 8.91-44.214 8.91-15.344 0-30.207-3.008-44.211-8.91-13.52-5.719-25.672-13.914-36.114-24.356-10.437-10.437-18.632-22.59-24.351-36.109-5.926-13.98-8.934-28.867-8.934-44.191 0-15.325 3.008-30.207 8.91-44.211 5.72-13.52 13.914-25.672 24.356-36.114 10.437-10.437 22.59-18.632 36.11-24.351 14.003-5.926 28.89-8.934 44.234-8.934m0-11.574C56.043 0 0 56.043 0 125.184 0 194.328 56.043 250.37 125.184 250.37c69.144 0 125.187-56.043 125.187-125.187C250.371 56.043 194.305 0 125.184 0zm0 0"/><path fill="#d7492d" d="m168.82 128.219-42.965-73.313-42.96 73.313 42.96 26.062zm0 0"/><path fill="#d7492d" d="m82.895 136.805 42.96 63.011 42.965-63.011-42.965 26.343zm0 0"/><g fill="#fff"><path d="M168.195 126.621 125.23 53.31 82.27 126.62l42.96 26.063zm0 0"/><path d="m82.27 135.23 42.96 62.989 42.965-62.989-42.965 26.344zm0 0"/></g></svg>