<svg xmlns="http://www.w3.org/2000/svg" width="250" height="250"><path d="M23.61 169.797c-.25.578-.54 1.133-.872 1.668a22.053 22.053 0 0 0-3.02 9.484 121.516 121.516 0 0 0 9.485 15.95c.195-1.981.633-3.93 1.305-5.801.77-2.391.738-4.97-.082-7.34a113.011 113.011 0 0 1-6.817-13.961zM15 97.234a11.016 11.016 0 0 0 5.176-4.894 114.306 114.306 0 0 1 5.605-14.75c-.601.207-1.218.367-1.847.476a20.5 20.5 0 0 0-8.856 4.028 122.788 122.788 0 0 0-5.332 18.16A22.739 22.739 0 0 1 15 97.234zM94.531 13.516a10.56 10.56 0 0 0 6.793 2.156 107.396 107.396 0 0 1 15.121-2.3c-.539-.477-1.035-1-1.484-1.56a20.556 20.556 0 0 0-7.055-5.53 114.833 114.833 0 0 0-18.156 4.25 22.699 22.699 0 0 1 4.781 2.984zM72.434 22.54a10.515 10.515 0 0 0 6.972.675A106.65 106.65 0 0 1 93.81 17.66a12.001 12.001 0 0 1-1.715-1.176 20.394 20.394 0 0 0-8.168-3.925 115.157 115.157 0 0 0-16.871 8.054 22.33 22.33 0 0 1 5.379 1.926zM23.27 74.281a10.763 10.763 0 0 0 6.023-3.664 112.675 112.675 0 0 1 8.535-13.25c-.664.082-1.332.106-2 .078a20.257 20.257 0 0 0-9.281 1.961 121.184 121.184 0 0 0-9.004 16.711 22.689 22.689 0 0 1 5.727-1.836zM52.637 36.102c2.39.535 4.898.218 7.082-.895a109.138 109.138 0 0 1 12.86-8.465 12.224 12.224 0 0 1-1.903-.777 20.087 20.087 0 0 0-8.88-2.098 119.054 119.054 0 0 0-14.839 11.5c1.918 0 3.824.246 5.68.735zM36.004 53.605a10.64 10.64 0 0 0 6.86-2.48A111.02 111.02 0 0 1 53.68 40.187a12.453 12.453 0 0 1-2.04-.359 20 20 0 0 0-9.199-.133c-.316.32-.636.633-.949.957a122.636 122.636 0 0 0-11.336 13.5 22.14 22.14 0 0 1 5.848-.547zM11.531 121.453a11.292 11.292 0 0 0 4.145-6.121c.476-5.18 1.3-10.324 2.465-15.394-.543.328-1.114.613-1.703.851a20.95 20.95 0 0 0-7.88 5.871 125.604 125.604 0 0 0-1.515 18.828 23.203 23.203 0 0 1 4.488-4.035zM197.734 216.29a10.546 10.546 0 0 0-7.086.894 109.183 109.183 0 0 1-12.851 8.46c.652.208 1.289.47 1.898.782a20.115 20.115 0 0 0 8.88 2.097 119.054 119.054 0 0 0 14.84-11.5c-1.919 0-3.825-.246-5.68-.734zM238.836 130.941a11.303 11.303 0 0 0-4.145 6.106 116.472 116.472 0 0 1-2.464 15.398 12.156 12.156 0 0 1 1.703-.851 20.973 20.973 0 0 0 7.882-5.887 125.965 125.965 0 0 0 1.516-18.816 23.191 23.191 0 0 1-4.492 4.05zM155.836 238.879a10.598 10.598 0 0 0-6.79-2.16 106.892 106.892 0 0 1-15.124 2.304c.539.477 1.035.997 1.484 1.555a20.567 20.567 0 0 0 7.055 5.535 114.88 114.88 0 0 0 18.16-4.25 22.47 22.47 0 0 1-4.785-2.984zM108.656 241.992a10.952 10.952 0 0 0-5.394-4.851 106.79 106.79 0 0 1-14.602-4.125c.278.625.508 1.27.684 1.925a21.433 21.433 0 0 0 4.351 8.125 114.969 114.969 0 0 0 18.059 3.551 23.28 23.28 0 0 1-3.098-4.625zm0 0"/><path d="M226.504 158.902s.25-.035.277-.07c2.18-7.16 4.633-14.64 4.633-22.348 0-3.382.2-6.738.2-10.203a107.935 107.935 0 0 0-.985-12.5h.219v-.16a133.8 133.8 0 0 0-4.95-22.316h-.03s-.052-.04-.06-.075c-14.187-43.199-53.937-74.37-100.617-74.37-47.476 0-87.785 32.265-101.316 76.624 0 0-.016.024-.031.055a111.493 111.493 0 0 0-4.832 32.582c-.02 4.18.215 8.352.703 12.5h.351v.16a133.043 133.043 0 0 0 4.664 22.317h-.109s-.02.035-.016.066c14.196 43.191 53.91 74.363 100.579 74.363 47.492.004 87.793-32.265 101.32-76.625zM35.89 126.2c0-50.918 40.058-92.34 89.293-92.34 49.238 0 89.296 41.422 89.296 92.34 0 50.914-40.058 92.34-89.296 92.34-49.235 0-89.293-41.426-89.293-92.34zm0 0"/><path d="M85.629 235.941a11.196 11.196 0 0 0-4.215-5.847 107.523 107.523 0 0 1-13.527-7.235c.144.66.238 1.328.277 2 .23 3.16 1.145 6.23 2.68 9a114.708 114.708 0 0 0 16.922 7.344 23.796 23.796 0 0 1-2.137-5.262zM64.316 225.102a11.376 11.376 0 0 0-3.054-6.75 111.606 111.606 0 0 1-11.649-9.891c.012.684-.035 1.363-.133 2.035a22.035 22.035 0 0 0 .836 9.5 118.105 118.105 0 0 0 15.047 10.79 24.263 24.263 0 0 1-1.047-5.684zM164.738 16.453c.719 2.36 2.2 4.418 4.211 5.848a107.523 107.523 0 0 1 13.528 7.234c-.141-.66-.235-1.328-.278-2a21.727 21.727 0 0 0-2.683-9 114.535 114.535 0 0 0-16.93-7.363 23.514 23.514 0 0 1 2.152 5.281zM235.379 155.16a10.99 10.99 0 0 0-5.176 4.89 113.192 113.192 0 0 1-5.61 14.75 12.14 12.14 0 0 1 1.852-.472 20.609 20.609 0 0 0 8.864-4.047 123.191 123.191 0 0 0 5.328-18.144 22.86 22.86 0 0 1-5.258 3.023zM214.363 198.79a10.605 10.605 0 0 0-6.855 2.476 111.02 111.02 0 0 1-10.82 10.941c.687.063 1.367.184 2.035.36 3.015.757 6.164.8 9.199.132.316-.32.637-.633.953-.957a121.914 121.914 0 0 0 11.336-13.5 22.125 22.125 0 0 1-5.848.547zM204.688 42.46a11.58 11.58 0 0 0 1.69 7.38 113.4 113.4 0 0 1 9.34 12.023c.13-.64.305-1.27.528-1.886 1.07-3.102 1.434-6.403 1.07-9.664a122.357 122.357 0 0 0-8.437-9.665 130.914 130.914 0 0 0-4.074-4 24.115 24.115 0 0 1-.118 5.813zM227.098 178.11a10.79 10.79 0 0 0-6.032 3.667 113.36 113.36 0 0 1-8.535 13.25 12.22 12.22 0 0 1 2-.074c3.203.09 6.38-.578 9.274-1.957a121.034 121.034 0 0 0 9.023-16.707 22.526 22.526 0 0 1-5.73 1.82zM117.969 9.406c1.66 1.93 3.949 3.211 6.465 3.617h.75c4.75.004 9.496.317 14.207.938a13.24 13.24 0 0 1-1.11-1.813 21.058 21.058 0 0 0-5.75-6.902 117.62 117.62 0 0 0-7.344-.25c-3.761 0-7.492.18-11.19.54a23.142 23.142 0 0 1 3.972 3.87zM132.402 242.984a10.782 10.782 0 0 0-6.468-3.613h-.75c-4.75 0-9.5-.312-14.211-.937.422.574.793 1.18 1.113 1.812a20.979 20.979 0 0 0 5.75 6.902c2.437.153 4.887.25 7.348.25 3.757 0 7.488-.175 11.187-.535a23.024 23.024 0 0 1-3.969-3.879zM13.05 145.879a11.495 11.495 0 0 0 2.829-6.887c-.465-4.25-.7-8.52-.703-12.793 0-.93.012-1.851.035-2.777a12.82 12.82 0 0 1-1.5 1.215 21.348 21.348 0 0 0-6.527 7.449c.289 6.289 1.054 12.55 2.293 18.726a23.385 23.385 0 0 1 3.574-4.933zM45.68 209.934a11.6 11.6 0 0 0-1.696-7.383 113.319 113.319 0 0 1-9.336-12.02c-.128.64-.304 1.274-.527 1.89a22.044 22.044 0 0 0-1.078 9.65 121.975 121.975 0 0 0 12.52 13.675 24.12 24.12 0 0 1 .117-5.812zM186.04 27.297a11.425 11.425 0 0 0 3.058 6.75 111.967 111.967 0 0 1 11.644 9.89c-.008-.68.04-1.359.137-2.035a21.976 21.976 0 0 0-.84-9.5 118.214 118.214 0 0 0-15.047-10.789c.578 1.848.93 3.754 1.047 5.684zM141.715 10.402a10.952 10.952 0 0 0 5.394 4.852 106.947 106.947 0 0 1 14.602 4.125 13.264 13.264 0 0 1-.684-1.926 21.404 21.404 0 0 0-4.351-8.125 115.467 115.467 0 0 0-18.055-3.555 23.459 23.459 0 0 1 3.094 4.63zM19.469 169.441a11.559 11.559 0 0 0 1.406-7.125 114.911 114.911 0 0 1-3.836-15.25c-.367.524-.77 1.016-1.21 1.477a21.712 21.712 0 0 0-4.895 8.703 122.09 122.09 0 0 0 6.035 17.75 23.846 23.846 0 0 1 2.5-5.555zM236.672 127.762a21.41 21.41 0 0 0 6.531-7.453 124.918 124.918 0 0 0-2.297-18.73 23.444 23.444 0 0 1-3.582 4.937 11.447 11.447 0 0 0-2.828 6.886 118.658 118.658 0 0 1 .668 15.57c.469-.44.973-.847 1.508-1.21zM226.762 82.598c.25-.575.539-1.133.867-1.664a21.91 21.91 0 0 0 3.027-9.473 120.103 120.103 0 0 0-9.5-15.973 24 24 0 0 1-1.3 5.801 11.567 11.567 0 0 0 .078 7.34 112.917 112.917 0 0 1 6.828 13.969zM230.902 82.953a11.547 11.547 0 0 0-1.406 7.121 115.216 115.216 0 0 1 3.836 15.25c.367-.52.77-1.011 1.207-1.472a21.729 21.729 0 0 0 4.902-8.704 122.107 122.107 0 0 0-6.039-17.75 23.92 23.92 0 0 1-2.5 5.555zM177.938 229.852a10.504 10.504 0 0 0-6.977-.68 107.071 107.071 0 0 1-14.395 5.555c.602.343 1.172.738 1.707 1.175a20.394 20.394 0 0 0 8.168 3.926 115.2 115.2 0 0 0 16.875-8.055 22.32 22.32 0 0 1-5.379-1.921zm0 0"/><path fill="red" d="m169.82 163.762-20.808-28.215a31.963 31.963 0 0 0 9.351-5.723c5.047-4.469 11.063-12.883 11.063-27.613a31.369 31.369 0 0 0-9.727-23.941c-10.289-9.442-23.847-9.141-28.195-9.141H90.16c-6.605.047-11.93 5.426-11.914 12.031 0 .25.04.633.04.89v10.81h58.25c5.296.163 9.519 4.492 9.546 9.792v2.27c-.059 5.226-4.32 9.426-9.547 9.41h-9.191a11.926 11.926 0 0 0-9.594 19l32.871 44.574c3.902 5.301 11.367 6.43 16.664 2.524s6.426-11.368 2.524-16.664zm0 0"/><path d="M78.285 114.328v55.945h.14c.774 7.239 6.919 12.707 14.196 12.637 7.23 0 13.324-5.398 14.195-12.574l.157-56zm0 0"/></svg>