<svg xmlns="http://www.w3.org/2000/svg" width="250" height="250"><linearGradient id="a" x1="0" x2="1" y1=".5" y2=".5" gradientTransform="matrix(-250 0 0 -227.9414 250 250)" gradientUnits="userSpaceOnUse"><stop offset="0" stop-color="#929297"/><stop offset=".78" stop-color="#88878d"/><stop offset="1" stop-color="#bab9c6"/></linearGradient><linearGradient id="b" x1="0" x2="1" y1=".5" y2=".5" gradientTransform="scale(250 227.9414)" gradientUnits="userSpaceOnUse"><stop offset="0" stop-color="#919fb7"/><stop offset="1" stop-color="#f8fafe"/></linearGradient><path fill="url(#a)" d="M127.781 214.383c42.297.176 79.692-21.051 102.324-53.27a124.818 124.818 0 0 0 19.579-43.98c.21 2.949.316 5.926.316 8.926C250 194.508 194.645 250 126.363 250 52.172 250 0 198.656 0 135.316 0 86.004 31.629 43.957 76.012 27.758c10.785-3.688 21.808-5.7 33.297-5.7 53.37 0 99.48 43.372 99.48 96.876 0 9.191-1.277 18.086-6.508 26.511 1.965-5.199 2.242-9.054 2.242-12.976 0-44.457-37.367-79.067-81.714-79.067-44.344 0-80.293 36.035-80.293 80.489 0 37.648 25.78 69.257 60.613 78.058 7.098 1.422 14.355 2.403 24.652 2.434zm0 0"/><path fill="url(#b)" d="M122.219 35.617c-42.297-.176-79.692 21.051-102.324 53.27a124.818 124.818 0 0 0-19.579 43.98c-.21-2.949-.316-5.926-.316-8.926C0 55.492 55.355 0 123.637 0 197.828 0 250 51.344 250 114.684c0 49.312-31.629 91.359-76.012 107.558-10.785 3.688-21.808 5.7-33.297 5.7-53.37 0-99.48-43.372-99.48-96.876 0-9.191 1.277-18.086 6.508-26.511-1.965 5.199-2.242 9.054-2.242 12.976 0 44.457 37.367 79.067 81.714 79.067 44.344 0 80.293-36.036 80.293-80.489 0-37.648-25.78-69.257-60.613-78.058-7.098-1.422-14.355-2.403-24.652-2.434zm0 0"/></svg>