<svg xmlns="http://www.w3.org/2000/svg" width="250" height="250"><path d="M3.969 128.64C1.777 61.978 54.043 6.157 120.707 3.97c66.668-2.192 122.484 50.074 124.676 116.738 2.191 66.668-50.074 122.484-116.742 124.676C61.977 247.574 6.156 195.309 3.969 128.64zm0 0"/><path fill="#fff" d="M128.742 88.164c4.832-7.406 10.871-13.203 18.117-17.39 7.246-4.348 15.301-6.524 24.157-6.524v43.723H159.66c-10.305 0-18.035 2.254-23.187 6.761-5.153 4.348-7.73 12.079-7.73 23.188v62.562H87.44V65.7h41.301zm0 0"/></svg>