<svg xmlns="http://www.w3.org/2000/svg" xmlns:xlink="http://www.w3.org/1999/xlink" width="250" height="250"><linearGradient id="a"><stop offset="0" stop-color="#f9c300"/><stop offset="1" stop-color="#f2e900"/></linearGradient><linearGradient xlink:href="#a" id="b" x1="61.11" x2="146.395" y1="205.225" y2="119.945" gradientUnits="userSpaceOnUse"/><linearGradient xlink:href="#a" id="c" x1="47.83" x2="133.11" y1="191.945" y2="106.66" gradientUnits="userSpaceOnUse"/><linearGradient xlink:href="#a" id="d" x1="34.445" x2="119.725" y1="178.555" y2="93.275" gradientUnits="userSpaceOnUse"/><linearGradient xlink:href="#a" id="e" x1="52.945" x2="138.225" y1="197.055" y2="111.775" gradientUnits="userSpaceOnUse"/><path fill="url(#b)" d="M110.29 157.453a8.998 8.998 0 0 1-5.587-16.031 9.002 9.002 0 0 1 10.387-.598c.52.328 1.117.5 1.73.5.637 0 1.262-.172 1.809-.5a3.422 3.422 0 0 0 1.68-3.129c-.348-4.828 3.187-9.07 8-9.593.332-.04.668-.055 1-.055a8.93 8.93 0 0 1 4.793 1.387c.52.328 1.12.504 1.738.5a3.49 3.49 0 0 0 1.805-.5h.039a3.425 3.425 0 0 0 1.64-3.11c-.351-4.87 3.25-9.133 8.11-9.605.293 0 .586-.04.875-.04a9 9 0 0 1 9 9c0 4.973-4.028 9-9 9a8.94 8.94 0 0 1-4.797-1.382 3.243 3.243 0 0 0-1.73-.5 3.444 3.444 0 0 0-1.813.5 3.421 3.421 0 0 0-1.672 3.133c.031.472.031.949 0 1.422a9.003 9.003 0 0 1-9 8.222c-1.7 0-3.363-.48-4.797-1.39a3.281 3.281 0 0 0-1.734-.5 3.615 3.615 0 0 0-1.813.5h-.039a3.424 3.424 0 0 0-1.633 3.113 9.81 9.81 0 0 1 0 1.437 9 9 0 0 1-8.09 8.16c-.3.036-.601.055-.902.06zm0 0"/><path fill="url(#c)" d="M110.29 134.648a9 9 0 0 1-1.036-17.949c.351-.039.7-.058 1.05-.058 1.7 0 3.36.48 4.798 1.39a3.29 3.29 0 0 0 1.726.5 3.594 3.594 0 0 0 1.813-.5 3.416 3.416 0 0 0 1.68-3.133c-.352-4.87 3.25-9.136 8.113-9.601a8.13 8.13 0 0 1 .87-.043 9 9 0 0 1 1.051 17.957 9.005 9.005 0 0 1-5.844-1.324 3.15 3.15 0 0 0-1.738-.5 3.44 3.44 0 0 0-1.808.5 3.426 3.426 0 0 0-1.676 3.129c.04.48.04.96 0 1.437a8.996 8.996 0 0 1-8.09 8.168c-.293 0-.59.043-.883.043zm0 0"/><path fill="url(#d)" d="m116.664 108.21-.367-1.855c.629-.261.93-.984.672-1.617l1.418-.941c.062.062.133.121.207.172l-1.79 4.277a.577.577 0 0 0-.163 0m.043-6.762 1.437.95a1.242 1.242 0 0 0 0 .96l-1.422.942a1.247 1.247 0 0 0-1.648-.106l-.75-.675c.25-.395.25-.895 0-1.29l.738-.671a1.242 1.242 0 0 0 1.645-.117m-3.637-3.09c.07-.032.137-.067.203-.106l1.535 1.598a1.25 1.25 0 0 0-.14 1.191.85.85 0 0 0 .085.168l-.73.657a1.225 1.225 0 0 0-1.45-.04l-1.284-1.28c.308-.446.289-1.04-.051-1.466l.73-.828c.336.2.746.23 1.106.078m3.898 2.7a1.245 1.245 0 0 0-.664-1.63h-.031l.367-1.925c.078 0 .156-.008.234-.024l1.739 4.364c-.078.05-.149.105-.215.172zm-12.629-3.43c.149-.059.61-.309.684-.668l1.707.324c-.012.25.059.5.2.711l-1.532 1.535a1.207 1.207 0 0 0-.719-.215zm9.258.297c.164-.227.25-.5.238-.781l1.672-.395a1.225 1.225 0 0 0 .684.648l-.367 1.926a1.166 1.166 0 0 0-.5.098c-.07.027-.14.062-.203.101zm-2.902-3 1 1.398a1.25 1.25 0 0 0-.082 1.621l-.723.825a1.23 1.23 0 0 0-1.277 0l-.653-.723a1.243 1.243 0 0 0-.136-1.66l.957-1.438a.831.831 0 0 0 .386.082c.172 0 .344-.035.5-.105M105.11 96.5a1.136 1.136 0 0 0 0-.23l4.055-1.754c.066.09.145.175.23.25l-.94 1.414a1.248 1.248 0 0 0-.95 0 1.244 1.244 0 0 0-.668.675zm5.961-1.824c.059-.07.114-.145.16-.223l4.192 1.578c-.012.09-.012.18 0 .27l-1.684.394a1.236 1.236 0 0 0-1.613-.644h-.047zm-.925-2.13c-.375.005-.73.18-.961.481-.23.297-.313.684-.223 1.047l-4.04 1.75a.924.924 0 0 0-.175-.23 1.245 1.245 0 0 0-1.762 1.762l.125.078a8.98 8.98 0 0 0-1.77 4.5 9.125 9.125 0 0 0-.042.925c0 4.973 4.027 9 9 9 .305 0 .613-.015.918-.05a8.717 8.717 0 0 0 4.61-1.875s.03.054.05.078a1.063 1.063 0 0 0 1.434-.067c.39-.39.418-1.011.066-1.433a.85.85 0 0 0-.145-.121l1.786-4.301a1.242 1.242 0 0 0 1.48-.942 1.238 1.238 0 0 0-1.242-1.511 1.136 1.136 0 0 0-.23 0l-1.75-4.367c.585-.36.769-1.13.406-1.715a1.248 1.248 0 0 0-1.715-.407 1.234 1.234 0 0 0-.414.426L111.395 94a1.248 1.248 0 0 0-1-1.45h-.204zm0 0"/><path fill="url(#e)" d="M125 197.5c-37.113-.047-68.16-28.2-71.828-65.133-3.668-36.933 21.234-70.64 57.613-77.988 36.38-7.344 72.41 14.059 83.363 49.52 10.954 35.46-6.734 73.453-40.921 87.902A72.158 72.158 0 0 1 125 197.5zM125 74c-24.344-.004-45.3 17.188-50.055 41.063-4.75 23.874 8.024 47.785 30.512 57.101 22.492 9.316 48.43 1.453 61.957-18.789 13.527-20.238 10.871-47.215-6.344-64.43A50.694 50.694 0 0 0 125 74zm0 0"/></svg>