<svg xmlns="http://www.w3.org/2000/svg" width="250" height="250"><path fill="#163448" d="M172.055 7.883C157.457 3.164 141.832.5 125.953.03 111.48.215 97.148 2.242 83.574 6.027 38.691 19.035-.43 73.547 0 128.06c0 5.379 1.516 61.949 52.063 98.968 10.472 8.04 23.07 14.336 36.98 18.485 39.512 11 76.723-1.54 82.32-3.469 59.473-20.023 78.54-79.938 78.504-117.7.035-52.011-36.418-102.484-77.812-116.46zm0 0"/><path fill="#698597" d="M223.098 61.902c-3.801-5.941-8.286-11.62-13.403-16.972-.496-.524-6.093-6.668-7.21-6.196-.298.121 4.937 6.516 5.234 6.887 4.554 5.902 8.55 12.035 11.953 18.363 9.02 17.184 13.539 35.516 13.305 53.993v7.628c0 .524-.395 2.977.359 3.348.758.371 2.207-3.816 2.309-4.187a59.698 59.698 0 0 0 2.074-12.86c.761-17.328-4.266-34.52-14.621-50.004zm0 0"/><path fill="#d3e5ef" d="M196.754 38.238C176.5 15.938 148.512 2.11 117.723 2.11c-30.79 0-58.91 13.805-79.032 36.13s-32.93 53.175-32.93 87.343c0 34.172 12.548 64.922 32.93 87.246 20.383 22.324 48.243 36.125 79.032 36.125 30.789 0 58.91-13.8 79.03-36.125 20.118-22.324 32.93-53.176 32.93-87.246 0-34.07-12.546-65.02-32.93-87.344zm0 0"/><path fill="#163448" d="M140.445 79.57c-11.234-4.164-24.03-5.265-36.222-3.125a58.67 58.67 0 0 0-9.715 2.676c-.594 31.692 3.293 62.07 2.668 93.79 4.215 1.038 25.683 6.019 44.914-2.727 9.305-4.61 16.597-11.176 20.976-18.883 5.106-7.809 7.786-16.395 7.836-25.098-.066-3.098-.492-35.312-30.457-46.633zm0 0"/><path fill="#698597" d="M162.012 108.832c-.586-2.367-1.617-4.664-3.063-6.812-1.219-1.786-4.05-6.172-6.847-6.891-2.043-.52-1.122.844-.625 1.957 1.316 3 2.796 5.973 3.851 9.047a70.09 70.09 0 0 1 2.7 10.156c.23 1.238 0 4.336 1.152 5.402 1.152 1.067 2.207-1.859 2.472-2.699a19.387 19.387 0 0 0 .36-10.16zm0 0"/><path fill="#cd2536" d="M155.82 116.363c-1.3-7.789-4.66-15.304-9.879-22.101-8.625-10.88-21.632-17.817-36.218-17.817-25.918 0-46.926 22.004-46.926 49.137s21.008 49.137 46.926 49.137c25.914 0 46.957-21.88 46.957-49.137 0-3.082-.29-6.164-.86-9.219zm0 0"/><path fill="#f53e3f" d="M74.914 142.012c-6.98-19.032 2.074-34.692-4.117-36.254-1.43-.27-2.945-.012-4.082.695-2.59 6.332-3.899 12.926-3.887 19.55-.324 12.821 4.887 25.38 14.852 35.782 1.117.23 2.316.094 3.293-.37 3.558-2.134-2.766-10.435-6.059-19.403zm0 0"/></svg>