<svg xmlns="http://www.w3.org/2000/svg" xmlns:xlink="http://www.w3.org/1999/xlink" width="250" height="250"><linearGradient id="a"><stop offset="0" stop-color="#ff8b65"/><stop offset="1" stop-color="#ff3d56"/></linearGradient><linearGradient xlink:href="#a" id="b" x1="82.726" x2="167.274" y1="81.042" y2="81.042" gradientUnits="userSpaceOnUse"/><linearGradient xlink:href="#a" id="c" x1="84.003" x2="158.692" y1="164.116" y2="164.116" gradientUnits="userSpaceOnUse"/><path fill="#3e3e5e" d="M249.996 125c0 69.035-55.96 124.996-124.996 124.996S0 194.036 0 125 55.965 0 125 0s124.996 55.965 124.996 125zm0 0"/><path fill="#282841" stroke="#323250" stroke-miterlimit="10" stroke-width=".52768" d="M236.856 125c0 61.774-50.082 111.856-111.856 111.856-61.777 0-111.86-50.082-111.86-111.856C13.14 63.223 63.224 13.14 125 13.14c61.774 0 111.856 50.083 111.856 111.86zm0 0"/><path fill="url(#b)" d="M167.277 90.516a27.424 27.424 0 0 1-8.46 19.902l-23.184 22.336c9.586-11.777 9.164-29.164-1.582-40.43a29.235 29.235 0 0 0-2.524-2.344L84.07 44.254a4.365 4.365 0 0 1-1.343-3.074 4.368 4.368 0 0 1 1.226-3.125c10.922-11.34 28.965-11.672 40.3-.746l34.563 33.304a27.396 27.396 0 0 1 8.461 19.903zm0 0"/><path fill="url(#c)" d="M117.098 146.934c-10.77-11.297-11.18-28.73-1.535-40.516l-22.981 22.14a28.052 28.052 0 0 0-8.586 19.946 28.049 28.049 0 0 0 8.219 20.101l51.922 51.926a4.385 4.385 0 0 0 6.199 0c11.129-11.129 11.129-29.172 0-40.3l-31.399-31.399.079-.074c-.649-.582-1.301-1.18-1.918-1.824zm0 0"/></svg>