<svg xmlns="http://www.w3.org/2000/svg" width="250" height="250"><linearGradient id="a" x1="23.494" x2="265.455" y1="220.812" y2="86.423" gradientUnits="userSpaceOnUse"><stop offset="0" stop-color="#ff3a54"/><stop offset=".417" stop-color="#ffb700"/><stop offset=".724" stop-color="#32c065"/><stop offset="1" stop-color="#1239ff"/></linearGradient><path fill="url(#a)" fill-rule="evenodd" d="M0 129.379c.055 41.39 19.242 80.258 51.617 104.559.606-2.82.906-6.063.906-9.758V99.105c0-9.925-2.058-16.593-6.168-19.996-2.738-2.27-8.078-3.968-16.027-5.105V63.793h77.692v33.613c7.945-11.062 14.793-19.148 20.55-24.25 10.961-9.644 22.328-14.469 34.114-14.469 12.332 0 21.511 4.258 27.539 12.766 4.382 5.957 6.582 12.762 6.582 20.418 0 7.094-1.782 13.184-5.344 18.29-4.66 6.808-11.652 10.214-20.969 10.214-8.77 0-17.125-5.672-25.074-17.016-3.836-5.39-7.668-8.086-11.504-8.086-6.851 0-12.879 4.543-18.086 13.618-4.11 7.375-6.168 16.308-6.168 26.8v80.407c0 13.328 1.918 22.261 5.754 26.8 3.836 4.54 11.785 8.192 24.254 6.805 51.863-1.578 110.254-62.8 110.332-128.312C250.004 49.937 194.04 0 125 0S-.004 57.926 0 129.379zm0 0"/></svg>