<svg xmlns="http://www.w3.org/2000/svg" width="250" height="250"><path d="M250 125c0 69.035-55.965 125-125 125S0 194.035 0 125 55.965 0 125 0s125 55.965 125 125zm0 0"/><path fill="#fff" d="M157.988 139.992c0 2.754.094 2.852 2.778 2.852 6.39.008 12.777.066 19.164-.035 1.953-.032 2.726.52 2.68 2.574-.118 4.926-.106 9.86-.008 14.785.039 1.898-.625 2.59-2.524 2.566-6.527-.07-13.055.024-19.578-.058-1.813-.024-2.434.558-2.406 2.39.12 7.91.133 15.825.168 23.735.011 2.71-.157 2.863-2.793 2.863-4.93.008-9.86.008-14.785 0-2.813 0-2.836-.012-2.836-2.742.015-7.918-.012-15.828.105-23.742.031-1.942-.594-2.532-2.5-2.504-6.871.086-13.75.105-20.617-.008-2.117-.035-2.598.832-2.57 2.719.109 7.91.054 15.824.207 23.734.039 2.078-.684 2.629-2.653 2.586-4.93-.113-9.86-.039-14.789-.039-2.941 0-2.953 0-2.945-2.86.016-7.917 0-15.828.102-23.742.023-1.855-.633-2.406-2.418-2.382-6.524.07-13.051.035-19.579.023-2.644 0-2.699-.066-2.691-2.684.016-4.93.094-9.859.043-14.785-.02-1.8.644-2.441 2.453-2.418 6.524.075 13.05-.02 19.578.059 1.86.023 2.57-.512 2.547-2.48-.113-8.817-.137-17.633-.074-26.45.012-1.926-.637-2.547-2.535-2.52-6.387.083-12.774.04-19.16.028-2.543 0-2.778-.234-2.782-2.68-.007-4.93.047-9.859-.03-14.789-.028-1.808.644-2.437 2.448-2.414 6.524.074 13.051-.035 19.575.063 2.03.031 2.652-.684 2.62-2.672-.128-8.117-.113-16.242-.18-24.363-.007-1.375.49-2.047 1.946-2.04 5.414.036 10.828.036 16.242 0 1.47-.007 1.918.649 1.91 2.036-.015 6.941.024 13.882.055 20.824.004 1.039.043 2.082.11 3.117.191 3.063.199 3.063 3.183 3.066h19.785c2.543 0 2.684-.144 2.676-2.75-.015-7.918.024-15.828-.11-23.742-.034-2.062.68-2.617 2.641-2.574 5.067.11 10.133.11 15.204 0 1.94-.039 2.515.684 2.507 2.555-.027 7.91.063 15.824.11 23.734.015 2.695.082 2.77 2.851 2.77 6.25 0 12.5.058 18.746-.032 1.914-.027 2.739.45 2.684 2.559-.121 4.785.008 9.578.023 14.367.008 2.852-.097 2.965-2.886 2.969-6.453.008-12.914.059-19.368-.031-1.925-.028-2.554.62-2.5 2.535.114 4.437.172 21.793.176 26.027zm-45.304.328c-.036 1.864.597 2.582 2.53 2.559a806.702 806.702 0 0 1 20.395 0c1.895.027 2.575-.57 2.547-2.5a1635.49 1635.49 0 0 1-.144-26.629c0-1.715-.598-2.328-2.309-2.313-6.937.063-13.875.079-20.808-.007-1.887-.024-2.387.726-2.352 2.472.082 4.364.223 21.977.14 26.418zm0 0"/></svg>