<svg xmlns="http://www.w3.org/2000/svg" width="250" height="250"><path d="M250 125c0 69.035-55.965 125-125 125S0 194.035 0 125 55.965 0 125 0s125 55.965 125 125zm0 0"/><path fill="#fff" d="M170.656 175.34c-7.023 0-13.351.137-19.668-.145-.96-.043-2.14-1.898-2.695-3.144-4.5-10.094-8.957-20.207-13.219-30.403-1.082-2.597-2.52-3.562-5.3-3.414-3.989.215-8 .055-12.415.055-.105 1.973-.261 3.578-.27 5.184-.023 9.406-.105 18.812.044 28.218.043 2.918-.938 3.864-3.836 3.75-5.098-.199-10.211-.054-15.836-.054v-37.512c-5.477 0-10.438-.16-15.383.055-3.348.144-4.894-.84-4.637-4.422.25-3.442.133-6.918.032-10.371-.075-2.5.98-3.469 3.468-3.422 5.258.094 10.524.027 16.098.027v-9.277c-4.957 0-9.906-.168-14.836.058-3.543.165-5.16-.933-4.898-4.675.242-3.442.132-6.914.027-10.371-.066-2.332.918-3.204 3.215-3.165 5.262.083 10.523.024 16.531.024 0-4.441.137-8.652-.047-12.856-.12-2.875.88-3.832 3.809-3.812 15.543.117 31.086-.047 46.633.09 11.097.097 20 9.066 20.382 20.543.25 7.597.204 15.215 0 22.82-.207 7.774-3.484 13.899-10.84 17.242-2.562 1.164-2.171 2.57-1.253 4.594 4.379 9.691 8.664 19.422 12.957 29.156.652 1.457 1.12 2.992 1.937 5.227zm-53.172-80.77V120c8.418 0 16.442.082 24.461-.04 3.75-.054 5.961-2.323 6.16-5.964.243-4.55.239-9.11-.011-13.656-.176-3.203-1.985-5.645-5.438-5.715-8.285-.164-16.578-.055-25.172-.055zm0 0"/></svg>