<svg xmlns="http://www.w3.org/2000/svg" width="250" height="250"><path fill="#fff" d="M0 0h250v250H0z"/><g fill="#4aa956"><path d="m76.5 202.926-8.707-13.121h-5.45v13.12H54.2v-41.26h12.528c5.128 0 9.097 1.25 11.906 3.753 2.844 2.469 4.27 5.852 4.27 10.148 0 2.543-.544 4.934-1.63 7.176-1.05 2.203-2.68 3.942-4.886 5.215l9.605 14.969zm-14.156-20.969h5.785c2.207 0 3.82-.637 4.832-1.906 1.008-1.309 1.516-2.711 1.516-4.203 0-1.496-.43-2.918-1.293-4.262-.86-1.383-2.528-2.074-5-2.074h-5.84zM116.125 178.426v24.5h-7.133l-.558-3.926c-.864 1.57-2.082 2.82-3.653 3.758-1.535.894-3.351 1.344-5.449 1.344-2.246 0-4.117-.692-5.617-2.075-1.496-1.382-2.266-3.14-2.3-5.27v-18.331h7.862v15.418c.114 2.39 1.215 3.586 3.313 3.586 1.722 0 3.09-.84 4.101-2.524 1.047-1.68 1.575-3.847 1.575-6.5v-9.98zM141.402 177.191c2.133 0 4.082.524 5.84 1.57 1.797 1.009 3.223 2.485 4.27 4.43 1.05 1.942 1.574 4.262 1.574 6.95 0 2.691-.582 5.066-1.742 7.12-1.16 2.02-2.715 3.59-4.664 4.712-1.946 1.082-4.063 1.625-6.344 1.625-3.336 0-6.086-1.047-8.258-3.141v2.469h-7.863V158.69h7.808v21.414c1.047-.859 2.375-1.55 3.985-2.074 1.613-.558 3.41-.84 5.394-.84zm-2.808 19.79c1.16 0 2.226-.297 3.203-.895a6.687 6.687 0 0 0 2.414-2.469 7.193 7.193 0 0 0 .898-3.531c0-1.945-.636-3.55-1.91-4.82-1.273-1.274-2.808-1.907-4.605-1.907-1.535 0-2.883.356-4.043 1.063-1.164.71-1.988 1.664-2.473 2.86v6c1.348 2.468 3.52 3.698 6.516 3.698zM167.129 178.426v24.5h-7.863v-24.5zm-8.035-8.692c0-1.12.433-2.054 1.293-2.8.898-.786 1.91-1.18 3.035-1.18 1.086 0 2.058.394 2.918 1.18.863.746 1.293 1.68 1.293 2.8s-.43 2.055-1.293 2.805c-.86.746-1.832 1.121-2.918 1.121-1.125 0-2.137-.375-3.035-1.12-.86-.75-1.293-1.685-1.293-2.806zM196.063 200.738c-1.086.86-2.45 1.551-4.098 2.075-1.61.523-3.203.785-4.774.785-4.27 0-7.66-1.141-10.168-3.422-2.472-2.317-3.707-5.492-3.707-9.528 0-2.617.598-4.898 1.797-6.84 1.239-1.98 2.848-3.476 4.832-4.488a13.555 13.555 0 0 1 6.403-1.566c4.082 0 7.394 1.082 9.941 3.25l-3.82 5.047c-1.61-1.274-3.406-1.906-5.39-1.906-1.65 0-3.052.617-4.216 1.847-1.12 1.235-1.683 2.785-1.683 4.656 0 1.868.617 3.438 1.855 4.707 1.235 1.235 2.844 1.852 4.828 1.852 1.723 0 3.145-.469 4.27-1.402zM176.758 60.137l-52.11-30.352L73.84 59.59l-.11 60.043 51.243 30.351 51.785-29.695zm-52-21.18 38.484 22.488-38.27 22.489-38.484-22.489zm-4.434 98.582-38.703-22.383V70.398l38.598 22.489v44.652zm9.946-43.996 38.597-22.492v44.652l-38.597 22.598zm0 0"/></g></svg>