<?xml version="1.0" encoding="utf-8"?>
<!-- Generator: Adobe Illustrator 27.4.0, SVG Export Plug-In . SVG Version: 6.00 Build 0)  -->
<svg version="1.1" id="Layer_1" xmlns="http://www.w3.org/2000/svg" xmlns:xlink="http://www.w3.org/1999/xlink" x="0px" y="0px"
	 viewBox="0 0 500 500" style="enable-background:new 0 0 500 500;" xml:space="preserve">
<style type="text/css">
	.st0{fill:#18471E;}
	.st1{fill:#49C85B;}
	.st2{fill:#34A647;}
	.st3{fill:#4FCE6A;}
	.st4{fill:#4FAC5C;}
	.st5{fill:#4EAD5C;}
	.st6{fill:#2BBB47;}
</style>
<g id="Layer_1_00000138559044791540186530000012761063366980612743_">
	
		<g id="Layer_1_00000140003199990867141190000014555176473907986817_" transform="matrix( 1.7099609375, 0, 0, 1.7099609375, 29.5,76.95) ">
		<g>
			<g>
				<g>
					<path class="st0" d="M257.4,198.7l0.5-0.1l-27.5,0.1l-27.9,0v-2.1l-10,3v2.6h37.9h7.3v0h0.1L257.4,198.7 M173.4,2.8v3.8h58.5
						l-0.3,189.8l23.7-0.1L255.1,2.8h-24.8H173.4z"/>
					<path class="st1" d="M257.4,198.7h0.5v-0.1L257.4,198.7 M173.4,43V6.6V2.8h57h24.8l0.2,193.6l-23.7,0.1h-1.2l-28,0.1l0.1,0.1
						v2.1l27.9,0l27.5-0.1L257.8,0.2l-27.4,0.1h-59.6v0.3V43H173.4z"/>
					<path class="st2" d="M170.8,43V0.6V0.3L147.1,2v19.1L170.8,43z"/>
				</g>
			</g>
		</g>
		<g>
			<g>
				<g>
					<path class="st0" d="M187.9,202.1L187.9,202.1L187.9,202.1L187.9,202.1 M146.2,198.6h-2.8v-2.1l-6.9,2.1l-3.1,0.9v2.6h12.8h1.6
						h19.4l16.8-2.9l2.9-0.5l0.2-0.1H187h-0.1h-39.1H146.2 M184.6,78.2v-0.2h0.1L139,32.2l-0.2-0.2l-0.1-0.1l-13,12.3l0.2,0.1
						l35.1,35.8v116.3l23.7-0.1V78.2z"/>
					<path class="st1" d="M187.2,198.7L187.2,198.7h-0.2H187.2z"/>
					<path class="st3" d="M184.6,78.1v0.2v118.1l-23.7,0.1l-13.1,0.1h-1.6h-2.8l0.1,0.1v2.1h2.8h1.6h39.1h0.1h0.2h0.1v-2.1h-0.1
						V77.9l-47.6-48.7l-24.7,3.2L68.4,75.9v0.3l24.8-2l0.3-0.2l32.4-29.7l-0.2-0.1l13-12.3l0.1,0.1l0.2,0.2L184.6,78.1L184.6,78.1z"
						/>
				</g>
			</g>
		</g>
		
			<g id="Layer_1_00000183963503347945379900000018413968626110053764_" transform="matrix( -0.566131591796875, 0, 0, 0.566131591796875, 68.6,156) ">
			<g>
				<g>
					<g>
						<path class="st1" d="M-104.9,75l-0.8-0.2V75H-104.9 M67.3,75v-3.5l-114.8-0.3l-18.2-0.1l-35.9-0.1v-86.5l24.8,2.1l-34.9-13.2
							l-5.9-1.8l-3.5,0.6v1.9l15.4,10v90.6l58.2,0.1L67.3,75 M118.8-22.7l2.3,0.2v0L118.8-22.7z"/>
						<path class="st2" d="M-76.8-13.3l-24.8-2.1v86.5l35.9,0.1V30.7L-76.8-13.3z"/>
						<path class="st0" d="M-0.2-105.3l-20.2-20l-27.1,27l-70.1,69.8l5.9,1.8l34.9,13.2l11.1,44v-43l-14.8-10.2l33-34L-0.2-105.3
							 M72.8,74.9L67.3,75l-114.8-0.2l-58.2-0.1h-0.2l0.2,0.1l0.8,0.2l29.7,6h27.6h154.8L72.8,74.9 M72.5-8.7l-0.2,0.1l0.4,4.8
							l0.1,1l34.5,1.9v-3.6l13.5-15.2l-35-2.6h-0.2L72.5-8.7 M42.8-67.5v-10.9l-8-1L42.8-67.5z"/>
						<path class="st4" d="M107.3-0.8L72.8-2.7v77.6l34.5,6.2V-0.8 M85.8-23.1l-0.2,0.9h0.2l35,2.6l0.3-2.8l-2.3-0.2l-32.3-2.6
							L85.8-23.1 M58.8-93.1v40.9l36,1.7l-0.4-38.4L58.8-93.1z"/>
						<path class="st5" d="M58.8-51.4v-0.8l-1.8-1.1L58.8-51.4z"/>
						<path class="st6" d="M42.8-93v14.5v10.9v0.2l14.1,14.1l1.8,1.1v-40.9l-6.1,0L42.8-93z"/>
						<path class="st3" d="M42.8-78.4V-93l9.8-0.2l-34.6-35l-38.7-2.8l-26.8,26.8l-73.6,73.7v2.7l3.5-0.6l70.1-69.8l27.1-27l20.2,20
							l81.6,81.1l-14.1,15v80.7V75l5.5-0.2V-2.7l-0.1-1l-0.4-4.8l0.2-0.1l13-13.5l0.2-0.9l0.7-2.2l32.3,2.6l2.3,0.2l-0.1-0.4
							L94.8-50.4v0l-36-1.7v0.8l-1.8-1.8L42.8-67.4v-0.2l-8-11.9L42.8-78.4z"/>
					</g>
				</g>
			</g>
		</g>
	</g>
</g>
</svg>
