<svg xmlns="http://www.w3.org/2000/svg" width="250" height="250"><clipPath id="a"><path d="M250 125c0 69.035-55.965 125-125 125S0 194.035 0 125 55.965 0 125 0s125 55.965 125 125zm0 0"/></clipPath><linearGradient id="b" x1="-3.735" x2="289.763" y1="228.66" y2="-21.702" gradientUnits="userSpaceOnUse"><stop offset="0" stop-color="#12ff80"/><stop offset=".13" stop-color="#15fd85"/><stop offset=".29" stop-color="#1ff896"/><stop offset=".49" stop-color="#30f1b2"/><stop offset=".69" stop-color="#48e7d9"/><stop offset=".87" stop-color="#5fddff"/></linearGradient><g clip-path="url(#a)"><path fill="url(#b)" d="M0 0h250v250H0z"/></g><g fill="#121312"><path d="M195.016 124.953H177.94c-5.101 0-9.234 4.133-9.234 9.23v24.786c0 5.101-4.133 9.234-9.23 9.234H91.53a9.23 9.23 0 0 0-9.23 9.23v17.079c0 5.101 4.133 9.234 9.23 9.234h71.875c5.102 0 9.18-4.137 9.18-9.234v-13.7c0-5.101 4.133-8.718 9.23-8.718h13.2a9.235 9.235 0 0 0 9.234-9.235v-28.785c0-5.097-4.137-9.125-9.234-9.125zM82.297 91.027a9.228 9.228 0 0 1 9.23-9.23h67.899a9.235 9.235 0 0 0 9.234-9.234V55.483c0-5.097-4.137-9.23-9.234-9.23H87.594c-5.102 0-9.235 4.133-9.235 9.23v13.157c0 5.101-4.132 9.234-9.23 9.234H55.984c-5.097 0-9.23 4.137-9.23 9.234v28.813c0 5.101 4.148 9.027 9.25 9.027h17.074a9.235 9.235 0 0 0 9.234-9.234l-.015-24.684zM117.46 107.004h16.407c5.344 0 9.684 4.34 9.684 9.683v16.407c0 5.344-4.34 9.683-9.684 9.683h-16.406c-5.344 0-9.684-4.34-9.684-9.683v-16.406c0-5.344 4.34-9.684 9.684-9.684zm0 0"/></g></svg>