<svg xmlns="http://www.w3.org/2000/svg" width="250" height="250"><path fill="#fff" stroke="#231f20" stroke-miterlimit="10" stroke-width="2.88860508" d="M245.668 125.496c0 66.574-53.969 120.543-120.543 120.543-66.574 0-120.547-53.969-120.547-120.543C4.578 58.922 58.551 4.95 125.125 4.95s120.543 53.973 120.543 120.547zm0 0"/><path stroke="#231f20" stroke-miterlimit="10" stroke-width="2.88860508" d="M101.363 160.766c2.782 1.672 6.063 3.097 9.899 4.273 3.836 1.172 7.734 1.793 11.758 1.793 4.578 0 8.476-1.176 11.632-3.465 3.22-2.289 4.766-6.004 4.766-11.203 0-4.328-.988-7.855-2.906-10.64-1.922-2.786-4.395-5.325-7.367-7.551a75.31 75.31 0 0 0-9.653-6.125 49.323 49.323 0 0 1-9.652-6.746c-2.973-2.598-5.445-5.754-7.363-9.344-1.918-3.59-2.91-8.168-2.91-13.676 0-8.848 2.413-15.531 7.18-19.988 4.765-4.516 11.57-6.746 20.296-6.746 5.691 0 10.582.496 14.79 1.547 4.144 1.054 7.733 2.476 10.827 4.27l-3.96 12.5c-2.66-1.36-5.692-2.536-9.157-3.403-3.465-.926-6.992-1.36-10.582-1.36-5.012 0-8.602 1.051-10.89 3.094-2.29 2.102-3.407 5.32-3.407 9.777 0 3.465.992 6.434 2.91 8.848 1.918 2.414 4.395 4.64 7.364 6.684a165.112 165.112 0 0 0 9.652 6.125c3.469 2.105 6.683 4.52 9.656 7.363 2.969 2.848 5.445 6.25 7.363 10.21 1.918 3.962 2.907 8.911 2.907 14.852 0 3.899-.618 7.551-1.856 11.016s-3.156 6.496-5.691 9.035c-2.54 2.535-5.758 4.64-9.594 6.125-3.836 1.547-8.289 2.29-13.426 2.29-6.129 0-11.386-.618-15.781-1.794-4.457-1.175-8.168-2.722-11.262-4.703zm0 0"/><path d="M70.297 123.95c0 7.073-5.734 12.808-12.809 12.808s-12.808-5.735-12.808-12.809 5.734-12.812 12.808-12.812 12.809 5.738 12.809 12.812zM207.984 123.95c0 7.073-5.738 12.808-12.812 12.808s-12.809-5.735-12.809-12.809 5.735-12.812 12.809-12.812 12.812 5.738 12.812 12.812zm0 0"/></svg>