<svg xmlns="http://www.w3.org/2000/svg" width="250" height="250"><g fill="#14142a"><path d="M72.066 96.164h-.511c10.492-20.625 31.918-34.758 56.644-34.758 15.95 0 30.524 5.88 41.676 15.586h25.707c-14.988-21.035-39.586-34.754-67.383-34.754-42.422 0-77.379 31.946-82.129 73.098l53.375-.004v19.164H46.063l.019.149a82.406 82.406 0 0 0 4.57 19.023h48.785v48.789a82.336 82.336 0 0 0 19.168 4.586v-53.371h19.165v53.379a82.294 82.294 0 0 0 19.167-4.59v-48.793h48.79c3.32-8.953 5.136-18.64 5.136-28.754a82.525 82.525 0 0 0-5.136-28.75zm65.711 38.336H118.61v-19.164h19.168zm53.207 0h-34.039v-19.164h34.04a64.05 64.05 0 0 1 .718 9.586c0 3.254-.246 6.453-.719 9.578zm0 0"/><path d="M128.129 3.703c-66.945 0-121.211 54.27-121.211 121.211S61.184 246.13 128.128 246.13c66.946 0 121.212-54.274 121.212-121.215S195.074 3.704 128.129 3.704zm0 223.223c-56.34 0-102.012-45.672-102.012-102.012S71.79 22.902 128.13 22.902 230.14 68.574 230.14 124.914s-45.672 102.012-102.012 102.012zm0 0"/></g></svg>