<svg xmlns="http://www.w3.org/2000/svg" width="250" height="250"><filter id="a" width="100%" height="100%" x="0%" y="0%"><feColorMatrix in="SourceGraphic" values="0 0 0 0 1 0 0 0 0 1 0 0 0 0 1 0 0 0 1 0"/></filter><mask id="c"><g filter="url(#a)"><path fill-opacity=".3" d="M0 0h250v250H0z"/></g></mask><mask id="e"><g filter="url(#a)"><path fill-opacity=".063" d="M0 0h250v250H0z"/></g></mask><linearGradient id="f" x1="20.96" x2="79.11" y1="23.833" y2="23.833" gradientTransform="matrix(3.125 0 0 -3.125 0 256.25)" gradientUnits="userSpaceOnUse"><stop offset=".375" stop-opacity=".063"/><stop offset="1" stop-opacity="0"/></linearGradient><clipPath id="d"><path d="M0 0h250v250H0z"/></clipPath><mask id="h"><g filter="url(#a)"><path fill-opacity=".125" d="M0 0h250v250H0z"/></g></mask><linearGradient id="i" x1="20.95" x2="78.7" y1="23.979" y2="23.979" gradientTransform="matrix(3.125 0 0 -3.125 0 256.25)" gradientUnits="userSpaceOnUse"><stop offset=".375" stop-opacity=".125"/><stop offset="1" stop-opacity="0"/></linearGradient><clipPath id="g"><path d="M0 0h250v250H0z"/></clipPath><mask id="k"><g filter="url(#a)"><path fill-opacity=".188" d="M0 0h250v250H0z"/></g></mask><linearGradient id="l" x1="20.95" x2="78.31" y1="24.125" y2="24.125" gradientTransform="matrix(3.125 0 0 -3.125 0 256.25)" gradientUnits="userSpaceOnUse"><stop offset=".375" stop-opacity=".188"/><stop offset="1" stop-opacity="0"/></linearGradient><clipPath id="j"><path d="M0 0h250v250H0z"/></clipPath><mask id="n"><g filter="url(#a)"><path fill-opacity=".25" d="M0 0h250v250H0z"/></g></mask><linearGradient id="o" x1="20.95" x2="77.91" y1="24.268" y2="24.268" gradientTransform="matrix(3.125 0 0 -3.125 0 256.25)" gradientUnits="userSpaceOnUse"><stop offset=".375" stop-opacity=".25"/><stop offset="1" stop-opacity="0"/></linearGradient><clipPath id="m"><path d="M0 0h250v250H0z"/></clipPath><mask id="q"><g filter="url(#a)"><path fill-opacity=".313" d="M0 0h250v250H0z"/></g></mask><linearGradient id="r" x1="20.95" x2="77.52" y1="24.414" y2="24.414" gradientTransform="matrix(3.125 0 0 -3.125 0 256.25)" gradientUnits="userSpaceOnUse"><stop offset=".375" stop-opacity=".313"/><stop offset="1" stop-opacity="0"/></linearGradient><clipPath id="p"><path d="M0 0h250v250H0z"/></clipPath><mask id="t"><g filter="url(#a)"><path fill-opacity=".375" d="M0 0h250v250H0z"/></g></mask><linearGradient id="u" x1="20.95" x2="77.12" y1="24.557" y2="24.557" gradientTransform="matrix(3.125 0 0 -3.125 0 256.25)" gradientUnits="userSpaceOnUse"><stop offset=".375" stop-opacity=".375"/><stop offset="1" stop-opacity="0"/></linearGradient><clipPath id="s"><path d="M0 0h250v250H0z"/></clipPath><mask id="w"><g filter="url(#a)"><path fill-opacity=".438" d="M0 0h250v250H0z"/></g></mask><linearGradient id="x" x1="20.95" x2="76.73" y1="24.701" y2="24.701" gradientTransform="matrix(3.125 0 0 -3.125 0 256.25)" gradientUnits="userSpaceOnUse"><stop offset=".375" stop-opacity=".438"/><stop offset="1" stop-opacity="0"/></linearGradient><clipPath id="v"><path d="M0 0h250v250H0z"/></clipPath><mask id="z"><g filter="url(#a)"><path fill-opacity=".5" d="M0 0h250v250H0z"/></g></mask><linearGradient id="A" x1="20.95" x2="76.33" y1="24.836" y2="24.836" gradientTransform="matrix(3.125 0 0 -3.125 0 256.25)" gradientUnits="userSpaceOnUse"><stop offset=".375" stop-opacity=".5"/><stop offset="1" stop-opacity="0"/></linearGradient><clipPath id="y"><path d="M0 0h250v250H0z"/></clipPath><mask id="C"><g filter="url(#a)"><path fill-opacity=".563" d="M0 0h250v250H0z"/></g></mask><linearGradient id="D" x1="20.95" x2="75.94" y1="24.98" y2="24.98" gradientTransform="matrix(3.125 0 0 -3.125 0 256.25)" gradientUnits="userSpaceOnUse"><stop offset=".375" stop-opacity=".563"/><stop offset="1" stop-opacity="0"/></linearGradient><clipPath id="B"><path d="M0 0h250v250H0z"/></clipPath><mask id="F"><g filter="url(#a)"><path fill-opacity=".625" d="M0 0h250v250H0z"/></g></mask><linearGradient id="G" x1="20.95" x2="75.54" y1="25.123" y2="25.123" gradientTransform="matrix(3.125 0 0 -3.125 0 256.25)" gradientUnits="userSpaceOnUse"><stop offset=".375" stop-opacity=".625"/><stop offset="1" stop-opacity="0"/></linearGradient><clipPath id="E"><path d="M0 0h250v250H0z"/></clipPath><mask id="I"><g filter="url(#a)"><path fill-opacity=".688" d="M0 0h250v250H0z"/></g></mask><linearGradient id="J" x1="20.95" x2="75.14" y1="25.264" y2="25.264" gradientTransform="matrix(3.125 0 0 -3.125 0 256.25)" gradientUnits="userSpaceOnUse"><stop offset=".375" stop-opacity=".688"/><stop offset="1" stop-opacity="0"/></linearGradient><clipPath id="H"><path d="M0 0h250v250H0z"/></clipPath><mask id="L"><g filter="url(#a)"><path fill-opacity=".75" d="M0 0h250v250H0z"/></g></mask><linearGradient id="M" x1="20.95" x2="74.75" y1="25.409" y2="25.409" gradientTransform="matrix(3.125 0 0 -3.125 0 256.25)" gradientUnits="userSpaceOnUse"><stop offset=".375" stop-opacity=".75"/><stop offset="1" stop-opacity="0"/></linearGradient><clipPath id="K"><path d="M0 0h250v250H0z"/></clipPath><mask id="O"><g filter="url(#a)"><path fill-opacity=".813" d="M0 0h250v250H0z"/></g></mask><linearGradient id="P" x1="20.95" x2="74.35" y1="25.553" y2="25.553" gradientTransform="matrix(3.125 0 0 -3.125 0 256.25)" gradientUnits="userSpaceOnUse"><stop offset=".375" stop-opacity=".813"/><stop offset="1" stop-opacity="0"/></linearGradient><clipPath id="N"><path d="M0 0h250v250H0z"/></clipPath><mask id="R"><g filter="url(#a)"><path fill-opacity=".875" d="M0 0h250v250H0z"/></g></mask><linearGradient id="S" x1="20.95" x2="73.96" y1="25.692" y2="25.692" gradientTransform="matrix(3.125 0 0 -3.125 0 256.25)" gradientUnits="userSpaceOnUse"><stop offset=".375" stop-opacity=".875"/><stop offset="1" stop-opacity="0"/></linearGradient><clipPath id="Q"><path d="M0 0h250v250H0z"/></clipPath><mask id="U"><g filter="url(#a)"><path fill-opacity=".938" d="M0 0h250v250H0z"/></g></mask><linearGradient id="V" x1="20.95" x2="73.56" y1="25.829" y2="25.829" gradientTransform="matrix(3.125 0 0 -3.125 0 256.25)" gradientUnits="userSpaceOnUse"><stop offset=".375" stop-opacity=".938"/><stop offset="1" stop-opacity="0"/></linearGradient><clipPath id="T"><path d="M0 0h250v250H0z"/></clipPath><linearGradient id="W" x1="20.95" x2="73.17" y1="25.955" y2="25.955" gradientTransform="matrix(3.125 0 0 -3.125 0 256.25)" gradientUnits="userSpaceOnUse"><stop offset=".375"/><stop offset="1" stop-opacity="0"/></linearGradient><clipPath id="b"><path d="M0 0h250v250H0z"/></clipPath><linearGradient id="X" x1="20.95" x2="73.17" y1="13.741" y2="13.741" gradientTransform="matrix(3.125 0 0 -3.125 0 256.25)" gradientUnits="userSpaceOnUse"><stop offset="0" stop-color="#004080"/><stop offset=".325" stop-color="#004383"/><stop offset=".585" stop-color="#004d8d"/><stop offset=".823" stop-color="#005e9d"/><stop offset="1" stop-color="#0070af"/></linearGradient><linearGradient id="Y" x1="47.06" x2="47.06" y1="18.449" y2="9.024" gradientTransform="matrix(3.125 0 0 -3.125 0 256.25)" gradientUnits="userSpaceOnUse"><stop offset=".35" stop-color="#009fdf"/><stop offset=".645" stop-color="#009ddd"/><stop offset=".752" stop-color="#0096d6"/><stop offset=".828" stop-color="#008bcb"/><stop offset=".889" stop-color="#007aba"/><stop offset=".941" stop-color="#0064a4"/><stop offset=".987" stop-color="#004989"/><stop offset="1" stop-color="#004080"/></linearGradient><linearGradient id="Z" x1="20.96" x2="73.18" y1="29.594" y2="29.594" gradientTransform="matrix(3.125 0 0 -3.125 0 256.25)" gradientUnits="userSpaceOnUse"><stop offset="0" stop-color="#009fdf"/><stop offset=".021" stop-color="#02a1e1"/><stop offset=".243" stop-color="#13b2f2"/><stop offset=".487" stop-color="#1dbcfc"/><stop offset=".791" stop-color="#20bfff"/><stop offset=".842" stop-color="#1ebcfc"/><stop offset=".882" stop-color="#19b2f2"/><stop offset=".919" stop-color="#11a1e1"/><stop offset=".954" stop-color="#0589c9"/><stop offset=".966" stop-color="#007fbf"/><stop offset="1" stop-color="#20bfff"/></linearGradient><path fill="#0e3ca5" d="M105.188 174.031c5.218 19.281 23.906 33.969 33.343 33.375.344-.031 35.781-6.625 55.219-39.062 15.094-25.25 9.969-49.625-10.594-50.156-7.406.562-87.906 19.156-77.969 55.843M181.219 50.281v-.031c-15.75-13.406-36.156-21.5-58.438-21.5-13.031 0-25.406 2.781-36.594 7.781-2 .844-3.906 1.782-5.718 2.813-1.25.687-2.531 1.343-3.75 2.062l.312.094c-3.719 2.563-6.906 5.563-9.531 9-25.875 34.188 60.875 59.063 107.25 59.125 21.344 15.344 27.313-43.125 6.469-59.344zm0 0"/><g fill="#5493f7"><path d="M91.406 50.969C79.5 68.875 39.781 81.5 33.25 79.53c0-.031-.031-.062-.031-.094.281-.53.531-1.062.812-1.624A94.252 94.252 0 0 1 51.25 54.28a96.946 96.946 0 0 1 11.063-9.5 96.792 96.792 0 0 1 7.593-5.031c5.563-3.219 11.25-3.438 13.125-3.5 17.719.406 8.469 14.594 8.375 14.719M81.656 177.563c.844 5.625-.031 27.875-1.187 29.718-1 .063-3.063.188-9.031-3.156a83.477 83.477 0 0 1-9.063-5.906c-3.938-2.875-7.625-6.063-11.063-9.5s-6.624-7.156-9.5-11.063c-2.874-3.937-5.468-8.094-7.718-12.469s-4.188-8.906-5.75-13.625-2.782-9.593-3.594-14.625-1.25-10.156-1.25-15.406.438-10.406 1.25-15.406A94.307 94.307 0 0 1 28.344 91.5c.312-.969.656-1.906 1-2.844C36.187 97.781 44.125 106 50.875 115.22c6.406 8.75 15.25 23.062 17.031 26.094 11.094 18.937 12.875 30.625 13.75 36.25M213.531 121.531c0 12.313-2.344 24.094-6.625 34.906-11.187 12.032-86.687-17.593-87.406-17.906C109.187 134 77.75 120.25 74.906 98.625c-4.062-31.094 59.031-52.781 86.781-53.594 3.313.032 13.438.157 19.344 4.938 19.906 17.406 32.5 43.031 32.5 71.562M162.438 205.844c-8.22 3.844-17.282 1.031-14.938-6.969 4.531-15.375 43.969-31.156 52.688-32.031 1.062-.094 1.53.625 1.062 1.469-9.094 15.906-22.531 29.03-38.813 37.53"/></g><g clip-path="url(#b)" mask="url(#c)"><g clip-path="url(#d)" mask="url(#e)"><path fill="url(#f)" d="M71.594 119.125c-3.375 0-6.094 2.313-6.094 5.188v96.562c0 3.906 2.719 7.031 6.094 7.063 89.187.53 175.656 25.5 175.625 12.968-.125-31.844-.125-75.625 0-107.437.031-12.813-86.469-14.281-175.625-14.344zm0 0"/></g><g clip-path="url(#g)" mask="url(#h)"><path fill="url(#i)" d="M71.563 119.125c-3.376 0-6.094 2.313-6.094 5.188v96.562c0 3.906 2.719 7.031 6.094 7.063 88.562.53 174.437 24.25 174.375 12.125-.125-31.375-.125-74.72 0-106.094.062-12.406-85.813-14.719-174.375-14.844zm0 0"/></g><g clip-path="url(#j)" mask="url(#k)"><path fill="url(#l)" d="M71.563 119.125c-3.376 0-6.094 2.313-6.094 5.188v96.562c0 3.906 2.719 7.031 6.094 7.063 87.937.5 173.187 23 173.156 11.28a14630.13 14630.13 0 0 1 0-104.75c.062-11.968-85.219-15.187-173.156-15.343zm0 0"/></g><g clip-path="url(#m)" mask="url(#n)"><path fill="url(#o)" d="M71.563 119.125c-3.376 0-6.094 2.313-6.094 5.188v96.562c0 3.906 2.719 7.031 6.094 7.063 87.312.468 171.968 21.78 171.906 10.437-.125-30.5-.125-72.938 0-103.406.062-11.563-84.594-15.625-171.906-15.844zm0 0"/></g><g clip-path="url(#p)" mask="url(#q)"><path fill="url(#r)" d="M71.563 119.125c-3.376 0-6.094 2.313-6.094 5.188v96.562c0 3.906 2.719 7.031 6.094 7.063 86.656.437 170.718 20.53 170.687 9.593-.125-30.031-.125-72.031 0-102.062.063-11.156-83.969-16.094-170.688-16.344zm0 0"/></g><g clip-path="url(#s)" mask="url(#t)"><path fill="url(#u)" d="M71.563 119.125c-3.376 0-6.094 2.313-6.094 5.188v96.562c0 3.906 2.719 7.031 6.094 7.063 86.03.406 169.468 19.28 169.437 8.78-.125-29.593-.125-71.124 0-100.718.063-10.75-83.344-16.594-169.438-16.875zm0 0"/></g><g clip-path="url(#v)" mask="url(#w)"><path fill="url(#x)" d="M71.563 119.125c-3.376 0-6.094 2.313-6.094 5.188v96.562c0 3.906 2.719 7.031 6.094 7.063 85.406.406 168.25 18.03 168.218 7.937-.125-29.156-.125-70.219 0-99.375.031-10.344-82.75-17.219-168.219-17.375zm0 0"/></g><g clip-path="url(#y)" mask="url(#z)"><path fill="url(#A)" d="M71.563 119.156c-3.376 0-6.094 2.313-6.094 5.188v96.562c0 3.906 2.719 7.031 6.094 7.063 84.78.375 167 16.781 166.968 7.094-.125-28.688-.125-69.344 0-98.032.063-9.937-82.125-17.75-166.969-17.875zm0 0"/></g><g clip-path="url(#B)" mask="url(#C)"><path fill="url(#D)" d="M71.563 119.156c-3.376 0-6.094 2.313-6.094 5.188v96.562c0 3.906 2.719 7.031 6.094 7.063 84.156.344 165.78 15.531 165.75 6.25-.125-28.25-.125-68.438 0-96.688.03-9.531-81.532-18.219-165.75-18.375zm0 0"/></g><g clip-path="url(#E)" mask="url(#F)"><path fill="url(#G)" d="M71.563 119.156c-3.376 0-6.094 2.313-6.094 5.188v96.562c0 3.906 2.719 7.031 6.094 7.063 83.53.312 164.53 14.281 164.5 5.406-.125-27.813-.125-67.531 0-95.344.062-9.125-80.907-18.719-164.5-18.875zm0 0"/></g><g clip-path="url(#H)" mask="url(#I)"><path fill="url(#J)" d="M71.563 119.156c-3.376 0-6.094 2.313-6.094 5.188v96.562c0 3.906 2.719 7.031 6.094 7.063 82.906.281 163.312 13.031 163.25 4.594a11781.38 11781.38 0 0 1 0-94c.062-8.72-80.282-19.22-163.25-19.407zm0 0"/></g><g clip-path="url(#K)" mask="url(#L)"><path fill="url(#M)" d="M71.563 119.156c-3.376 0-6.094 2.313-6.094 5.188v96.562c0 3.906 2.719 7.031 6.094 7.031 82.28.25 162.062 11.813 162.03 3.75-.124-26.906-.124-65.75 0-92.656.063-8.281-79.687-19.656-162.03-19.875zm0 0"/></g><g clip-path="url(#N)" mask="url(#O)"><path fill="url(#P)" d="M71.563 119.156c-3.376 0-6.094 2.313-6.094 5.156v96.563c0 3.906 2.719 7.031 6.094 7.031 81.656.25 160.812 10.563 160.78 2.906-.124-26.437-.124-64.843 0-91.312.063-7.844-79.03-20.125-160.78-20.344zm0 0"/></g><g clip-path="url(#Q)" mask="url(#R)"><path fill="url(#S)" d="M71.563 119.156c-3.376 0-6.094 2.313-6.094 5.156v96.563c0 3.875 2.719 7.031 6.094 7.031 81.03.219 159.593 9.313 159.562 2.063-.125-26-.125-63.969 0-89.969.031-7.406-78.438-20.594-159.563-20.844zm0 0"/></g><g clip-path="url(#T)" mask="url(#U)"><path fill="url(#V)" d="M71.563 119.156c-3.376 0-6.094 2.313-6.094 5.156v96.563c0 3.875 2.719 7.031 6.094 7.031 80.406.188 158.343 8.063 158.312 1.219-.125-25.563-.125-63.063 0-88.625.063-7-77.813-21.094-158.313-21.344zm0 0"/></g><path fill="url(#W)" d="M71.563 119.156c-3.376 0-6.094 2.313-6.094 5.156v96.563c0 3.875 2.719 7.031 6.094 7.031 79.78.313 157.156 6.813 157.093.406v-87.28c.063-6.595-77.219-21.157-157.094-21.876zm0 0"/></g><path fill="url(#X)" d="M65.469 220.906c0 3.875 2.719 7.031 6.062 7.063 79.938.562 157.125-3.125 157.125-15.094 0-36.281-163.187 8.031-163.187 8.031zm0 0"/><path fill="url(#Y)" d="M65.469 220.906c0 3.906 2.719 7.063 6.094 7.063 79.937.594 157-1.906 157.093-15.094 0-36.281-163.187 8.031-163.187 8.031zm6.094 6.594c-.22 0-.438 0-.626-.031-2.437-.281-4.468-2.125-5.187-4.594.781 2.656 3.094 4.594 5.813 4.594 79.874-.5 155.843-25.094 155.843-14.281 0 11.062-75.969 14.875-155.844 14.312zm0 0"/><path fill="url(#Z)" d="M71.594 118.219a6.082 6.082 0 0 0-6.094 6.094v96.593c0 3.344 2.719 6.063 6.063 6.094 79.937-.594 157.218-27.063 157.125-14.125V104.094c.062-12.938-77.188 13.531-157.094 14.125zm0 0"/><path fill="#fff" d="M143.094 153.281c-.219.125-.438.219-.531.406-.063 0-.094.032-.157.063 4 2.313 6.375 5.969 6.438 10.094.062 4.219-2.313 8.469-6.344 11.687.125.063.25.156.438.219.312.125.656.344.968.469 3.031 1.187 6.656 1.594 10.031 1.062 3.75-.594 7.094-2.344 9.282-4.844 3.219-3.718 6-9.218 5.406-13.812-.594-4.5-3.625-7.906-7.813-9.281-4.78-1.531-12.25-.031-17.718 3.937zm11-2.187c.094.062 0 .25 0 .437-.188-.062-.313-.031-.313-.219.031-.093.125-.28.313-.218zm-.563 1.187c.094-.094.188-.125.406-.062.094.062.094.062.094.25-.094 0 0 .156 0 .156 0 .094.094.063.188.063s.094.062.187.156c0 .094.094.062.188.156 0 .094-.094.094-.094.188-.188.125-.406.062-.594 0-.094 0-.312.03-.5-.094 0 0 .094-.281.094-.344.031-.219-.188-.344.031-.469zm.781.063c-.093 0-.312-.125-.406-.188s.094-.187.094-.187c.094 0 0-.156 0-.25h.094c.187-.125.312.031.312.219.094.125 0 .218-.094.406zm-.812-.75c.094-.094.406-.156.313.031 0 .094-.094.281-.188.375-.094.188-.313.031-.313-.125 0-.063.094-.188.188-.281zm-.875.719c.094-.094.094-.188.188-.125.093 0 .093 0 .187.062.125.094.219.25.125.438s-.188.187-.406.062c-.219-.063-.094-.344-.094-.438zm-7.688.906c0 .094-.093.094-.218.187a5.52 5.52 0 0 0-.656.094l-.657.094c.219-.375.75-.438.969-.781.438-.063.656-.157.844-.438a.952.952 0 0 1 .312-.219c.219-.031.313-.125.531-.25.094 0 .313-.125.438-.125.219-.125.219-.187.438-.312.312-.031.656 0 .968.062.219.063.75 0 .75.25.094.063 0 .156.125.313.094.062.219.219.219.312s-.094.094-.094.188v.156c-.094.188-.219.281-.312.375s-.219.188-.406.219c-.094 0-.125-.406-.125-.5-.094 0-.22.031-.22.125-.093 0-.218-.063-.218-.156a1.993 1.993 0 0 1-.438.312 1.026 1.026 0 0 1-.53-.031c-.313.031-.657.094-1.063.125-.094 0-.313.031-.438-.031-.125.03-.219-.032-.219.03zm1 2.781c-.093-.063-.312.031-.437-.125s.094-.094.313-.219c.093.063.218.063.312.125.156.094-.063.188-.188.219zm.532-.406c-.094 0-.313-.031-.313-.125.094-.094.313-.125.438-.125.094 0 .312.031.312.125 0 .156-.312.094-.437.125zm4.906 1.75c-.219.125-.313-.125-.313-.219-.093-.063-.218-.156-.093-.25.219.063.219.063.312.125.063.063.188.219.094.344zm9.188-7.094c.093 0 .156-.031.156-.125.156-.188.25-.219.406-.156.156.125.344.094.406.187.156.125.25.219.406.25 0 .094.094.156 0 .25-.093.031-.156.031-.25.031-.156.032-.25-.03-.406-.093-.094-.063-.094-.156-.156-.125-.094-.063-.156.031-.25.031-.156.125-.25.125-.344-.031-.031-.031-.031-.219.031-.219zm.156 10.344c.156-.031.406-.156.5.062 0 .156-.156.031-.156.031-.094.032-.25.063-.344.063-.094.031-.156.031-.25-.031-.094.031-.094-.063-.156-.125-.094-.063.156-.125.156-.125.187-.031.187-.031.25.125zm-.188-5.281c.094-.094.156-.282.25-.313.156-.031.156.125 0 .25 0 .094-.094.188-.156.281-.188.031-.094-.125-.094-.219zm.156-.625c-.093-.157.094-.438.157-.532.094-.031.156-.187.25-.125s-.094.188-.094.281c.094.063.406-.093.406.094.094.063 0 .25-.094.281s-.156-.062-.156-.125c-.062-.125-.375.282-.469.125zm.782 6c.094-.094.094-.094.25-.063 0 0 .094.063.094.156s-.25-.031-.313-.031l-.031-.063zm-.875-6.813c.094.063.25.125.156.313 0 .25-.344.406-.594.437-.156.031-.25.125-.437.156-.094 0-.188.188-.25.313.094 0 .25-.125.344-.063.187-.031.093 0 .187.125.094.063.156-.031.25-.125 0-.156-.094-.156-.188-.219.094-.03.25-.125.344-.156.094.063.156.063.094.156 0 0-.094.032-.156.032-.094.187.156.125.156.219 0 .156 0 .156-.094.28-.156.282-.344.47-.406.657-.156.188 0 .406-.25.625-.25.125-.25.469-.344.656 0 .156 0 .5-.094.688-.187.187-.343.406-.53.687-.095.094-.095.188-.095.344 0 .094.094.156.094.25.188.219.188.469-.094.781-.093.188-.28-.031-.28-.125 0-.156.093-.281 0-.344-.095-.156-.188-.218-.376-.28-.187.03-.281.124-.469.155-.187.125-.28.125-.468.25-.094 0-.281.125-.375.157-.188.031-.281-.031-.375.062-.188.188-.188.375-.188.438-.094.187-.187.187-.187.375.094.25.094.25.187.406.094.063.188.219.281.281s.282.031.375-.062c.282-.125.563-.438.813-.313.375.094-.188.469-.094.688.188.219.531-.094.813-.156.344-.063.281.28.281.53-.094.095-.094.345 0 .438.094.063.188.063.344.094.094-.031.25-.219.344-.219s.25-.062.343.031c.094-.03.156-.125.156-.187l.094-.031c.094-.094.094-.031.094-.031.094-.094.156-.282.25-.313.25-.125.594-.188.813-.406.093-.031.093.062.156.062 0 .094 0 .094-.094.188s-.156.187-.25.312a.83.83 0 0 0 .469-.344c.094-.187.156-.03.312-.062.094.063.156.063.25.031.156.063.313.281.469.313.156.062.313.187.438.219.062.062.156.125.218.187 0 .094.063.156.156.219a.828.828 0 0 0 .563.031c.156.031.25.188.406.313.094.156.094.312 0 .593.156-.031.25-.062.406-.094.094-.03.157.032.25.032.25.031.438.062.688.094.094-.032.188-.032.344 0 0 .093.281.093.281.187.094.156.188.375.375.5.094.156.188.219.094.313s-.188.28-.188.375c-.187.28-.281.5-.469.687-.187.281-.375.5-.437.781.125.094.125.25.125.344-.188.125-.188.219-.25.406-.094.281-.344.5-.5.719s-.344.344-.594.469c-.156.125-.312.406-.469.625-.25.219-.375.344-.593.562a.738.738 0 0 1-.281.25c-.157.125-.22.125-.375.25-.157.188-.47.344-.625.563-.25.312-.407.5-.563.687-.25.219-.563.375-.813.5-.156.125-.343.313-.593.531-.25.313-.438.5-.594.875-.188.188-.25.47-.438.75-.093.188-.093.25-.28.313-.095.094-.095.031-.188.125s-.094.094-.094.188c.094.156.188-.188.281.03v.313c.094.063.094.063 0 .156 0 0-.187.032-.187-.062-.094.031-.094.031-.188-.063-.094.032-.094.094-.281.125 0-.093.094-.25 0-.343 0-.094-.188-.125-.188-.125-.28-.188-.093-.406.094-.594-.281-.031-.094-.313 0-.406.188-.125 0-.406.094-.594 0-.156.281-.313.375-.406s.281-.125.281-.219c.094-.094 0-.156-.094-.156.094-.188.282-.375.282-.531.094-.188.187-.375.344-.563.093-.188.187-.375.25-.563.093-.093.093-.03.093-.187v-.25c0-.094.094-.188.188-.281 0-.094.094-.188.094-.344.062-.031.093-.063.156-.125 0-.094.094-.188.094-.281.093-.188.156-.375.156-.625 0-.094.094-.188.094-.281.093-.094.093-.188.093-.282v-.406a.607.607 0 0 1-.344-.281c-.093-.063-.156-.219-.25-.281 0-.094.094-.282.094-.438-.094-.219 0-.5-.156-.719 0-.156-.094-.219-.094-.406 0-.156 0-.344-.094-.406 0-.156-.093-.563 0-.75s.094-.344.157-.469a1.29 1.29 0 0 1 .25-.375c.094-.281-.094-.563-.25-.719-.188-.062-.25-.031-.344.156-.094.094-.094.344-.156.282-.094-.063-.094-.156-.188-.219 0 0-.094.031-.187.031-.094.031-.281-.031-.344-.094-.094-.062-.094-.25-.281-.28-.094-.063-.281.062-.375.062a1.48 1.48 0 0 1-.75-.313c-.188-.062-.281-.125-.469-.094-.094-.062-.281.032-.469.063-.562.094-1.062-.344-1.375-.813-.094-.062-.094-.25-.187-.312-.094-.156-.281-.031-.406-.125-.094-.063-.188-.219-.188-.313-.094-.156-.188-.156-.313-.218-.093-.156-.218-.219-.312-.375 0-.094-.094-.156-.219-.313 0-.094-.094-.25-.219-.219-.187-.062-.312.032-.187.188.094.156.313.219.406.281.094.156.219.156.094.313 0 .156.094.25.219.312 0 .094.219.406 0 .344-.313-.125-.406-.375-.625-.594s-.313-.375-.406-.719a.982.982 0 0 1-.313-.312c-.094-.063-.219-.219-.313-.375 0-.094-.218-.219-.218-.313-.094-.062-.094-.25-.094-.312 0-.344 0-.594.094-.938V157c0-.094-.094-.156-.094-.25 0 0-.094 0-.094-.063-.312-.468-.531-.937-.844-1.406-.093-.156-.312-.469-.625-.437-.406-.031-.75 0-1.156.156-.094 0-.312.125-.437.063-.219-.063-.219.03-.438.125-.219.03-.437.062-.531-.032-.094 0-.219.031-.219.031s-.094-.062-.219-.156c.22-.187.532-.156.75-.187.22.062.22.062.313-.125.094-.094.094-.094 0-.25s-.125-.406.094-.594c0 0 .094-.094.219-.188 0-.156-.094-.062.218-.187.094 0 .219-.031.219-.125s.094-.281.219-.375c.094-.094.406-.125.625-.25.312-.125.625-.344.844-.281.093 0 .218.062.218.156.094 0 .219.063.313.125.312.031.625.156.937.219.313.125.625 0 .906.031a.434.434 0 0 1 .407.125c.187.063.312.125.5.188.312.03.5 0 .906-.032.188-.125.281-.031.5-.25.094-.187-.094-.25-.188-.406 0-.094-.093-.25-.093-.313.094-.187.187-.187.281-.125.188-.03.188.157.406.188.094.063.188.125.375.188s.563.156.688.312c-.188.125-.375.219-.469.313-.094 0 .094.312.094.406-.094.187-.281.312-.375.469-.188.125-.188.187 0 .343l.187.125c0 .094.188-.031.188.063.187-.031.375.031.562.094.188.125.281.03.563.093.187-.031.281.125.469.188 0-.25-.094-.5-.094-.75 0-.094-.188-.125-.281-.219-.094-.063 0-.156-.094-.25-.188-.063-.281-.031-.188-.313 0-.156.094-.187.281-.218.282-.125.563-.094.844-.063.188.063.281.031.375-.062.188-.125.281.031.281.125.282.219.375.281.72.312.25.031.593.156.78.125.094 0 .157-.125.25-.125-.156.188-.093.25-.093.344zm-.688 6.875c0 .094-.25.125-.344.156a1.957 1.957 0 0 1-.687-.219c-.094.032-.188-.062-.188-.218 0-.094.282.031.282.031.25.031.531.156.781.125.063-.031.156.031.156.125zm-3.156-7.344c0 .156 0 .25-.188.188-.187.031-.28-.031-.375-.125v-.156c.063 0 .125-.032.188-.032.188.094.281.063.375.125zm-1.406-3.5c.094-.187.187-.281.281-.375.188-.125.281-.125.469-.156.375-.063.656-.188.937-.063.094.063.094.063.281-.03.188-.032.282-.032.47 0 .187.062.28.124.468.187.094.062.188.125.375.187.094.063.188-.031.375.031.188-.03.281.032.438.094.093.063.093.063.093.313 0 .156.094.25.188.406.094.063 0 .156.094.313.093.062.187.218.187.406.094.062.094.156.188.219.187.062.25.218.25.28 0 .345-.25.47-.5.5s-.532 0-.782-.03c-.344-.094-.531-.157-.812-.375-.094-.063-.188-.22-.281-.22-.188-.062-.282-.124-.282-.218s.094-.344-.094-.313-.28-.03-.468 0c-.281.032-.563 0-.844.032a.898.898 0 0 0-.469.156s.094.063 0 .156c-.062 0-.125.031-.187.031 0 .438.469.094.781.22.375.03.656-.032.938.03.187.063.187.063.28.22.095.062.188.124.376.187s.281.031.469.094c.187-.032.187.125 0 .25-.094 0-.282.03-.282.125-.094.187 0 .25 0 .437 0 .094 0 .25-.187.281-.094-.062-.281-.031-.469-.094s-.844.313-.844-.03c0-.157.188-.282.188-.376.094-.187-.094-.156-.188-.219-.187-.062-.281-.03-.469-.093-.187.031-.375-.031-.468-.188-.094 0-.188.031-.188-.062-.094-.063-.094-.156-.187-.219-.094-.156-.188-.219-.406-.188-.282.032-.282-.125-.407-.28v-.25c-.094-.157-.094-.063-.187-.063-.094-.063-.094-.063-.094-.156s-.188-.157-.188-.22c.094-.187.407-.062.407.032.094 0 .187-.188.187-.281s0-.156.094-.281c.188-.125.281-.125.5-.157l-.031-.25zm-.375.125s-.188.031-.281.031c-.094.094-.188.188-.188.282-.094 0-.188.125-.188.187-.093 0-.28.125-.187-.062s.188-.375.375-.469c.063-.063.563-.219.469.031zm8.031-11.75c-.156-.125-.313-.281-.313-.625.094-.344 0-.594.313-1.062.25-.469 1.281-2.219 1.281-2.219s.5-.75.844-.813c.25-.03.531-.093.719-.03.187-.032.469.155.469.155s.75.22.562.907c-.188.594-.438 1.156-2 3.281 0 0-.594.938-1.313.75-.03-.031-.5-.281-.562-.344zm6.469 11.656c2.562 3.313 4.187 7.157 4.187 11.938.063 15.125-11.812 29.75-30.812 33.188a61.292 61.292 0 0 0 4-1.47c3.156-1.312 6.281-2.843 8.969-4.624 3.343-2.063 5.843-4.563 7.875-7.5 2.312-3.281 4.218-7.313 5.062-11.188.563-2.656.469-5.25.594-7.844 0-3.312.062-6.75.125-10.125v-2.375zm-11.75 6.375c-.094.094-.375.657-.563.594 0-.094.094-.094.094-.187s.094-.188.094-.281c0-.157.281-.282.375-.125zm-34.906-17.03c-.47-.75-.72-1.126-1.157-1.876.5-.312.75-.5 1.25-.812 0 0 .344-.156.5 0 .188.125.875 1.375.875 1.375s-.094.344-.281.469c-.063.156-1.188.843-1.188.843zm35.624 17.155c-.093 0-.28-.03-.375-.03-.093-.063-.468-.188-.187-.22.188-.03.188-.03.375.032.094.062.375.094.188.219zm-.906-.78c.094.062.094.25.188.405l-.563.094c-.094 0-.469.063-.375-.125a.898.898 0 0 0 .469-.156c.094-.094-.281-.125-.188-.313.094-.093.375.125.47.094zm1.719.405c.094.063-.438.157-.531.188l.094-.094c.093-.094.187-.031.25-.125.093-.125.187-.062.187.031zm-16-22.53c-1 .124-1.469.187-2.469.312a95.92 95.92 0 0 0 1.375-2.438 34.27 34.27 0 0 1 1.094 2.125zM127.281 162c.188-.031.094-.25.094-.344v-.344c0-.156.094-.25.281-.28.094-.095.375-.126.281.124-.093.094-.187.188-.093.344 0 .156.094.156-.094.438 0 .093 0 .25-.281.28-.094 0-.188.126-.281-.03-.094-.063 0-.157.093-.188zm-2.156-3.469c-.094.094-.375-.031-.375-.031-.219-.063-.188-.281-.156-.469.031.219.719-.031.812-.125 0 0 0-.094.094-.187 0-.094.094-.094.188-.125.093-.094.187-.281.28-.375.094-.188.47-.5.657-.594.094 0 .375-.063.375.031s0 .25-.188.375c-.093.094-.28-.031-.374.063s-.282.125-.376.312c0 .094-.093.094 0 .156.032.032.063.032.094.063.094 0 .281.031.375-.063.188-.03.375-.125.469-.156.188-.031.375-.062.188.156-.094.25-.563.157-.75.282s-.376.125-.563.25c-.094 0-.281-.031-.375.125-.094.125-.281.219-.375.312zm.563 0c-.094 0-.188-.062 0-.156.093 0 .093.063 0 .156zm20.218 31.25c.75-.125 1.406-.406 2.125-.687.406-.156.844-.313 1.25-.469.313-.125.625-.438 1.031-.594.407-.25.813-.469 1.344-.719.219-.03.406-.062.5-.093.188-.031.313-.125.406-.156.094-.282 0-.25-.312-.282-.094-.062-.188-.125-.406-.094s-.406.063-.625.094c-.219-.062-.406.156-.719.188-.219.031-.531.094-.719.125-.719.125-1.469.062-2.094 0-.312-.031-.53-.094-.843-.125-.438.062-.75.031-1.188 0-.656-.156-1.187-.313-1.812-.406-.438-.032-.75-.063-1.094-.188-.438-.031-.75.031-1.188 0-.656.094-1.406.125-2.062.313-.313.125-.438.156-.531.25-.219.125-.313.125-.438.156-.437.062-.875.125-1.187.094 0 0-.531-.094-.313-.22.094 0 .219-.124.438-.218.312-.125.531-.344.969-.313.218-.03.312-.03.53-.062.095 0 .313-.031.438-.063.438-.062.75-.093 1.094-.156.75-.187 1.5-.312 2.156-.562.438-.063.75-.188 1.188-.25.094-.094.312-.125.531-.25.094-.031.313-.063.531-.094.219-.125.313-.219.531-.25.094-.031.313.031.532-.094.312-.125.75-.281 1.062-.406.75-.188 1.375-.563 2-.813.406-.156.719-.28 1.031-.5.313-.125.532-.343.844-.562s.625-.438.938-.469c.406-.156.719-.281 1-.5.406-.219-.406-.281-.5-.344-.313-.03-.719.032-1.031.063-.313.063-.625.188-1.032.25-.312.063-.625.094-1.031.156s-.719.125-1.063.063c-.437-.031-.843.031-1.28.031-.75.031-1.376.219-2.157.313-.313.125-.75.187-1.094.25-.312.03-.75.093-1.094.25-.75.375-1.406.718-2.156 1.156-.531.406-1.187.844-1.719 1.25-.218.187-.437.5-.75.781-.093.094-.218.188-.312.375-.094.094-.313.125-.438.219-.312.125-.656.344-.968.375-.219.031-.313.219-.438.219-.219.03-.437.062-.625.093-.219.031-.437-.031-.75 0-.094 0-.312-.031-.437-.031-.313-.031-.625.156-.938.031 0-.094.219-.187.219-.281.094-.094 0-.156 0-.25l.094-.094c.094-.094.312-.219.406-.406v-.156l.094-.094c.094.063.312.313.219.406-.094.188-.407.313-.313.469 0 .094.406.031.531.094.219-.031.438-.063.625-.094a3.473 3.473 0 0 0 1.281-.438c.22-.125.438-.218.657-.343.094-.094.094-.281.219-.469a1.79 1.79 0 0 0 .53-.938c.095-.28 0-.5-.218-.75-.094 0-.438.063-.531.063-.219.031-.313-.031-.531-.094s-.75.094-1.063.156c-.313.032-.625.157-.969.282a3.238 3.238 0 0 0-.844.531c-.093.188-.218.281-.312.375-.094.188-.219.281-.313.469 0 .094.094.344.22.406.03.031.062.031.093.063-.094.093-.094.187-.219.187 0 .156-.094.281-.219.469-.093.094-.218.125-.406.062-.312-.125-.719-.156-1.031-.125-.719 0-1.219-.375-1.844-.469-.719-.156-1.312-.343-1.781-.656-.594-.281-1.063-.656-1.625-.844-.281-.125-.656-.28-.938-.406-.187-.062-.562-.031-.718-.094-.188-.25-.188-.25-.438-.218-.187.031-.094.187-.094.344.094.156.438.375.626.437.562.188 1.03.656 1.406 1.031.375.469.375 1.063.969 1.344.093.156.28.125.468.125.094 0 .281-.125.375-.125.188-.094.5-.063.594-.063.188-.03.281-.03.406.032.688.094 1.406.187 2.125.344.625.093 1.219.28 1.844.375.406.03.719.062 1.063.125.406.03.75.156 1.156.093-.094-.25-.313-.312-.094-.5.219-.281.313.125.313.219s.312.219.437.281c.219.156.313.219.531.344.094.063.094.156.094.25s0 .156.094.25c.094.063.437.188.219.406-.22.188-.313.125-.438-.031-.094-.156-.219-.313-.313-.469-.312.313-.437.563-.625 1.031 0 .094.094.313.094.5v.344c.094.25.219.406.313.563.094.062.437.187.531.187.313.219.625.344 1.063.375.312.031.75.063 1.062-.062.219-.031.438-.156.656-.281.094-.032.219-.282.219-.375s.094-.282.219-.47v-.437c0-.25-.094-.656-.219-.906-.313-.563-.75-1.156-1.625-1.125-.219.031-.531.156-.75.188s-.094-.157-.219-.313c-.219-.219-.437-.375-.656-.594.094-.094.094 0 .313.031.093 0 .218.063.312.125s.219.063.313.125c0 .094.093.25.218.22.313-.032.656-.095.969-.126.219-.031.438.188.656.25.219.125.313.281.531.344.22.313.532.531.875.625.75.219 1.625.438 2.375.656.438.031.75.125 1.063.156.813.407 1.781.344 2.531.22zm-4.594-5.219c.75-.375 1.72-.687 2.5-.937.657-.25 1.407-.375 2.032-.563.75-.187 1.5-.312 2.25-.5.312-.062.625-.187.937-.218.219-.031.406-.063.625-.094.094-.031.094-.031.094.063s-.094.093-.219.125c-.219.125-.625.093-.937.218-.406.156-.75.188-1.156.438-.22.125-.532.344-.844.469-.313.062-.75.187-1.063.25-.75.125-1.5.312-2.25.593-.656.188-1.406.375-2.156.656-.656.25-1.313.532-2.063.813 0 0-.093 0-.218-.063.812-.437 1.594-.875 2.469-1.25zm-14.406 2.125c0-.093-.094-.156-.094-.25s-.093-.25-.093-.343.094-.094.187-.031c.094-.282-.375-.657-.469-.72s-.562-.28-.468-.468c.187.063.375.313.562.375.188.156.469.281.563.438.187.25.281.562.281.812-.094.219-.281.344-.469.188zm15.156 1.407c-.312-.031-.656-.156-.875-.219-.218.031-.968.063-1.093-.094.75-.125 1.5-.219 2.156-.062.875.125 1.719.344 2.594.375.531 0 .969.094 1.5.094.437.03.844.03 1.375-.063.312-.063.625-.094 1.062-.156 0 0 0 .156-.094.187-.312.063-.75.125-1.062.344-.438.156-1.063.156-1.5.25-.313.063-.625.031-1.063.094-.312-.031-.75-.125-1.062-.156-.656-.188-1.313-.438-1.938-.594zm-11.625-7.938c3.594-.437 7.313-1.906 10.375-4.094-.03-.03-.062-.03-.062-.093-.219.125-.438-.031-.438-.188 0-.094.22-.281.313-.375h.094c.094 0 .219-.031.312.031v.094c.094 0 .125-.031.219-.031a.952.952 0 0 1 .313-.219c.125.031.156.094.156.125l.281-.187.938-.844c-.157.125-.313.219-.5.344-.22.031-.313.031-.438.062-.219.031-.438.125-.531.156-.219.032-.313.032-.438-.03-.094-.063-.094-.25-.219-.407 0-.25 0-.5.125-.875-.218.125-.312.281-.437.219-.219-.063-.094-.156-.219-.313-.219-.219-.312-.469-.75-.5-.75 0-1.406.25-2.062.406-.094 0-.313-.125-.438-.125-.094-.062-.219-.218-.094-.343.094-.094.22-.281.22-.375.093-.188.093-.344.093-.438 0-.156.094-.281.219-.375.094-.187.094-.281.219-.437.093-.188.312-.469.656-.594.312-.125.656-.25.969-.469 0 0 .093 0 .218-.031.094 0 .094-.094.219-.125.125-.188.219-.188.313-.281a1.99 1.99 0 0 1 .968-.469c.313-.125.563-.406.875-.531.219-.031.313-.031.531-.063.094 0 .313-.031.532-.062s.094.062.094.25c0 .156-.125.187-.22.375-.312.219.095.406.313.562.094.156.219.156.313-.031.125-.188.219-.188.219-.375.093-.188.218-.281.218-.375.094-.188.125-.344.219-.438.438-.312.313.47.313.625s0 .25.093.407.094.25.094.406c-.094.281 0 .594.094.844v.75c0 .156 0 .344-.125.437 0 .156-.219.281-.219.375-.094.188-.219.281-.313.469 0 .094-.218.188-.312.281a.239.239 0 0 1-.063.156c1.657-1.718 2.875-3.625 3.563-5.625 0 .032-.031.063-.031.063-.219.125-.094-.156-.219-.219 0-.094-.094 0 0-.156l.094-.094c.094-.094.219-.125.312-.219v.125c.344-1.125.5-2.25.5-3.406-.062-3.969-2.375-7.5-6.187-9.687-3.281-1.875-7.563-2.563-11.594-2-9.188 1.25-14.281 8.562-14.281 16.125.187 7.656 5.344 12.969 14.594 11.812zm-3.78-8.187c0 .094-.188.281-.188.375-.094.094-.188.187-.188.375 0 .094-.094.281-.094.437 0 .094.188.219.094.344 0 0-.187.188-.281.219-.094-.063-.281-.125-.375-.281-.188-.157-.094-.5-.094-.657v-.437c-.094-.156 0-.25 0-.438.094-.094.094-.281.188-.375.187-.031.187-.187.375-.312 0-.156 0-.156.187-.281.094 0 .281.125.281.218.188.219.094.469.094.813zm6.218-5.375c0 .094-.094.344-.313.375-.218-.063-.093-.313-.093-.406s.312-.375.312-.375c.219.062.094.312.094.406zm4.75 1.562c-.094.188-.438-.375-.531-.375-.125-.25-.344-.375-.438-.531-.094-.063-.531-.375-.656-.344-.094 0-.313.031-.438-.031 0 0-.093-.156 0-.25.313-.031.532-.063.875.063.22.062.438.218.657.343.219.156.437.281.562.438.156.062-.031.5-.031.687zm1.406.438c-.094-.063-.219-.156-.437-.125s-.313-.063-.531-.031c-.094-.063-.313-.125-.22-.313.095-.094 0-.25.095-.344.125.063.125.25.218.406 0 .094.438.032.531.032s.438-.063.438.031c.219.125.125.313-.094.344zm.219-1.219c-.125-.063-.219-.063-.438-.031-.093 0-.312.125-.437.062 0 0-.125-.25-.125-.312-.125-.063-.219-.156-.125-.313 0-.156 0-.156.219-.281.312-.031.531-.156.75-.344.094-.094.312-.219.437-.312.094-.094.219-.281.313-.219.094 0 .437.031.437.125-.094.188-.094.094-.312.281-.094 0-.094.188 0 .25.219.156.125.156 0 .344-.094.094-.313.281-.313.375 0 .156-.094.188-.094.344a.24.24 0 0 1-.312.031zm2.25-2.125c0 .156.219.313 0 .438-.313.03-.344-.032-.438-.125-.125-.063-.218-.063-.343-.063 0 0 0 .094-.094.094-.219.031-.219-.156-.125-.25.219-.031.313-.125.531-.063 0-.094.094-.187.094-.281s-.125-.063-.219-.156c0-.094.219-.281.313-.281s.219.218.125.312c-.063.219.156.219.156.375zm-.281 1.969c-.125 0-.656.062-.313.219.125 0 .219.062.219.156.125 0-.125.094-.219.125-.125 0-.219-.063-.219-.156-.125-.063-.125-.157-.218-.157-.094.188.437.469.125.594-.125 0-.313-.125-.438-.219v-.344c0-.25.094-.53.313-.625.312-.218.656-.25.969-.28.218.155-.094.28-.22.28-.218.032-.437.125-.437.313.094-.031.75-.188.438.094zm-.594-2.813c.094 0 .438.219.219.219-.219.063-.438-.094-.219-.219zm.438-7.844c-.125-.062-.125-.406-.22-.468-.343-.313-.874-.406-1.093-.719.094 0 .094-.094.094-.094.437.125.875.406 1.219.531.125.157.125.157.218.22 0 .155 0 .155.125.25.125.062.656.25.438.374-.125.094-.656 0-.781-.094zm-.094 7.813c-.219.031-.125-.406.094-.281 0 0 .125.156.125.25s-.125.031-.22.031zm-.469-1.969c0-.094 0-.437.094-.531 0-.094 0-.156.094-.281.093-.094.218.062.218.062 0 .156.125.406.125.5-.094.281-.312.313-.531.25zm.219.906c.125.063 0 .157-.094.282-.094 0 .125.25.125.312.094 0 .125.25 0 .25s-.344-.031-.438-.125c-.125-.062-.125-.156 0-.25 0-.156-.343-.562.094-.594.094-.03.219-.03.313.125zM140 168.72c-.219.031-.219-.063-.438-.031-.093 0-.312-.063-.093-.157.219-.031.219-.031.437.031.094 0 .313-.03.313-.03.219-.032.312-.032.437.03.219-.03.313.063.094.157-.094.094-.625 0-.75 0zm1.531.187c-.125 0-.125 0-.312.031-.094-.062-.125 0-.219.032-.125.094-.313.125-.313.031-.093 0-.218-.156-.093-.156.219-.031.656-.063.75-.188.094 0 .312-.031.312-.031.094.156.094.25-.125.281zm0-2.469c-.125-.25.094-.343.094-.53.094 0 .438-.063.438.03s-.094.188-.094.282.094 0 .219.062-.094.281-.094.281c-.125.063-.563-.03-.563-.125zm.781-6.718c0 .156-.312.281-.53.312-.22-.031.312-.344.53-.312zm4.97 7.562c-.22.125-.313-.469-.095-.562.313-.156.313.437.094.562zm-.75-1.094c.312-.03.75.157.655.344 0 .094-.093.188-.218.188-.094-.063-.094-.063-.094-.156a.284.284 0 0 1-.125-.25c-.094 0-.219.03-.219-.063v-.063zm-.095.594.094-.094c.094 0 .094.063.125.157V167c-.094.094-.094.094-.219.125-.093.188-.312.125-.218-.063.125-.093.344-.125.219-.28zm-3.156-.625c0 .094 0 .094-.094.188 0 .094.125.156.22.156.218.156.53-.313.874-.188s.438.47.781.594c.094 0 .313.031.438.125.125.063.094.063.094.156.094 0 .219-.03.219.063.218.219.437.469.53.688.095.156.532.593.22.718-.22.125-.313-.219-.313-.312-.094-.156-.313.031-.438-.031-.218-.063-.312-.313-.53-.282-.22-.062-.313.281-.532.156-.313-.03-.313-.218-.656-.25-.219-.062-.531-.093-.438-.28a.382.382 0 0 0 .125-.282c0-.156 0-.156-.125-.25-.219-.156-.437-.219-.656-.188-.094 0-.313.032-.438-.03 0 0-.125-.157-.218-.22-.094 0-.219-.062 0-.156.125 0 .219-.125.312-.125l-.125-.062c-.344-.313.094-.344.531-.313.094-.031.094.031.22.125zm-.344-7.531-.093.094c0 .094.125.156 0 .156 0 .094-.094.094-.094.094 0 .094 0 .156-.094.281 0 .094-.094.094-.219.125-.218.125-.437.313-.656.344 0 .062-.062.25-.219.281 0 .063.094.063.094.156.125.063-.094.188-.094.188-.093.094-.093.281-.218.187-.219-.062.094-.437.219-.531-.032 0-.063.031-.094 0-.125-.063 0-.344.094-.344.093-.187.218-.281.312-.469.094-.093.219-.125.438-.125-.125-.156-.344-.218-.344-.312s.312-.281.312-.469c.094-.094-.125-.312 0-.5.094-.094.094-.437.313-.469.125.063 0 .25 0 .344.125.063.219.063.344.125 0 .156-.094.344-.094.438.094.094.094.344.094.406zm-.218-1.563c-.094.094-.438.22-.438.313 0 0-.094.281-.219.281-.218-.062-.125-.312-.218-.406 0-.094-.563-.344-.125-.5.125.063.344.125.344.125.093 0 .53-.156.53-.063.126.157.345.125.126.25zm-.469-1.562c.094 0 .219-.031.313-.031.125.062.125.062 0 .156s-.22.031-.313.031c-.094.031-.094-.125 0-.156zm.313-.219c-.094 0-.313.125-.532-.031.094 0 .219-.125.313-.219 0 .031.562.125.219.25zm-18.72-.312c.094 0 .188-.031.344.031.188-.031.188-.031.282-.125.187.063.094.25 0 .344-.188.125-.281.219-.531.25-.188.031-.344.062-.344-.125 0-.156.187-.281.25-.375zm-.937 2.5c.156-.188.25-.281.531-.406.094 0 .188.062.188.062-.094.188-.188.188-.188.281-.093.281-.187.438-.343.719-.094.094.094.063-.094.188-.094 0-.156.125-.25.125-.094.093-.156.125-.25.125s-.156-.063-.25-.032c-.094 0-.25.125-.25-.031 0-.094.094-.188.156-.281.156-.188.344-.063.594-.188.156-.156.063-.375.156-.562zm-1 .25c.094 0 .156-.188.156-.281.094 0 .157-.125.157-.125.094.062.156.062.25.03.094 0 .156.063.156.22 0 .093.094.156-.094.28-.094 0-.156.126-.25.126s-.25.031-.344.062c-.156.125-.25.219-.343.063-.031-.219.125-.25.312-.375zm-.094.937c-.093 0-.156-.062-.093-.062.094-.094.187-.031.094.062zm-2.218 11.063c0-.094.094-.438 0-.5 0-.094-.219-.125-.406-.094-.094-.063-.157-.219-.25-.281s-.626.125-.782.156-.25.031-.312-.031c-.156-.125-.156-.125-.406 0-.157.031-.25.125-.313-.031-.156-.063-.156-.063-.156-.313v-.344c-.094-.156-.156-.312-.25-.469-.094-.25-.156-.562-.25-.78-.094-.063-.156-.22-.094-.313 0-.156.094-.281.094-.438.094-.344.094-.594.156-.937 0-.156 0-.5.156-.688.156-.281.406-.656.625-.969.313-.468.781-.812 1.188-1.218.312-.219.625-.531.875-.844.094 0 .156-.125.219-.219 0 0 .156.125.218.125.156.063.219.125.375.188.063 0 .219-.031.313-.063.25-.031.406-.062.562-.094.094 0 .25-.03.313.032.094 0 .094.062.156.062.094.063.094 0 .094.156.094 0 .094.063.156.063.094.063 0 0 .094 0 .156-.031.094 0 .156.063a.682.682 0 0 1 .156.125c0 .093.094.156-.094.28-.093-.062-.093-.155-.156-.312-.062 0-.094.031-.156.031v.25c0 .25.5.157.594.313.156.063.156.125.25.281.125-.031.219-.031.344-.062.187-.031.25-.031.437-.063.188.063.188.125.25.219.188.063.344.125.438.094.093.062.374.031.437 0 .094 0 .188-.188.188-.375.093 0-.094-.25-.188-.219-.094 0-.188.125-.188-.063 0-.093 0-.093-.093-.156s-.281-.031-.344-.125V162c-.094-.063 0-.094 0-.156 0-.156 0-.25.094-.438-.094 0-.281.031-.281.125s.093.25.093.313c-.094.187-.437.25-.625.281v-.75c0-.25.094-.594-.25-.531-.094 0-.094 0-.094.094v.25c0 .093.188.125.188.218 0 .344 0 .5-.25.781v-.25c-.188.188-.25.282-.5.344v-.25c.156-.125.156-.125.156-.281 0-.094-.094-.156-.094-.25-.093-.063-.093-.063-.156-.219 0-.094.094-.281 0-.344-.094-.156-.094-.25-.25-.28-.094-.063-.25-.032-.344.062-.093 0-.312.062-.312-.031-.094-.063-.313-.032-.406 0-.094.093 0 .093-.094.187 0 .094-.094.094-.094.188-.156.187-.094.187-.312.218-.156.031-.375 0-.531.031-.063 0-.313.157-.313-.03 0-.157 0-.25-.063-.407s.063-.281.157-.375c.062-.094.156-.125.156-.281s.063-.281.219-.375c.062-.188.156-.125.219-.031.062.156.312-.063.406 0 .094 0 .156.218.25.125.156-.125.156-.282.25-.375s.156-.282.25-.375c.094-.188.094-.282.25-.282.156-.031.25-.031.406-.062.094 0 .344.031.344-.063.156-.031.25-.125.437-.156.25-.125.531-.344.688-.531.187-.125.25-.125.437-.156.094 0 .344-.125.344-.063.094.031.094.125.094.219.031-.094.156-.188.156-.344v-.156c0-.094 0-.094-.094-.063-.094 0-.375.125-.375-.031s0-.25.094-.344c.188-.125.188-.281.375-.312s.281-.031.469-.063c.187-.125.281-.125.469-.156s.187-.188.374-.219c.094 0 .188-.031.188-.125.094 0 .094-.094.188-.125l.28-.281c.094-.094.376-.063.47 0s.187.063.374.031c.376-.062.594 0 .782.219 0 .156.094.25.187.313s.094.25.094.312c.188-.031.188-.031.406-.125.094-.094.406.031.594 0 .313-.031.5-.156.813-.188.187.063.218.063.312-.125a.401.401 0 0 1 .313-.125c.218-.156.312.063.312.063.094.156.219.156.313.219.093-.281-.22-.219.093-.344.094-.094.313-.219.406-.313.407-.125.72-.343 1.032-.562.219-.125.312-.219.406-.313.094-.187.219-.187.406-.218.219.062.438.031.531.031.22-.031.438-.063.625-.156.094 0 .313-.125.438-.125.219-.031.438-.063.531-.156l.656-.094c.094 0 .22-.125.313-.281.094-.094.094-.282.219-.375 0 0 0-.157.094-.188.093 0 .125-.031.218-.031.219-.188.313-.219.531-.25s.313-.031.438-.063c.438.031.656.094.969.313.219.062.312.031.437.125.219.062.313.125.438.187.312.125.562.344.875.5.312.031.531.188.875.313 0 .156.125.156.125.312s0 .094-.219.125c-.313.031-.531-.094-.875-.062-.219.031-.125-.063-.313-.125 0 0-.093.094-.093 0-.094 0-.125-.063-.219-.156-.125-.157-.219-.313-.344-.47-.219.126-.219.282-.312.376s-.219.125-.438.219c-.219.03-.312.125-.312.218-.094.094-.219.438-.094.438.094 0 .313-.219.438-.125.093 0 .218.062.218.156 0 0-.094.094 0 .156 0 .094.313.125.438.188s.219.156.344.312c.218.156.437.469.562.625.125.313-.094.531-.094.844v.156c-.094.094 0 .094.125.063.125.25.125.25-.094.344-.218.187-.218.53-.218.78s.125.25.344.376c.125.062 0 .25 0 .437 0 .094-.22.188-.22.281-.093.094-.093.094-.218.125-.125-.062-.125-.062-.125-.156-.125-.156 0-.344-.219-.406-.125-.063-.219-.156-.344-.219s-.125-.062-.218.031c-.094 0-.094.094-.219.125-.094.094.125.313.125.313.094-.094.219-.281.438-.125.125.063-.094.188-.22.281.438.188.438.625.563 1.031.125.157 0 .438 0 .594s-.094.438-.219.531c-.093.094-.312.375-.53.5-.22.032-.438.22-.438.375 0 .094.125.25 0 .25 0 .094-.219.188-.313.125 0-.093-.125-.062 0-.156.094-.094 0-.156-.125-.25 0 .094-.312.281-.312.375 0 .25 0 .344.125.5.125.313.344.625.219.906-.094.188-.094.188-.22.282-.093 0-.093 0-.218.125-.094.094-.219.281-.438.312-.312-.062-.562-.375-.75-.5-.312.219-.437.375-.312.625.094.063.125.25.219.219.094.063.312.125.437.219.125.156.219.406.344.625v.25c0 .094.125.062.125.062.125.156 0 .156-.094.188-.312-.063-.531-.281-.781-.5-.125-.156-.219-.406-.344-.625-.125-.25-.125-.5-.219-.656-.218-.157-.218-.47-.343-.625-.219.28-.438.312-.656 0 0-.094-.125-.25-.125-.313-.094 0-.22.031-.22-.063-.093 0-.093-.062-.093-.062-.094-.063 0-.25-.125-.313-.094-.062-.219-.156-.313-.125-.312.032-.53.157-.75.344s-.53.406-.75.594-.312.281-.312.625c0 .156 0 .25-.094.344s-.219.125-.219.281-.218.438-.312.625c-.313-.125-.406-.375-.531-.531-.313-.219-.406-.375-.625-.594s-.219-.563-.219-.813c0-.156 0-.156-.219-.156s-.219.031-.312-.125-.219-.219-.313-.312c-.094-.156-.219-.156-.406-.125s-.5.156-.813.187c-.093-.062-.312-.031-.5-.031-.093 0-.187-.156-.28-.219-.188-.062-.188-.156-.407-.125-.094 0-.281.125-.375.125 0-.156 0-.25-.094-.406 0-.094-.187-.063-.281-.125 0 .156 0 .156.094.25a.62.62 0 0 0 .187.406c.094.156.094.156.375.125.188-.031.594-.094.688 0 .094.063.187.156.187.313.094 0 .125-.031.188-.031.094 0 0 .25 0 .343l-.281.281c0 .094-.188.375-.282.375-.187.032-.281.032-.5.157a2.455 2.455 0 0 1-.781.531c-.188.125-.281.125-.469.219-.094 0-.281.125-.469.156s-.28.031-.374-.188c-.094-.156-.094-.312-.094-.562-.094-.063 0-.25-.188-.313-.094-.062-.281-.03-.281-.218-.188-.219-.281-.469-.375-.781-.094-.157-.094-.563-.281-.72 0-.093-.281.126-.281.22v.406c0 .094 0 .25.093.406.094.063.094.156.188.313.094.25.281.468.281.718 0 .094-.094.25 0 .25 0 .094.094 0 .188-.031.093.063.187.219.28.281.188.125.188.469.47.594.093 0 .374.031.468.031.281-.219.75-.531 1.031-.469.188.063-.093.344-.093.344-.094.188-.188.281-.188.438-.094.25-.187.625-.375.812a22.718 22.718 0 0 1-1.406 1.531c-.188.188-.375.407-.625.688-.094.094.375.469.375.531v1.125c0 .25 0 .438-.281.719-.188.188-.375.219-.344.563v.343c0 .094.094.156.094.156.187.22 0 .5-.281.625-.094.094-.188.125-.188.188-.094.281-.094.688-.344.813-.25.218-.594.343-.875.562-.094.094-.25.281-.344.313a.769.769 0 0 1-.343-.125c-.094-.25-.25-.47-.344-.72-.344-.53-.5-1.093-.719-1.655-.094-.157-.156-.407-.25-.563-.156-.156-.219-.281-.312-.438-.063-.156-.063-.156-.063-.312.063-.094.156-.281.156-.438v-.406c0-.25-.218-.469-.312-.687-.063-.25-.156-.563-.313-.781.032-.188.032-.188.032-.344zm30.656 15.25c.625-.281 1.438-.406 1.938-.813-.313.063-.5.094-.813.219-.094.094-.219.031-.406.063-.094.03-.219.125-.406.156-.22.031-.313-.031-.532 0-.094.031-.219.125-.406.156-.313.125-.719.188-1.063.344a9.522 9.522 0 0 1-1.687.344c-.313.062-.625.093-.969.156-.219.031-.656.187-.844.031.313-.125.532-.25.844-.313.438-.156.75-.187 1.063-.343.75-.281 1.5-.563 2.125-.906.625-.282 1.344-.625 2.062-.907.313-.062.625-.094.906-.156.407-.063.907-.156 1.407-.219.687-.125 1.281-.531 1.969-.812.468-.156.78-.281 1.218-.375l.563-.094c.094-.031.094-.031.187.063.094-.032.281.187.188.312-.094.094-.094.188-.188.188a1.569 1.569 0 0 1-.375.062s-.187.188-.281.219c-.281.312-.563.594-.844.906-.469.344-.875.813-1.344 1.156-.28.219-.593.438-.78.625-.313.125-.688.438-1 .594-.72.281-1.407.563-2.126.781-.625.094-1.344.219-2.094.25-.53.094-1.062 0-1.593 0-.531-.094-1.063-.094-1.594-.187-.656-.063-1.188-.25-1.719-.344.75-.031 1.406-.031 2.156-.156s1.594-.25 2.344-.375c.313-.063.75-.188 1.063-.25.312-.094.625-.219 1.031-.375zm-15.844-39.75c-3.844.5-7.406 1-10.562 1.531 4.5-3.531 10.875-6.063 17.969-6.969 7.062-.906 13.5-.031 18.03 2.063l-.655.094c-3.5.562-7.375 1.062-11.407 1.593-4.469.563-8.969 1.125-13.375 1.688zm4.281 50.031c.532.094 1.094.156 1.657.188-18.656 2.218-28.563-9.375-28.5-23.563 0-4.656 1.219-9.531 3.312-13.813v16.782c0 1.875.25 3.656.719 5.375.875 3.219 2.75 6.125 5.25 8.437 2.281 2.125 5.375 3.781 8.875 4.875 2.719.875 5.594 1.406 8.688 1.719zm-12.25-34.125c0 .156 0 .156-.093.344s-.563-.094-.75.031c-.094 0-.375-.031-.281-.125 0-.094.093-.344.187-.375.094-.094.281-.219.375-.125l.094.063c0 .093.094.062.187.062.188-.031.188-.031.281.125zm56.126-16.938a264.52 264.52 0 0 0-5.938 5.875c.063.22.063.344.125.563-.25.125-.344.156-.594.281-1.031-1.469-1.562-2.219-2.531-3.719.219-.125.344-.156.563-.28.312.374.468.562.812.905.5-.5.781-.75 1.313-1.25-.657-.718-1-1.093-1.625-1.843-.75.219-1.094.312-1.813.531.125.219.188.313.344.5-.188.125-.281.188-.438.344-.594-.563-.875-.813-1.437-1.375.187-.125.25-.188.437-.344.219.188.344.281.563.469 3.25-.938 5.031-1.438 8.656-2.406.594.718.906 1.062 1.563 1.75zm-7.72 17.438c-.687 16.5-15.812 31.813-32.718 34.344-19.781 2.969-31.063-8.969-31-24 .031-5.219 1.531-10.656 4.031-15.406V148.344c.656-.125 1.281-.219 2-.375 1.75-.313 3.406-.656 5.313-1 4.594-4.063 11.531-6.938 19.344-7.938 7.75-1 14.812.094 19.437 2.594 1.688-.281 3.188-.594 5.031-.938.031 0 .063 0 .094-.03.125-.032.25-.063.375-.063.219-.031.438-.094.656-.125.344-.063.719-.125 1.094-.219.375-.063.75-.156 1.125-.219v2.719c-.031 1.875-.094 3.75-.094 5.625 3.125 3.563 5.5 8.094 5.313 13.25zm-3.53-26.125c1.093.656 1.656.969 2.78 1.625-.28 1.75-.405 2.594-.687 4.344a117.117 117.117 0 0 1 2.906-2.125c-.25-.188-.343-.281-.593-.469.25-.188.344-.25.594-.438.75.594 1.156.875 1.906 1.438-.25.188-.375.281-.594.438-.25-.188-.375-.282-.594-.47-2.656 1.782-3.937 2.688-6.281 4.438-.344-.25-.5-.406-.844-.656v-.594c.25-1.937.375-2.906.656-4.844-.718.688-1.093 1.063-1.78 1.75-.438.094-.657.125-1.095.22a88.915 88.915 0 0 1 3.844-3.813c-.25-.188-.406-.281-.656-.469.188-.125.25-.219.438-.375zm-6.125-2.875c1.093.531 1.656.813 2.906 1.313 0 0 1.906 1.343.406 3.656-.969 1.5-3.188 2.344-4.625 1.781-.406-.094-2.094-1.406-2.094-1.406s-1.312-.75-.875-2.625c.313-1.375 1.313-3.188 4.281-2.719zm-6.75-2.469s3.78 1.031 3.78 1.094c.095.063-.155.531-.155.531-.282-.094-.407-.125-.688-.219-.875 1.97-1.344 2.97-2.25 4.97.281.124.438.187.719.312-.094.187-.156.281-.25.469 0 0-3.656-1.157-4.031-1.094.03-.188.062-.25.093-.438.344.063.531.094.875.125.969-2.031 1.438-3.031 2.406-5.062-.28-.125-.437-.188-.75-.313.094-.125.157-.219.25-.375zm-9.157-.844c0-.093 5.281-.03 8.125.657-.187.594-.281.906-.469 1.5-.28-.031-.406-.031-.656-.063.063-.25.125-.375.188-.625 0 0-1.469-.562-1.656-.531 0 0-1.438 4.969-1.438 5.063.313.062.5.093.813.156-.032.219-.063.312-.094.531 0 0-4.313-.531-4.844-.469.031-.187.063-.25.094-.437.375 0 .562-.031.937-.031.594-2 .906-3 1.5-4.97-.812.063-1.219.126-2.062.188-.094.219-.125.313-.219.531h-.625c0-.03.313-1.312.406-1.5zm-10.531 6.657c1.313-2.5 2-3.719 3.313-6.219 1.03-.094 1.53-.156 2.562-.25 1.219 2.219 1.813 3.344 3 5.563h.75v.5s-4.281.125-4.906.28c-.031-.187-.063-.28-.125-.5.344-.062.5-.124.844-.187-.313-.5-.47-.75-.75-1.25-1.188.188-1.813.281-3 .469-.25.531-.375.813-.657 1.344.25-.031.375-.063.656-.094.032.219.063.344.125.563 0 0-2.156.28-2.468.406-.031-.188-.063-.281-.125-.5.344-.031.5-.063.781-.125zm-7.281-3.875a260.873 260.873 0 0 0 4.312 2.656c-.156-1.313-.25-1.969-.406-3.281-.375.094-.563.125-.938.219-.03-.157-.062-.25-.093-.407 1.094-.281 1.625-.437 2.719-.687.03.187.062.281.093.5-.375.125-.562.187-.937.281.344 2.188.469 3.281.844 5.5-.97.219-1.47.344-2.407.594-1.719-1.094-2.562-1.625-4.187-2.688.437 1.281.625 1.906 1.094 3.188.28-.094.437-.156.718-.281.031.187.063.28.094.5-.906.312-1.344.5-2.219.812-.094-.156-.125-.25-.187-.406.312-.125.469-.156.812-.281-.687-1.907-1-2.875-1.656-4.782-.281.094-.406.156-.688.281-.062-.187-.125-.28-.187-.468 1.219-.531 1.875-.75 3.219-1.25zm-7 3.062c1.406-.406 3 1.281 1.25 2.906 0 0 .281.032.75-.125s.937.282 1.031.25c.094.063.469.688.469.782.094.062.375.187.5.187.187-.031.5-.156.5-.156l.094-.094c.093.188.125.281.187.469-.75.344-1.125.531-1.844.875 0 0-.937.406-1.031.313-.094 0-.469.062-.563-.094-.187-.219-1-1.531-1-1.531s-.187-.125-.28-.125c-.188.125-.532.25-.532.25-.375.218-.594.343-.969.593.438.719.688 1.094 1.125 1.813 0 0 0 .094.188-.031.187-.032.437-.313.437-.313.094.188.156.281.281.469-1.406.969-2.093 1.437-3.374 2.406-.126-.125-.188-.156-.313-.281.219-.219.344-.313.563-.531-1-1.625-1.438-2.438-2.376-4.063-.218.188-.312.25-.562.438-.125-.125-.188-.157-.313-.282.063.031 4.532-3.75 5.782-4.125zm-6.75 5c.312.406.469.625.781 1.031-.125.157-.188.25-.313.407-.156-.156-.25-.25-.406-.438 0 0-1.094.531-2.312 1.938.562.562.875.844 1.437 1.406 0 0 .781-.563.719-.813-.125-.125-.188-.156-.313-.28.126-.157.188-.25.313-.407.406.469.625.688 1.031 1.156l-.312.313c-.156-.125-.25-.219-.406-.344-.25.281-.376.438-.626.719V145c.094 0 1.407 1.313 1.407 1.313l.094-.094c.156-.125 1.25-1.5 1.312-1.938 0 0-.063-.156-.219-.281s-.062-.156-.062-.156c.156-.156.219-.25.375-.406.344.468.5.718.875 1.187-1.125 1.156-1.625 1.719-2.719 2.875-.75.156-1.125.219-1.906.344-1.125-1.094-1.688-1.656-2.813-2.781a5.189 5.189 0 0 1-.5.656c-.125-.125-.187-.156-.312-.281.062-.22 4.406-5 4.875-5.282zm-5.375 5.906c.406.344.625.5 1.062.844-.156.188-.25.281-.406.5a3.17 3.17 0 0 1-.406-.281s-.813.563-1.375 1.313c1.469.968 2.187 1.437 3.625 2.406v1.187a67.262 67.262 0 0 1-1.219 1.969c-.156-.063-.25-.125-.406-.188.156-.25.25-.406.406-.656-1.563-1-2.344-1.531-3.906-2.562 0 0-.563 1.094-.75 1.781.156.156.25.219.406.344-.094.156-.156.219-.25.375-.5-.219-.75-.344-1.219-.563.188-.531 3.938-6.062 4.438-6.469zm-6.813 11.407c1.906-.531 2.875-.813 4.781-1.375-1.218-.5-1.812-.781-3.03-1.313-.157.281-.25.438-.407.719-.156-.063-.25-.125-.406-.188.437-.843.656-1.25 1.062-2.093.156.062.25.125.406.187-.156.281-.25.438-.406.719 1.969.813 2.969 1.219 4.906 2-.406.875-.624 1.313-1.062 2.188-1.781.53-2.688.78-4.5 1.28 1.281.313 1.938.47 3.188.782.124-.281.187-.438.312-.719.156.063.25.125.406.188-.281.812-.437 1.219-.75 2.031-.156-.031-.25-.063-.406-.094.094-.281.156-.437.25-.719a154.881 154.881 0 0 1-4.781-1.25c-.125.313-.188.47-.344.813-.156-.094-.25-.125-.406-.188.5-1.156.75-1.78 1.187-2.968zm-1.562 4.469c.156 0 .25.03.406.03-.063.282-.094.407-.156.688 2 .25 2.969.344 4.937.563.094-.281.156-.438.25-.719.156.031.25.063.406.094-.374 1.594-.53 2.406-.906 4h-.5l.156-.781c-1.968-.25-2.968-.375-4.937-.657l-.156.781c-.188 0-.313 0-.5-.03.406-1.563.594-2.376 1-3.97zm.844 9.875c.25-.782.406-1.157.656-1.938.187.719.312 1.063.5 1.781.75-.094 1.125-.156 1.906-.281l-1.563 1.406c.22.688.344 1.031.563 1.688-.594-.375-.875-.563-1.469-.938-.656.563-1 .875-1.656 1.438.281-.781.406-1.188.656-1.969-.594-.375-.906-.594-1.5-.969.75-.062 1.125-.125 1.906-.219zm.124 14.78c-.53-1.405-.78-2.124-1.312-3.562.156-.094.25-.125.406-.219.125.282.188.407.344.688 1.281-.656 1.938-1 3.219-1.688-1.688.094-2.531.125-4.219.188-.125-.469-.188-.719-.313-1.188 1.47-1.093 2.188-1.656 3.657-2.78-1.375.437-2.094.624-3.469 1.03l.156.625c-.156.094-.25.125-.406.22-.156-.813-.25-1.25-.406-2.063.156-.063.25-.094.406-.125.063.281.094.437.156.719 2.031-.594 3.031-.907 5.031-1.5-.03-.313-.062-.47-.093-.813.187-.063.281-.094.5-.156 0 0 .406 2.844.469 3 .156.062-2.626 2.25-2.626 2.25 1.282-.031 1.938-.031 3.22-.063.437 1 .624 1.5 1.062 2.531-.156.125-.25.188-.406.313-.157-.313-.25-.438-.407-.75-1.906.969-2.844 1.438-4.781 2.406.094.281.156.406.25.688-.219.125-.281.156-.438.25zm2.594 4.563c-.25-.281-1.219-2.094-1.219-2.094s-.656-1.156.407-2.75c.719-1.093 2.469-2.468 4.594-1 .562.938.812 1.407 1.374 2.313 0 0 .5 1.969-1.062 3.406-1.125 1-3.094 1.281-4.094.125zm4.5 5.469c.438-1.969.656-2.969 1.063-4.938-1.094 1-1.656 1.47-2.781 2.47.187.218.28.343.5.593-.126.125-.188.188-.313.281-.563-.625-.844-.969-1.375-1.594.156-.125.25-.187.406-.312.188.219.281.344.5.594 1.594-1.5 2.406-2.219 4-3.688-.156-.156-.25-.219-.406-.344.156-.156.25-.218.406-.375l1.531 1.688c-.437 1.969-.624 2.969-1.062 4.938.969-1.094 1.469-1.625 2.406-2.688-.156-.188-.25-.281-.406-.469.125-.156.188-.219.313-.375.468.438.718.688 1.187 1.125-.094.188-.156.25-.25.438-.156-.156-.25-.219-.406-.375-1.5 1.75-2.25 2.625-3.781 4.375-.594-.531-.907-.813-1.532-1.344zm8.438-.531c-.531.75-.813 1.125-1.344 1.875l.625.469c.125-.125.188-.22.313-.344.156.094.25.156.406.25-.313.531-.469.812-.781 1.344-.157-.063-.25-.094-.407-.157.125-.25.188-.344.313-.594-.281-.187-.438-.28-.719-.468a78.615 78.615 0 0 1-1.531 1.812s1.031.844 2 1.094c.156-.281.25-.406.406-.688.188.125.281.188.469.344l-.781 1.25s-4.157-2.875-4.657-3.375c.094-.125.156-.219.25-.344.188.157.281.22.469.375 1.25-1.718 1.875-2.562 3.125-4.28-.156-.157-.25-.25-.406-.376.094-.187.156-.25.25-.437 0 0 2.25 2.062 4.344 3.125-.344.562-.532.844-.844 1.406-.156-.094-.25-.125-.438-.219a7.05 7.05 0 0 1 .344-.687s-.781-1.156-1.406-1.375zm5.344 8.844c-1.657-.5-2.438-.75-3.938-1.344.063-.156.094-.25.156-.438l.781.313c.844-1.938 1.282-2.938 2.157-4.969 0 0-1.188-.25-1.531-.063-.157.157-.22.22-.344.375l-.438-.218c.281-.563.406-.844.688-1.406 0 0 4.25 1.78 6.781 2.062-.188.594-.313.906-.5 1.531-.281-.031-.406-.062-.688-.094.094-.25.125-.375.188-.625 0 0-1.375-.718-1.469-.78-.969 2.062-1.437 3.062-2.375 5.03.313.063.438.125.75.188-.094.188-.125.281-.219.438zm10.718.75s-4.812.062-5.219.03v-.343c.5-.031.75-.063 1.22-.094a18.946 18.946 0 0 1-.188-1.312c-1.313-.094-1.969-.125-3.25-.25-.406.469-.594.719-1 1.187.281.063.406.094.687.156-.125.157-.187.22-.281.375-.813-.156-1.219-.25-2.031-.437.062-.156.125-.219.187-.344h.688c1.719-2.094 2.594-3.125 4.406-5.312 1.125.094 1.688.125 2.813.219.593 2.343.875 3.406 1.468 5.656.219-.031.313-.063.531-.094-.03.281-.03.375-.03.563zm7.719-1.125c-.219-.032-.75-.282-.75-.344 0-.094-.094-1.781-.094-1.781s-.312-.438-.437-.344c-.094.031-1.5.25-1.5.25-.063.937-.063 1.406-.125 2.312.25-.031.375-.062.656-.125.031.188.063.281.094.469 0 0-4.594.625-4.719.625-.094.031 0-.5 0-.5.313-.063.438-.063.75-.125.125-2.031.219-3.063.344-5.094-.313 0-.438.031-.75.031-.031-.187-.063-.28-.094-.5 0 0 4.938-.468 6.875-.968 0 0 .625-.125.969-.094.312-.063 1.469.313 1.469 1.281s-1.594 1.906-1.594 1.906 1.156.438 1.156 1.282c.094.312 0 .406 0 .406s.094-.031.094.063c.219.125.844 0 .844 0l.093-.094c.094.187.125.281.219.469 0 .062-3.313.843-3.5.875zm11.906-9.688c-.656 1.469-1 2.219-1.656 3.688.281.843.406 1.25.656 2.093.313-.094.469-.125.781-.219.063.157.125.22.188.375-1.75.657-2.656 1-4.531 1.688-.094-.125-.125-.188-.188-.281.375-.156.563-.25.906-.406-.28-.844-.406-1.25-.687-2.094-1.5-.656-2.25-.969-3.813-1.594-.25.063-.375.125-.625.188-.03-.188-.062-.282-.093-.47a321.51 321.51 0 0 0 4.969-1.562s.187.313.187.375c0 .094-.719.125-.594.281 0 .094 2.281 1.063 2.281 1.063s1.375-2.375 1.282-2.719c-.219.094-.344.156-.594.281-.063-.156-.125-.218-.188-.375.875-.406 1.282-.625 2.125-1.03l.282.28c-.281.157-.438.25-.688.438zm7.156 1.813c-.125-.157-.187-.22-.312-.375.219-.188.313-.282.531-.5-1-1.625-1.469-2.438-2.531-4.032-.313.188-.469.281-.75.469l-.156-.313s3.937-3 4.719-4.218c.406.437.625.656 1.062 1.062-.188.188-.281.313-.438.5-.218-.156-.312-.25-.53-.406 0 0-1.313.563-1.845 1.25.47.719.688 1.094 1.188 1.813.313-.282.438-.438.75-.72-.094-.187-.156-.28-.25-.468.219-.156.313-.25.531-.438.406.438.625.657 1.094 1.094-.219.219-.344.313-.531.531-.156-.156-.219-.218-.344-.375l-.875.72c.469.687.719 1.03 1.219 1.75.25-.22.375-.313.625-.532.156.156.219.219.375.344-1.594 1.219-2.313 1.781-3.531 2.844zm11.72-10.344c-.22.219-2.5 2.437-2.5 2.437s-1.095.719-1.657.813c-.438.094-1.281-.031-1.469-.25-.312-.125-3.312-2.281-3.312-2.281-.188.187-.281.312-.438.5a1.202 1.202 0 0 0-.281-.282c1.063-1.281 1.625-1.906 2.813-3.219.187.125.312.188.5.344-.188.219-.313.313-.5.531 1.312.907 2 1.344 3.468 2.25 0 0 .875.25 1.656-.312.782-.5 1.375-.969 1.125-1.656-.218-.625-.468-.594-.687-.719-.344-.094-3.625-1.781-3.625-1.781-.219.281-.313.406-.531.687-.219-.125-.313-.187-.5-.312.562-.719.875-1.094 1.469-1.813.218.094.312.156.53.25-.187.25-.25.344-.437.594a85.43 85.43 0 0 0 3.781 1.75s.938.844.938 1.438c-.125.562-.219.906-.344 1.03zm6.78-8.438c-2.968.875-4.406 1.344-7.156 2.188 1.5.531 2.25.812 3.813 1.312.25-.344.375-.531.594-.875l.625.156c-.75.875-1.094 1.344-1.844 2.22-.188-.063-.281-.095-.5-.157.25-.313.375-.469.594-.781-2.47-.688-3.688-1.031-5.938-1.75-.219.25-.344.375-.531.625-.188-.063-.25-.094-.438-.156.594-.938.906-1.407 1.531-2.344 2.688-.938 4.125-1.406 7.094-2.375-1.781-.281-2.656-.438-4.344-.719-.187.281-.28.406-.468.688-.219-.063-.344-.094-.594-.157.469-.781.688-1.156 1.156-1.937.25.031.344.031.594.062-.156.281-.219.406-.344.656 2.875.438 4.406.657 7.5 1.063-.5.906-.781 1.344-1.344 2.281zm2.532-4.125c-.313 0-.469-.031-.75-.031.156-.375.219-.563.375-.906-2.938-.156-4.406-.219-7.188-.375-.156.312-.219.437-.344.75-.25-.031-.343-.031-.593-.063a176.063 176.063 0 0 1 2.031-5.156s1.438-2.406 4.844-2.5c2.906-.094 4.094 1.406 3.969 2.469-.063.969-2.344 5.812-2.344 5.812zm.312-13.375c.406.688.625 1.031 1.031 1.688-.968-.313-1.468-.469-2.437-.781-1 .687-1.531 1.03-2.5 1.718.406-.844.594-1.281 1-2.156-.906-.313-1.344-.469-2.25-.781 1.125-.219 1.719-.313 2.875-.531.406-.813.625-1.188 1.031-2 .313.687.469 1 .75 1.687 1.156-.188 1.75-.313 2.938-.5-.969.719-1.469 1.031-2.438 1.656zm1.688-8.125c-.156-.312-.219-.469-.375-.75a253.91 253.91 0 0 0-7.406 2.563s.375 1.656.968 1.719c.438-.094.656-.125 1.125-.22v.563c-.906.25-1.344.406-2.219.656 0 0-1.312-5.125-1.78-5.343.187-.094.28-.156.468-.25.188.25.281.406.469.656a410.993 410.993 0 0 1 7.5-2.594c-.094-.312-.156-.469-.25-.781.25-.063.375-.125.625-.188.656 1.47 1 2.22 1.656 3.688-.313.094-.469.156-.781.281zm-43.031 46.938s.218.125.312.187c0 .156-.125 1.75-.125 1.75s0 .25-.219.375c-.219.031-1.719.281-1.719.281.094-.937.125-1.406.22-2.343.624-.094.937-.125 1.53-.25zM176.75 146l-1.25-1.406c1.469-.406 2.25-.625 3.781-1.031-1 .968-1.5 1.468-2.531 2.437zm-65.031 41.969c-.094.094-1.156 1.062-2.875 2.187 0 0-.75.5-1.219.094 0 0-.406-.344-.406-.5-.094-.156-.156-.313 0-.656.156-.281.156-.5.594-.813.406-.312 2.062-1.5 2.062-1.5s.75-.5.969-.375c.312.031.5.094.562.156.156.125.25.375.25.375s.469.47.063 1.032zm19.812 13.094c.281 1 .438 1.5.719 2.468-1.125-.125-1.656-.187-2.75-.312.813-.875 1.219-1.281 2.031-2.156zm53.688-32.625c.781-.063.5.437.5.437-.188.531-.313.813-.5 1.375 0 0-7.375-.281-7.375-.375 0 0 .125-.625.25-1.063.25-.468.844-.406.844-.406s5.5-.031 6.28.031zm0 0"/></svg>