<svg width="256" height="256" viewBox="0 0 256 256" fill="none" xmlns="http://www.w3.org/2000/svg">
<path fill-rule="evenodd" clip-rule="evenodd" d="M127.788 0C162.277 0 191.394 23.031 200.649 54.5762C232.585 63.5633 256 92.9465 256 127.808C256 162.54 232.757 191.835 201.002 200.939C191.904 232.733 162.665 256 128.001 256C93.3365 256 64.0974 232.733 54.9995 200.939C23.2432 191.836 0 162.541 0 127.808C0 93.1146 23.1893 63.8468 54.889 54.7076C64.1016 23.095 93.2525 0 127.788 0Z" fill="#F7CFDB"/>
<path d="M150.087 104.694C149.908 119.349 126.896 117.362 119.568 117.273L119.885 91.3409C127.213 91.4306 150.271 89.393 150.087 104.694ZM155.623 145.095C155.436 161.213 127.862 159.037 119.048 158.934L119.494 130.37C128.279 130.49 155.922 128.287 155.712 145.119L155.623 145.095ZM174.452 99.2117C173.174 83.8068 159.961 78.5127 143.215 76.8121L143.477 55.4779L130.477 55.3095L130.218 76.0922C126.818 76.0461 123.328 76.0718 119.86 76.1034L120.002 55.2175L107.036 55.0103L106.78 76.3221C103.959 76.359 101.195 76.3631 98.51 76.3404L80.6019 76.1062L80.4361 89.9952C80.4361 89.9952 90.0631 89.9322 89.8461 90.1143C93.4801 89.698 96.7777 92.2702 97.2583 95.8961L97.0371 120.124C97.4942 120.129 97.9505 120.163 98.4033 120.226L97.0355 120.22L96.5427 154.249C96.3294 156.79 94.1057 158.683 91.5629 158.488C91.7646 158.542 82.1304 158.362 82.1304 158.362L79.3543 173.834L96.2609 174.04L105.559 174.129L105.309 195.683L118.288 195.846L118.475 174.611C121.924 174.743 125.39 174.807 128.84 174.842L128.573 196.103L141.552 196.266L141.846 174.724C163.732 173.742 179.042 168.427 181.187 147.958C182.894 131.455 175.279 124.009 162.953 120.874C170.537 117.141 175.355 110.456 174.362 99.1876L174.452 99.2117Z" fill="#DB6A93"/>
</svg>
