<svg xmlns="http://www.w3.org/2000/svg" width="250" height="250"><g fill="#ff0546"><path d="M111.082 249.488c-3.652-.222-4.969-.441-9.441-1.488-2.063-.465-6.09-1.688-7.082-2.148-4.028-1.786-7.282-3.493-9.766-5.106-8.625-5.613-16.156-16.332-18.516-26.414-.199-.855-.523-2.176-.672-2.906-.199-.805-.347-3.637-.398-6.957-.098-5.176-.121-5.617-.52-5.567a87.16 87.16 0 0 0-2.312.317c-5.988.855-13.395.902-17.121.12-5.594-1.171-10.688-3.855-14.984-7.886-4.45-4.172-7.407-9.445-9.172-16.332-.793-3.027-.82-3.293-.82-8.25 0-4.469.074-5.469.574-7.668 1.214-5.445 4-11.57 7.082-15.648 4.296-5.664 14.164-12.844 21.89-15.895 2.985-1.195 3.754-1.441 8.7-2.879 3.331-.976 12.949-3.394 15.234-3.808 2.16-.418 2.758-.782 2.039-1.223-.574-.34-6.215-8.055-6.215-8.496 0-.121.375.027.844.293 1.195.734 2.636.683 3.605-.121.696-.563.77-.758.77-2.004-.024-3.758-3.453-6.25-5.766-4.223-.77.66-.82.832-.793 2.149.024.78.172 1.683.32 2.004.176.293.274.609.227.656-.078.05-.922-1.121-1.914-2.61-1.02-1.464-1.766-2.734-1.715-2.808.074-.05.445 0 .844.144 1.094.418 2.734.102 3.332-.656.992-1.27.371-3.492-1.418-4.933-1.168-.95-2.86-1.051-3.926-.22-.62.49-.672.61-.547 1.88.047.757.172 1.562.274 1.78.148.345-.028.442-.996.587-3.676.539-9.07-.754-11.157-2.684l-.796-.758-3.329.098c-3.48.074-6.238-.195-9.418-1-2.312-.562-4.476-1.39-4.476-1.71 0-.145-.668-1.122-1.516-2.196-1.465-1.93-2.957-4.567-4-7.106-.496-1.218-.644-1.757-1.218-3.953-2.11-8.129-.72-18.675 3.851-29.445.5-1.145 1.395-2.93 1.988-3.953 1.094-1.88 1.168-2.344.227-1.344-1.043 1.121-3.805 5.348-4.871 7.445-3.106 6.106-5.02 15.016-4.5 21.02.125 1.32.199 2.516.176 2.71-.102 1.052 2.234 8.302 2.98 9.255.125.144.176.293.102.293-.325 0 2.855 4.418 3.527 4.906.422.293.797.684.871.879.2.512-.273.172-1.863-1.317-2.164-2.05-4.45-6.203-5.446-9.96-.171-.66-.394-1.32-.496-1.418-.097-.121-.125-.684-.074-1.246.098-.852.024-1.145-.445-1.657-1.32-1.418-3.207-1.32-5.344.266-2.238 1.66-3.008 3.418-2.187 5.078.37.71.718 1.027 1.566 1.32.621.22.992.438.867.489-.12.046-.472.39-.746.754l-.52.66-.523-.707c-1.094-1.442-3.129-1.27-5.02.414-2.035 1.808-2.757 3.761-2.035 5.52.297.706.895 1.023 2.309 1.269l.922.144-.524 1.27-.496 1.297-.574-.563c-.82-.805-2.308-.758-3.305.07-1.043.856-1.613 2.836-1.464 4.985.171 2.344 1.144 3.488 2.933 3.488h.742v4.274c0 .097-.148.171-.32.195-1.492.05-2.262 1.148-2.285 3.148 0 3.078 2.012 5.2 3.75 3.907.25-.196.547-.364.648-.364.098 0 .645.875 1.215 1.953 2.512 4.758 8.004 7.618 13.246 6.86 4.125-.586 6.957-3.149 8.153-7.324.746-2.614.496-4.883-.82-7.473-.798-1.54-2.883-3.441-4.176-3.781-1.391-.368-3.403-.39-4.649-.051-1.613.465-3.601 1.976-4.496 3.465-1.516 2.469-.996 5.57 1.219 7.422 2.035 1.734 4.148 1.32 5.613-1.07.996-1.637 1.047-2.762.176-3.298-2.086-1.246-1.938-1.101-1.492-1.585.62-.688 2.437-1.051 3.629-.735 1.492.39 2.011 1.367 1.914 3.54-.149 3.1-1.989 5.882-4.723 7.081-2.012.903-3.926.781-6.285-.367-2.957-1.441-4.746-3.441-5.492-6.152-.871-3.223.148-6.836 2.882-10.133 2.336-2.832 4.793-3.977 8.524-3.977 3.305 0 5.441.657 8.945 2.735 1.938 1.144 3.332 2.586 4.547 4.757.871 1.493 1.02 1.883 1.766 4.47.597 2.124.547 6.812-.125 8.741-1.54 4.465-4.82 8.102-9.094 10.032-6.313 2.86-14.688 1.562-21.074-3.246C2.907 122.926-.72 113.402.398 101.832c.473-5.129.97-7.57 2.137-10.89 1.887-5.32 4.027-8.79 7.652-12.352 2.883-2.856 5.344-4.59 8.797-6.227 1.246-.61 2.66-1.27 3.133-1.511.723-.344.895-.586 1.043-1.516.871-4.883 1.863-7.91 3.953-12.184 2.535-5.125 4.672-8.03 8.797-12.109 7.578-7.445 17.668-12.547 28.555-14.426 5.117-.883 12.87-.906 17.293-.074 6.312 1.195 10.488 2.539 16.105 5.223 7.43 3.539 11.258 6.203 16.95 11.816 3.55 3.516 6.632 7.398 8.3 10.547.645 1.2 1.266 2.176 1.39 2.176.2 0 1.49-2.47 1.49-2.809 0-.074.448-1.027.995-2.125.547-1.121.992-2.148.992-2.293 0-.148-1.863-1.687-4.148-3.422-12.078-9.078-15.012-11.718-17.844-15.843-1.687-2.489-2.906-5.004-3.75-7.813-.574-1.879-.672-2.66-.672-5.492 0-3.344.2-4.59 1.22-7.078 2.804-6.887 10.312-11.89 19.78-13.188 5.59-.754 13.168 1.613 17.02 5.324 5.445 5.223 5.691 11.793.82 21.313-1.043 1.98-1.515 2.418-2.73 2.418-3.184 0-4.649-3.102-3.008-6.297.82-1.637 1.664-3.934 1.914-5.227.172-1.05.121-1.023.969-.632 1.914.851 3.55-2.735 1.96-4.297-.745-.711-1.464-.809-2.261-.27-.469.317-.52.317-.668-.195-.2-.781-.2-.902.2-.902.62 0 1.636-1.004 1.636-1.614 0-1.39-1.488-3.027-2.73-3.027-.375 0-.973.219-1.344.512l-.645.511-.922-.535c-4.945-2.855-12.472-1.148-17.793 4.078l-1.464 1.414-.497-.66c-.671-.926-1.867-.926-2.785-.047-.547.54-.644.88-.644 1.953 0 1.465.547 2.297 1.515 2.297.371 0 .473.094.371.391-.074.219-.222.656-.296.977-.075.316-.301.586-.473.586-.523 0-1.094.828-1.27 1.851-.195 1.246.399 2.469 1.27 2.688.719.171 1.07 1.148.621 1.683-.324.367-.25 2.074.125 2.883.148.39.098.437-.398.414-1.02-.098-1.22-.023-1.84.637-1.54 1.633-.047 5.222 2.113 5.222.992 0 1.988-1.222 1.988-2.394 0-.852-.125-1.121-.945-2.438-.273-.492-.246-.492.621-.367 1.27.172 1.692.586 1.344 1.242-.969 1.786 1.367 4.762 3.129 3.98.82-.362 1.07-.144.773.661-.347.879-.125 1.758.695 2.71l.645.759-.695.242c-.946.367-1.317.93-1.344 2 0 1.562 1.766 3.125 3.605 3.125 1.243 0 1.864-.68 1.864-2.074 0-.926-.125-1.196-.918-1.953-.746-.707-.82-.856-.399-.856.246 0 .696-.168.97-.363.62-.465.843-.465.843.023 0 1.637 2.137 3.2 4.004 2.953.867-.12.992-.074 1.117.465.223.805.05.903-.797.465-.945-.465-2.582-.465-3.281.024-.422.292-.543.609-.543 1.417 0 1.758 1.515 3.075 3.527 3.075 1.613 0 2.461-1.223 1.961-2.856l-.223-.758 1.02.465c1.367.586 2.437.586 3.254-.05.351-.266.773-.415.922-.317.199.098 1.117-.684 2.433-2.027 8.352-8.57 18.243-14.04 28.73-15.844 3.778-.66 11.356-.61 14.638.074 2.582.559 5.218 1.66 7.554 3.172 1.738 1.125 5.39 4.543 7.031 6.594 1.192 1.441 1.317 1.512 3.407 2.148 2.36.73 4.644 1.782 6.011 2.782 6.762 4.882 10.688 10.472 11.434 16.21.547 4.372-.894 8.57-4.648 13.43-.895 1.195-3.926 4.371-6.711 7.078-5.887 5.739-6.559 6.692-6.114 8.79.575 2.808-1.515 5.3-4.472 5.3-.867 0-1.14-.148-2.035-1.078-1.395-1.414-1.965-3.414-1.817-6.344.149-2.93 1.293-5.18 3.926-7.719 1.863-1.78 2.535-2.316 7.953-6.32 2.461-1.808 4.922-4.125 6.137-5.762l.523-.734.422.563c.871 1.148 2.66.488 3.332-1.246.895-2.32-.348-3.66-2.512-2.735-.37.149-.445.05-.445-.586 0-1.023-.922-3.344-1.84-4.664-.844-1.219-4.894-5.441-5.047-5.273-.074.05-.52-.168-.992-.485-1.219-.808-2.113-.757-2.883.145-1.714 2.004-.644 5.37 1.715 5.37 1.242 0 2.235-1.366 2.36-3.17 0-.196.125-.028.25.362.125.418.25 2.493.273 4.641 0 3.246-.074 4.223-.523 5.86-2.086 7.785-7.875 12.058-16.278 12.081-4.347 0-7.828-.828-11.031-2.609-1.047-.586-2.41-1.54-2.984-2.102-2.188-2.074-4.297-5.71-5.442-9.375-.57-1.878-.672-2.562-.672-5.687-.023-2.344.102-3.953.325-4.762 1.265-4.418 4.101-7.761 8.226-9.738 1.317-.613 2.559-1.125 2.781-1.125 1.043 0 .598-.563-1.093-1.344-1.465-.656-1.715-.851-1.317-1 .274-.097.844-.488 1.293-.902l.793-.735.227.586c.867 2.223 4.843 2.688 5.886.684.547-1.023.45-1.66-.394-2.441-.848-.754-.723-.856.473-.438 1.539.535 3.527-.707 3.527-2.223 0-1-.844-1.855-2.262-2.32-1.441-.488-2.137-.367-3.18.516-.921.754-1.042 1.902-.3 2.804l.472.61-1.441-.024c-1.191 0-1.566.098-2.086.586-.348.344-.648.782-.648.977-.024.219-.196 0-.395-.461-.2-.465-.621-1.05-.922-1.274-.547-.414-.547-.437.45-.437 1.937 0 3.43-1.586 2.93-3.102-.349-1.023-2.087-1.855-3.653-1.707-2.336.196-3.43 2.391-1.961 3.88l.668.687h-1.067c-2.086 0-3.629 2.562-2.261 3.781.695.637.62.781-.45.906l-.941.07.098-1.242c.101-1.171.05-1.296-.594-1.71-.899-.586-2.688-.54-3.555.097-1.566 1.121-1.64 3.176-.148 3.883l.844.39-1.368.829c-.746.441-1.418.808-1.492.808-.047 0 .074-.343.274-.758 1.218-2.296-1.465-3.687-3.504-1.808-.844.781-.895.93-.77 1.879.149 1.172.672 1.664 1.766 1.687.695 0 .719.024.297.293-.25.168-1.02.66-1.715 1.098-1.219.781-1.64.758-1.664-.098 0-.465-1.117-1.316-1.715-1.316-.77 0-1.938.851-2.41 1.758-.524 1-.125 2.539.77 2.93l.597.265-1.441 1.734c-1.79 2.125-4.004 5.25-4.004 5.664 0 .149.152.344.324.414 1.293.489 8.773 6.665 11.36 9.375 7.577 7.91 11.577 16.04 12.073 24.489.375 6.324-1.14 13.426-4.171 19.531-1.07 2.2-2.91 5.2-3.43 5.613-.074.075-.524.614-.996 1.223-.844 1.027-4.473 4.613-5.39 5.25-.25.168-.376.39-.302.465.274.265 3.903-.32 5.84-.977 4.899-1.59 8.078-3.86 14.637-10.402 9.617-9.57 12.031-11.621 16.156-13.598 7.031-3.394 18.188-3.93 27.211-1.27 1.938.56 3.555 1.122 4.672 1.61.422.195 1.219.563 1.738.781 3.727 1.66 8.078 4.739 11.36 7.985 4.074 4.027 6.535 8.18 7.851 13.207.473 1.883.57 2.832.57 6.593.028 6.153-.746 9.715-3.156 14.524-1.414 2.836-2.558 4.348-5.367 7.105-8.05 7.864-20.824 10.5-30.738 6.325-1.567-.66-4.203-2.391-5.742-3.758-4.274-3.785-6.934-10.11-6.735-15.922.075-2.316.125-2.586.82-3.563 1.118-1.585 3.032-2.441 5.516-2.492 2.211-.023 3.356.344 3.778 1.223.496 1.074.347 1.562-.446 1.562-2.164 0-2.46 4.274-.375 5.25l.871.391-.77.856c-.573.632-.745 1.07-.745 1.828 0 2.05 1.539 4.004 3.129 3.957.847-.028.87 0 .722.683-.25 1.098.297 2.27 1.54 3.39 1.07.977 1.195 1.028 2.312.907.719-.098 1.64 0 2.36.219.671.195 1.616.344 2.113.344 1.714 0 5.269-.735 7.457-1.563 2.832-1.027 4.546-2.055 7.007-4.176 4.844-4.152 7.38-9.402 7.407-15.187 0-2.735-.352-4.516-1.493-7.64-1.367-3.712-3.132-6.274-5.914-8.595l-1.07-.878.648-.903c1.364-2.004.395-3.883-2.562-5.004-1.938-.734-4.098-.66-5.191.145-.672.512-.82.781-.82 1.562 0 .758-.075.903-.423.856-.25-.051-.87-.172-1.394-.246l-.918-.145.621-.906c1.664-2.39-.176-4.688-3.727-4.688-1.914 0-3.578.493-4.398 1.297-.945.953-.996 2.586-.074 3.465.32.344.719.613.867.613.148 0 .2.122.125.243-.25.39-1.316.293-2.04-.172-.394-.266-1.366-.489-2.308-.563l-1.617-.12.996-.513c1.29-.632 2.184-2.246 2.035-3.59-.148-1.171-.52-1.585-1.863-2.171-.969-.414-1.219-.442-2.36-.172-1.663.367-2.831.953-3.827 1.906-.918.856-1.145 1.488-1.02 2.832.125 1.512.969 1.953 3.703 1.93l2.211-.051-1.066.684c-.895.562-1.145.879-1.418 1.855-.172.66-.348 1.223-.371 1.27-.028.023-.375-.098-.77-.317-.996-.511-1.766-.465-3.234.219-1.414.66-2.211 1.488-2.606 2.855-.398 1.247.246 3.055 1.242 3.47.348.144.696.292.72.316.05.023-.173.414-.497.879-.297.437-.598.828-.598.878-.023.051-.421-.144-.867-.414-1.094-.66-2.187-.636-3.605.024-1.613.73-2.586 2.125-2.586 3.66 0 1.93.996 3.125 2.61 3.125.347 0 .62.102.62.195 0 .418-2.136 3.469-2.308 3.32-.102-.093-.176-.535-.176-.949 0-1.004-.77-1.953-1.863-2.32-.746-.246-1.02-.195-2.16.367-1.715.828-2.336 1.442-2.836 2.684-.47 1.222-.172 2.734.699 3.539.594.539 2.36.66 3.23.223 1.168-.614.594.195-1.988 2.757-1.516 1.512-2.836 2.684-2.91 2.614-.074-.075 0-.489.148-.907.524-1.46-.918-3.71-2.336-3.71-.668 0-2.062.808-2.957 1.734-1.789 1.808-.894 5.101 1.367 5.101h.797l-.62.493c-.348.242-1.095.707-1.665 1-.597.293-1.07.632-1.07.73 0 .121 1.144.734 2.558 1.395 5.32 2.488 10.91 6.199 15.657 10.421 6.535 5.79 10.687 11.743 13.668 19.657 1.965 5.172 2.683 9.129 2.683 14.77 0 3.562-.097 4.636-.644 7.152-1.192 5.492-3.082 9.96-6.364 14.941-.843 1.27-1.59 2.367-1.687 2.441-.074.075-.598.66-1.145 1.344-2.511 3.05-7.332 7.25-11.554 10.059-5.617 3.71-10.54 6.101-17.024 8.25-3.504 1.172-8.773 2.297-10.785 2.343-.62 0-1.316.075-1.543.172-.222.098-1.59 1.27-3.004 2.614-1.418 1.343-3.281 2.976-4.175 3.613-.895.633-1.817 1.316-2.04 1.512a8.77 8.77 0 0 1-.992.636 2.913 2.913 0 0 0-.695.438c-.074.074-.45.316-.871.512-.399.195-1.02.539-1.367.757-1.043.684-7.532 3.883-7.88 3.883-.171 0-.519.098-.769.219-1.219.637-5.937 2.078-9.617 2.93-5.144 1.172-13.766 1.687-21 1.222zm27.461-4.91c2.437-.46 2.86-.558 5.094-1.266 6.187-1.98 10.785-4.64 14.937-8.718 5.64-5.516 8.598-11.985 9.395-20.531.297-3.149-.153-7.91-.973-10.06-.445-1.171-1.836-2.808-2.16-2.515-.05.051.148.614.422 1.246.746 1.735 1.492 5.688 1.492 7.934 0 7.738-3.281 16.309-8.324 21.73-1.863 2-3.504 3.493-4.848 4.418-.473.317-.918.66-.992.73-.324.368-3.356 2.028-5.469 2.981-2.262 1.051-4.222 1.782-6.336 2.344-2.683.73-4.625 1.367-4.746 1.54-.074.12-.324.218-.574.218-.223 0-.645.172-.918.367-.422.316-.398.34.523.219.547-.074 2.11-.367 3.477-.637zm-18.238-8.398c.644-.317 1.488-.95 1.863-1.39.57-.657.969-.852 1.914-.977.969-.145 1.168-.098 1.168.218 0 .223.395.781.867 1.246l.895.88 1.914-.122c1.27-.074 2.262-.293 2.933-.637 1.368-.68 2.582-2.074 2.582-2.953 0-.61.153-.757 1.32-1.195.696-.27 1.489-.563 1.739-.66.297-.121.422-.047.422.195 0 .195.348.66.77 1.004.648.535.995.633 2.312.633 3.156 0 5.043-1.05 5.59-3.102.449-1.66-.196-2.66-2.211-3.367-1.613-.562-4.871-3.71-6.809-6.594-3.105-4.59-4.05-7.789-4.3-14.476l-.149-4.446-.621.391c-.594.39-.621.39-.445-.168.867-2.808.793-3.762-.375-4.715-.422-.34-.895-.632-1.043-.632-.77.023-2.16 1.292-2.907 2.66-.695 1.293-.746 2.027-.273 3.101.57 1.223 1.266 1.66 2.41 1.488l.844-.144-.57 1.023c-.325.563-.672 1.344-.77 1.711l-.176.707-.969-.879c-1.613-1.417-2.757-1.12-3.355.903-.473 1.562-.172 3.613.648 4.469.82.855 1.887 1.195 2.73.902.774-.293.821-.27 1.071.734.149.61.098.66-.672.66-1.066 0-1.566.536-1.886 2-.375 1.586.023 3.516.894 4.395.867.879 2.582.977 3.477.172.5-.488.574-.488.722-.121.172.46-.843 1.902-1.765 2.488-.844.535-2.387.707-3.43.367-2.656-.879-5.812-5.37-6.785-9.668-.422-1.883-.422-5.469 0-7.203.894-3.664 3.234-7.664 6.113-10.523 2.09-2.051 5.668-4.344 7.93-5.102.969-.344 1.766-.734 1.766-.879 0-.39 2.632-5.347 3.55-6.691.969-1.438 3.457-3.953 5.07-5.149 2.536-1.855 8.005-4.297 11.258-4.98 3.579-.758 6.114-.902 9.047-.465 6.41.93 10.485 3.004 13.965 7.129 2.559 3.05 4.945 8.644 5.817 13.55.746 4.395-2.711 10.915-7.48 14.11-1.317.879-1.59.953-3.083.953-1.492 0-1.691-.074-2.512-.804-.718-.637-.918-1.028-1.015-1.954-.153-1.246-.075-1.32.742-.804 1.32.851 3.207-.711 3.555-2.93.175-1.172-.2-2.418-.793-2.64-.575-.22-.399-.633.273-.633 2.484 0 2.832-5.153.422-6.227-.672-.293-.82-.879-.399-1.465.497-.683.422-2.074-.175-3.05-.696-1.098-1.168-1.442-2.012-1.465-.371 0-1.293-.414-2.04-.954-.769-.511-1.714-1.074-2.136-1.218-.394-.149-1.066-.39-1.465-.54l-.746-.269.496-.754c.621-1.027.598-1.465-.097-2.27-.82-.929-2.883-1.1-4.375-.367-1.39.708-1.739 1.586-1.168 2.954.125.293-.125.464-.969.707-.621.172-2.086.808-3.254 1.367-1.168.586-2.637 1.125-3.281 1.222-4.621.657-8.004 6.153-8.004 12.961 0 1.395.101 2.567.226 2.641.125.07.348-.809.52-2.004.473-3.222 1.367-6.469 2.29-8.152.917-1.688 2.683-3.59 3.898-4.227.894-.437.87-.34-.149 1-.746.977-.719 1.274.125 1.469 3.828.828 6.41 2 9.395 4.195 1.988 1.493 3.554 3.32 5.02 5.91 2.433 4.274 3.85 11.208 3.304 15.993-.149 1.218-.274 2.562-.274 2.976v.809l1.243-.492c.695-.266 1.367-.485 1.492-.485.148 0 .246.414.246.95 0 1.394.922 2.222 2.512 2.222 3.652 0 7.058-4.762 4.921-6.86-.597-.585-.5-.757 1.067-1.855l1.094-.758-.098 1.489c-.102 1.93.473 2.93 1.914 3.37.895.27 1.117.22 2.383-.39 1.617-.758 3.207-2.539 3.605-4.054.371-1.317-.05-2.54-1.093-3.172-.895-.563-1.618-.489-3.333.316a64.98 64.98 0 0 0-1.414.66c-.125.047.372-.613 1.094-1.465.719-.855 1.39-1.687 1.442-1.855.074-.195.37-.246.82-.149 2.309.442 5.191-2.66 5.219-5.613 0-1.172-.5-2.492-1.02-2.664-.2-.07-.2-.363 0-1.121.172-.562.348-1.027.422-1.027s.473.172.871.39c1.39.711 2.98-.242 3.852-2.316.547-1.27.445-4.371-.153-5.348-.547-.855-1.96-1.61-2.582-1.367-.324.121-.398-.047-.398-.976 0-1.22.074-1.27.996-.758.992.562 2.805.465 3.402-.172.895-.977 1.168-2.219.82-3.977-.421-2.148-1.44-3.687-2.859-4.297-1.015-.441-1.168-.441-1.836-.125-.398.223-.922.711-1.195 1.125l-.496.758-.524-1.441c-.296-.781-.546-1.488-.546-1.563 0-.05.597-.074 1.343 0 1.192.098 1.39.024 2.16-.636.774-.657.848-.852.82-1.954-.046-1.437-.546-2.414-1.91-3.906-1.144-1.219-2.214-1.758-3.456-1.758-1.293 0-1.938.586-1.938 1.711 0 .512-.098 1-.223 1.098-.199.121-2.511-2.05-2.71-2.54-.024-.073.523-.413 1.218-.706 1.39-.633 1.84-1.367 1.617-2.688-.25-1.609-2.113-3.343-4.398-4.074-2.336-.781-4.203.145-4.203 2.074 0 .54-.121.977-.246.977-.149 0-.848-.293-1.543-.633-1.914-.953-5.442-2.25-7.828-2.883l-2.11-.539.645-.414c2.137-1.39 1.492-3.687-1.266-4.469-3.531-1-6.414 1.297-4.3 3.446l.718.73-5.441-.074-5.442-.094-.82.61c-3.406 2.562-11.11 5.93-17.469 7.687-3.554.977-4.898 1.149-9.195 1.125-4.45-.023-6.238-.316-9.52-1.61l-1.293-.491-.57.687c-.523.656-4.62 5.172-6.957 7.688-2.558 2.71-7.308 7.714-7.879 8.277-1.465 1.441-2.98 3.176-2.98 3.371 0 .121 1.367.29 3.054.39 5.094.29 8.551 1.391 11.829 3.782 2.062 1.516 2.933 2.441 4.203 4.371 1.863 2.855 2.683 6.715 2.062 9.887-.472 2.539-2.015 5.203-4.426 7.64-3.23 3.297-6.359 4.813-11.304 5.47-5.84.78-11.383-2.15-11.383-6.005 0-2.27.844-3.515 2.707-3.98 1.715-.438 3.258-.586 3.258-.293 0 .148-.176.27-.375.27-.696 0-2.535 2.027-2.832 3.1-.348 1.27.125 2.61 1.02 2.907.718.242 1.863.168 2.484-.172.25-.148 1.218-.27 2.136-.293 1.293-.05 1.864-.195 2.461-.613l.797-.559.395.73c1.093 2.102 3.828 1.516 4.996-1.097.746-1.683.797-3.074.074-3.785-.445-.438-.719-.512-1.738-.39-1.317.171-1.344.124-.946-1.024.297-.856.524-.93.97-.39.57.683 2.26.34 3.179-.637 1.246-1.293 1.168-4.832-.121-5.832-.946-.711-1.742-.614-2.711.34l-.867.855-.598-1.27c-.77-1.539-.77-1.636-.023-1.636.347 0 .918-.27 1.289-.563.574-.488.671-.781.671-1.734 0-.903-.124-1.266-.695-1.852-1.64-1.687-4.722-2.344-5.668-1.199-.57.707-.445 1.953.352 2.98.273.391.445.758.37.829-.198.195-2.882-.172-2.882-.391 0-.121.176-.34.371-.512.45-.367.473-1.637.028-2.394-.176-.317-.649-.782-1.043-1.047-.973-.61-3.582-.637-4.825-.024-.77.364-.867.536-.941 1.461-.074.907.023 1.149.695 1.758l.746.688-2.488.168c-1.363.097-2.484.27-2.484.343 0 .098-.149.364-.32.633-.325.418-.376.418-1.122-.12-.695-.513-.844-.54-1.539-.243-1.07.437-1.965 1.656-2.137 2.953-.125.879-.027 1.219.446 1.93.324.484.847.875 1.168.925.523.075.547.172.398.856a44.517 44.517 0 0 0-.472 2.539c-.223 1.414-.399 1.828-.918 2.246l-.672.488-.098-2.027c-.125-2.367-.473-3.074-1.941-3.809-1.266-.632-2.188-.609-3.055.075-1.27 1.023-1.344 4.004-.148 6.418.843 1.734 2.609 2.468 3.75 1.562.847-.633.945-.633.945.246 0 1.512 1.219 2.93 2.484 2.93.496 0 .695.195 1.07 1.05.223.563.422 1.122.422 1.22 0 .124-.199.171-.421.148-1.965-.195-2.81.437-2.81 2.098 0 1.98 1.419 4.101 3.231 4.859 1.715.707 2.98-.098 2.98-1.879 0-.516.102-.906.2-.855.102.05.672.585 1.27 1.222l1.066 1.145-.895.832c-.793.758-.894.976-.894 2.097 0 1.125.102 1.344.996 2.223 1.29 1.27 2.656 1.93 4.473 2.125 1.566.145 2.46-.172 3.18-1.195.296-.39.398-.418.995-.074 1.364.707 1.415.78 1.067 1.195-.223.27-.297.781-.2 1.562.102.953.301 1.293 1.145 2.051 2.535 2.195 6.934 2.246 7.953.047.223-.484.422-.61.844-.512.297.075 1.242.27 2.113.442l1.54.293v.902c0 1.125.746 2.102 1.816 2.418 1.14.34 3.328.074 4.672-.613zm-40.285-2.024c-.125-.414-.72-1.465-1.317-2.297-2.387-3.297-5.64-9.398-6.933-13.086-1.368-3.832-1.766-5.273-2.586-9.546-.57-2.977-.57-11.008 0-14.282 1.144-6.617 2.808-11.277 5.668-15.918 1.14-1.879 2.187-3.855 2.484-4.832.348-1.05.644-3.054.45-3.054-.177 0-2.985 4.03-2.985 4.25 0 .047-.446.804-.969 1.66-1.344 2.172-3.527 6.691-4.598 9.496-2.039 5.422-2.832 9.277-3.054 14.7-.153 3.487-.102 4.148.718 8.593 1.391 7.617 5.743 16.355 11.704 23.558.82.954 1.52 1.711 1.566 1.66.05-.074-.023-.464-.148-.902zm72.539-8.449c1.441-.488 3.207-1.73 3.777-2.637.945-1.562.45-3.976-.969-4.539l-.746-.293.871-1.27c.473-.71.895-1.32.946-1.366.046-.051.398.144.769.437.371.27.895.516 1.191.516 1.02 0 2.512-1.368 3.383-3.078 1.266-2.516-.125-5.227-2.511-4.907-.946.121-.97.098-.97-.636 0-.438-.073-1.196-.148-1.684l-.148-.879.992.121c.871.125 1.094.024 1.664-.535.598-.562.672-.809.547-1.71-.148-1.392-1.117-3.27-1.988-3.88-.969-.71-2.559-.687-3.156.047l-.473.563-.82-.758c-.77-.684-.793-.758-.348-1 .894-.54 1.394-1.196 1.394-1.906 0-1.438-3.382-3.391-5.218-3.051-.375.097-1.02.465-1.395.855-.594.61-.644.805-.52 1.805l.172 1.101h-1.914l-.32 1.829c-.473 2.664-.223 7.57.496 9.765 1.293 3.98 3.48 7.203 5.942 8.668.543.34 1.015.684 1.015.758 0 .098-.297.219-.668.293-.398.07-1.219.488-1.867.902-2.582 1.684-3.504 4.59-1.96 6.13.82.804 1.464.878 2.98.339zm43.191-16.625c1.516-.926 2.785-3.371 2.785-5.418.024-1.172-.074-1.418-.82-2.148-.473-.465-1.094-.832-1.418-.832-1.465 0-4.05 2.367-4.723 4.32-.394 1.172-.148 2.613.621 3.613.871 1.125 2.188 1.297 3.555.465zm-59.367-5.027c2.336-16.457 6.758-24.61 15.582-28.64a192.154 192.154 0 0 0 2.855-1.317c1.094-.489-2.906-.149-4.644.414-2.61.855-3.903 1.66-6.512 4.078-3.23 3.004-6.016 7.98-7.48 13.476-.672 2.563-1.243 6.934-1.243 9.668 0 2.344.446 6.274.72 6.274.1 0 .421-1.781.722-3.953zm41.277.875c.77-.535 1.516-2.196 1.516-3.414 0-1.102-.649-2.149-1.492-2.418-.797-.246-1.938.609-2.61 1.925-.719 1.418-.77 2.079-.25 3.079.649 1.218 1.766 1.562 2.836.828zm-95.578-8.348c1.543-1.586 2.137-5.004 1.168-6.566-1.066-1.735-3.281-2.223-4.375-.977-1.016 1.172-1.441 4.027-.844 6.004.621 2.125 2.711 2.906 4.051 1.539zm119.93.219c2.511-1.27 2.785-6.688.422-8.422-1.864-1.367-3.7 0-4.496 3.344-.598 2.492.148 4.418 1.964 5.199.993.418.993.418 2.11-.121zm-21.719.074c1.117-.438 1.516-3.469.621-4.906-.894-1.442-2.187-1.688-3.031-.54-.621.805-.871 3.126-.45 4.126.473 1.101 1.794 1.71 2.86 1.32zm-91.078-4.883c1.738-1.562 1.765-3.71.023-4.613-.668-.316-.867-.344-1.59-.05-.445.194-1.168.757-1.64 1.269-.746.855-.82 1.05-.719 2.125.148 1.511.719 2.148 1.988 2.148.746 0 1.168-.195 1.938-.879zm89.512-3.441c.996-1.125.671-3.004-.82-4.52-.696-.73-1.067-.926-1.739-.926-1.168 0-1.465.368-1.465 1.856 0 1.539.496 2.809 1.39 3.492.821.633 2.114.656 2.634.098zm-117.493-.512c.446-.246 1.563-.465 2.758-.539l1.988-.121-.074-.758c-.101-1.05.469-1.562 1.79-1.562.992 0 1.066-.051 1.367-.903 1.636-4.543 6.085-11.793 10.683-17.531 6.684-8.273 13.344-17.7 12.524-17.7-.622-.023-.817-.413-.543-1.171.593-1.684-1.641-3.957-3.903-3.957-1.367 0-2.586 1.027-2.586 2.2v.757l-1.168-.172c-.672-.074-1.242-.195-1.293-.246-.047-.024.176-.414.473-.828.82-1.149.922-2.418.223-3.274-1.243-1.562-4.422-2.12-6.114-1.097-1.539.93-1.988 2.613-1.066 4.078l.496.781h-4.496l.547-.707c.297-.39.594-1.195.644-1.809.125-.976.051-1.195-.523-1.757-.371-.364-.645-.684-.594-.73.047-.052.645.046 1.367.195 3.625.73 6.262-2.493 4-4.883-1.492-1.563-5.793-1.465-7.457.172-.52.535-.695.925-.695 1.632.023 1 .273 1.442 1.242 2.102.598.414.598.414-.867.414-2.512.023-4.004 1.125-4.277 3.125-.172 1.219.3 2.05 1.492 2.637l.797.414-1.742.418c-.942.242-1.938.511-2.16.61-.399.144-.45.023-.45-.856 0-.805-.148-1.172-.746-1.758-.719-.707-.844-.73-2.457-.637-1.867.102-3.133.734-3.852 1.93-.574.953-.523 2.93.098 3.71l.496.61-.62.39c-.747.493-.872.493-.872.028 0-.195-.32-.707-.695-1.148-.594-.637-.895-.758-1.836-.758-1.27 0-3.059.879-3.903 1.93-1.02 1.292-.968 3.566.125 4.566l.594.562-.969.926c-.945.926-.968.926-1.613.512-1.02-.656-2.262-.34-3.554.906-1.317 1.266-1.739 2.344-1.344 3.586.152.516.547 1.149.87 1.465l.599.562-.723 1.586c-1.414 3.125-1.84 5.692-1.488 9.18l.171 1.832-.894.149c-1.367.218-1.863.902-1.863 2.562.023 1.414.347 2.172 1.59 3.54 1.714 1.855 3.628 2.343 4.968 1.218.723-.586.774-.586 1.395-.195.347.222.62.418.62.464 0 .028-.124.391-.273.809-.347.95.223 2.074 1.317 2.633 1.144.586 3.754.39 5.043-.39 1.168-.708 2.238-.68 3.11.124.347.317.843.61 1.116.684.77.195 2.336-.051 3.207-.512zm32.106-1.758c1.02-.492 2.113-1.785 2.46-2.883.473-1.562-.894-3.71-2.362-3.71-.868 0-2.684 1.097-3.305 2.027-1.016 1.535-.695 3.758.672 4.59.968.586 1.242.586 2.535-.024zm-53.977-1.394c-1.566-2.344-5.89-10.301-6.386-11.793-.2-.61-.672-2.489-1.02-4.172-.348-1.688-.867-3.711-1.14-4.516-.797-2.273-.747-2.957.32-3.86.82-.66 2.66-3.98 2.66-4.76 0-.415 2.41-4.958 3.527-6.614 2.711-4.031 4.403-5.813 7.606-7.887 4.797-3.152 10.562-5.52 17.32-7.105 4.375-1.051 4.598-1.075 7.508-1.39 1.515-.173 2.73-.392 2.683-.49-.074-.073-1.02-.292-2.09-.464-1.59-.242-2.507-.242-4.546 0-9.79 1.148-18.266 4.539-23.535 9.422-3.528 3.273-7.801 8.984-9.891 13.281-.742 1.54-1.488 2.86-1.664 2.906-.149.051-.621.442-1.043.856-.598.586-.844 1.12-1.07 2.367-.297 1.562-.297 1.66.972 6.473 2.336 9.007 3.602 11.422 9.043 17.355 1.094 1.2 1.418 1.367.746.39zm46.051.148c.918-.316 2.184-1.539 3.078-2.883 1.32-2 .746-4.515-1.168-5.297-1.117-.464-2.183-.171-3.277.954-1.617 1.636-2.29 4.613-1.418 6.273.621 1.172 1.441 1.465 2.785.953zm87.895-1.465c.87-.66.894-2.101.074-2.86-2.063-1.901-5.715-1.562-5.293.517.2.953.523 1.316 1.867 2.171 1.316.805 2.434.88 3.352.172zm31.386-.465c.227 0 1.07-2.074 1.07-2.636 0-1.516-.917-3.563-2.136-4.762-1.617-1.586-3.504-1.465-4.25.246-.797 1.93.074 5.86 1.516 6.785.894.586 2.113.809 3.007.563.399-.098.77-.196.793-.196zm-103.898-4.222c2.633-1.516 3.504-3.64 2.308-5.64-.77-1.294-1.988-1.587-3.527-.88-1.566.73-2.86 2.028-3.058 3.075-.446 2.296.574 3.761 2.585 3.761.645-.023 1.391-.144 1.692-.316zm-61.137-4.227c.473-.46.848-1 .848-1.144 0-.172.148-.563.32-.903.524-1.004.399-3.492-.223-4.324-.718-.976-2.035-1.781-2.855-1.781-.895 0-2.336 1.367-2.563 2.441-.496 2.493.126 5.004 1.47 6.055 1.042.805 2.011.707 3.003-.344zm53.656-.46c3.157-1.81 4.172-4.47 2.457-6.47-.543-.613-.816-.734-1.761-.734-1.64 0-2.735.707-4.102 2.637-.945 1.344-1.219 3.371-.597 4.32.82 1.223 2.14 1.293 4.003.246zm111.829-4.321c-.895-4.348-3.977-11.063-6.735-14.676-4-5.246-9.418-7.836-18.738-8.933-5.914-.711-9.195-.856-12.625-.54-4.223.368-6.313.735-6.086 1.075.098.148.941.172 2.336.074 2.531-.195 10.113.219 13.789.734 3.156.438 6.586 1.266 9.172 2.27 3.652 1.367 8.027 4.441 10.562 7.371 2.485 2.86 5.864 8.594 7.828 13.234.372.903.747 1.586.82 1.54.048-.075-.1-1.028-.323-2.149zm-98.188 1.656c1.293-.535 2.836-2.172 3.031-3.195.375-2.027-.867-3.785-2.683-3.785-1.91 0-4.223 1.808-4.57 3.566-.524 2.707 1.663 4.465 4.222 3.414zm93.59-1.242c.918-.465 1.242-1.05 1.242-2.32 0-2.54-2.832-5.422-5.39-5.469-2.141-.047-2.86 1.61-1.817 4.297 1.191 3.125 3.754 4.613 5.965 3.492zm-100.324-5.203c2.437-1.293 3.53-3.219 2.933-5.149-.37-1.222-1.02-1.757-2.312-1.906-.918-.097-1.266 0-2.309.711-.672.438-1.617 1.34-2.039 2-.672.977-.82 1.414-.82 2.516 0 1.148.097 1.437.746 2.074.672.637.871.707 1.691.563.496-.098 1.465-.442 2.11-.81zm-62.274-.07c.918-.32 2.184-1.54 3.078-2.883 1.293-1.953.746-4.469-1.093-5.344-2.16-1.027-5.141 2.047-5.141 5.274 0 1.437.273 2.148 1.09 2.78.625.489 1.094.54 2.066.173zm94.856-2.274c1.34-.34 2.507-.68 2.582-.754.3-.293-.172-.343-1.094-.074-.547.149-2.809.293-5.191.293-3.579 0-4.551-.074-6.29-.535-4.374-1.125-8.374-3.445-11.656-6.692-3.926-3.93-6.261-8.277-7.726-14.402-.45-1.86-.645-7.422-.325-9.89.547-4.344 1.317-6.688 5.32-16.188 1.938-4.613 2.509-6.148 4.548-12.082 1.664-4.883 1.687-5.004 1.414-5.004-.196 0-.817 1.172-.817 1.512 0 .219-3.007 6.176-8.425 16.676-4.672 9.054-5.668 12.18-5.915 18.359-.324 7.738 1.989 14.695 6.86 20.578 4.074 4.91 9.765 7.961 16.55 8.89.422.071 2.31.071 4.223.024 2.66-.074 4.051-.246 5.942-.71zm58.968-.265c1.27-.516 1.79-1.028 1.938-1.93.324-1.637-1.016-3.344-3.527-4.469-2.04-.926-2.809-.953-4.028-.219-.969.61-1.015.707-1.015 1.782 0 .832.172 1.39.62 2.05 1.094 1.54 3.43 3.125 4.673 3.153.246 0 .843-.172 1.34-.367zm-12.152-3.055c1.543-.926 2.04-3.074 1.02-4.32-.895-1.047-3.403-1.684-5.618-1.415-1.14.145-1.515.317-2.335 1.122-1.043 1.027-1.168 1.562-.594 2.66 1.02 1.93 5.566 3.125 7.527 1.953zm-37.45-.633c2.56-.758 4.227-1.781 6.438-3.98 6.559-6.567 8.946-16.871 6.41-27.614-1.265-5.297-3.675-10.277-8.3-17.086-1.762-2.613-4.223-6.398-5.418-8.425-2.98-4.957-2.856-4.762-3.13-4.762-.448 0-.25.758.446 1.785 1.469 2.098 4.797 7.86 6.113 10.496 5.32 10.766 7.63 19.945 6.735 26.906-1.016 8.055-3.43 13.817-7.156 17.211-3.778 3.442-4.649 4.371-4.649 4.957 0 .977.547 1.075 2.512.512zm-9.593-1.465c3.133-.316 7.856-2.05 10.016-3.687 1.07-.782 2.883-3.051 3.68-4.516.644-1.246.695-1.418.398-1.418-.102 0-.324.297-.5.688-.348.754-1.813 2.316-3.379 3.586-1.316 1.05-3.754 2.148-6.238 2.808-2.41.637-7.528.977-10.188.684-3.105-.344-8.5-1.344-10.734-2-1.145-.32-2.063-.516-2.063-.418 0 .074.47.441 1.067.781 3.629 2.223 7.304 3.348 11.98 3.637 2.73.172 3.153.172 5.961-.145zm-89.039-1.39c1.64-.735 3.281-2.27 3.676-3.47.797-2.343-1.067-4.612-3.305-4.003-1.863.516-4.148 3.418-4.148 5.273 0 1.465.945 2.735 2.039 2.758.246 0 1.015-.265 1.738-.558zm86.383-3.004c1.887-.368 4.918-1.66 5.887-2.465.722-.637 1.617-1.906 1.617-2.344 0-.539-.45-.613-2.113-.39-3.653.437-11.88.074-14.165-.66-5.12-1.66-8.226-5.47-9.218-11.305-.45-2.758-.45-9.227.023-12.621.57-4.274 1.465-8.739 3.008-14.989.348-1.418.793-3.226.969-4.031.199-.805.496-2.098.695-2.855.2-.782.25-1.418.148-1.418-.125 0-.222.171-.222.367s-.098.562-.223.804c-.125.223-.473 1.079-.77 1.883-.3.805-.648 1.684-.773 1.953-.496 1.149-1.715 4.516-2.21 6.102-1.54 4.98-2.16 6.91-3.255 10.133-3.73 11.18-3.851 19.117-.375 24.172 1.145 1.683 2.86 3.367 4.45 4.441 4.375 2.93 11.308 4.273 16.527 3.223zm-78.805-4.223c.574-.27 1.543-.93 2.137-1.465 1.344-1.222 1.766-2.418 1.394-3.808-.347-1.223-.796-1.735-1.863-2.075-1.617-.539-4.078 1.047-5.219 3.32-.523 1.024-.625 1.563-.523 2.317.273 2.027 1.84 2.688 4.074 1.711zm160.29-1.05c1.019-1.098.917-2.345-.25-3.563-.72-.758-2.235-1.516-3.005-1.516-.722 0-1.394.805-1.394 1.66 0 .73.797 2.223 1.543 2.88 1.34 1.198 2.336 1.366 3.105.538zm-68.391-1.759c1.515-.707 3.925-3.125 4.625-4.664 1.14-2.539.82-4.734-.848-5.734-1.738-1.05-3.453-.172-3.777 1.902-.57 3.465-1.489 5.2-3.278 6.2-1.566.855-1.668 1.003-1.32 1.664.7 1.265 2.66 1.535 4.598.632zm-78.778-2.71c1.742-.852 2.66-3.051 1.864-4.54-1.067-1.93-5.665-1.367-7.727.954-.645.707-.746 1-.672 1.953.074.976.2 1.195.945 1.707.77.511 1.094.562 2.735.488 1.215-.047 2.21-.242 2.855-.563zm24.653-.047c1.765-.805 2.238-2.637.996-3.93-1.567-1.664-4.2-2.102-5.742-.93-.793.586-.895.781-.895 1.781 0 .977.125 1.247.945 2.028 1.516 1.39 3.18 1.758 4.696 1.05zm94.382-.563c-.394-.633-10.386-5.957-13.714-7.3-2.188-.88-4.325-1.34-5.32-1.122-.97.219-1.716 1.024-1.716 1.856 0 2.367 4.997 4.246 16.032 6.078.968.172 2.136.39 2.61.488 1.241.27 2.284.293 2.108 0zm21.872-1.125c.52-.195 1.117-1.367 1.117-2.172 0-.879-.844-2.39-1.739-3.148-1.937-1.586-3.53.12-2.734 2.906.547 1.953 1.938 2.953 3.356 2.414zm40.109-7.125c1.219-2.371 1.887-6.203 1.863-10.547-.023-4.297-.695-8.18-1.664-9.304-.398-.489-.45-.512-.273-.098.097.27.222 1.98.297 3.808.148 4.739-.297 7.446-2.286 13.868-.746 2.367-.796 3.027-.25 3.539.348.344.45.344 1.121.027.395-.223.918-.781 1.192-1.293zm-68.79-.246c1.294-.832 2.911-3.004 3.134-4.246.148-1.05-.598-2.809-1.442-3.348-.82-.488-2.336-.39-3.207.223-1.488 1.047-2.707 4-2.36 5.758.2 1.078 1.34 2.297 2.161 2.297.324 0 1.094-.317 1.715-.684zm27.837-1.246c.62-.633.719-.902.719-2.149 0-2.464-1.368-4.027-2.81-3.269-1.663.879-1.937 4.687-.444 5.809.695.539 1.761.367 2.535-.391zm-117.172-6.078c2.012-.414 4.82-1.465 5.664-2.102 1.07-.781 1.617-2.828.996-3.734-.45-.684-.746-.684-3.457 0-.82.195-2.61.61-3.977.906-9.242 1.926-10.164 2.195-10.585 2.977-.672 1.218.671 2.148 3.503 2.367 2.137.172 6.016-.024 7.856-.414zm97.043-3.516c.867-.586 1.836-1.414 2.137-1.879.968-1.441.62-3.98-.649-4.664-.273-.12-.969-.246-1.566-.246-1.887 0-3.852 1.86-4.57 4.324-.422 1.414-.297 2.098.472 2.953.867.903 2.309.73 4.176-.488zm-18.418-1.074c2.016-.414 3.457-1.121 4.996-2.465 1.27-1.125 2.71-3.148 2.71-3.808 0-.418-.87-.586-1.046-.223-.098.297-2.883 2.078-3.976 2.59-2.012.902-4.868 1.613-7.083 1.758-1.96.144-2.308.246-2.308.585 0 .61.918 1.66 1.566 1.782 1.016.222 3.528.097 5.14-.219zm-85.633-2.93c1.29-1.27.742-4.441-.996-5.957-.746-.633-1.043-.734-2.285-.734-2.164 0-3.031 1.027-2.711 3.125.273 1.59.324 1.734.894 2.516 1.32 1.757 3.829 2.273 5.098 1.05zm7.602-2.027c.922-.902 1.144-1.758.746-3.027-.946-3.125-4.524-5.516-6.285-4.223-1.594 1.195-.426 5.934 1.789 7.398 1.242.829 2.832.782 3.75-.148zm102.66-.563c2.484-.804 4.695-3.074 4.695-4.808 0-1.05-.57-2.317-1.266-2.809-.87-.586-2.535-.484-3.68.196-2.581 1.613-3.898 4.566-2.882 6.496.648 1.195 1.543 1.465 3.133.925zm-109.567-6.906c.918-.219 1.442-1.101 1.442-2.441 0-1.32-.422-2.223-1.668-3.567-2.434-2.636-5.54-2.562-5.54.149 0 3.027 2.735 6.543 4.72 6.078.199-.023.671-.148 1.046-.219zm116.871-1.71c1.32-.759 2.985-2.489 3.305-3.466.5-1.464-.273-3.347-1.59-3.882-1.191-.489-2.535-.075-4.125 1.316-2.035 1.809-2.808 3.883-2.011 5.422.82 1.586 2.359 1.781 4.422.61zm-12.273-1.54c.594-.39 2.11-1.73 3.328-2.953 3.281-3.32 6.262-5.613 8.824-6.785 2.286-1.05 6.336-2.027 10.485-2.516 2.289-.293 10.066-.195 14.488.145.969.074 1.691.074 1.617 0-.199-.168-4.324-1.07-8.176-1.758-3.976-.707-8.773-.781-11.78-.219-2.434.465-5.516 1.465-6.41 2.078-.376.266-.747.485-.821.485-.223 0-3.133 1.758-3.88 2.32-1.515 1.172-6.905 6.738-8.722 9.008-.894 1.101-.52 1.172 1.047.195zm-84.023-.484c1.343-.637 2.062-1.223 2.46-1.98.497-.903.051-1.098-1.84-.782-2.706.465-6.062-.242-10.636-2.246-.918-.39-1.738-.656-1.813-.586-.097.074-.074.54 0 1.027.325 1.684 2.66 3.563 5.79 4.66 2.113.735 4.375.688 6.039-.093zm50.746-2.344c.722-.32 1.816-1.004 2.437-1.539 2.309-2.027 5.59-7.3 6.559-10.57 1.02-3.395 1.043-5.715.05-7.157-.894-1.293-1.242-1.148-2.136.977-2.016 4.813-2.785 5.79-7.606 9.473-4.199 3.222-5.441 4.394-5.816 5.617-.895 2.976 2.86 4.808 6.512 3.2zm-149.38-5.86c.45-4.25 2.684-9.718 5.817-14.308 2.535-3.734 5.664-6.422 11.23-9.691 2.165-1.27 2.81-1.856 2.313-2.149-.496-.293-5.144 2.125-7.73 4.004-3.352 2.488-6.559 6.25-8.696 10.278-.472.878-.921 1.636-.996 1.71-.222.196-1.863 4.418-2.285 5.86-.719 2.562-.992 4.781-.87 7.226.198 3.32.522 3.954.745 1.438.102-1.074.324-3.027.473-4.367zm72.665 3.61c.77-.484 1.144-1.781.844-2.855-.121-.438-.621-1.27-1.118-1.856-2.484-2.832-6.808-3.027-6.808-.293.023 1.735 1.937 4.567 3.601 5.324.899.391 2.61.243 3.48-.32zm25.621-1.926c1.07-.195 2.758-.734 3.754-1.199 1.492-.707 1.812-.95 1.812-1.414 0-1.32-.843-7.617-1.242-9.352-.125-.535-.472-2.074-.746-3.418-.297-1.34-.644-2.757-.77-3.171-1.265-4.079-1.69-5.301-2.757-7.934-1.84-4.566-4.227-8.766-6.758-11.82-.648-.782-1.145-1.438-1.094-1.461.047-.028.52-.223 1.067-.418 2.011-.73 2.039-2.809.05-4.637-1.789-1.637-3.578-1.758-4.87-.344l-.723.805-1.442-1.219c-1.09-.902-3.875-2.855-4.992-3.492-.027-.023.172-.488.445-1.047.45-.883.473-1.125.227-1.883-.152-.46-.7-1.195-1.195-1.609-.82-.684-.844-.758-.297-.61 1.715.462 2.61.438 3.703-.148 1.265-.66 2.16-2.05 1.914-2.976-.574-2.25-4.524-4.032-6.586-2.957-1.07.539-2.016 1.757-2.016 2.59 0 .902.575 2.023 1.293 2.515.77.535.496.656-.793.363-1.343-.293-2.859.172-3.578 1.125-.25.317-.597.754-.746.977-.226.293-.422.316-1.195.074-1.043-.32-1.242-.687-.371-.687 1.566 0 3.105-1.953 2.808-3.54-.3-1.488-2.562-2.831-4.722-2.804-1.887.047-3.63 1.683-3.63 3.441 0 .754.177 1.098.946 1.832l.918.903-.844-.172c-.449-.074-1.39-.145-2.062-.145h-1.242l.77-.855c.62-.707.769-1.074.769-2.028 0-.976-.121-1.293-.668-1.804-.895-.856-1.817-1.172-3.282-1.172-2.535 0-4.25 1.367-4.25 3.414 0 .906.149 1.344.622 1.906l.62.735-.57.144c-1.367.367-1.59.219-1.566-.926.05-2.004-1.738-3.125-3.902-2.492-2.559.758-3.727 2.442-3.157 4.54.149.515.399 1.027.547 1.124.149.098-.074.344-.57.61-1.043.539-1.219.562-1.219.097 0-.73-.57-1.535-1.441-2.027l-.918-.512.668-.242c1.07-.39 2.386-1.711 2.808-2.809.325-.855.375-1.246.149-2.05-.77-2.809-4.125-2.98-6.535-.34-.844.926-.942 1.144-.942 2.39 0 2.102.719 3.028 2.61 3.32.421.075.347.173-.426.633-1.516.93-2.012 1.81-1.887 3.372.074.78.297 1.511.547 1.78.445.466.422.513-.023 1.075-.426.54-.524.563-.946.27-.746-.536-2.187-.414-3.207.27-1.066.706-1.144.73-1.144.265 0-.168-.274-.73-.621-1.219l-.594-.879h.594c2.039 0 4.597-2.562 4.597-4.637 0-1.757-1.367-3.422-2.808-3.422-1.09 0-2.707 1.028-3.528 2.25-.992 1.461-.992 3.442-.023 4.688l.668.875h-1.266c-1.168 0-1.344.074-2.586 1.273-2.21 2.122-2.41 4.149-.62 6.176.745.828.745.856.226.856-.325 0-.996.437-1.618 1.047-2.21 2.171-2.136 5.445.149 6.933 1.293.832 2.363.637 3.555-.66 1.89-2.047 1.988-4.781.273-6.418l-.871-.832 1.07-.414c.598-.219 1.492-.828 2.012-1.344l.969-.976.574.855.594.856-.496.953c-.895 1.73-2.707 6.734-2.735 7.59 0 .097 1.317.246 2.957.343l2.934.168 1.094-1.07c1.191-1.148 4.347-2.86 6.312-3.395 1.766-.488 6.512-.418 8.574.121 3.653.977 7.133 3.004 9.641 5.618 3.059 3.195 4.273 6.32 4.273 10.91l.028 2.785 1.886 1.586c2.985 2.492 2.637 2.39 4.125 1.246.723-.539 2.29-1.809 3.532-2.809 1.215-1.023 2.308-1.855 2.41-1.855.098 0 .2.27.2.586 0 .855 1.14 2.098 1.91 2.098.624 0 .624.027-.196.562-.473.293-1.047.977-1.32 1.492-.395.781-.422 1.07-.172 1.852.148.515.445 1.078.672 1.246.546.441 2.011.344 2.656-.195.797-.66-1.367 1.832-2.535 2.98-.57.512-1.016 1.023-1.016 1.121 0 .27 4.918 3.492 6.582 4.324 1.89.903 3.555 1.489 5.469 1.88 2.012.413 2.512.413 4.746 0zm-37.598-1.125c.297-.168.621-.414.72-.558.347-.516.198-1.883-.298-2.86-1.543-2.93-5.441-2.32-4.746.735.2.953 1.293 2.562 1.84 2.804.57.223 1.937.149 2.484-.12zm25.77-1.144c0-.102-.371-.32-.797-.492-1.637-.586-6.387-3.805-12.621-8.618-.895-.683-2.016-1.539-2.488-1.879-.496-.367-2.211-1.707-3.852-3.003-6.61-5.2-11.605-8.715-13.914-9.766-2.137-.977-1.59-.316 1.39 1.71a369.812 369.812 0 0 1 4.547 3.173c4.524 3.297 16.278 12.574 19.286 15.21 1.937 1.712 3.652 2.758 5.343 3.321 1.54.512 3.106.684 3.106.344zm52.36-.735c2.808-2.222 6.015-6.152 7.405-9.156l.622-1.344.945.493c.992.484 1.863.414 2.633-.247 1.195-1.05 1.515-3.71.648-5.128-.648-1.024-2.484-1.903-3.207-1.512-.797.414-1.02.293-1.02-.586v-.832l1.442.125c1.195.098 1.516.047 2.09-.39 2.11-1.66-.028-6.376-2.883-6.376-.895 0-1.79.465-2.063 1.051-.226.465-.324.39-1.167-.902-.5-.782-.895-1.465-.848-1.516.05-.047.574.102 1.168.297 1.914.633 3.754-.27 3.754-1.906 0-2.125-2.04-4.102-4.227-4.102-.82 0-1.191.149-1.789.734-.621.633-.719.903-.644 1.708l.074.953-.547-.512c-.324-.297-.621-.492-.672-.418-.297.316-1.441 4.469-1.562 5.785l-.153 1.54-.445-1c-.473-1.052-.945-1.22-1.566-.587-.446.414-.497 1.024-.176 1.54.125.195.125.632-.024 1.074l-.273.73-.445-.586c-.348-.46-.524-.512-.747-.293-.398.39-.101 1.004.547 1.098.547.074.547.101-.25.976l-.793.907.395 1.343c.226.754.45 1.368.473 1.368.148 0 2.136-2.883 2.136-3.102 0-.098.2-.414.399-.684.347-.465.375-.418.222.489-.199 1.097-.918 3.71-1.613 5.734-.45 1.367-.969 4.398-.969 5.766 0 .828.746 1.804 1.34 1.804.2 0 .375-.097.375-.195 0-.242 1.488-.781 2.188-.781.273 0 .593.097.668.242.175.297-.746 3.32-1.266 4.078-.523.805-.797.684-1.117-.46-.375-1.298-.598-1.59-1.293-1.735-.3-.051-.746-.196-.969-.293-.375-.149-.45-.051-.45.61 0 .78 1.915 5.128 2.263 5.128.101 0 .722-.418 1.39-.93zm-93.09-1.734c.843-.852.945-1.879.25-2.734-.426-.512-.7-.586-2.239-.586-1.863 0-2.312.27-2.66 1.539-.422 1.488.648 2.465 2.71 2.492 1.02 0 1.317-.125 1.938-.711zm5.937.344c1.543-.781 1.914-2.172.871-3.2-.719-.707-.746-.73-.223-.925.223-.074.72.12 1.192.46.62.466 1.117.61 2.062.61 1.59 0 2.313-.61 2.313-1.953 0-1.828-2.586-4.148-4.649-4.148-1.168 0-2.16.976-2.011 1.976.125.734.097.711-1.192-.535-1.27-1.223-1.469-1.684-.722-1.684.523 0 1.117-.976 1.117-1.832 0-.39-.223-1.05-.496-1.465-.274-.39-.496-.804-.496-.878s.445-.27.968-.442c1.094-.316 2.012-1.27 2.012-2.074 0-1.344-1.39-2.54-3.824-3.32-1.715-.536-3.63.414-3.63 1.855 0 .293.274.93.622 1.414l.594.883h-.77c-.422 0-.992.168-1.242.414-.422.367-.445.34-.445-.684 0-2.464 1.414-5.664 3.504-7.886 1.14-1.246 1.191-1.344.57-1.125-2.113.808-4 2.664-4.82 4.789-.672 1.707-.97 5.953-.524 7.566.399 1.442 2.09 3.613 3.504 4.516.695.441 1.242.855 1.242.953 0 .074.723.683 1.617 1.344l1.614 1.195-1.094.316c-.867.246-1.168.489-1.516 1.223-.57 1.172-.273 2 .871 2.563 1.07.535 2.04.562 2.98.074zm75.05-.489c1.071-.222 1.493-.539 1.493-1.148 0-.367-.102-.441-.422-.316-1.469.586-3.23.851-5.719.851-2.781 0-3.476.223-2.234.735.57.242 5.418.171 6.883-.122zm-61.85-1.074c.917-.906.917-1.586 0-3.004-1.84-2.832-5.993-3.343-5.993-.757 0 1.125.746 2.492 1.965 3.566.87.758 1.191.902 2.16.902.922 0 1.27-.12 1.867-.707zm-26.419-.906c1.192-.46 1.664-1.219 1.442-2.39-.473-2.442-3.48-3.833-5.543-2.587-.672.391-.82.633-.82 1.34 0 1.856 1.816 3.785 3.777 4.004.101.024.62-.144 1.144-.367zm100.77-.266c.62-.71.648-1.78.05-1.78-.398 0-.87.925-.87 1.73 0 .586.3.586.82.05zm-12.051-.488c.371-.27.695-.66.742-.879.078-.344-.074-.32-1.242.07-1.988.66-4.672 1.051-6.36.93-1.44-.097-1.964.074-1.218.39.148.075 1.89.098 3.851.075 3.106-.074 3.606-.148 4.227-.586zm-19.61-.27c.149-.292.77-.562 1.692-.757 2.16-.489 2.558-.707 2.558-1.586 0-.414-.222-1.125-.523-1.586l-.496-.832-.719.855c-.398.465-1.07 1-1.515 1.172-.672.27-.871.27-1.493-.097l-.722-.415v1.684c0 .93.078 1.758.176 1.832.296.317.796.168 1.043-.27zm-28.851-1.367c.871-.437 1.64-1.293 2.012-2.27.273-.683.273-.901-.121-1.71-.649-1.27-1.715-1.563-2.957-.805-1.766 1.074-2.141 3.395-.747 4.567.77.656.918.683 1.813.218zm48.582-.074c.848-.414 1.441-1.05 1.27-1.34-.051-.074-.649.047-1.317.29-1.691.585-5.121 1.078-6.809.93-.796-.075-1.417-.024-1.417.073 0 .317.796.414 4.175.438 2.633.027 3.477-.047 4.098-.39zm-69.059-4.515c1.168-1.051.871-2.637-.797-4.153-.644-.586-1.64-1.219-2.21-1.39-.946-.293-1.118-.293-1.864.148-.644.367-.843.633-.894 1.344-.098 1.144.62 2.539 1.914 3.683.844.758 1.191.903 2.113.903.793 0 1.29-.145 1.738-.535zm134.121-.145c.668-.586.82-.906.918-2.078.149-1.781-.05-2.442-.793-2.856-1.468-.757-3.132 1.051-3.132 3.395 0 2.148 1.464 2.906 3.007 1.539zm-157.878-.223c.175-.242.398-.754.472-1.144.149-.688.172-.688.348-.195.25.632.82.73.621.093-.074-.242-.25-1.293-.398-2.316-.125-1.05-.297-2.028-.372-2.149-.199-.293-1.543-.293-1.664.024-.05.144-.425.144-.996-.05-1.965-.587-3.23 1.003-2.707 3.37.348 1.512.844 2.246 1.864 2.684.945.418 2.386.27 2.832-.317zm2.535-1.832c0-1.218.82-5.613 1.515-8.25 1.043-3.832 3.032-6.812 6.09-9.18 1.016-.757 1.79-1.44 1.738-1.515-.199-.168-1.964.734-3.503 1.809-3.829 2.613-5.817 6.324-6.61 12.254-.273 2.078-.199 5.128.149 5.664.347.539.62.171.62-.782zm73.906-3.539c.148-1.074.098-1.195-.719-2.023-.945-.953-1.07-1.223-.523-1.223.172 0 .472-.172.644-.367.25-.316.25-.465-.12-.856-.626-.68-1.368-.632-1.368.075-.027.539-.027.539-.375-.075-.2-.34-.297-.902-.223-1.265.125-.563.024-.734-.496-.953-.968-.442-1.394.047-1.394 1.586 0 1.367.152 1.66 1.965 3.808 1.988 2.32 2.086 2.442 2.261 2.442.098 0 .25-.512.348-1.149zm55.965-.656c-1.07-3.957-3.926-9.57-6.637-12.965-1.988-2.492-5.914-6.277-7.953-7.668-1.563-1.074-1.54-1.047 1.394 1.953 1.641 1.66 3.704 3.907 4.57 4.957 2.958 3.637 6.016 8.715 7.481 12.356 1.242 3.125 1.766 3.758 1.145 1.367zm-40.035-.93c1.492-.902 3.578-2.734 4.273-3.785.422-.633 1.07-3.832 1.07-5.394 0-.586-.125-1.27-.273-1.563-.871-1.61-7.953-2.39-13.895-1.562-2.73.39-3.476.632-4.222 1.414-.473.492-.524.734-.399 2.125.45 4.226 2.91 7.715 6.535 9.203 1.196.492 1.79.586 3.43.539 1.79-.074 2.137-.172 3.48-.977zm-94.383-.242c.719-.586 1.316-2.223 1.316-3.664 0-2.93-1.59-4.836-4.101-4.836-1.02 0-1.39.125-1.813.563-1.195 1.246-1.441 4.445-.472 6.273.945 1.883 3.703 2.785 5.07 1.664zm164.336-.074c.945-.488 2.238-2.66 2.238-3.762 0-1.148-.598-1.734-1.789-1.734-1.293 0-2.285.539-3.18 1.758-.996 1.343-1.047 2.859-.101 3.59.797.613 1.84.66 2.832.148zm-132.778-.027c1.79-.461.125-4.247-1.886-4.247-1.344 0-1.668 1.223-.77 2.954.645 1.199 1.442 1.613 2.656 1.293zm-6.011-3.415c-.547-.464-1.442-1.078-1.989-1.367-1.316-.66-1.293-.613-.546-1.199.793-.586.894-1.758.246-2.465-.793-.855-3.727-.39-4.149.66-.472 1.246-.222 1.536 2.285 2.782 1.317.683 2.86 1.488 3.407 1.832 1.464.879 1.886.734.746-.243zm2.957-1.101c.867-.684.82-1.488-.125-2.27-1.418-1.171-4.2-.73-4.2.684 0 .758.274 1.05 1.391 1.61 1.266.613 2.113.613 2.934-.024zm143.14-1.293c1.442-.586 2.957-3.418 2.536-4.738-.102-.266-.575-.68-1.043-.903-.848-.39-.922-.39-2.04.172-2.785 1.344-3.726 4.664-1.59 5.492.942.368 1.192.368 2.137-.023zm-21.125-1.637c1.02-.781.895-1.902-.347-3-1.117-.976-2.434-1.172-3.43-.492-.82.563-.746 2.004.148 2.836 1.418 1.293 2.536 1.512 3.63.656zm7.282-.242c1.195-.441 1.816-1.195 1.816-2.2 0-1.171-.672-1.683-2.262-1.683-1.617 0-2.71.88-2.71 2.149 0 1.097.199 1.414.995 1.734.82.316 1.317.316 2.16 0zm-82.48-1.562c.026-.735.198-1.637.398-2.028.472-.902 2.285-2.66 3.207-3.125.968-.511.718-.636-.797-.441-2.559.32-4.223 1.98-4.598 4.543-.172 1.074-.121 1.222.5 1.781 1.016.93 1.242.781 1.29-.73zm88.94-2.614c2.09-1.246 1.79-4.347-.394-4.347-1.469 0-3.207 2.078-2.883 3.37.395 1.54 1.715 1.954 3.278.977zm-19.902-.34c.547-.808.547-2.566 0-3.394-.5-.734-1.742-1.344-2.437-1.149-.77.196-1.192 1.051-1.192 2.442 0 1.125.098 1.414.72 2.027.968.95 2.312 1 2.91.074zM139.66 65.7c0-.293-2.062-1.785-3.402-2.441-2.735-1.344-6.137-2.32-9.02-2.563l-1.867-.172.996.563c.598.34 1.02.781 1.067 1.121.078.488-.024.535-.97.535-1.288 0-4.198.516-4.198.758 0 .074 2.437.219 5.418.27l5.394.12 3.106 1c3.43 1.102 3.476 1.126 3.476.81zm3.156-3.125c2.786-5.664 6.215-11.11 9.422-14.992.742-.879 1.34-1.684 1.34-1.781 0-.684-3.328 2.246-5.242 4.613-2.238 2.758-4.945 7.668-6.016 10.89-.672 1.93-1.02 3.637-.793 3.637.075 0 .668-1.074 1.29-2.367zm46.325 1.856c2.507-.805 4.297-2.442 5.195-4.813.742-1.953.941-5.297.394-7.37-.421-1.708-2.011-5.102-2.906-6.2-.547-.711-.57-.711-2.683-.563-2.36.172-5.766 1.024-7.43 1.856-1.344.66-3.184 2.316-3.68 3.27-.222.39-.472 1.148-.547 1.71-.199 1.024-.199 1.024-1.265 1.024-1.516 0-2.114.758-1.965 2.492.176 2.074 1.89 3.32 3.305 2.414.574-.363.597-.34 1.316.906 2.262 3.907 6.984 6.32 10.266 5.274zm-77.512-3.54c1.047-.538 1.941-1.831 1.941-2.882 0-2.39-3.73-8.18-7.953-12.38-3.754-3.71-7.383-5.808-10.015-5.831h-.723l1.168 1.293c3.207 3.465 8.277 11.988 10.215 17.113.87 2.27 1.441 2.977 2.586 3.149.843.125 1.988-.07 2.78-.461zm90.035-.93c1.316-1.292.969-3.858-.644-4.663-.946-.488-1.618-.293-2.239.683-.867 1.442-.472 3.516.797 4.223.871.465 1.414.418 2.086-.242zm-67.098-7.765c2.461-2.488 3.903-4.66 6.66-10.082 2.41-4.785 2.41-4.957-.023-3.32-3.754 2.492-8.125 7.934-9.965 12.305-.3.734-.375 2.906-.101 3.175.5.512 1.343 0 3.43-2.078zm-44.308.149c.746-.39 1.441-1.489 1.441-2.297 0-.754-.844-2.219-1.789-3.098-1.738-1.636-3.902-1.906-5.39-.66-1.395 1.148-1.196 3.004.546 4.86 1.614 1.734 3.329 2.124 5.192 1.195zm79.972-2.953c0-1.32.793-3.176 1.864-4.422 1.687-1.953 5.664-4.149 10.336-5.688 4.125-1.367 6.113-1.683 10.488-1.707 3.754-.027 3.777-.027 2.41-.367-.871-.219-2.785-.34-5.219-.367-3.328-.024-4.175.05-6.336.586-6.859 1.71-9.668 2.957-12.328 5.543-1.96 1.906-2.906 3.468-3.129 5.125-.125.832-.027 1.05.621 1.71 1.043 1 1.293.93 1.293-.413zm34.54-.54c0-.39-1.59-1.757-2.856-2.464-2.09-1.149-5.441-2.172-7.68-2.344-2.285-.172-5.367.074-5.367.414 0 .121.746.223 1.692.223 4.593 0 8.546 1.097 12.62 3.515 1.641.977 1.59.95 1.59.657zM57.332 41.04c3.824-1.902 3.082-6.71-.969-6.273-1.468.148-2.933.879-3.777 1.855-1.121 1.344-.848 4.004.52 4.762.894.488 2.882.34 4.226-.344zm20.602-1.148c1.738-.828 2.433-2.856 1.414-4.223-1.29-1.684-4.473-2.39-6.285-1.367-1.817 1.05-2.188 3.297-.77 4.715 1.266 1.218 3.973 1.656 5.64.875zm-10.512-.61c1.488-.758 2.558-2.465 2.285-3.66-.473-2.101-3.926-3.125-6.488-1.906-2.508 1.172-2.657 4.469-.27 5.469.969.418 3.727.464 4.473.097zm89.363-.097c1.688-.856 2.61-2.832 2.012-4.297-.719-1.684-2.262-1.903-3.754-.512-1.664 1.516-1.738 3.71-.195 4.785.718.488 1.043.488 1.937.024zm-39.984-.364c1.14-1.125.941-2.566-.598-4.078-1.242-1.222-2.285-1.39-3.105-.539-1.02 1.074-.848 2.809.472 4.152.743.754 1.09.95 1.813.95.597 0 1.094-.168 1.418-.485zm74.898-3.199c1.39-1.074.598-3.273-1.566-4.223-1.988-.906-3.977.22-3.625 2.047.422 2.2 3.476 3.493 5.191 2.176zm-28.402-1.441c1.96-1 2.508-2.907 1.215-4.2-.696-.66-.867-.73-1.79-.585-2.16.34-3.652 1.976-3.304 3.59.375 1.683 1.937 2.148 3.879 1.195zm6.336-2.465c2.062-.512 3.23-2.637 2.21-4.055-.917-1.293-3.48-1.195-4.894.172-.574.586-.695.902-.695 1.93 0 1.144.074 1.293.82 1.73.918.563 1.067.586 2.559.223zm-61.059-3.883c.446 0 1.465-1.27 1.614-1.977.074-.44.027-1.222-.122-1.757-.574-2.102-2.336-2.762-3.73-1.418-.594.586-.719.93-.719 1.906 0 1.93 1.34 3.758 2.434 3.367.199-.07.422-.121.523-.121zm29.051-.879c.719-.488 1.293-1.61 1.293-2.539 0-.93-.969-1.953-1.816-1.953-1.118 0-2.66 1.66-2.66 2.855 0 .247.226.809.5 1.247.398.632.644.78 1.316.78.445 0 1.066-.171 1.367-.39zm3.18-4.664c.672-.656 1.144-2 .968-2.781-.171-.711-1.39-1.93-1.96-1.93-1.122 0-2.387 2.195-2.04 3.516.372 1.441 2.086 2.125 3.032 1.195zm-32.926-1.781c.644-.344 1.215-1.516 1.215-2.516 0-2.27-2.559-2.906-3.602-.902-1.117 2.098.496 4.394 2.387 3.418zm22.016-18.383c-.223-.71-2.485-1.246-5.145-1.246-3.254-.024-6.508.66-6.113 1.293.05.074 2.636.172 5.742.195 4.176.024 5.59-.047 5.516-.242zm0 0"/><path d="M116.102 234.719c-.743-.516-.72-1.563.078-2.297 1.242-1.149 4.347-.828 4.347.465 0 .558-1.27 1.781-2.039 2.027-.992.266-1.812.195-2.386-.195zM127.734 234.059c-.894-.442-.968-1.684-.148-2.493.52-.511.844-.609 2.086-.609 1.117 0 1.566.098 1.89.465.395.414.395.535.075 1.172-.375.683-.7.902-2.239 1.511-.87.344-.894.344-1.664-.046zM103.504 232.273c-.895-.46-1.117-.753-1.117-1.609 0-.93.941-1.516 2.11-1.32 1.046.195 2.608 1.469 2.608 2.101 0 1.098-2.136 1.586-3.601.828zM140.406 229.957c-.57-1.004 1.02-2.465 2.735-2.516 1.765-.023 2.285 1.317.945 2.54-.797.707-3.281.707-3.68-.024zM93.316 227.246c-2.015-1.098-2.164-2.809-.3-3.465.945-.32 3.406 1.438 3.406 2.438 0 1.05-1.914 1.687-3.106 1.027zM85.04 220.41c-.868-.926-1.118-1.879-.673-2.539.895-1.367 2.86.05 2.86 2.05 0 1.15-1.293 1.415-2.188.49zM174.203 218.848c-1.168-1.344.797-3.711 2.86-3.465 1.316.144 1.44 1.39.324 2.66-1.07 1.195-2.563 1.562-3.184.805zM128.379 217.727c-.844-1.2-.125-3.372 1.02-3.032.917.297 1.515 2.395.945 3.297-.301.488-1.567.293-1.965-.265zM183.625 213.77c-.426-.926-.078-1.782 1.066-2.614 2.512-1.781 4 .172 1.817 2.344-1.121 1.074-2.461 1.195-2.883.27zM83.648 211.621c-.449-.637-.523-1.953-.148-2.66.371-.66 1.64-.637 2.012.047.324.61.148 2.273-.274 2.785-.445.535-1.168.437-1.59-.172zM94.383 211.645c-1.043-.586.074-2.977 1.441-3.098 1.07-.102 1.418.39 1.043 1.437-.273.832-1.34 1.93-1.812 1.93-.125 0-.45-.121-.672-.27zM103.156 211.375c-.597-1.586 1.715-3.684 2.735-2.488.246.316.246.535 0 1.27-.473 1.245-.97 1.757-1.817 1.757-.52 0-.77-.148-.918-.539zM126.691 209.45c-.597-.317-.82-1.759-.449-2.66.645-1.54 2.238-.442 2.238 1.51 0 1.27-.746 1.759-1.789 1.15zM78.379 207.375c-.57-.832-.746-2.785-.297-3.371.547-.684 1.664-.586 2.387.246.496.559.57.852.445 1.73-.074.563-.273 1.27-.445 1.54-.473.707-1.567.636-2.09-.145zM187.3 203.93c-1.066-1.172-.445-2.88 1.368-3.856.894-.465.918-.465 1.418-.027.719.637.668 1.785-.125 2.906-.547.805-1.418 1.39-2.063 1.39-.101 0-.375-.195-.597-.413zM105.79 203.93c-.321-.317-.173-2.172.226-2.711.546-.781 1.613-.633 1.937.222.274.754.05 1.73-.496 2.27-.398.39-1.367.539-1.668.219zM171.246 201.855c-.246-.683-.098-1.246.5-1.878.57-.586 1.414-.684 1.613-.149.348.879-.672 2.563-1.515 2.563-.223 0-.473-.243-.598-.536zM128.703 200.586c-.176-.344-.223-.879-.125-1.219.176-.66 1.317-1.86 1.766-1.86.496 0 .867.563.867 1.274 0 1.903-1.863 3.219-2.508 1.805zM84.047 200.633c-.149-.145-.3-.781-.3-1.34 0-.809.151-1.223.62-1.66 1.567-1.563 2.86.414 1.543 2.344-.597.878-1.367 1.148-1.863.656zM102.387 195.387c-.922-.637-1.242-1.098-1.168-1.785.047-.559.148-.61 1.117-.586.746 0 1.242.195 1.664.586.746.687.797 1.246.176 1.785-.598.511-1.02.511-1.79 0zM173.188 195.215c-.325-.684-.153-1.66.421-2.2.942-.925 2.036 1.005 1.243 2.176-.524.782-1.317.782-1.665.024zM93.637 194.29c-.57-.466-.696-1.08-.32-1.59.496-.684 2.535-.587 3.156.171.547.66.547.832.047 1.316-.473.465-2.336.516-2.883.102zM192.621 193.703c-.598-.758-.648-1.516-.176-2.613.473-1.125 1.243-1.735 1.965-1.54 1.266.294 1.488 2.563.422 4.052-.672.93-1.516.953-2.21.101zM171.867 188.43c-.496-.688-.496-1.516-.047-1.883.473-.39 1.094-.098 1.54.734.695 1.344-.645 2.367-1.493 1.149zM194.508 183.3c-.598-.44-.918-1.929-.672-3.027.348-1.464 1.144-1.71 2.21-.632 1.395 1.34 1.169 3.757-.347 3.906-.422.047-.941-.074-1.191-.246zM162.973 181.227c-.97-.149-1.27-.61-.797-1.247.547-.757 2.015-.976 2.61-.367.5.465.5.489-.024 1.125-.297.364-.672.633-.82.633-.176-.023-.598-.098-.97-.144zM191.203 173.242c-.82-.562-1.465-2.246-1.191-3.027.273-.781 1.316-1 2.258-.512.746.39 1.566 1.684 1.566 2.465 0 1.223-1.54 1.832-2.633 1.074zM183.523 165.04c-.992-.661-1.613-1.466-1.613-2.196 0-1.297 1.266-1.59 2.98-.735 1.618.805 1.965 2.051.844 2.907-.82.632-1.265.632-2.21.023zM165.309 157.375c-1.418-.492-1.618-1.516-.399-2.078.797-.34 1.39-.34 2.188.023.968.418 1.093 1.149.297 1.832-.747.637-.918.66-2.086.223zM151.145 223.586c-1.145-1.125 1.265-3.957 3.003-3.516.797.196 1.047 1.145.547 2.075-.668 1.316-2.808 2.171-3.55 1.44zM157.805 213.5c-.325-.828-.051-1.953.644-2.684.723-.78 1.465-.78 1.988 0 .497.73.325 1.536-.546 2.54-.82.949-1.739 1.023-2.086.144zM157.555 203.148c-.844-.804-1.02-2.171-.348-2.71.598-.512 1.64-.024 2.137.976.672 1.367.547 1.98-.496 2.297-.422.148-.723 0-1.293-.563zM151.191 197.023c-.296-.125-.718-.464-.941-.757-.324-.465-.348-.637-.074-1.051.543-.805 1.265-.903 2.457-.317 1.27.633 1.515 1.391.648 1.977-.62.438-1.27.465-2.09.148zM193.613 207.3c-.644-.636-.672-1.59-.023-2.59 1.043-1.66 2.582-2 3.18-.706.25.512.222.805-.149 1.637-.82 1.78-2.137 2.515-3.008 1.66zM175.895 203.273c-.372-.832.421-2.222 1.316-2.222.496 0 .621.144.672.804.176 1.614-1.367 2.711-1.988 1.418zM79.496 194.434c-.172-.196-.348-.954-.422-1.637-.074-1.024 0-1.39.45-1.93.671-.851 1.316-.851 2.113-.07.77.73.77 1.488.097 2.93-.445.902-.644 1.097-1.218 1.097-.371 0-.82-.172-1.02-.39zM199.95 194.68c-.595-.563-.72-1.442-.4-2.47.4-1.194.923-1.78 1.641-1.78.797 0 1.344.879 1.344 2.222 0 1.926-1.515 3.098-2.586 2.028zM178.727 195.266c-.446-.442-.372-1.786.148-2.371.398-.489.45-.512.996-.145.969.684.645 2.805-.45 2.805-.222 0-.519-.121-.694-.29zM86.48 191.527c-.421-.488-.125-1.562.696-2.367.773-.805 1.617-.879 2.136-.172.946 1.344-1.761 3.785-2.832 2.54zM176.441 187.258c-.62-.613-.695-2.395-.125-2.59.547-.219 1.493.488 1.864 1.344.273.683.25.828-.121 1.246-.575.61-.996.61-1.618 0zM49.328 186.938c-.398-.317-.445-.489-.246-1.047.348-.977 1.34-1.274 2.656-.832 1.219.441 1.367.707.746 1.441-.57.707-2.433.953-3.156.438zM58.45 186.938c-.446-.512.023-1.586.769-1.758.324-.098.968-.121 1.441-.07.945.07 1.242.73.649 1.511-.45.586-2.438.832-2.86.316zM41.402 181.883c-1.02-1.098-1.168-2.121-.449-2.758.574-.512 1.27-.535 1.988-.023 1.22.828 1.743 3.027.82 3.515-.866.438-1.44.27-2.359-.734zM44.035 162.793c-.77-.758.176-3.441 1.344-3.856.867-.343 1.02-.32 1.59.243.77.757.62 1.71-.399 2.882-.918 1.07-1.914 1.34-2.535.731zM50.348 154.906c-.746-.73-.422-2 .843-3.222 1.79-1.73 3.88-.73 2.985 1.418-.598 1.39-3.059 2.562-3.828 1.804zM57.68 149.121c-.399-1.05.297-2.172 1.738-2.906 1.195-.586 2.012-.586 2.535-.024 1.367 1.489-.547 3.465-3.355 3.465-.52 0-.77-.144-.918-.535zM87.973 147.754c-.473-.219-1.02-.73-1.243-1.098-.347-.66-.347-.71.223-1.172 1.367-1.101 4.422.684 3.305 1.93-.621.73-1.317.828-2.285.34zM67.422 145.14c-1.07-.73-.473-2.05 1.266-2.831 1.417-.633 2.285-.586 3.03.148.723.707.65 1.367-.296 2.293-.746.781-3.156 1-4 .39zM78.355 145.238c-1.07-.316-1.617-1.074-1.27-1.804.376-.809 1.345-1.223 2.81-1.223 2.261 0 3.109 1.418 1.59 2.664-.794.68-1.688.781-3.13.363zM72.566 139.332c-.425-.223-.648-.539-.699-1.074-.097-1.051.649-1.54 2.363-1.54 2.16 0 2.93 1.294 1.516 2.516-.598.489-2.262.563-3.18.098zM91.203 184.938c-.422-.489-.176-1.883.496-2.81.57-.804 1.617-1.171 2.188-.804 1.093.66.968 1.903-.325 3.172-.894.879-1.835 1.05-2.359.441zM84.172 182.445c-.3-.265-.2-1.78.172-2.465.844-1.585 2.164-1.953 2.86-.757.444.808.222 1.66-.696 2.636-.7.735-1.89 1.028-2.336.586zM170.379 182.348c-.774-.586-.848-1.317-.149-1.684.622-.316 1.54-.098 2.211.512.621.586.645.808.125 1.293-.523.539-1.394.492-2.187-.121zM201.664 181.078c-1.094-.902-1.168-3.516-.125-4.078.7-.363 1.566.125 2.215 1.223 1.316 2.293-.227 4.441-2.09 2.855zM97.938 177.32c-.497-1.195.421-2.808 2.011-3.64 1.418-.73 2.785.492 2.262 2.004-.324.953-1.813 2.074-2.98 2.222-.922.121-1.02.07-1.293-.586zM37.05 172.754c-.968-1.149-.741-3.613.352-4.102.77-.34 1.79.246 2.012 1.172.172.66-.25 2.418-.695 2.98-.348.391-1.317.364-1.668-.05zM90.953 172.145c-.695-1.32 1.043-3.543 2.684-3.395.722.047.922.195 1.047.684.074.34.097.855.046 1.171-.148.73-1.515 1.735-2.609 1.93-.719.098-.918.047-1.168-.39zM104.375 169.898c-.574-1 .32-2.808 1.738-3.515.946-.488 1.567-.465 2.063.07.695.734.523 1.809-.371 2.664-1.516 1.39-2.934 1.707-3.43.781zM197.242 168.262c-.472-.489-1.168-2.051-1.168-2.59 0-.535.719-1.121 1.367-1.121 1.215 0 2.856 1.976 2.633 3.176-.172.976-2.113 1.34-2.832.535zM97.84 163.402c-.102-.074-.176-.535-.176-1 0-.66.223-1.05.969-1.78 1.144-1.15 2.039-1.247 2.66-.345.348.512.348.735.098 1.368-.547 1.27-2.883 2.44-3.551 1.757zM36.703 162.426c-.273-.242-.195-1.758.102-2.344.82-1.562 1.988-2.05 2.78-1.195.774.855.325 2.32-1.065 3.394-.399.317-1.543.414-1.817.145zM188.793 160.45c-2.211-1.466-1.766-3.567.672-3.126 1.066.196 2.633 1.465 2.633 2.125 0 .66-.996 1.442-1.84 1.442-.422 0-1.067-.196-1.465-.442zM175.945 157.934c-1.515-.61-1.89-1.536-.922-2.418.774-.754 3.258-.61 3.93.222.621.754.594.903-.25 1.758-.77.754-1.617.879-2.758.438zM42.148 154.004c-.25-.145-.398-.535-.398-1.172 0-.781.172-1.121.871-1.832 1.363-1.344 2.93-1.074 2.93.516 0 1.218-2.434 3.023-3.403 2.488zM49.18 146.41c-.57-1.246 1.02-3.344 2.535-3.344.87 0 1.367.832 1.117 1.809-.2.754-1.539 1.805-2.582 2-.672.121-.82.074-1.07-.465zM208.871 146.387c-.695-.684-.844-2.028-.273-2.246.547-.196 1.714.437 2.039 1.097.718 1.367-.649 2.246-1.766 1.149zM60.488 141.918c-.82-.586-.472-1.805.696-2.512.918-.539 2.66-.66 3.129-.195.472.46.347 1.316-.274 2.047-.469.539-.844.687-1.937.758-.747.05-1.465 0-1.614-.098zM85.613 141.648c-1.543-.925-1.715-1.902-.472-2.437.867-.418 1.836-.367 2.808.144 1.192.586 1.438 1.368.645 2.149-.723.707-1.914.781-2.98.144zM203.207 139.941c-.848-.902-.348-2.98.621-2.613.445.172 1.192 1.418 1.192 2.004 0 1.023-1.118 1.39-1.813.61zM174.55 131.715c-.37-.54-.37-.781-.12-1.637.644-2.05 2.484-2.832 3.203-1.367.375.805-.024 1.953-.969 2.781-.992.883-1.613.953-2.113.223zM201.938 131.688c-.473-1.172.05-2.54.968-2.54.621 0 .996.735.922 1.786-.074 1.023-1.543 1.609-1.89.754zM181.512 121.703c-.325-.488-.348-.73-.102-1.437.598-1.809 2.91-2.809 3.504-1.516.45.93.074 1.758-1.191 2.71-1.344 1.024-1.664 1.048-2.211.243zM76.367 117.871c-.996-1.098-1.367-3.05-.672-3.71.598-.61 1.493-.466 2.461.366 1.864 1.61 1.664 3.88-.324 3.88-.672 0-1.117-.169-1.465-.536zM84.27 115.332c-.696-.855-1.07-2.246-.77-2.809.57-1.023 1.688-.804 2.832.54 1.117 1.316.746 2.906-.719 2.906-.597 0-.972-.172-1.343-.637zM189.14 113.965c-.296-.832.126-1.93 1.094-2.809 1.368-1.27 2.856-.902 2.856.637 0 1.832-3.38 3.684-3.95 2.172zM78.082 107.594c-.273-.293-.695-.977-.922-1.492-.37-.829-.37-.977 0-1.512.426-.66 1.492-.781 2.164-.27.547.414 1.442 1.907 1.442 2.442 0 .586-.895 1.394-1.567 1.394-.324 0-.82-.246-1.117-.562zM195.402 106.176c-1.066-1.051.621-3.88 2.313-3.88 1.863 0 2.012 2.22.222 3.368-1.117.707-2.136.902-2.535.512zM71.547 99.34c-1.367-1.442-1.242-2.735.297-2.856.672-.046 1.043.098 1.765.735 1.168 1.047 1.368 1.73.72 2.367-.794.781-1.915.656-2.782-.246zM85.613 88.402c-.3-.34-.375-.683-.273-1.12.347-1.368 2.183-2.395 2.531-1.466.2.489-.074 1.856-.469 2.344-.523.66-1.293.754-1.789.242zM88.965 85.719c-.32-.66-.793-1.149-1.215-1.32l-.7-.243.946-.93c1.145-1.12 1.442-2.269.848-3.39-.227-.418-.352-.856-.25-.93.25-.27 1.465.54 1.789 1.172.422.828.398 2.781-.051 4.492-.594 2.246-.719 2.344-1.367 1.149zm0 0"/><path d="M85.535 82.715c-.82-.805.45-2.98 1.668-2.832.395.047.668.242.719.512.297 1.562-1.442 3.246-2.387 2.32zM31.836 66.504c-.871-1.074-.598-2.684.695-4.05.77-.833 1.117-.856 1.887-.075.45.414.621.855.621 1.562 0 2.586-1.937 4.125-3.203 2.563zM33.3 57.836c-.597-.977-.495-1.66.446-3.027 1.219-1.73 2.684-2 3.281-.586.649 1.488-.77 3.98-2.41 4.273-.695.145-.844.074-1.316-.66zM91.152 57.813c-1.664-.954-1.914-2.54-.472-3.126.87-.343 1.863.075 2.86 1.22.769.906.82 1.491.198 2.027-.62.562-1.468.511-2.586-.121zM39.71 57.496c-.347-.734.102-1.879.997-2.566 1.738-1.34 2.684.515 1.266 2.492-.672.902-1.84.953-2.262.074zM44.781 51.148c-.37-.78-.074-1.562.946-2.394.867-.73 1.761-.856 2.234-.293.45.539.102 1.539-.867 2.492-.996.977-1.914 1.074-2.313.195zM37.574 50.465c-.746-.856-.82-1.684-.273-2.762.918-1.879 2.758-2.66 3.554-1.512.52.73.497 1.489-.101 2.614-.844 1.632-2.484 2.488-3.18 1.66zM77.832 49.707c-1.738-.441-2.234-1.488-1.266-2.684.645-.808 2.086-.855 3.63-.125 1.761.832 1.687 2.395-.126 2.907-.496.12-.968.218-1.043.218-.074-.023-.62-.144-1.195-.316zM52.336 47.219c-.496-.492-.496-1.54-.023-2.223s2.41-1.394 3.203-1.2c1.543.368.695 2.642-1.317 3.47-1.066.437-1.39.437-1.863-.047zM45.305 44.969c-.426-.266-.774-1.317-.598-1.88.25-.827.621-1.269 1.613-1.925 1.618-1.078 2.883-.758 2.883.68 0 1.758-2.656 3.906-3.898 3.125zM70.578 44.652c-2.312-.488-1.742-3.394.668-3.394 1.395 0 2.734.441 3.156 1.027.325.442.325.586 0 1.195-.199.391-.547.782-.793.903-.671.344-2.09.492-3.03.27zM60.535 44.29c-1.043-1.005.05-3.005 1.64-3.056 2.29-.07 3.43.368 3.43 1.297 0 .266-.398.875-.894 1.317-.793.757-1.02.832-2.336.832-.992 0-1.59-.125-1.84-.39zM81.785 43.703c-.945-.223-1.39-.613-1.64-1.418-.223-.758 1.043-2.004 2.039-2.004.918 0 2.78.953 3.23 1.614.297.464.273.609-.227 1.171-.644.707-2.035.977-3.402.637zM60.535 96.582c-.992-1.293-.77-2.344.5-2.344.645 0 1.988 1.051 2.211 1.707.246.809-.297 1.47-1.219 1.47-.672 0-.968-.173-1.492-.833zM150.621 84.813c-.797-.977-.719-2.829.098-3.465 1.27-.977 2.511.12 2.289 2.05-.2 1.93-1.418 2.637-2.387 1.415zM150 76.148c-1.316-1.515-1.094-3.148.422-3.148.996 0 1.715.68 2.137 2 .421 1.246.05 1.906-1.067 1.906-.648 0-1.02-.195-1.492-.758zM147.738 69.29c-1.144-.614-1.863-1.517-1.863-2.321 0-.906.523-1.297 1.715-1.297.945 0 2.262 1.469 2.262 2.539 0 1.125-1.043 1.664-2.114 1.078zM44.781 94.066c-.82-1.39 1.965-2.636 3.356-1.488.472.367.398.633-.325 1.293-.82.758-2.66.856-3.03.195zM51.59 94.094c-1.242-1.223 1.117-2.711 2.86-1.809.718.39.57 1.172-.325 1.707-.992.586-2.012.637-2.535.102zM57.082 90.55c-.52-.292-1.168-1.487-1.168-2.148 0-.34.223-.558.621-.66.945-.242 2.113.344 2.559 1.32.398.805.398.856-.172 1.293-.649.512-1.168.563-1.84.196zM48.906 84.18c-.57-.465-1.191-1.465-1.191-1.953 0-.22.222-.54.496-.684.894-.488 2.98.832 2.98 1.879 0 .855-1.488 1.367-2.285.758zM50.918 79.273c-1.066-.71-1.29-1.757-.422-2.125.77-.343 2.363.172 2.86.903.347.488.324.586-.274 1.172-.77.757-1.094.757-2.164.05zM64.313 92.113c-.868-.925-1.067-1.636-.57-2.12.495-.493.694-.493 1.616-.028.743.39 1.489 1.246 1.489 1.758 0 .465-.746 1.05-1.34 1.05-.301 0-.848-.293-1.195-.66zM38.445 90.797c-1.441-1.149-1.12-2.492.594-2.492.848 0 2.14 1.074 2.363 1.953.371 1.418-1.468 1.758-2.957.539zM80.168 89.21c-.223-.194-.398-.636-.398-.952 0-.805 1.144-2.078 1.89-2.078 1.117 0 1.02 1.808-.176 2.906-.668.61-.82.637-1.316.125zM57.926 84.203c-.668-.61-1.067-1.539-.867-2.05.097-.22.472-.364 1.02-.364 1.487 0 2.855 1.805 2.01 2.633-.472.465-1.542.344-2.163-.219zM193.266 84.254c-.051-.246.05-.809.222-1.223.274-.61.473-.781.895-.707.722.098.87.977.347 1.809-.472.68-1.292.781-1.464.12zM34.492 84.3c-.992-1.12-1.242-2.66-.547-3.343 1.395-1.39 3.578 1.418 2.586 3.297-.324.586-1.515.61-2.039.047zM32.059 76.293c-.696-.73-1.27-2.781-1.02-3.684.098-.367.473-.882.82-1.148 2.188-1.613 4.422 2.39 2.758 4.883-.523.781-1.789.758-2.558-.051zM197.887 76.953c-.274-.172-.399-.633-.348-1.195 0-.149.324-.61.672-1.028.695-.828 1.59-.976 2.086-.39.398.488-.074 1.66-.942 2.32-.648.512-.996.586-1.468.293zM64.934 76.953c-.371-.242-.868-1.488-.668-1.781.074-.125.394-.219.695-.219.77 0 1.566 1.145 1.219 1.684-.301.465-.82.586-1.246.316zM55.59 71.633c-.742-.735.797-1.86 1.816-1.32.473.242.496.316.172.804-.348.54-1.64.856-1.988.516zM61.082 73.094c-.82-.414-.895-.95-.223-1.317.696-.367 1.145-.316 1.79.22.57.464.597.464.124.976-.546.613-.796.613-1.691.12zM205.195 70.875c-.722-.684.645-2.758 1.813-2.758 1.117 0 1.191.828.199 2.27-.473.633-1.59.925-2.012.488zM183.45 69.652c-.872-.414-1.169-.976-.77-1.441.37-.438 1.218-.438 1.914.05 1.215.833.246 2.052-1.145 1.391zM190.953 68.969c-.297-.758 1.219-1.758 2.164-1.465.57.195.621.93.074 1.441-.496.512-2.062.512-2.238.024zM197.168 65.309c-.398-.977 1.266-2.786 2.234-2.418.946.343.598 1.804-.57 2.418-.945.464-1.492.464-1.664 0zM177.285 64.55c-.547-.78-.222-1.929.524-1.929.695 0 1.265 1.223.894 1.98-.348.754-.894.731-1.418-.05zM175.746 56.836c-.45-.438-.375-2.074.074-2.246.473-.172 1.368.683 1.368 1.293 0 1.148-.747 1.637-1.442.953zM199.55 58.863c-.57-1.074-.073-2.71.848-2.71.473 0 1.141.831 1.141 1.417 0 .29-.121.805-.297 1.145-.347.734-1.316.832-1.691.148zM86.605 50.977c-1.144-.61-1.863-1.516-1.863-2.297 0-1.414 1.613-1.977 3.082-1.098.895.563 1.887 1.879 1.887 2.516 0 .976-1.938 1.539-3.106.879zM53.828 39.89c-.523-.484-.5-1.78 0-2.511.895-1.223 3.8-1.711 4.324-.734.942 1.71-2.957 4.613-4.324 3.246zM73.434 38.207c-.72-.684-.746-.879-.246-1.805.496-.976 1.562-1.293 3.156-.976 2.21.465 2.656 1.535 1.14 2.781-1.043.879-3.18.879-4.05 0zM63.617 38.012c-.644-.317-.894-1.051-.644-2.028.422-1.632 4.843-1.78 5.07-.168.121.829-.398 1.536-1.516 2.051-1.218.535-2.039.586-2.91.145zM155.219 37.938c-1.168-1.145.695-3.977 2.16-3.22.746.391.547 1.731-.422 2.735-.918.977-1.191 1.047-1.738.484zM114.363 37.719c-.945-.782-1.191-1.684-.672-2.465.5-.781.996-.73 1.891.121.82.805.969 1.953.324 2.563-.523.515-.672.492-1.543-.22zM188.098 34.227c-.946-.829-.848-1.657.222-1.926 1.02-.27 1.59-.098 2.485.73.922.856.945.977.398 1.492-.644.657-2.21.485-3.105-.296zM160.836 33.398c-.422-.414-.375-1.562.125-2.05.719-.707 2.012-1.121 2.559-.832.894.464.445 1.93-.797 2.687-.942.563-1.465.61-1.887.195zM167.445 30.152c-.37-.808.223-1.683 1.418-2.074 1.242-.418 2.11-.148 2.11.61 0 1.562-2.907 2.78-3.528 1.464zM107.133 26.516c-.57-.66-.649-2.297-.149-2.836.918-1 2.11-.39 2.11 1.078 0 .68-.469 1.851-.77 1.851-.097 0-.347.051-.547.125-.172.07-.472-.023-.644-.218zM135.934 25.074c0-.808.574-1.465 1.144-1.344.895.172.297 1.903-.672 1.903-.324 0-.472-.168-.472-.559zM139.09 20.824c-.246-.219-.2-1.34.05-1.73.325-.492 1.145-.246 1.22.363.148 1.004-.723 1.93-1.27 1.367zM106.29 19.605c-.103-.074-.177-.562-.177-1.074 0-1.148.992-2.078 1.766-1.66.746.39.496 2.149-.375 2.707-.348.246-1.02.246-1.215.027zM212.277 142.992c-.648-.656-.695-1.437-.148-1.902.32-.27.547-.246 1.289.144.797.414.922.61.922 1.344 0 .781-.074.856-.746.93-.547.047-.918-.102-1.317-.516zM208.152 137.793c-.547-.805-.449-2.148.172-2.246.649-.121 1.664.879 1.664 1.66 0 1.27-1.14 1.637-1.836.586zM181.41 134.277c-.695-1.293.82-3.66 2.336-3.66 1.668 0 1.816 1.828.274 3.344-.97.953-2.184 1.098-2.61.316zM207.031 131.25c-.422-.512-.222-1.879.301-2.195.941-.563 1.59 1.34.719 2.12-.57.512-.645.512-1.02.075zM188.344 126.93c-.422-.805-.047-2.028.945-3.004 1.117-1.098 1.863-1.317 2.684-.781.945.609.87 2.05-.172 3.074-1.32 1.297-2.934 1.636-3.457.71zM194.832 119.508c-.945-1.125 1.043-4.031 2.758-4.031.894 0 1.441.539 1.465 1.418 0 .855-.399 1.418-1.59 2.246-1.219.804-2.16.93-2.633.367zM8.598 115.43c-.77-1.075-.325-3.125.695-3.125.523 0 1.168.855 1.32 1.804.246 1.563-1.195 2.493-2.015 1.32zM201.02 111.547c-.77-.758-.497-2.024.695-3.172 1.219-1.195 2.086-1.418 2.781-.734.82.804.7 2.101-.27 3.004-.624.585-2.163 1.418-2.585 1.418-.051 0-.348-.247-.621-.516zM70.402 109.938c-1.144-1.637-1.34-2.93-.62-3.567 1.714-1.512 4.671 1.66 3.527 3.762-.196.34-.52.46-1.368.46-.894 0-1.168-.12-1.539-.656zM208.078 107.664c-1.914-.754.047-3.414 2.535-3.414 1.29 0 1.864.363 1.864 1.219 0 1.636-2.563 2.93-4.399 2.195zM227.559 104.957c-1.02-.832-1.192-1.613-.473-2.246.973-.856 3.531-.195 4.25 1.098.375.609.348.707-.2 1.27-.894.929-2.335.878-3.577-.122zM7.977 103.54c-.372-.368-.52-.83-.52-1.61 0-3.055 2.684-3.883 3.129-.977.223 1.61-.273 2.637-1.441 2.93-.473.12-.793.023-1.168-.344zM66.004 103.395c-1.367-1.028-1.887-3.125-.844-3.516.867-.317 1.64-.027 2.559.976.992 1.098 1.094 1.707.324 2.418-.621.559-1.367.61-2.04.122zM217.121 102.297c-1.539-.465-1.887-1.54-.77-2.418.895-.684 3.305-.734 3.903-.074.621.683.52 1.636-.223 2.222-.695.535-1.691.61-2.91.27zM205.715 100.828c-1.192-.73.176-2.734 2.039-3.05 1.094-.169 2.234.316 2.234.976 0 .586-.496 1.465-1.015 1.808-.7.415-2.735.586-3.258.266zM11.605 93.336c-1.293-.344-.746-3.078.797-3.836 1.34-.707 2.508-.39 2.508.66 0 .781-1.242 2.785-1.887 3.078-.648.27-.699.293-1.418.098zM17.395 84.719c-.793-1.442 1.964-3.957 3.48-3.176.945.488.445 2.223-.996 3.344-.621.511-2.184.39-2.484-.168zM209.594 62.156c-.25-.633.472-1.73 1.14-1.73.774 0 .946.66.399 1.465-.446.656-1.317.804-1.54.265zM199.203 52.125c-.57-.855-.52-2.441.102-3.055.62-.61.77-.61 1.613.051.598.465.672.637.547 1.586-.2 1.832-1.465 2.637-2.262 1.418zM126.168 44.629c-1.191-.414-1.191-2.172.023-2.344.723-.12 2.016.61 2.336 1.293.524 1.149-.644 1.66-2.359 1.05zM155.043 43.188c-.348-.657 0-1.489.871-2.075 1.367-.855 1.914.489.746 1.832-.746.88-1.219.953-1.617.243zM131.21 42.383c-1.636-.586-1.886-2.586-.296-2.586.895 0 2.188.805 2.41 1.488.149.414.051.66-.37 1-.622.512-.599.512-1.743.098zM120.004 41.844c-1.043-.414-1.59-1.367-1.215-2.024.348-.66.941-.804 1.738-.39 1.368.707 1.914 2.074 1.02 2.562-.574.293-.45.293-1.543-.148zM126.117 39.55c-.793-.292-1.168-.878-1.066-1.636.074-.586.199-.684 1.02-.758.742-.07 1.066.051 1.663.66.844.832.895 1.051.348 1.59-.422.414-1.168.485-1.965.145zM160.71 38.648c-.296-.27-.198-1.171.2-1.71.422-.61 1.79-.977 2.16-.61.348.344-.199 1.66-.894 2.125-.547.39-1.192.461-1.465.195zM119.98 36.719c-.796-.414-1.093-1.293-.695-2.028.77-1.441 3.75.512 3.13 2.051-.173.465-1.54.465-2.435-.023zM165.805 35.473c-.57-1.051.695-2.121 2.285-1.977 1.094.098 1.144.902.152 1.758-.922.73-2.113.855-2.437.219zM178.926 34.914c-.598-.586-.598-.71-.098-1.418.547-.781 2.309-.758 3.23.05.672.56.696.587.274 1.22-.375.539-.621.632-1.668.632-.918 0-1.363-.12-1.738-.484zM172.414 34.398c-.57-.316-.57-1.242 0-1.757.621-.563 2.336-.536 3.059.05.547.438.547.489.172 1.051-.547.828-2.31 1.196-3.23.656zM115.68 32.324c-.72-.758-.868-2.222-.246-2.441 1.14-.438 2.234.758 2.062 2.246-.101.976-.996 1.074-1.816.195zM110.09 31.688c-.274-.438-.496-1-.496-1.243 0-1.976 2.21-1.757 2.633.243.347 1.734-1.22 2.468-2.137 1zM182.73 31.25c-.796-.316-1.093-1-.746-1.734.395-.73 2.012-.926 3.13-.34 1.913.949-.298 2.902-2.384 2.074zM174.902 29.762c-.574-.317-.574-1.246 0-1.758.895-.809 3.528-.293 3.528.683s-2.41 1.735-3.528 1.075zM112.3 27.195c-.671-.804-.273-2.511.571-2.539.399 0 1.195 1.125 1.195 1.711 0 1.125-1.07 1.637-1.765.828zM110.438 21.313c-.075-.391-.176-.805-.223-.954-.149-.46.62-1.316 1.14-1.316.946 0 1.145 1.93.25 2.613-.62.489-.992.367-1.168-.343zM137.598 15.453c-.371-.34-.172-1.976.226-2.125.52-.195 1.094.27 1.094.883 0 1-.797 1.758-1.32 1.242zM110.512 14.867c-.2-.707.05-1.855.472-2.195.172-.149.57-.219.895-.172.719.098.894 1.074.324 2.125-.473.926-1.469 1.047-1.691.242zM135.363 9.57c-.648-.707-.547-1.515.2-1.515.695 0 1.515 1.004 1.265 1.59-.2.511-.969.464-1.465-.075zm0 0"/></g></svg>