<svg xmlns="http://www.w3.org/2000/svg" width="250" height="250"><path fill="#c44536" d="M192.309 0H57.69C25.828 0 0 25.828 0 57.691V192.31C0 224.172 25.828 250 57.691 250H192.31C224.172 250 250 224.172 250 192.309V57.69C250 25.828 224.172 0 192.309 0zm0 0"/><path fill="#fff" d="M114.84 172.55c.226-48.6.226-48.6-2.332-49.007-10.715-1.703-17.551-4.262-25.153-9.418-10.207-6.926-16.546-16.375-19.093-28.469-1.75-8.304-1.137-15.504 2.21-26.023 3.434-10.785 3.536-14.446.571-20.422l-2.262-4.559 9.086-3.265c10.32-3.711 10.145-3.746 12.82 2.523 2.641 6.192 2.372 15.5-.742 25.461-3.129 10.004-3.797 14.727-2.96 20.961 1.624 12.09 9.136 19.902 22.413 23.3 7.172 1.84 25.227 1.821 31.602-.03 6.43-1.868 12.633-5.473 15.809-9.18 7.086-8.285 8.363-18.957 3.992-33.344-3.973-13.066-3.758-24.293.578-30.36 1.293-1.812 1.293-1.812 8.539.235 13.18 3.727 12.242 2.988 9.566 7.535-3.109 5.29-3.015 9.59.489 22.082 4.004 14.262 3.636 23.078-1.434 34.766-3.535 8.144-11.906 16.8-20.238 20.922-6.524 3.23-17.715 6.922-20.973 6.922-3.793 0-4.176.484-3.555 4.468.313 1.997.586 23.852.61 48.57l.043 44.934h-19.813zM68.672 196.47v-9.258h35.8v18.516h-35.8zm75.984 0v-9.258h35.797v18.516h-35.797zm-75.984-30.09v-9.254h35.8v18.512h-35.8zm75.984 0v-9.254h35.797v18.512h-35.797zm-75.984-30.086v-9.254h35.8v18.512h-35.8zm75.984 0v-9.254h35.797v18.512h-35.797zm-12.324-42.621c-2.07-4.348-4.852-11.137-6.184-15.082l-2.421-7.172-1.247 4.86c-1.488 5.82-9.921 24.55-11.023 24.484-.426-.024-4.3-1.848-8.605-4.051l-7.832-4.004 10.386-20.617 10.39-20.617 8.067-.02 8.07-.02 10.43 20.52c5.739 11.285 10.325 20.613 10.196 20.73-.532.493-15.73 8.895-16.082 8.895-.211 0-2.075-3.558-4.145-7.906zm0 0"/></svg>