<svg xmlns="http://www.w3.org/2000/svg" width="250" height="250"><linearGradient id="a" x1="108.68" x2="157.597" y1="212.629" y2="27.47" gradientUnits="userSpaceOnUse"><stop offset="0" stop-color="#8d8d8d"/><stop offset=".082" stop-color="#939393"/><stop offset=".225" stop-color="#fff"/><stop offset=".406" stop-color="#fff"/><stop offset=".566" stop-color="#fff"/><stop offset=".729" stop-color="#fff"/><stop offset=".875" stop-color="#6d6d6d"/><stop offset="1" stop-color="#767676"/></linearGradient><linearGradient id="b" x1="152.125" x2="182.22" y1="125.038" y2="89.476" gradientUnits="userSpaceOnUse"><stop offset="0" stop-color="#b0b0b0"/><stop offset=".31" stop-color="#fff"/><stop offset=".549" stop-color="#fdfdfd"/><stop offset=".99" stop-color="#5a5858"/></linearGradient><linearGradient id="c" x1="111.399" x2="106.936" y1="130.581" y2="56.362" gradientUnits="userSpaceOnUse"><stop offset=".078" stop-color="#848484"/><stop offset=".323" stop-color="#dad9d9"/><stop offset=".854" stop-color="#fffefe"/><stop offset="1" stop-color="#848484"/></linearGradient><linearGradient id="d" x1="58.518" x2="76.763" y1="114.415" y2="77.111" gradientUnits="userSpaceOnUse"><stop offset="0" stop-color="#707070"/><stop offset=".328" stop-color="#fff"/><stop offset=".49" stop-color="#fff"/><stop offset=".688" stop-color="#fff"/><stop offset="1" stop-color="#767676"/></linearGradient><path fill="#191820" d="M250 125c0 69.035-55.965 125-125 125S0 194.035 0 125 55.965 0 125 0s125 55.965 125 125zm0 0"/><path fill="url(#a)" d="M200.441 162.047c5.403-10.984 8.426-23.324 8.426-36.363h-28.902c0 9.125-2.29 17.718-6.332 25.254-.067.125-.149.273-.215.402a53.976 53.976 0 0 1-15.012 17.332c-.043.043-.11.066-.148.11-.574.421-1.145.823-1.715 1.226-.234.148-.469.316-.7.465-.402.254-.804.527-1.206.78-.426.278-.871.532-1.317.786-.21.125-.422.254-.632.383-.637.36-1.27.719-1.93 1.035-.02.02-.04.02-.082.043a54.227 54.227 0 0 1-22.258 5.863h-.254c-.762.02-1.523.043-2.289.043-.273 0-.57-.023-.844-.023-.594-.02-1.187-.02-1.758-.063a24.474 24.474 0 0 1-1.25-.105c-.468-.043-.933-.063-1.378-.106-.508-.043-.993-.129-1.504-.191-.38-.043-.762-.086-1.141-.148-.445-.063-.89-.168-1.336-.235-.422-.082-.867-.144-1.293-.23-.168-.043-.316-.086-.484-.106-.7-.148-1.418-.32-2.117-.488-.043-.02-.086-.02-.13-.043a45.78 45.78 0 0 1-2.433-.7 2.988 2.988 0 0 1-.488-.167 36.72 36.72 0 0 1-2.031-.7c-.34-.124-.66-.253-.977-.378-.488-.192-.996-.383-1.48-.594a39.2 39.2 0 0 1-1.442-.656c-.316-.149-.637-.274-.953-.446-.742-.359-1.48-.738-2.203-1.14-9.867-5.356-17.871-13.696-22.785-23.813a1.252 1.252 0 0 0-.149-.277c-.277-.57-.531-1.14-.785-1.734-.125-.317-.273-.633-.402-.954-.168-.402-.317-.804-.485-1.207-.191-.484-.363-.949-.53-1.437-.106-.297-.212-.613-.317-.93-.172-.55-.36-1.082-.508-1.633-.086-.316-.192-.632-.277-.972-.125-.489-.274-.996-.38-1.48-.109-.446-.214-.868-.296-1.313-.086-.36-.172-.742-.235-1.102a53.778 53.778 0 0 1-.34-1.883c-.019-.168-.062-.359-.082-.53a54.81 54.81 0 0 1-.593-7.977 53.156 53.156 0 0 1 3.113-17.973c.063-.188.125-.36.191-.55.188-.528.422-1.06.633-1.587.13-.297.235-.594.36-.89.234-.528.468-1.06.722-1.586.125-.254.23-.528.36-.782.359-.722.718-1.441 1.101-2.16.02-.023.02-.062.043-.086a54.045 54.045 0 0 1 23.801-22.73c.105-.043.21-.106.316-.149a23.43 23.43 0 0 1 1.696-.761c.34-.149.656-.297.996-.426.383-.168.785-.317 1.164-.465.488-.191.996-.379 1.484-.55.297-.106.57-.192.867-.298a41.03 41.03 0 0 1 1.696-.527c.297-.086.613-.168.91-.254a35.986 35.986 0 0 1 1.547-.402c.422-.106.824-.192 1.246-.297.383-.086.785-.168 1.168-.254a28.85 28.85 0 0 1 1.797-.316c.191-.043.402-.063.617-.106a54.555 54.555 0 0 1 7.96-.594c8.11-.02 16.157 1.801 23.657 5.48l12.703-25.948c-15.222-7.47-31.996-10.012-48.43-7.555-.718.105-1.46.234-2.18.34-.425.082-.847.148-1.25.23-1.124.211-2.245.446-3.347.7-.043 0-.086.019-.105.019a82.505 82.505 0 0 0-11.586 3.64c-.125.044-.23.11-.36.149a69.393 69.393 0 0 0-3.046 1.313c-.489.214-.977.464-1.461.68-.32.148-.637.296-.954.464C75.137 58.61 62.961 69.954 54.7 84.285c-.062.106-.125.192-.168.297-.316.55-.613 1.098-.933 1.648a57.52 57.52 0 0 0-1.27 2.434 5.61 5.61 0 0 0-.297.594c-.062.129-.105.234-.168.36a77.33 77.33 0 0 0-1.379 3.007c-.082.21-.187.422-.273.633a58.098 58.098 0 0 0-1.25 3.133c-.086.234-.191.464-.273.699-.36.953-.7 1.926-1.02 2.922-.125.379-.254.761-.36 1.14-.253.805-.484 1.61-.699 2.414a64.192 64.192 0 0 0-.738 2.899c-.043.215-.105.445-.148.656a81.557 81.557 0 0 0-1.207 30.586c.105.7.21 1.398.336 2.098.086.441.148.886.234 1.332.21 1.12.445 2.222.7 3.324.019.039.019.105.042.148a81.33 81.33 0 0 0 3.64 11.536c.044.125.106.253.15.378a54.867 54.867 0 0 0 1.292 3.008c.235.508.465 1.016.7 1.5.148.297.296.614.445.91 7.199 14.774 18.55 26.946 32.906 35.2.11.062.191.109.277.172.551.316 1.102.632 1.653.93.804.445 1.629.866 2.433 1.269.192.105.383.215.594.297.168.082.34.168.531.254.082.042.188.085.274.125.761.359 1.523.722 2.289 1.039.402.171.781.359 1.183.53.254.102.532.212.785.317.446.192.887.36 1.332.528.254.109.508.191.786.296.445.172.91.34 1.355.508.254.086.508.192.762.274.465.172.933.32 1.398.468.254.086.489.168.742.235.485.148.993.297 1.48.441.212.067.423.13.657.192.594.172 1.207.336 1.82.507.106.024.215.063.34.086.7.188 1.418.36 2.141.528.23.066.465.105.719.148a30.5 30.5 0 0 0 1.418.297c.32.063.613.129.933.168.403.086.805.148 1.227.234.34.063.68.106 1.015.168.383.067.786.13 1.168.192.336.043.676.105 1.016.148.402.043.781.106 1.184.149.34.039.656.086.996.105.426.043.847.082 1.293.129.297.02.593.063.867.082.508.043 1.039.086 1.547.106.191.023.402.023.594.042 1.523.083 3.046.13 4.574.13 15.797 0 30.578-4.446 43.136-12.173.02-.023.043-.023.043-.042.614-.38 1.207-.762 1.82-1.145.384-.23.743-.484 1.122-.738.066-.043.148-.106.215-.149 11.117-7.492 20.539-17.8 27.105-30.48.106-.211.23-.446.34-.656 0-.211.168-.508.316-.805zm0 0"/><path fill="url(#b)" d="M149.945 96.418h29.52v29.504h-29.52zm0 0"/><path fill="url(#c)" d="M101.563 95.703c0 20.496-16.614 37.11-37.11 37.11s-37.11-16.614-37.11-37.11 16.614-37.11 37.11-37.11 37.11 16.614 37.11 37.11zm0 0"/><path fill="#191820" d="M97.656 95.703c0 18.336-14.867 33.203-33.203 33.203S31.25 114.04 31.25 95.703 46.117 62.5 64.453 62.5s33.203 14.867 33.203 33.203zm0 0"/><path fill="url(#d)" d="M74.3 87.629c-1.753-.777-3.386-1.36-4.89-1.746-1.504-.438-3.11-.656-4.812-.656-1.254 0-2.23.242-2.934.726-.652.438-.977 1.067-.977 1.89 0 .587.399 1.141 1.204 1.677.851.53 2.207 1.113 4.062 1.746a31.49 31.49 0 0 1 8.496 4.511c2.61 1.891 3.914 4.364 3.914 7.418 0 3.496-1.304 6.211-3.914 8.153-2.554 1.937-6.316 2.91-11.281 2.91-1.555 0-3.637-.293-6.242-.875-2.559-.582-4.688-1.504-6.395-2.766l2.934-6.836c1.754.774 3.437 1.38 5.039 1.817 1.656.386 3.16.582 4.516.582 1.804 0 3.183-.243 4.136-.727s1.43-1.117 1.43-1.89c0-.973-.477-1.844-1.43-2.622s-2.457-1.48-4.515-2.109a33.865 33.865 0 0 1-8.274-3.93c-2.554-1.746-3.836-4.074-3.836-6.984 0-3.348 1.282-5.965 3.836-7.856 2.559-1.94 6.02-2.914 10.383-2.914 1.55 0 3.559.317 6.016.95 2.457.629 4.613 1.55 6.468 2.761zm0 0"/></svg>