<svg xmlns="http://www.w3.org/2000/svg" width="250" height="250"><path fill="#f00500" d="M183.023 21.996a159.435 159.435 0 0 0-17.757 20.836l-1.676-.539a122.914 122.914 0 0 0-29.75-5.7c-3.035-.23-14.367-.23-18.067 0-11.175.731-19.746 2.387-29.48 5.739-.39.156-.738.27-1.09.387-5.492-7.395-11.605-14.328-18.34-20.688 32.32-16.37 70.133-18.336 103.973-5.43 3.621 1.348 7.164 2.926 10.629 4.622zM243.305 168.105c-4.91 13.829-12.27 26.657-21.809 37.825-5.18 6.011-10.902 11.52-17.055 16.527a126.352 126.352 0 0 1-49.183 23.996 130.258 130.258 0 0 1-60.438 0 126.072 126.072 0 0 1-49.18-23.996c-6.152-5.008-11.878-10.516-17.058-16.527C1.129 173.844-7.203 129.777 6.777 90.059a125.154 125.154 0 0 1 9.93-21.184c1.828-3.082 4.09-6.55 5.18-7.977 3.738 15.91 8.332 29.895 10.047 34.942-.118.27-.274.578-.43.847-9.074 18.18-13.98 35.708-15.149 54.352 0 .23-.039.5-.039.73-.312 5.586-.156 8.247.782 11.75 2.918 10.981 11.914 23.075 26.011 34.938 23.09 19.414 54.399 33.438 78.114 35.055 24.726 1.656 61.215-12.633 85.515-33.512a121.012 121.012 0 0 0 10.746-10.672c2.414-2.773 5.996-7.55 5.727-7.55-.078 0 0-.075.156-.153.113-.078.23-.191.153-.27-.04-.039.039-.156.156-.19.117-.04.195-.118.156-.196-.039-.078 0-.153.156-.192.117-.039.157-.156.117-.23-.039-.078 0-.156.079-.156s.156-.114.156-.192.078-.191.156-.191.152-.078.152-.156c.118-.309.313-.618.508-.887.586-.883 2.922-5.008 3.23-5.7 2.223-4.968 3.626-9.398 4.286-13.827.312-2.122.508-6.012.351-6.934-.039-.156-.039-.426-.078-.848-.078-.77-.117-1.926-.195-3.082-.078-1.734-.234-4.16-.352-5.355-1.671-17.489-6.191-31.778-14.757-46.918a13.336 13.336 0 0 1-.856-1.617c-.078-.118-.117-.23-.156-.309 1.207-3.582 6.152-18.566 10.086-35.707l.078.074.582.77c1.012 1.351 3.7 5.355 4.906 7.281a120.488 120.488 0 0 1 12.813 28.312c7.047 23.922 6.465 49.422-1.79 73zm0 0"/><path d="M192.758 122.07c-.117.618-1.946 2.465-3.778 3.817-5.375 3.89-14.992 7.508-24.765 9.242-5.57 1.004-11.137 1.156-12.813.348-1.09-.54-1.246-.965-.855-2.352.816-2.887 3.465-6.047 7.594-9.012 2.101-1.504 10.629-6.625 14.601-8.781 6.543-3.547 11.84-5.664 15.422-6.164 1.129-.156 2.492-.195 2.918 0 .703.27 1.48 2.309 1.793 4.777.156 1.309.078 7.086-.117 8.125zM101.012 134.82c-.23.465-1.399.965-2.723 1.157-1.324.191-5.375.078-7.672-.192-8.258-1.078-17.02-3.582-23.406-6.664-3.582-1.734-6.152-3.469-8.059-5.355l-1.09-1.118-.117-1.464c-.195-2.54-.156-6.547.157-7.973a10.381 10.381 0 0 1 1.207-3.39c.312-.383.312-.383 1.71-.383 1.715 0 3.157.269 5.493 1 4.789 1.464 11.914 5.007 20.601 10.171 7.164 4.235 9.852 6.317 11.914 9.168 1.403 1.77 2.336 4.274 1.985 5.043zM156.152 188.441c0 .118-.464 1.965-1.05 4.16-.582 2.196-1.051 3.97-1.051 4.047-.43.04-.817.075-1.246.04h-1.246l-1.715 4.003a311.96 311.96 0 0 0-1.906 4.547l-.235.54-.816-1.31-.82-1.312v-10.668l-.31.075c-.663.156-5.374.773-7.437.964-8.53.848-17.097.657-25.586-.539-1.363-.191-2.53-.347-2.57-.308-.039.039 0 2.504.078 5.547l.117 5.468-.664 1.004c-.347.54-.699 1-.699 1.04-.117.116-.508-.5-1.402-2.274-.973-1.848-1.676-3.813-2.18-5.856l-.273-1.117-1.207.078-1.207.118-.313-1.426a39.834 39.834 0 0 1-.426-2.621l-.117-1.23-1.012-.888c-.586-.5-1.171-1.003-1.285-1.078-.195-.156-.273-.425-.273-.656v-.46l4.867.038 4.867.035.156.504.157.5 1.672.078c.937.036 3.894.114 6.543.192l4.867.113 1.246-1.926 1.285-1.925h1.637l-.04-4.004-.038-4.008-2.141-.926c-6.895-3.004-10.945-6.43-12.461-10.59-.313-.847-.313-1.156-.39-5.008-.04-3.816-.04-4.16.234-5.007a5.625 5.625 0 0 1 4.011-3.93c.66-.192 2.415-.192 11.602-.192l10.828.036 1.207.578c1.442.695 2.102 1.195 2.918 2.273.938 1.235 1.207 2.195 1.207 4.547 0 3.352-.23 6.238-.582 7.395a15.98 15.98 0 0 1-2.258 4.43c-1.949 2.464-5.492 4.929-8.722 6.046l-.938.348.04 4.047.038 4.043.86.078.855.074 1.168 1.734 1.129 1.735h5.219c2.883 0 5.414.039 5.644.078.39.074.469.039.86-.617l.464-.696h4.481c3.348-.152 4.36-.074 4.36.04zm0 0"/><path d="M135.594 199.5c-.742.422-1.246.613-1.364.54-.117-.04-.664-.505-1.246-.927l-1.05-.847-1.09 1.156c-2.38 2.543-2.457 2.656-3.156 2.695-1.09.117-1.325-.078-2.649-2.043-.7-1-1.246-1.847-1.246-1.847s-.504-.079-1.09-.118l-1.09-.113-.508 1.04-.503 1.038-.899-.27c-.7-.23-1.398-.5-2.062-.808l-1.168-.578v-2.195l10.359.039 10.356.039.039 1.039c.039 1.234.078 1.195-1.633 2.16zm0 0"/><path fill="#fff" d="M232.945 152.504c-.039-.156-.039-.426-.078-.848-9.347-1.004-36.02-1.617-60.785 18.606 0 0-7.984-36.211-45.367-36.211-37.383 0-51.246 36.21-51.246 36.21-20.95-22.304-48.989-20.687-59.114-19.222 0 .23-.039.5-.039.73-.312 5.586-.156 8.247.782 11.75 2.918 10.981 11.914 23.075 26.011 34.938 23.09 19.414 54.399 33.438 78.114 35.055 24.726 1.656 61.215-12.633 85.515-33.512a121.012 121.012 0 0 0 10.746-10.672c2.414-2.773 5.996-7.55 5.727-7.55-.078 0 0-.075.156-.153.113-.078.23-.191.153-.27-.04-.039.039-.156.156-.19.117-.04.195-.118.156-.196-.039-.078 0-.153.156-.192.117-.039.157-.156.117-.23-.039-.078 0-.156.079-.156s.156-.114.156-.192.078-.191.156-.191.152-.078.152-.156c.118-.309.313-.618.508-.887.586-.883 2.922-5.008 3.23-5.7 2.223-4.968 3.626-9.398 4.286-13.827.234-2.122.43-6.012.273-6.934zM135.594 199.5c-.742.422-1.246.613-1.364.54-.117-.04-.664-.505-1.246-.927l-1.05-.847-1.09 1.156c-2.38 2.543-2.457 2.656-3.156 2.695-1.09.117-1.325-.078-2.649-2.043-.7-1-1.246-1.847-1.246-1.847s-.504-.079-1.09-.118l-1.09-.113-.508 1.04-.503 1.038-.899-.27c-.7-.23-1.398-.5-2.062-.808l-1.168-.578v-2.195l10.359.039 10.356.039.039 1.039c.039 1.234.078 1.195-1.633 2.16zm19.469-6.938c-.583 2.2-1.051 3.97-1.051 4.047-.43.04-.817.078-1.246.04h-1.246l-1.676 4.042a311.96 311.96 0 0 0-1.906 4.547l-.235.54-.816-1.31-.82-1.312v-10.668l-.31.075c-.663.156-5.374.773-7.437.964-8.53.848-17.097.657-25.586-.539-1.363-.191-2.53-.347-2.57-.308-.039.039 0 2.504.078 5.547l.117 5.468-.664 1.004c-.347.54-.699 1-.699 1.04-.117.116-.508-.5-1.402-2.274-.973-1.848-1.676-3.813-2.18-5.856l-.273-1.117-1.207.078-1.207.118-.313-1.426a39.834 39.834 0 0 1-.426-2.621l-.117-1.23-1.012-.888c-.586-.5-1.171-1.003-1.285-1.078-.195-.156-.273-.425-.273-.656v-.46l4.867.038 4.867.035.156.504.157.5 1.672.078c.937.036 3.894.114 6.543.192l4.867.113 1.246-1.926 1.285-1.925h1.637l-.04-4.004-.038-4.008-2.141-.926c-6.895-3.004-10.945-6.43-12.461-10.59-.313-.847-.313-1.156-.39-5.008-.04-3.816-.04-4.16.234-5.007a5.625 5.625 0 0 1 4.011-3.93c.66-.192 2.415-.192 11.602-.192l10.828.036 1.207.578c1.442.695 2.102 1.195 2.918 2.273.938 1.235 1.207 2.195 1.207 4.547 0 3.352-.23 6.238-.582 7.395a15.98 15.98 0 0 1-2.258 4.43c-1.949 2.464-5.492 4.929-8.722 6.046l-.938.348.04 4.047.038 4.043.86.078.855.074 1.168 1.734 1.129 1.735h5.219c2.883 0 5.414.039 5.644.078.39.074.469.039.86-.617l.464-.696h4.481c3.465 0 4.477.04 4.477.157-.118-.04-.622 1.847-1.208 4.004zm0 0"/><path fill="#ffa409" d="M232.633 148.574c-.078-1.734-.235-4.16-.352-5.355-1.672-17.489-6.191-31.778-14.758-46.918a13.336 13.336 0 0 1-.855-1.617c-.078-.118-.117-.23-.156-.309 1.207-3.582 6.152-18.566 10.086-35.707 5.336-23.27 8.722-50.465-1.637-58.629 0 0-17.91-1.312-41.899 21.957a159.435 159.435 0 0 0-17.757 20.836l-1.676-.539a122.914 122.914 0 0 0-29.75-5.7c-3.035-.23-14.367-.23-18.066 0-11.18.731-19.747 2.387-29.481 5.739-.39.156-.738.27-1.09.387-5.492-7.395-11.605-14.328-18.34-20.688C41.942-1.348 23.367 0 23.367 0c-10.984 8.434-7.246 36.863-1.558 60.898 3.738 15.91 8.332 29.895 10.046 34.942-.117.27-.273.578-.43.847-9.073 18.18-13.98 35.708-15.148 54.352 10.164-1.465 38.164-3.121 59.153 19.223 0 0 13.863-36.211 51.246-36.211s45.367 36.21 45.367 36.21c24.766-20.222 51.437-19.57 60.785-18.605-.039-.77-.117-1.926-.195-3.082zM39.215 81.316S24.648 45.301 28.387 24.73c.625-3.468 1.793-6.511 3.625-8.824 0 0 16.508 1.621 43.144 30.895 0 0-5.062 2.426-11.836 7.59 0 0-.039.039-.078.039-7.363 5.586-16.785 14.445-24.027 26.886zm61.797 53.504c-.23.465-1.399.965-2.723 1.157-1.324.191-5.375.078-7.672-.192-8.258-1.078-17.02-3.582-23.406-6.664-3.582-1.734-6.152-3.469-8.059-5.355l-1.09-1.118-.117-1.464c-.195-2.54-.156-6.547.157-7.973a10.381 10.381 0 0 1 1.207-3.39c.312-.383.312-.383 1.71-.383 1.715 0 3.157.269 5.493 1 4.789 1.464 11.914 5.007 20.601 10.171 7.164 4.235 9.852 6.317 11.914 9.168 1.403 1.77 2.336 4.274 1.985 5.043zm91.746-12.75c-.117.618-1.946 2.465-3.778 3.817-5.375 3.89-14.992 7.508-24.765 9.242-5.57 1.004-11.137 1.156-12.813.348-1.09-.54-1.246-.965-.855-2.352.816-2.887 3.465-6.047 7.594-9.012 2.101-1.504 10.629-6.625 14.601-8.781 6.543-3.547 11.84-5.664 15.422-6.164 1.129-.156 2.492-.195 2.918 0 .703.27 1.48 2.309 1.793 4.777.156 1.309.078 7.086-.117 8.125zm-6.465-67.68-.078-.038c-6.543-5.16-11.45-7.59-11.45-7.59 25.743-29.274 41.669-30.89 41.669-30.89 1.754 2.347 2.882 5.35 3.504 8.82 3.62 20.57-10.434 56.624-10.434 56.624a92.008 92.008 0 0 0-23.211-26.925zm0 0"/><path fill="#ff9300" d="M219.977 24.691c-3.036-.386-17.407-.464-33.684 29.7l-.078-.04c-6.543-5.16-11.45-7.59-11.45-7.59 25.743-29.273 41.669-30.89 41.669-30.89 1.793 2.348 2.921 5.352 3.543 8.82zm0 0"/><path fill="#ff8300" d="M209.543 81.316a91.644 91.644 0 0 0-23.25-26.925c16.277-30.164 30.61-30.086 33.684-29.7 3.62 20.61-10.434 56.625-10.434 56.625zM220.563 24.805c-.196-.035-.391-.075-.586-.114zm0 0"/><path fill="#ff9300" d="M75.156 46.762s-5.062 2.43-11.836 7.59c0 0-.039.039-.078.039-16.863-30.2-31.699-30.086-34.89-29.7.62-3.468 1.789-6.511 3.62-8.82.04 0 16.548 1.617 43.184 30.89zm0 0"/><path fill="#ff8300" d="M63.281 54.39c-7.402 5.626-16.824 14.446-24.066 26.926 0 0-14.567-36.015-10.828-56.625 3.156-.386 18.031-.464 34.894 29.7zM28.387 24.691c-.192.04-.426.079-.621.114zm0 0"/><g fill="#fff"><path d="M170.133 101.309s-12.461.77-10.903-8.86c1.56-9.629 11.293-10.785 14.02-10.402 2.723.387 13.629 4.238 11.68 12.328-1.946 8.09-4.672 6.547-6.23 6.934-1.56.386-8.567 0-8.567 0zM78.234 101.309s-12.46.77-10.906-8.86c1.559-9.629 11.293-10.785 14.02-10.402 2.726.387 13.629 4.238 11.683 12.328-1.949 8.09-4.672 6.547-6.23 6.934-1.559.386-8.567 0-8.567 0zm0 0"/></g></svg>