<svg width="700" height="700" version="1.1" viewBox="0 0 700 700" xmlns="http://www.w3.org/2000/svg"><style type="text/css">.st0{fill:#FF00FF;fill-opacity:0.1471;}
	.st1{fill:#F79D0A;}
	.st2{fill:#FFFFFF;}
	.st3{fill:#F87B04;}
	.st4{fill:#FDF4EA;}
	.st5{fill:#FDA3A3;}
	.st6{fill:#050403;}
	.st7{fill:#F865B0;}</style><g transform="translate(-298.62 -40.12)" style="display:none"><circle cx="577" cy="429.37" r="337.88" style="fill-opacity:.1269;paint-order:stroke fill markers"/></g><g transform="translate(-120.72 107.46)" style="display:none"><rect x="41.558" y="-65.873" width="720.48" height="720.56" style="fill:#361f3d;paint-order:stroke fill markers"/></g><g style="display:none"><path d="m699.03 370.79a348.92 328.03 0 0 1-215.4 303.06 348.92 328.03 0 0 1-380.25-71.108 348.92 328.03 0 0 1-75.637-357.48 348.92 328.03 0 0 1 322.36-202.5" style="fill:#ffe4ff;paint-order:stroke fill markers"/></g><g transform="matrix(1.0466 0 0 1.0466 -12.001 1.0842)"><g transform="translate(-154.11,-118.12)"><g transform="translate(3.5156e-6)"><circle class="st0" cx="500" cy="510.14" r="244.06" style="fill-opacity:.1471;fill:#f0f"/><path class="st1" d="m773 523.98s-15.11 11.56-36.96 13.19c-0.54 0.04-1.07 0.08-1.61 0.09 0 0-25.28-18.42-48.17-18.42-22.9 0-39.02 22.9-52.72 32.99-13.68 10.08-35.35 25.36-56.51 25.36s-54.71-11.45-77.03-11.45-55.87 11.45-77.03 11.45-42.82-15.27-56.52-25.36-29.82-32.99-52.7-32.99-48.17 18.42-48.17 18.42c-0.54-0.02-1.07-0.06-1.61-0.09-21.87-1.63-36.98-13.19-36.98-13.19 8.85-19.55 38.01-28.73 38.01-28.73-19.57-11.58-27.03-27.79-27.03-27.79 18.61-5.81 37.33-0.24 38.12-0.02-56.9-153.18-10.01-253.29-10.01-253.29 70.69-3.8 163.88 95.26 163.88 95.26 36.68-13.21 70.04-12.88 70.04-12.88s33.34-0.34 70.04 12.88c0 0 93.18-99.07 163.88-95.26 0 0 46.89 100.12-10.01 253.29 0.77-0.22 19.49-5.79 38.12 0.02 0 0-7.46 16.21-27.03 27.79 0.01-0.01 29.17 9.18 38 28.73z" style="fill:#f79d0a"/><path class="st1" d="m463.29 302.82s1.5-20.97 13.73-35.25c12.24-14.28 21.74-20.17 37.94-24.59 0 0 2.28 17.83-11.64 36.96 0 0 16.06-6.17 32.26 2.4 0 0-13.65 16.33-29.18 19.95-15.54 3.61-43.11 0.53-43.11 0.53z" style="fill:#f79d0a"/><path class="st2" d="m389.16 327.06c-8.32 4.37-15.93 9.39-22.86 14.9-25.86 20.48-42.47 47.47-52.89 70.9-12.65 28.43-16.21 51.61-16.21 51.61-49.25-113.84-18.07-222.52-18.07-222.52 59.43 7.25 110.03 85.11 110.03 85.11z" style="fill:#fff"/><path class="st3" d="m366.29 341.96c-25.86 20.48-42.47 47.47-52.89 70.9-34.2-65.22-20.75-144.31-20.75-144.31 43.12 15.8 73.28 72.47 73.28 72.47z" style="fill:#f87b04"/><path class="st2" d="m610.85 327.06c8.32 4.37 15.93 9.39 22.86 14.9 25.86 20.48 42.47 47.47 52.89 70.9 12.65 28.43 16.21 51.61 16.21 51.61 49.25-113.84 18.07-222.52 18.07-222.52-59.42 7.25-110.03 85.11-110.03 85.11z" style="fill:#fff"/><path class="st3" d="m633.72 341.96c25.86 20.48 42.47 47.47 52.89 70.9 34.2-65.22 20.75-144.31 20.75-144.31-43.12 15.8-73.28 72.47-73.28 72.47z" style="fill:#f87b04"/><path class="st4" d="m747.89 562.92s-7.74 4.89-27.49 0.58c0 0-27.46 110.76-181.31 154.77-25.56 7.31-52.61 7.31-78.15 0-153.86-44.01-181.31-154.77-181.31-154.77-19.75 4.31-27.51-0.58-27.51-0.58 1.03-13.33 8.4-22.27 11.86-25.75 0.54 0.04 1.07 0.08 1.61 0.09 0 0 25.28-18.42 48.17-18.42 22.88 0 39 22.9 52.7 32.99s35.37 25.36 56.52 25.36 54.71-11.45 77.03-11.45 55.87 11.45 77.03 11.45 42.82-15.27 56.51-25.36c13.7-10.08 29.82-32.99 52.72-32.99 22.88 0 48.17 18.42 48.17 18.42 0.54-0.02 1.07-0.06 1.61-0.09 3.46 3.49 10.82 12.43 11.84 25.75z" style="fill:#fdf4ea"/><ellipse class="st2" transform="matrix(.8174 -.5761 .5761 .8174 -153.29 328.31)" cx="441.19" cy="405.94" rx="27.72" ry="41.36" style="fill:#fff"/><ellipse class="st2" transform="matrix(.5761 -.8174 .8174 .5761 -94.932 628.83)" cx="558.81" cy="405.94" rx="41.36" ry="27.72" style="fill:#fff"/><path class="st5" d="m493.91 703.66c-11.61-1.6-21.85-6.69-28.78-14.29-5.73-6.28-9.43-14.3-10.05-21.77-0.18352-1.7731-0.23991-3.5532-0.31375-5.3331 10.615-2.3591 34.959-4.3959 44.809-12.387 13.322 5.3905 28.725 8.7906 45.715 10.81 0.13924 2.3046-0.0839 4.618-0.27 6.92-0.76 9.21-6.25 19.2-14.08 25.62-9.97 8.15-24.28 12.19-37.03 10.43z" style="fill:#fda3a3"/><path class="st2" d="m445.71 529.53s4.53-11.33-12.01-36.55c-13.76-20.99-34.03-31.99-58.75-34.1s-39.18 17.07-35.66 36.29c0 0 4.23-15.4 29.58-20.58 25.34-5.17 71.42 14.55 76.84 54.94z" style="fill:#fff"/><path class="st2" d="m554.29 529.53s-4.53-11.33 12.01-36.55c13.76-20.99 34.03-31.99 58.75-34.1s39.18 17.07 35.66 36.29c0 0-4.23-15.4-29.58-20.58-25.34-5.17-71.42 14.55-76.84 54.94z" style="fill:#fff"/><path class="st6" d="m446.73 663.82c-9.14-0.61-18.32-3.03-26.08-6.86-9.18-4.53-16.04-10.47-21.36-18.47-4.91-7.4-7.55-15.26-8.37-24.94-0.4-4.69-0.03-10.28 0.78-11.86 0.51-0.99 1.66-1.58 2.53-1.3 1.31 0.42 1.48 1.24 1.72 8.42 0.25 7.3 0.47 9.08 1.62 13.39 6.4 23.8 30.21 38.36 59.98 36.66 12.44-0.71 25.61-4.18 37.28-9.84 1.8-0.87 2.38-1.31 2.67-2.01 0.5-1.23 0.8-17.93 0.33-18.28-9.7677-3.4695-20.146-9.058-27.52-14.9-8.3771-6.8192-23.352-23.076-20.86-33.38 0.71-2.57 4.04-6.7 7.7-9.53 23.311-15.494 65.229-14.901 85.66 0 3.66 2.84 6.99 6.96 7.7 9.53 1.34 4.85-1.38 12.14-7.5 20.06-2.59 3.35-9.39 10.13-13.36 13.32-8.6294 6.9586-17.83 11.051-27.5 14.89-0.46 0.34-0.18 17.09 0.31 18.29 0.41 1 2.29 2.02 8.41 4.55 41.22 17.03 82.62 3.75 91.52-29.36 1.16-4.3 1.37-6.08 1.62-13.39 0.25-7.18 0.42-8 1.72-8.42 0.87-0.28 2.02 0.32 2.53 1.3 0.81 1.57 1.18 7.16 0.78 11.86-1.01 12.03-5.15 22.03-12.71 30.7-5.87 6.73-15.23 12.76-24.66 15.88-7.91 2.62-14.35 3.67-23.96 3.89-5.08 0.12-7.05 0.04-11.07-0.46-13.037-1.4853-25.491-5.1113-36.67-11.19-4.4958 2.1998-9.662 4.3729-12.71 5.51-13.19 4.91-26.62 6.87-40.53 5.94zm-4.46-131.16c-0.48-0.22-2.95-2.52-5.49-5.12s-6.08-5.92-7.88-7.39c-6.41-5.26-15.58-10.76-23.17-13.91-6.65-2.76-15.59-5.28-22.51-6.34-9.27-1.41-21.34-0.62-29.52 1.95-2.09 0.65-5.65 1.33-7.01 1.32-7.9056-0.62247-8.1262-6.4262-7.01-10.06l-1.75-0.4c-6.2884-1.4529-11.722-6.4416-14.57-11.44-1.57-2.65-2.95-6.13-2.54-6.39 0.27-0.17 0.65 0.3 3.01 3.68 4.4498 5.597 10.154 9.3038 16.92 10.07l1.66 0.18c1.9133-1.88 3.8267-3.76 5.74-5.64l-1.02-0.77c-6.34-4.77-10.01-11.7-10.43-19.68-0.19-3.55 0.08-3.62 1.07-0.29 2.1 7.1 7.88 14.82 13.05 17.45l1.51 0.77 2.44-1.31c13.61-7.3 32.47-7.3 49.65 0.02 15.76 6.71 29.21 19.09 36.39 33.5 2.76 5.53 4.57 11.88 4.63 16.23 0.04 2.49 0.01 2.61-0.78 3.3-0.93 0.79-1.17 0.82-2.39 0.27zm113.06-0.29c-0.79-0.68-0.82-0.8-0.78-3.3 0.07-4.35 1.88-10.7 4.63-16.23 7.18-14.41 20.63-26.79 36.39-33.5 17.18-7.31 36.04-7.32 49.65-0.02l2.44 1.31 1.51-0.77c5.17-2.63 10.95-10.35 13.05-17.45 0.98-3.33 1.25-3.25 1.07 0.29-0.42 7.99-4.09 14.91-10.43 19.68l-1.02 0.77 5.74 5.64c7.4274-0.58042 14.415-4.4519 18.58-10.25 2.36-3.38 2.74-3.85 3.01-3.68 0.41 0.26-0.97 3.73-2.54 6.39-4.0408 6.465-9.443 10.72-16.32 11.84 1.9009 5.9659-2.105 10.298-7.01 10.06-1.37 0-4.93-0.67-7.01-1.32-5.64-1.77-11.91-2.61-19.29-2.59-7.21 0.02-11.74 0.61-18.85 2.43-11.11 2.85-20.59 7.01-29.54 12.96-5.83 3.88-9.95 7.33-15.39 12.89-4.06 4.16-5.76 5.54-6.78 5.54-0.16 0.02-0.66-0.3-1.11-0.69z" style="fill:#050403"/><g transform="matrix(1.1604,0,0,1.0002,-54.042,-9.9526)"><path d="m333.83 598.83c-0.52635-0.5384-0.7978-0.83743-1.2356-0.99667-1.1286-0.36247-8.7212 1.4051-11.757 2.5163-16.24 5.9452-29.975 17.694-39.154 33.489-9.277 15.964-12.752 33.17-10.088 49.949 0.33288 2.096 0.75074 4.3633 0.92721 5.0357l2e-3 -2e-3c0.1774 0.67228 0.63304 2.2442 1.0142 3.4903 0.63619 2.0797 0.78861 2.347 1.8594 3.2629 3.3605 2.8743 13.793 5.9425 24.491 7.2041 11.228 1.3241 16.505 1.2842 22.492-0.17398l3.5111-0.85719c1.0366 1.6189 1.3664 2.2821 3.4975 4.444 1.7876 1.8365 2.5344 2.174 4.2946 3.4128l-0.24005 4.1554c-0.40986 7.0816 0.28984 13.148 2.9854 25.863 2.5684 12.116 6.6416 23.673 9.5633 27.134 0.93097 1.1025 1.1804 1.2404 3.0441 1.6813 1.1166 0.26423 2.5218 0.56855 3.1203 0.67864l5.1e-4 5e-3c0.59853 0.10902 2.5899 0.27095 4.4252 0.36113 14.691 0.7213 28.892-5.6699 41.224-18.554 12.201-12.748 20.313-30.166 23.123-49.653 0.52516-3.6424 0.91876-12.766 0.50845-13.858-0.56582-1.5117-4.7746-4.6353-8.7512-6.9772-14.981-8.8226-33.225-10.581-45.794-4.4152-1.37 0.67209-2.5781 1.2162-2.6852 1.2074-1.5574-3.7979-2.6666-6.1985-5.9613-9.5462-3.6527-3.5943-6.2856-4.5239-8.9807-5.52-0.0225-0.12178 0.27357-1.5857 0.65617-3.2533 3.5103-15.3-0.53239-36.013-10.151-51.995-1.8939-2.7697-3.7044-5.752-5.9417-8.087z" style="fill:#f865b0;stroke-width:.26111"/></g></g><rect x="221.62" y="210.01" width="556.74" height="556.74" style="fill:none;paint-order:stroke fill markers"/></g></g></svg>
