<svg xmlns="http://www.w3.org/2000/svg" width="250" height="250"><g fill="#aa0e20"><path d="m140.188 89.492-13.801 48.344-17.696-61.18v-.242l-3.566-11.875-4.027 12.117 25.355 83.254 25.29-83.254-3.966-12.117zm0 0"/><path d="m126.453 0-3.105 8.996-14.325 43.668 3.63 12.477 13.8-39.95 13.535 39.95 3.7-13.079-12.02-36.585zm0 0"/><path d="M126.453 23.754c-42.457 0-76.922 57.46-76.922 57.578 0 0 34.465 57.582 76.922 57.582 42.453 0 76.922-57.582 76.922-57.582 0 .121-34.469-57.578-76.922-57.578zm0 102.445C93.375 126.2 56 81.453 56 81.332c0 0 37.375-44.863 70.453-44.863s70.45 43.785 70.45 44.863c-.067 1.082-37.438 44.867-70.45 44.867zm0 0"/></g><path fill="#141225" d="M16.387 197.457c-1.914-1.8-3.899-3.121-6.473-3.121-3.629 0-5.742 3.96-5.742 8.879 0 5.758 3.234 9.476 6.402 12.476 5.813 5.637 8.387 11.875 8.254 19.434-.133 10.078-4.293 14.996-9.64 14.875-4.688-.121-7.461-2.64-9.176-5.277l1.386-5.04c1.782 2.278 4.29 4.797 7.594 4.797 4.094 0 6.403-4.917 6.403-9.117 0-6.476-2.707-9.957-6.868-14.394-4.754-5.156-7.855-9.598-7.855-17.754 0-6.598 2.773-14.395 9.047-14.395 3.035 0 6.14 1.797 7.789 3.84zm75.27 25.672h8.847v18.473c-4.16 6.84-8.387 8.398-12.414 8.398-10.43 0-17.363-13.914-17.363-30.71 0-17.755 7.722-30.712 16.902-30.712 5.875 0 9.773 4.442 12.281 8.399-.726 1.558-1.387 3.238-2.113 4.68-2.375-3.84-5.613-7.56-10.102-7.56-7.261 0-13.14 10.798-13.14 25.071 0 14.398 5.613 25.312 13.601 25.312 3.5 0 7-2.52 8.848-5.398v-10.797H91.59v-5.156zm24.495-33.23h3.5v38.269c0 8.875 2.97 16.434 7.856 16.434 4.887 0 7.86-7.676 7.86-16.434v-38.27h3.5v38.63c0 10.796-3.5 21.472-11.427 21.472-7.855 0-11.355-10.797-11.355-21.473v-38.629zm56.254 59.023h-16.441V190.02h3.5v53.503h13.008v5.399zm-135.75 0v-56.024l-2.773-3.718-.528.597v59.145h3.368zm15.782-59.024v24.352l-12.282-16.672v7.797l12.282 16.434v27.113h3.367v-59.024zm136.082 58.903 9.57-40.426 1.453-6.238 10.96 46.785h3.833L199.94 189.18h-.66l-14.527 59.742h3.766zm52.093-23.153c3.961-3.718 5.614-11.035 5.614-17.273 0-14.156-6.473-22.434-18.356-18.117v58.664h3.434v-53.625c7.328-2.52 11.355 4.32 11.355 13.195 0 5.88-1.652 10.438-4.488 12.719 0 0-.067 0-.067.117-2.312 1.922-1.785 4.2-1.785 4.2l.993 2.398 8.253 20.875h4.422zm0 0"/></svg>