<svg xmlns="http://www.w3.org/2000/svg" width="250" height="250"><g fill-rule="evenodd"><path fill="#010101" d="M126.246 10.047c15.324.031 30.082 2.824 44.371 8.46 8.473 3.34 16.153 7.934 23.727 12.884 9.265 6.05 16.73 13.898 23.789 22.285 15.199 18.05 22.504 39.12 24.66 62.344.39 4.183 1.078 8.308.684 12.523-2.118 22.527-8.004 43.812-21.852 62.129-6.852 9.066-14.59 17.473-23.875 24.21-14.082 10.212-29.508 17.602-46.621 21.04-23.953 4.808-47.328 2.95-70.09-6.313-8.703-3.539-16.582-8.332-24.328-13.55-9.18-6.192-16.543-14.13-23.43-22.649-17.394-21.531-24.543-46.43-23.695-73.719.691-22.273 7.45-42.808 20.59-60.855 6.68-9.172 14.336-17.676 23.582-24.488 21.547-15.871 45.597-24.328 72.488-24.301zM59.13 124.207c0 21.977.047 43.953-.059 65.926-.011 2.523.559 3.222 3.168 3.215 38.953-.094 77.903-.063 116.856-.063.472 0 .949-.055 1.414.008 1.27.172 1.594-.39 1.566-1.598-.07-3.394-.234-6.808.043-10.18.219-2.64-.754-3.011-3.12-3.003-33.481.078-66.962.039-100.442.09-2.047.003-2.89-.278-2.883-2.68.09-34.426.086-68.848.012-103.274-.004-2.203.52-2.824 2.78-2.812 19.618.098 39.235.055 58.852.055 14.145 0 28.293-.032 42.442.043 1.808.007 2.437-.399 2.34-2.297-.168-3.196-.215-6.422.007-9.614.168-2.382-.582-2.91-2.925-2.906-39.043.078-78.09.078-117.137 0-2.305-.004-2.984.488-2.973 2.887.102 22.066.059 44.133.059 66.203zm86.238 16.344c.938 9.683 5.785 16.898 13.797 21.27 13.7 7.472 28.152 7.14 42.156.917 9.782-4.347 14.688-14.617 13.293-24.945-1.48-10.95-7.761-17.55-19.226-19.961-7.64-1.605-15.336-2.953-22.985-4.516-3.988-.816-6.582-3.472-6.984-6.812-.445-3.672 1.2-6.676 4.7-8.57 2.37-1.282 5.015-1.813 7.6-1.887 7.06-.203 14.036.113 16.891 8.445.27.785.86.88 1.567.875 4.812-.012 9.625-.047 14.433.02 1.414.023 1.52-.567 1.286-1.707-1.356-6.625-4.297-12.426-10.047-16.114-11.68-7.484-24.309-7.695-37.157-3.68-8.527 2.669-13.96 8.919-16.363 17.196-3.074 10.602 3.352 21.316 13.172 25.313 4.86 1.976 10.035 2.44 15.11 3.406 4.796.914 9.757 1.191 14.32 3.062 2.972 1.215 5.492 3.14 6.449 6.48 1.43 4.973-1.191 8.759-6.344 11.352-4.363 2.2-9.148 2.145-13.855 1.543-6.82-.875-12.63-3.293-14.407-10.898-.183-.793-.707-.781-1.257-.781-5.36-.012-10.72-.008-16.149-.008zm0 0"/><g fill="#fcfcfc"><path d="M59.129 124.207c0-22.07.043-44.137-.055-66.207-.011-2.395.668-2.887 2.973-2.883 39.043.074 78.09.078 117.137-.004 2.343-.004 3.093.524 2.925 2.91-.226 3.188-.175 6.414-.011 9.614.101 1.894-.532 2.304-2.34 2.293-14.145-.075-28.293-.043-42.442-.043-19.617 0-39.234.043-58.851-.055-2.258-.008-2.781.61-2.778 2.813.07 34.425.079 68.851-.011 103.273-.008 2.402.836 2.684 2.879 2.68 33.48-.051 66.965-.012 100.445-.09 2.367-.004 3.34.363 3.121 3.004-.281 3.375-.113 6.789-.043 10.18.024 1.206-.3 1.769-1.57 1.597-.461-.062-.942-.008-1.41-.008-38.953 0-77.907-.031-116.856.067-2.613.004-3.183-.696-3.172-3.22.106-21.968.059-43.944.059-65.921zm0 0"/><path d="M145.367 140.55c5.43 0 10.79-.003 16.149.009.55 0 1.074-.012 1.257.78 1.778 7.606 7.582 10.024 14.407 10.9 4.707.6 9.492.656 13.851-1.544 5.153-2.593 7.774-6.379 6.348-11.351-.961-3.34-3.48-5.266-6.45-6.48-4.562-1.872-9.523-2.153-14.32-3.063-5.078-.965-10.25-1.43-15.113-3.406-9.816-3.997-16.246-14.711-13.168-25.313 2.402-8.277 7.836-14.527 16.363-17.195 12.848-4.016 25.477-3.805 37.153 3.68 5.754 3.687 8.695 9.488 10.05 16.113.231 1.14.13 1.73-1.289 1.707-4.808-.067-9.617-.032-14.43-.02-.71 0-1.296-.09-1.566-.875-2.859-8.332-9.832-8.648-16.89-8.445-2.586.074-5.23.605-7.602 1.887-3.5 1.89-5.144 4.898-4.703 8.57.406 3.34 3 5.996 6.988 6.812 7.649 1.563 15.344 2.91 22.98 4.516 11.47 2.41 17.747 9.012 19.227 19.961 1.399 10.328-3.507 20.598-13.293 24.945-14 6.223-28.453 6.555-42.152-.918-8.012-4.37-12.86-11.586-13.797-21.27zm0 0"/></g></g></svg>