<svg xmlns="http://www.w3.org/2000/svg" width="250" height="250"><path fill="#4360df" fill-rule="evenodd" d="M146.086 123.848c-14.984.863-24.371-2.618-39.356-1.754a62.513 62.513 0 0 0-11.027 1.605c2.211-27.629 21.82-51.8 48.488-53.336 16.364-.941 32.723 9.133 33.61 25.489.87 16.074-11.418 26.828-31.715 27.996m-40.234 56.515c-15.676.883-31.344-8.547-32.196-23.851-.836-15.047 10.942-25.11 30.383-26.203 14.352-.805 23.348 2.453 37.7 1.644 3.558-.195 7.093-.7 10.562-1.504-2.113 25.856-20.899 48.477-46.45 49.914M125 .363C55.965.363 0 56.164 0 125s55.965 124.637 125 124.637S250 193.836 250 125 194.035.363 125 .363"/></svg>