<svg xmlns="http://www.w3.org/2000/svg" width="250" height="250"><path fill="#fff" d="M250 125c0 69.027-55.973 125-125 125S0 194.027 0 125 55.973 0 125 0s125 55.973 125 125zm0 0"/><path fill="#e23" d="M125 146.32 184.516 235c-17.711 9.516-37.989 15-59.516 15s-41.805-5.484-59.516-15.07zM125 0C55.973 0 0 55.973 0 125c0 40.14 18.89 75.832 48.332 98.75l66.39-98.89H48.61v-20.485h66.184v-21.11H48.609V62.642h152.782v20.484h-66.114v21.11h66.114v20.488h-66.114l66.391 98.886C231.109 200.832 250 165.141 250 125 250 55.973 194.027 0 125 0zm0 0"/></svg>