<svg xmlns="http://www.w3.org/2000/svg" width="250" height="250"><path fill="#fff" d="M250 125c0 69.027-55.973 125-125 125S0 194.027 0 125 55.973 0 125 0s125 55.973 125 125zm0 0"/><path fill="#b32235" d="M19.793 57.64c-.07 0-.14-.07-.07-.14 4.375-6.805 9.445-13.195 15-19.027h180.484c5.625 5.832 10.625 12.222 15 19.027.07.07 0 .14-.066.14zM58.68 19.235h132.57c.07 0 .14-.136.07-.136C172.082 7.016 149.375 0 125 0S77.918 7.016 58.68 19.027c-.07.07-.07.207 0 .207zM3.473 96.11h243.054c.07 0 .07-.066.07-.066-1.527-6.598-3.613-12.918-6.179-19.027l-.07-.07H9.652s-.07 0-.07.07a119.606 119.606 0 0 0-6.18 19.027c-.07.066 0 .066.07.066zm16.32 96.25c-.07 0-.14.07-.07.141 4.375 6.805 9.445 13.195 15 19.027h180.484c5.625-5.832 10.625-12.222 15-19.027.07-.07 0-.14-.066-.14zm229.86-76.941H.347C.14 118.543 0 121.734 0 125c0 1.043 0 2.082.07 3.125 0 .418 0 .832.07 1.25 0 .625.067 1.25.067 1.875.07 1.11.14 2.152.211 3.195v.137h249.305c.207-3.191.347-6.387.347-9.582-.07-3.266-.21-6.457-.418-9.582zm-3.126 38.473H3.473c-.07 0-.07.066-.07.066 1.527 6.598 3.613 12.918 6.179 19.027l.07.07h230.696s.07 0 .07-.07c2.566-6.109 4.652-12.5 6.18-19.027.07-.066 0-.066-.07-.066zm-55.207 76.875H58.68c-.07 0-.137.136-.07.136 19.238 12.082 41.945 19.028 66.32 19.028s47.086-7.012 66.32-19.028c.14 0 .14-.136.07-.136zm0 0"/><path fill="#3c3b6e" d="M125.277 134.582H.347c-.07-1.527-.14-3.125-.277-4.652 0-1.664-.07-3.262-.07-4.93C0 55.973 55.973 0 125 0h.277zm0 0"/><path fill="#fff" d="m55.695 117.152-4.515 3.266 1.738 5.207-4.445-3.195-4.516 3.195 1.738-5.207-4.445-3.266h5.484l1.739-5.207 1.734 5.207zm8.403-45-1.739 5.207h-5.484l4.445 3.266-1.738 5.207 4.445-3.191 4.446 3.191-1.739-5.207 4.446-3.266h-5.485zm-4.93-39.168 4.441-3.261 4.446 3.261-1.735-5.277 4.446-3.191h-5.489l-1.734-5.282-1.738 5.282H56.32l4.446 3.191zm-8.89 31.391-1.735-5.207-1.738 5.207H41.32l4.446 3.195-1.739 5.278 4.446-3.266 4.445 3.266-1.738-5.278 4.445-3.195zM43.608 46.32l4.446-3.195L52.5 46.32l-1.734-5.277 4.441-3.195h-5.484l-1.739-5.207-1.734 5.207h-5.484l4.441 3.195zM32.984 72.152 31.25 77.36h-5.484l4.441 3.266-1.734 5.207 4.445-3.191 4.441 3.191-1.734-5.207 4.445-3.266h-5.347zM48.82 85.348l-1.738 5.277h-5.484l4.445 3.195-1.738 5.278 4.445-3.266 4.445 3.266-1.738-5.278 4.445-3.195h-5.484zM3.543 103.89l-1.113-3.473c-.278 1.457-.555 2.848-.762 4.305 0 .136-.07.277-.07.418-.141.625-.207 1.316-.278 1.941 0 .211-.07.418-.07.625-.07.695-.207 1.32-.277 2.016l.902-.696 4.445 3.266-1.738-5.277 4.445-3.196H3.543zM65.766 51.18l-1.739-5.278-1.734 5.278h-5.488l4.445 3.195-1.734 5.348 4.441-3.266 4.516 3.266-1.739-5.278 4.446-3.195h-5.414zm-37.364 8.543 4.516-3.266 4.441 3.266-1.734-5.278 4.445-3.195h-5.488l-1.734-5.277-1.598 5.207h-5.555l4.446 3.195zM79.93 85.348l-1.735 5.277h-5.488l4.445 3.195-1.734 5.278 4.441-3.266 4.446 3.266-1.735-5.278 4.446-3.195h-5.489zm1.32 31.804-1.734-5.207-1.739 5.207h-5.484l4.441 3.266L75 125.625l4.445-3.195 4.446 3.195-1.739-5.207 4.516-3.266zm.14-52.777-1.738-5.207-1.734 5.207H72.43l4.445 3.195-1.734 5.278 4.441-3.266 4.445 3.266-1.734-5.278 4.441-3.195zm-15.624 39.516-1.739-5.282-1.734 5.282h-5.488l4.445 3.191-1.734 5.277 4.441-3.261 4.516 3.261-1.739-5.277 4.446-3.191zm8.957-57.57 4.445-3.196 4.441 3.195-1.734-5.277 4.445-3.195h-5.488l-1.734-5.207-1.739 5.207h-5.484l4.445 3.195zm37.707 18.054-1.735-5.207-1.738 5.207h-5.484l4.445 3.195-1.738 5.278 4.445-3.266 4.445 3.266-1.738-5.278 4.445-3.195zm-.07 52.777-1.735-5.207-1.734 5.207h-5.489l4.446 3.266-1.739 5.207 4.446-3.195 4.445 3.195-1.734-5.207 4.441-3.266zm-6.528-97.5 4.445-3.261 4.446 3.261-1.739-5.277 4.446-3.195h-5.485l-1.738-5.278-1.734 5.278h-5.489l4.446 3.195zM90.277 32.984l4.446-3.261 4.445 3.261-1.738-5.277 4.445-3.191h-5.484l-1.739-5.282-1.734 5.282H87.5l4.445 3.191zm15.555 13.336 4.445-3.195 4.446 3.195-1.739-5.277 4.446-3.195h-5.485l-1.738-5.207-1.734 5.207h-5.489l4.446 3.195zm-9.027 4.86-1.735-5.278-1.738 5.278h-5.484l4.445 3.195-1.738 5.277L95 56.391l4.445 3.261-1.738-5.277 4.516-3.195zM74.723 19.652l4.445-3.261 4.441 3.261-1.734-5.277 4.445-3.195h-5.488l-.902-2.778c-.625.207-1.25.489-1.805.696l-.695 2.082h-4.164c-.282.14-.559.277-.836.347l3.96 2.848zm38.054 70.973-1.734-5.277-1.738 5.277h-5.485l4.446 3.195-1.739 5.278 4.446-3.266 4.445 3.266-1.738-5.278 4.445-3.195zm-95.07-5.277-1.734 5.277h-5.489l4.446 3.195-1.735 5.278 4.446-3.266 4.441 3.266-1.734-5.278 4.445-3.195h-5.348zm-.277-15.696 4.445 3.266-1.734-5.277 4.441-3.196h-5.484l-1.25-3.89c-.696 1.18-1.391 2.293-2.016 3.472l-.137.348h-.07c-.484.902-1.043 1.875-1.527 2.848l.554.418-1.734 5.277zm1.668 47.5-1.739-5.207-1.734 5.207H10.07l4.512 3.266-1.734 5.207 4.511-3.195 4.446 3.195-1.735-5.207 4.446-3.266zM6.32 85.695c0 .07 0 .07 0 0v.07l.07.067zm88.887-13.543-1.734 5.207h-5.489l4.446 3.266-1.735 5.207 4.446-3.191 4.441 3.191-1.734-5.207 4.445-3.266h-5.488zm-60.555 31.739-1.734-5.282-1.738 5.282h-5.555l4.445 3.191-1.738 5.277 4.516-3.261 4.445 3.261-1.738-5.277L40 103.891zm62.153 0-1.735-5.282-1.738 5.282h-5.484l4.445 3.191-1.738 5.277L95 109.098l4.445 3.261-1.738-5.277 4.516-3.191zm0 0"/><path fill="#888" fill-opacity=".25" d="M125 0c69.027 0 125 55.973 125 125s-55.973 125-125 125S0 194.027 0 125 55.973 0 125 0zm0 0"/><path fill="#fff" d="M167.5 211.598 125 143.89l-42.777 67.707-45.766-.07 61.32-96.11H44.445V38.332h161.11v77.086h-53.332l61.597 96.11zm0 0"/><path fill="#e23" d="M53.89 202.223h22.915L125 125.625l48.195 76.598h22.914l-61.593-96.528h61.316V86.668h-61.316V67.082h61.316V48.055H54.168v19.027h61.316v19.586H54.168v19.027h61.316zm0 0"/></svg>