<svg xmlns="http://www.w3.org/2000/svg" width="250" height="250"><path fill="#d1dadf" d="M248.227 16.504c4.007-12.492.617-20.05-14.961-14.809L172.348 26.22c16.195-22.055-13.266-21.285-33.778-14.653C99.09 24.06 56.523 43.953 33.852 66.164 12.722 85.902-.23 114.13.23 145.59 1.156 203.73 49.273 250.617 107.418 250c25.14-.152 48.273-9.254 66.473-24.059 30.382-22.363 49.504-57.062 62.152-91.148 9.254-24.676 8.172-53.363-13.11-37.324zm0 0"/><g stroke-miterlimit="10" stroke-width="4"><path fill="#b1cdea" stroke="#41423f" stroke-linecap="round" stroke-linejoin="round" stroke-width="6.16904" d="M220.313 41.18c3.082-9.72.46-15.578-11.567-11.567l-61.691 24.828c13.261-14.343 4.472-22.207-11.414-17.273-30.536 9.715-63.54 24.984-80.97 42.258-16.347 15.27-26.37 37.168-26.062 61.383.77 44.879 37.938 81.12 82.973 80.812 19.434-.152 37.324-7.094 51.36-18.66 23.44-17.273 37.011-44.727 48.117-70.48 5.859-13.727 1.543-26.067-14.805-13.727l-5.863 3.703c1.082-3.086 29.922-81.277 29.922-81.277zm0 0"/><path fill="none" stroke="#3f403f" stroke-linecap="round" stroke-width="6.16904" d="M89.684 164.098c4.625 10.793 29.3 14.496 38.093 0"/><path fill="#fff" stroke="#40413f" stroke-width="6.16904" d="M59.918 158.7h19.277c10.332-3.856 17.735-13.884 17.735-25.759 0-15.113-12.336-27.449-27.45-27.449-15.117 0-27.453 12.336-27.453 27.45.153 11.874 7.555 21.902 17.891 25.757zM141.965 158.7h19.277c10.336-3.856 17.738-13.884 17.738-25.759 0-15.113-12.34-27.449-27.453-27.449s-27.453 12.336-27.453 27.45c0 11.874 7.403 21.902 17.89 25.757zm0 0"/></g><path fill="#7064ac" d="M171.422 132.941c0 10.989-8.906 19.895-19.895 19.895-10.988 0-19.894-8.906-19.894-19.895 0-10.988 8.906-19.894 19.894-19.894 10.989 0 19.895 8.906 19.895 19.894zm0 0"/><path fill="#40413f" d="M168.184 132.941c0 9.2-7.457 16.657-16.657 16.657-9.199 0-16.656-7.457-16.656-16.657 0-9.199 7.457-16.656 16.656-16.656 9.2 0 16.657 7.457 16.657 16.656zm0 0"/><path fill="#fff" d="M159.855 124.613a8.328 8.328 0 0 1-8.328 8.328 8.325 8.325 0 0 1-8.328-8.328 8.328 8.328 0 1 1 16.656 0zm0 0"/><path fill="#7064ac" d="M89.527 132.941c0 10.989-8.906 19.895-19.894 19.895-10.988 0-19.895-8.906-19.895-19.895 0-10.988 8.907-19.894 19.895-19.894s19.894 8.906 19.894 19.894zm0 0"/><path fill="#40413f" d="M86.29 132.941c0 9.2-7.458 16.657-16.657 16.657-9.2 0-16.656-7.457-16.656-16.657 0-9.199 7.457-16.656 16.656-16.656 9.199 0 16.656 7.457 16.656 16.656zm0 0"/><path fill="#fff" d="M77.96 124.613a8.325 8.325 0 0 1-8.327 8.328 8.328 8.328 0 1 1 0-16.656 8.328 8.328 0 0 1 8.328 8.328zm0 0"/></svg>