<svg xmlns="http://www.w3.org/2000/svg" width="250" height="250"><path fill="#ff3b81" fill-rule="evenodd" d="M250 125c0 69.035-55.965 125-125 125S0 194.035 0 125 55.965 0 125 0s125 55.965 125 125zm0 0"/><path fill="#fff" d="M66.086 172.977v1.101h-11.54v-20.836l-.358 1.156-11.024-3.328 6.227-20.078-.766 1.125-9.563-6.351 11.954-17.454-1.141.907-7.266-8.828 17.196-13.72-2.188.837-4.14-10.61 20.539-7.765-2.407.156-.796-11.328 21.5-1.484-1.946-.438 2.594-11.07 20.547 4.672-1.297-.735 5.758-9.843 17.914 10.187-.703-.734 8.437-7.75L157.57 55.5l-.297-.594 10.368-4.984L176.594 68l-.078-.508 11.382-1.781 3.36 20.883.234-1.485 11.399 1.774-3.407 21.187.836-1.703 10.368 4.985-9.594 19.382 1.406-1.484 8.43 7.758-14.914 15.75 1.804-1.024 5.766 9.844-18.742 10.656 1.883-.43 2.601 11.071-20.719 4.71 1.602.11-.805 11.336-20.734-1.43 1.055.399-4.141 10.61-19.844-7.5 1.258 1-7.258 8.827-16.383-13.07.813 1.18-9.563 6.36-11.718-17.11.351 1.125-11.031 3.328zm0-13.5 7.203-2.172 5.594 18.047 6.234-4.141 10.64 15.547 4.759-5.781 14.75 11.765 2.64-6.773 17.781 6.719.516-7.336 19.031 1.312-1.718-7.305 18.656-4.242-3.867-6.594 16.648-9.468-5.703-5.235 13.148-13.89-7.015-3.375 8.46-17.078-7.671-1.204 3.016-18.75-7.344 1.141-3.008-18.75-6.61 3.172-8.398-16.953-5.39 4.945-12.985-13.726-3.719 6.343-16.445-9.351-1.703 7.25-18.5-4.211.539 7.57-18.992 1.305 2.805 7.21-17.891 6.766 4.82 5.852-15.015 11.976 6.336 4.211-10.813 15.805 7.29 2.203-5.65 18.211h7.579zm56.64-21.29c0-2.875-1.015-5.07-3.038-6.593-2.032-1.555-5.665-3.18-10.93-4.867-5.266-1.72-9.43-3.415-12.5-5.079-8.36-4.53-12.547-10.625-12.547-18.304 0-3.992 1.11-7.547 3.336-10.656 2.266-3.149 5.484-5.602 9.664-7.36 4.219-1.758 8.945-2.633 14.172-2.633 5.265 0 9.953.961 14.062 2.89 4.118 1.892 7.305 4.58 9.57 8.063a21.107 21.107 0 0 1 3.438 11.875h-15.18c0-3.382-1.062-6.007-3.187-7.867-2.125-1.89-5.11-2.836-8.953-2.836-3.711 0-6.602.79-8.656 2.383a7.383 7.383 0 0 0-3.086 6.188c0 2.398 1.195 4.414 3.593 6.039 2.422 1.617 5.985 3.14 10.672 4.562 8.64 2.602 14.93 5.836 18.875 9.688 3.953 3.86 5.922 8.664 5.922 14.406 0 6.398-2.414 11.414-7.234 15.07-4.828 3.617-11.32 5.43-19.485 5.43a37.814 37.814 0 0 1-15.484-3.094c-4.648-2.101-8.21-4.96-10.672-8.578-2.43-3.617-3.648-7.812-3.648-12.578h15.234c0 8.148 4.86 12.226 14.57 12.226 3.61 0 6.43-.726 8.454-2.187a7.253 7.253 0 0 0 3.039-6.188zm46.329-45.296-14.633 53.53-12.055-.843 9.117-55.187zM156.289 152l-3.805 18.914-16.03-4.68 3.679-18.14zm0 0"/></svg>