<svg xmlns="http://www.w3.org/2000/svg" width="250" height="250"><filter id="a" width="100%" height="100%" x="0%" y="0%"><feColorMatrix in="SourceGraphic" values="0 0 0 0 1 0 0 0 0 1 0 0 0 0 1 0 0 0 1 0"/></filter><mask id="c"><g filter="url(#a)"><path fill-opacity=".94" d="M0 0h250v250H0z"/></g></mask><clipPath id="b"><path d="M0 0h250v250H0z"/></clipPath><path fill="#383838" d="M249.895 124.945c0 69.008-55.942 124.95-124.95 124.95C55.941 249.895 0 193.953 0 124.945 0 55.941 55.941 0 124.945 0c69.008 0 124.95 55.941 124.95 124.945zm0 0"/><path fill="#898989" d="M6.324 126.23c0-69.007 49.614-124.945 118.621-124.945 103.625 0-35.468 55.938-35.468 124.945 0 69.012 104.48 123.665 35.468 123.665C47.473 231.89 6.325 195.348 6.325 126.23zm0 0"/><path fill="#4ebd94" d="M123.77 164.488c-33.114 0-57.223-13.18-82.727-39.863 25.715-25.184 49.828-44.043 82.727-44.043 30.753 0 58.183 12.86 83.472 38.578-26.039 25.719-48.754 45.328-83.472 45.328zm0 0"/><path fill="#368866" d="m211.957 115.84-60.113-39.973-49.938-6.43-18.86 98.586s97.407 20.684 128.911-52.183zm0 0"/><path fill="#4ebd94" d="M157.414 121.195c0 20.79-9.75 39.328-24.86 51.328-11.144 8.895-24.644 3.54-38.792-2.464-35.254-14.786-52.293-27.325-57.864-42.325-2.035-5.468 25.61-54.007 61.723-54.007 17.68 0 28.074-11.04 39.754.425 12.434 12.004 20.04 28.614 20.04 47.043zm0 0"/><path fill="#222323" d="M124.945 0C56.043 0 0 56.043 0 124.945c0 68.903 56.043 124.95 124.945 124.95 68.903 0 124.95-56.047 124.95-124.95C249.895 56.043 193.848 0 124.945 0zM236.82 134.484c-30.004-39.757-54.972-54.437-92.8-66.117 20.683-3.215 45.328-3.965 76.19-2.68 10.716 17.254 17.04 37.504 17.04 59.258 0 3.215-.215 6.43-.43 9.54zm-113.05 30.004c-33.114 0-57.223-13.18-82.727-39.863 25.715-25.184 49.828-44.043 82.727-44.043 30.753 0 58.183 12.86 83.472 38.578-26.039 25.719-48.754 45.328-83.472 45.328zm1.175-151.738c34.399 0 65.153 15.54 85.727 39.973-92.262-2.575-129.555 15-178.098 62.363-5.035-6-10.18-12.75-15.644-20.36C30.219 47.474 73.617 12.75 124.945 12.75zM13.61 111.66c29.575 39.004 54.114 53.578 91.192 65.153-21.004 3.425-45.973 4.285-77.582 3-9.11-16.184-14.36-34.934-14.36-54.868-.109-4.5.215-8.894.75-13.285zm111.336 125.59c-36.433 0-68.687-17.469-89.261-44.473 5.785.106 11.359.215 16.714.215 81.442 0 116.91-18.754 163.313-64.508 5.785 6.75 11.785 14.57 18 23.465-12 48.973-56.149 85.301-108.766 85.301zm23.684-115.625c0 13.074-10.61 23.68-23.684 23.68-13.07 0-23.68-10.606-23.68-23.68 0-2.68.536-5.25 1.391-7.61 2.36 2.36 5.68 3.86 9.324 3.86 7.395 0 13.395-6 13.395-13.395 0-2.359-.645-4.5-1.715-6.324.43 0 .86-.105 1.285-.105 13.075-.11 23.684 10.5 23.684 23.574zm0 0"/><g clip-path="url(#b)" mask="url(#c)"><path fill="#fff" d="M119.695 104.48a7.5 7.5 0 1 1-15 0 7.5 7.5 0 1 1 15 0zm0 0"/></g></svg>