<svg xmlns="http://www.w3.org/2000/svg" width="250" height="250"><path fill="none" stroke="#6200ea" stroke-width="10.1352" d="M244.934 125c0 66.238-53.696 119.934-119.934 119.934S5.066 191.238 5.066 125 58.762 5.066 125 5.066 244.934 58.762 244.934 125zm0 0"/><path fill="#6200ea" d="M182.184 144.387c.566 1.008 6.937 12.863.87 35.402a12.087 12.087 0 0 1-2.077-.648h-.04a15.188 15.188 0 0 1-5.617-3.477s.606 14.008-8.293 25.73a1.15 1.15 0 0 1-.183.266l-.043-.039a21.742 21.742 0 0 1-5-8.23s-4.828 11.035-18.29 21.648a64.222 64.222 0 0 1-3.538 2.652c-6.825 4.778-10.63 7.97-12.739 10.067a3.846 3.846 0 0 1-.382.414 3.851 3.851 0 0 1-.375.383c-1.66 1.816-1.809 2.617-1.809 2.843 0-.226-.152-1.007-1.813-2.843a4.336 4.336 0 0 1-.375-.383 3.81 3.81 0 0 1-.378-.414c-2.114-2.09-5.918-5.281-12.743-10.067a65.74 65.74 0 0 1-3.539-2.652 75.51 75.51 0 0 1-6.93-6.148c-8.745-8.7-11.277-15.262-11.367-15.461a21.672 21.672 0 0 1-5.003 8.23l-.04.043a1.281 1.281 0 0 1-.187-.27c-8.906-11.742-8.32-25.769-8.32-25.769a15.097 15.097 0 0 1-5.602 3.477h-.035c-.672.277-1.367.496-2.074.648-6.07-22.539.304-34.414.867-35.402a.103.103 0 0 0 .035-.075.4.4 0 0 0-.07-.07c-1.668-1.21-27.196-20.789-10.477-71.574 0 0 4.852 1.203 7.653 5.434 0 0-.27-15.079 19.207-34.993a17.855 17.855 0 0 1 6.402 11.153s5.902-8.98 17.633-16.532c12.648-8.113 17.144-13.59 17.144-19.128 0 0 28.215 16.89 34.778 35.66 1-7.184 6.402-11.153 6.402-11.153 19.476 19.914 19.207 34.993 19.207 34.993 2.8-4.23 7.656-5.434 7.656-5.434 16.715 50.785-8.808 70.363-10.48 71.574a.4.4 0 0 0-.07.07.12.12 0 0 0 .035.075zm-57.524-40.594c-50.258-29.445-61.492 26.566-19.832 28.644 0 0-5.09 3.188-10.816 3.797a9.541 9.541 0 0 0 6.289.793c-16.551 17.621-10.102 54.102 24.355 54.102S165.56 154.633 149 137.027c2.129.461 4.344.18 6.293-.793-5.727-.609-10.82-3.797-10.82-3.797 41.672-2.078 30.437-58.09-19.817-28.644zm21.074 11.86c0 3.37-1.761 6.093-3.93 6.093-2.171 0-3.933-2.723-3.933-6.094 0-3.367 1.762-6.09 3.934-6.09 2.168 0 3.925 2.731 3.925 6.09zm-38.214-6.09c2.171 0 3.933 2.73 3.933 6.09 0 3.363-1.762 6.093-3.933 6.093s-3.93-2.723-3.93-6.094c0-3.367 1.754-6.09 3.926-6.09zm23.8 30.019c-3.773-1.2-4.504 5.035-4.504 5.035 7.446.844 7.82-3.984 4.496-5.035zm-8.84 5.035s-.703-6.215-4.476-5.035c-3.324 1.05-2.95 5.879 4.488 5.012zm2.176 23.156c11.735.043 20.367-5.832 19.848-6.761-.441-1.063-9.094 1.883-19.848 1.8-10.758.083-19.41-2.863-19.851-1.8-.528.89 8.11 6.77 19.847 6.718zm0 0"/></svg>