<svg xmlns="http://www.w3.org/2000/svg" width="250" height="250"><linearGradient id="a" x1=".5" x2=".061" y1=".299" y2=".761" gradientTransform="matrix(23.28262 0 0 18.23175 5.051 -.448)" gradientUnits="userSpaceOnUse"><stop offset="0" stop-color="#c578f3"/><stop offset=".865" stop-color="#54feb0"/><stop offset=".867" stop-color="#53ffb0"/><stop offset="1" stop-color="#53ffb0"/></linearGradient><linearGradient id="b" x1="14.063" x2="5.684" y1="5.866" y2="26.712" gradientUnits="userSpaceOnUse"><stop offset="0" stop-color="#c578f3"/><stop offset=".865" stop-color="#54feb0"/><stop offset=".928" stop-color="#53ffb0"/><stop offset="1" stop-color="#53ffb0"/></linearGradient><path fill="#0b0e1c" fill-rule="evenodd" d="M250 125c0 69.035-55.965 125-125 125S0 194.035 0 125 55.965 0 125 0s125 55.965 125 125zm0 0"/><path fill="#0b0e1c" fill-rule="evenodd" d="M231.633 106.477c0 58.804-47.672 106.476-106.477 106.476S18.68 165.281 18.68 106.477C18.68 47.672 66.352 0 125.156 0s106.477 47.672 106.477 106.477zm0 0"/><path fill="url(#a)" stroke="url(#a)" stroke-linejoin="round" stroke-width=".5" d="M28.328-.448s-9.203 2.747-9.232 2.747c-.015 0-1.41-.811-2.906-1.233C14.632.626 12.85.558 12.85.558 11.237-.258 9.648-.01 8.068.606l.76.693c-3.662 1.81-3.49 8.864-3.777 12.01 0 .064 1.224-3.879 1.224-3.879l3.668-1s-.281 1.483-.655 1.664c-.404.195-1.058.351-1.553.467l-2.358 7.222.815-.275 2.142-6.346s1.103-.3 1.477-.514c.25-.144.436-.65.493-.84.167-.573.507-1.617.516-2.398L6.27 8.66c.255-3.187 1.513-6.203 3.29-6.808a19.683 19.683 0 0 1 4.128 4.394l-.827.447c-.284.155-.505.34-.595.778l-.09.561c-.046.366.118.75.3 1.073l1.205 2.004-.33 1.785-4.944 1.733c-.428.178-.584.225-.8.822l-.562 1.772.74-.25s.294-1.038.386-1.301c.092-.263.455-.412.776-.523 2.049-.707 2.558-.884 2.558-.884s-.099 1.162-.78 1.716c1.061-.359 1.337-.9 1.675-2.006l1.678-.675.47-2.177 3.172-1.885c.195-.116.365-.27.5-.451s.228-.389.28-.608l1.27-5.376L27.563.597s-.076.732-.412 1.44c-.157.332-.32.703-.693 1.154-.363.44-.88 1.003-1.215 1.136l-4.843 1.635-.164.807 4.988-1.684c.013.72-.587 1.83-1.213 2.497-.684.728-2.335 1.35-3.49 1.747-.683.235-1.214.422-1.214.422l-.257.805 2.29-.732c-.004.208-.195.697-.282.893-.323.733-.695 1.185-1.686 1.573-.991.388-6.29 2.204-6.29 2.204l-.306.855s4.781-1.551 7.01-2.366c1.601-.584 2.217-1.855 2.462-3.481 2.626-1.358 3.655-2.436 3.819-4.85 1.882-1.397 2.325-3.287 2.26-5.1zM9.24.759c2.236-.655 4.165.443 6.78 4.376l-1.618.766A23.544 23.544 0 0 0 9.24.76zm7.759 8.02-2.775 1.607-1.137-1.797a.78.78 0 0 1-.108-.528l.05-.331c.014-.101.031-.21.1-.286.213-.233.707-.472.707-.472l2.525-1.235 1.074 1.582c.125.183.19.4.183.62 0 .024-.002.049-.007.073-.095.325-.293.562-.612.767zm.98-2.07c-1.004-1.424-1.691-2.62-2.554-3.666-.512-.62-1.138-1.292-1.972-1.786 1.692.088 3.786.694 5.377 1.8zm0 0" transform="matrix(10.41667 0 0 10.41667 18.369 18.369)"/><path fill="none" stroke="url(#b)" stroke-width=".658" d="M22.207 11.985c0 5.645-4.577 10.222-10.222 10.222S1.763 17.63 1.763 11.985 6.34 1.763 11.985 1.763 22.207 6.34 22.207 11.985zm0 0" transform="scale(10.41667)"/></svg>