<svg xmlns="http://www.w3.org/2000/svg" width="250" height="250"><linearGradient id="b" x1="706.392" x2="-33.29" y1="325.985" y2="1.423" gradientUnits="userSpaceOnUse"><stop offset="0" stop-color="#1a1a1a"/><stop offset="1" stop-color="#1a1a1a" stop-opacity="0"/></linearGradient><filter id="a" width="100%" height="100%" x="0%" y="0%"><feColorMatrix in="SourceGraphic" values="0 0 0 0 1 0 0 0 0 1 0 0 0 0 1 0 0 0 1 0"/></filter><mask id="d"><g filter="url(#a)"><path fill-opacity=".5" d="M0 0h250v250H0z"/></g></mask><clipPath id="c"><path d="M0 0h251v251H0z"/></clipPath><linearGradient id="e" x1="67.01" x2="188.459" y1="131.696" y2="22.006" gradientUnits="userSpaceOnUse"><stop offset="0" stop-color="#15bcff"/><stop offset=".485" stop-color="#3073ec"/><stop offset="1" stop-color="#b030ec"/></linearGradient><path fill="url(#b)" d="M13.879 100.152C29.324 38.211 92.066.516 154.023 15.961c61.93 15.445 99.63 78.184 84.18 140.121-15.437 61.953-78.183 99.652-140.121 84.207-61.953-15.441-99.648-78.191-84.203-140.137zm0 0"/><g fill="#fff"><path d="M236.152 152.719c-15.304 61.383-77.484 98.742-138.882 83.433-61.372-15.3-98.735-77.48-83.422-138.859 15.3-61.39 77.48-98.75 138.859-83.45 61.395 15.305 98.75 77.489 83.445 138.876zm0 0"/><path d="m118.305 155.61 7.441-28.024 17.621-6.438 4.383-16.468-.152-.41-17.344 6.335 12.496-47.054h-35.441l-16.344 61.41-13.645 4.984-4.507 16.977 13.636-4.98-9.633 36.19h94.325l6.047-22.523z"/><path d="M162.29 85.855c-5.556-14.12-19.493-15.398-35.724-12.246l-5.777-20.144-12.262 3.515 5.63 19.622c-3.223.918-6.5 1.933-9.762 2.937l-5.657-19.75-12.254 3.508L92.25 83.44c-2.637.817-5.227 1.618-7.77 2.348l-.023-.07-16.914 4.847 3.762 13.106s9.007-2.777 8.902-2.563c4.969-1.425 7.41.996 8.594 3.352l6.586 22.945c.336-.094.789-.207 1.32-.285l-1.297.371 9.215 32.156c.23 1.625.031 4.383-3.438 5.383.196.094-8.921 2.551-8.921 2.551l1.77 15.348 15.952-4.586c2.973-.836 5.91-1.625 8.782-2.434l5.851 20.375 12.246-3.508-5.781-20.16a475.082 475.082 0 0 0 9.828-2.722l5.742 20.074 12.27-3.516-5.832-20.34c20.273-7.097 33.215-16.43 29.457-36.308-3.024-16-12.348-20.856-24.86-20.309 6.075-5.66 8.688-13.308 4.598-23.633zm-4.653 48.485c4.367 15.23-22.203 20.972-30.508 23.367l-7.742-27c8.304-2.383 33.687-12.246 38.242 3.637zm-16.633-36.453c3.969 13.855-18.238 18.476-25.164 20.46l-7.016-24.484c6.914-1.984 28.035-10.422 32.18 4.032zm0 0"/></g><g clip-path="url(#c)" mask="url(#d)"><path fill="#fff" stroke="#000" stroke-width="1.041665" d="M239.582 125c0 63.281-51.297 114.582-114.582 114.582-63.281 0-114.582-51.3-114.582-114.582S61.718 10.418 125 10.418 239.582 61.718 239.582 125zm0 0"/></g><path fill="url(#e)" fill-rule="evenodd" d="M197.078 214.078c25.93-21.008 42.504-53.105 42.504-89.078 0-41.824-22.406-78.414-55.871-98.418-32.984 6.871-63.465 22.617-75.82 51.047h115.773l-12.86 29.766H100.532c-.52 4.41-.781 9.793-.781 16.148s.52 12 1.559 16.926h94.3l-12.859 29.96h-69.555c13.989 23.063 47.184 38.962 83.883 43.65zm-44.086 22.063c-11.836-2.84-22.765-6.91-32.785-12.207-22.988-12.192-39.16-30.028-48.512-53.504H30l12.664-29.961H64.29c-.777-6.227-1.168-12.125-1.168-17.703 0-5.707.195-10.832.586-15.371H30l12.664-29.766h27.082C78.32 52.465 94.23 33.074 117.48 19.457a132.15 132.15 0 0 1 17.395-8.621 116.25 116.25 0 0 0-9.875-.418c-63.281 0-114.582 51.3-114.582 114.582S61.718 239.582 125 239.582c9.656 0 19.035-1.191 27.992-3.441zm0 0"/></svg>