<svg xmlns="http://www.w3.org/2000/svg" width="250" height="250"><path fill="#b5b5b6" d="m39.86 184.332 9.363-5.516V70.344l-9.364-5.477zM238.86 67.586l-2.32-4.117-99.5 58.394V238.57h9.362V127.34l87.817-51.52v102.996l9.324 5.516V64.867zm0 0"/><path fill="#28333b" d="M243.543 172.063c-1.418-.68-2.992-1.079-4.684-1.079s-3.265.399-4.68 1.078c-.55.282-1.1.598-1.613.961l-10.191-5.996-9.363-5.476-61.926-36.332-9.363-5.473-66.61-39.05-9.363-5.477-10.23-5.992c0-.32.078-.602.078-.922 0-.32-.078-.64-.078-.918l69.246-40.727 10.62-6.238c1.81 1.281 3.973 2.039 6.298 2.039 2.32 0 4.523-.758 6.293-2.04l79.906 46.884c0 .32-.078.601-.078.922 0 .32.078.636.078.918.277 3.398 2.008 6.394 4.644 8.273.512.36 1.063.68 1.614.918a10.744 10.744 0 0 0 4.68 1.082c1.69 0 3.265-.402 4.683-1.082 3.738-1.797 6.371-5.633 6.371-10.11 0-6.195-4.957-11.23-11.055-11.23-2.36 0-4.523.758-6.293 2.035l-73.535-43.164-6.332-3.719c0-.316.078-.597.078-.918 0-6.195-4.957-11.23-11.054-11.23-6.102 0-11.059 5.035-11.059 11.23 0 .32.078.641.078.918L50.875 59.031c-1.809-1.277-3.973-2.035-6.293-2.035-6.098 0-11.055 5.035-11.055 11.23 0 4.477 2.594 8.352 6.371 10.11a10.774 10.774 0 0 0 4.684 1.082c1.691 0 3.266-.402 4.684-1.082.55-.277 1.101-.598 1.609-.957l10.191 5.996 9.364 5.473 66.61 39.05 9.362 5.477 61.926 36.328 9.363 5.477 10.23 5.996c0 .32-.077.597-.077.918s.078.64.078.918l-79.277 46.484c-1.926-1.52-4.29-2.476-6.922-2.476-2.637 0-5.04.957-6.926 2.476l-85.531-50.16-9.368-5.477-17.937-10.511 3.894-6.914-25.77-.278 13.259 22.461 3.933-6.996 22.582 13.23 90.61 53.157s-.04.32-.04.48c0 6.317 5.036 11.434 11.255 11.434 6.214 0 11.25-5.117 11.25-11.434 0-.16-.04-.32-.04-.48l79.633-46.723c1.809 1.281 3.973 2.04 6.293 2.04 6.098 0 11.055-5.036 11.055-11.231 0-4.477-2.594-8.352-6.371-10.114zm0 0"/></svg>