<svg xmlns="http://www.w3.org/2000/svg" width="250" height="250"><path fill="#00f" d="M0 0h250v250H0z"/><g fill="#fff"><path d="M185.66 53.746c.246 4.883-1.293 9.008-4.219 12.516-4.773 5.715-9.726 11.277-14.558 16.949-3.524 4.129-6.985 8.309-10.446 12.488-4.21 5.09-8.285 10.305-12.625 15.278-3.804 4.359-7.816 8.55-11.894 12.648-5.676 5.715-11.367 11.43-17.3 16.863-5.54 5.075-11.321 9.875-17.134 14.621-3.87 3.16-7.976 6.02-11.984 9.004-3.035 2.254-6.531 2.88-10.078 2.2-5.145-.985-8.797-4.192-10.492-9.223-1.336-3.965-.828-7.918 1.324-11.598 1.973-3.379 3.836-6.828 5.828-10.195 2.742-4.649 5.488-9.297 8.371-13.856a278.763 278.763 0 0 1 8.297-12.41c3.27-4.61 6.645-9.144 10.121-13.601 3.274-4.203 6.61-8.371 10.137-12.356 5.691-6.441 11.535-12.738 17.363-19.054 2.809-3.047 5.734-5.98 8.586-8.989.223-.234.402-.668.36-.968-.126-.848.296-1.352.808-1.93 3.516-3.988 6.957-8.04 10.504-12.004 1.559-1.742 3.207-3.422 4.98-4.934 1.793-1.523 3.91-2.527 6.2-3.148 1.988-.543 3.984-.875 6.043-.781 4.597.214 8.714 1.75 12.492 4.422 3.648 2.578 6.21 6.027 7.906 10.109 1.066 2.558 1.691 5.297 1.414 7.953zM166.22 68.598c.12-.18.219-.348.336-.496 1.273-1.61 1.293-1.633-.07-2.993-.407-.406-.485-.664-.028-1.046.277-.231.52-.508.738-.797.395-.512.453-.938-.125-1.45-2.953-2.62-5.851-5.296-8.804-7.914-.614-.539-.637-.922-.11-1.511 1.196-1.336 1.2-1.38-.125-2.524-.535-.465-.562-.804-.086-1.312.887-.957 1.739-1.953 2.594-2.95.371-.433.688-.44 1.09-.027.457.457.969.852 1.488 1.305.621-.676 1.207-1.317 1.832-1.996.156.129.254.203.344.293 2.352 2.18 4.664 4.41 7.086 6.5.723.625.648.922.066 1.43-.148.128-.234.32-.39.43-.805.589-.75 1.023.054 1.655 1.254.989 1.203 1.055.145 2.27-.043.05-.063.129-.11.172-.574.472-.546.87.04 1.363.98.82 1.886 1.742 2.875 2.55.183.153.754.098.937-.077.926-.914 1.758-1.934 2.684-2.852.507-.512.445-.832-.055-1.289-1.324-1.223-1.332-1.262-.207-2.629.445-.543.465-.91-.09-1.328-.484-.367-.941-.77-1.348-1.105l1.793-2.27-3.656-3.3c-2.668-2.427-5.34-4.84-7.984-7.286-.457-.426-.723-.46-1.098.07-.351.5-.793.942-1.242 1.461-.79-.672-1.434-1.218-2.074-1.765-.184.136-.38.254-.54.406-1.374 1.371-1.363 1.36-2.921.164-.172-.133-.692-.094-.836.066-2.328 2.543-4.621 5.114-6.965 7.73.2.153.309.22.395.31.457.496 1.23.968 1.273 1.5s-.695 1.101-.992 1.706c-.113.231-.04.688.125.899.398.5.898.914 1.433 1.434-.613.726-1.171 1.39-1.773 2.101 3.418 3.137 6.789 6.227 10.16 9.32-.101.13-.14.18-.18.227-.468.547-1.293 1.09-1.293 1.637 0 .562.833 1.105 1.235 1.703.137.195.176.648.05.805-1.046 1.261-2.136 2.484-3.238 3.738-.484-.426-.918-.781-1.316-1.172-.566-.559-.879-.524-1.477.144-1.136 1.266-.722 1.477-2.191.149-2.328-2.117-4.645-4.25-7.004-6.414.309-.38.582-.711.852-1.051.261-.324.511-.652.754-.965-.168-.21-.301-.41-.461-.57-1.395-1.363-1.383-1.352-.23-2.828.171-.223.308-.762.194-.88-1.183-1.167-2.421-2.28-3.695-3.456-1.492 1.77-2.8 3.469-4.27 5.015-3.593 3.774-7.378 7.364-10.874 11.23-6.059 6.696-12.016 13.493-17.903 20.34-2.89 3.364-5.601 6.891-8.273 10.434-3.606 4.782-7.2 9.578-10.61 14.5-3.363 4.868-6.511 9.887-9.71 14.875-1.325 2.067-2.528 4.215-3.801 6.344 1.453.504 2.781.988 4.12 1.418 2.083.668 3.993 1.649 5.184 3.57 1.18 1.899 2.192 3.91 3.22 5.903.26.511.452.605.886.261.46-.367.957-.68 1.406-1.058 5.434-4.606 10.953-9.102 16.25-13.856 4.547-4.078 8.902-8.39 13.219-12.722 3.957-3.965 7.836-8.016 11.586-12.18 4.226-4.68 8.316-9.488 12.375-14.32 2.969-3.524 5.742-7.215 8.703-10.742 1.875-2.23 3.328-4.754 5.617-6.723 2.586-2.219 4.649-5.067 6.988-7.695l-1.957-1.864zM84.28 152.715c.16-3.367-2.722-6.567-6.316-6.574-3.711-.008-6.672 3.14-6.617 6.547.066 3.859 2.851 6.558 6.441 6.628 3.375.063 6.535-2.55 6.492-6.597zM72.121 185.367v2.031h1.996v2.032c.676.039 1.274.07 1.945.105v9.422c-.578.031-1.171.059-1.89.094v1.984H72.14v2.024H58.75v-1.965h-1.98c-.047-.719-.086-1.348-.13-2.043l-1.886-.09v-5.371c1.684 0 3.328-.024 4.973.031.195.008.546.496.53.742-.054.938.25 1.328 1.212 1.25 1.343-.105.64 1.055.96 1.711h6.024c.031-.25.094-.508.086-.77-.023-.699.285-1.03.977-.952 1.148.128 1.023-.665 1.023-1.403 0-.707.094-1.441-.988-1.328-1.34.145-.88-.973-1.102-1.754-.324-.015-.676-.047-1.031-.047-2.434-.004-4.867 0-7.297 0-.918 0-1.39-.46-1.41-1.379-.004-.164-.02-.332-.043-.586-.621-.03-1.215-.066-1.898-.105-.04-.637-.075-1.238-.118-1.938-.593-.03-1.183-.058-1.91-.09-.02-.363-.054-.722-.054-1.085-.004-2.403 0-4.809 0-7.211 0-1.34.019-1.356 1.351-1.438.195-.011.39-.043.637-.07v-1.684a155.79 155.79 0 0 1 1.996-.449c.027-.492.05-1 .074-1.586h13.32c.032.528.067 1.063.102 1.574 1.187.282 1.879.997 2.074 2.141 1.266.16 1.903.918 1.903 2.277 0 1-.004 1.993-.012 2.989 0 .097-.035.199-.078.449-1.688 0-3.395.012-5.094-.024-.145 0-.367-.355-.398-.57-.063-.426-.02-.87-.02-1.289-1.176-.2-1.887-.902-2.137-2.105h-6.004c-.043.613-.09 1.21-.136 1.894-.625.047-1.22.086-1.891.133v2.305c1.21.214 1.89.93 2.047 2.144h9.703zM193.258 201.055h-1.93v1.98h-13.422v-1.953h-1.972c-.043-.719-.082-1.348-.125-2.031-.649-.031-1.243-.059-1.946-.094v-20.199c0-.965.489-1.469 1.465-1.52.137-.008.27-.027.54-.062-.321-1.559.28-2.336 1.964-1.996.031-.614.059-1.118.094-1.711h13.316v1.55c.746.16 1.387.301 2.09.454v1.683c1.32.16 1.98.922 1.98 2.285V198.957c-.68.035-1.273.059-1.957.094-.027.633-.058 1.234-.093 2.012zm-11.73-3.711h6.081c.032-.196.082-.328.063-.453-.125-.95.187-1.426 1.207-1.297.789.097.844-.45.84-1.063-.008-4.25 0-8.508-.008-12.765 0-.293-.055-.578-.082-.852l-1.879-.137c-.059-.699-.105-1.297-.164-1.953-1.82 0-3.535.028-5.25-.012-.668-.015-.961.211-.879.875.129.985-.324 1.31-1.23 1.188-.22-.027-.45.04-.665.063-.039.16-.082.257-.082.355-.007 4.496-.007 8.988-.023 13.484 0 .72.379.887.969.828.738-.07 1.07.25 1.027 1.004-.012.23.043.461.07.743zM147.473 173.434v5.347h-15.68v6.57h11.719c0 1.782.011 3.422-.004 5.055-.008.711-.535.664-1.02.664h-10.711v6.282c.407.02.801.058 1.192.058 4.492.004 8.988.024 13.476-.015.86-.012 1.125.277 1.094 1.125-.05 1.472-.016 2.949-.016 4.523-.324.02-.613.062-.902.062-6.453 0-12.902-.011-19.355.02-.895.004-1.172-.293-1.168-1.184.023-9.136.02-18.265.007-27.402 0-.687.075-1.187.973-1.184 6.617.028 13.234.012 19.86.016.16 0 .32.035.53.059zM102.555 173.371h1.035c6.351 0 12.7.027 19.05-.023 1.028-.008 1.305.37 1.262 1.32a37.047 37.047 0 0 0 0 3.09c.024.785-.261 1.082-1.07 1.074-4.594-.031-9.187.012-13.781-.035-.985-.016-1.293.297-1.254 1.285.07 1.711.023 3.418.023 5.234.461.024.856.063 1.246.063 3.211.004 6.418.031 9.63-.016.882-.011 1.3.176 1.206 1.18-.093 1.023-.02 2.059-.02 3.09 0 1.363-.073 1.433-1.468 1.433-3.11 0-6.215.04-9.32-.02-1.004-.015-1.383.24-1.297 1.325.101 1.328.074 2.676 0 4.012-.047.867.305 1.039 1.055 1.035 4.527-.02 9.05-.012 13.578-.008 1.25 0 1.453.2 1.46 1.492.008 1.098 0 2.196 0 3.297 0 .547-.14.91-.796.91-6.82-.011-13.64-.007-20.535-.007v-29.739zM155.566 197.414h1.313c4.488 0 8.98.02 13.465-.016.86-.007 1.117.282 1.082 1.125-.051 1.47-.016 2.946-.016 4.504h-21.437v-1.144c0-9.09.015-18.184-.024-27.274-.004-1.015.297-1.304 1.254-1.254 1.41.075 2.824.02 4.36.02v24.043zM91.996 178.762v24.285h-5.36v-22.828c0-1.367-.03-1.399-1.359-1.399h-6.625v-5.398c.344-.016.696-.047 1.055-.047 6.348 0 12.691.02 19.035-.02.992-.003 1.395.215 1.313 1.313-.106 1.32-.028 2.656-.028 4.098H92zm0 0"/></g></svg>