<svg xmlns="http://www.w3.org/2000/svg" width="250" height="250"><filter id="a" width="100%" height="100%" x="0%" y="0%"><feColorMatrix in="SourceGraphic" values="0 0 0 0 1 0 0 0 0 1 0 0 0 0 1 0 0 0 1 0"/></filter><mask id="c"><g filter="url(#a)"><path fill-opacity=".6" d="M0 0h250v250H0z"/></g></mask><clipPath id="b"><path d="M0 0h250v250H0z"/></clipPath><mask id="e"><g filter="url(#a)"><path fill-opacity=".6" d="M0 0h250v250H0z"/></g></mask><clipPath id="d"><path d="M0 0h250v250H0z"/></clipPath><mask id="g"><g filter="url(#a)"><path fill-opacity=".2" d="M0 0h250v250H0z"/></g></mask><clipPath id="f"><path d="M0 0h250v250H0z"/></clipPath><mask id="i"><g filter="url(#a)"><path fill-opacity=".2" d="M0 0h250v250H0z"/></g></mask><clipPath id="h"><path d="M0 0h250v250H0z"/></clipPath><mask id="k"><g filter="url(#a)"><path fill-opacity=".6" d="M0 0h250v250H0z"/></g></mask><clipPath id="j"><path d="M0 0h250v250H0z"/></clipPath><mask id="m"><g filter="url(#a)"><path fill-opacity=".6" d="M0 0h250v250H0z"/></g></mask><clipPath id="l"><path d="M0 0h250v250H0z"/></clipPath><path fill="#00a3ff" d="m82.898 117.426-1.144 1.754c-12.89 19.773-10.012 45.668 6.922 62.257 9.96 9.762 23.015 14.641 36.07 14.641l-41.848-78.652zm0 0"/><g clip-path="url(#b)" mask="url(#c)"><path fill="#00a3ff" d="m124.746 141.332-41.848-23.906 41.848 78.652v-54.746zm0 0"/></g><g clip-path="url(#d)" mask="url(#e)"><path fill="#00a3ff" d="m166.637 117.426 1.144 1.754c12.89 19.773 10.012 45.668-6.922 62.257-9.96 9.762-23.015 14.641-36.07 14.641l41.848-78.652zm0 0"/></g><g clip-path="url(#f)" mask="url(#g)"><path fill="#00a3ff" d="m124.79 141.332 41.847-23.906-41.848 78.652v-54.746zm0 0"/></g><g clip-path="url(#h)" mask="url(#i)"><path fill="#00a3ff" d="M124.797 87.934v41.23l36.047-20.601zm0 0"/></g><g clip-path="url(#j)" mask="url(#k)"><path fill="#00a3ff" d="m124.797 87.934-36.074 20.629 36.074 20.601zm0 0"/></g><path fill="#00a3ff" d="m124.797 53.25-36.074 55.313 36.074-20.684zm0 0"/><g clip-path="url(#l)" mask="url(#m)"><path fill="#00a3ff" d="m124.797 87.879 36.078 20.687-36.078-55.343zm0 0"/></g></svg>