<svg xmlns="http://www.w3.org/2000/svg" width="250" height="250"><g fill="#2683ff"><path d="M35.559 170.012a6.836 6.836 0 1 0 6.836 6.836c0-1.211-.333-2.313-.883-3.418a6.932 6.932 0 0 0-5.953-3.414M132.14 21.277a6.836 6.836 0 1 0-6.836 6.836 6.871 6.871 0 0 0 6.836-6.836m83.359 59.32a6.836 6.836 0 0 0 6.836-6.835 6.837 6.837 0 1 0-13.672 0 6.718 6.718 0 0 0 .883 3.304 6.822 6.822 0 0 0 5.953 3.532M38.75 67.477c-3.309-1.875-7.387-.774-9.262 2.535-1.875 3.308-.77 7.386 2.535 9.261 3.309 1.872 7.391.77 9.262-2.539 1.875-3.195.774-7.386-2.535-9.257m179.5 103.859c-.992-.664-2.203-.883-3.418-.992a6.83 6.83 0 0 0-5.996 3.39 6.83 6.83 0 0 0 0 6.887 6.841 6.841 0 0 0 5.996 3.395c2.426 0 4.625-1.325 5.953-3.418 1.875-3.2.774-7.391-2.535-9.262m-99.781 57c-.332 3.086 1.543 6.062 4.41 7.164.66.223 1.433.441 2.094.441a7.197 7.197 0 0 0 7.058-5.843 6.804 6.804 0 0 0-5.742-7.657 6.803 6.803 0 0 0-7.71 5.672.39.39 0 0 0-.11.219"/><path d="M224.977 158.766a17.953 17.953 0 0 0-2.536-1.211v-63.84c.993-.328 1.985-.883 2.977-1.32 10.25-5.735 14-18.747 8.27-29-5.735-10.258-18.747-14-29-8.27-.883.441-1.657.992-2.426 1.543l-56.23-32.523c.109-.993.218-1.875.218-2.868C146.25 9.48 136.664 0 124.977 0s-21.5 9.703-21.5 21.39c0 .993.109 1.876.218 2.864L47.906 56.559A21.315 21.315 0 1 0 22 90.41c.77.55 1.543 1.102 2.426 1.653.898.55 1.863.996 2.867 1.324v63.726c-10.918 4.41-16.211 16.762-11.8 27.672 4.41 10.914 16.757 16.207 27.675 11.797.992-.328 1.875-.879 2.754-1.32.883-.551 1.766-1.102 2.648-1.766l55.235 31.863c-1.875 11.578 6.066 22.493 17.644 24.368 11.574 1.875 22.492-6.063 24.364-17.641.222-1.211.222-2.316.222-3.527a27.194 27.194 0 0 0-.222-3.09l54.91-31.64c.882.66 1.761 1.32 2.754 1.874 10.25 5.734 23.265 2.094 29-8.16 5.507-10.254 2.203-22.824-7.5-28.777zm3.859 26.683c-4.52 7.715-14.555 10.363-22.274 5.844-6.171-3.64-9.261-10.809-7.605-17.75l-25.8-15.106a28.78 28.78 0 0 1-31.204 6.5c-3.86 1.211-12.125 1.985-12.125 1.985v45.426c9.043 2.754 14 12.347 11.25 21.386s-12.348 14-21.39 11.25c-.11 0-.22-.109-.329-.109-.773-.219-1.437-.55-2.097-.883-8.489-4.191-11.797-14.554-7.606-22.933 2.094-4.188 5.844-7.274 10.25-8.707v-46.309a76.323 76.323 0 0 1-9.484-3.64 34.206 34.206 0 0 1-28.223-6.946l-30.761 17.75c2.097 8.797-3.333 17.629-12.126 19.73-8.796 2.098-17.628-3.328-19.73-12.125-2.102-8.792 3.324-17.625 12.117-19.73 5.293-1.32 10.914.219 15 3.969l28.778-16.649c-9.704-13.672-8.16-32.414 3.75-44.324l-32.75-18.742c-6.5 6.176-16.758 5.844-22.934-.77a16.268 16.268 0 0 1-4.41-11.683 16.278 16.278 0 0 1 5.183-11.363c6.614-6.172 16.758-5.844 22.93.773 3.75 3.969 5.184 9.48 3.969 14.773l36.273 20.836a34.292 34.292 0 0 1 15.438-4.078C108 89.637 121 85.336 121 85.336V35.723c-8.047-2.426-12.57-10.914-10.145-18.965C113.281 8.71 121.777 4.3 129.828 6.727c8.047 2.421 12.567 10.914 10.14 18.96a15.094 15.094 0 0 1-10.14 10.145v48.625s23.813 5.953 31.313 14.883l38.586-21.938c-1.985-8.82 3.418-17.64 12.238-19.625 8.824-1.984 17.644 3.418 19.625 12.239 1.984 8.82-3.418 17.64-12.238 19.625a16.42 16.42 0 0 1-14.883-4.082l-38.149 21.609c1.102 2.316 2.094 4.625 2.758 7.055 11.797 8.05 15.984 23.484 9.7 36.386l25.25 14.66a16.127 16.127 0 0 1 19.183-2.093c7.61 4.52 10.25 14.445 5.625 22.273zm0 0"/><path d="M157.723 122.824c-.114-.883-.223-1.652-.332-2.535a14.402 14.402 0 0 0-.442-1.766c0-.218-.11-.441-.11-.66-.222-.66-.44-1.433-.663-2.097v-.11a29.143 29.143 0 0 0-6.285-9.922c-.66-.66-1.211-1.21-1.985-1.875l-.11-.109c-.66-.55-1.32-1.102-2.093-1.543l-.11-.11c-.663-.44-1.433-.992-2.097-1.324l-.11-.109c-.71-.41-1.448-.781-2.202-1.102l-.223-.109a54.907 54.907 0 0 0-2.422-.996l-.113-.11c-.88-.218-1.653-.55-2.535-.66h-.11c-.87-.199-1.758-.347-2.644-.44h-.114a27.242 27.242 0 0 0-13.89 1.651l-.551.442c-.66.222-1.766.773-2.426 1.105a5.28 5.28 0 0 1-1.101.551c-.332.11-.883.55-1.215.77-.328.218-1.102.773-1.543 1.101l-.332.223c-.66.441-1.211.992-1.875 1.543l-.55.55c-.661.66-1.212 1.212-1.763 1.876a24.151 24.151 0 0 0-3.968-.332c-.442 0-.774 0-1.106.109-5.07.223-9.922 2.316-13.668 5.734-1.875 1.657-3.418 3.75-4.625 5.953l-.117.227c-.34.64-.637 1.305-.883 1.984-.113.22-.113.332-.222.551a11.14 11.14 0 0 0-.551 1.766c-.11.219-.11.55-.219.77-.11.55-.219 1.1-.332 1.765 0 .219-.11.441-.11.77a18.986 18.986 0 0 0-.109 2.535c-.02.703.016 1.402.11 2.097 0 .219.109.442.109.77.11.441.11.883.219 1.324.113.438.113.55.222.883.125.316.2.652.22.992 0 .332.218.66.331.992.09.266.2.524.332.77.164.36.313.73.442 1.105.109.219.218.328.218.551a19.52 19.52 0 0 0 7.5 8.82c1.653.993 3.309 1.875 5.07 2.422.684.238 1.383.422 2.094.555l.223.11 1.984.327.442.114c.77.109 1.543.109 2.426.109 2.976 0 5.843-.55 8.488-1.766.66.442 1.215.883 1.875 1.325l.219.109c.554.332 1.214.66 1.875.992h.109a28.433 28.433 0 0 0 20.398 2.094h.11c.992-.211 1.953-.547 2.867-.992l2.977-1.32a16.169 16.169 0 0 0 9.921 3.417c.774 0 1.434-.113 2.207-.113l.551-.11c.707-.105 1.406-.25 2.094-.44.68-.208 1.344-.465 1.984-.77l.332-.11c.66-.332 1.211-.664 1.875-.992 2.758-1.765 4.852-4.41 6.063-7.39.441-.993.664-1.985.883-2.973v-.332c.11-.441.11-.883.222-1.324 0-.551.11-1.102.11-1.653 0-7.277-4.52-13.562-11.25-15.656"/></g></svg>