<svg xmlns="http://www.w3.org/2000/svg" width="250" height="250"><path fill="#00847b" d="M245.918 125c0 66.781-54.137 120.918-120.918 120.918S4.082 191.781 4.082 125 58.219 4.082 125 4.082 245.918 58.219 245.918 125zm0 0"/><g fill="#fff" fill-rule="evenodd"><path d="M154.64 170.832c0 15.64-12.695 28.277-28.363 28.277-15.636 0-28.359-12.636-28.359-28.277 0-4.473 1.027-8.691 2.887-12.441l-11.946-9.723-.277-.168c-3.914 6.527-6.137 14.195-6.137 22.332 0 24.113 19.61 43.695 43.832 43.695s43.864-19.554 43.864-43.695c0-24.11-19.614-43.691-43.836-43.691H19.695l28.223 22.277v-6.863h78.36c15.64.027 28.363 12.668 28.363 28.277zM95.36 79.168c0-15.64 12.695-28.277 28.363-28.277s28.332 12.636 28.332 28.277c0 4.473-1.028 8.691-2.887 12.441l11.941 9.723.282.168c3.914-6.527 6.136-14.195 6.136-22.332 0-24.113-19.609-43.695-43.832-43.695-24.222 0-43.836 19.554-43.836 43.695 0 24.11 19.614 43.691 43.836 43.691h106.582l-28.222-22.277v6.863h-78.332c-15.641-.027-28.364-12.668-28.364-28.277zm0 0"/></g></svg>