<svg xmlns="http://www.w3.org/2000/svg" width="250" height="250"><path fill="#ff5c00" fill-rule="evenodd" d="M156.309 11.555V4.348c0-2.473-2.059-4.461-4.528-4.344-48.46 2.3-87.293 41.351-89.246 89.89.106 3.043 2.567 3.84 4.016 3.84h7.32a4.349 4.349 0 0 0 4.336-4.132c2.078-39.934 34.121-71.938 74.074-73.961 3.051-.395 4.028-2.059 4.028-4.086m-65.903 82.18h7.008c2.273 0 4.129-1.774 4.297-4.044 1.977-27.129 23.734-48.77 50.918-50.574 1.215-.082 3.68-.992 3.68-4.14v-7.133c0-2.52-2.137-4.5-4.653-4.336C116.488 25.8 88.367 53.922 86.07 89.082c-.164 2.512 1.817 4.652 4.34 4.652M156.31 51.38v7.168c0 2.93-2.547 3.984-3.79 4.137-14.222 1.714-25.503 12.972-27.257 27.18-.27 2.198-2.102 3.87-4.32 3.87h-6.997c-2.55 0-4.582-2.191-4.328-4.73 2.219-22.137 19.82-39.738 41.961-41.953 2.54-.254 4.73 1.777 4.73 4.328zm82.136 104.707c-2.027 0-3.695-.977-4.086-4.024-2.027-39.949-34.035-71.984-73.972-74.066a4.346 4.346 0 0 1-4.133-4.336v-7.32c0-1.445.797-3.91 3.84-4.012 48.547 1.953 87.597 40.781 89.902 89.23.117 2.47-1.871 4.528-4.344 4.528zm-82.191-65.89c0-2.52 2.137-4.5 4.652-4.337 35.168 2.297 63.29 30.414 65.582 65.575.164 2.515-1.816 4.652-4.336 4.652h-7.136c-3.149 0-4.059-2.461-4.141-3.676-1.8-27.18-23.445-48.933-50.582-50.914-2.266-.168-4.04-2.02-4.04-4.293zm42.36 65.89h-7.169c-2.93 0-3.988-2.547-4.136-3.785-1.715-14.223-12.977-25.504-27.184-27.254-2.2-.274-3.871-2.106-3.871-4.32v-6.997c0-2.55 2.191-4.582 4.73-4.328 22.137 2.215 39.743 19.82 41.957 41.957.254 2.536-1.777 4.727-4.328 4.727zM11.553 93.715c2.028 0 3.696.976 4.087 4.023 2.027 39.95 34.035 71.989 73.972 74.067a4.346 4.346 0 0 1 4.133 4.336v7.32c0 1.445-.797 3.91-3.84 4.012C41.36 185.52 2.31 146.69.004 98.243c-.117-2.47 1.871-4.528 4.344-4.528zm82.192 65.89c0 2.52-2.137 4.5-4.652 4.336-35.168-2.296-63.29-30.414-65.582-65.574-.164-2.515 1.816-4.652 4.336-4.652h7.136c3.149 0 4.059 2.46 4.141 3.676 1.8 27.18 23.445 48.933 50.582 50.914 2.266.164 4.04 2.02 4.04 4.293zm-42.36-65.89h7.169c2.93 0 3.988 2.547 4.136 3.785 1.715 14.219 12.977 25.5 27.184 27.258 2.2.27 3.871 2.101 3.871 4.316v6.996c0 2.551-2.191 4.582-4.73 4.328-22.137-2.218-39.743-19.82-41.957-41.957-.254-2.535 1.777-4.726 4.328-4.726zm42.38 144.73c0-2.027.976-3.691 4.023-4.086 39.953-2.023 71.996-34.027 74.074-73.96a4.35 4.35 0 0 1 4.34-4.133h7.32c1.446 0 3.91.797 4.012 3.84-1.953 48.539-40.785 87.585-89.242 89.89-2.469.117-4.527-1.871-4.527-4.344zm65.898-82.18c2.52 0 4.5 2.137 4.336 4.653-2.293 35.16-30.418 63.281-65.582 65.574-2.516.164-4.652-1.816-4.652-4.336v-7.133c0-3.152 2.46-4.058 3.675-4.14 27.184-1.805 48.942-23.446 50.922-50.574.164-2.27 2.02-4.043 4.293-4.043zm-65.898 42.356v-7.168c0-2.93 2.546-3.984 3.785-4.137 14.222-1.714 25.508-12.972 27.258-27.18.273-2.198 2.105-3.87 4.32-3.87h6.996c2.55 0 4.582 2.191 4.328 4.73-2.215 22.137-19.82 39.738-41.96 41.953-2.54.254-4.727-1.777-4.727-4.328zm0 0"/></svg>