<svg xmlns="http://www.w3.org/2000/svg" width="250" height="250"><path fill="#f7600a" d="M250 125c0 69.035-55.965 125-125 125S0 194.035 0 125 55.965 0 125 0s125 55.965 125 125zm0 0"/><path fill="#fff" fill-rule="evenodd" d="M146.914 45.59v-5.047c0-1.73-1.441-3.121-3.168-3.04-33.922 1.61-61.105 28.946-62.473 62.923.075 2.129 1.797 2.687 2.813 2.687h5.125a3.044 3.044 0 0 0 3.035-2.89c1.453-27.957 23.883-50.36 51.852-51.778 2.132-.273 2.816-1.437 2.816-2.855zm-46.129 57.523h4.906c1.59 0 2.891-1.242 3.004-2.828 1.387-18.992 16.618-34.14 35.645-35.402.851-.059 2.574-.695 2.574-2.899v-4.992a3.046 3.046 0 0 0-3.258-3.035C119.043 55.562 99.36 75.242 97.75 99.855c-.113 1.762 1.27 3.258 3.035 3.258zm65.18 43.774c1.015 0 2.738.558 2.812 2.687-1.367 33.977-28.55 61.313-62.472 62.922-1.727.082-3.168-1.309-3.168-3.039v-5.047c0-1.418.683-2.582 2.816-2.855 27.969-1.418 50.399-23.82 51.852-51.778a3.044 3.044 0 0 1 3.035-2.89zm-16.7 0c1.766 0 3.15 1.496 3.036 3.258-1.606 24.613-21.293 44.292-45.91 45.898a3.045 3.045 0 0 1-3.254-3.035v-4.992c0-2.203 1.722-2.84 2.574-2.899 19.027-1.262 34.258-16.41 35.644-35.402.114-1.59 1.415-2.828 3.004-2.828zm-16.476 0c1.785 0 3.207 1.535 3.027 3.308-1.55 15.496-13.87 27.82-29.37 29.368-1.778.18-3.31-1.243-3.31-3.028v-5.015c0-2.055 1.782-2.793 2.65-2.899 9.956-1.2 17.855-9.078 19.081-19.023.192-1.54 1.473-2.711 3.024-2.711zm-87.2-43.785c1.419 0 2.587.683 2.86 2.816 1.418 27.96 23.824 50.39 51.781 51.844a3.048 3.048 0 0 1 2.895 3.035v5.125c0 1.016-.559 2.738-2.688 2.808-33.984-1.367-61.324-28.546-62.933-62.46-.082-1.727 1.309-3.168 3.039-3.168zm16.4 0c2.202 0 2.84 1.722 2.898 2.574 1.261 19.023 16.414 34.254 35.406 35.636 1.59.118 2.832 1.415 2.832 3.008v4.903c0 1.765-1.5 3.152-3.258 3.035-24.617-1.606-44.305-21.29-45.91-45.903-.113-1.757 1.273-3.253 3.035-3.253zm87.573-21.973c33.985 1.367 61.325 28.547 62.934 62.46a3.037 3.037 0 0 1-3.039 3.173h-5.047c-1.418 0-2.586-.684-2.86-2.817-1.417-27.965-23.823-50.39-51.78-51.847a3.045 3.045 0 0 1-2.895-3.035v-5.126c0-1.011.559-2.734 2.688-2.808zm.57 16.473c24.618 1.605 44.305 21.289 45.911 45.902.113 1.762-1.273 3.258-3.035 3.258h-4.996c-2.203 0-2.84-1.727-2.899-2.575-1.261-19.027-16.414-34.253-35.406-35.64-1.59-.117-2.832-1.414-2.832-3.004v-4.906c0-1.762 1.5-3.149 3.258-3.035zm.055 16.48c15.5 1.55 27.82 13.871 29.372 29.367.18 1.778-1.243 3.313-3.028 3.313h-5.02c-2.05 0-2.788-1.785-2.894-2.653-1.203-9.953-9.082-17.851-19.031-19.078-1.54-.191-2.711-1.472-2.711-3.023v-4.895c0-1.785 1.535-3.207 3.313-3.031zm-71.699-10.98c2.051 0 2.79 1.78 2.895 2.648 1.203 9.953 9.082 17.852 19.031 19.078 1.54.192 2.711 1.473 2.711 3.024v4.898c0 1.785-1.535 3.207-3.313 3.027-15.5-1.55-27.82-13.87-29.37-29.367-.18-1.777 1.242-3.308 3.027-3.308zm68.426-29.637v5.015c0 2.055-1.781 2.793-2.648 2.899-9.957 1.2-17.856 9.078-19.082 19.023-.192 1.54-1.473 2.711-3.024 2.711h-4.898c-1.785 0-3.207-1.535-3.028-3.308 1.551-15.496 13.875-27.82 29.371-29.368 1.778-.18 3.31 1.243 3.31 3.028zm0 0"/></svg>