<svg xmlns="http://www.w3.org/2000/svg" width="250" height="250"><path fill="#eee" d="M0 0h250v250H0z"/><g fill-opacity=".2"><path d="M7.36 130.156c.167 1.188.488 2.078.972 2.664.883 1.075 2.395 1.61 4.54 1.61 1.28 0 2.323-.14 3.124-.426 1.52-.54 2.277-1.547 2.277-3.02 0-.859-.375-1.523-1.128-1.996-.754-.457-1.938-.863-3.551-1.215l-2.754-.62c-2.707-.61-4.578-1.278-5.617-1.993-1.754-1.203-2.63-3.082-2.63-5.633 0-2.332.848-4.27 2.544-5.812 1.695-1.54 4.183-2.313 7.468-2.313 2.743 0 5.079.73 7.008 2.192 1.946 1.445 2.961 3.554 3.055 6.32h-5.227c-.093-1.566-.773-2.68-2.046-3.336-.848-.437-1.903-.656-3.16-.656-1.403 0-2.52.285-3.356.848-.836.566-1.254 1.355-1.254 2.367 0 .93.414 1.625 1.238 2.086.528.304 1.66.664 3.39 1.074l4.485 1.078c1.965.473 3.45 1.102 4.45 1.89 1.554 1.223 2.328 2.997 2.328 5.313 0 2.379-.91 4.356-2.735 5.934-1.812 1.566-4.379 2.347-7.699 2.347-3.39 0-6.055-.77-8-2.312-1.941-1.555-2.914-3.684-2.914-6.39zM25.375 112.164h5.527v15.996c0 1.79.211 3.098.633 3.918.66 1.461 2.098 2.192 4.309 2.192 2.203 0 3.633-.73 4.293-2.192.422-.82.633-2.129.633-3.918v-15.996h5.527v15.996c0 2.766-.43 4.922-1.29 6.461-1.6 2.828-4.655 4.238-9.163 4.238s-7.567-1.41-9.18-4.238c-.86-1.539-1.289-3.695-1.289-6.46zM61.133 130.156c.168 1.188.488 2.078.972 2.664.883 1.075 2.395 1.61 4.54 1.61 1.28 0 2.324-.14 3.125-.426 1.515-.54 2.277-1.547 2.277-3.02 0-.859-.379-1.523-1.129-1.996-.754-.457-1.938-.863-3.55-1.215l-2.755-.62c-2.707-.61-4.578-1.278-5.617-1.993-1.754-1.203-2.629-3.082-2.629-5.633 0-2.332.848-4.27 2.543-5.812 1.695-1.54 4.184-2.313 7.469-2.313 2.742 0 5.078.73 7.008 2.192 1.945 1.445 2.96 3.554 3.054 6.32h-5.226c-.094-1.566-.774-2.68-2.047-3.336-.848-.437-1.902-.656-3.16-.656-1.403 0-2.52.285-3.356.848-.836.566-1.254 1.355-1.254 2.367 0 .93.414 1.625 1.239 2.086.527.304 1.656.664 3.386 1.074l4.489 1.078c1.965.473 3.449 1.102 4.449 1.89 1.55 1.223 2.328 2.997 2.328 5.313 0 2.379-.91 4.356-2.734 5.934-1.813 1.566-4.38 2.347-7.7 2.347-3.39 0-6.058-.77-8-2.312-1.94-1.555-2.914-3.684-2.914-6.39zM90.605 134.305c.625 0 1.227-.078 1.801-.23.32-.083.727-.227 1.219-.442l-2.629-2.508 2.805-2.93 2.633 2.508c.41-.848.699-1.59.863-2.226.262-.954.39-2.067.39-3.336 0-2.918-.601-5.172-1.8-6.762-1.192-1.602-2.934-2.402-5.227-2.402-2.156 0-3.875.765-5.156 2.296-1.285 1.528-1.926 3.82-1.926 6.868 0 3.566.918 6.12 2.754 7.664 1.191 1 2.613 1.5 4.273 1.5zm12.52-9.551c0 2.316-.281 4.258-.848 5.824-.457 1.496-1.136 2.738-2.03 3.727l3.003 2.808-2.844 2.965-3.144-2.965c-.953.575-1.778.98-2.469 1.219-1.168.387-2.563.582-4.188.582-3.39 0-6.19-1.012-8.402-3.039-2.683-2.434-4.027-6.016-4.027-10.734 0-4.754 1.379-8.352 4.133-10.79 2.246-1.988 5.043-2.984 8.386-2.984 3.368 0 6.192 1.055 8.477 3.16 2.637 2.438 3.953 5.848 3.953 10.227zM105.113 112.164h5.524v15.996c0 1.79.215 3.098.636 3.918.66 1.461 2.094 2.192 4.309 2.192 2.203 0 3.633-.73 4.29-2.192.425-.82.636-2.129.636-3.918v-15.996h5.527v15.996c0 2.766-.43 4.922-1.289 6.461-1.601 2.828-4.656 4.238-9.164 4.238s-7.57-1.41-9.184-4.238c-.859-1.539-1.285-3.695-1.285-6.46zM136.168 128.355h6.602l-3.25-10.242zm.336-16.19h6.144l9.215 26.022h-5.898l-1.676-5.347h-9.59l-1.8 5.347h-5.684zM158.43 116.684v6.992h6.16c1.226 0 2.144-.14 2.754-.426 1.086-.492 1.625-1.469 1.625-2.93 0-1.578-.524-2.636-1.57-3.18-.59-.304-1.473-.456-2.649-.456zm7.449-4.52c1.824.035 3.226.258 4.203.668a6.599 6.599 0 0 1 2.508 1.82 8.04 8.04 0 0 1 1.34 2.188c.332.8.496 1.715.496 2.738 0 1.238-.313 2.453-.938 3.656-.62 1.188-1.652 2.032-3.09 2.524 1.204.484 2.051 1.172 2.543 2.066.508.883.762 2.239.762 4.063v1.746c0 1.191.047 1.996.14 2.422.141.668.47 1.164.989 1.48v.653h-5.984a16.755 16.755 0 0 1-.356-1.395 12.832 12.832 0 0 1-.23-2.242l-.035-2.418c-.024-1.66-.329-2.766-.918-3.32-.575-.551-1.664-.829-3.266-.829h-5.613v10.204h-5.317v-26.024zM196.176 116.77h-13.774v5.527h12.645v4.52h-12.645v6.695h14.41v4.675H177.09v-26.023h19.086zM202.816 130.156c.164 1.188.489 2.078.973 2.664.883 1.075 2.395 1.61 4.54 1.61 1.28 0 2.323-.14 3.124-.426 1.516-.54 2.277-1.547 2.277-3.02 0-.859-.378-1.523-1.132-1.996-.75-.457-1.934-.863-3.547-1.215l-2.754-.62c-2.707-.61-4.582-1.278-5.617-1.993-1.754-1.203-2.63-3.082-2.63-5.633 0-2.332.848-4.27 2.544-5.812 1.695-1.54 4.183-2.313 7.469-2.313 2.742 0 5.078.73 7.007 2.192 1.946 1.445 2.961 3.554 3.055 6.32h-5.227c-.093-1.566-.777-2.68-2.046-3.336-.848-.437-1.903-.656-3.16-.656-1.403 0-2.52.285-3.356.848-.836.566-1.254 1.355-1.254 2.367 0 .93.414 1.625 1.234 2.086.532.304 1.66.664 3.391 1.074l4.484 1.078c1.97.473 3.45 1.102 4.454 1.89 1.55 1.223 2.328 2.997 2.328 5.313 0 2.379-.91 4.356-2.735 5.934-1.812 1.566-4.379 2.347-7.699 2.347-3.39 0-6.059-.77-8-2.312-1.941-1.555-2.914-3.684-2.914-6.39zM221.66 115.305v-3.14h11.567v3.14h-3.903v9.96h-3.816v-9.96zm18.168-3.14 2.387 7.538 2.347-7.539H250v13.102h-3.477v-9.5l-2.843 9.5h-2.97l-2.839-9.5v9.5h-3.48v-13.102zm0 0"/></g><path fill="gold" d="M5.191 128.707c.164 1.191.489 2.078.973 2.668.883 1.07 2.395 1.605 4.535 1.605 1.285 0 2.324-.14 3.125-.421 1.52-.543 2.278-1.547 2.278-3.02 0-.86-.375-1.523-1.13-1.996-.753-.457-1.937-.863-3.546-1.219l-2.758-.617c-2.707-.613-4.578-1.277-5.613-1.996-1.754-1.2-2.633-3.078-2.633-5.633 0-2.328.848-4.266 2.543-5.808 1.695-1.543 4.187-2.313 7.469-2.313 2.746 0 5.082.73 7.011 2.188 1.942 1.449 2.961 3.558 3.055 6.324h-5.227c-.093-1.567-.777-2.68-2.046-3.34-.848-.434-1.903-.652-3.16-.652-1.403 0-2.52.28-3.356.847-.836.567-1.254 1.356-1.254 2.367 0 .93.41 1.625 1.234 2.082.532.309 1.66.665 3.391 1.079l4.484 1.078c1.965.468 3.45 1.097 4.45 1.886 1.554 1.227 2.332 2.996 2.332 5.317 0 2.379-.914 4.355-2.739 5.933-1.812 1.567-4.379 2.348-7.695 2.348-3.39 0-6.059-.77-8-2.312C.973 133.547 0 131.418 0 128.707zM23.203 110.715h5.527v16c0 1.789.211 3.094.637 3.918.66 1.46 2.094 2.191 4.309 2.191 2.199 0 3.629-.73 4.289-2.191.426-.824.637-2.13.637-3.918v-16h5.527v16c0 2.765-.43 4.918-1.29 6.46-1.6 2.825-4.655 4.24-9.163 4.24s-7.57-1.415-9.184-4.24c-.86-1.542-1.289-3.695-1.289-6.46zM58.965 128.707c.164 1.191.488 2.078.969 2.668.882 1.07 2.398 1.605 4.539 1.605 1.285 0 2.324-.14 3.125-.421 1.52-.543 2.277-1.547 2.277-3.02 0-.86-.375-1.523-1.129-1.996-.754-.457-1.937-.863-3.547-1.219l-2.758-.617c-2.707-.613-4.578-1.277-5.613-1.996-1.754-1.2-2.633-3.078-2.633-5.633 0-2.328.848-4.266 2.543-5.808 1.696-1.543 4.188-2.313 7.469-2.313 2.746 0 5.082.73 7.012 2.188 1.941 1.449 2.96 3.558 3.054 6.324h-5.226c-.094-1.567-.777-2.68-2.047-3.34-.848-.434-1.902-.652-3.164-.652-1.398 0-2.516.28-3.352.847-.836.567-1.254 1.356-1.254 2.367 0 .93.41 1.625 1.235 2.082.531.309 1.66.665 3.39 1.079l4.485 1.078c1.965.468 3.45 1.097 4.45 1.886 1.554 1.227 2.331 2.996 2.331 5.317 0 2.379-.914 4.355-2.738 5.933-1.813 1.567-4.38 2.348-7.7 2.348-3.386 0-6.054-.77-7.996-2.312-1.94-1.555-2.914-3.684-2.914-6.395zM88.438 132.86c.624 0 1.222-.079 1.8-.231.317-.082.723-.23 1.219-.441l-2.633-2.508 2.809-2.93 2.629 2.508c.414-.848.703-1.59.867-2.227.258-.953.387-2.066.387-3.336 0-2.922-.598-5.175-1.801-6.765-1.188-1.598-2.93-2.399-5.227-2.399-2.152 0-3.87.766-5.156 2.293-1.281 1.531-1.922 3.82-1.922 6.871 0 3.567.918 6.121 2.754 7.664 1.188 1 2.613 1.5 4.273 1.5zm12.519-9.555c0 2.32-.285 4.261-.848 5.828-.46 1.496-1.136 2.738-2.03 3.726l3 2.805-2.84 2.969-3.145-2.969c-.953.578-1.778.984-2.473 1.219-1.164.39-2.558.586-4.183.586-3.391 0-6.192-1.016-8.407-3.04-2.683-2.437-4.023-6.015-4.023-10.734 0-4.757 1.375-8.351 4.129-10.789 2.25-1.988 5.047-2.984 8.386-2.984 3.368 0 6.196 1.055 8.477 3.16 2.637 2.438 3.957 5.844 3.957 10.223zM102.941 110.715h5.528v16c0 1.789.21 3.094.636 3.918.657 1.46 2.094 2.191 4.31 2.191 2.198 0 3.628-.73 4.288-2.191.422-.824.637-2.13.637-3.918v-16h5.527v16c0 2.765-.43 4.918-1.289 6.46-1.601 2.825-4.656 4.24-9.164 4.24-4.512 0-7.57-1.415-9.184-4.24-.859-1.542-1.289-3.695-1.289-6.46zM133.996 126.906h6.606l-3.25-10.238zm.336-16.191h6.145l9.218 26.027h-5.898l-1.676-5.347h-9.59l-1.8 5.347h-5.688zM156.258 115.238v6.992h6.164c1.223 0 2.14-.144 2.754-.425 1.082-.496 1.625-1.473 1.625-2.93 0-1.578-.524-2.637-1.57-3.18-.59-.304-1.473-.457-2.653-.457zm7.453-4.523c1.824.035 3.223.262 4.203.672a6.555 6.555 0 0 1 2.504 1.82c.566.656 1.016 1.387 1.344 2.188s.496 1.714.496 2.738c0 1.234-.313 2.453-.938 3.656-.625 1.188-1.652 2.027-3.09 2.523 1.2.481 2.047 1.172 2.543 2.067.504.883.758 2.234.758 4.058v1.75c0 1.188.047 1.997.14 2.418.145.672.474 1.168.993 1.485v.652h-5.988a18.614 18.614 0 0 1-.352-1.394 12.87 12.87 0 0 1-.23-2.243l-.035-2.417c-.024-1.66-.329-2.766-.918-3.32-.578-.555-1.664-.833-3.266-.833h-5.617v10.207h-5.313v-26.027zM194.008 115.324h-13.774v5.528h12.641v4.52h-12.64v6.69h14.406v4.68h-19.723v-26.027h19.09zM200.648 128.707c.165 1.191.489 2.078.97 2.668.882 1.07 2.398 1.605 4.538 1.605 1.285 0 2.324-.14 3.125-.421 1.52-.543 2.278-1.547 2.278-3.02 0-.86-.375-1.523-1.13-1.996-.753-.457-1.937-.863-3.55-1.219l-2.754-.617c-2.707-.613-4.578-1.277-5.613-1.996-1.754-1.2-2.633-3.078-2.633-5.633 0-2.328.848-4.266 2.543-5.808s4.187-2.313 7.469-2.313c2.742 0 5.082.73 7.011 2.188 1.942 1.449 2.961 3.558 3.055 6.324h-5.227c-.093-1.567-.777-2.68-2.046-3.34-.848-.434-1.903-.652-3.164-.652-1.399 0-2.52.28-3.352.847-.836.567-1.254 1.356-1.254 2.367 0 .93.41 1.625 1.234 2.082.532.309 1.66.665 3.391 1.079l4.484 1.078c1.965.468 3.45 1.097 4.45 1.886 1.554 1.227 2.332 2.996 2.332 5.317 0 2.379-.914 4.355-2.739 5.933-1.812 1.567-4.379 2.348-7.699 2.348-3.39 0-6.054-.77-7.996-2.312-1.945-1.555-2.914-3.684-2.914-6.395zM219.492 113.86v-3.145h11.563v3.144h-3.903v9.957h-3.812v-9.957zm18.168-3.145 2.383 7.539 2.348-7.54h5.441v13.102h-3.48v-9.5l-2.844 9.5h-2.965l-2.844-9.5v9.5h-3.476v-13.101zm0 0"/></svg>