<svg xmlns="http://www.w3.org/2000/svg" xmlns:xlink="http://www.w3.org/1999/xlink" width="250" height="250"><linearGradient id="a"><stop offset="0" stop-color="#03b8ff"/><stop offset="1" stop-color="#fa52a0"/></linearGradient><linearGradient xlink:href="#a" id="b" x1="159.192" x2="239.042" y1="-9.985" y2="241.983" gradientTransform="scale(.56306 .5618)" gradientUnits="userSpaceOnUse"/><linearGradient xlink:href="#a" id="c" x1="215.519" x2="295.372" y1="-27.838" y2="224.132" gradientTransform="scale(.56306 .5618)" gradientUnits="userSpaceOnUse"/><path fill="url(#b)" d="M51.586 14.863 245.789 158.84l-48.027 77.09L3.555 90.816zm0 0"/><path fill="url(#c)" d="M245.79 158.84c-16.704 26.074-73.087 15.87-126.337-24.942-54.293-39.68-83.531-92.96-67.867-119.035 16.707-26.078 73.086-15.875 126.336 24.938 54.297 38.547 83.531 92.965 67.867 119.039zm0 0"/><path fill="#0e0f23" d="M197.762 234.797c-16.707 26.074-73.09 15.871-126.34-24.942s-83.527-92.964-66.82-120.171c16.703-26.075 73.085-15.871 126.335 24.941s82.485 94.094 66.825 120.172zm0 0"/><path fill="#0e0f23" d="m245.79 158.84-48.028 77.09c-16.707 26.074-73.09 14.738-126.34-24.942-10.438-7.937-19.836-15.87-29.234-24.941 7.308-1.133 16.707-5.668 26.105-17.004 16.703-19.273 25.059-23.809 32.367-22.676 7.309 0 15.66 7.938 29.235 27.211 13.574 19.27 32.367 24.938 43.851 14.734 1.047-1.132 2.09-1.132 3.133-2.265 9.398-7.938 12.531-11.336 30.281-47.613 4.176-9.07 18.793-23.809 38.63-17.008 5.222 14.738 5.222 27.21 0 37.414zm0 0"/><g fill="#fff"><path fill-rule="evenodd" d="M238.48 154.305c-14.617 22.672-65.777 11.336-114.851-26.075C73.512 90.816 44.277 43.203 58.895 20.531c14.617-22.676 65.777-11.34 114.851 26.074 49.074 37.41 78.309 85.024 64.734 107.7zm-45.937-34.012c-7.313 11.336-32.371 5.668-57.43-12.469-24.011-18.14-38.633-41.945-31.32-53.285 7.309-11.336 32.367-5.668 57.426 12.473 24.011 18.136 38.633 41.945 31.324 53.281zm0 0"/><path d="M47.41 40.938c0-1.137-1.047-2.27-2.09-1.137-1.043 1.136-2.09 1.136-2.09 2.27 1.047 3.398 2.09 5.667 2.09 7.933 0 1.137 1.043 2.27 2.09 1.137 1.043 0 2.086-1.137 1.043-2.27 0-2.266 0-4.535-1.043-7.934zM52.629 59.074c0-1.133-1.043-2.265-2.086-1.133-1.047 1.133-1.047 1.133-1.047 2.266 11.488 28.344 35.5 58.953 66.824 81.625 1.043 1.137 2.09 0 3.133 0 1.043-1.133 0-2.266 0-3.398-32.367-22.676-55.34-52.153-66.824-79.36zM178.969 170.176c-1.047 0-2.09 0-2.09 1.133 0 1.132 0 2.27 1.043 2.27 3.133 1.132 7.308 2.265 10.441 3.398 1.047 0 2.09 0 2.09-1.133s0-2.266-1.043-2.266c-3.133-1.137-7.308-2.27-10.441-3.402zM197.762 174.71c-1.043 0-2.09 1.134-2.09 2.267 0 1.132 1.047 2.27 2.09 2.27 8.351 1.132 17.75 2.265 25.058 1.132 1.043 0 2.09-1.133 2.09-2.27 0-1.132-1.047-2.265-2.09-2.265-8.351 1.133-16.707 0-25.058-1.133zm0 0"/></g></svg>