<svg xmlns="http://www.w3.org/2000/svg" width="250" height="250"><path fill="#f7941d" d="M247.563 16.242c-34.961.246-113.583-1.46-115.942-.246L94.133 63.027 48.105 1.937S47.73-.074 44.13 0c-.992 0-1.957.43-2.75 1.227L1.375 55.03C.473 56.363.015 58.137.109 59.938c.422 3.68 3.266 4.906 3.266 4.906l36.05.246s-.843 67.332.184 70.055c1.028 2.722 88.786 112.12 88.786 112.12.94 1.298 2.132 2.22 3.437 2.66 3.668.723 4.531-4.366 4.531-4.366l.367-95.508s78.391-86.055 110.833-121.922c.914-1.055 2.05.23 2.355-5.817.164-3.64-.523-6.082-2.356-6.07zm-208.395 36.2-21.852.16 22.102-29.563zm10.68-29.317 36.484 48.637-36.41 46zm50.617 168.14 26.812-30.054-.183 66.426zm-7.863-9.41-40.727-49.25 83.762-103.949 96.66-.441zm0 0"/></svg>