<svg xmlns="http://www.w3.org/2000/svg" width="250" height="250"><path fill="#3ce35f" d="M125 0c69.035 0 125 55.965 125 125s-55.965 125-125 125S0 194.035 0 125 55.965 0 125 0zm0 0"/><path fill="#fff" fill-rule="evenodd" d="M143.484 74.195c2.614 8.371 10.446 14.473 19.668 14.473 11.348 0 20.598-9.242 20.598-20.582 0-11.344-9.25-20.586-20.598-20.586-9.648 0-17.777 6.68-19.996 15.648h-41.719c-18.683 0-33.902 15.211-33.902 33.88 0 18.671 15.219 33.878 33.903 33.878h3.765c2.34 8.797 10.383 15.305 19.906 15.305 9.528 0 17.57-6.508 19.91-15.305h4.465c12.602 0 22.844 10.239 22.844 22.832s-10.242 22.832-22.844 22.832H107.61c-2.761-8.12-10.468-13.988-19.511-13.988-11.348 0-20.598 9.242-20.598 20.586 0 11.34 9.25 20.582 20.598 20.582 9.82 0 18.07-6.922 20.113-16.137h41.273c18.684 0 33.899-15.207 33.899-33.875 0-18.672-15.215-33.879-33.899-33.879h-4.597c-2.504-8.55-10.43-14.82-19.778-14.82-9.343 0-17.27 6.27-19.773 14.82h-3.898c-12.602 0-22.848-10.238-22.848-22.832s10.246-22.832 22.847-22.832zm19.668-15.613c-5.27 0-9.543 4.273-9.543 9.54s4.274 9.538 9.543 9.538c5.27 0 9.543-4.273 9.543-9.539s-4.273-9.539-9.543-9.539zm-47.586 67.078c0-5.265 4.278-9.535 9.543-9.535 5.27 0 9.547 4.27 9.547 9.535s-4.277 9.54-9.547 9.54c-5.265 0-9.543-4.274-9.543-9.54zm-37.011 57.543c0-5.266 4.273-9.539 9.543-9.539s9.543 4.274 9.543 9.54-4.274 9.534-9.543 9.534c-5.27 0-9.543-4.27-9.543-9.535zm0 0"/></svg>