<svg xmlns="http://www.w3.org/2000/svg" viewBox="0 0 1000 1000" fill="#000000"><path d="M500.496 995.003c275.935 0 494.507-224.506 494.507-495.496C995.003 226.54 773.464 5 500.496 5 223.572 5 5 229.506 5 499.507c0 276.924 224.506 495.496 495.496 495.496zm-171.1-356.045c-4.944-27.692 3.957-53.407 16.814-77.143 8.901-15.824 20.77-17.802 35.604-6.923 1.978.989 4.946 4.945 3.957 7.912-2.968 10.88 4.945 10.88 10.879 14.835 23.736 9.89 23.736 9.89 17.802 33.627 4.945 0 8.901-.99 13.846-1.978 0 7.912.99 15.824 0 21.758 0 8.901 3.956 12.857 10.88 10.88 46.483-11.869 88.022-30.66 111.758-75.166 7.912-13.846 4.945-17.802-8.901-25.714-22.748-11.868-46.484-24.726-68.242-38.572-20.77-13.846-35.605-32.637-43.517-56.374-7.912-22.747-15.824-46.483-20.77-70.22-3.955-20.769 3.957-38.571 22.748-52.417 15.824-9.89 30.66-23.737 48.462-32.638 18.791-11.868 38.571-18.791 58.352-28.681 6.923-3.956 14.835-11.868 19.78-18.792 13.846-21.758 25.714-43.516 39.56-65.275 6.924-13.846 18.792-21.758 32.638-26.703 9.89-3.956 18.791-1.978 28.681 5.934-9.89 5.934-17.802 9.89-25.714 14.835 0 .99.99.99.99.99 2.966 0 6.922-.99 13.845-1.979-4.945 3.956-7.912 5.934-10.879 7.912.99 0 .99.99.99.99 6.922-1.979 13.845-5.935 20.768-7.913 11.869-3.956 15.825.99 14.836 10.88 0 1.978-.99 3.956-.99 4.945 13.847 8.9 1.979 16.813 0 24.725-4.944 9.89-7.911 20.77-12.857 30.66-1.978 3.955-3.956 7.912-6.923 10.879-8.9 9.89-6.923 17.802 0 26.703 12.858 18.791 24.726 37.583 36.594 57.363 7.912 14.835 1.978 32.637-11.868 42.527-4.945 3.956-9.89 9.89-15.824 13.847-6.924 5.934-12.858 7.912-13.847-3.956-15.824 2.967-18.791.989-24.725-14.836-6.923-15.824-6.923-15.824-22.747-10.879h-6.923c.989-2.967 1.978-3.956 2.967-6.923-13.847-4.945-87.034 43.517-90 58.352 24.725-16.813 50.439-33.627 76.153-50.44.99.99 1.978 2.967 2.967 4.945-5.934 2.967-11.868 5.934-16.813 9.89-17.802 12.858-35.604 24.726-51.429 37.583-9.89 8.901-8.9 11.868 2.967 18.791 14.836 8.901 30.66 15.824 44.506 25.715 41.539 26.703 65.275 66.264 83.077 111.758 9.89 27.693 5.934 50.44-8.9 74.176 0 .99-.99 2.967-1.979 4.945 1.978 0 3.956 0 8.901-.989-3.956 5.934-6.923 10.88-11.868 18.792-.989-3.956-1.978-6.923-3.956-13.847-5.934 8.902-9.89 14.836-14.835 18.792-21.758 22.747-46.484 39.56-73.187 54.395-21.759 12.858-46.484 18.792-71.21 24.726-7.911.989-13.845 4.945-15.823 11.868-8.902 23.736-16.814 47.473-25.715 71.209-1.978 3.956-4.945 7.912-6.923 12.857 0-1.978-.989-2.967-.989-4.945-7.912 0-14.835 0-21.758.99-8.901 1.977-12.857-.99-15.825-9.891-2.967-6.923-7.912-12.857-10.879-19.78-1.978-10.88-5.934-21.759-4.945-32.638.99-12.857 5.934-25.714 8.901-37.582 3.956-9.89 2.967-18.792-5.934-24.726l-.989-.989c-18.791-25.714-36.593-52.417-41.538-83.077zm142.419-301.65c29.67-13.845 58.352-27.692 87.033-41.538-16.813-4.945-78.132 26.704-87.033 41.539zm10.879 330.332c25.714-3.956 46.484-14.836 64.286-32.638-.99 0-.99-.989-1.978-2.967zm6.923-329.342c0 .989.989 2.967 1.978 3.956 22.747-11.868 45.495-23.736 67.253-34.616-.989-1.978-1.978-2.967-2.967-4.945-21.758 11.868-44.506 23.737-66.264 35.605zm10.88 51.429c33.626-16.814 65.274-33.627 98.9-51.43-16.813-5.933-86.044 29.671-98.9 51.43zm11.867 278.902c.99 1.978.99 3.956 1.978 3.956 12.858-5.934 23.737-13.847 36.594-20.77l-3.956-3.956c-10.88 5.934-22.747 13.846-34.616 20.77zm3.956 47.472c19.78 4.945 61.32-19.78 70.22-40.55-22.747 13.847-46.483 26.704-70.22 40.55zm36.594 18.792c26.703-19.78 52.418-38.572 78.132-57.363-17.802 28.681-47.473 42.527-78.132 57.363z"></path></svg>