<svg xmlns="http://www.w3.org/2000/svg" width="250" height="250"><path fill="#efd96f" d="M0 0h250v250H0z"/><g fill="#333"><path d="M177.875 91.5c-28.5 0-52 22.875-73.25 41.875-6.125-5.375-13-12-18.25-18.25-.5-.625-1.25-.75-1.625-.5-.5.375-.625 1.125-.125 1.625 4.875 6 11.375 13.25 17.5 19.375-11.375 10.75-28.75 23.75-42.75 23.75-28.25 0-28.375-39.125-3.625-46.5 1.125-.25 1.125-1.625 0-1.25-32.375 8-30.625 53.625 4.25 53.625 16.625 0 31.875-11.125 47.25-24.25 16.625 15 37.625 27.25 64.625 27.25 68.5 0 66.5-76.75 6-76.75zm-6.5 70.875c-21.625-.125-42.625-9.625-61-24 20.875-18.125 42-38.875 66.875-38.875 48.5 0 49.75 63.25-5.875 62.875zm0 0"/><path d="M77.5 107.625c0 3.867-3.133 7-7 7s-7-3.133-7-7 3.133-7 7-7 7 3.133 7 7zm0 0"/></g></svg>