<svg xmlns="http://www.w3.org/2000/svg" width="250" height="250"><path fill="#fff" d="M250 125c0 69.035-55.965 125-125 125S0 194.035 0 125 55.965 0 125 0s125 55.965 125 125zm0 0"/><g fill="#2a5bdb"><path d="M116.797 76.953 87.109 62.5 58.4 78.32v49.805l26.757-9.57-.195-24.61zm0 0"/><path d="m185.352 42.578-16.602 5.86 6.055 18.75-49.61-25.586-29.882 16.406 68.554 33.203-19.14 7.031 6.054 17.383 52.93-18.945zM155.078 192.578l-68.36-33.008 19.141-7.226-6.054-17.383-52.93 18.945 18.36 54.102 16.6-5.664-6.054-18.946 49.414 25.586zm0 0"/><path d="m165.43 132.031.195 24.805-32.031 16.797 29.687 14.453 28.906-15.82v-49.61zm0 0"/></g></svg>