<svg xmlns="http://www.w3.org/2000/svg" width="250" height="250"><filter id="a" width="100%" height="100%" x="0%" y="0%"><feColorMatrix in="SourceGraphic" values="0 0 0 0 1 0 0 0 0 1 0 0 0 0 1 0 0 0 1 0"/></filter><mask id="c"><g filter="url(#a)"><path fill-opacity=".5" d="M0 0h250v250H0z"/></g></mask><clipPath id="b"><path d="M0 0h250v250H0z"/></clipPath><path fill="#6e97ff" d="M125 250c69.035 0 125-55.965 125-125S194.035 0 125 0 0 55.965 0 125s55.965 125 125 125zm0 0"/><g fill="#1e1a31"><path d="M149.168 154.523c0-4.066.797-7.214 2.398-9.449 1.602-2.234 3.868-3.351 6.801-3.351 2.168 0 3.918.601 5.25 1.8 1.332 1.2 2.2 2.899 2.598 5.102.336-2.602 1.168-4.602 2.5-6 1.336-1.434 3.203-2.152 5.601-2.152 3.067 0 5.485 1.168 7.25 3.5 1.735 2.336 2.602 5.632 2.602 9.902v13.95h-35zm14.398 5.801v-6c0-1.601-.382-2.851-1.148-3.75-.77-.902-1.8-1.351-3.102-1.351-1.3 0-2.332.449-3.101 1.351-.766.899-1.149 2.149-1.149 3.75v6zm14.649 0v-6.5c0-1.8-.383-3.183-1.149-4.152-.765-1-1.832-1.5-3.199-1.5-1.433 0-2.535.5-3.3 1.5-.801 1-1.2 2.387-1.2 4.152v6.5zM149.168 139.84v-27.7h6.45v10.102h28.55v7.5h-28.55v10.098zM166.668 111.852c-3.566 0-6.684-.684-9.352-2.051-2.699-1.399-4.78-3.383-6.25-5.95-1.464-2.601-2.199-5.652-2.199-9.152 0-2.73.531-5.183 1.598-7.347 1.07-2.168 2.57-3.918 4.5-5.25 1.933-1.336 4.168-2.133 6.703-2.403v7.5c-2 .434-3.566 1.352-4.703 2.75-1.164 1.367-1.75 3.086-1.75 5.153 0 2.8 1.05 5.015 3.152 6.648 2.098 1.633 4.867 2.45 8.301 2.45 3.398 0 6.164-.817 8.297-2.45 2.101-1.633 3.152-3.848 3.152-6.648 0-2.067-.566-3.786-1.699-5.153-1.168-1.398-2.75-2.316-4.75-2.75v-7.5c2.531.27 4.766 1.067 6.7 2.403 1.933 1.332 3.433 3.082 4.5 5.25 1.066 2.164 1.597 4.617 1.597 7.347 0 3.5-.73 6.551-2.2 9.153-1.464 2.566-3.53 4.55-6.199 5.949-2.699 1.367-5.832 2.05-9.398 2.05zm0 0"/></g><g clip-path="url(#b)" mask="url(#c)"><path fill="#1e1a31" fill-rule="evenodd" d="m67.852 173.773-10.403-7.421 65.43-90.91 10.406 7.421zm0 0"/></g><path fill="#1e1a31" fill-rule="evenodd" d="M101.559 118.625h3.492c16.078 0 29.117 12.992 29.117 29.02 0 16.027-13.04 29.023-29.117 29.023H62.23c-3.536 0-6.399-2.856-6.399-6.379 0-3.52 2.863-6.375 6.398-6.375h42.82c9.016 0 16.325-7.281 16.325-16.27 0-8.984-7.309-16.269-16.324-16.269H84.949c-16.078 0-29.117-12.992-29.117-29.02 0-16.027 13.04-29.023 29.117-29.023h42.82c3.532 0 6.399 2.856 6.399 6.375 0 3.523-2.867 6.379-6.398 6.379H84.95c-9.016 0-16.325 7.281-16.325 16.27 0 8.984 7.309 16.269 16.324 16.269h16.606zm0 0"/></svg>