<svg xmlns="http://www.w3.org/2000/svg" width="250" height="250"><g fill-rule="evenodd"><path fill="#1e1a31" d="M249.973 125.227c0 68.84-55.809 124.644-124.649 124.644S.68 194.066.68 125.227C.68 56.387 56.484.578 125.324.578s124.649 55.809 124.649 124.649zm0 0"/><g fill="#fff"><path d="M105.43 117.309a6.116 6.116 0 1 1 0 12.23H89.559c-15.375 0-27.836-12.46-27.836-27.836 0-15.371 12.46-27.836 27.836-27.836h40.933a6.116 6.116 0 1 1 0 12.23H89.56c-8.621 0-15.606 6.989-15.606 15.606 0 8.621 6.984 15.606 15.606 15.606zm0 0"/><path d="M92.898 129.54a6.115 6.115 0 0 1 0-12.231h15.875c15.372 0 27.836 12.464 27.836 27.836 0 15.375-12.464 27.835-27.836 27.835H67.836a6.115 6.115 0 0 1 0-12.23h40.937c8.618 0 15.606-6.984 15.606-15.605 0-8.618-6.988-15.606-15.606-15.606zm0 0"/><path fill-opacity=".5" d="m72.668 170.516-9.941-7.125 62.527-87.258 9.941 7.12zm0 0"/></g><path d="M146.66 161.875h19.55c2.731 0 4.786-.531 6.165-1.59 1.383-1.058 2.074-2.726 2.074-5.008s-.691-3.957-2.074-5.03c-1.379-1.079-3.434-1.614-6.164-1.614h-19.55v-7.227h19.167c4.817 0 8.492 1.18 11.027 3.543 2.536 2.36 3.805 5.801 3.805 10.328s-1.27 7.961-3.805 10.305c-2.535 2.344-6.21 3.516-11.027 3.516H146.66zm22.73-31.734c1.669-.13 3.012-.813 4.024-2.047 1.008-1.239 1.516-2.883 1.516-4.938 0-1.703-.364-3.09-1.086-4.168-.719-1.074-1.723-1.613-3.008-1.613-.899 0-1.613.297-2.145.895-.527.593-.945 1.425-1.25 2.503-.304 1.075-.683 2.735-1.132 4.985-.418 2.215-.954 4.074-1.614 5.586a8.842 8.842 0 0 1-2.937 3.683c-1.301.946-3.028 1.422-5.176 1.422-1.96 0-3.71-.539-5.25-1.613-1.543-1.078-2.754-2.57-3.637-4.48-.882-1.91-1.324-4.07-1.324-6.477 0-2.473.457-4.695 1.371-6.672.918-1.973 2.176-3.531 3.781-4.672 1.606-1.137 3.422-1.722 5.442-1.758v7.082c-1.445.16-2.606.77-3.488 1.829-.887 1.058-1.329 2.457-1.329 4.19 0 1.606.34 2.892 1.012 3.852.676.965 1.64 1.446 2.89 1.446.9 0 1.598-.29 2.095-.867.5-.579.902-1.395 1.207-2.457.304-1.059.664-2.696 1.082-4.91.418-2.25.937-4.141 1.566-5.684.625-1.543 1.57-2.785 2.84-3.73 1.27-.95 2.96-1.423 5.082-1.423 2.055 0 3.89.563 5.512 1.684 1.62 1.125 2.898 2.691 3.828 4.695.933 2.008 1.398 4.262 1.398 6.77 0 2.695-.488 5.094-1.469 7.2-.98 2.1-2.336 3.745-4.07 4.933s-3.676 1.8-5.828 1.832zm-22.73-24.371V94.066c0-3.37.715-6.347 2.145-8.93 1.425-2.585 3.418-4.577 5.968-5.972 2.555-1.398 5.47-2.098 8.743-2.098s6.187.7 8.742 2.098c2.55 1.395 4.543 3.387 5.969 5.973 1.43 2.582 2.144 5.558 2.144 8.93v11.703zm27.692-11.704c0-3.046-.989-5.418-2.961-7.101-1.977-1.688-4.602-2.528-7.875-2.528s-5.899.84-7.875 2.528c-1.973 1.683-2.961 4.055-2.961 7.101v4.48h21.672zm0 0"/><path fill="#fff" d="M146.66 161.875h19.55c2.731 0 4.786-.531 6.165-1.59 1.383-1.058 2.074-2.726 2.074-5.008s-.691-3.957-2.074-5.03c-1.379-1.079-3.434-1.614-6.164-1.614h-19.55v-7.227h19.167c4.817 0 8.492 1.18 11.027 3.543 2.536 2.36 3.805 5.801 3.805 10.328s-1.27 7.961-3.805 10.305c-2.535 2.344-6.21 3.516-11.027 3.516H146.66zm22.73-31.734c1.669-.13 3.012-.813 4.024-2.047 1.008-1.239 1.516-2.883 1.516-4.938 0-1.703-.364-3.09-1.086-4.168-.719-1.074-1.723-1.613-3.008-1.613-.899 0-1.613.297-2.145.895-.527.593-.945 1.425-1.25 2.503-.304 1.075-.683 2.735-1.132 4.985-.418 2.215-.954 4.074-1.614 5.586a8.842 8.842 0 0 1-2.937 3.683c-1.301.946-3.028 1.422-5.176 1.422-1.96 0-3.71-.539-5.25-1.613-1.543-1.078-2.754-2.57-3.637-4.48-.882-1.91-1.324-4.07-1.324-6.477 0-2.473.457-4.695 1.371-6.672.918-1.973 2.176-3.531 3.781-4.672 1.606-1.137 3.422-1.722 5.442-1.758v7.082c-1.445.16-2.606.77-3.488 1.829-.887 1.058-1.329 2.457-1.329 4.19 0 1.606.34 2.892 1.012 3.852.676.965 1.64 1.446 2.89 1.446.9 0 1.598-.29 2.095-.867.5-.579.902-1.395 1.207-2.457.304-1.059.664-2.696 1.082-4.91.418-2.25.937-4.141 1.566-5.684.625-1.543 1.57-2.785 2.84-3.73 1.27-.95 2.96-1.423 5.082-1.423 2.055 0 3.89.563 5.512 1.684 1.62 1.125 2.898 2.691 3.828 4.695.933 2.008 1.398 4.262 1.398 6.77 0 2.695-.488 5.094-1.469 7.2-.98 2.1-2.336 3.745-4.07 4.933s-3.676 1.8-5.828 1.832zm-22.73-24.371V94.066c0-3.37.715-6.347 2.145-8.93 1.425-2.585 3.418-4.577 5.968-5.972 2.555-1.398 5.47-2.098 8.743-2.098s6.187.7 8.742 2.098c2.55 1.395 4.543 3.387 5.969 5.973 1.43 2.582 2.144 5.558 2.144 8.93v11.703zm27.692-11.704c0-3.046-.989-5.418-2.961-7.101-1.977-1.688-4.602-2.528-7.875-2.528s-5.899.84-7.875 2.528c-1.973 1.683-2.961 4.055-2.961 7.101v4.48h21.672zm0 0"/></g></svg>