<svg xmlns="http://www.w3.org/2000/svg" width="250" height="250"><filter id="a" width="100%" height="100%" x="0%" y="0%"><feColorMatrix in="SourceGraphic" values="0 0 0 0 1 0 0 0 0 1 0 0 0 0 1 0 0 0 1 0"/></filter><mask id="c"><g filter="url(#a)"><path fill-opacity=".5" d="M0 0h250v250H0z"/></g></mask><clipPath id="b"><path d="M0 0h250v250H0z"/></clipPath><path fill="#6e97ff" d="M125 250c69.035 0 125-55.965 125-125S194.035 0 125 0 0 55.965 0 125s55.965 125 125 125zm0 0"/><g fill="#1e1a31"><path d="M149.168 168.363v-23.5h6.45v16h7.847v-13h6.152v13h8.098v-16.55h6.453v24.05zM149.168 142.285v-27.703h6.45v10.102h28.55v7.5h-28.55v10.101zM149.168 110.5V103h14.047V89.102h-14.047v-7.5h35v7.5h-14.453V103h14.453v7.5zm0 0"/></g><g clip-path="url(#b)" mask="url(#c)"><path fill="#1e1a31" fill-rule="evenodd" d="m67.852 173.773-10.403-7.421 65.43-90.91 10.406 7.421zm0 0"/></g><path fill="#1e1a31" fill-rule="evenodd" d="M101.559 118.625h3.492c16.078 0 29.117 12.992 29.117 29.02 0 16.027-13.04 29.023-29.117 29.023H62.23c-3.536 0-6.399-2.856-6.399-6.379 0-3.52 2.863-6.375 6.398-6.375h42.82c9.016 0 16.325-7.281 16.325-16.27 0-8.984-7.309-16.269-16.324-16.269H84.949c-16.078 0-29.117-12.992-29.117-29.02 0-16.027 13.04-29.023 29.117-29.023h42.82c3.532 0 6.399 2.856 6.399 6.375 0 3.523-2.867 6.379-6.398 6.379H84.95c-9.016 0-16.325 7.281-16.325 16.27 0 8.984 7.309 16.269 16.324 16.269h16.606zm0 0"/></svg>