<svg xmlns="http://www.w3.org/2000/svg" width="250" height="250"><g fill-rule="evenodd"><path fill="#1e1a31" d="M250 125c0 69.035-55.965 125-125 125S0 194.035 0 125 55.965 0 125 0s125 55.965 125 125zm0 0"/><g fill="#fff"><path d="M131.2 119.047a6.142 6.142 0 0 1 0 12.281h-15.942c-15.438 0-27.957-12.516-27.957-27.95 0-15.437 12.52-27.948 27.957-27.948h41.11a6.137 6.137 0 0 1 6.14 6.14 6.136 6.136 0 0 1-6.14 6.137h-41.11c-8.656 0-15.672 7.016-15.672 15.672 0 8.652 7.016 15.668 15.672 15.668zm0 0"/><path d="M118.613 131.328a6.142 6.142 0 0 1 0-12.281h15.942c15.437 0 27.953 12.516 27.953 27.95 0 15.437-12.516 27.948-27.953 27.948h-41.11a6.142 6.142 0 0 1-6.144-6.14c0-3.39 2.75-6.14 6.144-6.14h41.11c8.656 0 15.672-7.017 15.672-15.669s-7.016-15.668-15.672-15.668zm0 0"/><path fill-opacity=".5" d="m98.297 172.469-9.984-7.153L151.108 77.7l9.98 7.153zm0 0"/></g></g></svg>