<svg xmlns="http://www.w3.org/2000/svg" width="250" height="250"><path fill="#6e4aff" d="M0 23.438C0 10.492 10.492 0 23.438 0h203.125C239.507 0 250 10.492 250 23.438v203.125C250 239.507 239.508 250 226.562 250H23.438C10.492 250 0 239.508 0 226.562zm0 0"/><g fill="#fff"><path d="M85.578 209.555h14.762l-7.477-18.305zM206.133 203.82c0-9.797-4.965-14.117-14.504-14.117h-8.508v29.649h8.895c9.347 0 14.117-4.188 14.117-13.985zm0 0"/><path fill-rule="evenodd" d="M23.438 166.016c-8.63 0-15.625 6.996-15.625 15.625v44.922c0 8.628 6.996 15.625 15.625 15.625h203.125c8.628 0 15.625-6.997 15.625-15.625V181.64c0-8.63-6.997-15.625-15.625-15.625zm49.53 15.57v8.184H58.146v37.77h-9.54v-37.77h-14.18v-8.184zm44.516 45.953h-9.734l-4.188-10.184H82.484l-3.996 10.184h-9.86l19.337-45.953h9.797zm24.352 1.094c13.21 0 20.687-6.895 20.687-23.2v-23.847h-9.859v23.523c0 10.57-3.226 14.438-10.703 14.438-7.473 0-11.02-3.996-11.02-14.438v-23.523h-9.796v23.848c0 16.304 6.96 23.199 20.69 23.199zm73.77-22.75c0 14.89-9.024 21.656-23.137 21.656h-18.692v-45.953h18.239c14.246 0 23.59 6.832 23.59 21.848zm0 0"/><path d="M74.219 28.32h34.18c0 18.875-15.305 34.18-34.18 34.18zM142.578 28.32c-18.875 0-34.18 15.305-34.18 34.18v75.195h34.18V62.5h34.18V28.32zm0 0"/></g></svg>