<svg xmlns="http://www.w3.org/2000/svg" width="250" height="250"><path fill="#11975f" d="M0 23.438C0 10.492 10.492 0 23.438 0h203.125C239.507 0 250 10.492 250 23.438v203.125C250 239.507 239.508 250 226.562 250H23.438C10.492 250 0 239.508 0 226.562zm0 0"/><g fill="#fff"><path d="M153.414 209.555h-14.762l7.286-18.305zM210.176 203.82c0-9.797-4.965-14.117-14.504-14.117h-8.504v29.649h8.894c9.344 0 14.114-4.188 14.114-13.985zm0 0"/><path fill-rule="evenodd" d="M23.438 166.016c-8.63 0-15.625 6.996-15.625 15.625v44.922c0 8.628 6.996 15.625 15.625 15.625h203.125c8.628 0 15.625-6.997 15.625-15.625V181.64c0-8.63-6.997-15.625-15.625-15.625zm84.812 43.347h10.117c-1.48 11.989-8.312 19.27-23.203 19.27-14.113 0-22.621-7.344-22.621-22.492V203.5c0-14.633 9.152-22.883 23.266-22.883 12.441 0 20.562 5.996 22.3 18.113h-9.988c-.84-6.125-4.707-9.667-12.312-9.667-8.7 0-13.598 4.769-13.598 14.824v1.933c0 9.282 4.77 14.051 13.469 14.051 8.187-.004 11.73-3.805 12.57-10.508zm-40.3-27.777v8.184H53.124v37.77h-9.54v-37.77H29.407v-8.184zm92.874 45.953h9.73l-19.718-45.953h-9.797l-19.336 45.953h9.86l3.996-10.184h21.074zm58.824-21.656c0 14.89-9.023 21.656-23.136 21.656H177.82v-45.953h18.243c14.242 0 23.59 6.832 23.59 21.848zm0 0"/><path d="M74.219 28.32h34.18c0 18.875-15.305 34.18-34.18 34.18zM142.578 28.32c-18.875 0-34.18 15.305-34.18 34.18v75.195h34.18V62.5h34.18V28.32zm0 0"/></g></svg>