<svg xmlns="http://www.w3.org/2000/svg" width="250" height="250"><linearGradient id="a" x1="87.197" x2="162.803" y1="21.143" y2="228.857" gradientUnits="userSpaceOnUse"><stop offset="0" stop-color="#a440f2"/><stop offset=".13" stop-color="#9f47ef"/><stop offset=".31" stop-color="#915ae7"/><stop offset=".53" stop-color="#7a7ad9"/><stop offset=".77" stop-color="#5ba5c7"/><stop offset="1" stop-color="#38d6b2"/></linearGradient><path fill="#1d1d3c" d="M250 125c0 69.035-55.965 125-125 125S0 194.035 0 125 55.965 0 125 0s125 55.965 125 125zm0 0"/><path fill="url(#a)" d="M235.492 125c0 61.023-49.469 110.492-110.492 110.492S14.508 186.023 14.508 125 63.977 14.508 125 14.508 235.492 63.977 235.492 125zm0 0"/><path fill="#1d1d3c" d="M227.656 125c0 56.695-45.96 102.656-102.656 102.656S22.344 181.696 22.344 125 68.304 22.344 125 22.344 227.656 68.304 227.656 125zm0 0"/><path fill="#1d1d3c" d="M177.133 57.129H55.488v69.492h34.754v69.512h69.516V126.62h34.754V57.13zm0 0"/><path fill="#fff" d="M156.902 76.797H77.145V92.75h31.902v63.809h31.906V92.75h31.902V76.797zm0 0"/><path fill="#38d6b2" d="M107.621 176.605h34.758v4.293H107.62zm0 0"/></svg>