<?xml version="1.0" encoding="UTF-8"?>
<svg id="_レイヤー_2" data-name="レイヤー 2" xmlns="http://www.w3.org/2000/svg" viewBox="0 0 73.02 72.98">
  <defs>
    <style>
      .cls-1 {
        fill: #a40b5d;
      }
    </style>
  </defs>
  <g id="_レイヤー_1-2" data-name="レイヤー 1">
    <path class="cls-1" d="M20.93,35.89c-10.27,1.32-18.54-2.28-18.54-2.28l8.97,8.1s.02,0,.04,0l6.07,5.46s-1.08-3.59,.81-5.51c4.82-.55,11.56-2.34,18.23-7.44v-3.8s-5.85,4.21-15.58,5.46Zm-3.91-4.28l3.82,3.5s.26-3.34,3.26-4.13c0,0,0,0,0,0,3.63-.77,8.17-2.41,12.42-5.84v-3.36s-4.12,4.33-11.13,5.23c-7.4,.95-14.61-1.12-14.61-1.12l6.21,5.72s.01,0,.03,0Zm15.51,20.03c-2.1,2.1-2.1,5.51,0,7.62,.53,.53,1.15,.93,1.81,1.19v8.21h4v-8.21c.66-.26,1.28-.66,1.81-1.19,2.1-2.1,2.1-5.51,0-7.62-2.1-2.1-5.51-2.1-7.62,0Zm-3.92-29.48s.01,0,.02,0c2.53-.7,5.44-1.97,7.89-4.3v-3.31s-3.03,3.48-8.13,4.14c-5.39,.7-11.12-.28-11.12-.28l9.09,7.94s.41-3.59,2.26-4.18Zm3.79-7.62s0,0,0,0c1.42-.7,2.93-1.77,4.11-3.41v-3.88s-1.93,2.19-5.84,3.78c-3.3,1.34-8.5,.75-8.5,.75l6.61,5.87s1.89-2.08,3.61-3.1Zm4.11,29.16c11.18,9.26,22.95,12.66,29.73,13.91-6.62,9.29-17.48,15.37-29.73,15.37s-23.11-6.08-29.73-15.37c6.78-1.25,18.55-4.65,29.73-13.91v-3.32s-7.09,5.88-20.62,8.48c-5.41,1.04-9.98,.9-13.6,.33-1.48-3.96-2.29-8.25-2.29-12.72C0,16.87,15.52,.84,34.91,0l-2.04,8.6,3.64-2.73,3.64,2.73L38.11,0c19.39,.84,34.91,16.87,34.91,36.47,0,4.47-.81,8.76-2.29,12.72-3.62,.57-8.19,.71-13.6-.33-13.53-2.6-20.62-8.48-20.62-8.48v3.32Zm25.11-1.99s.04,0,.04,0l8.97-8.1s-8.27,3.61-18.54,2.28c-9.73-1.25-15.58-5.46-15.58-5.46v3.8c6.67,5.11,13.41,6.89,18.23,7.44,1.89,1.92,.81,5.51,.81,5.51l6.07-5.46ZM40.62,14.53s0,0,0,0c1.72,1.03,3.61,3.23,3.61,3.23l6.61-6s-5.2,.59-8.5-.75c-3.91-1.59-5.84-3.78-5.84-3.78v3.88c1.18,1.65,2.69,2.72,4.11,3.41Zm8.31,16.44s0,0,0,0c2.99,.79,3.26,4.13,3.26,4.13l3.82-3.5s.03,0,.03,0l6.21-5.72s-7.21,2.07-14.61,1.12c-7.01-.9-11.13-5.23-11.13-5.23v3.36c4.25,3.44,8.79,5.07,12.42,5.84Zm-4.54-8.83s.01,0,.02,0c1.85,.6,2.26,4.18,2.26,4.18l9.09-7.94s-5.73,.97-11.12,.28c-5.11-.66-8.13-4.14-8.13-4.14v3.31c2.44,2.32,5.35,3.6,7.89,4.3Z"/>
  </g>
</svg>
