<svg xmlns="http://www.w3.org/2000/svg" width="250" height="250"><path fill="#f43c3c" d="M0 23.438C0 10.492 10.492 0 23.438 0h203.125C239.507 0 250 10.492 250 23.438v203.125C250 239.507 239.508 250 226.562 250H23.438C10.492 250 0 239.508 0 226.562zm0 0"/><g fill="#fff"><path d="M150.988 189.063c6.961 0 9.797 1.351 9.797 5.476v.129c0 4.32-3.61 5.61-9.605 5.61h-12.246v-11.215zM150.406 207.688c7.992 0 11.024 1.417 11.024 5.867v.062c0 4.188-2.578 5.992-11.41 5.992h-11.086v-11.922zM211.008 197.375c0-5.48-3.547-7.797-11.024-7.797h-10.57v15.594h10.828c7.414 0 10.766-2.445 10.766-7.797zm0 0"/><path fill-rule="evenodd" d="M23.438 166.016c-8.63 0-15.625 6.996-15.625 15.625v44.922c0 8.628 6.996 15.625 15.625 15.625h203.125c8.628 0 15.625-6.997 15.625-15.625V181.64c0-8.63-6.997-15.625-15.625-15.625zm95.277 61.523H111.3l-.461-6.348c-1.953 3.907-6.82 7.442-16.68 7.442-12.762 0-20.625-6.895-20.625-22.297v-2.774c0-14.953 9.215-22.945 23.137-22.945 12.762 0 20.625 5.801 21.785 16.953h-10.246c-.648-4.965-3.805-8.507-11.473-8.507-8.894 0-13.535 4.64-13.535 14.757v2.32c-.066 9.735 4.317 14.247 13.149 14.247 8.375 0 12.308-3.867 12.824-9.282H95.19v-7.93h23.524zM68.94 181.586v8.184H54.117v37.77h-9.539v-37.77h-14.18v-8.184zm82.239 45.953c13.215 0 19.851-4.125 19.851-13.21v-.067c0-5.93-2.898-8.957-8.508-10.313 5.028-1.547 7.477-4.64 7.477-10.246v-.195c0-8.188-6.121-11.926-19.465-11.926h-20.754v45.957zm69.3-30.101c0 9.925-6.574 15.792-19.914 15.726h-11.152v14.375h-9.281v-45.953h19.789c14.371 0 20.558 5.797 20.558 15.851zm0 0"/><path d="M74.219 28.32h34.18c0 18.875-15.305 34.18-34.18 34.18zM142.578 28.32c-18.875 0-34.18 15.305-34.18 34.18v75.195h34.18V62.5h34.18V28.32zm0 0"/></g></svg>