<svg xmlns="http://www.w3.org/2000/svg" width="250" height="250"><path fill="#f57a21" d="M0 23.438C0 10.492 10.492 0 23.438 0h203.125C239.507 0 250 10.492 250 23.438v203.125C250 239.507 239.508 250 226.562 250H23.438C10.492 250 0 239.508 0 226.562zm0 0"/><g fill="#fff"><path d="M212.176 203.82c0-9.797-4.965-14.117-14.504-14.117h-8.508v29.649h8.895c9.347 0 14.117-4.188 14.117-13.985zm0 0"/><path fill-rule="evenodd" d="M23.438 166.016c-8.63 0-15.625 6.996-15.625 15.625v44.922c0 8.628 6.996 15.625 15.625 15.625h203.125c8.628 0 15.625-6.997 15.625-15.625V181.64c0-8.63-6.997-15.625-15.625-15.625zm43.492 15.57v8.184H52.105v37.77h-9.539v-37.77h-14.18v-8.184zm50.351 45.953H108v-18.5H85.504v18.5h-9.41v-45.953h9.41v18.496H108v-18.496h9.281zm44.934 0h10.894l-18.18-28.875 17.15-17.082h-12.056l-21.335 21.527v-21.523h-9.407v45.953h9.406v-13.984l9.477-9.348zm59.433-21.656c0 14.89-9.023 21.656-23.136 21.656H179.82v-45.953h18.239c14.246 0 23.59 6.832 23.59 21.848zm0 0"/><path d="M74.219 28.32h34.18c0 18.875-15.305 34.18-34.18 34.18zM142.578 28.32c-18.875 0-34.18 15.305-34.18 34.18v75.195h34.18V62.5h34.18V28.32zm0 0"/></g></svg>