<svg xmlns="http://www.w3.org/2000/svg" width="250" height="250"><path fill="#211e32" d="M0 0h250v250H0z"/><g fill="#fff"><path fill-rule="evenodd" d="M116.84 109.91c10.754 0 19.12 7.828 19.12 17.059 0 9.226-8.35 17.05-19.12 17.05v.004H88.215c-2.215 0-4.008 1.66-4.008 3.711v8.43c0 2.047 1.793 3.711 4.008 3.711h28.629v-.004c19.828 0 36.25-14.559 36.25-32.902 0-18.356-16.446-32.91-36.254-32.91H88.21c-2.214 0-4.007 1.66-4.007 3.714v8.43c0 2.047 1.793 3.711 4.008 3.711h28.629zM72.125 97.71c-.004-.98-.43-1.92-1.18-2.612-.75-.696-1.77-1.082-2.832-1.086H21.047a4.21 4.21 0 0 0-2.836 1.09c-.754.695-1.176 1.636-1.176 2.62v8.43c0 2.051 1.797 3.715 4.012 3.715h14.965v46.301c0 2.047 1.797 3.703 4.011 3.703h9.125c2.215 0 4.012-1.656 4.012-3.703v-46.3h14.973c2.215 0 4.015-1.669 4.008-3.72zm0 0"/><path d="m195.777 114.625-12.152 11.18 34.457 31.851c.75.696 1.77 1.082 2.832 1.082s2.082-.386 2.836-1.082l6.453-5.969c.75-.695 1.172-1.636 1.172-2.617 0-.984-.422-1.925-1.172-2.62l-34.43-31.825zm0 0"/><path d="m183.652 125.777 12.102 11.23 34.457-31.85c.75-.696 1.172-1.637 1.172-2.618 0-.984-.422-1.926-1.172-2.621l-6.461-5.969c-.75-.695-1.773-1.086-2.836-1.086s-2.082.39-2.836 1.086zm0 0"/></g><path fill="#e3163b" d="m195.742 114.625 12.149 11.18-34.453 31.851c-.75.696-1.77 1.082-2.833 1.082s-2.082-.386-2.835-1.082l-6.458-5.969c-.75-.695-1.171-1.636-1.171-2.617 0-.984.422-1.925 1.172-2.62zm0 0"/><path fill="#e3163b" d="m207.875 125.773-12.102 11.23-34.453-31.847c-.75-.695-1.172-1.64-1.172-2.62 0-.981.422-1.927 1.172-2.622l6.453-5.965c.754-.695 1.774-1.086 2.836-1.086s2.082.39 2.832 1.086zm0 0"/></svg>