<svg xmlns="http://www.w3.org/2000/svg" width="250" height="250"><path fill="#f8cf03" d="M250 125c0 69.035-55.965 125-125 125S0 194.035 0 125 55.965 0 125 0s125 55.965 125 125zm0 0"/><path fill="#fff" d="M193.89 77c-2.913-2.914-6.757-4.371-11.527-4.375h-57.222c-4.766 0-8.61 1.457-11.528 4.375-2.914 2.918-4.375 6.758-4.375 11.523v95.375c0 4.77 1.461 8.61 4.375 11.528 2.918 2.914 6.762 4.375 11.528 4.375s8.609-1.461 11.523-4.375c2.918-2.918 4.375-6.758 4.375-11.528v-71.523c0-5.297 2.652-7.95 7.95-7.95h33.382c4.766 0 8.61-1.46 11.527-4.374 2.915-2.918 4.372-6.758 4.375-11.528-.015-4.773-1.476-8.613-4.382-11.523zM88.98 77c-2.914-2.914-6.753-4.371-11.523-4.375h-9.535c-4.766 0-8.61 1.457-11.527 4.375-2.915 2.918-4.375 6.758-4.375 11.523 0 4.77 1.46 8.61 4.375 11.528 2.917 2.914 6.761 4.375 11.527 4.375h9.531c4.77 0 8.61-1.461 11.527-4.375 2.915-2.918 4.375-6.758 4.375-11.528C93.348 83.75 91.887 79.91 88.98 77zm0 0"/></svg>