<svg xmlns="http://www.w3.org/2000/svg" width="250" height="250"><linearGradient id="a" x1=".193" x2=".8" y1=".895" y2=".102" gradientTransform="matrix(249.8086 0 0 240.46484 .117 .969)" gradientUnits="userSpaceOnUse"><stop offset="0" stop-color="#b400ff"/><stop offset="1" stop-color="#ff3a52"/></linearGradient><path fill="#fff" d="M246.457 89.484v71.012c.016 18.95-11.008 36.461-28.914 45.93l-63.613 35.508c-1.82.96-3.696 1.84-5.61 2.629l-.3.117c-14.774 5.867-31.547 5.824-46.282-.118l-.3-.136a57.564 57.564 0 0 1-5.329-2.48l-1.55-.821-62.07-34.73c-17.9-9.473-28.919-26.985-28.903-45.93v-70.98c0-18.95 7.535-33.278 25.43-42.758l67.101-35.473c15.953-8.441 35.34-9.418 52.207-2.625a61.115 61.115 0 0 1 5.61 2.625l67.101 35.508c17.89 9.46 25.445 23.777 25.445 42.715zm0 0"/><path fill="url(#a)" d="M249.926 89.477v71.007c.015 18.95-11.012 36.465-28.918 45.93l-62.219 33.082-2.633 1.313c-1.699.859-3.77.832-5.441-.075s-2.695-2.554-2.688-4.336v-50.55c-14.82-6.07-31.734-6.16-46.629-.246v50.601c.004 1.77-1.007 3.41-2.664 4.32a5.915 5.915 0 0 1-5.41.114l-2.16-1.059-62.14-33.2C11.124 196.907.104 179.399.116 160.458v-70.98C.105 70.53 11.125 53.02 29.023 43.547L96.121 8.074c15.957-8.441 35.344-9.414 52.211-2.625 1.918.785 3.79 1.66 5.61 2.625l67.097 35.512c17.883 9.465 28.895 26.96 28.887 45.89zm0 0"/><path fill="#fff" d="M204.766 121.223c-.254 7.574-4.88 14.449-12.145 18.058-7.27 3.606-16.078 3.399-23.137-.547l-18.632-10.609a1.985 1.985 0 0 0-1.915-.086c-.601.3-.972.887-.957 1.516v115.082c-14.792 5.875-31.585 5.832-46.343-.117l-.301-.133V129.555c.016-.63-.352-1.215-.957-1.516a1.977 1.977 0 0 0-1.91.086l-18.637 10.61c-7.105 4.452-16.312 4.937-23.926 1.257-7.613-3.683-12.379-10.922-12.383-18.812 0-7.887 4.758-15.13 12.368-18.817l56.77-32.367c7.417-4.133 16.734-4.133 24.155 0l56.77 32.367c7.176 3.969 11.45 11.184 11.18 18.86zm0 0"/><path fill="#ff7db7" d="M244.309 163.21c-3.145 0-5.692-2.339-5.692-5.222V89.363c-.086-15.086-8.883-29.004-23.12-36.574L147.8 16.887c-14.551-7.52-32.375-7.348-46.746.457L41.985 48.53c-2.723 1.407-6.172.535-7.731-1.945-1.559-2.484-.64-5.656 2.055-7.106L95.316 8.36c17.887-9.688 40.055-9.887 58.145-.516l67.738 35.926c17.738 9.44 28.696 26.789 28.797 45.593v68.625c0 2.88-2.543 5.215-5.687 5.223zm0 0"/><path fill="#ffd6e6" d="M218.34 53.484a6.141 6.141 0 0 1-2.82-.703L148.2 17.063c-1.81-.895-2.954-2.618-2.99-4.5-.034-1.887 1.04-3.645 2.817-4.598a6.15 6.15 0 0 1 5.75-.004l.13.066 67.32 35.72c2.23 1.183 3.312 3.589 2.644 5.87-.668 2.281-2.926 3.867-5.504 3.867zm0 0"/><path fill="#811585" d="M96.035 241.34a6.041 6.041 0 0 1-2.855-.711l-64.645-34.524C10.652 196.508-.238 178.852.004 159.855v-54.218c0-2.883 2.55-5.223 5.695-5.223 3.149 0 5.696 2.34 5.696 5.223v54.27c-.215 15.257 8.523 29.448 22.882 37.163l64.637 34.516c2.223 1.187 3.305 3.598 2.633 5.875-.672 2.281-2.93 3.863-5.504 3.86zm0 0"/><path fill="#5b115c" d="M95.953 241.34a6.092 6.092 0 0 1-2.855-.703L47.93 216.609c-2.72-1.449-3.64-4.64-2.063-7.132 1.578-2.489 5.063-3.336 7.778-1.887l45.171 24.012c2.23 1.187 3.317 3.597 2.645 5.878-.672 2.282-2.93 3.864-5.508 3.86zm0 0"/><path fill="#ff7db7" d="M207.027 138.441c-1.953 0-3.765-.918-4.812-2.43-1.043-1.515-1.168-3.41-.328-5.027a26.341 26.341 0 0 0 2.816-9.226c.195-7.074-3.297-13.809-9.402-18.137l-59.817-33.945a25.592 25.592 0 0 0-10.824-2.485c-4.594-.004-9.086 1.243-12.906 3.582-2.621 1.598-6.156.946-7.899-1.457-1.742-2.398-1.03-5.64 1.586-7.238 5.715-3.492 12.43-5.348 19.297-5.328 5.754.059 11.407 1.398 16.469 3.902l60.797 34.575c9.14 6.437 14.371 16.5 14.062 27.062a36.156 36.156 0 0 1-3.875 13.168c-.945 1.828-2.957 2.992-5.164 2.984zm0 0"/><path fill="#ffd6e6" d="M167.563 86.945a6.018 6.018 0 0 1-3.004-.797l-19.391-11.007c-1.766-.973-2.816-2.743-2.758-4.625.059-1.887 1.223-3.594 3.047-4.473a6.15 6.15 0 0 1 5.742.242l19.39 11.012c2.161 1.23 3.165 3.629 2.462 5.867-.7 2.242-2.938 3.785-5.48 3.781zm0 0"/></svg>