<svg xmlns="http://www.w3.org/2000/svg" width="250" height="250"><g fill-rule="evenodd"><path fill="#f3f7fa" d="M135.125 1.75c.086.137.324.25.531.25.203 0 .305-.113.219-.25s-.324-.25-.531-.25c-.203 0-.305.113-.219.25M113.5 15.773c-1.445.114-3.523.375-4.625.582s-2.617.45-3.375.536c-1.422.16-5.844 1.105-8.25 1.757-7.29 1.985-8.512 2.348-9.488 2.836-.489.246-1.223.524-1.637.621-.414.098-1.2.387-1.75.637-2.871 1.32-3.805 1.723-4.375 1.895-4.25 1.27-19.066 10.238-24.145 14.613-.718.617-1.906 1.633-2.64 2.25-1.797 1.512-5.172 4.734-7.192 6.863-.906.953-1.937 2.024-2.289 2.375-6.437 6.414-15.68 20.907-19.707 30.907-.324.812-.797 1.93-1.043 2.48-.867 1.926-2.89 7.941-3.382 10.059-.196.855-.477 1.867-.625 2.25-.45 1.183-1.676 7.289-2.52 12.566-.773 4.828-.879 23.824-.148 27.5a74.16 74.16 0 0 1 .699 4.375c.152 1.238.445 2.867.648 3.625s.578 2.332.836 3.5c.805 3.629 2.594 9.855 3.094 10.75.191.344.426.96.523 1.375.18.754 1.246 3.367 2.153 5.277.27.567.488 1.125.488 1.243 0 1.402 7.79 15.066 11.586 20.316 6.586 9.11 16.504 18.844 25.023 24.559.735.488 1.907 1.304 2.614 1.812 2.691 1.934 11.343 6.59 15.402 8.285 1.238.516 2.7 1.149 3.25 1.399 1.328.609 4.117 1.64 6.125 2.273 4.348 1.363 5.734 1.781 7 2.11.758.195 2.219.578 3.25.851s2.664.613 3.625.758c.96.144 2.367.422 3.125.613 6.102 1.566 32.672 1.598 35.191.04.133-.083 1.297-.325 2.59-.54 1.29-.219 3.133-.61 4.094-.875s2.367-.644 3.125-.844c.758-.199 2.273-.64 3.375-.98 1.102-.344 2.73-.852 3.625-1.125 1.965-.61 4.691-1.692 9.125-3.613 21.234-9.22 39.297-25.633 50.457-45.856 3.14-5.687 3.453-6.351 6.563-13.89 1.722-4.172 4.636-13.997 5.113-17.223.148-1.012.426-2.348.613-2.965 1.816-5.98 1.899-30.918.121-36.625-.129-.414-.46-1.988-.734-3.5-.488-2.664-1.34-6.063-2.102-8.375-.207-.617-.77-2.363-1.254-3.875-.945-2.96-1.964-5.797-2.515-7-.188-.414-.864-1.977-1.5-3.477-1.063-2.496-2.79-5.937-5.09-10.148-1.145-2.098-4.309-6.918-5.899-9-.687-.895-1.804-2.355-2.488-3.25-4.785-6.266-11-12.52-18.285-18.398-3.508-2.832-10.012-7.012-14.75-9.485a145.361 145.361 0 0 1-3.5-1.867c-.414-.242-1.707-.852-2.875-1.36-1.168-.503-2.406-1.066-2.75-1.245-.344-.184-1.074-.473-1.625-.649-.55-.18-1.227-.469-1.508-.652-.883-.574-7.316-2.688-11.617-3.813-4.86-1.273-6.016-1.527-9.25-2.035-1.719-.27-3.688-.598-4.375-.734-3.602-.711-17.637-.992-24.125-.489m23.75 12.57c17.816 2.747 31.629 8.712 46.031 19.884 3.746 2.906 12.102 11.086 14.703 14.398.434.55 1.38 1.742 2.102 2.645 1.86 2.335 6.21 8.957 7.789 11.855 1.402 2.586 4.125 8.035 4.125 8.266 0 .109.219.66.484 1.218 1.121 2.352 3.004 7.684 3.88 10.985 4.62 17.43 4.616 34.433-.005 51.812-.828 3.121-3.148 9.899-3.574 10.442-.117.152-.422.84-.676 1.527-1.05 2.84-5.011 10.195-7.593 14.098-.489.742-1.102 1.699-1.356 2.12-3.539 5.88-13.777 16.802-20.406 21.774-2.633 1.977-4.992 3.633-5.176 3.633-.094 0-.402.207-.687.457-1.727 1.527-11.743 7.059-15.641 8.64-7.46 3.024-11.574 4.262-19.125 5.758-17.34 3.434-36.508 1.754-52.75-4.62-1.102-.43-2.438-.946-2.973-1.145-2.695-1-10.172-5.004-13.91-7.45-7.582-4.952-16.703-12.84-21.996-19.015C46.922 181.453 38 168.258 38 167.141c0-.063-.555-1.274-1.23-2.7-2.672-5.62-5.754-14.425-6.637-18.941-.094-.48-.38-1.773-.633-2.875-.258-1.102-.648-3.46-.871-5.25s-.524-3.98-.672-4.875c-.945-5.742-.11-21.05 1.55-28.277.27-1.184.493-2.313.493-2.512 0-.512 1.512-5.805 2.633-9.211 1.887-5.734 4.539-11.688 7.215-16.191.84-1.41 2.09-3.516 2.777-4.68 5.25-8.871 15.594-19.625 26.25-27.29C74.844 40.044 84.277 35.294 92 32.685c7.984-2.692 11.887-3.555 22.375-4.938 3.734-.496 18.246-.113 22.875.598m-25.5 40.843c-.004.38.168 1.418.375 2.313.762 3.27 1.023 5.176.805 5.84-.235.703-.032.625-5.305 2.031-7.258 1.93-13.957 4.285-19.25 6.762-.96.449-2.52 1.164-3.457 1.586-1.738.781-7.281 3.77-8.418 4.535-.344.23-2.008 1.308-3.703 2.394-11.445 7.352-20.574 17.61-23.121 25.985-.211.683-.551 1.64-.762 2.129-.613 1.437-.977 6.539-.676 9.488 1.18 11.496 15.145 22.508 33.012 26.027 3.824.754 5.305 1.024 6.75 1.227 4.383.621 9.008.871 16 .871h7.625l.875.613c.48.336 1.102.809 1.375 1.047.84.738 7.102 5.715 10.973 8.719.976.762 3.218 2.535 4.984 3.945 3.934 3.145 4.246 3.352 4.758 3.156.582-.226.539-2.511-.09-4.98-.98-3.84-.863-4.012 3.54-5.113 4.269-1.067 8.581-2.41 12.085-3.758.688-.266 2.148-.816 3.25-1.227 3.39-1.257 3.926-1.5 10.625-4.773 5.719-2.793 15.05-8.645 16.75-10.5.07-.078 1.023-.883 2.125-1.793 13.973-11.566 19.672-26.945 13.973-37.711-3.118-5.895-8.274-10.465-16.223-14.371-3.79-1.863-5.117-2.399-8.75-3.535-1.934-.606-2.695-.809-7-1.864-5.305-1.296-13.68-2.027-22.625-1.964-3.508.023-6.504.03-6.664.011-.25-.023-8.656-6.554-13.336-10.363a84.343 84.343 0 0 0-2.625-2.055c-.55-.406-1.988-1.55-3.195-2.546-3.27-2.696-4.68-3.336-4.68-2.126m43.953 30.079c17.996 1.293 23.34 8.511 13.047 17.62-.617.544-1.242 1.102-1.395 1.243-.152.14-.94.695-1.753 1.23s-1.793 1.192-2.184 1.454c-1.688 1.144-11.04 5.687-13.043 6.335-.55.176-2.063.727-3.36 1.22-5.199 1.968-9.027 3.144-16.753 5.136-3.992 1.027-3.742 1.246-5.121-4.473-.344-1.426-.805-2.87-1.028-3.207l-.398-.61-.75.579c-.75.582-4.395 6.246-6.488 10.082-.297.55-.625 1.055-.727 1.125s-.426.574-.727 1.125c-.296.55-.847 1.477-1.218 2.059-.375.582-1.176 1.879-1.778 2.875-2.918 4.824-2.132 4.55-13.152 4.554-9.95.004-13.266-.367-18.375-2.058-13.285-4.403-8.23-14.957 11.375-23.766a714.254 714.254 0 0 0 4.25-1.918c1.398-.648 5.234-2.062 9-3.312 6.168-2.047 7.7-2.516 8.75-2.684.55-.086 1.45-.313 2-.5 4.191-1.445 5.188-1.082 5.746 2.11 1.293 7.34 2.184 7.5 5.692 1.015.886-1.645 5.07-8.547 6.609-10.91.726-1.121 1.617-2.598 1.973-3.285 1.308-2.52 1.867-2.836 5.398-3.047 4.809-.285 10.398-.281 14.41.008"/><path fill="#4da3f0" d="M113.625 1.004c-2.797.2-3.855.367-4.75.746-.273.117-1.887.277-3.582.355-3.043.141-3.758.286-3.758.762 0 .137-.133.29-.3.348-.176.058-.231-.02-.13-.184.114-.183-.082-.281-.57-.281-.41 0-.785.121-.832.266s-.984.324-2.082.398c-1.457.098-2.195.273-2.73.652-.512.36-1.325.567-2.704.688-1.359.121-2.175.328-2.64.668-.371.273-1.281.566-2.024.656-.796.094-1.566.356-1.875.637-.316.285-1.09.543-1.949.648-.781.094-1.683.371-2 .621-.316.246-.969.532-1.449.633-1.012.211-2.07.82-1.898 1.094.062.105-.297.215-.805.246-1.336.086-1.75.258-1.926.805-.117.367-.383.488-1.074.492-1.04.004-1.387.176-1.621.809-.094.253-.418.437-.778.437-.906 0-1.898.438-1.898.836 0 .219-.387.398-1.047.488-.625.082-1.207.344-1.437.64-.215.274-.864.622-1.438.77-.672.18-1.105.454-1.203.77-.113.348-.383.496-.902.496-.461 0-.957.227-1.297.586-.305.324-.86.664-1.239.754-.46.113-.687.332-.687.664 0 .273-.086.504-.188.512-1.226.113-1.742.308-2.242.847-.324.352-.8.637-1.054.637s-.524.164-.602.363c-.078.2-.566.586-1.09.856-.523.27-1.09.718-1.258 1.004-.18.293-.468.453-.675.375-.196-.078-.563.101-.813.398s-.808.692-1.246.875c-.434.184-.918.57-1.07.86-.153.285-.504.519-.778.519s-1.047.563-1.71 1.25c-.665.688-1.329 1.25-1.473 1.25-.14 0-.578.336-.965.75-.39.414-.852.75-1.027.75-.176 0-.45.281-.606.625s-.492.625-.75.625-.566.262-.691.59c-.121.324-.48.66-.793.742-.317.082-.496.223-.407.313.227.23-.44.855-.914.855-.214 0-.457.27-.539.602-.09.359-.398.668-.757.757-.368.09-.602.332-.602.618 0 .285-.234.527-.598.617a1.07 1.07 0 0 0-.754.781c-.101.402-.332.625-.648.625-.313 0-.547.223-.648.625-.098.387-.332.625-.625.625-.278 0-.524.23-.61.57-.082.317-.39.68-.695.813-.3.133-.582.496-.625.804-.055.364-.254.563-.57.563-.274 0-.563.195-.645.438-.086.242-.36.664-.61.937-.253.273-.804.875-1.23 1.336-.426.46-.879 1.117-1.012 1.46-.128.345-.46.684-.734.759-.273.07-.496.28-.496.468s-.281.524-.625.75c-.344.227-.625.649-.625.946 0 .316-.23.64-.555.785-.316.137-.66.61-.793 1.082-.132.457-.5 1.004-.82 1.215-.328.215-.582.629-.582.949 0 .316-.172.637-.387.719-.21.082-.55.543-.754 1.027-.199.484-.59 1.02-.863 1.188-.273.171-.496.57-.496.882 0 .317-.172.641-.383.723-.472.18-1.117 1.379-1.117 2.074 0 .344-.164.512-.496.512-.324 0-.55.223-.656.648-.09.356-.43.934-.754 1.286-.328.355-.594.949-.594 1.336 0 .464-.156.746-.473.847-.476.153-.765.82-.773 1.781-.004.309-.254.633-.613.797-.465.215-.645.543-.778 1.418-.11.73-.297 1.137-.523 1.137-.402 0-.84.988-.84 1.89 0 .368-.145.61-.367.61-.485 0-.883.785-.883 1.742 0 .508-.148.828-.437.934-.637.234-.805.582-.81 1.66-.003.664-.163 1.086-.515 1.375-.281.227-.629.922-.765 1.539-.141.617-.473 1.355-.739 1.64-.316.337-.539 1.051-.644 2.075-.121 1.16-.293 1.648-.668 1.91-.375.266-.535.723-.621 1.8-.086 1.04-.285 1.653-.711 2.157-.508.61-.59.973-.59 2.645 0 1.726-.066 2-.605 2.503-.508.48-.633.899-.778 2.672-.129 1.547-.312 2.278-.683 2.75-.442.563-.524 1.121-.633 4.301-.113 3.328-.168 3.688-.649 4.078-1 .805-.918 31.703.082 32.703.36.36.465 1.047.575 3.754.113 2.762.214 3.422.625 3.977.347.469.546 1.289.675 2.781.2 2.277.446 3.004 1.024 3.004.289 0 .367.395.367 1.875 0 1.691.063 1.934.625 2.422.527.46.625.762.625 1.953 0 1.184.102 1.508.625 2 .484.453.625.836.625 1.684 0 1.308.352 2.066.957 2.066.352 0 .426.168.352.813-.153 1.414.265 2.8.875 2.89.464.067.55.266.617 1.375.062 1.129.148 1.309.637 1.375.496.07.562.227.562 1.285 0 1.008.102 1.27.625 1.614.457.3.625.632.625 1.23 0 .617.18.957.723 1.36.398.292.718.68.71.859-.038.953.122 1.355.63 1.578.433.191.578.488.64 1.309.063.886.176 1.085.688 1.214.422.106.609.325.609.723 0 .328.262.738.625.977.469.304.625.628.625 1.273 0 .695.113.895.578 1.012.438.11.64.406.813 1.191.156.703.418 1.125.785 1.29.32.14.582.507.625.874.05.438.246.656.637.711.41.059.562.25.562.707 0 .82.426 1.59.883 1.59.234 0 .367.254.367.703 0 .434.293 1.035.75 1.547.414.46.75.992.75 1.176 0 .183.281.445.625.574.441.168.625.426.625.879 0 .355.273.918.605 1.25.333.332.676.828.762 1.101.086.27.367.56.621.641.254.082.532.426.617.762.09.363.336.617.594.617.262 0 .559.309.723.75.187.492.457.75.789.75s.531.191.586.563c.05.359.281.59.64.64.407.059.563.25.563.688 0 .484.129.609.625.609.492 0 .625.125.625.598 0 .422.176.64.594.746.328.082.656.386.734.672.074.285.36.578.633.652.273.07.566.398.648.73.11.434.325.602.77.602.496 0 .621.125.621.625s.125.625.625.625c.46 0 .625.133.625.508 0 .308.242.597.625.742.344.129.625.418.625.64s.336.532.75.688c.43.16.75.465.75.711 0 .234.254.508.563.606.308.093.808.44 1.113.765.3.324.781.59 1.062.59s.512.105.512.23c0 .442 3.531 3.77 4 3.77.293 0 .496.207.547.563.055.39.273.585.71.636.356.04.74.309.876.606.133.297.586.656 1.004.804.418.145 1.008.52 1.312.828.301.31.715.563.918.563.2 0 .48.215.621.48.14.262.582.551.977.637.394.086.957.434 1.25.77.293.336.754.613 1.023.613s.77.281 1.114.625.878.625 1.191.625.8.297 1.098.668c.449.566.773.687 2.07.781 1.422.102 1.539.156 1.539.707 0 .547.102.594 1.25.594 1.168 0 1.25.043 1.25.625 0 .531.113.625.777.625.524 0 .93.195 1.254.605.262.333.84.688 1.281.786.446.093 1.157.441 1.583.765.43.328 1.078.594 1.44.594.368 0 .665.11.665.242 0 .418 1.426 1.008 2.43 1.008.746 0 1.004.121 1.199.563.207.472.473.574 1.676.636 1.168.063 1.515.188 1.91.688.394.504.703.613 1.73.613 1.02 0 1.27.086 1.371.48.137.52 1.516 1.016 2.84 1.02.52 0 .903.18 1.133.531.29.43.68.551 2.156.656.993.07 1.805.223 1.805.34 0 .504 1.559.973 3.238.973 1.38 0 1.762.078 1.762.367 0 .63.895.883 3.133.883 1.922 0 2.21.063 2.605.547.496.613 2.395.918 5.871.941 1.704.012 2.067.09 2.582.575l.598.562h13.961c13.762 0 13.969-.008 14.668-.523.602-.446 1.21-.543 4.16-.684 3.492-.168 4.422-.387 4.422-1.05 0-.298.465-.368 2.457-.368 2.297 0 2.496-.04 3.043-.625.516-.55.797-.625 2.309-.625 1.828 0 2.691-.285 2.691-.883 0-.281.352-.367 1.516-.367 1.636 0 2.484-.3 2.484-.883 0-.258.285-.367.969-.367 1.68 0 2.554-.281 2.844-.91.234-.512.44-.59 1.613-.59 1.117 0 1.449-.11 1.926-.625.41-.441.843-.625 1.472-.625.84 0 1.676-.508 1.676-1.02 0-.125.383-.23.855-.23 1.16 0 1.645-.219 1.645-.746 0-.34.29-.477 1.281-.61.79-.105 1.442-.355 1.688-.644.222-.262.8-.57 1.281-.688.625-.156.898-.375.953-.765.063-.422.25-.547.832-.547.934 0 1.715-.402 1.715-.883 0-.238.254-.367.723-.367.445 0 .949-.238 1.312-.621.324-.34.852-.621 1.168-.625.73-.004 1.574-.445 2-1.043.18-.254.524-.461.766-.461.246 0 .703-.273 1.02-.61.316-.34.866-.648 1.23-.687.394-.047.754-.305.902-.64.172-.391.461-.563.941-.563.43 0 .993-.285 1.477-.75.434-.414.941-.75 1.129-.75.191 0 .453-.281.582-.625.16-.422.43-.625.828-.625.34 0 .871-.316 1.258-.75.367-.414.828-.75 1.023-.75s.426-.215.508-.477c.082-.257.422-.543.75-.625.328-.082.668-.367.754-.636.086-.266.379-.559.656-.645.278-.09.606-.43.73-.762.134-.351.434-.605.712-.605.297 0 .535-.23.629-.61.097-.378.363-.636.714-.687.36-.05.59-.281.641-.64.059-.407.25-.563.688-.563.484 0 .609-.129.609-.625 0-.492.125-.625.598-.625.422 0 .64-.176.746-.594.082-.328.386-.656.672-.734.285-.074.578-.36.652-.633.07-.273.398-.566.73-.648.434-.11.602-.325.602-.77 0-.496.125-.621.625-.621s.625-.125.625-.625.125-.625.625-.625.625-.125.625-.625c0-.457.133-.625.492-.625.293 0 .649-.297.867-.719.203-.394.602-.777.88-.851a.665.665 0 0 0 .511-.64c0-.333.191-.532.563-.587.355-.047.59-.277.64-.625a.706.706 0 0 1 .625-.625c.352-.05.578-.285.629-.656.047-.332.336-.672.688-.805.347-.133.605-.433.605-.707 0-.265.219-.535.496-.605.274-.075.606-.414.738-.762.13-.344.395-.723.59-.836.469-.273.926-1.176.926-1.816 0-.34.16-.516.473-.516.492 0 .777-.46.777-1.254 0-.254.281-.68.625-.953.344-.27.625-.637.625-.82 0-.18.29-.559.64-.84.438-.348.684-.844.782-1.559.11-.824.254-1.062.672-1.125.441-.062.543-.27.61-1.262.066-1.07.132-1.187.687-1.187.507 0 .609-.121.609-.734 0-.477.152-.782.438-.875.476-.153 1.062-1.223 1.062-1.942 0-.277.184-.449.477-.449.367 0 .52-.242.648-1.012.113-.668.375-1.14.773-1.402.352-.23.602-.637.602-.977 0-.324.281-.867.625-1.21s.625-.907.625-1.25.281-.907.625-1.25c.46-.462.625-.891.625-1.633 0-.793.129-1.09.621-1.41.465-.305.66-.708.781-1.626.114-.851.293-1.257.602-1.355.473-.152.738-.836.742-1.926.004-.37.285-.976.629-1.347.492-.532.625-.938.625-1.915 0-.957.14-1.41.625-1.984s.625-1.023.625-1.996c0-.96.121-1.348.512-1.668.547-.441.972-1.863.98-3.273a2.192 2.192 0 0 1 .563-1.45c.476-.507.566-.933.652-3.078.074-1.808.188-2.488.422-2.488.562 0 .871-1.492.871-4.207 0-2.39.05-2.691.563-3.234l.562-.598v-32.922l-.563-.598c-.511-.543-.562-.843-.562-3.238 0-3.09-.145-3.996-.742-4.64-.328-.348-.469-1.032-.555-2.649-.094-1.828-.195-2.238-.621-2.535-.402-.281-.539-.742-.664-2.203-.188-2.23-.309-2.59-.934-2.754-.418-.11-.484-.356-.484-1.754 0-1.375-.098-1.746-.625-2.371-.344-.41-.625-1.024-.625-1.363 0-1.239-.313-2.168-.781-2.317-.364-.117-.469-.394-.469-1.25 0-.816-.145-1.23-.563-1.62-.363-.337-.652-1.024-.812-1.946-.191-1.102-.379-1.48-.813-1.672-.437-.192-.562-.453-.562-1.172 0-.867-.5-1.707-1.02-1.707-.125 0-.23-.273-.23-.61 0-.925-.441-1.89-.867-1.89-.258 0-.383-.246-.383-.762 0-.476-.23-.992-.625-1.386-.344-.344-.625-.82-.625-1.059 0-.426-.547-1.352-1.176-2-.18-.18-.324-.531-.324-.777s-.281-.657-.625-.914c-.344-.258-.625-.676-.625-.926 0-.676-.465-1.426-.883-1.426-.219 0-.367-.238-.367-.59 0-.32-.27-.879-.602-1.238-.332-.356-.675-.984-.765-1.39-.09-.407-.328-.802-.531-.88-.2-.078-.582-.652-.848-1.273-.277-.637-.652-1.129-.871-1.129-.238 0-.383-.227-.383-.598 0-.351-.246-.754-.602-.988-.332-.219-.68-.73-.77-1.137-.085-.406-.433-.922-.769-1.14s-.609-.582-.609-.809-.563-.937-1.25-1.578-1.25-1.285-1.25-1.43c0-.144-.215-.316-.473-.386-.261-.067-.672-.536-.91-1.036-.238-.503-.644-1.027-.898-1.164-.258-.14-.469-.414-.469-.613 0-.2-.27-.535-.598-.75-.332-.219-.656-.613-.726-.883a.668.668 0 0 0-.653-.488c-.359 0-.523-.16-.523-.504 0-.293-.254-.621-.605-.781-.333-.153-.66-.496-.73-.762a.954.954 0 0 0-.618-.617c-.266-.07-.61-.398-.762-.73s-.45-.606-.66-.606c-.215 0-.496-.281-.625-.625s-.41-.625-.625-.625-.492-.273-.617-.605-.45-.672-.723-.758c-.27-.086-.672-.434-.894-.774-.22-.336-.567-.613-.77-.613s-.371-.164-.371-.367c0-.203-.324-.54-.719-.742-.398-.203-.781-.528-.851-.72-.075-.187-.551-.542-1.063-.784-.508-.242-.984-.653-1.05-.914-.07-.258-.278-.473-.465-.473s-.524-.281-.75-.625c-.243-.367-.649-.625-.989-.625-.41 0-.601-.164-.66-.563-.047-.359-.277-.59-.629-.64-.304-.043-.617-.285-.695-.54-.082-.253-.566-.632-1.074-.839-.512-.207-1.125-.61-1.364-.898-.242-.286-.656-.52-.925-.52-.274 0-.774-.281-1.118-.625s-.894-.625-1.222-.625c-.395 0-.692-.21-.88-.625-.16-.344-.495-.625-.757-.625-.258 0-.894-.336-1.414-.75s-1.07-.75-1.223-.75c-.156 0-.422-.223-.593-.496-.18-.293-.704-.563-1.262-.649-.64-.105-1.027-.328-1.188-.69-.156-.364-.5-.567-1.05-.618-.536-.05-.957-.29-1.22-.688-.222-.343-.64-.609-.952-.609-.309 0-.766-.23-1.02-.508-.254-.281-.945-.629-1.539-.781-.594-.148-1.078-.367-1.078-.484 0-.301-1.375-.977-1.988-.977-.282 0-.512-.11-.512-.242 0-.371-1.383-1.008-2.191-1.008-.454 0-.918-.23-1.262-.625-.328-.379-.809-.625-1.219-.625-.367 0-.93-.242-1.246-.543-.371-.344-1.086-.61-1.98-.73-.84-.114-1.622-.391-1.942-.688-.297-.273-1.09-.574-1.785-.672-.703-.101-1.496-.398-1.813-.687-.378-.348-1.019-.551-1.984-.633-1.039-.086-1.543-.258-1.844-.625-.308-.383-.793-.54-1.968-.621-1.211-.09-1.688-.246-2.149-.707-.472-.473-.86-.594-1.89-.594-.872 0-1.567-.168-2.13-.516-.597-.37-1.577-.59-3.406-.77-1.558-.151-2.968-.44-3.59-.734-.765-.363-1.824-.527-4.187-.648-1.742-.086-3.164-.254-3.164-.371 0-.117-.625-.211-1.39-.211-.864 0-1.329.094-1.235.25.086.137-.016.25-.219.25-.469 0-.808-.492-.36-.516.18-.007.048-.136-.296-.28-.77-.329-17.422-.485-21.375-.2m19.387 14.754c1.851.14 3.925.367 4.613.504s2.656.465 4.375.734c3.234.508 4.39.762 9.25 2.035 4.3 1.125 10.734 3.239 11.617 3.813.281.183.957.472 1.508.652.55.176 1.281.465 1.625.649.344.18 1.582.742 2.75 1.246 1.168.507 2.46 1.117 2.875 1.359.414.238 1.988 1.082 3.5 1.867 4.738 2.473 11.242 6.653 14.75 9.485 6.172 4.98 10.855 9.511 15.66 15.148a91.168 91.168 0 0 1 2.625 3.25c.684.895 1.8 2.355 2.488 3.25 1.59 2.082 4.754 6.902 5.899 9 2.3 4.21 4.027 7.652 5.09 10.148.636 1.5 1.312 3.063 1.5 3.477.55 1.203 1.57 4.04 2.515 7a465.397 465.397 0 0 0 1.254 3.875c.762 2.313 1.614 5.71 2.102 8.375.273 1.512.605 3.086.734 3.5 1.778 5.707 1.696 30.645-.12 36.625-.188.617-.466 1.953-.614 2.965-.477 3.226-3.39 13.05-5.113 17.222-3.11 7.54-3.422 8.204-6.563 13.891-4.129 7.48-8.406 13.43-14.168 19.711-10.703 11.664-22.484 20.149-36.289 26.145-4.434 1.921-7.16 3.004-9.125 3.613-.895.273-2.523.781-3.625 1.125-1.102.34-2.617.781-3.375.98-.758.2-2.164.578-3.125.844s-2.805.656-4.094.875c-1.293.215-2.457.457-2.59.54-2.52 1.558-29.09 1.526-35.191-.04a39.655 39.655 0 0 0-3.125-.613c-.96-.145-2.594-.485-3.625-.758s-2.492-.656-3.25-.852c-1.266-.328-2.652-.746-7-2.109-2.008-.633-4.797-1.664-6.125-2.273-.55-.25-2.012-.883-3.25-1.399-4.059-1.695-12.71-6.351-15.402-8.285a106.588 106.588 0 0 0-2.614-1.812c-13.832-9.278-25.875-23.36-34.336-40.153-1.25-2.48-2.273-4.605-2.273-4.722 0-.118-.219-.676-.488-1.243-.907-1.91-1.973-4.523-2.153-5.277a6.426 6.426 0 0 0-.523-1.375c-.5-.895-2.29-7.121-3.094-10.75-.258-1.168-.633-2.742-.836-3.5s-.496-2.387-.648-3.625a74.16 74.16 0 0 0-.7-4.375c-.73-3.676-.624-22.672.149-27.5.844-5.277 2.07-11.383 2.52-12.566.148-.383.43-1.395.625-2.25.492-2.118 2.515-8.133 3.382-10.059.246-.55.72-1.668 1.043-2.48 4.028-10 13.27-24.493 19.707-30.907.352-.351 1.383-1.422 2.29-2.375 2.019-2.129 5.394-5.351 7.19-6.863.735-.617 1.923-1.633 2.641-2.25C60.934 34.875 75.75 25.906 80 24.637c.57-.172 1.504-.575 4.375-1.895.55-.25 1.336-.539 1.75-.637.414-.097 1.148-.375 1.637-.62.976-.489 2.199-.852 9.488-2.837 2.406-.652 6.828-1.597 8.25-1.757.758-.086 2.273-.328 3.375-.536 4.266-.804 17.238-1.125 24.137-.597m-18.637 11.988C103.887 29.13 99.985 29.992 92 32.684c-7.25 2.449-12.504 4.992-20.422 9.902-2.02 1.254-2.422 1.531-4.953 3.402-8.973 6.63-19.234 17.59-24 25.64-.688 1.165-1.938 3.27-2.777 4.68-2.676 4.504-5.328 10.458-7.215 16.192-1.121 3.406-2.633 8.7-2.633 9.21 0 .2-.223 1.33-.492 2.513-1.66 7.226-2.496 22.535-1.551 28.277.148.895.45 3.086.672 4.875s.613 4.148.871 5.25c.254 1.102.54 2.395.633 2.875.883 4.516 3.965 13.32 6.637 18.941.675 1.426 1.23 2.637 1.23 2.7 0 .332 5.578 9.32 7.188 11.586 7 9.847 16.468 18.835 27.304 25.914 3.738 2.445 11.215 6.449 13.91 7.449.535.2 1.871.715 2.973 1.144 16.242 6.375 35.41 8.055 52.75 4.621 7.55-1.496 11.664-2.734 19.125-5.757 3.898-1.582 13.914-7.114 15.64-8.641.286-.25.594-.457.688-.457.184 0 2.543-1.656 5.176-3.633 6.629-4.972 16.867-15.894 20.406-21.773.254-.422.867-1.38 1.356-2.121 2.582-3.903 6.543-11.258 7.593-14.098.254-.688.559-1.375.676-1.527.426-.543 2.746-7.32 3.574-10.442 4.621-17.379 4.625-34.383.004-51.812-.875-3.301-2.758-8.633-3.879-10.985-.265-.558-.484-1.109-.484-1.218 0-.23-2.723-5.68-4.125-8.266-1.578-2.898-5.93-9.52-7.79-11.855a496.604 496.604 0 0 1-2.1-2.645c-2.602-3.313-10.958-11.492-14.704-14.398-14.402-11.172-28.215-17.137-46.031-19.883-4.629-.711-19.14-1.094-22.875-.598M113.25 69c.54.277 1.969 1.316 3.18 2.313 1.207.996 2.644 2.14 3.195 2.546.55.403 1.73 1.329 2.625 2.055 4.68 3.809 13.086 10.34 13.336 10.363.16.02 3.156.012 6.664-.011 8.945-.063 17.32.668 22.625 1.964 4.305 1.055 5.066 1.258 7 1.864 13.652 4.265 23.063 11.804 26.418 21.156.941 2.621.867 9.39-.14 12.875-2.09 7.238-7.954 15.523-15.278 21.586-1.102.91-2.055 1.715-2.125 1.793-1.7 1.855-11.031 7.707-16.75 10.5-6.7 3.273-7.234 3.516-10.625 4.773-1.102.41-2.563.961-3.25 1.227-3.504 1.348-7.816 2.691-12.086 3.758-4.402 1.101-4.52 1.273-3.539 5.113.629 2.469.672 4.754.09 4.98-.512.196-.824-.011-4.758-3.156a709.332 709.332 0 0 0-4.984-3.945c-3.871-3.004-10.133-7.98-10.973-8.719-.273-.238-.895-.71-1.375-1.047l-.875-.613H104c-6.992 0-11.617-.25-16-.871-1.445-.203-2.926-.473-6.75-1.227-17.867-3.52-31.832-14.53-33.012-26.027-.3-2.95.063-8.05.676-9.488.211-.489.55-1.446.762-2.13 2.547-8.374 11.676-18.632 23.12-25.984a386.708 386.708 0 0 0 3.704-2.394c1.137-.766 6.68-3.754 8.418-4.535.937-.422 2.496-1.137 3.457-1.586 5.293-2.477 11.992-4.832 19.25-6.762 5.273-1.406 5.07-1.328 5.305-2.031.218-.664-.043-2.57-.805-5.84-.707-3.023-.555-3.355 1.125-2.5m28.043 30.258c-3.531.21-4.09.527-5.398 3.047-.356.687-1.247 2.164-1.973 3.285-1.54 2.363-5.723 9.265-6.61 10.91-3.507 6.484-4.398 6.324-5.69-1.016-.56-3.191-1.556-3.554-5.747-2.109-.55.188-1.45.414-2 .5-2.07.328-14.809 4.629-17.75 5.996-.414.192-2.324 1.055-4.25 1.918-19.605 8.809-24.66 19.363-11.375 23.766 5.11 1.691 8.426 2.062 18.375 2.058 11.02-.004 10.234.27 13.152-4.554.602-.996 1.403-2.293 1.778-2.875.37-.582.922-1.508 1.218-2.059.301-.55.625-1.055.727-1.125s.43-.574.727-1.125c2.093-3.836 5.738-9.5 6.488-10.082l.75-.578.398.61c.223.335.684 1.78 1.028 3.206 1.379 5.719 1.129 5.5 5.12 4.473 7.727-1.992 11.555-3.168 16.755-5.137 1.297-.492 2.808-1.043 3.359-1.219 2.004-.648 11.355-5.191 13.043-6.335.39-.262 1.371-.918 2.184-1.454s1.601-1.09 1.753-1.23c.153-.14.778-.7 1.395-1.242 13.063-11.563.984-19.313-27.457-17.63"/></g></svg>