<svg xmlns="http://www.w3.org/2000/svg" width="250" height="250"><path fill="#0050ff" d="M204.371 125c19.024-20.23 29.441-46.324 29.441-74.254 0-7.328-.824-14.894-2.445-22.488l-1.683-7.895-7.895-1.687c-7.59-1.621-15.156-2.446-22.496-2.446-27.145 0-52.547 9.844-72.531 27.86-.38.355-1.555 1.426-1.762 1.617-20.242-19.047-46.348-29.48-74.293-29.48-7.32 0-14.89.824-22.492 2.449l-7.899 1.687-1.683 7.895c-1.621 7.601-2.445 15.168-2.445 22.488 0 27.93 10.417 54.02 29.44 74.25h-.003C26.602 145.23 16.184 171.32 16.184 199.25c0 7.328.824 14.895 2.445 22.488l1.683 7.895 7.899 1.687c7.586 1.621 15.156 2.446 22.492 2.446 27.145 0 52.55-9.844 72.531-27.86.38-.351 1.555-1.426 1.762-1.617 20.242 19.05 46.352 29.48 74.293 29.48 7.324 0 14.89-.824 22.492-2.449l7.895-1.687 1.687-7.895c1.621-7.601 2.442-15.168 2.442-22.484.004-27.93-10.414-54.02-29.434-74.254zm4.52 74.254c0 2.957-.18 5.988-.54 9.059-3.07.355-6.097.539-9.058.539-22.117 0-42.75-8.489-58.54-23.961 6.142-9.586 10.79-20.028 13.63-31.07l-24.133-6.208c-3.805 14.778-11.758 28.262-22.977 39.13-15.515 14.284-35.363 22.105-56.57 22.105-2.965 0-5.992-.18-9.062-.536a78.855 78.855 0 0 1-.536-9.062c0-23.363 9.461-45.086 26.637-61.172l13.094-13.082-13.094-13.082C50.566 95.832 41.105 74.11 41.105 50.742c0-2.96.18-5.992.54-9.058 3.07-.36 6.097-.54 9.058-.54 22.117 0 42.75 8.485 58.54 23.961-6.141 9.582-10.79 20.028-13.63 31.067l24.133 6.21c3.809-14.78 11.758-28.265 22.98-39.128 15.512-14.29 35.36-22.106 56.567-22.106 2.965 0 5.992.176 9.062.536.356 3.066.536 6.093.536 9.062 0 23.363-9.457 45.086-26.633 61.168l-13.098 13.082 13.098 13.082c17.176 16.086 26.633 37.813 26.633 61.176zm0 0"/></svg>