<svg xmlns="http://www.w3.org/2000/svg" width="250" height="250"><path fill="#ecfaf6" d="M250 125c0 69.035-55.965 125-125 125S0 194.035 0 125 55.965 0 125 0s125 55.965 125 125zm0 0"/><path fill="#00d9a1" fill-rule="evenodd" d="M125 249.219c68.605 0 124.219-55.614 124.219-124.219S193.605.781 125 .781.781 56.395.781 125 56.395 249.219 125 249.219zm0 .781c69.035 0 125-55.965 125-125S194.035 0 125 0 0 55.965 0 125s55.965 125 125 125zm0 0"/><path fill="#00d9a1" d="M242.188 125c0 64.723-52.465 117.188-117.188 117.188S7.812 189.722 7.812 125 60.278 7.812 125 7.812 242.188 60.278 242.188 125zm0 0"/><g fill="#fff"><path fill-rule="evenodd" d="M125 239.844c63.426 0 114.844-51.418 114.844-114.844S188.426 10.156 125 10.156 10.156 61.574 10.156 125 61.574 239.844 125 239.844zm0 2.344c64.723 0 117.188-52.465 117.188-117.188S189.722 7.812 125 7.812 7.812 60.278 7.812 125 60.278 242.188 125 242.188zm0 0"/><path fill-rule="evenodd" d="M59.016 58.348c9.48 0 17.164 7.687 17.164 17.168v58.754c0 27.023 21.906 48.93 48.93 48.93s48.93-21.907 48.93-48.93V75.516c0-9.48 7.687-17.168 17.167-17.168v75.922c0 36.503-29.594 66.097-66.098 66.097s-66.093-29.594-66.093-66.097zm0 0"/><path fill-rule="evenodd" d="M88.527 86.215c7.817 0 14.153 6.336 14.153 14.152v2.336a36.398 36.398 0 0 1 22.406-7.668c20.191 0 36.562 16.367 36.562 36.559s-16.37 36.558-36.562 36.558c-20.191 0-36.559-16.367-36.559-36.558 0-.387.004-.77.02-1.156h-.02zm14.153 45.379c0 12.375 10.03 22.406 22.406 22.406 12.379 0 22.41-10.031 22.41-22.406s-10.035-22.406-22.41-22.406-22.406 10.03-22.406 22.406zm0 0"/><path d="M162.344 81.387c0 4.652-3.77 8.422-8.422 8.422s-8.426-3.77-8.426-8.422c0-4.653 3.774-8.426 8.426-8.426s8.422 3.773 8.422 8.426zm0 0"/></g></svg>