<svg xmlns="http://www.w3.org/2000/svg" width="250" height="250"><linearGradient id="a" x1="7.665" x2="245.873" y1="243.816" y2="5.608" gradientUnits="userSpaceOnUse"><stop offset="0" stop-color="#e71d73"/><stop offset=".3" stop-color="#2d2e83"/><stop offset=".64" stop-color="#00a19a"/><stop offset=".9" stop-color="#95c11f"/><stop offset="1" stop-color="#fcea10"/></linearGradient><path fill="url(#a)" d="M245.871 124.71c0 65.782-53.324 119.106-119.101 119.106-65.782 0-119.106-53.324-119.106-119.105C7.664 58.934 60.988 5.605 126.77 5.605c65.777 0 119.101 53.329 119.101 119.106zm0 0"/><g fill="#fff"><path d="m175.117 65.793-13.523-13.606h-43.66v87.84H96.105V65.34H78.418v78.851l13.527 13.54h30.149l13.136-13.149h26.364l13.523-13.539v-27.805l-4.797-4.687 4.797-4.805zm-39.5 4.098h21.82v19.687h-21.82zm21.899 56.988h-21.899v-19.692h21.899zM61.371 195.348c-1.21-1.25-1.82-3.196-1.82-5.832v-11.739h2.734v12.012c0 1.781.375 3.078 1.125 3.89.746.817 1.926 1.223 3.54 1.223 1.605 0 2.784-.406 3.534-1.222.754-.813 1.13-2.11 1.125-3.89v-12.013h2.684v11.739c0 2.644-.594 4.593-1.773 5.84-1.184 1.25-3.04 1.874-5.563 1.878-2.543-.007-4.406-.636-5.586-1.886zM90.547 177.777h2.613v19.457h-2.805l-9.918-15.21v15.21h-2.605v-19.457h2.809l9.914 15.211zM97.29 197.234v-19.457h2.944v19.457zM116.36 188.762a4.67 4.67 0 0 1 .972 3.058 4.963 4.963 0 0 1-.871 2.989 5.344 5.344 0 0 1-2.785 1.808 16.888 16.888 0 0 1-5.004.61 39.518 39.518 0 0 1-4.899-.32v-18.579a27.43 27.43 0 0 1 5.504-.55c2.606 0 4.512.417 5.723 1.261 1.207.84 1.809 2.129 1.805 3.875a4.571 4.571 0 0 1-.813 2.73 4.111 4.111 0 0 1-2.445 1.551 4.615 4.615 0 0 1 2.812 1.567zm-9.93-8.621v6.086h3.437c1.54 0 2.649-.262 3.328-.774a2.835 2.835 0 0 0 1.004-2.395 3.241 3.241 0 0 0-.46-1.831 2.671 2.671 0 0 0-1.505-1.004 9.071 9.071 0 0 0-2.71-.332 17.493 17.493 0 0 0-3.094.25zm6.12 14.629a3.081 3.081 0 0 0 1.712-1.122c.363-.574.535-1.25.5-1.93a2.937 2.937 0 0 0-1.09-2.542c-.727-.543-1.875-.817-3.45-.817h-3.808v6.614a22.1 22.1 0 0 0 2.875.172c1.098.035 2.2-.09 3.262-.375zM131.973 197.234l-5.653-7.687h-.793c-.71 0-1.543-.031-2.5-.094v7.766h-2.746v-18.883c1.781-.363 3.59-.55 5.406-.559 2.633 0 4.59.477 5.872 1.426 1.277.95 1.918 2.422 1.918 4.414a5.411 5.411 0 0 1-1.133 3.555 6.213 6.213 0 0 1-3.348 1.969l6.027 8.093zm-8.946-9.937c.93.078 1.774.117 2.543.117 1.844 0 3.203-.305 4.067-.906.863-.606 1.281-1.567 1.281-2.863a3.991 3.991 0 0 0-.512-2.153 2.966 2.966 0 0 0-1.61-1.207 8.52 8.52 0 0 0-2.82-.387c-.507-.003-1.019.02-1.527.067-.441.039-.918.105-1.422.191zM137.383 197.234v-19.457h2.949v19.457zM158.02 187.813v9.035c-1.48.25-2.98.379-4.485.386-3.43 0-5.996-.785-7.707-2.351-1.707-1.57-2.555-4.008-2.55-7.309 0-3.32.85-5.781 2.55-7.387 1.703-1.605 4.152-2.41 7.352-2.41 1.468 0 2.933.18 4.355.536v2.332a16.138 16.138 0 0 0-4.144-.543 9.399 9.399 0 0 0-3.98.742 5.108 5.108 0 0 0-2.434 2.398 9.826 9.826 0 0 0-.832 4.356 9.554 9.554 0 0 0 .8 4.207 5.037 5.037 0 0 0 2.399 2.39 9.24 9.24 0 0 0 4 .754c.699.004 1.398-.031 2.094-.105v-7.024zM161.555 197.234v-19.457h2.824v8.243h9.691v-8.243h2.817v19.457h-2.817v-8.722h-9.691v8.722zM184.941 197.234v-17.078h-6.285v-2.379h15.328v2.38h-6.297v17.077zm0 0"/></g></svg>