<svg width="252" height="250" viewBox="0 0 252 250" fill="none" xmlns="http://www.w3.org/2000/svg">
<circle cx="125" cy="125" r="125" fill="white"/>
<path fill-rule="evenodd" clip-rule="evenodd" d="M153.676 150.249H145.191C143.597 150.249 142.305 148.96 142.305 147.372V125.012L127.411 134.324C126.162 135.106 124.573 135.106 123.323 134.324L108.429 125.011V147.372C108.429 148.96 107.137 150.249 105.544 150.249H97.059C95.4642 150.249 94.1733 148.96 94.1733 147.372V104.276C94.1733 101.19 97.6419 99.3673 100.195 101.112L123.737 117.192C124.719 117.864 126.016 117.864 126.999 117.192L150.539 101.112C153.093 99.3664 156.561 101.189 156.561 104.275V147.372C156.561 148.96 155.27 150.249 153.676 150.249Z" fill="#FF4A4A"/>
<path fill-rule="evenodd" clip-rule="evenodd" d="M81.3921 149.865L28.8292 149.864C26.7145 149.864 25 148.153 25 146.044V102.865C25 101.283 26.2856 100 27.8719 100H36.3161C37.9014 100 39.188 101.283 39.188 102.865V135.71L71.0332 135.711V102.865C71.0332 101.283 72.3179 100 73.9051 100H82.3494C83.9346 100 85.2212 101.283 85.2212 102.865V146.045C85.2212 148.154 83.5067 149.865 81.3921 149.865Z" fill="#FF4A4A"/>
<path fill-rule="evenodd" clip-rule="evenodd" d="M169.218 100L221.78 100.001C223.895 100.001 225.61 101.711 225.61 103.821V147C225.61 148.582 224.323 149.865 222.738 149.865H214.293C212.707 149.865 211.422 148.582 211.422 147V116.065C211.422 115.011 210.564 114.155 209.507 114.155L181.491 114.154C180.434 114.154 179.576 115.009 179.576 116.064V147C179.576 148.582 178.291 149.865 176.705 149.865H168.26C166.674 149.865 165.388 148.582 165.388 147V103.82C165.388 101.71 167.103 100 169.218 100Z" fill="#FF4A4A"/>
<path fill-rule="evenodd" clip-rule="evenodd" d="M188.403 126.244V134.744C188.403 136.316 189.69 137.59 191.277 137.59H199.721C201.308 137.59 202.595 136.316 202.595 134.744V126.244C202.595 124.672 201.308 123.398 199.721 123.398H191.277C189.69 123.398 188.403 124.672 188.403 126.244Z" fill="#FF4A4A"/>
</svg>
