<svg xmlns="http://www.w3.org/2000/svg" width="250" height="250"><path fill="#fff" d="M250 125c0 69.035-55.965 125-125 125S0 194.035 0 125 55.965 0 125 0s125 55.965 125 125zm0 0"/><g fill="#ff007a"><path d="M125 250c-8.46.004-16.902-.848-25.195-2.54a124.891 124.891 0 0 1-63.196-34.07A125.158 125.158 0 0 1 9.82 173.657a124.407 124.407 0 0 1-7.285-23.46 126.353 126.353 0 0 1 0-50.387 124.398 124.398 0 0 1 18.809-44.696A125.378 125.378 0 0 1 76.34 9.824 124.533 124.533 0 0 1 99.805 2.54a126.19 126.19 0 0 1 50.382 0 124.398 124.398 0 0 1 44.696 18.809 125.354 125.354 0 0 1 45.285 55 124.407 124.407 0 0 1 7.285 23.46 126.19 126.19 0 0 1 0 50.383 124.25 124.25 0 0 1-18.808 44.7 125.42 125.42 0 0 1-54.993 45.289 124.522 124.522 0 0 1-23.464 7.28A125.683 125.683 0 0 1 125 250zm0-247.07c-8.262 0-16.504.832-24.602 2.48a121.467 121.467 0 0 0-43.652 18.367 122.422 122.422 0 0 0-44.23 53.711 121.622 121.622 0 0 0-7.114 22.914 123.336 123.336 0 0 0 0 49.203 121.406 121.406 0 0 0 18.371 43.653 122.392 122.392 0 0 0 53.711 44.226 121.445 121.445 0 0 0 22.914 7.114 123.316 123.316 0 0 0 49.2 0 121.467 121.467 0 0 0 43.652-18.368 122.422 122.422 0 0 0 44.23-53.71 121.445 121.445 0 0 0 7.114-22.915 123.336 123.336 0 0 0 0-49.203 121.435 121.435 0 0 0-18.371-43.652 122.44 122.44 0 0 0-53.711-44.227 121.445 121.445 0 0 0-22.914-7.113A123.265 123.265 0 0 0 125 2.93zm0 0"/><path d="M96.84 57.29c-1.969-.306-2.05-.34-1.125-.49 2.972-.171 5.957.09 8.855.782 6.739 1.602 12.88 5.711 19.434 13.004l1.738 1.937 2.488-.402a52.542 52.542 0 0 1 30.079 3.777 38.892 38.892 0 0 1 6.808 3.973c.324.848.535 1.738.63 2.645.663 4.394.331 7.757-1.013 10.273-.73 1.367-.773 1.805-.28 2.977a2.88 2.88 0 0 0 2.57 1.625c2.218 0 4.605-3.59 5.71-8.575l.438-1.984.871.988c4.773 5.407 8.523 12.782 9.168 18.032l.168 1.367-.8-1.242a15.389 15.389 0 0 0-4.548-4.778c-3.203-2.117-6.59-2.84-15.558-3.312-8.098-.426-12.684-1.117-17.227-2.602-7.734-2.52-11.633-5.879-20.82-17.933a87.807 87.807 0 0 0-9.11-10.7c-5.707-5.414-11.308-8.25-18.476-9.363zm0 0"/><path d="M166.941 69.234c.036-2.785.602-5.539 1.668-8.113a8.897 8.897 0 0 1 .809-1.555c-.063.48-.188.954-.375 1.403a18.454 18.454 0 0 0-.34 8.3c.621 4.235.977 4.844 5.453 9.418 2.098 2.149 4.54 4.852 5.426 6.016l1.61 2.11-1.61-1.508a67.961 67.961 0 0 0-7.496-5.957c-.668-.344-.77-.34-1.184.07-.379.379-.46.95-.511 3.644-.082 4.2-.657 6.895-2.04 9.59-.746 1.457-.863 1.145-.187-.5.504-1.226.559-1.77.555-5.832-.012-8.168-.977-10.132-6.664-13.496-1.442-.851-3.817-2.082-5.274-2.734-.89-.356-1.75-.778-2.578-1.258 2.7.57 5.352 1.348 7.938 2.316 3.32 1.278 3.867 1.442 4.27 1.29.269-.098.401-.883.53-3.204zM100.664 83.215c-3.996-5.504-6.469-13.934-5.934-20.242l.165-1.953.91.164a22.82 22.82 0 0 1 6.03 2.246c3.786 2.3 5.423 5.324 7.09 13.097.49 2.274 1.13 4.852 1.427 5.723a38.41 38.41 0 0 0 3.722 6.813c1.051 1.535.352 2.261-1.969 2.05-3.543-.32-8.343-3.633-11.44-7.898zM162.102 124.16c-18.676-7.52-25.254-14.047-25.254-25.058-.04-.985 0-1.97.125-2.946.562.356 1.097.754 1.605 1.188 3.785 3.035 8.027 4.332 19.766 6.047 6.91 1.007 10.797 1.82 14.383 3.011 11.398 3.782 18.449 11.453 20.132 21.899a36.19 36.19 0 0 1-.586 11.73c-.628 2.371-2.539 6.64-3.043 6.805-.14.047-.277-.488-.312-1.223a15.149 15.149 0 0 0-5.504-10.605c-3.797-3.25-8.883-5.844-21.312-10.848zM148.984 127.285a32.53 32.53 0 0 0-.902-3.953l-.477-1.418.887.992a15.97 15.97 0 0 1 3.012 5.477c.625 1.789.695 2.32.691 5.226 0 2.852-.082 3.45-.66 5.059a15.968 15.968 0 0 1-3.941 6.27c-3.414 3.472-7.797 5.394-14.13 6.19-1.097.142-4.304.376-7.128.52-7.102.372-11.777 1.133-15.98 2.61a3.348 3.348 0 0 1-1.196.285c-.172-.168 2.688-1.875 5.05-3.012 3.333-1.605 6.65-2.48 14.08-3.719 3.67-.609 7.46-1.351 8.425-1.648 9.094-2.785 13.765-9.98 12.27-18.879zm0 0"/><path d="M157.547 142.488c-2.484-5.336-3.05-10.484-1.692-15.285.145-.516.38-.933.52-.933.465.168.902.406 1.3.703 1.141.77 3.438 2.066 9.548 5.398 7.62 4.156 11.968 7.375 14.925 11.05a24.056 24.056 0 0 1 4.961 11.36c.387 3.73.227 7.496-.468 11.18a27.762 27.762 0 0 1-13.606 18.05c-.64.368-1.305.7-1.988.985.164-.719.437-1.41.808-2.05a18.438 18.438 0 0 0 .817-14.598c-1.059-3.168-3.215-7.032-7.57-13.567-5.067-7.594-6.309-9.613-7.555-12.293zM87.398 171.266c6.934-5.852 15.555-10.008 23.41-11.286 4.051-.523 8.16-.363 12.16.473 5.024 1.285 9.516 4.164 11.856 7.598 2.281 3.351 3.262 6.273 4.281 12.777.407 2.563.844 5.14.977 5.723.77 3.37 2.258 6.066 4.102 7.418 2.937 2.148 7.992 2.281 12.96.344a6.465 6.465 0 0 1 1.63-.508c.18.18-2.325 1.855-4.09 2.734a13.894 13.894 0 0 1-6.778 1.649c-4.554 0-8.336-2.317-11.488-7.043a56.421 56.421 0 0 1-3.102-6.184c-3.328-7.598-4.976-9.91-8.84-12.445a11.4 11.4 0 0 0-10.972-.996 7.113 7.113 0 0 0-3.95 4.93 7.107 7.107 0 0 0 1.54 6.124 9.516 9.516 0 0 0 5.36 2.805 5.71 5.71 0 0 0 4.542-1.39 5.697 5.697 0 0 0 1.93-4.344c0-2.282-.88-3.586-3.086-4.583-3.016-1.363-6.258.231-6.246 3.063a2.539 2.539 0 0 0 1.746 2.516c.781.351.797.379.16.25-2.766-.575-3.418-3.914-1.188-6.13 2.672-2.66 8.204-1.488 10.094 2.15a9.373 9.373 0 0 1 .196 6.394c-1.555 4.101-6.09 6.265-10.692 5.09-3.133-.801-4.41-1.665-8.187-5.555-6.563-6.762-9.11-8.074-18.57-9.55l-1.817-.282zm0 0"/><path fill-rule="evenodd" d="M60.879 52.047c21.918 26.601 32.742 35.789 34.418 38.11 1.387 1.913.863 3.636-1.508 4.98a14.44 14.44 0 0 1-5.39 1.515 6.902 6.902 0 0 1-4.528-1.937c-.89-.844-4.484-6.211-12.785-19.094-6.348-9.855-11.668-18.027-11.813-18.164-.336-.316-.328-.305 11.164 20.262 7.215 12.91 9.653 17.48 9.653 18.086 0 1.242-.34 1.894-1.871 3.605-2.555 2.848-3.696 6.055-4.52 12.676-.922 7.422-3.52 12.672-10.719 21.648-4.214 5.258-4.906 6.22-5.968 8.34a15.39 15.39 0 0 0-1.856 7.531 23.402 23.402 0 0 0 1.239 9.266 33.149 33.149 0 0 0 4.492 8.887c2.191 3.398 3.457 5.922 3.457 6.91 0 .781.148.789 3.55.02 8.133-1.836 14.739-5.067 18.458-9.028 2.296-2.453 2.835-3.805 2.855-7.164.012-2.195-.066-2.656-.66-3.918-.965-2.058-2.727-3.77-6.606-6.418-5.078-3.476-7.25-6.273-7.851-10.117-.488-3.156.082-5.383 2.89-11.277 2.91-6.098 3.633-8.696 4.122-14.84.312-3.973.75-5.54 1.89-6.797 1.192-1.313 2.262-1.758 5.207-2.156 4.801-.657 7.86-1.899 10.375-4.215a9.019 9.019 0 0 0 3.23-6.86l.11-2.21-1.219-1.418C96.27 83.12 57.925 48 57.652 48c-.058 0 1.395 1.824 3.227 4.047zm5.937 101.582a3.904 3.904 0 0 0-1.199-5.145c-1.578-1.05-4.027-.558-4.027.809 0 .418.23.723.75.988.879.45.937.957.25 1.992-.688 1.036-.64 1.97.156 2.594 1.29 1.008 3.113.457 4.07-1.238zM104.93 104.125a8.47 8.47 0 0 0-5.121 5.586c-.414 1.531-.18 4.21.441 5.039 1 1.336 1.969 1.688 4.59 1.672 5.133-.04 9.594-2.238 10.113-4.992.426-2.254-1.535-5.383-4.234-6.754a10.052 10.052 0 0 0-5.79-.551zm6.004 4.688c.789-1.126.445-2.344-.903-3.16-2.562-1.563-6.445-.27-6.445 2.148 0 1.207 2.023 2.52 3.875 2.52a5.018 5.018 0 0 0 3.473-1.5zm0 0"/></g></svg>