<svg xmlns="http://www.w3.org/2000/svg" width="250" height="250"><linearGradient id="a" x1="60.198" x2="249.161" y1="0" y2="43.772" gradientUnits="userSpaceOnUse"><stop offset="0" stop-color="#2e73ff"/><stop offset=".894" stop-color="#184ce8"/></linearGradient><path fill="url(#a)" d="M248.82 124.41c0 68.711-55.699 124.41-124.41 124.41C55.7 248.82 0 193.121 0 124.41 0 55.7 55.7 0 124.41 0c68.711 0 124.41 55.7 124.41 124.41zm0 0"/><path fill="#fff" d="M153.121 187.89c-2.633-2.937-6.191-4.406-10.676-4.406-2.636 0-4.972.54-7.007 1.61-2 1.05-3.594 2.418-4.79 4.105v-5.37h-13.664v20.55c0 2.187-.578 3.906-1.73 5.16-1.16 1.25-2.73 1.875-4.719 1.875-1.941 0-3.5-.625-4.68-1.875-1.18-1.254-1.77-2.973-1.77-5.16v-20.55H90.564v22.26c0 5.052 1.308 9.048 3.917 11.985 2.614 2.934 6.184 4.403 10.715 4.403 2.637 0 4.973-.536 7.008-1.606 2.031-1.066 3.629-2.469 4.781-4.2v5.466h13.664V200.37c.18-1.621.739-2.934 1.672-3.945 1.153-1.25 2.746-1.88 4.782-1.88 1.941 0 3.492.63 4.648 1.88 1.156 1.254 1.734 2.969 1.734 5.156v20.555h13.594v-22.328c0-5.008-1.32-8.98-3.957-11.918zm0 0"/><path fill="#fff" fill-rule="evenodd" d="M210.793 179.754c10.25-15.965 16.195-34.961 16.195-55.344 0-56.656-45.925-102.582-102.582-102.582S21.824 67.754 21.824 124.41c0 20.563 6.047 39.711 16.465 55.762 21.398-10.645 52.309-17.328 86.676-17.328 33.918 0 64.465 6.511 85.828 16.91zm0 0"/><path fill="#2c2c2c" d="m126.148 50.457-9.222 5.324-25.133 14.582-9.223 5.325v50.46l9.223 5.32 25.363 14.583 9.223 5.324 9.223-5.324 24.898-14.582 9.227-5.32V75.686l-9.227-5.324-25.129-14.582zM101.016 115.5V86.336l25.132-14.582 25.13 14.582V115.5l-25.13 14.582zm0 0"/></svg>