<svg xmlns="http://www.w3.org/2000/svg" width="250" height="250"><linearGradient id="a" x1="60.198" x2="249.161" y1="0" y2="43.772" gradientUnits="userSpaceOnUse"><stop offset="0" stop-color="#2e73ff"/><stop offset=".894" stop-color="#184ce8"/></linearGradient><path fill="url(#a)" d="M248.82 124.41c0 68.711-55.699 124.41-124.41 124.41C55.7 248.82 0 193.121 0 124.41 0 55.7 55.7 0 124.41 0c68.711 0 124.41 55.7 124.41 124.41zm0 0"/><path fill="#fff" d="M153.121 187.89c-2.633-2.937-6.191-4.406-10.676-4.406-2.636 0-4.972.54-7.007 1.61-2 1.05-3.594 2.418-4.79 4.105v-5.37h-13.664v20.55c0 2.187-.578 3.906-1.73 5.16-1.16 1.25-2.73 1.875-4.719 1.875-1.941 0-3.5-.625-4.68-1.875-1.18-1.254-1.77-2.973-1.77-5.16v-20.55H90.564v22.26c0 5.052 1.308 9.048 3.917 11.985 2.614 2.934 6.184 4.403 10.715 4.403 2.637 0 4.973-.536 7.008-1.606 2.031-1.066 3.629-2.469 4.781-4.2v5.466h13.664V200.37c.18-1.621.739-2.934 1.672-3.945 1.153-1.25 2.746-1.88 4.782-1.88 1.941 0 3.492.63 4.648 1.88 1.156 1.254 1.734 2.969 1.734 5.156v20.555h13.594v-22.328c0-5.008-1.32-8.98-3.957-11.918zm0 0"/><path fill="#fff" fill-rule="evenodd" d="M210.793 179.754c10.25-15.965 16.195-34.961 16.195-55.344 0-56.656-45.925-102.582-102.582-102.582S21.824 67.754 21.824 124.41c0 20.563 6.047 39.711 16.465 55.762 21.398-10.645 52.309-17.328 86.676-17.328 33.918 0 64.465 6.511 85.828 16.91zm0 0"/><g fill="#2c2c2c"><path d="M141.691 108.133c0-9.625-5.5-12.871-16.132-14.426-7.864-1.207-9.371-3.176-9.371-7.082 0-3.902 2.656-6.336 7.742-6.336 4.632 0 7.304 1.719 8.402 5.691.117.434.363.82.7 1.094.335.274.75.426 1.171.434h4.067c.265.004.53-.051.773-.168.242-.113.457-.285.633-.5.172-.211.3-.465.37-.738.071-.27.087-.559.044-.836-1.29-6.286-5.266-10.067-11.5-11.25v-6.63c0-.546-.203-1.07-.567-1.456a1.88 1.88 0 0 0-1.37-.606h-3.872c-.511 0-1.004.219-1.367.606-.363.386-.566.91-.566 1.457v6.394c-7.746 1.156-12.637 6.602-12.637 13.59 0 9.031 5.16 12.54 15.953 14.094 7.344 1.277 9.434 2.969 9.434 7.414 0 4.441-3.551 7.426-8.559 7.426-6.75 0-9.031-3.153-9.793-7.235a2.134 2.134 0 0 0-.672-1.195 1.88 1.88 0 0 0-1.226-.484h-4.414c-.266 0-.524.058-.766.175a1.87 1.87 0 0 0-.621.5 1.958 1.958 0 0 0-.367.739c-.07.27-.086.55-.04.828 1.122 6.875 5.266 11.91 13.708 13.12v6.517c0 .546.203 1.074.566 1.46.363.387.856.602 1.367.602h3.871c.516 0 1.008-.215 1.371-.602.364-.386.567-.914.567-1.46v-6.516c8.004-1.348 13.101-7.234 13.101-14.621zm0 0"/><path d="M111.602 135.637c-8.051-2.793-15.004-7.871-19.915-14.543-4.91-6.676-7.546-14.621-7.546-22.766 0-8.14 2.636-16.09 7.546-22.762s11.864-11.75 19.915-14.543a2.974 2.974 0 0 0 1.273-1.007c.32-.442.5-.961.523-1.496v-3.708c.032-.328-.023-.656-.168-.957s-.367-.558-.652-.753a2.067 2.067 0 0 0-1.965-.18c-10.14 3.07-18.984 9.121-25.265 17.285-6.278 8.164-9.66 18.012-9.66 28.121 0 10.113 3.382 19.961 9.66 28.125 6.28 8.16 15.125 14.215 25.265 17.285a2.045 2.045 0 0 0 1.965-.184c.285-.19.508-.449.652-.75.145-.3.2-.632.168-.96v-3.707a2.737 2.737 0 0 0-.523-1.492 2.945 2.945 0 0 0-1.273-1.008zM138.195 52.922a2.08 2.08 0 0 0-1.011-.16 2.033 2.033 0 0 0-.957.34 1.912 1.912 0 0 0-.649.753 1.76 1.76 0 0 0-.168.958v3.707c.02.535.203 1.054.52 1.496.316.441.757.793 1.277 1.007 8.047 2.793 15 7.872 19.91 14.543 4.914 6.672 7.547 14.621 7.547 22.762 0 8.145-2.633 16.09-7.547 22.766-4.91 6.672-11.863 11.75-19.91 14.543a2.757 2.757 0 0 0-1.312.98c-.325.45-.493.98-.485 1.52v3.707c-.035.328.024.66.168.96.14.301.367.56.649.75.28.192.613.313.957.344a2.08 2.08 0 0 0 1.011-.16c10.137-3.07 18.985-9.125 25.262-17.289 6.277-8.16 9.66-18.008 9.66-28.12 0-10.11-3.383-19.958-9.66-28.122-6.277-8.164-15.125-14.215-25.262-17.285zm0 0"/></g></svg>