<svg xmlns="http://www.w3.org/2000/svg" width="250" height="250"><linearGradient id="a" x1="60.198" x2="249.161" y1="0" y2="43.772" gradientUnits="userSpaceOnUse"><stop offset="0" stop-color="#2e73ff"/><stop offset=".894" stop-color="#184ce8"/></linearGradient><path fill="url(#a)" d="M248.82 124.41c0 68.711-55.699 124.41-124.41 124.41C55.7 248.82 0 193.121 0 124.41 0 55.7 55.7 0 124.41 0c68.711 0 124.41 55.7 124.41 124.41zm0 0"/><path fill="#fff" d="M153.121 187.89c-2.633-2.937-6.191-4.406-10.676-4.406-2.636 0-4.972.54-7.007 1.61-2 1.05-3.594 2.418-4.79 4.105v-5.37h-13.664v20.55c0 2.187-.578 3.906-1.73 5.16-1.16 1.25-2.73 1.875-4.719 1.875-1.941 0-3.5-.625-4.68-1.875-1.18-1.254-1.77-2.973-1.77-5.16v-20.55H90.564v22.26c0 5.052 1.308 9.048 3.917 11.985 2.614 2.934 6.184 4.403 10.715 4.403 2.637 0 4.973-.536 7.008-1.606 2.031-1.066 3.629-2.469 4.781-4.2v5.466h13.664V200.37c.18-1.621.739-2.934 1.672-3.945 1.153-1.25 2.746-1.88 4.782-1.88 1.941 0 3.492.63 4.648 1.88 1.156 1.254 1.734 2.969 1.734 5.156v20.555h13.594v-22.328c0-5.008-1.32-8.98-3.957-11.918zm0 0"/><path fill="#fff" fill-rule="evenodd" d="M210.793 179.754c10.25-15.965 16.195-34.961 16.195-55.344 0-56.656-45.925-102.582-102.582-102.582S21.824 67.754 21.824 124.41c0 20.563 6.047 39.711 16.465 55.762 21.398-10.645 52.309-17.328 86.676-17.328 33.918 0 64.465 6.511 85.828 16.91zm0 0"/><g fill="#2c2c2c"><path d="m155.895 66.797-2.739 2.738a38.743 38.743 0 0 1 10.156 26.153 38.746 38.746 0 0 1-10.156 26.156l2.739 2.738a42.675 42.675 0 0 0 0-57.848zM98.32 67.035a38.753 38.753 0 0 1 52.309 0l2.738-2.738a42.662 42.662 0 0 0-57.848 0zM95.762 121.871a38.774 38.774 0 0 1-10.145-26.14c0-9.676 3.621-19 10.145-26.141l-2.739-2.738a42.668 42.668 0 0 0-11.296 28.925A42.666 42.666 0 0 0 93.023 124.7zM150.602 124.398a38.755 38.755 0 0 1-52.309 0l-2.738 2.739a42.675 42.675 0 0 0 57.848 0zM141.727 86.59c-.547-5.711-5.473-7.63-11.707-8.211v-7.867h-4.817v7.718h-3.851v-7.718h-4.786v7.922h-9.773v5.156s3.562-.067 3.508 0c.64-.07 1.285.11 1.793.504.511.394.851.972.941 1.613v21.68c-.012.226-.07.445-.172.648a1.646 1.646 0 0 1-.41.531 1.664 1.664 0 0 1-1.242.418c.066.055-3.504 0-3.504 0l-.914 5.758h9.684v8.051h4.82v-7.93h3.851v7.895h4.825v-7.961c8.14-.492 13.816-2.5 14.53-10.117.575-6.133-2.308-8.871-6.917-9.977 2.8-1.379 4.535-3.933 4.14-8.113zm-6.75 17.14c0 5.985-10.258 5.301-13.528 5.301v-10.62c3.27.007 13.528-.934 13.528 5.32zm-2.239-14.968c0 5.476-8.558 4.808-11.277 4.808v-9.652c2.719 0 11.277-.86 11.277 4.844zm0 0"/><path d="M124.45 145.578a49.836 49.836 0 0 1-27.696-8.406A49.823 49.823 0 0 1 78.398 114.8a49.844 49.844 0 0 1 10.809-54.328 49.842 49.842 0 0 1 54.324-10.809 49.862 49.862 0 0 1 30.781 46.05c0 6.552-1.289 13.036-3.792 19.087a49.884 49.884 0 0 1-10.81 16.176 49.818 49.818 0 0 1-16.179 10.808 49.76 49.76 0 0 1-19.082 3.793zm0-95.82A45.949 45.949 0 0 0 82.035 78.14a45.908 45.908 0 0 0-2.602 26.535 45.934 45.934 0 0 0 62.629 33.465c8.39-3.473 15.566-9.36 20.613-16.91s7.746-16.43 7.75-25.516a46.015 46.015 0 0 0-3.496-17.594 45.959 45.959 0 0 0-24.887-24.875 46.008 46.008 0 0 0-17.594-3.488zm0 0"/></g></svg>