<svg xmlns="http://www.w3.org/2000/svg" width="250" height="250"><linearGradient id="a" x1="60.198" x2="249.161" y1="0" y2="43.772" gradientUnits="userSpaceOnUse"><stop offset="0" stop-color="#2e73ff"/><stop offset=".894" stop-color="#184ce8"/></linearGradient><path fill="url(#a)" d="M248.82 124.41c0 68.711-55.699 124.41-124.41 124.41C55.7 248.82 0 193.121 0 124.41 0 55.7 55.7 0 124.41 0c68.711 0 124.41 55.7 124.41 124.41zm0 0"/><path fill="#fff" d="M153.121 187.89c-2.633-2.937-6.191-4.406-10.676-4.406-2.636 0-4.972.54-7.007 1.61-2 1.05-3.594 2.418-4.79 4.105v-5.37h-13.664v20.55c0 2.187-.578 3.906-1.73 5.16-1.16 1.25-2.73 1.875-4.719 1.875-1.941 0-3.5-.625-4.68-1.875-1.18-1.254-1.77-2.973-1.77-5.16v-20.55H90.564v22.26c0 5.052 1.308 9.048 3.917 11.985 2.614 2.934 6.184 4.403 10.715 4.403 2.637 0 4.973-.536 7.008-1.606 2.031-1.066 3.629-2.469 4.781-4.2v5.466h13.664V200.37c.18-1.621.739-2.934 1.672-3.945 1.153-1.25 2.746-1.88 4.782-1.88 1.941 0 3.492.63 4.648 1.88 1.156 1.254 1.734 2.969 1.734 5.156v20.555h13.594v-22.328c0-5.008-1.32-8.98-3.957-11.918zm0 0"/><path fill="#fff" fill-rule="evenodd" d="M210.793 179.754c10.25-15.965 16.195-34.961 16.195-55.344 0-56.656-45.925-102.582-102.582-102.582S21.824 67.754 21.824 124.41c0 20.563 6.047 39.711 16.465 55.762 21.398-10.645 52.309-17.328 86.676-17.328 33.918 0 64.465 6.511 85.828 16.91zm0 0"/><g fill="#2c2c2c"><path fill-rule="evenodd" d="M120.469 66.621h6.789v61.395h-6.79zm0 0"/><path d="m153.895 78.816-8.797 2.836c1.699-4.289 1.882-9.011 1.882-9.597v-.094c0-13.117-10.68-23.797-23.796-23.797-13.118 0-23.797 10.68-23.797 23.797 0 7.902 3.89 15.25 10.433 19.695l7.563 5.555v-8.426l-3.613-2.656-.09-.063a17.04 17.04 0 0 1-7.504-14.105c0-9.383 7.625-17.004 17.008-17.004 9.351 0 16.976 7.59 17.007 16.977-.062 1.293-.402 4.75-1.48 7.406l-2.777-9.938-6.547 1.82 5.836 20.774 20.742-6.7zM134.695 101.5l-4.351-3.21v8.429l.37.277.032.031c6.293 4.504 9.473 9.782 9.473 15.68 0 9.383-7.621 17.004-17.004 17.004-9.387 0-17.008-7.621-17.008-17.004 0-3.121 1.266-6.547 2.992-9.324l1.543 11.547 6.73-.899-2.84-21.297-21.882 4.106 1.266 6.668 7.93-1.48a23.582 23.582 0 0 0-2.532 10.679c0 13.117 10.68 23.797 23.8 23.797 13.118 0 23.798-10.68 23.798-23.797-.032-8.09-4.293-15.434-12.317-21.207zm0 0"/></g></svg>