<?xml version="1.0" encoding="utf-8"?>
<!-- Generator: Adobe Illustrator 27.4.0, SVG Export Plug-In . SVG Version: 6.00 Build 0)  -->
<svg version="1.1" id="レイヤー_1" xmlns="http://www.w3.org/2000/svg" xmlns:xlink="http://www.w3.org/1999/xlink" x="0px"
	 y="0px" viewBox="0 0 150 150" style="enable-background:new 0 0 150 150;" xml:space="preserve">
<path d="M76.17,140.82c-28.22,0-53.27-17.94-62.34-44.65c-3.25-9.58-4.83-23.4,0.51-33.45c1.91-3.59,3.81-5.68,5.98-6.58
	c0.78-0.32,1.7-0.32,2.46,0.01c0.42,0.18,0.97,0.54,1.24,1.23c0.39,1.01,0.09,2.09-0.7,4.3c-0.29,0.81-0.58,1.64-0.83,2.55
	c-1.24,4.55-2.55,9.17-3.66,13.09L17.8,80.9c-2.3,8.47,0.32,13.17,2.92,15.62c1.64,1.55,4.5,2.8,6.8,2.99
	c4.01,0.32,7.88-1.2,11.12-4.28c0.53,0.68,1.1,1.25,1.67,1.73c1.72,1.46,3.96,2.36,6.3,2.55c0.36,0.03,0.71,0.04,1.06,0.04
	c1.02,0,2.02-0.13,3.01-0.36c-2.14,7.35-4.22,14.5-6.16,21.16l0.01,0h9.04c3.06-10.53,6.44-22.14,9.83-33.75
	c1.03-3.55,2.07-7.09,3.09-10.61c2.38-7.09,7.14-13.36,12.19-16.03c1.78-0.94,3.76-1.1,4.92-0.4c1.88,1.13,2.18,4.34,1.5,6.8
	c-0.85,3.08-3.1,6.14-6.87,9.34l-0.89,0.75c-1.98,1.65-4.22,3.52-5.87,6.11c-2.21,3.45-2.68,7.7-1.23,11.09
	c1.28,2.98,3.83,4.99,7.2,5.65c0.83,0.16,1.73,0.23,2.64,0.23c1.7,0,3.42-0.24,4.72-0.53c5.79-1.31,11.03-4.21,15.49-8.5
	c0.72,1.48,1.62,2.83,2.72,3.99c3.16,3.32,7.86,5.13,12.85,5.13c1.89,0,3.83-0.26,5.74-0.8c10.45-2.94,19.35-11.4,23.8-22.63
	c3.79-9.56,3.19-21.17-1.69-32.68c-0.02-0.05-0.05-0.1-0.07-0.15C131.4,17.31,104.92,0.49,76.17,0.49
	c-27.02,0-51.97,14.67-65.13,38.3h10.17c12.13-18.37,32.75-29.6,54.96-29.6c25.37,0,48.74,14.82,59.56,37.78
	c2.3,5.47,5.53,16.04,1.58,26.01c-3.46,8.73-10.21,15.25-18.07,17.47c-3.76,1.06-7.84,0.25-9.94-1.95c-2.11-2.22-2.41-5.76-2.3-8.33
	c0.3-6.56,3.25-13.03,8.1-17.73c2.01-1.95,3.83-3.05,5.57-3.36c1.52-0.27,3.09,0.31,3.47,1.01c0.26,0.47,0.25,1.32-0.03,2.2
	c-0.4,1.28-1.27,2.64-2.19,4.07h9.93c0.2-0.47,0.4-0.95,0.55-1.46c1.01-3.22,0.77-6.42-0.66-9.02c-2.26-4.07-7.44-6.27-12.59-5.36
	c-3.5,0.62-6.81,2.48-10.11,5.69c-6.31,6.13-10.19,14.53-10.7,23.13c-4.07,5.95-9.41,9.82-15.48,11.2c-1.29,0.29-2.98,0.4-3.76,0.25
	c-0.71-0.14-0.81-0.39-0.88-0.54c-0.26-0.62-0.16-1.87,0.56-2.99c0.93-1.45,2.48-2.75,4.12-4.12l0.95-0.79
	c5.14-4.37,8.29-8.84,9.62-13.66c1.57-5.69,0.5-13.03-5.42-16.57c-3.79-2.27-8.95-2.2-13.45,0.18c-0.5,0.26-0.98,0.55-1.46,0.84
	c0.2-0.69,0.4-1.38,0.6-2.06H64.7c-2.06,7.07-4.25,14.6-6.49,22.3c-0.02,0.06-0.05,0.13-0.07,0.19l0.01,0
	c-0.81,2.76-1.62,5.54-2.43,8.33c-0.34,0.73-0.66,1.46-0.95,2.18c-0.61,1.45-1.13,2.71-1.93,3.7c-0.99,1.24-3.01,3.27-5.54,3.08
	c-0.54-0.04-1.04-0.23-1.38-0.52c-1.37-1.16-1.59-3.54-0.65-7.06c2.18-7.45,4.47-15.37,6.63-22.8l2.72-9.39h-9.05l-2.02,6.98
	c-2.14,7.4-4.42,15.27-6.59,22.68c-0.02,0.06-0.04,0.12-0.05,0.18c-0.11,0.4-0.2,0.79-0.28,1.18c-0.28,0.61-0.56,1.22-0.82,1.82
	c-0.65,1.51-1.21,2.82-2.05,3.87c-0.99,1.23-3.06,3.26-5.53,3.08c-0.38-0.04-1.26-0.42-1.53-0.65c-1.26-1.19-1.43-3.55-0.51-6.95
	l1.01-3.53c1.13-3.94,2.44-8.6,3.69-13.2c0.16-0.59,0.39-1.23,0.63-1.92c0.93-2.62,2.2-6.2,0.62-10.32
	c-1.05-2.75-3.15-4.92-5.91-6.11c-2.91-1.25-6.26-1.28-9.21-0.06c-5.45,2.24-8.52,7.09-10.35,10.54
	C1.03,69.25,0.64,84.32,5.61,98.96c10.26,30.23,38.62,50.55,70.57,50.55c31.79,0,59.98-20.27,70.33-49.9h-9.28
	C127.32,124.21,103.22,140.82,76.17,140.82z"/>
</svg>
