<svg xmlns="http://www.w3.org/2000/svg" width="250" height="250"><linearGradient id="a" x1="48.675" x2="244.7" y1="182.6" y2="-32" gradientUnits="userSpaceOnUse"><stop offset="0" stop-color="#ad7c00"/><stop offset=".09" stop-color="#b08108"/><stop offset=".24" stop-color="#ba8f1c"/><stop offset=".41" stop-color="#c8a63e"/><stop offset=".51" stop-color="#d3b656"/><stop offset=".7" stop-color="#d4b859"/><stop offset=".83" stop-color="#d9bf62"/><stop offset=".95" stop-color="#e0cb72"/><stop offset="1" stop-color="#e5d37c"/></linearGradient><path fill="url(#a)" d="M177.79 14.46c-39.595-.003-71.696 32.087-71.704 71.677 0 .527-.16 83.113-.16 83.113-1.778 23-13.262 35.383-34.465 37.148-21.809-1.199-33.594-13.582-35.36-37.148V89.676c-.59-11.188-6.25-17.102-16.777-17.664C8.75 72.574 3.102 78.488 2.5 89.676v81.347c3.516 40.079 26.504 61.582 68.96 64.516 41.845-2.934 64.54-24.437 68.09-64.516V85.551c.329-21.047 17.602-37.871 38.65-37.649s37.956 17.407 37.843 38.453c-.11 21.047-17.207 38.047-38.254 38.043h-3.488c-8.625.75-15.246 7.97-15.246 16.625 0 8.66 6.62 15.88 15.246 16.625 0 0 3.086.165 3.488.165a71.688 71.688 0 1 0 0-143.363zm0 0"/></svg>