<svg xmlns="http://www.w3.org/2000/svg" width="250" height="250"><path fill="#216c58" stroke="#216c58" stroke-width="4.16666" d="M241.668 125c0 64.434-52.234 116.668-116.668 116.668S8.332 189.434 8.332 125 60.566 8.332 125 8.332 241.668 60.566 241.668 125zm0 0"/><path fill="#216c58" d="M233.332 125c0 59.832-48.5 108.332-108.332 108.332S16.668 184.832 16.668 125 65.168 16.668 125 16.668 233.332 65.168 233.332 125zm0 0"/><path fill="#216c58" d="M110.418 177.082h12.5v12.5h-12.5zM131.25 177.082h12.5v12.5h-12.5zm0 0"/><g fill="#fff"><path d="M89.582 47.918h79.168c2.3 0 4.168 1.863 4.168 4.164v2.086c0 2.3-1.867 4.164-4.168 4.164H89.582a4.163 4.163 0 0 1-4.164-4.164v-2.086c0-2.3 1.863-4.164 4.164-4.164zM125 62.5v141.668c0 2.3-1.867 4.164-4.168 4.164h-2.082a4.166 4.166 0 0 1-4.168-4.164V62.5zM141.668 62.5v141.668c0 2.3-1.867 4.164-4.168 4.164h-2.082a4.166 4.166 0 0 1-4.168-4.164V62.5zm0 0"/><path stroke="#216c58" stroke-width="4.16666" d="M116.11 97.77h.003l.02-.008c2.894-1.059 6.55-1.625 11.023-1.625 6.582 0 11.535 1.265 15.059 3.574 2.543 1.668 4.215 3.762 5.117 6.3.902 2.548 3.234 5.016 6.508 5.016h19.246c3.414 0 6.5-2.863 5.98-6.601-.804-5.758-2.98-10.953-6.511-15.551-4.418-5.754-10.555-10.184-18.313-13.332-7.734-3.16-16.715-4.711-26.89-4.711-10.008 0-19.02 1.555-26.997 4.703-7.968 3.14-14.34 7.555-19.02 13.29l-.003.007c-4.687 5.8-7 12.594-6.957 20.29-.043 9.429 3.473 17.073 10.559 22.71 6.886 5.473 16.152 9.41 27.675 11.906h.004l14.614 3.27.02.004c4.827 1.035 8.85 2.175 12.089 3.41l.008.004c3.238 1.219 5.508 2.636 6.965 4.164l.02.015c1.39 1.422 2.093 3.145 2.093 5.317 0 2.355-.785 4.418-2.426 6.265-1.676 1.891-4.113 3.454-7.457 4.614l-.004.004c-3.27 1.148-7.2 1.75-11.836 1.75-4.707 0-8.867-.637-12.5-1.871-3.554-1.262-6.308-3.079-8.351-5.407-1.301-1.539-2.239-3.336-2.801-5.425-.75-2.77-3.164-5.34-6.512-5.34H77.191c-3.457 0-6.476 2.89-6.05 6.582.82 7.082 3.183 13.25 7.136 18.43l.012.011c4.777 6.152 11.375 10.742 19.68 13.813l.004.004c8.328 3.062 18.027 4.566 29.054 4.566 11.106 0 20.703-1.484 28.739-4.516h.004c8.058-3.062 14.355-7.41 18.75-13.113 4.453-5.762 6.683-12.559 6.73-20.297v-.031c-.047-5.258-1.133-10.008-3.316-14.191-2.11-4.133-5.082-7.708-8.887-10.723-3.766-2.985-8.188-5.473-13.246-7.485-5.024-1.996-10.524-3.585-16.485-4.773l-12.054-2.566v-.004l-.028-.004a76.095 76.095 0 0 1-8.027-2.04c-2.46-.82-4.594-1.753-6.414-2.796-1.746-1.04-3.059-2.227-3.996-3.54-.805-1.183-1.207-2.593-1.137-4.327v-.086c0-2.07.656-3.903 2.012-5.559 1.41-1.668 3.508-3.058 6.437-4.097zm0 0"/><path d="M114.582 89.582H125v14.586h-10.418zM114.582 141.668H125v14.582h-10.418zM114.582 185.418H125V200h-10.418zM131.25 89.582h10.418v14.586H131.25zM131.25 141.668h10.418v14.582H131.25zM131.25 185.418h10.418V200H131.25zm0 0"/><path fill-rule="evenodd" d="M229.84 131.25c-1.653 0-3.016 1.297-3.164 2.945-4.649 52.07-48.395 92.887-101.676 92.887s-97.027-40.816-101.676-92.887c-.144-1.648-1.512-2.945-3.168-2.945-1.797 0-3.23 1.52-3.074 3.313 4.84 55.351 51.309 98.769 107.918 98.769s103.078-43.418 107.918-98.77c.156-1.792-1.277-3.312-3.078-3.312zm-209.684-12.5c1.657 0 3.024-1.297 3.168-2.945C27.973 63.735 71.72 22.918 125 22.918s97.027 40.816 101.676 92.887c.148 1.648 1.512 2.945 3.164 2.945 1.8 0 3.234-1.52 3.078-3.313-4.84-55.351-51.309-98.769-107.918-98.769S21.922 60.086 17.082 115.438c-.156 1.792 1.277 3.312 3.074 3.312zm0 0"/></g></svg>