<svg xmlns="http://www.w3.org/2000/svg" width="250" height="250"><linearGradient id="a" x1="-299.357" x2="189.166" y1="587.61" y2="99.087" gradientUnits="userSpaceOnUse"><stop offset=".84" stop-color="#8568c5"/><stop offset="1" stop-color="#783989"/></linearGradient><linearGradient id="b" x1="532.741" x2="110.442" y1="-236.742" y2="266.535" gradientUnits="userSpaceOnUse"><stop offset=".885" stop-color="#793e90"/><stop offset="1" stop-color="#783989"/></linearGradient><linearGradient id="c" x1="-93.774" x2="198.645" y1="473.26" y2="-33.225" gradientUnits="userSpaceOnUse"><stop offset=".557" stop-color="#8568c5"/><stop offset="1" stop-color="#783989"/></linearGradient><linearGradient id="d" x1="97.087" x2="153.525" y1="153.624" y2="97.186" gradientUnits="userSpaceOnUse"><stop offset=".067" stop-color="#8568c5"/><stop offset=".278" stop-color="#8055ad"/><stop offset=".518" stop-color="#7b4599"/><stop offset=".758" stop-color="#793c8d"/><stop offset="1" stop-color="#783989"/></linearGradient><path fill="url(#a)" d="M189.664 189.664c-17.277 17.274-40.238 26.774-64.664 26.774s-47.387-9.512-64.664-26.774C49.3 178.625 41.25 164.961 37.039 150.125H9.801C21.477 203.938 69.789 242.887 125 242.887s103.523-38.961 115.2-92.762h-27.24c-4.21 14.836-12.26 28.5-23.296 39.54zm0 0"/><path fill="url(#b)" d="M215.926 115.238c.347 3.25.512 6.535.512 9.762 0 3.238-.176 6.512-.512 9.762h26.562c.274-3.301.41-6.586.41-9.762s-.136-6.46-.41-9.762zm0 0"/><path fill="#8568c5" d="M33.563 125c0-3.227.175-6.512.511-9.762H7.512c-.274 3.285-.41 6.575-.41 9.762s.136 6.477.41 9.762h26.562a95.353 95.353 0 0 1-.511-9.762zm0 0"/><path fill="url(#c)" d="M60.336 60.336C77.613 43.074 100.574 33.563 125 33.563s47.387 9.511 64.664 26.789c11.035 11.023 19.086 24.687 23.297 39.523h27.238C228.523 46.062 180.211 7.113 125 7.113S21.477 46.063 9.8 99.875h27.24c4.21-14.836 12.26-28.488 23.296-39.54zm0 0"/><path fill="url(#d)" d="M128.977 176.887h-7.352c-1.71 0-2.574-.864-2.574-2.575v-9.425h-.864c-6.199 0-11.039-1.774-14.511-5.325-3.477-3.55-5.2-8.46-5.2-14.75v-2.324c0-1.715.848-2.574 2.575-2.574h10.398c1.715 0 2.574.86 2.574 2.574v.848c0 3.101.614 5.226 1.84 6.363 1.223 1.137 3.461 1.715 6.739 1.715h4.898c3.188 0 5.398-.613 6.676-1.84 1.262-1.222 1.898-3.512 1.898-6.847v-1.84c0-2.035-.613-3.625-1.836-4.774a9.666 9.666 0 0 0-4.289-2.324c-1.46-.328-4.347-.687-8.625-1.101-4.285-.415-7.488-.915-9.613-1.524-2.125-.613-4.285-1.652-6.484-3.125-4.579-2.937-6.852-8.687-6.852-17.266v-4.523c0-6.45 1.738-11.398 5.2-14.875 3.464-3.477 8.35-5.2 14.624-5.2h.864V76.5c0-1.71.863-2.574 2.574-2.574h7.351c1.711 0 2.575.863 2.575 2.574v9.676h.25c5.8 0 10.363 1.8 13.71 5.386 3.352 3.586 5.028 8.489 5.028 14.688v2.324c0 1.715-.863 2.574-2.574 2.574h-10.403c-1.71 0-2.574-.859-2.574-2.574v-.863c0-3.098-.586-5.223-1.773-6.36-1.188-1.14-3.454-1.714-6.801-1.714h-3.914c-3.348 0-5.614.636-6.801 1.902-1.188 1.262-1.773 3.734-1.773 7.41v2.45c0 1.8.613 3.203 1.835 4.226a9.416 9.416 0 0 0 4.165 2.023c1.8.329 4.835.676 9.124 1.04s7.512.898 9.676 1.585c2.16.688 4.301 1.778 6.426 3.25 4.324 3.102 6.484 8.653 6.484 16.653v4.648c0 6.363-1.773 11.313-5.324 14.813-3.55 3.511-8.387 5.261-14.512 5.261h-.25v9.426c-.011 1.7-.875 2.563-2.585 2.563zm0 0"/></svg>