<svg xmlns="http://www.w3.org/2000/svg" width="250" height="250"><g fill="#0e0d28" fill-rule="evenodd"><path d="M123.945.152h-8.675v57.172c16.527.38 33.035-.734 43.75.485l-.696 33.898s-33.875 1.828-47.879 1.992c-10.773.13-6.582 6.024-2.082 6.875 4.5.856 30.317 6.89 38.887 11.004s13.922 7.387 16.664 27.52c2.742 20.132-4.598 49.453-46.562 50.246h-2.082v60.469h8.675c69.614 0 126.043-55.899 126.043-124.848 0-68.953-56.43-124.848-126.043-124.848zm0 0"/><path d="m59.023 187.176 1.387-34.383s39.895 1.527 52.778-.617c9.011-1.188 4.164-5.504 4.164-5.504s-31.122-5.57-41.668-11c-10.543-5.43-22.563-16.281-16.028-51.848 3.399-18.285 22.383-25.41 43.75-26.441V.153H23.941C10.72.152 0 10.77 0 23.866v202.23c0 13.098 10.719 23.715 23.941 23.715h79.524v-60.574c-30.988-.925-44.442-2.062-44.442-2.062zm0 0"/></g></svg>