<svg xmlns="http://www.w3.org/2000/svg" xmlns:xlink="http://www.w3.org/1999/xlink" width="250" height="250"><filter id="a" width="100%" height="100%" x="0%" y="0%"><feColorMatrix in="SourceGraphic" values="0 0 0 0 1 0 0 0 0 1 0 0 0 0 1 0 0 0 1 0"/></filter><mask id="d"><g filter="url(#a)"><path fill-opacity=".3" d="M0 0h250v250H0z"/></g></mask><mask id="f"><g filter="url(#a)"><path fill-opacity=".063" d="M0 0h250v250H0z"/></g></mask><linearGradient id="g" x1="20.96" x2="79.11" y1="23.833" y2="23.833" gradientTransform="matrix(3.125 0 0 -3.125 0 256.25)" gradientUnits="userSpaceOnUse"><stop offset=".375" stop-opacity=".063"/><stop offset="1" stop-opacity="0"/></linearGradient><clipPath id="e"><path d="M0 0h250v250H0z"/></clipPath><mask id="i"><g filter="url(#a)"><path fill-opacity=".125" d="M0 0h250v250H0z"/></g></mask><linearGradient id="j" x1="20.95" x2="78.7" y1="23.979" y2="23.979" gradientTransform="matrix(3.125 0 0 -3.125 0 256.25)" gradientUnits="userSpaceOnUse"><stop offset=".375" stop-opacity=".125"/><stop offset="1" stop-opacity="0"/></linearGradient><clipPath id="h"><path d="M0 0h250v250H0z"/></clipPath><mask id="l"><g filter="url(#a)"><path fill-opacity=".188" d="M0 0h250v250H0z"/></g></mask><linearGradient id="m" x1="20.95" x2="78.31" y1="24.125" y2="24.125" gradientTransform="matrix(3.125 0 0 -3.125 0 256.25)" gradientUnits="userSpaceOnUse"><stop offset=".375" stop-opacity=".188"/><stop offset="1" stop-opacity="0"/></linearGradient><clipPath id="k"><path d="M0 0h250v250H0z"/></clipPath><mask id="o"><g filter="url(#a)"><path fill-opacity=".25" d="M0 0h250v250H0z"/></g></mask><linearGradient id="p" x1="20.95" x2="77.91" y1="24.268" y2="24.268" gradientTransform="matrix(3.125 0 0 -3.125 0 256.25)" gradientUnits="userSpaceOnUse"><stop offset=".375" stop-opacity=".25"/><stop offset="1" stop-opacity="0"/></linearGradient><clipPath id="n"><path d="M0 0h250v250H0z"/></clipPath><mask id="r"><g filter="url(#a)"><path fill-opacity=".313" d="M0 0h250v250H0z"/></g></mask><linearGradient id="s" x1="20.95" x2="77.52" y1="24.414" y2="24.414" gradientTransform="matrix(3.125 0 0 -3.125 0 256.25)" gradientUnits="userSpaceOnUse"><stop offset=".375" stop-opacity=".313"/><stop offset="1" stop-opacity="0"/></linearGradient><clipPath id="q"><path d="M0 0h250v250H0z"/></clipPath><mask id="u"><g filter="url(#a)"><path fill-opacity=".375" d="M0 0h250v250H0z"/></g></mask><linearGradient id="v" x1="20.95" x2="77.12" y1="24.557" y2="24.557" gradientTransform="matrix(3.125 0 0 -3.125 0 256.25)" gradientUnits="userSpaceOnUse"><stop offset=".375" stop-opacity=".375"/><stop offset="1" stop-opacity="0"/></linearGradient><clipPath id="t"><path d="M0 0h250v250H0z"/></clipPath><mask id="x"><g filter="url(#a)"><path fill-opacity=".438" d="M0 0h250v250H0z"/></g></mask><linearGradient id="y" x1="20.95" x2="76.73" y1="24.701" y2="24.701" gradientTransform="matrix(3.125 0 0 -3.125 0 256.25)" gradientUnits="userSpaceOnUse"><stop offset=".375" stop-opacity=".438"/><stop offset="1" stop-opacity="0"/></linearGradient><clipPath id="w"><path d="M0 0h250v250H0z"/></clipPath><mask id="A"><g filter="url(#a)"><path fill-opacity=".5" d="M0 0h250v250H0z"/></g></mask><linearGradient id="B" x1="20.95" x2="76.33" y1="24.836" y2="24.836" gradientTransform="matrix(3.125 0 0 -3.125 0 256.25)" gradientUnits="userSpaceOnUse"><stop offset=".375" stop-opacity=".5"/><stop offset="1" stop-opacity="0"/></linearGradient><clipPath id="z"><path d="M0 0h250v250H0z"/></clipPath><mask id="D"><g filter="url(#a)"><path fill-opacity=".563" d="M0 0h250v250H0z"/></g></mask><linearGradient id="E" x1="20.95" x2="75.94" y1="24.98" y2="24.98" gradientTransform="matrix(3.125 0 0 -3.125 0 256.25)" gradientUnits="userSpaceOnUse"><stop offset=".375" stop-opacity=".563"/><stop offset="1" stop-opacity="0"/></linearGradient><clipPath id="C"><path d="M0 0h250v250H0z"/></clipPath><mask id="G"><g filter="url(#a)"><path fill-opacity=".625" d="M0 0h250v250H0z"/></g></mask><linearGradient id="H" x1="20.95" x2="75.54" y1="25.123" y2="25.123" gradientTransform="matrix(3.125 0 0 -3.125 0 256.25)" gradientUnits="userSpaceOnUse"><stop offset=".375" stop-opacity=".625"/><stop offset="1" stop-opacity="0"/></linearGradient><clipPath id="F"><path d="M0 0h250v250H0z"/></clipPath><mask id="J"><g filter="url(#a)"><path fill-opacity=".688" d="M0 0h250v250H0z"/></g></mask><linearGradient id="K" x1="20.95" x2="75.14" y1="25.264" y2="25.264" gradientTransform="matrix(3.125 0 0 -3.125 0 256.25)" gradientUnits="userSpaceOnUse"><stop offset=".375" stop-opacity=".688"/><stop offset="1" stop-opacity="0"/></linearGradient><clipPath id="I"><path d="M0 0h250v250H0z"/></clipPath><mask id="M"><g filter="url(#a)"><path fill-opacity=".75" d="M0 0h250v250H0z"/></g></mask><linearGradient id="N" x1="20.95" x2="74.75" y1="25.409" y2="25.409" gradientTransform="matrix(3.125 0 0 -3.125 0 256.25)" gradientUnits="userSpaceOnUse"><stop offset=".375" stop-opacity=".75"/><stop offset="1" stop-opacity="0"/></linearGradient><clipPath id="L"><path d="M0 0h250v250H0z"/></clipPath><mask id="P"><g filter="url(#a)"><path fill-opacity=".813" d="M0 0h250v250H0z"/></g></mask><linearGradient id="Q" x1="20.95" x2="74.35" y1="25.553" y2="25.553" gradientTransform="matrix(3.125 0 0 -3.125 0 256.25)" gradientUnits="userSpaceOnUse"><stop offset=".375" stop-opacity=".813"/><stop offset="1" stop-opacity="0"/></linearGradient><clipPath id="O"><path d="M0 0h250v250H0z"/></clipPath><mask id="S"><g filter="url(#a)"><path fill-opacity=".875" d="M0 0h250v250H0z"/></g></mask><linearGradient id="T" x1="20.95" x2="73.96" y1="25.692" y2="25.692" gradientTransform="matrix(3.125 0 0 -3.125 0 256.25)" gradientUnits="userSpaceOnUse"><stop offset=".375" stop-opacity=".875"/><stop offset="1" stop-opacity="0"/></linearGradient><clipPath id="R"><path d="M0 0h250v250H0z"/></clipPath><mask id="V"><g filter="url(#a)"><path fill-opacity=".938" d="M0 0h250v250H0z"/></g></mask><linearGradient id="W" x1="20.95" x2="73.56" y1="25.829" y2="25.829" gradientTransform="matrix(3.125 0 0 -3.125 0 256.25)" gradientUnits="userSpaceOnUse"><stop offset=".375" stop-opacity=".938"/><stop offset="1" stop-opacity="0"/></linearGradient><clipPath id="U"><path d="M0 0h250v250H0z"/></clipPath><linearGradient id="X" x1="20.95" x2="73.17" y1="25.955" y2="25.955" gradientTransform="matrix(3.125 0 0 -3.125 0 256.25)" gradientUnits="userSpaceOnUse"><stop offset=".375"/><stop offset="1" stop-opacity="0"/></linearGradient><clipPath id="c"><path d="M0 0h250v250H0z"/></clipPath><linearGradient id="Y" x1="20.95" x2="73.17" y1="13.741" y2="13.741" gradientTransform="matrix(3.125 0 0 -3.125 0 256.25)" gradientUnits="userSpaceOnUse"><stop offset="0" stop-color="#600000"/><stop offset=".328" stop-color="#630000"/><stop offset=".591" stop-color="#6d0000"/><stop offset=".83" stop-color="#7e0000"/><stop offset="1" stop-color="#8f0000"/></linearGradient><linearGradient id="Z" x1="47.06" x2="47.06" y1="18.449" y2="9.024" gradientTransform="matrix(3.125 0 0 -3.125 0 256.25)" gradientUnits="userSpaceOnUse"><stop offset=".35" stop-color="#bf1010"/><stop offset=".645" stop-color="#bd1010"/><stop offset=".752" stop-color="#b60f0f"/><stop offset=".828" stop-color="#ab0d0d"/><stop offset=".889" stop-color="#9a0a0a"/><stop offset=".941" stop-color="#840606"/><stop offset=".987" stop-color="#690202"/><stop offset="1" stop-color="#600000"/></linearGradient><linearGradient id="aa" x1="20.95" x2="73.17" y1="29.594" y2="29.594" gradientTransform="matrix(3.125 0 0 -3.125 0 256.25)" gradientUnits="userSpaceOnUse"><stop offset="0" stop-color="#bf1010"/><stop offset=".021" stop-color="#c11212"/><stop offset=".243" stop-color="#d22323"/><stop offset=".487" stop-color="#dc2d2d"/><stop offset=".791" stop-color="#df3030"/><stop offset=".842" stop-color="#dc2e2e"/><stop offset=".882" stop-color="#d22626"/><stop offset=".919" stop-color="#c11919"/><stop offset=".954" stop-color="#a90808"/><stop offset=".966" stop-color="#9f0000"/><stop offset="1" stop-color="#df3030"/></linearGradient><linearGradient id="b"><stop offset="0" stop-color="#dfdfdf"/><stop offset=".021" stop-color="#e1e1e1"/><stop offset=".243" stop-color="#f2f2f2"/><stop offset=".487" stop-color="#fcfcfc"/><stop offset=".791" stop-color="#fff"/><stop offset=".842" stop-color="#fcfcfc"/><stop offset=".882" stop-color="#f2f2f2"/><stop offset=".919" stop-color="#e1e1e1"/><stop offset=".954" stop-color="#c9c9c9"/><stop offset=".966" stop-color="#bfbfbf"/><stop offset="1" stop-color="#fff"/></linearGradient><linearGradient xlink:href="#b" id="ab" x1="20.99" x2="73.21" y1="34.939" y2="34.939" gradientTransform="matrix(3.125 0 0 -3.125 0 256.25)" gradientUnits="userSpaceOnUse"/><linearGradient xlink:href="#b" id="ac" x1="20.93" x2="73.16" y1="21.542" y2="21.542" gradientTransform="matrix(3.125 0 0 -3.125 0 256.25)" gradientUnits="userSpaceOnUse"/><linearGradient xlink:href="#b" id="ad" x1="20.94" x2="73.16" y1="16.19" y2="16.19" gradientTransform="matrix(3.125 0 0 -3.125 0 256.25)" gradientUnits="userSpaceOnUse"/><linearGradient id="ae" x1="20.96" x2="73.18" y1="35.785" y2="35.785" gradientTransform="matrix(3.125 0 0 -3.125 0 256.25)" gradientUnits="userSpaceOnUse"><stop offset="0" stop-color="#00209f"/><stop offset=".021" stop-color="#0222a1"/><stop offset=".243" stop-color="#1333b2"/><stop offset=".487" stop-color="#1d3dbc"/><stop offset=".791" stop-color="#2040bf"/><stop offset=".842" stop-color="#1e3dbc"/><stop offset=".882" stop-color="#1933b2"/><stop offset=".919" stop-color="#1122a1"/><stop offset=".954" stop-color="#050a89"/><stop offset=".966" stop-color="#00007f"/><stop offset="1" stop-color="#2040bf"/></linearGradient><linearGradient xlink:href="#b" id="af" x1="20.953" x2="73.17" y1="42.395" y2="42.395" gradientTransform="matrix(3.125 0 0 -3.125 0 256.25)" gradientUnits="userSpaceOnUse"/><linearGradient xlink:href="#b" id="ag" x1="20.953" x2="73.167" y1="33.155" y2="33.155" gradientTransform="matrix(3.125 0 0 -3.125 0 256.25)" gradientUnits="userSpaceOnUse"/><linearGradient xlink:href="#b" id="ah" x1="20.953" x2="73.167" y1="29.425" y2="29.425" gradientTransform="matrix(3.125 0 0 -3.125 0 256.25)" gradientUnits="userSpaceOnUse"/><linearGradient xlink:href="#b" id="ai" x1="20.953" x2="73.17" y1="34.93" y2="34.93" gradientTransform="matrix(3.125 0 0 -3.125 0 256.25)" gradientUnits="userSpaceOnUse"/><linearGradient xlink:href="#b" id="aj" x1="20.953" x2="73.17" y1="31.185" y2="31.185" gradientTransform="matrix(3.125 0 0 -3.125 0 256.25)" gradientUnits="userSpaceOnUse"/><linearGradient xlink:href="#b" id="ak" x1="20.953" x2="73.17" y1="38.655" y2="38.655" gradientTransform="matrix(3.125 0 0 -3.125 0 256.25)" gradientUnits="userSpaceOnUse"/><linearGradient xlink:href="#b" id="al" x1="20.95" x2="73.179" y1="29.725" y2="29.725" gradientTransform="matrix(3.125 0 0 -3.125 0 256.25)" gradientUnits="userSpaceOnUse"/><linearGradient xlink:href="#b" id="am" x1="20.953" x2="73.167" y1="36.895" y2="36.895" gradientTransform="matrix(3.125 0 0 -3.125 0 256.25)" gradientUnits="userSpaceOnUse"/><linearGradient xlink:href="#b" id="an" x1="20.953" x2="73.168" y1="31.415" y2="31.415" gradientTransform="matrix(3.125 0 0 -3.125 0 256.25)" gradientUnits="userSpaceOnUse"/><linearGradient xlink:href="#b" id="ao" x1="20.953" x2="73.168" y1="27.675" y2="27.675" gradientTransform="matrix(3.125 0 0 -3.125 0 256.25)" gradientUnits="userSpaceOnUse"/><linearGradient xlink:href="#b" id="ap" x1="20.953" x2="73.167" y1="40.635" y2="40.635" gradientTransform="matrix(3.125 0 0 -3.125 0 256.25)" gradientUnits="userSpaceOnUse"/><linearGradient xlink:href="#b" id="aq" x1="20.953" x2="73.169" y1="35.155" y2="35.155" gradientTransform="matrix(3.125 0 0 -3.125 0 256.25)" gradientUnits="userSpaceOnUse"/><linearGradient xlink:href="#b" id="ar" x1="20.953" x2="73.17" y1="27.45" y2="27.45" gradientTransform="matrix(3.125 0 0 -3.125 0 256.25)" gradientUnits="userSpaceOnUse"/><linearGradient xlink:href="#b" id="as" x1="20.952" x2="73.179" y1="34.815" y2="34.815" gradientTransform="matrix(3.125 0 0 -3.125 0 256.25)" gradientUnits="userSpaceOnUse"/><linearGradient xlink:href="#b" id="at" x1="20.952" x2="73.179" y1="38.55" y2="38.55" gradientTransform="matrix(3.125 0 0 -3.125 0 256.25)" gradientUnits="userSpaceOnUse"/><linearGradient xlink:href="#b" id="au" x1="20.952" x2="73.165" y1="27.34" y2="27.34" gradientTransform="matrix(3.125 0 0 -3.125 0 256.25)" gradientUnits="userSpaceOnUse"/><linearGradient xlink:href="#b" id="av" x1="20.953" x2="73.168" y1="38.89" y2="38.89" gradientTransform="matrix(3.125 0 0 -3.125 0 256.25)" gradientUnits="userSpaceOnUse"/><linearGradient xlink:href="#b" id="aw" x1="20.953" x2="73.168" y1="42.63" y2="42.63" gradientTransform="matrix(3.125 0 0 -3.125 0 256.25)" gradientUnits="userSpaceOnUse"/><linearGradient xlink:href="#b" id="ax" x1="20.952" x2="73.165" y1="31.08" y2="31.08" gradientTransform="matrix(3.125 0 0 -3.125 0 256.25)" gradientUnits="userSpaceOnUse"/><linearGradient xlink:href="#b" id="ay" x1="20.953" x2="73.167" y1="40.46" y2="40.46" gradientTransform="matrix(3.125 0 0 -3.125 0 256.25)" gradientUnits="userSpaceOnUse"/><linearGradient xlink:href="#b" id="az" x1="20.953" x2="73.167" y1="36.72" y2="36.72" gradientTransform="matrix(3.125 0 0 -3.125 0 256.25)" gradientUnits="userSpaceOnUse"/><linearGradient xlink:href="#b" id="aA" x1="20.953" x2="73.167" y1="29.24" y2="29.24" gradientTransform="matrix(3.125 0 0 -3.125 0 256.25)" gradientUnits="userSpaceOnUse"/><linearGradient xlink:href="#b" id="aB" x1="20.953" x2="73.167" y1="32.98" y2="32.98" gradientTransform="matrix(3.125 0 0 -3.125 0 256.25)" gradientUnits="userSpaceOnUse"/><linearGradient xlink:href="#b" id="aC" x1="20.952" x2="73.177" y1="42.29" y2="42.29" gradientTransform="matrix(3.125 0 0 -3.125 0 256.25)" gradientUnits="userSpaceOnUse"/><linearGradient xlink:href="#b" id="aD" x1="20.95" x2="73.179" y1="33.455" y2="33.455" gradientTransform="matrix(3.125 0 0 -3.125 0 256.25)" gradientUnits="userSpaceOnUse"/><linearGradient xlink:href="#b" id="aE" x1="20.955" x2="73.168" y1="34.4" y2="34.4" gradientTransform="matrix(3.125 0 0 -3.125 0 256.25)" gradientUnits="userSpaceOnUse"/><linearGradient xlink:href="#b" id="aF" x1="20.955" x2="73.168" y1="38.14" y2="38.14" gradientTransform="matrix(3.125 0 0 -3.125 0 256.25)" gradientUnits="userSpaceOnUse"/><linearGradient xlink:href="#b" id="aG" x1="20.955" x2="73.168" y1="30.66" y2="30.66" gradientTransform="matrix(3.125 0 0 -3.125 0 256.25)" gradientUnits="userSpaceOnUse"/><linearGradient xlink:href="#b" id="aH" x1="20.945" x2="73.184" y1="39.73" y2="39.73" gradientTransform="matrix(3.125 0 0 -3.125 0 256.25)" gradientUnits="userSpaceOnUse"/><linearGradient xlink:href="#b" id="aI" x1="20.956" x2="73.167" y1="41.88" y2="41.88" gradientTransform="matrix(3.125 0 0 -3.125 0 256.25)" gradientUnits="userSpaceOnUse"/><linearGradient xlink:href="#b" id="aJ" x1="20.945" x2="73.184" y1="43.47" y2="43.47" gradientTransform="matrix(3.125 0 0 -3.125 0 256.25)" gradientUnits="userSpaceOnUse"/><linearGradient xlink:href="#b" id="aK" x1="20.954" x2="73.171" y1="36.565" y2="36.565" gradientTransform="matrix(3.125 0 0 -3.125 0 256.25)" gradientUnits="userSpaceOnUse"/><linearGradient xlink:href="#b" id="aL" x1="20.954" x2="73.171" y1="40.305" y2="40.305" gradientTransform="matrix(3.125 0 0 -3.125 0 256.25)" gradientUnits="userSpaceOnUse"/><linearGradient xlink:href="#b" id="aM" x1="20.954" x2="73.17" y1="29.095" y2="29.095" gradientTransform="matrix(3.125 0 0 -3.125 0 256.25)" gradientUnits="userSpaceOnUse"/><linearGradient xlink:href="#b" id="aN" x1="20.954" x2="73.171" y1="44.045" y2="44.045" gradientTransform="matrix(3.125 0 0 -3.125 0 256.25)" gradientUnits="userSpaceOnUse"/><linearGradient xlink:href="#b" id="aO" x1="20.954" x2="73.171" y1="32.835" y2="32.835" gradientTransform="matrix(3.125 0 0 -3.125 0 256.25)" gradientUnits="userSpaceOnUse"/><linearGradient xlink:href="#b" id="aP" x1="20.945" x2="73.184" y1="35.99" y2="35.99" gradientTransform="matrix(3.125 0 0 -3.125 0 256.25)" gradientUnits="userSpaceOnUse"/><linearGradient xlink:href="#b" id="aQ" x1="20.95" x2="73.179" y1="40.935" y2="40.935" gradientTransform="matrix(3.125 0 0 -3.125 0 256.25)" gradientUnits="userSpaceOnUse"/><linearGradient xlink:href="#b" id="aR" x1="20.954" x2="73.168" y1="31.795" y2="31.795" gradientTransform="matrix(3.125 0 0 -3.125 0 256.25)" gradientUnits="userSpaceOnUse"/><linearGradient xlink:href="#b" id="aS" x1="20.945" x2="73.184" y1="32.26" y2="32.26" gradientTransform="matrix(3.125 0 0 -3.125 0 256.25)" gradientUnits="userSpaceOnUse"/><linearGradient xlink:href="#b" id="aT" x1="20.954" x2="73.168" y1="39.275" y2="39.275" gradientTransform="matrix(3.125 0 0 -3.125 0 256.25)" gradientUnits="userSpaceOnUse"/><linearGradient xlink:href="#b" id="aU" x1="20.954" x2="73.168" y1="28.055" y2="28.055" gradientTransform="matrix(3.125 0 0 -3.125 0 256.25)" gradientUnits="userSpaceOnUse"/><linearGradient xlink:href="#b" id="aV" x1="20.95" x2="73.179" y1="37.195" y2="37.195" gradientTransform="matrix(3.125 0 0 -3.125 0 256.25)" gradientUnits="userSpaceOnUse"/><linearGradient xlink:href="#b" id="aW" x1="20.95" x2="73.177" y1="43.005" y2="43.005" gradientTransform="matrix(3.125 0 0 -3.125 0 256.25)" gradientUnits="userSpaceOnUse"/><linearGradient xlink:href="#b" id="aX" x1="20.954" x2="73.168" y1="35.535" y2="35.535" gradientTransform="matrix(3.125 0 0 -3.125 0 256.25)" gradientUnits="userSpaceOnUse"/><linearGradient xlink:href="#b" id="aY" x1="20.945" x2="73.184" y1="28.51" y2="28.51" gradientTransform="matrix(3.125 0 0 -3.125 0 256.25)" gradientUnits="userSpaceOnUse"/><linearGradient xlink:href="#b" id="aZ" x1="20.954" x2="73.169" y1="30.145" y2="30.145" gradientTransform="matrix(3.125 0 0 -3.125 0 256.25)" gradientUnits="userSpaceOnUse"/><linearGradient xlink:href="#b" id="ba" x1="20.954" x2="73.169" y1="41.355" y2="41.355" gradientTransform="matrix(3.125 0 0 -3.125 0 256.25)" gradientUnits="userSpaceOnUse"/><linearGradient xlink:href="#b" id="bb" x1="20.954" x2="73.169" y1="33.875" y2="33.875" gradientTransform="matrix(3.125 0 0 -3.125 0 256.25)" gradientUnits="userSpaceOnUse"/><linearGradient xlink:href="#b" id="bc" x1="20.954" x2="73.169" y1="37.615" y2="37.615" gradientTransform="matrix(3.125 0 0 -3.125 0 256.25)" gradientUnits="userSpaceOnUse"/><path fill="#0e3ca5" d="M105.188 174.031c5.218 19.281 23.906 33.969 33.343 33.375.344-.031 35.781-6.625 55.219-39.062 15.094-25.25 9.969-49.625-10.594-50.156-7.406.562-87.906 19.156-77.969 55.843M181.219 50.281v-.031c-15.75-13.406-36.156-21.5-58.438-21.5-13.031 0-25.406 2.781-36.594 7.781-2 .844-3.906 1.782-5.718 2.813-1.25.687-2.531 1.343-3.75 2.062l.312.094c-3.719 2.563-6.906 5.563-9.531 9-25.875 34.188 60.875 59.063 107.25 59.125 21.344 15.344 27.313-43.125 6.469-59.344zm0 0"/><g fill="#5493f7"><path d="M91.406 50.969C79.5 68.875 39.781 81.5 33.25 79.53c0-.031-.031-.062-.031-.094.281-.53.531-1.062.812-1.624A94.252 94.252 0 0 1 51.25 54.28a96.946 96.946 0 0 1 11.063-9.5 96.792 96.792 0 0 1 7.593-5.031c5.563-3.219 11.25-3.438 13.125-3.5 17.719.406 8.469 14.594 8.375 14.719M81.656 177.563c.844 5.625-.031 27.875-1.187 29.718-1 .063-3.063.188-9.031-3.156a83.477 83.477 0 0 1-9.063-5.906c-3.938-2.875-7.625-6.063-11.063-9.5s-6.624-7.156-9.5-11.063c-2.874-3.937-5.468-8.094-7.718-12.469s-4.188-8.906-5.75-13.625-2.782-9.593-3.594-14.625-1.25-10.156-1.25-15.406.438-10.406 1.25-15.406A94.307 94.307 0 0 1 28.344 91.5c.312-.969.656-1.906 1-2.844C36.187 97.781 44.125 106 50.875 115.22c6.406 8.75 15.25 23.062 17.031 26.094 11.094 18.937 12.875 30.625 13.75 36.25M213.531 121.531c0 12.313-2.344 24.094-6.625 34.906-11.187 12.032-86.687-17.593-87.406-17.906C109.187 134 77.75 120.25 74.906 98.625c-4.062-31.094 59.031-52.781 86.781-53.594 3.313.032 13.438.157 19.344 4.938 19.906 17.406 32.5 43.031 32.5 71.562M162.438 205.844c-8.22 3.844-17.282 1.031-14.938-6.969 4.531-15.375 43.969-31.156 52.688-32.031 1.062-.094 1.53.625 1.062 1.469-9.094 15.906-22.531 29.03-38.813 37.53"/></g><g clip-path="url(#c)" mask="url(#d)"><g clip-path="url(#e)" mask="url(#f)"><path fill="url(#g)" d="M71.594 119.125c-3.375 0-6.094 2.313-6.094 5.188v96.562c0 3.906 2.719 7.031 6.094 7.063 89.187.53 175.656 25.5 175.625 12.968-.125-31.844-.125-75.625 0-107.437.031-12.813-86.469-14.281-175.625-14.344zm0 0"/></g><g clip-path="url(#h)" mask="url(#i)"><path fill="url(#j)" d="M71.563 119.125c-3.376 0-6.094 2.313-6.094 5.188v96.562c0 3.906 2.719 7.031 6.094 7.063 88.562.53 174.437 24.25 174.375 12.125-.125-31.375-.125-74.72 0-106.094.062-12.406-85.813-14.719-174.375-14.844zm0 0"/></g><g clip-path="url(#k)" mask="url(#l)"><path fill="url(#m)" d="M71.563 119.125c-3.376 0-6.094 2.313-6.094 5.188v96.562c0 3.906 2.719 7.031 6.094 7.063 87.937.5 173.187 23 173.156 11.28a14630.13 14630.13 0 0 1 0-104.75c.062-11.968-85.219-15.187-173.156-15.343zm0 0"/></g><g clip-path="url(#n)" mask="url(#o)"><path fill="url(#p)" d="M71.563 119.125c-3.376 0-6.094 2.313-6.094 5.188v96.562c0 3.906 2.719 7.031 6.094 7.063 87.312.468 171.968 21.78 171.906 10.437-.125-30.5-.125-72.938 0-103.406.062-11.563-84.594-15.625-171.906-15.844zm0 0"/></g><g clip-path="url(#q)" mask="url(#r)"><path fill="url(#s)" d="M71.563 119.125c-3.376 0-6.094 2.313-6.094 5.188v96.562c0 3.906 2.719 7.031 6.094 7.063 86.656.437 170.718 20.53 170.687 9.593-.125-30.031-.125-72.031 0-102.062.063-11.156-83.969-16.094-170.688-16.344zm0 0"/></g><g clip-path="url(#t)" mask="url(#u)"><path fill="url(#v)" d="M71.563 119.125c-3.376 0-6.094 2.313-6.094 5.188v96.562c0 3.906 2.719 7.031 6.094 7.063 86.03.406 169.468 19.28 169.437 8.78-.125-29.593-.125-71.124 0-100.718.063-10.75-83.344-16.594-169.438-16.875zm0 0"/></g><g clip-path="url(#w)" mask="url(#x)"><path fill="url(#y)" d="M71.563 119.125c-3.376 0-6.094 2.313-6.094 5.188v96.562c0 3.906 2.719 7.031 6.094 7.063 85.406.406 168.25 18.03 168.218 7.937-.125-29.156-.125-70.219 0-99.375.031-10.344-82.75-17.219-168.219-17.375zm0 0"/></g><g clip-path="url(#z)" mask="url(#A)"><path fill="url(#B)" d="M71.563 119.156c-3.376 0-6.094 2.313-6.094 5.188v96.562c0 3.906 2.719 7.031 6.094 7.063 84.78.375 167 16.781 166.968 7.094-.125-28.688-.125-69.344 0-98.032.063-9.937-82.125-17.75-166.969-17.875zm0 0"/></g><g clip-path="url(#C)" mask="url(#D)"><path fill="url(#E)" d="M71.563 119.156c-3.376 0-6.094 2.313-6.094 5.188v96.562c0 3.906 2.719 7.031 6.094 7.063 84.156.344 165.78 15.531 165.75 6.25-.125-28.25-.125-68.438 0-96.688.03-9.531-81.532-18.219-165.75-18.375zm0 0"/></g><g clip-path="url(#F)" mask="url(#G)"><path fill="url(#H)" d="M71.563 119.156c-3.376 0-6.094 2.313-6.094 5.188v96.562c0 3.906 2.719 7.031 6.094 7.063 83.53.312 164.53 14.281 164.5 5.406-.125-27.813-.125-67.531 0-95.344.062-9.125-80.907-18.719-164.5-18.875zm0 0"/></g><g clip-path="url(#I)" mask="url(#J)"><path fill="url(#K)" d="M71.563 119.156c-3.376 0-6.094 2.313-6.094 5.188v96.562c0 3.906 2.719 7.031 6.094 7.063 82.906.281 163.312 13.031 163.25 4.594a11781.38 11781.38 0 0 1 0-94c.062-8.72-80.282-19.22-163.25-19.407zm0 0"/></g><g clip-path="url(#L)" mask="url(#M)"><path fill="url(#N)" d="M71.563 119.156c-3.376 0-6.094 2.313-6.094 5.188v96.562c0 3.906 2.719 7.031 6.094 7.031 82.28.25 162.062 11.813 162.03 3.75-.124-26.906-.124-65.75 0-92.656.063-8.281-79.687-19.656-162.03-19.875zm0 0"/></g><g clip-path="url(#O)" mask="url(#P)"><path fill="url(#Q)" d="M71.563 119.156c-3.376 0-6.094 2.313-6.094 5.156v96.563c0 3.906 2.719 7.031 6.094 7.031 81.656.25 160.812 10.563 160.78 2.906-.124-26.437-.124-64.843 0-91.312.063-7.844-79.03-20.125-160.78-20.344zm0 0"/></g><g clip-path="url(#R)" mask="url(#S)"><path fill="url(#T)" d="M71.563 119.156c-3.376 0-6.094 2.313-6.094 5.156v96.563c0 3.875 2.719 7.031 6.094 7.031 81.03.219 159.593 9.313 159.562 2.063-.125-26-.125-63.969 0-89.969.031-7.406-78.438-20.594-159.563-20.844zm0 0"/></g><g clip-path="url(#U)" mask="url(#V)"><path fill="url(#W)" d="M71.563 119.156c-3.376 0-6.094 2.313-6.094 5.156v96.563c0 3.875 2.719 7.031 6.094 7.031 80.406.188 158.343 8.063 158.312 1.219-.125-25.563-.125-63.063 0-88.625.063-7-77.813-21.094-158.313-21.344zm0 0"/></g><path fill="url(#X)" d="M71.563 119.156c-3.376 0-6.094 2.313-6.094 5.156v96.563c0 3.875 2.719 7.031 6.094 7.031 79.78.313 157.156 6.813 157.093.406v-87.28c.063-6.595-77.219-21.157-157.094-21.876zm0 0"/></g><path fill="url(#Y)" d="M65.469 220.906c0 3.875 2.719 7.031 6.062 7.063 79.938.562 157.125-3.125 157.125-15.094 0-36.281-163.187 8.031-163.187 8.031zm0 0"/><path fill="url(#Z)" d="M65.469 220.906c0 3.906 2.719 7.063 6.094 7.063 79.937.594 157-1.906 157.093-15.094 0-36.281-163.187 8.031-163.187 8.031zm6.094 6.594c-.22 0-.438 0-.626-.031-2.437-.281-4.468-2.125-5.187-4.594.781 2.656 3.094 4.594 5.813 4.594 79.874-.5 155.843-25.094 155.843-14.281 0 11.062-75.969 14.875-155.844 14.312zm0 0"/><path fill="url(#aa)" d="M71.563 118.219a6.082 6.082 0 0 0-6.094 6.094v96.593c0 3.344 2.719 6.063 6.062 6.094 79.938-.594 157.219-27.063 157.125-14.125V104.094c.094-12.938-77.156 13.531-157.094 14.125zm0 0"/><path fill="url(#ab)" d="M83.375 184.875c2.844-.125 5.625-.219 8.375-.375s5.438-.344 8.063-.531 5.218-.406 7.78-.656c2.563-.22 5.063-.47 7.563-.72s4.938-.5 7.344-.78c2.438-.282 4.813-.563 7.188-.844s4.75-.594 7.093-.906 4.688-.625 7.031-.97 4.657-.718 7-1.062c2.344-.375 4.688-.719 7.032-1.094s4.719-.75 7.094-1.156 4.75-.812 7.156-1.219 4.844-.843 7.344-1.25c2.468-.437 4.968-.875 7.5-1.312s5.093-.906 7.718-1.344 5.281-.875 8-1.281 5.188-.781 8.594-1.219c3.406-.406 7.656-.812 11.156-.594 3.5.25 6.281 1.125 6.281 3.563v-8.375c0-2.406-2.656-3.281-5.906-3.531-3.25-.281-7.156.062-10.406.437s-5.594.719-8.031 1.094-4.844.75-7.188 1.125-4.656.781-6.969 1.188-4.593.812-6.875 1.218c-2.312.406-4.625.813-6.968 1.219s-4.75.813-7.219 1.25-4.938.844-7.563 1.281c-2.625.406-5.312.844-8.156 1.281-2.812.438-5.75.907-8.812 1.344v-8.375c3.062-.437 5.969-.906 8.812-1.344 2.813-.437 5.531-.875 8.156-1.28 2.625-.438 5.094-.845 7.563-1.282s4.844-.844 7.219-1.25c2.344-.406 4.687-.813 6.969-1.219 2.312-.406 4.593-.812 6.875-1.219 2.312-.406 4.593-.78 6.968-1.187 2.344-.375 4.75-.75 7.188-1.125s4.781-.719 8.031-1.094 7.156-.719 10.406-.437 5.938 1.125 5.938 3.531V146c0-2.406-2.656-3.281-5.906-3.531-3.25-.281-7.157.062-10.407.437s-5.594.719-8.031 1.094-4.844.75-7.188 1.125-4.656.781-6.968 1.188-4.594.812-6.875 1.218c-2.313.406-4.625.813-6.969 1.219s-4.75.813-7.219 1.25-4.937.844-7.562 1.281c-2.625.406-5.313.844-8.156 1.281-2.813.438-5.75.907-8.813 1.344v-8.375c3.063-.469 5.969-.906 8.813-1.344 2.812-.437 5.53-.875 8.156-1.28 2.625-.438 5.094-.845 7.562-1.282s4.844-.844 7.219-1.25c2.344-.406 4.688-.813 6.969-1.219 2.312-.406 4.594-.812 6.875-1.219 2.312-.406 4.594-.812 6.969-1.187 2.343-.375 4.75-.75 7.187-1.125s4.781-.719 8.031-1.094 7.156-.719 10.406-.437 5.938 1.125 5.938 3.531v-8.375c0-2.406-2.656-3.281-5.906-3.531-3.25-.281-7.156.062-10.406.437s-5.594.719-8.032 1.094-4.844.75-7.187 1.125-4.656.781-6.969 1.188-4.594.812-6.875 1.218c-2.313.406-4.625.813-6.969 1.219s-4.75.813-7.219 1.25-4.937.844-7.562 1.281-5.313.844-8.156 1.281c-2.813.438-5.75.907-8.813 1.344v-8.375c3.063-.437 5.969-.906 8.813-1.344 2.812-.437 5.531-.874 8.156-1.28 2.625-.438 5.094-.844 7.563-1.282 2.468-.406 4.843-.844 7.218-1.25 2.344-.406 4.688-.813 6.969-1.219 2.313-.406 4.594-.812 6.875-1.219 2.313-.406 4.594-.812 6.969-1.187 2.344-.375 4.719-.75 7.187-1.125 2.438-.375 4.781-.719 8.031-1.094s7.157-.719 10.407-.437 5.937 1.125 5.937 3.531V112.5c0-2.406-2.656-3.281-5.906-3.531s-7.156.062-10.406.437-5.594.719-8.031 1.094-4.844.75-7.188 1.125-4.656.781-6.969 1.188-4.594.812-6.875 1.218c-2.312.406-4.625.813-6.969 1.219s-4.75.813-7.218 1.25-4.938.844-7.563 1.281-5.312.844-8.156 1.281c-2.813.438-5.75.907-8.813 1.344v-8.5c-22.468 3.313-47.593 6.125-73 6.313a6.082 6.082 0 0 0-6.093 6.094v60.937c3.125 0 6.156-.031 9.156-.094 2.844-.062 5.75-.156 8.625-.281zm0 0"/><path fill="url(#ac)" d="M83.344 201.625c2.844-.094 5.625-.219 8.375-.375s5.437-.344 8.062-.531 5.219-.406 7.781-.656c2.563-.22 5.063-.47 7.563-.72 2.469-.25 4.938-.5 7.344-.78 2.437-.282 4.812-.563 7.187-.844 2.375-.313 4.75-.594 7.094-.906s4.688-.657 7.031-.97c2.344-.343 4.656-.718 7-1.062 2.344-.375 4.688-.719 7.031-1.094s4.72-.75 7.094-1.156 4.75-.812 7.156-1.219 4.844-.843 7.313-1.25 4.969-.843 7.5-1.312c2.531-.438 5.125-.906 7.719-1.344 2.625-.437 5.281-.875 8-1.281s5.187-.781 8.594-1.219c3.406-.406 7.656-.844 11.156-.594s6.281 1.125 6.281 3.563V179.5c0-2.438-2.781-3.344-6.281-3.563-3.5-.25-7.75.188-11.156.594s-5.875.813-8.594 1.219-5.375.844-8 1.281-5.188.906-7.719 1.344-5.031.875-7.5 1.313-4.906.843-7.344 1.25c-2.406.406-4.781.843-7.156 1.218-2.375.406-4.719.781-7.094 1.156-2.344.375-4.687.72-7.031 1.094s-4.656.719-7 1.063-4.688.656-7.031.969-4.719.625-7.094.906-4.781.594-7.188.844c-2.406.28-4.874.53-7.343.78-2.5.25-5 .5-7.563.72s-5.156.437-7.781.656c-2.625.187-5.313.375-8.063.531s-5.53.281-8.374.375-5.75.188-8.75.281a435.98 435.98 0 0 1-9.157.094V202c3.125 0 6.156-.031 9.156-.094 3.032-.094 5.938-.187 8.782-.281zm0 0"/><path fill="url(#ad)" d="M222.375 192.656c-3.5-.219-7.75.188-11.156.594s-5.875.781-8.594 1.219c-2.719.406-5.375.844-8 1.281s-5.188.906-7.719 1.344-5.031.875-7.5 1.312-4.906.844-7.344 1.25c-2.406.406-4.812.844-7.156 1.219-2.375.406-4.719.781-7.094 1.156-2.343.375-4.687.75-7.03 1.094-2.345.375-4.657.719-7 1.063s-4.688.656-7.032.968-4.719.625-7.094.906-4.781.594-7.187.844c-2.406.281-4.875.531-7.344.781s-5 .5-7.563.72-5.124.437-7.78.655c-2.626.188-5.313.375-8.063.532s-5.531.281-8.375.375-5.75.187-8.75.281a435.98 435.98 0 0 1-9.156.094v8.375c3.124 0 6.156-.031 9.156-.094 2.969-.063 5.906-.156 8.75-.281 2.844-.094 5.625-.25 8.375-.375 2.75-.156 5.437-.344 8.062-.531s5.219-.407 7.781-.657c2.563-.219 5.063-.469 7.563-.719s4.938-.5 7.344-.78c2.437-.282 4.812-.563 7.187-.845s4.75-.593 7.094-.906 4.688-.625 7.031-.969 4.656-.718 7-1.062c2.344-.375 4.688-.719 7.031-1.094s4.72-.75 7.094-1.156 4.75-.813 7.156-1.219 4.844-.844 7.313-1.25c2.469-.437 4.969-.875 7.5-1.312s5.125-.906 7.719-1.344c2.625-.438 5.281-.875 8-1.281s5.187-.781 8.594-1.219c3.406-.406 7.656-.813 11.156-.594s6.281 1.125 6.281 3.563v-8.375c.031-2.438-2.75-3.313-6.25-3.563zm0 0"/><path fill="url(#ae)" d="M82.813 176.531c2.656-.094 5.218-.219 7.718-.344s4.938-.28 7.344-.437 4.781-.344 7.156-.563c2.375-.187 4.75-.437 7.156-.656s4.844-.469 7.344-.75 5.063-.562 7.719-.875 5.406-.656 8.281-1.031 5.875-.781 9.031-1.25v-58.688c-22.468 3.313-47.593 6.126-72.968 6.313a6.082 6.082 0 0 0-6.094 6.094v52.562c3.156 0 6.188-.031 9.063-.094 2.843-.093 5.593-.187 8.25-.28zm0 0"/><path fill="url(#af)" d="M84.313 120.688c-.313.937-.438 1.406-.75 2.343-.97.031-1.438.063-2.407.094.781.531 1.156.813 1.938 1.375-.313.938-.438 1.406-.75 2.344.781-.594 1.156-.906 1.937-1.5.781.531 1.156.812 1.938 1.344-.313-.907-.438-1.376-.75-2.282.781-.594 1.156-.906 1.937-1.531-.969.031-1.437.063-2.406.094-.25-.906-.406-1.375-.688-2.281zm0 0"/><path fill="url(#ag)" d="M91.25 149.563c-.313.937-.438 1.406-.75 2.343-.969.063-1.438.063-2.406.125.781.531 1.156.813 1.937 1.344-.312.938-.437 1.406-.75 2.344.781-.594 1.156-.906 1.938-1.531.781.53 1.187.78 1.937 1.312-.312-.906-.437-1.375-.75-2.281.781-.625 1.156-.938 1.938-1.563l-2.406.156c-.22-.875-.376-1.343-.688-2.25zm0 0"/><path fill="url(#ah)" d="M92 163.5c-.313-.906-.438-1.375-.75-2.281-.313.937-.438 1.406-.75 2.344-.969.062-1.438.062-2.406.125.781.53 1.156.812 1.937 1.343-.312.938-.437 1.406-.75 2.344.781-.625 1.156-.906 1.938-1.531.781.531 1.187.781 1.937 1.312-.312-.906-.437-1.375-.75-2.281.781-.625 1.156-.938 1.938-1.563-.906.125-1.375.157-2.344.188zm0 0"/><path fill="url(#ai)" d="M84.313 144.031c-.313.938-.438 1.406-.75 2.344-.97.031-1.438.063-2.407.094.781.531 1.156.812 1.938 1.344-.313.937-.438 1.406-.75 2.343.781-.594 1.156-.906 1.937-1.5.781.531 1.156.813 1.938 1.344-.313-.906-.438-1.375-.75-2.281.781-.594 1.156-.906 1.937-1.531-.969.03-1.437.062-2.406.093-.25-.875-.406-1.312-.688-2.25zm0 0"/><path fill="url(#aj)" d="M84.313 155.719c-.313.937-.438 1.406-.75 2.344-.97.03-1.438.062-2.407.093.781.531 1.156.813 1.938 1.375-.313.938-.438 1.406-.75 2.344.781-.594 1.156-.906 1.937-1.5.781.531 1.156.813 1.938 1.344-.313-.906-.438-1.375-.75-2.281.781-.594 1.156-.907 1.937-1.532-.969.031-1.437.063-2.406.094-.25-.906-.406-1.375-.688-2.281zm0 0"/><path fill="url(#ak)" d="M84.313 132.375c-.313.938-.438 1.406-.75 2.344-.97.031-1.438.062-2.407.094.781.53 1.156.812 1.938 1.375-.313.937-.438 1.406-.75 2.343.781-.594 1.156-.906 1.937-1.5.781.531 1.156.813 1.938 1.344-.313-.906-.438-1.375-.75-2.281.781-.594 1.156-.906 1.937-1.531-.969.03-1.437.062-2.406.093-.25-.906-.406-1.375-.688-2.281zm0 0"/><path fill="url(#al)" d="M105.188 160.25c-.313.938-.438 1.438-.75 2.375a62.33 62.33 0 0 1-2.407.188c.781.5 1.156.78 1.938 1.28-.313.938-.438 1.438-.75 2.376.781-.625 1.156-.969 1.937-1.594.781.5 1.156.75 1.938 1.25-.313-.906-.438-1.344-.75-2.25l1.937-1.625c-.969.094-1.437.125-2.406.219-.25-.875-.406-1.313-.688-2.219zm0 0"/><path fill="url(#am)" d="M91.25 137.875c-.313.938-.438 1.406-.75 2.344-.969.062-1.438.062-2.406.125.781.531 1.156.812 1.937 1.344-.312.937-.437 1.406-.75 2.343.781-.625 1.156-.906 1.938-1.531.781.531 1.187.781 1.937 1.313-.312-.907-.437-1.375-.75-2.282.781-.625 1.156-.937 1.938-1.531l-2.406.156c-.22-.906-.376-1.375-.688-2.281zm0 0"/><path fill="url(#an)" d="M98.219 154.969c-.313.937-.438 1.406-.75 2.375l-2.406.156c.78.531 1.187.781 1.937 1.313-.313.937-.438 1.406-.75 2.375.781-.625 1.156-.938 1.938-1.563a69 69 0 0 0 1.937 1.281c-.313-.906-.438-1.344-.75-2.25a86.932 86.932 0 0 0 1.938-1.594c-.97.063-1.438.125-2.407.188a27.493 27.493 0 0 0-.687-2.281zm0 0"/><path fill="url(#ao)" d="M98.969 168.906c-.313-.906-.438-1.344-.75-2.25-.313.938-.438 1.406-.75 2.375l-2.406.156c.78.532 1.187.782 1.937 1.313-.313.938-.438 1.438-.75 2.375.781-.625 1.156-.938 1.938-1.563.78.5 1.156.782 1.937 1.282-.313-.906-.438-1.344-.75-2.25a86.932 86.932 0 0 0 1.938-1.594c-.907.063-1.376.094-2.344.156zm0 0"/><path fill="url(#ap)" d="M91.25 126.188c-.313.937-.438 1.406-.75 2.343-.969.063-1.438.063-2.406.125.781.531 1.156.813 1.937 1.344-.312.938-.437 1.406-.75 2.344.781-.625 1.156-.906 1.938-1.531.781.53 1.187.78 1.937 1.312-.312-.906-.437-1.375-.75-2.281.781-.625 1.156-.938 1.938-1.563l-2.406.156c-.22-.875-.376-1.312-.688-2.25zm0 0"/><path fill="url(#aq)" d="M98.219 143.281c-.313.938-.438 1.406-.75 2.375l-2.406.156c.78.532 1.156.782 1.937 1.313-.313.938-.438 1.406-.75 2.375.781-.625 1.188-.938 1.938-1.563a69 69 0 0 0 1.937 1.282c-.313-.906-.438-1.344-.75-2.25.781-.625 1.156-.938 1.938-1.563-.97.063-1.438.125-2.407.188-.25-.938-.375-1.406-.687-2.313zm0 0"/><path fill="url(#ar)" d="M85.031 169.688a64.754 64.754 0 0 0-.75-2.282c-.312.938-.437 1.406-.75 2.344-.969.031-1.437.063-2.406.094.781.531 1.156.812 1.938 1.344-.313.937-.438 1.406-.75 2.343.78-.594 1.156-.906 1.937-1.5.781.531 1.156.813 1.938 1.344-.313-.906-.438-1.375-.75-2.281.78-.594 1.156-.906 1.937-1.531a50.69 50.69 0 0 1-2.344.125zm0 0"/><path fill="url(#as)" d="M70.375 144.438c-.313.937-.438 1.406-.75 2.312h-2.406c.781.563 1.187.844 1.937 1.406-.312.938-.437 1.406-.75 2.313.781-.594 1.156-.875 1.938-1.469.781.563 1.156.844 1.937 1.406-.312-.937-.437-1.375-.75-2.312.781-.594 1.156-.875 1.938-1.469-.969.031-1.438.031-2.406.031-.25-.844-.376-1.312-.688-2.219zm0 0"/><path fill="url(#at)" d="M70.375 132.75c-.313.938-.438 1.406-.75 2.313-.969 0-1.438 0-2.406.03.781.563 1.187.845 1.969 1.407-.313.938-.438 1.406-.75 2.313.78-.563 1.156-.875 1.937-1.438.781.563 1.156.844 1.938 1.406-.313-.906-.438-1.375-.75-2.312.78-.594 1.156-.875 1.937-1.469-.969.031-1.438.031-2.406.031-.281-.906-.406-1.375-.719-2.281zm0 0"/><path fill="url(#au)" d="M71.125 170.094c-.313-.906-.438-1.375-.75-2.313-.313.938-.438 1.406-.75 2.313-.969 0-1.438 0-2.406.031.781.563 1.187.844 1.937 1.406-.312.938-.437 1.406-.75 2.313a77.307 77.307 0 0 1 1.938-1.438c.781.563 1.187.844 1.937 1.406-.312-.937-.437-1.375-.75-2.312.781-.594 1.156-.875 1.938-1.469-.906.031-1.375.031-2.344.063zm0 0"/><path fill="url(#av)" d="M96.281 137.813c.781-.625 1.156-.938 1.938-1.563.781.531 1.187.781 1.937 1.281-.312-.906-.437-1.344-.75-2.25a86.932 86.932 0 0 0 1.938-1.594c-.969.063-1.438.125-2.406.188-.313-.906-.438-1.344-.75-2.25-.313.938-.438 1.406-.75 2.375l-2.407.156c.781.531 1.156.781 1.938 1.313-.25.906-.406 1.375-.688 2.344zm0 0"/><path fill="url(#aw)" d="M96.281 126.125c.781-.625 1.156-.938 1.938-1.563a69 69 0 0 0 1.937 1.282c-.312-.906-.437-1.344-.75-2.25a86.932 86.932 0 0 0 1.938-1.594 62.33 62.33 0 0 1-2.406.188c-.313-.907-.438-1.344-.75-2.25-.313.937-.438 1.406-.75 2.374l-2.407.157c.781.531 1.156.781 1.938 1.312-.25.906-.406 1.406-.688 2.344zm0 0"/><path fill="url(#ax)" d="M70.375 156.094c-.313.937-.438 1.406-.75 2.312h-2.406c.781.563 1.187.844 1.937 1.438-.312.937-.437 1.406-.75 2.312a77.307 77.307 0 0 1 1.938-1.437c.781.562 1.156.844 1.937 1.406-.312-.938-.437-1.375-.75-2.313.781-.593 1.156-.875 1.938-1.468-.969.031-1.438.031-2.406.031-.25-.875-.376-1.344-.688-2.281zm0 0"/><path fill="url(#ay)" d="M77.344 126.75c-.313.938-.438 1.406-.75 2.344-.969.031-1.438.031-2.406.062.78.563 1.156.844 1.937 1.375-.313.938-.438 1.406-.75 2.344.781-.594 1.156-.875 1.938-1.469.78.563 1.187.813 1.937 1.375-.313-.906-.438-1.375-.75-2.281.781-.594 1.188-.906 1.938-1.5-.97.031-1.438.031-2.407.063a32.395 32.395 0 0 0-.687-2.313zm0 0"/><path fill="url(#az)" d="M77.344 138.438c-.313.937-.438 1.406-.75 2.343-.969.031-1.438.031-2.406.063.78.562 1.187.844 1.937 1.375-.313.937-.438 1.406-.75 2.344.781-.594 1.156-.875 1.938-1.47.78.563 1.187.813 1.968 1.376-.312-.906-.437-1.375-.75-2.281.781-.594 1.188-.907 1.938-1.5-.969.03-1.438.03-2.406.062-.282-.938-.407-1.375-.72-2.313zm0 0"/><path fill="url(#aA)" d="M78.094 164.094c-.313-.906-.438-1.375-.75-2.281-.313.937-.438 1.406-.75 2.343-.969.031-1.438.031-2.406.063a75.03 75.03 0 0 0 1.968 1.375c-.312.937-.437 1.406-.75 2.344.781-.594 1.188-.875 1.938-1.47.781.563 1.187.813 1.969 1.376-.313-.906-.438-1.375-.75-2.281.78-.594 1.187-.907 1.937-1.5-.969 0-1.438 0-2.406.03zm0 0"/><path fill="url(#aB)" d="M77.344 150.125c-.313.938-.438 1.406-.75 2.344-.969.031-1.438.031-2.406.062.78.563 1.156.844 1.937 1.375-.313.938-.438 1.406-.75 2.344.781-.594 1.188-.875 1.938-1.469.78.563 1.156.813 1.937 1.375-.313-.906-.438-1.375-.75-2.281.781-.594 1.188-.906 1.938-1.5-.97.031-1.438.063-2.407.094-.25-.969-.375-1.438-.687-2.344zm0 0"/><path fill="url(#aC)" d="M70.375 121.063c-.313.937-.438 1.406-.75 2.312-.969 0-1.438.031-2.406.031.781.563 1.187.844 1.969 1.406-.313.938-.438 1.407-.75 2.313.78-.563 1.156-.875 1.937-1.438.781.563 1.156.844 1.938 1.407-.313-.906-.438-1.375-.75-2.313.78-.594 1.156-.875 1.937-1.469-.969.032-1.438.032-2.406.032-.281-.906-.406-1.344-.719-2.281zm0 0"/><path fill="url(#aD)" d="M105.188 148.594c-.313.937-.438 1.437-.75 2.375a62.33 62.33 0 0 1-2.407.187 69 69 0 0 1 1.938 1.281c-.313.938-.438 1.438-.75 2.375.781-.625 1.156-.968 1.937-1.593.781.5 1.156.75 1.938 1.25-.313-.906-.438-1.344-.75-2.25a86.932 86.932 0 0 1 1.937-1.594c-.969.094-1.437.125-2.406.219-.25-.906-.406-1.375-.688-2.25zm0 0"/><path fill="url(#aE)" d="M133 145.594c-.313.969-.438 1.437-.75 2.406-.969.125-1.438.188-2.406.313.781.468 1.156.718 1.937 1.187-.312.969-.437 1.438-.75 2.406.781-.656 1.188-1 1.969-1.687.781.469 1.156.719 1.938 1.187-.313-.875-.438-1.344-.75-2.219.78-.687 1.187-1 1.968-1.687-.969.125-1.437.188-2.406.313-.313-.875-.438-1.344-.75-2.22zm0 0"/><path fill="url(#aF)" d="M133 133.906c-.313.969-.438 1.438-.75 2.406-.969.125-1.438.188-2.406.313.781.469 1.156.719 1.937 1.188-.312.968-.437 1.437-.75 2.406.781-.688 1.188-1 1.938-1.688.781.469 1.187.719 1.969 1.188-.313-.875-.438-1.344-.75-2.219.78-.688 1.187-1 1.968-1.688-.969.125-1.437.188-2.406.313-.281-.875-.438-1.313-.75-2.219zm0 0"/><path fill="url(#aG)" d="M133.75 159.5c-.313-.875-.438-1.344-.75-2.219-.313.969-.438 1.438-.75 2.406-.969.125-1.438.188-2.406.313.781.469 1.156.719 1.937 1.188-.312.968-.437 1.437-.75 2.406.781-.688 1.188-1 1.938-1.688.781.469 1.187.719 1.937 1.188-.312-.875-.437-1.344-.75-2.219.781-.688 1.156-1 1.938-1.688-.906.125-1.375.188-2.344.313zm0 0"/><path fill="url(#aH)" d="M126.031 128.938c-.281.968-.437 1.437-.75 2.406-.969.125-1.437.156-2.406.281.781.5 1.156.719 1.938 1.219-.282.969-.438 1.437-.75 2.406.78-.656 1.156-1 1.937-1.656.781.469 1.156.719 1.938 1.187-.313-.875-.438-1.344-.75-2.219.78-.656 1.156-1 1.937-1.656-.969.125-1.438.188-2.406.281-.219-.906-.375-1.375-.688-2.25zm0 0"/><path fill="url(#aI)" d="M133 122.219c-.313.969-.438 1.437-.75 2.406-.969.125-1.438.188-2.406.313.781.468 1.187.718 1.969 1.187-.313.969-.438 1.438-.75 2.406.78-.656 1.187-1 1.968-1.687.781.469 1.188.719 1.969 1.187-.313-.875-.438-1.344-.75-2.219.781-.656 1.188-1.03 1.969-1.687-.969.125-1.438.188-2.406.313-.344-.876-.5-1.313-.813-2.22zm0 0"/><path fill="url(#aJ)" d="M126.031 117.25c-.281.969-.437 1.438-.75 2.406-.969.125-1.437.156-2.406.281.781.47 1.156.72 1.938 1.22-.282.968-.438 1.437-.75 2.406.78-.657 1.156-1 1.937-1.657.781.469 1.156.719 1.938 1.188-.313-.906-.438-1.344-.75-2.219.78-.656 1.156-1 1.937-1.656-.969.125-1.438.187-2.406.281-.219-.906-.375-1.344-.688-2.25zm0 0"/><path fill="url(#aK)" d="M139.969 138.844c-.313.969-.438 1.437-.75 2.406-.969.125-1.438.188-2.406.313.78.468 1.156.687 1.937 1.156-.313.969-.438 1.437-.75 2.406.781-.688 1.156-1.031 1.938-1.688.78.47 1.156.688 1.937 1.157-.313-.875-.438-1.313-.75-2.219.781-.688 1.156-1.031 1.938-1.719-.97.125-1.438.219-2.407.344-.219-.844-.375-1.281-.687-2.156zm0 0"/><path fill="url(#aL)" d="M139.969 127.156c-.313.969-.438 1.438-.75 2.406-.969.125-1.438.188-2.406.313.78.469 1.156.688 1.937 1.156-.313.969-.438 1.438-.75 2.406.781-.687 1.188-1.03 1.938-1.687.78.469 1.156.688 1.937 1.156-.313-.875-.438-1.312-.75-2.219.781-.687 1.156-1.03 1.938-1.718-.97.125-1.438.219-2.407.344-.219-.844-.375-1.282-.687-2.157zm0 0"/><path fill="url(#aM)" d="M140.719 164.406c-.313-.875-.438-1.312-.75-2.219-.313.97-.438 1.438-.75 2.407l-2.406.312c.78.469 1.156.688 1.937 1.156-.313.97-.438 1.438-.75 2.407.781-.688 1.188-1.031 1.938-1.719.78.469 1.156.688 1.937 1.156-.313-.875-.438-1.312-.75-2.219.781-.687 1.156-1.03 1.938-1.718-.907.25-1.375.312-2.344.437zm0 0"/><path fill="url(#aN)" d="M139.969 115.469c-.313.969-.438 1.437-.75 2.406-.969.125-1.438.188-2.406.313.78.468 1.187.687 1.968 1.156-.312.969-.437 1.437-.75 2.406.781-.688 1.188-1 1.969-1.688.781.47 1.156.688 1.938 1.157-.313-.875-.438-1.313-.75-2.219.78-.688 1.156-1.031 1.937-1.719-.969.125-1.438.219-2.406.344-.281-.844-.438-1.281-.75-2.156zm0 0"/><path fill="url(#aO)" d="M139.969 150.5c-.313.969-.438 1.438-.75 2.406-.969.125-1.438.188-2.406.313.78.469 1.156.719 1.937 1.156-.313.969-.438 1.438-.75 2.406.781-.687 1.156-1 1.938-1.687.78.469 1.156.687 1.937 1.156-.313-.875-.438-1.313-.75-2.219.781-.687 1.156-1.031 1.938-1.719-.97.157-1.438.22-2.407.344-.25-.812-.375-1.25-.687-2.156zm0 0"/><path fill="url(#aP)" d="M126.031 140.625c-.281.969-.437 1.438-.75 2.406-.969.125-1.437.156-2.406.281.781.47 1.156.72 1.938 1.22-.282.968-.438 1.437-.75 2.405.78-.656 1.156-1 1.937-1.656.781.469 1.156.719 1.938 1.188-.313-.875-.438-1.344-.75-2.219.78-.656 1.156-1 1.937-1.656-.969.125-1.438.187-2.406.281-.219-.938-.375-1.375-.688-2.25zm0 0"/><path fill="url(#aQ)" d="M105.188 125.219c-.313.969-.438 1.437-.75 2.375a62.33 62.33 0 0 1-2.407.187c.781.5 1.156.781 1.938 1.281-.313.938-.438 1.438-.75 2.375.781-.625 1.156-.968 1.937-1.593.781.5 1.156.75 1.938 1.25-.313-.906-.438-1.344-.75-2.25l1.937-1.625c-.969.094-1.437.125-2.406.219-.25-.876-.406-1.313-.688-2.22zm0 0"/><path fill="url(#aR)" d="M112.125 153.781c-.313.969-.438 1.438-.75 2.375-.969.094-1.438.125-2.406.219.781.5 1.187.75 1.937 1.25-.281.969-.437 1.438-.75 2.375l1.938-1.625c.781.5 1.187.75 1.937 1.25-.312-.906-.437-1.344-.75-2.25l1.938-1.625c-.969.094-1.438.156-2.406.25-.22-.875-.376-1.313-.688-2.219zm0 0"/><path fill="url(#aS)" d="M126.031 152.281c-.281.969-.437 1.438-.75 2.406-.969.125-1.437.157-2.406.282.781.5 1.156.719 1.938 1.219-.282.968-.438 1.437-.75 2.406.78-.656 1.156-1 1.937-1.656.781.468 1.156.718 1.938 1.187-.313-.906-.438-1.344-.75-2.219.78-.656 1.156-1 1.937-1.687-.969.125-1.438.187-2.406.281-.219-.875-.375-1.313-.688-2.219zm0 0"/><path fill="url(#aT)" d="M112.125 130.406c-.313.969-.438 1.438-.75 2.375-.969.094-1.438.125-2.406.219.781.5 1.156.75 1.937 1.25-.281.969-.437 1.438-.75 2.375.781-.656 1.188-.969 1.938-1.625.781.5 1.156.75 1.937 1.25-.312-.906-.437-1.344-.75-2.25l1.938-1.625c-.969.094-1.438.156-2.406.25-.22-.875-.376-1.313-.688-2.219zm0 0"/><path fill="url(#aU)" d="M112.125 165.469c-.313.969-.438 1.437-.75 2.375-.969.094-1.438.125-2.406.219.781.5 1.187.75 1.937 1.25-.281.968-.437 1.437-.75 2.375.781-.657 1.156-.97 1.938-1.625.781.5 1.187.75 1.937 1.25-.312-.907-.437-1.344-.75-2.25.781-.657 1.156-.97 1.938-1.625-.969.093-1.438.156-2.406.25-.22-.875-.376-1.344-.688-2.22zm0 0"/><path fill="url(#aV)" d="M105.188 136.906c-.313.938-.438 1.438-.75 2.375a62.33 62.33 0 0 1-2.407.188c.781.5 1.156.781 1.938 1.281-.313.938-.438 1.438-.75 2.375.781-.625 1.156-.969 1.937-1.594.781.5 1.156.75 1.938 1.25-.313-.906-.438-1.344-.75-2.25l1.937-1.625c-.969.094-1.437.125-2.406.219-.25-.875-.406-1.344-.688-2.219zm0 0"/><path fill="url(#aW)" d="M112.125 118.75c-.313.969-.438 1.438-.75 2.375-.969.094-1.438.125-2.406.219.781.5 1.156.75 1.937 1.25-.312.969-.437 1.437-.75 2.375.781-.656 1.188-.969 1.969-1.625.781.5 1.156.75 1.938 1.25-.313-.906-.438-1.344-.75-2.25.78-.656 1.156-.969 1.937-1.625-.969.094-1.438.156-2.406.25a30.505 30.505 0 0 0-.719-2.219zm0 0"/><path fill="url(#aX)" d="M112.125 142.094c-.313.969-.438 1.437-.75 2.375-.969.094-1.438.125-2.406.219.781.5 1.187.75 1.937 1.25-.312.968-.437 1.437-.75 2.375.781-.657 1.156-.97 1.938-1.625.781.5 1.187.75 1.969 1.25-.313-.907-.438-1.344-.75-2.25.78-.657 1.156-.97 1.937-1.625-.969.093-1.438.156-2.406.25-.25-.875-.406-1.313-.719-2.22zm0 0"/><path fill="url(#aY)" d="M126.781 166.219a61.768 61.768 0 0 0-.75-2.219c-.281.969-.437 1.438-.75 2.406-.969.125-1.437.156-2.406.281.781.5 1.156.72 1.938 1.22-.282.968-.438 1.437-.75 2.405.78-.656 1.156-1 1.937-1.656.781.469 1.156.719 1.938 1.188-.313-.875-.438-1.344-.75-2.219.78-.656 1.156-1 1.937-1.656-.875.062-1.375.125-2.344.25zm0 0"/><path fill="url(#aZ)" d="M119.844 161.156c-.313-.906-.438-1.344-.75-2.25-.313.969-.438 1.438-.75 2.406-.969.094-1.438.157-2.406.25.78.5 1.156.75 1.937 1.22-.313.968-.438 1.437-.75 2.405.781-.656 1.188-.968 1.938-1.625.78.5 1.156.75 1.937 1.22-.313-.907-.438-1.345-.75-2.25.781-.657 1.156-1 1.938-1.657-.907.125-1.376.188-2.344.281zm0 0"/><path fill="url(#ba)" d="M119.094 123.875c-.313.969-.438 1.438-.75 2.406-.969.094-1.438.156-2.406.25.78.5 1.156.75 1.937 1.219-.313.969-.438 1.438-.75 2.406.781-.656 1.188-.969 1.938-1.625.78.5 1.156.719 1.937 1.219-.313-.906-.438-1.344-.75-2.219.781-.656 1.156-1 1.938-1.656-.97.094-1.438.156-2.407.25-.219-.906-.375-1.344-.687-2.25zm0 0"/><path fill="url(#bb)" d="M119.094 147.25c-.313.969-.438 1.438-.75 2.406-.969.094-1.438.156-2.406.25.78.5 1.187.75 1.937 1.219-.313.969-.438 1.438-.75 2.406l1.938-1.625c.78.5 1.156.719 1.937 1.219-.313-.906-.438-1.344-.75-2.219.781-.656 1.156-1 1.938-1.656-.97.094-1.438.156-2.407.25-.219-.938-.375-1.375-.687-2.25zm0 0"/><path fill="url(#bc)" d="M119.094 135.563c-.313.968-.438 1.437-.75 2.406-.969.094-1.438.156-2.406.25.78.5 1.187.75 1.937 1.219-.313.968-.438 1.437-.75 2.406l1.938-1.625c.78.5 1.187.719 1.937 1.219-.313-.907-.438-1.344-.75-2.22.781-.655 1.156-1 1.938-1.655-.97.093-1.438.156-2.407.28-.219-.937-.375-1.405-.687-2.28zm0 0"/></svg>