<svg xmlns="http://www.w3.org/2000/svg" xmlns:xlink="http://www.w3.org/1999/xlink" width="250" height="250"><linearGradient id="b" x1="54.28" x2="253.31" y1="-495.97" y2="-495.97" gradientTransform="matrix(.98316 0 0 -1.02767 .183 -278.22)" gradientUnits="userSpaceOnUse"><stop offset="0" stop-color="#600000"/><stop offset=".33" stop-color="#630000"/><stop offset=".59" stop-color="#6d0000"/><stop offset=".83" stop-color="#7e0000"/><stop offset="1" stop-color="#8f0000"/></linearGradient><linearGradient id="c" x1="153.76" x2="153.76" y1="-477.87" y2="-513.82" gradientTransform="matrix(.98316 0 0 -1.02767 .183 -278.22)" gradientUnits="userSpaceOnUse"><stop offset=".35" stop-color="#bf1010"/><stop offset=".65" stop-color="#bd1010"/><stop offset=".75" stop-color="#b60f0f"/><stop offset=".83" stop-color="#ab0d0d"/><stop offset=".89" stop-color="#9a0a0a"/><stop offset=".94" stop-color="#840606"/><stop offset=".99" stop-color="#690202"/><stop offset="1" stop-color="#600000"/></linearGradient><linearGradient id="d" x1="53.91" x2="252.91" y1="-435.47" y2="-435.47" gradientTransform="matrix(.98316 0 0 -1.02767 .183 -278.22)" gradientUnits="userSpaceOnUse"><stop offset="0" stop-color="#bf1010"/><stop offset=".02" stop-color="#c11212"/><stop offset=".24" stop-color="#d22323"/><stop offset=".49" stop-color="#dc2d2d"/><stop offset=".79" stop-color="#df3030"/><stop offset=".84" stop-color="#dc2e2e"/><stop offset=".88" stop-color="#d22626"/><stop offset=".92" stop-color="#c11919"/><stop offset=".95" stop-color="#a90808"/><stop offset=".97" stop-color="#9f0000"/><stop offset="1" stop-color="#df3030"/></linearGradient><linearGradient id="a"><stop offset="0" stop-color="#dfdfdf"/><stop offset=".02" stop-color="#e1e1e1"/><stop offset=".24" stop-color="#f2f2f2"/><stop offset=".49" stop-color="#fcfcfc"/><stop offset=".79" stop-color="#fff"/><stop offset=".84" stop-color="#fcfcfc"/><stop offset=".88" stop-color="#f2f2f2"/><stop offset=".92" stop-color="#e1e1e1"/><stop offset=".95" stop-color="#c9c9c9"/><stop offset=".97" stop-color="#bfbfbf"/><stop offset="1" stop-color="#fff"/></linearGradient><linearGradient xlink:href="#a" id="e" x1="53.89" x2="252.98" y1="-415.06" y2="-415.06" gradientTransform="matrix(.98316 0 0 -1.02767 .183 -278.22)" gradientUnits="userSpaceOnUse"/><linearGradient xlink:href="#a" id="f" x1="54.28" x2="253.29" y1="-466.29" y2="-466.29" gradientTransform="matrix(.98316 0 0 -1.02767 .183 -278.22)" gradientUnits="userSpaceOnUse"/><linearGradient xlink:href="#a" id="g" x1="53.89" x2="252.94" y1="-486.49" y2="-486.49" gradientTransform="matrix(.98316 0 0 -1.02767 .183 -278.22)" gradientUnits="userSpaceOnUse"/><linearGradient id="h" x1="54.01" x2="253.1" y1="-411.69" y2="-411.69" gradientTransform="matrix(.98316 0 0 -1.02767 .183 -278.22)" gradientUnits="userSpaceOnUse"><stop offset="0" stop-color="#00209f"/><stop offset=".02" stop-color="#0222a1"/><stop offset=".24" stop-color="#1333b2"/><stop offset=".49" stop-color="#1d3dbc"/><stop offset=".79" stop-color="#2040bf"/><stop offset=".84" stop-color="#1e3dbc"/><stop offset=".88" stop-color="#1933b2"/><stop offset=".92" stop-color="#1122a1"/><stop offset=".95" stop-color="#050a89"/><stop offset=".97" stop-color="#00007f"/><stop offset="1" stop-color="#2040bf"/></linearGradient><linearGradient xlink:href="#a" id="i" x1="54.08" x2="253.17" y1="-386.59" y2="-386.59" gradientTransform="matrix(.98316 0 0 -1.02767 .183 -278.22)" gradientUnits="userSpaceOnUse"/><linearGradient xlink:href="#a" id="j" x1="54.08" x2="253.17" y1="-421.99" y2="-421.99" gradientTransform="matrix(.98316 0 0 -1.02767 .183 -278.22)" gradientUnits="userSpaceOnUse"/><linearGradient xlink:href="#a" id="k" x1="54.08" x2="253.17" y1="-436.09" y2="-436.09" gradientTransform="matrix(.98316 0 0 -1.02767 .183 -278.22)" gradientUnits="userSpaceOnUse"/><linearGradient xlink:href="#a" id="l" x1="54.08" x2="253.17" y1="-415.19" y2="-415.19" gradientTransform="matrix(.98316 0 0 -1.02767 .183 -278.22)" gradientUnits="userSpaceOnUse"/><linearGradient xlink:href="#a" id="m" x1="54.08" x2="253.17" y1="-429.29" y2="-429.29" gradientTransform="matrix(.98316 0 0 -1.02767 .183 -278.22)" gradientUnits="userSpaceOnUse"/><linearGradient xlink:href="#a" id="n" x1="54.08" x2="253.17" y1="-401.09" y2="-401.09" gradientTransform="matrix(.98316 0 0 -1.02767 .183 -278.22)" gradientUnits="userSpaceOnUse"/><linearGradient xlink:href="#a" id="o" x1="54.08" x2="253.21" y1="-435.19" y2="-435.19" gradientTransform="matrix(.98316 0 0 -1.02767 .183 -278.22)" gradientUnits="userSpaceOnUse"/><linearGradient xlink:href="#a" id="p" x1="54.08" x2="253.17" y1="-407.49" y2="-407.49" gradientTransform="matrix(.98316 0 0 -1.02767 .183 -278.22)" gradientUnits="userSpaceOnUse"/><linearGradient xlink:href="#a" id="q" x1="54.08" x2="253.17" y1="-428.49" y2="-428.49" gradientTransform="matrix(.98316 0 0 -1.02767 .183 -278.22)" gradientUnits="userSpaceOnUse"/><linearGradient xlink:href="#a" id="r" x1="54.08" x2="253.17" y1="-442.79" y2="-442.79" gradientTransform="matrix(.98316 0 0 -1.02767 .183 -278.22)" gradientUnits="userSpaceOnUse"/><linearGradient xlink:href="#a" id="s" x1="54.08" x2="253.17" y1="-393.39" y2="-393.39" gradientTransform="matrix(.98316 0 0 -1.02767 .183 -278.22)" gradientUnits="userSpaceOnUse"/><linearGradient xlink:href="#a" id="t" x1="54.08" x2="253.17" y1="-413.99" y2="-413.99" gradientTransform="matrix(.98316 0 0 -1.02767 .183 -278.22)" gradientUnits="userSpaceOnUse"/><linearGradient xlink:href="#a" id="u" x1="54.08" x2="253.17" y1="-443.69" y2="-443.69" gradientTransform="matrix(.98316 0 0 -1.02767 .183 -278.22)" gradientUnits="userSpaceOnUse"/><linearGradient xlink:href="#a" id="v" x1="54.08" x2="253.21" y1="-415.34" y2="-415.34" gradientTransform="matrix(.98316 0 0 -1.02767 .183 -278.22)" gradientUnits="userSpaceOnUse"/><linearGradient xlink:href="#a" id="w" x1="54.08" x2="253.21" y1="-401.24" y2="-401.24" gradientTransform="matrix(.98316 0 0 -1.02767 .183 -278.22)" gradientUnits="userSpaceOnUse"/><linearGradient xlink:href="#a" id="x" x1="54.08" x2="253.13" y1="-444.09" y2="-444.09" gradientTransform="matrix(.98316 0 0 -1.02767 .183 -278.22)" gradientUnits="userSpaceOnUse"/><linearGradient xlink:href="#a" id="y" x1="54.08" x2="253.17" y1="-400.04" y2="-400.04" gradientTransform="matrix(.98316 0 0 -1.02767 .183 -278.22)" gradientUnits="userSpaceOnUse"/><linearGradient xlink:href="#a" id="z" x1="54.08" x2="253.17" y1="-385.99" y2="-385.99" gradientTransform="matrix(.98316 0 0 -1.02767 .183 -278.22)" gradientUnits="userSpaceOnUse"/><linearGradient xlink:href="#a" id="A" x1="54.08" x2="253.17" y1="-430.04" y2="-430.04" gradientTransform="matrix(.98316 0 0 -1.02767 .183 -278.22)" gradientUnits="userSpaceOnUse"/><linearGradient xlink:href="#a" id="B" x1="54.08" x2="253.17" y1="-394.19" y2="-394.19" gradientTransform="matrix(.98316 0 0 -1.02767 .183 -278.22)" gradientUnits="userSpaceOnUse"/><linearGradient xlink:href="#a" id="C" x1="54.08" x2="253.17" y1="-408.29" y2="-408.29" gradientTransform="matrix(.98316 0 0 -1.02767 .183 -278.22)" gradientUnits="userSpaceOnUse"/><linearGradient xlink:href="#a" id="D" x1="54.08" x2="253.17" y1="-436.74" y2="-436.74" gradientTransform="matrix(.98316 0 0 -1.02767 .183 -278.22)" gradientUnits="userSpaceOnUse"/><linearGradient xlink:href="#a" id="E" x1="54.08" x2="253.17" y1="-422.44" y2="-422.44" gradientTransform="matrix(.98316 0 0 -1.02767 .183 -278.22)" gradientUnits="userSpaceOnUse"/><linearGradient xlink:href="#a" id="F" x1="54.08" x2="253.21" y1="-386.89" y2="-386.89" gradientTransform="matrix(.98316 0 0 -1.02767 .183 -278.22)" gradientUnits="userSpaceOnUse"/><linearGradient xlink:href="#a" id="G" x1="54.08" x2="253.21" y1="-420.69" y2="-420.69" gradientTransform="matrix(.98316 0 0 -1.02767 .183 -278.22)" gradientUnits="userSpaceOnUse"/><linearGradient xlink:href="#a" id="H" x1="54.12" x2="253.17" y1="-417.29" y2="-417.29" gradientTransform="matrix(.98316 0 0 -1.02767 .183 -278.22)" gradientUnits="userSpaceOnUse"/><linearGradient xlink:href="#a" id="I" x1="54.12" x2="253.17" y1="-402.79" y2="-402.79" gradientTransform="matrix(.98316 0 0 -1.02767 .183 -278.22)" gradientUnits="userSpaceOnUse"/><linearGradient xlink:href="#a" id="J" x1="54.12" x2="253.17" y1="-431.29" y2="-431.29" gradientTransform="matrix(.98316 0 0 -1.02767 .183 -278.22)" gradientUnits="userSpaceOnUse"/><linearGradient xlink:href="#a" id="K" x1="54.08" x2="253.21" y1="-396.94" y2="-396.94" gradientTransform="matrix(.98316 0 0 -1.02767 .183 -278.22)" gradientUnits="userSpaceOnUse"/><linearGradient xlink:href="#a" id="L" x1="54.12" x2="253.17" y1="-388.69" y2="-388.69" gradientTransform="matrix(.98316 0 0 -1.02767 .183 -278.22)" gradientUnits="userSpaceOnUse"/><linearGradient xlink:href="#a" id="M" x1="54.08" x2="253.21" y1="-382.54" y2="-382.54" gradientTransform="matrix(.98316 0 0 -1.02767 .183 -278.22)" gradientUnits="userSpaceOnUse"/><linearGradient xlink:href="#a" id="N" x1="54.08" x2="253.17" y1="-408.89" y2="-408.89" gradientTransform="matrix(.98316 0 0 -1.02767 .183 -278.22)" gradientUnits="userSpaceOnUse"/><linearGradient xlink:href="#a" id="O" x1="54.08" x2="253.17" y1="-394.84" y2="-394.84" gradientTransform="matrix(.98316 0 0 -1.02767 .183 -278.22)" gradientUnits="userSpaceOnUse"/><linearGradient xlink:href="#a" id="P" x1="54.08" x2="253.17" y1="-437.39" y2="-437.39" gradientTransform="matrix(.98316 0 0 -1.02767 .183 -278.22)" gradientUnits="userSpaceOnUse"/><linearGradient xlink:href="#a" id="Q" x1="54.08" x2="253.17" y1="-380.64" y2="-380.64" gradientTransform="matrix(.98316 0 0 -1.02767 .183 -278.22)" gradientUnits="userSpaceOnUse"/><linearGradient xlink:href="#a" id="R" x1="54.08" x2="253.17" y1="-423.19" y2="-423.19" gradientTransform="matrix(.98316 0 0 -1.02767 .183 -278.22)" gradientUnits="userSpaceOnUse"/><linearGradient xlink:href="#a" id="S" x1="54.08" x2="253.21" y1="-411.19" y2="-411.19" gradientTransform="matrix(.98316 0 0 -1.02767 .183 -278.22)" gradientUnits="userSpaceOnUse"/><linearGradient xlink:href="#a" id="T" x1="54.08" x2="253.21" y1="-392.49" y2="-392.49" gradientTransform="matrix(.98316 0 0 -1.02767 .183 -278.22)" gradientUnits="userSpaceOnUse"/><linearGradient xlink:href="#a" id="U" x1="54.08" x2="253.17" y1="-426.99" y2="-426.99" gradientTransform="matrix(.98316 0 0 -1.02767 .183 -278.22)" gradientUnits="userSpaceOnUse"/><linearGradient xlink:href="#a" id="V" x1="54.08" x2="253.21" y1="-425.34" y2="-425.34" gradientTransform="matrix(.98316 0 0 -1.02767 .183 -278.22)" gradientUnits="userSpaceOnUse"/><linearGradient xlink:href="#a" id="W" x1="54.08" x2="253.17" y1="-398.64" y2="-398.64" gradientTransform="matrix(.98316 0 0 -1.02767 .183 -278.22)" gradientUnits="userSpaceOnUse"/><linearGradient xlink:href="#a" id="X" x1="54.08" x2="253.17" y1="-441.69" y2="-441.69" gradientTransform="matrix(.98316 0 0 -1.02767 .183 -278.22)" gradientUnits="userSpaceOnUse"/><linearGradient xlink:href="#a" id="Y" x1="54.08" x2="253.21" y1="-406.59" y2="-406.59" gradientTransform="matrix(.98316 0 0 -1.02767 .183 -278.22)" gradientUnits="userSpaceOnUse"/><linearGradient xlink:href="#a" id="Z" x1="54.08" x2="253.21" y1="-384.44" y2="-384.44" gradientTransform="matrix(.98316 0 0 -1.02767 .183 -278.22)" gradientUnits="userSpaceOnUse"/><linearGradient xlink:href="#a" id="aa" x1="54.08" x2="253.17" y1="-413.09" y2="-413.09" gradientTransform="matrix(.98316 0 0 -1.02767 .183 -278.22)" gradientUnits="userSpaceOnUse"/><linearGradient xlink:href="#a" id="ab" x1="54.08" x2="253.21" y1="-439.69" y2="-439.69" gradientTransform="matrix(.98316 0 0 -1.02767 .183 -278.22)" gradientUnits="userSpaceOnUse"/><linearGradient xlink:href="#a" id="ac" x1="54.08" x2="253.17" y1="-433.59" y2="-433.59" gradientTransform="matrix(.98316 0 0 -1.02767 .183 -278.22)" gradientUnits="userSpaceOnUse"/><linearGradient xlink:href="#a" id="ad" x1="54.08" x2="253.17" y1="-390.59" y2="-390.59" gradientTransform="matrix(.98316 0 0 -1.02767 .183 -278.22)" gradientUnits="userSpaceOnUse"/><linearGradient xlink:href="#a" id="ae" x1="54.08" x2="253.17" y1="-419.19" y2="-419.19" gradientTransform="matrix(.98316 0 0 -1.02767 .183 -278.22)" gradientUnits="userSpaceOnUse"/><linearGradient xlink:href="#a" id="af" x1="54.08" x2="253.17" y1="-405.09" y2="-405.09" gradientTransform="matrix(.98316 0 0 -1.02767 .183 -278.22)" gradientUnits="userSpaceOnUse"/><path fill="#0e3ca5" d="M101.164 182.176c6.39 24.25 28.902 42.75 40.113 41.926.391 0 43.063-8.22 66.364-49.02 17.992-31.754 11.992-62.273-12.782-62.687-9.34.414-105.691 23.843-93.695 69.78m91.04-155.179C160.55-1.172 116.257-7.883 78.253 9.73c-2.258 1.133-4.52 2.364-6.781 3.497A31.477 31.477 0 0 0 66.949 16h.395a52.641 52.641 0 0 0-11.211 11.406C25.066 70.16 128.887 101.09 184.73 101.504c25.465 19.101 32.641-54.168 7.473-74.508zm0 0"/><path fill="#5493f7" d="M84.254 27.707c-14.258 22.402-61.84 38.434-69.707 35.66l1.082-1.953a102.562 102.562 0 0 1 9.34-15.723 92.128 92.128 0 0 1 11.207-13.668A126.626 126.626 0 0 1 49.254 20.31c2.95-2.368 5.996-4.317 8.945-6.27 4.813-2.805 10.223-4.289 15.73-4.316 21.63.41 10.716 17.984 10.325 17.984M72.652 186.48c1.082 7.09 0 34.836-1.476 37.2-1.082 0-3.735.414-10.91-3.903-3.739-2.363-7.082-4.726-10.914-7.398-9.418-7.328-17.766-16.055-24.778-25.899-3.34-5.14-6.781-10.175-9.34-15.62a153.448 153.448 0 0 1-7.078-16.856 156.405 156.405 0 0 1-4.523-18.395 132.551 132.551 0 0 1 0-38.433c1.18-6.371 2.262-12.64 4.523-18.496a48.471 48.471 0 0 0 1.082-3.496c8.258 11.406 17.598 21.89 25.856 33.296a317.737 317.737 0 0 1 20.254 32.887c14.355 23.531 16.222 38.434 17.304 45.113m158.192-70.19a126.616 126.616 0 0 1-7.867 43.882c-13.47 14.902-103.82-21.89-104.903-22.3-12.386-5.552-49.945-22.712-53.289-50.15C59.871 48.567 135.672 21.54 169 20.31c4.129 0 16.125 0 23.203 6.265 24.82 22.555 38.942 55.34 38.64 89.715M169.79 222.04c-9.734 4.727-20.648 1.129-17.992-8.633 5.601-19.219 52.894-39.156 63.316-39.976 1.078 0 1.867.82 1.078 1.953-10.996 19.773-27.07 35.933-46.402 46.656"/><path fill="url(#b)" d="M53.578 240.844c-.25 2.187.363 4.39 1.7 6.094 1.335 1.707 3.277 2.773 5.378 2.949 95.957.824 188.57-3.907 188.57-18.805 0-45.824-195.648 9.762-195.648 9.762zm0 0"/><path fill="url(#c)" d="M53.578 240.844c-.25 2.187.363 4.39 1.7 6.094 1.335 1.707 3.277 2.773 5.378 2.949 95.957.824 188.176-2.364 188.57-18.805 0-45.824-195.648 9.762-195.648 9.762zm7.078 8.324h-.785c-3.043-.477-5.539-2.766-6.39-5.86.808 3.454 3.777 5.876 7.175 5.86 95.563-.824 186.703-31.344 186.703-17.984s-90.746 18.703-186.703 17.984zm0 0"/><path fill="url(#d)" d="M60.656 111.973c-4.125 0-7.472 3.5-7.472 7.812v121.059c-.043 4.176 3.09 7.633 7.082 7.808 95.953-.82 188.566-34.117 188.566-17.984V94.402c.395-16.136-92.219 16.75-188.176 17.57zm0 0"/><path fill="url(#e)" d="M74.902 195.832c3.344 0 6.785-.41 10.13-.41l9.73-.824c2.949-.41 6.39-.41 9.34-.82l9.046-.825 8.653-.82c2.949-.41 5.601-.824 8.652-1.133l8.649-1.129 8.261-1.129 8.258-1.133 8.652-1.129 8.653-1.542 8.648-1.54 8.653-1.543 9.046-1.542 9.34-1.54 9.735-1.543c3.34-.41 6.39-.82 10.52-1.539a74.376 74.376 0 0 1 13.468-.824c4.129.41 7.473 1.543 7.473 4.317v-10.586c0-3.184-3.051-3.903-7.082-4.317a62.26 62.26 0 0 0-12.387.414c-3.735.41-6.781.82-9.735 1.13-2.91.32-5.8.835-8.648 1.542l-8.262 1.54-8.257 1.542-8.946 1.13-8.652 1.542-9.047 1.54-9.73 1.542-10.52 1.543V167.16l10.52-1.543 9.73-1.539 9.047-1.543 8.652-1.543 8.258-1.539 8.258-1.543 8.258-1.539 8.652-1.543c3.05-.41 5.605-.824 9.734-1.129 4.09-.754 8.262-.89 12.387-.414 3.738.414 7.078 1.543 7.078 4.317V147.02c0-3.086-3.047-3.907-7.078-4.317a62.25 62.25 0 0 0-12.387.41c-3.734.41-6.785.82-9.734 1.13l-8.652 1.542-8.258 1.54-16.516 3.085-8.652 1.54-9.047 1.542-9.73 1.543-10.52 1.54v-10.587l10.52-1.539 9.73-1.543 9.047-1.539 8.652-1.543 8.258-1.543 8.258-1.539 8.258-1.543 8.652-1.543c3.05-.41 5.605-.82 9.734-1.129s8.258-.82 12.387-.41c3.738.41 7.078 1.54 7.078 4.317v-10.688c0-3.187-3.047-3.906-7.078-4.316a62.544 62.544 0 0 0-12.387.41c-3.734.41-6.785.82-9.734 1.129s-5.602.824-8.652 1.543l-8.258 1.543-8.258 1.539-8.258 1.543-8.652 1.543-9.047 1.539-9.73 1.543-10.52 1.539v-10.172l10.52-1.543 9.73-1.54c3.05-.413 6-1.132 9.047-1.542l8.652-1.543 8.258-1.54 8.258-1.542 8.258-1.54c3.05-.413 5.605-.823 8.652-1.542 3.05-.719 5.605-.824 9.734-1.129 4.09-.75 8.262-.887 12.387-.402 3.738.41 7.078 1.543 7.078 4.316v-10.586c0-3.082-3.047-3.906-7.078-4.316a62.544 62.544 0 0 0-12.387.41c-3.734.414-6.785.824-9.734 1.133s-5.602.82-8.652 1.539l-16.516 3.086-8.258 1.539-8.652 1.543-9.047 1.543-9.73 1.539-10.52 1.543v-10.38a593.256 593.256 0 0 1-87.7 7.81c-4.124 0-7.472 3.495-7.472 7.808v76.355h10.914c3.145.106 7.274-.304 10.617-.304zm0 0"/><path fill="url(#f)" d="m74.902 216.59 10.13-.41 9.73-.825 9.34-.82 9.046-.82 8.653-.824 8.652-1.13 8.649-.823 8.261-1.13 8.258-1.132 8.652-1.13 8.653-1.542 8.648-1.54 8.653-1.542 9.046-1.54 9.34-1.542 9.735-1.543c3.34-.41 6.39-.82 10.52-1.54 4.128-1.542 8.652-1.542 13.073-1.542 4.13.41 7.473 1.543 7.473 4.726v-10.574c0-3.183-3.344-4.316-7.473-4.726a74.374 74.374 0 0 0-13.468.82c-4.13.414-7.078 1.133-10.52 1.543l-9.734 1.543-9.34 1.539-9.242 1.441-8.653 1.54-8.648 1.542c-2.953.41-5.606.82-8.652 1.54l-8.258 1.542-8.262 1.133-8.258 1.13-8.652 1.128c-3.047.414-5.602.824-8.652 1.133l-8.649.82-9.047.824c-3.094.493-6.21.77-9.34.82l-9.734.825c-3.34 0-6.781.41-10.125.41s-6.785.41-10.52.41c-3.738 0-7.078.41-10.914.41v10.586h10.914l10.715-.718zm0 0"/><path fill="url(#g)" d="M241.656 205.594a74.025 74.025 0 0 0-13.469.824c-4.128.41-7.078 1.129-10.519 1.539l-9.734 1.543-9.34 1.543-8.946 1.539-8.652 1.543-8.652 1.54-8.653 1.542-8.257 1.129-8.258 1.133-8.258 1.129-8.652 1.543-8.653 1.129-8.652.824-9.043.82-9.734 1.133-9.735.82-10.125.41-10.52.41H52.892v10.176h10.914a90.98 90.98 0 0 0 10.52-.41 82.683 82.683 0 0 1 10.124-.41 78.156 78.156 0 0 0 9.735-.824l9.34-.82 9.042-.825 8.653-.82 8.652-1.133 8.652-1.129 8.653-1.543 8.258-1.129 8.257-1.132 8.653-1.13 8.652-1.542 8.652-1.54 8.946-1.542 9.34-1.54 9.734-1.542c3.344-.41 6.39-1.13 10.52-1.543a74.729 74.729 0 0 1 13.468-.82c4.13.41 7.473 1.542 7.473 4.316v-10.586c.098-3.39-3.344-4.625-7.473-4.625zm0 0"/><path fill="url(#h)" d="m74.125 185.258 9.34-.41 9.047-.414 8.652-.82 8.652-.825 8.653-.82c2.949-.41 5.996-.824 9.34-1.13l9.73-1.132c3.344-.41 7.078-1.129 10.914-1.539v-73.992a593.21 593.21 0 0 1-87.7 7.808c-4.124 0-7.468 3.496-7.468 7.809v65.773h10.91zm0 0"/><path fill="url(#i)" d="M75.996 115.16c-.394 1.13-.394 1.953-.789 3.188h-2.95l2.263 1.539c-.395 1.133-.395 1.953-.786 3.082l2.262-1.95 2.258 1.54c-.39-1.13-.39-1.54-.785-2.774l2.261-1.953h-2.949zm0 0"/><path fill="url(#j)" d="M84.254 151.54c-.395 1.128-.395 1.952-.79 3.081h-2.948l2.261 1.543c-.39 1.129-.39 1.953-.785 3.188l2.262-1.954 2.262 1.54c-.395-1.13-.395-1.54-.79-2.774l2.262-1.953H85.04c0-1.129-.394-1.438-.785-2.672zm0 0"/><path fill="url(#k)" d="M85.04 168.816c-.395-1.132-.395-1.543-.786-2.777-.395 1.133-.395 1.953-.79 3.188h-2.948l2.261 1.539c-.39 1.132-.39 1.953-.785 3.086l2.262-1.954 2.262 1.54c-.395-1.13-.395-1.54-.79-2.774l2.262-1.953H85.04zm0 0"/><path fill="url(#l)" d="M75.996 144.55c-.394 1.134-.394 1.954-.789 3.188h-2.95l2.263 1.54c-.395 1.132-.395 1.952-.786 3.085l2.262-1.953 2.258 1.54c-.39-1.13-.39-1.54-.785-2.774.785-.82 1.476-1.13 2.261-1.953h-2.949c-.394-1.13-.394-1.54-.785-2.672zm0 0"/><path fill="url(#m)" d="M75.996 159.043c-.394 1.129-.394 1.95-.789 3.082h-2.95l2.263 1.54c-.395 1.132-.395 1.952-.786 3.187l2.262-1.954 2.258 1.543c-.39-1.132-.39-1.543-.785-2.777l2.261-1.95h-2.949zm0 0"/><path fill="url(#n)" d="M75.996 130.063c-.394 1.128-.394 1.953-.789 3.082h-2.95l2.263 1.542c-.395 1.13-.395 1.95-.786 3.184l2.262-1.953 2.258 1.543c-.39-1.133-.39-1.543-.785-2.774.785-.824 1.476-1.132 2.261-1.953h-2.949zm0 0"/><path fill="url(#o)" d="M101.164 164.898a8.951 8.951 0 0 0-.789 3.082l-2.95.415 2.263 1.539c-.391 1.132-.391 1.953-.786 3.187l2.262-1.953 2.262 1.543c-.395-1.133-.395-1.543-.79-2.777l2.262-1.954-2.949-.41zm0 0"/><path fill="url(#p)" d="M84.254 136.637c-.395 1.133-.395 1.953-.79 3.187h-2.948l2.261 1.543c-.39 1.13-.39 1.95-.785 3.082l2.262-1.953 2.262 1.543c-.395-1.133-.395-1.543-.79-2.777l2.262-1.953H85.04c-.148-.922-.41-1.82-.785-2.672zm0 0"/><path fill="url(#q)" d="M92.512 158.219c-.395 1.133-.395 1.953-.785 3.187h-2.95l2.258 1.54c-.39 1.132-.39 1.952-.785 3.085l2.262-1.953 2.261 1.54c-.394-1.13-.394-1.54-.789-2.774l2.262-1.953-3.047.41a5.897 5.897 0 0 0-.687-3.082zm0 0"/><path fill="url(#r)" d="M93.691 175.484c-.394-1.129-.394-1.543-.785-2.773-.394 1.129-.394 1.95-.789 3.082l-2.949.41 2.262 1.543c-.395 1.129-.395 1.953-.785 3.184l2.261-1.953 2.262 1.543c-.395-1.13-.395-1.543-.79-2.774l2.263-1.953zm0 0"/><path fill="url(#s)" d="M84.254 122.148c-.395 1.13-.395 1.954-.79 3.082h-2.948l2.261 1.543c-.39 1.13-.39 1.954-.785 3.184l2.262-1.95 2.262 1.54c-.395-1.129-.395-1.54-.79-2.774l2.262-1.953H85.04c0-1.027-.394-1.437-.785-2.672zm0 0"/><path fill="url(#t)" d="M92.512 143.316c-.395 1.133-.395 1.954-.785 3.086h-2.95l2.258 1.54c-.39 1.132-.39 1.953-.785 3.187l2.262-1.953 2.261 1.543c-.394-1.133-.394-1.543-.789-2.778l2.262-1.953-3.047.414a7.354 7.354 0 0 0-.687-3.086zm0 0"/><path fill="url(#u)" d="m76.781 176.613-.785-2.773c-.394 1.129-.394 1.953-.789 3.187h-2.95l2.263 1.54c-.395 1.132-.395 1.953-.786 3.081l2.262-2.363 2.258 1.543-.688-2.672 2.262-1.953zm0 0"/><path fill="url(#v)" d="M59.172 144.86c-.395 1.128-.395 1.542-.785 2.773h-2.95l2.262 1.953c-.394 1.133-.394 1.543-.789 2.777l2.262-1.953 2.262 1.953c-.395-1.133-.395-1.543-.786-2.777l2.262-1.953h-2.95a16.275 16.275 0 0 0-.788-2.774zm0 0"/><path fill="url(#w)" d="m59.172 130.371-.785 2.774h-2.95l2.262 1.953c-.394 1.129-.394 1.539-.789 2.773l2.262-1.941 2.262 1.953c-.395-1.133-.395-1.543-.786-2.778l2.262-1.949h-2.95a10.828 10.828 0 0 0-.788-2.785zm0 0"/><path fill="url(#x)" d="m60.266 177.035-.79-2.773c-.39 1.129-.39 1.953-.785 2.773h-2.949l2.262 1.953-.79 3.082 2.263-1.953 2.261 1.953c-.394-1.129-.394-1.539-.785-2.773l2.262-1.953zm0 0"/><path fill="url(#y)" d="m90.25 136.637 2.262-1.95 2.261 1.54c-.394-1.13-.394-1.54-.789-2.774l2.262-1.953-3.047.41c-.394-1.129-.394-1.539-.785-2.773-.394 1.129-.394 1.953-.789 3.183h-2.957l2.262 1.543a6.788 6.788 0 0 1-.688 2.774zm0 0"/><path fill="url(#z)" d="m90.25 122.148 2.262-1.953 2.261 1.543c-.394-1.133-.394-1.543-.789-2.777l2.262-1.95-2.95.512-.784-2.773c-.395 1.129-.395 1.953-.785 3.082h-2.95l2.258 1.543a9.356 9.356 0 0 1-.785 2.773zm0 0"/><path fill="url(#A)" d="M59.172 159.762c-.395 1.129-.395 1.953-.785 3.183h-2.95l2.262 1.953c-.375.887-.636 1.82-.789 2.774l2.262-1.942 2.262 1.543-.786-2.773 2.262-1.953h-2.95a7.619 7.619 0 0 0-.788-2.777zm0 0"/><path fill="url(#B)" d="M67.734 122.969c-.39 1.133-.39 1.953-.785 3.187H64l2.262 1.543-.79 3.082 2.262-1.953 2.262 1.543c-.39-1.133-.39-1.953-.785-2.777l2.262-1.953h-2.95zm0 0"/><path fill="url(#C)" d="M67.734 137.46c-.39 1.13-.39 1.954-.785 3.083H64l2.262 1.543-.79 3.184 2.262-1.954 2.262 1.543c-.39-1.129-.39-1.543-.785-2.773l2.262-1.953h-2.95zm0 0"/><path fill="url(#D)" d="M68.523 169.625c-.394-1.129-.394-1.54-.789-2.773-.39 1.128-.39 1.953-.785 2.773H64l2.262 1.953c-.395 1.133-.395 1.543-.79 2.777l2.262-1.953 2.254 1.551c-.394-1.129-.394-1.543-.789-2.773l2.262-1.953zm0 0"/><path fill="url(#E)" d="M67.734 151.95c-.39 1.132-.39 1.952-.785 3.187H64l2.262 1.953-1.082 2.773 2.261-1.953 2.262 1.543-.789-2.773 2.262-1.953h-2.653c-.394-.825-.394-1.645-.789-2.778zm0 0"/><path fill="url(#F)" d="M59.172 115.469c-.395 1.129-.395 1.953-.785 2.773h-2.95l2.262 1.953-.789 3.082 2.262-1.953 2.262 1.953c-.395-1.129-.395-1.539-.786-2.773l2.262-1.953h-2.95zm0 0"/><path fill="url(#G)" d="M101.164 149.996a8.961 8.961 0 0 0-.789 3.188l-2.95.41 2.263 1.543c-.391 1.129-.391 1.953-.786 3.082l2.262-1.953 2.262 1.543c-.395-1.13-.395-1.543-.79-2.774l2.262-1.953-2.949.41zm0 0"/><path fill="url(#H)" d="M134.492 146.504c-.394 1.129-.394 1.953-.785 3.187l-3.05.41 2.261 1.54a9.033 9.033 0 0 0-.785 3.086l2.262-1.954 2.261 1.54a6.918 6.918 0 0 1-.789-2.774l2.262-1.953-2.95.41a16.074 16.074 0 0 0-.687-3.492zm0 0"/><path fill="url(#I)" d="M134.492 131.602c-.394 1.132-.394 1.953-.785 3.085l-3.05.41 2.261 1.54a8.956 8.956 0 0 0-.785 3.187l2.262-1.953 2.261 1.543a6.935 6.935 0 0 1-.789-2.777l2.262-1.95-2.95.41a23.542 23.542 0 0 0-.687-3.495zm0 0"/><path fill="url(#J)" d="M135.277 163.676c-.39-1.13-.39-1.543-.785-2.774-.394 1.13-.394 1.953-.785 3.082l-3.05.41 2.261 1.543a8.956 8.956 0 0 0-.785 3.184l2.262-1.95 2.261 1.54a6.918 6.918 0 0 1-.789-2.774l2.262-1.953zm0 0"/><path fill="url(#K)" d="m125.84 125.746-.785 2.774-2.95.41 2.262 1.543c-.394 1.129-.394 1.953-.789 3.183l2.262-1.949 2.262 1.54a6.85 6.85 0 0 1-.786-2.774l2.262-1.953-3.05.41a5.195 5.195 0 0 0-.688-3.184zm0 0"/><path fill="url(#L)" d="M134.492 117.113c-.394 1.13-.394 1.953-.785 3.184l-3.344.414 2.262 1.539a8.95 8.95 0 0 0-.79 3.086l2.263-1.953 2.261 1.539a6.85 6.85 0 0 1-.785-2.774l2.262-1.953c-1.082 0-1.867.41-3.047.41a7.254 7.254 0 0 0-.297-3.492zm0 0"/><path fill="url(#M)" d="m125.84 110.844-.785 3.082-2.95.414 2.262 1.539c-.394 1.133-.394 1.953-.789 3.082l2.262-1.95 2.262 1.54a6.85 6.85 0 0 1-.786-2.774l2.262-1.953-3.05.41a7.437 7.437 0 0 0-.688-3.39zm0 0"/><path fill="url(#N)" d="M142.742 137.871c-.394 1.129-.394 1.953-.789 3.082l-2.95.414 2.263 1.54a8.874 8.874 0 0 0-.786 3.187l2.262-1.942 2.262 1.54-.79-2.774 2.263-2.363h-2.95c-.382-1.14-.382-1.543-.785-2.684zm0 0"/><path fill="url(#O)" d="M142.742 123.383c-.394 1.129-.394 1.953-.789 3.183l-2.95.41 2.263 1.544a8.874 8.874 0 0 0-.786 3.187l2.262-1.945 2.262 1.543a6.936 6.936 0 0 1-.79-2.774l2.263-1.953-2.95-.41c-.394-1.234-.394-1.645-.785-2.777zm0 0"/><path fill="url(#P)" d="M143.54 169.934c-.395-1.13-.395-1.54-.79-2.774-.39 1.13-.39 1.953-.785 3.082l-2.95.41 2.262 1.543-.789 3.188 2.262-1.953 2.262 1.539c-.395-1.13-.395-1.54-.785-2.774l2.261-1.953zm0 0"/><path fill="url(#Q)" d="m142.742 108.89-.789 3.083-2.95.414 2.263 1.539a8.945 8.945 0 0 0-.786 3.086c.786-.825 1.473-1.133 2.262-1.953l2.262 1.539a6.918 6.918 0 0 1-.79-2.774l2.263-1.953-2.95-.41a26.716 26.716 0 0 0-.785-2.57zm0 0"/><path fill="url(#R)" d="M142.742 152.773c-.394 1.13-.394 1.954-.789 3.184h-2.95l2.263 1.543-.786 3.082 2.262-1.953 2.262 1.543c-.395-1.129-.395-1.543-.79-2.774l2.263-1.953h-2.95c-.394-1.132-.394-1.543-.785-2.672zm0 0"/><path fill="url(#S)" d="m125.84 140.234-.785 3.188-2.95.41 2.262 1.543c-.394 1.129-.394 1.95-.789 3.082l2.262-1.953 2.262 1.543a6.868 6.868 0 0 1-.786-2.777l2.262-1.954-3.05.414a6.547 6.547 0 0 0-.688-3.496zm0 0"/><path fill="url(#T)" d="M101.164 121.02a8.92 8.92 0 0 0-.789 3.183l-2.95.41 2.263 1.543c-.391 1.13-.391 1.953-.786 3.082l2.262-1.953 2.262 1.543c-.395-1.129-.395-1.543-.79-2.773l2.262-1.953-2.949.41zm0 0"/><path fill="url(#U)" d="m109.422 156.68-.785 3.183h-2.95l2.258 1.543a8.99 8.99 0 0 0-.785 3.082l2.262-1.953 2.262 1.543c-.395-1.133-.395-1.543-.786-2.777l2.258-1.95-2.949.41a31.789 31.789 0 0 0-.785-3.081zm0 0"/><path fill="url(#V)" d="m125.84 154.727-.785 3.183-2.95.41 2.653 1.543c-.39 1.13-.39 1.953-.785 3.188l2.261-1.953 2.262 1.539a6.918 6.918 0 0 1-.789-2.774l2.262-1.953-3.047.41a19.147 19.147 0 0 0-1.082-3.593zm0 0"/><path fill="url(#W)" d="m109.422 127.285-.785 3.188-2.95.41 2.258 1.543a8.936 8.936 0 0 0-.785 3.183l2.262-1.953 2.262 1.543c-.395-1.129-.395-1.543-.786-2.773l2.258-1.953-2.949.41c-.39-1.645-.39-2.465-.785-3.598zm0 0"/><path fill="url(#X)" d="m109.422 171.578-.785 3.188-2.95.41 2.258 1.543a8.99 8.99 0 0 0-.785 3.082l2.262-1.953 2.262 1.543c-.395-1.133-.395-1.543-.786-2.778l2.258-1.953-2.949.414c-.39-1.953-.39-2.777-.785-3.496zm0 0"/><path fill="url(#Y)" d="M101.164 135.508a8.929 8.929 0 0 0-.789 3.082l-2.95.41 2.263 1.543c-.391 1.133-.391 1.953-.786 3.187l2.262-1.953 2.262 1.54c-.395-1.13-.395-1.54-.79-2.774l2.262-1.953-2.949.41zm0 0"/><path fill="url(#Z)" d="M109.422 112.797c-.395 1.129-.395 1.953-.785 3.082l-2.95.41 2.258 1.543a9.012 9.012 0 0 0-.785 3.082l2.262-1.953 2.262 1.543c-.395-1.129-.395-1.543-.786-2.774l2.258-1.953-2.949.41a23.973 23.973 0 0 0-.785-3.39zm0 0"/><path fill="url(#aa)" d="M109.422 142.188c-.395 1.128-.395 1.953-.785 3.187l-2.95.41 2.258 1.54c-.39 1.132-.39 1.952-.785 3.085l2.262-1.953 2.262 1.54c-.395-1.13-.395-1.54-.786-2.774l2.258-1.953-2.949.414a23.094 23.094 0 0 0-.785-3.496zm0 0"/><path fill="url(#ab)" d="M127.012 172.297c-.395-1.129-.395-1.54-.79-2.774l-.784 3.188-2.95.41 2.262 1.54c-.395 1.132-.395 1.952-.79 3.085.79-.824 1.478-1.133 2.263-1.953l2.261 1.539a6.85 6.85 0 0 1-.785-2.773l2.262-1.954zm0 0"/><path fill="url(#ac)" d="M118.367 166.031c-.39-1.133-.39-1.543-.785-2.777-.394 1.133-.394 1.953-.785 3.082l-3.05.414 2.26 1.54a8.956 8.956 0 0 0-.784 3.187l2.261-1.954 2.262 1.543a6.935 6.935 0 0 1-.789-2.777l2.262-1.953zm0 0"/><path fill="url(#ad)" d="M117.68 119.066c-.39 1.54-.39 1.954-.785 3.184l-3.047.41 2.257 1.543a9.012 9.012 0 0 0-.785 3.082l2.262-1.95 2.262 1.54a6.85 6.85 0 0 1-.785-2.773l2.257-1.954-3.046.41a9.154 9.154 0 0 0-.59-3.492zm0 0"/><path fill="url(#ae)" d="M117.68 148.457c-.39 1.129-.39 1.953-.785 3.184l-3.047.414 2.257 1.539a9.033 9.033 0 0 0-.785 3.086l2.262-1.953 2.262 1.539a6.85 6.85 0 0 1-.785-2.774l2.257-1.953-3.046.41a7.898 7.898 0 0 0-.59-3.492zm0 0"/><path fill="url(#af)" d="M117.68 133.965c-.39 1.133-.39 1.953-.785 3.086l-3.047.41 2.257 1.539a8.956 8.956 0 0 0-.785 3.188l2.262-1.954 2.262 1.543a6.868 6.868 0 0 1-.785-2.777l2.257-1.95-3.046.41a7.915 7.915 0 0 0-.59-3.495zm0 0"/><path fill="#fff" d="M153.29 167.785c0 42.985-33.333 77.828-74.454 77.828-41.121 0-74.453-34.843-74.453-77.828 0-42.98 33.332-77.824 74.453-77.824s74.453 34.844 74.453 77.824zm0 0"/><path fill="#0e3ca5" d="M78.836 94.34c38.809 0 70.266 32.883 70.266 73.445 0 40.567-31.457 73.45-70.266 73.45-38.809 0-70.266-32.883-70.266-73.45.043-40.543 31.477-73.398 70.266-73.445m0-8.766c-43.438 0-78.652 36.809-78.652 82.211C.184 213.191 35.398 250 78.836 250s78.652-36.809 78.652-82.215c0-45.402-35.215-82.21-78.652-82.21zm0 0"/><path fill="#5493f7" d="m121.504 201.074-9.14 7.934c-6.364 5.531-15.762 4.851-21.337-1.543l-40.703-46.676 22.367-19.723zm0 0"/><path fill="#0e3ca5" d="m75.219 176.328-36.18-7.976a5.812 5.812 0 0 1-3.234-1.903l-10.207-11.816a.522.522 0 0 1-.13-.32l-.066-1.829 50.141 21.961zm0 0"/><path fill="#5493f7" d="m77.215 134.191 14.45-11.168a.95.95 0 0 1 1.132 0l8.613 6.567c.5.37.824.953.895 1.59l3.078 27.668zm0 0"/><path fill="#0e3ca5" d="m126.027 178.277 5.996 23.422c.692 2.696-.046 5.57-1.937 7.54-1.887 1.968-4.637 2.734-7.215 2.007l-20.644-5.848c-3.989-1.078-7.61-3.289-10.461-6.39l-41.836-45.61c-5.965-6.55-5.895-16.863.16-23.328 5.734-6.125 14.965-6.746 21.402-1.437l34.871 28.879 13.766 11.375c2.879 2.386 4.95 5.68 5.898 9.39zm0 0"/><g fill="#5493f7"><path d="M126.027 178.277a18.556 18.556 0 0 0-1.218-3.359 23.477 23.477 0 0 1-6.766 3.926 37.322 37.322 0 0 1-20.527 1.367c-1.192-.258-2.23-.492-3.274.289a3.301 3.301 0 0 0-1.297 2.64c0 1.973 1.473 2.9 3.098 3.208l.52.082c6.882.78 14.472.738 21.234-1.028 3.012-.804 6.305-2.058 8.367-4.636.098-.114.238-.297.402-.524zm-75.43-30.09 25.083 25.93c.039.035.058.086.058.14 0 .052-.02.102-.058.138a.21.21 0 0 1-.168 0l-36.18-7.586a5.834 5.834 0 0 1-3.223-1.899l-10.64-12.137a.327.327 0 0 1 0-.433.277.277 0 0 1 .148-.07l24.805-4.11a.148.148 0 0 1 .176.028zM130.223 202.527c1.097 1.149.566 3.567-1.188 5.399-1.754 1.836-4.066 2.39-5.164 1.242-1.098-1.145-.566-3.563 1.188-5.398 1.754-1.833 4.066-2.391 5.164-1.243zm0 0"/></g></svg>