<svg xmlns="http://www.w3.org/2000/svg" width="250" height="250"><linearGradient id="a" x1="53.75" x2="140.175" y1="62.409" y2="208.917" gradientUnits="userSpaceOnUse"><stop offset="0" stop-color="#03001e" stop-opacity=".15"/><stop offset=".289" stop-color="#7303c0" stop-opacity=".15"/><stop offset=".68" stop-color="#ec38bc" stop-opacity=".15"/><stop offset="1" stop-color="#fdeff9" stop-opacity=".15"/></linearGradient><linearGradient id="b" x1="53.75" x2="140.175" y1="62.409" y2="208.917" gradientUnits="userSpaceOnUse"><stop offset="0" stop-color="#03001e"/><stop offset=".289" stop-color="#7303c0"/><stop offset=".68" stop-color="#ec38bc"/><stop offset="1" stop-color="#fdeff9"/></linearGradient><path fill="#0c0e11" d="M250 125c0 69.035-55.965 125-125 125S0 194.035 0 125 55.965 0 125 0s125 55.965 125 125zm0 0"/><path fill="url(#a)" d="M134.426 198.64c-2.996 5.196-10.496 5.196-13.496.005L54.809 84.19c-3.004-5.195.746-11.691 6.746-11.691h118.46c12.063 0 19.555 13.117 13.423 23.508l-14.383 24.367a31.17 31.17 0 0 1-26.844 15.328h-45.02c-2.636 0-4.254 2.887-2.875 5.137.614 1 1.704 1.61 2.875 1.61h32.668c11.996 0 19.496 12.984 13.5 23.37zm0 0"/><path fill="url(#b)" fill-rule="evenodd" d="m56.973 82.941 66.12 114.45c2.04 3.53 7.134 3.527 9.169 0l18.933-32.817c5.032-8.726-1.261-19.625-11.336-19.625h-32.668a5.878 5.878 0 0 1-5.007-2.804c-2.399-3.915.418-8.942 5.007-8.942h45.02a28.668 28.668 0 0 0 24.691-14.098l14.383-24.37c5.149-8.723-1.14-19.735-11.27-19.735H61.556c-4.075 0-6.621 4.41-4.582 7.941zm63.957 115.704c3 5.19 10.5 5.19 13.496-.004l18.933-32.82c5.996-10.387-1.504-23.372-13.5-23.372h-32.668a3.374 3.374 0 0 1-2.875-1.61c-1.379-2.25.239-5.136 2.875-5.136h45.02a31.17 31.17 0 0 0 26.844-15.328l14.382-24.367c6.133-10.39-1.359-23.508-13.421-23.508H61.555c-6 0-9.75 6.496-6.746 11.691zm0 0"/></svg>