<svg fill="none" height="512" viewBox="0 0 512 512" width="512" xmlns="http://www.w3.org/2000/svg" xmlns:xlink="http://www.w3.org/1999/xlink"><linearGradient id="a"><stop offset="0" stop-color="#ffe7e0"/><stop offset=".34375" stop-color="#f8dbf4"/><stop offset=".6875" stop-color="#c4ddff"/><stop offset="1" stop-color="#cae9ff"/></linearGradient><linearGradient id="b" gradientUnits="userSpaceOnUse" x1="-.000013" x2="512" xlink:href="#a" y1="512" y2="-.000013"/><linearGradient id="c" gradientUnits="userSpaceOnUse" x1="99" x2="280.002" xlink:href="#a" y1="382" y2="96.9219"/><circle cx="256" cy="256" fill="url(#b)" r="256"/><circle cx="256" cy="256" fill="#052b65" r="238"/><path d="m231.827 371.253-123.621-132.202c-20.2559-21.662-4.894-57.051 24.764-57.051 9.381 0 18.343 3.887 24.753 10.735l74.1 79.166c13.41 14.327 36.147 14.312 49.538-.034l73.832-79.098c6.412-6.869 15.388-10.769 24.785-10.769h.052c29.646 0 45.013 35.365 24.781 57.033l-123.438 132.201c-13.395 14.347-36.139 14.356-49.546.019z" fill="url(#c)"/></svg>