<svg xmlns="http://www.w3.org/2000/svg" width="250" height="250"><path fill="#fff" d="M0 0h250v250H0z"/><path fill="#565a55" d="m150 46.668.418.414zm0 0"/><path fill="#1f1b1d" d="m150.418 46.668-2.5 7.5c-4.293-2.418-7.977-1.352-12.5-.418l-2.918-5.418c-.063 7.441-5.734 24.133 5.832 24.168.145 3.336-.34 8.098.691 11.242.454 1.383 2.668 3.102 3.641 1.125.816-1.656.23-4.273.668-6.117h.836c.875 3.688-.73 7.04 4.164 7.082-.035-1.8-.988-4.484.012-6.105 1.847-2.993 11.496-3.211 14.023-1.086 1.778 1.496-.215 6.257 2.633 6.582 2.379.27 2.023-4.356 3.332-5.641 0 .996 1.094 8.883 3.082 4.867 1.293-2.605-.601-6.945-1.414-9.449 7.176.395 5.902 10.793 5.238 15.832-.187 1.438-.023 3.246-.73 4.547-.918 1.687-2.844 2.281-4.508 2.953l-.832-2.914c-3.352.11-4.113 4.797-.809 5.7 11.852 3.237 10.082-10.653 9.594-17.786-.219-3.234.649-7.8-2.281-10.164-2.035-1.64-4.707.098-6.922-.273-3.863-.649-6.012-3.364-10.418-3.31-1.617.02-6.09 1.532-7.09-.14-.71-1.191.406-3.886.422-5.277.055-4.336 1.18-13.95-1.246-17.5zm0 0"/><path fill="#565a55" d="m150.832 47.082.418.418zm0 0"/><path fill="#d2c934" d="m149.582 47.5.418.418zm0 0"/><path fill="#565a55" d="m149.582 47.918.418.414zm-16.664.414.414.418zm.414.418.418.418zm0 0"/><path fill="#d2c934" d="m149.168 48.75.414.418zm-16.945.695.136.278zm0 0"/><path fill="#565a55" d="m149.168 49.168.414.414zm-15.418.414.418.418zm-1.668.418v1.668h.418zm0 0"/><path fill="#d2c934" d="m134.168 50 .414.418zm0 0"/><path fill="#565a55" d="m148.75 50 .418.418zm-14.582.418.414.414zm0 0"/><path fill="#d2c934" d="m148.332 50.832.418.418zm0 0"/><path fill="#565a55" d="m134.723 51.527.136.278zm13.609-.277.418.418zm0 0"/><path fill="#d2c934" d="m147.918 52.082.414.418zm3.332 0v1.668h.418zm0 0"/><path fill="#565a55" d="m135 52.5.418.418zm0 0"/><path fill="#d2c934" d="m138.75 52.5.418.418zm0 0"/><path fill="#565a55" d="m139.445 52.64.278.137zm5 0 .278.137zm3.473-.14.414.418zm0 0"/><path fill="#d2c934" d="m137.082 52.918.418.414zm0 0"/><path fill="#565a55" d="m137.777 53.055.278.14zm8.055-.137.418.414zm0 0"/><path fill="#d2c934" d="m135.695 53.473.278.136zm0 0"/><path fill="#565a55" d="m136.25 53.332.418.418zm10.418 0 .414.418zm0 0"/><path fill="#d2c934" d="m147.5 53.332.418.418zm-15.832.418V55h.414zm0 0"/><path fill="#565a55" d="m147.5 53.75.418.418zm3.75 0v3.75h.418zM131.668 55v2.918h.414zm0 0"/><path fill="#d2c934" d="M139.176 59.121c-2.414.613-2.457 4.941.37 4.402 2.306-.437 2.157-5.043-.37-4.402zm0 0"/><path fill="#565a55" d="m140.418 58.75.414.418zm5 0 .414.418zm0 0"/><path fill="#fff" d="M145.832 58.75v.832h.836zm0 0"/><path fill="#565a55" d="m146.25 58.75.418.418zm-5.418.418.418.414zm0 0"/><path fill="#d2c934" d="M145 59.168c-1.855 3.887 1.973 5.144 2.918.832zm0 0"/><path fill="#565a55" d="m146.668 59.168.414.414zm0 0"/><path fill="#d2c934" d="m131.39 59.86.137.28zm0 0"/><path fill="#565a55" d="m144.168 60 .414.418zm0 0"/><path fill="#d2c934" d="M151.668 60v1.668h.414zm0 0"/><path fill="#565a55" d="M131.25 60.418v1.664h.418zm5.832 0 .418.414zm0 0"/><path fill="#fff" d="m145.973 60.695.136.278zm0 0"/><path fill="#565a55" d="m147.64 61.11.137.28zm4.028.558v3.75h.414zm-14.586.414.418.418zm3.75.418.418.418zm0 0"/><path fill="#d2c934" d="M130.832 62.918v5.414h.418zm0 0"/><path fill="#565a55" d="m137.918 63.332.414.418zm2.082 0 .418.418zm0 0"/><path fill="#d2c934" d="m151.805 65.695.14.278zm0 0"/><path fill="#565a55" d="m151.25 66.668.418.414zm0 0"/><path fill="#d2c934" d="m151.25 67.082.418.418zm0 0"/><path fill="#565a55" d="m150.832 67.918.418.414zm-19.441 1.11.136.277zm19.027-.278.414.418zm0 0"/><path fill="#d2c934" d="m150.418 69.168.414.414zm6.664 0 .418.414zm0 0"/><path fill="#565a55" d="M157.5 69.168v.414h2.082zm0 0"/><path fill="#d2c934" d="M159.582 69.168v.414h2.5zm-8.75.414.418.418zm3.75 0L155 70zm0 0"/><path fill="#565a55" d="m155.277 69.723.278.136zm7.223-.141.418.418zm0 0"/><path fill="#d2c934" d="m162.918 69.582.414.418zm-31.25.418.414.418zm20.832 0 .418.418zm0 0"/><path fill="#565a55" d="m152.918 70 .414.418zm10.832 0 .418.418zm0 0"/><path fill="#d2c934" d="m132.082 70.418.418.414zm32.5 0 .418.414zm-32.082.414.418.418zm32.918 0 .414.418zm-32.5.418.414.418zm0 0"/><path fill="#565a55" d="m165.832 71.25.418.418zm-32.082.418.418.414zm.832.414.418.418zm0 0"/><path fill="#d2c934" d="m167.082 72.082.418.418zm0 0"/><path fill="#565a55" d="M172.5 72.082v.418h2.082zm0 0"/><path fill="#d2c934" d="m174.582 72.082.418.418zm-38.75.418v.418h2.086zm0 0"/><path fill="#565a55" d="m137.918 72.5.414.418zm0 0"/><path fill="#d2c934" d="m167.5 72.5.418.418zm2.082 0 .418.418zm0 0"/><path fill="#565a55" d="m170.277 72.64.278.137zm0 0"/><path fill="#d2c934" d="m175.418 72.5.414.418zm0 0"/><path fill="#565a55" d="m167.918 72.918.414.414zm.832 0 .418.414zm0 0"/><path fill="#d2c934" d="m175.832 72.918.418.414zm0 0"/><path fill="#565a55" d="m176.25 73.75.418.418zm0 0"/><path fill="#d2c934" d="m176.668 74.168.414.414zm0 0"/><path fill="#565a55" d="M138.332 74.582v3.75h.418zm38.336 0 .414.418zm0 0"/><path fill="#d2c934" d="m170 75 .418.418zm0 0"/><path fill="#fff" d="m170.418 75 1.664 10h3.336c0-4.594-.008-8.691-5-10zm0 0"/><path fill="#d2c934" d="M170.832 75v.418h1.25zm0 0"/><path fill="#565a55" d="m172.082 75 .418.418zm0 0"/><path fill="#d2c934" d="m177.082 75 .418.418zm0 0"/><path fill="#565a55" d="m170 75.418.418.414zm0 0"/><path fill="#d2c934" d="m172.918 75.418.414.414zm0 0"/><path fill="#565a55" d="m177.082 75.418.418.414zm-6.527 1.11.14.277zm7.086 0 .136.277zm-3.473.14.414.414zm0 0"/><path fill="#d2c934" d="m174.168 77.082.414.418zm0 0"/><path fill="#565a55" d="m153.61 77.64.28.137zm0 0"/><path fill="#d2c934" d="M154.168 77.5v.418h2.082zm0 0"/><path fill="#fff" d="M148.332 85h15l-.414-6.668c-3.418-.27-12.246-2.258-14.57 1.414-.86 1.352-.047 3.73-.016 5.254zm0 0"/><path fill="#d2c934" d="m158.61 77.64.28.137zm0 0"/><path fill="#565a55" d="m159.445 77.64.278.137zm0 0"/><path fill="#d2c934" d="m170.832 77.5.418.418zm0 0"/><path fill="#565a55" d="m174.582 77.5.418.418zm0 0"/><path fill="#d2c934" d="m178.055 77.777.14.278zm0 0"/><path fill="#565a55" d="m150.695 78.055.278.14zm0 0"/><path fill="#d2c934" d="M151.25 77.918v.414h1.25zm9.582 0 .418.414zm0 0"/><path fill="#565a55" d="m161.527 78.055.278.14zm9.305-.137.418.414zm0 0"/><path fill="#d2c934" d="m174.582 77.918.418.414zm-36.25.414v3.75h.418zm0 0"/><path fill="#565a55" d="m149.168 78.332.414.418zm0 0"/><path fill="#d2c934" d="m149.582 78.332.418.418zm0 0"/><path fill="#565a55" d="M177.918 78.332V85h.414zm-34.586.418-.414 5.418h.414v-5h.836V82.5h.414l-.414-3.75zm0 0"/><path fill="#d2c934" d="m148.75 78.75.418.418zm0 0"/><path fill="#565a55" d="m163.055 79.027.14.278zm0 0"/><path fill="#fff" d="M143.332 79.168 142.918 85h1.664l-.414-5.832zm0 0"/><path fill="#565a55" d="m147.918 79.168.414.414zm0 0"/><path fill="#d2c934" d="m171.25 79.168.418.414zm0 0"/><path fill="#565a55" d="M175 79.168v1.25h.418zm0 0"/><path fill="#d2c934" d="M162.918 79.582v1.25h.414zm0 0"/><path fill="#565a55" d="m167.777 79.723.278.136zm3.614.136.136.282zm0 0"/><path fill="#fff" d="m167.082 80-.414 5h1.664v-5zm0 0"/><path fill="#d2c934" d="m175 80.418.418.414zm-3.195 1.527.14.278zm-23.887.137.414.418zm-3.75.418v2.082h.414zm0 0"/><path fill="#565a55" d="m148.055 82.777.14.278zm23.613-.277v2.082h.414zm3.75.418V85h.414zm-36.668.832.418.418zm27.918 0 .414.418zm0 0"/><path fill="#d2c934" d="m138.75 84.168.418.414zm4.168 0 .414.414zm23.75 0 .414.414zm0 0"/><path fill="#565a55" d="m139.168 84.582.414.418zm24.164 0 .836.836zm5 0 .836.836zm0 0"/><path fill="#d2c934" d="m171.668 84.582.414.418zm0 0"/><path fill="#565a55" d="M36.668 85.832c9.516-2.266 21.46-.414 31.25-.414-2.176-.914-5.16-.418-7.5-.418h-16.25c-2.043 0-6.082-.793-7.5.832m64.164 0c9.273-2.207 20.883-.414 30.418-.414-2.172-.914-5.16-.418-7.5-.418h-15.418c-2.039 0-6.078-.793-7.5.832zm0 0"/><path fill="#24b54c" d="m134.582 85 1.645 69.582-1.645 30h30.836l-1.25-34.164c6.207 0 12.555-.387 18.75.035 2.48.172 6.652 1.313 8.984.129 1.524-.773 1.004-3.754 1.192-5.164.594-4.523.875-9.195 1.09-13.75.086-1.836.636-3.89-1.313-4.988-2.57-1.45-7.574-.352-10.371-.082-5.875.558-12.016.07-17.918.07L165 108.75l35.418.832c1.352-5.676 1.293-12.094 1.703-17.914.14-2.027 1.027-4.535-.934-6-1.644-1.23-4.667-.668-6.605-.668h-16.25c0 3.887 1.246 10.41-1.125 13.727-3.922 5.48-10.953 2.894-10.957-3.309 1.969.062 3.008.45 3.332 2.5 6.762-.352 5.836-7.836 5.836-12.918h-27.086v1.25zm0 0"/><path fill="#565a55" d="m171.25 85 .418.418zm0 0"/><path fill="#d2c934" d="m200.832 85 .418.418zm0 0"/><path fill="#1f1b1d" d="m37.082 85.418 7.324 27.5 19.344 71.25h26.668l10.203-.43 2.652-7.07 5.653-18.75 21.906-72.5h-21.25c-1.977 0-6.46-.836-8.082.426-1.027.8-.992 2.98-1.188 4.156l-1.734 10.832c-2.238 13.352-6.805 26.457-10.09 39.586L85.355 152.5c-.312 1.145-.585 3.492-1.765 4.094-1.676.851-2.067-2.324-2.258-3.262l-2.672-12.914c-3.867-18.207-8.394-36.523-10.742-55zm0 0"/><path fill="#d2c934" d="m68.055 85.695.14.278zm62.777-.277.418.414zm0 0"/><path fill="#565a55" d="m142.5 85.418.418.414zm2.5 0 .418.414zm0 0"/><path fill="#d2c934" d="m201.25 85.418.418.414zm-164.582.414.414.418zm0 0"/><path fill="#565a55" d="M141.25 85.832v.418h1.25zm5.418 0v.418h1.664zm-78.613.695.14.278zm62.363-.277.414.418zm-93.195.695.136.278zm0 0"/><path fill="#d2c934" d="m100.555 86.945.14.278zm29.863-.277.414.414zm72.082.414.418.418zM37.082 87.5l.418.418zm0 0"/><path fill="#565a55" d="m100.555 87.777.14.278zM130 87.5l.418.418zm0 0"/><path fill="#d2c934" d="m68.473 88.195.136.278zM130 87.918l.418.414zm0 0"/><path fill="#565a55" d="m37.5 88.332.418.418zm0 0"/><path fill="#d2c934" d="m37.5 88.75.418.418zm0 0"/><path fill="#565a55" d="m68.473 89.027.136.278zm61.25 0 .136.278zm0 0"/><path fill="#d2c934" d="m100.14 89.445.137.278zm0 0"/><path fill="#565a55" d="m38.055 89.86.14.28zm0 0"/><path fill="#d2c934" d="M129.582 89.582 130 90zm0 0"/><path fill="#565a55" d="m100.14 90.277.137.278zm0 0"/><path fill="#d2c934" d="M202.082 90v2.082h.418zm-164.164.418.414.414zm30.973.277.136.278zm0 0"/><path fill="#565a55" d="m129.168 90.418.414.414zm45.973.277.136.278zm0 0"/><path fill="#d2c934" d="m129.168 90.832.414.418zm0 0"/><path fill="#565a55" d="m38.473 91.527.136.278zm30.418 0 .136.278zm0 0"/><path fill="#d2c934" d="m99.723 91.945.136.278zm0 0"/><path fill="#565a55" d="m128.75 91.668.418.414zm0 0"/><path fill="#d2c934" d="m38.332 92.082.418.418zm90.418 0 .418.418zm0 0"/><path fill="#565a55" d="M99.582 92.5v1.25H100zm-60.832.418.418.414zm0 0"/><path fill="#d2c934" d="m69.305 93.195.14.278zm0 0"/><path fill="#565a55" d="m128.473 93.195.136.278zm0 0"/><path fill="#d2c934" d="m38.75 93.332.418.418zm0 0"/><path fill="#565a55" d="m69.305 94.027.14.278zm0 0"/><path fill="#d2c934" d="m128.332 93.75.418.418zm0 0"/><path fill="#565a55" d="m39.305 94.445.14.278zm0 0"/><path fill="#d2c934" d="m99.168 94.582.414.418zm0 0"/><path fill="#565a55" d="m127.918 94.582.414.418zm0 0"/><path fill="#d2c934" d="m39.168 95 .414.418zm0 0"/><path fill="#565a55" d="M99.168 95v1.25h.414zm0 0"/><path fill="#d2c934" d="m127.918 95 .414.418zm73.75 0v2.082h.414zm-131.945.695.136.278zm0 0"/><path fill="#565a55" d="m166.25 95.418.418.414zm-126.527.691.136.282zm87.777-.277.418.418zm41.805.277.14.282zm4.863-.277.414.418zm-104.445.695.136.278zm0 0"/><path fill="#d2c934" d="m127.5 96.25.418.418zm0 0"/><path fill="#565a55" d="m173.75 96.25.418.418zm4.305.277.14.278zm0 0"/><path fill="#d2c934" d="m39.582 96.668.418.414zm95 0v4.164H135zm-35.691.691.136.282zm0 0"/><path fill="#565a55" d="m127.223 97.36.136.28zm45.277-.278.418.418zM40 97.5l.418.418zm131.668 0 .414.418zm0 0"/><path fill="#d2c934" d="m40 97.918.418.414zm30.14.277.137.278zm0 0"/><path fill="#565a55" d="m98.89 98.195.137.278zm0 0"/><path fill="#d2c934" d="m127.082 97.918.418.414zm0 0"/><path fill="#565a55" d="m170 97.918.418.414zm7.5 0 .418.414zm-50.695.691.14.282zm-86.25.418.14.278zm29.586 0 .136.278zm96.25 0 .136.278zm10.691-.277.418.418zm0 0"/><path fill="#d2c934" d="m126.668 99.168.414.414zm-86.25.414.414.418zm58.055.277.136.282zm102.777-.277v2.086h.418zm0 0"/><path fill="#565a55" d="m126.25 100 .418.418zm49.582 0 .418.418zm-134.86.695.137.278zm0 0"/><path fill="#d2c934" d="m70.555 100.695.14.278zm0 0"/><path fill="#565a55" d="m98.473 100.695.136.278zm0 0"/><path fill="#d2c934" d="m126.25 100.418.418.414zm0 0"/><path fill="#565a55" d="m174.582 100.418.418.414zm-1.25.414.418.418zm0 0"/><path fill="#d2c934" d="m40.832 101.25.418.418zm0 0"/><path fill="#565a55" d="m70.555 101.527.14.278zm55.277-.277.418.418zm42.918 0v.418h3.332zm0 0"/><path fill="#d2c934" d="m125.832 101.668.418.414zm0 0"/><path fill="#565a55" d="m41.25 102.082.418.418zm0 0"/><path fill="#d2c934" d="m98.055 102.36.14.28zm-56.805.14.418.418zm0 0"/><path fill="#565a55" d="m125.555 102.777.14.278zm0 0"/><path fill="#d2c934" d="m70.832 102.918.418.414zm0 0"/><path fill="#565a55" d="m98.055 103.195.14.278zm-56.25.414.14.282zm29.168 0 .136.282zm0 0"/><path fill="#d2c934" d="m125.418 103.332.414.418zm-83.75.836.414.414zm55.832 0 .418.414zm0 0"/><path fill="#565a55" d="m125 104.168.418.414zm0 0"/><path fill="#d2c934" d="M200.832 104.168v2.082h.418zm-129.441.691.136.282zm0 0"/><path fill="#565a55" d="m97.64 104.86.137.28zm0 0"/><path fill="#d2c934" d="m125 104.582.418.418zm0 0"/><path fill="#565a55" d="m42.223 105.277.136.278zm29.168.418.136.278zm53.191-.277.418.414zm0 0"/><path fill="#d2c934" d="m42.082 105.832.418.418zm55 0 .418.418zm27.5 0 .418.418zm0 0"/><path fill="#565a55" d="m97.223 106.527.136.278zm-54.723.141.418.414zm0 0"/><path fill="#d2c934" d="m71.668 106.668.414.414zm0 0"/><path fill="#565a55" d="m124.305 106.945.14.278zm0 0"/><path fill="#d2c934" d="m42.5 107.082.418.418zm0 0"/><path fill="#565a55" d="m71.805 107.36.14.28zm0 0"/><path fill="#d2c934" d="m96.668 107.5.414.418zm27.5 0 .414.418zm0 0"/><path fill="#565a55" d="m43.055 108.195.14.278zm53.75 0 .14.278zm26.945.137.418.418zm0 0"/><path fill="#d2c934" d="m42.918 108.75.414.418zm29.164 0 .418.418zm51.668 0 .418.418zm58.75 0v.418h4.168zm18.055.277.14.278zm0 0"/><path fill="#565a55" d="m72.223 109.445.136.278zm0 0"/><path fill="#d2c934" d="m96.25 109.168.418.414zm97.5 0v.414h5.418zm0 0"/><path fill="#565a55" d="m43.473 109.86.136.28zm52.918 0 .136.28zm26.941-.278.418.418zm0 0"/><path fill="#d2c934" d="m123.332 110 .418.418zm-80 .418.418.414zm29.168.414.418.418zm23.332 0 .418.418zm0 0"/><path fill="#565a55" d="m123.055 111.11.14.28zm-79.305.14.418.418zm28.89.277.137.278zm23.192-.277.418.418zm0 0"/><path fill="#d2c934" d="m43.75 111.668.418.414zm79.168 0 .414.414zm-27.363.691.14.282zm0 0"/><path fill="#565a55" d="m122.64 112.36.137.28zm-78.335.417.14.278zm0 0"/><path fill="#d2c934" d="m72.918 112.918.414.414zm0 0"/><path fill="#565a55" d="m95.418 112.918.414.414zm0 0"/><path fill="#d2c934" d="m122.5 112.918.418.414zm-78.332.414.414.418zm0 0"/><path fill="#565a55" d="m73.055 113.61.14.28zm0 0"/><path fill="#d2c934" d="m95 113.75.418.418zm0 0"/><path fill="#565a55" d="m122.082 113.75.418.418zm-77.36.695.137.278zm50.419 0 .136.278zm0 0"/><path fill="#d2c934" d="m122.082 114.168.418.414zm-48.61.691.137.282zm-28.89.141.418.418zm0 0"/><path fill="#565a55" d="m121.805 115.277.14.278zm0 0"/><path fill="#d2c934" d="M135 115v4.582h.418zm0 0"/><path fill="#565a55" d="m73.473 115.695.136.278zm0 0"/><path fill="#d2c934" d="m94.582 115.418.418.414zm0 0"/><path fill="#565a55" d="m45 115.832.418.418zm49.723.277.136.282zm0 0"/><path fill="#d2c934" d="m45 116.25.418.418zm0 0"/><path fill="#565a55" d="m121.39 116.527.137.278zm0 0"/><path fill="#d2c934" d="m73.89 116.945.137.278zm0 0"/><path fill="#565a55" d="m45.555 117.36.14.28zm0 0"/><path fill="#d2c934" d="m94.168 117.082.414.418zm27.082 0 .418.418zm0 0"/><path fill="#565a55" d="m73.75 117.5.418.418zm20.555.277.14.278zm0 0"/><path fill="#d2c934" d="m45.418 117.918.414.414zm0 0"/><path fill="#565a55" d="m120.832 117.918.418.414zm0 0"/><path fill="#d2c934" d="m120.832 118.332.418.418zm0 0"/><path fill="#565a55" d="m45.832 118.75.418.418zm0 0"/><path fill="#d2c934" d="m74.168 118.75.414.418zm19.582 0 .418.418zm-47.777.695.136.278zm0 0"/><path fill="#565a55" d="m74.305 119.445.14.278zm19.445-.277.418.414zm26.668 0 .414.414zm0 0"/><path fill="#d2c934" d="m120.418 119.582.414.418zm44.164 0v4.168H165zm0 0"/><path fill="#565a55" d="m46.25 120.418.418.414zm0 0"/><path fill="#d2c934" d="m93.332 120.418.418.414zm0 0"/><path fill="#565a55" d="m120.14 120.695.137.278zm0 0"/><path fill="#d2c934" d="m46.25 120.832.418.418zm28.332 0 .418.418zm0 0"/><path fill="#565a55" d="m93.332 120.832.418.418zm-18.61.695.137.278zm0 0"/><path fill="#d2c934" d="m120 121.25.418.418zm0 0"/><path fill="#565a55" d="m46.805 121.945.14.278zm0 0"/><path fill="#d2c934" d="m92.918 121.668.414.414zm0 0"/><path fill="#565a55" d="m93.055 122.36.14.28zm26.527-.278.418.418zm0 0"/><path fill="#d2c934" d="m46.668 122.5.414.418zm72.914 0 .418.418zM75 122.918l.418.414zm0 0"/><path fill="#565a55" d="m47.082 123.332.418.418zm28.059.277.136.282zm0 0"/><path fill="#d2c934" d="m92.5 123.332.418.418zm0 0"/><path fill="#565a55" d="m119.168 123.332.414.418zm0 0"/><path fill="#d2c934" d="m47.223 124.027.136.278zm0 0"/><path fill="#565a55" d="m92.64 124.027.137.278zm0 0"/><path fill="#d2c934" d="m119.168 123.75.414.418zm-43.613 1.11.14.28zm0 0"/><path fill="#565a55" d="m118.89 124.86.137.28zM47.5 125l.418.418zm0 0"/><path fill="#d2c934" d="m92.082 125 .418.418zm-44.582.418.418.414zm0 0"/><path fill="#565a55" d="m75.555 125.695.14.278zm16.668 0 .136.278zm0 0"/><path fill="#d2c934" d="m118.75 125.418.418.414zm0 0"/><path fill="#565a55" d="m118.473 126.11.136.28zm-70.418.417.14.278zm0 0"/><path fill="#d2c934" d="M177.5 126.25v.418h6.25zm15.418 0 .414.418zm-116.945.695.136.278zm15.695-.277.414.414zm26.664 0 .418.414zm-70.414.414.414.418zm0 0"/><path fill="#565a55" d="m91.805 127.36.14.28zm-15.832.417.136.278zm41.945-.277.414.418zm-69.586.418.418.414zm0 0"/><path fill="#d2c934" d="m117.918 127.918.414.414zm76.25 0 .414.414zm-145.836.414.418.418zm42.918 0 .418.418zm-15 .418.418.418zm0 0"/><path fill="#565a55" d="m91.25 128.75.418.418zm26.39.277.137.278zm-41.25.418.137.278zm-27.64.137.418.418zm0 0"/><path fill="#d2c934" d="m90.832 129.582.418.418zm103.336 0v1.668h.414zM48.75 130l.418.418zm0 0"/><path fill="#565a55" d="m90.973 130.277.136.278zm26.25 0 .136.278zm-67.918.832.14.282zm0 0"/><path fill="#d2c934" d="m76.668 130.832.414.418zm40.414 0 .418.418zm0 0"/><path fill="#565a55" d="m76.805 131.527.14.278zm0 0"/><path fill="#d2c934" d="m90.418 131.25.414.418zm-41.25.418.414.414zm0 0"/><path fill="#565a55" d="m90.555 131.945.14.278zm26.113-.277.414.414zm0 0"/><path fill="#d2c934" d="m116.668 132.082.414.418zm0 0"/><path fill="#565a55" d="m49.582 132.5.418.418zm0 0"/><path fill="#d2c934" d="m49.582 132.918.418.414zm27.5 0 .418.414zm12.918 0 .418.414zm0 0"/><path fill="#565a55" d="m116.25 132.918.418.414zm-39.027.691.136.282zm12.918 0 .136.282zm0 0"/><path fill="#d2c934" d="m116.25 133.332.418.418zm19.168 0v4.586h.414zm0 0"/><path fill="#565a55" d="m50 134.168.418.414zm65.973.277.136.278zm0 0"/><path fill="#d2c934" d="m50 134.582.418.418zm39.582 0L90 135zm104.168 0v2.086h.418zM77.5 135l.418.418zm0 0"/><path fill="#565a55" d="m89.723 135.277.136.278zm0 0"/><path fill="#d2c934" d="m115.832 135 .418.418zm0 0"/><path fill="#565a55" d="m50.555 135.695.14.278zm27.086 0 .136.278zm37.777.137.414.418zm0 0"/><path fill="#d2c934" d="m50.418 136.25.414.418zm38.75 0 .414.418zm26.25 0 .414.418zm-37.363.695.14.278zm0 0"/><path fill="#565a55" d="m89.168 136.668.414.414zm-38.336.414.418.418zm64.168 0 .418.418zm0 0"/><path fill="#d2c934" d="m50.832 137.5.418.418zm0 0"/><path fill="#565a55" d="m78.055 137.777.14.278zm0 0"/><path fill="#d2c934" d="m88.89 137.777.137.278zM115 137.5l.418.418zm0 0"/><path fill="#565a55" d="m88.75 138.332.418.418zm25.973.277.136.282zm-63.473.141.418.418zm0 0"/><path fill="#d2c934" d="m78.473 139.027.136.278zm-27.223.141.418.414zm37.082 0 .418.414zm26.25 0 .418.414zm0 0"/><path fill="#565a55" d="m78.332 139.582.418.418zm10.14.277.137.282zm25.833 0 .14.282zm-62.5.418.14.278zm0 0"/><path fill="#d2c934" d="M193.332 140v1.668h.418zm-79.164.418.414.414zm-62.5.414.414.418zm27.082 0 .418.418zm9.168 0 .414.418zm0 0"/><path fill="#565a55" d="m78.89 141.527.137.278zm9.165 0 .14.278zm25.695-.277.418.418zm-61.668.418.418.414zm0 0"/><path fill="#d2c934" d="m113.75 141.668.418.414zm-61.668.414.418.418zm35.418.418.418.418zm0 0"/><path fill="#565a55" d="m113.473 142.777.136.278zm0 0"/><path fill="#d2c934" d="m79.168 142.918.414.414zm0 0"/><path fill="#565a55" d="m87.64 143.195.137.278zm-35.14.137.418.418zm26.805.277.14.282zm0 0"/><path fill="#d2c934" d="m52.5 143.75.418.418zm0 0"/><path fill="#565a55" d="m113.055 144.027.14.278zm0 0"/><path fill="#d2c934" d="m87.082 144.168.418.414zm0 0"/><path fill="#565a55" d="m53.055 144.86.14.28zm34.027-.278.418.418zm0 0"/><path fill="#d2c934" d="m112.918 144.582.414.418zM79.582 145l.418.418zm113.336 0v1.668h.414zm-140 .418.414.414zm0 0"/><path fill="#565a55" d="m79.723 145.695.136.278zm32.777-.277.418.414zm0 0"/><path fill="#d2c934" d="m86.668 145.832.414.418zm25.832 0 .418.418zm0 0"/><path fill="#565a55" d="m53.332 146.25.418.418zm33.336 0 .414.418zm0 0"/><path fill="#d2c934" d="m53.332 146.668.418.414zm26.809.277.136.278zm0 0"/><path fill="#565a55" d="m112.082 146.668.418.414zm0 0"/><path fill="#d2c934" d="m86.25 147.082.418.418zm25.832 0 .418.418zm0 0"/><path fill="#565a55" d="m80.14 147.777.137.278zm6.25 0 .137.278zm-32.64.141.418.414zm58.055.277.14.278zm0 0"/><path fill="#d2c934" d="m53.75 148.332.418.418zm26.805.695.14.278zm5.277-.277.418.418zm25.836 0 .414.418zm0 0"/><path fill="#565a55" d="m54.305 149.445.14.278zm31.668 0 .136.278zm-5.418.414.14.282zm30.695-.277.418.418zm0 0"/><path fill="#d2c934" d="m54.168 150 .414.418zm57.082 0 .418.418zm81.39.277.137.278zm-107.222.141.414.414zm92.5 0v.414h6.664zm0 0"/><path fill="#565a55" d="m54.582 150.832.418.418zm0 0"/><path fill="#d2c934" d="m80.832 150.832.418.418zm0 0"/><path fill="#565a55" d="m85.555 151.11.14.28zm25.277-.278.418.418zm0 0"/><path fill="#d2c934" d="m54.582 151.25.418.418zm0 0"/><path fill="#565a55" d="m80.973 151.527.136.278zm0 0"/><path fill="#d2c934" d="m110.832 151.25.418.418zm0 0"/><path fill="#565a55" d="m55.14 152.36.137.28zm0 0"/><path fill="#d2c934" d="m85 152.082.418.418zm0 0"/><path fill="#565a55" d="m110.555 152.36.14.28zm0 0"/><path fill="#d2c934" d="M135.832 152.082v4.586h.418zm0 0"/><path fill="#565a55" d="m85.14 152.777.137.278zm0 0"/><path fill="#d2c934" d="m55 152.918.418.414zm26.25 0 .418.414zm29.168 0 .414.414zm0 0"/><path fill="#565a55" d="m81.39 153.61.137.28zm28.75 0 .137.28zm-54.585.417.14.278zm0 0"/><path fill="#d2c934" d="m84.582 153.75.418.418zm0 0"/><path fill="#565a55" d="m84.582 154.168.418.414zm0 0"/><path fill="#d2c934" d="m110 154.168.418.414zm-54.582.414.414.418zm26.25.418.414.418zm2.637.277.14.278zm0 0"/><path fill="#565a55" d="m109.582 155 .418.418zm-53.75.418.418.414zm25.973.277.14.278zm0 0"/><path fill="#d2c934" d="m109.582 155.418.418.414zm54.586 0v3.332h.414zm-108.336.414.418.418zm0 0"/><path fill="#565a55" d="m84.168 155.832.414.418zm25.137.695.14.278zm-52.914.418.136.278zm0 0"/><path fill="#d2c934" d="m82.082 156.668.418.414zm1.668 0 .418.414zm-27.5.832.418.418zm0 0"/><path fill="#565a55" d="m108.89 157.777.137.278zm-52.085.832.14.282zm0 0"/><path fill="#d2c934" d="m108.75 158.332.418.418zm-52.082.836.414.414zm0 0"/><path fill="#565a55" d="m108.332 159.168.418.414zm0 0"/><path fill="#d2c934" d="m108.332 159.582.418.418zm0 0"/><path fill="#565a55" d="m57.082 160 .418.418zm0 0"/><path fill="#d2c934" d="m57.082 160.418.418.414zm0 0"/><path fill="#565a55" d="m107.918 160.418.414.414zm0 0"/><path fill="#d2c934" d="m107.918 160.832.414.418zm0 0"/><path fill="#565a55" d="m57.64 161.527.137.278zm50 .418.137.278zm0 0"/><path fill="#d2c934" d="m57.5 162.082.418.418zm50 .418.418.418zm0 0"/><path fill="#565a55" d="m58.055 163.195.14.278zm0 0"/><path fill="#d2c934" d="M135.418 162.918v1.664h.414zm0 0"/><path fill="#565a55" d="m107.082 163.332.418.418zm0 0"/><path fill="#d2c934" d="m57.918 163.75.414.418zm49.164 0 .418.418zm0 0"/><path fill="#565a55" d="m58.332 164.582.418.418zm48.336 0 .414.418zm0 0"/><path fill="#d2c934" d="m58.332 165 .418.418zm48.336 0 .414.418zm0 0"/><path fill="#565a55" d="m58.89 166.11.137.28zm47.5 0 .137.28zm0 0"/><path fill="#d2c934" d="m58.75 166.668.418.414zm47.5 0 .418.414zm0 0"/><path fill="#565a55" d="m105.973 167.36.136.28zm-46.668.417.14.278zm0 0"/><path fill="#d2c934" d="M164.582 167.5v2.918H165zm-58.75.418.418.414zm-46.664.414.414.418zm0 0"/><path fill="#565a55" d="m105.418 168.75.414.418zm-45.836.418.418.414zm0 0"/><path fill="#d2c934" d="m105.418 169.168.414.414zm-45.836.414L60 170zm0 0"/><path fill="#565a55" d="m105.14 170.277.137.278zm-45 .418.137.278zm0 0"/><path fill="#d2c934" d="M135 170.418v1.664h.418zm-75 .832.418.418zm0 0"/><path fill="#565a55" d="m104.723 171.527.136.278zm-44.168.832.14.282zm0 0"/><path fill="#d2c934" d="m104.582 172.082.418.418zm-44.164.836.414.414zm0 0"/><path fill="#565a55" d="m104.168 172.918.414.414zm0 0"/><path fill="#d2c934" d="m104.168 173.332.414.418zm0 0"/><path fill="#565a55" d="m60.832 173.75.418.418zm0 0"/><path fill="#d2c934" d="m60.832 174.168.418.414zm0 0"/><path fill="#565a55" d="m103.75 174.168.418.414zm0 0"/><path fill="#d2c934" d="m103.75 174.582.418.418zm0 0"/><path fill="#565a55" d="m61.39 175.277.137.278zm42.083.418.136.278zm0 0"/><path fill="#d2c934" d="m61.25 175.832.418.418zm42.082.418.418.418zm0 0"/><path fill="#565a55" d="m61.805 176.945.14.278zm41.113.137.414.418zm0 0"/><path fill="#d2c934" d="m61.668 177.5.414.418zm41.25 0 .414.418zm0 0"/><path fill="#565a55" d="m62.082 178.332.418.418zm40.418 0 .418.418zm0 0"/><path fill="#d2c934" d="M134.582 178.332V180H135zm-72.5.418.418.418zm40.418 0 .418.418zm62.5.418v3.332h.418zm0 0"/><path fill="#565a55" d="m62.64 179.86.137.28zm39.583 0 .136.28zm0 0"/><path fill="#d2c934" d="m62.5 180.418.418.414zm39.582 0 .418.414zm0 0"/><path fill="#565a55" d="m101.805 181.11.14.28zm-38.887.14.414.418zm0 0"/><path fill="#d2c934" d="m63.055 181.945.14.278zm38.613-.277.414.414zm0 0"/><path fill="#565a55" d="m101.25 182.5.418.418zm-37.918.418.418.414zm0 0"/><path fill="#d2c934" d="m101.25 182.918.418.414zm-37.918.414.418.418zm0 0"/><path fill="#565a55" d="m100.832 183.75-12.5.418H63.75v.414h25l12.5-.414zm0 0"/><path fill="#d2c934" d="m100.832 184.168.418.414zm33.75.414V185H165l-9.582-.418zm0 0"/></svg>