<svg xmlns="http://www.w3.org/2000/svg" width="250" height="250"><linearGradient id="b" x1="0" x2="2000.04" y1="-330.01" y2="-330.01" gradientTransform="matrix(.125 0 0 .13241 0 168.698)" gradientUnits="userSpaceOnUse"><stop offset="0" stop-color="#9d4abe"/><stop offset=".03" stop-color="#9055c4"/><stop offset=".15" stop-color="#6b74d6"/><stop offset=".26" stop-color="#4c8fe5"/><stop offset=".39" stop-color="#34a3f0"/><stop offset=".52" stop-color="#22b2f9"/><stop offset=".66" stop-color="#18bafd"/><stop offset=".83" stop-color="#15bdff"/><stop offset="1" stop-color="#28bad5"/></linearGradient><filter id="a" width="100%" height="100%" x="0%" y="0%"><feColorMatrix in="SourceGraphic" values="0 0 0 0 1 0 0 0 0 1 0 0 0 0 1 0 0 0 1 0"/></filter><mask id="d"><g filter="url(#a)"><path fill-opacity=".1" d="M0 0h250v250H0z"/></g></mask><clipPath id="c"><path d="M0 0h250v251H0z"/></clipPath><mask id="f"><g filter="url(#a)"><path fill-opacity=".1" d="M0 0h250v250H0z"/></g></mask><clipPath id="e"><path d="M0 0h250v251H0z"/></clipPath><path fill="url(#b)" d="M107.473 238.746.547 8.043c-1.735-3.684.875-8.04 4.726-8.04h37.051c1.985 0 3.848 1.192 4.723 3.032l78.086 167.371c6.965 15.016 27.101 15.016 34.062 0L237.031 3.168c.875-1.84 2.739-3.031 4.727-3.031h4.597c2.739 0 4.477 3.031 3.239 5.535L141.547 238.746c-6.965 15-27.113 15-34.074 0zm0 0"/><g clip-path="url(#c)" mask="url(#d)"><path fill="#fff" d="M107.473 238.746 47.047 3.168C46.172 1.195 44.184.137 42.574.137H5.398C1.297.137-1.062 4.48.547 8.176zm0 0"/></g><g clip-path="url(#e)" mask="url(#f)"><path fill="#fff" d="M125.133 170.527.547 8.043c-1.485-3.816.75-7.64 4.226-8.04H42.45c2.11.134 3.723 1.579 4.473 3.032zm0 0"/></g></svg>