<svg xmlns="http://www.w3.org/2000/svg" width="250" height="250"><filter id="a" width="100%" height="100%" x="0%" y="0%"><feColorMatrix in="SourceGraphic" values="0 0 0 0 1 0 0 0 0 1 0 0 0 0 1 0 0 0 1 0"/></filter><mask id="c"><g filter="url(#a)"><path fill-opacity=".2" d="M0 0h250v250H0z"/></g></mask><clipPath id="b"><path d="M0 0h250v250H0z"/></clipPath><linearGradient id="d" x1="92.753" x2="116.696" y1="106.317" y2="127.792" gradientUnits="userSpaceOnUse"><stop offset="0" stop-color="#1d313f"/><stop offset="1" stop-color="#fff"/></linearGradient><path fill="#1e313f" d="M125.465 25.023c-54.91.172-99.27 44.825-99.098 99.735a98.889 98.889 0 0 0 4.59 29.613 48.23 48.23 0 0 1 20.8-4.715c26.661 0 48.34 21.68 48.34 48.344a48.06 48.06 0 0 1-4.831 21.066 99.214 99.214 0 0 0 30.859 4.762c54.906-.195 99.266-44.848 99.07-99.758-.195-54.906-44.847-99.242-99.73-99.047zm0 0"/><g clip-path="url(#b)" mask="url(#c)"><path fill="#fff" d="M187.914 186.156c34.082-34.324 33.914-89.77-.414-123.851-34.328-34.082-89.77-33.91-123.852.414zm0 0"/></g><path fill="#fff" d="M179.516 94.824 168.21 83.422l-6.149 6.25c-.027-.024-.05-.047-.074-.07l-5.004 5.05-30.789 31.203-19.48-19.753a26.496 26.496 0 0 0-7.278 15.824l26.758 27.12 30.274-30.687c.39 1.954.586 3.98.586 6.055 0 17.234-14.04 31.273-31.274 31.273-17.238 0-31.273-14.039-31.273-31.273s14.035-31.273 31.273-31.273a31.145 31.145 0 0 1 18.871 6.347l13.403-13.597c-8.739-7.329-19.993-11.77-32.274-11.77-27.71 0-50.27 22.559-50.27 50.27 0 27.734 22.56 50.265 50.27 50.265s50.27-22.554 50.27-50.265c0-7.618-1.711-14.82-4.738-21.29zm0 0"/><path fill="url(#d)" d="m126.195 149.047-26.734-27.125c.586-6.125 3.25-11.621 7.277-15.82l19.48 19.753v23.192zm0 0"/><path fill="#00c483" d="M51.758 156.102c-23.094 0-41.895 18.8-41.895 41.898 0 23.094 18.801 41.89 41.895 41.89S93.652 221.095 93.652 198c0-23.098-18.773-41.898-41.894-41.898zm0 0"/><g fill="#fff"><path d="m32.031 183.277 6.715 22.387 6.664-22.387h10.84L45.29 215.82H32.104l-10.937-32.543zM68.727 191.36v4.05h10.132v7.668H68.75v4.586h11.5v8.156H58.57v-32.543h21.68v8.082zm0 0"/></g></svg>