<svg xmlns="http://www.w3.org/2000/svg" width="250" height="250"><path fill="#fff" d="M219.777 120.914c0 50.379-41.632 91.219-92.984 91.219s-92.98-40.84-92.98-91.219c0-50.379 41.628-91.215 92.98-91.215 51.352 0 92.984 40.836 92.984 91.215zm0 0"/><path fill="#0085ff" fill-rule="evenodd" d="M124.578 250c68.797 0 124.574-55.965 124.574-125S193.375 0 124.578 0C55.773 0 0 55.965 0 125s55.773 125 124.578 125zm-.055-43.996c-29.812-51.645-76.335-132.25-76.335-132.25h66.277l13.3 23.035H88.403l49.653 85.77s-8.246 14.293-13.532 23.445zm19.684-34.102 56.652-98.148h-27.035l-29.656 51.476-10.426-18.023h-26.949zm0 0"/></svg>