<svg xmlns="http://www.w3.org/2000/svg" width="250" height="250"><path fill="#fff" d="M234.613 123.008c0 60.539-49.074 109.613-109.613 109.613S15.387 183.547 15.387 123.008C15.387 62.473 64.46 13.395 125 13.395s109.613 49.078 109.613 109.613zm0 0"/><g fill="#00c3d1"><path d="M120.168.176C93.176 1.25 67.808 10.734 46.766 27.617c-3.606 2.89-6.332 5.36-10.067 9.082-4.656 4.668-7.914 8.41-11.64 13.367C4.523 77.398-3.824 111.742 1.8 145.668c3.676 22.172 13.406 43.098 28.031 60.25 4.102 4.809 9.441 10.148 14.25 14.25 28 23.867 65.043 34.09 101.586 28.031 22.172-3.676 43.098-13.406 60.25-28.031 4.809-4.102 10.148-9.441 14.25-14.25 23.809-27.926 34.047-64.902 28.082-101.336-3.66-22.273-13.41-43.281-28.082-60.5-4.102-4.809-9.441-10.148-14.25-14.25A124.51 124.51 0 0 0 124.625.102c-1.559 0-3.566.039-4.457.074zM79.285 34.457c4.14.543 7.738 3.176 9.59 7 .477.992.691 1.594.977 2.75l.191.75.039 65.293.043 65.293.184.289c.293.469.824.711 1.351.617.297-.058 24.172-13.676 24.488-13.972.11-.102.243-.262.293-.352.075-.125.11-10.965.141-43.832l.043-43.668.184-.75c.59-2.484 1.683-4.45 3.441-6.207 1.766-1.777 3.773-2.875 6.258-3.434 1.16-.257 3.793-.277 4.91-.043 1.605.352 3.031.918 4.375 1.743.797.492 1.105.668 10.75 6.234 3.441 1.98 7.582 4.375 9.207 5.316s4.398 2.54 6.168 3.559c1.766 1.016 4.539 2.617 6.164 3.559 1.625.941 5.777 3.332 9.211 5.316 3.441 1.98 8.047 4.648 10.25 5.914a19405.86 19405.86 0 0 0 22.898 13.219c3.2 1.847 6.125 3.574 6.493 3.84 2.707 1.933 4.558 5.058 5.023 8.441.625 4.559-1.375 9.203-5.105 11.836-.653.457-5.602 3.332-20.977 12.2-1.375.792-5.785 3.331-9.793 5.648-4.008 2.316-11.547 6.668-16.75 9.668-5.2 3-12.758 7.367-16.789 9.691-4.035 2.324-8.293 4.785-9.461 5.457-1.164.676-6.883 3.977-12.707 7.336-5.816 3.355-16.766 9.672-24.332 14.039-7.559 4.367-15.684 9.05-18.043 10.41-4.785 2.766-5.41 3.082-6.793 3.508-3.105.941-6.441.625-9.375-.883-3.34-1.726-5.672-4.816-6.516-8.66l-.191-.875V45.293l.191-.875c.832-3.8 3.16-6.91 6.434-8.617 2.41-1.25 4.867-1.692 7.535-1.344zm0 0"/><path d="M142.25 99.266c-.273.144-.426.293-.559.566l-.191.367v22.844c0 22.082.008 22.84.16 23.172.34.742 1.23.926 2.024.418a36.69 36.69 0 0 1 1.273-.735c.902-.488.875-.472 8.836-5.125 18.883-11.03 28.008-16.347 28.648-16.671.86-.454 1.059-.704 1.059-1.317 0-.445-.191-.844-.516-1.078-.109-.074-.867-.5-1.691-.95-1.316-.714-8.676-4.898-27.961-15.882-9.23-5.258-9.781-5.566-10.082-5.676-.418-.148-.582-.14-1 .067zm0 0"/></g></svg>