<svg xmlns="http://www.w3.org/2000/svg" width="250" height="250"><g fill-rule="evenodd"><path fill="#0d0c1a" d="M142.125 50.883c-.55.199-1.246.363-1.55.363-.302.004-1.079.285-1.723.629-.649.344-1.32.625-1.493.625-.175 0-.355.09-.402.2-.043.109-.594.585-1.223 1.062-2.777 2.101-2.824 2.18-11.922 20.004-2.53 4.953-2.945 5.582-3.218 4.859-.106-.277-.531-1.066-.953-1.758-.422-.687-.899-1.476-1.063-1.75-.64-1.066-4.719-8.004-4.953-8.43-1.797-3.226-3.84-6.234-5.629-8.273-.75-.86-4.527-3.414-5.043-3.414-.203 0-.45-.078-.547-.176-.922-.922-9.062-1.527-11.265-.832-.422.133-1.442.426-2.266.653-.824.226-1.855.57-2.29.757-.433.192-.85.348-.929.348-.344 0-3.148 1.39-4.347 2.16-.727.461-1.418.84-1.543.84s-.262.09-.309.195c-.043.11-.758.715-1.582 1.348-1.707 1.309-5.375 5.117-5.375 5.582 0 .078-.207.371-.465.645-2.21 2.375-4.164 9.109-3.558 12.277.8 4.195 2.085 6.836 7.27 14.953.132.207.421.734.644 1.176.222.441.562.933.757 1.094.196.16.352.402.352.535 0 .132.254.597.563 1.027.308.434.695 1.035.855 1.344.605 1.152 1.21 2.203 1.336 2.324.45.426.992 1.555.855 1.773-.109.176-4.25.243-12.824.204-9.215-.043-12.851.02-13.363.23-.387.16-.938.293-1.219.293-1.844 0-6.101 3.086-8.055 5.836-4.398 6.195-5.882 14.922-3.988 23.414.332 1.484.543 2.191 1.078 3.625 1.953 5.254 5.164 8.7 9.887 10.61 1.934.785 8.227 1.152 24.375 1.417 9.605.16 8.738-.054 7.703 1.91-.68 1.29-4.453 8.688-7.047 13.813-1.527 3.023-2.836 5.555-2.906 5.625s-.336.574-.59 1.125a58.23 58.23 0 0 1-.86 1.75c-.706 1.363-.667 1.277-1.788 4-2.754 6.688.082 13.953 8.008 20.516.933.77 4.933 3.183 6.355 3.836 2.484 1.136 2.77 1.25 4.125 1.656.758.226 1.602.508 1.875.625 1.375.586 10.293.828 12.25.328 3.168-.805 6.484-3.277 8.453-6.297 1.117-1.719 7.422-14.25 7.422-14.754 0-.156.113-.285.25-.285s.25-.21.25-.469.168-.61.375-.781.375-.422.375-.555c0-.406 2.734-5.87 3.086-6.16.281-.238 1.914 1.55 1.914 2.102 0 .066.563 1.015 1.25 2.113s1.25 2.11 1.25 2.246c0 .14.11.254.246.254.133 0 .316.281.402.625.086.344.258.625.38.625s.222.125.222.273c0 .153.254.63.563 1.063.308.434.773 1.18 1.03 1.664.259.48 1.13 1.867 1.938 3.078.809 1.215 1.469 2.25 1.469 2.3 0 .974 5.32 4.962 7.633 5.724.683.226 1.469.523 1.746.664 1.281.652 11.476-.04 12.266-.828.105-.102.398-.188.652-.188.25 0 .656-.11.894-.238.239-.133 1.164-.567 2.059-.965 6.477-2.887 12.605-9.524 14.328-15.52.39-1.363.508-7.457.16-8.379-.906-2.402-1.652-4.125-2.12-4.898-.29-.48-.606-1.043-.7-1.25s-.453-.824-.8-1.375c-.345-.55-.766-1.281-.93-1.625-.168-.344-.372-.68-.458-.75-.085-.07-.527-.8-.98-1.625-.45-.824-1.012-1.781-1.246-2.125-.23-.344-.5-.793-.598-1-.191-.41-.246-.504-1.969-3.324-.652-1.067-1.187-2.098-1.187-2.29 0-.19-.14-.41-.313-.491s1.32-.094 3.313-.024c12.32.418 24.133.438 25.25.04.617-.224 1.305-.407 1.527-.407.485-.004 2.774-1.149 3.977-1.984 2.523-1.762 5.5-6.235 6.582-9.903.246-.82.55-1.687.68-1.926.129-.238.234-.71.234-1.05s.168-1.266.375-2.055c.445-1.715.516-9.633.098-11.211a35.212 35.212 0 0 1-.47-2.125c-.245-1.336-.812-3.145-1.07-3.398-.101-.102-.183-.364-.183-.582-.008-2.184-4.703-8.004-7.621-9.446-3.629-1.793-4.113-1.836-21.316-1.996-8.422-.074-15.313-.219-15.313-.32 0-.102.828-1.86 1.84-3.906a490.554 490.554 0 0 0 2.258-4.602c.23-.48.523-1.043.652-1.25.133-.207 1.543-3.02 3.137-6.25s2.996-6.043 3.11-6.25c1.702-3.031 2.753-6.64 2.753-9.46 0-3.08-.465-4.688-2.355-8.157-1.032-1.89-3.59-4.778-5.77-6.512-.688-.547-1.29-1.082-1.332-1.184a.349.349 0 0 0-.29-.187c-.112 0-.804-.406-1.542-.906-1.316-.89-5.207-2.844-5.668-2.844-.129 0-.559-.168-.953-.375-.39-.203-.945-.371-1.227-.375-.281 0-.62-.102-.75-.223-.133-.125-.687-.28-1.238-.351-.55-.067-1.45-.246-2-.395-1.488-.402-6.793-.336-8 .102"/><path fill="#ddfb71" d="M0 125v125h250V0H0zm150.125-74.219c.55.149 1.45.328 2 .395.55.07 1.105.226 1.238.351.13.121.469.223.75.223.282.004.836.172 1.227.375.394.207.824.375.953.375.46 0 4.352 1.953 5.668 2.844.738.5 1.43.906 1.543.906.113 0 .242.086.289.188.043.101.644.636 1.332 1.183 2.18 1.734 4.738 4.621 5.77 6.512 1.89 3.469 2.355 5.078 2.355 8.156 0 2.82-1.05 6.43-2.754 9.461-.113.207-1.516 3.02-3.11 6.25s-3.003 6.043-3.136 6.25c-.129.207-.422.77-.652 1.25-.227.48-1.243 2.55-2.258 4.602-1.012 2.046-1.84 3.804-1.84 3.906 0 .101 6.89.246 15.313.32 17.203.16 17.687.203 21.316 1.996 2.918 1.442 7.613 7.262 7.621 9.446 0 .218.082.48.184.582.257.253.824 2.062 1.07 3.398.113.617.324 1.574.469 2.125.418 1.578.347 9.496-.098 11.21-.207.79-.375 1.716-.375 2.056s-.105.812-.234 1.05c-.13.239-.434 1.106-.68 1.926-1.082 3.668-4.059 8.14-6.582 9.903-1.203.835-3.492 1.98-3.977 1.984-.222 0-.91.184-1.527.406-1.117.399-12.93.38-25.25-.039-1.992-.07-3.484-.059-3.313.024s.313.3.313.492c0 .191.535 1.222 1.188 2.289 1.722 2.82 1.777 2.914 1.968 3.324.098.207.367.656.598 1 .234.344.797 1.3 1.246 2.125.453.824.895 1.555.98 1.625.086.07.29.406.458.75.164.344.585 1.074.93 1.625.347.55.706 1.168.8 1.375s.41.77.7 1.25c.468.773 1.214 2.496 2.12 4.898.348.922.23 7.016-.16 8.38-1.723 5.995-7.851 12.632-14.328 15.519-.895.398-1.82.832-2.059.965a2.262 2.262 0 0 1-.894.238c-.254 0-.547.086-.652.188-.79.789-10.985 1.48-12.266.828-.277-.141-1.063-.438-1.746-.664-2.313-.762-7.633-4.75-7.633-5.723 0-.05-.66-1.086-1.469-2.3-.808-1.212-1.68-2.599-1.937-3.079a18.285 18.285 0 0 0-1.031-1.664c-.31-.434-.563-.91-.563-1.063 0-.148-.102-.273-.223-.273s-.293-.281-.379-.625c-.085-.344-.27-.625-.402-.625a.25.25 0 0 1-.246-.254c0-.137-.563-1.148-1.25-2.246s-1.25-2.047-1.25-2.113c0-.551-1.633-2.34-1.914-2.102-.352.29-3.086 5.754-3.086 6.16 0 .133-.168.383-.375.555s-.375.523-.375.781-.113.469-.25.469-.25.129-.25.285c0 .504-6.305 13.035-7.422 14.754-1.969 3.02-5.285 5.492-8.453 6.297-1.957.5-10.875.258-12.25-.328-.273-.117-1.117-.399-1.875-.625-1.355-.406-1.64-.52-4.125-1.656-1.422-.653-5.422-3.067-6.355-3.836-7.926-6.563-10.762-13.828-8.008-20.516 1.12-2.723 1.082-2.637 1.789-4 .215-.414.601-1.2.86-1.75.253-.55.519-1.055.589-1.125s1.379-2.602 2.906-5.625c2.594-5.125 6.367-12.523 7.047-13.813 1.035-1.964 1.902-1.75-7.703-1.91-16.148-.265-22.441-.632-24.375-1.418-4.723-1.91-7.934-5.355-9.887-10.609-2.133-5.727-2.472-11.219-1.09-17.75.688-3.246 2.192-6.742 4-9.29 1.954-2.75 6.211-5.835 8.055-5.835.281 0 .832-.133 1.219-.293.512-.21 4.148-.273 13.363-.23 8.574.039 12.715-.028 12.824-.204.137-.218-.406-1.347-.855-1.773-.125-.121-.73-1.172-1.336-2.324-.16-.309-.547-.91-.856-1.344-.308-.43-.562-.894-.562-1.027 0-.133-.156-.375-.352-.535-.195-.16-.535-.653-.757-1.094a17.354 17.354 0 0 0-.645-1.176c-7.453-11.668-8.45-14.938-6.562-21.5.449-1.555 2.152-4.98 2.851-5.73.258-.274.465-.567.465-.645 0-.465 3.668-4.273 5.375-5.582.824-.633 1.54-1.238 1.582-1.348.047-.105.184-.195.309-.195s.816-.379 1.543-.84c1.199-.77 4.004-2.16 4.347-2.16.078 0 .496-.156.93-.348.434-.187 1.465-.53 2.289-.757.824-.227 1.844-.52 2.266-.653 2.203-.695 10.343-.09 11.265.832.098.098.344.176.547.176.516 0 4.293 2.555 5.043 3.414 1.79 2.04 3.832 5.047 5.629 8.274.234.425 4.313 7.363 4.953 8.43.164.273.64 1.062 1.063 1.75.421.69.847 1.48.953 1.757.273.723.687.094 3.219-4.86 9.097-17.824 9.144-17.902 11.921-20.003.63-.477 1.18-.953 1.223-1.063.047-.11.227-.199.402-.199.172 0 .844-.281 1.493-.625.644-.344 1.421-.625 1.722-.629.305 0 1-.164 1.551-.363 1.207-.438 6.512-.504 8-.102"/></g></svg>