<svg xmlns="http://www.w3.org/2000/svg" width="250" height="250"><clipPath id="a"><path d="M0 63.152h250V250H0zm0 0"/></clipPath><clipPath id="b"><path d="M0 0h251v251H0z"/></clipPath><path fill="#8600ce" d="M250 125c0 69.035-55.965 125-125 125S0 194.035 0 125 55.965 0 125 0s125 55.965 125 125zm0 0"/><path fill="#fff" d="M240.742 125c0 63.922-51.82 115.742-115.742 115.742S9.258 188.922 9.258 125 61.078 9.258 125 9.258 240.742 61.078 240.742 125zm0 0"/><path fill="#8600ce" d="M233.188 125c0 59.75-48.438 108.188-108.188 108.188S16.812 184.75 16.812 125 65.25 16.812 125 16.812 233.188 65.25 233.188 125zm0 0"/><g clip-path="url(#a)"><g clip-path="url(#b)"><path fill="#fff" d="M54.215 78.629c.035 7.375.066 15.031 0 22.406 29.644.27 62.668.106 92.312 0 12.82-22.164.145-.238 13-22.406-32.48.012-72.851-.129-105.312 0zm85.996 50.453c-12.293-19.48-.313-.414-12.488-19.746-5.516.02-18.395.039-27.227.039-.164 0 25.27 42.402 25.192 42.547-4.489 7.726-.051.043-4.555 7.855l-30.211-50.379c-12.035-.109-24.672.157-36.707.047-.098 6.258-.219 16.11-.02 22.36l21.367-.063c47.094 77.52-1.566-2.344 45.547 75.59 63.77-105.84.317-.43 64.024-106.281 13.125-.016 13.12-.028 13.12-.028l10.09-22.394c-37.847.02 0 0-37.85 0-48.54 80.937 0 0-30.282 50.453zm0 0"/></g></g></svg>