<svg width="250" height="250" viewBox="0 0 24 24">
  <path d="m23.796 12.069a11.847 11.852 0 0 1-11.847 11.852 11.847 11.852 0 0 1-11.847-11.852 11.847 11.852 0 0 1 11.847-11.852 11.847 11.852 0 0 1 11.847 11.852z" fill="#bb90e9"/>
  <path d="m7.1584 16.772c0.00301-0.03005 0.00902-0.05801 0.012017-0.08686-0.00301 0.0011-0.00902 0.0017-0.012017 0.0024z" fill="#e02155"/>
  <path d="m15.315 23.296c-0.04386 0.01503-0.08742 0.02704-0.13129 0.03878-1.0545 0.30765-2.1699 0.47215-3.3237 0.47215-1.6003 0-3.1263-0.31691-4.5193-0.89122-0.00902-3e-3 -0.018027-0.0061-0.027039-0.01202-0.03395-0.01503-0.067899-0.02704-0.10154-0.04268-0.024035-9e-3 -0.04807-0.02104-0.072105-0.03066 0.021031-0.05531 0.051675-0.13315 0.054378-0.13796 0.084422-0.13766 0.083221-0.27982 0.065494-0.43446-0.024036-0.20137-0.030946-0.4032-0.036353-0.60538 0.018026-0.03305 0.021031-0.07484 0.00166-0.11902-0.00188-0.0061-0.00301-9e-3 -0.00601-0.01503-4.206e-4 -0.01503-9.615e-4 -0.03095-0.00117-0.04689 0.00601-0.01202 0.00902-0.02704 0.012017-0.04028 0.00301-3e-3 0.00601-9e-3 0.00902-0.01202 0.15653-0.30198 0.11897-0.66249 0.07541-0.9877-0.00259-0.02104-0.00601-0.03967-0.00902-0.0595 0.021031-0.19026 0.038156-0.38138 0.051074-0.57241 0.012017-0.18064 0.021031-0.36148 0.030344-0.54233 0-0.0022 0-3e-3 2.105e-4 -0.0061 0.00213-0.052 0.00301-0.10399 0.00601-0.15629 0.021031-0.07244 0.036353-0.14728 0.046868-0.22332 0.024035-0.1605 0.030645-0.32521 0.052275-0.48092 0.046568-0.3302 0.30044-0.60989 0.23464-0.95524 0.084723-0.2194 0.17516-0.43638 0.26529-0.65516 0.084723-0.20708 0.21511-0.51675 0.14391-0.75638l0.18957-0.01804 0.79397-0.07694 1.2332-0.52123 0.99348-0.81301 0.85249-1.7254 0.78284-0.95998 0.26168 0.42406 0.11056 0.17943h2.4e-4l0.05768 0.09378 0.06549 0.0526 0.42103 0.3387 0.29232 0.52481 0.0724 0.12954 0.34142 0.76348 0.10125 0.23594 0.21181 0.49328 0.08323 0.42217 0.10486 0.53189 0.07871 0.66937 0.01502 0.12744 0.01202 0.08026c-9e-3 0.0026-0.02103 0.0061-0.03004 0.01202-0.03514 0.01804-0.06098 0.05349-0.06039 0.10579 0.0012 0.27681 0.01502 0.55252 0.01803 0.82939 2.11e-4 0.03066 2.11e-4 0.06131 2.11e-4 0.09197-2.11e-4 0.17072-0.01202 0.34062-0.02103 0.51083-0.0061 0.11001-0.01201 0.2194-0.01201 0.32944-0.01202 0.14998-0.01202 0.30603-0.01202 0.45393-2.4e-4 0.04389 9.62e-4 0.08746 3e-3 0.13074-3e-3 0.01202-0.0061 0.02104-0.0061 0.03516-0.01502 0.21279-0.03185 0.42592-0.03636 0.63926-0.0017 0.08026-0.0014 0.1611 0.0015 0.24165 3e-3 0.12954 0.02103 0.25788 0.02703 0.38754 0.0061 0.11211 9e-3 0.22421 0.04867 0.3302 0.0017 3e-3 3e-3 9e-3 0.0061 0.01202 0.01202 0.17132 0.03937 0.33753 0.06339 0.51365 0.03546 0.26119-0.01201 0.5255 0.02103 0.78765 0.01803 0.13766 0.03065 0.37453 0.05198 0.59543 0 0.0012 2.11e-4 2e-3 2.11e-4 0.0028 0.01201 0.11241 0.02403 0.22061 0.03995 0.3093z" fill="#e02155"/>
  <path d="m12.999 3.7967c-0.88767-0.018034-1.5678 0.14728-1.5678 0.14728-2.5653 0.056805-3.4024 1.8102-3.6725 2.8304v0.00108c-0.027039 0.1046-0.049872 0.20137-0.066997 0.28824-0.051675 0.26178-0.059786 0.42926-0.059786 0.42926l0.70963-0.00601 0.32648 0.20528 0.15292 0.18424v0.39418l-0.26228 0.27531-0.71197 0.10009h-0.54592l-0.11206 0.40151v1.0896l0.11206 0.91397 0.76103-0.75281 0.88617-0.75233 0.52694-0.2684h0.49353l0.46985 0.14186 0.48314 0.086261 0.24186 0.36241 0.36203 0.37597 0.5774 0.28223 0.57717 0.2687 0.59186 0.32238 0.18687 0.25487v0.30862l-0.22563 0.49655c0.01201 0.01803 0.02103 0.03997 0.02103 0.06612 0.0061 0.07694 0.02704 0.15058 0.06069 0.22061h2.41e-4c0.03004 0.06222 0.0676 0.12173 0.10996 0.17793 2.11e-4 0 4.21e-4 0.0011 9.62e-4 0.0012 0.03845 0.05109 0.08022 0.10009 0.12288 0.14607h2.4e-4c0.03485 0.03816 0.07 0.07424 0.10396 0.1085 0.14091 0.14307 0.24726 0.31739 0.35682 0.4864 0.02704 0.02406 0.05348 0.04958 0.07901 0.07514 0.06129 0.06131 0.11927 0.12594 0.17305 0.19296h2.41e-4c0.26408 0.32686 0.44044 0.7156 0.51506 1.129 0.01201 0.07003 0.02403 0.14096 0.03004 0.21219 0 0.0016-2.39e-4 3e-3 0 0.0061 0.11687 0.27261 0.19889 0.49824 0.26619 0.69877 0.03515 0.1046 0.0661 0.20227 0.09584 0.29605 0.06789 0.214 0.08892 0.54422 0.08773 0.90402v0.0012c-2.4e-4 0.07214-0.0015 0.14546-3e-3 0.2194-9e-3 0.32214-0.02704 0.65305-0.04386 0.93345 0 0.0011-2.4e-4 0.0014 0 0.0019-0.01202 0.21881-0.02103 0.40647-0.02103 0.53614 2.1e-4 0.02104 4.21e-4 0.04327 4.21e-4 0.06673v0.0014c3e-3 0.54849-0.02404 1.599-0.06158 1.5884-0.0014 0-0.0026 0-3e-3 -0.0012-0.20099-0.03305 0.08382 1.9763 0.22052 2.869 0 0.0012 2.41e-4 0.0018 2.41e-4 0.0028 0.02103 0.12894 0.03636 0.23444 0.04777 0.30672 0.05078-0.01503 0.10095-0.03066 0.15141-0.04719 0.96528-0.30813 1.877-0.73646 2.7172-1.2679 0.05829-0.03667 0.11657-0.07423 0.17426-0.11211l-0.22142-4.1822-9.61e-4 0.0011c-0.05528-0.20287-0.11837-0.40437-0.16734-0.60893-0.08382-0.34796-0.08742-0.6881-0.08742-1.0438v-0.47645l-0.09643 0.49042-0.18837-4.3522-0.03035-1.109c-0.12926-0.64756-0.11604-1.3222-0.30853-1.959-0.030046-0.095878-0.098242-0.20017-0.02103-0.19776l-0.044724-0.9608-0.82359-2.1065c-0.82337-1.3522-2.3078-1.6727-3.4491-1.6942zm1.4318 4.0819c0.2085 0 0.41716 0.00902 0.62341 0.00902 0.08322 0 0.1403 0.038772 0.17246 0.092572 0.04957-0.00601 0.09914-0.012023 0.14962-0.012023 0.2773-0.00601 0.26829 0.42265-9e-3 0.42974-0.41418 0.012023-0.79778 0.24736-1.2072 0.30269-0.2752 0.03727-0.84465 0.00902-0.91952-0.34964-0.0658-0.31477 0.34235-0.40224 0.56719-0.43446 0.2049-0.030056 0.41306-0.036668 0.62148-0.036668zm-6.0255 8.2057-0.90555 0.091677-0.50302 2.5329-0.25627 0.97706-0.52125 2.5789-0.027039 0.19476c0.0691 0.03878 0.1385 0.07603 0.2082 0.1127 0.24125 0.12713 0.48761 0.24646 0.73805 0.35724 0.024035 0.01202 0.048671 0.02104 0.073306 0.03217 0.024035 9e-3 0.04807 0.02104 0.072405 0.03066 0.027039-0.22572 0.11987-0.63378 0.1364-0.75588 0.024035-0.17583 0.021031-0.35151 0.024035-0.52835 0.00601-0.37143 0.00601-0.74166-0.00262-1.1129-0.00601-0.21971-0.015021-0.4423-0.012017-0.66441 4.508e-4 -0.1647 0.00601-0.32899 0.024035-0.49159 0.00166-0.01803 0.00301-0.03426 0.00601-0.05079 0-0.0014 2.403e-4 -0.0028 4.506e-4 -3e-3 0-0.0011-2.103e-4 -0.0012-2.103e-4 -0.0022-0.021031-0.12263 0.015022-0.25698 0.053479-0.37925 0.012017-0.03486 0.024035-0.06883 0.033349-0.10098 0.070303-0.2137 0.15022-0.42193 0.20941-0.63974 0.18117-0.66748 0.30804-1.3482 0.58263-1.9864 0.012017-0.02704 0.030043-0.04569 0.04807-0.0562l0.012017-0.08326 0.00902-0.05259h-2.404e-4z" fill="#2db990"/>
  <path d="m7.5933 7.4158-0.85273 0.34297-0.10845 0.24315 0.24215 0.42622s0.97309 0.217 1.1074 0.28373v9.02e-5l0.57669-0.16651 0.26258-0.27531 0.091633-0.59045-0.6113-0.19326-0.70774-0.070632zm0.38835 1.2962h-4.505e-4zm6.1023-0.9532s-0.72501 0.10039-0.81124 0.11992c-0.08622 0.018035-0.21571 0.39109-0.21571 0.39109l0.30353 0.27531 0.64306 0.26119h0.54439l0.68448-0.26119 0.34901-0.11692s0.11386-0.30696 0.09373-0.42619c-0.021026-0.11933-0.34874-0.24315-0.34874-0.24315h-1.2426zm-4.3782 1.4432c-0.25777-0.0090149-0.90335 0.36945-0.90335 0.36945l-0.3132 0.14607c-7.511e-4 0.03186-0.012017 0.063418-0.036954 0.08686-0.059787 0.056804-0.13069 0.090467-0.2046 0.11842-0.033349 0.032457-0.065195 0.066423-0.083821 0.085651-0.058585 0.06101-0.11717 0.12173-0.15653 0.19656-0.047769 0.09076-0.10486 0.165-0.21451 0.17883-0.12468 0.01503-0.2037-0.06673-0.31182-0.1082-0.031847-0.01202-0.053479-0.03305-0.067598-0.05711l-0.34001 0.15839s-0.064894 0.107-0.17426 0.28493c4.205e-4 0.0022 0.00117 3e-3 0.00141 0.0061 0.015021 0.11361 0.00902 0.22001-0.015022 0.32093 0.04807-0.0019 0.097341 0.02104 0.12048 0.06612 0.15592 0.29995-0.089831 0.62387-0.2725 0.84809-0.088929 0.1094-0.18387 0.2137-0.2746 0.3219-0.16404 0.29455-0.38312 0.72035-0.77975 0.69381-0.047169-3e-3 -0.083821-0.02704-0.10515-0.06222-0.027039 0.02104-0.053478 0.04027-0.079015 0.06161-0.00902 0.0061-0.018027 0.01503-0.027039 0.02406-0.34144 0.52598-0.65255 0.98559-0.8319 1.2034-0.56392 0.68525-0.40279 0.94691-0.40279 0.94691l0.15322 0.32238 0.53171 0.12353v0.04178c0.11236 3e-3 0.21601 0.03036 0.31561 0.06972 0.086825 0.02405 0.17305 0.04958 0.26138 0.06942 0.22563 0.05109 0.4566 0.02406 0.68262 0.06942 0.22052 0.04389 0.42767 0.14247 0.65324 0.162 0.24276 0.02104 0.4895 0.02104 0.73306 0.03095 0.50184 0.02104 0.98993 0.02406 1.4873-0.05681 0.35232-0.05771 0.69966-0.14066 1.0449-0.23082l0.32717-0.15569 0.22864-0.10039c0.18357-0.1587 0.40183-0.27081 0.59117-0.43283 0.03304-0.02704 0.06489-0.0583 0.09584-0.08926l0.12288-0.13946c0.16764-0.21069 0.29202-0.46148 0.37414-0.71109 0.02103-0.06342 0.07361-0.08987 0.12558-0.08867 0.02403-0.08026 0.04267-0.162 0.0643-0.24555 0.04447-0.17222 0.11958-0.3231 0.2052-0.4781 0.06039-0.1094 0.12257-0.2176 0.18808-0.32403 0.05979-0.14517 0.11987-0.29064 0.18146-0.43425 0.06158-0.14336 0.16463-0.24436 0.28302-0.34275 0.02703-0.02104 0.05407-0.03066 0.08142-0.03126 0.09043-0.16441 0.20761-0.31337 0.31537-0.46719 0.02404-0.03606 0.05948-0.0529 0.09433-0.0562l-0.01803-0.2113h-4.51e-4l-0.2079-0.33495s-0.71813-0.32993-0.78093-0.4008c-0.06219-0.07092-0.70656-0.57268-0.70656-0.57268l-0.55491-0.46462-0.42792-0.18153-0.26168-0.10068-0.34238 0.20137h-0.0019s-0.10726-0.25517-0.32222-0.32238c-0.012017-0.00301-0.030043-0.00601-0.045966-0.00601zm3.165 6.9378-9e-3 1.2912-0.16945 0.58666-0.06399-0.1085 0.10726-0.27141-0.01502-0.24375h-0.04476l-0.21692 0.24195-0.21692 0.3323-0.18537 0.24766-0.43551 0.25157-0.38126 0.19507s-0.47244 0.08686-0.49848 0.09136c-0.02704 3e-3 -0.50516 0.07424-0.50516 0.07424l-0.52174-0.09288-0.11927-0.07244-0.079916 0.2134 0.038456 0.17342 0.078714 0.09048h-7.81e-4l0.4874 0.44038 0.51107 0.21641h0.87097l0.64257-0.17312 0.57717-0.54518 0.5196-0.5286 0.17215-0.17553 0.07212-0.1587 0.03304-0.19806s-0.0029-0.2152 0-0.22362c0.0028-9e-3 -0.08292-0.28493-0.08292-0.28493l-0.22922-0.73835-0.33432-0.63124z" fill="#fff"/>
  <path d="m12.04-0.0030621c-4.5725-0.012022-8.8722 2.5988-10.894 6.8957-0.55445 1.1802-0.90771 2.4183-1.0592 3.715-0.32495 2.8723 0.35974 5.6429 1.9327 8.0437 1.3949 2.064 3.3422 3.6434 5.6654 4.5383 6.0533 2.3331 12.823-0.56406 15.365-6.5179 1.8149-4.336 0.97506-9.19-2.1236-12.699h2.11e-4c-1.6899-1.8534-3.8787-3.1546-6.3312-3.6949-0.85273-0.18755-1.7087-0.27952-2.5556-0.28162zm-0.0712 0.42019c0.56331-0.003005 1.1307 0.033663 1.6986 0.11121 0.15773 0.021039 0.45255 0.080249 0.88518 0.17553 0.75972 0.16771 1.4963 0.41312 2.2099 0.73652 0.78585 0.35316 1.5246 0.79122 2.2164 1.3138 0.47652 0.35845 0.9223 0.75214 1.3369 1.1809 1.3012 1.3519 2.2264 2.928 2.7766 4.7289 0.2764 0.92319 0.43576 1.8677 0.47772 2.834 0.03905 0.92752-0.03154 1.8475-0.2121 2.7602-0.5878 2.9196-2.265 5.4946-4.6965 7.2104h-2.11e-4c-0.0022 0.0015-0.06189 0.04117-0.08172 0.0547l-0.0061-0.13586-0.01201-0.08776-0.06852-0.35165v-0.52719l-0.0017-0.17583-0.0061-0.08806-0.02704-0.17553-0.01803-0.08805-0.03425-0.17583v-0.87865l-0.0017-0.17583-0.0061-0.08776-0.02704-0.17583-0.01803-0.08776-0.01502-0.08806-0.02103-0.08776-3e-3 -0.08806-0.03004-0.17553-0.01803-0.08806-0.01803-0.08776-0.03425-0.17583-0.01803-0.08776-0.03636-0.17583-0.01803-0.08807-0.03426-0.17583-0.01803-0.08776-0.03426-0.17583v-3.6905l-0.0017-0.08806-0.0061-0.08776-0.02704-0.17583-0.01803-0.08776-0.03425-0.17583v-0.08806l-0.0016-0.17553-0.0061-0.08806-0.02704-0.17583-0.01803-0.08776-0.03426-0.17583-0.0061-0.17583-0.02704-0.17553-0.0658-0.26389-0.04116-0.17583-0.01803-0.08776-0.03426-0.17583-0.03695-0.17583-0.03426-0.17553-0.0017-0.17583-0.0061-0.088056-0.02703-0.17583-0.01803-0.087763-0.033943-0.17583v-0.70286l-0.0017-0.17583-0.0061-0.087763-0.02704-0.17583-0.03364-0.17583-0.02103-0.087763-0.0061-0.17583-0.02704-0.17583-0.06579-0.26359-0.01803-0.088064-0.02403-0.087763-0.0658-0.26359-0.02704-0.088064-0.02704-0.087763-0.05798-0.17583-0.03004-0.087763-0.05348-0.17583-0.04687-0.17583-0.02103-0.088063-0.05528-0.17553-0.03245-0.088064-0.07571-0.17583-0.04568-0.087763-0.03966-0.087763-0.04807-0.087763-0.04236-0.087763-0.10004-0.17583-0.05528-0.088064-0.12228-0.17553-0.14661-0.17583-0.16885-0.17583-0.17576-0.16591-0.087727-0.070332-0.17576-0.107-0.08803-0.039673-0.17576-0.073337-0.087727-0.036668-0.17576-0.063418-0.17576-0.058609-0.17545-0.058009-0.08803-0.030056-0.08773-0.027049-0.08803-0.027051-0.17576-0.034263-0.08773-0.03186-0.08773-0.024045-0.08803-0.018035-0.08773-0.012023-0.08803-0.03186-0.08773-0.021039-0.17576-0.027051-0.08773-0.00601-0.17576-0.00283h-0.35139l-0.08773-0.018034-0.17576-0.018035h-0.087706l-0.17576 0.012023-0.08803-0.00283-0.17545-0.02705-0.08803-0.015028-0.08773-0.012023-0.17576-0.00262-0.17576 0.00902-0.08773 0.00601-0.08803-0.00601-0.17576-0.00902-0.17545 0.00262-0.08803 0.012023-0.17576 0.036368-0.08773 0.031258-0.17576 0.039673-0.17576 0.066123-0.08773 0.035767-0.17576 0.068828-0.17576 0.070932-0.087727 0.036368-0.17576 0.068527-0.17576 0.075741-0.087727 0.046586-0.088027 0.041176-0.17576 0.1082-0.087727 0.067625-0.087727 0.073637-0.17514 0.16801-0.79065 0.79098-0.13339 0.17583-0.10816 0.17553-0.04116 0.087763-0.048671 0.087763-0.039658 0.088064-0.04807 0.087763-0.039657 0.087763-0.046568 0.088063-0.075409 0.17583-0.0685 0.17583-0.070303 0.17523-0.039657 0.088064-0.038757 0.087763-0.10726 0.17583-0.071203 0.068527-0.16584 0.14156-0.17576 0.14938-0.065796 0.082353-0.11146 0.17312-0.03425 0.087763-0.00902 0.17583 0.044165 0.17583 0.056482 0.087763 0.058886 0.068829 0.14842 0.14126 0.14692 0.14938 0.087727 0.16801 0.018027 0.087763 0.00902 0.17583v0.5274l-0.00601 0.17523-0.012017 0.088064-0.018027 0.087761-0.061288 0.17583-0.044165 0.08806-0.12228 0.17553-0.045667 0.08806-0.087727 0.17583-0.054379 0.17553-0.018026 0.08806-0.021031 0.08776-0.03425 0.17583v0.17583l-0.00163 0.08776-0.00601 0.08806-0.036954 0.17583-0.043864 0.08776-0.089831 0.17583-0.058886 0.08776-0.1346 0.17583-0.075409 0.08776-0.16885 0.15388-0.087727 0.06853-0.088027 0.0565-0.17576 0.11511-0.087727 0.06762-0.14151 0.15659-0.0685 0.08537-0.28301 0.3513-0.1346 0.17583-0.075409 0.08806-0.056482 0.08776-0.063392 0.08806-0.12889 0.17553-0.063392 0.08806-0.10545 0.17583-0.087727 0.17553-0.067598 0.17583-0.04206 0.17583v0.17583l0.044165 0.17583 0.087727 0.17583 0.13159 0.13976 0.087727 0.06342 0.17576 0.11391 0.17576 0.09828 0.17576 0.07725 0.17576 0.06131 0.087727 0.02406 0.087727 0.01804 0.17545 0.02405 0.087727 0.01503 0.17576 0.03336 0.17576 0.03428h0.087727l0.17576 0.0026 0.087727 0.0061 0.17576 0.02704 0.17125 0.03426 0.1361 0.01803h0.13159l0.087727 0.08807v0.26869l0.015022 0.08265 0.00601 0.08806-0.021031 0.17583v0.08776l-0.00301 0.08776-0.030044 0.17583-0.033349 0.17583-0.021031 0.08806-0.00601 0.17553-0.012017 0.08806-0.03425 0.17583-0.03425 0.17553-0.00601 0.17583-0.012017 0.08806-0.034251 0.17583-0.034249 0.17553 0.015021 0.15629 0.00601 0.07303-0.00601 0.06883-0.018027 0.14938-0.032448 0.16771-0.021031 0.08776-0.031847 0.08776-0.012017 0.08776-0.04116 0.17583-0.018027 0.08776-0.03425 0.17583-0.036953 0.17553-0.018028 0.08806-0.034251 0.17583-0.036054 0.17552-0.018027 0.08806-0.03425 0.17583-0.018028 0.08776-0.018026 0.08805-0.033949 0.17553-0.00601 0.08806-0.030044 0.17583-0.036054 0.17552-0.03425 0.17583-0.036053 0.17553-0.00601 0.03005c-2.2746-1.3336-3.9225-3.2182-4.9423-5.6547-0.34223-0.84857-0.58441-1.7244-0.72712-2.6282-0.018026-0.10339-0.030044-0.20618-0.037254-0.30877-0.16314-1.3812-0.10576-2.7189 0.20761-4.0768 0.12499-0.53451 0.28992-1.0638 0.49518-1.5883 0.2037-0.52038 0.44341-1.0227 0.71994-1.5079 0.41178-0.7226 0.895-1.3937 1.4497-2.0131 0.53334-0.59304 1.1221-1.1256 1.7663-1.5978 2.0055-1.4609 4.3706-2.2249 6.8117-2.2385zm0.81796 3.5832 0.08803 0.00262 0.17576 0.00601 0.17576-0.00601 0.08773-0.00262 0.17576 0.021039 0.17576 0.034263 0.08773 0.018035 0.08773 0.00601 0.17576 0.030055 0.43927 0.11001 0.08803 0.031258 0.17576 0.039673 0.08773 0.048691 0.08773 0.024045 0.08803 0.048992 0.16885 0.1046 0.14842 0.11241 0.06879 0.060411 0.1412 0.090469 0.08803 0.051095 0.08773 0.061314 0.16885 0.15118 0.07541 0.085359 0.0712 0.088063 0.12378 0.17583 0.05889 0.087763 0.11507 0.17583 0.05528 0.087763 0.10006 0.17583 0.04235 0.088063 0.04807 0.087763 0.03966 0.087763 0.04568 0.088064 0.06879 0.17583 0.02103 0.087763 0.01803 0.088063 0.03426 0.17553 0.04146 0.17583 0.01201 0.088064 0.05348 0.17553 0.01803 0.088064 0.03426 0.17583 0.01803 0.087763 0.01803 0.088064 0.02704 0.17553 0.0061 0.088063 0.0017 0.17583 0.03426 0.17553 0.01803 0.088064 0.02704 0.17583 0.0061 0.17523v0.52739l0.03426 0.17583 0.01803 0.087763 0.02704 0.17583 0.0061 0.087763 0.0017 0.088064v0.35154l0.03426 0.17553 0.01803 0.08806 0.03003 0.17583 0.0061 0.08776 0.03666 0.17583 0.02404 0.08776 0.05347 0.17583 0.02704 0.08806 0.03426 0.17553 0.03185 0.08806 0.02103 0.08776 0.01803 0.08805 0.03426 0.17553 0.01803 0.08807 0.01803 0.08776 0.02704 0.17583 0.0061 0.08776 0.0017 0.17583v3.3393l0.03426 0.17583 0.01803 0.08776 0.02704 0.17583 0.0061 0.08806 0.0019 0.17553v0.61509l0.03425 0.17583 0.01803 0.08806 0.02704 0.17553 0.0061 0.08806 0.0017 0.17583v0.08776l0.03426 0.17583 0.03425 0.17583 0.01201 0.08776 0.0061 0.17583 0.02103 0.08776 0.03335 0.17583 0.02704 0.17583 0.0061 0.08776 0.0016 0.17583v0.52742l0.03426 0.17583 0.03606 0.17553 0.03395 0.17583 0.01803 0.08806 0.03425 0.17553 0.01803 0.17583 0.0019 0.17583v0.08806l0.03426 0.17553 0.01803 0.08806 0.02704 0.17583 0.0061 0.08776 0.0017 0.17583 0.0017 0.01803c-0.03815 0.02406-0.09644 0.06492-0.10876 0.07244-0.67433 0.41697-1.383 0.76411-2.1259 1.0416-0.03185 0.01202-0.3173 0.1046-0.48355 0.1587l-0.0061-0.0595-0.0017-0.17583-0.0061-0.08806-0.02704-0.17553-0.03335-0.17583-0.02103-0.08807-0.0017-0.17553-0.0061-0.08806-0.02704-0.17583-0.01803-0.08776-0.03426-0.17583v-0.08776l-0.0017-0.17583-0.0061-0.08805-0.02703-0.17553-0.01803-0.08805-0.03426-0.17583v-1.6697l0.03426-0.17553 0.01803-0.08807 0.02703-0.17583 0.0061-0.08776 0.0017-0.17583v-2.0209l-0.0017-0.08806-0.0061-0.08776-0.02703-0.17583-0.03576-0.17583-0.03426-0.17583-0.01803-0.08776-0.02404-0.08806-0.02704-0.08776-0.05799-0.17583-0.11777-0.3513-0.08803-0.26388-0.03004-0.08776-0.06039-0.17583-0.03245-0.08776-0.07571-0.17583-0.04416-0.08807-0.07781-0.17523-0.03636-0.08807-0.08773-0.17583-0.05198-0.08776-0.10455-0.17583-0.05648-0.08776-0.0685-0.08807-0.07301-0.08776-0.16854-0.17583-0.17576-0.15809-0.06339-0.0565-0.11236-0.049-0.04506-0.04598-0.04267-0.06403-9e-3 -0.03637-0.03003-0.06853-0.07571-0.13705-0.02404-0.17583 0.05078-0.17583 0.13159-0.26359 0.03695-0.17583 0.0061-0.17042v-0.18094l-0.13189-0.04569-0.04807-0.03246-0.08803-0.04569-0.08323-0.052-0.08803-0.05801-0.17576-0.11511-0.08773-0.0562-0.08802-0.05109-0.17545-0.11241-0.08803-0.06883-0.08773-0.06583-0.17576-0.16771-0.17576-0.14938-0.08773-0.06883-0.17669-0.14122-0.17576-0.13375-0.17576-0.11482-0.08773-0.056506-0.14151-0.13435-0.1412-0.16801-0.15833-0.14126-0.17365-0.10579-0.08803-0.024045-0.08773-0.045685-0.17576-0.039673-0.08773-0.00283-0.17576-0.018034-0.08773 0.00601-0.17576 0.015028h-0.088029l-0.17545 0.00902-0.17576 0.034264-0.087727 0.045685-0.087727 0.024044-0.17576 0.1028-0.087727 0.063418-0.088027 0.073035-0.17576 0.12232-0.087727 0.073637-0.14151 0.15569-0.1412 0.13435-0.15803 0.11511-0.086225 0.056202-0.17545 0.13616-0.044164 0.04418-0.13159 0.12925-0.12679-0.02104-0.09704-0.03005-0.12739-0.03696v-1.2302h0.43929l0.17576-0.035766 0.17576-0.051996 0.087727-0.030056 0.17576-0.05891 0.17576-0.087763 0.085926-0.063418 0.08262-0.060411 0.1412-0.13976 0.11507-0.17583 0.053478-0.087763 0.04807-0.088064 0.11507-0.17583 0.030044-0.087763 0.012017-0.087763-0.043865-0.17583-0.053779-0.085359-0.0685-0.08115-0.16585-0.12413-0.17576-0.061314-0.17576-0.056505-0.087728-0.018034-0.26379-0.065822-0.17576-0.018034-0.087727 0.0060065-0.17576 0.031258-0.043864 0.012023-0.12829 0.02104h-0.00301l0.021031-0.13194 0.039658-0.13164 0.00902-0.024044v-0.00108l0.051976-0.14968 0.036954-0.088063 0.03425-0.087763 0.070303-0.17583 0.053478-0.088064 0.10996-0.17553 0.061289-0.088063 0.053478-0.087763 0.11507-0.17583 0.13339-0.17312 0.17576-0.15839 0.087727-0.073637 0.088027-0.068527 0.087727-0.070332 0.17576-0.14156 0.087727-0.068528 0.17576-0.12232 0.088027-0.056204 0.17576-0.097681 0.17545-0.078145 0.17576-0.068829 0.17576-0.075441 0.08773-0.045685 0.08803-0.039673 0.08773-0.046586 0.17576-0.067625 0.08773-0.02104 0.17576-0.036969 0.08803-0.018035 0.08773-0.018035 0.17576-0.02705 0.08773-0.00601 0.08803-0.00262h0.96596l0.08803-0.018035 0.17576-0.034263 0.17545-0.02104zm1.578 3.4154-0.17545 0.00902-0.17545 0.034263-0.08803 0.031559-0.17545 0.060712-0.17545 0.041176-0.08803 0.02104-0.08803 0.021039-0.17545 0.070332-0.08803 0.063418-0.08803 0.042078-0.11146 0.14156-0.06429 0.16771v0.17553l0.06429 0.17553 0.05348 0.088064h-2.1e-4l0.14571 0.13194 0.08773 0.049292 0.08803 0.041176 0.17545 0.0535 0.08803 0.02104 0.17606 0.0541 0.17545 0.051997 0.17545 0.036066h0.43927l0.17545-0.034263 0.08803-0.018035 0.17545-0.02705 0.08803-0.00601 0.17545-0.00262 0.17545-0.036066 0.08803-0.024044 0.17395-0.063418 0.08233-0.043882 0.07301-0.051997 0.10966-0.13194 0.04206-0.088063 0.01803-0.17553-0.01803-0.088064-0.08592-0.17312-0.0658-0.082354-0.15532-0.14156-0.08592-0.042078-0.17545-0.10189-0.08803-0.039673-0.17545-0.060713-0.08803-0.02705-0.35139-0.088063-0.17545-0.027051-0.17545-0.00902zm-6.8515 0.17553 0.16164 0.015028 0.073006 0.00601 0.063392-0.00601 0.14151-0.00902 0.17545-0.00259 0.088027 0.00601 0.17125 0.031558 0.1361 0.051095 0.13189 0.085358-0.031546 0.13014-0.085324 0.10971-0.0685 0.051095-0.16615 0.070333-0.17545 0.036968-0.17545-0.0025757-0.088027-0.018034-0.17545-0.056205-0.088028-0.041176-0.043864-0.015028-0.13159-0.088064v-0.26359h-4.507e-4l0.088027-0.088064zm6.5001 0.35151h0.61485l0.08803 0.00262 0.08352 0.00262 0.08773 0.018035 0.04837 0.00262 0.13159 0.063418-9e-3 0.13194-0.04386 0.13164-0.03604 0.088064-0.02703 0.043882-0.05889 0.13164h-0.13189l-0.1361-0.018035-0.17125-0.034264-0.17545-0.027051-0.08803-0.00601-0.17545-0.00262-0.17545-0.056205-0.17545-0.088063-0.17545-0.11933 0.06849-0.12202h-4.22e-4l0.10695-0.082654 0.17545-0.049292 0.08803-0.00601 0.08803-0.00262zm-3.0745 1.6714 0.26348 0.26359 0.17545 0.13946 0.08803 0.06341 0.17545 0.12203 0.08773 0.0607 0.08803 0.06583 0.17545 0.12924 0.16885 0.12202 0.14151 0.12473 0.05618 0.07123 0.11507 0.15809 0.0676 0.08537 0.14932 0.17553 0.1361 0.17553 0.04386 0.08806 0.0643 0.13194 0.02403 0.13164-0.17996 0.18094-0.08803 0.08537-0.08352 0.08536-0.17545 0.13976-0.1388 0.12383-0.12468 0.12473-0.06069 0.07123-0.12468 0.15809-0.11417 0.17312-0.05198 0.08806-0.01502 0.02406c-0.0012 0.01803-0.0019 0.03757-0.0061 0.0556-0.02404 0.14156-0.0712 0.27111-0.13069 0.40155-3e-3 0.0061-0.0061 0.01503-9e-3 0.02405-3e-3 0.02704-9e-3 0.05591-0.01803 0.08386l-0.0061 0.07004-0.05348 0.13705-0.05108 0.08265-0.06339 0.08776-0.137 0.17553-0.12468 0.17553-0.05798 0.08807-0.17545 0.26359-0.05889 0.08776-0.11958 0.17553-0.1343 0.13164-0.15803 0.08806-0.08592 0.02104-0.17545 0.02104h-0.96603l-0.088027-0.01803-0.088028-0.01804-0.17545-0.052-0.17545-0.0535-0.088028-0.02104-0.088027-0.01202-0.088028-0.03156-0.088027-0.02104-0.17545-0.02704-0.17545-9e-3 -0.088027-0.01803-0.17545-0.03426-0.17545-0.02704-0.087727-0.0061-0.17545-0.0026h-1.4056l-0.17545 9e-3 -0.088028 0.01202-0.17545 0.03606-0.087727 0.03156h-4.509e-4l-0.17545 0.03967-0.087727 0.03427-0.17545 0.0607-0.088027 0.01804-0.13189 0.02104h-0.13159v-0.13194l0.021031-0.13164 0.021031-0.08806 0.080818-0.17553 0.051074-0.08805 0.12198-0.17553 0.053479-0.08806 0.14391-0.17553 0.063392-0.08776 0.13159-0.16621 0.064294-0.06762 0.065795-0.05349 0.036052-0.03246 0.10966-0.03156-0.088028 0.17553 0.13159-0.06762 0.13009-0.1082 0.14301-0.17553 0.0685-0.08776 0.14151-0.17553 0.088027-0.08805 0.17395-0.17553 0.082319-0.08807 0.14661-0.17553 0.063091-0.08806 0.11417-0.17553 0.10035-0.17553 0.043864-0.08806 0.10035-0.17553 0.10726-0.17553 0.098243-0.17553 0.038757-0.08807 0.073006-0.17553 0.11507-0.17553 0.14872-0.17553 0.17545-0.16771 0.17545-0.14667 0.088028-0.06342 0.16885-0.12202 0.14842-0.13164 0.0685-0.07123 0.14151-0.13375 0.17545-0.1082 0.088027-0.043887 0.17545-0.097682 0.083522-0.048389 0.088027-0.039673 0.04837-0.02705 0.13159-0.030056v0.52719h0.13189l0.13159-0.02104 0.088028-0.02104 0.17545-0.07995 0.35139-0.21971 0.08802-0.04659 0.08773-0.041176 0.17545-0.065822 0.17125-0.058609 0.04836-0.018035 0.13159-0.039673zm-3.777 1.0526-0.00902 0.12202-0.04837 0.08356-0.030043 0.02704-0.088027 0.03156 0.058886-0.15389h2.404e-4l0.018027-0.04569 0.10004-0.06431zm5.8873 1.5805 0.13009 0.18094 0.13339 0.17042 0.14151 0.17583 0.1421 0.17553 0.0676 0.08806 0.16854 0.17583 0.07571 0.08776 0.0712 0.08776 0.12198 0.17583 0.10726 0.17583 0.05348 0.08806 0.10004 0.17553 0.08803 0.17583 0.03575 0.08806 0.03966 0.08776 0.0703 0.17583 0.03245 0.08776 0.03185 0.08805 0.05798 0.17583 0.02703 0.08776 0.02704 0.08776 0.02103 0.08806 0.04657 0.17583 0.02704 0.08776 0.05378 0.17583 0.02704 0.08776 0.03426 0.17583 0.03185 0.08776 0.02103 0.08807 0.02704 0.17583 0.0061 0.17583v2.3726l-0.0017 0.17583-0.0061 0.08776-0.02704 0.17583-0.01803 0.08776-0.03395 0.17583v1.406l0.03395 0.17583 0.01803 0.08776 0.02704 0.17583 0.0061 0.08776 0.0017 0.17583v0.26359l0.03426 0.17583 0.01803 0.08806 0.02704 0.17553 0.0061 0.08807 0.0019 0.17583v0.08776l0.03395 0.17583 0.03426 0.17583 0.01202 0.08776 0.0023 0.05711c-2.5556 0.762-5.3129 0.58044-7.7356-0.44467-0.00157-0.0011-0.042361-0.02104-0.055581-0.02704 0.012018-0.15779 0.024035-0.31612 0.03425-0.47642 0.012017-0.17883 0.018027-0.36007 0.032448-0.54092v-2.1724l0.034249-0.17583 0.018028-0.08776 0.015021-0.08806 0.015022-0.08776 0.00301-0.08776 0.04206-0.17583 0.031847-0.08806 0.031847-0.08776 0.036353-0.08776 0.061289-0.17583 0.024035-0.08807 0.031847-0.17583 0.00301-0.08776 0.03425-0.17583 0.021031-0.08776 0.018028-0.08806 0.046568-0.17553 0.027039-0.08806 0.027039-0.08776 0.058886-0.17583 0.063392-0.17583 0.036653-0.08776 0.063392-0.17042 0.018027-0.04928 0.024035-0.13194 0.13009-0.03186 0.11447-0.07995 0.10004-0.11001 0.094938-0.13014h0.26379l0.17545-0.03426 0.17576-0.04117 0.087727-0.01202 0.087727-0.03186 0.088028-0.02405 0.087727-0.01804 0.17576-0.04389 0.087727-0.02405 0.088031-0.01803 0.08773-0.01202 0.17576-0.0565 0.08773-0.01804 0.17425-0.05381 0.08262-0.04117 0.07541-0.049 0.07301-0.06612 0.14241-0.15358 0.15532-0.17583 0.26348-0.26359 0.08592-0.08776 0.08262-0.08807 0.14661-0.17583 0.12228-0.17583 0.05528-0.08776 0.09824-0.17583 0.07722-0.17583 0.06849-0.17553 0.07571-0.17583 0.04626-0.08776 0.04116-0.08776 0.10545-0.17583 0.04867-0.08776 0.12198-0.17583 0.04417-0.08805 0.06879-0.17553 0.03004-0.08806 0.03696-0.08776 0.09043-0.16621 0.0661-0.07003 0.03426-0.04659 0.12378-0.06883zm-7.3805 2.9892h1.6689l0.17545 9e-3 0.17395 0.03005 0.14872 0.0562 0.053478 0.04659 0.031546 0.02104 0.031546 0.10189h-1.5811l-0.17545-0.03426-0.088027-0.01804-0.17545-0.02704-0.088027-0.0061-0.17545-0.0026v-0.17553zm7.2282 0.67181c-0.01201 0-0.02404 0.0013-0.03786 0.0028-0.05889 0.0061-0.09042 0.01202-0.10605 0.03397-0.04386 9e-3 -0.03816 0.04148-9e-3 0.16831 9e-3 0.11992 0.02704 0.2146 0.04807 0.27261l0.01202 0.18996c2e-3 0.03908 3e-3 0.06914 3e-3 0.10098-0.01202 0.02104-0.01502 0.055-0.01502 0.11121 0 0.03276 0.0014 0.05831 0.0061 0.07784-9e-3 0.02104-0.02103 0.04327-0.02403 0.07123-0.03546 0.16922-0.26318 0.58594-0.46769 0.84953-0.25957 0.33822-0.45988 0.51128-0.69184 0.59375-0.11808 0.04327-0.24786 0.09828-0.28301 0.11812-0.03937 0.02404-0.10215 0.03936-0.14151 0.03936-0.03937 0-0.08653 0.01503-0.10605 0.03156-0.08233 0.07063-0.37342 0.12594-0.65252 0.12173-0.44807-3e-3 -0.66435-0.05109-0.76647-0.1653-0.11808-0.13736-0.17666-0.08265-0.20039 0.20468-0.00902 0.08806-0.012018 0.14337-0.00902 0.17852-0.00601 0.05381-0.00601 0.11031-0.00135 0.16892 6.309e-4 9e-3 0.0015 0.01202 0.00219 0.01804-0.0012 0.01503-0.00243 0.03005-0.00243 0.04958 0 0.20829 0.20069 0.40107 0.66838 0.64094 0.33409 0.17312 0.43241 0.20468 0.6132 0.20468 0.09523 0 0.14842-0.0023 0.17785-0.01503h0.06489c0.02404 0.01202 0.06248 0.01503 0.12739 0.01503h5.41e-4c9e-3 0.0061 0.02103 0.01202 0.03064 0.01503 0.03546 9e-3 0.23584 0.01503 0.44023 0.01202 0.35398-9e-3 0.38528-0.01503 0.58191-0.14156 0.11026-0.07453 0.2046-0.14546 0.2046-0.1611 0-0.01202 0.20039-0.24375 0.44807-0.50726 0.28302-0.31075 0.4992-0.58596 0.59351-0.76303 0.1373-0.25578 0.15323-0.30668 0.14932-0.5781 0-0.3776-0.29864-1.5494-0.45988-1.8013-0.08262-0.13074-0.11386-0.16231-0.19438-0.16019zm-5.3489 0.55672h0.49446l-0.00902 0.13194-0.044165 0.13705-0.07571 0.17042-0.046568 0.08776-0.073006 0.17583-0.093436 0.58002-0.30707 1.0017-0.070002 1.1562-0.053177 1.1226-0.027039 0.7789-0.064894 0.70833c-0.033649-0.01503-0.093736-0.04389-0.09584-0.04478-0.18627-0.08084-0.2758-0.12202-0.3933-0.19536-0.00601-3e-3 -0.10755-0.0565-0.2088-0.1091l0.015022-0.07694 0.018027-0.08807 0.018027-0.08776 0.03425-0.17583 0.018027-0.08806 0.018027-0.08776 0.027039-0.17583 0.00601-0.17583 0.03425-0.17553 0.021031-0.08806 0.031847-0.17583 0.031847-0.08776 0.024035-0.08537 0.046868-0.15118 0.00601-0.04659 0.038156-0.26509 0.049272-0.21009 0.074208-0.25939 0.057384-0.19356 0.066095-0.23474 0.061589-0.45322 0.030043-0.21009 0.045065-0.14847 0.018026-0.165 0.00301-0.14817 0.030044-0.11963 0.030043-0.18124 0.033349-0.09047 0.030044-0.14847-0.012017-0.20588 0.015022-0.20137 0.027039-0.165 0.05468-0.15659 0.033349-0.16892v-0.08235l0.032448-0.12744zm5.3816 1.5984c0.01803 0 0.01803 0.02104 0.01803 0.05381 0 0.18094-0.33003 0.82179-0.51483 0.99884-0.2046 0.19266-0.52697 0.34606-0.90818 0.42478-0.26348 0.05892-0.857 0.07484-0.975 0.03156-0.17695-0.06672-0.54256-0.26329-0.61722-0.33422-0.051074-0.04719-0.090431-0.11782-0.090431-0.1611 0-0.06311 0.021031-0.07092 0.11026-0.05109 0.23585 0.055 0.75487 0.07092 1.1008 0.02704 0.33409-0.03516 0.41676-0.06281 0.86481-0.28704 0.38528-0.19266 0.55821-0.30266 0.76268-0.49941 0.15473-0.14487 0.22052-0.20228 0.24786-0.20287z"/>
</svg>
