<svg xmlns="http://www.w3.org/2000/svg" width="250" height="250"><g fill-rule="evenodd"><path fill="#f89022" d="M250 125c0 69.035-55.965 125-125 125S0 194.035 0 125 55.965 0 125 0s125 55.965 125 125zm0 0"/><path fill="#fff" d="M218.75 148.14h-18.469l-13.101-11.218-13.055 11.172h-15.61l-7.46-9.063h-25.72l6.509-8.039h12.648l-9.633-11.781-33.632 40.945H85.625l9.734-11.89H79.102l-8.79-24.641-8.718 24.453H45.102L31.25 109.695h12.656l9.313 26.14 9.281-26.023h15.625l9.258 25.97 9.25-25.977h12.695l-13.969 38.46 3.11-3.796L127 109.742h15.703l23.742 28.969 11.422-9.82-36.148-31.235h18.554zm-18.32-23.218-8.711-7.469 8.695-7.406 17.578.016zm0 0"/></g></svg>