<svg xmlns="http://www.w3.org/2000/svg" width="250" height="250"><g fill="#5a5564"><path d="m203.848 52.465-6.864 6.867c33.95 37.125 33.95 94.027 0 131.152l6.864 6.868c37.773-40.973 37.773-104.075 0-145.047zM59.492 53.063c37.125-33.954 94.028-33.954 131.153 0l6.867-6.868c-40.973-37.77-104.075-37.77-145.047 0zM53.063 190.555c-33.91-37.118-33.91-93.97 0-131.086l-6.868-6.864c-37.77 40.97-37.77 104.07 0 145.043zM190.555 196.895c-37.13 33.949-94.028 33.949-131.157 0l-6.863 6.863c40.973 37.77 104.074 37.77 145.043 0zm0 0"/></g><path fill="#f09242" d="M168.336 102.098c-1.371-14.325-13.727-19.13-29.356-20.594V61.777h-12.082v19.36h-9.656v-19.36h-11.988v19.864H80.746v12.925s8.926-.16 8.79 0a6.247 6.247 0 0 1 6.862 5.309v54.367a4.24 4.24 0 0 1-1.464 2.953 4.186 4.186 0 0 1-3.114 1.051c.164.137-8.785 0-8.785 0l-2.289 14.438h24.277v20.183h12.082V172.98h9.657v19.793h12.105V172.82c20.41-1.234 34.64-6.27 36.426-25.375 1.441-15.375-5.79-22.238-17.344-25.007 7.024-3.458 11.371-9.864 10.387-20.34zm-16.93 42.968c0 15.012-25.719 13.293-33.91 13.293v-26.632c8.192.023 33.91-2.332 33.91 13.34zm-5.605-37.523c0 13.727-21.465 12.059-28.281 12.059V95.39c6.816 0 28.28-2.149 28.28 12.152zm0 0"/><path fill="#282138" d="M124.977 250C55.949 249.988-.003 194.023 0 124.992S55.96.004 124.992 0 249.988 55.95 250 124.977c.012 69.054-55.969 125.035-125.023 125.023zm0-240.254C61.379 9.796 9.859 61.38 9.883 124.976c.027 63.598 51.59 115.141 115.187 115.141 63.594 0 115.157-51.543 115.184-115.14A115.191 115.191 0 0 0 124.977 9.747zm0 0"/></svg>