<svg xmlns="http://www.w3.org/2000/svg" width="250" height="250"><g fill="#393c4c"><path d="m126.82 160.254.575 9.266.89-8.36 6.121-49.152h3.461l5.988 49.152.844 8.563.668-9.47 4.836-48.148h4.125l-7.543 70.41h-3.726l-6.391-51.37-.488-5.34-.489 5.34-6.609 51.37h-3.727l-7.5-70.41h4.082zM162.8 182.414h-4.081v-70.406h4.082zM193.418 182.414h-4.129l-15.617-54.293v54.293h-4.125v-70.406h4.125l15.664 54.492v-54.492h4.082zM222.879 173.246c-1.066 3.426-2.531 5.945-4.395 7.656-1.863 1.711-4.082 2.52-6.566 2.52-2.527 0-4.79-1.313-6.742-4.031s-3.461-6.547-4.57-11.48c-1.067-4.938-1.641-10.68-1.641-17.227v-6.145c0-10.574 1.11-18.836 3.281-24.676 2.176-5.843 5.234-8.761 9.184-8.761 3.242 0 5.86 1.914 7.808 5.64 1.953 3.727 3.196 9.063 3.64 16.012h-4.081c-.754-9.367-3.195-14-7.32-14-2.75 0-4.836 2.219-6.211 6.547-1.422 4.332-2.133 10.68-2.133 19.039v5.742c0 7.957.8 14.2 2.398 18.836 1.598 4.633 3.727 6.95 6.477 6.95 1.554 0 2.883-.403 4.039-1.11 1.152-.805 2.086-2.113 2.84-3.93v-15.812h-7.188v-7.555h11.27zM238.14 151.086c-3.503-2.316-6.077-5.137-7.675-8.461-1.598-3.32-2.395-7.453-2.395-12.387 0-5.539.977-10.172 2.926-13.8 1.953-3.626 4.484-5.438 7.633-5.438 2.129 0 4.039.906 5.68 2.82 1.687 1.914 2.972 4.43 3.859 7.754.934 3.324 1.375 6.852 1.375 10.778h-4.125c0-4.23-.578-7.653-1.773-10.07-1.2-2.419-2.887-3.626-5.06-3.626-1.995 0-3.593 1.004-4.702 3.02-1.11 2.015-1.688 4.836-1.688 8.36 0 2.921.532 5.339 1.598 7.253 1.066 2.016 2.883 3.828 5.457 5.438 2.574 1.613 4.613 3.425 6.035 5.441 1.465 2.012 2.528 4.328 3.238 6.95.711 2.616 1.067 5.741 1.067 9.366 0 5.743-.977 10.274-2.93 13.7-1.953 3.425-4.57 5.136-7.851 5.136-2.133 0-4.13-.906-5.946-2.82-1.867-1.813-3.285-4.434-4.261-7.656-1.02-3.223-1.508-6.848-1.508-10.977h4.125c0 4.23.71 7.653 2.086 10.07s3.238 3.727 5.547 3.727c2.175 0 3.816-1.008 4.968-3.02 1.153-2.015 1.73-4.734 1.73-8.16s-.53-6.144-1.597-7.957c-1.062-1.812-3.016-3.625-5.812-5.441zM7.867 48.246l59.762 6.649 13.933 64.667-20.94 44.016-8.786-82.496zm0 0"/></g><path fill="#a9d6e6" d="m13.855 250.504 98.856-211.121 8.738 53.387-11.18-8.868v53.891zm0 0"/><path fill="#5ab9e1" d="M-.254.605 73.09 10.777l28.394 137.29-29.636 34.648-16.11-140.512zm0 0"/></svg>