<svg xmlns="http://www.w3.org/2000/svg" width="250" height="250"><path fill="#3f73b2" d="M44.484 182.09v34.316l44.594-25.246c10.473-5.933 22.344-9.07 34.332-9.07v-21.45c-15.558 0-30.965 4.07-44.558 11.766l-13.32 7.543v-19.308H44.483V90.92h.02c26.43 0 38.137 11.032 63.785 35.196l.008.004.25.238c2.488 2.344 5.086 4.79 7.812 7.336 2.797 2.606 5.395 5.106 7.934 7.5 27.07 25.5 43.41 40.895 78.078 40.895h21.066V69.473h-21.046V35.156L157.8 60.402c-10.477 5.934-22.344 9.07-34.332 9.07v21.45c15.554 0 30.96-4.07 44.554-11.766l13.32-7.543v19.309h21.048v69.719h-.02c-26.426 0-38.137-11.032-63.785-35.196l-.004-.004c-2.566-2.418-5.191-4.941-8.012-7.574-2.793-2.605-5.449-5.105-7.988-7.496-27.07-25.504-43.41-40.898-78.078-40.898H23.438V182.09zm0 0"/></svg>