<svg xmlns="http://www.w3.org/2000/svg" width="250" height="250"><g fill="#29abb5"><path d="M55.637 92.797c1.297 0 2.48.023 3.617.082a75.778 75.778 0 0 1 6.11.496c-.036.043-.067.09-.102.133 3.39.39 6.738.996 10.023 1.816l.102-.117a82.171 82.171 0 0 1 35.097 18.61A82.04 82.04 0 0 1 125 131.038a82.15 82.15 0 0 1 14.516-17.215 81.875 81.875 0 0 1 35.062-18.62h.004l.098.12a78.346 78.346 0 0 1 3.414-.77 77.231 77.231 0 0 1 6.605-1.046c-.035-.043-.062-.09-.097-.133 1.48-.18 2.964-.313 4.445-.402.543-.04 1.117-.07 1.75-.094a66.667 66.667 0 0 1 3.574-.082c11.48 0 20.824-9.348 20.824-20.832V55.57h-8.199v16.395c0 6.965-5.664 12.633-12.625 12.633-1.422 0-2.746.027-3.945.09a60.62 60.62 0 0 0-1.922.101 88.93 88.93 0 0 0-10.066 1.215c-.508.094-1.016.187-1.52.289-.191.031-.387.07-.586.113a87.498 87.498 0 0 0-8.273 2.094h-.008A90.255 90.255 0 0 0 125 117.113a89.62 89.62 0 0 0-9.035-9.39A90.216 90.216 0 0 0 81.91 88.508h-.004a90.41 90.41 0 0 0-8.582-2.164c-.601-.121-1.199-.235-1.8-.336a88.467 88.467 0 0 0-11.907-1.32 79.884 79.884 0 0 0-3.98-.09C48.672 84.598 43 78.93 43 71.965V55.57h-8.195v16.395c0 11.484 9.343 20.832 20.832 20.832"/><path d="M194.367 118.082c-.797 0-1.59.02-2.41.055-1.617.066-3.21.203-4.785.402a64.498 64.498 0 0 1 2.664 18.402c0 35.766-29.09 64.86-64.852 64.86-35.757 0-64.851-29.094-64.851-64.86 0-6.39.926-12.566 2.664-18.402a56.917 56.917 0 0 0-4.684-.394l-.07-.008a53.72 53.72 0 0 0-2.406-.055c-.696 0-1.387-.016-2.075-.047a73.466 73.466 0 0 0-2.457 18.906c0 40.743 33.145 73.887 73.88 73.887 40.738 0 73.878-33.144 73.878-73.887 0-6.53-.851-12.87-2.457-18.906-.676.031-1.355.047-2.039.047M110.2 73.797a64.559 64.559 0 0 1 14.784-1.707c5.086 0 10.04.594 14.797 1.707a111.997 111.997 0 0 1 7.711-3.8l1.606-.72h.023c.918-.39 1.84-.777 2.77-1.144-8.344-3.274-17.418-5.067-26.907-5.067s-18.562 1.797-26.906 5.067c1.48.59 2.95 1.207 4.399 1.851a113.292 113.292 0 0 1 7.722 3.813"/><path d="M223.395 71.969c0 16.004-13.02 29.023-29.028 29.023-1.183 0-2.25.028-3.199.078-.527.02-1.047.043-1.578.082-3.254.2-6.528.625-9.73 1.27-.06.008-.118.02-.173.035-12.875 2.59-24.867 8.625-34.687 17.461-9.066 8.144-15.883 18.348-20.004 29.578a73.894 73.894 0 0 0-19.988-29.578 74.047 74.047 0 0 0-34.899-17.496 73.768 73.768 0 0 0-9.73-1.277c-.5-.032-1-.055-1.496-.075-1-.05-2.059-.078-3.246-.078-16.012 0-29.032-13.02-29.032-29.023h-9.027c0 20.98 17.07 38.05 38.059 38.05.187 0 .367 0 .543.008a45.97 45.97 0 0 1 2.277.063c2.41.105 4.809.344 7.184.719a64.808 64.808 0 0 1 33.332 15.824c13.59 12.219 21.433 29.691 21.507 47.953v.078l.008.207h9.028c0-.098 0-.187-.004-.285h.011c.07-18.262 7.915-35.734 21.512-47.953 8.621-7.754 19.14-13.055 30.438-15.324.941-.192 1.894-.36 2.847-.508a63.703 63.703 0 0 1 7.27-.719c.676-.031 1.398-.05 2.2-.055.187-.007.378-.007.577-.007 20.985 0 38.055-17.07 38.055-38.051zm0 0"/><path d="M55.637 76.398c1.543 0 2.968.032 4.351.098a98.651 98.651 0 0 1 14.945 1.809c1.348.27 2.688.566 4.024.898A98.356 98.356 0 0 1 125 104.984a98.58 98.58 0 0 1 3.55-3.351 98.358 98.358 0 0 1 31.637-19.13h.004a96.243 96.243 0 0 1 10.817-3.304 83.907 83.907 0 0 1 3.66-.824c.246-.05.488-.094.73-.145a97.4 97.4 0 0 1 12.555-1.62 94 94 0 0 1 2.102-.114 87.217 87.217 0 0 1 4.316-.098 4.435 4.435 0 0 0 4.426-4.43V39.173h-8.2V68.27c-.308.007-.617.023-.913.039-.801.027-1.543.07-2.274.125a103.87 103.87 0 0 0-13.547 1.746c-.277.05-.562.11-.855.168a103.78 103.78 0 0 0-10.797 2.804 104.483 104.483 0 0 0-11.367 4.325h-.004A106.753 106.753 0 0 0 125 93.836a106.683 106.683 0 0 0-62.563-25.422 91.305 91.305 0 0 0-2.082-.105 36.72 36.72 0 0 0-.957-.043V39.172H51.2v32.797c0 2.441 1.996 4.43 4.438 4.43M91.27 130.898a56.276 56.276 0 0 0-8.305-5.62c-3.55 2.933-5.82 7.374-5.82 12.327 0 8.82 7.175 15.993 15.996 15.993 4.886 0 9.265-2.2 12.195-5.668a56.357 56.357 0 0 0-5.516-8.375c-.843 2.894-3.52 5.015-6.68 5.015-3.843 0-6.968-3.12-6.968-6.965 0-3.19 2.16-5.886 5.098-6.707M156.844 144.57a6.947 6.947 0 0 1-6.672-5.007 55.014 55.014 0 0 0-5.52 8.367 15.91 15.91 0 0 0 12.192 5.668c8.816 0 15.988-7.168 15.988-15.993 0-4.953-2.266-9.394-5.816-12.328a56.555 56.555 0 0 0-8.301 5.621 6.978 6.978 0 0 1 5.086 6.707c0 3.844-3.117 6.965-6.957 6.965"/></g></svg>