<svg xmlns="http://www.w3.org/2000/svg" width="250" height="250"><path fill="#212630" d="M250 125c0 69.035-55.965 125-125 125S0 194.035 0 125 55.965 0 125 0s125 55.965 125 125zm0 0"/><path fill="#fff" d="M210.715 64.094H182.07l-13.21 45.379h28.265zm-51.426 78.23-14.125-35.09c-3.219-8.87-11.312-14.73-20.34-14.73-8.941 0-16.972 5.742-20.254 14.488L89.88 142.324l-22.39-78.23H39.284l33.496 114.574c1.27 4.305 5.059 7.238 9.348 7.238h16.187c4.004 0 7.606-2.562 9.09-6.472l17.34-45.012 17.652 45.066c1.5 3.883 5.086 6.418 9.07 6.418h15.934c4.274 0 8.051-2.91 9.336-7.195l15.903-54.285h-28.137zm0 0"/></svg>