<svg xmlns="http://www.w3.org/2000/svg" width="250" height="250"><path fill="#8400fd" d="M67.527 165.797 8.074 191.93 6.09 26.422 65.547 6.098zm0 0"/><path fill="#fff" d="M12.035 197.734c-2.574 0-4.953-1.16-7.133-3.191-2.972-2.906-4.757-7.55-4.757-12.488V31.648c0-7.257 3.765-13.355 8.918-15.097L57.617.582c3.766-1.164 7.73-.293 10.903 2.902 3.168 3.196 4.953 8.13 4.953 13.356v146.05c0 7.262-3.766 13.938-9.118 15.973l-48.949 18.293c-1.191.29-2.18.578-3.37.578zM55.438 18.293c-.594 0-1.387 0-1.981.289L15.801 32.52c-3.367 1.164-5.946 5.808-5.946 11.035v130.66c0 3.484 1.192 6.969 3.172 9.004 1.98 2.031 4.36 2.902 6.739 1.742l38.05-15.973c3.567-1.449 6.145-6.386 6.145-11.902V30.488c0-3.773-1.191-7.258-3.172-9.582-1.785-1.742-3.566-2.613-5.352-2.613zm0 0"/><path fill="#02ffdb" d="M109.145 220.965 49.69 247.098 47.707 81.59l59.457-20.324zm0 0"/><path fill="#fff" d="M55.043 249.71c-2.379 0-4.758-1.163-6.738-3.194-2.778-2.903-4.559-7.258-4.559-12.196V88.852c0-6.97 3.566-13.067 8.52-14.52l45.98-15.39c3.567-1.16 7.332 0 10.305 2.906 2.972 3.191 4.558 7.84 4.558 12.773v141.406c0 7.258-3.566 13.649-8.718 15.391l-46.375 17.71c-.993.29-1.985.583-2.973.583zM97.055 70.56c-.594 0-1.387 0-1.98.289L57.417 84.785c-3.367 1.16-5.945 5.809-5.945 11.035v130.66c0 3.485 1.191 6.97 3.172 9 1.984 2.036 4.359 2.907 6.738 1.743l38.05-15.97c3.567-1.452 6.145-6.386 6.145-11.905V82.754c0-3.777-1.187-7.262-3.172-9.582-1.781-1.742-3.566-2.613-5.351-2.613zm0 0"/><path fill="#8400fd" d="m154.727 168.7-59.454 26.132L93.29 29.328 152.746 9zm0 0"/><path fill="#fff" d="M100.625 197.734c-2.379 0-4.758-1.16-6.738-3.191-2.778-2.906-4.559-7.262-4.559-12.195V36.297c0-6.969 3.567-13.067 8.52-14.52l45.78-15.39c3.567-1.16 7.333 0 10.306 2.906 2.972 3.191 4.558 7.84 4.558 12.773v141.696c0 7.261-3.566 13.648-8.719 15.39l-46.175 17.711c-.993.582-1.985.871-2.973.871zm42.012-179.441c-.594 0-1.387 0-1.98.289L102.804 32.52c-3.371 1.164-5.946 5.808-5.946 11.035v130.66c0 3.484 1.188 6.969 3.168 9.004 1.985 2.031 4.559 2.902 6.938 1.742l37.851-15.973c3.57-1.449 6.145-6.386 6.145-11.902V30.488c0-3.773-1.188-7.258-3.172-9.582-1.582-1.742-3.367-2.613-5.152-2.613zm0 0"/><path fill="#02ffdb" d="m200.309 220.965-59.454 26.133-1.984-165.508 59.457-20.324zm0 0"/><path fill="#fff" d="M144.816 250c-2.574 0-4.953-1.16-7.132-3.195-2.973-2.903-4.758-7.547-4.758-12.485V83.914c0-7.258 3.765-13.355 8.918-15.098l48.554-15.972c3.766-1.16 7.73-.29 10.903 2.906 3.172 3.191 4.953 8.129 4.953 13.066v146.051c0 7.258-3.766 13.938-9.117 15.969l-48.95 18.293c-1.187.582-2.18.871-3.37.871zM188.22 70.559c-.594 0-1.387 0-1.98.289l-37.657 13.937c-3.367 1.16-5.945 5.809-5.945 11.035v130.66c0 3.485 1.191 6.97 3.172 9 1.98 2.036 4.359 2.907 6.738 1.743l38.05-15.97c3.567-1.452 6.145-6.386 6.145-11.905V82.754c0-3.777-1.187-7.262-3.172-9.582-1.78-1.742-3.566-2.613-5.351-2.613zm0 0"/><path fill="#8400fd" d="m245.89 165.797-59.452 26.133-1.985-165.508L243.91 6.098zm0 0"/><path fill="#fff" d="M188.418 197.734c-2.574 0-4.953-1.16-7.133-3.191-2.972-2.906-4.758-7.55-4.758-12.488V31.648c0-7.257 3.766-13.355 8.918-15.097L234 .582c3.766-1.164 7.73-.293 10.898 2.902 3.172 3.196 4.957 8.13 4.957 13.067V162.6c0 7.258-3.765 13.938-9.117 15.97l-48.949 18.292c-1.191.582-2.184.871-3.371.871zM231.82 18.293c-.593 0-1.386 0-1.98.289L192.184 32.52c-3.368 1.164-5.946 5.808-5.946 11.035v130.66c0 3.484 1.188 6.969 3.172 9.004 1.98 2.031 4.36 2.902 6.738 1.742l38.051-15.973c3.567-1.449 6.145-6.386 6.145-11.902V30.488c0-3.773-1.192-7.258-3.172-9.582-1.785-1.742-3.567-2.613-5.352-2.613zm0 0"/></svg>