<svg xmlns="http://www.w3.org/2000/svg" width="250" height="250"><path fill="#0175a9" d="M242.598 124.863c0 64.946-52.649 117.598-117.598 117.598S7.402 189.809 7.402 124.863C7.402 59.914 60.051 7.266 125 7.266s117.598 52.648 117.598 117.597zm0 0"/><path d="M125 250C55.965 250 0 194.035 0 125S55.965 0 125 0s125 55.965 125 125c-.082 69-56 124.918-125 125zm0-242.598C60.047 7.402 7.39 60.06 7.39 125.012c.005 64.957 52.66 117.61 117.618 117.605 64.953-.004 117.605-52.664 117.601-117.617C242.531 60.078 189.922 7.473 125 7.402zm0 0"/><path d="m58.297 128.402-1.336 6.625-1.309-6.89-5.129-24.723H41l-4.879 24.867-1.246 6.746-1.238-6.89-5.703-24.723h-9.582l12.246 43.18h8.375l5.218-25.25 1.524-8.356 1.523 8.356 5.211 25.25h8.64l12.15-43.18h-9.18zm0 0"/><path d="M225.004 125a99.693 99.693 0 0 0-23.668-64.578l12.629-12.64-12-12.005-12.64 12.653c-37.434-31.602-92.259-31.407-129.466.46L47.18 36.153 35.13 48.164 47.91 60.941a100.302 100.302 0 0 0-15.472 25.477h17.28c17.833-34.762 57.165-52.773 95.134-43.566 37.968 9.203 64.683 43.23 64.613 82.3-.07 39.07-26.906 73.004-64.91 82.075-38 9.07-77.27-9.086-94.977-43.91h-17.21a100.204 100.204 0 0 0 15.925 26.144l-12.691 12.691 12.003 12 12.68-12.652c37.059 31.398 91.328 31.594 128.617.465l12.688 12.687 12.004-12L200.98 190a99.683 99.683 0 0 0 24.024-65zm0 0"/><path d="m90.695 84.691 4.856 4.817c5.703 5.652 11.406 11.3 17.113 16.945a17.028 17.028 0 0 0 9.094 4.856 16.821 16.821 0 0 0 14.418-3.825c1.367-1.148 2.586-2.468 3.851-3.714l19.149-18.934.129-.145h14.027L159.5 98.383 144.227 113.5c-9.45 9.379-24.29 10.578-35.122 2.832a34.181 34.181 0 0 1-4.214-3.7L76.836 84.868l-.168-.176zM173.5 165.035h-13.762a.55.55 0 0 1-.425-.176l-22.094-21.87c-6.723-6.692-17.582-6.72-24.34-.06-7.418 7.274-14.742 14.606-22.172 21.91a.598.598 0 0 1-.465.196H76.48l.2-.215L105.805 136c10.652-10.523 27.8-10.488 38.41.078l29.039 28.73zm0 0"/></svg>