<svg xmlns="http://www.w3.org/2000/svg" width="250" height="250"><path fill="#e22f32" d="M139.16 82.46c-6.238-.753-9.21-3.581-9.21-3.581 2.722-5.945-8.446-20.09-8.446-20.09s20.383 13.125 17.656 23.672m86.137 94.594S250 165.004 250 138.637c-3.996 12.722-15.258 17.156-15.258 17.156s16.438-23.684 4.543-57.918c-14.656-43.082-60.957-67.055-107.972-67.29 34.867 3.599 52.714 37.747 52.714 37.747s-.957-10.926-5.175-20.465c38 14.059 52.402 52.996 48.625 83.32-4.465 35.868-32.5 70.067-63.61 80.868 0 0 2.363-5.301 2.094-12.332-37.004 25.836-79.156-.989-80.336-1.676-25.234-14.633-32.703-42.492-32.703-42.492 12.351 24.777 42.601 25.082 42.601 25.082s-1.476-22.754 58.754-4.64c0 0 12.145-2.083 19.25-6.575 1.375-.867.028-4.926 1.27-5.89 1.351-1.06 2.594-2.169 3.637-3.317 1.011-1.113-1.371-4.758-.645-5.813 1.559-2.27 2.32-4.332 1.734-5.902-3.453-9.207-3.632-14.566-10.714-14.566 6.718 2.847.18 12.722.18 12.722s-1.454 5.192-11.368 6.996c-.793.145-9.012-1.246-11.516-4.82-1.808-2.578 1.907-6.695 3.45-7.7-3.27.169-9.625 5.61-9.625 5.61s-1.364 6.863.672 10.711c-69.508 0-90.938-72.027-50.254-90.773-11.262 13.726-5.993 27.789-5.993 27.789s26.696-18.082 53.575 17.742c1.316 1.75 6.36 7.7 1.457 11.715 3.449.336 18.394-14.031 17.433-28.121-1.754-25.688-13.511-39.305-28.449-49.387C106.434 31.609 75.051 26.82 61.06.23c1.359 19.836 19.308 37.215 19.308 37.215s-27.332 6.278-46.586 21.848c13.168-7.281 31.059-1.258 31.059-1.258S31.602 62.891 18.437 77.54c8.446-4.144 25.97-2.93 25.97-2.93S16.89 81.891 4.901 104.74c13.442-10.212 29.97-11.048 29.97-11.048S8.444 104.738 0 133.617c6.684-10.246 23.156-16.492 23.156-16.492S5.723 132.863 7.164 160.887c1.89-3.063 6.988-3.395 6.988-3.395s5.727 66 81.516 87.707c29.187 8.36 57.832 4.18 79.984-3.93-12.105-1.44-18.46-5.628-18.46-5.628 9.277-.5 37.46-1.84 54.62-12.383-8.445.875-18.796-1.383-24.109-3.516 21.25-3.77 41.5-14.144 49.582-21.594-9.535 3.012-25.062 3.262-25.062 3.262s24.52-8.87 35.414-30.633c-9.809 6.36-22.34 6.278-22.34 6.278"/></svg>