<svg xmlns="http://www.w3.org/2000/svg" width="250" height="250"><g fill="#876c3c"><path d="M59 194.5h-2.5L47 206.75l-9.5-12.25H35l10.75 13.75L34.5 222.5H37l10-12.75 10 12.75h2.5l-11.25-14.25zM76.25 194.25l-13 28.25h2.25l3.5-7.75h16.5l3.5 7.75h2.25l-13-28.25zm-6.5 18.5 7.5-16.25 7.5 16.25zM117.75 211c0 1.75-.25 3.25-.75 4.5s-1 2.25-2 3.25c-.75.75-1.75 1.5-3 2s-2.5.75-3.75.75c-3 0-5.25-1-7-2.75s-2.5-4.5-2.5-7.75v-16.25h-2v16.5c0 2 .25 3.75.75 5.25s1.25 2.75 2.5 3.75c1 1 2.25 1.75 3.75 2.25s3 .75 4.75.75 3.25-.25 4.75-.75 2.5-1.25 3.75-2.25c1-1 1.75-2.25 2.25-3.75s.75-3.25.75-5.25V195h-2v16zM144.75 209.75c1-.5 1.75-1 2.5-1.5.75-.75 1.25-1.5 1.75-2.5s.5-2 .5-3.25c0-1-.25-2-.5-2.75-.25-1-1-1.75-1.5-2.25-.75-.75-2-1.5-3.25-2s-3-.75-4.5-.75H128v27.75h2v-11.75h9l9 11.75h2.75l-9.25-12c1 0 2.25-.25 3.25-.75zM130 209v-12.75h9.5c2.5 0 4.5.5 6 1.75 1.5 1 2 2.5 2 4.5 0 1-.25 2-.5 2.75-.5.75-1 1.5-1.75 2s-1.5 1-2.5 1.25-2 .5-3.25.5zM177.25 211c0 1.75-.25 3.25-.75 4.5s-1 2.25-2 3.25c-.75.75-1.75 1.5-3 2s-2.5.75-3.75.75c-3 0-5.25-1-7-2.75s-2.5-4.5-2.5-7.75v-16.25h-2v16.5c0 2 .25 3.75.75 5.25s1.25 2.75 2.5 3.75c1 1 2.25 1.75 3.75 2.25s3 .75 4.75.75 3.25-.25 4.75-.75 2.5-1.25 3.75-2.25c1-1 1.75-2.25 2.25-3.75s.75-3.25.75-5.25V195h-2v16zM200.5 211l-11.25-16.5h-2v28h2v-24.25l11.25 16 11.25-16v24.25h2v-28h-2zM171 93.25V83.5h18V72.75h12.75v-40.5h13.5V27h-54.5v5.25H184V65h-12.75v9.75h-18v5h-18.5c.25-.25.25-.5.5-1 1.5-3 3.75-4.25 5.25-4.5-.75.5-1 1.25-1 2 0 1.5 1.25 2.75 3 2.75 1 0 2-.5 2.5-1.25.75-1 1-2 .5-3-.75-1.5-2.75-2.5-4.75-2.5s-5.25 1.5-7.5 5.75c-.25.75-.75 1.25-1 2l-7-18-7 17.75-.75-1.5C115.25 74 112 72.5 110 72.5s-4 1-4.75 2.5c-.5 1-.25 2 .5 3 .5.75 1.5 1.25 2.5 1.25 1.75 0 3-1.25 3-2.75 0-.75-.5-1.5-1-2 1.5.25 3.75 1.5 5.25 4.5.25.25.25.5.5 1H97.25v-5h-18v-9.75H66.5v-33h23.25V27H35v5.25h13.5V73h12.75v10.75h18v9.75H96.5V98l-13 5 13 5v3.75H79.25v9.75h-18v10.75H48.5V173H35v5.25h54.75V173H66.5v-33.25h12.75V130h18v-4.75H116c-.25.25-.25.75-.5 1-1.5 3-3.75 4.25-5.25 4.5.75-.5 1-1.25 1-2 0-1.5-1.25-2.75-3-2.75-1 0-2 .5-2.5 1.25-.75 1-1 2-.5 3 .75 1.5 2.75 2.5 4.75 2.5s5.25-1.5 7.5-5.75c.25-.25.25-.75.5-1l7.25 18.5 7.25-18.75c.25.5.5 1 .75 1.25 2.25 4.25 5.5 5.75 7.5 5.75s4-1 4.75-2.5c.5-1 .25-2-.5-3-.5-.75-1.5-1.25-2.5-1.25-1.75 0-3 1.25-3 2.75 0 .75.5 1.5 1 2-1.5-.25-3.75-1.5-5.25-4.5-.25-.25-.25-.75-.5-1h18.5V130h18v9.75H184v32.75h-23.25v5.25h54.75v-5.25H202V132h-12.75v-10.75h-18v-9.75h-17.5v-3.75L167 102.5l-13.25-5.25V93H171zM150.5 103c-.5 0-.75.25-1.25.5 0 0-.25 0-.25.25 0 0-.25.25-.5.25s-.25.25-.25.25H148s-.25 0-.25.25c-.25 0-.25.25-.25.25h-.25l-.25-.25-.25-.25s-.25 0-.25-.25c-.25-.25-.75-.5-1-.75-.5-.25-.75-.25-1.25-.25h-4.75c.25 0 .5.25.75.25s.5 0 .75.25l3 1.5c1 .5 1.75 1.25 2.5 2.25l-.25.25-2.75 2.25h-.25c-.25-.75-.5-1.5-1-2.25s-1-1.25-1.75-1.75-1.25-1-2-1.5c-.25-.25-.75-.5-1-.5l-4.75 3.75 2.5 5.5-5.5-2.5-4.75 4.75-4.75-4.75-5.5 2.5 2.5-5.5-3.5-3.5c-.5.25-1.25.5-1.75 1-.75.5-1.25 1-1.75 1.5s-1 1-1.5 1.75-.75 1.25-1 2l-3-2.5-.25-.25c.75-1 1.5-1.75 2.5-2.25l3-1.5c.25 0 .5 0 .75-.25.25 0 .5-.25.75-.25H107c-.25 0-.5 0-1 .25-.25 0-.75.25-1 .5s-.5.25-1 .5c-.25.25-.5.5-.75.5 0 0-.25 0-.5-.25s-.25-.25-.5-.25c-.5-.25-1-.5-1.25-.75-.5-.25-1-.25-1.5-.5h-1c.5-.25.75-.25 1.25-.25s.75-.25 1.25-.5c0 0 .25 0 .25-.25 0 0 .25-.25.5-.25s.25-.25.25-.25h.25s.25 0 .25-.25c.25 0 .25-.25.25-.25h.25l.25.25.25.25s.25 0 .25.25c.25.25.75.5 1 .75.5.25.75.25 1.25.25h4.75c-.25 0-.5-.25-.75-.25s-.5 0-.75-.25l-3-1.5c-1-.5-1.75-1.25-2.5-2.25l.25-.25 2.75-2.25h.25c.25.75.5 1.5 1 2.25s1 1.25 1.75 1.75 1.25 1 2 1.5c.25.25.5.25 1 .5l4-4-2.5-5.5 5.5 2.5 4.5-4.5L129 95.5l5.5-2.25-2.25 5.5 3.75 3.75c.75-.25 1.5-.75 2-1 .75-.5 1.25-1 1.75-1.5s1-1 1.5-1.75.75-1.25 1-2l3 2.5.25.25c-.75 1-1.5 1.75-2.5 2.25l-3 1.5c-.25 0-.5 0-.75.25-.25 0-.5.25-.75.25h4.5c.25 0 .5 0 1-.25.25 0 .75-.25 1-.5s.5-.25 1-.5c.25-.25.5-.5.75-.5 0 0 .25 0 .5.25s.25.25.5.25c.5.25 1 .5 1.25.75.5.25 1 .25 1.5.5h1c-.25-.5-.75-.5-1-.25zm0 0"/></g></svg>