<svg xmlns="http://www.w3.org/2000/svg" width="250" height="250"><path fill="#e51838" d="M46.527 179.2h156.125v-38.716"/><path fill-rule="evenodd" d="M148.063 81.125h30.945l11.398 21.719 11.633-21.719h30.043L211.578 122.5l22.719 41.902h-31.64l-16.91-30.812-2.454.004 5.734 10.191-11 20.617H146.68l21.793-41.636"/><path d="M59.387 81.125v83.14H33.16V114.52l10.672-.028.004-2.199-25.414-.035 14.746-31.133M125.2 86.77l-14.063 26.257c.191.164.367.325.531.485 2.48 2.43 3.848 5.77 3.848 9.406 0 3.64-1.368 6.98-3.848 9.406-1.426 1.399-3.824 3.059-7.148 3.059-1.86 0-3.426-.52-4.7-1.223L86.3 159.398c5.626 3.192 12.063 5.004 18.907 5.004 21.953 0 39.746-18.64 39.746-41.636 0-15.364-7.937-28.778-19.754-35.996zM97.375 132.324c-2.48-2.426-3.848-5.77-3.848-9.406s1.368-6.977 3.848-9.406c1.426-1.395 3.824-3.059 7.148-3.059 1.864 0 3.438.524 4.711 1.23l13.903-26.09a38.14 38.14 0 0 0-17.93-4.468c-21.95 0-39.746 18.64-39.746 41.64 0 15.012 7.586 28.165 18.957 35.493l13.535-25.403c-.207-.18-.398-.355-.578-.53zm0 0"/></svg>