<svg xmlns="http://www.w3.org/2000/svg" width="250" height="250"><path d="M250 125c0 69.035-55.965 125-125 125S0 194.035 0 125 55.965 0 125 0s125 55.965 125 125zm0 0"/><path d="M159.375 37.5h-68.75l-71.094 86.719 71.875 87.5h68.75l71.094-87.5zm0 0"/><path fill="#fff" d="M152.344 53.906 210.938 125l-58.594 70.313H98.438L39.843 125l58.593-71.094zm4.687-10.156H93.75l-67.188 80.469 66.407 80.469h63.281l66.406-80.47zm0 0"/><g fill="#00d9ff"><path d="M146.094 178.906h-42.969L58.594 125l45.312-54.688h42.969l44.531 53.907zm-40.625-3.125h39.844L187.5 125l-42.188-50.781H105.47L63.28 125zm0 0"/><path d="M135.156 150h-20.312v-.781l-21.094-25 21.094-25.781h20.312l21.094 25zm-19.531-1.563h18.75l19.531-24.218L134.375 100h-18.75l-19.531 24.219zm0 0"/></g></svg>