<svg xmlns="http://www.w3.org/2000/svg" width="250" height="250"><linearGradient id="a" x1="238.75" x2="125" y1="-6.25" y2="192.083" gradientUnits="userSpaceOnUse"><stop offset="0" stop-color="#9fdcff" stop-opacity=".5"/><stop offset="1" stop-color="#fff" stop-opacity="0"/><stop offset="1" stop-color="#86d3ff" stop-opacity="0"/></linearGradient><linearGradient id="b" x1="97" x2="244" y1="306" y2="34.5" gradientUnits="userSpaceOnUse"><stop offset="0" stop-opacity=".4"/><stop offset="1" stop-opacity="0"/></linearGradient><path fill="#016eac" d="M250 125c0 69.035-55.965 125-125 125S0 194.035 0 125 55.965 0 125 0s125 55.965 125 125zm0 0"/><path fill="url(#a)" d="M250 125c0 69.035-55.965 125-125 125S0 194.035 0 125 55.965 0 125 0s125 55.965 125 125zm0 0"/><path fill="none" stroke="url(#b)" stroke-width="16" d="M291.998 150c0 78.427-63.571 141.998-141.998 141.998C71.573 291.998 8.002 228.427 8.002 150 8.002 71.573 71.573 8.002 150 8.002c78.427 0 141.998 63.571 141.998 141.998zm0 0" transform="scale(.83333)"/><g fill="#fff"><path fill-rule="evenodd" d="m93.566 196.172 70.149-121.5 23.61 13.633-62.294 107.894H93.617zm0 0"/><path fill-rule="evenodd" d="m55.402 73.906 38.676 66.992h31.48L86.884 73.906zm0 0"/><path d="m187.625 60.418 7.531 51.953-56.293-32.504zm0 0"/></g></svg>