<svg xmlns="http://www.w3.org/2000/svg" width="250" height="250"><linearGradient id="a" x1="250" x2="0" y1="131.75" y2="132.5" gradientUnits="userSpaceOnUse"><stop offset="0" stop-color="#075eb6"/><stop offset="1" stop-color="#0377fc"/></linearGradient><path fill="url(#a)" d="M250 125c0 69.035-55.965 125-125 125S0 194.035 0 125 55.965 0 125 0s125 55.965 125 125zm0 0"/><g fill="#fff"><path d="M135.824 126.848c3.422 2.304 6.348 3.922 8.848 6.043a138.369 138.369 0 0 1 10.07 9.605c4.883 5.066 6.98 11.41 7.996 18.238 1.711 11.477-1.468 21.352-8.441 30.614-9.82 13.043-31.512 18.097-44.457 12.156-7.164-3.285-13.633-7.375-17.813-13.602-6.379-9.5-10.41-20.062-5.695-31.851 1.219-3.051 2.363-6.13 3.652-9.473-4.875.977-9.691 1.93-14.535 2.899-.836-3.34-1.66-6.23-2.195-9.18a2.511 2.511 0 0 1 1.414-2.008c10.703-2.266 21.45-4.344 32.152-6.61 1.903-.406 2.442.157 2.649 1.856.75 6.094 1.511 12.192 2.36 18.274.628 4.535 1.304 9.074 2.136 13.574.347 1.89-.074 2.758-2.04 2.93-2.874.246-5.734.62-8.702.957l-2.7-17.918c-4.003 7.199-6.687 13.585-3.949 21.093 2.188 5.989 5.23 11.489 10.52 15.067 8.515 5.77 17.758 7.367 27.597 3.207a27.275 27.275 0 0 0 13.168-11.035 27.582 27.582 0 0 0 3.364-22.227c-1.918-7.094-5.696-12.73-12.207-16.504-2.016-1.172-3.598-2.945-3.27-5.887.348-3.082.078-6.238.078-10.218zM160.746 98.75c4.793-1.629 9.191-3.117 14.05-4.766 1.005 2.891 2.114 5.57 2.794 8.36a3.133 3.133 0 0 1-1.582 2.57 1315.819 1315.819 0 0 1-28.383 10.547c-4.023 1.457-4.004 1.121-5.078-2.992-2.094-8.055-4.559-16.016-6.856-24.024-.629-2.187-1.214-4.394-1.906-6.898 3.07-1.098 6.211-2 9.395-2.703.64-.114 2.039 1.96 2.46 3.234.91 2.762 1.352 5.664 2.106 8.484.367 1.391 1.004 2.704 1.711 4.56 3.102-5.68 3.336-11.263 2.398-16.93a27.062 27.062 0 0 0-14.761-20.239 30.044 30.044 0 0 0-13.867-3.14c-10.262.18-18.348 5.136-23.801 13.921-6.121 10.043-5.074 22.891 2.59 31.817a66.802 66.802 0 0 0 10.066 8.676c1.797 1.343 2.684 2.668 2.606 4.882-.118 3.332-.032 6.668-.032 10.77-2.965-2.059-5.5-3.606-7.789-5.453-4.262-3.442-8.531-6.895-12.52-10.637-5.624-5.281-8.202-12.266-9.343-19.648-2.05-13.282 2.012-24.895 11.562-34.137 10.239-9.902 22.704-12.988 36.688-9.961 10.375 2.246 18.316 8.203 23.918 16.824 5.836 8.985 7.414 19.125 5.187 29.723-.468 2.238-1 4.45-1.613 7.16zm0 0"/><path d="M130.55 73.656v102.281c-3.265 0-6.366.051-9.468-.019-2.246-.047-1.562-1.863-1.562-3.059-.036-16.214-.04-32.43-.012-48.644 0-15.692.066-31.387-.055-47.07-.023-2.727.649-3.817 3.492-3.536 2.375.235 4.797.047 7.606.047zm0 0"/></g></svg>