<svg xmlns="http://www.w3.org/2000/svg" width="250" height="250"><path fill="#3760d8" d="M250 125c0 69.035-55.965 125-125 125S0 194.035 0 125 55.965 0 125 0s125 55.965 125 125zm0 0"/><g fill="#fff"><path d="m177.8 51.773-14.624 5.028 5.324 16.574L125 50.898l-58.727 32.25v43.625l23.528-8.273-.153-21.75L125 77.95l33.875 16.425L142 100.602l5.324 15.222 46.602-16.574zM72.2 198.227l14.624-5.028-5.324-16.574 43.352 22.477 58.875-32.25v-43.625l-23.528 8.273.153 21.75-35.5 18.8-33.727-16.425L108 149.398l-5.324-15.222-46.602 16.574zm0 0"/></g></svg>