<svg xmlns="http://www.w3.org/2000/svg" width="250" height="250"><path fill="#2a5bdb" d="M249.414 124.61c0 69.035-55.965 125-125 125s-125-55.965-125-125 55.965-125 125-125 125 55.964 125 125zm0 0"/><g fill="#fff"><path d="m153.516 85.547-7.813 2.734 2.734 8.985L125 84.96l-31.64 17.578v23.438l12.695-4.493v-11.718L125 99.609l18.36 8.79-9.18 3.515 2.93 8.008 25.195-8.79zM96.68 163.867l7.812-2.734-2.734-8.985L125 164.258l31.836-17.383v-23.438l-12.695 4.297v11.72L125 149.803l-18.164-8.984 9.18-3.32-2.93-8.203-25.195 8.984zM64.844 89.844h14.648v43.945c0 8.594-2.539 15.234-7.617 19.922s-12.305 7.031-21.68 7.031-16.406-2.344-21.484-7.031c-5.078-4.688-7.617-11.328-7.617-19.922V89.844h14.648v43.75c0 4.297 1.367 7.812 3.906 10.351 2.54 2.54 6.25 3.907 10.743 3.907 4.687 0 8.203-1.368 10.742-3.907 2.539-2.539 3.906-6.054 3.906-10.351v-43.75zM170.313 87.695h29.101c10.547 0 18.555 3.125 24.024 9.375s8.203 14.844 8.203 25.586-2.735 19.14-8.203 25.39-13.477 9.376-24.024 9.376h-29.101zm14.648 56.64h12.695c6.64 0 11.524-1.952 14.649-6.054s4.687-9.375 4.687-15.82-1.562-11.914-4.687-15.82c-3.125-4.102-8.008-6.055-14.649-6.055h-12.695zm0 0"/></g></svg>