<svg width="250" height="250" viewBox="0 0 250 250" fill="none" xmlns="http://www.w3.org/2000/svg">
<g clip-path="url(#clip0_913_9369)">
<path d="M125 0C55.9769 0 0 55.9677 0 124.994C0 194.019 55.9769 250 125 250C194.023 250 250 194.032 250 124.994C250 55.9548 194.043 0 125 0ZM42.3852 98.6323C42.3852 75.9484 60.7747 57.5613 83.4626 57.5613C103.219 57.5613 113.577 68.3484 118.868 77.6774L102.647 91.2129C98.5265 82.2258 92.6968 78.0903 83.4626 78.0903C72.1121 78.0903 62.9239 87.2839 62.9239 98.6323C62.9239 109.981 72.1121 119.174 83.4626 119.174C88.2604 119.174 93.8535 116.458 97.3369 113.716L151.704 64.8774C168.345 51.7419 183.77 53.8387 193.248 57.4065L173.294 73.8774C171.322 75.4 169.298 77.0194 167.129 78.9419L107.498 131.955C100.735 136.839 92.4339 139.716 83.456 139.716C60.7682 139.716 42.3787 121.31 42.3787 98.6258L42.3852 98.6323ZM166.544 192.439C146.097 192.439 135.693 180.871 130.58 171.335L146.952 157.877C151.086 167.497 157.007 171.897 166.544 171.897C177.894 171.897 187.083 162.703 187.083 151.355C187.083 140.006 177.894 130.813 166.544 130.813C164.152 130.813 161.556 131.49 159.117 132.51C156.679 133.542 154.411 134.903 152.67 136.271L98.303 185.11C81.6618 198.245 66.2364 196.148 56.7787 192.581L76.7128 176.11C78.6845 174.606 80.7088 172.968 82.8776 171.045L142.522 118.045C149.272 113.161 157.573 110.284 166.551 110.284C189.238 110.284 207.641 128.671 207.641 151.355C207.641 174.039 189.238 192.445 166.551 192.445L166.544 192.439Z" fill="#104499"/>
<path d="M42.3852 98.6323C42.3852 75.9484 60.7748 57.5613 83.4626 57.5613C103.219 57.5613 113.577 68.3484 118.868 77.6774L102.647 91.2129C98.5265 82.2258 92.6968 78.0903 83.4626 78.0903C72.1121 78.0903 62.9239 87.2839 62.9239 98.6323C62.9239 109.981 72.1121 119.174 83.4626 119.174C88.2604 119.174 93.8535 116.458 97.3369 113.716L151.704 64.8774C168.345 51.7419 183.77 53.8387 193.248 57.4064L173.294 73.8774C171.322 75.4 169.298 77.0193 167.129 78.9419L107.498 131.955C100.735 136.839 92.4339 139.716 83.456 139.716C60.7682 139.716 42.3787 121.31 42.3787 98.6258L42.3852 98.6323Z" fill="white"/>
<path d="M166.544 192.439C146.097 192.439 135.693 180.871 130.58 171.335L146.952 157.877C151.086 167.497 157.007 171.897 166.544 171.897C177.894 171.897 187.083 162.703 187.083 151.355C187.083 140.006 177.894 130.813 166.544 130.813C164.152 130.813 161.556 131.49 159.117 132.51C156.679 133.542 154.411 134.903 152.67 136.271L98.303 185.11C81.6618 198.245 66.2364 196.148 56.7787 192.581L76.7128 176.11C78.6845 174.606 80.7088 172.968 82.8776 171.045L142.522 118.045C149.272 113.161 157.573 110.284 166.551 110.284C189.238 110.284 207.641 128.671 207.641 151.355C207.641 174.039 189.238 192.445 166.551 192.445L166.544 192.439Z" fill="white"/>
</g>
<defs>
<clipPath id="clip0_913_9369">
<rect width="250" height="250" fill="white"/>
</clipPath>
</defs>
</svg>
