<svg xmlns="http://www.w3.org/2000/svg" width="250" height="250"><path fill="#34673a" d="M105.715 248.855c-26.715-4.07-50.93-16.785-70.785-37.21-16.785-17.29-27.5-37.715-32.93-62.43-1.355-6.5-1.57-9.5-1.57-24.215 0-14.785.215-17.715 1.57-24.285 5.715-26.215 17.715-47.93 36.715-66.07C62.5 11.855 92.07 0 125 0c24.785 0 47.57 6.645 67.855 19.855 8.645 5.575 15.075 11 23.43 19.79 15.785 16.5 26.5 37.14 31.715 61.14 1.355 6.5 1.57 9.5 1.645 23.86 0 19.21-.79 24.71-5.715 39.425-15.145 45.5-53.86 78.215-100.36 84.86-9.425 1.285-28.785 1.285-37.855-.075zm0 0"/><path fill="#5ab669" d="M105.715 248.855c-27.07-4.21-50.93-16.785-70.785-37.21-16.785-17.29-27.5-37.715-32.93-62.43-1.355-6.5-1.57-9.5-1.57-24.215 0-14.785.215-17.715 1.57-24.285 5.715-26.215 17.715-47.93 36.715-66.07C62.5 11.855 92.07 0 125 0c24.785 0 47.57 6.645 67.855 19.855 8.645 5.575 15.075 11 23.43 19.79 15.785 16.5 26.5 37.14 31.715 61.14 1.355 6.5 1.57 9.5 1.645 23.86 0 18.21-.79 24.14-4.715 36.57-2.86 8.93-6.36 17.5-7.075 17.215-.355-.145-10.425-12.93-22.5-28.43-22.785-29.285-23.925-30.645-22.57-28.07 1 1.925 1 8.285.07 11.64-.855 3.215-4.425 7.43-8.07 9.785-2.14 1.36-4.215 1.93-7.64 2.215-4.215.285-5.145.075-9.145-1.925-3.43-1.715-5-3.075-6.645-5.645-1.14-1.855-2.285-4.145-2.5-5.145-.855-3.925-1.14-4.285-2.785-4.285-1.355 0-1.785.575-2.5 3.645-3.785 15.57-20.425 25.355-35.715 20.855-4.21-1.215-6.07-2.14-10.5-5.355-4.21-3.07-8.855-10.215-10.285-15.785-.715-3.075-1-3.43-2.64-3.215-1.5.14-2 .855-3 4-3.43 10.355-13.285 15.785-23 12.5l-4.075-1.43 1.36 1.86c.715 1 19 24.5 40.64 52.21 36.43 46.715 39.145 50.43 37.715 51-2.925 1.145-30.925 1.215-38.355 0zm0 0"/><path fill="#fff" d="M119.285 153.355c-5.14-1.21-9.43-3.5-13.355-7.14-4.285-3.93-6.645-7.715-8.075-13-1.14-4.145-1.285-4.285-3.71-4.5-2.5-.215-2.5-.215-3 3.285-1.43 10.785-14.645 17.285-24.715 12.285-3.86-1.93-6.36-4.64-8.36-9-6.64-14.64 9.5-29.855 23.93-22.5 3.285 1.645 7.785 6.5 8.43 9 .355 1.5.855 1.785 3.14 1.785 2.645 0 2.715-.07 3.145-3.215.785-4.925 4.93-12.57 9-16.355 9.14-8.57 21.785-10.285 33-4.645 7.715 3.86 14 12.36 15.43 20.715.5 2.785.71 3.145 2.5 3.145 1.57 0 2.355-.715 4.21-3.93 3.215-5.285 7.715-8.07 13.79-8.43 5.57-.355 9 .715 12.64 4 5.785 5.215 7.715 12.79 4.93 19.645-5 12.355-20.5 14.93-29.57 4.855-2.36-2.64-4.075-6.57-4.075-9.5 0-.925-.57-1.285-2.07-1.285-1.855 0-2.145.36-2.855 3.285-3.145 12.43-13.36 21-26.145 22.075-2.355.14-6.07-.075-8.215-.575zm0 0"/></svg>