<svg xmlns="http://www.w3.org/2000/svg" xmlns:xlink="http://www.w3.org/1999/xlink" width="250" height="250"><symbol id="a" overflow="visible"><path d="M2.203 0v-5.36l13.703-18.296H3.312v-5.469H24.25v5.406L10.625-5.516h14.953V0zm0 0"/></symbol><symbol id="b" overflow="visible"><path d="M3.844-34.375v-5.563h7.562v5.563zM3.844 0v-29.125h7.562V0zm0 0"/></symbol><symbol id="c" overflow="visible"><path d="M3.844 0v-39.938h7.562V0zm0 0"/></symbol><symbol id="d" overflow="visible"><path d="M2.266-14.531c0-4.813.976-8.54 2.937-11.188 1.969-2.644 4.738-3.968 8.313-3.968 4.226 0 7.16 1.75 8.796 5.25 0-.82.047-1.739.141-2.75.102-1.02.192-1.665.266-1.938h7.265a125.109 125.109 0 0 0-.156 6.703v33.86h-7.515V-.672l.14-4.172h-.062C20.723-1.258 17.555.531 12.89.531c-3.387 0-6.008-1.32-7.86-3.969C3.188-6.082 2.266-9.78 2.266-14.53zm20.109-.172c0-3.102-.523-5.508-1.563-7.219-1.042-1.719-2.578-2.578-4.609-2.578-4.043 0-6.062 3.324-6.062 9.969 0 6.605 2.004 9.906 6.015 9.906 1.969 0 3.492-.875 4.578-2.625 1.094-1.75 1.641-4.234 1.641-7.453zm0 0"/></symbol><symbol id="e" overflow="visible"><path d="M10.578.531c-2.812 0-5.012-.765-6.594-2.297C2.398-3.296 1.61-5.453 1.61-8.234c0-3.02.985-5.317 2.954-6.891 1.968-1.582 4.816-2.39 8.546-2.422l6.266-.11v-1.484c0-1.894-.336-3.304-1-4.234-.656-.926-1.742-1.39-3.25-1.39-1.398 0-2.422.32-3.078.953-.656.636-1.063 1.695-1.219 3.171l-7.89-.375c.476-2.843 1.769-4.992 3.874-6.453 2.114-1.457 4.993-2.187 8.641-2.187 3.676 0 6.508.906 8.5 2.718 1.988 1.813 2.985 4.387 2.985 7.72V-8.61c0 1.636.18 2.761.546 3.375.375.617.993.921 1.86.921.57 0 1.129-.05 1.672-.156v4.094c-.461.105-.868.203-1.22.297-.355.082-.714.148-1.077.203-.356.063-.735.11-1.14.14-.407.04-.884.063-1.423.063-1.898 0-3.297-.46-4.203-1.39-.906-.938-1.45-2.313-1.625-4.125h-.172C18.04-1.376 14.848.53 10.578.53zm8.797-14.015-3.875.046c-1.762.075-3.012.274-3.75.594-.73.313-1.29.793-1.672 1.438-.387.648-.578 1.508-.578 2.578 0 1.387.316 2.418.953 3.094.633.668 1.485 1 2.547 1a5.76 5.76 0 0 0 3.25-.97c.977-.644 1.742-1.534 2.297-2.671A8.254 8.254 0 0 0 19.375-12zm0 0"/></symbol><path fill="#49c1bf" d="M159.5 64.777 59.535 16.82v26.278l68.77 32.992-68.77 33.496v26.277L159.5 183.82v-26.277L91.996 125.16 159.5 91.055zm0 0"/><path fill="#298e97" d="m159.5 64.887 25.965-11.555V79.34L159.5 90.895zM159.5 183.816l25.965-11.504v-80.32L159.5 103.496zm0 0"/><g fill="#077a8f"><path d="M85.672 5.46 59.535 16.82l.387.188L159.5 64.887l25.965-11.555zm0 0"/><use xlink:href="#a" x="49.273" y="230.408"/><use xlink:href="#b" x="76.834" y="230.408"/><use xlink:href="#c" x="92.268" y="230.408"/><use xlink:href="#c" x="107.702" y="230.408"/><use xlink:href="#b" x="123.136" y="230.408"/><use xlink:href="#d" x="138.57" y="230.408"/><use xlink:href="#e" x="172.746" y="230.408"/></g></svg>