<svg width="512" height="512" viewBox="0 0 512 512" fill="none" xmlns="http://www.w3.org/2000/svg">
<rect width="512" height="512" rx="256" fill="#01010F"/>
<g clip-path="url(#clip0)">
<path fill-rule="evenodd" clip-rule="evenodd" d="M81.7402 253.48C81.7402 253.48 77.6412 237.695 95.795 225.417C113.949 213.138 197.692 169.289 197.692 169.289C197.692 169.289 222.873 171.335 213.504 185.075C207.551 193.804 101.066 251.726 101.066 251.726C101.066 251.726 82.6186 261.958 81.7402 253.48Z" fill="black"/>
<path d="M81.7402 253.48C81.7402 253.48 77.6412 237.695 95.795 225.417C113.949 213.138 197.692 169.289 197.692 169.289C197.692 169.289 222.873 171.335 213.504 185.075C207.551 193.804 101.066 251.726 101.066 251.726C101.066 251.726 82.6186 261.958 81.7402 253.48Z" fill="url(#paint0_linear)"/>
<path fill-rule="evenodd" clip-rule="evenodd" d="M102.822 302.591L94.0381 281.543C94.0381 281.543 174.502 245.411 218.774 209.629C232.497 198.538 319.622 127.24 339.996 125.438C360.406 123.632 379.973 127.531 375.903 136.387C373.913 140.719 284.844 185.053 246.884 221.907C208.585 259.092 102.822 302.591 102.822 302.591Z" fill="black"/>
<path d="M102.822 302.591L94.0381 281.543C94.0381 281.543 174.502 245.411 218.774 209.629C232.497 198.538 319.622 127.24 339.996 125.438C360.406 123.632 379.973 127.531 375.903 136.387C373.913 140.719 284.844 185.053 246.884 221.907C208.585 259.092 102.822 302.591 102.822 302.591Z" fill="url(#paint1_linear)"/>
<path fill-rule="evenodd" clip-rule="evenodd" d="M122.147 348.196L113.363 325.394C113.363 325.394 188.994 289.839 213.503 272.774C240.208 254.182 276.93 224.513 324.185 190.337C345.074 175.228 385.674 162.273 385.674 162.273C385.674 162.273 399.964 169.955 399.729 185.075C399.717 185.855 376.006 190.161 347.023 206.122C325.707 217.861 302.054 238.009 280.264 256.988C257.969 276.407 193.124 318.612 167.825 330.656C153.838 337.315 122.147 348.196 122.147 348.196Z" fill="black"/>
<path d="M122.147 348.196L113.363 325.394C113.363 325.394 188.994 289.839 213.503 272.774C240.208 254.182 276.93 224.513 324.185 190.337C345.074 175.228 385.674 162.273 385.674 162.273C385.674 162.273 399.964 169.955 399.729 185.075C399.717 185.855 376.006 190.161 347.023 206.122C325.707 217.861 302.054 238.009 280.264 256.988C257.969 276.407 193.124 318.612 167.825 330.656C153.838 337.315 122.147 348.196 122.147 348.196Z" fill="url(#paint2_linear)"/>
<path fill-rule="evenodd" clip-rule="evenodd" d="M134.446 374.506C134.446 374.506 151.029 392.956 173.096 383.276C196.287 373.102 274.745 324.958 299.589 304.346C324.536 283.649 352.998 262.25 366.349 253.48C379.702 244.71 413.784 235.94 413.784 235.94C413.784 235.94 423.271 231.73 408.514 209.63C407.694 207.759 375.02 219.626 352.295 234.186C331.807 247.313 248.172 313.935 211.747 334.164C195.254 343.323 141.825 372.401 134.446 374.506Z" fill="black"/>
<path d="M134.446 374.506C134.446 374.506 151.029 392.956 173.096 383.276C196.287 373.102 274.745 324.958 299.589 304.346C324.536 283.649 352.998 262.25 366.349 253.48C379.702 244.71 413.784 235.94 413.784 235.94C413.784 235.94 423.271 231.73 408.514 209.63C407.694 207.759 375.02 219.626 352.295 234.186C331.807 247.313 248.172 313.935 211.747 334.164C195.254 343.323 141.825 372.401 134.446 374.506Z" fill="url(#paint3_linear)"/>
<path fill-rule="evenodd" clip-rule="evenodd" d="M301.346 334.163C301.346 334.163 323.834 354.509 341.753 330.655C359.673 306.801 402.166 290.628 413.784 285.051C432.055 276.281 429.596 255.233 429.596 255.233C429.596 255.233 409.334 244.826 359.322 285.051C329.117 309.346 303.103 330.655 301.346 334.163Z" fill="black"/>
<path d="M301.346 334.163C301.346 334.163 323.834 354.509 341.753 330.655C359.673 306.801 402.166 290.628 413.784 285.051C432.055 276.281 429.596 255.233 429.596 255.233C429.596 255.233 409.334 244.826 359.322 285.051C329.117 309.346 303.103 330.655 301.346 334.163Z" fill="url(#paint4_linear)"/>
</g>
<defs>
<linearGradient id="paint0_linear" x1="81.3435" y1="256.842" x2="82.2275" y2="180.81" gradientUnits="userSpaceOnUse">
<stop stop-color="#1A81EA"/>
<stop offset="1" stop-color="#781BC2"/>
</linearGradient>
<linearGradient id="paint1_linear" x1="123.558" y1="301.618" x2="109.073" y2="160.283" gradientUnits="userSpaceOnUse">
<stop stop-color="#1A81EA"/>
<stop offset="0.317895" stop-color="#781BC2"/>
<stop offset="0.623103" stop-color="#781BC2"/>
<stop offset="0.88" stop-color="#449BD0"/>
<stop offset="1" stop-color="#21E7D0"/>
</linearGradient>
<linearGradient id="paint2_linear" x1="143.297" y1="347.177" x2="127.803" y2="198.456" gradientUnits="userSpaceOnUse">
<stop stop-color="#1A81EA"/>
<stop offset="0.308108" stop-color="#781BC2"/>
<stop offset="0.53" stop-color="#781BC2"/>
<stop offset="0.88" stop-color="#449BD0"/>
<stop offset="1" stop-color="#21E7D0"/>
</linearGradient>
<linearGradient id="paint3_linear" x1="163.959" y1="385.116" x2="160.638" y2="228.176" gradientUnits="userSpaceOnUse">
<stop stop-color="#1A81EA"/>
<stop offset="0.28406" stop-color="#781BC2"/>
<stop offset="0.53" stop-color="#781BC2"/>
<stop offset="0.88" stop-color="#449BD0"/>
<stop offset="1" stop-color="#21E7D0"/>
</linearGradient>
<linearGradient id="paint4_linear" x1="301.346" y1="342.25" x2="301.346" y2="266.672" gradientUnits="userSpaceOnUse">
<stop offset="0.0885417" stop-color="#781BC2"/>
<stop offset="0.546875" stop-color="#4A8BDF"/>
<stop offset="0.859375" stop-color="#21E7D0"/>
</linearGradient>
<clipPath id="clip0">
<rect width="348.596" height="261.089" fill="white" transform="translate(81.3186 125)"/>
</clipPath>
</defs>
</svg>
