<svg xmlns="http://www.w3.org/2000/svg" width="250" height="250"><g fill-rule="evenodd"><path fill="#f6f6f6" d="M179.824 39.05c-.543.766-5.25 5.934-10.46 11.481-5.212 5.547-19.079 20.422-30.813 33.055-11.735 12.629-23.567 25.34-26.293 28.242-8.34 8.887-53.781 57.75-57.215 61.527-1.777 1.954-3.113 3.868-2.969 4.258.297.801 13.848 13.653 14.399 13.653.199 0 6.406-6.524 13.793-14.496 7.386-7.973 15.832-17.036 18.773-20.145 2.938-3.105 7.523-8.016 10.191-10.91 2.668-2.895 7.247-7.809 10.176-10.918a2275.82 2275.82 0 0 0 11.242-12.055c14.196-15.344 33.618-36.21 39.95-42.922 4.832-5.12 12.52-13.398 15.394-16.578.621-.683 3.278-3.5 5.903-6.254 2.625-2.758 4.66-5.32 4.52-5.703-.43-1.164-13.985-13.633-14.821-13.633-.434 0-1.23.63-1.77 1.399m-89.59 6.031c-.136.36-9.925 10.777-21.757 23.156-11.829 12.375-23.008 24.153-24.844 26.176l-3.344 3.672 7.523 7.05 7.524 7.048 2.34-2.438c1.285-1.344 10.242-10.742 19.902-20.89 9.66-10.149 20.125-21.075 23.254-24.286l5.688-5.84-7.125-7.152c-6.704-6.73-8.563-8.05-9.16-6.496m93.484 94.79c-2.64 2.796-8.207 8.648-12.371 13.007-4.16 4.355-11.114 11.64-15.446 16.187a2895.208 2895.208 0 0 1-13.156 13.723l-5.277 5.457 4.12 4.203c2.266 2.313 5.688 5.531 7.602 7.153l3.485 2.945 15.668-16.371c23.625-24.692 30.61-32.016 33.054-34.684l2.23-2.43-7.108-7.136c-3.91-3.926-7.31-7.137-7.555-7.137s-2.606 2.285-5.246 5.082"/><path fill="#040404" d="M0 125.004v125l125.188-.191 125.187-.188L250.758 0H0zm.367.371c0 68.75.09 96.988.2 62.75.105-34.238.105-90.488 0-125-.11-34.512-.2-6.5-.2 62.25m179.457-86.324c-.543.765-5.25 5.933-10.46 11.48-5.212 5.547-19.079 20.422-30.813 33.055-11.735 12.629-23.567 25.34-26.293 28.242-8.34 8.887-53.781 57.75-57.215 61.527-1.777 1.954-3.113 3.868-2.969 4.258.297.801 13.848 13.653 14.399 13.653.199 0 6.406-6.524 13.793-14.496 7.386-7.973 15.832-17.036 18.773-20.145 2.938-3.105 7.523-8.016 10.191-10.91 2.668-2.895 7.247-7.809 10.176-10.918a2275.82 2275.82 0 0 0 11.242-12.055c14.196-15.344 33.618-36.21 39.95-42.922 4.832-5.12 12.52-13.398 15.394-16.578.621-.683 3.278-3.5 5.903-6.254 2.625-2.758 4.66-5.32 4.52-5.703-.43-1.164-13.985-13.633-14.821-13.633-.434 0-1.23.63-1.77 1.399m-89.59 6.031c-.136.36-9.925 10.777-21.757 23.156-11.829 12.375-23.008 24.153-24.844 26.176l-3.344 3.672 7.523 7.05 7.524 7.048 2.34-2.438c1.285-1.344 10.242-10.742 19.902-20.89 9.66-10.149 20.125-21.075 23.254-24.286l5.688-5.84-7.125-7.152c-6.704-6.73-8.563-8.05-9.16-6.496m93.484 94.79c-2.64 2.796-8.207 8.648-12.371 13.007-4.16 4.355-11.114 11.64-15.446 16.187a2895.208 2895.208 0 0 1-13.156 13.723l-5.277 5.457 4.12 4.203c2.266 2.313 5.688 5.531 7.602 7.153l3.485 2.945 15.668-16.371c23.625-24.692 30.61-32.016 33.054-34.684l2.23-2.43-7.108-7.136c-3.91-3.926-7.31-7.137-7.555-7.137s-2.606 2.285-5.246 5.082"/></g></svg>