<svg xmlns="http://www.w3.org/2000/svg" width="250" height="250"><path fill="#302c2c" d="M250 125c0 69.035-55.965 125-125 125S0 194.035 0 125 55.965 0 125 0s125 55.965 125 125zm0 0"/><path fill="#fff" fill-rule="evenodd" d="M121.063 210.938c-2.11-.22-4.22-.415-6.329-.665a84.997 84.997 0 0 1-32.203-10.656c-.148-.078-.281-.195-.57-.39 17.234-12.891 34.39-25.704 51.64-38.594l5.196 5.054c2.89 2.829 5.797 5.625 8.633 8.493.703.703 1.21.695 2.03.273a55.873 55.873 0 0 0 21.313-18.672l.836-1.234c.243.281.47.508.657.758 5.992 7.984 11.976 15.968 17.992 23.93.523.687.46 1.093-.094 1.718-13.93 15.828-31.242 25.578-52.11 28.914-2.624.422-5.288.578-7.937.867-.351.04-.703.133-1.047.203zm7.578-171.875c1.453.148 2.914.304 4.375.437 12.312 1.172 23.828 4.82 34.554 10.938.157.093.29.203.547.39l-52.484 37.649c-.695-.657-1.367-1.282-2.031-1.93-3.688-3.594-7.391-7.18-11.055-10.805-.586-.578-1.031-.64-1.766-.273a55.863 55.863 0 0 0-21.64 18.937l-.782 1.172-19.28-25.687c1.944-2.063 3.741-4.118 5.687-6.016 12.68-12.367 27.734-20.234 45.18-23.398 3.359-.61 6.788-.813 10.187-1.211.383-.04.765-.133 1.14-.203zM50.453 82.297l39.024 51.156-7.875 8.078c-1.961 2.008-3.907 4.04-5.907 6.016-.562.562-.586.992-.242 1.68a55.725 55.725 0 0 0 18.93 21.64c.273.172.547.352.805.547.046.031.07.11.21.375L69.922 190.9c-15.234-13.118-25.117-29.282-29.086-48.883-4.25-20.985-.805-40.813 9.625-59.72zm110.742 34.14 7.172-7.445c2-2.078 3.969-4.18 6.016-6.203.64-.633.633-1.11.258-1.86A55.763 55.763 0 0 0 155.5 79.07c-.29-.195-.57-.406-1.063-.757l25.618-19.22c14.507 12.423 24.14 27.735 28.562 46.212 5.524 23.062.602 45.875-8.96 61.937zm0 0"/></svg>